<?xml version="1.0" encoding="utf-8"?>
<!-- Generator: Adobe Illustrator 16.0.0, SVG Export Plug-In . SVG Version: 6.00 Build 0)  -->
<!DOCTYPE svg PUBLIC "-//W3C//DTD SVG 1.1//EN" "http://www.w3.org/Graphics/SVG/1.1/DTD/svg11.dtd">
<svg version="1.1" id="Layer_1" xmlns="http://www.w3.org/2000/svg" xmlns:xlink="http://www.w3.org/1999/xlink" x="0px" y="0px"
	 width="564px" height="1002px" viewBox="0 0 564 1002" enable-background="new 0 0 564 1002" xml:space="preserve">
<g>
	<defs>
		<rect id="SVGID_15_" width="564" height="1002"/>
	</defs>
	<clipPath id="SVGID_2_">
		<use xlink:href="#SVGID_15_"  overflow="visible"/>
	</clipPath>
	<path clip-path="url(#SVGID_2_)" fill="#FF1419" d="M491.932,75.761c1.568,0.775,3.138,1.45,4.706,2.026s3.162,1.052,4.78,1.429
		c1.618,0.378,3.276,0.66,4.975,0.849c1.697,0.189,3.46,0.283,5.286,0.283c3.813,0,7.163-0.372,10.054-1.117
		c2.889-0.745,5.306-1.787,7.252-3.127c1.945-1.341,3.411-2.934,4.394-4.781c0.983-1.847,1.474-3.862,1.474-6.046
		c0-3.217-1.022-5.957-3.067-8.221s-5.004-4.04-8.876-5.331l-3.574-1.192c-1.23-0.417-2.259-0.819-3.083-1.206
		s-1.489-0.775-1.995-1.162c-0.507-0.387-0.863-0.784-1.072-1.191s-0.312-0.829-0.312-1.266c0-0.496,0.123-0.998,0.372-1.504
		c0.248-0.507,0.615-0.963,1.102-1.37c0.486-0.407,1.087-0.735,1.803-0.983c0.715-0.248,1.549-0.373,2.502-0.373
		c0.556,0,1.171,0.05,1.847,0.149c0.674,0.1,1.365,0.249,2.07,0.447c0.704,0.199,1.408,0.447,2.113,0.745
		c0.705,0.298,1.375,0.646,2.012,1.042l3.217-5.808c-0.874-0.397-1.887-0.799-3.038-1.206c-1.152-0.407-2.418-0.769-3.798-1.087
		c-1.38-0.318-2.855-0.576-4.423-0.775c-1.569-0.198-3.207-0.298-4.915-0.298c-3.455,0-6.469,0.417-9.04,1.251
		s-4.701,1.951-6.389,3.351s-2.948,3.019-3.782,4.855c-0.834,1.837-1.251,3.748-1.251,5.734c0,3.078,0.963,5.733,2.889,7.967
		s4.795,4.006,8.608,5.317l5.33,1.817c1.033,0.357,1.872,0.72,2.518,1.087c0.645,0.368,1.152,0.735,1.519,1.102
		c0.368,0.368,0.616,0.74,0.745,1.117c0.129,0.378,0.194,0.745,0.194,1.102c0,1.132-0.532,2.026-1.594,2.681
		c-1.062,0.655-2.735,0.983-5.02,0.983c-1.985,0-4.13-0.268-6.433-0.805c-2.305-0.536-4.508-1.34-6.613-2.412L491.932,75.761z
		 M454.243,79.663h17.215v-37.47h12.629v-6.821h-42.473v6.821h12.629V79.663z M385.428,79.663h6.554v-23.5l28.116,23.5h10.782
		V35.401h-6.552l-0.03,23.59l-28.088-23.59h-10.782V79.663z M334.902,79.663h37.41v-6.821h-20.194V60.988h15.428v-6.821h-15.428
		l0.029-11.944h20.165v-6.821h-37.41V79.663z M262.632,79.663h6.553V57.056l16.441,23.173l16.501-23.173v22.607h17.188V35.401
		h-11.855l-15.905,23.173l-16.74-23.173h-12.182V79.663z M208.591,62.596c0,2.74,0.417,5.203,1.251,7.387
		c0.834,2.184,2.145,4.046,3.932,5.585c1.787,1.539,4.07,2.72,6.851,3.544c2.779,0.824,6.105,1.236,9.978,1.236
		c2.839,0,5.41-0.417,7.714-1.251c2.303-0.834,4.269-2.03,5.897-3.589c1.628-1.559,2.884-3.44,3.768-5.644
		c0.884-2.204,1.326-4.677,1.326-7.417V35.401h-6.553v28.058c0,1.589-0.199,2.969-0.596,4.14c-0.397,1.172-0.963,2.145-1.698,2.919
		c-0.734,0.774-1.623,1.351-2.665,1.727c-1.043,0.378-2.219,0.566-3.53,0.566c-1.191,0-2.304-0.188-3.336-0.566
		c-1.033-0.376-1.931-0.948-2.695-1.712c-0.765-0.764-1.361-1.728-1.787-2.889c-0.428-1.162-0.641-2.537-0.641-4.126V35.401h-17.216
		V62.596z M156.352,66.423c1.222,2.771,2.974,5.193,5.257,7.268c2.284,2.075,5.059,3.713,8.325,4.915
		c3.266,1.201,6.935,1.802,11.006,1.802c1.747,0,3.415-0.11,5.004-0.328c1.588-0.219,3.078-0.521,4.468-0.908
		c1.389-0.388,2.68-0.829,3.872-1.326c1.191-0.496,2.273-1.032,3.246-1.608l-2.561-5.004c-1.192,0.576-2.502,1.038-3.932,1.385
		s-2.859,0.521-4.289,0.521c-2.025,0-3.907-0.372-5.644-1.117c-1.738-0.745-3.237-1.797-4.498-3.157
		c-1.261-1.36-2.249-2.998-2.963-4.915c-0.715-1.916-1.073-4.055-1.073-6.418c0-2.383,0.362-4.532,1.088-6.449
		c0.724-1.916,1.722-3.549,2.993-4.9c1.27-1.35,2.78-2.392,4.527-3.127c1.747-0.734,3.644-1.102,5.689-1.102
		c1.529,0,3.003,0.184,4.423,0.551c1.42,0.368,2.686,0.819,3.798,1.355l2.561-5.004c-0.973-0.555-2.06-1.087-3.261-1.593
		c-1.202-0.507-2.507-0.953-3.917-1.341c-1.41-0.387-2.914-0.689-4.512-0.908c-1.599-0.218-3.272-0.328-5.019-0.328
		c-2.721,0-5.262,0.274-7.625,0.82c-2.363,0.546-4.523,1.315-6.478,2.308c-1.956,0.993-3.699,2.184-5.228,3.574
		c-1.529,1.39-2.819,2.929-3.872,4.617c-1.052,1.688-1.851,3.51-2.397,5.465c-0.547,1.956-0.819,3.987-0.819,6.091
		C154.521,60.7,155.131,63.653,156.352,66.423 M115.506,73.557c-0.923-0.417-1.693-1.231-2.308-2.442
		c-0.616-1.211-1.083-2.909-1.4-5.094c-0.318-2.184-0.477-5.043-0.477-8.578c0-3.494,0.159-6.324,0.477-8.488
		c0.317-2.165,0.784-3.843,1.4-5.034c0.615-1.192,1.385-1.996,2.308-2.413c0.924-0.417,1.981-0.625,3.172-0.625
		c1.192,0,2.244,0.208,3.158,0.625c0.913,0.417,1.677,1.221,2.293,2.413c0.615,1.191,1.082,2.869,1.4,5.034
		c0.317,2.164,0.476,4.994,0.476,8.488c0,3.535-0.159,6.394-0.476,8.578c-0.318,2.185-0.785,3.883-1.4,5.094
		c-0.616,1.211-1.38,2.025-2.293,2.442c-0.914,0.417-1.966,0.626-3.158,0.626C117.487,74.183,116.43,73.974,115.506,73.557
		 M94.85,66.766c1.072,2.82,2.671,5.232,4.796,7.238c2.124,2.006,4.775,3.564,7.952,4.676c3.177,1.112,6.87,1.668,11.08,1.668
		s7.903-0.556,11.08-1.668c3.177-1.112,5.828-2.67,7.953-4.676c2.125-2.006,3.723-4.418,4.795-7.238
		c1.073-2.819,1.609-5.927,1.609-9.323c0-3.354-0.536-6.428-1.609-9.218c-1.072-2.79-2.67-5.187-4.795-7.193
		c-2.125-2.006-4.776-3.564-7.953-4.677c-3.177-1.111-6.87-1.668-11.08-1.668s-7.903,0.557-11.08,1.668
		c-3.177,1.113-5.828,2.671-7.952,4.677c-2.125,2.006-3.724,4.403-4.796,7.193s-1.608,5.863-1.608,9.218
		C93.242,60.839,93.778,63.947,94.85,66.766 M51.979,41.895c1.945,0,3.708,0.283,5.286,0.849c1.579,0.566,2.924,1.47,4.036,2.711
		c1.112,1.241,1.966,2.834,2.562,4.78c0.596,1.947,0.893,4.3,0.893,7.059c0,2.781-0.293,5.168-0.878,7.164
		c-0.586,1.995-1.43,3.639-2.532,4.929c-1.102,1.291-2.447,2.244-4.036,2.859c-1.589,0.616-3.376,0.924-5.361,0.924L51.979,41.895z
		 M34.733,79.663h18.199c5.123,0,9.561-0.576,13.314-1.728c3.753-1.151,6.86-2.735,9.322-4.75c2.462-2.015,4.29-4.379,5.481-7.089
		c1.191-2.711,1.787-5.634,1.787-8.772c0-3.515-0.596-6.632-1.787-9.352c-1.191-2.721-3.019-5.014-5.481-6.881
		c-2.462-1.866-5.569-3.281-9.322-4.244s-8.191-1.445-13.314-1.445H34.733V79.663z"/>
	<path clip-path="url(#SVGID_2_)" fill="#231F20" d="M154.514,502.064c0.32-0.229,0.8-0.345,1.44-0.345c0.7,0,1.27,0.155,1.71,0.465
		c0.44,0.311,0.75,0.735,0.93,1.275l3.42-1.38c-0.16-0.42-0.39-0.855-0.69-1.305c-0.3-0.45-0.69-0.86-1.17-1.23
		s-1.065-0.67-1.755-0.9s-1.505-0.345-2.445-0.345c-0.72,0-1.42,0.1-2.1,0.3c-0.68,0.2-1.28,0.495-1.8,0.885s-0.94,0.865-1.26,1.425
		s-0.48,1.21-0.48,1.95v0.181c0,1.42,0.495,2.495,1.485,3.225c0.99,0.73,2.325,1.165,4.005,1.305c0.62,0.061,1.135,0.141,1.545,0.24
		c0.41,0.101,0.735,0.226,0.975,0.375c0.24,0.15,0.405,0.311,0.495,0.48s0.135,0.354,0.135,0.555c0,0.34-0.175,0.655-0.525,0.945
		c-0.35,0.29-0.995,0.435-1.935,0.435c-1.06,0-1.845-0.24-2.355-0.72c-0.51-0.48-0.845-1.04-1.005-1.68l-3.48,1.14
		c0.1,0.52,0.295,1.055,0.585,1.604c0.29,0.551,0.705,1.051,1.245,1.5c0.54,0.45,1.22,0.825,2.04,1.125
		c0.82,0.301,1.81,0.45,2.97,0.45c1.96,0,3.48-0.439,4.56-1.319c1.08-0.881,1.62-2.061,1.62-3.54v-0.181
		c0-1.34-0.48-2.385-1.44-3.135s-2.2-1.205-3.72-1.365c-1.32-0.14-2.23-0.314-2.73-0.524s-0.75-0.556-0.75-1.035
		C154.034,502.58,154.194,502.295,154.514,502.064 M140.219,502.41c0.63,0.46,1.005,1.04,1.125,1.739h-7.02
		c0.18-0.64,0.57-1.205,1.17-1.694c0.6-0.49,1.38-0.735,2.34-0.735S139.589,501.95,140.219,502.41 M145.184,507.39v-2.01
		c0-0.78-0.14-1.585-0.42-2.415c-0.28-0.83-0.72-1.59-1.32-2.28c-0.6-0.69-1.36-1.26-2.28-1.71c-0.92-0.45-2.02-0.675-3.3-0.675
		c-1.04,0-2.015,0.185-2.925,0.555c-0.91,0.37-1.705,0.885-2.385,1.545c-0.68,0.66-1.215,1.459-1.605,2.4
		c-0.39,0.94-0.585,1.98-0.585,3.12v0.18c0,1.24,0.185,2.351,0.555,3.33c0.37,0.98,0.89,1.811,1.56,2.49s1.465,1.2,2.385,1.56
		c0.92,0.36,1.94,0.54,3.06,0.54c0.98,0,1.835-0.109,2.565-0.33c0.73-0.22,1.35-0.5,1.86-0.84c0.51-0.34,0.925-0.715,1.245-1.125
		c0.32-0.41,0.57-0.805,0.75-1.185l-3.24-1.8c-0.22,0.46-0.58,0.854-1.08,1.185s-1.22,0.495-2.16,0.495
		c-0.48,0-0.935-0.075-1.365-0.226c-0.43-0.149-0.81-0.359-1.14-0.63c-0.33-0.27-0.59-0.59-0.78-0.96
		c-0.19-0.37-0.295-0.774-0.315-1.215H145.184z M123.374,507.21c-0.18,0.979-0.575,1.76-1.185,2.34s-1.495,0.87-2.655,0.87
		c-0.54,0-1.05-0.085-1.53-0.255s-0.9-0.425-1.26-0.766c-0.36-0.34-0.645-0.765-0.855-1.274c-0.21-0.51-0.315-1.095-0.315-1.755
		v-0.181c0-0.659,0.105-1.255,0.315-1.784c0.21-0.53,0.495-0.98,0.855-1.351c0.36-0.37,0.78-0.655,1.26-0.854
		c0.48-0.2,0.99-0.301,1.53-0.301c1.16,0,2.06,0.32,2.7,0.96c0.64,0.641,1.02,1.4,1.14,2.28l3.72-0.96
		c-0.34-1.76-1.155-3.18-2.445-4.26s-2.975-1.62-5.055-1.62c-1.08,0-2.095,0.18-3.045,0.54c-0.95,0.36-1.78,0.88-2.49,1.56
		s-1.265,1.5-1.665,2.459s-0.6,2.04-0.6,3.24v0.36c0,1.2,0.2,2.27,0.6,3.21c0.4,0.939,0.95,1.729,1.65,2.37
		c0.7,0.64,1.525,1.13,2.475,1.47c0.95,0.34,1.975,0.51,3.075,0.51c2.12,0,3.815-0.54,5.085-1.62s2.075-2.5,2.415-4.26
		L123.374,507.21z M93.494,502.319h2.7V510h-3.06v3.6h10.26V510h-3.42v-4.8c0-1.08,0.24-1.91,0.72-2.49s1.14-0.87,1.98-0.87
		s1.47,0.245,1.89,0.735c0.42,0.489,0.63,1.145,0.63,1.965v0.42l3.9-0.36v-0.66c0-1.899-0.45-3.314-1.35-4.245
		c-0.9-0.93-2.09-1.395-3.57-1.395c-0.94,0-1.745,0.225-2.415,0.675c-0.67,0.45-1.145,1.085-1.425,1.905h-0.54v-2.16h-6.3V502.319z
		 M85.934,506.52c0,1.261-0.265,2.255-0.795,2.985c-0.53,0.729-1.365,1.095-2.505,1.095c-1,0-1.75-0.295-2.25-0.885
		s-0.75-1.415-0.75-2.475v-8.521h-3.78v9.3c0,1.021,0.135,1.905,0.405,2.655s0.645,1.375,1.125,1.875s1.04,0.87,1.68,1.11
		c0.64,0.239,1.33,0.359,2.07,0.359c2.18,0,3.6-0.859,4.26-2.58h0.54v2.16h3.78v-14.88h-3.78V506.52z M62.804,510.149
		c-0.48-0.18-0.9-0.439-1.26-0.779s-0.645-0.755-0.855-1.245s-0.315-1.045-0.315-1.665v-0.601c0-0.619,0.105-1.175,0.315-1.665
		c0.21-0.489,0.495-0.904,0.855-1.244c0.36-0.341,0.78-0.601,1.26-0.78s0.99-0.271,1.53-0.271s1.05,0.091,1.53,0.271
		s0.9,0.439,1.26,0.78c0.36,0.34,0.645,0.755,0.855,1.244c0.21,0.49,0.315,1.046,0.315,1.665v0.601c0,0.62-0.105,1.175-0.315,1.665
		s-0.495,0.905-0.855,1.245c-0.36,0.34-0.78,0.6-1.26,0.779c-0.48,0.181-0.99,0.271-1.53,0.271S63.284,510.33,62.804,510.149
		 M72.074,505.979c0-1.22-0.21-2.305-0.63-3.255s-0.99-1.755-1.71-2.415c-0.72-0.66-1.545-1.16-2.475-1.5
		c-0.93-0.34-1.905-0.51-2.925-0.51s-1.995,0.17-2.925,0.51c-0.93,0.34-1.755,0.84-2.475,1.5c-0.72,0.66-1.29,1.465-1.71,2.415
		c-0.42,0.95-0.63,2.035-0.63,3.255v0.36c0,1.24,0.21,2.335,0.63,3.285c0.42,0.95,0.99,1.75,1.71,2.399
		c0.72,0.65,1.545,1.146,2.475,1.485c0.93,0.34,1.905,0.51,2.925,0.51s1.995-0.17,2.925-0.51c0.93-0.34,1.755-0.835,2.475-1.485
		c0.72-0.649,1.29-1.449,1.71-2.399s0.63-2.045,0.63-3.285V505.979z M44.354,502.064c0.32-0.229,0.8-0.345,1.44-0.345
		c0.7,0,1.27,0.155,1.71,0.465c0.44,0.311,0.75,0.735,0.93,1.275l3.42-1.38c-0.16-0.42-0.39-0.855-0.69-1.305
		c-0.3-0.45-0.69-0.86-1.17-1.23c-0.48-0.37-1.065-0.67-1.755-0.9s-1.505-0.345-2.445-0.345c-0.72,0-1.42,0.1-2.1,0.3
		c-0.68,0.2-1.28,0.495-1.8,0.885s-0.94,0.865-1.26,1.425c-0.32,0.56-0.48,1.21-0.48,1.95v0.181c0,1.42,0.495,2.495,1.485,3.225
		c0.99,0.73,2.325,1.165,4.005,1.305c0.62,0.061,1.135,0.141,1.545,0.24c0.41,0.101,0.735,0.226,0.975,0.375
		c0.24,0.15,0.405,0.311,0.495,0.48c0.09,0.17,0.135,0.354,0.135,0.555c0,0.34-0.175,0.655-0.525,0.945s-0.995,0.435-1.935,0.435
		c-1.06,0-1.845-0.24-2.355-0.72c-0.51-0.48-0.845-1.04-1.005-1.68l-3.48,1.14c0.1,0.52,0.295,1.055,0.585,1.604
		c0.29,0.551,0.705,1.051,1.245,1.5c0.54,0.45,1.22,0.825,2.04,1.125c0.82,0.301,1.81,0.45,2.97,0.45c1.96,0,3.48-0.439,4.56-1.319
		c1.08-0.881,1.62-2.061,1.62-3.54v-0.181c0-1.34-0.48-2.385-1.44-3.135s-2.2-1.205-3.72-1.365c-1.32-0.14-2.23-0.314-2.73-0.524
		s-0.75-0.556-0.75-1.035C43.874,502.58,44.034,502.295,44.354,502.064"/>
	<path clip-path="url(#SVGID_2_)" fill="#231F20" d="M332.474,455.32h4.41v8.94c0,0.68,0.214,1.24,0.646,1.68
		c0.43,0.44,0.984,0.66,1.665,0.66h6.3V463h-4.021c-0.54,0-0.81-0.3-0.81-0.9v-6.78h5.37v-3.6h-5.37v-6.12h-3.78v6.12h-4.41V455.32z
		 M324.614,459.52c0,1.26-0.267,2.255-0.795,2.985c-0.53,0.73-1.365,1.095-2.506,1.095c-1.001,0-1.751-0.295-2.25-0.885
		c-0.5-0.59-0.75-1.415-0.75-2.475v-8.52h-3.779v9.3c0,1.02,0.135,1.905,0.404,2.655c0.271,0.75,0.646,1.375,1.125,1.875
		c0.48,0.5,1.039,0.87,1.681,1.11c0.64,0.24,1.33,0.36,2.069,0.36c2.18,0,3.601-0.86,4.261-2.58h0.54v2.16h3.779v-14.88h-3.779
		V459.52z M301.484,463.15c-0.48-0.18-0.9-0.44-1.261-0.78c-0.359-0.34-0.645-0.755-0.854-1.245c-0.21-0.49-0.315-1.045-0.315-1.665
		v-0.6c0-0.62,0.105-1.175,0.315-1.665c0.21-0.49,0.495-0.905,0.854-1.245c0.36-0.34,0.78-0.6,1.261-0.78
		c0.479-0.18,0.989-0.27,1.529-0.27s1.05,0.09,1.53,0.27c0.479,0.18,0.9,0.44,1.26,0.78c0.36,0.34,0.646,0.755,0.855,1.245
		c0.21,0.49,0.314,1.045,0.314,1.665v0.6c0,0.62-0.104,1.175-0.314,1.665c-0.21,0.49-0.495,0.905-0.855,1.245
		c-0.359,0.34-0.78,0.6-1.26,0.78c-0.48,0.18-0.99,0.27-1.53,0.27S301.964,463.33,301.484,463.15 M310.754,458.98
		c0-1.22-0.21-2.305-0.63-3.255c-0.42-0.95-0.99-1.755-1.71-2.415c-0.72-0.66-1.545-1.16-2.476-1.5
		c-0.93-0.34-1.904-0.51-2.925-0.51c-1.02,0-1.995,0.17-2.925,0.51c-0.93,0.34-1.755,0.84-2.475,1.5
		c-0.721,0.66-1.29,1.465-1.71,2.415c-0.42,0.95-0.631,2.035-0.631,3.255v0.36c0,1.24,0.211,2.335,0.631,3.285s0.989,1.75,1.71,2.4
		c0.72,0.65,1.545,1.145,2.475,1.485c0.93,0.34,1.905,0.51,2.925,0.51c1.021,0,1.995-0.17,2.925-0.51
		c0.931-0.34,1.756-0.835,2.476-1.485s1.29-1.45,1.71-2.4s0.63-2.045,0.63-3.285V458.98z M282.059,462.295
		c-0.73-0.75-1.095-1.735-1.095-2.955v-0.36c0-1.22,0.364-2.205,1.095-2.955s1.685-1.125,2.865-1.125
		c1.18,0,2.134,0.365,2.865,1.095c0.729,0.73,1.095,1.725,1.095,2.985v0.36c0,1.26-0.365,2.255-1.095,2.985
		c-0.731,0.729-1.686,1.095-2.865,1.095C283.743,463.42,282.789,463.045,282.059,462.295 M280.964,464.44h0.54
		c0.18,0.34,0.394,0.665,0.645,0.975c0.25,0.31,0.56,0.585,0.931,0.825c0.37,0.24,0.805,0.43,1.305,0.57
		c0.499,0.14,1.09,0.21,1.771,0.21c0.919,0,1.773-0.165,2.564-0.495c0.79-0.33,1.475-0.82,2.055-1.47
		c0.58-0.65,1.04-1.445,1.381-2.385c0.34-0.94,0.51-2.02,0.51-3.24v-0.54c0-1.2-0.176-2.27-0.525-3.21
		c-0.35-0.94-0.82-1.735-1.41-2.385s-1.279-1.145-2.069-1.485c-0.791-0.34-1.625-0.51-2.505-0.51c-1.181,0-2.15,0.225-2.91,0.675
		c-0.76,0.45-1.34,1.085-1.74,1.905h-0.54v-8.28h-3.78v21h3.78V464.44z M263.084,462.325c-0.66-0.73-0.99-1.725-0.99-2.985v-0.36
		c0-1.26,0.33-2.255,0.99-2.985s1.54-1.095,2.64-1.095c1.1,0,1.98,0.365,2.64,1.095c0.66,0.73,0.99,1.725,0.99,2.985v0.36
		c0,1.26-0.33,2.255-0.99,2.985c-0.66,0.729-1.54,1.095-2.64,1.095C264.624,463.42,263.744,463.055,263.084,462.325 M269.624,464.44
		c0,0.64,0.214,1.16,0.645,1.56c0.43,0.4,0.985,0.6,1.665,0.6h2.58V463h-0.57c-0.54,0-0.81-0.3-0.81-0.9v-10.38h-3.78v1.8h-0.54
		c-0.38-0.76-0.895-1.32-1.545-1.68c-0.65-0.36-1.505-0.54-2.565-0.54c-0.88,0-1.705,0.175-2.475,0.525
		c-0.77,0.35-1.445,0.854-2.025,1.515c-0.58,0.66-1.04,1.46-1.38,2.4c-0.34,0.94-0.51,2-0.51,3.18v0.48c0,1.2,0.175,2.27,0.525,3.21
		s0.825,1.74,1.425,2.4c0.6,0.66,1.295,1.16,2.085,1.5c0.79,0.34,1.635,0.51,2.535,0.51c0.96,0,1.8-0.195,2.52-0.585
		c0.72-0.39,1.28-1.055,1.68-1.995H269.624z M226.514,458.86c0-1.26,0.275-2.265,0.825-3.015s1.385-1.125,2.505-1.125
		c0.96,0,1.695,0.305,2.205,0.915c0.51,0.61,0.765,1.445,0.765,2.505v8.46h3.78v-9.42c0-1.02-0.135-1.9-0.405-2.64
		c-0.27-0.74-0.645-1.35-1.125-1.83s-1.035-0.835-1.665-1.065s-1.305-0.345-2.025-0.345c-1.02,0-1.91,0.23-2.67,0.69
		c-0.76,0.46-1.31,1.11-1.65,1.95h-0.54v-2.22h-3.78v14.88h3.78V458.86z M209.684,463.15c-0.48-0.18-0.9-0.44-1.26-0.78
		c-0.36-0.34-0.645-0.755-0.855-1.245c-0.21-0.49-0.315-1.045-0.315-1.665v-0.6c0-0.62,0.105-1.175,0.315-1.665
		c0.21-0.49,0.495-0.905,0.855-1.245c0.36-0.34,0.78-0.6,1.26-0.78s0.99-0.27,1.53-0.27s1.05,0.09,1.53,0.27
		c0.48,0.18,0.9,0.44,1.26,0.78c0.36,0.34,0.645,0.755,0.855,1.245c0.21,0.49,0.315,1.045,0.315,1.665v0.6
		c0,0.62-0.105,1.175-0.315,1.665c-0.21,0.49-0.495,0.905-0.855,1.245c-0.36,0.34-0.78,0.6-1.26,0.78
		c-0.48,0.18-0.99,0.27-1.53,0.27S210.164,463.33,209.684,463.15 M218.954,458.98c0-1.22-0.21-2.305-0.63-3.255
		c-0.42-0.95-0.99-1.755-1.71-2.415c-0.72-0.66-1.545-1.16-2.475-1.5c-0.93-0.34-1.905-0.51-2.925-0.51s-1.995,0.17-2.925,0.51
		c-0.93,0.34-1.755,0.84-2.475,1.5c-0.72,0.66-1.29,1.465-1.71,2.415c-0.42,0.95-0.63,2.035-0.63,3.255v0.36
		c0,1.24,0.21,2.335,0.63,3.285s0.99,1.75,1.71,2.4c0.72,0.65,1.545,1.145,2.475,1.485c0.93,0.34,1.905,0.51,2.925,0.51
		s1.995-0.17,2.925-0.51c0.93-0.34,1.755-0.835,2.475-1.485c0.72-0.65,1.29-1.45,1.71-2.4c0.42-0.95,0.63-2.045,0.63-3.285V458.98z
		 M195.809,446.185c-0.15-0.35-0.355-0.65-0.615-0.9c-0.26-0.25-0.565-0.45-0.915-0.6s-0.715-0.225-1.095-0.225
		c-0.4,0-0.77,0.075-1.11,0.225c-0.34,0.15-0.64,0.35-0.9,0.6c-0.26,0.25-0.465,0.55-0.615,0.9c-0.15,0.35-0.225,0.725-0.225,1.125
		s0.075,0.775,0.225,1.125c0.15,0.35,0.355,0.65,0.615,0.9c0.26,0.25,0.56,0.45,0.9,0.6c0.34,0.15,0.71,0.225,1.11,0.225
		c0.38,0,0.745-0.075,1.095-0.225s0.655-0.35,0.915-0.6c0.26-0.25,0.465-0.55,0.615-0.9c0.15-0.35,0.225-0.725,0.225-1.125
		S195.959,446.535,195.809,446.185 M186.284,466.6h13.14V463h-4.32v-11.28h-8.46v3.6h4.68V463h-5.04V466.6z M167.234,455.32h4.41
		v8.94c0,0.68,0.215,1.24,0.645,1.68c0.43,0.44,0.985,0.66,1.665,0.66h6.3V463h-4.02c-0.54,0-0.81-0.3-0.81-0.9v-6.78h5.37v-3.6
		h-5.37v-6.12h-3.78v6.12h-4.41V455.32z M152.924,462.325c-0.66-0.73-0.99-1.725-0.99-2.985v-0.36c0-1.26,0.33-2.255,0.99-2.985
		s1.54-1.095,2.64-1.095s1.98,0.365,2.64,1.095c0.66,0.73,0.99,1.725,0.99,2.985v0.36c0,1.26-0.33,2.255-0.99,2.985
		c-0.66,0.729-1.54,1.095-2.64,1.095S153.584,463.055,152.924,462.325 M159.464,464.44c0,0.64,0.215,1.16,0.645,1.56
		s0.985,0.6,1.665,0.6h2.58V463h-0.57c-0.54,0-0.81-0.3-0.81-0.9v-10.38h-3.78v1.8h-0.54c-0.38-0.76-0.895-1.32-1.545-1.68
		c-0.65-0.36-1.505-0.54-2.565-0.54c-0.88,0-1.705,0.175-2.475,0.525c-0.77,0.35-1.445,0.854-2.025,1.515s-1.04,1.46-1.38,2.4
		c-0.34,0.94-0.51,2-0.51,3.18v0.48c0,1.2,0.175,2.27,0.525,3.21c0.35,0.94,0.825,1.74,1.425,2.4c0.6,0.66,1.295,1.16,2.085,1.5
		c0.79,0.34,1.635,0.51,2.535,0.51c0.96,0,1.8-0.195,2.52-0.585c0.72-0.39,1.28-1.055,1.68-1.995H159.464z M145.874,455.08
		c0-1.18-0.3-2.105-0.9-2.775c-0.6-0.67-1.4-1.005-2.4-1.005c-0.76,0-1.395,0.175-1.905,0.525c-0.51,0.35-0.845,0.795-1.005,1.335
		h-0.54c-0.16-0.54-0.47-0.985-0.93-1.335c-0.46-0.35-1.02-0.525-1.68-0.525c-0.7,0-1.265,0.175-1.695,0.525
		c-0.43,0.35-0.705,0.795-0.825,1.335h-0.54v-1.44h-3.78v14.88h3.78v-10.26c0-0.48,0.12-0.84,0.36-1.08
		c0.24-0.24,0.54-0.36,0.9-0.36c0.32,0,0.595,0.105,0.825,0.315s0.345,0.525,0.345,0.945v10.44h3.78v-10.26
		c0-0.48,0.115-0.84,0.345-1.08c0.23-0.24,0.545-0.36,0.945-0.36c0.34,0,0.615,0.105,0.825,0.315s0.315,0.525,0.315,0.945v10.44
		h3.78V455.08z M111.854,455.32h2.7V463h-3.06v3.6h10.26V463h-3.42v-4.8c0-1.08,0.24-1.91,0.72-2.49s1.14-0.87,1.98-0.87
		c0.84,0,1.47,0.245,1.89,0.735c0.42,0.49,0.63,1.145,0.63,1.965v0.42l3.9-0.36v-0.66c0-1.9-0.45-3.315-1.35-4.245
		c-0.9-0.93-2.09-1.395-3.57-1.395c-0.94,0-1.745,0.225-2.415,0.675c-0.67,0.45-1.145,1.085-1.425,1.905h-0.54v-2.16h-6.3V455.32z
		 M99.524,463.15c-0.48-0.18-0.9-0.44-1.26-0.78c-0.36-0.34-0.645-0.755-0.855-1.245c-0.21-0.49-0.315-1.045-0.315-1.665v-0.6
		c0-0.62,0.105-1.175,0.315-1.665c0.21-0.49,0.495-0.905,0.855-1.245c0.36-0.34,0.78-0.6,1.26-0.78s0.99-0.27,1.53-0.27
		s1.05,0.09,1.53,0.27s0.9,0.44,1.26,0.78c0.36,0.34,0.645,0.755,0.855,1.245c0.21,0.49,0.315,1.045,0.315,1.665v0.6
		c0,0.62-0.105,1.175-0.315,1.665c-0.21,0.49-0.495,0.905-0.855,1.245c-0.36,0.34-0.78,0.6-1.26,0.78s-0.99,0.27-1.53,0.27
		S100.004,463.33,99.524,463.15 M108.794,458.98c0-1.22-0.21-2.305-0.63-3.255c-0.42-0.95-0.99-1.755-1.71-2.415
		c-0.72-0.66-1.545-1.16-2.475-1.5c-0.93-0.34-1.905-0.51-2.925-0.51s-1.995,0.17-2.925,0.51c-0.93,0.34-1.755,0.84-2.475,1.5
		c-0.72,0.66-1.29,1.465-1.71,2.415c-0.42,0.95-0.63,2.035-0.63,3.255v0.36c0,1.24,0.21,2.335,0.63,3.285s0.99,1.75,1.71,2.4
		c0.72,0.65,1.545,1.145,2.475,1.485c0.93,0.34,1.905,0.51,2.925,0.51s1.995-0.17,2.925-0.51c0.93-0.34,1.755-0.835,2.475-1.485
		c0.72-0.65,1.29-1.45,1.71-2.4s0.63-2.045,0.63-3.285V458.98z M75.734,455.32h4.23v11.28h3.78v-11.28h5.85v-3.6h-5.85v-1.62
		c0-0.6,0.27-0.9,0.81-0.9h4.5v-3.6h-6.06c-0.86,0-1.58,0.295-2.16,0.885c-0.58,0.59-0.87,1.315-0.87,2.175v3.06h-4.23V455.32z
		 M61.274,458.86c0-1.26,0.275-2.265,0.825-3.015c0.55-0.75,1.385-1.125,2.505-1.125c0.96,0,1.695,0.305,2.205,0.915
		c0.51,0.61,0.765,1.445,0.765,2.505v8.46h3.78v-9.42c0-1.02-0.135-1.9-0.405-2.64c-0.27-0.74-0.645-1.35-1.125-1.83
		s-1.035-0.835-1.665-1.065c-0.63-0.23-1.305-0.345-2.025-0.345c-1.02,0-1.91,0.23-2.67,0.69c-0.76,0.46-1.31,1.11-1.65,1.95h-0.54
		v-2.22h-3.78v14.88h3.78V458.86z M48.929,446.185c-0.15-0.35-0.355-0.65-0.615-0.9c-0.26-0.25-0.565-0.45-0.915-0.6
		s-0.715-0.225-1.095-0.225c-0.4,0-0.77,0.075-1.11,0.225s-0.64,0.35-0.9,0.6c-0.26,0.25-0.465,0.55-0.615,0.9
		c-0.15,0.35-0.225,0.725-0.225,1.125s0.075,0.775,0.225,1.125c0.15,0.35,0.355,0.65,0.615,0.9c0.26,0.25,0.56,0.45,0.9,0.6
		s0.71,0.225,1.11,0.225c0.38,0,0.745-0.075,1.095-0.225s0.655-0.35,0.915-0.6c0.26-0.25,0.465-0.55,0.615-0.9
		c0.15-0.35,0.225-0.725,0.225-1.125S49.079,446.535,48.929,446.185 M39.404,466.6h13.14V463h-4.32v-11.28h-8.46v3.6h4.68V463h-5.04
		V466.6z"/>
	<path clip-path="url(#SVGID_2_)" fill="#231F20" d="M263.309,415.325c-0.73-0.73-1.095-1.725-1.095-2.985v-0.36
		c0-1.26,0.365-2.255,1.095-2.985c0.73-0.73,1.685-1.095,2.865-1.095c1.18,0,2.135,0.375,2.865,1.125s1.095,1.735,1.095,2.955v0.36
		c0,1.22-0.365,2.205-1.095,2.955s-1.685,1.125-2.865,1.125C264.994,416.42,264.039,416.055,263.309,415.325 M270.134,419.6h3.78
		v-21h-3.78v8.28h-0.54c-0.4-0.82-0.95-1.455-1.65-1.905c-0.7-0.45-1.65-0.675-2.85-0.675c-0.9,0-1.755,0.17-2.565,0.51
		c-0.81,0.34-1.52,0.835-2.13,1.485s-1.09,1.445-1.44,2.385c-0.35,0.94-0.525,2.01-0.525,3.21v0.54c0,1.22,0.165,2.3,0.495,3.24
		c0.33,0.94,0.79,1.735,1.38,2.385c0.589,0.65,1.279,1.14,2.07,1.47c0.79,0.33,1.645,0.495,2.565,0.495
		c0.72,0,1.335-0.07,1.845-0.21c0.51-0.14,0.95-0.33,1.32-0.57c0.37-0.24,0.67-0.515,0.9-0.825c0.23-0.31,0.425-0.635,0.585-0.975
		h0.54V419.6z M244.874,411.86c0-1.26,0.275-2.265,0.825-3.015c0.55-0.75,1.385-1.125,2.505-1.125c0.96,0,1.695,0.305,2.205,0.915
		c0.51,0.61,0.765,1.445,0.765,2.505v8.46h3.78v-9.42c0-1.02-0.135-1.9-0.405-2.64c-0.27-0.74-0.645-1.35-1.125-1.83
		s-1.035-0.835-1.665-1.065s-1.305-0.345-2.025-0.345c-1.02,0-1.91,0.23-2.67,0.69c-0.76,0.46-1.31,1.11-1.65,1.95h-0.54v-2.22
		h-3.78v14.88h3.78V411.86z M226.364,415.325c-0.66-0.73-0.99-1.725-0.99-2.985v-0.36c0-1.26,0.33-2.255,0.99-2.985
		c0.66-0.73,1.54-1.095,2.64-1.095s1.98,0.365,2.64,1.095c0.66,0.729,0.99,1.725,0.99,2.985v0.36c0,1.26-0.33,2.255-0.99,2.985
		c-0.66,0.73-1.54,1.095-2.64,1.095S227.024,416.055,226.364,415.325 M232.904,417.44c0,0.64,0.215,1.16,0.645,1.56
		c0.43,0.4,0.985,0.6,1.665,0.6h2.58V416h-0.57c-0.54,0-0.81-0.3-0.81-0.9v-10.38h-3.78v1.8h-0.54c-0.38-0.76-0.895-1.32-1.545-1.68
		s-1.505-0.54-2.565-0.54c-0.88,0-1.705,0.175-2.475,0.525s-1.445,0.855-2.025,1.515s-1.04,1.46-1.38,2.4
		c-0.34,0.94-0.51,2-0.51,3.18v0.48c0,1.2,0.175,2.27,0.525,3.21c0.35,0.94,0.825,1.74,1.425,2.4s1.295,1.16,2.085,1.5
		s1.635,0.51,2.535,0.51c0.96,0,1.8-0.195,2.52-0.585c0.72-0.39,1.28-1.055,1.68-1.995H232.904z M191.234,408.065
		c0.32-0.23,0.8-0.345,1.44-0.345c0.7,0,1.27,0.155,1.71,0.465s0.75,0.735,0.93,1.275l3.42-1.38c-0.16-0.42-0.39-0.855-0.69-1.305
		c-0.3-0.45-0.69-0.86-1.17-1.23s-1.065-0.67-1.755-0.9c-0.69-0.23-1.505-0.345-2.445-0.345c-0.72,0-1.42,0.1-2.1,0.3
		c-0.68,0.2-1.28,0.495-1.8,0.885s-0.94,0.865-1.26,1.425c-0.32,0.56-0.48,1.21-0.48,1.95v0.18c0,1.42,0.495,2.495,1.485,3.225
		c0.99,0.73,2.325,1.165,4.005,1.305c0.62,0.06,1.135,0.14,1.545,0.24c0.41,0.1,0.735,0.225,0.975,0.375
		c0.24,0.15,0.405,0.31,0.495,0.48c0.09,0.17,0.135,0.355,0.135,0.555c0,0.34-0.175,0.655-0.525,0.945s-0.995,0.435-1.935,0.435
		c-1.06,0-1.845-0.24-2.355-0.72c-0.51-0.48-0.845-1.04-1.005-1.68l-3.48,1.14c0.1,0.52,0.295,1.055,0.585,1.605
		c0.29,0.55,0.705,1.05,1.245,1.5c0.54,0.45,1.22,0.825,2.04,1.125c0.82,0.3,1.81,0.45,2.97,0.45c1.96,0,3.48-0.44,4.56-1.32
		c1.08-0.88,1.62-2.06,1.62-3.54v-0.18c0-1.34-0.48-2.385-1.44-3.135s-2.2-1.205-3.72-1.365c-1.32-0.14-2.23-0.315-2.73-0.525
		s-0.75-0.555-0.75-1.035C190.754,408.58,190.914,408.295,191.234,408.065 M167.234,408.32h4.41v8.94c0,0.68,0.215,1.24,0.645,1.68
		c0.43,0.44,0.985,0.66,1.665,0.66h6.3V416h-4.02c-0.54,0-0.81-0.3-0.81-0.9v-6.78h5.37v-3.6h-5.37v-6.12h-3.78v6.12h-4.41V408.32z
		 M153.074,411.86c0-1.26,0.275-2.265,0.825-3.015s1.385-1.125,2.505-1.125c0.96,0,1.695,0.305,2.205,0.915
		c0.51,0.61,0.765,1.445,0.765,2.505v8.46h3.78v-9.42c0-1.02-0.135-1.9-0.405-2.64c-0.27-0.74-0.645-1.35-1.125-1.83
		s-1.035-0.835-1.665-1.065s-1.305-0.345-2.025-0.345c-1.02,0-1.91,0.23-2.67,0.69c-0.76,0.46-1.31,1.11-1.65,1.95h-0.54v-2.22
		h-3.78v14.88h3.78V411.86z M140.219,408.41c0.63,0.46,1.005,1.04,1.125,1.74h-7.02c0.18-0.64,0.57-1.205,1.17-1.695
		c0.6-0.49,1.38-0.735,2.34-0.735S139.589,407.95,140.219,408.41 M145.184,413.39v-2.01c0-0.78-0.14-1.585-0.42-2.415
		c-0.28-0.83-0.72-1.59-1.32-2.28s-1.36-1.26-2.28-1.71c-0.92-0.45-2.02-0.675-3.3-0.675c-1.04,0-2.015,0.185-2.925,0.555
		c-0.91,0.37-1.705,0.885-2.385,1.545c-0.68,0.66-1.215,1.46-1.605,2.4c-0.39,0.94-0.585,1.98-0.585,3.12v0.18
		c0,1.24,0.185,2.35,0.555,3.33s0.89,1.81,1.56,2.49c0.67,0.68,1.465,1.2,2.385,1.56s1.94,0.54,3.06,0.54
		c0.98,0,1.835-0.11,2.565-0.33c0.73-0.22,1.35-0.5,1.86-0.84c0.51-0.34,0.925-0.715,1.245-1.125c0.32-0.41,0.57-0.805,0.75-1.185
		l-3.24-1.8c-0.22,0.46-0.58,0.855-1.08,1.185s-1.22,0.495-2.16,0.495c-0.48,0-0.935-0.075-1.365-0.225
		c-0.43-0.15-0.81-0.36-1.14-0.63s-0.59-0.59-0.78-0.96c-0.19-0.37-0.295-0.775-0.315-1.215H145.184z M127.514,408.08
		c0-1.18-0.3-2.105-0.9-2.775s-1.4-1.005-2.4-1.005c-0.76,0-1.395,0.175-1.905,0.525c-0.51,0.35-0.845,0.795-1.005,1.335h-0.54
		c-0.16-0.54-0.47-0.985-0.93-1.335s-1.02-0.525-1.68-0.525c-0.7,0-1.265,0.175-1.695,0.525c-0.43,0.35-0.705,0.795-0.825,1.335
		h-0.54v-1.44h-3.78v14.88h3.78v-10.26c0-0.48,0.12-0.84,0.36-1.08c0.24-0.24,0.54-0.36,0.9-0.36c0.32,0,0.595,0.105,0.825,0.315
		s0.345,0.525,0.345,0.945v10.44h3.78v-10.26c0-0.48,0.115-0.84,0.345-1.08c0.23-0.24,0.545-0.36,0.945-0.36
		c0.34,0,0.615,0.105,0.825,0.315s0.315,0.525,0.315,0.945v10.44h3.78V408.08z M98.009,415.325c-0.73-0.73-1.095-1.725-1.095-2.985
		v-0.36c0-1.26,0.365-2.255,1.095-2.985c0.73-0.73,1.685-1.095,2.865-1.095c1.18,0,2.135,0.375,2.865,1.125s1.095,1.735,1.095,2.955
		v0.36c0,1.22-0.365,2.205-1.095,2.955s-1.685,1.125-2.865,1.125C99.694,416.42,98.739,416.055,98.009,415.325 M104.834,421.1
		c0,0.6-0.27,0.9-0.81,0.9h-7.74v3.6h10.02c0.68,0,1.235-0.22,1.665-0.66c0.43-0.44,0.645-1,0.645-1.68v-18.54h-3.78v2.16h-0.54
		c-0.4-0.82-0.95-1.455-1.65-1.905c-0.7-0.45-1.65-0.675-2.85-0.675c-0.9,0-1.755,0.17-2.565,0.51c-0.81,0.34-1.52,0.835-2.13,1.485
		c-0.61,0.65-1.09,1.445-1.44,2.385c-0.35,0.94-0.525,2.01-0.525,3.21v0.54c0,1.22,0.165,2.3,0.495,3.24s0.79,1.735,1.38,2.385
		c0.59,0.65,1.28,1.14,2.07,1.47s1.645,0.495,2.565,0.495c0.72,0,1.335-0.07,1.845-0.21c0.51-0.14,0.95-0.33,1.32-0.57
		c0.37-0.24,0.67-0.515,0.9-0.825c0.23-0.31,0.425-0.635,0.585-0.975h0.54V421.1z M79.484,415.325c-0.66-0.73-0.99-1.725-0.99-2.985
		v-0.36c0-1.26,0.33-2.255,0.99-2.985c0.66-0.73,1.54-1.095,2.64-1.095s1.98,0.365,2.64,1.095c0.66,0.729,0.99,1.725,0.99,2.985
		v0.36c0,1.26-0.33,2.255-0.99,2.985c-0.66,0.73-1.54,1.095-2.64,1.095S80.144,416.055,79.484,415.325 M86.024,417.44
		c0,0.64,0.215,1.16,0.645,1.56c0.43,0.4,0.985,0.6,1.665,0.6h2.58V416h-0.57c-0.54,0-0.81-0.3-0.81-0.9v-10.38h-3.78v1.8h-0.54
		c-0.38-0.76-0.895-1.32-1.545-1.68s-1.505-0.54-2.565-0.54c-0.88,0-1.705,0.175-2.475,0.525s-1.445,0.855-2.025,1.515
		s-1.04,1.46-1.38,2.4c-0.34,0.94-0.51,2-0.51,3.18v0.48c0,1.2,0.175,2.27,0.525,3.21s0.825,1.74,1.425,2.4
		c0.6,0.66,1.295,1.16,2.085,1.5s1.635,0.51,2.535,0.51c0.96,0,1.8-0.195,2.52-0.585c0.72-0.39,1.28-1.055,1.68-1.995H86.024z
		 M56.774,408.32h2.7V416h-3.06v3.6h10.26V416h-3.42v-4.8c0-1.08,0.24-1.91,0.72-2.49s1.14-0.87,1.98-0.87
		c0.84,0,1.47,0.245,1.89,0.735c0.42,0.49,0.63,1.145,0.63,1.965v0.42l3.9-0.36v-0.66c0-1.9-0.45-3.315-1.35-4.245
		s-2.09-1.395-3.57-1.395c-0.94,0-1.745,0.225-2.415,0.675c-0.67,0.45-1.145,1.085-1.425,1.905h-0.54v-2.16h-6.3V408.32z
		 M39.014,408.32h4.23v11.28h3.78v-11.28h5.85v-3.6h-5.85v-1.62c0-0.6,0.27-0.9,0.81-0.9h4.5v-3.6h-6.06
		c-0.86,0-1.58,0.295-2.16,0.885s-0.87,1.315-0.87,2.175v3.06h-4.23V408.32z"/>
	<path clip-path="url(#SVGID_2_)" fill="#231F20" d="M277.724,372.6h13.86V369h-4.86v-17.4h-8.82v3.6h5.041V369h-5.22V372.6z
		 M259.364,372.6h13.86V369h-4.86v-17.4h-8.82v3.6h5.04V369h-5.22V372.6z M244.724,368.325c-0.66-0.73-0.99-1.725-0.99-2.985v-0.36
		c0-1.26,0.33-2.255,0.99-2.985c0.66-0.73,1.54-1.095,2.64-1.095c1.1,0,1.98,0.365,2.64,1.095s0.99,1.725,0.99,2.985v0.36
		c0,1.26-0.33,2.255-0.99,2.985c-0.66,0.729-1.54,1.095-2.64,1.095C246.264,369.42,245.384,369.055,244.724,368.325 M251.264,370.44
		c0,0.64,0.215,1.16,0.645,1.56c0.43,0.4,0.985,0.6,1.665,0.6h2.58V369h-0.57c-0.54,0-0.81-0.3-0.81-0.9v-10.38h-3.78v1.8h-0.54
		c-0.38-0.76-0.895-1.32-1.545-1.68c-0.65-0.36-1.505-0.54-2.565-0.54c-0.88,0-1.705,0.175-2.475,0.525
		c-0.77,0.35-1.445,0.854-2.025,1.515c-0.58,0.66-1.04,1.46-1.38,2.4c-0.34,0.94-0.51,2-0.51,3.18v0.48c0,1.2,0.175,2.27,0.525,3.21
		s0.825,1.74,1.425,2.4c0.6,0.66,1.295,1.16,2.085,1.5c0.79,0.34,1.635,0.51,2.535,0.51c0.96,0,1.8-0.195,2.52-0.585
		c0.72-0.39,1.28-1.055,1.68-1.995H251.264z M204.254,361.32h4.23v11.28h3.78v-11.28h5.85v-3.6h-5.85v-1.62c0-0.6,0.27-0.9,0.81-0.9
		h4.5v-3.6h-6.06c-0.86,0-1.58,0.295-2.16,0.885c-0.58,0.59-0.87,1.315-0.87,2.175v3.06h-4.23V361.32z M191.324,369.15
		c-0.48-0.18-0.9-0.44-1.26-0.78c-0.36-0.34-0.645-0.755-0.855-1.245c-0.21-0.49-0.315-1.045-0.315-1.665v-0.6
		c0-0.62,0.105-1.175,0.315-1.665c0.21-0.49,0.495-0.905,0.855-1.245c0.36-0.34,0.78-0.6,1.26-0.78c0.48-0.18,0.99-0.27,1.53-0.27
		s1.05,0.09,1.53,0.27s0.9,0.44,1.26,0.78c0.36,0.34,0.645,0.755,0.855,1.245c0.21,0.49,0.315,1.045,0.315,1.665v0.6
		c0,0.62-0.105,1.175-0.315,1.665c-0.21,0.49-0.495,0.905-0.855,1.245c-0.36,0.34-0.78,0.6-1.26,0.78s-0.99,0.27-1.53,0.27
		S191.804,369.33,191.324,369.15 M200.594,364.98c0-1.22-0.21-2.305-0.63-3.255c-0.42-0.95-0.99-1.755-1.71-2.415
		c-0.72-0.66-1.545-1.16-2.475-1.5c-0.93-0.34-1.905-0.51-2.925-0.51s-1.995,0.17-2.925,0.51c-0.93,0.34-1.755,0.84-2.475,1.5
		c-0.72,0.66-1.29,1.465-1.71,2.415c-0.42,0.95-0.63,2.035-0.63,3.255v0.36c0,1.24,0.21,2.335,0.63,3.285s0.99,1.75,1.71,2.4
		c0.72,0.65,1.545,1.145,2.475,1.485c0.93,0.34,1.905,0.51,2.925,0.51s1.995-0.17,2.925-0.51c0.93-0.34,1.755-0.835,2.475-1.485
		c0.72-0.65,1.29-1.45,1.71-2.4s0.63-2.045,0.63-3.285V364.98z M153.089,368.325c-0.73-0.73-1.095-1.725-1.095-2.985v-0.36
		c0-1.26,0.365-2.255,1.095-2.985s1.685-1.095,2.865-1.095c1.18,0,2.135,0.375,2.865,1.125s1.095,1.735,1.095,2.955v0.36
		c0,1.22-0.365,2.205-1.095,2.955s-1.685,1.125-2.865,1.125C154.774,369.42,153.819,369.055,153.089,368.325 M159.914,374.1
		c0,0.6-0.27,0.9-0.81,0.9h-7.74v3.6h10.02c0.68,0,1.235-0.22,1.665-0.66c0.43-0.44,0.645-1,0.645-1.68v-18.54h-3.78v2.16h-0.54
		c-0.4-0.82-0.95-1.455-1.65-1.905c-0.7-0.45-1.65-0.675-2.85-0.675c-0.9,0-1.755,0.17-2.565,0.51c-0.81,0.34-1.52,0.835-2.13,1.485
		c-0.61,0.65-1.09,1.445-1.44,2.385c-0.35,0.94-0.525,2.01-0.525,3.21v0.54c0,1.22,0.165,2.3,0.495,3.24s0.79,1.735,1.38,2.385
		c0.59,0.65,1.28,1.14,2.07,1.47s1.645,0.495,2.565,0.495c0.72,0,1.335-0.07,1.845-0.21c0.51-0.14,0.95-0.33,1.32-0.57
		c0.37-0.24,0.67-0.515,0.9-0.825s0.425-0.635,0.585-0.975h0.54V374.1z M134.714,364.86c0-1.26,0.275-2.265,0.825-3.015
		c0.55-0.75,1.385-1.125,2.505-1.125c0.96,0,1.695,0.305,2.205,0.915c0.51,0.61,0.765,1.445,0.765,2.505v8.46h3.78v-9.42
		c0-1.02-0.135-1.9-0.405-2.64c-0.27-0.74-0.645-1.35-1.125-1.83s-1.035-0.835-1.665-1.065c-0.63-0.23-1.305-0.345-2.025-0.345
		c-1.02,0-1.91,0.23-2.67,0.69c-0.76,0.46-1.31,1.11-1.65,1.95h-0.54v-2.22h-3.78v14.88h3.78V364.86z M122.369,352.185
		c-0.15-0.35-0.355-0.65-0.615-0.9c-0.26-0.25-0.565-0.45-0.915-0.6s-0.715-0.225-1.095-0.225c-0.4,0-0.77,0.075-1.11,0.225
		c-0.34,0.15-0.64,0.35-0.9,0.6c-0.26,0.25-0.465,0.55-0.615,0.9c-0.15,0.35-0.225,0.725-0.225,1.125s0.075,0.775,0.225,1.125
		c0.15,0.35,0.355,0.65,0.615,0.9c0.26,0.25,0.56,0.45,0.9,0.6c0.34,0.15,0.71,0.225,1.11,0.225c0.38,0,0.745-0.075,1.095-0.225
		s0.655-0.35,0.915-0.6c0.26-0.25,0.465-0.55,0.615-0.9c0.15-0.35,0.225-0.725,0.225-1.125S122.519,352.535,122.369,352.185
		 M112.844,372.6h13.14V369h-4.32v-11.28h-8.46v3.6h4.68V369h-5.04V372.6z M93.794,361.32h4.41v8.94c0,0.68,0.215,1.24,0.645,1.68
		c0.43,0.44,0.985,0.66,1.665,0.66h6.3V369h-4.02c-0.54,0-0.81-0.3-0.81-0.9v-6.78h5.37v-3.6h-5.37v-6.12h-3.78v6.12h-4.41V361.32z
		 M81.074,361.065c0.32-0.23,0.8-0.345,1.44-0.345c0.7,0,1.27,0.155,1.71,0.465s0.75,0.735,0.93,1.275l3.42-1.38
		c-0.16-0.42-0.39-0.855-0.69-1.305c-0.3-0.45-0.69-0.86-1.17-1.23s-1.065-0.67-1.755-0.9s-1.505-0.345-2.445-0.345
		c-0.72,0-1.42,0.1-2.1,0.3c-0.68,0.2-1.28,0.495-1.8,0.885c-0.52,0.39-0.94,0.865-1.26,1.425c-0.32,0.56-0.48,1.21-0.48,1.95v0.18
		c0,1.42,0.495,2.495,1.485,3.225c0.99,0.73,2.325,1.165,4.005,1.305c0.62,0.06,1.135,0.14,1.545,0.24
		c0.41,0.1,0.735,0.225,0.975,0.375c0.24,0.15,0.405,0.31,0.495,0.48c0.09,0.17,0.135,0.355,0.135,0.555
		c0,0.34-0.175,0.655-0.525,0.945c-0.35,0.29-0.995,0.435-1.935,0.435c-1.06,0-1.845-0.24-2.355-0.72
		c-0.51-0.48-0.845-1.04-1.005-1.68l-3.48,1.14c0.1,0.52,0.295,1.055,0.585,1.605c0.29,0.55,0.705,1.05,1.245,1.5
		c0.54,0.45,1.22,0.825,2.04,1.125c0.82,0.3,1.81,0.45,2.97,0.45c1.96,0,3.48-0.44,4.56-1.32c1.08-0.88,1.62-2.06,1.62-3.54v-0.18
		c0-1.34-0.48-2.385-1.44-3.135s-2.2-1.205-3.72-1.365c-1.32-0.14-2.23-0.315-2.73-0.525s-0.75-0.555-0.75-1.035
		C80.594,361.58,80.754,361.295,81.074,361.065 M67.289,352.185c-0.15-0.35-0.355-0.65-0.615-0.9c-0.26-0.25-0.565-0.45-0.915-0.6
		c-0.35-0.15-0.715-0.225-1.095-0.225c-0.4,0-0.77,0.075-1.11,0.225c-0.34,0.15-0.64,0.35-0.9,0.6c-0.26,0.25-0.465,0.55-0.615,0.9
		s-0.225,0.725-0.225,1.125s0.075,0.775,0.225,1.125s0.355,0.65,0.615,0.9c0.26,0.25,0.56,0.45,0.9,0.6
		c0.34,0.15,0.71,0.225,1.11,0.225c0.38,0,0.745-0.075,1.095-0.225c0.35-0.15,0.655-0.35,0.915-0.6c0.26-0.25,0.465-0.55,0.615-0.9
		s0.225-0.725,0.225-1.125S67.439,352.535,67.289,352.185 M57.764,372.6h13.14V369h-4.32v-11.28h-8.46v3.6h4.68V369h-5.04V372.6z
		 M39.254,372.6h13.5v-3.78h-9.54V351.6h-3.96V372.6z"/>
	<path clip-path="url(#SVGID_2_)" fill="#231F20" d="M406.993,926.573c3.19,7.168,7.397,13.4,12.618,18.695
		c5.219,5.299,11.452,9.541,18.696,12.736c7.245,3.192,14.993,4.791,23.253,4.791c7.946,0,15.578-1.599,22.902-4.791
		c7.322-3.195,13.632-7.438,18.93-12.736c5.295-5.295,9.541-11.527,12.736-18.695c3.191-7.164,4.791-14.876,4.791-23.137
		c0-7.945-1.6-15.577-4.791-22.902c-3.195-7.321-7.441-13.631-12.736-18.93c-5.298-5.295-11.607-9.542-18.93-12.736
		c-7.324-3.191-14.956-4.79-22.902-4.79c-8.26,0-16.008,1.599-23.253,4.79c-7.244,3.194-13.478,7.441-18.696,12.736
		c-5.221,5.299-9.428,11.608-12.618,18.93c-3.195,7.325-4.791,14.957-4.791,22.902C402.202,911.697,403.798,919.409,406.993,926.573
		 M124.569,890.116c6.076-12.773,14.292-23.253,24.655-31.433c10.359-8.18,21.851-15.033,34.471-20.565
		c12.619-5.528,25.94-10.125,39.962-13.788c14.022-3.659,27.887-7.361,41.598-11.102c13.708-3.738,26.795-8.062,39.261-12.97
		c12.463-4.907,23.487-11.177,33.068-18.812c9.582-7.633,17.177-17.294,22.786-28.979c5.608-11.685,8.413-26.251,8.413-43.701
		c0-14.489-3.353-28.081-10.05-40.78c-6.699-12.696-16.673-23.838-29.913-33.418c-13.243-9.582-29.603-17.098-49.077-22.553
		c-19.477-5.452-41.989-8.18-67.538-8.18c-23.995,0-46.039,2.454-66.137,7.362c-20.098,4.906-37.315,11.918-51.647,21.032
		c-14.336,9.114-25.473,19.904-33.419,32.367c-7.945,12.466-11.918,26.174-11.918,41.131c0,11.218,1.829,20.723,5.492,28.512
		c3.658,7.792,8.332,14.102,14.021,18.929c5.686,4.831,12.072,8.337,19.164,10.517c7.087,2.184,13.981,3.271,20.682,3.271
		c8.88,0,16.826-1.168,23.837-3.505c7.011-2.337,12.813-5.609,17.411-9.815c4.593-4.207,8.099-8.841,10.516-13.905
		c2.414-5.061,3.622-10.319,3.622-15.774c0-12.152-3.505-21.343-10.516-27.576c-7.011-6.229-15.271-10.75-24.772-13.555
		c7.632-3.893,15.658-6.62,24.071-8.18c8.413-1.556,17.914-2.337,28.511-2.337c14.956,0,27.77,3.353,38.443,10.05
		c10.67,6.699,16.008,16.905,16.008,30.613c0,9.195-2.61,17.141-7.828,23.837c-5.222,6.701-12.153,12.935-20.8,18.696
		c-8.646,5.766-18.542,11.375-29.679,16.826c-11.141,5.456-22.475,11.608-34.003,18.462c-11.532,6.858-22.866,14.84-34.003,23.955
		c-11.141,9.114-21.033,20.021-29.68,32.717c-8.647,12.7-15.581,27.577-20.799,44.636c-5.222,17.061-7.829,37.275-7.829,60.646
		h53.517c1.556-3.115,3.816-5.996,6.777-8.647c2.491-2.18,5.803-4.243,9.932-6.192c4.127-1.946,9.776-2.921,16.943-2.921
		c8.257,0,17.097,1.209,26.525,3.621c9.425,2.419,19.317,4.988,29.68,7.713c10.359,2.728,21.186,5.258,32.484,7.595
		c11.294,2.337,23.019,3.506,35.171,3.506c15.267,0,29.6-1.249,43-3.739c13.397-2.491,24.966-8.296,34.704-17.411
		c9.735-9.113,17.41-22.435,23.02-39.962c5.608-17.526,8.413-41.167,8.413-70.927h-46.038c0,14.022-3.353,23.604-10.049,28.745
		c-6.701,5.141-15.973,7.712-27.811,7.712c-6.234,0-11.919-0.545-17.06-1.636c-5.142-1.088-10.597-2.221-16.359-3.39
		c-5.766-1.168-12.152-2.297-19.163-3.389c-7.011-1.088-15.581-1.635-25.707-1.635c-9.972,0-19.163,1.365-27.576,4.089
		c-8.414,2.728-15.972,6.076-22.669,10.049c-6.701,3.974-12.62,8.26-17.761,12.854c-5.142,4.597-9.271,8.844-12.386,12.735
		L124.569,890.116z"/>
	<path clip-path="url(#SVGID_2_)" fill="#231F20" d="M457.228,194.809c6.182,0.515,13.908-1.03,15.454,12.364
		c2.576,23.183,1.546,59.76,1.546,137.552v88.609c0,30.396-10.304,28.85-17,28.85V194.809z M455.681,517.822
		c34.001,0,46.366-13.395,53.063-33.486c7.727-22.668,7.727-81.398,7.727-155.583s-1.029-121.581-9.788-150.431
		c-9.272-28.849-22.667-39.153-56.669-39.153h-35.547v378.653H455.681z"/>
</g>
<line fill="none" stroke="#231F20" stroke-width="2" x1="24.794" y1="106" x2="537.794" y2="106"/>
<line fill="none" stroke="#231F20" stroke-width="2" x1="24.794" y1="551" x2="537.794" y2="551"/>
<line fill="none" stroke="#231F20" stroke-width="2" x1="24.794" y1="322" x2="362.794" y2="322"/>
<line fill="none" stroke="#231F20" stroke-width="2" x1="382.793" y1="127" x2="382.793" y2="530"/>
<g>
	<defs>
		<rect id="SVGID_17_" width="564" height="1002"/>
	</defs>
	<clipPath id="SVGID_4_">
		<use xlink:href="#SVGID_17_"  overflow="visible"/>
	</clipPath>
	<polygon clip-path="url(#SVGID_4_)" fill="none" stroke="#231F20" stroke-width="1.998" points="0.999,3 0.999,999 0.999,1001.002 
		3,1001.002 561,1001.002 563.001,1001.002 563.001,999 563.001,3 563.001,0.998 561,0.998 3,0.998 0.999,0.998 	"/>
</g>
<rect x="5.001" y="5.002" fill="none" stroke="#231F20" stroke-width="1.998" width="553.998" height="991.996"/>
<g>
	<defs>
		<rect id="SVGID_19_" width="564" height="1002"/>
	</defs>
	<clipPath id="SVGID_6_">
		<use xlink:href="#SVGID_19_"  overflow="visible"/>
	</clipPath>
	<path clip-path="url(#SVGID_6_)" fill="#FF1419" d="M273.215,130.125l-15.536,12.824c18.576,28.113,36.66,48.501,54.254,61.159
		c-14.797-1.314-29.019-1.973-42.664-1.973H41.624v19.729h227.645c13.646,0,27.867-0.655,42.664-1.973
		c-17.594,12.662-35.678,33.046-54.254,61.159l15.536,12.824c11.506-18.904,22.892-34.564,34.154-46.979
		c11.261-12.412,24.126-23.798,38.596-34.156v-1.479c-14.47-10.358-27.335-21.741-38.596-34.156
		C296.106,164.694,284.721,149.034,273.215,130.125"/>
</g>
</svg>
