<?xml version="1.0" encoding="utf-8"?>
<!-- Generator: Adobe Illustrator 16.0.0, SVG Export Plug-In . SVG Version: 6.00 Build 0)  -->
<!DOCTYPE svg PUBLIC "-//W3C//DTD SVG 1.1//EN" "http://www.w3.org/Graphics/SVG/1.1/DTD/svg11.dtd">
<svg version="1.1" id="Layer_1" xmlns="http://www.w3.org/2000/svg" xmlns:xlink="http://www.w3.org/1999/xlink" x="0px" y="0px"
	 width="564px" height="1002px" viewBox="0 0 564 1002" enable-background="new 0 0 564 1002" xml:space="preserve">
<g>
	<defs>
		<rect id="SVGID_51_" width="564" height="1002"/>
	</defs>
	<clipPath id="SVGID_2_">
		<use xlink:href="#SVGID_51_"  overflow="visible"/>
	</clipPath>
	<path clip-path="url(#SVGID_2_)" fill="#231F20" d="M494.953,712.334c0-0.819,0-1.827-0.252-2.646
		c-0.314-0.756-0.817-1.386-1.826-1.386c-0.818,0-1.322,0.63-1.574,1.386c-0.315,0.756-0.378,1.827-0.378,2.646
		c0,1.07,0.566,2.204,1.386,3.213c0.756,1.008,1.764,2.016,2.771,2.961c1.322,1.322,2.898,2.835,3.969,4.536
		c1.07,1.764,1.891,3.717,1.891,5.984c0,2.205-0.504,4.536-1.764,6.3c-1.324,1.827-3.34,3.15-6.363,3.15
		c-3.844,0-6.111-1.764-7.371-3.906c-1.26-2.142-1.512-4.788-1.512-6.615h5.922c0,0.945,0.062,2.269,0.504,3.276
		c0.441,1.071,1.134,1.953,2.457,1.953c1.827,0,2.205-2.142,2.205-4.158c0-2.079-2.016-4.158-3.969-6.11
		c-1.514-1.449-2.961-2.772-4.096-4.474s-1.953-3.591-1.953-6.11c0-2.017,0.379-4.348,1.575-6.175
		c1.197-1.764,3.15-3.087,6.175-3.149c3.717-0.063,5.796,1.322,6.865,3.149c1.072,1.827,1.262,4.222,1.262,6.175H494.953z
		 M474.857,721.343c-3.088,1.322-4.41,4.41-4.41,7.686c0,0.441,0.063,1.197,0.315,1.891c0.251,0.756,0.692,1.322,1.449,1.322
		c1.448,0,2.646-0.882,2.646-2.079V721.343z M474.857,711.703c0-0.566,0-1.448-0.189-2.078c-0.252-0.631-0.756-1.071-1.574-1.071
		c-1.071,0-1.513,0.818-1.701,1.827c-0.063,0.504-0.127,1.07-0.127,1.638v1.638h-6.363v-1.449c0-2.52,0.946-4.787,2.458-6.488
		s3.653-2.709,6.111-2.709c2.079,0,3.969,0.818,5.418,2.205c1.449,1.386,2.331,3.339,2.331,5.606v21.168
		c0,3.087,0.188,4.474,0.44,5.985h-6.236c-0.567-0.693-0.567-2.331-0.567-2.772h-0.441c-0.314,0.567-0.882,1.387-1.764,2.079
		c-0.883,0.693-2.079,1.197-3.339,1.197c-0.819,0-2.142-0.315-3.15-1.575c-1.07-1.197-1.952-3.339-1.952-6.93
		c0-3.843,1.134-6.615,2.646-8.505c1.511-1.891,3.402-3.087,4.978-3.906c1.574-0.819,2.771-1.386,3.023-2.079V711.703z
		 M453.814,703.514h6.364v34.461h-6.364V703.514z M463.706,692.174l-4.977,5.67h-4.915l3.277-5.67H463.706z M438.822,737.975h-5.984
		v-27.279c0-1.323-1.009-1.512-1.701-1.512c-0.693,0-1.26,0.378-1.701,0.819c-0.252,0.252-0.504,0.504-0.693,0.818v27.153h-6.362
		v-34.461h6.362v2.897c0.125-0.062,0.377-0.314,0.756-0.692c0.693-0.693,1.765-1.639,2.898-2.269c0.567-0.314,1.071-0.44,1.638-0.44
		c2.269,0,3.591,1.827,4.284,3.843c0.252-0.189,0.566-0.504,1.008-0.945c0.819-0.882,1.891-1.701,3.087-2.394
		c0.567-0.315,1.135-0.504,1.701-0.504c1.7,0,2.898,1.008,3.654,2.268c0.756,1.323,1.134,3.024,1.134,4.473v28.225h-5.984v-27.279
		c0-1.323-1.009-1.512-1.701-1.512c-0.693,0-1.261,0.378-1.701,0.819c-0.252,0.252-0.504,0.504-0.693,0.818V737.975z
		 M412.048,712.081c0.062-1.322-0.189-2.268-0.82-3.023c-0.315-0.315-0.818-0.504-1.385-0.504c-1.198,0-1.701,0.818-1.953,1.764
		c-0.19,0.504-0.253,1.071-0.19,1.764v17.325c-0.062,1.323,0.252,2.269,0.82,2.961c0.316,0.315,0.755,0.504,1.323,0.504
		c1.196,0,1.763-0.756,2.016-1.7c0.189-0.505,0.252-1.071,0.189-1.765V712.081z M418.031,729.596c-0.188,3.339-1.195,5.67-3.4,7.497
		c-1.135,0.944-2.711,1.386-4.788,1.386c-4.097,0-6.112-2.268-7.12-4.536c-0.566-1.323-0.945-2.835-1.008-4.536v-17.325
		c0.189-3.339,1.197-5.796,3.402-7.686c1.071-0.945,2.646-1.386,4.726-1.386c4.093,0,6.174,2.268,7.182,4.473
		c0.567,1.323,0.944,2.772,1.007,4.41V729.596z M387.414,737.975h-6.362v-34.461h6.362v2.897c0.126-0.062,0.379-0.314,0.756-0.692
		c0.693-0.693,1.639-1.639,2.772-2.269c0.567-0.314,1.071-0.44,1.638-0.44c1.701,0,2.898,1.008,3.654,2.268
		c0.756,1.323,1.133,3.024,1.133,4.473v28.225h-6.361v-27.279c0-1.323-0.756-1.512-1.513-1.512c-0.692,0-1.07,0.378-1.512,0.819
		c-0.188,0.252-0.378,0.504-0.567,0.818V737.975z M370.719,712.081c0.063-1.322-0.188-2.268-0.818-3.023
		c-0.314-0.315-0.819-0.504-1.387-0.504c-1.196,0-1.7,0.818-1.952,1.764c-0.189,0.504-0.252,1.071-0.189,1.764v17.325
		c-0.062,1.323,0.253,2.269,0.819,2.961c0.315,0.315,0.756,0.504,1.322,0.504c1.198,0,1.765-0.756,2.017-1.7
		c0.188-0.505,0.252-1.071,0.188-1.765V712.081z M376.703,729.596c-0.188,3.339-1.195,5.67-3.4,7.497
		c-1.135,0.944-2.709,1.386-4.789,1.386c-4.094,0-6.111-2.268-7.118-4.536c-0.567-1.323-0.945-2.835-1.008-4.536v-17.325
		c0.188-3.339,1.198-5.796,3.401-7.686c1.071-0.945,2.646-1.386,4.725-1.386c4.096,0,6.175,2.268,7.183,4.473
		c0.567,1.323,0.945,2.772,1.007,4.41V729.596z M345.836,720.209l-5.418-16.695h5.984l2.268,8.063l0.189,0.945h0.126l0.189-0.945
		l2.268-8.063h5.985l-5.418,16.695l5.922,17.766h-6.174l-2.583-8.694l-0.189-0.944h-0.126l-0.189,0.944l-2.582,8.694h-6.175
		L345.836,720.209z M331.219,721.343c-3.086,1.322-4.409,4.41-4.409,7.686c0,0.441,0.062,1.197,0.315,1.891
		c0.252,0.756,0.692,1.322,1.448,1.322c1.449,0,2.646-0.882,2.646-2.079V721.343z M331.219,711.703c0-0.566,0-1.448-0.188-2.078
		c-0.252-0.631-0.756-1.071-1.575-1.071c-1.07,0-1.512,0.818-1.7,1.827c-0.063,0.504-0.126,1.07-0.126,1.638v1.638h-6.363v-1.449
		c0-2.52,0.945-4.787,2.457-6.488s3.654-2.709,6.111-2.709c2.078,0,3.969,0.818,5.418,2.205c1.447,1.386,2.33,3.339,2.33,5.606
		v21.168c0,3.087,0.189,4.474,0.441,5.985h-6.238c-0.566-0.693-0.566-2.331-0.566-2.772h-0.44c-0.314,0.567-0.882,1.387-1.765,2.079
		c-0.881,0.693-2.078,1.197-3.338,1.197c-0.819,0-2.143-0.315-3.15-1.575c-1.072-1.197-1.953-3.339-1.953-6.93
		c0-3.843,1.134-6.615,2.646-8.505c1.512-1.891,3.4-3.087,4.977-3.906c1.574-0.819,2.772-1.386,3.023-2.079V711.703z
		 M313.957,695.009v8.505h4.348v5.732h-4.348v17.137c0,1.07,0,2.457,0.253,3.591c0.252,1.134,0.755,2.079,1.764,2.079
		c0.504,0,1.134-0.063,1.575-0.126c0.252-0.063,0.504-0.063,0.756-0.126v6.236c-0.315,0.063-0.63,0.189-0.945,0.252
		c-0.63,0.126-1.449,0.189-2.457,0.189c-3.717,0-5.48-1.89-6.363-4.284c-0.882-2.394-0.944-5.292-0.944-7.308v-17.641h-3.214v-5.732
		h3.214v-8.505H313.957z M286.806,712.334c0-0.819,0-1.827-0.253-2.646c-0.314-0.756-0.818-1.386-1.826-1.386
		c-0.819,0-1.324,0.63-1.576,1.386c-0.314,0.756-0.377,1.827-0.377,2.646c0,1.07,0.567,2.204,1.386,3.213
		c0.756,1.008,1.765,2.016,2.772,2.961c1.323,1.322,2.897,2.835,3.969,4.536c1.071,1.764,1.89,3.717,1.89,5.984
		c0,2.205-0.505,4.536-1.764,6.3c-1.323,1.827-3.339,3.15-6.363,3.15c-3.843,0-6.11-1.764-7.37-3.906
		c-1.26-2.142-1.513-4.788-1.513-6.615h5.923c0,0.945,0.062,2.269,0.503,3.276c0.441,1.071,1.135,1.953,2.457,1.953
		c1.827,0,2.204-2.142,2.204-4.158c0-2.079-2.016-4.158-3.969-6.11c-1.511-1.449-2.96-2.772-4.094-4.474
		c-1.135-1.701-1.953-3.591-1.953-6.11c0-2.017,0.378-4.348,1.574-6.175c1.197-1.764,3.15-3.087,6.175-3.149
		c3.717-0.063,5.796,1.322,6.867,3.149c1.07,1.827,1.26,4.222,1.26,6.175H286.806z M266.016,703.514h6.363v34.461h-6.363v-2.898
		c-0.126,0.063-0.378,0.315-0.693,0.63c-0.756,0.757-1.638,1.639-2.771,2.269c-0.568,0.314-1.135,0.504-1.701,0.504
		c-1.701,0-2.898-1.008-3.654-2.331c-0.756-1.26-1.134-2.961-1.134-4.41v-28.224h6.362v27.279c0,1.322,0.757,1.512,1.512,1.512
		c0.693,0,1.072-0.378,1.512-0.819c0.19-0.188,0.379-0.504,0.568-0.819V703.514z M246.422,712.334c0-0.819,0-1.827-0.252-2.646
		c-0.314-0.756-0.818-1.386-1.826-1.386c-0.819,0-1.324,0.63-1.575,1.386c-0.315,0.756-0.378,1.827-0.378,2.646
		c0,1.07,0.566,2.204,1.386,3.213c0.757,1.008,1.765,2.016,2.772,2.961c1.322,1.322,2.897,2.835,3.969,4.536
		c1.07,1.764,1.891,3.717,1.891,5.984c0,2.205-0.506,4.536-1.765,6.3c-1.323,1.827-3.339,3.15-6.363,3.15
		c-3.843,0-6.11-1.764-7.37-3.906c-1.261-2.142-1.513-4.788-1.513-6.615h5.921c0,0.945,0.064,2.269,0.506,3.276
		c0.44,1.071,1.133,1.953,2.456,1.953c1.827,0,2.205-2.142,2.205-4.158c0-2.079-2.017-4.158-3.969-6.11
		c-1.513-1.449-2.961-2.772-4.095-4.474c-1.135-1.701-1.953-3.591-1.953-6.11c0-2.017,0.378-4.348,1.574-6.175
		c1.197-1.764,3.15-3.087,6.174-3.149c3.717-0.063,5.797,1.322,6.867,3.149c1.071,1.827,1.261,4.222,1.261,6.175H246.422z
		 M206.041,744.526c0.062,0.063,0.188,0.063,0.377,0.063c0.315,0.062,1.891,0.188,2.898-0.567s1.701-1.827,2.079-3.15
		c0.188-0.63,0.252-1.26,0.252-1.89l-5.858-35.469h6.236l2.52,21.168l0.127,1.764h0.252l0.125-1.764l2.52-21.168h6.238
		l-6.111,37.044c-0.314,2.457-1.26,4.851-2.771,6.678s-3.528,3.087-6.049,3.087h-0.756c-0.566,0-1.322-0.062-2.078-0.126V744.526z
		 M188.086,712.334c0-0.819,0-1.827-0.252-2.646c-0.314-0.756-0.818-1.386-1.826-1.386c-0.819,0-1.323,0.63-1.575,1.386
		c-0.315,0.756-0.378,1.827-0.378,2.646c0,1.07,0.566,2.204,1.386,3.213c0.756,1.008,1.765,2.016,2.772,2.961
		c1.322,1.322,2.897,2.835,3.969,4.536c1.07,1.764,1.89,3.717,1.89,5.984c0,2.205-0.505,4.536-1.764,6.3
		c-1.323,1.827-3.339,3.15-6.363,3.15c-3.843,0-6.11-1.764-7.37-3.906c-1.261-2.142-1.513-4.788-1.513-6.615h5.921
		c0,0.945,0.064,2.269,0.504,3.276c0.442,1.071,1.135,1.953,2.458,1.953c1.827,0,2.205-2.142,2.205-4.158
		c0-2.079-2.017-4.158-3.969-6.11c-1.513-1.449-2.962-2.772-4.095-4.474c-1.135-1.701-1.953-3.591-1.953-6.11
		c0-2.017,0.378-4.348,1.574-6.175c1.197-1.764,3.15-3.087,6.174-3.149c3.717-0.063,5.797,1.322,6.867,3.149s1.26,4.222,1.26,6.175
		H188.086z M163.832,716.933h4.599v-4.852c0-1.322-0.252-2.268-0.882-3.023c-0.315-0.315-0.819-0.504-1.387-0.504
		c-1.197,0-1.701,0.818-2.016,1.764c-0.189,0.504-0.252,1.071-0.314,1.764V716.933z M174.352,725.627v3.969
		c-0.188,3.339-1.196,5.67-3.464,7.497c-1.134,0.944-2.709,1.386-4.788,1.386c-4.096,0-6.174-2.268-7.182-4.536
		c-0.568-1.323-0.945-2.835-1.008-4.536v-17.325c0.188-3.339,1.26-5.796,3.527-7.686c1.07-0.945,2.646-1.386,4.725-1.386
		c4.096,0,6.174,2.268,7.183,4.473c0.567,1.323,0.944,2.772,1.007,4.41v10.017h-10.52v7.497c0.062,1.323,0.44,2.269,1.008,2.961
		c0.314,0.315,0.756,0.504,1.322,0.504c1.197,0,1.764-0.756,2.017-1.7c0.188-0.505,0.252-1.071,0.252-1.765v-3.779H174.352z
		 M147.137,691.67h6.363v46.305h-6.363V691.67z M136.615,721.343c-3.087,1.322-4.41,4.41-4.41,7.686
		c0,0.441,0.063,1.197,0.314,1.891c0.253,0.756,0.693,1.322,1.449,1.322c1.449,0,2.646-0.882,2.646-2.079V721.343z M136.615,711.703
		c0-0.566,0-1.448-0.189-2.078c-0.252-0.631-0.756-1.071-1.574-1.071c-1.071,0-1.512,0.818-1.701,1.827
		c-0.062,0.504-0.126,1.07-0.126,1.638v1.638h-6.362v-1.449c0-2.52,0.944-4.787,2.457-6.488c1.512-1.701,3.653-2.709,6.11-2.709
		c2.079,0,3.97,0.818,5.418,2.205c1.449,1.386,2.331,3.339,2.331,5.606v21.168c0,3.087,0.189,4.474,0.441,5.985h-6.238
		c-0.566-0.693-0.566-2.331-0.566-2.772h-0.441c-0.314,0.567-0.881,1.387-1.764,2.079c-0.882,0.693-2.078,1.197-3.339,1.197
		c-0.819,0-2.142-0.315-3.149-1.575c-1.072-1.197-1.953-3.339-1.953-6.93c0-3.843,1.133-6.615,2.646-8.505
		c1.513-1.891,3.402-3.087,4.978-3.906c1.574-0.819,2.771-1.386,3.023-2.079V711.703z M115.574,703.514h6.361v34.461h-6.361v-2.898
		c-0.127,0.063-0.379,0.315-0.693,0.63c-0.756,0.757-1.639,1.639-2.772,2.269c-0.567,0.314-1.134,0.504-1.7,0.504
		c-1.701,0-2.898-1.008-3.654-2.331c-0.756-1.26-1.135-2.961-1.135-4.41v-28.224h6.363v27.279c0,1.322,0.756,1.512,1.512,1.512
		c0.693,0,1.071-0.378,1.512-0.819c0.189-0.188,0.379-0.504,0.568-0.819V703.514z M97.998,695.009v8.505h4.347v5.732h-4.347v17.137
		c0,1.07,0,2.457,0.252,3.591s0.756,2.079,1.764,2.079c0.504,0,1.134-0.063,1.574-0.126c0.252-0.063,0.504-0.063,0.757-0.126v6.236
		c-0.315,0.063-0.63,0.189-0.946,0.252c-0.629,0.126-1.447,0.189-2.456,0.189c-3.717,0-5.481-1.89-6.362-4.284
		c-0.883-2.394-0.945-5.292-0.945-7.308v-17.641h-3.213v-5.732h3.213v-8.505H97.998z M87.539,710.065
		c-0.566-0.188-1.197-0.252-1.764-0.252c-1.008,0-2.205,0.126-3.213,1.071c-1.197,1.008-1.387,2.079-1.387,3.149v23.94h-6.362
		v-34.461h6.362v3.843c0.063-0.441,0.505-1.512,1.513-2.52c1.008-0.945,2.521-1.827,4.851-1.827V710.065z M63.41,703.514h6.363
		v34.461H63.41V703.514z M63.41,691.67h6.363v6.362H63.41V691.67z M48.48,737.975l-5.607-34.461h6.174l2.08,19.971l0.252,2.205
		h0.504l0.252-2.205l2.078-19.971h6.175l-5.607,34.461H48.48z"/>
	<path clip-path="url(#SVGID_2_)" fill="#231F20" d="M410.03,649.66c0-0.818,0-1.827-0.252-2.646
		c-0.314-0.757-0.818-1.387-1.827-1.387c-0.818,0-1.322,0.63-1.574,1.387c-0.315,0.756-0.379,1.827-0.379,2.646
		c0,1.071,0.567,2.205,1.387,3.213c0.756,1.008,1.764,2.017,2.771,2.961c1.323,1.323,2.898,2.835,3.969,4.536
		c1.071,1.765,1.891,3.717,1.891,5.985c0,2.205-0.504,4.536-1.764,6.3c-1.323,1.827-3.34,3.15-6.363,3.15
		c-3.843,0-6.111-1.765-7.371-3.906c-1.26-2.143-1.512-4.788-1.512-6.615h5.922c0,0.945,0.062,2.269,0.504,3.276
		c0.44,1.07,1.134,1.953,2.457,1.953c1.827,0,2.205-2.143,2.205-4.158c0-2.079-2.017-4.158-3.969-6.111
		c-1.513-1.449-2.962-2.771-4.096-4.473s-1.953-3.591-1.953-6.111c0-2.016,0.377-4.347,1.574-6.174
		c1.198-1.764,3.15-3.087,6.175-3.15c3.718-0.062,5.796,1.323,6.867,3.15s1.259,4.221,1.259,6.174H410.03z M385.775,654.26h4.6
		v-4.852c0-1.323-0.253-2.268-0.883-3.023c-0.314-0.315-0.818-0.505-1.386-0.505c-1.197,0-1.701,0.819-2.016,1.765
		c-0.189,0.504-0.252,1.07-0.315,1.764V654.26z M396.297,662.953v3.969c-0.189,3.34-1.197,5.671-3.466,7.497
		c-1.134,0.945-2.709,1.387-4.787,1.387c-4.097,0-6.175-2.269-7.183-4.536c-0.566-1.323-0.945-2.835-1.008-4.536v-17.325
		c0.189-3.339,1.26-5.796,3.527-7.686c1.07-0.945,2.646-1.387,4.726-1.387c4.095,0,6.174,2.269,7.182,4.474
		c0.567,1.322,0.945,2.771,1.009,4.41v10.017h-10.521v7.497c0.063,1.323,0.441,2.268,1.008,2.961
		c0.314,0.315,0.756,0.504,1.323,0.504c1.196,0,1.763-0.756,2.016-1.701c0.189-0.504,0.253-1.07,0.253-1.764v-3.78H396.297z
		 M365.49,675.302h-6.362V640.84h6.362v2.898c0.125-0.062,0.377-0.315,0.756-0.693c0.693-0.692,1.639-1.638,2.771-2.268
		c0.568-0.315,1.072-0.441,1.639-0.441c1.701,0,2.898,1.009,3.654,2.269c0.756,1.323,1.134,3.023,1.134,4.473v28.225h-6.363v-27.279
		c0-1.323-0.756-1.512-1.513-1.512c-0.691,0-1.07,0.378-1.511,0.818c-0.19,0.252-0.378,0.504-0.567,0.819V675.302z M348.796,649.408
		c0.062-1.323-0.189-2.268-0.819-3.023c-0.315-0.315-0.819-0.505-1.386-0.505c-1.197,0-1.701,0.819-1.953,1.765
		c-0.19,0.504-0.253,1.07-0.19,1.764v17.325c-0.062,1.323,0.252,2.268,0.82,2.961c0.314,0.315,0.756,0.504,1.323,0.504
		c1.196,0,1.764-0.756,2.016-1.701c0.189-0.504,0.252-1.07,0.189-1.764V649.408z M354.78,666.922
		c-0.188,3.34-1.196,5.671-3.401,7.497c-1.135,0.945-2.709,1.387-4.788,1.387c-4.096,0-6.111-2.269-7.119-4.536
		c-0.567-1.323-0.945-2.835-1.008-4.536v-17.325c0.188-3.339,1.196-5.796,3.401-7.686c1.07-0.945,2.646-1.387,4.726-1.387
		c4.095,0,6.174,2.269,7.182,4.474c0.567,1.322,0.944,2.771,1.008,4.41V666.922z M327.754,640.84h6.361v34.462h-6.361V640.84z
		 M327.754,628.996h6.361v6.363h-6.361V628.996z M313.894,667.363c0,1.26,0.062,2.772,1.764,2.772c1.449,0,1.827-0.693,1.827-2.772
		v-4.788h6.363v3.339c0,3.843-0.693,6.3-2.079,7.812c-1.386,1.512-3.402,2.079-6.111,2.079c-2.268,0-4.347-0.63-5.796-2.205
		s-2.331-4.158-2.331-8.001v-15.058c0-3.843,0.882-6.426,2.331-8.001c1.449-1.574,3.528-2.205,5.796-2.205
		c2.709,0,4.726,0.567,6.111,2.079c1.386,1.513,2.079,3.97,2.079,7.812v2.709h-6.363v-4.158c0-2.079-0.378-2.772-1.827-2.772
		c-1.701,0-1.764,1.513-1.764,2.772V667.363z M296.758,640.84h6.361v34.462h-6.361V640.84z M296.758,628.996h6.361v6.363h-6.361
		V628.996z M285.355,648.4c0-1.008-0.945-2.079-1.891-2.079s-1.7,0.882-1.7,2.079v19.341c0,1.197,0.755,2.079,1.7,2.079
		s1.891-0.882,1.891-2.079V648.4z M291.719,675.302h-6.363v-2.269c-1.072,1.008-2.016,1.764-3.213,2.331
		c-0.63,0.315-1.26,0.441-1.828,0.441c-1.764,0-2.96-1.009-3.717-2.331c-0.818-1.261-1.196-2.961-1.196-4.41v-21.987
		c0-1.449,0.378-3.149,1.196-4.473c0.757-1.26,1.953-2.269,3.717-2.269c1.198,0,2.458,0.693,3.402,1.387
		c0.566,0.44,1.071,0.882,1.639,1.386v-14.112h6.363V675.302z M260.785,654.26h4.6v-4.852c0-1.323-0.252-2.268-0.883-3.023
		c-0.314-0.315-0.818-0.505-1.385-0.505c-1.197,0-1.701,0.819-2.017,1.765c-0.188,0.504-0.252,1.07-0.315,1.764V654.26z
		 M271.307,662.953v3.969c-0.189,3.34-1.197,5.671-3.465,7.497c-1.135,0.945-2.709,1.387-4.789,1.387
		c-4.094,0-6.174-2.269-7.182-4.536c-0.566-1.323-0.945-2.835-1.008-4.536v-17.325c0.189-3.339,1.26-5.796,3.528-7.686
		c1.071-0.945,2.646-1.387,4.726-1.387c4.094,0,6.174,2.269,7.182,4.474c0.566,1.322,0.945,2.771,1.008,4.41v10.017h-10.521v7.497
		c0.063,1.323,0.441,2.268,1.008,2.961c0.315,0.315,0.756,0.504,1.324,0.504c1.196,0,1.764-0.756,2.016-1.701
		c0.188-0.504,0.252-1.07,0.252-1.764v-3.78H271.307z M230.799,654.26h4.599v-4.852c0-1.323-0.252-2.268-0.882-3.023
		c-0.314-0.315-0.819-0.505-1.387-0.505c-1.196,0-1.7,0.819-2.016,1.765c-0.189,0.504-0.251,1.07-0.314,1.764V654.26z
		 M241.318,662.953v3.969c-0.188,3.34-1.195,5.671-3.464,7.497c-1.134,0.945-2.709,1.387-4.788,1.387
		c-4.094,0-6.174-2.269-7.182-4.536c-0.567-1.323-0.945-2.835-1.008-4.536v-17.325c0.188-3.339,1.26-5.796,3.527-7.686
		c1.071-0.945,2.646-1.387,4.725-1.387c4.096,0,6.176,2.269,7.183,4.474c0.567,1.322,0.944,2.771,1.007,4.41v10.017h-10.52v7.497
		c0.063,1.323,0.44,2.268,1.008,2.961c0.314,0.315,0.756,0.504,1.322,0.504c1.197,0,1.765-0.756,2.017-1.701
		c0.188-0.504,0.252-1.07,0.252-1.764v-3.78H241.318z M213.979,648.4c0-1.008-0.945-2.079-1.891-2.079c-0.944,0-1.7,0.882-1.7,2.079
		v19.341c0,1.197,0.756,2.079,1.7,2.079c0.945,0,1.891-0.882,1.891-2.079V648.4z M220.342,675.302h-6.363v-2.269
		c-1.07,1.008-2.016,1.764-3.213,2.331c-0.631,0.315-1.26,0.441-1.827,0.441c-1.765,0-2.961-1.009-3.717-2.331
		c-0.819-1.261-1.197-2.961-1.197-4.41v-21.987c0-1.449,0.378-3.149,1.197-4.473c0.756-1.26,1.952-2.269,3.717-2.269
		c1.196,0,2.457,0.693,3.401,1.387c0.568,0.44,1.072,0.882,1.639,1.386v-14.112h6.363V675.302z M179.707,675.302h-6.362V640.84
		h6.362v2.898c0.127-0.062,0.379-0.315,0.756-0.693c0.693-0.692,1.639-1.638,2.771-2.268c0.568-0.315,1.072-0.441,1.639-0.441
		c1.701,0,2.898,1.009,3.654,2.269c0.756,1.323,1.135,3.023,1.135,4.473v28.225h-6.363v-27.279c0-1.323-0.756-1.512-1.512-1.512
		c-0.693,0-1.072,0.378-1.513,0.818c-0.188,0.252-0.378,0.504-0.567,0.819V675.302z M163.013,649.408
		c0.063-1.323-0.188-2.268-0.819-3.023c-0.314-0.315-0.818-0.505-1.386-0.505c-1.197,0-1.701,0.819-1.953,1.765
		c-0.188,0.504-0.253,1.07-0.188,1.764v17.325c-0.064,1.323,0.252,2.268,0.818,2.961c0.314,0.315,0.756,0.504,1.323,0.504
		c1.196,0,1.764-0.756,2.017-1.701c0.188-0.504,0.252-1.07,0.188-1.764V649.408z M168.998,666.922
		c-0.189,3.34-1.197,5.671-3.402,7.497c-1.135,0.945-2.709,1.387-4.788,1.387c-4.095,0-6.111-2.269-7.119-4.536
		c-0.567-1.323-0.944-2.835-1.008-4.536v-17.325c0.188-3.339,1.196-5.796,3.401-7.686c1.07-0.945,2.646-1.387,4.726-1.387
		c4.095,0,6.174,2.269,7.182,4.474c0.567,1.322,0.944,2.771,1.009,4.41V666.922z M168.619,629.5l-4.977,5.67h-4.914l3.275-5.67
		H168.619z M141.971,640.84h6.363v34.462h-6.363V640.84z M141.971,628.996h6.363v6.363h-6.363V628.996z M128.111,667.363
		c0,1.26,0.062,2.772,1.764,2.772c1.449,0,1.828-0.693,1.828-2.772v-4.788h6.362v3.339c0,3.843-0.692,6.3-2.079,7.812
		c-1.386,1.512-3.402,2.079-6.111,2.079c-2.268,0-4.347-0.63-5.795-2.205c-1.449-1.575-2.332-4.158-2.332-8.001v-15.058
		c0-3.843,0.883-6.426,2.332-8.001c1.448-1.574,3.527-2.205,5.795-2.205c2.709,0,4.726,0.567,6.111,2.079
		c1.387,1.513,2.079,3.97,2.079,7.812v2.709h-6.362v-4.158c0-2.079-0.379-2.772-1.828-2.772c-1.701,0-1.764,1.513-1.764,2.772
		V667.363z M111.543,658.669c-3.088,1.323-4.41,4.41-4.41,7.687c0,0.44,0.062,1.197,0.314,1.89c0.252,0.756,0.693,1.323,1.449,1.323
		c1.449,0,2.646-0.882,2.646-2.079V658.669z M111.543,649.03c0-0.567,0-1.449-0.189-2.079c-0.252-0.63-0.756-1.071-1.575-1.071
		c-1.071,0-1.513,0.819-1.7,1.827c-0.064,0.504-0.127,1.071-0.127,1.639v1.638h-6.363v-1.449c0-2.52,0.945-4.788,2.457-6.489
		c1.513-1.7,3.654-2.709,6.111-2.709c2.078,0,3.969,0.819,5.418,2.205c1.449,1.387,2.331,3.339,2.331,5.607v21.168
		c0,3.087,0.189,4.473,0.441,5.985h-6.237c-0.566-0.693-0.566-2.331-0.566-2.772h-0.441c-0.314,0.567-0.883,1.386-1.764,2.079
		c-0.883,0.693-2.08,1.197-3.34,1.197c-0.818,0-2.142-0.315-3.149-1.575c-1.071-1.197-1.953-3.339-1.953-6.93
		c0-3.844,1.134-6.615,2.646-8.506c1.512-1.89,3.402-3.087,4.977-3.905c1.576-0.819,2.773-1.387,3.025-2.079V649.03z M87.35,654.26
		h4.6v-4.852c0-1.323-0.252-2.268-0.883-3.023c-0.314-0.315-0.818-0.505-1.385-0.505c-1.197,0-1.701,0.819-2.016,1.765
		c-0.189,0.504-0.252,1.07-0.316,1.764V654.26z M97.871,662.953v3.969c-0.189,3.34-1.197,5.671-3.465,7.497
		c-1.134,0.945-2.709,1.387-4.787,1.387c-4.096,0-6.175-2.269-7.184-4.536c-0.566-1.323-0.943-2.835-1.007-4.536v-17.325
		c0.188-3.339,1.26-5.796,3.528-7.686c1.07-0.945,2.645-1.387,4.725-1.387c4.095,0,6.174,2.269,7.182,4.474
		c0.567,1.322,0.945,2.771,1.008,4.41v10.017H87.35v7.497c0.064,1.323,0.441,2.268,1.009,2.961c0.315,0.315,0.756,0.504,1.323,0.504
		c1.197,0,1.764-0.756,2.016-1.701c0.189-0.504,0.252-1.07,0.252-1.764v-3.78H97.871z M79.414,647.393
		c-0.567-0.189-1.197-0.252-1.765-0.252c-1.008,0-2.205,0.126-3.214,1.07c-1.196,1.009-1.385,2.079-1.385,3.15v23.94h-6.363V640.84
		h6.363v3.844c0.062-0.441,0.504-1.513,1.512-2.521c1.008-0.944,2.52-1.827,4.852-1.827V647.393z M62.592,659.426v6.362
		c-0.062,1.891-0.441,3.591-1.133,5.04c-0.567,1.26-1.449,2.457-2.709,3.402c-1.261,1.008-2.961,1.575-5.23,1.575
		c-2.268,0-4.031-0.567-5.291-1.575c-1.26-0.945-2.079-2.143-2.646-3.402c-0.692-1.449-1.07-3.149-1.133-5.04V638.51
		c0.062-1.827,0.44-3.528,1.133-4.978c0.567-1.26,1.387-2.52,2.646-3.465s3.023-1.575,5.291-1.575c2.27,0,3.97,0.63,5.23,1.575
		c1.26,0.945,2.142,2.205,2.709,3.465c0.691,1.449,1.07,3.15,1.133,4.978v6.362h-6.362v-6.362c0-1.261-0.315-2.143-1.008-2.898
		c-0.315-0.315-0.882-0.504-1.575-0.504c-1.197,0-1.764,0.882-2.08,1.701c-0.188,0.504-0.252,1.07-0.314,1.701v27.278
		c0.062,1.323,0.441,2.205,1.072,2.898c0.314,0.314,0.756,0.504,1.322,0.504c1.449,0,2.016-0.756,2.331-1.701
		c0.188-0.441,0.252-1.008,0.252-1.701v-6.362H62.592z"/>
	<path clip-path="url(#SVGID_2_)" fill="#231F20" d="M196.484,936.599c1.133,2.546,2.629,4.761,4.482,6.642
		c1.854,1.882,4.068,3.389,6.641,4.523c2.573,1.133,5.326,1.701,8.26,1.701c2.822,0,5.533-0.568,8.135-1.701
		c2.6-1.135,4.842-2.642,6.725-4.523c1.879-1.881,3.389-4.096,4.523-6.642c1.133-2.545,1.701-5.284,1.701-8.218
		c0-2.822-0.568-5.533-1.701-8.134c-1.135-2.602-2.645-4.842-4.523-6.725c-1.883-1.881-4.125-3.389-6.725-4.523
		c-2.602-1.134-5.312-1.702-8.135-1.702c-2.934,0-5.687,0.568-8.26,1.702c-2.572,1.135-4.787,2.643-6.641,4.523
		c-1.854,1.883-3.35,4.123-4.482,6.725c-1.135,2.601-1.701,5.312-1.701,8.134C194.783,931.314,195.35,934.054,196.484,936.599
		 M97.01,924.396c-3.045-0.719-5.922-1.77-8.633-3.153c3.375-0.996,6.309-2.602,8.799-4.815c2.49-2.212,3.735-5.478,3.735-9.795
		c0-4.315-1.577-7.83-4.731-10.542c-3.154-2.71-7.969-4.067-14.443-4.067c-2.602,0-5.203,0.456-7.803,1.37
		c-2.602,0.913-4.926,2.297-6.973,4.15c-2.048,1.854-3.693,4.262-4.939,7.222c-1.244,2.961-1.867,6.406-1.867,10.334
		c0,10.903,4.814,19.328,14.443,25.276s22.993,8.923,40.094,8.923c10.181,0,18.967-1.052,26.354-3.154
		c7.388-2.102,13.487-5.021,18.304-8.757c4.813-3.735,8.383-8.121,10.707-13.157c2.324-5.034,3.486-10.568,3.486-16.602
		c0-5.865-0.913-11.44-2.74-16.726c-1.824-5.284-4.885-9.933-9.171-13.945c-4.29-4.012-10.044-7.18-17.267-9.504
		c-7.221-2.325-16.145-3.487-26.77-3.487c-2.822,0-5.258,0.056-7.305,0.166c-2.049,0.112-3.832,0.278-5.354,0.498
		c-1.522,0.222-2.852,0.444-3.984,0.664c-1.135,0.222-2.229,0.498-3.279,0.831v-11.041c2.047,0.499,4.635,0.886,7.762,1.163
		c3.125,0.277,7.512,0.415,13.156,0.415c9.629,0,17.541-0.83,23.74-2.491c6.197-1.66,11.136-3.928,14.816-6.806
		c3.681-2.877,6.446-6.351,8.301-10.418c1.854-4.067,3.363-8.509,4.525-13.322l-4.068-1.661c-2.656,0.664-5.451,1.233-8.383,1.702
		c-2.935,0.471-6.24,0.817-9.92,1.038c-3.682,0.221-7.9,0.387-12.658,0.498c-4.76,0.11-10.267,0.166-16.52,0.166
		c-5.312,0-9.919-0.028-13.82-0.083c-3.901-0.056-7.554-0.194-10.957-0.415s-6.779-0.567-10.127-1.038
		c-3.35-0.469-7.181-1.092-11.496-1.868h-3.57v66.324h20.752c1.383-0.609,3.486-1.383,6.309-2.325
		c2.822-0.94,6.557-1.411,11.206-1.411c7.028,0,12.603,1.702,16.726,5.105s6.185,8.314,6.185,14.733
		c0,6.144-1.868,11.193-5.603,15.149c-3.735,3.957-9.338,5.935-16.811,5.935C103.456,925.476,100.053,925.117,97.01,924.396"/>
</g>
<line fill="none" stroke="#231F20" stroke-width="2" x1="281.832" y1="794" x2="281.832" y2="976"/>
<g>
	<defs>
		<rect id="SVGID_53_" width="564" height="1002"/>
	</defs>
	<clipPath id="SVGID_4_">
		<use xlink:href="#SVGID_53_"  overflow="visible"/>
	</clipPath>
	<polygon clip-path="url(#SVGID_4_)" fill="none" stroke="#231F20" stroke-width="1.998" points="0.999,3 0.999,999 0.999,1001.002 
		3,1001.002 561,1001.002 563.002,1001.002 563.002,999 563.002,3 563.002,0.998 561,0.998 3,0.998 0.999,0.998 	"/>
</g>
<rect x="5.002" y="5.002" fill="none" stroke="#231F20" stroke-width="1.998" width="553.996" height="991.996"/>
<polygon fill="#FF1419" points="335.604,876.762 335.905,894.532 414.818,894.532 414.818,966.819 414.818,967.421 505.177,885.497 
	505.177,885.195 414.818,804.174 414.818,804.476 414.818,876.762 "/>
<line fill="none" stroke="#231F20" stroke-width="2" x1="26.081" y1="484.293" x2="537.581" y2="484.293"/>
<line fill="none" stroke="#231F20" stroke-width="2" x1="26.081" y1="601" x2="537.581" y2="601"/>
<line fill="none" stroke="#231F20" stroke-width="2" x1="26.081" y1="773" x2="537.581" y2="773"/>
<g>
	<defs>
		<rect id="SVGID_55_" width="564" height="1002"/>
	</defs>
	<clipPath id="SVGID_6_">
		<use xlink:href="#SVGID_55_"  overflow="visible"/>
	</clipPath>
	<path clip-path="url(#SVGID_6_)" fill="#FF1419" d="M476.641,572h44.766v-8.945h-22.188l0.039-49.102h-22.617V572z
		 M409.717,553.797l7.305-15.938l7.344,15.938H409.717z M391.436,572.039h9.883l4.258-9.297h22.892l4.296,9.297h25.508
		l-28.436-58.086h-23.79l6.718,14.648L391.436,572.039z M321.035,549.617c0,3.594,0.549,6.822,1.642,9.688s2.812,5.307,5.157,7.324
		c2.343,2.018,5.336,3.568,8.983,4.648c3.646,1.08,8.007,1.62,13.085,1.62c3.725,0,7.098-0.546,10.117-1.64
		c3.021-1.094,5.599-2.662,7.735-4.707c2.135-2.044,3.78-4.512,4.94-7.403c1.159-2.89,1.738-6.132,1.738-9.726v-35.469h-8.593
		v36.797c0,2.084-0.261,3.893-0.781,5.43s-1.264,2.812-2.226,3.828c-0.967,1.015-2.131,1.771-3.498,2.265
		c-1.367,0.495-2.909,0.743-4.627,0.743c-1.563,0-3.023-0.248-4.375-0.743c-1.355-0.493-2.534-1.242-3.536-2.245
		c-1.003-1.002-1.784-2.266-2.345-3.789c-0.56-1.523-0.84-3.326-0.84-5.41v-36.875h-22.578V549.617z M263.252,572h22.58v-49.141
		h16.562v-8.945H246.69v8.945h16.562V572z M192.385,543.875l0.039-21.406h1.328c1.849,0,3.502,0.26,4.961,0.781
		c1.457,0.521,2.695,1.257,3.711,2.207c1.015,0.951,1.797,2.084,2.344,3.398c0.546,1.315,0.82,2.754,0.82,4.316
		s-0.274,3.002-0.82,4.316c-0.547,1.315-1.329,2.447-2.344,3.398c-1.016,0.951-2.254,1.687-3.711,2.207
		c-1.459,0.521-3.112,0.781-4.961,0.781H192.385z M169.807,572h22.578v-21.055h4.765l9.22,21.094h25.508l-12.188-24.023
		c3.177-1.562,5.573-3.665,7.188-6.309c1.613-2.644,2.422-5.67,2.422-9.082c0-2.76-0.547-5.286-1.641-7.578
		c-1.095-2.291-2.729-4.258-4.902-5.899c-2.176-1.64-4.883-2.915-8.125-3.827c-3.242-0.911-7.025-1.367-11.348-1.367h-33.477V572z
		 M121.945,572h22.578l0.039-58.047h-22.617V572z M64.865,571.961L83.264,572l20.352-58.086l-10.195,0.039l-12.577,37.305
		l-13.595-37.305H42.521L64.865,571.961z"/>
	<path clip-path="url(#SVGID_6_)" fill="#231F20" d="M232.298,424.285h110.295L464.199,95.972c2.226-5.825,6.897-9.938,14.012-12.34
		c7.111-2.399,18.209-3.6,33.294-3.6V59.979H391.698v20.053c6.853,0,13.151,0.217,18.896,0.643
		c5.741,0.43,10.708,1.117,14.911,2.057c4.197,0.944,7.456,2.145,9.77,3.599c2.314,1.458,3.472,3.302,3.472,5.528
		c0,1.201-0.257,2.571-0.771,4.113l-77.9,208.763L273.176,80.031h45.249V59.979H43.846v20.053h37.793L232.298,424.285z"/>
</g>
</svg>
