<?xml version="1.0" encoding="utf-8"?>
<!-- Generator: Adobe Illustrator 16.0.0, SVG Export Plug-In . SVG Version: 6.00 Build 0)  -->
<!DOCTYPE svg PUBLIC "-//W3C//DTD SVG 1.1//EN" "http://www.w3.org/Graphics/SVG/1.1/DTD/svg11.dtd">
<svg version="1.1" id="Layer_1" xmlns="http://www.w3.org/2000/svg" xmlns:xlink="http://www.w3.org/1999/xlink" x="0px" y="0px"
	 width="1170.09px" height="575.043px" viewBox="0 0 1170.09 575.043" enable-background="new 0 0 1170.09 575.043"
	 xml:space="preserve">
<g>
	<defs>
		<rect id="SVGID_49_" x="0.91" y="-0.479" width="1170.088" height="575.043"/>
	</defs>
	<clipPath id="SVGID_2_">
		<use xlink:href="#SVGID_49_"  overflow="visible"/>
	</clipPath>
	<path clip-path="url(#SVGID_2_)" fill="#231F20" d="M332.443,528.252c6.009,6.009,13.269,9.021,21.779,9.021
		c8.504,0,15.765-3.012,21.78-9.021c6.009-6.009,9.021-13.269,9.021-21.78c0-8.504-3.012-15.764-9.021-21.779
		c-6.016-6.01-13.276-9.021-21.78-9.021c-8.511,0-15.771,3.011-21.779,9.021c-6.016,6.016-9.021,13.275-9.021,21.779
		C323.423,514.983,326.428,522.243,332.443,528.252 M188.344,238.952h5.279v199.76H82.743v-5.28L188.344,238.952z M51.062,421.992
		v51.04h142.561v58.08h36.96v-58.08h47.521v-34.32h-47.521v-215.6h-71.72L51.062,421.992z"/>
</g>
<line fill="none" stroke="#231F20" stroke-width="2" x1="27.389" y1="173.479" x2="854.978" y2="173.479"/>
<line fill="none" stroke="#231F20" stroke-width="2" x1="453.954" y1="373.075" x2="854.978" y2="373.075"/>
<line fill="none" stroke="#231F20" stroke-width="2" x1="875.977" y1="24.672" x2="875.977" y2="549.671"/>
<line fill="none" stroke="#231F20" stroke-width="2" x1="432.953" y1="194.48" x2="432.953" y2="549.671"/>
<g>
	<defs>
		<rect id="SVGID_51_" x="0.91" y="-0.479" width="1170.088" height="575.043"/>
	</defs>
	<clipPath id="SVGID_4_">
		<use xlink:href="#SVGID_51_"  overflow="visible"/>
	</clipPath>
	<path clip-path="url(#SVGID_4_)" fill="#FF1419" d="M759.771,104.34c0,1.898-0.538,3.268-1.612,4.109s-2.954,1.262-5.639,1.262
		v19.928h47.695v-19.928c-3.151,0-5.398-0.42-6.741-1.262s-2.015-2.426-2.015-4.754V76.518c0-2.363,0.672-3.965,2.015-4.807
		c1.343-0.841,3.59-1.262,6.741-1.262V50.521H752.52v19.928c2.685,0,4.564,0.421,5.639,1.262c1.074,0.842,1.612,2.229,1.612,4.163
		v8.647h-18.478v-8.647c0-1.935,0.528-3.321,1.585-4.163c1.056-0.841,2.944-1.262,5.666-1.262V50.521h-47.749v19.928
		c3.151,0,5.406,0.421,6.769,1.262c1.36,0.842,2.041,2.443,2.041,4.807v27.178c0,2.328-0.681,3.912-2.041,4.754
		c-1.362,0.842-3.617,1.262-6.769,1.262v19.928h47.749v-19.928c-2.722,0-4.61-0.42-5.666-1.262
		c-1.057-0.842-1.585-2.211-1.585-4.109v-9.99h18.478V104.34z M602.379,50.736c-4.798,1.576-9.067,4.048-12.81,7.412
		c-3.742,3.367-6.75,7.69-9.022,12.972c-2.274,5.282-3.412,11.629-3.412,19.041s1.119,13.759,3.357,19.04s5.281,9.605,9.131,12.971
		c3.85,3.367,8.359,5.837,13.535,7.413c5.174,1.575,10.662,2.363,16.463,2.363c6.445,0,12.012-0.896,16.704-2.687
		c4.69-1.789,8.558-4.207,11.602-7.251c3.043-3.043,5.281-6.588,6.714-10.635c1.432-4.045,2.148-8.342,2.148-12.89h-18.691
		c0,2.578-0.314,4.779-0.94,6.605c-0.627,1.826-1.486,3.35-2.578,4.566c-1.093,1.217-2.354,2.121-3.787,2.712
		c-1.432,0.591-2.918,0.886-4.458,0.886c-2.292,0-4.261-0.402-5.907-1.208c-1.647-0.806-2.999-2.112-4.056-3.921
		s-1.845-4.171-2.362-7.09c-0.521-2.918-0.779-6.543-0.779-10.876c0-4.261,0.242-7.877,0.725-10.851
		c0.483-2.972,1.199-5.353,2.147-7.143c0.95-1.791,2.177-3.089,3.681-3.895s3.312-1.209,5.424-1.209c1.54,0,2.973,0.215,4.297,0.645
		c1.325,0.43,2.479,1.146,3.466,2.148c0.982,1.004,1.771,2.311,2.362,3.922s0.886,3.617,0.886,6.015h18.8V50.521h-17.726v3.867
		c-0.788-0.572-1.809-1.207-3.061-1.906c-1.254-0.698-2.739-1.36-4.458-1.987c-1.719-0.626-3.626-1.136-5.72-1.531
		c-2.096-0.394-4.343-0.59-6.741-0.59C612.155,48.374,607.178,49.162,602.379,50.736 M483.446,70.449h4.728
		c3.008,0,5.074,0.662,6.203,1.986c1.127,1.325,1.691,3.491,1.691,6.5c0,2.578-0.564,4.592-1.691,6.043
		c-1.129,1.449-3.195,2.174-6.203,2.174h-4.728V70.449z M490.697,129.639v-19.928c-2.721,0-4.611-0.42-5.666-1.262
		c-1.057-0.842-1.585-2.211-1.585-4.109v-7.68h1.289c1.683,0,3.115,0.16,4.297,0.482c1.183,0.322,2.14,0.977,2.874,1.961
		c0.732,0.985,1.262,2.363,1.584,4.135c0.322,1.773,0.484,4.093,0.484,6.957v4.136c0,2.362,0.295,4.61,0.886,6.739
		c0.591,2.132,1.638,4.003,3.142,5.613c1.504,1.611,3.59,2.875,6.258,3.787c2.666,0.913,6.096,1.369,10.285,1.369
		s7.717-0.439,10.582-1.316c2.863-0.877,5.174-2.121,6.928-3.731c1.755-1.612,3.017-3.5,3.787-5.667
		c0.77-2.166,1.154-4.539,1.154-7.117v-13.642h-6.177v13.642c0,0.896-0.215,1.676-0.644,2.337c-0.431,0.663-1.164,0.993-2.203,0.993
		c-0.967,0-1.684-0.33-2.148-0.993c-0.466-0.661-0.697-1.44-0.697-2.337v-2.846c0-2.65-0.242-5.021-0.726-7.117
		c-0.483-2.095-1.308-3.885-2.472-5.371c-1.163-1.486-2.758-2.693-4.779-3.626c-2.023-0.93-4.575-1.504-7.654-1.718v-0.645
		c6.373-0.287,11.012-2.229,13.911-5.828c2.901-3.599,4.351-8.405,4.351-14.422c0-3.293-0.457-6.283-1.369-8.97
		c-0.913-2.685-2.453-4.995-4.619-6.928c-2.167-1.935-5.049-3.419-8.648-4.458c-3.598-1.039-8.029-1.559-13.293-1.559h-56.88v19.928
		c3.151,0,5.406,0.421,6.769,1.262c1.359,0.842,2.041,2.443,2.041,4.807v27.178c0,2.328-0.682,3.912-2.041,4.754
		c-1.362,0.842-3.617,1.262-6.769,1.262v19.928H490.697z M351.301,77.163h0.43l5.371,16.489H345.66L351.301,77.163z M360.646,104.34
		c0.572,1.54,0.51,2.82-0.188,3.842c-0.699,1.02-2.068,1.529-4.109,1.529h-2.954v19.928h48.823v-19.928h-2.202
		c-1.325,0-2.409-0.125-3.25-0.376c-0.841-0.25-1.513-0.635-2.015-1.153c-0.502-0.52-0.922-1.146-1.262-1.881
		c-0.341-0.734-0.725-1.602-1.154-2.605l-11.012-27.178c-0.824-1.969-0.977-3.473-0.456-4.512c0.519-1.038,2.103-1.557,4.753-1.557
		h1.075V50.521h-55.215v19.928h1.128c2.613,0,4.18,0.492,4.699,1.477c0.519,0.985,0.385,2.516-0.402,4.592l-11.011,27.178
		c-0.824,1.97-1.675,3.465-2.552,4.486c-0.877,1.02-2.604,1.529-5.184,1.529h-2.201v19.928h33.461v-19.928h-3.061
		c-2.077,0-3.438-0.51-4.082-1.529c-0.645-1.021-0.682-2.302-0.107-3.842l0.752-2.309h16.973L360.646,104.34z M239.242,109.711
		V94.243h17.135v-9.507h-17.135V70.449h9.668c1.469,0,2.694,0.134,3.68,0.402c0.983,0.269,1.771,0.744,2.362,1.424
		c0.591,0.681,0.994,1.629,1.209,2.847c0.216,1.217,0.322,2.774,0.322,4.672h18.799V50.521h-76.538v19.928
		c3.15,0,5.406,0.421,6.768,1.262c1.361,0.842,2.041,2.443,2.041,4.807v27.178c0,2.328-0.68,3.912-2.041,4.754
		s-3.617,1.262-6.768,1.262v19.928h76.538v-29.272h-18.799c0,1.897-0.106,3.456-0.322,4.673c-0.215,1.217-0.618,2.175-1.209,2.873
		c-0.591,0.697-1.379,1.173-2.362,1.423c-0.985,0.251-2.211,0.376-3.68,0.376H239.242z M153.879,50.521h-17.726v4.996
		c-2.255-1.469-5.424-2.865-9.506-4.189c-4.082-1.325-8.97-1.988-14.664-1.988c-4.118,0-8.028,0.529-11.735,1.585
		c-3.705,1.056-6.974,2.614-9.803,4.673c-2.829,2.06-5.085,4.592-6.768,7.601c-1.684,3.008-2.524,6.464-2.524,10.366
		c0,5.264,1.065,9.524,3.196,12.783c2.13,3.258,4.771,5.881,7.923,7.868c3.149,1.987,6.597,3.511,10.339,4.565
		c3.741,1.057,7.188,2.006,10.339,2.847c3.151,0.843,5.792,1.799,7.923,2.873c2.131,1.075,3.195,2.597,3.195,4.565
		c0,1.254-0.645,2.373-1.934,3.357c-1.289,0.985-3.24,1.477-5.854,1.477c-3.903,0-7.412-1.209-10.526-3.625
		c-3.115-2.418-5.192-5.721-6.23-9.909H81.799v29.272h17.725v-4.727c3.975,2.184,7.868,3.759,11.682,4.727
		c3.813,0.967,7.815,1.449,12.004,1.449c4.297,0,8.45-0.447,12.461-1.342c4.01-0.895,7.556-2.311,10.635-4.244
		c3.08-1.934,5.533-4.404,7.359-7.412c1.825-3.007,2.738-6.641,2.738-10.902c0-4.011-0.626-7.447-1.879-10.312
		c-1.254-2.865-2.9-5.291-4.941-7.277c-2.041-1.988-4.369-3.617-6.982-4.889c-2.615-1.271-5.273-2.354-7.977-3.25
		c-2.703-0.895-5.363-1.646-7.976-2.255c-2.615-0.608-4.942-1.244-6.983-1.907c-2.041-0.662-3.688-1.449-4.941-2.363
		c-1.254-0.912-1.879-2.103-1.879-3.572c0-1.538,0.697-2.738,2.095-3.598c1.396-0.859,3.222-1.289,5.478-1.289
		c1.862,0,3.67,0.313,5.426,0.939c1.754,0.627,3.348,1.513,4.779,2.659c1.432,1.146,2.641,2.507,3.627,4.081
		c0.983,1.576,1.618,3.277,1.905,5.103h17.726V50.521z"/>
	<path clip-path="url(#SVGID_4_)" fill="#231F20" d="M1048.553,177.533c0-16.065-0.669-34.139-5.355-48.197
		c-4.686-13.387-12.049-22.76-23.429-22.76c-18.743,0.67-24.768,20.084-24.768,48.867c0,16.735,7.363,34.139,18.074,52.883
		c10.71,18.743,24.768,38.155,38.823,58.907c16.736,24.769,33.472,50.205,46.19,74.974c12.718,24.768,21.421,50.204,21.421,76.98
		c0,32.8-5.355,63.593-20.752,86.354c-15.396,22.759-40.164,37.485-79.66,37.485c-46.187,0-72.294-17.404-87.021-44.18
		c-14.728-26.777-18.074-62.255-18.074-99.072l70.957-6.693c0,20.752,0.669,41.503,6.024,56.898
		c4.686,16.066,12.719,26.776,28.113,26.776c21.422,0,29.455-22.759,29.455-54.222c0-16.065-8.033-34.809-18.743-54.222
		c-6.024-9.371-12.049-19.412-18.743-29.453c-14.058-20.082-29.453-42.842-45.52-67.609c-16.065-24.769-28.115-50.205-35.479-76.312
		c-4.016-12.718-6.024-26.105-6.024-39.494c0-26.775,6.024-55.561,21.421-77.65c15.396-21.422,38.826-36.817,72.965-37.486
		c43.511-0.67,68.948,17.404,83.006,43.511c14.058,26.776,18.074,59.577,18.074,87.022L1048.553,177.533z"/>
	<path clip-path="url(#SVGID_4_)" fill="#231F20" d="M577.995,322.551v4.918c-0.932,0.745-1.862,1.342-2.534,1.342
		c-1.602,0-2.16-1.081-2.16-2.235c0-1.383,0.123-2.53,2.756-3.392L577.995,322.551z M578.188,328.866
		c0.254,1.509,1.259,2.18,2.899,2.18c2.06,0,3.502-0.782,4.881-2.086c-0.082-0.44-0.242-0.738-0.672-1.044
		c-0.483,0.373-0.856,0.521-1.564,0.521c-0.819,0-1.043-0.671-1.043-2.496l0.074-5.365c0-5.365-3.316-6.445-6.371-6.445
		c-2.721,0-6.911,1.55-6.911,4.009c0,1.065,0.45,1.885,1.926,1.885c1.319,0,2.318-0.819,2.318-1.721
		c0-0.492-0.261-1.118-0.173-1.759c0.057-0.414,0.324-0.851,1.574-0.851c1.563,0,2.868,0.672,2.868,5.403l-2.497,0.782
		c-3.927,1.229-6.669,2.31-6.669,5.254c0,2.571,1.416,3.912,4.657,3.912c1.08,0,3.242-1.192,4.471-2.161L578.188,328.866z
		 M558.807,308.467c0,1.23,0.895,2.459,2.385,2.459c1.676,0,2.645-1.341,2.645-2.311c0-1.117-0.856-2.459-2.42-2.459
		C559.663,306.156,558.807,307.349,558.807,308.467 M563.836,326.128v-7.426c0-1.853,0.149-3.938,0.149-3.938
		c0-0.41-0.335-0.633-0.856-0.633c-1.062,0.409-4.062,0.707-6.633,1.043c-0.074,0.223,0,0.969,0.075,1.192
		c2.031,0.189,2.422,0.483,2.422,2.607v7.154c0,3.092-0.409,3.167-2.683,3.353c-0.223,0.225-0.223,1.043,0,1.268
		c1.564-0.037,3.115-0.074,5.105-0.074c1.988,0,3.502,0.037,5.104,0.074c0.224-0.225,0.224-1.043,0-1.268
		C564.246,329.332,563.836,329.22,563.836,326.128 M547.741,320.677c0-1.33,0.409-1.87,0.894-2.448
		c0.307-0.364,0.634-0.633,1.182-0.633c0.35,0,0.738,0.328,1.055,0.711c0.26,0.313,0.895,0.611,1.732,0.611
		c1.081,0,2.143-1.136,2.143-2.701c0-0.969-1.117-2.086-2.46-2.086c-1.304,0-2.72,1.117-4.433,3.576h-0.149
		c-0.075-1.117-0.261-2.943-0.261-2.943c-0.03-0.328-0.336-0.633-0.857-0.633c-1.77,0.447-3.726,0.987-6.185,1.229
		c-0.075,0.225,0,0.933,0.074,1.155c2.03,0.19,2.422,0.522,2.422,2.646v6.967c0,3.092-0.41,3.167-2.683,3.353
		c-0.224,0.225-0.224,1.043,0,1.268c1.564-0.037,3.114-0.074,5.104-0.074s3.502,0.037,5.104,0.074c0.224-0.225,0.224-1.043,0-1.268
		c-2.273-0.148-2.683-0.261-2.683-3.353V320.677z M537.086,325.867c-1.529,1.564-3.541,1.975-4.957,1.975
		c-2.906,0-4.693-1.677-4.693-5.328c0-0.261,0.037-0.41,0.037-0.596h8.941c0.895,0,1.081-0.634,1.081-1.155
		c0-3.167-1.229-6.632-6.707-6.632c-3.911,0-8.383,3.465-8.383,9.165c0,2.18,0.79,4.441,2.384,5.887
		c1.401,1.271,3.238,1.863,5.887,1.863c2.571,0,5.105-1.304,6.969-4.024C537.645,326.538,537.457,325.867,537.086,325.867
		 M527.621,320.427c0.037-1.304,0.239-2.708,0.745-3.465c0.593-0.887,1.591-1.268,2.013-1.268c1.006,0,2.385,0.97,2.385,3.95
		c0,0.224,0,0.708-0.075,0.782H527.621z M510.035,314.503c-0.521,0.004-1.091,0.148-1.564,0.559v1.081
		c0,0.187,0.037,0.224,0.187,0.224h2.422c-0.086,3.752-0.112,8.531-0.112,10.395c0,1.304,0.32,2.56,1.119,3.242
		c0.838,0.719,2.213,1.043,3.092,1.043c2.061,0,4.322-1.043,5.066-2.086c0-0.447-0.223-0.671-0.67-1.044
		c-0.484,0.373-1.416,0.521-2.124,0.521c-0.819,0-1.639-0.633-1.639-2.496c0-1.862-0.038-5.85-0.038-9.575h3.763
		c0.373,0,0.896-0.149,0.896-0.484v-1.155c0-0.148-0.112-0.224-0.299-0.224h-4.359l0.038-1.268c0.073-2.48,0.186-4.21,0.186-4.21
		c0-0.238-0.112-0.328-0.286-0.328c-0.272,0-1.662,0.414-2.248,0.66c-0.633,0.264-1.721,0.48-1.974,0.823
		c-0.261,0.354-0.41,1.36-0.41,4.318L510.035,314.503z M499.305,308.467c0,1.23,0.895,2.459,2.386,2.459
		c1.676,0,2.646-1.341,2.646-2.311c0-1.117-0.857-2.459-2.422-2.459C500.162,306.156,499.305,307.349,499.305,308.467
		 M504.336,326.128v-7.426c0-1.853,0.148-3.938,0.148-3.938c0-0.41-0.335-0.633-0.857-0.633c-1.062,0.409-4.061,0.707-6.632,1.043
		c-0.073,0.223,0,0.969,0.075,1.192c2.03,0.189,2.422,0.483,2.422,2.607v7.154c0,3.092-0.41,3.167-2.683,3.353
		c-0.224,0.225-0.224,1.043,0,1.268c1.565-0.037,3.114-0.074,5.104-0.074c1.989,0,3.502,0.037,5.104,0.074
		c0.223-0.225,0.223-1.043,0-1.268C504.745,329.332,504.336,329.22,504.336,326.128 M488.24,320.677c0-1.33,0.409-1.87,0.895-2.448
		c0.305-0.364,0.633-0.633,1.181-0.633c0.351,0,0.737,0.328,1.054,0.711c0.262,0.313,0.895,0.611,1.733,0.611
		c1.079,0,2.142-1.136,2.142-2.701c0-0.969-1.117-2.086-2.459-2.086c-1.304,0-2.72,1.117-4.434,3.576h-0.149
		c-0.073-1.117-0.26-2.943-0.26-2.943c-0.03-0.328-0.336-0.633-0.856-0.633c-1.771,0.447-3.727,0.987-6.186,1.229
		c-0.075,0.225,0,0.933,0.074,1.155c2.031,0.19,2.422,0.522,2.422,2.646v6.967c0,3.092-0.41,3.167-2.684,3.353
		c-0.223,0.225-0.223,1.043,0,1.268c1.565-0.037,3.115-0.074,5.105-0.074c1.988,0,3.502,0.037,5.104,0.074
		c0.225-0.225,0.225-1.043,0-1.268c-2.272-0.148-2.682-0.261-2.682-3.353V320.677z M478.479,327.432
		c0-0.447-0.074-1.155-0.484-1.155c-1.49,1.38-2.758,2.086-3.838,2.086c-2.794,0-4.992-2.012-4.992-6.482
		c0-4.135,0.932-6.186,2.905-6.186c1.379,0,1.938,1.454,2.05,2.646c0.112,1.006,1.117,1.751,2.311,1.751
		c1.191,0,2.049-0.931,2.049-2.087c0-1.676-2.012-3.874-6.073-3.874c-4.397,0-8.272,3.539-8.272,9.053
		c0,2.407,0.865,4.565,2.311,5.925c1.465,1.374,3.148,1.938,5.812,1.938C474.491,331.046,477.062,329.48,478.479,327.432"/>
	<path clip-path="url(#SVGID_4_)" fill="#231F20" d="M822.783,279.29c-1.527,1.565-3.539,1.974-4.955,1.974
		c-2.906,0-4.695-1.676-4.695-5.328c0-0.26,0.038-0.41,0.038-0.596h8.942c0.894,0,1.08-0.633,1.08-1.154
		c0-3.168-1.229-6.633-6.706-6.633c-3.912,0-8.386,3.465-8.386,9.166c0,2.18,0.791,4.441,2.387,5.887
		c1.4,1.271,3.237,1.863,5.887,1.863c2.571,0,5.104-1.304,6.967-4.023C823.342,279.96,823.156,279.29,822.783,279.29 M813.32,273.85
		c0.037-1.304,0.237-2.709,0.744-3.465c0.593-0.887,1.592-1.267,2.013-1.267c1.006,0,2.384,0.969,2.384,3.948
		c0,0.225,0,0.709-0.074,0.783H813.32z M798.342,279.363c0,3.094-0.596,3.429-2.869,3.541c-0.224,0.223-0.224,1.043,0,1.267
		c1.565-0.038,3.227-0.075,5.291-0.075s3.688,0.037,5.29,0.075c0.225-0.224,0.225-1.044,0-1.267
		c-2.271-0.112-2.869-0.447-2.869-3.541v-16.989c0-2.422,0.112-3.8,0.112-3.8c0-0.336-0.261-0.485-0.596-0.485
		c-1.379,0.447-4.359,0.856-7.005,0.97c-0.11,0.446-0.074,0.856,0.111,1.191c2.348,0.188,2.534,0.238,2.534,2.795V279.363z
		 M781.352,281.674v-9.549c0-0.201-0.004-0.406-0.011-0.607c1.073-0.969,2.451-1.469,3.327-1.469c1.528,0,3.316,1.863,3.316,6.223
		c0,3.129-1.118,6.633-4.359,6.633C783.215,282.904,782.283,282.68,781.352,281.674 M776.508,272.583v15.612
		c0,3.092-0.41,3.166-2.682,3.353c-0.225,0.224-0.225,1.043,0,1.267c1.563-0.037,3.113-0.074,5.104-0.074s3.502,0.037,5.105,0.074
		c0.223-0.224,0.223-1.043,0-1.267c-2.273-0.149-2.684-0.261-2.684-3.353v-4.36c0.802,0.41,1.603,0.634,2.496,0.634
		c5.679,0,9.352-3.708,9.352-9.203c0-2.076-0.785-4.396-2.234-5.85c-1.308-1.311-3.178-1.863-5.104-1.863
		c-1.08,0-3.093,1.305-4.396,2.496h-0.209c-0.087-1.054-0.201-1.863-0.201-1.863c-0.034-0.453-0.335-0.633-0.856-0.633
		c-1.379,0.373-3.614,0.895-6.186,1.23c-0.075,0.223,0,0.968,0.074,1.191C776.117,270.165,776.508,270.459,776.508,272.583
		 M764.586,261.891c0,1.229,0.895,2.459,2.384,2.459c1.677,0,2.646-1.342,2.646-2.311c0-1.118-0.856-2.459-2.421-2.459
		C765.443,259.58,764.586,260.771,764.586,261.891 M769.615,279.55v-7.425c0-1.852,0.149-3.939,0.149-3.939
		c0-0.408-0.336-0.633-0.856-0.633c-1.062,0.41-4.062,0.708-6.632,1.043c-0.075,0.225,0,0.969,0.073,1.193
		c2.031,0.189,2.422,0.484,2.422,2.607v7.153c0,3.093-0.409,3.167-2.683,3.354c-0.223,0.223-0.223,1.043,0,1.267
		c1.565-0.038,3.115-0.075,5.105-0.075c1.989,0,3.502,0.037,5.104,0.075c0.224-0.224,0.224-1.044,0-1.267
		C770.026,282.755,769.615,282.643,769.615,279.55 M749.98,267.926c-0.521,0.004-1.092,0.149-1.564,0.559v1.08
		c0,0.187,0.037,0.225,0.186,0.225h2.422c-0.086,3.752-0.111,8.531-0.111,10.395c0,1.305,0.321,2.561,1.118,3.241
		c0.837,0.72,2.213,1.044,3.092,1.044c2.06,0,4.323-1.044,5.067-2.087c0-0.446-0.225-0.671-0.672-1.043
		c-0.482,0.372-1.416,0.522-2.123,0.522c-0.818,0-1.639-0.635-1.639-2.498c0-1.862-0.037-5.848-0.037-9.574h3.764
		c0.371,0,0.894-0.148,0.894-0.484v-1.156c0-0.148-0.112-0.223-0.298-0.223h-4.359l0.037-1.267c0.074-2.482,0.187-4.21,0.187-4.21
		c0-0.239-0.112-0.328-0.287-0.328c-0.272,0-1.661,0.413-2.246,0.658c-0.634,0.266-1.723,0.481-1.976,0.824
		c-0.261,0.354-0.41,1.36-0.41,4.318L749.98,267.926z M739.25,279.363c0,3.094-0.596,3.429-2.869,3.541
		c-0.223,0.223-0.223,1.043,0,1.267c1.565-0.038,3.228-0.075,5.291-0.075c2.064,0,3.689,0.037,5.291,0.075
		c0.223-0.224,0.223-1.044,0-1.267c-2.273-0.112-2.869-0.447-2.869-3.541v-16.989c0-2.422,0.112-3.8,0.112-3.8
		c0-0.336-0.261-0.485-0.596-0.485c-1.38,0.447-4.36,0.856-7.005,0.97c-0.112,0.446-0.075,0.856,0.111,1.191
		c2.348,0.188,2.533,0.238,2.533,2.795V279.363z M732.246,279.141v-6.445c0-3.131,0.074-2.684,0.074-3.577
		c0-0.634-0.149-1.043-0.373-1.267c-0.67,0.037-1.416,0.074-2.123,0.074c-1.032,0-3.465-0.037-4.918-0.074
		c-0.225,0.224-0.225,1.043,0,1.267c1.899,0.187,2.496,0.446,2.496,3.577v6.904c0,0.357,0.012,0.729,0.029,1.106
		c-1.514,0.935-2.768,1.005-3.42,1.005c-1.491,0-2.607-0.167-2.607-2.794v-6.222c0-3.131,0.073-2.684,0.073-3.577
		c0-0.634-0.148-1.043-0.372-1.267c-0.672,0.037-1.441,0.074-2.123,0.074c-1.92,0-3.316-0.037-4.918-0.074
		c-0.225,0.224-0.225,1.043,0,1.267c1.714,0.075,2.495,0.446,2.495,3.577v5.812c0,3.968,1.565,5.962,4.77,5.962
		c1.353,0,4.061-1.072,6.204-2.273c0.082,0.939,0.166,1.64,0.166,1.64c0.03,0.447,0.337,0.634,0.857,0.634
		c1.379-0.373,3.614-0.895,6.186-1.23c0.075-0.223,0-0.969-0.074-1.191C732.637,281.857,732.246,281.264,732.246,279.141
		 M688.02,279.55v-7.425c0-0.18-0.004-0.361-0.008-0.544c1.45-0.88,2.77-1.271,3.398-1.271c1.491,0,2.607,0.67,2.607,2.795v6.222
		c0,3.13-0.596,3.465-2.123,3.577c-0.224,0.223-0.224,1.043,0,1.267c1.565-0.038,2.758-0.075,4.545-0.075
		c1.789,0,2.944,0.037,4.547,0.075c0.223-0.224,0.223-1.044,0-1.267c-1.491-0.112-2.124-0.447-2.124-3.577v-5.812
		c0-0.914-0.057-1.658-0.135-2.043c1.401-0.73,2.999-1.162,3.6-1.162c1.491,0,2.534,0.67,2.534,2.795v6.222
		c0,3.13-0.597,3.465-2.124,3.577c-0.225,0.223-0.225,1.043,0,1.267c1.563-0.038,2.757-0.075,4.546-0.075
		c2.049,0,3.688,0.037,5.29,0.075c0.224-0.224,0.224-1.044,0-1.267c-2.272-0.112-2.869-0.447-2.869-3.577v-5.812
		c0-4.1-1.49-5.963-4.694-5.963c-1.371,0-4.52,1.479-6.677,2.701c-0.57-1.62-2.06-2.701-4.24-2.701
		c-1.334,0-4.035,1.401-6.159,2.602c-0.089-1.107-0.212-1.969-0.212-1.969c-0.034-0.453-0.337-0.633-0.856-0.633
		c-1.379,0.373-3.614,0.895-6.186,1.23c-0.075,0.223,0,0.968,0.074,1.191c2.031,0.19,2.422,0.484,2.422,2.608v6.967
		c0,3.093-0.41,3.167-2.683,3.354c-0.224,0.223-0.224,1.043,0,1.267c1.564-0.038,3.115-0.075,5.104-0.075
		c1.699,0,2.757,0.037,4.359,0.075c0.224-0.224,0.224-1.044,0-1.267C688.392,282.755,688.02,282.643,688.02,279.55 M651.059,276.383
		c0,4.866,3.859,8.086,8.868,8.086c2.627,0,4.839-0.753,6.371-2.123c1.884-1.688,2.534-4.223,2.534-6.298
		c0-4.873-3.335-8.495-8.868-8.495c-3.089,0-5.395,1.066-6.867,2.758C651.685,271.936,651.059,274.182,651.059,276.383
		 M659.367,269.118c2.534,0,4.248,3.018,4.248,8.122c0,4.475-1.751,5.664-3.092,5.664c-3.056,0-4.248-4.584-4.248-7.34
		C656.275,272.136,656.872,269.118,659.367,269.118 M638.689,267.926c-0.521,0.004-1.092,0.149-1.564,0.559v1.08
		c0,0.187,0.037,0.225,0.186,0.225h2.423c-0.087,3.752-0.112,8.531-0.112,10.395c0,1.305,0.321,2.561,1.118,3.241
		c0.838,0.72,2.212,1.044,3.092,1.044c2.061,0,4.323-1.044,5.067-2.087c0-0.446-0.224-0.671-0.671-1.043
		c-0.483,0.372-1.416,0.522-2.124,0.522c-0.818,0-1.639-0.635-1.639-2.498c0-1.862-0.037-5.848-0.037-9.574h3.764
		c0.371,0,0.894-0.148,0.894-0.484v-1.156c0-0.148-0.112-0.223-0.298-0.223h-4.359l0.037-1.267c0.074-2.482,0.186-4.21,0.186-4.21
		c0-0.239-0.111-0.328-0.286-0.328c-0.272,0-1.661,0.413-2.246,0.658c-0.634,0.266-1.723,0.481-1.976,0.824
		c-0.262,0.354-0.409,1.36-0.409,4.318L638.689,267.926z M625.016,269.416c1.043,0,1.64-0.447,1.64-1.826
		c0-0.708-0.969-1.788-2.385-1.788c-1.64,0-3.801,1.229-4.881,2.198c-0.671-0.372-1.453-0.447-3.13-0.447
		c-1.605,0-3.163,0.391-4.396,1.192c-1.514,0.983-2.533,2.411-2.533,4.321c0,1.826,1.08,3.802,2.869,4.789
		c-1.155,0.987-2.944,2.955-2.944,3.707c0,0.711,0.112,1.154,0.485,1.713c0.343,0.516,0.797,0.806,1.525,1.045
		c-1.601,0.968-3.239,3.092-3.239,3.725c0,1.379,0.428,2.971,1.452,3.689c1.442,1.01,3.916,1.229,5.701,1.229
		c5.18,0,11.104-2.72,11.104-6.819c0-0.797-0.362-2.381-1.863-3.39c-1.442-0.969-7.061-1.229-9.799-1.229
		c-0.671,0-1.677-0.074-1.677-1.565c0-0.597,0.354-1.117,0.54-1.565c0.781,0.373,1.584,0.41,2.738,0.41
		c1.9,0,3.647-0.477,4.918-1.602c1.073-0.95,1.826-2.276,1.826-3.949c0-2.087-1.044-3.465-2.31-4.509
		c0.298-0.372,1.526-1.043,1.899-1.043c0.335,0,0.597,0.224,0.708,0.446C623.414,268.634,624.084,269.416,625.016,269.416
		 M614.135,285.027c2.863,0,8.385,0.104,8.385,2.086c0,1.35-0.6,2.861-1.825,3.556c-1.155,0.651-3.044,0.729-4.472,0.729
		c-2.459,0-4.136-1.825-4.136-3.726c0-1.267,0-2.124,0.41-2.868C612.869,284.953,613.354,285.027,614.135,285.027 M618.421,273.365
		c0,3.576-1.043,4.023-2.012,4.023c-2.312,0-2.608-2.757-2.608-4.656c0-2.758,0.671-3.764,2.124-3.764
		C617.676,268.969,618.421,270.422,618.421,273.365 M593.16,279.55v-7.425v-0.066c1.479-1.018,2.995-1.748,3.65-1.748
		c1.49,0,2.607,0.67,2.607,2.795v6.222c0,3.13-0.595,3.465-2.123,3.577c-0.223,0.223-0.223,1.043,0,1.267
		c1.565-0.038,2.771-0.075,4.546-0.075c2.064,0,3.689,0.037,5.291,0.075c0.223-0.224,0.223-1.044,0-1.267
		c-2.272-0.112-2.869-0.447-2.869-3.577v-5.812c0-4.1-1.751-5.963-4.956-5.963c-1.501,0-4.149,1.643-6.203,3.053
		c-0.086-1.316-0.241-2.42-0.241-2.42c-0.034-0.453-0.336-0.633-0.857-0.633c-1.379,0.373-3.614,0.895-6.185,1.23
		c-0.075,0.223,0,0.968,0.074,1.191c2.03,0.19,2.422,0.484,2.422,2.608v6.967c0,3.093-0.41,3.167-2.684,3.354
		c-0.223,0.223-0.223,1.043,0,1.267c1.565-0.038,3.115-0.075,5.105-0.075c1.698,0,2.757,0.037,4.358,0.075
		c0.225-0.224,0.225-1.044,0-1.267C593.531,282.755,593.16,282.643,593.16,279.55 M576.281,261.891c0,1.229,0.895,2.459,2.385,2.459
		c1.677,0,2.646-1.342,2.646-2.311c0-1.118-0.857-2.459-2.422-2.459C577.139,259.58,576.281,260.771,576.281,261.891
		 M581.312,279.55v-7.425c0-1.852,0.148-3.939,0.148-3.939c0-0.408-0.336-0.633-0.857-0.633c-1.062,0.41-4.061,0.708-6.632,1.043
		c-0.075,0.225,0,0.969,0.074,1.193c2.031,0.189,2.422,0.484,2.422,2.607v7.153c0,3.093-0.409,3.167-2.683,3.354
		c-0.223,0.223-0.223,1.043,0,1.267c1.564-0.038,3.115-0.075,5.105-0.075c1.988,0,3.502,0.037,5.104,0.075
		c0.223-0.224,0.223-1.044,0-1.267C581.721,282.755,581.312,282.643,581.312,279.55 M564.982,282.309
		c0.078,0.879,0.16,1.526,0.16,1.526c0.029,0.447,0.334,0.634,0.856,0.634c1.378-0.373,3.614-0.895,6.185-1.23
		c0.074-0.223,0-0.969-0.074-1.191c-2.031-0.189-2.422-0.783-2.422-2.906v-16.767c0-2.422,0.111-3.8,0.111-3.8
		c0-0.336-0.261-0.485-0.596-0.485c-1.379,0.447-4.359,0.856-7.006,0.97c-0.111,0.446-0.073,0.932,0.113,1.267
		c2.346,0.186,2.533,0.223,2.533,2.794v4.859c-0.712-0.254-1.605-0.426-2.683-0.426c-4.806,0-9.017,4.211-9.017,9.166
		c0,2.217,0.797,4.776,2.607,6.186c1.342,1.043,2.281,1.564,4.359,1.564c1.007,0,3.764-1.64,4.545-2.16H564.982z M564.866,280.564
		c-0.786,0.629-2.753,1.445-3.189,1.445c-1.862,0-3.315-2.087-3.315-6.445c0-1.986,0.227-3.689,0.931-4.845
		c0.614-1.01,1.628-1.602,2.757-1.602c0.977,0,1.889,0.101,2.795,1.334v9.173C564.844,279.927,564.852,280.243,564.866,280.564
		 M544.611,274.1c0-1.33,0.41-1.871,0.895-2.447c0.307-0.366,0.635-0.635,1.182-0.635c0.351,0,0.737,0.328,1.055,0.713
		c0.261,0.312,0.893,0.61,1.732,0.61c1.08,0,2.143-1.137,2.143-2.7c0-0.97-1.118-2.088-2.459-2.088
		c-1.305,0-2.721,1.118-4.434,3.577h-0.149c-0.075-1.118-0.261-2.944-0.261-2.944c-0.031-0.326-0.336-0.633-0.857-0.633
		c-1.77,0.447-3.727,0.987-6.186,1.23c-0.074,0.223,0,0.931,0.075,1.154c2.03,0.19,2.421,0.521,2.421,2.646v6.967
		c0,3.093-0.408,3.167-2.682,3.354c-0.225,0.223-0.225,1.043,0,1.267c1.564-0.038,3.115-0.075,5.104-0.075
		c1.99,0,3.504,0.037,5.105,0.075c0.223-0.224,0.223-1.044,0-1.267c-2.273-0.149-2.684-0.262-2.684-3.354V274.1z M516.966,276.383
		c0,4.866,3.86,8.086,8.868,8.086c2.627,0,4.84-0.753,6.371-2.123c1.885-1.688,2.533-4.223,2.533-6.298
		c0-4.873-3.334-8.495-8.867-8.495c-3.09,0-5.395,1.066-6.867,2.758C517.592,271.936,516.966,274.182,516.966,276.383
		 M525.275,269.118c2.533,0,4.246,3.018,4.246,8.122c0,4.475-1.75,5.664-3.092,5.664c-3.055,0-4.248-4.584-4.248-7.34
		C522.182,272.136,522.779,269.118,525.275,269.118 M514.32,280.855c0-0.448-0.073-1.156-0.483-1.156
		c-1.491,1.379-2.757,2.087-3.838,2.087c-2.794,0-4.993-2.013-4.993-6.483c0-4.136,0.932-6.185,2.907-6.185
		c1.378,0,1.937,1.452,2.049,2.646c0.112,1.006,1.118,1.752,2.31,1.752c1.192,0,2.049-0.933,2.049-2.088
		c0-1.677-2.012-3.875-6.072-3.875c-4.396,0-8.271,3.54-8.271,9.055c0,2.406,0.864,4.563,2.311,5.924
		c1.464,1.375,3.148,1.938,5.812,1.938C510.334,284.469,512.904,282.904,514.32,280.855 M497.331,280.855
		c0-0.448-0.074-1.156-0.483-1.156c-1.49,1.379-2.758,2.087-3.839,2.087c-2.794,0-4.991-2.013-4.991-6.483
		c0-4.136,0.93-6.185,2.905-6.185c1.378,0,1.937,1.452,2.05,2.646c0.111,1.006,1.117,1.752,2.309,1.752
		c1.193,0,2.05-0.933,2.05-2.088c0-1.677-2.013-3.875-6.073-3.875c-4.396,0-8.271,3.54-8.271,9.055c0,2.406,0.865,4.563,2.311,5.924
		c1.464,1.375,3.148,1.938,5.812,1.938C493.345,284.469,495.915,282.904,497.331,280.855 M473.561,275.975v4.918
		c-0.932,0.744-1.863,1.34-2.533,1.34c-1.603,0-2.161-1.08-2.161-2.234c0-1.383,0.122-2.53,2.757-3.391L473.561,275.975z
		 M473.754,282.289c0.253,1.509,1.259,2.18,2.898,2.18c2.061,0,3.502-0.783,4.882-2.087c-0.082-0.44-0.243-0.737-0.671-1.043
		c-0.484,0.372-0.857,0.522-1.565,0.522c-0.819,0-1.043-0.672-1.043-2.498l0.074-5.364c0-5.365-3.316-6.446-6.371-6.446
		c-2.72,0-6.911,1.551-6.911,4.01c0,1.065,0.45,1.885,1.926,1.885c1.319,0,2.317-0.819,2.317-1.721c0-0.492-0.261-1.119-0.171-1.76
		c0.056-0.412,0.324-0.849,1.572-0.849c1.564,0,2.869,0.671,2.869,5.403l-2.496,0.781c-3.928,1.229-6.67,2.311-6.67,5.254
		c0,2.57,1.416,3.912,4.657,3.912c1.08,0,3.241-1.193,4.472-2.16L473.754,282.289z"/>
	<path clip-path="url(#SVGID_4_)" fill="#231F20" d="M783.14,232.08c0.149,1.844,0.317,3.594,0.635,4.991
		c0.688,0.242,3.085,0.82,5.179,0.82c2.869,0,6.445-1.562,6.445-4.806c0-1.265-0.312-2.281-1.141-3.205
		c-1.076-1.203-2.623-2.123-4.336-2.869c-1.491-0.648-2.012-1.822-2.012-2.906c0-0.857,0.707-1.564,1.788-1.564
		c1.304,0,2.571,1.192,3.501,3.465c0.672,0.111,1.082,0.074,1.454-0.187c0-1.341-0.149-2.757-0.485-3.948
		c-1.191-0.522-2.123-0.896-4.172-0.896c-1.965,0-3.854,0.737-5.031,1.938c-0.855,0.871-1.266,1.899-1.266,2.905
		c0,1.107,0.429,1.997,1.155,2.794c1.154,1.268,3.186,2.583,4.321,3.094c1.491,0.67,1.901,2.012,1.901,2.905
		c0,1.196-1.193,1.826-2.199,1.826c-1.68,0-3.465-1.694-4.247-4.435C784.035,231.893,783.737,231.931,783.14,232.08
		 M770.361,221.349c-0.522,0.004-1.092,0.149-1.565,0.56v1.079c0,0.187,0.038,0.224,0.187,0.224h2.422
		c-0.086,3.752-0.111,8.533-0.111,10.396c0,1.304,0.32,2.56,1.117,3.242c0.839,0.719,2.214,1.043,3.093,1.043
		c2.061,0,4.322-1.043,5.067-2.087c0-0.447-0.224-0.67-0.672-1.043c-0.483,0.373-1.414,0.521-2.122,0.521
		c-0.82,0-1.642-0.634-1.642-2.496c0-1.863-0.037-5.85-0.037-9.576h3.765c0.372,0,0.894-0.148,0.894-0.483v-1.155
		c0-0.148-0.11-0.224-0.298-0.224h-4.36l0.037-1.267c0.076-2.481,0.188-4.211,0.188-4.211c0-0.238-0.112-0.328-0.287-0.328
		c-0.272,0-1.662,0.414-2.247,0.66c-0.633,0.264-1.721,0.48-1.975,0.823c-0.262,0.354-0.41,1.36-0.41,4.318L770.361,221.349z
		 M753.558,232.974v-7.427v-0.066c1.479-1.018,2.995-1.747,3.651-1.747c1.49,0,2.608,0.67,2.608,2.794v6.223
		c0,3.129-0.597,3.465-2.124,3.576c-0.224,0.225-0.224,1.043,0,1.268c1.564-0.037,2.771-0.075,4.546-0.075
		c2.063,0,3.688,0.038,5.291,0.075c0.223-0.225,0.223-1.043,0-1.268c-2.273-0.111-2.869-0.447-2.869-3.576v-5.812
		c0-4.1-1.752-5.962-4.956-5.962c-1.501,0-4.15,1.644-6.203,3.052c-0.086-1.314-0.243-2.418-0.243-2.418
		c-0.032-0.455-0.335-0.634-0.856-0.634c-1.378,0.373-3.614,0.896-6.186,1.229c-0.074,0.225,0,0.969,0.075,1.192
		c2.031,0.19,2.422,0.485,2.422,2.608v6.968c0,3.092-0.41,3.167-2.683,3.353c-0.224,0.225-0.224,1.043,0,1.268
		c1.564-0.037,3.115-0.075,5.104-0.075c1.701,0,2.758,0.038,4.36,0.075c0.224-0.225,0.224-1.043,0-1.268
		C753.93,236.178,753.558,236.065,753.558,232.974 M742.902,232.713c-1.528,1.564-3.54,1.975-4.956,1.975
		c-2.906,0-4.695-1.677-4.695-5.328c0-0.261,0.038-0.41,0.038-0.596h8.941c0.895,0,1.08-0.635,1.08-1.156
		c0-3.167-1.229-6.632-6.705-6.632c-3.912,0-8.385,3.465-8.385,9.166c0,2.18,0.79,4.44,2.386,5.887
		c1.4,1.271,3.237,1.863,5.887,1.863c2.571,0,5.104-1.304,6.967-4.024C743.46,233.383,743.274,232.713,742.902,232.713
		 M733.438,227.272c0.036-1.304,0.237-2.709,0.743-3.465c0.594-0.888,1.593-1.267,2.014-1.267c1.006,0,2.384,0.969,2.384,3.949
		c0,0.223,0,0.708-0.074,0.782H733.438z M701.619,232.974v-7.427c0-0.178-0.004-0.36-0.008-0.543
		c1.449-0.879,2.769-1.271,3.397-1.271c1.491,0,2.608,0.67,2.608,2.794v6.223c0,3.129-0.596,3.465-2.123,3.576
		c-0.225,0.225-0.225,1.043,0,1.268c1.563-0.037,2.757-0.075,4.545-0.075c1.789,0,2.943,0.038,4.546,0.075
		c0.223-0.225,0.223-1.043,0-1.268c-1.491-0.111-2.124-0.447-2.124-3.576v-5.812c0-0.913-0.056-1.658-0.134-2.042
		c1.401-0.729,2.999-1.162,3.599-1.162c1.49,0,2.534,0.67,2.534,2.794v6.223c0,3.129-0.596,3.465-2.124,3.576
		c-0.224,0.225-0.224,1.043,0,1.268c1.565-0.037,2.757-0.075,4.545-0.075c2.05,0,3.689,0.038,5.291,0.075
		c0.225-0.225,0.225-1.043,0-1.268c-2.271-0.111-2.869-0.447-2.869-3.576v-5.812c0-4.1-1.489-5.962-4.693-5.962
		c-1.371,0-4.521,1.479-6.678,2.702c-0.569-1.621-2.06-2.702-4.239-2.702c-1.334,0-4.035,1.401-6.159,2.601
		c-0.089-1.106-0.212-1.967-0.212-1.967c-0.034-0.455-0.336-0.634-0.857-0.634c-1.379,0.373-3.614,0.896-6.185,1.229
		c-0.075,0.225,0,0.969,0.074,1.192c2.03,0.19,2.422,0.485,2.422,2.608v6.968c0,3.092-0.41,3.167-2.684,3.353
		c-0.223,0.225-0.223,1.043,0,1.268c1.565-0.037,3.115-0.075,5.105-0.075c1.699,0,2.757,0.038,4.358,0.075
		c0.225-0.225,0.225-1.043,0-1.268C701.991,236.178,701.619,236.065,701.619,232.974 M691.112,222.838
		c1.043,0,1.639-0.446,1.639-1.824c0-0.708-0.969-1.789-2.384-1.789c-1.641,0-3.801,1.23-4.881,2.199
		c-0.672-0.373-1.453-0.448-3.13-0.448c-1.606,0-3.163,0.392-4.397,1.192c-1.512,0.983-2.533,2.41-2.533,4.322
		c0,1.825,1.08,3.801,2.869,4.788c-1.155,0.987-2.943,2.954-2.943,3.707c0,0.711,0.111,1.155,0.484,1.714
		c0.342,0.514,0.797,0.805,1.527,1.043c-1.603,0.969-3.241,3.092-3.241,3.727c0,1.378,0.427,2.969,1.453,3.688
		c1.441,1.01,3.916,1.23,5.701,1.23c5.178,0,11.103-2.721,11.103-6.818c0-0.798-0.362-2.381-1.863-3.391
		c-1.441-0.969-7.061-1.23-9.799-1.23c-0.671,0-1.677-0.074-1.677-1.564c0-0.596,0.354-1.117,0.54-1.564
		c0.783,0.372,1.584,0.41,2.739,0.41c1.899,0,3.646-0.477,4.918-1.604c1.073-0.949,1.826-2.275,1.826-3.948
		c0-2.087-1.044-3.466-2.311-4.509c0.298-0.373,1.527-1.043,1.9-1.043c0.335,0,0.596,0.224,0.708,0.447
		C689.51,222.057,690.18,222.838,691.112,222.838 M680.232,238.451c2.861,0,8.383,0.104,8.383,2.086c0,1.349-0.6,2.861-1.825,3.555
		c-1.155,0.652-3.044,0.729-4.471,0.729c-2.459,0-4.138-1.825-4.138-3.726c0-1.268,0-2.124,0.411-2.869
		C678.965,238.375,679.45,238.451,680.232,238.451 M684.517,226.789c0,3.576-1.043,4.023-2.012,4.023
		c-2.31,0-2.607-2.757-2.607-4.658c0-2.757,0.671-3.763,2.124-3.763C683.772,222.392,684.517,223.845,684.517,226.789
		 M665.664,229.396v4.918c-0.931,0.745-1.863,1.341-2.533,1.341c-1.603,0-2.161-1.079-2.161-2.235c0-1.381,0.122-2.529,2.757-3.391
		L665.664,229.396z M665.858,235.711c0.253,1.51,1.259,2.181,2.898,2.181c2.061,0,3.502-0.783,4.881-2.087
		c-0.082-0.439-0.243-0.737-0.671-1.043c-0.484,0.373-0.856,0.521-1.564,0.521c-0.82,0-1.043-0.671-1.043-2.496l0.073-5.365
		c0-5.365-3.315-6.446-6.37-6.446c-2.721,0-6.912,1.55-6.912,4.009c0,1.066,0.451,1.887,1.927,1.887c1.319,0,2.317-0.82,2.317-1.723
		c0-0.49-0.262-1.117-0.172-1.758c0.057-0.414,0.324-0.85,1.572-0.85c1.565,0,2.869,0.67,2.869,5.402l-2.496,0.782
		c-3.927,1.229-6.67,2.31-6.67,5.254c0,2.571,1.416,3.912,4.658,3.912c1.08,0,3.241-1.192,4.471-2.161L665.858,235.711z
		 M647.408,227.522c0-1.33,0.409-1.871,0.893-2.448c0.307-0.365,0.635-0.634,1.182-0.634c0.351,0,0.738,0.328,1.055,0.712
		c0.261,0.312,0.895,0.611,1.732,0.611c1.08,0,2.143-1.137,2.143-2.701c0-0.969-1.118-2.087-2.459-2.087
		c-1.304,0-2.72,1.118-4.434,3.577h-0.149c-0.074-1.118-0.26-2.943-0.26-2.943c-0.03-0.328-0.336-0.634-0.857-0.634
		c-1.771,0.448-3.726,0.987-6.185,1.229c-0.075,0.225,0,0.932,0.073,1.155c2.031,0.19,2.423,0.522,2.423,2.646v6.968
		c0,3.092-0.41,3.167-2.684,3.353c-0.223,0.225-0.223,1.043,0,1.268c1.565-0.037,3.115-0.075,5.105-0.075
		c1.988,0,3.502,0.038,5.104,0.075c0.225-0.225,0.225-1.043,0-1.268c-2.272-0.148-2.682-0.261-2.682-3.353V227.522z M632.914,232.75
		v-9.539h3.204c0.671,0,1.305-0.186,1.305-0.633v-0.856c0-0.224-0.038-0.373-0.746-0.373h-3.763v-1.9c0-5.552,1.528-6.37,2.347-6.37
		c0.634,0,0.783,0.558,1.044,1.452c0.335,1.192,1.305,2.123,2.646,2.123c1.229,0,2.124-0.782,2.124-2.384
		c0-1.006-1.156-2.757-5.105-2.757c-1.752,0-3.837,0.633-5.253,2.161c-1.379,1.49-2.645,3.353-2.645,6.93v0.745h-0.075
		c-1.267,0-2.795,0.187-2.795,0.483v1.006c0,0.262,0.15,0.373,1.007,0.373h1.863v9.613c0,3.055-0.598,3.391-2.87,3.502
		c-0.223,0.225-0.223,1.043,0,1.268c1.564-0.037,3.242-0.075,5.291-0.075c2.05,0,3.688,0.038,5.291,0.075
		c0.224-0.225,0.224-1.043,0-1.268C633.51,236.215,632.914,235.879,632.914,232.75 M613.018,222.838c1.043,0,1.64-0.446,1.64-1.824
		c0-0.708-0.968-1.789-2.384-1.789c-1.641,0-3.802,1.23-4.882,2.199c-0.671-0.373-1.452-0.448-3.13-0.448
		c-1.605,0-3.164,0.392-4.396,1.192c-1.513,0.983-2.534,2.41-2.534,4.322c0,1.825,1.081,3.801,2.869,4.788
		c-1.155,0.987-2.943,2.954-2.943,3.707c0,0.711,0.111,1.155,0.484,1.714c0.343,0.514,0.797,0.805,1.527,1.043
		c-1.603,0.969-3.241,3.092-3.241,3.727c0,1.378,0.429,2.969,1.453,3.688c1.441,1.01,3.916,1.23,5.7,1.23
		c5.18,0,11.104-2.721,11.104-6.818c0-0.798-0.362-2.381-1.863-3.391c-1.441-0.969-7.061-1.23-9.799-1.23
		c-0.672,0-1.677-0.074-1.677-1.564c0-0.596,0.354-1.117,0.54-1.564c0.783,0.372,1.584,0.41,2.738,0.41
		c1.9,0,3.648-0.477,4.918-1.604c1.073-0.949,1.826-2.275,1.826-3.948c0-2.087-1.043-3.466-2.31-4.509
		c0.298-0.373,1.526-1.043,1.899-1.043c0.336,0,0.597,0.224,0.707,0.447C611.416,222.057,612.087,222.838,613.018,222.838
		 M602.139,238.451c2.861,0,8.384,0.104,8.384,2.086c0,1.349-0.601,2.861-1.826,3.555c-1.155,0.652-3.044,0.729-4.472,0.729
		c-2.459,0-4.136-1.825-4.136-3.726c0-1.268,0-2.124,0.41-2.869C600.872,238.375,601.356,238.451,602.139,238.451 M606.423,226.789
		c0,3.576-1.043,4.023-2.012,4.023c-2.31,0-2.608-2.757-2.608-4.658c0-2.757,0.671-3.763,2.124-3.763
		C605.678,222.392,606.423,223.845,606.423,226.789 M581.162,232.974v-7.427v-0.066c1.479-1.018,2.995-1.747,3.65-1.747
		c1.492,0,2.608,0.67,2.608,2.794v6.223c0,3.129-0.596,3.465-2.123,3.576c-0.224,0.225-0.224,1.043,0,1.268
		c1.564-0.037,2.772-0.075,4.545-0.075c2.064,0,3.688,0.038,5.29,0.075c0.226-0.225,0.226-1.043,0-1.268
		c-2.271-0.111-2.868-0.447-2.868-3.576v-5.812c0-4.1-1.751-5.962-4.954-5.962c-1.502,0-4.151,1.644-6.205,3.052
		c-0.086-1.314-0.241-2.418-0.241-2.418c-0.034-0.455-0.337-0.634-0.857-0.634c-1.379,0.373-3.614,0.896-6.185,1.229
		c-0.075,0.225,0,0.969,0.074,1.192c2.031,0.19,2.422,0.485,2.422,2.608v6.968c0,3.092-0.41,3.167-2.682,3.353
		c-0.225,0.225-0.225,1.043,0,1.268c1.562-0.037,3.113-0.075,5.104-0.075c1.699,0,2.757,0.038,4.359,0.075
		c0.224-0.225,0.224-1.043,0-1.268C581.534,236.178,581.162,236.065,581.162,232.974 M564.283,215.312
		c0,1.23,0.895,2.459,2.385,2.459c1.678,0,2.646-1.341,2.646-2.311c0-1.117-0.857-2.459-2.422-2.459
		C565.141,213.002,564.283,214.194,564.283,215.312 M569.314,232.974v-7.427c0-1.852,0.148-3.938,0.148-3.938
		c0-0.41-0.335-0.634-0.857-0.634c-1.062,0.41-4.061,0.708-6.631,1.044c-0.076,0.223,0,0.968,0.073,1.191
		c2.031,0.19,2.423,0.484,2.423,2.608v7.154c0,3.092-0.41,3.167-2.683,3.353c-0.224,0.225-0.224,1.043,0,1.268
		c1.563-0.037,3.114-0.075,5.104-0.075c1.988,0,3.502,0.038,5.104,0.075c0.224-0.225,0.224-1.043,0-1.268
		C569.725,236.178,569.314,236.065,569.314,232.974 M549.68,221.349c-0.522,0.004-1.093,0.149-1.565,0.56v1.079
		c0,0.187,0.036,0.224,0.186,0.224h2.423c-0.086,3.752-0.113,8.533-0.113,10.396c0,1.304,0.322,2.56,1.119,3.242
		c0.838,0.719,2.213,1.043,3.093,1.043c2.06,0,4.321-1.043,5.067-2.087c0-0.447-0.225-0.67-0.672-1.043
		c-0.484,0.373-1.416,0.521-2.124,0.521c-0.819,0-1.639-0.634-1.639-2.496c0-1.863-0.037-5.85-0.037-9.576h3.763
		c0.373,0,0.895-0.148,0.895-0.483v-1.155c0-0.148-0.112-0.224-0.299-0.224h-4.358l0.037-1.267c0.075-2.481,0.187-4.211,0.187-4.211
		c0-0.238-0.111-0.328-0.287-0.328c-0.271,0-1.662,0.414-2.246,0.66c-0.635,0.264-1.723,0.48-1.976,0.823
		c-0.261,0.354-0.409,1.36-0.409,4.318L549.68,221.349z M546.064,234.277c0-0.447-0.073-1.154-0.483-1.154
		c-1.491,1.377-2.757,2.086-3.838,2.086c-2.794,0-4.993-2.013-4.993-6.483c0-4.136,0.932-6.185,2.907-6.185
		c1.378,0,1.937,1.453,2.049,2.646c0.112,1.006,1.118,1.751,2.31,1.751c1.192,0,2.049-0.932,2.049-2.087
		c0-1.677-2.012-3.875-6.072-3.875c-4.396,0-8.271,3.54-8.271,9.054c0,2.407,0.864,4.565,2.31,5.924
		c1.465,1.375,3.149,1.938,5.812,1.938C542.078,237.892,544.648,236.326,546.064,234.277 M527.921,232.713
		c-1.528,1.564-3.54,1.975-4.956,1.975c-2.906,0-4.695-1.677-4.695-5.328c0-0.261,0.039-0.41,0.039-0.596h8.941
		c0.895,0,1.08-0.635,1.08-1.156c0-3.167-1.229-6.632-6.706-6.632c-3.912,0-8.384,3.465-8.384,9.166c0,2.18,0.79,4.44,2.385,5.887
		c1.4,1.271,3.238,1.863,5.887,1.863c2.571,0,5.104-1.304,6.967-4.024C528.479,233.383,528.293,232.713,527.921,232.713
		 M518.457,227.272c0.037-1.304,0.238-2.709,0.745-3.465c0.592-0.888,1.591-1.267,2.012-1.267c1.007,0,2.384,0.969,2.384,3.949
		c0,0.223,0,0.708-0.074,0.782H518.457z M503.479,232.787c0,3.092-0.596,3.428-2.869,3.539c-0.223,0.225-0.223,1.043,0,1.268
		c1.565-0.037,3.228-0.075,5.291-0.075c2.064,0,3.688,0.038,5.291,0.075c0.224-0.225,0.224-1.043,0-1.268
		c-2.272-0.111-2.869-0.447-2.869-3.539v-16.99c0-2.422,0.111-3.801,0.111-3.801c0-0.334-0.261-0.483-0.596-0.483
		c-1.378,0.446-4.359,0.856-7.005,0.968c-0.11,0.447-0.073,0.857,0.112,1.193c2.348,0.186,2.533,0.238,2.533,2.793V232.787z
		 M497.592,232.713c-1.527,1.564-3.539,1.975-4.955,1.975c-2.906,0-4.695-1.677-4.695-5.328c0-0.261,0.037-0.41,0.037-0.596h8.942
		c0.896,0,1.081-0.635,1.081-1.156c0-3.167-1.23-6.632-6.707-6.632c-3.912,0-8.383,3.465-8.383,9.166c0,2.18,0.79,4.44,2.385,5.887
		c1.401,1.271,3.237,1.863,5.887,1.863c2.57,0,5.104-1.304,6.967-4.024C498.15,233.383,497.965,232.713,497.592,232.713
		 M488.128,227.272c0.037-1.304,0.239-2.709,0.745-3.465c0.593-0.888,1.591-1.267,2.012-1.267c1.006,0,2.385,0.969,2.385,3.949
		c0,0.223,0,0.708-0.074,0.782H488.128z M478.441,214.008c-2.049-0.297-2.832-1.006-6.297-1.006c-1.691,0-3.887,0.537-5.44,1.789
		c-1.39,1.117-2.421,2.847-2.421,4.657c0,1.427,0.387,3.2,1.229,4.322c1.729,2.306,4.818,3.588,6.409,4.694
		c1.714,1.193,3.39,2.683,3.39,4.77c0,1.833-1.602,3.092-3.875,3.092c-2.496,0-5.066-2.049-5.812-5.439
		c-0.633-0.223-1.267-0.037-1.862,0.111c0,2.795,0.297,4.77,0.707,6.148c2.125,0,2.232,0.745,7.377,0.745
		c2.28,0,4.092-0.656,5.627-2.031c1.322-1.185,2.533-2.901,2.533-5.196c0-1.941-0.838-3.258-1.938-4.472
		c-1.453-1.606-3.539-2.758-4.992-3.503c-1.479-0.76-4.137-2.682-4.137-4.807c0-2.086,1.26-3.353,3.168-3.353
		c3.166,0,4.209,2.869,4.881,5.328c0.521,0.149,1.453,0.149,1.863-0.187C478.852,217.697,478.702,216.17,478.441,214.008"/>
	<polygon clip-path="url(#SVGID_4_)" fill="none" stroke="#231F20" stroke-width="1.998" points="1.909,2.521 1.909,571.562 
		1.909,573.563 3.91,573.563 1167.997,573.563 1169.998,573.563 1169.998,571.562 1169.998,2.521 1169.998,0.519 1167.997,0.519 
		3.91,0.519 1.909,0.519 	"/>
</g>
<rect x="5.911" y="4.522" fill="none" stroke="#231F20" stroke-width="1.998" width="1160.085" height="565.037"/>
<g>
	<defs>
		<rect id="SVGID_53_" x="0.91" y="-0.479" width="1170.088" height="575.043"/>
	</defs>
	<clipPath id="SVGID_6_">
		<use xlink:href="#SVGID_53_"  overflow="visible"/>
	</clipPath>
	<path clip-path="url(#SVGID_6_)" fill="#FF1419" d="M481.979,460.94v16.266l279.188-3.523
		c-14.368,17.892-27.381,41.207-27.381,64.793l0.271,0.542c22.501-30.905,56.117-56.118,92.174-69.402v-0.813
		c-36.6-13.283-68.588-37.953-92.174-69.131l-0.271,0.271c0.542,22.23,11.386,49.883,27.381,64.521L481.979,460.94z"/>
</g>
</svg>
