<?xml version="1.0" encoding="utf-8"?>
<!-- Generator: Adobe Illustrator 16.0.0, SVG Export Plug-In . SVG Version: 6.00 Build 0)  -->
<!DOCTYPE svg PUBLIC "-//W3C//DTD SVG 1.1//EN" "http://www.w3.org/Graphics/SVG/1.1/DTD/svg11.dtd">
<svg version="1.1" id="Layer_1" xmlns="http://www.w3.org/2000/svg" xmlns:xlink="http://www.w3.org/1999/xlink" x="0px" y="0px"
	 width="1170.09px" height="574.889px" viewBox="0 0 1170.09 574.889" enable-background="new 0 0 1170.09 574.889"
	 xml:space="preserve">
<polygon fill="#FF1419" points="493.277,276.299 493.547,292.244 564.353,292.244 564.353,357.103 564.353,357.643 645.427,284.137 
	645.427,283.866 564.353,211.17 564.353,211.439 564.353,276.299 "/>
<line fill="none" stroke="#231F20" stroke-width="1.991" x1="481.188" y1="406.054" x2="1143.135" y2="406.054"/>
<line fill="none" stroke="#231F20" stroke-width="1.991" x1="25.134" y1="156.054" x2="655.729" y2="156.054"/>
<g>
	<defs>
		<rect id="SVGID_45_" x="-0.91" y="-1.248" width="1170.088" height="574.89"/>
	</defs>
	<clipPath id="SVGID_2_">
		<use xlink:href="#SVGID_45_"  overflow="visible"/>
	</clipPath>
	<path clip-path="url(#SVGID_2_)" fill="#FF1419" d="M618.611,68.326h11.88v-3.24c0-2.579-0.495-5.04-1.485-7.38
		s-2.461-4.41-4.41-6.21c-1.951-1.801-4.364-3.225-7.245-4.275c-2.88-1.049-6.181-1.574-9.899-1.574
		c-3.301,0-6.286,0.449-8.955,1.35c-2.671,0.9-4.95,2.16-6.84,3.779c-1.891,1.621-3.361,3.525-4.41,5.716
		c-1.051,2.19-1.575,4.575-1.575,7.155v0.539c0,3.121,0.54,5.76,1.62,7.92s2.594,3.961,4.545,5.4
		c1.949,1.439,4.244,2.596,6.885,3.465c2.64,0.87,5.549,1.575,8.73,2.115c2.398,0.42,4.379,0.932,5.939,1.53
		c1.56,0.6,2.79,1.274,3.69,2.024c0.9,0.752,1.53,1.59,1.89,2.521c0.36,0.931,0.54,1.905,0.54,2.925c0,2.16-0.871,4.02-2.609,5.58
		c-1.741,1.561-4.41,2.34-8.011,2.34c-4.621,0-8.025-1.125-10.215-3.375c-2.19-2.25-3.285-5.265-3.285-9.045v-2.16h-11.88v2.7
		c0,3.3,0.54,6.345,1.62,9.135s2.669,5.22,4.771,7.29c2.099,2.07,4.725,3.69,7.875,4.86c3.149,1.17,6.795,1.755,10.935,1.755
		c3.539,0,6.719-0.45,9.54-1.35c2.819-0.9,5.22-2.19,7.2-3.871c1.979-1.678,3.494-3.703,4.545-6.074
		c1.049-2.37,1.575-5.025,1.575-7.965v-1.08c0-5.52-1.741-9.689-5.221-12.51c-3.48-2.82-8.521-4.83-15.119-6.03
		c-2.642-0.479-4.815-0.99-6.525-1.53s-3.091-1.154-4.14-1.845c-1.052-0.688-1.786-1.47-2.205-2.341
		c-0.421-0.868-0.63-1.844-0.63-2.924c0-2.101,0.868-3.766,2.609-4.996c1.739-1.229,4.109-1.844,7.11-1.844
		c3.539,0,6.284,0.93,8.234,2.789c1.949,1.86,2.926,4.051,2.926,6.57V68.326z M517.451,58.246h16.74v51.66h11.88v-51.66h16.74
		v-11.34h-45.36V58.246z M473.621,46.906h-23.22v63h11.88V52.846h1.62l7.38,57.061h23.22v-63h-11.88v57.06h-1.62L473.621,46.906z
		 M384.611,109.906h40.86v-11.34h-28.98v-14.58h26.82v-11.34h-26.82v-14.4h27.9v-11.34h-39.78V109.906z M311.531,109.906h10.8
		v-42.12l-1.08-14.4h2.16l4.86,56.521h17.82l4.68-56.521h2.16l-1.08,14.4v42.12h10.8v-63h-20.88l-3.6,47.34v9.18h-2.16v-9.18
		l-3.6-47.34h-20.88V109.906z M280.211,46.906v41.22c0,3.722-0.871,6.63-2.61,8.729c-1.741,2.102-4.471,3.15-8.19,3.15
		c-3.721,0-6.451-1.049-8.19-3.15c-1.741-2.1-2.61-5.008-2.61-8.729v-41.22h-11.88v41.22c0,7.2,1.904,12.84,5.715,16.92
		c3.809,4.081,9.464,6.12,16.965,6.12c7.499,0,13.154-2.039,16.965-6.12c3.809-4.08,5.715-9.72,5.715-16.92v-41.22H280.211z
		 M196.556,99.331c-1.471-0.688-2.655-1.665-3.555-2.925s-1.561-2.745-1.98-4.455c-0.421-1.71-0.63-3.585-0.63-5.625v-15.84
		c0-1.859,0.225-3.646,0.675-5.355c0.45-1.71,1.154-3.209,2.115-4.5c0.959-1.29,2.16-2.309,3.6-3.061
		c1.44-0.75,3.15-1.125,5.13-1.125c2.16,0,3.96,0.375,5.4,1.125c1.44,0.752,2.579,1.726,3.42,2.926c0.839,1.201,1.44,2.551,1.8,4.05
		c0.36,1.5,0.54,3.001,0.54,4.5v1.62h11.88v-1.62c0-3.601-0.495-6.84-1.485-9.72c-0.99-2.881-2.461-5.34-4.41-7.381
		c-1.951-2.038-4.365-3.6-7.245-4.68s-6.181-1.619-9.9-1.619c-3.6,0-6.84,0.584-9.72,1.754c-2.88,1.17-5.341,2.851-7.38,5.041
		c-2.041,2.19-3.6,4.891-4.68,8.1c-1.08,3.21-1.62,6.826-1.62,10.845v14.04c0,8.401,2.099,14.791,6.3,19.17
		c4.199,4.381,9.9,6.57,17.1,6.57c7.499,0,13.214-2.025,17.145-6.075c3.929-4.05,5.895-9.823,5.895-17.325v-1.619h-11.88v1.619
		c0,1.62-0.151,3.195-0.45,4.726c-0.301,1.53-0.855,2.88-1.665,4.05s-1.951,2.102-3.42,2.79c-1.471,0.69-3.346,1.035-5.625,1.035
		C199.81,100.366,198.025,100.021,196.556,99.331 M128.651,99.331c-1.44-0.688-2.61-1.665-3.51-2.925s-1.53-2.76-1.89-4.5
		s-0.54-3.659-0.54-5.76v-15.48c0-1.98,0.209-3.839,0.63-5.58c0.419-1.74,1.08-3.24,1.98-4.5c0.9-1.26,2.07-2.264,3.51-3.016
		c1.44-0.75,3.179-1.125,5.22-1.125c2.039,0,3.78,0.375,5.22,1.125c1.44,0.752,2.61,1.756,3.51,3.016c0.9,1.26,1.559,2.76,1.98,4.5
		c0.419,1.741,0.63,3.6,0.63,5.58v15.48c0,2.101-0.18,4.02-0.54,5.76s-0.99,3.24-1.89,4.5s-2.07,2.236-3.51,2.925
		c-1.44,0.69-3.24,1.035-5.4,1.035C131.891,100.366,130.091,100.021,128.651,99.331 M110.831,85.426
		c0,8.401,2.054,14.791,6.165,19.17c4.109,4.381,9.794,6.57,17.055,6.57c7.259,0,12.944-2.189,17.055-6.57
		c4.109-4.379,6.165-10.769,6.165-19.17v-14.04c0-8.159-2.056-14.489-6.165-18.989c-4.111-4.5-9.796-6.75-17.055-6.75
		c-7.261,0-12.946,2.25-17.055,6.75c-4.111,4.5-6.165,10.83-6.165,18.989V85.426z M60.791,98.566v-40.32h5.04
		c4.14,0,7.034,0.931,8.685,2.79c1.65,1.86,2.475,4.59,2.475,8.19v17.279c0,4.141-0.825,7.186-2.475,9.135
		c-1.651,1.95-4.545,2.926-8.685,2.926H60.791z M42.971,58.246h5.94v40.23h-5.94v11.43h22.86c7.799,0,13.59-1.814,17.37-5.445
		c3.78-3.63,5.67-9.255,5.67-16.875V69.227c0-7.619-1.89-13.244-5.67-16.875c-3.78-3.631-9.571-5.445-17.37-5.445h-22.86V58.246z"/>
	<path clip-path="url(#SVGID_2_)" fill="#231F20" d="M1061.101,527.867c3.071,0,5.415-0.603,7.031-1.808
		c1.614-1.204,2.423-2.773,2.423-4.708c0-1.721-0.643-3.078-1.926-4.071c-1.285-0.993-3.385-1.741-6.297-2.244
		c-1.352-0.265-2.299-0.537-2.841-0.815c-0.543-0.277-0.814-0.614-0.814-1.013c0-0.423,0.265-0.78,0.795-1.072
		c0.529-0.291,1.271-0.437,2.225-0.437c1.218,0,2.265,0.212,3.139,0.635c0.874,0.424,1.628,1.1,2.264,2.026l3.496-3.416
		c-0.901-1.245-2.073-2.179-3.517-2.802c-1.442-0.621-3.304-0.933-5.58-0.933c-2.066,0-3.821,0.312-5.265,0.933
		c-1.442,0.623-2.521,1.438-3.237,2.443c-0.715,1.007-1.072,2.08-1.072,3.218c0,1.669,0.629,3.006,1.887,4.014
		c1.258,1.006,3.37,1.801,6.336,2.383c1.324,0.265,2.258,0.536,2.801,0.813c0.542,0.278,0.814,0.604,0.814,0.975
		c0,0.424-0.266,0.761-0.794,1.013c-0.53,0.252-1.258,0.377-2.186,0.377c-2.78,0-4.74-0.939-5.88-2.82l-3.495,3.813
		C1053.313,526.702,1056.545,527.867,1061.101,527.867 M1037.544,511.937c2.118,0,3.337,1.299,3.654,3.894h-7.469
		C1034.128,513.235,1035.398,511.937,1037.544,511.937 M1047.515,517.26c0-3.178-0.854-5.646-2.562-7.408
		c-1.709-1.761-4.166-2.642-7.369-2.642c-3.312,0-5.867,0.9-7.667,2.701c-1.803,1.801-2.702,4.344-2.702,7.627
		c0,3.285,0.92,5.827,2.761,7.628s4.496,2.701,7.965,2.701c2.33,0,4.297-0.443,5.899-1.331c1.602-0.887,2.682-2.178,3.238-3.873
		l-5.482-1.748c-0.212,0.715-0.629,1.258-1.251,1.629c-0.623,0.371-1.424,0.556-2.404,0.556c-1.165,0-2.099-0.291-2.8-0.874
		c-0.702-0.582-1.159-1.495-1.371-2.74h13.547C1047.448,518.903,1047.515,518.161,1047.515,517.26 M1013.391,507.21
		c-3.284,0-5.846,0.907-7.688,2.721c-1.841,1.814-2.761,4.351-2.761,7.607c0,3.285,0.927,5.827,2.781,7.628
		c1.853,1.801,4.502,2.701,7.945,2.701c2.675,0,4.827-0.562,6.455-1.688c1.629-1.126,2.589-2.589,2.881-4.39l-6.078-1.946
		c-0.318,2.146-1.417,3.217-3.298,3.217c-2.621,0-3.933-1.812-3.933-5.441c0-3.734,1.312-5.602,3.933-5.602
		c1.773,0,2.794,1.14,3.059,3.416l6.277-2.065c-0.371-1.827-1.312-3.311-2.821-4.449
		C1018.635,507.78,1016.384,507.21,1013.391,507.21 M997.738,507.21c-1.509,0-2.773,0.404-3.793,1.211
		c-1.02,0.81-1.768,1.967-2.245,3.477l-0.277-4.29h-5.959v19.862h6.754v-10.011c0-1.51,0.423-2.668,1.271-3.476
		c0.848-0.809,1.907-1.212,3.179-1.212c0.503,0,0.979,0.06,1.43,0.179c0.45,0.119,0.807,0.258,1.072,0.417l0.716-5.72
		C999.354,507.356,998.639,507.21,997.738,507.21 M972.275,507.607v10.526c0,1.537-0.332,2.683-0.994,3.438
		c-0.662,0.754-1.549,1.132-2.66,1.132c-0.928,0-1.616-0.265-2.066-0.795c-0.451-0.529-0.675-1.443-0.675-2.741v-11.56h-6.754
		v13.268c0,2.411,0.603,4.178,1.808,5.304s2.866,1.688,4.986,1.688c3.336,0,5.627-1.364,6.872-4.092l0.198,3.694h6.038v-19.862
		H972.275z M943.275,512.017c1.272,0,2.211,0.438,2.821,1.312c0.609,0.873,0.914,2.278,0.914,4.21c0,1.934-0.305,3.337-0.914,4.211
		c-0.61,0.874-1.549,1.311-2.821,1.311c-1.271,0-2.211-0.437-2.819-1.311c-0.61-0.874-0.914-2.277-0.914-4.211
		c0-1.932,0.304-3.337,0.914-4.21C941.064,512.454,942.005,512.017,943.275,512.017 M943.275,507.21
		c-3.31,0-5.886,0.907-7.726,2.721c-1.841,1.814-2.761,4.351-2.761,7.607c0,3.258,0.92,5.794,2.761,7.608
		c1.84,1.813,4.416,2.721,7.726,2.721c3.312,0,5.887-0.907,7.728-2.721c1.84-1.814,2.761-4.351,2.761-7.608
		c0-3.257-0.921-5.793-2.761-7.607C949.162,508.117,946.587,507.21,943.275,507.21 M919.321,527.867
		c3.072,0,5.416-0.603,7.031-1.808c1.616-1.204,2.424-2.773,2.424-4.708c0-1.721-0.643-3.078-1.927-4.071
		c-1.285-0.993-3.383-1.741-6.296-2.244c-1.351-0.265-2.298-0.537-2.841-0.815c-0.543-0.277-0.814-0.614-0.814-1.013
		c0-0.423,0.265-0.78,0.794-1.072c0.53-0.291,1.272-0.437,2.226-0.437c1.218,0,2.264,0.212,3.138,0.635
		c0.874,0.424,1.629,1.1,2.265,2.026l3.496-3.416c-0.9-1.245-2.072-2.179-3.516-2.802c-1.444-0.621-3.304-0.933-5.582-0.933
		c-2.065,0-3.82,0.312-5.263,0.933c-1.444,0.623-2.523,1.438-3.238,2.443c-0.715,1.007-1.072,2.08-1.072,3.218
		c0,1.669,0.628,3.006,1.887,4.014c1.258,1.006,3.369,1.801,6.337,2.383c1.323,0.265,2.257,0.536,2.8,0.813
		c0.543,0.278,0.814,0.604,0.814,0.975c0,0.424-0.265,0.761-0.795,1.013s-1.258,0.377-2.185,0.377c-2.781,0-4.741-0.939-5.879-2.82
		l-3.496,3.813C911.535,526.702,914.767,527.867,919.321,527.867 M893.023,522.186c-0.82,0.583-1.774,0.874-2.859,0.874
		c-1.748,0-2.622-0.887-2.622-2.66v-7.985h5.959v-4.807h-5.959v-6.316l-6.753,1.867v4.449h-3.417v4.807h3.417v9.097
		c0.025,2.226,0.66,3.84,1.906,4.847c1.244,1.007,3.045,1.51,5.402,1.51c1.033,0,2.059-0.14,3.079-0.417
		c1.019-0.278,1.86-0.643,2.521-1.093L893.023,522.186z M866.091,507.607v10.526c0,1.537-0.332,2.683-0.994,3.438
		c-0.662,0.754-1.549,1.132-2.661,1.132c-0.927,0-1.616-0.265-2.066-0.795c-0.45-0.529-0.675-1.443-0.675-2.741v-11.56h-6.754
		v13.268c0,2.411,0.604,4.178,1.809,5.304c1.204,1.126,2.865,1.688,4.984,1.688c3.337,0,5.628-1.364,6.873-4.092l0.199,3.694h6.038
		v-19.862H866.091z M837.091,512.017c1.271,0,2.211,0.438,2.821,1.312c0.608,0.873,0.913,2.278,0.913,4.21
		c0,1.934-0.305,3.337-0.913,4.211c-0.61,0.874-1.55,1.311-2.821,1.311s-2.211-0.437-2.82-1.311
		c-0.61-0.874-0.914-2.277-0.914-4.211c0-1.932,0.304-3.337,0.914-4.21C834.88,512.454,835.819,512.017,837.091,512.017
		 M837.091,507.21c-3.312,0-5.886,0.907-7.727,2.721c-1.841,1.814-2.761,4.351-2.761,7.607c0,3.258,0.92,5.794,2.761,7.608
		c1.841,1.813,4.415,2.721,7.727,2.721c3.311,0,5.886-0.907,7.727-2.721c1.84-1.814,2.761-4.351,2.761-7.608
		c0-3.257-0.921-5.793-2.761-7.607C842.977,508.117,840.401,507.21,837.091,507.21 M811.429,522.901
		c-1.139,0-2.033-0.438-2.681-1.312c-0.65-0.874-0.975-2.158-0.975-3.853v-0.397c0-1.642,0.318-2.913,0.954-3.813
		c0.635-0.9,1.535-1.352,2.701-1.352c1.192,0,2.112,0.438,2.761,1.312c0.649,0.874,0.974,2.225,0.974,4.052
		c0,1.828-0.324,3.178-0.974,4.052C813.541,522.464,812.621,522.901,811.429,522.901 M813.772,507.21
		c-1.403,0-2.616,0.331-3.635,0.993c-1.021,0.662-1.807,1.576-2.364,2.741v-11.76h-6.753v28.285h5.919l0.199-4.211
		c0.556,1.404,1.41,2.522,2.562,3.357c1.152,0.834,2.51,1.251,4.072,1.251c2.595,0,4.608-0.9,6.038-2.701s2.146-4.317,2.146-7.548
		c0-3.284-0.729-5.84-2.186-7.667C818.314,508.124,816.314,507.21,813.772,507.21 M783.819,523.497c-0.608,0-1.086-0.146-1.43-0.438
		c-0.344-0.291-0.516-0.715-0.516-1.271s0.178-0.986,0.536-1.291c0.356-0.304,0.959-0.562,1.807-0.775l3.218-0.754v1.708
		c0,0.849-0.371,1.529-1.112,2.046S784.747,523.497,783.819,523.497 M795.539,523.616c-0.953,0-1.431-0.517-1.431-1.549v-7.23
		c0-2.542-0.808-4.449-2.423-5.72c-1.616-1.272-3.973-1.907-7.071-1.907c-2.648,0-4.754,0.536-6.316,1.609
		c-1.563,1.071-2.517,2.575-2.86,4.509l5.482,1.589c0.185-1.086,0.596-1.868,1.231-2.344c0.636-0.478,1.456-0.715,2.463-0.715
		c0.874,0,1.562,0.265,2.065,0.794s0.755,1.245,0.755,2.145v0.715l-4.489,0.874c-2.754,0.558-4.733,1.358-5.938,2.404
		s-1.808,2.417-1.808,4.111c0,1.615,0.529,2.848,1.59,3.694c1.059,0.849,2.582,1.271,4.567,1.271c3.522,0,5.88-1.02,7.071-3.06
		c0.556,2.04,2.265,3.06,5.125,3.06c1.033,0,1.933-0.212,2.701-0.636l0.517-3.773C796.453,523.564,796.042,523.616,795.539,523.616
		 M750.213,507.21c-1.563,0-2.928,0.351-4.092,1.053c-1.166,0.702-2.066,1.754-2.701,3.158l-0.199-3.813h-6.038v19.862h6.753
		v-10.487c0-1.562,0.331-2.722,0.993-3.477c0.662-0.754,1.522-1.132,2.583-1.132c0.9,0,1.595,0.285,2.085,0.854
		c0.49,0.57,0.735,1.53,0.735,2.881v11.361h6.753v-13.229c0-2.25-0.622-3.985-1.867-5.204
		C753.973,507.819,752.305,507.21,750.213,507.21 M721.214,512.017c1.271,0,2.211,0.438,2.819,1.312
		c0.609,0.873,0.914,2.278,0.914,4.21c0,1.934-0.305,3.337-0.914,4.211c-0.608,0.874-1.549,1.311-2.819,1.311
		c-1.271,0-2.212-0.437-2.821-1.311s-0.913-2.277-0.913-4.211c0-1.932,0.304-3.337,0.913-4.21
		C719.002,512.454,719.942,512.017,721.214,512.017 M721.214,507.21c-3.312,0-5.886,0.907-7.728,2.721
		c-1.841,1.814-2.761,4.351-2.761,7.607c0,3.258,0.92,5.794,2.761,7.608c1.842,1.813,4.416,2.721,7.728,2.721
		c3.31,0,5.885-0.907,7.726-2.721c1.841-1.814,2.761-4.351,2.761-7.608c0-3.257-0.92-5.793-2.761-7.607
		C727.099,508.117,724.523,507.21,721.214,507.21 M705.283,507.607h-6.753v19.862h6.753V507.607z M701.907,505.303
		c1.377,0,2.376-0.258,2.999-0.774c0.622-0.517,0.935-1.33,0.935-2.443c0-1.138-0.312-1.966-0.935-2.483
		c-0.623-0.516-1.622-0.773-2.999-0.773c-1.378,0-2.378,0.258-2.999,0.773c-0.623,0.518-0.934,1.346-0.934,2.483
		c0,1.113,0.311,1.927,0.934,2.443C699.529,505.045,700.529,505.303,701.907,505.303 M693.406,522.186
		c-0.821,0.583-1.774,0.874-2.86,0.874c-1.747,0-2.621-0.887-2.621-2.66v-7.985h5.958v-4.807h-5.958v-6.316l-6.754,1.867v4.449
		h-3.416v4.807h3.416v9.097c0.025,2.226,0.662,3.84,1.907,4.847c1.244,1.007,3.045,1.51,5.402,1.51c1.033,0,2.06-0.14,3.078-0.417
		c1.02-0.278,1.861-0.643,2.523-1.093L693.406,522.186z M663.255,523.497c-0.61,0-1.086-0.146-1.431-0.438
		c-0.345-0.291-0.517-0.715-0.517-1.271s0.179-0.986,0.537-1.291c0.356-0.304,0.959-0.562,1.807-0.775l3.218-0.754v1.708
		c0,0.849-0.37,1.529-1.111,2.046C665.016,523.239,664.182,523.497,663.255,523.497 M674.974,523.616
		c-0.954,0-1.43-0.517-1.43-1.549v-7.23c0-2.542-0.809-4.449-2.423-5.72c-1.616-1.272-3.974-1.907-7.072-1.907
		c-2.648,0-4.754,0.536-6.316,1.609c-1.562,1.071-2.516,2.575-2.859,4.509l5.481,1.589c0.186-1.086,0.596-1.868,1.231-2.344
		c0.636-0.478,1.457-0.715,2.463-0.715c0.874,0,1.562,0.265,2.065,0.794s0.755,1.245,0.755,2.145v0.715l-4.488,0.874
		c-2.755,0.558-4.734,1.358-5.939,2.404s-1.807,2.417-1.807,4.111c0,1.615,0.529,2.848,1.588,3.694
		c1.059,0.849,2.583,1.271,4.569,1.271c3.521,0,5.879-1.02,7.07-3.06c0.557,2.04,2.265,3.06,5.125,3.06
		c1.032,0,1.934-0.212,2.701-0.636l0.517-3.773C675.888,523.564,675.477,523.616,674.974,523.616 M642.677,507.21
		c-1.456,0-2.774,0.344-3.952,1.033c-1.179,0.688-2.086,1.682-2.721,2.979c-0.478-1.297-1.266-2.29-2.364-2.979
		c-1.099-0.689-2.404-1.033-3.913-1.033c-1.536,0-2.874,0.357-4.012,1.072c-1.14,0.715-2.026,1.762-2.662,3.139l-0.199-3.813h-6.038
		v19.862h6.753v-10.487c0-1.535,0.331-2.688,0.994-3.456c0.661-0.769,1.495-1.152,2.502-1.152c1.801,0,2.702,1.139,2.702,3.417
		v11.679h6.753v-10.606c0-1.456,0.318-2.568,0.953-3.337c0.636-0.769,1.483-1.152,2.543-1.152c1.8,0,2.701,1.139,2.701,3.417v11.679
		h6.753v-13.229c0-2.25-0.629-3.985-1.887-5.204C646.324,507.819,644.689,507.21,642.677,507.21 M610.421,507.21
		c-1.511,0-2.775,0.404-3.794,1.211c-1.021,0.81-1.769,1.967-2.245,3.477l-0.278-4.29h-5.959v19.862h6.754v-10.011
		c0-1.51,0.423-2.668,1.271-3.476c0.847-0.809,1.906-1.212,3.178-1.212c0.503,0,0.979,0.06,1.43,0.179
		c0.45,0.119,0.809,0.258,1.073,0.417l0.715-5.72C612.035,507.356,611.32,507.21,610.421,507.21 M582.176,512.017
		c1.271,0,2.211,0.438,2.821,1.312c0.609,0.873,0.913,2.278,0.913,4.21c0,1.934-0.304,3.337-0.913,4.211
		c-0.61,0.874-1.55,1.311-2.821,1.311c-1.271,0-2.211-0.437-2.82-1.311c-0.61-0.874-0.914-2.277-0.914-4.211
		c0-1.932,0.304-3.337,0.914-4.21C579.965,512.454,580.904,512.017,582.176,512.017 M582.176,507.21
		c-3.311,0-5.886,0.907-7.726,2.721c-1.841,1.814-2.761,4.351-2.761,7.607c0,3.258,0.92,5.794,2.761,7.608
		c1.84,1.813,4.415,2.721,7.726,2.721c3.31,0,5.886-0.907,7.727-2.721c1.84-1.814,2.762-4.351,2.762-7.608
		c0-3.257-0.922-5.793-2.762-7.607C588.062,508.117,585.485,507.21,582.176,507.21 M562.512,506.217c0-1.907,1.099-2.86,3.298-2.86
		c0.926,0,1.681,0.213,2.264,0.636l0.675-4.211c-0.98-0.769-2.502-1.152-4.568-1.152c-2.384,0-4.317,0.596-5.8,1.788
		c-1.484,1.192-2.225,2.979-2.225,5.363v1.827h-3.178v4.807h3.178v15.056h6.754v-15.056h5.641v-4.807h-6.039V506.217z
		 M541.735,507.21c-1.562,0-2.927,0.351-4.092,1.053c-1.166,0.702-2.066,1.754-2.701,3.158l-0.199-3.813h-6.038v19.862h6.753
		v-10.487c0-1.562,0.331-2.722,0.993-3.477c0.662-0.754,1.523-1.132,2.582-1.132c0.9,0,1.596,0.285,2.086,0.854
		c0.49,0.57,0.735,1.53,0.735,2.881v11.361h6.753v-13.229c0-2.25-0.622-3.985-1.867-5.204
		C545.496,507.819,543.828,507.21,541.735,507.21 M522.311,507.607h-6.753v19.862h6.753V507.607z M518.934,505.303
		c1.377,0,2.377-0.258,2.999-0.774s0.934-1.33,0.934-2.443c0-1.138-0.312-1.966-0.934-2.483c-0.622-0.516-1.622-0.773-2.999-0.773
		s-2.377,0.258-2.999,0.773c-0.623,0.518-0.934,1.346-0.934,2.483c0,1.113,0.311,1.927,0.934,2.443
		C516.557,505.045,517.557,505.303,518.934,505.303"/>
	<path clip-path="url(#SVGID_2_)" fill="#231F20" d="M1084.26,469.552c-1.192,0-2.112-0.437-2.762-1.311
		c-0.648-0.874-0.973-2.226-0.973-4.052c0-1.827,0.324-3.179,0.973-4.053c0.649-0.874,1.569-1.311,2.762-1.311
		c1.086,0,1.953,0.396,2.602,1.191c0.648,0.794,1.013,1.921,1.092,3.377v1.59c-0.079,1.482-0.443,2.614-1.092,3.396
		C1086.213,469.162,1085.346,469.552,1084.26,469.552 M1087.953,445.836v11.759c-0.583-1.165-1.377-2.079-2.383-2.74
		c-1.007-0.662-2.212-0.993-3.615-0.993c-2.568,0-4.582,0.913-6.037,2.74c-1.457,1.827-2.187,4.384-2.187,7.667
		c0,3.231,0.722,5.747,2.166,7.548c1.443,1.802,3.449,2.701,6.018,2.701c1.483,0,2.787-0.37,3.913-1.112
		c1.125-0.741,1.979-1.762,2.562-3.059l0.238,3.773h6.078v-28.284H1087.953z M1061.377,453.861c-1.562,0-2.926,0.351-4.092,1.052
		c-1.165,0.702-2.064,1.755-2.701,3.158l-0.197-3.813h-6.039v19.862h6.754v-10.487c0-1.562,0.33-2.721,0.993-3.476
		c0.661-0.755,1.521-1.132,2.582-1.132c0.899,0,1.595,0.284,2.086,0.854c0.489,0.57,0.733,1.529,0.733,2.88v11.361h6.754v-13.229
		c0-2.251-0.623-3.985-1.866-5.203C1065.138,454.47,1063.47,453.861,1061.377,453.861 M1031.146,470.148
		c-0.609,0-1.086-0.146-1.43-0.438c-0.345-0.291-0.517-0.715-0.517-1.271c0-0.557,0.179-0.987,0.536-1.291
		c0.358-0.305,0.96-0.563,1.809-0.775l3.218-0.755v1.708c0,0.848-0.372,1.53-1.113,2.046
		C1032.907,469.89,1032.073,470.148,1031.146,470.148 M1042.866,470.267c-0.954,0-1.431-0.516-1.431-1.549v-7.229
		c0-2.543-0.809-4.449-2.423-5.722c-1.616-1.271-3.973-1.905-7.071-1.905c-2.649,0-4.754,0.536-6.316,1.607
		c-1.562,1.073-2.517,2.576-2.86,4.509l5.481,1.59c0.186-1.085,0.597-1.867,1.232-2.345c0.636-0.476,1.456-0.715,2.463-0.715
		c0.874,0,1.562,0.266,2.066,0.795c0.502,0.53,0.755,1.245,0.755,2.146v0.715l-4.49,0.874c-2.754,0.556-4.734,1.357-5.938,2.403
		c-1.205,1.047-1.808,2.418-1.808,4.111c0,1.616,0.529,2.848,1.589,3.695c1.06,0.847,2.582,1.271,4.568,1.271
		c3.521,0,5.88-1.019,7.072-3.059c0.556,2.04,2.264,3.059,5.123,3.059c1.033,0,1.934-0.213,2.701-0.636l0.518-3.773
		C1043.779,470.214,1043.368,470.267,1042.866,470.267 M996.189,474.518c3.072,0,5.415-0.602,7.031-1.808
		c1.615-1.205,2.423-2.774,2.423-4.707c0-1.721-0.642-3.079-1.926-4.072c-1.285-0.992-3.385-1.74-6.298-2.245
		c-1.351-0.264-2.298-0.535-2.84-0.813c-0.543-0.278-0.814-0.616-0.814-1.013c0-0.424,0.265-0.781,0.795-1.073
		c0.529-0.291,1.271-0.438,2.225-0.438c1.217,0,2.265,0.213,3.139,0.637s1.629,1.099,2.264,2.025l3.496-3.416
		c-0.901-1.245-2.072-2.178-3.517-2.801c-1.442-0.622-3.304-0.933-5.581-0.933c-2.065,0-3.82,0.311-5.264,0.933
		c-1.442,0.623-2.521,1.438-3.236,2.443c-0.716,1.007-1.073,2.08-1.073,3.218c0,1.668,0.629,3.006,1.887,4.012
		c1.258,1.007,3.37,1.802,6.336,2.384c1.324,0.266,2.258,0.536,2.801,0.814c0.542,0.278,0.814,0.603,0.814,0.973
		c0,0.424-0.265,0.763-0.794,1.014c-0.53,0.252-1.258,0.378-2.186,0.378c-2.78,0-4.74-0.94-5.88-2.821l-3.495,3.814
		C988.402,473.353,991.634,474.518,996.189,474.518 M982.842,468.837c-0.821,0.583-1.775,0.874-2.86,0.874
		c-1.748,0-2.622-0.887-2.622-2.662v-7.983h5.959v-4.808h-5.959v-6.316l-6.753,1.867v4.449h-3.417v4.808h3.417v9.097
		c0.026,2.224,0.661,3.84,1.906,4.846c1.245,1.007,3.046,1.51,5.402,1.51c1.033,0,2.06-0.139,3.079-0.417
		c1.02-0.277,1.86-0.642,2.522-1.093L982.842,468.837z M956.026,453.861c-1.562,0-2.926,0.351-4.092,1.052
		c-1.165,0.702-2.065,1.755-2.701,3.158l-0.198-3.813h-6.039v19.862h6.754v-10.487c0-1.562,0.33-2.721,0.993-3.476
		c0.661-0.755,1.522-1.132,2.582-1.132c0.9,0,1.595,0.284,2.085,0.854c0.49,0.57,0.735,1.529,0.735,2.88v11.361h6.754v-13.229
		c0-2.251-0.623-3.985-1.867-5.203C959.786,454.47,958.118,453.861,956.026,453.861 M927.663,458.588
		c2.118,0,3.337,1.298,3.655,3.894h-7.469C924.246,459.886,925.519,458.588,927.663,458.588 M937.635,463.911
		c0-3.178-0.854-5.647-2.562-7.409c-1.709-1.761-4.165-2.641-7.369-2.641c-3.311,0-5.867,0.899-7.667,2.7
		c-1.802,1.802-2.702,4.345-2.702,7.628s0.921,5.826,2.762,7.627c1.841,1.802,4.495,2.701,7.965,2.701
		c2.33,0,4.297-0.442,5.898-1.331c1.603-0.887,2.683-2.178,3.238-3.872l-5.481-1.748c-0.212,0.715-0.63,1.258-1.251,1.629
		c-0.623,0.371-1.425,0.556-2.404,0.556c-1.166,0-2.1-0.291-2.801-0.874c-0.702-0.583-1.158-1.496-1.37-2.741h13.546
		C937.568,465.553,937.635,464.812,937.635,463.911 M905.179,453.861c-1.456,0-2.774,0.344-3.952,1.031
		c-1.179,0.689-2.086,1.683-2.721,2.98c-0.478-1.298-1.266-2.291-2.364-2.98c-1.1-0.688-2.403-1.031-3.913-1.031
		c-1.536,0-2.874,0.356-4.012,1.071c-1.14,0.716-2.026,1.763-2.662,3.139l-0.198-3.813h-6.039v19.862h6.754v-10.487
		c0-1.536,0.33-2.688,0.993-3.456c0.661-0.768,1.496-1.151,2.502-1.151c1.801,0,2.702,1.139,2.702,3.416v11.679h6.753v-10.606
		c0-1.456,0.318-2.568,0.954-3.337c0.635-0.768,1.481-1.151,2.542-1.151c1.801,0,2.701,1.139,2.701,3.416v11.679h6.754v-13.229
		c0-2.251-0.63-3.985-1.887-5.203C908.826,454.47,907.191,453.861,905.179,453.861 M864.382,478.292
		c-3.683,0-5.522-0.61-5.522-1.828c0-0.476,0.231-0.828,0.695-1.052c0.463-0.227,1.237-0.338,2.324-0.338h5.441
		c0.874,0,1.496,0.104,1.868,0.317c0.37,0.211,0.556,0.529,0.556,0.953c0,0.582-0.457,1.054-1.371,1.41
		C867.461,478.113,866.13,478.292,864.382,478.292 M864.063,457.714c0.874,0,1.582,0.266,2.125,0.794
		c0.543,0.53,0.815,1.232,0.815,2.106s-0.272,1.568-0.815,2.085s-1.251,0.774-2.125,0.774s-1.583-0.258-2.125-0.774
		c-0.543-0.517-0.815-1.211-0.815-2.085s0.272-1.576,0.815-2.106C862.48,457.979,863.189,457.714,864.063,457.714 M867.838,469.711
		h-6.754c-1.378,0-2.065-0.45-2.065-1.351c0-0.716,0.41-1.179,1.23-1.391c1.113,0.238,2.385,0.357,3.814,0.357
		c3.072,0,5.455-0.582,7.151-1.747c1.693-1.166,2.542-2.821,2.542-4.966c0-2.489-1.112-4.317-3.337-5.482
		c0.264-0.556,0.694-0.993,1.291-1.311c0.596-0.318,1.344-0.478,2.244-0.478c0.211,0,0.582,0.027,1.112,0.08l-0.755-4.489
		l-0.636-0.04c-1.643,0-2.927,0.504-3.854,1.51c-0.927,1.007-1.522,2.304-1.788,3.893c-1.218-0.291-2.542-0.436-3.972-0.436
		c-3.073,0-5.456,0.589-7.151,1.767c-1.694,1.179-2.542,2.841-2.542,4.986c0,2.463,1.086,4.276,3.257,5.441
		c-1.006,0.346-1.801,0.874-2.383,1.589c-0.583,0.716-0.874,1.536-0.874,2.464c0,1.881,1.02,3.258,3.06,4.132
		c-1.245,0.291-2.172,0.767-2.781,1.43c-0.61,0.661-0.914,1.43-0.914,2.304c0,1.483,0.828,2.636,2.483,3.456
		c1.654,0.821,4.217,1.231,7.687,1.231c3.442,0,6.164-0.603,8.164-1.807c1.999-1.205,2.999-2.935,2.999-5.185
		c0-1.96-0.63-3.443-1.887-4.449C871.923,470.214,870.142,469.711,867.838,469.711 M837.846,470.148
		c-0.61,0-1.086-0.146-1.431-0.438c-0.345-0.291-0.517-0.715-0.517-1.271c0-0.557,0.179-0.987,0.537-1.291
		c0.356-0.305,0.959-0.563,1.807-0.775l3.219-0.755v1.708c0,0.848-0.371,1.53-1.113,2.046
		C839.606,469.89,838.772,470.148,837.846,470.148 M849.564,470.267c-0.954,0-1.43-0.516-1.43-1.549v-7.229
		c0-2.543-0.81-4.449-2.424-5.722c-1.615-1.271-3.973-1.905-7.071-1.905c-2.648,0-4.754,0.536-6.316,1.607
		c-1.562,1.073-2.516,2.576-2.859,4.509l5.481,1.59c0.186-1.085,0.596-1.867,1.231-2.345c0.636-0.476,1.456-0.715,2.463-0.715
		c0.874,0,1.562,0.266,2.065,0.795c0.503,0.53,0.756,1.245,0.756,2.146v0.715l-4.489,0.874c-2.755,0.556-4.734,1.357-5.939,2.403
		c-1.206,1.047-1.808,2.418-1.808,4.111c0,1.616,0.53,2.848,1.589,3.695c1.059,0.847,2.583,1.271,4.569,1.271
		c3.521,0,5.879-1.019,7.07-3.059c0.557,2.04,2.265,3.059,5.125,3.059c1.032,0,1.933-0.213,2.701-0.636l0.516-3.773
		C850.478,470.214,850.067,470.267,849.564,470.267 M824.22,453.861c-1.509,0-2.774,0.403-3.794,1.211s-1.768,1.967-2.244,3.476
		l-0.278-4.29h-5.959v19.862h6.753v-10.01c0-1.511,0.424-2.668,1.272-3.477c0.847-0.808,1.905-1.212,3.178-1.212
		c0.502,0,0.979,0.061,1.43,0.179c0.45,0.119,0.808,0.259,1.072,0.417l0.715-5.721C825.834,454.006,825.119,453.861,824.22,453.861
		 M801.576,452.867c0-1.906,1.1-2.86,3.297-2.86c0.928,0,1.683,0.212,2.266,0.636l0.675-4.211c-0.98-0.768-2.503-1.151-4.569-1.151
		c-2.383,0-4.316,0.596-5.799,1.787c-1.484,1.191-2.225,2.979-2.225,5.362v1.828h-3.179v4.808h3.179v15.055h6.753v-15.055h5.641
		v-4.808h-6.038V452.867z M773.888,445.836h-6.753v22.405c0,2.199,0.477,3.794,1.43,4.787s2.489,1.489,4.608,1.489
		c0.74,0,1.495-0.093,2.265-0.277c0.767-0.186,1.39-0.424,1.867-0.715l0.437-4.173c-0.715,0.239-1.391,0.358-2.025,0.358
		c-0.689,0-1.166-0.185-1.431-0.556c-0.266-0.371-0.397-1.006-0.397-1.907V445.836z M759.309,445.836h-6.753v22.405
		c0,2.199,0.477,3.794,1.43,4.787s2.489,1.489,4.608,1.489c0.74,0,1.496-0.093,2.265-0.277c0.767-0.186,1.39-0.424,1.867-0.715
		l0.437-4.173c-0.715,0.239-1.391,0.358-2.025,0.358c-0.689,0-1.166-0.185-1.432-0.556c-0.265-0.371-0.396-1.006-0.396-1.907
		V445.836z M735.435,470.148c-0.61,0-1.087-0.146-1.431-0.438c-0.345-0.291-0.517-0.715-0.517-1.271
		c0-0.557,0.179-0.987,0.536-1.291c0.358-0.305,0.96-0.563,1.808-0.775l3.218-0.755v1.708c0,0.848-0.371,1.53-1.112,2.046
		C737.194,469.89,736.36,470.148,735.435,470.148 M747.152,470.267c-0.953,0-1.43-0.516-1.43-1.549v-7.229
		c0-2.543-0.809-4.449-2.423-5.722c-1.616-1.271-3.973-1.905-7.071-1.905c-2.649,0-4.754,0.536-6.316,1.607
		c-1.562,1.073-2.517,2.576-2.86,4.509l5.482,1.59c0.186-1.085,0.596-1.867,1.231-2.345c0.636-0.476,1.456-0.715,2.463-0.715
		c0.874,0,1.562,0.266,2.066,0.795c0.502,0.53,0.754,1.245,0.754,2.146v0.715l-4.488,0.874c-2.755,0.556-4.735,1.357-5.939,2.403
		c-1.206,1.047-1.808,2.418-1.808,4.111c0,1.616,0.53,2.848,1.589,3.695c1.059,0.847,2.582,1.271,4.568,1.271
		c3.521,0,5.88-1.019,7.071-3.059c0.557,2.04,2.265,3.059,5.124,3.059c1.033,0,1.934-0.213,2.702-0.636l0.517-3.773
		C748.066,470.214,747.655,470.267,747.152,470.267 M705.282,452.867c0-1.906,1.1-2.86,3.297-2.86c0.928,0,1.683,0.212,2.266,0.636
		l0.675-4.211c-0.98-0.768-2.503-1.151-4.569-1.151c-2.383,0-4.316,0.596-5.799,1.787c-1.484,1.191-2.225,2.979-2.225,5.362v1.828
		h-3.179v4.808h3.179v15.055h6.753v-15.055h5.641v-4.808h-6.038V452.867z M681.766,458.667c1.271,0,2.211,0.438,2.82,1.311
		c0.608,0.874,0.913,2.278,0.913,4.212s-0.305,3.337-0.913,4.211c-0.609,0.874-1.55,1.311-2.82,1.311
		c-1.271,0-2.212-0.437-2.821-1.311c-0.608-0.874-0.913-2.277-0.913-4.211s0.305-3.338,0.913-4.212
		C679.554,459.104,680.494,458.667,681.766,458.667 M681.766,453.861c-3.312,0-5.886,0.906-7.728,2.721
		c-1.841,1.814-2.761,4.35-2.761,7.607s0.92,5.794,2.761,7.607c1.842,1.814,4.416,2.721,7.728,2.721c3.31,0,5.885-0.906,7.726-2.721
		c1.841-1.813,2.761-4.35,2.761-7.607s-0.92-5.793-2.761-7.607S685.075,453.861,681.766,453.861 M644.345,478.292
		c-3.682,0-5.522-0.61-5.522-1.828c0-0.476,0.232-0.828,0.695-1.052c0.463-0.227,1.238-0.338,2.324-0.338h5.442
		c0.874,0,1.496,0.104,1.867,0.317c0.37,0.211,0.556,0.529,0.556,0.953c0,0.582-0.457,1.054-1.371,1.41
		C647.424,478.113,646.093,478.292,644.345,478.292 M644.026,457.714c0.874,0,1.582,0.266,2.126,0.794
		c0.542,0.53,0.814,1.232,0.814,2.106s-0.272,1.568-0.814,2.085c-0.544,0.517-1.252,0.774-2.126,0.774s-1.583-0.258-2.125-0.774
		c-0.543-0.517-0.813-1.211-0.813-2.085s0.271-1.576,0.813-2.106C642.443,457.979,643.152,457.714,644.026,457.714 M647.801,469.711
		h-6.753c-1.378,0-2.066-0.45-2.066-1.351c0-0.716,0.41-1.179,1.232-1.391c1.111,0.238,2.383,0.357,3.812,0.357
		c3.072,0,5.456-0.582,7.151-1.747c1.693-1.166,2.542-2.821,2.542-4.966c0-2.489-1.112-4.317-3.337-5.482
		c0.265-0.556,0.694-0.993,1.291-1.311c0.596-0.318,1.344-0.478,2.244-0.478c0.212,0,0.582,0.027,1.112,0.08l-0.755-4.489
		l-0.635-0.04c-1.644,0-2.927,0.504-3.854,1.51c-0.927,1.007-1.522,2.304-1.787,3.893c-1.219-0.291-2.543-0.436-3.973-0.436
		c-3.072,0-5.456,0.589-7.15,1.767c-1.695,1.179-2.543,2.841-2.543,4.986c0,2.463,1.087,4.276,3.259,5.441
		c-1.008,0.346-1.803,0.874-2.385,1.589c-0.583,0.716-0.874,1.536-0.874,2.464c0,1.881,1.02,3.258,3.06,4.132
		c-1.245,0.291-2.172,0.767-2.781,1.43c-0.609,0.661-0.913,1.43-0.913,2.304c0,1.483,0.827,2.636,2.482,3.456
		c1.655,0.821,4.217,1.231,7.687,1.231c3.443,0,6.164-0.603,8.164-1.807c1.999-1.205,2.999-2.935,2.999-5.185
		c0-1.96-0.629-3.443-1.887-4.449C651.886,470.214,650.104,469.711,647.801,469.711 M622.019,453.861
		c-1.562,0-2.926,0.351-4.091,1.052c-1.166,0.702-2.066,1.755-2.702,3.158l-0.198-3.813h-6.038v19.862h6.753v-10.487
		c0-1.562,0.331-2.721,0.993-3.476s1.523-1.132,2.582-1.132c0.9,0,1.595,0.284,2.086,0.854c0.489,0.57,0.735,1.529,0.735,2.88
		v11.361h6.753v-13.229c0-2.251-0.623-3.985-1.867-5.203C625.779,454.47,624.11,453.861,622.019,453.861 M602.594,454.258h-6.753
		v19.863h6.753V454.258z M599.218,451.954c1.376,0,2.376-0.259,2.999-0.775c0.622-0.516,0.934-1.331,0.934-2.442
		c0-1.139-0.312-1.967-0.934-2.483c-0.623-0.516-1.623-0.775-2.999-0.775c-1.378,0-2.378,0.26-3,0.775
		c-0.622,0.517-0.934,1.345-0.934,2.483c0,1.111,0.312,1.927,0.934,2.442C596.84,451.695,597.84,451.954,599.218,451.954
		 M590.717,468.837c-0.822,0.583-1.775,0.874-2.861,0.874c-1.748,0-2.622-0.887-2.622-2.662v-7.983h5.959v-4.808h-5.959v-6.316
		l-6.753,1.867v4.449h-3.416v4.808h3.416v9.097c0.026,2.224,0.662,3.84,1.907,4.846c1.245,1.007,3.045,1.51,5.402,1.51
		c1.032,0,2.06-0.139,3.078-0.417c1.021-0.277,1.861-0.642,2.523-1.093L590.717,468.837z M562.432,474.518
		c3.072,0,5.416-0.602,7.032-1.808c1.615-1.205,2.423-2.774,2.423-4.707c0-1.721-0.642-3.079-1.927-4.072
		c-1.284-0.992-3.383-1.74-6.296-2.245c-1.351-0.264-2.298-0.535-2.84-0.813c-0.543-0.278-0.815-0.616-0.815-1.013
		c0-0.424,0.265-0.781,0.795-1.073c0.529-0.291,1.271-0.438,2.224-0.438c1.218,0,2.265,0.213,3.139,0.637s1.628,1.099,2.264,2.025
		l3.496-3.416c-0.901-1.245-2.073-2.178-3.516-2.801c-1.444-0.622-3.304-0.933-5.581-0.933c-2.065,0-3.821,0.311-5.264,0.933
		c-1.444,0.623-2.522,1.438-3.237,2.443c-0.716,1.007-1.073,2.08-1.073,3.218c0,1.668,0.629,3.006,1.887,4.012
		c1.257,1.007,3.37,1.802,6.336,2.384c1.324,0.266,2.258,0.536,2.801,0.814c0.542,0.278,0.814,0.603,0.814,0.973
		c0,0.424-0.265,0.763-0.794,1.014c-0.53,0.252-1.259,0.378-2.185,0.378c-2.781,0-4.741-0.94-5.88-2.821l-3.496,3.814
		C554.646,473.353,557.876,474.518,562.432,474.518 M547.813,454.258h-6.753v19.863h6.753V454.258z M544.437,451.954
		c1.377,0,2.377-0.259,3-0.775c0.622-0.516,0.933-1.331,0.933-2.442c0-1.139-0.311-1.967-0.933-2.483
		c-0.623-0.516-1.623-0.775-3-0.775s-2.377,0.26-2.999,0.775c-0.622,0.517-0.933,1.345-0.933,2.483c0,1.111,0.311,1.927,0.933,2.442
		C542.06,451.695,543.06,451.954,544.437,451.954 M522.866,468.837v-20.935h-6.833v26.218h19.982v-5.283H522.866z"/>
	<path clip-path="url(#SVGID_2_)" fill="#231F20" d="M354.34,452.575c-8.505,8.505-12.751,18.841-12.751,31.021
		c0,11.93,4.246,22.143,12.751,30.642c8.499,8.499,18.711,12.752,30.642,12.752c12.18,0,22.517-4.253,31.022-12.752
		c8.499-8.499,12.751-18.712,12.751-30.642c0-12.181-4.252-22.517-12.751-31.021c-8.505-8.499-18.842-12.752-31.022-12.752
		C373.051,439.823,362.839,444.076,354.34,452.575 M194.667,267.965c6.596,3.938,11.163,9.01,13.703,15.227
		c2.534,6.221,4.246,11.483,5.139,15.795c0.886,4.318,1.332,8.631,1.332,12.942c0,10.913-5.841,25.122-17.51,42.631
		c-11.674,17.51-24.616,33.943-38.825,49.293c-14.214,15.356-30.582,31.783-49.102,49.293
		c-18.526,17.51-31.468,29.374-38.825,35.589c-7.363,6.222-13.198,11.104-17.51,14.655v17.891h244.751v-62.806H181.344l11.419-7.994
		c7.613-5.329,16.873-12.876,27.786-22.647c10.908-9.767,21.756-20.555,32.545-32.354c10.783-11.8,19.984-25.247,27.596-40.348
		c7.613-15.094,11.419-29.499,11.419-43.202c0-9.385-0.701-18.396-2.093-27.026c-1.398-8.623-4.699-18.205-9.897-28.737
		c-5.204-10.527-11.99-19.662-20.364-27.406c-8.374-7.737-20.239-14.208-35.59-19.412c-15.356-5.198-33.305-7.803-53.86-7.803
		c-15.987,0-30.897,3.3-44.725,9.896c-13.834,6.603-24.741,13.894-32.735,21.887c-7.993,7.994-15.291,17.26-21.887,27.787
		C64.357,271.646,60.17,278.943,58.397,283c-1.778,4.062-3.045,7.363-3.806,9.896l59.76,28.929l6.471-14.845
		c4.312-9.896,11.098-19.853,20.364-29.881c9.261-10.021,18.967-15.035,29.119-15.035
		C179.946,262.064,188.064,264.033,194.667,267.965"/>
	<path clip-path="url(#SVGID_2_)" fill="#231F20" d="M914.701,59.307c7.048,0,13.46,0.752,19.236,2.249
		c5.771,1.501,10.834,4.162,15.186,7.987c4.348,3.824,8.099,9.111,11.248,15.861c3.15,6.748,5.737,15.375,7.762,25.871
		c2.025,10.502,3.522,23.1,4.5,37.797c0.975,14.701,1.462,32.024,1.462,51.971c0,19.949-0.487,37.311-1.462,52.082
		c-0.978,14.775-2.475,27.412-4.5,37.908c-2.024,10.5-4.611,19.089-7.762,25.761c-3.149,6.675-6.9,11.962-11.248,15.861
		c-4.352,3.901-9.414,6.562-15.186,7.985c-5.776,1.428-12.188,2.138-19.236,2.138V59.307z M720.095,360.552h250.851
		c23.848,0,45.369-3.561,64.568-10.686c19.197-7.122,35.547-17.472,49.045-31.048c13.499-13.572,23.884-30.26,31.16-50.058
		c7.273-19.798,10.911-42.37,10.911-67.718c0-25.198-3.638-47.657-10.911-67.381c-7.276-19.721-17.661-36.408-31.16-50.059
		c-13.498-13.646-29.848-24.033-49.045-31.158c-19.199-7.123-40.721-10.688-64.568-10.688H720.095v17.549h39.371v283.472h-39.371
		V360.552z"/>
	<polygon clip-path="url(#SVGID_2_)" fill="none" stroke="#231F20" stroke-width="1.998" points="0.089,1.753 0.089,570.642 
		0.089,572.644 2.09,572.644 1166.177,572.644 1168.178,572.644 1168.178,570.642 1168.178,1.753 1168.178,-0.249 1166.177,-0.249 
		2.09,-0.249 0.089,-0.249 	"/>
</g>
<rect x="4.091" y="3.754" fill="none" stroke="#231F20" stroke-width="1.998" width="1160.085" height="564.886"/>
<line fill="none" stroke="#231F20" stroke-width="2" x1="676.727" y1="25.04" x2="676.727" y2="385.057"/>
<line fill="none" stroke="#231F20" stroke-width="2" x1="461.186" y1="177.049" x2="461.186" y2="547.058"/>
</svg>
