<?xml version="1.0" encoding="utf-8"?>
<!-- Generator: Adobe Illustrator 16.0.0, SVG Export Plug-In . SVG Version: 6.00 Build 0)  -->
<!DOCTYPE svg PUBLIC "-//W3C//DTD SVG 1.1//EN" "http://www.w3.org/Graphics/SVG/1.1/DTD/svg11.dtd">
<svg version="1.1" id="Layer_1" xmlns="http://www.w3.org/2000/svg" xmlns:xlink="http://www.w3.org/1999/xlink" x="0px" y="0px"
	 width="1170.09px" height="492.17px" viewBox="0 0 1170.09 492.17" enable-background="new 0 0 1170.09 492.17"
	 xml:space="preserve">
<g>
	<defs>
		<rect id="SVGID_25_" y="0.565" width="1170.088" height="492.168"/>
	</defs>
	<clipPath id="SVGID_2_">
		<use xlink:href="#SVGID_25_"  overflow="visible"/>
	</clipPath>
	<path clip-path="url(#SVGID_2_)" fill="#FF1419" d="M1027.422,97.079c1.954,4.793,4.736,8.976,8.349,12.551
		c3.611,3.574,7.961,6.394,13.048,8.457c5.086,2.064,10.78,3.097,17.082,3.097c3.575,0,6.846-0.286,9.813-0.856
		c2.966-0.572,5.759-1.17,8.376-1.797c2.322-0.59,4.496-1.105,6.523-1.549c2.025-0.441,4.035-0.663,6.025-0.663
		c2.064,0,4.018,0.351,5.861,1.05c1.842,0.701,3.648,1.955,5.418,3.76h3.426V84.032h8.902v-4.367h-52.631v4.367h10.281v15.701
		c0,3.021-0.046,5.575-0.137,7.656c-0.094,2.083-0.342,3.779-0.748,5.087c-0.405,1.308-1.031,2.258-1.877,2.847
		c-0.85,0.59-2.012,0.885-3.484,0.885c-1.844,0-3.383-0.699-4.615-2.101c-1.236-1.401-2.232-3.657-2.986-6.772
		c-0.756-3.114-1.289-7.195-1.604-12.246c-0.314-5.049-0.47-11.223-0.47-18.521c0-4.827,0.212-8.956,0.636-12.384
		c0.424-3.427,0.995-6.311,1.715-8.652c0.717-2.34,1.574-4.191,2.569-5.556c0.995-1.362,2.064-2.405,3.207-3.124
		c1.143-0.718,2.329-1.179,3.566-1.382c1.233-0.202,2.478-0.304,3.731-0.304c2.615,0,5.391,0.47,8.32,1.41
		c2.93,0.939,5.749,2.562,8.458,4.864c2.708,2.304,5.197,5.39,7.464,9.261c2.268,3.869,4.062,8.734,5.391,14.596h4.311V39.417
		h-3.812l-6.801,10.172c-4.46-4.016-9.261-6.854-14.401-8.514c-5.143-1.658-10.458-2.488-15.95-2.488
		c-7.703,0-14.421,1.106-20.151,3.318c-5.731,2.211-10.504,5.252-14.318,9.121c-3.815,3.87-6.671,8.432-8.569,13.684
		c-1.899,5.252-2.847,10.918-2.847,17C1024.493,87.165,1025.469,92.288,1027.422,97.079 M908.291,119.027h28.75v-4.368
		c-1.623,0-3.152-0.045-4.589-0.138c-1.438-0.091-2.682-0.257-3.733-0.497c-1.049-0.24-1.879-0.581-2.487-1.023
		c-0.607-0.441-0.911-1.03-0.911-1.769V60.038l42.514,58.989h28.03V48.262c0-1.363,0.901-2.248,2.709-2.654
		c1.805-0.404,4.292-0.607,7.463-0.607v-4.312h-25.044V45c1.584,0,3.004,0.047,4.257,0.139s2.322,0.258,3.207,0.497
		c0.884,0.239,1.556,0.571,2.018,0.995c0.46,0.424,0.691,0.968,0.691,1.631v39.253l-35.549-46.827h-48.319V45h6.578l6.746,8.846
		v57.662c0,0.664-0.341,1.197-1.023,1.604c-0.682,0.405-1.596,0.719-2.736,0.939c-1.143,0.221-2.461,0.379-3.952,0.47
		c-1.493,0.093-3.032,0.138-4.618,0.138V119.027z M833.777,119.027h57.441v-4.368h-9.62V45h9.62v-4.312h-57.441V45h9.675v69.658
		h-9.675V119.027z M742.455,119.027h57.44v-4.368h-9.675V45h8.016l13.49,27.311h3.869V40.688h-88.842v31.623h3.814L744.113,45h7.961
		v69.658h-9.619V119.027z M651.133,119.027h57.441v-4.368h-9.621V45h9.621v-4.312h-57.441V45h9.675v69.658h-9.675V119.027z
		 M577.668,45c1.99,0,3.722,0.23,5.197,0.69c1.473,0.462,2.699,1.291,3.676,2.488c0.975,1.198,1.704,2.839,2.184,4.921
		c0.479,2.082,0.72,4.764,0.72,8.044s-0.241,5.979-0.72,8.099c-0.479,2.121-1.209,3.787-2.184,5.004
		c-0.977,1.215-2.203,2.064-3.676,2.543c-1.476,0.479-3.207,0.719-5.197,0.719V45z M529.846,119.027h57.441v-4.368h-9.619V81.875
		c1.805,0,3.363,0.259,4.67,0.773c1.309,0.518,2.369,1.465,3.18,2.848c0.812,1.383,1.41,3.271,1.797,5.666
		c0.387,2.397,0.581,5.475,0.581,9.233c0,3.429,0.35,6.45,1.051,9.067c0.699,2.617,1.905,4.809,3.62,6.578s4.009,3.104,6.883,4.009
		c2.876,0.901,6.486,1.354,10.836,1.354c4.534,0,8.274-0.342,11.225-1.023c2.947-0.682,5.297-1.797,7.048-3.344
		c1.75-1.549,2.966-3.576,3.649-6.082c0.68-2.506,1.021-5.584,1.021-9.232v-1.77h-4.644c0,4.461-0.276,7.869-0.829,10.228
		s-1.437,3.539-2.654,3.539c-0.736,0-1.262-0.295-1.574-0.886c-0.314-0.588-0.471-1.455-0.471-2.598v-1.963
		c0-0.57,0.037-1.391,0.109-2.46c0.037-1.032,0.064-1.926,0.084-2.681c0.018-0.756,0.028-1.668,0.028-2.737
		c0-3.87-0.683-7.067-2.047-9.592c-1.363-2.524-3.528-4.533-6.495-6.026c-2.969-1.492-6.791-2.543-11.472-3.15
		c-4.681-0.608-10.337-0.932-16.973-0.969c7.408-0.035,13.591-0.506,18.548-1.41c4.957-0.901,8.92-2.183,11.887-3.842
		c2.967-1.658,5.067-3.685,6.303-6.08c1.234-2.396,1.852-5.123,1.852-8.183c0-3.502-0.711-6.542-2.129-9.122
		s-3.482-4.708-6.191-6.386c-2.709-1.677-6.045-2.921-10.008-3.731c-3.961-0.811-8.467-1.217-13.516-1.217h-63.191V45h9.676v69.658
		h-9.676V119.027z M405.906,119.027h23.717l14.209-47.987l17.414,47.987h23.773l20.897-70.599c0.405-1.29,1.39-2.184,2.957-2.682
		S512.863,45,516.145,45v-4.312h-26.315V45c1.474,0,2.827,0.047,4.063,0.139c1.234,0.092,2.303,0.24,3.207,0.441
		c0.901,0.203,1.602,0.461,2.1,0.774s0.746,0.71,0.746,1.188c0,0.259-0.055,0.553-0.166,0.885l-12.106,41.63L472.469,45h9.951
		v-4.312h-51.746V45h3.648l6.357,17.47l-8.293,27.864L417.074,45h9.951v-4.312h-55.894V45h7.796L405.906,119.027z"/>
	<polygon clip-path="url(#SVGID_2_)" fill="none" stroke="#231F20" stroke-width="1.998" points="0.998,3.565 0.998,489.733 
		0.998,491.735 3,491.735 1167.086,491.735 1169.088,491.735 1169.088,489.733 1169.088,3.565 1169.088,1.563 1167.086,1.563 
		3,1.563 0.998,1.563 	"/>
</g>
<rect x="5.001" y="5.567" fill="none" stroke="#231F20" stroke-width="1.998" width="1160.085" height="482.164"/>
<line fill="none" stroke="#231F20" stroke-width="2" x1="361.801" y1="159.565" x2="1144.086" y2="159.565"/>
<line fill="none" stroke="#231F20" stroke-width="2" x1="361.801" y1="319.563" x2="883.043" y2="319.563"/>
<line fill="none" stroke="#231F20" stroke-width="2" x1="341.799" y1="26.565" x2="341.799" y2="466.352"/>
<line fill="none" stroke="#231F20" stroke-width="2" x1="914.043" y1="180.565" x2="914.043" y2="466.352"/>
<g>
	<defs>
		<rect id="SVGID_27_" y="0.565" width="1170.088" height="492.168"/>
	</defs>
	<clipPath id="SVGID_4_">
		<use xlink:href="#SVGID_27_"  overflow="visible"/>
	</clipPath>
	<path clip-path="url(#SVGID_4_)" fill="#231F20" d="M727.001,282.147c3.052,0,5.411-0.594,7.077-1.785
		c1.666-1.189,2.499-2.764,2.499-4.725c0-1.764-0.638-3.143-1.911-4.137c-1.274-0.994-3.438-1.799-6.488-2.414
		c-1.709-0.338-2.898-0.701-3.571-1.094c-0.672-0.391-1.008-0.881-1.008-1.469c0-0.561,0.343-1.037,1.029-1.428
		c0.686-0.393,1.603-0.588,2.751-0.588c1.371,0,2.513,0.266,3.424,0.797c0.909,0.533,1.672,1.357,2.288,2.479l3.57-3.023
		c-0.98-1.541-2.198-2.668-3.654-3.381c-1.456-0.715-3.36-1.072-5.712-1.072c-1.988,0-3.696,0.314-5.125,0.945
		c-1.427,0.631-2.505,1.463-3.234,2.5c-0.727,1.035-1.091,2.141-1.091,3.316c0,1.793,0.651,3.213,1.953,4.264
		s3.562,1.896,6.783,2.541c1.54,0.309,2.625,0.631,3.255,0.967c0.631,0.336,0.945,0.74,0.945,1.217c0,0.588-0.337,1.051-1.01,1.387
		c-0.672,0.336-1.623,0.504-2.854,0.504c-1.54,0-2.835-0.246-3.885-0.734c-1.051-0.49-1.854-1.338-2.415-2.541l-3.36,3.443
		C719.077,280.803,722.325,282.147,727.001,282.147 M714.359,276.604c-0.924,0.783-2.002,1.176-3.233,1.176
		c-1.933,0-2.898-0.967-2.898-2.898v-9.869h6.805v-4.285h-6.805v-6.426l-5.754,1.596v4.83h-3.822v4.285h3.822v10.793
		c0,4.229,2.337,6.342,7.015,6.342c1.118,0,2.189-0.154,3.213-0.461c1.02-0.309,1.867-0.729,2.541-1.26L714.359,276.604z
		 M687.521,260.307c-1.624,0-3.053,0.35-4.283,1.051c-1.232,0.699-2.198,1.736-2.898,3.107l-0.168-3.738h-5.166v21h5.754v-11.088
		c0-1.959,0.469-3.416,1.406-4.367c0.938-0.953,2.08-1.428,3.424-1.428c2.492,0,3.738,1.596,3.738,4.787v12.096h5.754v-13.775
		c0-2.465-0.693-4.354-2.08-5.67C691.617,260.965,689.79,260.307,687.521,260.307 M660.013,264.549c1.344,0,2.437,0.414,3.276,1.238
		c0.84,0.826,1.371,2.023,1.596,3.592h-9.786c0.224-1.596,0.748-2.801,1.575-3.611C657.498,264.956,658.611,264.549,660.013,264.549
		 M670.178,271.143c0-3.471-0.877-6.146-2.625-8.021c-1.752-1.877-4.25-2.814-7.498-2.814c-3.36,0-5.964,0.959-7.812,2.877
		c-1.849,1.918-2.772,4.6-2.772,8.043c0,3.445,0.951,6.125,2.856,8.043c1.902,1.918,4.591,2.877,8.063,2.877
		c2.379,0,4.359-0.441,5.943-1.322c1.581-0.883,2.709-2.164,3.381-3.844l-4.704-1.721c-0.31,0.84-0.854,1.482-1.638,1.932
		c-0.785,0.447-1.779,0.672-2.982,0.672c-2.913,0-4.662-1.484-5.25-4.453h14.869C670.119,272.684,670.178,271.928,670.178,271.143
		 M637.165,260.307c-1.513,0-2.913,0.365-4.2,1.092c-1.287,0.729-2.268,1.779-2.94,3.15c-0.56-1.371-1.448-2.422-2.667-3.15
		c-1.218-0.727-2.61-1.092-4.179-1.092c-1.513,0-2.876,0.35-4.095,1.051c-1.219,0.699-2.177,1.736-2.877,3.107l-0.168-3.738h-5.166
		v21h5.754v-11.129c0-1.904,0.455-3.34,1.365-4.305c0.908-0.967,1.994-1.449,3.255-1.449c1.147,0,2.044,0.342,2.688,1.027
		c0.645,0.688,0.966,1.758,0.966,3.215v12.641h5.754V270.43c0-1.766,0.434-3.137,1.303-4.117c0.868-0.98,1.974-1.469,3.317-1.469
		c1.12,0,2.002,0.342,2.646,1.027c0.645,0.688,0.967,1.758,0.967,3.215v12.641h5.754v-13.775c0-2.465-0.707-4.354-2.121-5.67
		S639.32,260.307,637.165,260.307 M596.467,286.809c-2.072,0-3.626-0.217-4.662-0.65c-1.037-0.434-1.555-1.043-1.555-1.828
		c0-1.26,1.163-1.889,3.486-1.889h5.713c1.119,0,1.925,0.146,2.414,0.441c0.49,0.293,0.735,0.734,0.735,1.322
		c0,0.756-0.532,1.379-1.597,1.869S598.428,286.809,596.467,286.809 M596.047,263.92c1.147,0,2.079,0.32,2.793,0.965
		c0.713,0.645,1.071,1.484,1.071,2.52c0,1.064-0.358,1.918-1.071,2.562c-0.714,0.645-1.646,0.967-2.793,0.967
		c-1.119,0-2.037-0.322-2.751-0.967s-1.071-1.498-1.071-2.562c0-1.035,0.357-1.875,1.071-2.52S594.928,263.92,596.047,263.92
		 M600.121,277.78h-7.1c-0.755,0-1.343-0.146-1.762-0.441c-0.422-0.293-0.631-0.721-0.631-1.281c0-0.98,0.547-1.609,1.638-1.889
		c1.148,0.252,2.409,0.377,3.78,0.377c2.996,0,5.354-0.637,7.077-1.91c1.722-1.275,2.583-3.004,2.583-5.188
		c0-1.232-0.273-2.324-0.82-3.275c-0.545-0.953-1.336-1.736-2.372-2.354c0.28-0.615,0.763-1.105,1.449-1.469
		c0.685-0.365,1.547-0.547,2.583-0.547c0.391,0,0.686,0.014,0.882,0.043l-0.756-4.117c-1.792-0.111-3.213,0.301-4.263,1.24
		c-1.051,0.938-1.758,2.232-2.121,3.885c-1.316-0.365-2.73-0.547-4.242-0.547c-2.968,0-5.314,0.637-7.035,1.912
		c-1.722,1.273-2.583,3.016-2.583,5.229c0,1.26,0.28,2.373,0.839,3.338c0.562,0.967,1.373,1.758,2.438,2.373
		c-1.036,0.365-1.849,0.91-2.438,1.639c-0.587,0.729-0.881,1.596-0.881,2.604c0,0.98,0.279,1.828,0.84,2.541
		c0.561,0.715,1.316,1.268,2.269,1.66c-1.261,0.307-2.212,0.811-2.856,1.512c-0.645,0.699-0.966,1.525-0.966,2.479
		c0,1.596,0.847,2.855,2.541,3.779s4.29,1.387,7.79,1.387c3.389,0,6.119-0.631,8.19-1.891c2.072-1.26,3.108-3.01,3.108-5.25
		c0-1.877-0.623-3.318-1.869-4.326S602.417,277.78,600.121,277.78 M570.135,278.241c-0.757,0-1.345-0.174-1.766-0.523
		c-0.42-0.352-0.629-0.861-0.629-1.533s0.23-1.197,0.691-1.576c0.463-0.377,1.17-0.678,2.121-0.902l4.495-1.008v2.184
		c0,1.037-0.511,1.855-1.533,2.457S571.365,278.241,570.135,278.241 M582.314,278.241c-0.533,0-0.925-0.125-1.178-0.377
		c-0.25-0.252-0.377-0.658-0.377-1.219v-8.609c0-2.549-0.84-4.473-2.52-5.775c-1.681-1.303-4.02-1.953-7.015-1.953
		c-2.521,0-4.563,0.518-6.132,1.555c-1.568,1.035-2.576,2.463-3.023,4.283l4.578,1.932c0.307-1.26,0.867-2.17,1.68-2.729
		c0.812-0.561,1.861-0.84,3.149-0.84c1.119,0,1.995,0.328,2.625,0.986s0.945,1.547,0.945,2.666v1.01l-5.04,0.965
		c-5.46,1.008-8.189,3.221-8.189,6.637c0,1.736,0.573,3.066,1.722,3.99c1.147,0.924,2.743,1.385,4.788,1.385
		c1.764,0,3.289-0.266,4.578-0.797c1.287-0.533,2.239-1.316,2.855-2.354c0.532,2.102,2.143,3.15,4.83,3.15
		c1.036,0,1.945-0.195,2.73-0.588l0.42-3.486C583.378,278.186,582.902,278.241,582.314,278.241 M557.66,260.307
		c-3.191,0-5.363,1.512-6.51,4.537l-0.379-4.117h-4.998v21h5.754V270.85c0-1.793,0.496-3.186,1.491-4.18
		c0.993-0.994,2.177-1.49,3.55-1.49c1.117,0,2,0.209,2.646,0.629l0.714-5.039C559.395,260.461,558.639,260.307,557.66,260.307
		 M535.693,258.627c0-2.156,1.203-3.234,3.611-3.234c0.952,0,1.75,0.211,2.395,0.631l0.799-3.822
		c-0.449-0.336-1.059-0.602-1.828-0.799c-0.77-0.195-1.617-0.293-2.54-0.293c-2.437,0-4.368,0.609-5.796,1.826
		c-1.428,1.219-2.143,2.975-2.143,5.271v2.52h-3.654v4.285h3.654v16.715h5.754v-16.715h6.385v-4.285h-6.637V258.627z
		 M501.338,264.549c1.344,0,2.436,0.414,3.275,1.238c0.84,0.826,1.373,2.023,1.597,3.592h-9.786
		c0.225-1.596,0.749-2.801,1.574-3.611C498.824,264.956,499.938,264.549,501.338,264.549 M511.502,271.143
		c0-3.471-0.875-6.146-2.625-8.021c-1.75-1.877-4.249-2.814-7.497-2.814c-3.36,0-5.964,0.959-7.812,2.877
		c-1.85,1.918-2.772,4.6-2.772,8.043c0,3.445,0.952,6.125,2.856,8.043c1.902,1.918,4.592,2.877,8.064,2.877
		c2.379,0,4.359-0.441,5.941-1.322c1.582-0.883,2.709-2.164,3.382-3.844l-4.704-1.721c-0.309,0.84-0.854,1.482-1.639,1.932
		c-0.783,0.447-1.777,0.672-2.98,0.672c-2.914,0-4.664-1.484-5.25-4.453h14.867C511.445,272.684,511.502,271.928,511.502,271.143
		 M478.406,260.307c-1.541,0-2.892,0.33-4.053,0.988c-1.162,0.656-2.066,1.658-2.71,3.002V251.53h-5.753v30.197h5.753v-11.088
		c0-1.959,0.47-3.416,1.409-4.367c0.936-0.953,2.078-1.428,3.422-1.428c2.492,0,3.738,1.596,3.738,4.787v12.096h5.754v-13.775
		c0-2.465-0.693-4.354-2.08-5.67C482.502,260.965,480.676,260.307,478.406,260.307 M461.061,276.604
		c-0.924,0.783-2.002,1.176-3.234,1.176c-1.932,0-2.897-0.967-2.897-2.898v-9.869h6.804v-4.285h-6.804v-6.426l-5.753,1.596v4.83
		h-3.824v4.285h3.824v10.793c0,4.229,2.337,6.342,7.014,6.342c1.119,0,2.19-0.154,3.213-0.461c1.021-0.309,1.869-0.729,2.541-1.26
		L461.061,276.604z M421.708,260.307c-1.626,0-3.054,0.35-4.284,1.051c-1.232,0.699-2.199,1.736-2.898,3.107l-0.168-3.738h-5.166v21
		h5.754v-11.088c0-1.959,0.469-3.416,1.406-4.367c0.938-0.953,2.08-1.428,3.424-1.428c2.491,0,3.738,1.596,3.738,4.787v12.096h5.754
		v-13.775c0-2.465-0.693-4.354-2.078-5.67C425.803,260.965,423.976,260.307,421.708,260.307 M393.484,264.592
		c1.623,0,2.862,0.553,3.717,1.658c0.854,1.105,1.281,2.766,1.281,4.977c0,2.213-0.428,3.871-1.281,4.977
		c-0.854,1.107-2.094,1.66-3.717,1.66c-1.625,0-2.863-0.553-3.718-1.66c-0.854-1.105-1.28-2.764-1.28-4.977
		c0-2.211,0.426-3.871,1.28-4.977S391.859,264.592,393.484,264.592 M393.484,260.307c-3.389,0-6.027,0.967-7.918,2.898
		c-1.889,1.932-2.834,4.605-2.834,8.021s0.945,6.09,2.834,8.021c1.891,1.934,4.529,2.898,7.918,2.898
		c3.387,0,6.026-0.965,7.916-2.898c1.891-1.932,2.836-4.605,2.836-8.021s-0.945-6.09-2.836-8.021
		C399.511,261.274,396.871,260.307,393.484,260.307"/>
	<path clip-path="url(#SVGID_4_)" fill="#231F20" d="M867.574,221.739c-1.539,0-2.744-0.56-3.611-1.68
		c-0.868-1.12-1.302-2.73-1.302-4.83s0.434-3.71,1.302-4.83c0.867-1.12,2.072-1.68,3.611-1.68c1.512,0,2.702,0.553,3.57,1.658
		c0.867,1.106,1.303,2.653,1.303,4.642v0.42c0,2.017-0.436,3.569-1.303,4.662C870.276,221.193,869.086,221.739,867.574,221.739
		 M872.447,195.531v12.642c-0.617-1.203-1.484-2.148-2.604-2.834c-1.121-0.687-2.438-1.029-3.949-1.029
		c-2.8,0-4.998,0.966-6.594,2.898c-1.596,1.932-2.394,4.619-2.394,8.063c0,3.416,0.798,6.083,2.394,8.001s3.794,2.877,6.594,2.877
		c1.568,0,2.961-0.393,4.18-1.176c1.217-0.784,2.135-1.834,2.751-3.15l0.252,3.906h5.124v-30.198H872.447z M842.879,208.551
		c1.345,0,2.437,0.412,3.277,1.238c0.84,0.826,1.37,2.023,1.596,3.592h-9.785c0.221-1.596,0.747-2.801,1.574-3.612
		C840.365,208.958,841.479,208.551,842.879,208.551 M853.043,215.145c0-3.473-0.875-6.146-2.625-8.021
		c-1.75-1.877-4.249-2.814-7.496-2.814c-3.361,0-5.964,0.959-7.812,2.877c-1.848,1.918-2.771,4.6-2.771,8.043
		s0.951,6.125,2.855,8.043c1.902,1.918,4.592,2.877,8.064,2.877c2.379,0,4.359-0.441,5.943-1.322
		c1.58-0.883,2.709-2.164,3.381-3.844l-4.704-1.722c-0.31,0.84-0.855,1.483-1.638,1.932c-0.785,0.448-1.779,0.672-2.982,0.672
		c-2.914,0-4.662-1.483-5.25-4.452h14.867C852.986,216.685,853.043,215.929,853.043,215.145 M819.359,226.149
		c3.053,0,5.411-0.595,7.076-1.785c1.666-1.189,2.5-2.765,2.5-4.725c0-1.764-0.637-3.143-1.911-4.137s-3.438-1.799-6.488-2.416
		c-1.708-0.336-2.898-0.699-3.569-1.092c-0.673-0.392-1.009-0.882-1.009-1.47c0-0.56,0.343-1.036,1.028-1.428
		c0.687-0.392,1.603-0.589,2.752-0.589c1.371,0,2.512,0.267,3.423,0.799c0.909,0.531,1.673,1.357,2.288,2.479l3.57-3.024
		c-0.979-1.54-2.199-2.667-3.654-3.382c-1.455-0.713-3.359-1.07-5.711-1.07c-1.989,0-3.696,0.314-5.125,0.945
		c-1.428,0.629-2.506,1.463-3.234,2.498c-0.728,1.037-1.091,2.143-1.091,3.318c0,1.792,0.65,3.213,1.953,4.264
		c1.302,1.049,3.562,1.896,6.782,2.541c1.54,0.308,2.625,0.629,3.254,0.965c0.632,0.337,0.946,0.742,0.946,1.219
		c0,0.588-0.337,1.05-1.009,1.386s-1.623,0.505-2.855,0.505c-1.54,0-2.835-0.246-3.885-0.736c-1.05-0.489-1.854-1.336-2.415-2.541
		l-3.359,3.445C811.436,224.805,814.684,226.149,819.359,226.149 M794.117,222.243c-0.756,0-1.344-0.175-1.764-0.525
		c-0.42-0.35-0.63-0.86-0.63-1.532s0.231-1.197,0.693-1.575s1.169-0.679,2.12-0.902l4.495-1.008v2.184
		c0,1.035-0.513,1.854-1.534,2.457C796.477,221.942,795.35,222.243,794.117,222.243 M806.298,222.243
		c-0.532,0-0.924-0.125-1.177-0.378c-0.252-0.252-0.377-0.657-0.377-1.218v-8.609c0-2.549-0.84-4.474-2.521-5.775
		c-1.679-1.303-4.018-1.953-7.014-1.953c-2.521,0-4.565,0.518-6.132,1.554c-1.568,1.036-2.576,2.464-3.024,4.284l4.577,1.932
		c0.309-1.26,0.869-2.17,1.681-2.729s1.862-0.841,3.15-0.841c1.12,0,1.995,0.33,2.624,0.988c0.631,0.657,0.946,1.547,0.946,2.666
		v1.008l-5.04,0.967c-5.46,1.008-8.189,3.22-8.189,6.636c0,1.735,0.573,3.065,1.721,3.99c1.148,0.924,2.744,1.386,4.788,1.386
		c1.765,0,3.29-0.266,4.578-0.798s2.24-1.315,2.856-2.353c0.531,2.101,2.141,3.15,4.83,3.15c1.035,0,1.945-0.195,2.729-0.588
		l0.419-3.486C807.361,222.187,806.887,222.243,806.298,222.243 M771.438,221.739c-1.4,0-2.533-0.482-3.401-1.449
		c-0.868-0.965-1.358-2.345-1.472-4.137v-1.848c0.113-1.764,0.604-3.137,1.472-4.116s2.001-1.47,3.401-1.47
		c1.568,0,2.786,0.56,3.654,1.68c0.869,1.12,1.303,2.73,1.303,4.83s-0.434,3.71-1.303,4.83
		C774.224,221.179,773.006,221.739,771.438,221.739 M773.16,204.309c-1.513,0-2.828,0.343-3.949,1.029
		c-1.119,0.686-2.001,1.631-2.646,2.834v-12.642h-5.753v30.198h5.081l0.211-4.158c0.615,1.4,1.533,2.514,2.751,3.34
		c1.219,0.825,2.653,1.238,4.306,1.238c2.801,0,4.998-0.959,6.594-2.877s2.394-4.585,2.394-8.001c0-3.444-0.798-6.132-2.394-8.063
		C778.158,205.275,775.961,204.309,773.16,204.309 M733.805,226.149c3.053,0,5.412-0.595,7.078-1.785
		c1.666-1.189,2.499-2.765,2.499-4.725c0-1.764-0.637-3.143-1.911-4.137c-1.273-0.994-3.438-1.799-6.489-2.416
		c-1.708-0.336-2.897-0.699-3.569-1.092c-0.672-0.392-1.008-0.882-1.008-1.47c0-0.56,0.343-1.036,1.027-1.428
		c0.688-0.392,1.604-0.589,2.752-0.589c1.371,0,2.514,0.267,3.423,0.799c0.909,0.531,1.673,1.357,2.289,2.479l3.571-3.024
		c-0.982-1.54-2.199-2.667-3.655-3.382c-1.456-0.713-3.359-1.07-5.712-1.07c-1.988,0-3.695,0.314-5.123,0.945
		c-1.429,0.629-2.508,1.463-3.233,2.498c-0.729,1.037-1.095,2.143-1.095,3.318c0,1.792,0.652,3.213,1.954,4.264
		c1.302,1.049,3.563,1.896,6.784,2.541c1.539,0.308,2.624,0.629,3.254,0.965c0.629,0.337,0.945,0.742,0.945,1.219
		c0,0.588-0.336,1.05-1.008,1.386s-1.625,0.505-2.857,0.505c-1.539,0-2.834-0.246-3.885-0.736c-1.049-0.489-1.854-1.336-2.414-2.541
		l-3.36,3.445C725.882,224.805,729.13,226.149,733.805,226.149 M712.178,204.309c-1.625,0-3.053,0.35-4.285,1.05
		c-1.231,0.7-2.198,1.736-2.897,3.108l-0.168-3.738h-5.166v21h5.754v-11.088c0-1.96,0.468-3.416,1.407-4.368
		c0.938-0.952,2.078-1.428,3.423-1.428c2.491,0,3.737,1.596,3.737,4.788v12.096h5.754v-13.775c0-2.465-0.692-4.354-2.078-5.67
		C716.271,204.967,714.444,204.309,712.178,204.309 M683.953,208.592c1.624,0,2.862,0.554,3.717,1.66
		c0.854,1.105,1.281,2.765,1.281,4.977s-0.428,3.871-1.281,4.977c-0.854,1.106-2.093,1.659-3.717,1.659s-2.863-0.553-3.718-1.659
		c-0.854-1.105-1.28-2.765-1.28-4.977s0.427-3.871,1.28-4.977C681.09,209.146,682.329,208.592,683.953,208.592 M683.953,204.309
		c-3.389,0-6.027,0.966-7.917,2.898c-1.891,1.932-2.835,4.605-2.835,8.021s0.944,6.09,2.835,8.021
		c1.89,1.933,4.528,2.898,7.917,2.898c3.388,0,6.026-0.966,7.916-2.898c1.891-1.932,2.836-4.605,2.836-8.021
		s-0.945-6.09-2.836-8.021C689.979,205.275,687.341,204.309,683.953,204.309 M668.203,204.729h-5.754v21h5.754V204.729z
		 M665.348,201.706c2.379,0,3.57-1.022,3.57-3.066c0-2.072-1.191-3.108-3.57-3.108c-2.381,0-3.57,1.036-3.57,3.108
		C661.777,200.683,662.967,201.706,665.348,201.706 M657.956,220.605c-0.924,0.784-2.003,1.176-3.235,1.176
		c-1.931,0-2.896-0.966-2.896-2.897v-9.87h6.804v-4.284h-6.804v-6.426l-5.756,1.596v4.83h-3.82v4.284h3.82v10.794
		c0,4.229,2.34,6.342,7.016,6.342c1.119,0,2.19-0.154,3.213-0.462c1.021-0.308,1.869-0.728,2.541-1.26L657.956,220.605z
		 M628.178,222.243c-0.756,0-1.344-0.175-1.764-0.525c-0.42-0.35-0.63-0.86-0.63-1.532s0.23-1.197,0.692-1.575
		c0.461-0.378,1.169-0.679,2.121-0.902l4.494-1.008v2.184c0,1.035-0.511,1.854-1.533,2.457
		C630.537,221.942,629.41,222.243,628.178,222.243 M640.357,222.243c-0.531,0-0.924-0.125-1.176-0.378
		c-0.252-0.252-0.379-0.657-0.379-1.218v-8.609c0-2.549-0.839-4.474-2.519-5.775c-1.681-1.303-4.019-1.953-7.015-1.953
		c-2.52,0-4.563,0.518-6.133,1.554c-1.568,1.036-2.575,2.464-3.023,4.284l4.578,1.932c0.309-1.26,0.868-2.17,1.68-2.729
		c0.812-0.56,1.861-0.841,3.15-0.841c1.12,0,1.994,0.33,2.625,0.988c0.63,0.657,0.945,1.547,0.945,2.666v1.008l-5.039,0.967
		c-5.461,1.008-8.191,3.22-8.191,6.636c0,1.735,0.574,3.065,1.723,3.99c1.147,0.924,2.744,1.386,4.787,1.386
		c1.766,0,3.291-0.266,4.578-0.798c1.289-0.532,2.24-1.315,2.855-2.353c0.533,2.101,2.143,3.15,4.832,3.15
		c1.035,0,1.945-0.195,2.729-0.588l0.42-3.486C641.422,222.187,640.945,222.243,640.357,222.243 M615.074,204.729h-5.755v21h5.755
		V204.729z M612.219,201.706c2.379,0,3.568-1.022,3.568-3.066c0-2.072-1.189-3.108-3.568-3.108c-2.381,0-3.571,1.036-3.571,3.108
		C608.647,200.683,609.838,201.706,612.219,201.706 M603.481,204.309c-3.191,0-5.362,1.512-6.511,4.536l-0.377-4.116h-4.998v21
		h5.754v-10.878c0-1.792,0.497-3.185,1.491-4.179c0.993-0.994,2.177-1.491,3.549-1.491c1.12,0,2.002,0.21,2.646,0.63l0.714-5.04
		C605.219,204.463,604.462,204.309,603.481,204.309 M574.502,222.243c-0.756,0-1.344-0.175-1.764-0.525
		c-0.42-0.35-0.629-0.86-0.629-1.532s0.23-1.197,0.693-1.575c0.461-0.378,1.168-0.679,2.12-0.902l4.494-1.008v2.184
		c0,1.035-0.511,1.854-1.532,2.457C576.861,221.942,575.734,222.243,574.502,222.243 M586.683,222.243
		c-0.532,0-0.923-0.125-1.176-0.378c-0.253-0.252-0.378-0.657-0.378-1.218v-8.609c0-2.549-0.84-4.474-2.52-5.775
		c-1.681-1.303-4.019-1.953-7.015-1.953c-2.521,0-4.563,0.518-6.132,1.554c-1.569,1.036-2.576,2.464-3.023,4.284l4.576,1.932
		c0.309-1.26,0.869-2.17,1.682-2.729s1.861-0.841,3.149-0.841c1.12,0,1.995,0.33,2.624,0.988c0.631,0.657,0.946,1.547,0.946,2.666
		v1.008l-5.04,0.967c-5.46,1.008-8.191,3.22-8.191,6.636c0,1.735,0.574,3.065,1.723,3.99c1.148,0.924,2.744,1.386,4.789,1.386
		c1.764,0,3.289-0.266,4.578-0.798c1.286-0.532,2.239-1.315,2.855-2.353c0.531,2.101,2.143,3.15,4.83,3.15
		c1.035,0,1.946-0.195,2.729-0.588l0.42-3.486C587.747,222.187,587.27,222.243,586.683,222.243 M558.795,204.729l-5.293,16.968
		l-5.166-16.968h-6.174l7.98,21h6.637l7.98-21H558.795z M518.727,230.811c-2.072,0-3.627-0.217-4.662-0.65
		c-1.037-0.435-1.554-1.043-1.554-1.828c0-1.26,1.161-1.89,3.485-1.89h5.713c1.119,0,1.924,0.147,2.414,0.44
		c0.49,0.295,0.736,0.736,0.736,1.324c0,0.756-0.533,1.379-1.597,1.869C522.197,230.566,520.686,230.811,518.727,230.811
		 M518.307,207.92c1.146,0,2.08,0.322,2.793,0.967c0.715,0.644,1.07,1.484,1.07,2.52c0,1.064-0.355,1.918-1.07,2.562
		c-0.713,0.644-1.646,0.966-2.793,0.966c-1.121,0-2.039-0.322-2.752-0.966c-0.713-0.645-1.07-1.498-1.07-2.562
		c0-1.035,0.357-1.876,1.07-2.52C516.268,208.243,517.186,207.92,518.307,207.92 M522.381,221.781h-7.098
		c-0.756,0-1.344-0.147-1.765-0.44c-0.42-0.295-0.63-0.721-0.63-1.281c0-0.98,0.546-1.609,1.639-1.891
		c1.146,0.252,2.406,0.379,3.779,0.379c2.996,0,5.355-0.637,7.076-1.911c1.723-1.274,2.584-3.003,2.584-5.187
		c0-1.232-0.273-2.324-0.818-3.277c-0.547-0.951-1.339-1.735-2.375-2.352c0.279-0.615,0.764-1.105,1.45-1.47
		c0.685-0.364,1.546-0.546,2.583-0.546c0.391,0,0.686,0.014,0.883,0.042l-0.758-4.116c-1.792-0.111-3.213,0.301-4.262,1.239
		c-1.051,0.938-1.758,2.233-2.121,3.885c-1.316-0.364-2.73-0.546-4.242-0.546c-2.969,0-5.314,0.637-7.035,1.911
		s-2.582,3.017-2.582,5.229c0,1.26,0.279,2.372,0.84,3.338c0.559,0.967,1.371,1.758,2.436,2.373
		c-1.037,0.364-1.848,0.91-2.436,1.639c-0.588,0.728-0.883,1.596-0.883,2.604c0,0.98,0.279,1.827,0.84,2.541
		c0.56,0.715,1.316,1.268,2.268,1.659c-1.26,0.308-2.212,0.812-2.855,1.512c-0.645,0.7-0.967,1.526-0.967,2.478
		c0,1.597,0.848,2.856,2.542,3.78c1.692,0.925,4.29,1.387,7.79,1.387c3.389,0,6.118-0.63,8.191-1.891
		c2.07-1.26,3.107-3.01,3.107-5.249c0-1.877-0.623-3.318-1.869-4.326S524.676,221.781,522.381,221.781 M496.131,204.309
		c-1.624,0-3.053,0.35-4.284,1.05s-2.198,1.736-2.897,3.108l-0.168-3.738h-5.166v21h5.754v-11.088c0-1.96,0.469-3.416,1.406-4.368
		c0.938-0.952,2.08-1.428,3.424-1.428c2.492,0,3.738,1.596,3.738,4.788v12.096h5.754v-13.775c0-2.465-0.693-4.354-2.08-5.67
		C500.226,204.967,498.398,204.309,496.131,204.309 M477.525,204.729h-5.754v21h5.754V204.729z M474.669,201.706
		c2.38,0,3.569-1.022,3.569-3.066c0-2.072-1.189-3.108-3.569-3.108s-3.57,1.036-3.57,3.108
		C471.099,200.683,472.289,201.706,474.669,201.706 M467.277,220.605c-0.924,0.784-2.002,1.176-3.233,1.176
		c-1.933,0-2.897-0.966-2.897-2.897v-9.87h6.803v-4.284h-6.803v-6.426l-5.755,1.596v4.83h-3.821v4.284h3.821v10.794
		c0,4.229,2.337,6.342,7.015,6.342c1.119,0,2.189-0.154,3.213-0.462c1.021-0.308,1.869-0.728,2.541-1.26L467.277,220.605z
		 M447.664,204.729h-5.754v21h5.754V204.729z M444.808,201.706c2.38,0,3.57-1.022,3.57-3.066c0-2.072-1.19-3.108-3.57-3.108
		s-3.569,1.036-3.569,3.108C441.238,200.683,442.428,201.706,444.808,201.706 M436.072,204.309c-3.192,0-5.362,1.512-6.51,4.536
		l-0.379-4.116h-4.998v21h5.754v-10.878c0-1.792,0.498-3.185,1.491-4.179c0.995-0.994,2.177-1.491,3.55-1.491
		c1.119,0,2,0.21,2.646,0.63l0.714-5.04C437.808,204.463,437.053,204.309,436.072,204.309 M400.162,210.609l1.302-6.552h0.084
		l1.302,6.552l3.864,15.12h6.51l8.063-27.721h-5.963l-5.377,23.143l-5.627-23.143h-5.545l-5.543,23.143l-5.377-23.143h-6.258
		l8.064,27.721h6.678L400.162,210.609z"/>
	<path clip-path="url(#SVGID_4_)" fill="#231F20" d="M1084.863,417.133h38.244v40.43h-38.244V417.133z M1001.819,414.219
		c0,3.279,2.913,12.02,12.019,12.02c8.379,0,12.02-8.74,12.02-12.02v-80.131c0-3.279-3.641-12.02-12.02-12.02
		c-8.376,0-11.654,6.92-12.019,10.928V414.219z M1065.195,402.563c0,6.193-0.729,20.762-7.648,33.51
		c-6.92,13.113-20.033,24.404-43.709,24.404c-24.402,0-36.785-11.291-43.707-24.404c-6.92-12.748-7.65-27.316-7.65-33.51V250.315
		c0-9.104,0.366-25.494,7.286-38.972c6.921-13.112,19.304-24.403,44.071-24.403c24.769,0,37.152,11.291,44.072,24.403
		c6.922,13.478,7.285,29.867,7.285,38.972v16.754h-39.338c0-17.848-0.363-29.501-1.82-36.422c-1.456-6.92-4.371-9.47-10.199-9.47
		c-4.734,0-8.012,2.187-9.469,6.921c-1.822,4.735-2.55,12.02-2.55,22.217v47.713c6.921-4.006,12.748-6.555,19.669-6.555
		c20.396,0,31.323,10.562,37.15,22.582c5.828,12.02,6.557,26.588,6.557,33.873V402.563z"/>
	<path clip-path="url(#SVGID_4_)" fill="#FF1419" d="M385.287,396.323v15.646l406.094-3.391
		c-13.821,17.213-26.338,39.639-26.338,62.326l0.26,0.521c21.646-29.729,53.981-53.98,88.664-66.758v-0.783
		c-35.204-12.777-65.977-36.508-88.664-66.498l-0.26,0.262c0.521,21.383,10.953,47.982,26.338,62.064L385.287,396.323z"/>
</g>
<polygon fill="#231F20" points="136.847,457.536 88.934,457.536 32.463,38.291 89.504,38.291 114.031,256.182 115.172,269.872 
	119.734,269.872 121.445,256.182 147.686,38.291 192.176,38.291 218.415,256.182 220.126,269.872 224.689,269.872 225.83,256.182 
	250.357,38.291 307.398,38.291 250.928,457.536 203.014,457.536 174.494,259.036 171.07,234.508 168.79,234.508 165.367,259.036 "/>
</svg>
