<?xml version="1.0" encoding="utf-8"?>
<!-- Generator: Adobe Illustrator 16.0.0, SVG Export Plug-In . SVG Version: 6.00 Build 0)  -->
<!DOCTYPE svg PUBLIC "-//W3C//DTD SVG 1.1//EN" "http://www.w3.org/Graphics/SVG/1.1/DTD/svg11.dtd">
<svg version="1.1" id="Layer_1" xmlns="http://www.w3.org/2000/svg" xmlns:xlink="http://www.w3.org/1999/xlink" x="0px" y="0px"
	 width="1170.09px" height="574.889px" viewBox="0 0 1170.09 574.889" enable-background="new 0 0 1170.09 574.889"
	 xml:space="preserve">
<g>
	<defs>
		<rect id="SVGID_11_" width="1170.088" height="574.889"/>
	</defs>
	<clipPath id="SVGID_2_">
		<use xlink:href="#SVGID_11_"  overflow="visible"/>
	</clipPath>
	<path clip-path="url(#SVGID_2_)" fill="#0046FA" d="M1039.876,122.514c3.034,1.498,6.069,2.804,9.104,3.918
		c3.034,1.115,6.117,2.037,9.248,2.766c3.13,0.73,6.338,1.276,9.622,1.643c3.283,0.363,6.692,0.547,10.227,0.547
		c7.375,0,13.857-0.721,19.446-2.16c5.589-1.441,10.265-3.457,14.03-6.051c3.764-2.592,6.597-5.676,8.498-9.248
		c1.901-3.571,2.852-7.469,2.852-11.695c0-6.223-1.979-11.523-5.934-15.902c-3.957-4.379-9.681-7.816-17.17-10.313l-6.914-2.306
		c-2.383-0.806-4.37-1.584-5.965-2.332c-1.594-0.75-2.881-1.498-3.859-2.248c-0.98-0.748-1.671-1.517-2.074-2.305
		c-0.404-0.787-0.605-1.603-0.605-2.449c0-0.959,0.239-1.93,0.721-2.908c0.479-0.98,1.189-1.863,2.132-2.651
		c0.941-0.786,2.103-1.42,3.486-1.901c1.382-0.479,2.995-0.72,4.839-0.72c1.075,0,2.267,0.097,3.572,0.288
		c1.306,0.193,2.641,0.48,4.005,0.864c1.362,0.385,2.727,0.864,4.091,1.44c1.363,0.576,2.659,1.248,3.889,2.017l6.223-11.235
		c-1.69-0.768-3.649-1.546-5.877-2.334c-2.228-0.787-4.677-1.488-7.346-2.104c-2.671-0.613-5.522-1.112-8.557-1.498
		c-3.034-0.383-6.203-0.575-9.506-0.575c-6.685,0-12.514,0.807-17.487,2.42c-4.976,1.612-9.095,3.774-12.359,6.481
		c-3.265,2.709-5.704,5.84-7.316,9.393c-1.614,3.553-2.42,7.25-2.42,11.091c0,5.954,1.861,11.091,5.589,15.412
		c3.725,4.321,9.275,7.75,16.65,10.285l10.313,3.515c1.997,0.691,3.62,1.393,4.869,2.104c1.248,0.711,2.227,1.42,2.938,2.132
		c0.711,0.711,1.191,1.431,1.441,2.159c0.249,0.73,0.374,1.441,0.374,2.133c0,2.189-1.028,3.918-3.082,5.186
		c-2.055,1.268-5.292,1.901-9.709,1.901c-3.841,0-7.989-0.519-12.445-1.556s-8.72-2.592-12.791-4.668L1039.876,122.514z
		 M953.989,130.062h33.303V57.58h24.431V44.385h-82.162V57.58h24.429V130.062z M807.894,130.062h12.676v-45.46l54.39,45.46h20.858
		V44.442h-12.676l-0.059,45.633L828.75,44.442h-20.856V130.062z M697.175,130.062h72.366v-13.194h-39.064V93.936h29.846V80.741
		h-29.846l0.058-23.104h39.007V44.442h-72.366V130.062z M544.394,130.062h12.676V86.33l31.805,44.826l31.92-44.826v43.731h33.245
		V44.442h-22.932l-30.767,44.826l-32.381-44.826h-23.566V130.062z M426.875,97.047c0,5.301,0.807,10.063,2.42,14.289
		s4.148,7.826,7.606,10.803c3.457,2.978,7.873,5.264,13.251,6.857s11.812,2.391,19.302,2.391c5.493,0,10.467-0.807,14.923-2.42
		s8.258-3.928,11.408-6.943c3.149-3.016,5.579-6.654,7.289-10.918c1.709-4.264,2.564-9.046,2.564-14.348V44.442h-12.676v54.274
		c0,3.074-0.384,5.744-1.152,8.01c-0.769,2.267-1.864,4.148-3.284,5.646c-1.422,1.498-3.141,2.612-5.157,3.342
		c-2.017,0.729-4.293,1.095-6.828,1.095c-2.305,0-4.456-0.365-6.453-1.095c-1.998-0.729-3.736-1.834-5.214-3.313
		c-1.479-1.478-2.632-3.341-3.457-5.589c-0.827-2.247-1.239-4.906-1.239-7.98v-54.39h-33.303V97.047z M312.843,104.45
		c2.362,5.359,5.751,10.046,10.169,14.06c4.417,4.014,9.785,7.183,16.104,9.507c6.318,2.323,13.415,3.485,21.29,3.485
		c3.379,0,6.606-0.211,9.679-0.634c3.073-0.423,5.954-1.009,8.643-1.758c2.688-0.749,5.185-1.603,7.49-2.563
		c2.305-0.959,4.398-1.996,6.28-3.111l-4.955-9.68c-2.304,1.115-4.839,2.008-7.605,2.68s-5.531,1.008-8.297,1.008
		c-3.918,0-7.558-0.72-10.918-2.161c-3.362-1.44-6.262-3.476-8.701-6.106s-4.35-5.801-5.733-9.508
		c-1.382-3.705-2.074-7.845-2.074-12.416c0-4.609,0.701-8.767,2.103-12.475c1.402-3.706,3.332-6.865,5.791-9.479
		c2.458-2.61,5.377-4.627,8.758-6.049c3.379-1.42,7.048-2.132,11.004-2.132c2.958,0,5.81,0.355,8.557,1.066
		c2.745,0.711,5.194,1.584,7.346,2.621l4.955-9.681c-1.883-1.074-3.986-2.103-6.309-3.082c-2.325-0.979-4.85-1.844-7.577-2.593
		c-2.728-0.749-5.637-1.334-8.729-1.757c-3.092-0.422-6.329-0.634-9.708-0.634c-5.263,0-10.18,0.528-14.75,1.585
		c-4.572,1.056-8.749,2.545-12.532,4.465c-3.784,1.921-7.155,4.227-10.112,6.914c-2.958,2.689-5.455,5.666-7.49,8.932
		c-2.037,3.264-3.582,6.788-4.638,10.571c-1.057,3.784-1.585,7.712-1.585,11.783C309.299,93.379,310.48,99.092,312.843,104.45
		 M220.85,118.25c-1.786-0.807-3.275-2.382-4.466-4.725s-2.094-5.627-2.708-9.854c-0.614-4.225-0.921-9.756-0.921-16.592
		c0-6.762,0.307-12.234,0.921-16.422c0.614-4.188,1.517-7.433,2.708-9.738c1.191-2.304,2.68-3.859,4.466-4.666
		c1.786-0.807,3.831-1.211,6.136-1.211s4.34,0.404,6.107,1.211s3.246,2.362,4.437,4.666c1.19,2.306,2.093,5.551,2.708,9.738
		c0.614,4.188,0.922,9.66,0.922,16.422c0,6.836-0.308,12.367-0.922,16.592c-0.615,4.227-1.518,7.511-2.708,9.854
		c-1.191,2.343-2.67,3.918-4.437,4.725s-3.802,1.209-6.107,1.209S222.635,119.057,220.85,118.25 M180.892,105.113
		c2.074,5.454,5.166,10.121,9.277,14.001c4.109,3.88,9.237,6.896,15.383,9.046s13.29,3.227,21.434,3.227
		c8.143,0,15.287-1.076,21.434-3.227c6.145-2.15,11.273-5.166,15.383-9.046c4.11-3.88,7.203-8.547,9.277-14.001
		c2.074-5.454,3.111-11.466,3.111-18.033c0-6.492-1.037-12.437-3.111-17.834c-2.074-5.396-5.167-10.033-9.277-13.914
		c-4.11-3.88-9.238-6.895-15.383-9.046c-6.147-2.151-13.291-3.227-21.434-3.227c-8.144,0-15.288,1.075-21.434,3.227
		s-11.274,5.166-15.383,9.046c-4.111,3.881-7.203,8.519-9.277,13.914c-2.074,5.397-3.111,11.342-3.111,17.834
		C177.78,93.647,178.817,99.659,180.892,105.113 M84.979,57.002c3.764,0,7.174,0.549,10.227,1.643
		c3.054,1.095,5.656,2.844,7.808,5.244c2.15,2.4,3.802,5.482,4.955,9.246c1.152,3.766,1.728,8.317,1.728,13.656
		c0,5.379-0.567,9.996-1.7,13.856c-1.133,3.86-2.765,7.04-4.897,9.536c-2.132,2.496-4.735,4.341-7.807,5.531
		c-3.074,1.19-6.531,1.785-10.371,1.785L84.979,57.002z M51.62,130.062h35.204c9.91,0,18.495-1.114,25.755-3.343
		c7.26-2.227,13.271-5.291,18.034-9.189c4.763-3.898,8.297-8.469,10.602-13.713c2.304-5.243,3.457-10.898,3.457-16.968
		c0-6.8-1.153-12.829-3.457-18.093c-2.305-5.262-5.839-9.697-10.602-13.309c-4.763-3.609-10.774-6.347-18.034-8.211
		c-7.26-1.861-15.845-2.794-25.755-2.794H51.62V130.062z"/>
	<path clip-path="url(#SVGID_2_)" fill="#231F20" d="M1098.211,258.309c0.374-0.268,0.933-0.402,1.681-0.402
		c0.815,0,1.481,0.181,1.995,0.543c0.512,0.361,0.875,0.856,1.084,1.486l3.99-1.609c-0.188-0.49-0.454-0.998-0.805-1.522
		s-0.806-1.003-1.365-1.437c-0.561-0.43-1.242-0.78-2.048-1.049c-0.805-0.268-1.756-0.402-2.852-0.402
		c-0.841,0-1.658,0.117-2.451,0.35c-0.793,0.234-1.493,0.578-2.1,1.033c-0.607,0.455-1.098,1.01-1.47,1.662
		c-0.373,0.654-0.561,1.412-0.561,2.275v0.209c0,1.658,0.578,2.912,1.733,3.763c1.154,0.853,2.713,1.36,4.672,1.522
		c0.723,0.07,1.323,0.164,1.803,0.28c0.478,0.117,0.858,0.263,1.138,0.438c0.279,0.175,0.473,0.361,0.577,0.56
		c0.105,0.198,0.158,0.414,0.158,0.647c0,0.396-0.205,0.765-0.613,1.103c-0.407,0.338-1.161,0.507-2.257,0.507
		c-1.238,0-2.153-0.279-2.748-0.84s-0.986-1.213-1.173-1.96l-4.06,1.33c0.116,0.606,0.344,1.231,0.683,1.873
		c0.338,0.642,0.823,1.224,1.452,1.75c0.63,0.524,1.423,0.962,2.38,1.312c0.957,0.351,2.112,0.525,3.466,0.525
		c2.286,0,4.059-0.514,5.319-1.54c1.26-1.026,1.89-2.403,1.89-4.13v-0.21c0-1.563-0.559-2.782-1.68-3.657
		c-1.12-0.875-2.567-1.406-4.34-1.593c-1.539-0.163-2.603-0.367-3.185-0.612c-0.584-0.246-0.875-0.648-0.875-1.208
		C1097.651,258.91,1097.838,258.577,1098.211,258.309 M1079.084,258.711c0.734,0.537,1.173,1.214,1.312,2.029h-8.189
		c0.209-0.745,0.664-1.404,1.364-1.977s1.61-0.857,2.73-0.857S1078.349,258.175,1079.084,258.711 M1084.877,264.521v-2.346
		c0-0.91-0.164-1.849-0.49-2.816c-0.328-0.969-0.84-1.855-1.54-2.66c-0.7-0.807-1.587-1.471-2.66-1.996
		c-1.074-0.524-2.356-0.787-3.85-0.787c-1.214,0-2.352,0.216-3.413,0.648c-1.062,0.432-1.99,1.031-2.782,1.801
		c-0.794,0.771-1.418,1.705-1.873,2.801c-0.455,1.097-0.682,2.311-0.682,3.64v0.21c0,1.447,0.215,2.742,0.646,3.885
		c0.433,1.145,1.038,2.112,1.82,2.905c0.781,0.794,1.709,1.4,2.783,1.82c1.071,0.42,2.263,0.63,3.569,0.63
		c1.143,0,2.141-0.128,2.992-0.385c0.853-0.256,1.575-0.583,2.17-0.98c0.596-0.396,1.079-0.834,1.453-1.312
		c0.373-0.477,0.665-0.938,0.875-1.383l-3.78-2.1c-0.257,0.537-0.678,0.998-1.26,1.383c-0.584,0.385-1.424,0.577-2.52,0.577
		c-0.561,0-1.091-0.087-1.594-0.262c-0.502-0.177-0.944-0.42-1.329-0.735c-0.386-0.316-0.688-0.688-0.91-1.119
		c-0.223-0.433-0.346-0.904-0.367-1.418H1084.877z M1056.981,264.311c-0.21,1.145-0.671,2.055-1.383,2.73
		c-0.712,0.677-1.744,1.015-3.097,1.015c-0.631,0-1.226-0.099-1.785-0.297c-0.561-0.198-1.051-0.496-1.471-0.894
		c-0.42-0.396-0.753-0.891-0.998-1.486c-0.244-0.596-0.366-1.277-0.366-2.048v-0.21c0-0.77,0.122-1.465,0.366-2.082
		c0.245-0.618,0.578-1.143,0.998-1.576c0.42-0.432,0.91-0.764,1.471-0.997c0.56-0.233,1.154-0.351,1.785-0.351
		c1.353,0,2.402,0.375,3.149,1.121c0.746,0.746,1.19,1.634,1.33,2.66l4.34-1.121c-0.397-2.053-1.348-3.709-2.853-4.97
		c-1.505-1.26-3.471-1.89-5.897-1.89c-1.26,0-2.444,0.21-3.553,0.63s-2.077,1.026-2.905,1.819c-0.828,0.795-1.476,1.75-1.941,2.871
		c-0.467,1.119-0.7,2.379-0.7,3.779v0.42c0,1.4,0.233,2.649,0.7,3.745c0.466,1.097,1.107,2.019,1.925,2.765
		c0.815,0.748,1.779,1.319,2.887,1.716c1.108,0.396,2.304,0.595,3.588,0.595c2.473,0,4.45-0.63,5.933-1.891
		c1.481-1.26,2.42-2.916,2.817-4.969L1056.981,264.311z M1019.672,258.605h3.149v8.961h-3.569v4.199h11.97v-4.199h-3.99v-5.601
		c0-1.26,0.28-2.228,0.84-2.905c0.561-0.676,1.33-1.015,2.311-1.015c0.979,0,1.715,0.286,2.205,0.858
		c0.489,0.572,0.734,1.336,0.734,2.291v0.49l4.55-0.42v-0.77c0-2.217-0.524-3.867-1.574-4.952c-1.051-1.086-2.439-1.628-4.165-1.628
		c-1.098,0-2.036,0.263-2.818,0.787c-0.782,0.525-1.336,1.267-1.662,2.223h-0.63v-2.52h-7.35V258.605z M1008.401,263.506
		c0,1.471-0.31,2.631-0.928,3.482c-0.618,0.853-1.592,1.277-2.922,1.277c-1.167,0-2.042-0.344-2.625-1.031
		c-0.584-0.688-0.875-1.651-0.875-2.889v-9.939h-4.41v10.85c0,1.189,0.157,2.223,0.472,3.098c0.315,0.875,0.753,1.604,1.313,2.188
		c0.56,0.584,1.213,1.015,1.96,1.295c0.746,0.279,1.551,0.42,2.415,0.42c2.543,0,4.2-1.003,4.97-3.01h0.63v2.52h4.41v-17.359h-4.41
		V263.506z M978.967,267.74c-0.561-0.209-1.05-0.512-1.471-0.909c-0.42-0.396-0.753-0.88-0.997-1.452
		c-0.245-0.572-0.367-1.219-0.367-1.943v-0.699c0-0.724,0.122-1.371,0.367-1.942c0.244-0.572,0.577-1.056,0.997-1.453
		c0.421-0.396,0.91-0.7,1.471-0.91c0.56-0.21,1.154-0.315,1.785-0.315c0.63,0,1.225,0.105,1.784,0.315
		c0.561,0.21,1.051,0.515,1.471,0.91c0.42,0.397,0.752,0.881,0.997,1.453c0.245,0.571,0.367,1.219,0.367,1.942v0.699
		c0,0.725-0.122,1.371-0.367,1.943s-0.577,1.057-0.997,1.452c-0.42,0.397-0.91,0.7-1.471,0.909c-0.56,0.211-1.154,0.315-1.784,0.315
		C980.121,268.056,979.526,267.951,978.967,267.74 M989.781,262.876c0-1.423-0.245-2.688-0.734-3.798
		c-0.49-1.107-1.155-2.047-1.995-2.817s-1.803-1.353-2.888-1.75c-1.086-0.396-2.223-0.595-3.412-0.595
		c-1.19,0-2.328,0.199-3.413,0.595c-1.085,0.397-2.047,0.979-2.888,1.75c-0.84,0.771-1.505,1.71-1.994,2.817
		c-0.49,1.109-0.735,2.375-0.735,3.798v0.42c0,1.446,0.245,2.726,0.735,3.833c0.489,1.107,1.154,2.042,1.994,2.8
		c0.841,0.759,1.803,1.336,2.888,1.732c1.085,0.396,2.223,0.595,3.413,0.595c1.189,0,2.326-0.199,3.412-0.595
		c1.085-0.396,2.048-0.974,2.888-1.732c0.84-0.758,1.505-1.692,1.995-2.8c0.489-1.107,0.734-2.387,0.734-3.833V262.876z
		 M954.991,258.309c0.373-0.268,0.934-0.402,1.681-0.402c0.815,0,1.48,0.181,1.995,0.543c0.513,0.361,0.875,0.856,1.085,1.486
		l3.989-1.609c-0.187-0.49-0.455-0.998-0.805-1.522s-0.805-1.003-1.365-1.437c-0.56-0.43-1.243-0.78-2.048-1.049
		c-0.805-0.268-1.756-0.402-2.852-0.402c-0.84,0-1.657,0.117-2.45,0.35c-0.794,0.234-1.494,0.578-2.101,1.033
		s-1.097,1.01-1.47,1.662c-0.374,0.654-0.56,1.412-0.56,2.275v0.209c0,1.658,0.577,2.912,1.731,3.763
		c1.155,0.853,2.713,1.36,4.673,1.522c0.724,0.07,1.324,0.164,1.803,0.28c0.478,0.117,0.857,0.263,1.138,0.438
		c0.28,0.175,0.472,0.361,0.577,0.56c0.104,0.198,0.158,0.414,0.158,0.647c0,0.396-0.205,0.765-0.613,1.103
		s-1.161,0.507-2.257,0.507c-1.237,0-2.153-0.279-2.748-0.84s-0.986-1.213-1.172-1.96l-4.061,1.33
		c0.116,0.606,0.345,1.231,0.683,1.873s0.822,1.224,1.453,1.75c0.63,0.524,1.423,0.962,2.38,1.312
		c0.956,0.351,2.11,0.525,3.465,0.525c2.286,0,4.06-0.514,5.319-1.54c1.261-1.026,1.891-2.403,1.891-4.13v-0.21
		c0-1.563-0.561-2.782-1.68-3.657c-1.12-0.875-2.567-1.406-4.341-1.593c-1.54-0.163-2.602-0.367-3.185-0.612
		c-0.584-0.246-0.875-0.648-0.875-1.208C954.432,258.91,954.617,258.577,954.991,258.309 M900.672,258.605h5.145v10.431
		c0,0.794,0.25,1.446,0.752,1.96s1.149,0.77,1.943,0.77h7.35v-4.199h-4.689c-0.63,0-0.945-0.351-0.945-1.051v-7.91h6.265v-4.199
		h-6.265v-7.141h-4.41v7.141h-5.145V258.605z M889.052,263.506c0,1.471-0.311,2.631-0.928,3.482
		c-0.618,0.853-1.593,1.277-2.923,1.277c-1.167,0-2.042-0.344-2.625-1.031c-0.584-0.688-0.875-1.651-0.875-2.889v-9.939h-4.409
		v10.85c0,1.189,0.156,2.223,0.472,3.098c0.314,0.875,0.753,1.604,1.312,2.188c0.561,0.584,1.213,1.015,1.96,1.295
		c0.746,0.279,1.552,0.42,2.415,0.42c2.543,0,4.2-1.003,4.971-3.01h0.63v2.52h4.41v-17.359h-4.41V263.506z M859.616,267.74
		c-0.56-0.209-1.05-0.512-1.47-0.909c-0.42-0.396-0.753-0.88-0.998-1.452s-0.367-1.219-0.367-1.943v-0.699
		c0-0.724,0.122-1.371,0.367-1.942c0.245-0.572,0.578-1.056,0.998-1.453c0.42-0.396,0.91-0.7,1.47-0.91
		c0.561-0.21,1.155-0.315,1.785-0.315s1.226,0.105,1.785,0.315s1.05,0.515,1.47,0.91c0.42,0.397,0.752,0.881,0.997,1.453
		c0.245,0.571,0.368,1.219,0.368,1.942v0.699c0,0.725-0.123,1.371-0.368,1.943s-0.577,1.057-0.997,1.452
		c-0.42,0.397-0.91,0.7-1.47,0.909c-0.56,0.211-1.155,0.315-1.785,0.315S860.177,267.951,859.616,267.74 M870.432,262.876
		c0-1.423-0.245-2.688-0.735-3.798c-0.489-1.107-1.154-2.047-1.995-2.817c-0.84-0.771-1.803-1.353-2.888-1.75
		c-1.085-0.396-2.222-0.595-3.412-0.595c-1.189,0-2.328,0.199-3.413,0.595c-1.085,0.397-2.047,0.979-2.887,1.75
		s-1.505,1.71-1.995,2.817c-0.49,1.109-0.735,2.375-0.735,3.798v0.42c0,1.446,0.245,2.726,0.735,3.833s1.155,2.042,1.995,2.8
		c0.84,0.759,1.802,1.336,2.887,1.732c1.085,0.396,2.224,0.595,3.413,0.595c1.19,0,2.327-0.199,3.412-0.595
		c1.085-0.396,2.048-0.974,2.888-1.732c0.841-0.758,1.506-1.692,1.995-2.8c0.49-1.107,0.735-2.387,0.735-3.833V262.876z
		 M834.504,266.742c-0.853-0.875-1.277-2.022-1.277-3.446v-0.42c0-1.423,0.425-2.572,1.277-3.447
		c0.852-0.875,1.966-1.313,3.343-1.313c1.376,0,2.49,0.427,3.342,1.277c0.853,0.854,1.278,2.014,1.278,3.483v0.42
		c0,1.47-0.426,2.631-1.278,3.483c-0.852,0.852-1.966,1.276-3.342,1.276C836.47,268.056,835.355,267.617,834.504,266.742
		 M833.227,269.246h0.63c0.21,0.396,0.46,0.775,0.752,1.138s0.653,0.683,1.085,0.962c0.433,0.28,0.939,0.502,1.523,0.665
		c0.583,0.163,1.271,0.245,2.064,0.245c1.073,0,2.07-0.191,2.992-0.577c0.922-0.385,1.721-0.957,2.398-1.716
		c0.676-0.757,1.213-1.686,1.609-2.782c0.396-1.096,0.596-2.356,0.596-3.78v-0.629c0-1.4-0.205-2.648-0.613-3.746
		c-0.408-1.096-0.957-2.023-1.646-2.783c-0.688-0.756-1.492-1.334-2.415-1.731c-0.922-0.396-1.896-0.595-2.922-0.595
		c-1.377,0-2.509,0.263-3.395,0.787c-0.887,0.525-1.564,1.267-2.03,2.223h-0.63v-9.66h-4.41v24.5h4.41V269.246z M809.917,266.779
		c-0.771-0.853-1.155-2.014-1.155-3.483v-0.42c0-1.47,0.385-2.63,1.155-3.483c0.77-0.851,1.796-1.277,3.079-1.277
		s2.311,0.427,3.08,1.277c0.771,0.854,1.155,2.014,1.155,3.483v0.42c0,1.47-0.385,2.631-1.155,3.483
		c-0.77,0.852-1.797,1.276-3.08,1.276S810.687,267.631,809.917,266.779 M817.547,269.246c0,0.746,0.25,1.354,0.752,1.82
		s1.148,0.699,1.942,0.699h3.011v-4.199h-0.665c-0.63,0-0.945-0.351-0.945-1.051v-12.109h-4.41v2.1h-0.63
		c-0.444-0.886-1.045-1.54-1.803-1.96s-1.756-0.63-2.992-0.63c-1.027,0-1.99,0.205-2.888,0.613
		c-0.898,0.408-1.687,0.996-2.362,1.767c-0.677,0.771-1.214,1.704-1.61,2.8c-0.396,1.098-0.595,2.334-0.595,3.71v0.56
		c0,1.4,0.204,2.649,0.612,3.746c0.407,1.097,0.963,2.029,1.663,2.8c0.699,0.77,1.51,1.354,2.432,1.75
		c0.922,0.396,1.908,0.595,2.958,0.595c1.12,0,2.1-0.227,2.94-0.682c0.84-0.457,1.492-1.231,1.96-2.328H817.547z M762.352,262.736
		c0-1.471,0.32-2.643,0.962-3.518s1.616-1.312,2.923-1.312c1.12,0,1.978,0.355,2.572,1.068c0.595,0.711,0.893,1.686,0.893,2.922
		v9.869h4.41v-10.99c0-1.189-0.158-2.215-0.473-3.08c-0.315-0.862-0.752-1.574-1.312-2.135c-0.56-0.56-1.208-0.974-1.942-1.242
		c-0.735-0.268-1.522-0.402-2.362-0.402c-1.189,0-2.229,0.27-3.115,0.805c-0.887,0.537-1.528,1.295-1.925,2.275h-0.63v-2.59h-4.41
		v17.359h4.41V262.736z M740.267,267.74c-0.56-0.209-1.05-0.512-1.47-0.909c-0.42-0.396-0.753-0.88-0.998-1.452
		s-0.367-1.219-0.367-1.943v-0.699c0-0.724,0.122-1.371,0.367-1.942c0.245-0.572,0.578-1.056,0.998-1.453
		c0.42-0.396,0.91-0.7,1.47-0.91s1.155-0.315,1.785-0.315s1.225,0.105,1.785,0.315c0.56,0.21,1.05,0.515,1.47,0.91
		c0.42,0.397,0.752,0.881,0.997,1.453c0.245,0.571,0.368,1.219,0.368,1.942v0.699c0,0.725-0.123,1.371-0.368,1.943
		s-0.577,1.057-0.997,1.452c-0.42,0.397-0.91,0.7-1.47,0.909c-0.561,0.211-1.155,0.315-1.785,0.315S740.826,267.951,740.267,267.74
		 M751.082,262.876c0-1.423-0.245-2.688-0.735-3.798c-0.49-1.107-1.155-2.047-1.995-2.817s-1.803-1.353-2.888-1.75
		c-1.085-0.396-2.223-0.595-3.412-0.595c-1.19,0-2.328,0.199-3.413,0.595c-1.085,0.397-2.047,0.979-2.887,1.75
		c-0.841,0.771-1.506,1.71-1.995,2.817c-0.49,1.109-0.735,2.375-0.735,3.798v0.42c0,1.446,0.245,2.726,0.735,3.833
		c0.489,1.107,1.154,2.042,1.995,2.8c0.84,0.759,1.802,1.336,2.887,1.732c1.085,0.396,2.223,0.595,3.413,0.595
		c1.189,0,2.327-0.199,3.412-0.595c1.085-0.396,2.048-0.974,2.888-1.732c0.84-0.758,1.505-1.692,1.995-2.8s0.735-2.387,0.735-3.833
		V262.876z M721.629,247.949c-0.176-0.408-0.414-0.758-0.718-1.051c-0.304-0.291-0.659-0.524-1.067-0.699
		c-0.408-0.176-0.834-0.264-1.277-0.264c-0.467,0-0.898,0.088-1.295,0.264c-0.396,0.175-0.747,0.408-1.05,0.699
		c-0.304,0.293-0.543,0.643-0.718,1.051c-0.176,0.408-0.263,0.846-0.263,1.312c0,0.468,0.087,0.905,0.263,1.313
		c0.175,0.408,0.414,0.758,0.718,1.05c0.303,0.292,0.653,0.524,1.05,0.7c0.396,0.175,0.828,0.262,1.295,0.262
		c0.443,0,0.869-0.087,1.277-0.262c0.408-0.176,0.764-0.408,1.067-0.7s0.542-0.642,0.718-1.05c0.175-0.408,0.263-0.846,0.263-1.313
		C721.892,248.795,721.804,248.357,721.629,247.949 M710.517,271.766h15.33v-4.199h-5.04v-13.16h-9.87v4.199h5.46v8.961h-5.88
		V271.766z M685.842,258.605h5.145v10.431c0,0.794,0.25,1.446,0.752,1.96s1.149,0.77,1.943,0.77h7.35v-4.199h-4.689
		c-0.63,0-0.945-0.351-0.945-1.051v-7.91h6.265v-4.199h-6.265v-7.141h-4.41v7.141h-5.145V258.605z M666.696,266.779
		c-0.77-0.853-1.154-2.014-1.154-3.483v-0.42c0-1.47,0.385-2.63,1.154-3.483c0.771-0.851,1.796-1.277,3.08-1.277
		c1.283,0,2.311,0.427,3.08,1.277c0.771,0.854,1.155,2.014,1.155,3.483v0.42c0,1.47-0.385,2.631-1.155,3.483
		c-0.77,0.852-1.797,1.276-3.08,1.276C668.492,268.056,667.467,267.631,666.696,266.779 M674.326,269.246
		c0,0.746,0.25,1.354,0.752,1.82s1.149,0.699,1.943,0.699h3.01v-4.199h-0.665c-0.63,0-0.944-0.351-0.944-1.051v-12.109h-4.41v2.1
		h-0.63c-0.444-0.886-1.045-1.54-1.804-1.96c-0.758-0.42-1.756-0.63-2.991-0.63c-1.027,0-1.99,0.205-2.889,0.613
		c-0.897,0.408-1.686,0.996-2.361,1.767c-0.678,0.771-1.214,1.704-1.61,2.8c-0.396,1.098-0.595,2.334-0.595,3.71v0.56
		c0,1.4,0.204,2.649,0.611,3.746c0.408,1.097,0.964,2.029,1.663,2.8c0.7,0.77,1.511,1.354,2.433,1.75
		c0.922,0.396,1.907,0.595,2.958,0.595c1.12,0,2.1-0.227,2.939-0.682c0.84-0.457,1.493-1.231,1.96-2.328H674.326z M656.021,258.326
		c0-1.377-0.35-2.455-1.05-3.238c-0.7-0.781-1.634-1.172-2.8-1.172c-0.888,0-1.628,0.205-2.224,0.613
		c-0.595,0.408-0.985,0.927-1.172,1.557h-0.63c-0.187-0.63-0.549-1.148-1.085-1.557c-0.537-0.408-1.19-0.613-1.96-0.613
		c-0.817,0-1.476,0.205-1.979,0.613c-0.502,0.408-0.821,0.927-0.962,1.557h-0.63v-1.68h-4.41v17.359h4.41v-11.97
		c0-0.56,0.141-0.979,0.42-1.26c0.28-0.28,0.631-0.421,1.051-0.421c0.373,0,0.693,0.123,0.962,0.369
		c0.268,0.244,0.402,0.611,0.402,1.102v12.18h4.41v-11.97c0-0.56,0.134-0.979,0.402-1.26c0.268-0.28,0.636-0.421,1.103-0.421
		c0.396,0,0.717,0.123,0.962,0.369c0.245,0.244,0.368,0.611,0.368,1.102v12.18h4.41V258.326z M613.882,258.605h3.149v8.961h-3.569
		v4.199h11.97v-4.199h-3.99v-5.601c0-1.26,0.28-2.228,0.84-2.905c0.561-0.676,1.33-1.015,2.311-1.015
		c0.979,0,1.715,0.286,2.205,0.858c0.489,0.572,0.734,1.336,0.734,2.291v0.49l4.551-0.42v-0.77c0-2.217-0.525-3.867-1.575-4.952
		c-1.05-1.086-2.439-1.628-4.165-1.628c-1.098,0-2.036,0.263-2.818,0.787c-0.782,0.525-1.336,1.267-1.662,2.223h-0.63v-2.52h-7.35
		V258.605z M597.047,267.74c-0.561-0.209-1.051-0.512-1.471-0.909c-0.42-0.396-0.753-0.88-0.998-1.452
		c-0.244-0.572-0.366-1.219-0.366-1.943v-0.699c0-0.724,0.122-1.371,0.366-1.942c0.245-0.572,0.578-1.056,0.998-1.453
		c0.42-0.396,0.91-0.7,1.471-0.91c0.56-0.21,1.154-0.315,1.785-0.315c0.63,0,1.225,0.105,1.784,0.315
		c0.561,0.21,1.051,0.515,1.471,0.91c0.42,0.397,0.752,0.881,0.997,1.453c0.244,0.571,0.367,1.219,0.367,1.942v0.699
		c0,0.725-0.123,1.371-0.367,1.943c-0.245,0.572-0.577,1.057-0.997,1.452c-0.42,0.397-0.91,0.7-1.471,0.909
		c-0.56,0.211-1.154,0.315-1.784,0.315C598.201,268.056,597.606,267.951,597.047,267.74 M607.861,262.876
		c0-1.423-0.245-2.688-0.734-3.798c-0.49-1.107-1.155-2.047-1.995-2.817s-1.804-1.353-2.889-1.75
		c-1.085-0.396-2.222-0.595-3.411-0.595c-1.19,0-2.328,0.199-3.413,0.595c-1.085,0.397-2.048,0.979-2.888,1.75
		s-1.505,1.71-1.995,2.817c-0.489,1.109-0.734,2.375-0.734,3.798v0.42c0,1.446,0.245,2.726,0.734,3.833
		c0.49,1.107,1.155,2.042,1.995,2.8c0.84,0.759,1.803,1.336,2.888,1.732c1.085,0.396,2.223,0.595,3.413,0.595
		c1.189,0,2.326-0.199,3.411-0.595c1.085-0.396,2.049-0.974,2.889-1.732c0.84-0.758,1.505-1.692,1.995-2.8
		c0.489-1.107,0.734-2.387,0.734-3.833V262.876z M566.842,258.605h4.935v13.16h4.41v-13.16h6.825v-4.199h-6.825v-1.891
		c0-0.699,0.315-1.05,0.945-1.05h5.25v-4.2h-7.07c-1.004,0-1.844,0.346-2.52,1.033c-0.677,0.688-1.015,1.534-1.015,2.537v3.57
		h-4.935V258.605z M547.521,262.736c0-1.471,0.32-2.643,0.962-3.518c0.642-0.875,1.616-1.312,2.923-1.312
		c1.12,0,1.977,0.355,2.572,1.068c0.595,0.711,0.893,1.686,0.893,2.922v9.869h4.41v-10.99c0-1.189-0.158-2.215-0.473-3.08
		c-0.315-0.862-0.752-1.574-1.312-2.135c-0.56-0.56-1.208-0.974-1.943-1.242c-0.735-0.268-1.522-0.402-2.362-0.402
		c-1.19,0-2.229,0.27-3.115,0.805c-0.887,0.537-1.529,1.295-1.925,2.275h-0.63v-2.59h-4.41v17.359h4.41V262.736z M530.668,247.949
		c-0.175-0.408-0.414-0.758-0.717-1.051c-0.304-0.291-0.66-0.524-1.068-0.699c-0.408-0.176-0.834-0.264-1.277-0.264
		c-0.467,0-0.899,0.088-1.295,0.264c-0.397,0.175-0.747,0.408-1.05,0.699c-0.304,0.293-0.543,0.643-0.718,1.051
		c-0.175,0.408-0.262,0.846-0.262,1.312c0,0.468,0.087,0.905,0.262,1.313c0.175,0.408,0.414,0.758,0.718,1.05
		c0.303,0.292,0.653,0.524,1.05,0.7c0.396,0.175,0.828,0.262,1.295,0.262c0.443,0,0.869-0.087,1.277-0.262
		c0.408-0.176,0.764-0.408,1.068-0.7c0.303-0.292,0.542-0.642,0.717-1.05c0.175-0.408,0.263-0.846,0.263-1.313
		C530.932,248.795,530.844,248.357,530.668,247.949 M519.557,271.766h15.33v-4.199h-5.04v-13.16h-9.87v4.199h5.46v8.961h-5.88
		V271.766z M475.999,266.779c-0.852-0.853-1.277-2.014-1.277-3.483v-0.42c0-1.47,0.425-2.63,1.277-3.483
		c0.852-0.851,1.966-1.277,3.343-1.277c1.376,0,2.49,0.438,3.342,1.313s1.278,2.024,1.278,3.447v0.42
		c0,1.424-0.426,2.571-1.278,3.446s-1.966,1.313-3.342,1.313C477.964,268.056,476.851,267.631,475.999,266.779 M483.961,271.766
		h4.41v-24.5h-4.41v9.66h-0.63c-0.467-0.956-1.109-1.697-1.925-2.223c-0.817-0.524-1.925-0.787-3.325-0.787
		c-1.05,0-2.048,0.199-2.993,0.595c-0.945,0.397-1.773,0.976-2.485,1.731c-0.712,0.76-1.272,1.688-1.68,2.783
		c-0.408,1.098-0.612,2.346-0.612,3.746v0.629c0,1.424,0.192,2.685,0.577,3.78c0.385,1.097,0.922,2.025,1.61,2.782
		c0.688,0.759,1.493,1.331,2.415,1.716c0.922,0.386,1.919,0.577,2.993,0.577c0.84,0,1.557-0.082,2.152-0.245
		c0.595-0.163,1.108-0.385,1.54-0.665c0.432-0.279,0.782-0.6,1.05-0.962s0.496-0.741,0.683-1.138h0.63V271.766z M452.042,262.736
		c0-1.471,0.32-2.643,0.962-3.518s1.616-1.312,2.923-1.312c1.12,0,1.977,0.355,2.572,1.068c0.595,0.711,0.893,1.686,0.893,2.922
		v9.869h4.41v-10.99c0-1.189-0.158-2.215-0.473-3.08c-0.315-0.862-0.752-1.574-1.312-2.135c-0.56-0.56-1.208-0.974-1.943-1.242
		c-0.735-0.268-1.522-0.402-2.362-0.402c-1.19,0-2.229,0.27-3.115,0.805c-0.887,0.537-1.529,1.295-1.925,2.275h-0.63v-2.59h-4.41
		v17.359h4.41V262.736z M427.997,266.779c-0.77-0.853-1.155-2.014-1.155-3.483v-0.42c0-1.47,0.385-2.63,1.155-3.483
		c0.77-0.851,1.796-1.277,3.08-1.277c1.283,0,2.31,0.427,3.08,1.277c0.77,0.854,1.155,2.014,1.155,3.483v0.42
		c0,1.47-0.385,2.631-1.155,3.483c-0.77,0.852-1.797,1.276-3.08,1.276C429.792,268.056,428.767,267.631,427.997,266.779
		 M435.626,269.246c0,0.746,0.25,1.354,0.753,1.82c0.501,0.467,1.148,0.699,1.942,0.699h3.01v-4.199h-0.665
		c-0.63,0-0.945-0.351-0.945-1.051v-12.109h-4.41v2.1h-0.63c-0.444-0.886-1.045-1.54-1.802-1.96c-0.759-0.42-1.757-0.63-2.993-0.63
		c-1.027,0-1.99,0.205-2.888,0.613s-1.686,0.996-2.362,1.767c-0.677,0.771-1.214,1.704-1.61,2.8
		c-0.397,1.098-0.595,2.334-0.595,3.71v0.56c0,1.4,0.204,2.649,0.613,3.746c0.407,1.097,0.962,2.029,1.662,2.8
		c0.7,0.77,1.51,1.354,2.433,1.75c0.921,0.396,1.907,0.595,2.957,0.595c1.12,0,2.1-0.227,2.94-0.682
		c0.84-0.457,1.493-1.231,1.96-2.328H435.626z"/>
	<path clip-path="url(#SVGID_2_)" fill="#231F20" d="M978.861,211.306c0.373-0.269,0.934-0.403,1.681-0.403
		c0.815,0,1.48,0.182,1.995,0.542c0.513,0.363,0.875,0.858,1.084,1.488l3.99-1.61c-0.187-0.49-0.455-0.998-0.805-1.521
		c-0.35-0.525-0.805-1.004-1.365-1.436c-0.56-0.432-1.243-0.781-2.048-1.051c-0.805-0.268-1.756-0.402-2.852-0.402
		c-0.841,0-1.657,0.117-2.45,0.351c-0.794,0.233-1.494,0.577-2.101,1.032s-1.097,1.01-1.47,1.662
		c-0.374,0.654-0.56,1.412-0.56,2.275v0.21c0,1.657,0.577,2.911,1.731,3.763c1.155,0.853,2.713,1.359,4.673,1.522
		c0.723,0.069,1.324,0.164,1.803,0.28c0.478,0.117,0.857,0.263,1.138,0.437c0.28,0.175,0.472,0.363,0.577,0.56
		c0.104,0.199,0.158,0.416,0.158,0.648c0,0.396-0.205,0.766-0.613,1.102c-0.408,0.34-1.161,0.509-2.257,0.509
		c-1.238,0-2.153-0.28-2.748-0.841c-0.596-0.56-0.986-1.213-1.172-1.959l-4.061,1.33c0.116,0.606,0.344,1.23,0.683,1.871
		c0.338,0.644,0.822,1.227,1.452,1.75c0.631,0.525,1.424,0.963,2.381,1.313c0.955,0.351,2.11,0.524,3.465,0.524
		c2.286,0,4.06-0.513,5.319-1.539c1.261-1.026,1.891-2.403,1.891-4.131v-0.209c0-1.563-0.561-2.783-1.681-3.658
		c-1.119-0.875-2.566-1.405-4.34-1.592c-1.54-0.164-2.602-0.369-3.185-0.613c-0.584-0.244-0.875-0.647-0.875-1.207
		C978.302,211.906,978.487,211.573,978.861,211.306 M948.412,211.603h5.145v10.431c0,0.793,0.25,1.446,0.752,1.959
		c0.502,0.514,1.149,0.771,1.943,0.771h7.35v-4.2h-4.689c-0.631,0-0.945-0.35-0.945-1.05v-7.91h6.265v-4.2h-6.265v-7.14h-4.41v7.14
		h-5.145V211.603z M929.441,215.732c0-1.47,0.32-2.643,0.962-3.518c0.643-0.875,1.616-1.312,2.923-1.312
		c1.12,0,1.978,0.355,2.572,1.067c0.595,0.713,0.894,1.687,0.894,2.923v9.87h4.409v-10.99c0-1.19-0.157-2.216-0.473-3.08
		c-0.314-0.862-0.752-1.575-1.312-2.135c-0.561-0.56-1.208-0.974-1.943-1.243c-0.735-0.268-1.522-0.402-2.362-0.402
		c-1.189,0-2.229,0.27-3.115,0.805c-0.887,0.537-1.528,1.296-1.925,2.275h-0.63v-2.59h-4.41v17.36h4.41V215.732z M911.993,211.707
		c0.735,0.537,1.174,1.215,1.313,2.03h-8.19c0.21-0.745,0.665-1.405,1.365-1.978c0.7-0.571,1.61-0.857,2.73-0.857
		S911.259,211.172,911.993,211.707 M917.787,217.518v-2.346c0-0.909-0.164-1.849-0.49-2.817c-0.327-0.967-0.84-1.854-1.54-2.66
		c-0.7-0.804-1.587-1.47-2.66-1.993c-1.074-0.525-2.357-0.789-3.851-0.789c-1.214,0-2.351,0.217-3.412,0.647
		c-1.062,0.433-1.989,1.032-2.782,1.803c-0.794,0.771-1.418,1.704-1.873,2.8c-0.455,1.098-0.683,2.311-0.683,3.641v0.21
		c0,1.446,0.216,2.741,0.647,3.885s1.038,2.112,1.82,2.905c0.782,0.794,1.709,1.4,2.782,1.82s2.264,0.629,3.57,0.629
		c1.144,0,2.141-0.129,2.992-0.385s1.575-0.582,2.17-0.979c0.595-0.396,1.079-0.834,1.453-1.313
		c0.373-0.477,0.665-0.938,0.875-1.382l-3.78-2.101c-0.257,0.537-0.677,0.998-1.26,1.383c-0.584,0.386-1.424,0.578-2.521,0.578
		c-0.56,0-1.091-0.088-1.593-0.264c-0.502-0.174-0.944-0.42-1.33-0.733c-0.385-0.315-0.688-0.688-0.909-1.121
		c-0.223-0.431-0.345-0.903-0.367-1.417H917.787z M894.722,211.322c0-1.376-0.351-2.455-1.05-3.236
		c-0.7-0.782-1.635-1.174-2.801-1.174c-0.887,0-1.628,0.205-2.223,0.613s-0.986,0.928-1.172,1.557h-0.63
		c-0.188-0.629-0.549-1.148-1.085-1.557c-0.537-0.408-1.19-0.613-1.96-0.613c-0.817,0-1.477,0.205-1.979,0.613
		s-0.821,0.928-0.962,1.557h-0.63v-1.68h-4.41v17.36h4.41v-11.97c0-0.561,0.14-0.98,0.42-1.26c0.28-0.281,0.63-0.421,1.05-0.421
		c0.373,0,0.694,0.123,0.963,0.367c0.268,0.245,0.402,0.612,0.402,1.103v12.181h4.41v-11.97c0-0.561,0.134-0.98,0.402-1.26
		c0.268-0.281,0.636-0.421,1.103-0.421c0.396,0,0.717,0.123,0.962,0.367c0.245,0.245,0.368,0.612,0.368,1.103v12.181h4.41V211.322z
		 M857.849,219.775c-0.853-0.852-1.277-2.013-1.277-3.482v-0.42c0-1.471,0.425-2.631,1.277-3.482
		c0.852-0.852,1.966-1.278,3.343-1.278c1.376,0,2.49,0.438,3.342,1.313c0.853,0.875,1.278,2.023,1.278,3.447v0.42
		c0,1.424-0.426,2.572-1.278,3.447c-0.852,0.875-1.966,1.312-3.342,1.312C859.814,221.053,858.7,220.627,857.849,219.775
		 M865.812,226.513c0,0.7-0.315,1.05-0.945,1.05h-9.029v4.2h11.689c0.793,0,1.44-0.257,1.942-0.771s0.753-1.166,0.753-1.959v-21.631
		h-4.41v2.52h-0.63c-0.467-0.955-1.109-1.697-1.925-2.221c-0.817-0.525-1.925-0.789-3.325-0.789c-1.05,0-2.048,0.199-2.993,0.596
		s-1.772,0.975-2.485,1.732c-0.712,0.758-1.271,1.686-1.68,2.782s-0.611,2.345-0.611,3.745v0.63c0,1.424,0.191,2.685,0.576,3.78
		c0.386,1.097,0.922,2.025,1.61,2.783s1.493,1.328,2.415,1.715c0.922,0.384,1.919,0.576,2.993,0.576c0.84,0,1.557-0.082,2.151-0.244
		c0.596-0.164,1.108-0.385,1.54-0.666c0.433-0.279,0.782-0.6,1.051-0.963c0.268-0.36,0.495-0.739,0.683-1.137h0.63V226.513z
		 M833.787,219.775c-0.771-0.852-1.155-2.013-1.155-3.482v-0.42c0-1.471,0.385-2.631,1.155-3.482
		c0.77-0.852,1.796-1.278,3.079-1.278s2.311,0.427,3.08,1.278c0.771,0.852,1.155,2.012,1.155,3.482v0.42
		c0,1.47-0.385,2.631-1.155,3.482c-0.77,0.852-1.797,1.277-3.08,1.277S834.557,220.627,833.787,219.775 M841.417,222.242
		c0,0.747,0.25,1.354,0.752,1.82c0.502,0.467,1.148,0.7,1.942,0.7h3.01v-4.2h-0.664c-0.631,0-0.945-0.35-0.945-1.05v-12.11h-4.41
		v2.1h-0.63c-0.444-0.885-1.045-1.539-1.803-1.959c-0.759-0.42-1.757-0.631-2.992-0.631c-1.027,0-1.99,0.205-2.888,0.613
		c-0.898,0.408-1.687,0.997-2.362,1.768c-0.677,0.77-1.214,1.703-1.61,2.799c-0.396,1.098-0.595,2.334-0.595,3.711v0.56
		c0,1.4,0.204,2.649,0.612,3.745c0.407,1.098,0.963,2.03,1.662,2.801c0.7,0.77,1.511,1.354,2.433,1.75
		c0.922,0.396,1.908,0.594,2.958,0.594c1.12,0,2.1-0.227,2.939-0.683c0.841-0.454,1.493-1.229,1.961-2.327H841.417z
		 M804.842,211.603h3.149v8.96h-3.569v4.2h11.97v-4.2h-3.99v-5.6c0-1.26,0.28-2.229,0.84-2.905c0.561-0.677,1.33-1.015,2.311-1.015
		c0.979,0,1.715,0.285,2.205,0.857c0.489,0.572,0.734,1.336,0.734,2.292v0.49l4.551-0.42v-0.771c0-2.216-0.525-3.867-1.575-4.953
		c-1.05-1.084-2.439-1.627-4.165-1.627c-1.097,0-2.036,0.264-2.818,0.789c-0.782,0.523-1.336,1.266-1.662,2.221h-0.63v-2.52h-7.35
		V211.603z M781.672,211.603h4.935v13.16h4.41v-13.16h6.825v-4.2h-6.825v-1.89c0-0.7,0.315-1.05,0.945-1.05h5.25v-4.2h-7.07
		c-1.004,0-1.844,0.345-2.521,1.032c-0.677,0.688-1.015,1.535-1.015,2.537v3.57h-4.935V211.603z M733.967,224.763h16.17v-4.2h-5.67
		v-20.3h-10.29v4.2h5.88v16.1h-6.09V224.763z M710.097,224.763h16.17v-4.2h-5.67v-20.3h-10.29v4.2h5.88v16.1h-6.09V224.763z
		 M690.566,219.775c-0.77-0.852-1.154-2.013-1.154-3.482v-0.42c0-1.471,0.385-2.631,1.154-3.482c0.771-0.852,1.796-1.278,3.08-1.278
		c1.283,0,2.311,0.427,3.08,1.278s1.155,2.012,1.155,3.482v0.42c0,1.47-0.386,2.631-1.155,3.482s-1.797,1.277-3.08,1.277
		C692.362,221.053,691.337,220.627,690.566,219.775 M698.196,222.242c0,0.747,0.25,1.354,0.752,1.82
		c0.502,0.467,1.149,0.7,1.943,0.7h3.01v-4.2h-0.665c-0.63,0-0.944-0.35-0.944-1.05v-12.11h-4.41v2.1h-0.63
		c-0.444-0.885-1.045-1.539-1.804-1.959c-0.758-0.42-1.756-0.631-2.991-0.631c-1.027,0-1.99,0.205-2.889,0.613
		c-0.897,0.408-1.686,0.997-2.361,1.768c-0.678,0.77-1.215,1.703-1.61,2.799c-0.397,1.098-0.595,2.334-0.595,3.711v0.56
		c0,1.4,0.203,2.649,0.611,3.745c0.408,1.098,0.963,2.03,1.663,2.801c0.7,0.77,1.511,1.354,2.433,1.75
		c0.922,0.396,1.907,0.594,2.958,0.594c1.12,0,2.1-0.227,2.939-0.683c0.84-0.454,1.493-1.229,1.96-2.327H698.196z M638.451,211.603
		h4.936v13.16h4.41v-13.16h6.824v-4.2h-6.824v-1.89c0-0.7,0.314-1.05,0.944-1.05h5.25v-4.2h-7.069c-1.004,0-1.845,0.345-2.521,1.032
		c-0.677,0.688-1.015,1.535-1.015,2.537v3.57h-4.936V211.603z M620.917,220.737c-0.561-0.21-1.051-0.513-1.471-0.909
		s-0.753-0.881-0.998-1.453c-0.245-0.571-0.366-1.219-0.366-1.942v-0.7c0-0.723,0.121-1.37,0.366-1.943
		c0.245-0.57,0.578-1.055,0.998-1.451s0.91-0.7,1.471-0.91c0.56-0.211,1.154-0.315,1.784-0.315c0.631,0,1.226,0.104,1.785,0.315
		c0.561,0.21,1.05,0.514,1.471,0.91c0.42,0.396,0.752,0.881,0.996,1.451c0.245,0.573,0.368,1.221,0.368,1.943v0.7
		c0,0.724-0.123,1.371-0.368,1.942c-0.244,0.572-0.576,1.057-0.996,1.453c-0.421,0.396-0.91,0.699-1.471,0.909
		c-0.56,0.21-1.154,0.315-1.785,0.315C622.071,221.053,621.477,220.947,620.917,220.737 M631.731,215.873
		c0-1.424-0.245-2.689-0.735-3.799c-0.489-1.107-1.154-2.047-1.994-2.816c-0.841-0.771-1.804-1.354-2.889-1.75
		s-2.222-0.596-3.412-0.596c-1.189,0-2.327,0.199-3.412,0.596c-1.086,0.396-2.048,0.979-2.888,1.75
		c-0.84,0.77-1.505,1.709-1.995,2.816c-0.489,1.109-0.734,2.375-0.734,3.799v0.42c0,1.446,0.245,2.725,0.734,3.832
		c0.49,1.108,1.155,2.043,1.995,2.801s1.802,1.336,2.888,1.732c1.085,0.396,2.223,0.594,3.412,0.594c1.19,0,2.327-0.198,3.412-0.594
		c1.085-0.396,2.048-0.975,2.889-1.732c0.84-0.758,1.505-1.692,1.994-2.801c0.49-1.107,0.735-2.386,0.735-3.832V215.873z
		 M571.409,219.775c-0.852-0.852-1.277-2.013-1.277-3.482v-0.42c0-1.471,0.425-2.631,1.277-3.482s1.966-1.278,3.343-1.278
		c1.376,0,2.49,0.438,3.342,1.313s1.278,2.023,1.278,3.447v0.42c0,1.424-0.426,2.572-1.278,3.447s-1.966,1.312-3.342,1.312
		C573.375,221.053,572.261,220.627,571.409,219.775 M579.372,226.513c0,0.7-0.315,1.05-0.945,1.05h-9.03v4.2h11.69
		c0.793,0,1.44-0.257,1.942-0.771c0.502-0.514,0.753-1.166,0.753-1.959v-21.631h-4.41v2.52h-0.63
		c-0.467-0.955-1.109-1.697-1.925-2.221c-0.817-0.525-1.925-0.789-3.325-0.789c-1.05,0-2.048,0.199-2.993,0.596
		s-1.773,0.975-2.485,1.732s-1.272,1.686-1.68,2.782c-0.408,1.097-0.612,2.345-0.612,3.745v0.63c0,1.424,0.192,2.685,0.577,3.78
		c0.385,1.097,0.922,2.025,1.61,2.783s1.493,1.328,2.415,1.715c0.922,0.384,1.919,0.576,2.993,0.576c0.84,0,1.557-0.082,2.152-0.244
		c0.595-0.164,1.108-0.385,1.54-0.666c0.432-0.279,0.782-0.6,1.05-0.963c0.268-0.36,0.496-0.739,0.683-1.137h0.63V226.513z
		 M547.521,215.732c0-1.47,0.32-2.643,0.962-3.518c0.642-0.875,1.616-1.312,2.923-1.312c1.12,0,1.977,0.355,2.572,1.067
		c0.595,0.713,0.893,1.687,0.893,2.923v9.87h4.41v-10.99c0-1.19-0.158-2.216-0.473-3.08c-0.315-0.862-0.752-1.575-1.312-2.135
		s-1.208-0.974-1.943-1.243c-0.735-0.268-1.522-0.402-2.362-0.402c-1.19,0-2.229,0.27-3.115,0.805
		c-0.887,0.537-1.529,1.296-1.925,2.275h-0.63v-2.59h-4.41v17.36h4.41V215.732z M530.668,200.944
		c-0.175-0.407-0.414-0.757-0.717-1.049c-0.304-0.292-0.66-0.524-1.068-0.701c-0.408-0.174-0.834-0.262-1.277-0.262
		c-0.467,0-0.899,0.088-1.295,0.262c-0.397,0.177-0.747,0.409-1.05,0.701c-0.304,0.292-0.543,0.642-0.718,1.049
		c-0.175,0.409-0.262,0.847-0.262,1.313s0.087,0.904,0.262,1.312c0.175,0.409,0.414,0.759,0.718,1.052
		c0.303,0.291,0.653,0.524,1.05,0.698c0.396,0.177,0.828,0.263,1.295,0.263c0.443,0,0.869-0.086,1.277-0.263
		c0.408-0.174,0.764-0.407,1.068-0.698c0.303-0.293,0.542-0.643,0.717-1.052c0.175-0.407,0.263-0.845,0.263-1.312
		S530.844,201.354,530.668,200.944 M519.557,224.763h15.33v-4.2h-5.04v-13.16h-9.87v4.2h5.46v8.96h-5.88V224.763z M494.882,211.603
		h5.145v10.431c0,0.793,0.25,1.446,0.752,1.959c0.502,0.514,1.149,0.771,1.943,0.771h7.35v-4.2h-4.69c-0.63,0-0.945-0.35-0.945-1.05
		v-7.91h6.265v-4.2h-6.265v-7.14h-4.41v7.14h-5.145V211.603z M477.592,211.306c0.373-0.269,0.933-0.403,1.68-0.403
		c0.816,0,1.481,0.182,1.995,0.542c0.513,0.363,0.875,0.858,1.085,1.488l3.99-1.61c-0.187-0.49-0.455-0.998-0.805-1.521
		c-0.35-0.525-0.805-1.004-1.365-1.436c-0.56-0.432-1.243-0.781-2.048-1.051c-0.805-0.268-1.756-0.402-2.852-0.402
		c-0.84,0-1.657,0.117-2.45,0.351c-0.794,0.233-1.494,0.577-2.1,1.032c-0.607,0.455-1.097,1.01-1.47,1.662
		c-0.374,0.654-0.56,1.412-0.56,2.275v0.21c0,1.657,0.577,2.911,1.732,3.763c1.155,0.853,2.713,1.359,4.673,1.522
		c0.723,0.069,1.324,0.164,1.802,0.28c0.478,0.117,0.858,0.263,1.138,0.437c0.28,0.175,0.472,0.363,0.577,0.56
		c0.105,0.199,0.158,0.416,0.158,0.648c0,0.396-0.205,0.766-0.613,1.102c-0.408,0.34-1.161,0.509-2.257,0.509
		c-1.237,0-2.153-0.28-2.748-0.841c-0.595-0.56-0.986-1.213-1.172-1.959l-4.06,1.33c0.116,0.606,0.344,1.23,0.682,1.871
		c0.338,0.644,0.823,1.227,1.453,1.75c0.63,0.525,1.423,0.963,2.38,1.313c0.956,0.351,2.111,0.524,3.465,0.524
		c2.286,0,4.06-0.513,5.32-1.539c1.26-1.026,1.89-2.403,1.89-4.131v-0.209c0-1.563-0.56-2.783-1.68-3.658s-2.567-1.405-4.34-1.592
		c-1.54-0.164-2.602-0.369-3.185-0.613c-0.584-0.244-0.875-0.647-0.875-1.207C477.032,211.906,477.218,211.573,477.592,211.306
		 M459.06,200.944c-0.176-0.407-0.415-0.757-0.718-1.049c-0.304-0.292-0.66-0.524-1.068-0.701c-0.408-0.174-0.834-0.262-1.277-0.262
		c-0.467,0-0.899,0.088-1.295,0.262c-0.397,0.177-0.747,0.409-1.05,0.701c-0.304,0.292-0.543,0.642-0.717,1.049
		c-0.176,0.409-0.263,0.847-0.263,1.313s0.087,0.904,0.263,1.312c0.174,0.409,0.413,0.759,0.717,1.052
		c0.303,0.291,0.653,0.524,1.05,0.698c0.396,0.177,0.828,0.263,1.295,0.263c0.443,0,0.869-0.086,1.277-0.263
		c0.408-0.174,0.764-0.407,1.068-0.698c0.303-0.293,0.542-0.643,0.718-1.052c0.174-0.407,0.262-0.845,0.262-1.312
		S459.233,201.354,459.06,200.944 M447.947,224.763h15.33v-4.2h-5.04v-13.16h-9.87v4.2h5.46v8.96h-5.88V224.763z M423.901,224.763
		h15.75v-4.41h-11.13v-20.09h-4.62V224.763z"/>
	<path clip-path="url(#SVGID_2_)" fill="#231F20" d="M648.75,509.461c1.71,3.84,3.963,7.18,6.761,10.016
		c2.795,2.838,6.135,5.111,10.016,6.824c3.883,1.709,8.033,2.566,12.458,2.566c4.258,0,8.347-0.857,12.271-2.566
		c3.923-1.713,7.303-3.986,10.142-6.824c2.837-2.836,5.112-6.176,6.824-10.016c1.709-3.84,2.566-7.971,2.566-12.396
		c0-4.256-0.857-8.346-2.566-12.27c-1.712-3.924-3.987-7.303-6.824-10.143c-2.839-2.836-6.219-5.111-10.142-6.824
		c-3.924-1.709-8.013-2.564-12.271-2.564c-4.425,0-8.575,0.855-12.458,2.564c-3.881,1.713-7.221,3.988-10.016,6.824
		c-2.798,2.84-5.051,6.219-6.761,10.143c-1.712,3.924-2.567,8.014-2.567,12.27C646.183,501.49,647.038,505.621,648.75,509.461
		 M497.439,489.928c3.255-6.842,7.657-12.457,13.209-16.84c5.55-4.381,11.707-8.055,18.468-11.018
		c6.761-2.963,13.898-5.426,21.41-7.387c7.512-1.961,14.941-3.945,22.287-5.949c7.344-2.002,14.355-4.318,21.034-6.947
		c6.677-2.631,12.583-5.988,17.717-10.08c5.134-4.088,9.202-9.266,12.207-15.525s4.509-14.064,4.509-23.412
		c0-7.764-1.797-15.045-5.385-21.85c-3.59-6.803-8.933-12.771-16.025-17.904c-7.097-5.133-15.86-9.16-26.294-12.082
		c-10.435-2.92-22.496-4.383-36.184-4.383c-12.855,0-24.665,1.314-35.433,3.943c-10.768,2.631-19.992,6.387-27.67,11.27
		c-7.681,4.883-13.648,10.664-17.905,17.342s-6.385,14.023-6.385,22.035c0,6.01,0.98,11.102,2.942,15.275
		c1.96,4.176,4.464,7.555,7.512,10.143c3.046,2.588,6.468,4.465,10.267,5.633c3.797,1.17,7.491,1.754,11.081,1.754
		c4.758,0,9.015-0.627,12.771-1.879s6.865-3.004,9.328-5.258c2.461-2.254,4.339-4.736,5.634-7.451
		c1.293-2.711,1.94-5.527,1.94-8.451c0-6.51-1.878-11.434-5.634-14.773c-3.756-3.338-8.181-5.76-13.272-7.262
		c4.089-2.086,8.389-3.547,12.897-4.383c4.507-0.834,9.597-1.252,15.275-1.252c8.013,0,14.878,1.795,20.596,5.383
		c5.716,3.592,8.577,9.059,8.577,16.402c0,4.926-1.399,9.184-4.195,12.771c-2.797,3.59-6.51,6.93-11.143,10.018
		c-4.633,3.088-9.934,6.094-15.901,9.014c-5.969,2.922-12.041,6.221-18.218,9.893c-6.178,3.674-12.25,7.949-18.217,12.832
		c-5.969,4.883-11.268,10.727-15.901,17.529c-4.633,6.805-8.348,14.773-11.143,23.914c-2.798,9.141-4.195,19.971-4.195,32.49h28.672
		c0.834-1.668,2.045-3.211,3.631-4.633c1.335-1.166,3.109-2.273,5.322-3.316c2.21-1.043,5.237-1.566,9.077-1.566
		c4.423,0,9.159,0.648,14.211,1.941c5.049,1.295,10.349,2.672,15.901,4.133c5.549,1.461,11.35,2.816,17.403,4.068
		c6.051,1.252,12.333,1.877,18.844,1.877c8.179,0,15.858-0.668,23.038-2.002c7.177-1.334,13.375-4.445,18.593-9.328
		c5.216-4.883,9.327-12.02,12.332-21.41s4.509-22.057,4.509-38h-24.666c0,7.512-1.797,12.646-5.385,15.4
		c-3.589,2.754-8.557,4.131-14.898,4.131c-3.34,0-6.386-0.291-9.14-0.875c-2.755-0.584-5.677-1.189-8.764-1.816
		c-3.089-0.625-6.511-1.23-10.267-1.814s-8.348-0.877-13.773-0.877c-5.343,0-10.267,0.732-14.774,2.191
		c-4.507,1.461-8.557,3.256-12.145,5.383c-3.59,2.129-6.761,4.426-9.516,6.887c-2.754,2.463-4.967,4.738-6.636,6.824
		L497.439,489.928z"/>
	<path clip-path="url(#SVGID_2_)" fill="#0046FA" d="M828.643,425.869v21.035l200.176-4.559
		c-18.58,23.139-35.407,53.287-35.407,83.787l0.351,0.701c29.098-39.965,72.568-72.568,119.194-89.746v-1.051
		c-47.327-17.178-88.695-49.08-119.194-89.396l-0.351,0.352c0.701,28.746,14.724,64.504,35.407,83.434L828.643,425.869z"/>
	<path clip-path="url(#SVGID_2_)" fill="#231F20" d="M168.267,468.312V272.145h24.52c20.143,0,34.223,4.529,42.255,13.574
		c8.025,9.051,12.042,22.33,12.042,39.846v84.072c0,20.143-4.017,34.961-12.042,44.443c-8.032,9.49-22.112,14.232-42.255,14.232
		H168.267z M81.568,272.145h28.9v195.729h-28.9v55.609h111.219c37.945,0,66.119-8.824,84.51-26.49
		c18.39-17.658,27.586-45.025,27.586-82.102v-89.326c0-37.068-9.196-64.436-27.586-82.102c-18.391-17.658-46.565-26.49-84.51-26.49
		H81.568V272.145z"/>
	<polygon clip-path="url(#SVGID_2_)" fill="none" stroke="#0046FA" stroke-width="1.998" points="0.999,3 0.999,571.889 
		0.999,573.891 3,573.891 1167.087,573.891 1169.088,573.891 1169.088,571.889 1169.088,3 1169.088,0.998 1167.087,0.998 3,0.998 
		0.999,0.998 	"/>
</g>
<rect x="5.001" y="5.002" fill="none" stroke="#0046FA" stroke-width="1.998" width="1160.085" height="564.885"/>
<line fill="none" stroke="#0046FA" stroke-width="2" x1="26.002" y1="169.014" x2="1144.086" y2="169.014"/>
<line fill="none" stroke="#0046FA" stroke-width="2" x1="403.03" y1="298.023" x2="1144.086" y2="298.023"/>
<line fill="none" stroke="#0046FA" stroke-width="2" x1="382.027" y1="190.014" x2="382.027" y2="549.041"/>
<line fill="none" stroke="#0046FA" stroke-width="2" x1="773.557" y1="319.023" x2="773.557" y2="549.041"/>
</svg>
