<?xml version="1.0" encoding="utf-8"?>
<!-- Generator: Adobe Illustrator 16.0.0, SVG Export Plug-In . SVG Version: 6.00 Build 0)  -->
<!DOCTYPE svg PUBLIC "-//W3C//DTD SVG 1.1//EN" "http://www.w3.org/Graphics/SVG/1.1/DTD/svg11.dtd">
<svg version="1.1" id="Layer_1" xmlns="http://www.w3.org/2000/svg" xmlns:xlink="http://www.w3.org/1999/xlink" x="0px" y="0px"
	 width="1170.09px" height="525.04px" viewBox="0 0 1170.09 525.04" enable-background="new 0 0 1170.09 525.04"
	 xml:space="preserve">
<g>
	<defs>
		<rect id="SVGID_5_" y="0.04" width="1170.088" height="525.039"/>
	</defs>
	<clipPath id="SVGID_2_">
		<use xlink:href="#SVGID_5_"  overflow="visible"/>
	</clipPath>
	<path clip-path="url(#SVGID_2_)" fill="#0046FA" d="M818.973,102.88l11.821-30.836h0.257l11.82,30.836H818.973z M819.744,39.279
		l-42.785,106h25.954l7.837-21.199h40.345l7.837,21.199h25.954l-42.785-106H819.744z M682.522,58.553h2.827
		c2.227,0,4.112,0.044,5.653,0.128c1.542,0.087,3.297,0.386,5.268,0.9c1.971,0.514,3.555,1.242,4.754,2.184
		c1.199,0.943,2.228,2.313,3.084,4.111c0.855,1.799,1.285,3.982,1.285,6.553s-0.43,4.754-1.285,6.553
		c-0.856,1.8-1.885,3.17-3.084,4.111c-1.199,0.944-2.783,1.671-4.754,2.185c-1.971,0.515-3.726,0.815-5.268,0.899
		c-1.541,0.086-3.427,0.129-5.653,0.129h-2.827V58.553z M658.368,145.279h24.154v-41.886l32.38,41.886h30.707l-36.489-43.812
		c6.681-2.14,11.969-5.846,15.868-11.114c3.896-5.268,5.846-11.799,5.846-19.594c0-10.106-3.212-17.88-9.637-23.32
		c-6.425-5.438-14.733-8.159-24.927-8.159h-37.902V145.279z M582.178,39.279v61.287c0,8.567-1.349,14.52-4.047,17.86
		c-2.699,3.341-7.089,5.011-13.17,5.011c-6.083,0-10.472-1.67-13.17-5.011c-2.698-3.341-4.047-9.293-4.047-17.86V39.279h-24.155
		v68.354c0,13.021,3.511,22.871,10.535,29.552c7.023,6.682,17.302,10.022,30.837,10.022c13.533,0,23.812-3.341,30.836-10.022
		c7.023-6.681,10.536-16.531,10.536-29.552V39.279H582.178z M428.896,60.479v84.8h24.155v-84.8h25.183v-21.2h-74.521v21.2H428.896z
		 M306.258,113.866c-6.039-6.381-9.058-13.599-9.058-21.65c0-3.682,0.706-7.302,2.12-10.857c1.413-3.553,3.469-6.874,6.167-9.958
		c2.698-3.083,6.36-5.566,10.985-7.451c4.626-1.884,9.85-2.827,15.676-2.827c3.682,0,7.323,0.601,10.921,1.799
		c3.597,1.201,5.995,2.164,7.195,2.891c1.199,0.729,2.098,1.35,2.698,1.863l10.279-20.557l-3.598-2.442
		c-2.399-1.626-6.488-3.254-12.27-4.882c-5.782-1.626-12.1-2.441-18.951-2.441c-7.368,0-14.563,1.457-21.586,4.368
		c-7.025,2.913-13.17,6.811-18.438,11.692c-5.268,4.883-9.487,10.751-12.655,17.603c-3.17,6.854-4.754,14.005-4.754,21.457
		c0,9.852,2.698,19.017,8.094,27.496c5.397,8.48,12.505,15.141,21.329,19.979c8.821,4.841,18.158,7.26,28.01,7.26
		c4.282,0,8.435-0.344,12.463-1.028c4.025-0.687,7.279-1.456,9.765-2.312c2.483-0.855,4.818-1.863,7.002-3.02
		c2.184-1.157,3.575-1.948,4.176-2.377c0.598-0.428,1.07-0.771,1.413-1.028l-10.279-20.558l-2.441,1.67
		c-1.628,1.028-4.176,2.1-7.645,3.213c-3.469,1.114-7.046,1.67-10.728,1.67C320.925,123.438,312.297,120.248,306.258,113.866
		 M163.32,39.279v106h60.645V124.08h-36.49v-21.328h34.948v-21.2h-34.948V60.479h36.49v-21.2H163.32z M52.824,39.279v106h60.645
		V124.08h-36.49V39.279H52.824z"/>
	<path clip-path="url(#SVGID_2_)" fill="#231F20" d="M818.647,302.927c2.784,0,4.908-0.547,6.372-1.639
		c1.463-1.092,2.196-2.514,2.196-4.266c0-1.561-0.582-2.791-1.746-3.689c-1.165-0.9-3.066-1.578-5.706-2.035
		c-1.224-0.24-2.083-0.486-2.574-0.738c-0.492-0.252-0.738-0.557-0.738-0.918c0-0.383,0.239-0.707,0.721-0.971
		c0.479-0.266,1.151-0.396,2.016-0.396c1.104,0,2.052,0.191,2.844,0.576c0.792,0.383,1.477,0.996,2.053,1.836l3.168-3.096
		c-0.816-1.129-1.878-1.975-3.187-2.539s-2.994-0.846-5.058-0.846c-1.872,0-3.462,0.281-4.771,0.846s-2.286,1.303-2.934,2.215
		c-0.648,0.912-0.972,1.883-0.972,2.916c0,1.512,0.569,2.723,1.71,3.635c1.139,0.912,3.054,1.633,5.741,2.16
		c1.2,0.24,2.047,0.486,2.538,0.738s0.738,0.547,0.738,0.883c0,0.383-0.24,0.689-0.72,0.918c-0.481,0.229-1.141,0.342-1.98,0.342
		c-2.52,0-4.297-0.852-5.328-2.557l-3.168,3.457C811.592,301.87,814.52,302.927,818.647,302.927 M797.228,298.966
		c-0.552,0-0.984-0.131-1.296-0.396c-0.312-0.264-0.468-0.646-0.468-1.15s0.162-0.895,0.485-1.17
		c0.324-0.277,0.87-0.512,1.639-0.703l2.916-0.684v1.549c0,0.768-0.336,1.385-1.008,1.854
		C798.823,298.731,798.067,298.966,797.228,298.966 M807.848,299.075c-0.864,0-1.296-0.469-1.296-1.404v-6.553
		c0-2.305-0.732-4.031-2.196-5.184s-3.6-1.729-6.408-1.729c-2.399,0-4.308,0.486-5.724,1.459c-1.416,0.971-2.28,2.334-2.592,4.086
		l4.968,1.439c0.168-0.984,0.54-1.691,1.116-2.125c0.576-0.432,1.319-0.646,2.231-0.646c0.792,0,1.416,0.24,1.872,0.719
		c0.456,0.48,0.685,1.129,0.685,1.945v0.646l-4.068,0.793c-2.496,0.504-4.29,1.23-5.382,2.178s-1.638,2.189-1.638,3.727
		c0,1.463,0.479,2.58,1.439,3.348s2.34,1.152,4.141,1.152c3.191,0,5.327-0.924,6.407-2.773c0.504,1.85,2.052,2.773,4.645,2.773
		c0.936,0,1.752-0.193,2.448-0.576l0.468-3.42C808.676,299.026,808.304,299.075,807.848,299.075 M786.284,284.565h-6.119v18h6.119
		V284.565z M783.225,282.478c1.247,0,2.153-0.232,2.718-0.701c0.563-0.469,0.847-1.207,0.847-2.215c0-1.031-0.283-1.781-0.847-2.25
		c-0.564-0.467-1.471-0.701-2.718-0.701c-1.249,0-2.155,0.234-2.718,0.701c-0.565,0.469-0.847,1.219-0.847,2.25
		c0,1.008,0.281,1.746,0.847,2.215C781.069,282.245,781.976,282.478,783.225,282.478 M768.393,284.206
		c-2.977,0-5.299,0.822-6.966,2.467c-1.669,1.643-2.502,3.941-2.502,6.893c0,2.977,0.839,5.281,2.52,6.912
		c1.68,1.633,4.079,2.449,7.2,2.449c2.423,0,4.374-0.51,5.85-1.531c1.477-1.02,2.346-2.346,2.61-3.977l-5.508-1.766
		c-0.288,1.945-1.285,2.916-2.988,2.916c-2.376,0-3.563-1.643-3.563-4.932c0-3.383,1.188-5.076,3.563-5.076
		c1.607,0,2.531,1.033,2.772,3.098l5.688-1.873c-0.337-1.656-1.188-3-2.556-4.031C773.145,284.722,771.104,284.206,768.393,284.206
		 M749.457,284.206c-1.417,0-2.652,0.318-3.708,0.955c-1.058,0.635-1.872,1.59-2.448,2.861l-0.18-3.457h-5.473v18h6.12v-9.504
		c0-1.416,0.3-2.465,0.9-3.148c0.599-0.686,1.38-1.027,2.34-1.027c0.814,0,1.444,0.258,1.89,0.775
		c0.444,0.516,0.666,1.385,0.666,2.609v10.295h6.12v-11.986c0-2.041-0.563-3.613-1.692-4.717S751.352,284.206,749.457,284.206
		 M725.373,288.489c1.92,0,3.023,1.178,3.312,3.529h-6.768C722.276,289.667,723.429,288.489,725.373,288.489 M734.408,293.313
		c0-2.879-0.773-5.117-2.321-6.713s-3.774-2.395-6.679-2.395c-3,0-5.315,0.816-6.947,2.447c-1.633,1.633-2.448,3.938-2.448,6.912
		c0,2.977,0.834,5.281,2.502,6.912c1.668,1.633,4.074,2.449,7.218,2.449c2.112,0,3.895-0.402,5.346-1.207
		c1.452-0.803,2.431-1.973,2.935-3.51l-4.968-1.584c-0.192,0.648-0.57,1.141-1.135,1.477c-0.563,0.336-1.289,0.504-2.178,0.504
		c-1.056,0-1.902-0.264-2.538-0.793c-0.636-0.527-1.05-1.355-1.242-2.482h12.276C734.349,294.802,734.408,294.13,734.408,293.313
		 M706.546,284.565v9.541c0,1.393-0.302,2.43-0.9,3.113c-0.601,0.684-1.405,1.027-2.413,1.027c-0.84,0-1.464-0.24-1.872-0.721
		s-0.61-1.309-0.61-2.484v-10.477h-6.12v12.025c0,2.184,0.545,3.785,1.637,4.805c1.092,1.021,2.598,1.531,4.518,1.531
		c3.024,0,5.101-1.236,6.229-3.709l0.181,3.348h5.473v-18H706.546z M682.965,284.206c-2.977,0-5.298,0.822-6.965,2.467
		c-1.67,1.643-2.502,3.941-2.502,6.893c0,2.977,0.839,5.281,2.519,6.912c1.68,1.633,4.08,2.449,7.201,2.449
		c2.423,0,4.374-0.51,5.85-1.531c1.476-1.02,2.345-2.346,2.61-3.977l-5.508-1.766c-0.288,1.945-1.285,2.916-2.988,2.916
		c-2.376,0-3.564-1.643-3.564-4.932c0-3.383,1.188-5.076,3.564-5.076c1.607,0,2.531,1.033,2.771,3.098l5.688-1.873
		c-0.337-1.656-1.188-3-2.556-4.031C687.718,284.722,685.677,284.206,682.965,284.206 M662.086,288.489
		c1.92,0,3.023,1.178,3.312,3.529h-6.768C658.989,289.667,660.142,288.489,662.086,288.489 M671.121,293.313
		c0-2.879-0.773-5.117-2.321-6.713s-3.774-2.395-6.679-2.395c-3,0-5.315,0.816-6.947,2.447c-1.632,1.633-2.448,3.938-2.448,6.912
		c0,2.977,0.834,5.281,2.502,6.912c1.668,1.633,4.074,2.449,7.218,2.449c2.112,0,3.895-0.402,5.347-1.207
		c1.451-0.803,2.43-1.973,2.934-3.51l-4.968-1.584c-0.192,0.648-0.57,1.141-1.134,1.477c-0.564,0.336-1.29,0.504-2.179,0.504
		c-1.056,0-1.901-0.264-2.538-0.793c-0.636-0.527-1.05-1.355-1.241-2.482h12.275C671.062,294.802,671.121,294.13,671.121,293.313
		 M642.142,302.927c2.784,0,4.908-0.547,6.372-1.639s2.196-2.514,2.196-4.266c0-1.561-0.582-2.791-1.746-3.689
		c-1.164-0.9-3.066-1.578-5.706-2.035c-1.225-0.24-2.082-0.486-2.574-0.738s-0.738-0.557-0.738-0.918
		c0-0.383,0.24-0.707,0.721-0.971c0.479-0.266,1.151-0.396,2.016-0.396c1.104,0,2.052,0.191,2.844,0.576
		c0.792,0.383,1.477,0.996,2.052,1.836l3.169-3.096c-0.816-1.129-1.879-1.975-3.187-2.539s-2.994-0.846-5.058-0.846
		c-1.872,0-3.462,0.281-4.771,0.846c-1.308,0.564-2.286,1.303-2.934,2.215c-0.648,0.912-0.973,1.883-0.973,2.916
		c0,1.512,0.57,2.723,1.71,3.635c1.141,0.912,3.055,1.633,5.742,2.16c1.2,0.24,2.046,0.486,2.538,0.738s0.738,0.547,0.738,0.883
		c0,0.383-0.24,0.689-0.72,0.918c-0.48,0.229-1.141,0.342-1.98,0.342c-2.52,0-4.296-0.852-5.328-2.557l-3.168,3.457
		C635.086,301.87,638.014,302.927,642.142,302.927 M613.019,302.927c2.783,0,4.907-0.547,6.372-1.639
		c1.463-1.092,2.196-2.514,2.196-4.266c0-1.561-0.583-2.791-1.746-3.689c-1.165-0.9-3.067-1.578-5.706-2.035
		c-1.225-0.24-2.083-0.486-2.574-0.738c-0.493-0.252-0.738-0.557-0.738-0.918c0-0.383,0.239-0.707,0.721-0.971
		c0.479-0.266,1.151-0.396,2.016-0.396c1.103,0,2.052,0.191,2.844,0.576c0.792,0.383,1.477,0.996,2.053,1.836l3.168-3.096
		c-0.817-1.129-1.88-1.975-3.187-2.539c-1.309-0.564-2.995-0.846-5.058-0.846c-1.872,0-3.463,0.281-4.771,0.846
		c-1.309,0.564-2.286,1.303-2.934,2.215c-0.648,0.912-0.973,1.883-0.973,2.916c0,1.512,0.569,2.723,1.71,3.635
		c1.14,0.912,3.054,1.633,5.742,2.16c1.199,0.24,2.045,0.486,2.538,0.738c0.491,0.252,0.738,0.547,0.738,0.883
		c0,0.383-0.241,0.689-0.72,0.918c-0.481,0.229-1.142,0.342-1.98,0.342c-2.52,0-4.297-0.852-5.328-2.557l-3.168,3.457
		C605.963,301.87,608.89,302.927,613.019,302.927 M593.291,288.489c1.92,0,3.023,1.178,3.312,3.529h-6.768
		C590.194,289.667,591.347,288.489,593.291,288.489 M602.326,293.313c0-2.879-0.773-5.117-2.321-6.713s-3.774-2.395-6.679-2.395
		c-3,0-5.315,0.816-6.947,2.447c-1.632,1.633-2.448,3.938-2.448,6.912c0,2.977,0.834,5.281,2.502,6.912
		c1.668,1.633,4.074,2.449,7.218,2.449c2.112,0,3.895-0.402,5.346-1.207c1.452-0.803,2.431-1.973,2.935-3.51l-4.968-1.584
		c-0.192,0.648-0.57,1.141-1.135,1.477c-0.563,0.336-1.289,0.504-2.178,0.504c-1.056,0-1.901-0.264-2.538-0.793
		c-0.636-0.527-1.05-1.355-1.241-2.482h12.275C602.267,294.802,602.326,294.13,602.326,293.313 M581.771,297.778
		c-0.744,0.527-1.608,0.791-2.592,0.791c-1.584,0-2.376-0.803-2.376-2.41v-7.236h5.4v-4.357h-5.4v-5.723l-6.12,1.691v4.031h-3.096
		v4.357h3.096v8.244c0.024,2.016,0.6,3.479,1.728,4.391s2.76,1.369,4.896,1.369c0.936,0,1.866-0.127,2.79-0.379
		c0.924-0.252,1.686-0.582,2.286-0.99L581.771,297.778z M559.091,284.206c-1.416,0-2.652,0.318-3.708,0.955
		c-1.056,0.635-1.872,1.59-2.448,2.861l-0.18-3.457h-5.472v18h6.12v-9.504c0-1.416,0.3-2.465,0.9-3.148
		c0.6-0.686,1.38-1.027,2.34-1.027c0.816,0,1.446,0.258,1.89,0.775c0.444,0.516,0.666,1.385,0.666,2.609v10.295h6.12v-11.986
		c0-2.041-0.564-3.613-1.692-4.717S560.986,284.206,559.091,284.206 M535.008,288.489c1.919,0,3.024,1.178,3.312,3.529h-6.768
		C531.912,289.667,533.063,288.489,535.008,288.489 M544.043,293.313c0-2.879-0.774-5.117-2.322-6.713s-3.775-2.395-6.678-2.395
		c-3.001,0-5.317,0.816-6.948,2.447c-1.633,1.633-2.448,3.938-2.448,6.912c0,2.977,0.833,5.281,2.502,6.912
		c1.667,1.633,4.073,2.449,7.218,2.449c2.111,0,3.893-0.402,5.346-1.207c1.451-0.803,2.43-1.973,2.934-3.51l-4.968-1.584
		c-0.193,0.648-0.571,1.141-1.134,1.477c-0.565,0.336-1.291,0.504-2.178,0.504c-1.057,0-1.903-0.264-2.538-0.793
		c-0.637-0.527-1.051-1.355-1.242-2.482h12.276C543.982,294.802,544.043,294.13,544.043,293.313 M522.552,284.206
		c-1.368,0-2.515,0.365-3.438,1.098c-0.924,0.732-1.602,1.783-2.034,3.15l-0.252-3.889h-5.4v18h6.12v-9.07
		c0-1.369,0.383-2.418,1.152-3.15c0.768-0.732,1.728-1.098,2.88-1.098c0.455,0,0.887,0.053,1.296,0.162
		c0.408,0.107,0.732,0.232,0.972,0.377l0.648-5.184C524.015,284.339,523.367,284.206,522.552,284.206 M499.151,288.489
		c1.92,0,3.024,1.178,3.312,3.529h-6.768C496.056,289.667,497.208,288.489,499.151,288.489 M508.188,293.313
		c0-2.879-0.774-5.117-2.322-6.713c-1.548-1.596-3.774-2.395-6.678-2.395c-3,0-5.316,0.816-6.948,2.447
		c-1.632,1.633-2.448,3.938-2.448,6.912c0,2.977,0.834,5.281,2.502,6.912c1.668,1.633,4.074,2.449,7.218,2.449
		c2.112,0,3.894-0.402,5.346-1.207c1.452-0.803,2.43-1.973,2.934-3.51l-4.968-1.584c-0.192,0.648-0.57,1.141-1.134,1.477
		s-1.29,0.504-2.178,0.504c-1.056,0-1.902-0.264-2.538-0.793c-0.636-0.527-1.05-1.355-1.242-2.482h12.276
		C508.127,294.802,508.188,294.13,508.188,293.313 M483.096,283.306c0-1.727,0.996-2.592,2.988-2.592
		c0.84,0,1.524,0.191,2.052,0.576l0.612-3.816c-0.888-0.695-2.268-1.043-4.14-1.043c-2.16,0-3.912,0.539-5.256,1.619
		c-1.344,1.08-2.016,2.701-2.016,4.861v1.654h-2.88v4.357h2.88v13.643h6.12v-13.643h5.112v-4.357h-5.472V283.306z M471.937,284.565
		h-6.12v18h6.12V284.565z M468.876,282.478c1.248,0,2.154-0.232,2.718-0.701s0.846-1.207,0.846-2.215
		c0-1.031-0.282-1.781-0.846-2.25c-0.564-0.467-1.47-0.701-2.718-0.701s-2.154,0.234-2.718,0.701
		c-0.564,0.469-0.846,1.219-0.846,2.25c0,1.008,0.282,1.746,0.846,2.215S467.628,282.478,468.876,282.478 M452.172,298.427
		c-1.08,0-1.914-0.396-2.502-1.189c-0.588-0.791-0.882-2.016-0.882-3.672c0-1.654,0.294-2.879,0.882-3.672
		c0.588-0.791,1.422-1.188,2.502-1.188c0.984,0,1.77,0.359,2.358,1.08c0.588,0.721,0.918,1.74,0.99,3.061v1.439
		c-0.072,1.344-0.402,2.369-0.99,3.078C453.942,298.071,453.157,298.427,452.172,298.427 M455.521,276.935v10.656
		c-0.528-1.057-1.248-1.885-2.16-2.484c-0.912-0.6-2.004-0.9-3.276-0.9c-2.328,0-4.152,0.828-5.472,2.484
		c-1.32,1.656-1.98,3.973-1.98,6.947c0,2.928,0.654,5.209,1.962,6.84c1.308,1.633,3.126,2.449,5.454,2.449
		c1.344,0,2.526-0.336,3.546-1.008s1.794-1.598,2.322-2.773l0.216,3.42h5.508v-25.631H455.521z M422.941,284.206
		c-1.417,0-2.653,0.318-3.708,0.955c-1.057,0.635-1.872,1.59-2.448,2.861l-0.18-3.457h-5.472v18h6.12v-9.504
		c0-1.416,0.299-2.465,0.9-3.148c0.599-0.686,1.379-1.027,2.34-1.027c0.815,0,1.445,0.258,1.89,0.775
		c0.443,0.516,0.666,1.385,0.666,2.609v10.295h6.12v-11.986c0-2.041-0.565-3.613-1.692-4.717
		C426.349,284.759,424.836,284.206,422.941,284.206 M398.282,288.562c1.152,0,2.004,0.396,2.556,1.189
		c0.552,0.791,0.828,2.062,0.828,3.814s-0.276,3.025-0.828,3.816c-0.552,0.793-1.404,1.188-2.556,1.188
		c-1.152,0-2.004-0.395-2.556-1.188c-0.552-0.791-0.828-2.064-0.828-3.816s0.276-3.023,0.828-3.814
		C396.277,288.958,397.129,288.562,398.282,288.562 M398.282,284.206c-3,0-5.334,0.822-7.002,2.467
		c-1.668,1.643-2.502,3.941-2.502,6.893c0,2.953,0.834,5.25,2.502,6.895c1.668,1.645,4.002,2.467,7.002,2.467
		s5.334-0.822,7.002-2.467s2.502-3.941,2.502-6.895c0-2.951-0.834-5.25-2.502-6.893
		C403.616,285.028,401.282,284.206,398.282,284.206 M377.87,284.206c-2.976,0-5.298,0.822-6.966,2.467
		c-1.668,1.643-2.502,3.941-2.502,6.893c0,2.977,0.84,5.281,2.52,6.912c1.68,1.633,4.08,2.449,7.2,2.449
		c2.424,0,4.374-0.51,5.85-1.531c1.476-1.02,2.346-2.346,2.61-3.977l-5.508-1.766c-0.288,1.945-1.284,2.916-2.988,2.916
		c-2.376,0-3.564-1.643-3.564-4.932c0-3.383,1.188-5.076,3.564-5.076c1.608,0,2.532,1.033,2.772,3.098l5.688-1.873
		c-0.336-1.656-1.188-3-2.556-4.031C382.622,284.722,380.582,284.206,377.87,284.206"/>
	<path clip-path="url(#SVGID_2_)" fill="#231F20" d="M883.305,241.572c1.152,0,2.003,0.396,2.555,1.188s0.828,2.063,0.828,3.815
		s-0.276,3.024-0.828,3.815c-0.552,0.793-1.402,1.189-2.555,1.189c-1.153,0-2.005-0.396-2.556-1.189
		c-0.554-0.791-0.828-2.063-0.828-3.815s0.274-3.023,0.828-3.815C881.3,241.969,882.151,241.572,883.305,241.572 M883.305,237.217
		c-3.001,0-5.335,0.821-7.002,2.466c-1.669,1.644-2.502,3.942-2.502,6.894c0,2.952,0.833,5.25,2.502,6.894
		c1.667,1.645,4.001,2.467,7.002,2.467c2.999,0,5.333-0.822,7.002-2.467c1.667-1.644,2.501-3.941,2.501-6.894
		c0-2.951-0.834-5.25-2.501-6.894C888.638,238.038,886.304,237.217,883.305,237.217 M861.021,251.437
		c-1.08,0-1.914-0.396-2.502-1.188c-0.589-0.793-0.882-2.017-0.882-3.673c0-1.655,0.293-2.88,0.882-3.672
		c0.588-0.792,1.422-1.188,2.502-1.188c0.984,0,1.771,0.359,2.358,1.08c0.588,0.72,0.918,1.739,0.989,3.06v1.439
		c-0.071,1.344-0.401,2.371-0.989,3.078C862.791,251.083,862.005,251.437,861.021,251.437 M864.368,229.944v10.656
		c-0.527-1.056-1.248-1.884-2.159-2.484c-0.912-0.6-2.004-0.899-3.276-0.899c-2.328,0-4.152,0.828-5.472,2.483
		c-1.32,1.656-1.98,3.973-1.98,6.948c0,2.928,0.654,5.208,1.962,6.84c1.309,1.632,3.126,2.448,5.454,2.448
		c1.344,0,2.526-0.336,3.546-1.008c1.021-0.672,1.794-1.596,2.322-2.772l0.216,3.42h5.508v-25.632H864.368z M848.276,237.217
		c-1.368,0-2.514,0.366-3.438,1.098c-0.925,0.732-1.603,1.782-2.034,3.15l-0.252-3.889h-5.4v18h6.12v-9.071
		c0-1.368,0.384-2.418,1.152-3.15c0.768-0.731,1.728-1.098,2.88-1.098c0.456,0,0.888,0.054,1.296,0.162
		c0.408,0.107,0.732,0.233,0.972,0.378l0.648-5.185C849.74,237.349,849.093,237.217,848.276,237.217 M824.878,241.501
		c1.919,0,3.023,1.176,3.312,3.527h-6.768C821.781,242.677,822.933,241.501,824.878,241.501 M833.914,246.324
		c0-2.88-0.774-5.117-2.322-6.714c-1.548-1.596-3.775-2.394-6.678-2.394c-3.002,0-5.317,0.815-6.948,2.448
		c-1.633,1.632-2.448,3.936-2.448,6.911s0.833,5.28,2.502,6.912c1.667,1.632,4.073,2.448,7.218,2.448
		c2.111,0,3.894-0.402,5.347-1.206c1.45-0.804,2.43-1.974,2.934-3.511l-4.968-1.584c-0.193,0.648-0.571,1.141-1.134,1.477
		c-0.565,0.336-1.291,0.504-2.179,0.504c-1.057,0-1.902-0.264-2.538-0.792c-0.637-0.528-1.051-1.356-1.241-2.483h12.275
		C833.853,247.812,833.914,247.14,833.914,246.324 M806.05,237.576v9.54c0,1.393-0.301,2.43-0.9,3.114s-1.404,1.026-2.412,1.026
		c-0.841,0-1.464-0.24-1.872-0.721s-0.611-1.308-0.611-2.484v-10.476h-6.12v12.024c0,2.184,0.545,3.785,1.638,4.806
		c1.092,1.021,2.597,1.53,4.518,1.53c3.024,0,5.1-1.236,6.229-3.708l0.18,3.348h5.473v-18H806.05z M782.47,237.217
		c-2.977,0-5.298,0.821-6.966,2.466c-1.669,1.644-2.502,3.942-2.502,6.894c0,2.976,0.84,5.28,2.52,6.912
		c1.679,1.632,4.08,2.448,7.2,2.448c2.424,0,4.374-0.51,5.85-1.53c1.477-1.021,2.346-2.347,2.61-3.978l-5.508-1.764
		c-0.288,1.943-1.284,2.916-2.988,2.916c-2.376,0-3.564-1.645-3.564-4.933c0-3.384,1.188-5.076,3.564-5.076
		c1.607,0,2.532,1.032,2.772,3.097l5.688-1.872c-0.337-1.656-1.188-3-2.556-4.032S785.182,237.217,782.47,237.217 M760.042,251.976
		c-0.553,0-0.984-0.131-1.297-0.395c-0.312-0.265-0.468-0.648-0.468-1.152s0.162-0.895,0.486-1.17
		c0.324-0.276,0.87-0.51,1.638-0.703l2.916-0.684v1.549c0,0.768-0.336,1.385-1.008,1.854
		C761.638,251.742,760.882,251.976,760.042,251.976 M770.661,252.085c-0.863,0-1.296-0.469-1.296-1.404v-6.552
		c0-2.305-0.731-4.032-2.195-5.185c-1.465-1.151-3.601-1.728-6.408-1.728c-2.4,0-4.309,0.485-5.725,1.458
		c-1.417,0.972-2.279,2.334-2.592,4.086l4.969,1.439c0.168-0.983,0.539-1.691,1.115-2.124c0.576-0.432,1.32-0.647,2.232-0.647
		c0.792,0,1.416,0.24,1.872,0.72c0.455,0.48,0.684,1.128,0.684,1.944v0.647l-4.067,0.792c-2.496,0.504-4.29,1.23-5.383,2.178
		c-1.092,0.948-1.638,2.19-1.638,3.727c0,1.464,0.48,2.58,1.44,3.348s2.34,1.152,4.14,1.152c3.191,0,5.328-0.924,6.408-2.771
		c0.504,1.848,2.052,2.771,4.644,2.771c0.937,0,1.752-0.192,2.448-0.576l0.468-3.42
		C771.489,252.036,771.117,252.085,770.661,252.085 M730.883,241.501c1.919,0,3.023,1.176,3.312,3.527h-6.768
		C727.786,242.677,728.938,241.501,730.883,241.501 M739.919,246.324c0-2.88-0.774-5.117-2.322-6.714
		c-1.548-1.596-3.775-2.394-6.678-2.394c-3.001,0-5.317,0.815-6.948,2.448c-1.633,1.632-2.448,3.936-2.448,6.911
		s0.833,5.28,2.502,6.912c1.667,1.632,4.073,2.448,7.218,2.448c2.111,0,3.894-0.402,5.347-1.206c1.45-0.804,2.43-1.974,2.934-3.511
		l-4.968-1.584c-0.193,0.648-0.571,1.141-1.134,1.477c-0.565,0.336-1.291,0.504-2.179,0.504c-1.057,0-1.902-0.264-2.537-0.792
		c-0.638-0.528-1.052-1.356-1.242-2.483h12.275C739.857,247.812,739.919,247.14,739.919,246.324 M708.742,251.437
		c-1.08,0-1.914-0.396-2.502-1.188c-0.589-0.793-0.882-2.017-0.882-3.673c0-1.655,0.293-2.88,0.882-3.672
		c0.588-0.792,1.422-1.188,2.502-1.188c0.984,0,1.771,0.359,2.358,1.08c0.588,0.72,0.918,1.739,0.99,3.06v1.439
		c-0.072,1.344-0.402,2.371-0.99,3.078C710.513,251.083,709.727,251.437,708.742,251.437 M712.091,229.944v10.656
		c-0.528-1.056-1.248-1.884-2.16-2.484c-0.912-0.6-2.004-0.899-3.276-0.899c-2.328,0-4.151,0.828-5.472,2.483
		c-1.32,1.656-1.98,3.973-1.98,6.948c0,2.928,0.654,5.208,1.962,6.84c1.309,1.632,3.127,2.448,5.454,2.448
		c1.345,0,2.526-0.336,3.546-1.008c1.021-0.672,1.795-1.596,2.322-2.772l0.216,3.42h5.509v-25.632H712.091z M676.198,251.976
		c-0.552,0-0.984-0.131-1.296-0.395c-0.312-0.265-0.468-0.648-0.468-1.152s0.162-0.895,0.486-1.17
		c0.323-0.276,0.868-0.51,1.638-0.703l2.916-0.684v1.549c0,0.768-0.337,1.385-1.008,1.854
		C677.795,251.742,677.039,251.976,676.198,251.976 M686.818,252.085c-0.863,0-1.296-0.469-1.296-1.404v-6.552
		c0-2.305-0.733-4.032-2.196-5.185c-1.464-1.151-3.6-1.728-6.407-1.728c-2.4,0-4.309,0.485-5.725,1.458
		c-1.417,0.972-2.28,2.334-2.592,4.086l4.968,1.439c0.167-0.983,0.54-1.691,1.116-2.124c0.576-0.432,1.319-0.647,2.232-0.647
		c0.792,0,1.416,0.24,1.872,0.72c0.454,0.48,0.684,1.128,0.684,1.944v0.647l-4.068,0.792c-2.497,0.504-4.29,1.23-5.382,2.178
		c-1.092,0.948-1.638,2.19-1.638,3.727c0,1.464,0.479,2.58,1.439,3.348s2.341,1.152,4.141,1.152c3.19,0,5.328-0.924,6.408-2.771
		c0.504,1.848,2.052,2.771,4.644,2.771c0.937,0,1.751-0.192,2.448-0.576l0.468-3.42
		C687.646,252.036,687.273,252.085,686.818,252.085 M665.471,237.217c-1.368,0-2.514,0.366-3.438,1.098
		c-0.924,0.732-1.602,1.782-2.033,3.15l-0.253-3.889h-5.399v18h6.12v-9.071c0-1.368,0.384-2.418,1.151-3.15
		c0.769-0.731,1.729-1.098,2.881-1.098c0.456,0,0.888,0.054,1.296,0.162c0.407,0.107,0.731,0.233,0.972,0.378l0.647-5.185
		C666.935,237.349,666.286,237.217,665.471,237.217 M641.351,251.437c-1.032,0-1.842-0.396-2.43-1.188
		c-0.588-0.793-0.882-1.957-0.882-3.492v-0.36c0-1.488,0.287-2.64,0.863-3.456c0.576-0.815,1.393-1.224,2.448-1.224
		c1.08,0,1.914,0.396,2.502,1.188s0.882,2.017,0.882,3.672c0,1.656-0.294,2.88-0.882,3.673
		C643.265,251.04,642.431,251.437,641.351,251.437 M643.475,237.217c-1.272,0-2.37,0.3-3.294,0.899
		c-0.924,0.601-1.638,1.429-2.142,2.484v-10.656h-6.12v25.632h5.363l0.181-3.815c0.504,1.271,1.277,2.285,2.321,3.041
		s2.274,1.135,3.69,1.135c2.352,0,4.176-0.816,5.472-2.448s1.944-3.912,1.944-6.84c0-2.976-0.66-5.292-1.98-6.948
		C647.591,238.045,645.778,237.217,643.475,237.217 M619.067,241.572c1.152,0,2.003,0.396,2.556,1.188
		c0.552,0.792,0.828,2.063,0.828,3.815s-0.276,3.024-0.828,3.815c-0.553,0.793-1.403,1.189-2.556,1.189
		c-1.151,0-2.005-0.396-2.556-1.189c-0.553-0.791-0.828-2.063-0.828-3.815s0.275-3.023,0.828-3.815
		C617.062,241.969,617.916,241.572,619.067,241.572 M619.067,237.217c-3.001,0-5.334,0.821-7.002,2.466
		c-1.669,1.644-2.502,3.942-2.502,6.894c0,2.952,0.833,5.25,2.502,6.894c1.668,1.645,4.001,2.467,7.002,2.467
		c3,0,5.333-0.822,7.002-2.467c1.668-1.644,2.502-3.941,2.502-6.894c0-2.951-0.834-5.25-2.502-6.894
		C624.4,238.038,622.067,237.217,619.067,237.217 M586.668,251.976c-0.554,0-0.985-0.131-1.296-0.395
		c-0.313-0.265-0.468-0.648-0.468-1.152s0.162-0.895,0.486-1.17c0.324-0.276,0.869-0.51,1.638-0.703l2.916-0.684v1.549
		c0,0.768-0.337,1.385-1.008,1.854C588.263,251.742,587.507,251.976,586.668,251.976 M597.287,252.085
		c-0.863,0-1.296-0.469-1.296-1.404v-6.552c0-2.305-0.732-4.032-2.195-5.185c-1.466-1.151-3.601-1.728-6.408-1.728
		c-2.401,0-4.309,0.485-5.724,1.458c-1.417,0.972-2.281,2.334-2.592,4.086l4.968,1.439c0.167-0.983,0.54-1.691,1.116-2.124
		c0.576-0.432,1.319-0.647,2.232-0.647c0.792,0,1.415,0.24,1.872,0.72c0.455,0.48,0.684,1.128,0.684,1.944v0.647l-4.068,0.792
		c-2.497,0.504-4.291,1.23-5.382,2.178c-1.093,0.948-1.638,2.19-1.638,3.727c0,1.464,0.479,2.58,1.44,3.348
		c0.959,0.768,2.34,1.152,4.14,1.152c3.191,0,5.328-0.924,6.408-2.771c0.504,1.848,2.052,2.771,4.644,2.771
		c0.937,0,1.751-0.192,2.448-0.576l0.468-3.42C598.115,252.036,597.742,252.085,597.287,252.085 M574.284,229.944h-6.12v20.305
		c0,1.991,0.432,3.438,1.296,4.338c0.864,0.899,2.255,1.35,4.176,1.35c0.671,0,1.355-0.084,2.052-0.252
		c0.696-0.168,1.26-0.385,1.692-0.648l0.396-3.779c-0.648,0.215-1.26,0.324-1.836,0.324c-0.625,0-1.057-0.169-1.296-0.505
		c-0.24-0.336-0.36-0.911-0.36-1.728V229.944z M545.844,241.501c1.92,0,3.025,1.176,3.313,3.527h-6.768
		C542.748,242.677,543.9,241.501,545.844,241.501 M554.88,246.324c0-2.88-0.774-5.117-2.323-6.714
		c-1.547-1.596-3.774-2.394-6.677-2.394c-3.001,0-5.317,0.815-6.948,2.448c-1.633,1.632-2.448,3.936-2.448,6.911
		s0.833,5.28,2.502,6.912c1.667,1.632,4.073,2.448,7.217,2.448c2.112,0,3.894-0.402,5.346-1.206c1.452-0.804,2.43-1.974,2.935-3.511
		l-4.969-1.584c-0.192,0.648-0.57,1.141-1.133,1.477c-0.565,0.336-1.291,0.504-2.179,0.504c-1.056,0-1.902-0.264-2.537-0.792
		c-0.637-0.528-1.051-1.356-1.242-2.483h12.276C554.819,247.812,554.88,247.14,554.88,246.324 M523.705,251.437
		c-1.08,0-1.914-0.396-2.502-1.188c-0.589-0.793-0.882-2.017-0.882-3.673c0-1.655,0.293-2.88,0.882-3.672
		c0.588-0.792,1.422-1.188,2.502-1.188c0.984,0,1.769,0.359,2.358,1.08c0.588,0.72,0.918,1.739,0.99,3.06v1.439
		c-0.072,1.344-0.402,2.371-0.99,3.078C525.474,251.083,524.688,251.437,523.705,251.437 M527.053,229.944v10.656
		c-0.528-1.056-1.248-1.884-2.16-2.484c-0.913-0.6-2.004-0.899-3.276-0.899c-2.328,0-4.153,0.828-5.472,2.483
		c-1.32,1.656-1.98,3.973-1.98,6.948c0,2.928,0.653,5.208,1.962,6.84c1.308,1.632,3.126,2.448,5.454,2.448
		c1.344,0,2.525-0.336,3.546-1.008c1.02-0.672,1.794-1.596,2.322-2.772l0.216,3.42h5.508v-25.632H527.053z M491.161,251.976
		c-0.553,0-0.985-0.131-1.296-0.395c-0.312-0.265-0.468-0.648-0.468-1.152s0.162-0.895,0.486-1.17
		c0.324-0.276,0.869-0.51,1.638-0.703l2.916-0.684v1.549c0,0.768-0.337,1.385-1.008,1.854
		C492.756,251.742,492,251.976,491.161,251.976 M501.781,252.085c-0.864,0-1.296-0.469-1.296-1.404v-6.552
		c0-2.305-0.733-4.032-2.196-5.185c-1.464-1.151-3.6-1.728-6.408-1.728c-2.4,0-4.308,0.485-5.724,1.458
		c-1.417,0.972-2.281,2.334-2.592,4.086l4.968,1.439c0.167-0.983,0.54-1.691,1.116-2.124c0.576-0.432,1.319-0.647,2.232-0.647
		c0.792,0,1.416,0.24,1.872,0.72c0.455,0.48,0.684,1.128,0.684,1.944v0.647l-4.068,0.792c-2.497,0.504-4.29,1.23-5.382,2.178
		c-1.093,0.948-1.638,2.19-1.638,3.727c0,1.464,0.48,2.58,1.44,3.348c0.959,0.768,2.34,1.152,4.14,1.152
		c3.191,0,5.328-0.924,6.408-2.771c0.504,1.848,2.052,2.771,4.644,2.771c0.936,0,1.751-0.192,2.448-0.576l0.468-3.42
		C502.608,252.036,502.235,252.085,501.781,252.085 M480.433,237.217c-1.368,0-2.514,0.366-3.438,1.098
		c-0.924,0.732-1.602,1.782-2.034,3.15l-0.252-3.889h-5.4v18h6.12v-9.071c0-1.368,0.384-2.418,1.152-3.15
		c0.768-0.731,1.728-1.098,2.88-1.098c0.456,0,0.888,0.054,1.296,0.162c0.408,0.107,0.732,0.233,0.972,0.378l0.648-5.185
		C481.896,237.349,481.249,237.217,480.433,237.217 M458.977,237.576v9.54c0,1.393-0.3,2.43-0.9,3.114s-1.404,1.026-2.412,1.026
		c-0.84,0-1.464-0.24-1.872-0.721c-0.408-0.48-0.612-1.308-0.612-2.484v-10.476h-6.12v12.024c0,2.184,0.546,3.785,1.638,4.806
		c1.092,1.021,2.598,1.53,4.518,1.53c3.024,0,5.1-1.236,6.228-3.708l0.18,3.348h5.472v-18H458.977z M444.145,250.788
		c-0.744,0.528-1.608,0.793-2.592,0.793c-1.584,0-2.376-0.805-2.376-2.412v-7.236h5.4v-4.356h-5.4v-5.724l-6.12,1.692v4.031h-3.096
		v4.356h3.096v8.244c0.024,2.016,0.6,3.479,1.728,4.392s2.76,1.368,4.896,1.368c0.936,0,1.866-0.127,2.79-0.379
		c0.924-0.252,1.686-0.582,2.286-0.989L444.145,250.788z M419.917,237.217c-2.976,0-5.298,0.821-6.966,2.466
		c-1.668,1.644-2.502,3.942-2.502,6.894c0,2.976,0.84,5.28,2.52,6.912c1.68,1.632,4.08,2.448,7.2,2.448
		c2.424,0,4.374-0.51,5.85-1.53s2.346-2.347,2.61-3.978l-5.508-1.764c-0.288,1.943-1.284,2.916-2.988,2.916
		c-2.376,0-3.564-1.645-3.564-4.933c0-3.384,1.188-5.076,3.564-5.076c1.608,0,2.532,1.032,2.772,3.097l5.688-1.872
		c-0.336-1.656-1.188-3-2.556-4.032S422.628,237.217,419.917,237.217 M399.038,241.501c1.92,0,3.024,1.176,3.312,3.527h-6.768
		C395.941,242.677,397.094,241.501,399.038,241.501 M408.074,246.324c0-2.88-0.774-5.117-2.322-6.714
		c-1.548-1.596-3.775-2.394-6.678-2.394c-3.001,0-5.316,0.815-6.948,2.448c-1.633,1.632-2.448,3.936-2.448,6.911
		s0.833,5.28,2.502,6.912c1.668,1.632,4.073,2.448,7.218,2.448c2.111,0,3.893-0.402,5.346-1.206c1.452-0.804,2.43-1.974,2.934-3.511
		l-4.968-1.584c-0.193,0.648-0.571,1.141-1.134,1.477c-0.564,0.336-1.291,0.504-2.178,0.504c-1.057,0-1.903-0.264-2.538-0.792
		c-0.636-0.528-1.05-1.356-1.242-2.483h12.276C408.014,247.812,408.074,247.14,408.074,246.324 M375.89,250.788v-18.972h-6.192
		v23.76h18.108v-4.788H375.89z"/>
	<path clip-path="url(#SVGID_2_)" fill="#231F20" d="M255.91,483.024c4.589,4.588,10.133,6.889,16.633,6.889
		c6.494,0,12.039-2.301,16.632-6.889c4.589-4.59,6.889-10.133,6.889-16.633c0-6.494-2.3-12.039-6.889-16.633
		c-4.593-4.588-10.138-6.887-16.632-6.887c-6.5,0-12.044,2.299-16.633,6.887c-4.593,4.594-6.888,10.139-6.888,16.633
		C249.022,472.892,251.317,478.435,255.91,483.024 M61.865,458.999v26.209H223.15v-26.209h-66.53V250.001h-54.77l-44.017,98.787
		v2.016h27.889l38.641-88.371h4.032v196.566H61.865z"/>
	<path clip-path="url(#SVGID_2_)" fill="#0046FA" d="M808.014,485.044c11.916-13.619,22.981-24.115,32.628-31.492
		c11.065-8.512,20.995-14.188,29.507-17.023v-6.525c-11.916-5.107-22.13-11.066-30.357-18.727
		c-16.456-15.037-27.237-25.533-31.777-31.209h-19.577c4.54,9.646,9.363,18.441,14.187,26.387
		c3.972,5.959,8.228,11.633,13.619,17.307H390.531v17.307h425.995c-7.377,9.078-11.633,15.037-13.902,18.727
		c-5.958,9.645-10.781,18.158-13.618,25.25H808.014z"/>
</g>
<line fill="none" stroke="#0046FA" stroke-width="2" x1="16.001" y1="180.054" x2="911.068" y2="180.054"/>
<line fill="none" stroke="#0046FA" stroke-width="2" x1="352.026" y1="348.448" x2="911.068" y2="348.448"/>
<line fill="none" stroke="#0046FA" stroke-width="2" x1="921.568" y1="14.041" x2="921.568" y2="505.495"/>
<line fill="none" stroke="#0046FA" stroke-width="2" x1="341.523" y1="191.054" x2="341.523" y2="505.495"/>
<polygon fill="#231F20" points="969.608,39.623 1035.059,39.623 1035.059,424.442 1121.719,424.442 1121.719,485.044 
	969.608,485.044 "/>
<g>
	<defs>
		<rect id="SVGID_7_" y="0.04" width="1170.088" height="525.039"/>
	</defs>
	<clipPath id="SVGID_4_">
		<use xlink:href="#SVGID_7_"  overflow="visible"/>
	</clipPath>
	<polygon clip-path="url(#SVGID_4_)" fill="none" stroke="#0046FA" stroke-width="1.998" points="0.999,3.038 0.999,522.077 
		0.999,524.079 3,524.079 1167.087,524.079 1169.088,524.079 1169.088,522.077 1169.088,3.038 1169.088,1.036 1167.087,1.036 
		3,1.036 0.999,1.036 	"/>
</g>
<rect x="5.001" y="5.04" fill="none" stroke="#0046FA" stroke-width="1.998" width="1160.085" height="515.035"/>
</svg>
