<?xml version="1.0" encoding="utf-8"?>
<!-- Generator: Adobe Illustrator 16.0.0, SVG Export Plug-In . SVG Version: 6.00 Build 0)  -->
<!DOCTYPE svg PUBLIC "-//W3C//DTD SVG 1.1//EN" "http://www.w3.org/Graphics/SVG/1.1/DTD/svg11.dtd">
<svg version="1.1" id="Layer_1" xmlns="http://www.w3.org/2000/svg" xmlns:xlink="http://www.w3.org/1999/xlink" x="0px" y="0px"
	 width="1170.09px" height="492.17px" viewBox="0 0 1170.09 492.17" enable-background="new 0 0 1170.09 492.17"
	 xml:space="preserve">
<polygon fill="#231F20" points="136.355,444.646 274.633,444.646 362.729,54.347 286.899,54.347 210.512,407.847 200.477,407.847 
	124.088,54.347 48.26,54.347 "/>
<line fill="none" stroke="#0046FA" stroke-width="2" x1="426.044" y1="177.17" x2="1144.633" y2="177.17"/>
<line fill="none" stroke="#0046FA" stroke-width="2" x1="665.055" y1="331.17" x2="1144.633" y2="331.17"/>
<line fill="none" stroke="#0046FA" stroke-width="2" x1="405.043" y1="25.999" x2="405.043" y2="467.17"/>
<line fill="none" stroke="#0046FA" stroke-width="2" x1="637.055" y1="198.17" x2="637.055" y2="467.17"/>
<g>
	<defs>
		<rect id="SVGID_65_" width="1170.088" height="492.17"/>
	</defs>
	<clipPath id="SVGID_2_">
		<use xlink:href="#SVGID_65_"  overflow="visible"/>
	</clipPath>
	<path clip-path="url(#SVGID_2_)" fill="#0046FA" d="M1045.51,125.352h73.341V99.278h-3.32l-12.256,22.217h-15.526V59.971h8.494
		v-3.808h-50.732v3.808h8.545v61.524h-8.545V125.352z M956.265,100.791l9.034-23.046l9.423,23.046H956.265z M935.609,125.352h22.316
		v-3.856c-1.303,0-2.5-0.032-3.59-0.098c-1.092-0.065-2.034-0.188-2.832-0.367c-0.799-0.179-1.416-0.406-1.855-0.684
		c-0.439-0.275-0.66-0.642-0.66-1.099c0-0.162,0.018-0.292,0.049-0.39l5.714-14.209h21.484l6.738,16.846h-9.424v3.856h55.371v-3.856
		h-8.495l-29.444-65.332h-21.436l-25.146,62.841c-0.392,0.944-1.294,1.596-2.71,1.953c-1.416,0.358-3.443,0.538-6.08,0.538V125.352z
		 M844.362,95.372c0,2.832,0.251,5.583,0.757,8.251c0.505,2.67,1.311,5.185,2.417,7.544c1.106,2.361,2.556,4.525,4.347,6.494
		c1.789,1.97,3.985,3.662,6.591,5.078c2.603,1.416,5.63,2.515,9.081,3.297c3.451,0.781,7.39,1.171,11.816,1.171
		c6.381,0,11.712-0.644,15.992-1.929c4.279-1.285,7.715-3.295,10.303-6.03c2.588-2.734,4.426-6.226,5.518-10.474
		c1.09-4.248,1.636-9.334,1.636-15.259V62.852c0-0.944,0.715-1.659,2.148-2.147c1.432-0.489,3.548-0.733,6.348-0.733v-3.808h-21.24
		v3.808c2.832,0,4.974,0.244,6.42,0.733c1.449,0.488,2.174,1.203,2.174,2.147v32.031c0,3.679-0.229,6.86-0.684,9.546
		c-0.457,2.686-1.083,4.98-1.88,6.885c-0.799,1.904-1.726,3.459-2.783,4.663c-1.059,1.205-2.182,2.148-3.369,2.832
		c-1.188,0.685-2.417,1.147-3.687,1.392c-1.271,0.244-2.507,0.367-3.712,0.367c-3.157,0-5.688-0.619-7.592-1.856
		c-1.904-1.236-3.369-2.905-4.395-5.005s-1.702-4.532-2.027-7.299c-0.324-2.768-0.487-5.681-0.487-8.741V59.971h8.496v-3.808
		h-50.732v3.808h8.545V95.372z M752.089,125.352h50.731v-3.856h-8.545V59.971h7.08l11.915,24.121h3.417V56.163h-78.466v27.929h3.37
		l11.962-24.121h7.031v61.524h-8.496V125.352z M670.948,59.971c1.757,0,3.287,0.204,4.589,0.61c1.303,0.408,2.387,1.14,3.248,2.197
		c0.862,1.059,1.506,2.508,1.929,4.346c0.423,1.84,0.635,4.208,0.635,7.105s-0.212,5.281-0.635,7.152
		c-0.423,1.873-1.066,3.345-1.929,4.419c-0.861,1.074-1.945,1.824-3.248,2.246c-1.302,0.424-2.832,0.635-4.589,0.635V59.971z
		 M628.712,125.352h50.732v-3.856h-8.496V92.539c1.595,0,2.971,0.229,4.126,0.684c1.155,0.456,2.092,1.294,2.809,2.515
		c0.715,1.221,1.244,2.89,1.586,5.006c0.342,2.115,0.513,4.834,0.513,8.154c0,3.026,0.31,5.696,0.927,8.008
		c0.619,2.311,1.686,4.248,3.199,5.81c1.513,1.563,3.54,2.742,6.079,3.54c2.538,0.798,5.729,1.197,9.571,1.197
		c4.003,0,7.307-0.303,9.911-0.904c2.603-0.602,4.679-1.587,6.226-2.954c1.545-1.367,2.62-3.157,3.223-5.371
		c0.603-2.213,0.903-4.932,0.903-8.153v-1.563h-4.102c0,3.938-0.243,6.951-0.732,9.034c-0.488,2.083-1.27,3.125-2.345,3.125
		c-0.65,0-1.114-0.262-1.391-0.782c-0.275-0.521-0.415-1.285-0.415-2.295v-1.733c0-0.504,0.032-1.228,0.098-2.173
		c0.032-0.911,0.057-1.7,0.073-2.368c0.016-0.666,0.024-1.473,0.024-2.416c0-3.418-0.603-6.242-1.806-8.473
		c-1.205-2.229-3.119-4.004-5.738-5.322c-2.621-1.318-5.998-2.246-10.133-2.783c-4.133-0.537-9.129-0.821-14.989-0.854
		c6.542-0.032,12.003-0.447,16.382-1.245c4.377-0.797,7.877-1.929,10.498-3.393c2.62-1.465,4.476-3.256,5.566-5.371
		c1.09-2.116,1.636-4.525,1.636-7.227c0-3.093-0.627-5.779-1.88-8.058c-1.254-2.278-3.076-4.158-5.469-5.64
		c-2.393-1.48-5.34-2.58-8.838-3.295c-3.499-0.717-7.479-1.074-11.938-1.074h-55.811v3.808h8.546v61.524h-8.546V125.352z
		 M556.312,125.352h50.732v-3.856h-8.495V59.971h8.495v-3.808h-50.732v3.808h8.544v61.524h-8.544V125.352z M487.183,125.352h20.946
		l23.096-62.354c0.424-1.106,1.311-1.888,2.662-2.343c1.351-0.457,3.458-0.685,6.322-0.685v-3.808h-22.754v3.808
		c1.303,0,2.498,0.041,3.59,0.122c1.091,0.082,2.033,0.212,2.832,0.391c0.799,0.18,1.416,0.407,1.855,0.684
		c0.439,0.277,0.658,0.628,0.658,1.05c0,0.228-0.049,0.489-0.145,0.781l-14.795,39.649l-16.504-42.677h8.592v-3.808h-52.148v3.808
		h7.179L487.183,125.352z"/>
	<path clip-path="url(#SVGID_2_)" fill="#231F20" d="M1114.555,290.13c2.629,0,4.635-0.516,6.018-1.547
		c1.382-1.031,2.074-2.374,2.074-4.029c0-1.473-0.55-2.635-1.649-3.485c-1.1-0.85-2.896-1.489-5.39-1.921
		c-1.155-0.226-1.966-0.459-2.43-0.696c-0.465-0.238-0.697-0.527-0.697-0.867c0-0.362,0.225-0.668,0.68-0.918
		c0.453-0.249,1.088-0.374,1.904-0.374c1.042,0,1.938,0.182,2.686,0.544c0.748,0.363,1.395,0.94,1.938,1.733l2.993-2.924
		c-0.772-1.064-1.774-1.864-3.009-2.396c-1.236-0.532-2.828-0.799-4.777-0.799c-1.77,0-3.271,0.267-4.505,0.799
		c-1.236,0.532-2.159,1.229-2.771,2.091c-0.612,0.862-0.918,1.78-0.918,2.754c0,1.428,0.538,2.573,1.615,3.434
		c1.075,0.862,2.884,1.542,5.423,2.04c1.133,0.228,1.932,0.459,2.397,0.697c0.464,0.238,0.696,0.516,0.696,0.833
		c0,0.363-0.227,0.652-0.68,0.867c-0.454,0.216-1.077,0.323-1.87,0.323c-2.38,0-4.058-0.805-5.032-2.414l-2.992,3.264
		C1107.891,289.133,1110.655,290.13,1114.555,290.13 M1094.154,286.39c-0.521,0-0.93-0.124-1.224-0.374
		c-0.295-0.249-0.442-0.612-0.442-1.088s0.153-0.844,0.459-1.105c0.307-0.26,0.821-0.48,1.547-0.662l2.754-0.646v1.462
		c0,0.727-0.317,1.31-0.951,1.751C1095.661,286.169,1094.947,286.39,1094.154,286.39 M1104.185,286.492
		c-0.816,0-1.226-0.442-1.226-1.326v-6.188c0-2.176-0.69-3.808-2.072-4.896c-1.383-1.088-3.4-1.632-6.053-1.632
		c-2.267,0-4.068,0.459-5.405,1.377c-1.339,0.918-2.154,2.204-2.448,3.858l4.691,1.36c0.158-0.929,0.511-1.599,1.055-2.006
		c0.544-0.408,1.246-0.612,2.107-0.612c0.748,0,1.338,0.227,1.769,0.68c0.43,0.454,0.646,1.066,0.646,1.836v0.612l-3.842,0.748
		c-2.357,0.476-4.052,1.162-5.083,2.057c-1.032,0.896-1.548,2.069-1.548,3.52c0,1.383,0.454,2.437,1.361,3.162
		c0.904,0.726,2.21,1.088,3.91,1.088c3.014,0,5.031-0.872,6.052-2.618c0.476,1.746,1.938,2.618,4.386,2.618
		c0.884,0,1.654-0.183,2.312-0.544l0.441-3.23C1104.967,286.446,1104.614,286.492,1104.185,286.492 M1080.555,264.697l-2.279,5.883
		h4.217l3.434-5.883H1080.555z M1083.648,272.79h-5.78v17h5.78V272.79z M1068.01,272.45c-1.247,0-2.375,0.295-3.385,0.884
		c-1.008,0.59-1.783,1.439-2.328,2.55c-0.407-1.11-1.082-1.96-2.022-2.55c-0.941-0.589-2.057-0.884-3.349-0.884
		c-1.316,0-2.461,0.306-3.435,0.918c-0.975,0.611-1.733,1.508-2.278,2.686l-0.17-3.264h-5.168v17h5.78v-8.977
		c0-1.313,0.283-2.3,0.851-2.958c0.565-0.656,1.279-0.985,2.142-0.985c1.54,0,2.312,0.975,2.312,2.924v9.996h5.78v-9.078
		c0-1.246,0.272-2.198,0.815-2.856c0.545-0.656,1.27-0.985,2.177-0.985c1.54,0,2.312,0.975,2.312,2.924v9.996h5.78v-11.322
		c0-1.926-0.539-3.411-1.615-4.454C1071.131,272.972,1069.731,272.45,1068.01,272.45 M1033.567,276.563
		c1.088,0,1.892,0.374,2.414,1.122c0.521,0.748,0.782,1.95,0.782,3.604s-0.262,2.855-0.782,3.604
		c-0.522,0.748-1.326,1.122-2.414,1.122s-1.894-0.374-2.414-1.122c-0.522-0.748-0.782-1.949-0.782-3.604s0.26-2.856,0.782-3.604
		C1031.674,276.938,1032.479,276.563,1033.567,276.563 M1033.567,272.45c-2.834,0-5.038,0.776-6.613,2.328
		c-1.575,1.554-2.362,3.724-2.362,6.512s0.787,4.959,2.362,6.511c1.575,1.553,3.779,2.329,6.613,2.329
		c2.833,0,5.036-0.776,6.613-2.329c1.575-1.552,2.362-3.723,2.362-6.511s-0.787-4.958-2.362-6.512
		C1038.604,273.227,1036.4,272.45,1033.567,272.45 M1015.479,272.45c-1.338,0-2.505,0.301-3.502,0.9
		c-0.998,0.602-1.769,1.502-2.312,2.703l-0.17-3.264h-5.169v17h5.781v-8.977c0-1.337,0.283-2.329,0.85-2.975
		c0.566-0.646,1.303-0.969,2.21-0.969c0.771,0,1.365,0.243,1.785,0.73c0.419,0.488,0.629,1.31,0.629,2.465v9.725h5.78v-11.322
		c0-1.926-0.533-3.411-1.598-4.454C1018.697,272.972,1017.27,272.45,1015.479,272.45 M992.02,276.563
		c1.088,0,1.893,0.374,2.414,1.122s0.783,1.95,0.783,3.604s-0.262,2.855-0.783,3.604s-1.326,1.122-2.414,1.122
		s-1.893-0.374-2.414-1.122s-0.782-1.949-0.782-3.604s0.261-2.856,0.782-3.604S990.932,276.563,992.02,276.563 M992.02,272.45
		c-2.833,0-5.037,0.776-6.613,2.328c-1.575,1.554-2.363,3.724-2.363,6.512s0.788,4.959,2.363,6.511
		c1.576,1.553,3.78,2.329,6.613,2.329c2.834,0,5.038-0.776,6.613-2.329c1.575-1.552,2.362-3.723,2.362-6.511
		s-0.787-4.958-2.362-6.512C997.058,273.227,994.854,272.45,992.02,272.45 M982.467,289.79l-6.054-8.568l5.916-8.432h-6.392
		l-3.197,5.678l-3.127-5.678h-6.562l5.882,8.397l-6.12,8.603h6.392l3.4-5.916l3.332,5.916H982.467z M951.355,286.39
		c-0.521,0-0.93-0.124-1.223-0.374c-0.295-0.249-0.442-0.612-0.442-1.088s0.153-0.844,0.459-1.105
		c0.306-0.26,0.821-0.48,1.547-0.662l2.754-0.646v1.462c0,0.727-0.317,1.31-0.952,1.751
		C952.863,286.169,952.149,286.39,951.355,286.39 M961.387,286.492c-0.816,0-1.225-0.442-1.225-1.326v-6.188
		c0-2.176-0.691-3.808-2.074-4.896s-3.4-1.632-6.052-1.632c-2.267,0-4.068,0.459-5.405,1.377c-1.34,0.918-2.154,2.204-2.448,3.858
		l4.69,1.36c0.159-0.929,0.511-1.599,1.056-2.006c0.544-0.408,1.247-0.612,2.107-0.612c0.748,0,1.337,0.227,1.769,0.68
		c0.43,0.454,0.646,1.066,0.646,1.836v0.612l-3.843,0.748c-2.357,0.476-4.051,1.162-5.082,2.057
		c-1.033,0.896-1.547,2.069-1.547,3.52c0,1.383,0.453,2.437,1.359,3.162s2.211,1.088,3.91,1.088c3.015,0,5.032-0.872,6.053-2.618
		c0.475,1.746,1.937,2.618,4.385,2.618c0.885,0,1.656-0.183,2.312-0.544l0.441-3.23
		C962.168,286.446,961.816,286.492,961.387,286.492 M941.666,285.268c-0.703,0.499-1.519,0.748-2.447,0.748
		c-1.496,0-2.244-0.759-2.244-2.278v-6.834h5.1v-4.113h-5.1v-5.406l-5.78,1.598v3.809h-2.924v4.113h2.924v7.786
		c0.022,1.904,0.566,3.287,1.632,4.148c1.064,0.862,2.606,1.292,4.624,1.292c0.884,0,1.763-0.119,2.635-0.357
		c0.872-0.237,1.593-0.549,2.159-0.935L941.666,285.268z M909.366,290.13c2.629,0,4.635-0.516,6.019-1.547
		c1.382-1.031,2.072-2.374,2.072-4.029c0-1.473-0.549-2.635-1.648-3.485c-1.1-0.85-2.896-1.489-5.389-1.921
		c-1.155-0.226-1.967-0.459-2.432-0.696c-0.465-0.238-0.697-0.527-0.697-0.867c0-0.362,0.228-0.668,0.682-0.918
		c0.453-0.249,1.088-0.374,1.902-0.374c1.043,0,1.939,0.182,2.688,0.544c0.748,0.363,1.394,0.94,1.938,1.733l2.992-2.924
		c-0.771-1.064-1.773-1.864-3.009-2.396c-1.236-0.532-2.828-0.799-4.778-0.799c-1.767,0-3.269,0.267-4.504,0.799
		c-1.234,0.532-2.16,1.229-2.771,2.091c-0.612,0.862-0.918,1.78-0.918,2.754c0,1.428,0.538,2.573,1.614,3.434
		c1.076,0.862,2.885,1.542,5.424,2.04c1.133,0.228,1.932,0.459,2.396,0.697c0.464,0.238,0.697,0.516,0.697,0.833
		c0,0.363-0.228,0.652-0.68,0.867c-0.454,0.216-1.077,0.323-1.87,0.323c-2.38,0-4.059-0.805-5.032-2.414l-2.992,3.264
		C902.702,289.133,905.468,290.13,909.366,290.13 M892.4,272.79v9.01c0,1.314-0.283,2.295-0.85,2.94
		c-0.567,0.646-1.326,0.97-2.279,0.97c-0.792,0-1.382-0.227-1.768-0.681c-0.385-0.452-0.578-1.234-0.578-2.346v-9.894h-5.779v11.355
		c0,2.063,0.516,3.576,1.547,4.539c1.031,0.964,2.454,1.445,4.266,1.445c2.857,0,4.818-1.167,5.883-3.502l0.171,3.162h5.168v-17
		H892.4z M870.165,290.13c2.629,0,4.636-0.516,6.019-1.547c1.382-1.031,2.074-2.374,2.074-4.029c0-1.473-0.551-2.635-1.65-3.485
		c-1.1-0.85-2.895-1.489-5.388-1.921c-1.156-0.226-1.968-0.459-2.432-0.696c-0.465-0.238-0.696-0.527-0.696-0.867
		c0-0.362,0.226-0.668,0.68-0.918c0.453-0.249,1.088-0.374,1.904-0.374c1.042,0,1.938,0.182,2.686,0.544
		c0.748,0.363,1.395,0.94,1.938,1.733l2.991-2.924c-0.771-1.064-1.773-1.864-3.009-2.396s-2.828-0.799-4.776-0.799
		c-1.769,0-3.271,0.267-4.506,0.799s-2.158,1.229-2.771,2.091c-0.612,0.862-0.918,1.78-0.918,2.754c0,1.428,0.538,2.573,1.614,3.434
		c1.076,0.862,2.885,1.542,5.424,2.04c1.133,0.228,1.932,0.459,2.396,0.697c0.463,0.238,0.697,0.516,0.697,0.833
		c0,0.363-0.227,0.652-0.68,0.867c-0.455,0.216-1.077,0.323-1.871,0.323c-2.379,0-4.058-0.805-5.031-2.414l-2.992,3.264
		C863.501,289.133,866.267,290.13,870.165,290.13 M852.076,272.79h-5.777l-2.619,9.554l-0.918,3.74l-0.816-3.604l-2.619-9.689
		h-6.356l5.065,12.75l1.973,4.624l-0.408,1.054c-0.25,0.612-0.578,1.037-0.986,1.275c-0.408,0.237-0.964,0.356-1.666,0.356
		c-0.703,0-1.273-0.062-1.717-0.187c-0.442-0.125-0.845-0.357-1.207-0.697l-1.224,3.876c1.155,0.838,2.696,1.258,4.624,1.258
		c1.449,0,2.686-0.232,3.705-0.697c1.021-0.465,1.904-1.229,2.652-2.295s1.439-2.505,2.074-4.317L852.076,272.79z M814.304,290.13
		c2.629,0,4.635-0.516,6.017-1.547c1.383-1.031,2.075-2.374,2.075-4.029c0-1.473-0.55-2.635-1.649-3.485
		c-1.1-0.85-2.896-1.489-5.389-1.921c-1.156-0.226-1.967-0.459-2.432-0.696c-0.465-0.238-0.696-0.527-0.696-0.867
		c0-0.362,0.226-0.668,0.679-0.918c0.454-0.249,1.089-0.374,1.905-0.374c1.042,0,1.938,0.182,2.686,0.544
		c0.748,0.363,1.394,0.94,1.938,1.733l2.992-2.924c-0.771-1.064-1.774-1.864-3.01-2.396s-2.828-0.799-4.777-0.799
		c-1.768,0-3.27,0.267-4.504,0.799c-1.236,0.532-2.159,1.229-2.771,2.091c-0.611,0.862-0.918,1.78-0.918,2.754
		c0,1.428,0.538,2.573,1.615,3.434c1.076,0.862,2.884,1.542,5.423,2.04c1.133,0.228,1.932,0.459,2.397,0.697
		c0.464,0.238,0.696,0.516,0.696,0.833c0,0.363-0.227,0.652-0.68,0.867c-0.454,0.216-1.077,0.323-1.87,0.323
		c-2.38,0-4.058-0.805-5.032-2.414l-2.991,3.264C807.639,289.133,810.404,290.13,814.304,290.13 M795.501,276.496
		c1.814,0,2.856,1.11,3.128,3.332h-6.392C792.576,277.606,793.665,276.496,795.501,276.496 M804.035,281.052
		c0-2.72-0.729-4.833-2.193-6.341c-1.461-1.507-3.563-2.261-6.307-2.261c-2.833,0-5.02,0.771-6.562,2.312
		c-1.541,1.542-2.312,3.718-2.312,6.528s0.787,4.986,2.361,6.527c1.577,1.542,3.849,2.312,6.818,2.312
		c1.994,0,3.678-0.379,5.049-1.14c1.372-0.759,2.295-1.863,2.771-3.314l-4.691-1.496c-0.182,0.612-0.538,1.077-1.07,1.395
		c-0.533,0.317-1.219,0.476-2.058,0.476c-0.997,0-1.797-0.249-2.397-0.748c-0.6-0.498-0.991-1.28-1.173-2.346h11.594
		C803.979,282.458,804.035,281.822,804.035,281.052 M782.072,265.582h-5.781v19.176c0,1.882,0.409,3.247,1.226,4.097
		c0.815,0.851,2.13,1.275,3.942,1.275c0.636,0,1.281-0.08,1.939-0.238c0.656-0.158,1.189-0.362,1.598-0.612l0.374-3.569
		c-0.612,0.204-1.189,0.306-1.733,0.306c-0.59,0-0.998-0.158-1.225-0.476s-0.34-0.861-0.34-1.632V265.582z M762.998,286.39
		c-0.521,0-0.93-0.124-1.224-0.374c-0.295-0.249-0.442-0.612-0.442-1.088s0.153-0.844,0.459-1.105
		c0.307-0.26,0.821-0.48,1.547-0.662l2.754-0.646v1.462c0,0.727-0.317,1.31-0.951,1.751
		C764.506,286.169,763.791,286.39,762.998,286.39 M773.028,286.492c-0.815,0-1.224-0.442-1.224-1.326v-6.188
		c0-2.176-0.692-3.808-2.074-4.896c-1.383-1.088-3.4-1.632-6.052-1.632c-2.268,0-4.069,0.459-5.407,1.377
		c-1.337,0.918-2.153,2.204-2.447,3.858l4.692,1.36c0.159-0.929,0.509-1.599,1.054-2.006c0.544-0.408,1.246-0.612,2.108-0.612
		c0.747,0,1.337,0.227,1.768,0.68c0.429,0.454,0.646,1.066,0.646,1.836v0.612l-3.842,0.748c-2.357,0.476-4.052,1.162-5.083,2.057
		c-1.031,0.896-1.547,2.069-1.547,3.52c0,1.383,0.452,2.437,1.36,3.162c0.906,0.726,2.21,1.088,3.91,1.088
		c3.014,0,5.033-0.872,6.051-2.618c0.477,1.746,1.939,2.618,4.387,2.618c0.885,0,1.654-0.183,2.312-0.544l0.441-3.23
		C773.811,286.446,773.457,286.492,773.028,286.492 M746.679,272.79v9.01c0,1.314-0.284,2.295-0.851,2.94
		c-0.566,0.646-1.326,0.97-2.277,0.97c-0.793,0-1.384-0.227-1.769-0.681c-0.386-0.452-0.578-1.234-0.578-2.346v-9.894h-5.778v11.355
		c0,2.063,0.514,3.576,1.545,4.539c1.031,0.964,2.455,1.445,4.268,1.445c2.856,0,4.816-1.167,5.882-3.502l0.169,3.162h5.168v-17
		H746.679z M732.5,285.268c-0.703,0.499-1.519,0.748-2.447,0.748c-1.496,0-2.244-0.759-2.244-2.278v-6.834h5.1v-4.113h-5.1v-5.406
		l-5.78,1.598v3.809h-2.925v4.113h2.925v7.786c0.022,1.904,0.566,3.287,1.632,4.148c1.064,0.862,2.606,1.292,4.624,1.292
		c0.884,0,1.763-0.119,2.635-0.357c0.872-0.237,1.593-0.549,2.159-0.935L732.5,285.268z M717.03,272.45
		c-1.292,0-2.375,0.346-3.247,1.036c-0.873,0.692-1.513,1.684-1.921,2.976l-0.238-3.672h-5.101v17h5.781v-8.568
		c0-1.292,0.361-2.283,1.088-2.975c0.725-0.691,1.631-1.037,2.72-1.037c0.429,0,0.838,0.051,1.224,0.152
		c0.386,0.103,0.691,0.222,0.918,0.357l0.612-4.896C718.412,272.575,717.801,272.45,717.03,272.45 M702.411,272.79h-5.778v17h5.778
		V272.79z M699.521,270.817c1.178,0,2.033-0.221,2.566-0.663c0.532-0.441,0.8-1.139,0.8-2.091c0-0.974-0.268-1.683-0.8-2.125
		c-0.533-0.441-1.389-0.663-2.566-0.663c-1.18,0-2.035,0.222-2.567,0.663c-0.532,0.442-0.799,1.151-0.799,2.125
		c0,0.952,0.267,1.649,0.799,2.091C697.486,270.597,698.342,270.817,699.521,270.817 M688.607,272.79l-3.57,13.328l-3.502-13.328
		h-6.086l6.12,17h6.901l6.121-17H688.607z"/>
	<path clip-path="url(#SVGID_2_)" fill="#231F20" d="M1034.688,246.13c2.629,0,4.635-0.516,6.018-1.547s2.074-2.374,2.074-4.029
		c0-1.473-0.55-2.635-1.648-3.485c-1.101-0.85-2.896-1.489-5.391-1.921c-1.155-0.226-1.966-0.459-2.43-0.696
		c-0.465-0.238-0.697-0.527-0.697-0.867c0-0.362,0.227-0.668,0.68-0.918c0.453-0.249,1.088-0.374,1.904-0.374
		c1.042,0,1.938,0.182,2.687,0.544c0.747,0.363,1.394,0.94,1.937,1.733l2.993-2.924c-0.772-1.064-1.774-1.863-3.009-2.396
		c-1.236-0.532-2.828-0.799-4.777-0.799c-1.768,0-3.27,0.267-4.505,0.799c-1.236,0.533-2.159,1.229-2.771,2.091
		c-0.612,0.862-0.918,1.78-0.918,2.754c0,1.428,0.538,2.573,1.615,3.434c1.075,0.862,2.884,1.542,5.423,2.04
		c1.133,0.228,1.933,0.459,2.397,0.697s0.696,0.516,0.696,0.833c0,0.363-0.227,0.652-0.68,0.867
		c-0.453,0.216-1.077,0.323-1.87,0.323c-2.38,0-4.057-0.805-5.031-2.414l-2.993,3.264
		C1028.023,245.133,1030.788,246.13,1034.688,246.13 M1015.887,232.496c1.812,0,2.855,1.11,3.128,3.332h-6.394
		C1012.963,233.606,1014.051,232.496,1015.887,232.496 M1024.42,237.052c0-2.72-0.73-4.833-2.192-6.341
		c-1.462-1.507-3.565-2.261-6.308-2.261c-2.834,0-5.021,0.771-6.562,2.312c-1.542,1.542-2.312,3.718-2.312,6.528
		s0.786,4.986,2.361,6.527c1.576,1.542,3.85,2.312,6.818,2.312c1.994,0,3.677-0.379,5.049-1.139c1.371-0.76,2.295-1.864,2.771-3.315
		l-4.692-1.496c-0.183,0.612-0.539,1.077-1.071,1.395c-0.533,0.317-1.219,0.476-2.057,0.476c-0.998,0-1.797-0.249-2.397-0.748
		c-0.601-0.498-0.991-1.28-1.173-2.346h11.594C1024.363,238.458,1024.42,237.822,1024.42,237.052 M997.935,228.45
		c-1.338,0-2.505,0.301-3.502,0.9c-0.998,0.602-1.769,1.502-2.312,2.703l-0.17-3.264h-5.168v17h5.78v-8.977
		c0-1.337,0.283-2.329,0.85-2.975c0.566-0.646,1.305-0.969,2.209-0.969c0.771,0,1.366,0.243,1.786,0.73
		c0.419,0.488,0.629,1.31,0.629,2.465v9.725h5.78v-11.322c0-1.926-0.533-3.411-1.598-4.454
		C1001.152,228.972,999.725,228.45,997.935,228.45 M974.475,232.563c1.088,0,1.893,0.374,2.414,1.122
		c0.52,0.748,0.781,1.95,0.781,3.604s-0.262,2.855-0.781,3.604c-0.521,0.748-1.326,1.122-2.414,1.122s-1.894-0.374-2.414-1.122
		c-0.521-0.748-0.782-1.949-0.782-3.604s0.261-2.856,0.782-3.604C972.581,232.938,973.387,232.563,974.475,232.563 M974.475,228.45
		c-2.834,0-5.038,0.776-6.613,2.328c-1.576,1.554-2.363,3.724-2.363,6.512s0.787,4.959,2.363,6.511
		c1.575,1.553,3.779,2.329,6.613,2.329c2.832,0,5.037-0.776,6.613-2.329c1.574-1.552,2.362-3.723,2.362-6.511
		s-0.788-4.958-2.362-6.512C979.512,229.227,977.307,228.45,974.475,228.45 M962.201,228.79h-5.779v17h5.779V228.79z
		 M959.312,226.817c1.177,0,2.034-0.221,2.567-0.662c0.531-0.442,0.799-1.14,0.799-2.092c0-0.974-0.268-1.683-0.799-2.125
		c-0.533-0.441-1.391-0.662-2.567-0.662c-1.179,0-2.036,0.221-2.567,0.662c-0.533,0.442-0.799,1.151-0.799,2.125
		c0,0.952,0.266,1.649,0.799,2.092C957.275,226.597,958.133,226.817,959.312,226.817 M945.134,228.45
		c-2.812,0-5.005,0.776-6.579,2.328c-1.576,1.554-2.363,3.724-2.363,6.512c0,2.811,0.793,4.986,2.38,6.527
		c1.585,1.542,3.854,2.312,6.8,2.312c2.289,0,4.131-0.481,5.525-1.445c1.393-0.963,2.215-2.215,2.465-3.757l-5.203-1.666
		c-0.271,1.836-1.212,2.754-2.82,2.754c-2.244,0-3.367-1.552-3.367-4.658c0-3.195,1.123-4.794,3.367-4.794
		c1.518,0,2.391,0.976,2.617,2.924l5.371-1.768c-0.316-1.564-1.121-2.833-2.413-3.809
		C949.621,228.938,947.694,228.45,945.134,228.45 M932.893,228.79h-5.779v17h5.779V228.79z M930.003,226.817
		c1.18,0,2.034-0.221,2.567-0.662c0.533-0.442,0.799-1.14,0.799-2.092c0-0.974-0.266-1.683-0.799-2.125
		c-0.533-0.441-1.388-0.662-2.567-0.662c-1.179,0-2.033,0.221-2.566,0.662c-0.533,0.442-0.799,1.151-0.799,2.125
		c0,0.952,0.266,1.649,0.799,2.092C927.97,226.597,928.824,226.817,930.003,226.817 M914.059,241.88
		c-1.021,0-1.809-0.374-2.363-1.122c-0.557-0.748-0.833-1.904-0.833-3.468c0-1.564,0.276-2.721,0.833-3.469
		c0.555-0.747,1.342-1.121,2.363-1.121c0.929,0,1.671,0.34,2.227,1.02c0.557,0.68,0.867,1.644,0.936,2.89v1.36
		c-0.068,1.27-0.379,2.239-0.936,2.907C915.729,241.546,914.987,241.88,914.059,241.88 M917.221,221.581v10.064
		c-0.499-0.997-1.18-1.779-2.04-2.346c-0.862-0.566-1.894-0.85-3.095-0.85c-2.198,0-3.922,0.781-5.168,2.346
		c-1.246,1.563-1.869,3.752-1.869,6.562c0,2.767,0.616,4.919,1.853,6.46c1.235,1.542,2.952,2.312,5.151,2.312
		c1.268,0,2.385-0.318,3.349-0.952c0.963-0.634,1.694-1.507,2.193-2.618l0.204,3.23H923v-24.209H917.221z M893.998,232.496
		c1.813,0,2.856,1.11,3.127,3.332h-6.391C891.074,233.606,892.162,232.496,893.998,232.496 M902.532,237.052
		c0-2.72-0.73-4.833-2.192-6.341c-1.463-1.507-3.565-2.261-6.308-2.261c-2.834,0-5.021,0.771-6.562,2.312
		c-1.542,1.542-2.312,3.718-2.312,6.528s0.787,4.986,2.363,6.527c1.575,1.542,3.847,2.312,6.816,2.312
		c1.994,0,3.678-0.379,5.05-1.139c1.37-0.76,2.295-1.864,2.771-3.315l-4.691-1.496c-0.183,0.612-0.539,1.077-1.071,1.395
		c-0.533,0.317-1.22,0.476-2.058,0.476c-0.996,0-1.797-0.249-2.396-0.748c-0.6-0.498-0.992-1.28-1.173-2.346h11.594
		C902.475,238.458,902.532,237.822,902.532,237.052 M864.487,232.496c1.813,0,2.856,1.11,3.128,3.332h-6.393
		C861.563,233.606,862.651,232.496,864.487,232.496 M873.021,237.052c0-2.72-0.732-4.833-2.193-6.341
		c-1.462-1.507-3.564-2.261-6.307-2.261c-2.834,0-5.021,0.771-6.562,2.312c-1.542,1.542-2.312,3.718-2.312,6.528
		s0.787,4.986,2.363,6.527c1.574,1.542,3.847,2.312,6.815,2.312c1.994,0,3.678-0.379,5.049-1.139
		c1.372-0.76,2.297-1.864,2.772-3.315l-4.692-1.496c-0.182,0.612-0.539,1.077-1.07,1.395c-0.533,0.317-1.22,0.476-2.059,0.476
		c-0.997,0-1.796-0.249-2.396-0.748c-0.602-0.498-0.992-1.28-1.173-2.346h11.594C872.965,238.458,873.021,237.822,873.021,237.052
		 M843.407,241.88c-1.02,0-1.808-0.374-2.363-1.122s-0.833-1.904-0.833-3.468c0-1.564,0.277-2.721,0.833-3.469
		c0.556-0.747,1.344-1.121,2.363-1.121c0.929,0,1.671,0.34,2.228,1.02c0.555,0.68,0.866,1.644,0.935,2.89v1.36
		c-0.068,1.27-0.38,2.239-0.935,2.907C845.078,241.546,844.336,241.88,843.407,241.88 M846.569,221.581v10.064
		c-0.499-0.997-1.179-1.779-2.04-2.346c-0.862-0.566-1.893-0.85-3.094-0.85c-2.199,0-3.922,0.781-5.168,2.346
		c-1.247,1.563-1.87,3.752-1.87,6.562c0,2.767,0.617,4.919,1.853,6.46c1.235,1.542,2.952,2.312,5.151,2.312
		c1.269,0,2.385-0.318,3.349-0.952c0.963-0.634,1.694-1.507,2.193-2.618l0.204,3.23h5.202v-24.209H846.569z M815.459,228.45
		c-1.338,0-2.505,0.301-3.502,0.9c-0.998,0.602-1.768,1.502-2.312,2.703l-0.171-3.264h-5.168v17h5.781v-8.977
		c0-1.337,0.283-2.329,0.85-2.975c0.566-0.646,1.303-0.969,2.21-0.969c0.771,0,1.366,0.243,1.785,0.73
		c0.42,0.488,0.629,1.31,0.629,2.465v9.725h5.78v-11.322c0-1.926-0.533-3.411-1.6-4.454
		C818.679,228.972,817.25,228.45,815.459,228.45 M791.66,220.698l-2.277,5.881h4.216l3.434-5.881H791.66z M792,232.563
		c1.088,0,1.893,0.374,2.414,1.122s0.782,1.95,0.782,3.604s-0.261,2.855-0.782,3.604s-1.326,1.122-2.414,1.122
		s-1.893-0.374-2.414-1.122s-0.781-1.949-0.781-3.604s0.26-2.856,0.781-3.604S790.912,232.563,792,232.563 M792,228.45
		c-2.834,0-5.037,0.776-6.612,2.328c-1.576,1.554-2.364,3.724-2.364,6.512s0.788,4.959,2.364,6.511
		c1.575,1.553,3.778,2.329,6.612,2.329c2.833,0,5.037-0.776,6.613-2.329c1.574-1.552,2.363-3.723,2.363-6.511
		s-0.789-4.958-2.363-6.512C797.037,229.227,794.833,228.45,792,228.45 M779.727,228.79h-5.78v17h5.78V228.79z M776.836,226.817
		c1.179,0,2.034-0.221,2.567-0.662c0.533-0.442,0.799-1.14,0.799-2.092c0-0.974-0.266-1.683-0.799-2.125
		c-0.533-0.441-1.389-0.662-2.567-0.662c-1.18,0-2.034,0.221-2.566,0.662c-0.533,0.442-0.799,1.151-0.799,2.125
		c0,0.952,0.266,1.649,0.799,2.092C774.802,226.597,775.656,226.817,776.836,226.817 M762.658,228.45
		c-2.811,0-5.004,0.776-6.579,2.328c-1.576,1.554-2.362,3.724-2.362,6.512c0,2.811,0.793,4.986,2.38,6.527
		c1.587,1.542,3.853,2.312,6.8,2.312c2.289,0,4.131-0.481,5.525-1.445c1.394-0.963,2.216-2.215,2.465-3.757l-5.202-1.666
		c-0.272,1.836-1.214,2.754-2.822,2.754c-2.244,0-3.366-1.552-3.366-4.658c0-3.195,1.122-4.794,3.366-4.794
		c1.521,0,2.391,0.976,2.618,2.924l5.372-1.768c-0.317-1.564-1.122-2.833-2.414-3.809C767.146,228.938,765.22,228.45,762.658,228.45
		 M741.307,242.39c-0.521,0-0.93-0.124-1.225-0.374c-0.295-0.249-0.441-0.612-0.441-1.088s0.152-0.844,0.459-1.105
		c0.305-0.26,0.822-0.48,1.547-0.662l2.754-0.646v1.462c0,0.727-0.317,1.31-0.952,1.751
		C742.813,242.169,742.101,242.39,741.307,242.39 M751.336,242.492c-0.815,0-1.224-0.442-1.224-1.326v-6.188
		c0-2.176-0.69-3.808-2.075-4.896c-1.382-1.088-3.398-1.631-6.051-1.631c-2.266,0-4.068,0.459-5.406,1.377s-2.152,2.204-2.447,3.858
		l4.691,1.36c0.159-0.929,0.51-1.599,1.054-2.006c0.544-0.408,1.247-0.612,2.108-0.612c0.748,0,1.338,0.227,1.768,0.68
		c0.432,0.454,0.646,1.066,0.646,1.836v0.612l-3.842,0.748c-2.357,0.476-4.051,1.162-5.084,2.057
		c-1.03,0.896-1.546,2.069-1.546,3.52c0,1.383,0.454,2.437,1.359,3.162c0.907,0.726,2.21,1.088,3.91,1.088
		c3.015,0,5.032-0.872,6.052-2.618c0.477,1.746,1.938,2.618,4.387,2.618c0.884,0,1.654-0.183,2.312-0.544l0.442-3.23
		C752.118,242.446,751.768,242.492,751.336,242.492 M723.151,232.496c1.813,0,2.856,1.11,3.128,3.332h-6.392
		C720.228,233.606,721.315,232.496,723.151,232.496 M731.686,237.052c0-2.72-0.731-4.833-2.193-6.341
		c-1.462-1.507-3.564-2.261-6.307-2.261c-2.834,0-5.021,0.771-6.562,2.312c-1.542,1.542-2.312,3.718-2.312,6.528
		s0.787,4.986,2.364,6.527c1.573,1.542,3.846,2.312,6.815,2.312c1.994,0,3.677-0.379,5.049-1.139
		c1.371-0.76,2.295-1.864,2.771-3.315l-4.692-1.496c-0.182,0.612-0.539,1.077-1.07,1.395c-0.533,0.317-1.22,0.476-2.058,0.476
		c-0.999,0-1.797-0.249-2.396-0.748c-0.603-0.498-0.992-1.28-1.173-2.346h11.594C731.628,238.458,731.686,237.822,731.686,237.052
		 M711.218,228.45c-1.292,0-2.376,0.346-3.247,1.037c-0.873,0.691-1.514,1.683-1.921,2.975l-0.238-3.672h-5.101v17h5.78v-8.568
		c0-1.292,0.362-2.283,1.088-2.975s1.632-1.037,2.721-1.037c0.43,0,0.838,0.051,1.224,0.152c0.385,0.103,0.691,0.222,0.918,0.357
		l0.612-4.896C712.6,228.575,711.987,228.45,711.218,228.45 M697.855,239.363l-5.304-1.495c-0.272,1.27-0.771,2.198-1.497,2.787
		c-0.726,0.591-1.711,0.885-2.957,0.885c-1.656,0-2.919-0.596-3.791-1.785c-0.873-1.19-1.31-2.918-1.31-5.186
		c0-2.266,0.453-3.994,1.36-5.185c0.906-1.19,2.187-1.785,3.842-1.785c1.201,0,2.13,0.272,2.788,0.815
		c0.657,0.545,1.144,1.496,1.462,2.856l5.134-2.073c-0.544-2.062-1.666-3.609-3.365-4.642c-1.7-1.03-3.774-1.547-6.223-1.547
		c-2.244,0-4.193,0.459-5.848,1.377c-1.655,0.918-2.925,2.25-3.808,3.995c-0.885,1.746-1.326,3.808-1.326,6.188
		c0,2.403,0.441,4.472,1.326,6.205c0.883,1.734,2.152,3.061,3.808,3.979c1.654,0.918,3.615,1.377,5.882,1.377
		c2.47,0,4.567-0.562,6.29-1.684C696.041,243.325,697.221,241.631,697.855,239.363"/>
	<path clip-path="url(#SVGID_2_)" fill="#231F20" d="M564.922,407.67h32.896v34.777h-32.896V407.67z M514.793,333.416
		c0-9.713-3.445-16.919-10.651-16.919c-3.761,0-6.894,2.819-9.399,6.267c-2.507,3.759-3.76,8.146-3.76,10.652h-28.512v-121.25
		h81.773v33.523h-52.637v47.937c3.762-2.82,7.834-5.326,12.534-6.894c2.192-0.939,4.698-1.253,6.892-0.939
		c17.547,0,26.945,10.025,31.959,20.992c5.012,10.966,5.639,22.871,5.639,26.631v51.383c0,10.965-0.627,25.691-6.579,37.91
		c-5.953,12.532-17.232,22.245-37.597,22.245c-20.992,0-31.645-9.713-37.598-23.498c-5.953-13.474-6.58-30.705-6.58-46.058h33.838
		v9.086c0,11.594,0.627,19.739,2.193,24.125c1.566,4.7,4.072,6.894,8.146,6.894c3.445,0,6.266-2.193,7.832-6.58
		c1.566-4.386,2.506-12.532,2.506-24.124V333.416z"/>
	<polygon clip-path="url(#SVGID_2_)" fill="none" stroke="#0046FA" stroke-width="1.998" points="0.999,3 0.999,489.17 
		0.999,491.172 3,491.172 1167.087,491.172 1169.088,491.172 1169.088,489.17 1169.088,3 1169.088,0.998 1167.087,0.998 3,0.998 
		0.999,0.998 	"/>
</g>
<rect x="5.001" y="5.002" fill="none" stroke="#0046FA" stroke-width="1.998" width="1160.085" height="482.166"/>
<g>
	<defs>
		<rect id="SVGID_67_" width="1170.088" height="492.17"/>
	</defs>
	<clipPath id="SVGID_4_">
		<use xlink:href="#SVGID_67_"  overflow="visible"/>
	</clipPath>
	<path clip-path="url(#SVGID_4_)" fill="#0046FA" d="M1066.729,355.165l-13.406,10.299c10.898,16.349,22.397,28.937,34.495,37.765
		c-9.482-1.308-19.348-1.962-29.59-1.962H686.077v17.493h372.151c11.007,0,20.869-0.598,29.59-1.799
		c-12.098,8.829-23.597,21.417-34.495,37.765l13.406,10.299c7.626-12.641,15.204-23.157,22.724-31.552
		c7.521-8.391,16.021-16.021,25.503-22.887v-0.981c-9.374-6.757-17.847-14.358-25.421-22.806
		C1081.957,378.354,1074.355,367.809,1066.729,355.165"/>
</g>
</svg>
