<?xml version="1.0" encoding="utf-8"?>
<!-- Generator: Adobe Illustrator 16.0.0, SVG Export Plug-In . SVG Version: 6.00 Build 0)  -->
<!DOCTYPE svg PUBLIC "-//W3C//DTD SVG 1.1//EN" "http://www.w3.org/Graphics/SVG/1.1/DTD/svg11.dtd">
<svg version="1.1" id="Layer_1" xmlns="http://www.w3.org/2000/svg" xmlns:xlink="http://www.w3.org/1999/xlink" x="0px" y="0px"
	 width="1170.09px" height="575.043px" viewBox="0 0 1170.09 575.043" enable-background="new 0 0 1170.09 575.043"
	 xml:space="preserve">
<g>
	<defs>
		<rect id="SVGID_49_" width="1170.088" height="575.043"/>
	</defs>
	<clipPath id="SVGID_2_">
		<use xlink:href="#SVGID_49_"  overflow="visible"/>
	</clipPath>
	<path clip-path="url(#SVGID_2_)" fill="#231F20" d="M331.533,528.731c6.009,6.009,13.269,9.021,21.779,9.021
		c8.504,0,15.765-3.012,21.78-9.021c6.009-6.009,9.021-13.269,9.021-21.78c0-8.504-3.012-15.764-9.021-21.779
		c-6.016-6.01-13.276-9.021-21.78-9.021c-8.511,0-15.771,3.011-21.779,9.021c-6.016,6.016-9.021,13.275-9.021,21.779
		C322.513,515.463,325.518,522.723,331.533,528.731 M187.434,239.432h5.279v199.76H81.833v-5.28L187.434,239.432z M50.152,422.472
		v51.04h142.561v58.08h36.96v-58.08h47.521v-34.32h-47.521v-215.6h-71.72L50.152,422.472z"/>
</g>
<line fill="none" stroke="#231F20" stroke-width="2" x1="26.479" y1="173.959" x2="854.066" y2="173.959"/>
<line fill="none" stroke="#231F20" stroke-width="2" x1="453.044" y1="373.555" x2="854.066" y2="373.555"/>
<line fill="none" stroke="#231F20" stroke-width="2" x1="875.066" y1="25.151" x2="875.066" y2="550.15"/>
<line fill="none" stroke="#231F20" stroke-width="2" x1="432.043" y1="194.96" x2="432.043" y2="550.15"/>
<g>
	<defs>
		<rect id="SVGID_51_" width="1170.088" height="575.043"/>
	</defs>
	<clipPath id="SVGID_4_">
		<use xlink:href="#SVGID_51_"  overflow="visible"/>
	</clipPath>
	<path clip-path="url(#SVGID_4_)" fill="#FF1419" d="M774.689,77.642h0.43l5.371,16.49h-11.441L774.689,77.642z M784.035,104.819
		c0.572,1.541,0.511,2.82-0.188,3.842c-0.699,1.02-2.068,1.529-4.109,1.529h-2.955v19.928h48.824V110.19h-2.203
		c-1.324,0-2.408-0.125-3.249-0.376c-0.841-0.25-1.513-0.635-2.014-1.153c-0.503-0.52-0.922-1.146-1.262-1.881
		c-0.343-0.733-0.726-1.602-1.155-2.604l-11.011-27.179c-0.824-1.969-0.977-3.473-0.456-4.512c0.518-1.037,2.103-1.557,4.753-1.557
		h1.075V51.002H754.87v19.927h1.128c2.613,0,4.181,0.492,4.699,1.477c0.52,0.985,0.385,2.517-0.402,4.592l-11.012,27.179
		c-0.822,1.969-1.674,3.464-2.551,4.485c-0.877,1.02-2.605,1.529-5.184,1.529h-2.201v19.928h33.462V110.19h-3.062
		c-2.076,0-3.438-0.51-4.082-1.529c-0.645-1.021-0.681-2.301-0.107-3.842l0.752-2.309h16.973L784.035,104.819z M717.609,51.002
		h-17.725v4.995c-2.255-1.469-5.424-2.864-9.506-4.19c-4.082-1.324-8.971-1.987-14.663-1.987c-4.118,0-8.03,0.529-11.736,1.586
		c-3.706,1.056-6.974,2.613-9.802,4.672c-2.829,2.06-5.085,4.593-6.769,7.601c-1.683,3.007-2.524,6.463-2.524,10.366
		c0,5.263,1.065,9.525,3.196,12.783c2.131,3.259,4.771,5.881,7.923,7.869c3.149,1.986,6.597,3.508,10.339,4.564
		c3.741,1.057,7.188,2.006,10.339,2.848c3.15,0.842,5.792,1.799,7.922,2.872c2.131,1.075,3.197,2.597,3.197,4.566
		c0,1.254-0.646,2.372-1.935,3.356c-1.289,0.985-3.241,1.478-5.854,1.478c-3.905,0-7.412-1.209-10.528-3.626
		c-3.115-2.417-5.191-5.721-6.229-9.909h-17.726v29.272h17.726v-4.728c3.974,2.185,7.868,3.761,11.682,4.728
		c3.812,0.967,7.815,1.449,12.003,1.449c4.298,0,8.451-0.447,12.462-1.343c4.01-0.894,7.555-2.31,10.635-4.243
		c3.079-1.933,5.532-4.404,7.359-7.412c1.826-3.008,2.739-6.642,2.739-10.902c0-4.01-0.627-7.447-1.88-10.313
		c-1.255-2.864-2.901-5.29-4.942-7.276c-2.041-1.988-4.369-3.617-6.982-4.889s-5.272-2.354-7.976-3.25
		c-2.704-0.894-5.363-1.646-7.976-2.256c-2.614-0.607-4.942-1.243-6.983-1.906c-2.041-0.662-3.688-1.449-4.941-2.363
		c-1.255-0.914-1.88-2.104-1.88-3.571c0-1.539,0.697-2.74,2.096-3.599c1.396-0.859,3.223-1.289,5.478-1.289
		c1.862,0,3.67,0.313,5.425,0.939c1.754,0.627,3.349,1.514,4.781,2.659c1.43,1.146,2.64,2.506,3.625,4.082
		c0.984,1.576,1.619,3.276,1.906,5.103h17.725V51.002z M624.543,130.118V110.19c-3.15,0-5.397-0.42-6.739-1.262
		c-1.343-0.841-2.016-2.425-2.016-4.753V76.997c0-2.362,0.673-3.965,2.016-4.807c1.342-0.841,3.589-1.262,6.739-1.262V51.002
		h-49.252v19.927c3.15,0,5.406,0.421,6.768,1.262c1.359,0.842,2.041,2.444,2.041,4.807v27.179c0,2.328-0.682,3.912-2.041,4.753
		c-1.361,0.842-3.617,1.262-6.768,1.262v19.928H624.543z M468.045,51.002v19.927c3.15,0,5.406,0.421,6.768,1.262
		c1.361,0.842,2.041,2.444,2.041,4.807v25.836c0,1.755,0.143,3.679,0.43,5.773c0.286,2.096,0.868,4.243,1.746,6.445
		c0.877,2.202,2.121,4.333,3.732,6.393c1.611,2.059,3.777,3.894,6.499,5.504c2.721,1.611,6.043,2.91,9.964,3.895
		s8.602,1.477,14.045,1.477c7.484,0,13.499-0.976,18.047-2.927c4.547-1.95,8.048-4.403,10.501-7.358
		c2.452-2.955,4.099-6.211,4.94-9.775c0.842-3.562,1.263-6.991,1.263-10.285V76.353c0-2.219,0.646-3.679,1.935-4.377
		c1.289-0.697,3.133-1.047,5.531-1.047V51.002h-35.395v19.927c2.326,0,4.152,0.385,5.478,1.154c1.324,0.771,1.987,2.265,1.987,4.484
		v24.707c0,3.08-0.788,5.524-2.363,7.332c-1.576,1.809-4.082,2.713-7.52,2.713c-1.791,0-3.268-0.277-4.432-0.832
		c-1.164-0.556-2.094-1.308-2.793-2.257c-0.697-0.948-1.189-2.032-1.477-3.25c-0.287-1.217-0.43-2.487-0.43-3.813V76.353
		c0-1.933,0.528-3.32,1.584-4.162c1.057-0.841,2.945-1.262,5.668-1.262V51.002H468.045z M393.725,112.528
		c-1.504-0.807-2.256-2.051-2.256-3.733c0-0.968,0.42-1.942,1.262-2.927c0.841-0.985,2.337-1.478,4.484-1.478
		c1.755,0,3.492,0.511,5.211,1.53c1.719,1.021,3.133,2.373,4.242,4.055c-1.539,2.508-4.135,3.76-7.787,3.76
		C396.946,113.735,395.229,113.333,393.725,112.528 M388.676,79.79c0.322-2.971,0.886-5.353,1.691-7.144
		c0.807-1.79,1.889-3.088,3.25-3.894c1.36-0.805,3.115-1.208,5.264-1.208c2.041,0,3.76,0.403,5.156,1.208
		c1.396,0.806,2.498,2.104,3.303,3.894c0.806,1.791,1.369,4.173,1.691,7.144c0.323,2.973,0.484,6.59,0.484,10.85
		c0,1.971-0.036,3.796-0.107,5.479c-0.072,1.685-0.18,3.26-0.322,4.728c-1.469-0.716-3.026-1.298-4.674-1.746
		c-1.646-0.446-3.384-0.671-5.209-0.671c-2.436,0-4.512,0.421-6.23,1.262c-1.719,0.842-3.135,1.781-4.243,2.82
		c-0.215-1.612-0.358-3.393-0.431-5.346c-0.071-1.95-0.106-4.125-0.106-6.525C388.192,86.38,388.354,82.763,388.676,79.79
		 M355.508,108.768c2.275,5.21,5.488,9.579,9.643,13.104c4.153,3.529,9.085,6.17,14.797,7.924
		c5.711,1.754,12.022,2.632,18.934,2.632c3.509,0,6.453-0.181,8.834-0.538c2.382-0.357,5.005-0.877,7.869-1.557
		c1.898,3.652,4.19,6.472,6.875,8.459c2.687,1.988,6.069,2.98,10.152,2.98c5.943,0,10.312-2.273,13.105-6.82
		c2.793-4.549,4.188-11.513,4.188-20.895h-5.048c-0.072,1.039-0.171,2.229-0.296,3.572c-0.126,1.343-0.421,2.605-0.886,3.787
		c-0.467,1.182-1.191,2.175-2.176,2.98c-0.985,0.805-2.408,1.208-4.27,1.208c-1.218,0-2.346-0.276-3.384-0.832
		c-1.039-0.555-1.845-1.19-2.417-1.907c4.834-3.975,8.406-8.674,10.715-14.099c2.311-5.425,3.465-11.467,3.465-18.128
		c0-6.91-1.138-12.971-3.411-18.182c-2.274-5.209-5.479-9.568-9.614-13.077s-9.068-6.142-14.797-7.896
		c-5.729-1.755-12.031-2.633-18.906-2.633c-6.911,0-13.223,0.878-18.934,2.633c-5.712,1.754-10.644,4.387-14.797,7.896
		c-4.154,3.509-7.367,7.868-9.643,13.077c-2.273,5.211-3.409,11.271-3.409,18.182C352.099,97.515,353.234,103.558,355.508,108.768
		 M328.695,51.002h-17.725v4.995c-2.256-1.469-5.426-2.864-9.508-4.19c-4.082-1.324-8.969-1.987-14.662-1.987
		c-4.118,0-8.029,0.529-11.736,1.586c-3.706,1.056-6.975,2.613-9.802,4.672c-2.829,2.06-5.085,4.593-6.767,7.601
		c-1.685,3.007-2.525,6.463-2.525,10.366c0,5.263,1.064,9.525,3.195,12.783c2.131,3.259,4.771,5.881,7.922,7.869
		c3.151,1.986,6.599,3.508,10.341,4.564c3.741,1.057,7.188,2.006,10.339,2.848s5.792,1.799,7.922,2.872
		c2.13,1.075,3.196,2.597,3.196,4.566c0,1.254-0.644,2.372-1.933,3.356c-1.289,0.985-3.242,1.478-5.855,1.478
		c-3.903,0-7.412-1.209-10.527-3.626s-5.191-5.721-6.23-9.909h-17.725v29.272h17.725v-4.728c3.975,2.185,7.869,3.761,11.683,4.728
		s7.813,1.449,12.004,1.449c4.297,0,8.45-0.447,12.461-1.343c4.011-0.894,7.556-2.31,10.636-4.243
		c3.078-1.933,5.531-4.404,7.357-7.412s2.739-6.642,2.739-10.902c0-4.01-0.628-7.447-1.88-10.313c-1.254-2.864-2.9-5.29-4.941-7.276
		c-2.041-1.988-4.369-3.617-6.982-4.889c-2.615-1.271-5.272-2.354-7.977-3.25c-2.704-0.894-5.361-1.646-7.977-2.256
		c-2.613-0.607-4.94-1.243-6.981-1.906c-2.041-0.662-3.688-1.449-4.94-2.363c-1.254-0.914-1.881-2.104-1.881-3.571
		c0-1.539,0.698-2.74,2.094-3.599c1.397-0.859,3.224-1.289,5.479-1.289c1.861,0,3.67,0.313,5.425,0.939
		c1.754,0.627,3.348,1.514,4.78,2.659s2.64,2.506,3.625,4.082s1.62,3.276,1.907,5.103h17.725V51.002z M199.59,110.19V94.723h17.134
		v-9.507H199.59V70.929h9.668c1.468,0,2.693,0.134,3.679,0.402c0.983,0.269,1.772,0.744,2.362,1.424
		c0.592,0.68,0.994,1.63,1.209,2.846c0.216,1.219,0.322,2.775,0.322,4.673h18.799V51.002h-76.537v19.927
		c3.15,0,5.406,0.421,6.767,1.262c1.361,0.842,2.041,2.444,2.041,4.807v27.179c0,2.328-0.68,3.912-2.041,4.753
		c-1.36,0.842-3.616,1.262-6.767,1.262v19.928h76.537v-29.272H216.83c0,1.897-0.106,3.456-0.322,4.672
		c-0.215,1.218-0.617,2.177-1.209,2.874c-0.59,0.698-1.379,1.173-2.362,1.423c-0.985,0.251-2.211,0.376-3.679,0.376H199.59z
		 M94.976,70.929h5.801c3.009,0,5.084,0.841,6.229,2.523c1.146,1.685,1.72,3.742,1.72,6.178c0,2.578-0.573,4.654-1.72,6.23
		c-1.146,1.575-3.221,2.363-6.229,2.363h-5.801V70.929z M112.432,100.952c5.299,0,9.738-0.527,13.32-1.584
		c3.58-1.056,6.453-2.631,8.621-4.727c2.166-2.095,3.705-4.628,4.619-7.6c0.912-2.973,1.369-6.393,1.369-10.26
		c0-3.83-0.457-7.34-1.369-10.526c-0.914-3.187-2.453-5.899-4.619-8.138c-2.168-2.237-5.041-3.983-8.621-5.236
		c-3.582-1.253-8.021-1.88-13.32-1.88H54.478v19.927c3.149,0,5.405,0.421,6.767,1.262c1.361,0.842,2.041,2.444,2.041,4.807v27.179
		c0,2.328-0.68,3.912-2.041,4.753c-1.361,0.842-3.617,1.262-6.767,1.262v19.928h52.583V110.19h-5.479
		c-2.506,0-4.234-0.527-5.184-1.584c-0.949-1.056-1.423-2.533-1.423-4.431v-3.224H112.432z"/>
	<path clip-path="url(#SVGID_4_)" fill="#231F20" d="M1000.115,267.713c22.09,0,36.147-4.017,44.181-15.396
		c8.033-10.711,10.041-28.785,10.041-56.23s-2.008-46.857-10.041-58.906c-8.033-12.051-22.091-17.406-44.181-17.406V267.713z
		 M927.82,46.142h72.295c31.462,0,62.924,8.032,87.022,30.791c24.099,22.76,40.163,60.248,40.163,116.477
		c0,56.23-16.064,93.047-40.163,115.807c-24.099,22.759-55.561,32.131-87.022,32.131v196.805H927.82V46.142z"/>
	<path clip-path="url(#SVGID_4_)" fill="#231F20" d="M761.551,325.713c0.148,1.845,0.316,3.596,0.633,4.992
		c0.689,0.243,3.085,0.82,5.18,0.82c2.869,0,6.445-1.562,6.445-4.807c0-1.263-0.312-2.279-1.141-3.203
		c-1.076-1.204-2.622-2.124-4.336-2.869c-1.49-0.649-2.012-1.822-2.012-2.907c0-0.857,0.708-1.564,1.787-1.564
		c1.305,0,2.571,1.192,3.504,3.466c0.67,0.11,1.08,0.073,1.453-0.188c0-1.341-0.149-2.757-0.485-3.949
		c-1.192-0.521-2.123-0.894-4.173-0.894c-1.963,0-3.853,0.737-5.03,1.937c-0.856,0.872-1.266,1.9-1.266,2.906
		c0,1.107,0.427,1.997,1.154,2.795c1.155,1.268,3.186,2.582,4.322,3.092c1.49,0.671,1.9,2.013,1.9,2.906
		c0,1.196-1.192,1.826-2.198,1.826c-1.682,0-3.465-1.695-4.248-4.435C762.445,325.526,762.146,325.564,761.551,325.713
		 M740.611,323.44c0,4.866,3.859,8.085,8.867,8.085c2.627,0,4.84-0.752,6.371-2.124c1.887-1.688,2.534-4.222,2.534-6.296
		c0-4.874-3.335-8.495-8.868-8.495c-3.088,0-5.395,1.064-6.865,2.757C741.237,318.991,740.611,321.238,740.611,323.44
		 M748.92,316.175c2.534,0,4.248,3.018,4.248,8.122c0,4.476-1.751,5.663-3.093,5.663c-3.056,0-4.247-4.583-4.247-7.34
		C745.828,319.192,746.424,316.175,748.92,316.175 M730.85,308.946c0,1.23,0.895,2.459,2.385,2.459c1.677,0,2.646-1.342,2.646-2.311
		c0-1.117-0.856-2.459-2.423-2.459C731.707,306.636,730.85,307.829,730.85,308.946 M735.88,326.607v-7.426
		c0-1.852,0.149-3.938,0.149-3.938c0-0.41-0.335-0.633-0.857-0.633c-1.062,0.41-4.061,0.708-6.632,1.043
		c-0.075,0.223,0,0.969,0.075,1.191c2.029,0.19,2.421,0.485,2.421,2.608v7.154c0,3.092-0.41,3.167-2.683,3.353
		c-0.224,0.225-0.224,1.044,0,1.268c1.564-0.037,3.115-0.074,5.104-0.074c1.99,0,3.503,0.037,5.105,0.074
		c0.224-0.224,0.224-1.043,0-1.268C736.289,329.812,735.88,329.699,735.88,326.607 M719.783,321.156c0-1.33,0.411-1.87,0.896-2.448
		c0.306-0.365,0.633-0.633,1.182-0.633c0.35,0,0.736,0.328,1.054,0.711c0.261,0.313,0.893,0.611,1.732,0.611
		c1.08,0,2.143-1.137,2.143-2.701c0-0.969-1.118-2.086-2.459-2.086c-1.304,0-2.72,1.117-4.434,3.576h-0.149
		c-0.074-1.117-0.261-2.943-0.261-2.943c-0.029-0.328-0.336-0.633-0.857-0.633c-1.769,0.447-3.726,0.987-6.185,1.229
		c-0.074,0.225,0,0.933,0.073,1.155c2.031,0.19,2.424,0.522,2.424,2.646v6.967c0,3.092-0.41,3.167-2.684,3.353
		c-0.223,0.225-0.223,1.044,0,1.268c1.565-0.037,3.115-0.074,5.105-0.074c1.988,0,3.502,0.037,5.104,0.074
		c0.225-0.224,0.225-1.043,0-1.268c-2.272-0.148-2.684-0.261-2.684-3.353V321.156z M709.128,326.346
		c-1.527,1.565-3.539,1.976-4.955,1.976c-2.907,0-4.695-1.677-4.695-5.328c0-0.261,0.038-0.41,0.038-0.596h8.941
		c0.895,0,1.08-0.635,1.08-1.155c0-3.167-1.229-6.632-6.705-6.632c-3.914,0-8.385,3.465-8.385,9.165c0,2.18,0.791,4.441,2.386,5.887
		c1.401,1.271,3.238,1.863,5.887,1.863c2.571,0,5.104-1.305,6.967-4.024C709.687,327.018,709.501,326.346,709.128,326.346
		 M699.665,320.906c0.036-1.304,0.238-2.708,0.745-3.465c0.592-0.887,1.591-1.267,2.012-1.267c1.006,0,2.384,0.969,2.384,3.949
		c0,0.225,0,0.708-0.073,0.782H699.665z M703.577,306.04l-3.093,4.881c-0.224,0.336-0.299,0.672-0.299,0.895
		c0,0.224,0.299,0.521,0.597,0.521c0.373,0,0.895-0.148,1.416-0.596l4.47-4.023l-0.371-0.857c-0.298-0.373-1.006-0.895-2.124-0.895
		C703.987,305.966,703.689,306.003,703.577,306.04 M682.079,314.982c-0.522,0.004-1.092,0.148-1.565,0.559v1.081
		c0,0.187,0.037,0.223,0.186,0.223h2.422c-0.084,3.753-0.111,8.532-0.111,10.396c0,1.304,0.321,2.56,1.118,3.242
		c0.839,0.719,2.213,1.043,3.093,1.043c2.061,0,4.322-1.043,5.067-2.086c0-0.447-0.224-0.671-0.671-1.044
		c-0.484,0.373-1.416,0.521-2.124,0.521c-0.819,0-1.64-0.633-1.64-2.496c0-1.862-0.036-5.85-0.036-9.576h3.763
		c0.373,0,0.894-0.148,0.894-0.483v-1.155c0-0.148-0.111-0.224-0.298-0.224h-4.358l0.036-1.268c0.075-2.48,0.187-4.21,0.187-4.21
		c0-0.238-0.111-0.328-0.287-0.328c-0.271,0-1.661,0.414-2.246,0.66c-0.634,0.264-1.722,0.48-1.976,0.823
		c-0.26,0.354-0.41,1.36-0.41,4.319L682.079,314.982z M671.349,308.946c0,1.23,0.895,2.459,2.385,2.459
		c1.677,0,2.646-1.342,2.646-2.311c0-1.117-0.857-2.459-2.422-2.459C672.205,306.636,671.349,307.829,671.349,308.946
		 M676.379,326.607v-7.426c0-1.852,0.149-3.938,0.149-3.938c0-0.41-0.337-0.633-0.857-0.633c-1.062,0.41-4.061,0.708-6.632,1.043
		c-0.075,0.223,0,0.969,0.074,1.191c2.03,0.19,2.422,0.485,2.422,2.608v7.154c0,3.092-0.41,3.167-2.684,3.353
		c-0.223,0.225-0.223,1.044,0,1.268c1.565-0.037,3.115-0.074,5.105-0.074s3.502,0.037,5.104,0.074c0.225-0.224,0.225-1.043,0-1.268
		C676.789,329.812,676.379,329.699,676.379,326.607 M660.283,321.156c0-1.33,0.41-1.87,0.894-2.448
		c0.306-0.365,0.634-0.633,1.182-0.633c0.351,0,0.737,0.328,1.055,0.711c0.261,0.313,0.894,0.611,1.731,0.611
		c1.08,0,2.144-1.137,2.144-2.701c0-0.969-1.118-2.086-2.459-2.086c-1.304,0-2.72,1.117-4.435,3.576h-0.148
		c-0.075-1.117-0.261-2.943-0.261-2.943c-0.03-0.328-0.335-0.633-0.857-0.633c-1.77,0.447-3.726,0.987-6.185,1.229
		c-0.074,0.225,0,0.933,0.074,1.155c2.03,0.19,2.422,0.522,2.422,2.646v6.967c0,3.092-0.409,3.167-2.683,3.353
		c-0.224,0.225-0.224,1.044,0,1.268c1.565-0.037,3.115-0.074,5.104-0.074c1.988,0,3.503,0.037,5.104,0.074
		c0.225-0.224,0.225-1.043,0-1.268c-2.271-0.148-2.682-0.261-2.682-3.353V321.156z M650.521,327.911
		c0-0.447-0.074-1.155-0.484-1.155c-1.49,1.379-2.757,2.087-3.838,2.087c-2.795,0-4.992-2.012-4.992-6.482
		c0-4.136,0.931-6.186,2.906-6.186c1.379,0,1.936,1.453,2.049,2.646c0.112,1.006,1.118,1.751,2.309,1.751
		c1.194,0,2.051-0.931,2.051-2.086c0-1.677-2.012-3.875-6.074-3.875c-4.396,0-8.271,3.539-8.271,9.054
		c0,2.406,0.864,4.564,2.311,5.924c1.464,1.375,3.147,1.938,5.812,1.938C646.535,331.525,649.105,329.96,650.521,327.911
		 M611.363,325.713c0.148,1.845,0.316,3.596,0.633,4.992c0.689,0.243,3.085,0.82,5.179,0.82c2.869,0,6.446-1.562,6.446-4.807
		c0-1.263-0.314-2.279-1.141-3.203c-1.076-1.204-2.622-2.124-4.337-2.869c-1.489-0.649-2.012-1.822-2.012-2.907
		c0-0.857,0.708-1.564,1.789-1.564c1.304,0,2.57,1.192,3.502,3.466c0.671,0.11,1.08,0.073,1.453-0.188
		c0-1.341-0.149-2.757-0.485-3.949c-1.191-0.521-2.123-0.894-4.172-0.894c-1.964,0-3.853,0.737-5.029,1.937
		c-0.857,0.872-1.268,1.9-1.268,2.906c0,1.107,0.428,1.997,1.155,2.795c1.155,1.268,3.186,2.582,4.321,3.092
		c1.49,0.671,1.9,2.013,1.9,2.906c0,1.196-1.191,1.826-2.198,1.826c-1.681,0-3.466-1.695-4.249-4.435
		C612.257,325.526,611.959,325.564,611.363,325.713 M590.424,323.44c0,4.866,3.859,8.085,8.867,8.085
		c2.627,0,4.84-0.752,6.372-2.124c1.885-1.688,2.533-4.222,2.533-6.296c0-4.874-3.335-8.495-8.868-8.495
		c-3.088,0-5.396,1.064-6.866,2.757C591.049,318.991,590.424,321.238,590.424,323.44 M598.732,316.175
		c2.533,0,4.248,3.018,4.248,8.122c0,4.476-1.752,5.663-3.094,5.663c-3.055,0-4.248-4.583-4.248-7.34
		C595.639,319.192,596.236,316.175,598.732,316.175 M580.662,326.421c0,3.092-0.596,3.429-2.869,3.539
		c-0.225,0.225-0.225,1.044,0,1.268c1.564-0.037,3.227-0.074,5.291-0.074s3.688,0.037,5.291,0.074c0.223-0.224,0.223-1.043,0-1.268
		c-2.273-0.11-2.869-0.447-2.869-3.539v-16.99c0-2.422,0.111-3.801,0.111-3.801c0-0.335-0.26-0.484-0.596-0.484
		c-1.379,0.447-4.359,0.857-7.004,0.97c-0.113,0.446-0.076,0.856,0.11,1.192c2.349,0.186,2.534,0.237,2.534,2.793V326.421z
		 M563.672,328.731v-9.55c0-0.201-0.004-0.406-0.011-0.607c1.073-0.969,2.452-1.468,3.327-1.468c1.527,0,3.315,1.862,3.315,6.222
		c0,3.13-1.118,6.632-4.358,6.632C565.535,329.96,564.604,329.737,563.672,328.731 M558.828,319.641v15.61
		c0,3.093-0.41,3.167-2.682,3.354c-0.225,0.224-0.225,1.044,0,1.267c1.564-0.037,3.114-0.074,5.104-0.074
		c1.99,0,3.503,0.037,5.105,0.074c0.223-0.223,0.223-1.043,0-1.267c-2.273-0.149-2.684-0.261-2.684-3.354v-4.358
		c0.801,0.409,1.602,0.633,2.496,0.633c5.68,0,9.352-3.707,9.352-9.203c0-2.075-0.785-4.396-2.234-5.849
		c-1.309-1.312-3.178-1.863-5.105-1.863c-1.08,0-3.092,1.304-4.396,2.496h-0.208c-0.085-1.055-0.202-1.863-0.202-1.863
		c-0.032-0.455-0.334-0.633-0.855-0.633c-1.379,0.372-3.615,0.894-6.186,1.229c-0.074,0.225,0,0.97,0.075,1.192
		C558.438,317.223,558.828,317.517,558.828,319.641 M546.906,308.946c0,1.23,0.894,2.459,2.385,2.459
		c1.676,0,2.645-1.342,2.645-2.311c0-1.117-0.856-2.459-2.422-2.459C547.763,306.636,546.906,307.829,546.906,308.946
		 M551.936,326.607v-7.426c0-1.852,0.149-3.938,0.149-3.938c0-0.41-0.335-0.633-0.856-0.633c-1.062,0.41-4.062,0.708-6.633,1.043
		c-0.074,0.223,0,0.969,0.074,1.191c2.031,0.19,2.422,0.485,2.422,2.608v7.154c0,3.092-0.41,3.167-2.682,3.353
		c-0.225,0.225-0.225,1.044,0,1.268c1.564-0.037,3.113-0.074,5.104-0.074s3.502,0.037,5.105,0.074c0.223-0.224,0.223-1.043,0-1.268
		C552.346,329.812,551.936,329.699,551.936,326.607 M532.301,314.982c-0.521,0.004-1.092,0.148-1.564,0.559v1.081
		c0,0.187,0.037,0.223,0.186,0.223h2.422c-0.086,3.753-0.111,8.532-0.111,10.396c0,1.304,0.32,2.56,1.117,3.242
		c0.84,0.719,2.213,1.043,3.094,1.043c2.06,0,4.322-1.043,5.066-2.086c0-0.447-0.224-0.671-0.671-1.044
		c-0.483,0.373-1.416,0.521-2.123,0.521c-0.819,0-1.64-0.633-1.64-2.496c0-1.862-0.037-5.85-0.037-9.576h3.762
		c0.374,0,0.895-0.148,0.895-0.483v-1.155c0-0.148-0.111-0.224-0.297-0.224h-4.359l0.037-1.268c0.074-2.48,0.186-4.21,0.186-4.21
		c0-0.238-0.111-0.328-0.285-0.328c-0.272,0-1.662,0.414-2.248,0.66c-0.634,0.264-1.721,0.48-1.975,0.823
		c-0.261,0.354-0.41,1.36-0.41,4.319L532.301,314.982z M521.57,326.421c0,3.092-0.596,3.429-2.868,3.539
		c-0.224,0.225-0.224,1.044,0,1.268c1.565-0.037,3.226-0.074,5.29-0.074s3.689,0.037,5.291,0.074c0.224-0.224,0.224-1.043,0-1.268
		c-2.273-0.11-2.869-0.447-2.869-3.539v-16.99c0-2.422,0.111-3.801,0.111-3.801c0-0.335-0.26-0.484-0.596-0.484
		c-1.379,0.447-4.359,0.857-7.005,0.97c-0.112,0.446-0.073,0.856,0.112,1.192c2.347,0.186,2.533,0.237,2.533,2.793V326.421z
		 M514.566,326.197v-6.446c0-3.129,0.074-2.682,0.074-3.576c0-0.634-0.148-1.044-0.373-1.267c-0.67,0.037-1.416,0.074-2.123,0.074
		c-1.033,0-3.465-0.037-4.918-0.074c-0.224,0.223-0.224,1.043,0,1.267c1.899,0.187,2.496,0.447,2.496,3.576v6.904
		c0,0.357,0.012,0.73,0.029,1.106c-1.512,0.936-2.768,1.007-3.42,1.007c-1.49,0-2.607-0.168-2.607-2.794v-6.224
		c0-3.129,0.073-2.682,0.073-3.576c0-0.634-0.149-1.044-0.372-1.267c-0.671,0.037-1.441,0.074-2.124,0.074
		c-1.919,0-3.315-0.037-4.918-0.074c-0.224,0.223-0.224,1.043,0,1.267c1.714,0.074,2.496,0.447,2.496,3.576v5.813
		c0,3.968,1.565,5.961,4.769,5.961c1.354,0,4.062-1.073,6.205-2.273c0.082,0.939,0.168,1.641,0.168,1.641
		c0.028,0.446,0.334,0.633,0.856,0.633c1.378-0.372,3.614-0.895,6.185-1.229c0.074-0.224,0-0.969-0.074-1.192
		C514.957,328.913,514.566,328.321,514.566,326.197 M507.077,306.04l-3.093,4.881c-0.224,0.336-0.297,0.672-0.297,0.895
		c0,0.224,0.297,0.521,0.596,0.521c0.371,0,0.894-0.148,1.416-0.596l4.471-4.023l-0.373-0.857c-0.298-0.373-1.006-0.895-2.124-0.895
		C507.486,305.966,507.189,306.003,507.077,306.04 M470.34,326.607v-7.426c0-0.18-0.004-0.361-0.007-0.545
		c1.449-0.879,2.769-1.27,3.397-1.27c1.49,0,2.608,0.67,2.608,2.794v6.222c0,3.13-0.596,3.467-2.124,3.577
		c-0.224,0.225-0.224,1.044,0,1.268c1.564-0.037,2.758-0.074,4.546-0.074s2.943,0.037,4.546,0.074c0.223-0.224,0.223-1.043,0-1.268
		c-1.49-0.11-2.125-0.447-2.125-3.577v-5.812c0-0.913-0.056-1.658-0.134-2.042c1.401-0.73,3-1.162,3.599-1.162
		c1.492,0,2.535,0.67,2.535,2.794v6.222c0,3.13-0.597,3.467-2.125,3.577c-0.223,0.225-0.223,1.044,0,1.268
		c1.565-0.037,2.758-0.074,4.547-0.074c2.049,0,3.688,0.037,5.291,0.074c0.223-0.224,0.223-1.043,0-1.268
		c-2.273-0.11-2.869-0.447-2.869-3.577v-5.812c0-4.098-1.491-5.961-4.695-5.961c-1.371,0-4.52,1.479-6.678,2.701
		c-0.569-1.621-2.06-2.701-4.239-2.701c-1.334,0-4.035,1.4-6.159,2.6c-0.089-1.105-0.212-1.967-0.212-1.967
		c-0.034-0.455-0.335-0.633-0.856-0.633c-1.379,0.372-3.615,0.894-6.186,1.229c-0.075,0.225,0,0.97,0.075,1.192
		c2.03,0.191,2.421,0.485,2.421,2.609v6.967c0,3.092-0.41,3.167-2.682,3.353c-0.225,0.225-0.225,1.044,0,1.268
		c1.564-0.037,3.115-0.074,5.104-0.074c1.699,0,2.757,0.037,4.359,0.074c0.224-0.224,0.224-1.043,0-1.268
		C470.713,329.812,470.34,329.699,470.34,326.607"/>
	<path clip-path="url(#SVGID_4_)" fill="#231F20" d="M679.062,280.03v-7.426c0-0.18-0.004-0.362-0.009-0.544
		c1.45-0.88,2.77-1.271,3.397-1.271c1.492,0,2.61,0.67,2.61,2.795v6.221c0,3.131-0.598,3.466-2.124,3.578
		c-0.225,0.223-0.225,1.043,0,1.267c1.564-0.038,2.757-0.075,4.545-0.075c1.789,0,2.943,0.037,4.546,0.075
		c0.224-0.224,0.224-1.044,0-1.267c-1.491-0.112-2.124-0.447-2.124-3.578v-5.812c0-0.913-0.057-1.657-0.134-2.042
		c1.4-0.73,2.999-1.162,3.599-1.162c1.491,0,2.534,0.67,2.534,2.795v6.221c0,3.131-0.597,3.466-2.124,3.578
		c-0.223,0.223-0.223,1.043,0,1.267c1.564-0.038,2.757-0.075,4.545-0.075c2.049,0,3.689,0.037,5.291,0.075
		c0.224-0.224,0.224-1.044,0-1.267c-2.272-0.112-2.868-0.447-2.868-3.578v-5.812c0-4.099-1.491-5.962-4.695-5.962
		c-1.37,0-4.521,1.479-6.677,2.701c-0.57-1.62-2.061-2.701-4.24-2.701c-1.334,0-4.034,1.401-6.158,2.602
		c-0.09-1.107-0.213-1.967-0.213-1.967c-0.033-0.455-0.336-0.635-0.856-0.635c-1.379,0.373-3.614,0.895-6.185,1.23
		c-0.075,0.223,0,0.968,0.073,1.191c2.031,0.19,2.421,0.484,2.421,2.608v6.968c0,3.092-0.408,3.167-2.681,3.354
		c-0.224,0.223-0.224,1.043,0,1.267c1.564-0.038,3.114-0.075,5.104-0.075c1.698,0,2.757,0.037,4.358,0.075
		c0.224-0.224,0.224-1.044,0-1.267C679.436,283.234,679.062,283.122,679.062,280.03 M651.416,276.863
		c0,4.866,3.86,8.085,8.867,8.085c2.627,0,4.841-0.753,6.372-2.124c1.885-1.688,2.532-4.221,2.532-6.297
		c0-4.873-3.333-8.495-8.867-8.495c-3.088,0-5.395,1.066-6.866,2.758C652.041,272.415,651.416,274.661,651.416,276.863
		 M659.725,269.597c2.533,0,4.248,3.019,4.248,8.123c0,4.475-1.752,5.664-3.093,5.664c-3.056,0-4.248-4.584-4.248-7.34
		C656.632,272.615,657.229,269.597,659.725,269.597 M648.771,281.335c0-0.447-0.075-1.156-0.485-1.156
		c-1.49,1.379-2.757,2.087-3.837,2.087c-2.795,0-4.993-2.013-4.993-6.483c0-4.136,0.933-6.186,2.906-6.186
		c1.378,0,1.938,1.453,2.05,2.646c0.111,1.007,1.117,1.752,2.311,1.752c1.191,0,2.049-0.932,2.049-2.087
		c0-1.677-2.014-3.875-6.073-3.875c-4.397,0-8.272,3.54-8.272,9.055c0,2.406,0.865,4.563,2.311,5.924
		c1.463,1.375,3.148,1.938,5.812,1.938C644.783,284.948,647.355,283.384,648.771,281.335 M604.582,276.863
		c0,4.866,3.859,8.085,8.868,8.085c2.626,0,4.839-0.753,6.37-2.124c1.885-1.688,2.534-4.221,2.534-6.297
		c0-4.873-3.334-8.495-8.867-8.495c-3.089,0-5.396,1.066-6.867,2.758C605.208,272.415,604.582,274.661,604.582,276.863
		 M612.891,269.597c2.533,0,4.248,3.019,4.248,8.123c0,4.475-1.752,5.664-3.093,5.664c-3.055,0-4.248-4.584-4.248-7.34
		C609.798,272.615,610.395,269.597,612.891,269.597 M595.518,282.788c0.078,0.879,0.16,1.526,0.16,1.526
		c0.029,0.446,0.336,0.634,0.856,0.634c1.379-0.373,3.615-0.895,6.185-1.23c0.075-0.223,0-0.969-0.073-1.191
		c-2.031-0.189-2.423-0.783-2.423-2.906v-16.767c0-2.423,0.112-3.8,0.112-3.8c0-0.336-0.261-0.485-0.596-0.485
		c-1.379,0.448-4.36,0.856-7.005,0.97c-0.113,0.446-0.074,0.932,0.111,1.266c2.348,0.187,2.533,0.225,2.533,2.795v4.859
		c-0.711-0.254-1.604-0.426-2.682-0.426c-4.807,0-9.018,4.21-9.018,9.166c0,2.217,0.799,4.776,2.608,6.186
		c1.342,1.043,2.281,1.564,4.36,1.564c1.006,0,3.763-1.64,4.545-2.16H595.518z M595.402,281.044
		c-0.787,0.629-2.754,1.445-3.19,1.445c-1.862,0-3.315-2.087-3.315-6.445c0-1.986,0.228-3.689,0.932-4.845
		c0.615-1.01,1.628-1.603,2.757-1.603c0.977,0,1.89,0.102,2.794,1.334v9.174C595.379,280.406,595.387,280.724,595.402,281.044
		 M575.148,274.579c0-1.33,0.41-1.871,0.893-2.447c0.307-0.365,0.635-0.635,1.182-0.635c0.352,0,0.738,0.328,1.056,0.713
		c0.261,0.312,0.894,0.61,1.731,0.61c1.082,0,2.144-1.136,2.144-2.701c0-0.969-1.118-2.087-2.459-2.087
		c-1.304,0-2.72,1.118-4.435,3.577h-0.148c-0.075-1.118-0.262-2.942-0.262-2.942c-0.029-0.328-0.334-0.635-0.856-0.635
		c-1.771,0.447-3.726,0.988-6.185,1.23c-0.075,0.223,0,0.931,0.074,1.154c2.03,0.19,2.422,0.521,2.422,2.646v6.968
		c0,3.092-0.41,3.167-2.684,3.354c-0.223,0.223-0.223,1.043,0,1.267c1.566-0.038,3.116-0.075,5.105-0.075
		c1.99,0,3.502,0.037,5.104,0.075c0.224-0.224,0.224-1.044,0-1.267c-2.272-0.149-2.683-0.262-2.683-3.354V274.579z M547.502,276.863
		c0,4.866,3.86,8.085,8.868,8.085c2.626,0,4.84-0.753,6.37-2.124c1.886-1.688,2.535-4.221,2.535-6.297
		c0-4.873-3.336-8.495-8.868-8.495c-3.089,0-5.396,1.066-6.867,2.758C548.128,272.415,547.502,274.661,547.502,276.863
		 M555.811,269.597c2.533,0,4.248,3.019,4.248,8.123c0,4.475-1.752,5.664-3.092,5.664c-3.056,0-4.248-4.584-4.248-7.34
		C552.719,272.615,553.314,269.597,555.811,269.597 M544.857,281.335c0-0.447-0.075-1.156-0.484-1.156
		c-1.49,1.379-2.758,2.087-3.838,2.087c-2.795,0-4.994-2.013-4.994-6.483c0-4.136,0.934-6.186,2.906-6.186
		c1.38,0,1.939,1.453,2.051,2.646c0.111,1.007,1.117,1.752,2.311,1.752c1.191,0,2.049-0.932,2.049-2.087
		c0-1.677-2.012-3.875-6.074-3.875c-4.396,0-8.271,3.54-8.271,9.055c0,2.406,0.865,4.563,2.311,5.924
		c1.465,1.375,3.148,1.938,5.812,1.938C540.87,284.948,543.441,283.384,544.857,281.335 M521.086,276.453v4.919
		c-0.932,0.744-1.863,1.34-2.533,1.34c-1.603,0-2.162-1.08-2.162-2.234c0-1.383,0.123-2.53,2.758-3.391L521.086,276.453z
		 M521.28,282.769c0.253,1.509,1.259,2.18,2.897,2.18c2.062,0,3.504-0.783,4.881-2.087c-0.082-0.438-0.241-0.737-0.67-1.043
		c-0.484,0.373-0.857,0.522-1.564,0.522c-0.82,0-1.043-0.672-1.043-2.498l0.074-5.364c0-5.365-3.316-6.446-6.371-6.446
		c-2.721,0-6.912,1.551-6.912,4.01c0,1.065,0.451,1.885,1.927,1.885c1.318,0,2.317-0.819,2.317-1.721
		c0-0.492-0.262-1.119-0.172-1.759c0.057-0.414,0.324-0.851,1.572-0.851c1.565,0,2.869,0.672,2.869,5.404l-2.496,0.781
		c-3.928,1.23-6.67,2.311-6.67,5.254c0,2.57,1.416,3.912,4.658,3.912c1.08,0,3.241-1.193,4.471-2.16L521.28,282.769z
		 M498.805,279.77c-1.526,1.565-3.539,1.974-4.955,1.974c-2.905,0-4.694-1.676-4.694-5.328c0-0.26,0.037-0.408,0.037-0.596h8.942
		c0.895,0,1.08-0.633,1.08-1.154c0-3.168-1.229-6.633-6.707-6.633c-3.912,0-8.383,3.465-8.383,9.166c0,2.18,0.79,4.441,2.385,5.887
		c1.401,1.271,3.238,1.863,5.887,1.863c2.572,0,5.104-1.304,6.968-4.023C499.364,280.439,499.178,279.77,498.805,279.77
		 M489.342,274.329c0.037-1.304,0.238-2.709,0.746-3.465c0.592-0.887,1.59-1.268,2.012-1.268c1.006,0,2.384,0.97,2.384,3.951
		c0,0.223,0,0.707-0.074,0.781H489.342z M475.061,282.788c0.078,0.879,0.16,1.526,0.16,1.526c0.03,0.446,0.336,0.634,0.857,0.634
		c1.378-0.373,3.614-0.895,6.186-1.23c0.074-0.223,0-0.969-0.076-1.191c-2.029-0.189-2.422-0.783-2.422-2.906v-16.767
		c0-2.423,0.112-3.8,0.112-3.8c0-0.336-0.261-0.485-0.596-0.485c-1.379,0.448-4.358,0.856-7.005,0.97
		c-0.112,0.446-0.074,0.932,0.111,1.266c2.348,0.187,2.535,0.225,2.535,2.795v4.859c-0.713-0.254-1.606-0.426-2.684-0.426
		c-4.807,0-9.018,4.21-9.018,9.166c0,2.217,0.799,4.776,2.608,6.186c1.343,1.043,2.281,1.564,4.36,1.564
		c1.006,0,3.763-1.64,4.545-2.16H475.061z M474.945,281.044c-0.786,0.629-2.753,1.445-3.189,1.445c-1.863,0-3.315-2.087-3.315-6.445
		c0-1.986,0.227-3.689,0.931-4.845c0.615-1.01,1.628-1.603,2.757-1.603c0.976,0,1.89,0.102,2.796,1.334v9.174
		C474.924,280.406,474.93,280.724,474.945,281.044"/>
	<path clip-path="url(#SVGID_4_)" fill="#231F20" d="M822.88,232.56c0.149,1.844,0.317,3.594,0.633,4.991
		c0.69,0.242,3.085,0.82,5.179,0.82c2.869,0,6.446-1.562,6.446-4.806c0-1.265-0.313-2.281-1.14-3.205
		c-1.077-1.203-2.623-2.123-4.337-2.869c-1.49-0.648-2.013-1.822-2.013-2.906c0-0.857,0.707-1.564,1.789-1.564
		c1.305,0,2.57,1.192,3.502,3.465c0.672,0.111,1.08,0.074,1.453-0.187c0-1.341-0.148-2.757-0.484-3.948
		c-1.192-0.522-2.123-0.896-4.172-0.896c-1.965,0-3.854,0.737-5.031,1.938c-0.856,0.871-1.267,1.899-1.267,2.905
		c0,1.107,0.429,1.997,1.155,2.794c1.155,1.268,3.186,2.583,4.322,3.094c1.49,0.67,1.9,2.012,1.9,2.905
		c0,1.196-1.192,1.826-2.198,1.826c-1.682,0-3.465-1.694-4.248-4.435C823.773,232.372,823.475,232.41,822.88,232.56
		 M801.941,230.286c0,4.865,3.859,8.085,8.865,8.085c2.627,0,4.841-0.753,6.372-2.124c1.886-1.688,2.534-4.221,2.534-6.297
		c0-4.873-3.335-8.495-8.867-8.495c-3.089,0-5.396,1.065-6.867,2.758C802.566,225.837,801.941,228.084,801.941,230.286
		 M810.249,223.021c2.534,0,4.248,3.018,4.248,8.123c0,4.475-1.751,5.662-3.093,5.662c-3.056,0-4.248-4.582-4.248-7.34
		C807.156,226.038,807.753,223.021,810.249,223.021 M789.571,221.828c-0.522,0.004-1.092,0.149-1.565,0.56v1.079
		c0,0.187,0.038,0.224,0.188,0.224h2.421c-0.085,3.752-0.111,8.533-0.111,10.396c0,1.304,0.32,2.56,1.117,3.242
		c0.839,0.719,2.214,1.043,3.093,1.043c2.059,0,4.322-1.043,5.067-2.087c0-0.447-0.224-0.67-0.67-1.043
		c-0.485,0.373-1.416,0.521-2.124,0.521c-0.82,0-1.641-0.634-1.641-2.496c0-1.863-0.037-5.85-0.037-9.576h3.764
		c0.373,0,0.893-0.148,0.893-0.483v-1.155c0-0.148-0.11-0.224-0.297-0.224h-4.359l0.037-1.267c0.075-2.481,0.188-4.211,0.188-4.211
		c0-0.238-0.112-0.328-0.287-0.328c-0.272,0-1.662,0.414-2.247,0.66c-0.633,0.264-1.721,0.48-1.976,0.823
		c-0.261,0.354-0.409,1.36-0.409,4.318L789.571,221.828z M772.768,233.453v-7.427v-0.066c1.479-1.018,2.995-1.747,3.65-1.747
		c1.49,0,2.609,0.67,2.609,2.794v6.223c0,3.129-0.597,3.465-2.124,3.576c-0.224,0.225-0.224,1.043,0,1.268
		c1.564-0.037,2.772-0.075,4.546-0.075c2.063,0,3.688,0.038,5.291,0.075c0.223-0.225,0.223-1.043,0-1.268
		c-2.273-0.111-2.869-0.447-2.869-3.576v-5.812c0-4.1-1.751-5.962-4.956-5.962c-1.501,0-4.15,1.644-6.203,3.052
		c-0.086-1.314-0.242-2.418-0.242-2.418c-0.034-0.455-0.337-0.634-0.856-0.634c-1.379,0.373-3.615,0.896-6.186,1.229
		c-0.076,0.225,0,0.969,0.074,1.192c2.031,0.19,2.422,0.485,2.422,2.608v6.968c0,3.092-0.41,3.167-2.684,3.353
		c-0.223,0.225-0.223,1.043,0,1.268c1.565-0.037,3.115-0.075,5.105-0.075c1.699,0,2.756,0.038,4.359,0.075
		c0.224-0.225,0.224-1.043,0-1.268C773.139,236.657,772.768,236.545,772.768,233.453 M762.112,233.192
		c-1.528,1.564-3.54,1.975-4.956,1.975c-2.906,0-4.694-1.677-4.694-5.328c0-0.261,0.037-0.41,0.037-0.596h8.942
		c0.895,0,1.079-0.635,1.079-1.156c0-3.167-1.229-6.632-6.706-6.632c-3.911,0-8.383,3.465-8.383,9.166
		c0,2.18,0.789,4.44,2.385,5.887c1.4,1.271,3.237,1.863,5.887,1.863c2.57,0,5.104-1.304,6.967-4.024
		C762.67,233.862,762.484,233.192,762.112,233.192 M752.647,227.752c0.037-1.304,0.237-2.709,0.745-3.465
		c0.593-0.888,1.592-1.267,2.012-1.267c1.007,0,2.385,0.969,2.385,3.949c0,0.223,0,0.708-0.074,0.782H752.647z M720.829,233.453
		v-7.427c0-0.178-0.005-0.36-0.009-0.543c1.45-0.879,2.77-1.271,3.398-1.271c1.491,0,2.608,0.67,2.608,2.794v6.223
		c0,3.129-0.597,3.465-2.123,3.576c-0.225,0.225-0.225,1.043,0,1.268c1.564-0.037,2.757-0.075,4.545-0.075s2.944,0.038,4.546,0.075
		c0.223-0.225,0.223-1.043,0-1.268c-1.491-0.111-2.124-0.447-2.124-3.576v-5.812c0-0.913-0.056-1.658-0.134-2.042
		c1.4-0.729,2.999-1.162,3.598-1.162c1.492,0,2.535,0.67,2.535,2.794v6.223c0,3.129-0.596,3.465-2.124,3.576
		c-0.223,0.225-0.223,1.043,0,1.268c1.565-0.037,2.757-0.075,4.546-0.075c2.049,0,3.688,0.038,5.289,0.075
		c0.225-0.225,0.225-1.043,0-1.268c-2.271-0.111-2.868-0.447-2.868-3.576v-5.812c0-4.1-1.49-5.962-4.694-5.962
		c-1.371,0-4.52,1.479-6.677,2.702c-0.569-1.621-2.06-2.702-4.239-2.702c-1.334,0-4.035,1.401-6.159,2.601
		c-0.089-1.106-0.212-1.967-0.212-1.967c-0.034-0.455-0.336-0.634-0.857-0.634c-1.379,0.373-3.614,0.896-6.186,1.229
		c-0.074,0.225,0,0.969,0.074,1.192c2.031,0.19,2.422,0.485,2.422,2.608v6.968c0,3.092-0.409,3.167-2.682,3.353
		c-0.224,0.225-0.224,1.043,0,1.268c1.564-0.037,3.114-0.075,5.104-0.075c1.698,0,2.757,0.038,4.358,0.075
		c0.225-0.225,0.225-1.043,0-1.268C721.201,236.657,720.829,236.545,720.829,233.453 M710.322,223.317
		c1.043,0,1.639-0.446,1.639-1.824c0-0.708-0.968-1.789-2.384-1.789c-1.641,0-3.802,1.23-4.881,2.199
		c-0.671-0.373-1.453-0.448-3.13-0.448c-1.606,0-3.163,0.392-4.396,1.192c-1.514,0.983-2.535,2.41-2.535,4.322
		c0,1.825,1.081,3.801,2.87,4.788c-1.155,0.987-2.944,2.954-2.944,3.707c0,0.711,0.112,1.155,0.485,1.714
		c0.343,0.514,0.797,0.805,1.526,1.043c-1.602,0.969-3.24,3.092-3.24,3.727c0,1.378,0.428,2.969,1.453,3.688
		c1.441,1.01,3.916,1.23,5.701,1.23c5.179,0,11.103-2.721,11.103-6.818c0-0.798-0.362-2.381-1.864-3.391
		c-1.441-0.969-7.06-1.23-9.798-1.23c-0.671,0-1.677-0.074-1.677-1.564c0-0.596,0.354-1.117,0.539-1.564
		c0.783,0.372,1.584,0.41,2.74,0.41c1.899,0,3.647-0.477,4.918-1.604c1.072-0.949,1.824-2.275,1.824-3.948
		c0-2.087-1.043-3.466-2.309-4.509c0.298-0.373,1.527-1.043,1.9-1.043c0.335,0,0.596,0.224,0.708,0.447
		C708.72,222.536,709.39,223.317,710.322,223.317 M699.441,238.931c2.862,0,8.385,0.104,8.385,2.086
		c0,1.349-0.602,2.861-1.826,3.555c-1.155,0.652-3.044,0.729-4.471,0.729c-2.459,0-4.137-1.825-4.137-3.726
		c0-1.268,0-2.124,0.41-2.869C698.176,238.854,698.66,238.931,699.441,238.931 M703.727,227.269c0,3.576-1.043,4.023-2.012,4.023
		c-2.311,0-2.608-2.757-2.608-4.658c0-2.757,0.672-3.763,2.124-3.763C702.981,222.871,703.727,224.324,703.727,227.269
		 M684.873,229.876v4.918c-0.93,0.745-1.862,1.341-2.532,1.341c-1.602,0-2.161-1.079-2.161-2.235c0-1.381,0.123-2.529,2.757-3.391
		L684.873,229.876z M685.068,236.19c0.252,1.51,1.259,2.181,2.898,2.181c2.061,0,3.502-0.783,4.881-2.087
		c-0.082-0.439-0.242-0.737-0.671-1.043c-0.483,0.373-0.856,0.521-1.564,0.521c-0.821,0-1.043-0.671-1.043-2.496l0.073-5.365
		c0-5.365-3.315-6.446-6.371-6.446c-2.72,0-6.91,1.55-6.91,4.009c0,1.066,0.449,1.887,1.926,1.887c1.318,0,2.316-0.82,2.316-1.723
		c0-0.49-0.26-1.117-0.171-1.758c0.056-0.414,0.324-0.85,1.572-0.85c1.565,0,2.868,0.67,2.868,5.402l-2.495,0.782
		c-3.927,1.229-6.669,2.31-6.669,5.254c0,2.571,1.415,3.912,4.657,3.912c1.08,0,3.24-1.192,4.471-2.161L685.068,236.19z
		 M666.618,228.002c0-1.33,0.41-1.871,0.894-2.448c0.305-0.365,0.633-0.634,1.182-0.634c0.35,0,0.737,0.328,1.054,0.712
		c0.261,0.312,0.895,0.611,1.732,0.611c1.08,0,2.142-1.137,2.142-2.701c0-0.969-1.116-2.087-2.458-2.087
		c-1.304,0-2.72,1.118-4.435,3.577h-0.148c-0.074-1.118-0.26-2.943-0.26-2.943c-0.031-0.328-0.336-0.634-0.857-0.634
		c-1.77,0.448-3.726,0.987-6.185,1.229c-0.075,0.225,0,0.932,0.073,1.155c2.031,0.19,2.422,0.522,2.422,2.646v6.968
		c0,3.092-0.409,3.167-2.683,3.353c-0.224,0.225-0.224,1.043,0,1.268c1.565-0.037,3.114-0.075,5.105-0.075
		c1.988,0,3.502,0.038,5.104,0.075c0.224-0.225,0.224-1.043,0-1.268c-2.271-0.148-2.682-0.261-2.682-3.353V228.002z
		 M652.124,233.229v-9.539h3.205c0.67,0,1.304-0.186,1.304-0.633v-0.856c0-0.224-0.038-0.373-0.746-0.373h-3.763v-1.9
		c0-5.552,1.528-6.37,2.347-6.37c0.633,0,0.783,0.558,1.043,1.452c0.336,1.192,1.306,2.123,2.646,2.123
		c1.229,0,2.123-0.782,2.123-2.384c0-1.006-1.154-2.757-5.104-2.757c-1.751,0-3.837,0.633-5.253,2.161
		c-1.379,1.49-2.645,3.353-2.645,6.93v0.745h-0.076c-1.267,0-2.793,0.187-2.793,0.483v1.006c0,0.262,0.148,0.373,1.006,0.373h1.863
		v9.613c0,3.055-0.597,3.391-2.869,3.502c-0.225,0.225-0.225,1.043,0,1.268c1.564-0.037,3.241-0.075,5.289-0.075
		c2.051,0,3.689,0.038,5.292,0.075c0.224-0.225,0.224-1.043,0-1.268C652.72,236.694,652.124,236.358,652.124,233.229
		 M632.079,233.192c-1.528,1.564-3.54,1.975-4.955,1.975c-2.907,0-4.695-1.677-4.695-5.328c0-0.261,0.036-0.41,0.036-0.596h8.943
		c0.895,0,1.08-0.635,1.08-1.156c0-3.167-1.23-6.632-6.706-6.632c-3.912,0-8.384,3.465-8.384,9.166c0,2.18,0.789,4.44,2.385,5.887
		c1.401,1.271,3.237,1.863,5.888,1.863c2.569,0,5.104-1.304,6.967-4.024C632.638,233.862,632.451,233.192,632.079,233.192
		 M622.615,227.752c0.038-1.304,0.238-2.709,0.746-3.465c0.592-0.888,1.59-1.267,2.011-1.267c1.006,0,2.385,0.969,2.385,3.949
		c0,0.223,0,0.708-0.075,0.782H622.615z M608.334,236.21c0.079,0.879,0.161,1.527,0.161,1.527c0.028,0.447,0.335,0.634,0.856,0.634
		c1.378-0.373,3.613-0.894,6.186-1.229c0.074-0.224,0-0.969-0.075-1.192c-2.031-0.19-2.422-0.782-2.422-2.906v-16.767
		c0-2.422,0.112-3.801,0.112-3.801c0-0.334-0.262-0.483-0.598-0.483c-1.378,0.446-4.357,0.856-7.004,0.968
		c-0.112,0.447-0.074,0.932,0.112,1.268c2.347,0.186,2.534,0.224,2.534,2.795v4.857c-0.713-0.253-1.606-0.425-2.684-0.425
		c-4.806,0-9.017,4.211-9.017,9.166c0,2.217,0.798,4.776,2.606,6.185c1.344,1.043,2.281,1.565,4.361,1.565
		c1.006,0,3.763-1.64,4.545-2.161H608.334z M608.219,234.466c-0.786,0.631-2.754,1.446-3.188,1.446
		c-1.863,0-3.317-2.087-3.317-6.446c0-1.986,0.229-3.689,0.932-4.844c0.615-1.01,1.627-1.602,2.758-1.602
		c0.976,0,1.889,0.101,2.795,1.334v9.172C608.197,233.829,608.204,234.146,608.219,234.466 M566.652,230.286
		c0,4.865,3.86,8.085,8.869,8.085c2.625,0,4.84-0.753,6.371-2.124c1.885-1.688,2.533-4.221,2.533-6.297
		c0-4.873-3.335-8.495-8.868-8.495c-3.089,0-5.395,1.065-6.866,2.758C567.279,225.837,566.652,228.084,566.652,230.286
		 M574.962,223.021c2.533,0,4.247,3.018,4.247,8.123c0,4.475-1.752,5.662-3.092,5.662c-3.055,0-4.248-4.582-4.248-7.34
		C571.869,226.038,572.465,223.021,574.962,223.021 M557.227,229.876v4.918c-0.932,0.745-1.863,1.341-2.533,1.341
		c-1.603,0-2.162-1.079-2.162-2.235c0-1.381,0.123-2.529,2.758-3.391L557.227,229.876z M557.42,236.19
		c0.254,1.51,1.26,2.181,2.898,2.181c2.062,0,3.504-0.783,4.881-2.087c-0.082-0.439-0.242-0.737-0.67-1.043
		c-0.484,0.373-0.856,0.521-1.564,0.521c-0.82,0-1.044-0.671-1.044-2.496l0.075-5.365c0-5.365-3.316-6.446-6.371-6.446
		c-2.721,0-6.912,1.554-6.912,4.013c0,1.066,0.451,1.883,1.926,1.883c1.318,0,2.318-0.82,2.318-1.723
		c0-0.49-0.258-1.117-0.172-1.758c0.056-0.414,0.324-0.85,1.572-0.85c1.565,0,2.869,0.67,2.869,5.402l-2.496,0.782
		c-3.928,1.229-6.67,2.31-6.67,5.254c0,2.571,1.416,3.912,4.656,3.912c1.082,0,3.243-1.192,4.473-2.161L557.42,236.19z
		 M557.525,216.053c-0.41,0-1.379,0-2.049-0.521c-0.746-0.597-1.604-0.931-2.76-0.931c-1.303,0-2.495,1.564-3.091,3.465
		c0,0.521,0.522,0.67,0.969,0.67c0.41-1.416,1.007-1.49,1.825-1.49c0.671,0,1.416,0.148,2.161,0.634
		c0.746,0.558,1.565,0.782,2.422,0.782c1.378,0,2.757-1.305,3.392-3.465c0-0.447-0.522-0.745-1.043-0.745
		C558.829,215.792,558.046,216.053,557.525,216.053 M535.878,241.761c1.341,0.075,3.315,0.239,3.315,1.641
		c0,1.006-0.746,1.527-1.862,1.527c-0.745,0-1.155-0.15-2.161-0.521c-0.339,0.156-0.373,0.596-0.373,0.969
		c0.857,0.454,1.191,0.633,2.385,0.633c2.414,0,4.355-1.479,4.355-3.35c0-2.034-1.77-2.794-3.461-3.133l0.484-1.159
		c0.121,0.004,0.245,0.004,0.372,0.004c2.235,0,4.806-1.565,6.222-3.614c0-0.447-0.073-1.154-0.483-1.154
		c-1.491,1.377-2.757,2.086-3.838,2.086c-2.794,0-4.993-2.013-4.993-6.483c0-4.136,0.932-6.185,2.907-6.185
		c1.378,0,1.937,1.453,2.049,2.646c0.112,1.006,1.118,1.751,2.31,1.751c1.192,0,2.049-0.932,2.049-2.087
		c0-1.677-2.012-3.875-6.072-3.875c-4.396,0-8.271,3.54-8.271,9.054c0,2.407,0.864,4.565,2.31,5.924
		c1.137,1.07,2.407,1.647,4.161,1.853l-1.627,3.253L535.878,241.761z M527.011,233.192c-1.528,1.564-3.54,1.975-4.956,1.975
		c-2.906,0-4.695-1.677-4.695-5.328c0-0.261,0.039-0.41,0.039-0.596h8.941c0.895,0,1.08-0.635,1.08-1.156
		c0-3.167-1.229-6.632-6.706-6.632c-3.912,0-8.384,3.465-8.384,9.166c0,2.18,0.79,4.44,2.385,5.887
		c1.4,1.271,3.238,1.863,5.887,1.863c2.571,0,5.104-1.304,6.967-4.024C527.568,233.862,527.383,233.192,527.011,233.192
		 M517.547,227.752c0.037-1.304,0.238-2.709,0.745-3.465c0.592-0.888,1.591-1.267,2.012-1.267c1.007,0,2.384,0.969,2.384,3.949
		c0,0.223,0,0.708-0.074,0.782H517.547z M502.568,233.267c0,3.092-0.596,3.428-2.869,3.539c-0.223,0.225-0.223,1.043,0,1.268
		c1.565-0.037,3.228-0.075,5.291-0.075c2.064,0,3.688,0.038,5.291,0.075c0.224-0.225,0.224-1.043,0-1.268
		c-2.272-0.111-2.869-0.447-2.869-3.539v-16.99c0-2.422,0.111-3.801,0.111-3.801c0-0.334-0.261-0.483-0.596-0.483
		c-1.378,0.446-4.359,0.856-7.005,0.968c-0.11,0.447-0.073,0.857,0.112,1.193c2.348,0.186,2.533,0.238,2.533,2.793V233.267z
		 M496.682,233.192c-1.527,1.564-3.539,1.975-4.955,1.975c-2.906,0-4.695-1.677-4.695-5.328c0-0.261,0.037-0.41,0.037-0.596h8.942
		c0.896,0,1.081-0.635,1.081-1.156c0-3.167-1.23-6.632-6.707-6.632c-3.912,0-8.383,3.465-8.383,9.166c0,2.18,0.79,4.44,2.385,5.887
		c1.401,1.271,3.237,1.863,5.887,1.863c2.57,0,5.104-1.304,6.967-4.024C497.24,233.862,497.055,233.192,496.682,233.192
		 M487.218,227.752c0.037-1.304,0.239-2.709,0.745-3.465c0.593-0.888,1.591-1.267,2.012-1.267c1.006,0,2.385,0.969,2.385,3.949
		c0,0.223,0,0.708-0.074,0.782H487.218z M477.531,214.487c-2.049-0.297-2.832-1.006-6.297-1.006c-1.691,0-3.887,0.537-5.44,1.789
		c-1.39,1.117-2.421,2.847-2.421,4.657c0,1.427,0.387,3.2,1.229,4.322c1.729,2.306,4.818,3.588,6.409,4.694
		c1.714,1.193,3.39,2.683,3.39,4.77c0,1.833-1.602,3.092-3.875,3.092c-2.496,0-5.066-2.049-5.812-5.439
		c-0.633-0.223-1.267-0.037-1.862,0.111c0,2.795,0.297,4.77,0.707,6.148c2.125,0,2.232,0.745,7.377,0.745
		c2.28,0,4.092-0.656,5.627-2.031c1.322-1.185,2.533-2.901,2.533-5.196c0-1.941-0.838-3.258-1.938-4.472
		c-1.453-1.606-3.539-2.758-4.992-3.503c-1.479-0.76-4.137-2.682-4.137-4.807c0-2.086,1.26-3.353,3.168-3.353
		c3.166,0,4.209,2.869,4.881,5.328c0.521,0.149,1.453,0.149,1.863-0.187C477.941,218.177,477.792,216.649,477.531,214.487"/>
	<polygon clip-path="url(#SVGID_4_)" fill="none" stroke="#231F20" stroke-width="1.998" points="0.999,3 0.999,572.041 
		0.999,574.043 3,574.043 1167.087,574.043 1169.088,574.043 1169.088,572.041 1169.088,3 1169.088,0.998 1167.087,0.998 3,0.998 
		0.999,0.998 	"/>
</g>
<rect x="5.001" y="5.002" fill="none" stroke="#231F20" stroke-width="1.998" width="1160.085" height="565.037"/>
<g>
	<defs>
		<rect id="SVGID_53_" width="1170.088" height="575.043"/>
	</defs>
	<clipPath id="SVGID_6_">
		<use xlink:href="#SVGID_53_"  overflow="visible"/>
	</clipPath>
	<path clip-path="url(#SVGID_6_)" fill="#FF1419" d="M481.068,461.42v16.266l279.188-3.523
		c-14.368,17.892-27.381,41.207-27.381,64.793l0.271,0.542c22.501-30.905,56.117-56.118,92.174-69.402v-0.813
		c-36.6-13.283-68.588-37.953-92.174-69.131l-0.271,0.271c0.542,22.23,11.386,49.883,27.381,64.521L481.068,461.42z"/>
</g>
</svg>
