<?xml version="1.0" encoding="utf-8"?>
<!-- Generator: Adobe Illustrator 16.0.0, SVG Export Plug-In . SVG Version: 6.00 Build 0)  -->
<!DOCTYPE svg PUBLIC "-//W3C//DTD SVG 1.1//EN" "http://www.w3.org/Graphics/SVG/1.1/DTD/svg11.dtd">
<svg version="1.1" id="Layer_1" xmlns="http://www.w3.org/2000/svg" xmlns:xlink="http://www.w3.org/1999/xlink" x="0px" y="0px"
	 width="564px" height="1002px" viewBox="0 0 564 1002" enable-background="new 0 0 564 1002" xml:space="preserve">
<g>
	<defs>
		<rect id="SVGID_161_" width="564" height="1002"/>
	</defs>
	<clipPath id="SVGID_2_">
		<use xlink:href="#SVGID_161_"  overflow="visible"/>
	</clipPath>
	<path clip-path="url(#SVGID_2_)" fill="#0046F9" d="M515.781,73.399h13.2v-3.601c0-2.865-0.55-5.6-1.65-8.199s-2.736-4.9-4.9-6.9
		c-2.168-2-4.85-3.582-8.051-4.75c-3.199-1.166-6.868-1.75-11-1.75c-3.667,0-6.984,0.5-9.949,1.5c-2.969,1-5.5,2.4-7.6,4.2
		s-3.736,3.917-4.9,6.351c-1.168,2.434-1.75,5.084-1.75,7.949v0.6c0,3.468,0.6,6.4,1.8,8.801s2.882,4.4,5.05,6
		c2.165,1.6,4.715,2.884,7.65,3.85c2.932,0.967,6.165,1.75,9.699,2.35c2.666,0.468,4.865,1.035,6.601,1.701
		c1.732,0.666,3.1,1.416,4.1,2.25s1.7,1.767,2.1,2.799c0.4,1.035,0.6,2.117,0.6,3.25c0,2.4-0.968,4.468-2.9,6.201
		c-1.935,1.733-4.899,2.6-8.899,2.6c-5.135,0-8.918-1.25-11.351-3.75c-2.435-2.5-3.649-5.85-3.649-10.051v-2.399h-13.2v3
		c0,3.667,0.6,7.05,1.8,10.149c1.2,3.101,2.965,5.801,5.299,8.101c2.333,2.3,5.25,4.101,8.75,5.399
		c3.5,1.301,7.551,1.951,12.15,1.951c3.933,0,7.465-0.5,10.6-1.5c3.134-1,5.801-2.434,8-4.301c2.201-1.865,3.883-4.115,5.051-6.75
		c1.164-2.633,1.75-5.582,1.75-8.85v-1.2c0-6.133-1.936-10.766-5.801-13.899c-3.866-3.133-9.467-5.366-16.799-6.701
		c-2.935-0.532-5.35-1.1-7.25-1.699s-3.435-1.283-4.6-2.051c-1.168-0.766-1.985-1.633-2.45-2.6c-0.468-0.966-0.7-2.05-0.7-3.25
		c0-2.332,0.965-4.183,2.9-5.55c1.932-1.366,4.565-2.05,7.899-2.05c3.933,0,6.982,1.034,9.15,3.1c2.165,2.067,3.25,4.5,3.25,7.301
		V73.399z M441.881,49.6h-25.799v70h13.2v-63.4h1.8l8.2,63.4h25.8v-70h-13.201V113h-1.799L441.881,49.6z M371.381,107.85
		c-1.6-0.766-2.899-1.85-3.899-3.25s-1.7-3.066-2.101-5c-0.399-1.934-0.6-4.066-0.6-6.4V76c0-2.201,0.233-4.267,0.7-6.201
		c0.465-1.932,1.2-3.6,2.2-5c1-1.399,2.3-2.516,3.9-3.35c1.6-0.832,3.533-1.25,5.799-1.25c2.266,0,4.201,0.418,5.801,1.25
		c1.6,0.834,2.9,1.95,3.9,3.35c1,1.4,1.733,3.068,2.2,5c0.465,1.935,0.7,4,0.7,6.201v17.199c0,2.334-0.2,4.467-0.601,6.4
		c-0.399,1.934-1.1,3.6-2.1,5s-2.3,2.484-3.9,3.25c-1.6,0.768-3.6,1.15-6,1.15C374.981,109,372.981,108.617,371.381,107.85
		 M351.582,92.399c0,9.334,2.283,16.435,6.85,21.3c4.565,4.867,10.883,7.301,18.949,7.301c8.065,0,14.383-2.434,18.951-7.301
		c4.565-4.865,6.85-11.966,6.85-21.3V76.799c0-9.065-2.285-16.1-6.85-21.1c-4.568-5-10.885-7.5-18.951-7.5
		c-8.066,0-14.384,2.5-18.949,7.5c-4.567,5-6.85,12.034-6.85,21.1V92.399z M290.781,62.199h16.8V107h-16.8v12.6h46.8V107h-16.8
		V62.199h16.8V49.6h-46.8V62.199z M225.781,62.199h18.6v57.4h13.201v-57.4h18.6V49.6h-50.4V62.199z M164.381,62.199h16.801V107
		h-16.801v12.6h46.801V107h-16.801V62.199h16.801V49.6h-46.801V62.199z M118.381,107V62.199h5.601c4.6,0,7.816,1.034,9.649,3.1
		c1.833,2.068,2.75,5.101,2.75,9.101v19.2c0,4.6-0.917,7.984-2.75,10.15s-5.049,3.25-9.649,3.25H118.381z M98.582,62.199h6.6v44.7
		h-6.6v12.7h25.4c8.666,0,15.1-2.016,19.3-6.051c4.2-4.032,6.3-10.282,6.3-18.75V74.399c0-8.466-2.1-14.716-6.3-18.75
		c-4.2-4.032-10.634-6.05-19.3-6.05h-25.4V62.199z M38.981,119.6h45.399V107H52.182V90.799h29.8v-12.6h-29.8v-16h31V49.6h-44.2
		V119.6z"/>
	<path clip-path="url(#SVGID_2_)" fill="#231F20" d="M213.588,260.868c0-0.585,0-1.306-0.18-1.89
		c-0.225-0.541-0.585-0.99-1.305-0.99c-0.586,0-0.945,0.449-1.125,0.99c-0.226,0.539-0.271,1.305-0.271,1.89
		c0,0.765,0.405,1.575,0.99,2.295c0.54,0.72,1.26,1.44,1.98,2.114c0.945,0.945,2.07,2.025,2.835,3.24
		c0.765,1.26,1.35,2.655,1.35,4.275c0,1.575-0.36,3.24-1.259,4.5c-0.945,1.305-2.386,2.25-4.546,2.25
		c-2.744,0-4.365-1.26-5.265-2.79c-0.9-1.53-1.08-3.42-1.08-4.726h4.229c0,0.676,0.045,1.621,0.361,2.341
		c0.315,0.765,0.81,1.396,1.754,1.396c1.305,0,1.575-1.531,1.575-2.971c0-1.484-1.44-2.97-2.835-4.365
		c-1.08-1.035-2.115-1.979-2.925-3.195c-0.81-1.215-1.395-2.564-1.395-4.364c0-1.44,0.27-3.104,1.125-4.41
		c0.854-1.26,2.25-2.205,4.41-2.25c2.655-0.045,4.14,0.944,4.905,2.25s0.9,3.015,0.9,4.41H213.588z M195.408,279.184h-4.545v-24.615
		h4.545v2.07c0.09-0.046,0.27-0.226,0.54-0.496c0.494-0.494,1.17-1.17,1.98-1.619c0.405-0.226,0.764-0.315,1.169-0.315
		c1.216,0,2.07,0.72,2.61,1.62c0.54,0.945,0.81,2.16,0.81,3.195v20.16h-4.544v-19.485c0-0.945-0.54-1.08-1.08-1.08
		c-0.495,0-0.765,0.271-1.08,0.585c-0.135,0.18-0.271,0.359-0.405,0.585V279.184z M182.583,260.688
		c0.045-0.944-0.135-1.619-0.585-2.16c-0.226-0.225-0.585-0.359-0.99-0.359c-0.855,0-1.215,0.585-1.395,1.26
		c-0.134,0.36-0.18,0.766-0.134,1.26v12.375c-0.045,0.945,0.18,1.621,0.585,2.115c0.225,0.225,0.54,0.36,0.944,0.36
		c0.855,0,1.26-0.54,1.44-1.215c0.135-0.36,0.18-0.765,0.135-1.261V260.688z M186.858,273.198c-0.135,2.385-0.855,4.05-2.43,5.354
		c-0.81,0.676-1.935,0.99-3.42,0.99c-2.925,0-4.365-1.62-5.085-3.24c-0.405-0.945-0.675-2.025-0.72-3.24v-12.375
		c0.135-2.385,0.854-4.14,2.43-5.489c0.765-0.675,1.89-0.99,3.375-0.99c2.925,0,4.41,1.62,5.13,3.194
		c0.405,0.945,0.675,1.98,0.72,3.15V273.198z M166.653,254.568h4.545v24.615h-4.545V254.568z M166.653,246.107h4.545v4.545h-4.545
		V246.107z M160.218,248.493v6.075h3.105v4.095h-3.105v12.239c0,0.766,0,1.756,0.18,2.565s0.541,1.485,1.26,1.485
		c0.359,0,0.81-0.045,1.125-0.09c0.18-0.045,0.36-0.045,0.54-0.09v4.455c-0.226,0.045-0.45,0.135-0.675,0.18
		c-0.45,0.09-1.035,0.135-1.755,0.135c-2.655,0-3.915-1.35-4.545-3.061c-0.63-1.709-0.675-3.779-0.675-5.219v-12.601h-2.295v-4.095
		h2.295v-6.075H160.218z M143.568,273.783c0,0.72,0.676,1.484,1.351,1.484s1.215-0.629,1.215-1.484v-13.815
		c0-0.854-0.54-1.485-1.215-1.485s-1.351,0.631-1.351,1.485V273.783z M139.024,254.568h4.544v1.619
		c0.766-0.72,1.44-1.26,2.341-1.664c0.405-0.226,0.855-0.315,1.26-0.315c1.26,0,2.115,0.72,2.7,1.62
		c0.54,0.945,0.81,2.16,0.81,3.195v15.705c0,1.035-0.27,2.25-0.81,3.149c-0.585,0.945-1.44,1.665-2.7,1.665
		c-0.854,0-1.755-0.495-2.43-0.99c-0.405-0.314-0.765-0.63-1.17-0.99v10.08h-4.544V254.568z M129.979,254.568h4.544v24.615h-4.544
		V254.568z M129.979,246.107h4.544v4.545h-4.544V246.107z M127.099,259.248c-0.406-0.135-0.855-0.18-1.26-0.18
		c-0.72,0-1.575,0.09-2.295,0.765c-0.854,0.72-0.99,1.485-0.99,2.25v17.101h-4.545v-24.615h4.545v2.744
		c0.045-0.314,0.36-1.08,1.08-1.799c0.721-0.676,1.8-1.306,3.465-1.306V259.248z M107.21,273.514c0,0.899,0.045,1.979,1.26,1.979
		c1.035,0,1.304-0.495,1.304-1.979v-3.421h4.545v2.386c0,2.744-0.495,4.5-1.485,5.58c-0.99,1.08-2.43,1.484-4.365,1.484
		c-1.621,0-3.105-0.45-4.14-1.575s-1.665-2.97-1.665-5.715v-10.755c0-2.745,0.63-4.59,1.665-5.715s2.52-1.575,4.14-1.575
		c1.935,0,3.375,0.405,4.365,1.485c0.99,1.08,1.485,2.834,1.485,5.58v1.935h-4.545v-2.97c0-1.485-0.27-1.98-1.304-1.98
		c-1.215,0-1.26,1.08-1.26,1.98V273.514z M95.15,260.868c0-0.585,0-1.306-0.18-1.89c-0.225-0.541-0.585-0.99-1.305-0.99
		c-0.585,0-0.945,0.449-1.125,0.99c-0.226,0.539-0.27,1.305-0.27,1.89c0,0.765,0.405,1.575,0.99,2.295
		c0.54,0.72,1.26,1.44,1.98,2.114c0.945,0.945,2.069,2.025,2.835,3.24c0.765,1.26,1.35,2.655,1.35,4.275c0,1.575-0.36,3.24-1.26,4.5
		c-0.945,1.305-2.385,2.25-4.545,2.25c-2.745,0-4.365-1.26-5.265-2.79c-0.9-1.53-1.081-3.42-1.081-4.726h4.23
		c0,0.676,0.045,1.621,0.36,2.341c0.315,0.765,0.81,1.396,1.755,1.396c1.305,0,1.575-1.531,1.575-2.971
		c0-1.484-1.44-2.97-2.835-4.365c-1.08-1.035-2.115-1.979-2.925-3.195c-0.81-1.215-1.395-2.564-1.395-4.364
		c0-1.44,0.27-3.104,1.125-4.41c0.855-1.26,2.25-2.205,4.41-2.25c2.655-0.045,4.14,0.944,4.905,2.25s0.9,3.015,0.9,4.41H95.15z
		 M76.97,279.184h-4.545v-24.615h4.545v2.07c0.089-0.046,0.27-0.226,0.54-0.496c0.495-0.494,1.17-1.17,1.98-1.619
		c0.405-0.226,0.765-0.315,1.17-0.315c1.215,0,2.07,0.72,2.61,1.62c0.54,0.945,0.81,2.16,0.81,3.195v20.16h-4.545v-19.485
		c0-0.945-0.54-1.08-1.08-1.08c-0.495,0-0.765,0.271-1.08,0.585c-0.135,0.18-0.27,0.359-0.405,0.585V279.184z M64.009,267.303
		c-2.205,0.945-3.15,3.15-3.15,5.49c0,0.314,0.045,0.855,0.226,1.35c0.18,0.541,0.495,0.945,1.035,0.945
		c1.035,0,1.89-0.63,1.89-1.484V267.303z M64.009,260.418c0-0.404,0-1.035-0.135-1.484c-0.181-0.451-0.54-0.766-1.125-0.766
		c-0.765,0-1.08,0.585-1.215,1.305c-0.045,0.36-0.091,0.766-0.091,1.17v1.17h-4.545v-1.035c0-1.799,0.676-3.42,1.755-4.635
		c1.08-1.215,2.61-1.935,4.365-1.935c1.485,0,2.835,0.585,3.87,1.575s1.665,2.385,1.665,4.005v15.12
		c0,2.205,0.135,3.195,0.315,4.275h-4.455c-0.405-0.496-0.405-1.666-0.405-1.98h-0.315c-0.224,0.404-0.629,0.99-1.26,1.484
		c-0.629,0.496-1.484,0.855-2.385,0.855c-0.585,0-1.53-0.225-2.25-1.125c-0.765-0.855-1.395-2.385-1.395-4.95
		c0-2.745,0.81-4.725,1.89-6.075c1.08-1.35,2.43-2.205,3.555-2.789c1.125-0.586,1.98-0.99,2.16-1.485V260.418z M54.605,259.248
		c-0.405-0.135-0.855-0.18-1.26-0.18c-0.72,0-1.575,0.09-2.295,0.765c-0.855,0.72-0.99,1.485-0.99,2.25v17.101h-4.544v-24.615h4.544
		v2.744c0.046-0.314,0.36-1.08,1.08-1.799c0.72-0.676,1.8-1.306,3.466-1.306V259.248z M39.08,248.493v6.075h3.105v4.095H39.08
		v12.239c0,0.766,0,1.756,0.18,2.565c0.18,0.81,0.54,1.485,1.26,1.485c0.36,0,0.81-0.045,1.125-0.09
		c0.18-0.045,0.359-0.045,0.54-0.09v4.455c-0.225,0.045-0.451,0.135-0.675,0.18c-0.45,0.09-1.035,0.135-1.755,0.135
		c-2.655,0-3.915-1.35-4.545-3.061c-0.63-1.709-0.675-3.779-0.675-5.219v-12.601H32.24v-4.095h2.295v-6.075H39.08z"/>
	<path clip-path="url(#SVGID_2_)" fill="#231F20" d="M522.734,229.309c-0.944,0.539-1.665,1.215-1.665,2.159
		c0,0.945,0.855,1.71,2.971,1.71c0.765,0,1.62-0.135,2.295-0.404c0.675-0.271,1.17-0.676,1.17-1.26c0-0.406-0.045-0.721-0.359-1.035
		c-0.36-0.315-0.945-0.541-2.07-0.721L522.734,229.309z M524.85,209.643c0-0.854-0.18-1.395-0.54-1.89
		c-0.18-0.226-0.45-0.36-0.854-0.36c-0.721,0-1.08,0.586-1.216,1.125c-0.089,0.315-0.134,0.721-0.089,1.125v6.75
		c-0.044,0.855,0.089,1.396,0.496,1.846c0.18,0.225,0.449,0.359,0.81,0.359c0.765,0,1.08-0.539,1.26-1.08
		c0.09-0.314,0.135-0.72,0.135-1.125V209.643z M529.305,216.303c-0.135,2.295-0.945,3.915-2.52,5.131
		c-0.81,0.629-1.936,0.944-3.33,0.944h-0.405c-0.135,0-0.315,0-0.45-0.045c-0.405,0.36-0.63,0.72-0.63,1.125
		c0,0.54,0.45,0.854,1.125,1.035c0.675,0.225,1.485,0.36,2.34,0.495c1.44,0.18,2.97,0.539,4.23,1.395
		c1.215,0.855,2.069,2.16,2.069,4.32c0,2.385-1.034,4.005-2.475,4.949c-1.485,0.945-3.465,1.351-5.31,1.351
		c-2.16-0.045-4.005-0.36-5.265-1.08c-1.305-0.72-2.025-1.89-2.025-3.69c0-0.854,0.45-1.574,1.125-2.205
		c0.675-0.629,1.575-1.125,2.43-1.529c-1.485-0.405-2.745-1.35-2.745-3.285c0-0.72,0.405-1.439,0.945-2.115
		c0.54-0.675,1.215-1.215,1.89-1.574c-1.305-0.855-1.935-2.205-2.25-3.33c-0.18-0.676-0.315-1.351-0.36-2.025v-6.705
		c0.18-2.295,0.9-3.96,2.475-5.265c0.765-0.675,1.89-0.99,3.285-0.99c2.295,0,3.69,1.035,4.545,2.25
		c0.314-0.315,0.855-0.854,1.575-1.351c0.675-0.494,1.44-0.899,2.159-0.899v4.05c-1.214,0-2.114,0.225-2.654,0.54
		c0.045,0.226,0.09,0.45,0.135,0.585c0,0.18,0,0.36,0.045,0.495c0.045,0.136,0.045,0.315,0.045,0.45V216.303z M506.67,228.184
		h-4.545v-24.615h4.545v2.07c0.09-0.046,0.27-0.226,0.54-0.496c0.495-0.494,1.17-1.17,1.98-1.619
		c0.405-0.226,0.765-0.315,1.17-0.315c1.215,0,2.07,0.72,2.61,1.62c0.54,0.945,0.811,2.16,0.811,3.195v20.16h-4.546v-19.485
		c0-0.945-0.54-1.08-1.08-1.08c-0.495,0-0.765,0.271-1.08,0.585c-0.135,0.18-0.27,0.359-0.405,0.585V228.184z M493.08,203.568h4.545
		v24.615h-4.545V203.568z M493.08,195.107h4.545v4.545h-4.545V195.107z M490.201,208.248c-0.405-0.135-0.855-0.18-1.261-0.18
		c-0.719,0-1.574,0.09-2.294,0.765c-0.855,0.72-0.99,1.485-0.99,2.25v17.101h-4.546v-24.615h4.546v2.744
		c0.045-0.314,0.359-1.08,1.08-1.799c0.72-0.676,1.8-1.306,3.465-1.306V208.248z M472.695,216.303c-2.206,0.945-3.15,3.15-3.15,5.49
		c0,0.314,0.045,0.855,0.225,1.35c0.18,0.541,0.495,0.945,1.035,0.945c1.035,0,1.89-0.63,1.89-1.484V216.303z M472.695,209.418
		c0-0.404,0-1.035-0.135-1.484c-0.18-0.451-0.54-0.766-1.125-0.766c-0.765,0-1.08,0.585-1.215,1.305
		c-0.045,0.36-0.09,0.766-0.09,1.17v1.17h-4.545v-1.035c0-1.799,0.675-3.42,1.755-4.635s2.61-1.935,4.365-1.935
		c1.485,0,2.835,0.585,3.87,1.575c1.035,0.99,1.664,2.385,1.664,4.005v15.12c0,2.205,0.136,3.195,0.316,4.275H473.1
		c-0.405-0.496-0.405-1.666-0.405-1.98h-0.315c-0.225,0.404-0.63,0.99-1.26,1.484c-0.631,0.496-1.485,0.855-2.386,0.855
		c-0.584,0-1.529-0.225-2.25-1.125c-0.765-0.855-1.395-2.385-1.395-4.95c0-2.745,0.81-4.725,1.89-6.075
		c1.08-1.35,2.43-2.205,3.555-2.789c1.125-0.586,1.98-0.99,2.16-1.485V209.418z M454.65,222.783c0,0.72,0.675,1.484,1.35,1.484
		s1.215-0.629,1.215-1.484v-13.815c0-0.854-0.54-1.485-1.215-1.485s-1.35,0.631-1.35,1.485V222.783z M450.105,203.568h4.544v1.619
		c0.765-0.72,1.44-1.26,2.339-1.664c0.406-0.226,0.855-0.315,1.261-0.315c1.26,0,2.115,0.72,2.7,1.62
		c0.539,0.945,0.81,2.16,0.81,3.195v15.705c0,1.035-0.271,2.25-0.81,3.149c-0.585,0.945-1.44,1.665-2.7,1.665
		c-0.854,0-1.755-0.495-2.43-0.99c-0.405-0.314-0.765-0.63-1.17-0.99v10.08h-4.544V203.568z M438.496,228.184h-4.275v-19.485
		c0-0.945-0.72-1.08-1.215-1.08s-0.899,0.271-1.215,0.585c-0.181,0.18-0.36,0.359-0.495,0.585v19.396h-4.545v-24.615h4.545v2.07
		c0.09-0.046,0.27-0.226,0.54-0.496c0.495-0.494,1.26-1.17,2.069-1.619c0.406-0.226,0.766-0.315,1.171-0.315
		c1.62,0,2.565,1.306,3.06,2.745c0.18-0.135,0.405-0.36,0.721-0.676c0.584-0.629,1.35-1.215,2.205-1.709
		c0.404-0.226,0.81-0.36,1.214-0.36c1.215,0,2.07,0.72,2.61,1.62c0.54,0.945,0.81,2.16,0.81,3.195v20.16h-4.275v-19.485
		c0-0.945-0.72-1.08-1.215-1.08s-0.899,0.271-1.215,0.585c-0.18,0.18-0.36,0.359-0.495,0.585V228.184z M418.471,209.688
		c0.044-0.944-0.135-1.619-0.585-2.16c-0.225-0.225-0.585-0.359-0.989-0.359c-0.855,0-1.215,0.585-1.396,1.26
		c-0.135,0.36-0.18,0.766-0.135,1.26v12.375c-0.045,0.945,0.18,1.621,0.585,2.115c0.225,0.225,0.54,0.36,0.945,0.36
		c0.854,0,1.26-0.54,1.439-1.215c0.135-0.36,0.18-0.765,0.135-1.261V209.688z M422.746,222.198c-0.136,2.385-0.855,4.05-2.43,5.354
		c-0.81,0.676-1.935,0.99-3.419,0.99c-2.925,0-4.366-1.62-5.085-3.24c-0.406-0.945-0.676-2.025-0.721-3.24v-12.375
		c0.135-2.385,0.854-4.14,2.431-5.489c0.765-0.675,1.89-0.99,3.375-0.99c2.924,0,4.41,1.62,5.129,3.194
		c0.405,0.945,0.675,1.98,0.72,3.15V222.198z M400.606,222.514c0,0.899,0.044,1.979,1.26,1.979c1.034,0,1.305-0.495,1.305-1.979
		v-3.421h4.545v2.386c0,2.744-0.495,4.5-1.484,5.58c-0.99,1.08-2.431,1.484-4.365,1.484c-1.62,0-3.105-0.45-4.141-1.575
		s-1.664-2.97-1.664-5.715v-10.755c0-2.745,0.629-4.59,1.664-5.715s2.521-1.575,4.141-1.575c1.935,0,3.375,0.405,4.365,1.485
		c0.99,1.08,1.484,2.834,1.484,5.58v1.935h-4.545v-2.97c0-1.485-0.271-1.98-1.305-1.98c-1.216,0-1.26,1.08-1.26,1.98V222.514z
		 M379.547,208.968c0-0.72-0.675-1.485-1.35-1.485c-0.674,0-1.215,0.631-1.215,1.485v13.815c0,0.855,0.541,1.484,1.215,1.484
		c0.675,0,1.35-0.629,1.35-1.484V208.968z M384.092,228.184h-4.545v-1.621c-0.765,0.721-1.44,1.261-2.295,1.666
		c-0.45,0.225-0.9,0.314-1.305,0.314c-1.259,0-2.115-0.72-2.655-1.665c-0.585-0.899-0.854-2.114-0.854-3.149v-15.705
		c0-1.035,0.27-2.25,0.854-3.195c0.54-0.9,1.396-1.62,2.655-1.62c0.855,0,1.755,0.495,2.43,0.99c0.405,0.315,0.765,0.63,1.17,0.989
		v-10.08h4.545V228.184z M361.098,228.184h-4.545v-24.615h4.545v2.07c0.091-0.046,0.271-0.226,0.541-0.496
		c0.494-0.494,1.169-1.17,1.979-1.619c0.404-0.226,0.765-0.315,1.17-0.315c1.215,0,2.07,0.72,2.61,1.62
		c0.541,0.945,0.81,2.16,0.81,3.195v20.16h-4.545v-19.485c0-0.945-0.54-1.08-1.08-1.08c-0.495,0-0.765,0.271-1.08,0.585
		c-0.135,0.18-0.271,0.359-0.405,0.585V228.184z M348.137,216.303c-2.205,0.945-3.15,3.15-3.15,5.49c0,0.314,0.045,0.855,0.225,1.35
		c0.18,0.541,0.495,0.945,1.035,0.945c1.035,0,1.89-0.63,1.89-1.484V216.303z M348.137,209.418c0-0.404,0-1.035-0.135-1.484
		c-0.181-0.451-0.54-0.766-1.125-0.766c-0.765,0-1.08,0.585-1.215,1.305c-0.045,0.36-0.09,0.766-0.09,1.17v1.17h-4.546v-1.035
		c0-1.799,0.676-3.42,1.756-4.635c1.079-1.215,2.609-1.935,4.365-1.935c1.484,0,2.834,0.585,3.87,1.575
		c1.035,0.99,1.665,2.385,1.665,4.005v15.12c0,2.205,0.135,3.195,0.315,4.275h-4.455c-0.405-0.496-0.405-1.666-0.405-1.98h-0.315
		c-0.224,0.404-0.629,0.99-1.259,1.484c-0.631,0.496-1.485,0.855-2.386,0.855c-0.585,0-1.529-0.225-2.25-1.125
		c-0.765-0.855-1.395-2.385-1.395-4.95c0-2.745,0.81-4.725,1.89-6.075c1.08-1.35,2.43-2.205,3.555-2.789
		c1.125-0.586,1.98-0.99,2.16-1.485V209.418z M325.548,209.868c0-0.585,0-1.306-0.18-1.89c-0.225-0.541-0.585-0.99-1.305-0.99
		c-0.585,0-0.945,0.449-1.125,0.99c-0.226,0.539-0.271,1.305-0.271,1.89c0,0.765,0.405,1.575,0.99,2.295
		c0.539,0.72,1.26,1.44,1.98,2.114c0.944,0.945,2.069,2.025,2.834,3.24c0.764,1.26,1.35,2.655,1.35,4.275
		c0,1.575-0.36,3.24-1.259,4.5c-0.945,1.305-2.386,2.25-4.546,2.25c-2.745,0-4.365-1.26-5.265-2.79
		c-0.899-1.53-1.08-3.42-1.08-4.726h4.23c0,0.676,0.045,1.621,0.36,2.341c0.315,0.765,0.81,1.396,1.754,1.396
		c1.305,0,1.575-1.531,1.575-2.971c0-1.484-1.44-2.97-2.835-4.365c-1.08-1.035-2.115-1.979-2.925-3.195
		c-0.811-1.215-1.395-2.564-1.395-4.364c0-1.44,0.27-3.104,1.125-4.41c0.854-1.26,2.25-2.205,4.41-2.25
		c2.655-0.045,4.14,0.944,4.905,2.25s0.899,3.015,0.899,4.41H325.548z M307.368,228.184h-4.545v-33.076h4.545v10.531
		c0.09-0.046,0.271-0.226,0.54-0.496c0.495-0.494,1.17-1.17,1.979-1.619c0.405-0.226,0.765-0.315,1.17-0.315
		c1.215,0,2.07,0.72,2.61,1.62c0.54,0.945,0.811,2.16,0.811,3.195v20.16h-4.545v-19.485c0-0.945-0.54-1.08-1.08-1.08
		c-0.496,0-0.766,0.271-1.081,0.585c-0.134,0.18-0.27,0.359-0.404,0.585V228.184z M291.393,222.783c0,0.72,0.675,1.484,1.35,1.484
		c0.675,0,1.215-0.629,1.215-1.484v-13.815c0-0.854-0.54-1.485-1.215-1.485c-0.675,0-1.35,0.631-1.35,1.485V222.783z
		 M286.848,203.568h4.545v1.619c0.765-0.72,1.44-1.26,2.339-1.664c0.406-0.226,0.855-0.315,1.261-0.315
		c1.26,0,2.115,0.72,2.699,1.62c0.54,0.945,0.811,2.16,0.811,3.195v15.705c0,1.035-0.271,2.25-0.811,3.149
		c-0.584,0.945-1.439,1.665-2.699,1.665c-0.854,0-1.756-0.495-2.43-0.99c-0.405-0.314-0.766-0.63-1.17-0.99v10.08h-4.545V203.568z
		 M278.433,216.303c-2.205,0.945-3.15,3.15-3.15,5.49c0,0.314,0.045,0.855,0.225,1.35c0.181,0.541,0.495,0.945,1.035,0.945
		c1.035,0,1.89-0.63,1.89-1.484V216.303z M278.433,209.418c0-0.404,0-1.035-0.135-1.484c-0.18-0.451-0.54-0.766-1.125-0.766
		c-0.765,0-1.08,0.585-1.215,1.305c-0.045,0.36-0.09,0.766-0.09,1.17v1.17h-4.545v-1.035c0-1.799,0.675-3.42,1.755-4.635
		s2.61-1.935,4.364-1.935c1.485,0,2.835,0.585,3.871,1.575c1.034,0.99,1.665,2.385,1.665,4.005v15.12
		c0,2.205,0.134,3.195,0.314,4.275h-4.455c-0.405-0.496-0.405-1.666-0.405-1.98h-0.315c-0.225,0.404-0.63,0.99-1.26,1.484
		c-0.629,0.496-1.485,0.855-2.385,0.855c-0.585,0-1.531-0.225-2.25-1.125c-0.765-0.855-1.395-2.385-1.395-4.95
		c0-2.745,0.81-4.725,1.89-6.075c1.08-1.35,2.43-2.205,3.555-2.789c1.125-0.586,1.98-0.99,2.161-1.485V209.418z M269.028,208.248
		c-0.405-0.135-0.855-0.18-1.26-0.18c-0.72,0-1.575,0.09-2.294,0.765c-0.855,0.72-0.991,1.485-0.991,2.25v17.101h-4.544v-24.615
		h4.544v2.744c0.045-0.314,0.36-1.08,1.081-1.799c0.72-0.676,1.799-1.306,3.464-1.306V208.248z M248.192,229.309
		c-0.944,0.539-1.665,1.215-1.665,2.159c0,0.945,0.855,1.71,2.97,1.71c0.765,0,1.62-0.135,2.295-0.404
		c0.675-0.271,1.17-0.676,1.17-1.26c0-0.406-0.045-0.721-0.359-1.035c-0.36-0.315-0.945-0.541-2.07-0.721L248.192,229.309z
		 M250.308,209.643c0-0.854-0.18-1.395-0.54-1.89c-0.18-0.226-0.45-0.36-0.854-0.36c-0.721,0-1.08,0.586-1.215,1.125
		c-0.09,0.315-0.134,0.721-0.09,1.125v6.75c-0.044,0.855,0.09,1.396,0.496,1.846c0.18,0.225,0.45,0.359,0.81,0.359
		c0.765,0,1.08-0.539,1.26-1.08c0.09-0.314,0.135-0.72,0.135-1.125V209.643z M254.763,216.303c-0.135,2.295-0.945,3.915-2.52,5.131
		c-0.81,0.629-1.936,0.944-3.33,0.944h-0.405c-0.135,0-0.315,0-0.45-0.045c-0.405,0.36-0.629,0.72-0.629,1.125
		c0,0.54,0.45,0.854,1.125,1.035c0.675,0.225,1.485,0.36,2.34,0.495c1.44,0.18,2.97,0.539,4.23,1.395
		c1.215,0.855,2.069,2.16,2.069,4.32c0,2.385-1.034,4.005-2.475,4.949c-1.485,0.945-3.465,1.351-5.31,1.351
		c-2.16-0.045-4.005-0.36-5.265-1.08c-1.305-0.72-2.025-1.89-2.025-3.69c0-0.854,0.45-1.574,1.125-2.205
		c0.675-0.629,1.575-1.125,2.43-1.529c-1.484-0.405-2.745-1.35-2.745-3.285c0-0.72,0.405-1.439,0.945-2.115
		c0.54-0.675,1.215-1.215,1.89-1.574c-1.305-0.855-1.935-2.205-2.25-3.33c-0.18-0.676-0.315-1.351-0.36-2.025v-6.705
		c0.18-2.295,0.9-3.96,2.475-5.265c0.765-0.675,1.89-0.99,3.285-0.99c2.295,0,3.69,1.035,4.545,2.25
		c0.314-0.315,0.855-0.854,1.575-1.351c0.675-0.494,1.44-0.899,2.159-0.899v4.05c-1.214,0-2.114,0.225-2.654,0.54
		c0.045,0.226,0.09,0.45,0.135,0.585c0,0.18,0,0.36,0.045,0.495c0.045,0.136,0.045,0.315,0.045,0.45V216.303z M235.278,209.688
		c0.045-0.944-0.135-1.619-0.585-2.16c-0.225-0.225-0.584-0.359-0.989-0.359c-0.855,0-1.215,0.585-1.396,1.26
		c-0.135,0.36-0.18,0.766-0.135,1.26v12.375c-0.045,0.945,0.181,1.621,0.585,2.115c0.225,0.225,0.54,0.36,0.945,0.36
		c0.854,0,1.26-0.54,1.44-1.215c0.135-0.36,0.18-0.765,0.135-1.261V209.688z M239.553,222.198c-0.135,2.385-0.855,4.05-2.43,5.354
		c-0.81,0.676-1.935,0.99-3.42,0.99c-2.925,0-4.365-1.62-5.085-3.24c-0.405-0.945-0.676-2.025-0.72-3.24v-12.375
		c0.135-2.385,0.855-4.14,2.43-5.489c0.765-0.675,1.89-0.99,3.375-0.99c2.925,0,4.41,1.62,5.13,3.194
		c0.405,0.945,0.675,1.98,0.72,3.15V222.198z M221.869,197.493v6.075h3.104v4.095h-3.104v12.239c0,0.766,0,1.756,0.18,2.565
		c0.181,0.81,0.54,1.485,1.26,1.485c0.36,0,0.81-0.045,1.125-0.09c0.18-0.045,0.36-0.045,0.54-0.09v4.455
		c-0.225,0.045-0.45,0.135-0.675,0.18c-0.45,0.09-1.035,0.135-1.755,0.135c-2.655,0-3.915-1.35-4.545-3.061
		c-0.63-1.709-0.675-3.779-0.675-5.219v-12.601h-2.295v-4.095h2.295v-6.075H221.869z M207.558,203.568h4.546v24.615h-4.546v-2.07
		c-0.09,0.045-0.27,0.225-0.494,0.449c-0.541,0.541-1.17,1.17-1.98,1.621c-0.405,0.225-0.811,0.359-1.215,0.359
		c-1.215,0-2.07-0.72-2.61-1.665c-0.54-0.899-0.81-2.114-0.81-3.149v-20.16h4.545v19.484c0,0.945,0.54,1.08,1.08,1.08
		c0.495,0,0.765-0.27,1.08-0.585c0.135-0.135,0.27-0.36,0.405-0.585V203.568z M191.989,216.303c-2.205,0.945-3.15,3.15-3.15,5.49
		c0,0.314,0.045,0.855,0.226,1.35c0.18,0.541,0.495,0.945,1.035,0.945c1.035,0,1.89-0.63,1.89-1.484V216.303z M191.989,209.418
		c0-0.404,0-1.035-0.134-1.484c-0.181-0.451-0.54-0.766-1.125-0.766c-0.766,0-1.081,0.585-1.215,1.305
		c-0.045,0.36-0.09,0.766-0.09,1.17v1.17h-4.545v-1.035c0-1.799,0.675-3.42,1.755-4.635c1.08-1.215,2.61-1.935,4.365-1.935
		c1.485,0,2.835,0.585,3.87,1.575c1.035,0.99,1.665,2.385,1.665,4.005v15.12c0,2.205,0.135,3.195,0.315,4.275h-4.455
		c-0.405-0.496-0.405-1.666-0.405-1.98h-0.315c-0.225,0.404-0.63,0.99-1.26,1.484c-0.63,0.496-1.485,0.855-2.385,0.855
		c-0.585,0-1.53-0.225-2.25-1.125c-0.765-0.855-1.395-2.385-1.395-4.95c0-2.745,0.81-4.725,1.89-6.075
		c1.081-1.35,2.43-2.205,3.555-2.789c1.125-0.586,1.98-0.99,2.16-1.485V209.418z M165.529,229.309
		c-0.945,0.539-1.665,1.215-1.665,2.159c0,0.945,0.855,1.71,2.97,1.71c0.765,0,1.62-0.135,2.295-0.404
		c0.675-0.271,1.17-0.676,1.17-1.26c0-0.406-0.045-0.721-0.359-1.035c-0.36-0.315-0.945-0.541-2.07-0.721L165.529,229.309z
		 M167.644,209.643c0-0.854-0.18-1.395-0.54-1.89c-0.181-0.226-0.451-0.36-0.855-0.36c-0.72,0-1.08,0.586-1.215,1.125
		c-0.091,0.315-0.136,0.721-0.091,1.125v6.75c-0.045,0.855,0.091,1.396,0.496,1.846c0.18,0.225,0.45,0.359,0.81,0.359
		c0.765,0,1.08-0.539,1.26-1.08c0.09-0.314,0.135-0.72,0.135-1.125V209.643z M172.099,216.303c-0.135,2.295-0.945,3.915-2.52,5.131
		c-0.81,0.629-1.935,0.944-3.33,0.944h-0.405c-0.135,0-0.315,0-0.45-0.045c-0.405,0.36-0.63,0.72-0.63,1.125
		c0,0.54,0.45,0.854,1.125,1.035c0.675,0.225,1.485,0.36,2.34,0.495c1.439,0.18,2.97,0.539,4.229,1.395
		c1.215,0.855,2.07,2.16,2.07,4.32c0,2.385-1.035,4.005-2.475,4.949c-1.486,0.945-3.465,1.351-5.31,1.351
		c-2.16-0.045-4.005-0.36-5.265-1.08c-1.306-0.72-2.025-1.89-2.025-3.69c0-0.854,0.45-1.574,1.125-2.205
		c0.675-0.629,1.575-1.125,2.43-1.529c-1.485-0.405-2.745-1.35-2.745-3.285c0-0.72,0.405-1.439,0.945-2.115
		c0.54-0.675,1.215-1.215,1.89-1.574c-1.305-0.855-1.935-2.205-2.25-3.33c-0.18-0.676-0.315-1.351-0.36-2.025v-6.705
		c0.18-2.295,0.9-3.96,2.475-5.265c0.766-0.675,1.891-0.99,3.285-0.99c2.295,0,3.69,1.035,4.545,2.25
		c0.314-0.315,0.854-0.854,1.575-1.351c0.675-0.494,1.44-0.899,2.16-0.899v4.05c-1.214,0-2.115,0.225-2.655,0.54
		c0.045,0.226,0.09,0.45,0.135,0.585c0,0.18,0,0.36,0.045,0.495c0.045,0.136,0.045,0.315,0.045,0.45V216.303z M149.465,228.184
		h-4.545v-24.615h4.545v2.07c0.09-0.046,0.27-0.226,0.54-0.496c0.495-0.494,1.17-1.17,1.979-1.619
		c0.405-0.226,0.766-0.315,1.17-0.315c1.215,0,2.07,0.72,2.61,1.62c0.54,0.945,0.81,2.16,0.81,3.195v20.16h-4.545v-19.485
		c0-0.945-0.54-1.08-1.08-1.08c-0.495,0-0.765,0.271-1.08,0.585c-0.136,0.18-0.271,0.359-0.405,0.585V228.184z M135.875,203.568
		h4.545v24.615h-4.545V203.568z M135.875,195.107h4.545v4.545h-4.545V195.107z M121.745,224.493L128,207.708h-5.266v-4.14h10.08
		v3.689l-6.255,16.785h6.255v4.141h-11.069V224.493z M114.23,203.568h4.544v24.615h-4.544V203.568z M114.23,195.107h4.544v4.545
		h-4.544V195.107z M105.185,195.107h4.545v33.076h-4.545V195.107z M96.77,216.303c-2.206,0.945-3.15,3.15-3.15,5.49
		c0,0.314,0.045,0.855,0.225,1.35c0.179,0.541,0.495,0.945,1.035,0.945c1.035,0,1.89-0.63,1.89-1.484V216.303z M96.77,209.418
		c0-0.404,0-1.035-0.135-1.484c-0.18-0.451-0.54-0.766-1.125-0.766c-0.765,0-1.08,0.585-1.215,1.305
		c-0.045,0.36-0.09,0.766-0.09,1.17v1.17H89.66v-1.035c0-1.799,0.675-3.42,1.755-4.635s2.609-1.935,4.365-1.935
		c1.485,0,2.835,0.585,3.87,1.575c1.035,0.99,1.665,2.385,1.665,4.005v15.12c0,2.205,0.136,3.195,0.315,4.275h-4.455
		c-0.405-0.496-0.405-1.666-0.405-1.98h-0.315c-0.225,0.404-0.63,0.99-1.26,1.484c-0.63,0.496-1.485,0.855-2.385,0.855
		c-0.584,0-1.53-0.225-2.25-1.125c-0.765-0.855-1.395-2.385-1.395-4.95c0-2.745,0.81-4.725,1.89-6.075
		c1.08-1.35,2.429-2.205,3.555-2.789c1.125-0.586,1.98-0.99,2.16-1.485V209.418z M80.84,203.568h4.545v24.615H80.84v-2.07
		c-0.09,0.045-0.27,0.225-0.495,0.449c-0.54,0.541-1.17,1.17-1.98,1.621c-0.405,0.225-0.81,0.359-1.215,0.359
		c-1.215,0-2.07-0.72-2.61-1.665c-0.54-0.899-0.81-2.114-0.81-3.149v-20.16h4.544v19.484c0,0.945,0.54,1.08,1.081,1.08
		c0.494,0,0.765-0.27,1.08-0.585c0.135-0.135,0.27-0.36,0.405-0.585V203.568z M65.945,209.868c0-0.585,0-1.306-0.18-1.89
		c-0.225-0.541-0.585-0.99-1.305-0.99c-0.585,0-0.945,0.449-1.125,0.99c-0.225,0.539-0.271,1.305-0.271,1.89
		c0,0.765,0.406,1.575,0.991,2.295c0.54,0.72,1.259,1.44,1.98,2.114c0.945,0.945,2.07,2.025,2.835,3.24
		c0.765,1.26,1.35,2.655,1.35,4.275c0,1.575-0.36,3.24-1.26,4.5c-0.945,1.305-2.385,2.25-4.545,2.25c-2.745,0-4.365-1.26-5.265-2.79
		s-1.08-3.42-1.08-4.726h4.23c0,0.676,0.045,1.621,0.36,2.341c0.315,0.765,0.81,1.396,1.755,1.396c1.305,0,1.575-1.531,1.575-2.971
		c0-1.484-1.44-2.97-2.835-4.365c-1.08-1.035-2.115-1.979-2.925-3.195c-0.81-1.215-1.395-2.564-1.395-4.364
		c0-1.44,0.271-3.104,1.125-4.41c0.854-1.26,2.25-2.205,4.41-2.25c2.654-0.045,4.14,0.944,4.904,2.25
		c0.766,1.306,0.9,3.015,0.9,4.41H65.945z M50.24,203.568h4.545v24.615H50.24V203.568z M50.24,195.107h4.545v4.545H50.24V195.107z
		 M42.41,195.107h4.725l-5.04,33.076h-4.861l-5.04-33.076h4.725l2.43,18.181l0.18,1.396h0.27l0.18-1.396L42.41,195.107z"/>
	<path clip-path="url(#SVGID_2_)" fill="#0046F9" d="M305.083,412.895v15.283l145.454-3.311
		c-13.501,16.812-25.728,38.719-25.728,60.881l0.254,0.51c21.143-29.039,52.73-52.729,86.611-65.211v-0.766
		c-34.39-12.482-64.449-35.663-86.611-64.957l-0.254,0.255c0.509,20.888,10.699,46.871,25.728,60.627L305.083,412.895z"/>
	<path clip-path="url(#SVGID_2_)" fill="#231F20" d="M206.887,449.278c-8.655,0-15.328,2.056-20.02,6.16
		c-4.695,4.108-7.04,9.899-7.04,17.38s2.345,13.275,7.04,17.38c4.692,4.108,11.365,6.16,20.02,6.16c8.653,0,15.325-2.052,20.02-6.16
		c4.692-4.104,7.04-9.899,7.04-17.38s-2.347-13.271-7.04-17.38C222.212,451.334,215.54,449.278,206.887,449.278 M108.77,347.198
		c-17.6,0-31.79,3.19-42.57,9.57c-10.78,6.38-16.978,17.198-18.59,32.45l43.56,13.64c-0.44-6.601,0.622-11.254,3.19-13.97
		c2.564-2.713,5.902-4.07,10.01-4.07c2.932,0,5.39,1.066,7.37,3.189c1.98,2.129,2.97,4.951,2.97,8.471
		c0,7.92-4.18,11.88-12.54,11.88h-7.04v29.04h9.68c8.505,0,12.76,3.448,12.76,10.34c0,3.668-1.21,6.49-3.63,8.471
		c-2.42,1.979-5.318,2.97-8.69,2.97c-4.696,0-8.36-1.21-11-3.63c-2.64-2.42-3.816-7.223-3.52-14.41l-45.1,18.699
		c3.664,13.349,10.484,22.847,20.46,28.49c9.973,5.648,23.832,8.471,41.58,8.471c11,0,20.972-1.727,29.92-5.17
		c8.944-3.444,15.984-8.36,21.12-14.74c5.132-6.381,7.7-13.822,7.7-22.33c0-12.904-3.448-21.484-10.34-25.74
		c-6.896-4.252-13.42-6.38-19.58-6.38v-0.88c2.344,0,5.682-0.914,10.01-2.75c4.324-1.832,8.284-5.094,11.88-9.79
		c3.592-4.692,5.39-11.072,5.39-19.14c0-13.784-4.806-24.344-14.41-31.681C139.752,350.866,126.222,347.198,108.77,347.198"/>
</g>
<polygon fill="#231F20" points="81.449,934.063 463.533,934.063 463.533,806.304 447.023,806.304 377.642,915.163 288.4,915.163 
	288.4,774.723 324.527,774.723 356.108,854.153 371.661,854.153 371.661,677.108 356.108,677.108 324.527,756.062 288.4,756.062 
	288.4,613.708 369.268,613.708 435.78,711.561 452.049,711.561 452.049,595.046 81.449,595.046 81.449,613.708 123.318,613.708 
	123.318,915.163 81.449,915.163 "/>
<line fill="none" stroke="#0046F9" stroke-width="2" x1="273.342" y1="338" x2="273.342" y2="512"/>
<g>
	<defs>
		<rect id="SVGID_163_" width="564" height="1002"/>
	</defs>
	<clipPath id="SVGID_4_">
		<use xlink:href="#SVGID_163_"  overflow="visible"/>
	</clipPath>
	<polygon clip-path="url(#SVGID_4_)" fill="none" stroke="#0046F9" stroke-width="1.998" points="0.999,3 0.999,999 0.999,1001.002 
		3,1001.002 561,1001.002 563.001,1001.002 563.001,999 563.001,3 563.001,0.998 561,0.998 3,0.998 0.999,0.998 	"/>
</g>
<rect x="5.001" y="5.002" fill="none" stroke="#0046F9" stroke-width="1.998" width="553.997" height="991.996"/>
<line fill="none" stroke="#0046F9" stroke-width="2" x1="23.103" y1="169" x2="536.104" y2="169"/>
<line fill="none" stroke="#0046F9" stroke-width="2" x1="23.103" y1="529" x2="536.104" y2="529"/>
<line fill="none" stroke="#0046F9" stroke-width="2" x1="17.841" y1="318" x2="530.841" y2="318"/>
</svg>
