<?xml version="1.0" encoding="utf-8"?>
<!-- Generator: Adobe Illustrator 16.0.0, SVG Export Plug-In . SVG Version: 6.00 Build 0)  -->
<!DOCTYPE svg PUBLIC "-//W3C//DTD SVG 1.1//EN" "http://www.w3.org/Graphics/SVG/1.1/DTD/svg11.dtd">
<svg version="1.1" id="Layer_1" xmlns="http://www.w3.org/2000/svg" xmlns:xlink="http://www.w3.org/1999/xlink" x="0px" y="0px"
	 width="564px" height="1002px" viewBox="0 0 564 1002" enable-background="new 0 0 564 1002" xml:space="preserve">
<g>
	<defs>
		<rect id="SVGID_81_" width="564" height="1002"/>
	</defs>
	<clipPath id="SVGID_2_">
		<use xlink:href="#SVGID_81_"  overflow="visible"/>
	</clipPath>
	<path clip-path="url(#SVGID_2_)" fill="#0046F9" d="M65.862,853.543v24.654l329.619-5.342c-21.778,27.119-41.5,62.456-41.5,98.204
		l0.409,0.82c34.105-46.841,85.056-85.055,139.704-105.188v-1.233c-55.47-20.134-103.956-57.524-139.704-104.777l-0.409,0.41
		c0.82,33.693,17.257,75.604,41.5,97.793L65.862,853.543z"/>
	<path clip-path="url(#SVGID_2_)" fill="#231F20" d="M119.033,269.667c10.667,0,24.891-1.423,36.27-11.379
		c11.379-9.957,20.624-29.159,20.624-66.14c0-36.981-9.245-56.895-20.624-66.852c-11.379-9.955-25.603-10.668-36.27-10.668V269.667z
		 M179.483,561.25l-39.826-220.466h-20.624V561.25H42.225V38.533h76.808c91.742,0,130.857,51.916,130.857,150.77
		c0,51.916-13.513,98.854-42.671,118.768l49.071,253.18H179.483z"/>
</g>
<line fill="none" stroke="#0046F9" stroke-width="2" x1="303" y1="170.844" x2="539.5" y2="170.844"/>
<line fill="none" stroke="#0046F9" stroke-width="2" x1="282" y1="26.25" x2="282" y2="581.25"/>
<g>
	<defs>
		<rect id="SVGID_83_" width="564" height="1002"/>
	</defs>
	<clipPath id="SVGID_4_">
		<use xlink:href="#SVGID_83_"  overflow="visible"/>
	</clipPath>
	<polygon clip-path="url(#SVGID_4_)" fill="none" stroke="#0046F9" stroke-width="1.998" points="0.999,3 0.999,999 0.999,1001.002 
		3,1001.002 561,1001.002 563.001,1001.002 563.001,999 563.001,3 563.001,0.998 561,0.998 3,0.998 0.999,0.998 	"/>
</g>
<rect x="5.001" y="5.002" fill="none" stroke="#0046F9" stroke-width="1.998" width="553.998" height="991.996"/>
<g>
	<defs>
		<rect id="SVGID_85_" width="564" height="1002"/>
	</defs>
	<clipPath id="SVGID_6_">
		<use xlink:href="#SVGID_85_"  overflow="visible"/>
	</clipPath>
	<path clip-path="url(#SVGID_6_)" fill="#0046F9" d="M534.111,76.525V59.92c0-7.965-2.564-20.115-13.364-20.115
		c-10.125,0-13.365,11.205-13.365,20.115v61.155c0,7.021,2.295,20.114,12.285,20.114c2.43,0,6.21-2.295,7.425-4.725l1.215,3.645
		h5.805V90.7h-12.824v12.284h2.43v19.306c0,2.431-0.27,5.94-2.7,5.94c-1.62,0-2.295-2.836-2.295-5.94V59.92
		c0-2.43,0.54-5.939,2.025-5.939c1.89,0,2.16,3.914,2.16,5.939v16.605H534.111z M487.941,140.109h9.45V40.885h-10.395V87.73
		l-8.101-46.846h-9.449v99.225h10.395V91.915L487.941,140.109z M447.442,140.109h11.205V40.885h-11.205V140.109z M421.794,55.465
		c1.62,0.135,3.645-0.27,4.05,3.24c0.675,6.075,0.405,15.66,0.405,36.045v23.221c0,7.965-2.7,7.56-4.455,7.56V55.465z
		 M421.389,140.109c8.91,0,12.15-3.51,13.905-8.774c2.024-5.94,2.024-21.33,2.024-40.771c0-19.439-0.27-31.859-2.564-39.42
		c-2.43-7.56-5.94-10.26-14.851-10.26h-9.314v99.225H421.389z M388.854,104.471h-4.185l2.024-39.421L388.854,104.471z
		 M382.104,140.109l1.485-20.25h6.21l1.485,20.25h10.935l-8.91-99.225h-13.095l-9.045,99.225H382.104z M342.011,140.109h22.41
		v-14.984h-11.205v-27.27h8.1V81.925h-8.1V55.87h11.205V40.885h-22.41V140.109z M317.172,55.33c0.675,0,2.16-0.135,3.104,1.35
		c1.08,1.62,1.216,6.075,1.216,13.365c0,7.155-0.136,12.15-1.351,13.905c-0.675,1.08-2.024,1.485-2.97,1.485V55.33z
		 M333.912,140.109l-6.886-48.06c3.511-4.185,5.131-13.095,5.131-22.545c0-18.765-4.32-28.62-14.851-28.62h-11.34v99.225h11.205
		V96.91l5.805,43.199H333.912z"/>
	<path clip-path="url(#SVGID_6_)" fill="#231F20" d="M395.367,685.056c-1.21,0.87-1.814,2.085-1.814,3.645
		c0,1.04,0.279,1.875,0.84,2.506c0.56,0.63,1.32,1.194,2.28,1.694c0.38,0.2,0.904,0.42,1.574,0.66
		c0.671,0.24,1.146,0.455,1.426,0.646c0.279,0.189,0.42,0.454,0.42,0.795c0,0.739-0.55,1.109-1.65,1.109
		c-0.5,0-1.09-0.165-1.77-0.495c-0.681-0.33-1.15-0.59-1.41-0.779c-0.26-0.19-0.47-0.355-0.63-0.495l-2.16,3.63l0.66,0.54
		c0.439,0.34,1.154,0.68,2.145,1.02c0.99,0.341,2.035,0.511,3.135,0.511c4.86,0,7.29-1.75,7.29-5.25c0-0.74-0.14-1.4-0.42-1.98
		c-0.279-0.58-0.675-1.06-1.185-1.439c-0.51-0.381-0.995-0.681-1.455-0.9s-1-0.42-1.62-0.6c-0.1-0.021-0.245-0.061-0.435-0.12
		c-0.19-0.061-0.325-0.105-0.405-0.136c-0.08-0.029-0.2-0.074-0.36-0.135c-0.16-0.06-0.274-0.104-0.345-0.135
		s-0.165-0.075-0.285-0.135c-0.12-0.061-0.205-0.115-0.255-0.165s-0.105-0.11-0.165-0.181c-0.06-0.069-0.1-0.145-0.12-0.225
		c-0.02-0.08-0.03-0.16-0.03-0.24c0-0.359,0.125-0.604,0.375-0.734c0.25-0.131,0.676-0.195,1.275-0.195c1.08,0,2.22,0.32,3.42,0.96
		l1.74-3.48l-0.63-0.3c-0.42-0.2-1.061-0.399-1.92-0.6c-0.86-0.2-1.73-0.3-2.61-0.3
		C398.213,683.751,396.577,684.186,395.367,685.056 M379.812,687.891c0.52-0.46,1.22-0.69,2.1-0.69c0.801,0,1.455,0.216,1.966,0.646
		c0.51,0.43,0.824,1.045,0.944,1.845h-5.85C379.013,688.95,379.293,688.351,379.812,687.891 M390.013,691.91
		c0-2.619-0.766-4.635-2.295-6.045c-1.53-1.409-3.516-2.114-5.955-2.114c-2.32,0-4.311,0.8-5.97,2.399
		c-1.66,1.601-2.49,3.521-2.49,5.76c0,2.24,0.83,4.155,2.49,5.745c1.659,1.591,3.649,2.386,5.97,2.386
		c3.72,0,6.38-1.341,7.979-4.021l-3.84-1.92c-0.64,0.68-1.21,1.135-1.71,1.365c-0.5,0.229-1.18,0.345-2.04,0.345
		c-0.82,0-1.58-0.26-2.28-0.78c-0.699-0.52-1.05-1.319-1.05-2.399h11.16C390.003,692.511,390.013,692.271,390.013,691.91
		 M369.253,688.82l1.8-3.63l-0.51-0.359c-0.36-0.24-0.971-0.48-1.83-0.721c-0.86-0.239-1.801-0.359-2.82-0.359
		c-2.26,0-4.245,0.805-5.955,2.415c-1.71,1.609-2.565,3.534-2.565,5.774c0,2.22,0.855,4.125,2.565,5.715
		c1.71,1.591,3.695,2.386,5.955,2.386c1.02,0,1.975-0.131,2.865-0.391c0.89-0.26,1.46-0.465,1.71-0.615
		c0.25-0.149,0.444-0.274,0.585-0.375l-1.8-3.689l-0.271,0.18c-0.2,0.12-0.515,0.24-0.945,0.36c-0.43,0.12-0.885,0.18-1.364,0.18
		c-1,0-1.86-0.37-2.58-1.109c-0.721-0.74-1.08-1.641-1.08-2.7c0-1.04,0.359-1.931,1.08-2.67c0.72-0.74,1.58-1.11,2.58-1.11
		C367.732,688.101,368.593,688.341,369.253,688.82 M342.763,699.591v-8.7c0-0.76,0.325-1.45,0.975-2.07
		c0.65-0.62,1.375-0.93,2.175-0.93c0.82,0,1.485,0.3,1.995,0.9c0.511,0.6,0.766,1.3,0.766,2.1v8.7h5.31V689.45
		c0-1.02-0.215-1.915-0.645-2.685c-0.431-0.77-0.99-1.365-1.681-1.785c-0.689-0.42-1.41-0.729-2.16-0.93s-1.505-0.3-2.265-0.3
		c-1.56,0-3.03,0.689-4.41,2.069h-0.06v-1.62h-5.311v15.391H342.763z M323.622,687.891c0.521-0.46,1.221-0.69,2.101-0.69
		c0.8,0,1.455,0.216,1.965,0.646s0.825,1.045,0.945,1.845h-5.851C322.822,688.95,323.103,688.351,323.622,687.891 M333.822,691.91
		c0-2.619-0.765-4.635-2.295-6.045c-1.53-1.409-3.515-2.114-5.955-2.114c-2.319,0-4.31,0.8-5.97,2.399
		c-1.66,1.601-2.49,3.521-2.49,5.76c0,2.24,0.83,4.155,2.49,5.745c1.66,1.591,3.65,2.386,5.97,2.386c3.721,0,6.38-1.341,7.98-4.021
		l-3.84-1.92c-0.641,0.68-1.21,1.135-1.71,1.365c-0.5,0.229-1.181,0.345-2.04,0.345c-0.82,0-1.58-0.26-2.28-0.78
		c-0.7-0.52-1.05-1.319-1.05-2.399h11.16C333.812,692.511,333.822,692.271,333.822,691.91 M297.044,684.2v8.61
		c0,2.561,0.663,4.405,1.994,5.535c1.329,1.13,3.444,1.695,6.346,1.695c2.898,0,5.014-0.565,6.345-1.695
		c1.329-1.13,1.995-2.975,1.995-5.535v-8.61h-5.311v7.32c0,1.521-0.23,2.601-0.689,3.24c-0.461,0.64-1.241,0.96-2.34,0.96
		c-1.102,0-1.881-0.32-2.34-0.96c-0.462-0.64-0.69-1.72-0.69-3.24v-7.32H297.044z M283.783,688.28c1.039,0,1.895,0.341,2.565,1.021
		c0.67,0.68,1.005,1.54,1.005,2.58c0,1.06-0.345,1.93-1.035,2.609c-0.689,0.681-1.536,1.021-2.535,1.021
		c-1.02,0-1.875-0.34-2.565-1.021c-0.69-0.68-1.035-1.55-1.035-2.609c0-1.061,0.33-1.925,0.99-2.596
		C281.833,688.615,282.703,688.28,283.783,688.28 M282.193,700.041c2.04,0,3.72-0.641,5.04-1.92v9.27h5.311V684.2h-5.25v1.74h-0.061
		c-1.32-1.46-3-2.189-5.04-2.189c-2.22,0-4.05,0.784-5.49,2.354s-2.16,3.495-2.16,5.775c0,2.279,0.72,4.21,2.16,5.79
		S279.974,700.041,282.193,700.041 M261.764,687.891c0.52-0.46,1.219-0.69,2.1-0.69c0.799,0,1.455,0.216,1.965,0.646
		c0.51,0.43,0.825,1.045,0.945,1.845h-5.85C260.963,688.95,261.243,688.351,261.764,687.891 M271.963,691.91
		c0-2.619-0.765-4.635-2.295-6.045c-1.53-1.409-3.515-2.114-5.955-2.114c-2.321,0-4.31,0.8-5.97,2.399
		c-1.661,1.601-2.49,3.521-2.49,5.76c0,2.24,0.829,4.155,2.49,5.745c1.66,1.591,3.649,2.386,5.97,2.386
		c3.72,0,6.379-1.341,7.98-4.021l-3.84-1.92c-0.641,0.68-1.211,1.135-1.71,1.365c-0.5,0.229-1.181,0.345-2.04,0.345
		c-0.821,0-1.58-0.26-2.28-0.78c-0.701-0.52-1.05-1.319-1.05-2.399h11.16C271.953,692.511,271.963,692.271,271.963,691.91
		 M242.188,685.056c-1.21,0.87-1.815,2.085-1.815,3.645c0,1.04,0.28,1.875,0.84,2.506c0.56,0.63,1.32,1.194,2.28,1.694
		c0.38,0.2,0.905,0.42,1.575,0.66s1.145,0.455,1.425,0.646c0.28,0.189,0.42,0.454,0.42,0.795c0,0.739-0.55,1.109-1.65,1.109
		c-0.5,0-1.09-0.165-1.77-0.495c-0.68-0.33-1.15-0.59-1.41-0.779c-0.26-0.19-0.47-0.355-0.63-0.495l-2.16,3.63l0.66,0.54
		c0.44,0.34,1.155,0.68,2.145,1.02c0.99,0.341,2.035,0.511,3.135,0.511c4.86,0,7.29-1.75,7.29-5.25c0-0.74-0.14-1.4-0.42-1.98
		c-0.28-0.58-0.675-1.06-1.185-1.439c-0.51-0.381-0.995-0.681-1.455-0.9s-1-0.42-1.62-0.6c-0.1-0.021-0.245-0.061-0.435-0.12
		c-0.19-0.061-0.325-0.105-0.405-0.136c-0.08-0.029-0.2-0.074-0.36-0.135c-0.16-0.06-0.275-0.104-0.345-0.135
		c-0.07-0.03-0.165-0.075-0.285-0.135c-0.12-0.061-0.205-0.115-0.255-0.165c-0.05-0.05-0.105-0.11-0.165-0.181
		c-0.06-0.069-0.1-0.145-0.12-0.225s-0.03-0.16-0.03-0.24c0-0.359,0.125-0.604,0.375-0.734c0.25-0.131,0.675-0.195,1.275-0.195
		c1.08,0,2.22,0.32,3.42,0.96l1.74-3.48l-0.63-0.3c-0.42-0.2-1.06-0.399-1.92-0.6c-0.86-0.2-1.73-0.3-2.61-0.3
		C245.034,683.751,243.398,684.186,242.188,685.056 M216.645,684.2v4.051h2.22v5.909c0,0.74,0.079,1.436,0.24,2.086
		c0.159,0.649,0.424,1.27,0.795,1.859c0.369,0.59,0.915,1.061,1.635,1.41c0.72,0.35,1.579,0.525,2.58,0.525
		c1.459,0,2.76-0.32,3.9-0.96l-1.32-4.29l-0.18,0.119c-0.12,0.08-0.291,0.16-0.51,0.24c-0.221,0.08-0.431,0.12-0.63,0.12
		c-0.801,0-1.2-0.71-1.2-2.13v-4.89h3.24V684.2h-3.24v-5.729h-5.31v5.729H216.645z M202.424,699.591v-8.7
		c0-0.76,0.324-1.45,0.975-2.07c0.649-0.62,1.374-0.93,2.175-0.93c0.819,0,1.485,0.3,1.995,0.9c0.51,0.6,0.765,1.3,0.765,2.1v8.7
		h5.31V689.45c0-1.02-0.216-1.915-0.645-2.685c-0.431-0.77-0.99-1.365-1.68-1.785s-1.41-0.729-2.16-0.93s-1.506-0.3-2.265-0.3
		c-1.56,0-3.03,0.689-4.41,2.069h-0.06v-1.62h-5.31v15.391H202.424z M183.285,687.891c0.52-0.46,1.219-0.69,2.1-0.69
		c0.799,0,1.455,0.216,1.965,0.646c0.51,0.43,0.825,1.045,0.945,1.845h-5.85C182.484,688.95,182.764,688.351,183.285,687.891
		 M193.484,691.91c0-2.619-0.765-4.635-2.295-6.045c-1.53-1.409-3.515-2.114-5.955-2.114c-2.321,0-4.31,0.8-5.97,2.399
		c-1.661,1.601-2.49,3.521-2.49,5.76c0,2.24,0.829,4.155,2.49,5.745c1.66,1.591,3.649,2.386,5.97,2.386
		c3.72,0,6.379-1.341,7.98-4.021l-3.84-1.92c-0.641,0.68-1.211,1.135-1.71,1.365c-0.5,0.229-1.181,0.345-2.04,0.345
		c-0.821,0-1.58-0.26-2.28-0.78c-0.701-0.52-1.05-1.319-1.05-2.399h11.16C193.474,692.511,193.484,692.271,193.484,691.91
		 M167.234,699.591v-8.101c0-0.159,0.04-0.38,0.12-0.659c0.08-0.28,0.215-0.62,0.405-1.021c0.19-0.4,0.515-0.74,0.975-1.02
		c0.46-0.28,1.01-0.42,1.65-0.42c1.18,0,2.1,0.279,2.76,0.84l2.22-4.5l-0.42-0.24c-0.26-0.16-0.67-0.32-1.23-0.48
		c-0.56-0.159-1.13-0.239-1.71-0.239c-0.56,0-1.11,0.095-1.65,0.284c-0.54,0.19-0.98,0.405-1.32,0.646
		c-0.34,0.24-0.66,0.51-0.96,0.81c-0.3,0.301-0.495,0.511-0.585,0.631c-0.09,0.119-0.155,0.22-0.195,0.3h-0.06V684.2h-5.31v15.391
		H167.234z M148.095,687.891c0.52-0.46,1.22-0.69,2.1-0.69c0.8,0,1.455,0.216,1.965,0.646c0.51,0.43,0.825,1.045,0.945,1.845h-5.85
		C147.294,688.95,147.575,688.351,148.095,687.891 M158.294,691.91c0-2.619-0.765-4.635-2.295-6.045
		c-1.53-1.409-3.515-2.114-5.955-2.114c-2.32,0-4.31,0.8-5.97,2.399c-1.66,1.601-2.49,3.521-2.49,5.76c0,2.24,0.83,4.155,2.49,5.745
		c1.66,1.591,3.65,2.386,5.97,2.386c3.72,0,6.38-1.341,7.98-4.021l-3.84-1.92c-0.64,0.68-1.21,1.135-1.71,1.365
		c-0.5,0.229-1.18,0.345-2.04,0.345c-0.82,0-1.58-0.26-2.28-0.78c-0.7-0.52-1.05-1.319-1.05-2.399h11.16
		C158.285,692.511,158.294,692.271,158.294,691.91 M128.924,684.2v4.051h2.22v11.34h5.31v-11.34h3.54V684.2h-3.54v-3.119
		c0-1.12,0.11-1.905,0.33-2.355c0.22-0.45,0.66-0.675,1.32-0.675c0.58,0,1.11,0.14,1.59,0.42l1.86-3.75l-0.51-0.33
		c-0.32-0.24-0.845-0.475-1.575-0.705c-0.73-0.229-1.495-0.345-2.295-0.345c-1.88,0-3.35,0.689-4.41,2.069
		c-1.06,1.381-1.6,3.221-1.62,5.521v3.27H128.924z M116.654,684.2v4.051h2.22v11.34h5.31v-11.34h3.54V684.2h-3.54v-3.119
		c0-1.12,0.11-1.905,0.33-2.355c0.22-0.45,0.66-0.675,1.32-0.675c0.58,0,1.11,0.14,1.59,0.42l1.86-3.75l-0.51-0.33
		c-0.32-0.24-0.845-0.475-1.575-0.705c-0.73-0.229-1.495-0.345-2.295-0.345c-1.88,0-3.35,0.689-4.41,2.069
		c-1.06,1.381-1.6,3.221-1.62,5.521v3.27H116.654z M113.024,699.591h-5.31V684.2h5.31V699.591z M107.294,677.841
		c0,0.859,0.31,1.6,0.93,2.22s1.36,0.93,2.22,0.93c0.86,0,1.6-0.31,2.22-0.93s0.93-1.36,0.93-2.22c0-0.86-0.31-1.601-0.93-2.22
		c-0.62-0.62-1.36-0.931-2.22-0.931c-0.86,0-1.6,0.311-2.22,0.931C107.604,676.24,107.294,676.98,107.294,677.841 M94.154,688.28
		c1,0,1.845,0.341,2.535,1.021s1.035,1.55,1.035,2.609c0,1.04-0.335,1.9-1.005,2.58c-0.67,0.681-1.525,1.021-2.565,1.021
		c-1.08,0-1.95-0.335-2.61-1.005s-0.99-1.535-0.99-2.596c0-1.06,0.345-1.93,1.035-2.609S93.134,688.28,94.154,688.28
		 M92.564,700.041c2.04,0,3.72-0.73,5.04-2.19h0.06v1.74h5.25v-25.8h-5.31v11.88c-1.32-1.28-3-1.92-5.04-1.92
		c-2.22,0-4.05,0.79-5.49,2.37c-1.44,1.579-2.16,3.51-2.16,5.789c0,2.28,0.72,4.205,2.16,5.775
		C88.515,699.256,90.345,700.041,92.564,700.041 M63.735,688.28c1,0,1.845,0.341,2.535,1.021s1.035,1.55,1.035,2.609
		c0,1.04-0.335,1.9-1.005,2.58c-0.671,0.681-1.526,1.021-2.565,1.021c-1.08,0-1.95-0.335-2.61-1.005s-0.99-1.535-0.99-2.596
		c0-1.06,0.345-1.93,1.035-2.609S62.715,688.28,63.735,688.28 M63.766,700.041c2.659,0,4.855-0.766,6.585-2.295
		c1.729-1.53,2.595-3.476,2.595-5.836c0-2.359-0.885-4.31-2.655-5.85s-3.945-2.31-6.525-2.31c-2.621,0-4.82,0.765-6.6,2.295
		c-1.781,1.529-2.67,3.484-2.67,5.864c0,2.381,0.855,4.33,2.565,5.851C58.771,699.28,61.005,700.041,63.766,700.041 M41.235,684.2
		v4.051h2.22v5.909c0,0.74,0.08,1.436,0.24,2.086c0.16,0.649,0.425,1.27,0.795,1.859c0.37,0.59,0.915,1.061,1.635,1.41
		s1.58,0.525,2.58,0.525c1.46,0,2.76-0.32,3.9-0.96l-1.32-4.29l-0.18,0.119c-0.12,0.08-0.29,0.16-0.51,0.24
		c-0.22,0.08-0.43,0.12-0.63,0.12c-0.8,0-1.2-0.71-1.2-2.13v-4.89h3.24V684.2h-3.24v-5.729h-5.31v5.729H41.235z"/>
	<path clip-path="url(#SVGID_6_)" fill="#231F20" d="M501.522,641.28c1,0,1.845,0.341,2.535,1.021
		c0.689,0.68,1.035,1.55,1.035,2.609c0,1.04-0.335,1.9-1.005,2.58c-0.672,0.681-1.526,1.021-2.565,1.021
		c-1.08,0-1.95-0.335-2.61-1.005c-0.659-0.67-0.989-1.535-0.989-2.596c0-1.06,0.345-1.93,1.034-2.609
		C499.647,641.621,500.503,641.28,501.522,641.28 M501.223,660.841c2.719,0,4.909-0.681,6.57-2.04c1.659-1.36,2.489-3.29,2.489-5.79
		V637.2h-5.31v1.381h-0.09c-1.32-1.221-2.971-1.83-4.95-1.83c-2.22,0-4.05,0.79-5.49,2.37c-1.439,1.579-2.16,3.51-2.16,5.789
		c0,2.28,0.721,4.205,2.16,5.775c1.44,1.57,3.271,2.355,5.49,2.355c2.419,0,4.1-0.521,5.04-1.561v1.141
		c0,1.22-0.396,2.125-1.186,2.715c-0.791,0.59-1.646,0.885-2.564,0.885c-1.98,0-3.371-0.66-4.17-1.98l-4.351,2.131
		C493.981,659.351,496.822,660.841,501.223,660.841 M477.673,652.591v-8.7c0-0.76,0.324-1.45,0.975-2.07s1.375-0.93,2.175-0.93
		c0.82,0,1.485,0.3,1.995,0.9c0.51,0.6,0.765,1.3,0.765,2.1v8.7h5.311V642.45c0-1.02-0.215-1.915-0.646-2.685
		c-0.43-0.77-0.989-1.365-1.68-1.785c-0.689-0.42-1.41-0.729-2.16-0.93s-1.505-0.3-2.265-0.3c-1.561,0-3.03,0.689-4.41,2.069h-0.06
		v-1.62h-5.311v15.391H477.673z M467.412,652.591h-5.31V637.2h5.31V652.591z M461.683,630.841c0,0.859,0.31,1.6,0.93,2.22
		s1.36,0.93,2.22,0.93c0.86,0,1.601-0.31,2.221-0.93s0.93-1.36,0.93-2.22c0-0.86-0.31-1.601-0.93-2.22
		c-0.62-0.62-1.36-0.931-2.221-0.931c-0.859,0-1.6,0.311-2.22,0.931C461.992,629.24,461.683,629.98,461.683,630.841 M448.543,641.28
		c1,0,1.845,0.341,2.534,1.021c0.69,0.68,1.035,1.55,1.035,2.609c0,1.04-0.335,1.9-1.005,2.58c-0.67,0.681-1.525,1.021-2.564,1.021
		c-1.08,0-1.95-0.335-2.61-1.005s-0.99-1.535-0.99-2.596c0-1.06,0.345-1.93,1.035-2.609S447.522,641.28,448.543,641.28
		 M446.952,653.041c2.04,0,3.721-0.73,5.04-2.19h0.061v1.74h5.25v-25.8h-5.311v11.88c-1.319-1.28-3-1.92-5.04-1.92
		c-2.22,0-4.05,0.79-5.489,2.37c-1.44,1.579-2.16,3.51-2.16,5.789c0,2.28,0.72,4.205,2.16,5.775
		C442.902,652.256,444.732,653.041,446.952,653.041 M429.584,652.591v-8.101c0-0.159,0.039-0.38,0.119-0.659
		c0.079-0.28,0.215-0.62,0.405-1.021s0.515-0.74,0.976-1.02c0.46-0.28,1.009-0.42,1.649-0.42c1.18,0,2.101,0.279,2.76,0.84
		l2.221-4.5l-0.42-0.24c-0.261-0.16-0.671-0.32-1.23-0.48c-0.56-0.159-1.13-0.239-1.71-0.239c-0.56,0-1.11,0.095-1.65,0.284
		c-0.54,0.19-0.979,0.405-1.319,0.646c-0.341,0.24-0.66,0.51-0.96,0.81c-0.301,0.301-0.495,0.511-0.585,0.631
		c-0.091,0.119-0.155,0.22-0.195,0.3h-0.06V637.2h-5.311v15.391H429.584z M411.434,641.28c1,0,1.845,0.341,2.535,1.021
		c0.689,0.68,1.035,1.55,1.035,2.609c0,1.04-0.335,1.9-1.006,2.58c-0.67,0.681-1.524,1.021-2.564,1.021
		c-1.08,0-1.95-0.335-2.61-1.005s-0.989-1.535-0.989-2.596c0-1.06,0.345-1.93,1.034-2.609
		C409.559,641.621,410.413,641.28,411.434,641.28 M411.464,653.041c2.659,0,4.854-0.766,6.585-2.295
		c1.729-1.53,2.595-3.476,2.595-5.836c0-2.359-0.885-4.31-2.655-5.85c-1.77-1.54-3.944-2.31-6.524-2.31
		c-2.62,0-4.82,0.765-6.601,2.295c-1.779,1.529-2.67,3.484-2.67,5.864c0,2.381,0.855,4.33,2.565,5.851
		C406.469,652.28,408.703,653.041,411.464,653.041 M398.144,641.82l1.8-3.63l-0.51-0.359c-0.36-0.24-0.97-0.48-1.83-0.721
		c-0.86-0.239-1.8-0.359-2.82-0.359c-2.26,0-4.245,0.805-5.955,2.415c-1.71,1.609-2.564,3.534-2.564,5.774
		c0,2.22,0.854,4.125,2.564,5.715c1.71,1.591,3.695,2.386,5.955,2.386c1.021,0,1.976-0.131,2.865-0.391s1.46-0.465,1.71-0.615
		c0.25-0.149,0.445-0.274,0.585-0.375l-1.8-3.689l-0.271,0.18c-0.199,0.12-0.515,0.24-0.944,0.36c-0.431,0.12-0.885,0.18-1.365,0.18
		c-1,0-1.86-0.37-2.58-1.109c-0.72-0.74-1.08-1.641-1.08-2.7c0-1.04,0.36-1.931,1.08-2.67c0.72-0.74,1.58-1.11,2.58-1.11
		C396.623,641.101,397.483,641.341,398.144,641.82 M382.214,641.82l1.8-3.63l-0.51-0.359c-0.36-0.24-0.971-0.48-1.83-0.721
		c-0.86-0.239-1.801-0.359-2.82-0.359c-2.26,0-4.245,0.805-5.955,2.415c-1.71,1.609-2.564,3.534-2.564,5.774
		c0,2.22,0.854,4.125,2.564,5.715c1.71,1.591,3.695,2.386,5.955,2.386c1.02,0,1.975-0.131,2.865-0.391
		c0.89-0.26,1.46-0.465,1.71-0.615c0.25-0.149,0.444-0.274,0.585-0.375l-1.8-3.689l-0.271,0.18c-0.2,0.12-0.515,0.24-0.945,0.36
		c-0.43,0.12-0.885,0.18-1.364,0.18c-1,0-1.86-0.37-2.58-1.109c-0.72-0.74-1.08-1.641-1.08-2.7c0-1.04,0.36-1.931,1.08-2.67
		c0.72-0.74,1.58-1.11,2.58-1.11C380.693,641.101,381.554,641.341,382.214,641.82 M357.884,641.28c1,0,1.845,0.341,2.535,1.021
		c0.689,0.68,1.034,1.55,1.034,2.609c0,1.04-0.335,1.9-1.005,2.58c-0.67,0.681-1.524,1.021-2.564,1.021
		c-1.08,0-1.95-0.335-2.61-1.005s-0.99-1.535-0.99-2.596c0-1.06,0.346-1.93,1.035-2.609
		C356.009,641.621,356.863,641.28,357.884,641.28 M356.294,653.041c2.04,0,3.72-0.73,5.04-2.19h0.06v1.74h5.25V637.2h-5.31v1.471
		c-1.32-1.28-3-1.92-5.04-1.92c-2.221,0-4.051,0.79-5.49,2.37c-1.44,1.579-2.16,3.51-2.16,5.789c0,2.28,0.72,4.205,2.16,5.775
		C352.243,652.256,354.073,653.041,356.294,653.041 M330.464,637.2l-5.37,5.37v-15.779h-5.311v25.8h5.311v-6.15l6.149,6.15h6.841
		l-8.04-8.04l7.319-7.351H330.464z M308.954,652.591v-8.101c0-0.159,0.04-0.38,0.12-0.659c0.079-0.28,0.214-0.62,0.405-1.021
		c0.19-0.4,0.514-0.74,0.975-1.02c0.46-0.28,1.01-0.42,1.65-0.42c1.18,0,2.1,0.279,2.76,0.84l2.22-4.5l-0.42-0.24
		c-0.26-0.16-0.671-0.32-1.229-0.48c-0.561-0.159-1.13-0.239-1.71-0.239c-0.561,0-1.11,0.095-1.65,0.284
		c-0.54,0.19-0.979,0.405-1.319,0.646c-0.342,0.24-0.66,0.51-0.96,0.81c-0.301,0.301-0.495,0.511-0.586,0.631
		c-0.09,0.119-0.154,0.22-0.194,0.3h-0.061V637.2h-5.31v15.391H308.954z M290.805,641.28c1,0,1.845,0.341,2.535,1.021
		c0.689,0.68,1.034,1.55,1.034,2.609c0,1.04-0.335,1.9-1.005,2.58c-0.67,0.681-1.524,1.021-2.564,1.021
		c-1.08,0-1.95-0.335-2.61-1.005s-0.99-1.535-0.99-2.596c0-1.06,0.346-1.93,1.035-2.609
		C288.93,641.621,289.784,641.28,290.805,641.28 M290.835,653.041c2.659,0,4.854-0.766,6.585-2.295
		c1.729-1.53,2.595-3.476,2.595-5.836c0-2.359-0.885-4.31-2.655-5.85c-1.77-1.54-3.945-2.31-6.524-2.31
		c-2.62,0-4.82,0.765-6.601,2.295c-1.78,1.529-2.67,3.484-2.67,5.864c0,2.381,0.855,4.33,2.565,5.851
		C285.84,652.28,288.074,653.041,290.835,653.041 M264.975,644.641l3.54,7.95h3.6l8.25-15.391h-6.12l-3.75,8.311l-3.69-8.311h-3.66
		l-3.69,8.311l-3.75-8.311h-6.12l8.25,15.391h3.6L264.975,644.641z M228.884,640.891c0.52-0.46,1.22-0.69,2.1-0.69
		c0.8,0,1.455,0.216,1.965,0.646c0.51,0.43,0.825,1.045,0.945,1.845h-5.85C228.084,641.95,228.364,641.351,228.884,640.891
		 M239.084,644.91c0-2.619-0.765-4.635-2.295-6.045c-1.53-1.409-3.515-2.114-5.955-2.114c-2.32,0-4.31,0.8-5.97,2.399
		c-1.66,1.601-2.49,3.521-2.49,5.76c0,2.24,0.83,4.155,2.49,5.745c1.66,1.591,3.65,2.386,5.97,2.386c3.72,0,6.38-1.341,7.98-4.021
		l-3.84-1.92c-0.64,0.68-1.21,1.135-1.71,1.365c-0.5,0.229-1.18,0.345-2.04,0.345c-0.82,0-1.58-0.26-2.28-0.78
		c-0.7-0.52-1.05-1.319-1.05-2.399h11.16C239.075,645.511,239.084,645.271,239.084,644.91 M207.765,652.591v-8.7
		c0-0.76,0.325-1.45,0.975-2.07c0.65-0.62,1.375-0.93,2.175-0.93c0.82,0,1.485,0.3,1.995,0.9c0.51,0.6,0.765,1.3,0.765,2.1v8.7h5.31
		V642.45c0-1.02-0.215-1.915-0.645-2.685c-0.43-0.77-0.99-1.365-1.68-1.785s-1.41-0.729-2.16-0.93s-1.505-0.3-2.265-0.3
		c-1.56,0-3.03,0.689-4.41,2.069h-0.06v-12.029h-5.31v25.8H207.765z M188.084,637.2v4.051h2.22v5.909c0,0.74,0.08,1.436,0.24,2.086
		c0.16,0.649,0.425,1.27,0.795,1.859c0.37,0.59,0.915,1.061,1.635,1.41c0.72,0.35,1.58,0.525,2.58,0.525c1.46,0,2.76-0.32,3.9-0.96
		l-1.32-4.29l-0.18,0.119c-0.12,0.08-0.29,0.16-0.51,0.24c-0.22,0.08-0.43,0.12-0.63,0.12c-0.8,0-1.2-0.71-1.2-2.13v-4.89h3.24
		V637.2h-3.24v-5.729h-5.31v5.729H188.084z M166.456,641.28c0.999,0,1.845,0.341,2.535,1.021c0.69,0.68,1.035,1.55,1.035,2.609
		c0,1.04-0.336,1.9-1.005,2.58c-0.671,0.681-1.526,1.021-2.565,1.021c-1.08,0-1.95-0.335-2.61-1.005
		c-0.66-0.67-0.99-1.535-0.99-2.596c0-1.06,0.345-1.93,1.035-2.609S165.436,641.28,166.456,641.28 M166.155,660.841
		c2.719,0,4.909-0.681,6.57-2.04c1.659-1.36,2.49-3.29,2.49-5.79V637.2h-5.31v1.381h-0.09c-1.32-1.221-2.97-1.83-4.95-1.83
		c-2.22,0-4.05,0.79-5.49,2.37c-1.44,1.579-2.16,3.51-2.16,5.789c0,2.28,0.72,4.205,2.16,5.775s3.27,2.355,5.49,2.355
		c2.419,0,4.099-0.521,5.04-1.561v1.141c0,1.22-0.396,2.125-1.185,2.715c-0.791,0.59-1.646,0.885-2.565,0.885
		c-1.98,0-3.371-0.66-4.17-1.98l-4.35,2.131C158.915,659.351,161.754,660.841,166.155,660.841 M142.605,652.591v-8.7
		c0-0.76,0.325-1.45,0.975-2.07c0.649-0.62,1.375-0.93,2.175-0.93c0.82,0,1.485,0.3,1.995,0.9c0.51,0.6,0.765,1.3,0.765,2.1v8.7
		h5.31V642.45c0-1.02-0.215-1.915-0.645-2.685c-0.431-0.77-0.99-1.365-1.68-1.785s-1.41-0.729-2.16-0.93s-1.505-0.3-2.265-0.3
		c-1.56,0-3.03,0.689-4.41,2.069h-0.06v-1.62h-5.31v15.391H142.605z M132.346,652.591h-5.31V637.2h5.31V652.591z M126.616,630.841
		c0,0.859,0.31,1.6,0.93,2.22s1.36,0.93,2.22,0.93c0.86,0,1.6-0.31,2.22-0.93c0.62-0.62,0.93-1.36,0.93-2.22
		c0-0.86-0.31-1.601-0.93-2.22c-0.62-0.62-1.36-0.931-2.22-0.931c-0.86,0-1.6,0.311-2.22,0.931
		C126.925,629.24,126.616,629.98,126.616,630.841 M113.476,641.28c1,0,1.845,0.341,2.535,1.021c0.69,0.68,1.035,1.55,1.035,2.609
		c0,1.04-0.335,1.9-1.005,2.58c-0.67,0.681-1.525,1.021-2.565,1.021c-1.08,0-1.95-0.335-2.61-1.005
		c-0.66-0.67-0.99-1.535-0.99-2.596c0-1.06,0.345-1.93,1.035-2.609S112.456,641.28,113.476,641.28 M111.886,653.041
		c2.04,0,3.72-0.73,5.04-2.19h0.06v1.74h5.25v-25.8h-5.31v11.88c-1.32-1.28-3-1.92-5.04-1.92c-2.22,0-4.05,0.79-5.49,2.37
		c-1.44,1.579-2.16,3.51-2.16,5.789c0,2.28,0.72,4.205,2.16,5.775S109.666,653.041,111.886,653.041 M91.786,641.28
		c1,0,1.845,0.341,2.535,1.021c0.69,0.68,1.035,1.55,1.035,2.609c0,1.04-0.335,1.9-1.005,2.58c-0.67,0.681-1.525,1.021-2.565,1.021
		c-1.08,0-1.95-0.335-2.61-1.005c-0.66-0.67-0.99-1.535-0.99-2.596c0-1.06,0.345-1.93,1.035-2.609
		C89.911,641.621,90.766,641.28,91.786,641.28 M90.195,653.041c2.04,0,3.72-0.73,5.04-2.19h0.06v1.74h5.25V637.2h-5.31v1.471
		c-1.32-1.28-3-1.92-5.04-1.92c-2.22,0-4.05,0.79-5.49,2.37c-1.44,1.579-2.16,3.51-2.16,5.789c0,2.28,0.72,4.205,2.16,5.775
		S87.976,653.041,90.195,653.041 M69.916,640.891c0.52-0.46,1.22-0.69,2.1-0.69c0.8,0,1.455,0.216,1.965,0.646
		c0.51,0.43,0.825,1.045,0.945,1.845h-5.85C69.116,641.95,69.396,641.351,69.916,640.891 M80.116,644.91
		c0-2.619-0.765-4.635-2.295-6.045c-1.53-1.409-3.515-2.114-5.955-2.114c-2.32,0-4.31,0.8-5.97,2.399
		c-1.66,1.601-2.49,3.521-2.49,5.76c0,2.24,0.83,4.155,2.49,5.745c1.66,1.591,3.65,2.386,5.97,2.386c3.72,0,6.38-1.341,7.98-4.021
		l-3.84-1.92c-0.64,0.68-1.21,1.135-1.71,1.365c-0.5,0.229-1.18,0.345-2.04,0.345c-0.82,0-1.58-0.26-2.28-0.78
		c-0.7-0.52-1.05-1.319-1.05-2.399h11.16C80.105,645.511,80.116,645.271,80.116,644.91 M48.195,632.341h0.66
		c0.52,0,0.96,0.01,1.32,0.03c0.36,0.02,0.77,0.09,1.23,0.21c0.46,0.119,0.83,0.29,1.11,0.51c0.28,0.22,0.52,0.54,0.72,0.96
		c0.2,0.42,0.3,0.93,0.3,1.53c0,0.6-0.1,1.109-0.3,1.529c-0.2,0.42-0.44,0.74-0.72,0.96c-0.28,0.221-0.65,0.391-1.11,0.511
		c-0.46,0.119-0.87,0.189-1.23,0.21c-0.36,0.02-0.8,0.029-1.32,0.029h-0.66V632.341z M42.556,652.591h5.64v-9.78l7.56,9.78h7.17
		l-8.52-10.23c1.56-0.5,2.795-1.364,3.705-2.595c0.91-1.23,1.365-2.755,1.365-4.575c0-2.359-0.75-4.175-2.25-5.444
		c-1.5-1.271-3.44-1.905-5.82-1.905h-8.85V652.591z"/>
</g>
<line fill="none" stroke="#0046F9" stroke-width="2" x1="26.5" y1="601.67" x2="539.5" y2="601.67"/>
<line fill="none" stroke="#0046F9" stroke-width="2" x1="26.5" y1="730.264" x2="539.5" y2="730.264"/>
<g>
	<defs>
		<rect id="SVGID_87_" width="564" height="1002"/>
	</defs>
	<clipPath id="SVGID_8_">
		<use xlink:href="#SVGID_87_"  overflow="visible"/>
	</clipPath>
	<path clip-path="url(#SVGID_8_)" fill="#231F20" d="M464.66,506.882h51.43v54.368h-51.43V506.882z M314.782,279.122v-33.798
		c22.041-4.407,35.266-15.672,44.571-25.469c4.898-5.877,8.817-12.246,11.757-18.612h31.837V561.25h-52.899V279.122H314.782z"/>
</g>
</svg>
