<?xml version="1.0" encoding="utf-8"?>
<!-- Generator: Adobe Illustrator 16.0.0, SVG Export Plug-In . SVG Version: 6.00 Build 0)  -->
<!DOCTYPE svg PUBLIC "-//W3C//DTD SVG 1.1//EN" "http://www.w3.org/Graphics/SVG/1.1/DTD/svg11.dtd">
<svg version="1.1" id="Layer_1" xmlns="http://www.w3.org/2000/svg" xmlns:xlink="http://www.w3.org/1999/xlink" x="0px" y="0px"
	 width="564px" height="1002px" viewBox="0 0 564 1002" enable-background="new 0 0 564 1002" xml:space="preserve">
<g>
	<defs>
		<rect id="SVGID_111_" width="564" height="1002"/>
	</defs>
	<clipPath id="SVGID_2_">
		<use xlink:href="#SVGID_111_"  overflow="visible"/>
	</clipPath>
	<path clip-path="url(#SVGID_2_)" fill="#231F20" d="M444.039,181.54c0-16.08-0.67-34.17-5.359-48.24
		c-4.69-13.399-12.061-22.78-23.45-22.78c-18.761,0.67-24.79,20.101-24.79,48.91c0,16.75,7.37,34.17,18.09,52.93
		c10.72,18.761,24.789,38.19,38.86,58.961c16.75,24.789,33.5,50.25,46.229,75.039c12.73,24.791,21.44,50.25,21.44,77.051
		c0,32.83-5.36,63.65-20.771,86.43c-15.409,22.78-40.199,37.521-79.729,37.521c-46.23,0-72.36-17.42-87.101-44.221
		c-14.739-26.8-18.09-62.31-18.09-99.159l71.021-6.7c0,20.77,0.67,41.54,6.03,56.95c4.689,16.08,12.729,26.799,28.14,26.799
		c21.439,0,29.479-22.779,29.479-54.27c0-16.08-8.04-34.84-18.76-54.27c-6.03-9.381-12.061-19.43-18.76-29.48
		c-14.07-20.1-29.48-42.88-45.561-67.67c-16.079-24.79-28.141-50.25-35.51-76.38c-4.02-12.729-6.029-26.13-6.029-39.53
		c0-26.8,6.029-55.609,21.439-77.72c15.41-21.44,38.859-36.851,73.03-37.521c43.55-0.67,69.009,17.42,83.079,43.551
		c14.07,26.8,18.091,59.63,18.091,87.1L444.039,181.54z"/>
</g>
<line fill="none" stroke="#0046F9" stroke-width="2" x1="281.625" y1="26" x2="281.625" y2="561"/>
<g>
	<defs>
		<rect id="SVGID_113_" width="564" height="1002"/>
	</defs>
	<clipPath id="SVGID_4_">
		<use xlink:href="#SVGID_113_"  overflow="visible"/>
	</clipPath>
	<polygon clip-path="url(#SVGID_4_)" fill="none" stroke="#0046F9" stroke-width="1.998" points="0.999,3 0.999,999 0.999,1001.002 
		3,1001.002 561,1001.002 563.002,1001.002 563.002,999 563.002,3 563.002,0.998 561,0.998 3,0.998 0.999,0.998 	"/>
</g>
<rect x="5.001" y="5.002" fill="none" stroke="#0046F9" stroke-width="1.998" width="553.997" height="991.996"/>
<g>
	<defs>
		<rect id="SVGID_115_" width="564" height="1002"/>
	</defs>
	<clipPath id="SVGID_6_">
		<use xlink:href="#SVGID_115_"  overflow="visible"/>
	</clipPath>
	<path clip-path="url(#SVGID_6_)" fill="#231F20" d="M212.793,738.261c0.18,1.224,0.611,2.34,3.096,2.34
		c2.736,0,4.248-1.57,4.248-1.98c0-0.288-0.396-0.684-0.612-0.684c-0.288,0-0.433,0.647-1.403,0.647
		c-1.801,0-2.275-1.619-2.197-3.42l0.252-5.796c0.354-5.67-3.239-6.768-6.623-6.768c-3.78,0-7.704,2.268-7.704,4.428
		c0,0.972,0.683,1.404,1.62,1.404c1.115,0,1.979-0.648,1.979-1.152c0-0.288-0.07-0.612-0.143-0.756
		c-0.036-0.108-0.072-0.36-0.072-0.792c0-1.26,2.195-1.692,3.96-1.692c1.944,0,3.923,1.009,3.923,5.4
		c0,0.288-0.251,0.468-0.359,0.504l-4.68,0.792c-5.123,0.868-7.632,2.988-7.632,5.652c0,3.06,2.483,4.212,5.796,4.212
		c2.196,0,3.312-0.324,5.436-1.656l1.009-0.684H212.793z M213.045,731.24l-0.252,4.824c-0.029,0.544-0.36,0.864-0.721,1.116
		c-1.224,0.792-3.42,1.8-4.752,1.8c-2.412,0-3.312-1.548-3.312-2.772c0-2.016,1.664-3.557,4.717-4.14L213.045,731.24z
		 M189.141,735.416v-8.567c0-2.441,0.504-3.042,0.504-3.889c0-0.233-0.26-0.468-0.504-0.468c-0.403,0-1.404,0.228-2.369,0.4
		c-1.643,0.295-4.694,0.579-6.271,0.68c-0.107,0.306-0.072,0.9,0.072,1.188c3.438,0.071,4.723,0.14,5.04,0.54
		c0.343,0.432,0.396,0.899,0.396,1.836v8.279c0,1.692-0.144,2.376-0.647,2.772c-0.396,0.288-4.571,0.72-6.336,0.792
		c-0.216,0.216-0.216,1.116,0,1.332c1.513-0.036,6.983-0.072,8.604-0.072c1.512,0,6.588,0.036,8.135,0.072
		c0.217-0.216,0.217-1.116,0-1.332c-1.943-0.072-5.579-0.504-5.975-0.792C189.248,737.828,189.141,737.145,189.141,735.416
		 M185.324,716.841c0,1.079,0.973,2.159,1.944,2.159c1.116,0,2.088-1.115,2.088-1.979c0-1.008-0.864-2.16-1.944-2.16
		C186.44,714.86,185.324,715.832,185.324,716.841 M163.615,725.624c0-1.962-0.107-2.483-0.287-2.844
		c-0.072-0.18-0.144-0.288-0.432-0.288c-1.584,0.271-4.393,0.721-6.876,1.044c-0.073,0.216,0,0.792,0.071,1.008
		c0.847,0,3.457,0.288,3.816,0.505c0.469,0.287,0.576,0.756,0.576,1.943v8.712c0,1.729-0.148,2.405-0.684,2.772
		c-0.342,0.233-3.276,0.432-4.752,0.504c-0.217,0.216-0.217,1.116,0,1.332c1.512-0.036,6.012-0.072,7.451-0.072
		c1.477,0,5.867,0.036,7.416,0.072c0.217-0.216,0.217-1.116,0-1.332c-1.26-0.036-5.076-0.288-5.508-0.504
		c-0.648-0.36-0.793-1.008-0.793-2.772v-4.968c0-0.936,0.332-1.71,0.865-2.304c2.016-2.25,3.779-3.727,5.184-3.727
		c0.504,0,1.332,0.45,1.584,0.738c0.396,0.432,0.937,0.972,1.656,0.972c0.936,0,1.691-1.008,1.691-1.979
		c0-0.72-0.432-1.836-2.051-1.836c-4.356,0-6.156,1.638-8.568,4.176C163.666,727.104,163.615,726.812,163.615,725.624
		 M149.937,736.316c-1.692,1.548-3.563,2.484-6.265,2.484c-2.311,0-4.5-0.792-5.976-2.881c-0.899-1.367-1.332-2.483-1.332-4.859
		h13.5c0.503,0,0.864-0.612,0.864-1.044c0-3.384-2.016-7.416-8.137-7.416c-4.967,0-9.684,3.42-9.684,9.504
		c0,2.231,0.756,4.428,2.232,5.939c1.512,1.62,4.283,2.557,7.451,2.557c3.385,0,6.373-1.404,8.172-3.492
		C150.656,736.713,150.477,736.353,149.937,736.316 M136.545,729.584c0.828-4.319,3.672-5.544,5.976-5.544
		c1.728,0,4.608,1.009,4.608,4.464c0,0.36-0.217,0.93-0.721,0.937L136.545,729.584z M110.625,724.4c-0.504,0-0.648,0.432-0.648,0.72
		v0.648c0,0.18,0.035,0.216,0.18,0.216h4.032v9.252c0,4.032,2.376,5.364,5.544,5.364c2.105,0,4.536-1.116,7.452-2.736
		c-0.072-0.371-0.288-0.972-0.647-1.008c-1.963,0.828-3.979,1.62-5.545,1.62c-1.836,0-3.672-0.72-3.672-4.968v-7.524h7.344
		c0.36,0,0.864-0.144,0.864-0.468v-0.9c0-0.144-0.108-0.216-0.288-0.216h-7.92v-3.204c0-2.34,0.145-3.78,0.145-3.78
		c0-0.229-0.108-0.316-0.277-0.316c-0.264,0-1.03,0.399-1.596,0.637c-0.611,0.256-1.512,0.328-1.512,0.688
		c0,0.418,0.108,1.979,0.108,5.972L110.625,724.4z M98.42,735.416v-8.567c0-2.441,0.504-3.042,0.504-3.889
		c0-0.233-0.258-0.468-0.504-0.468c-0.402,0-1.403,0.228-2.369,0.4c-1.641,0.295-4.693,0.579-6.271,0.68
		c-0.108,0.306-0.071,0.9,0.071,1.188c3.439,0.071,4.724,0.14,5.041,0.54c0.342,0.432,0.396,0.899,0.396,1.836v8.279
		c0,1.692-0.145,2.376-0.648,2.772c-0.396,0.288-4.572,0.72-6.336,0.792c-0.217,0.216-0.217,1.116,0,1.332
		c1.512-0.036,6.984-0.072,8.604-0.072c1.512,0,6.588,0.036,8.137,0.072c0.215-0.216,0.215-1.116,0-1.332
		c-1.944-0.072-5.58-0.504-5.977-0.792C98.528,737.828,98.42,737.145,98.42,735.416 M94.604,716.841
		c0,1.079,0.972,2.159,1.944,2.159c1.115,0,2.088-1.115,2.088-1.979c0-1.008-0.864-2.16-1.944-2.16
		C95.721,714.86,94.604,715.832,94.604,716.841 M72.896,725.624c0-1.962-0.107-2.483-0.288-2.844
		c-0.071-0.18-0.144-0.288-0.433-0.288c-1.584,0.271-4.393,0.721-6.875,1.044c-0.072,0.216,0,0.792,0.072,1.008
		c0.846,0,3.455,0.288,3.815,0.505c0.468,0.287,0.575,0.756,0.575,1.943v8.712c0,1.729-0.148,2.405-0.684,2.772
		c-0.342,0.233-3.275,0.432-4.752,0.504c-0.216,0.216-0.216,1.116,0,1.332c1.512-0.036,6.012-0.072,7.452-0.072
		c1.476,0,5.868,0.036,7.416,0.072c0.216-0.216,0.216-1.116,0-1.332c-1.26-0.036-5.075-0.288-5.508-0.504
		c-0.647-0.36-0.792-1.008-0.792-2.772v-4.968c0-0.936,0.331-1.71,0.863-2.304c2.017-2.25,3.781-3.727,5.185-3.727
		c0.503,0,1.332,0.45,1.584,0.738c0.396,0.432,0.937,0.972,1.656,0.972c0.937,0,1.692-1.008,1.692-1.979
		c0-0.72-0.433-1.836-2.053-1.836c-4.355,0-6.156,1.638-8.568,4.176C72.946,727.104,72.896,726.812,72.896,725.624 M60.225,736.353
		c-0.145-0.36-0.648-0.864-1.045-0.9c-2.268,2.34-5.039,3.204-6.875,3.204c-4.032,0-6.912-3.312-6.912-7.668
		c0-4.212,2.16-6.912,5.832-6.912c2.52,0,4.572,1.44,4.824,3.276c0.147,1.076,0.936,1.728,1.8,1.728
		c1.079,0,1.692-0.697,1.692-2.052c0-0.77-0.443-1.624-1.261-2.304c-1.517-1.26-4.198-2.124-6.84-2.124
		c-5.076,0-9.325,3.888-9.325,9.252c0,4.86,3.35,8.748,9.289,8.748C53.961,740.601,56.984,740.024,60.225,736.353"/>
	<path clip-path="url(#SVGID_6_)" fill="#231F20" d="M512.816,686.316c-1.692,1.548-3.564,2.484-6.264,2.484
		c-2.312,0-4.5-0.792-5.977-2.881c-0.899-1.367-1.332-2.483-1.332-4.859h13.5c0.504,0,0.864-0.612,0.864-1.044
		c0-3.384-2.016-7.416-8.136-7.416c-4.969,0-9.685,3.42-9.685,9.504c0,2.231,0.756,4.428,2.232,5.939
		c1.511,1.62,4.284,2.557,7.452,2.557c3.384,0,6.372-1.404,8.172-3.492C513.535,686.713,513.356,686.353,512.816,686.316
		 M499.425,679.584c0.827-4.319,3.672-5.544,5.976-5.544c1.728,0,4.608,1.009,4.608,4.464c0,0.36-0.217,0.93-0.721,0.937
		L499.425,679.584z M480.614,685.597c0,1.703-0.126,2.376-0.63,2.771c-0.396,0.288-5.482,0.565-6.426,0.612
		c-0.216,0.216-0.216,1.116,0,1.332c1.512-0.036,5.27-0.072,8.64-0.072c3.243,0,6.769,0.036,8.315,0.072
		c0.217-0.216,0.217-1.116,0-1.332c-0.899-0.043-5.669-0.36-6.066-0.612c-0.575-0.359-0.701-1.008-0.701-2.771v-16.345
		c0-2.34,0.145-3.779,0.145-3.779c0-0.252-0.145-0.36-0.468-0.36c-1.332,0.36-5.616,0.864-7.057,0.972
		c-0.072,0.288-0.072,0.973,0.145,1.188c1.458,0,2.8,0.025,3.617,0.702c0.374,0.31,0.486,1.396,0.486,2.897V685.597z
		 M454.641,675.805c0-1.188-0.036-2.592-0.216-3.024c-0.073-0.18-0.145-0.324-0.469-0.324c-1.115,0.433-2.735,0.828-5.509,1.188
		c-0.07,0.252,0.037,0.864,0.109,1.116c2.16,0.216,2.952,0.396,2.952,2.735v16.561c0,2.987-0.757,3.168-2.952,3.275
		c-0.216,0.217-0.216,1.116,0,1.332c1.512-0.036,2.768-0.071,4.536-0.071c2.036,0,3.672,0.035,5.22,0.071
		c0.216-0.216,0.216-1.115,0-1.332c-3.277-0.144-3.672-0.302-3.672-3.275v-5.544c1.151,1.26,2.736,2.088,4.859,2.088
		c2.232,0,4.32-0.685,5.977-2.232c1.872-1.836,3.023-4.355,3.023-7.596c0-4.914-2.57-8.172-7.56-8.172
		c-2.751,0-4.41,1.313-5.976,3.348C454.852,676.093,454.641,676.093,454.641,675.805 M455.54,677.208
		c1.026-1.422,2.557-2.771,4.177-2.771c3.944,0,5.327,2.88,5.327,7.416c0,4.572-2.195,7.236-5.796,7.236
		c-1.667,0-4.302-1.837-4.607-3.925v-5.688C454.641,678.648,455.104,677.81,455.54,677.208 M438.62,685.416v-8.567
		c0-2.441,0.504-3.042,0.504-3.889c0-0.233-0.26-0.468-0.504-0.468c-0.403,0-1.403,0.228-2.368,0.4
		c-1.643,0.295-4.695,0.579-6.271,0.68c-0.108,0.306-0.072,0.9,0.072,1.188c3.438,0.071,4.723,0.14,5.04,0.54
		c0.341,0.432,0.396,0.899,0.396,1.836v8.279c0,1.692-0.144,2.376-0.647,2.772c-0.396,0.288-4.572,0.72-6.337,0.792
		c-0.216,0.216-0.216,1.116,0,1.332c1.513-0.036,6.984-0.072,8.604-0.072c1.512,0,6.588,0.036,8.136,0.072
		c0.216-0.216,0.216-1.116,0-1.332c-1.943-0.072-5.58-0.504-5.976-0.792C438.729,687.828,438.62,687.145,438.62,685.416
		 M434.805,666.841c0,1.079,0.972,2.159,1.943,2.159c1.116,0,2.088-1.115,2.088-1.979c0-1.008-0.863-2.16-1.943-2.16
		C435.92,664.86,434.805,665.832,434.805,666.841 M405.465,674.4c-0.505,0-0.648,0.432-0.648,0.72v0.648
		c0,0.18,0.035,0.216,0.18,0.216h4.032v9.252c0,4.032,2.376,5.364,5.544,5.364c2.106,0,4.536-1.116,7.452-2.736
		c-0.073-0.371-0.288-0.972-0.647-1.008c-1.963,0.828-3.979,1.62-5.545,1.62c-1.836,0-3.672-0.72-3.672-4.968v-7.524h7.344
		c0.36,0,0.863-0.144,0.863-0.468v-0.9c0-0.144-0.106-0.216-0.287-0.216h-7.92v-3.204c0-2.34,0.145-3.78,0.145-3.78
		c0-0.229-0.108-0.316-0.278-0.316c-0.262,0-1.029,0.399-1.594,0.637c-0.612,0.256-1.513,0.328-1.513,0.688
		c0,0.418,0.108,1.979,0.108,5.972L405.465,674.4z M389.895,685.597c0,1.703-0.126,2.376-0.63,2.771
		c-0.397,0.288-5.483,0.565-6.427,0.612c-0.216,0.216-0.216,1.116,0,1.332c1.512-0.036,5.271-0.072,8.641-0.072
		c3.243,0,6.768,0.036,8.315,0.072c0.217-0.216,0.217-1.116,0-1.332c-0.899-0.043-5.67-0.36-6.065-0.612
		c-0.576-0.359-0.702-1.008-0.702-2.771v-16.345c0-2.34,0.144-3.779,0.144-3.779c0-0.252-0.144-0.36-0.469-0.36
		c-1.331,0.36-5.615,0.864-7.055,0.972c-0.072,0.288-0.072,0.973,0.144,1.188c1.458,0,2.801,0.025,3.618,0.702
		c0.374,0.31,0.486,1.396,0.486,2.897V685.597z M365.774,690.601c1.404,0,4.086-0.688,6.516-2.521
		c0.184-0.14,0.433-0.216,0.433,0.036c0,1.588,0.396,2.484,0.396,2.484c0.288,0.107,0.396,0.072,0.685,0
		c0.792-0.648,2.556-1.188,4.752-1.44c0.216-0.216,0.216-0.756,0-0.972c-2.305-0.18-2.736-0.864-2.736-2.628v-8.604
		c0-1.08,0.145-3.852,0.145-3.852c0-0.108-0.108-0.216-0.288-0.216c-0.181,0.036-1.009,0.071-1.548,0.071
		c-1.152,0-2.521-0.035-3.853-0.071c-0.216,0.216-0.216,1.115,0,1.332c0.788,0.047,1.497,0.157,1.843,0.481
		c0.425,0.4,0.569,1.12,0.569,2.435v8.136c0,0.684-0.04,1.012-0.576,1.404c-2.106,1.548-4.284,2.231-5.184,2.231
		c-1.08,0-2.88-0.504-2.88-3.708v-8.244c0-1.08,0.144-3.852,0.144-3.852c0-0.108-0.108-0.216-0.288-0.216
		c-0.18,0.036-0.792,0.071-1.332,0.071c-1.152,0-2.916-0.035-4.248-0.071c-0.216,0.216-0.216,1.115,0,1.332
		c0.792,0.064,1.688,0.184,2.034,0.518c0.409,0.396,0.558,1.095,0.558,2.362v8.604C360.914,688.188,362.21,690.601,365.774,690.601
		 M339.62,685.488v-7.38c0-0.756,0.381-1.512,0.612-1.872c1.044-1.631,1.908-1.656,2.484-1.656c1.367,0,1.8,0.864,1.8,3.276v7.632
		c0,3.204-0.019,4.32-0.072,4.824c0.385-0.036,1.26-0.072,1.62-0.072c0.407,0,1.019,0.036,1.476,0.072
		c-0.028-0.612-0.071-1.769-0.071-4.824v-9.036c1.26-1.71,2.108-1.872,2.88-1.872c1.368,0,2.016,0.792,2.016,3.204v6.984
		c0,3.888,0.062,4.993,0.288,5.544c0.396-0.036,1.02-0.072,1.295-0.072c1.478,0,1.584,0.036,3.133,0.072
		c0.181-0.216,0.181-1.116,0-1.332c-1.753-0.119-1.764-0.241-1.764-4.212v-6.444c0-3.197-0.504-5.724-3.672-5.724
		c-1.235,0-2.478,0.22-4.068,2.231c-0.206,0.26-0.339,0.343-0.432-0.014c-0.379-1.444-1.404-2.218-3.277-2.218
		c-1.367,0-2.635,0.655-3.923,2.556c-0.228,0.338-0.324,0.35-0.324,0c0-1.439-0.119-2.005-0.288-2.376
		c-0.075-0.166-0.144-0.288-0.432-0.288c-1.008,0.396-1.98,0.721-4.464,1.044c-0.072,0.216,0,0.792,0.072,1.008
		c1.942,0.181,2.159,0.36,2.159,2.448v8.496c0,3.204-0.018,4.32-0.071,4.824c0.385-0.036,1.26-0.072,1.62-0.072
		c0.406,0,1.018,0.036,1.476,0.072C339.663,689.7,339.62,688.544,339.62,685.488 M299.696,674.076c4.104,0,6.587,2.952,6.587,8.856
		c0,5.147-3.022,6.191-5.291,6.191c-4.932,0-6.516-4.896-6.516-8.063C294.477,677.496,295.517,674.076,299.696,674.076
		 M291.021,681.96c0,4.104,3.023,8.641,9.324,8.641c2.844,0,5.004-0.9,6.516-2.232c2.016-1.764,2.88-4.319,2.88-6.768
		c0-4.176-2.556-9-9.324-9c-2.916,0-5.292,1.08-6.912,2.808C291.92,677.137,291.021,679.44,291.021,681.96 M269.385,674.4
		c-0.504,0-0.648,0.432-0.648,0.72v0.648c0,0.18,0.036,0.216,0.18,0.216h4.031v9.252c0,4.032,2.377,5.364,5.545,5.364
		c2.105,0,4.536-1.116,7.452-2.736c-0.072-0.371-0.288-0.972-0.647-1.008c-1.963,0.828-3.979,1.62-5.545,1.62
		c-1.836,0-3.672-0.72-3.672-4.968v-7.524h7.345c0.358,0,0.863-0.144,0.863-0.468v-0.9c0-0.144-0.107-0.216-0.288-0.216h-7.92
		v-3.204c0-2.34,0.145-3.78,0.145-3.78c0-0.229-0.109-0.316-0.277-0.316c-0.263,0-1.029,0.399-1.596,0.637
		c-0.611,0.256-1.512,0.328-1.512,0.688c0,0.418,0.107,1.979,0.107,5.972L269.385,674.4z M240.297,674.652
		c0.756,0,1.476-0.72,1.476-1.512c0-0.828-0.756-1.477-1.836-1.477c-1.044,0-2.989,0.685-4.032,2.053
		c-0.468-0.324-1.8-1.116-4.537-1.116c-3.923,0-7.199,2.376-7.199,6.084c0,2.16,1.152,3.42,2.269,4.5
		c-1.116,0.972-1.585,2.664-1.585,4.032c0,1.439,0.793,2.592,1.837,3.096c-2.16,1.296-3.563,2.808-3.563,4.355
		c0,3.133,3.6,4.104,6.84,4.104c5.724,0,11.808-2.34,11.808-6.229c0-1.151-0.685-2.016-1.908-2.987
		c-1.62-1.296-4.608-1.332-6.155-1.332c-0.758,0-1.801,0.107-2.809,0.216c-0.648,0.036-1.08,0.072-1.296,0.072
		c-1.224,0-2.628-0.54-2.628-2.269c0-0.792,0.072-1.655,0.54-2.34c0.972,0.576,2.267,0.828,3.815,0.828
		c3.889,0,7.164-2.196,7.164-6.12c0-1.872-0.576-2.988-1.728-4.176c0.288-0.396,1.08-0.972,1.583-0.972
		c0.289,0,0.576,0.107,0.828,0.468C239.324,674.257,239.864,674.652,240.297,674.652 M227.408,690.601
		c0.432,0.107,1.152,0.216,1.692,0.216c1.332,0,2.448-0.144,3.06-0.144c2.123,0,4.032-0.108,5.256,0.54
		c1.621,0.899,2.053,1.331,2.053,2.268c0,2.592-4.5,3.96-8.28,3.96c-2.269,0-5.292-1.044-5.292-3.492
		C225.896,692.725,226.256,692.004,227.408,690.601 M235.293,679.009c0,3.743-1.944,4.392-3.744,4.392
		c-3.385,0-4.104-2.772-4.104-5.328c0-2.808,1.044-4.14,3.563-4.14C233.924,673.933,235.293,675.66,235.293,679.009
		 M205.772,676.236c-0.108,0.145-0.325,0.504-0.325,0c0-2.2-0.117-3.085-0.287-3.456c-0.076-0.166-0.144-0.288-0.432-0.288
		c-1.008,0.396-2.34,0.721-4.824,1.044c-0.072,0.216,0,0.792,0.072,1.008c1.943,0.181,2.34,0.36,2.34,2.448v8.712
		c0,2.952-0.359,3.057-2.88,3.276c-0.216,0.216-0.216,1.116,0,1.332c1.476-0.036,2.88-0.072,4.428-0.072
		c1.404,0,2.231,0.036,3.744,0.072c0.216-0.216,0.216-1.116,0-1.332c-1.836-0.18-2.161-0.324-2.161-3.276v-6.876
		c0-0.756,0.325-1.188,0.613-1.512c1.367-1.332,3.384-2.844,5.58-2.844c0.72,0,1.406,0.508,1.908,1.296
		c0.432,0.684,0.539,1.691,0.539,2.771v7.164c0,2.952-0.359,3.097-2.231,3.276c-0.181,0.216-0.181,1.116,0,1.332
		c1.511-0.036,2.34-0.072,3.78-0.072c1.476,0,2.808,0.036,4.355,0.072c0.18-0.216,0.18-1.116,0-1.332
		c-2.377-0.148-2.771-0.324-2.771-3.276v-7.056c0-1.98-0.145-3.78-1.08-4.824c-0.67-0.745-1.729-1.224-2.988-1.224
		C210.272,672.601,207.969,673.788,205.772,676.236 M189.141,685.416v-8.567c0-2.441,0.504-3.042,0.504-3.889
		c0-0.233-0.26-0.468-0.504-0.468c-0.403,0-1.404,0.228-2.369,0.4c-1.643,0.295-4.694,0.579-6.271,0.68
		c-0.107,0.306-0.072,0.9,0.072,1.188c3.438,0.071,4.723,0.14,5.04,0.54c0.343,0.432,0.396,0.899,0.396,1.836v8.279
		c0,1.692-0.144,2.376-0.647,2.772c-0.396,0.288-4.571,0.72-6.336,0.792c-0.216,0.216-0.216,1.116,0,1.332
		c1.513-0.036,6.983-0.072,8.604-0.072c1.512,0,6.588,0.036,8.135,0.072c0.217-0.216,0.217-1.116,0-1.332
		c-1.943-0.072-5.579-0.504-5.975-0.792C189.248,687.828,189.141,687.145,189.141,685.416 M185.324,666.841
		c0,1.079,0.973,2.159,1.944,2.159c1.116,0,2.088-1.115,2.088-1.979c0-1.008-0.864-2.16-1.944-2.16
		C186.44,664.86,185.324,665.832,185.324,666.841 M168.26,688.225c0.181-0.145,0.469-0.252,0.469,0.036
		c0,0.972,0.396,2.34,0.396,2.34c0.287,0.107,0.396,0.072,0.684,0c0.792-0.648,2.304-1.229,5.004-1.44
		c0.216-0.216,0.216-0.756,0-0.972c-2.7-0.328-2.988-0.864-2.988-2.628v-16.309c0-2.34,0.145-3.779,0.145-3.779
		c0-0.252-0.145-0.36-0.469-0.36c-0.899,0.36-4.607,0.864-6.049,0.972c-0.07,0.288,0,0.864,0.217,1.08
		c2.592,0.104,3.024,0.284,3.024,2.952v2.809c0,0.288-0.071,0.359-0.36,0.359c-0.144,0-2.699-0.647-4.104-0.647
		c-2.809,0-4.645,0.863-6.372,2.376c-1.836,1.728-2.916,4.104-2.916,7.092c0,4.932,2.987,8.532,7.56,8.532
		C164.156,690.637,166.28,689.845,168.26,688.225 M168.692,685.272c0,0.756-0.071,1.044-0.647,1.548
		c-1.477,1.296-3.349,1.944-4.43,1.944c-2.303,0-5.436-2.376-5.436-7.38c0-2.881,0.576-4.5,1.225-5.328
		c1.332-1.872,3.564-1.98,4.393-1.98c1.512,0,3.42,0.468,4.211,1.404c0.576,0.647,0.685,0.9,0.685,2.16V685.272z M140.937,675.624
		c0-1.962-0.108-2.483-0.288-2.844c-0.072-0.18-0.145-0.288-0.432-0.288c-1.584,0.271-4.393,0.721-6.877,1.044
		c-0.071,0.216,0,0.792,0.072,1.008c0.846,0,3.455,0.288,3.816,0.505c0.468,0.287,0.576,0.756,0.576,1.943v8.712
		c0,1.729-0.148,2.405-0.684,2.772c-0.343,0.233-3.277,0.432-4.754,0.504c-0.215,0.216-0.215,1.116,0,1.332
		c1.514-0.036,6.014-0.072,7.453-0.072c1.477,0,5.868,0.036,7.416,0.072c0.215-0.216,0.215-1.116,0-1.332
		c-1.26-0.036-5.076-0.288-5.508-0.504c-0.648-0.36-0.792-1.008-0.792-2.772v-4.968c0-0.936,0.331-1.71,0.864-2.304
		c2.016-2.25,3.779-3.727,5.184-3.727c0.504,0,1.332,0.45,1.584,0.738c0.396,0.432,0.936,0.972,1.656,0.972
		c0.936,0,1.691-1.008,1.691-1.979c0-0.72-0.432-1.836-2.052-1.836c-4.356,0-6.155,1.638-8.567,4.176
		C140.986,677.104,140.937,676.812,140.937,675.624 M118.256,674.076c4.104,0,6.588,2.952,6.588,8.856
		c0,5.147-3.023,6.191-5.291,6.191c-4.932,0-6.516-4.896-6.516-8.063C113.037,677.496,114.076,674.076,118.256,674.076
		 M109.58,681.96c0,4.104,3.024,8.641,9.324,8.641c2.844,0,5.004-0.9,6.516-2.232c2.017-1.764,2.881-4.319,2.881-6.768
		c0-4.176-2.557-9-9.324-9c-2.916,0-5.292,1.08-6.912,2.808C110.48,677.137,109.58,679.44,109.58,681.96 M105.584,686.353
		c-0.144-0.36-0.647-0.864-1.043-0.9c-2.269,2.34-5.041,3.204-6.877,3.204c-4.031,0-6.912-3.312-6.912-7.668
		c0-4.212,2.16-6.912,5.832-6.912c2.521,0,4.572,1.44,4.824,3.276c0.148,1.076,0.936,1.728,1.801,1.728
		c1.08,0,1.691-0.697,1.691-2.052c0-0.77-0.443-1.624-1.26-2.304c-1.516-1.26-4.198-2.124-6.84-2.124
		c-5.076,0-9.324,3.888-9.324,9.252c0,4.86,3.348,8.748,9.287,8.748C99.32,690.601,102.344,690.024,105.584,686.353 M82.904,686.353
		c-0.145-0.36-0.648-0.864-1.044-0.9c-2.269,2.34-5.04,3.204-6.876,3.204c-4.031,0-6.912-3.312-6.912-7.668
		c0-4.212,2.16-6.912,5.832-6.912c2.52,0,4.572,1.44,4.824,3.276c0.148,1.076,0.936,1.728,1.8,1.728c1.08,0,1.692-0.697,1.692-2.052
		c0-0.77-0.443-1.624-1.26-2.304c-1.517-1.26-4.199-2.124-6.84-2.124c-5.076,0-9.324,3.888-9.324,9.252
		c0,4.86,3.348,8.748,9.287,8.748C76.641,690.601,79.664,690.024,82.904,686.353 M54.031,688.261c0.182,1.224,0.613,2.34,3.098,2.34
		c2.735,0,4.248-1.57,4.248-1.98c0-0.288-0.396-0.684-0.613-0.684c-0.287,0-0.432,0.647-1.403,0.647c-1.8,0-2.274-1.619-2.196-3.42
		l0.252-5.796c0.354-5.67-3.24-6.768-6.623-6.768c-3.781,0-7.705,2.268-7.705,4.428c0,0.972,0.685,1.404,1.621,1.404
		c1.115,0,1.979-0.648,1.979-1.152c0-0.288-0.073-0.612-0.144-0.756c-0.037-0.108-0.072-0.36-0.072-0.792
		c0-1.26,2.195-1.692,3.96-1.692c1.944,0,3.924,1.009,3.924,5.4c0,0.288-0.252,0.468-0.36,0.504l-4.68,0.792
		c-5.123,0.868-7.632,2.988-7.632,5.652c0,3.06,2.483,4.212,5.796,4.212c2.195,0,3.312-0.324,5.436-1.656l1.008-0.684H54.031z
		 M54.283,681.24l-0.252,4.824c-0.027,0.544-0.359,0.864-0.719,1.116c-1.225,0.792-3.42,1.8-4.752,1.8
		c-2.412,0-3.312-1.548-3.312-2.772c0-2.016,1.664-3.557,4.717-4.14L54.283,681.24z"/>
	<path clip-path="url(#SVGID_6_)" fill="#231F20" d="M450.788,635.057c0.145,1.979,0.612,3.672,1.261,5.147
		c0.432-0.071,1.008-0.144,1.224-0.144c0.288,0,0.792,0.029,1.079,0.107c0.666,0.181,2.539,0.433,4.573,0.433
		c4.823,0,8.604-1.458,8.604-5.58c0-2.736-1.365-4.136-7.02-5.04c-3.942-0.63-6.408-1.296-6.408-3.312
		c0-1.548,1.8-2.735,5.112-2.735c2.825,0,4.176,1.836,5.688,4.428c0.576,0.036,1.044-0.18,1.296-0.432
		c-0.216-1.692-0.432-3.061-0.72-4.212c-1.242-0.414-3.708-1.116-6.264-1.116c-3.925,0-7.812,1.764-7.812,4.644
		c0,3.187,1.728,4.522,6.516,5.328c5.131,0.864,6.66,1.62,6.66,3.348c0,1.98-2.125,3.349-5.725,3.349
		c-2.051,0-3.707-0.396-4.355-0.937c-1.045-0.899-1.907-2.699-2.16-3.708C451.832,634.553,451.112,634.732,450.788,635.057
		 M428.145,624.4c-0.504,0-0.648,0.432-0.648,0.72v0.648c0,0.18,0.035,0.216,0.181,0.216h4.031v9.252
		c0,4.032,2.376,5.364,5.544,5.364c2.106,0,4.536-1.116,7.452-2.736c-0.071-0.371-0.288-0.972-0.647-1.008
		c-1.962,0.828-3.979,1.62-5.544,1.62c-1.836,0-3.672-0.72-3.672-4.968v-7.524h7.344c0.359,0,0.864-0.144,0.864-0.468v-0.9
		c0-0.144-0.108-0.216-0.288-0.216h-7.92v-3.204c0-2.34,0.144-3.78,0.144-3.78c0-0.229-0.107-0.316-0.278-0.316
		c-0.262,0-1.028,0.399-1.594,0.637c-0.612,0.256-1.512,0.328-1.512,0.688c0,0.418,0.107,1.979,0.107,5.972L428.145,624.4z
		 M409.893,626.236c-0.109,0.145-0.324,0.504-0.324,0c0-2.2-0.119-3.085-0.288-3.456c-0.076-0.166-0.144-0.288-0.432-0.288
		c-1.008,0.396-2.34,0.721-4.824,1.044c-0.073,0.216,0,0.792,0.072,1.008c1.943,0.181,2.34,0.36,2.34,2.448v8.712
		c0,2.952-0.36,3.057-2.88,3.276c-0.216,0.216-0.216,1.116,0,1.332c1.475-0.036,2.88-0.072,4.428-0.072
		c1.404,0,2.232,0.036,3.744,0.072c0.216-0.216,0.216-1.116,0-1.332c-1.836-0.18-2.16-0.324-2.16-3.276v-6.876
		c0-0.756,0.324-1.188,0.612-1.512c1.368-1.332,3.384-2.844,5.58-2.844c0.72,0,1.406,0.508,1.907,1.296
		c0.433,0.684,0.54,1.691,0.54,2.771v7.164c0,2.952-0.359,3.097-2.231,3.276c-0.18,0.216-0.18,1.116,0,1.332
		c1.512-0.036,2.34-0.072,3.78-0.072c1.476,0,2.808,0.036,4.355,0.072c0.18-0.216,0.18-1.116,0-1.332
		c-2.376-0.148-2.771-0.324-2.771-3.276v-7.056c0-1.98-0.145-3.78-1.08-4.824c-0.67-0.745-1.729-1.224-2.988-1.224
		C414.393,622.601,412.089,623.788,409.893,626.236 M399.416,636.316c-1.691,1.548-3.564,2.484-6.264,2.484
		c-2.312,0-4.5-0.792-5.976-2.881c-0.9-1.367-1.332-2.483-1.332-4.859h13.5c0.504,0,0.863-0.612,0.863-1.044
		c0-3.384-2.016-7.416-8.136-7.416c-4.968,0-9.684,3.42-9.684,9.504c0,2.231,0.756,4.428,2.231,5.939
		c1.513,1.62,4.284,2.557,7.452,2.557c3.384,0,6.372-1.404,8.172-3.492C400.137,636.713,399.956,636.353,399.416,636.316
		 M386.024,629.584c0.827-4.319,3.672-5.544,5.976-5.544c1.729,0,4.608,1.009,4.608,4.464c0,0.36-0.216,0.93-0.72,0.937
		L386.024,629.584z M362.301,635.488v-7.38c0-0.756,0.381-1.512,0.611-1.872c1.044-1.631,1.908-1.656,2.484-1.656
		c1.368,0,1.8,0.864,1.8,3.276v7.632c0,3.204-0.018,4.32-0.072,4.824c0.386-0.036,1.261-0.072,1.62-0.072
		c0.406,0,1.019,0.036,1.477,0.072c-0.029-0.612-0.072-1.769-0.072-4.824v-9.036c1.26-1.71,2.109-1.872,2.88-1.872
		c1.368,0,2.016,0.792,2.016,3.204v6.984c0,3.888,0.062,4.993,0.288,5.544c0.396-0.036,1.018-0.072,1.296-0.072
		c1.477,0,1.585,0.036,3.133,0.072c0.18-0.216,0.18-1.116,0-1.332c-1.754-0.119-1.765-0.241-1.765-4.212v-6.444
		c0-3.197-0.504-5.724-3.672-5.724c-1.234,0-2.477,0.22-4.067,2.231c-0.206,0.26-0.34,0.343-0.433-0.014
		c-0.378-1.444-1.404-2.218-3.275-2.218c-1.368,0-2.637,0.655-3.925,2.556c-0.227,0.338-0.323,0.35-0.323,0
		c0-1.439-0.119-2.005-0.288-2.376c-0.076-0.166-0.146-0.288-0.433-0.288c-1.008,0.396-1.979,0.721-4.465,1.044
		c-0.071,0.216,0,0.792,0.073,1.008c1.944,0.181,2.16,0.36,2.16,2.448v8.496c0,3.204-0.019,4.32-0.072,4.824
		c0.385-0.036,1.259-0.072,1.62-0.072c0.406,0,1.018,0.036,1.476,0.072C362.344,639.7,362.301,638.544,362.301,635.488
		 M353.696,624.652c0.755,0,1.477-0.72,1.477-1.512c0-0.828-0.757-1.477-1.837-1.477c-1.044,0-2.987,0.685-4.031,2.053
		c-0.469-0.324-1.801-1.116-4.536-1.116c-3.924,0-7.2,2.376-7.2,6.084c0,2.16,1.152,3.42,2.268,4.5
		c-1.115,0.972-1.584,2.664-1.584,4.032c0,1.439,0.792,2.592,1.837,3.096c-2.16,1.296-3.564,2.808-3.564,4.355
		c0,3.133,3.6,4.104,6.84,4.104c5.725,0,11.809-2.34,11.809-6.229c0-1.151-0.685-2.016-1.908-2.987
		c-1.62-1.296-4.608-1.332-6.156-1.332c-0.757,0-1.8,0.107-2.808,0.216c-0.648,0.036-1.08,0.072-1.297,0.072
		c-1.224,0-2.628-0.54-2.628-2.269c0-0.792,0.071-1.655,0.54-2.34c0.973,0.576,2.269,0.828,3.816,0.828
		c3.888,0,7.164-2.196,7.164-6.12c0-1.872-0.576-2.988-1.729-4.176c0.288-0.396,1.08-0.972,1.584-0.972
		c0.288,0,0.576,0.107,0.828,0.468C352.725,624.257,353.265,624.652,353.696,624.652 M340.809,640.601
		c0.432,0.107,1.151,0.216,1.691,0.216c1.332,0,2.447-0.144,3.061-0.144c2.124,0,4.032-0.108,5.256,0.54
		c1.62,0.899,2.051,1.331,2.051,2.268c0,2.592-4.5,3.96-8.278,3.96c-2.269,0-5.292-1.044-5.292-3.492
		C339.297,642.725,339.656,642.004,340.809,640.601 M348.692,629.009c0,3.743-1.944,4.392-3.745,4.392
		c-3.383,0-4.103-2.771-4.103-5.328c0-2.808,1.044-4.14,3.563-4.14C347.324,623.933,348.692,625.66,348.692,629.009
		 M326.192,638.261c0.18,1.224,0.612,2.34,3.096,2.34c2.736,0,4.247-1.57,4.247-1.98c0-0.288-0.395-0.684-0.61-0.684
		c-0.288,0-0.433,0.647-1.404,0.647c-1.8,0-2.275-1.619-2.196-3.42l0.252-5.796c0.354-5.67-3.24-6.768-6.625-6.768
		c-3.778,0-7.703,2.268-7.703,4.428c0,0.972,0.685,1.404,1.619,1.404c1.117,0,1.981-0.648,1.981-1.152
		c0-0.288-0.072-0.612-0.145-0.756c-0.036-0.108-0.071-0.36-0.071-0.792c0-1.26,2.195-1.692,3.96-1.692
		c1.942,0,3.924,1.009,3.924,5.4c0,0.288-0.252,0.468-0.36,0.504l-4.68,0.792c-5.123,0.868-7.632,2.988-7.632,5.652
		c0,3.06,2.483,4.212,5.796,4.212c2.195,0,3.311-0.324,5.436-1.656l1.008-0.684H326.192z M326.444,631.24l-0.252,4.824
		c-0.029,0.544-0.36,0.864-0.72,1.116c-1.225,0.792-3.42,1.8-4.752,1.8c-2.412,0-3.312-1.548-3.312-2.772
		c0-2.016,1.663-3.557,4.716-4.14L326.444,631.24z M299.696,625.624c0-1.962-0.108-2.483-0.288-2.844
		c-0.072-0.18-0.144-0.288-0.432-0.288c-1.584,0.271-4.393,0.721-6.876,1.044c-0.072,0.216,0,0.792,0.072,1.008
		c0.845,0,3.455,0.288,3.815,0.505c0.468,0.287,0.576,0.756,0.576,1.943v8.712c0,1.729-0.148,2.405-0.684,2.772
		c-0.343,0.233-3.276,0.432-4.753,0.504c-0.216,0.216-0.216,1.116,0,1.332c1.513-0.036,6.013-0.072,7.452-0.072
		c1.477,0,5.867,0.036,7.416,0.072c0.217-0.216,0.217-1.116,0-1.332c-1.26-0.036-5.076-0.288-5.508-0.504
		c-0.647-0.36-0.792-1.008-0.792-2.772v-4.968c0-0.936,0.331-1.71,0.864-2.304c2.016-2.25,3.78-3.727,5.184-3.727
		c0.504,0,1.332,0.45,1.584,0.738c0.396,0.432,0.937,0.972,1.656,0.972c0.936,0,1.692-1.008,1.692-1.979
		c0-0.72-0.433-1.836-2.053-1.836c-4.355,0-6.155,1.638-8.567,4.176C299.746,627.104,299.696,626.812,299.696,625.624
		 M276.621,635.704v-9.72h6.587c0.323,0,0.864-0.144,0.864-0.468v-0.9c0-0.144-0.107-0.216-0.289-0.216h-7.162v-2.52
		c0-4.572,3.096-5.4,4.283-5.4c1.512,0,2.304,0.864,3.061,2.736c0.306,0.763,0.972,1.008,1.8,1.008c0.683,0,1.584-0.54,1.584-1.62
		c0-0.72-0.504-1.656-1.225-2.124c-1.403-0.914-3.132-1.368-4.859-1.368c-3.24,0-7.776,1.44-7.776,7.38v1.908h-3.24
		c-0.647,0-0.863,0.432-0.863,0.72v0.648c0,0.18,0.072,0.216,0.216,0.216h3.888v9.72c0,1.729-0.107,2.412-0.611,2.772
		c-0.36,0.288-1.477,0.432-4.213,0.504c-0.217,0.216-0.217,1.116,0,1.332c1.512-0.036,3.909-0.072,6.408-0.072
		c3.398,0,7.164,0.036,8.711,0.072c0.217-0.216,0.217-1.116,0-1.332c-3.814-0.145-6.011-0.252-6.443-0.504
		C276.729,638.116,276.621,637.433,276.621,635.704 M240.297,624.652c0.756,0,1.476-0.72,1.476-1.512
		c0-0.828-0.756-1.477-1.836-1.477c-1.044,0-2.989,0.685-4.032,2.053c-0.468-0.324-1.8-1.116-4.537-1.116
		c-3.923,0-7.199,2.376-7.199,6.084c0,2.16,1.152,3.42,2.269,4.5c-1.116,0.972-1.585,2.664-1.585,4.032
		c0,1.439,0.793,2.592,1.837,3.096c-2.16,1.296-3.563,2.808-3.563,4.355c0,3.133,3.6,4.104,6.84,4.104
		c5.724,0,11.808-2.34,11.808-6.229c0-1.151-0.685-2.016-1.908-2.987c-1.62-1.296-4.608-1.332-6.155-1.332
		c-0.758,0-1.801,0.107-2.809,0.216c-0.648,0.036-1.08,0.072-1.296,0.072c-1.224,0-2.628-0.54-2.628-2.269
		c0-0.792,0.072-1.655,0.54-2.34c0.972,0.576,2.267,0.828,3.815,0.828c3.889,0,7.164-2.196,7.164-6.12
		c0-1.872-0.576-2.988-1.728-4.176c0.288-0.396,1.08-0.972,1.583-0.972c0.289,0,0.576,0.107,0.828,0.468
		C239.324,624.257,239.864,624.652,240.297,624.652 M227.408,640.601c0.432,0.107,1.152,0.216,1.692,0.216
		c1.332,0,2.448-0.144,3.06-0.144c2.123,0,4.032-0.108,5.256,0.54c1.621,0.899,2.053,1.331,2.053,2.268c0,2.592-4.5,3.96-8.28,3.96
		c-2.269,0-5.292-1.044-5.292-3.492C225.896,642.725,226.256,642.004,227.408,640.601 M235.293,629.009
		c0,3.743-1.944,4.392-3.744,4.392c-3.385,0-4.104-2.771-4.104-5.328c0-2.808,1.044-4.14,3.563-4.14
		C233.924,623.933,235.293,625.66,235.293,629.009 M205.772,626.236c-0.108,0.145-0.325,0.504-0.325,0
		c0-2.2-0.117-3.085-0.287-3.456c-0.076-0.166-0.144-0.288-0.432-0.288c-1.008,0.396-2.34,0.721-4.824,1.044
		c-0.072,0.216,0,0.792,0.072,1.008c1.943,0.181,2.34,0.36,2.34,2.448v8.712c0,2.952-0.359,3.057-2.88,3.276
		c-0.216,0.216-0.216,1.116,0,1.332c1.476-0.036,2.88-0.072,4.428-0.072c1.404,0,2.231,0.036,3.744,0.072
		c0.216-0.216,0.216-1.116,0-1.332c-1.836-0.18-2.161-0.324-2.161-3.276v-6.876c0-0.756,0.325-1.188,0.613-1.512
		c1.367-1.332,3.384-2.844,5.58-2.844c0.72,0,1.406,0.508,1.908,1.296c0.432,0.684,0.539,1.691,0.539,2.771v7.164
		c0,2.952-0.359,3.097-2.231,3.276c-0.181,0.216-0.181,1.116,0,1.332c1.511-0.036,2.34-0.072,3.78-0.072
		c1.476,0,2.808,0.036,4.355,0.072c0.18-0.216,0.18-1.116,0-1.332c-2.377-0.148-2.771-0.324-2.771-3.276v-7.056
		c0-1.98-0.145-3.78-1.08-4.824c-0.67-0.745-1.729-1.224-2.988-1.224C210.272,622.601,207.969,623.788,205.772,626.236
		 M189.141,635.416v-8.567c0-2.441,0.504-3.042,0.504-3.889c0-0.233-0.26-0.468-0.504-0.468c-0.403,0-1.404,0.228-2.369,0.4
		c-1.643,0.295-4.694,0.579-6.271,0.68c-0.107,0.307-0.072,0.9,0.072,1.188c3.438,0.071,4.723,0.14,5.04,0.54
		c0.343,0.432,0.396,0.899,0.396,1.836v8.279c0,1.692-0.144,2.376-0.647,2.772c-0.396,0.288-4.571,0.72-6.336,0.792
		c-0.216,0.216-0.216,1.116,0,1.332c1.513-0.036,6.983-0.072,8.604-0.072c1.512,0,6.588,0.036,8.136,0.072
		c0.216-0.216,0.216-1.116,0-1.332c-1.944-0.072-5.58-0.504-5.976-0.792C189.248,637.828,189.141,637.145,189.141,635.416
		 M185.324,616.841c0,1.079,0.973,2.159,1.944,2.159c1.116,0,2.088-1.115,2.088-1.979c0-1.008-0.864-2.16-1.944-2.16
		C186.44,614.86,185.324,615.832,185.324,616.841 M155.984,624.4c-0.504,0-0.648,0.432-0.648,0.72v0.648
		c0,0.18,0.037,0.216,0.181,0.216h4.032v9.252c0,4.032,2.375,5.364,5.543,5.364c2.106,0,4.537-1.116,7.453-2.736
		c-0.072-0.371-0.289-0.972-0.648-1.008c-1.963,0.828-3.979,1.62-5.545,1.62c-1.835,0-3.672-0.72-3.672-4.968v-7.524h7.345
		c0.36,0,0.864-0.144,0.864-0.468v-0.9c0-0.144-0.108-0.216-0.288-0.216h-7.921v-3.204c0-2.34,0.145-3.78,0.145-3.78
		c0-0.229-0.107-0.316-0.277-0.316c-0.264,0-1.029,0.399-1.596,0.637c-0.611,0.256-1.511,0.328-1.511,0.688
		c0,0.418,0.108,1.979,0.108,5.972L155.984,624.4z M150.944,636.353c-0.144-0.36-0.647-0.864-1.044-0.9
		c-2.268,2.34-5.04,3.204-6.876,3.204c-4.032,0-6.912-3.312-6.912-7.668c0-4.212,2.16-6.912,5.832-6.912
		c2.521,0,4.572,1.44,4.824,3.276c0.147,1.076,0.937,1.728,1.8,1.728c1.08,0,1.691-0.697,1.691-2.052c0-0.77-0.442-1.624-1.26-2.304
		c-1.516-1.26-4.197-2.124-6.84-2.124c-5.076,0-9.324,3.888-9.324,9.252c0,4.86,3.349,8.748,9.289,8.748
		C144.68,640.601,147.705,640.024,150.944,636.353 M127.256,636.316c-1.691,1.548-3.563,2.484-6.264,2.484
		c-2.311,0-4.5-0.792-5.976-2.881c-0.901-1.367-1.332-2.483-1.332-4.859h13.5c0.504,0,0.864-0.612,0.864-1.044
		c0-3.384-2.018-7.416-8.137-7.416c-4.968,0-9.684,3.42-9.684,9.504c0,2.231,0.756,4.428,2.232,5.939
		c1.512,1.62,4.283,2.557,7.451,2.557c3.385,0,6.371-1.404,8.172-3.492C127.977,636.713,127.797,636.353,127.256,636.316
		 M113.864,629.584c0.828-4.319,3.673-5.544,5.976-5.544c1.729,0,4.607,1.009,4.607,4.464c0,0.36-0.215,0.93-0.719,0.937
		L113.864,629.584z M95.055,635.597c0,1.703-0.127,2.376-0.631,2.771c-0.396,0.288-5.482,0.565-6.426,0.612
		c-0.216,0.216-0.216,1.116,0,1.332c1.512-0.036,5.271-0.072,8.641-0.072c3.244,0,6.768,0.036,8.316,0.072
		c0.215-0.216,0.215-1.116,0-1.332c-0.9-0.043-5.672-0.36-6.066-0.612c-0.576-0.359-0.702-1.008-0.702-2.771v-16.345
		c0-2.34,0.144-3.779,0.144-3.779c0-0.252-0.144-0.36-0.468-0.36c-1.332,0.36-5.616,0.864-7.056,0.972
		c-0.072,0.288-0.072,0.973,0.144,1.188c1.458,0,2.802,0.025,3.618,0.702c0.374,0.31,0.486,1.396,0.486,2.897V635.597z
		 M81.896,636.316c-1.691,1.548-3.564,2.484-6.264,2.484c-2.312,0-4.5-0.792-5.977-2.881c-0.9-1.367-1.332-2.483-1.332-4.859h13.5
		c0.504,0,0.864-0.612,0.864-1.044c0-3.384-2.017-7.416-8.136-7.416c-4.969,0-9.686,3.42-9.686,9.504
		c0,2.231,0.758,4.428,2.233,5.939c1.512,1.62,4.284,2.557,7.452,2.557c3.384,0,6.371-1.404,8.172-3.492
		C82.615,636.713,82.437,636.353,81.896,636.316 M68.504,629.584c0.828-4.319,3.672-5.544,5.977-5.544
		c1.729,0,4.607,1.009,4.607,4.464c0,0.36-0.215,0.93-0.721,0.937L68.504,629.584z M57.776,618.677
		c-2.521-0.288-2.521-0.937-6.769-0.937c-4.428,0-8.387,1.692-8.387,6.264c0,3.637,3.819,5.797,7.739,6.192
		c3.563,0.36,5.976,1.296,5.976,4.933c0,2.771-2.123,4.104-5.615,4.104c-4.068,0-6.732-1.332-7.704-4.752
		c-0.54-0.145-1.044-0.072-1.44,0.108c0.18,2.628,0.36,3.527,0.864,5.22c2.735,0,4.032,0.792,7.92,0.792
		c1.979,0,3.96-0.396,5.472-1.152c2.484-1.224,4.104-3.096,4.104-5.508c0-4.104-3.097-5.94-7.237-6.372
		c-2.753-0.288-7.055-1.584-7.055-4.464c0-2.521,2.412-4.032,4.968-4.032c4.248,0,5.651,1.944,6.517,4.212
		c0.504,0,1.043,0.036,1.439-0.216C58.424,621.412,58.209,620.477,57.776,618.677"/>
</g>
<line fill="none" stroke="#0046F9" stroke-width="2" x1="26.125" y1="581.42" x2="539.125" y2="581.42"/>
<line fill="none" stroke="#0046F9" stroke-width="2" x1="26.125" y1="784.119" x2="539.125" y2="784.119"/>
<g>
	<defs>
		<rect id="SVGID_117_" width="564" height="1002"/>
	</defs>
	<clipPath id="SVGID_8_">
		<use xlink:href="#SVGID_117_"  overflow="visible"/>
	</clipPath>
	<path clip-path="url(#SVGID_8_)" fill="#0046F9" d="M444.063,944.488c11.916-13.619,22.981-24.116,32.628-31.493
		c11.065-8.512,20.994-14.186,29.508-17.022v-6.526c-11.916-5.107-22.131-11.065-30.358-18.725
		c-16.456-15.037-27.237-25.535-31.777-31.21h-19.576c4.54,9.646,9.362,18.441,14.186,26.386
		c3.972,5.959,8.228,11.633,13.619,17.307H46.581v17.308h405.995c-7.377,9.078-11.633,15.037-13.903,18.726
		c-5.958,9.646-10.781,18.158-13.618,25.251H444.063z"/>
</g>
<line fill="none" stroke="#0046F9" stroke-width="2" x1="22.698" y1="160.594" x2="259.198" y2="160.594"/>
<g>
	<defs>
		<rect id="SVGID_119_" width="564" height="1002"/>
	</defs>
	<clipPath id="SVGID_10_">
		<use xlink:href="#SVGID_119_"  overflow="visible"/>
	</clipPath>
	<path clip-path="url(#SVGID_10_)" fill="#0046F9" d="M228.52,135.186h10.789V39.635H228.52v39.52h-4.16v-39.52h-10.791v95.551
		h10.791V93.585h4.16V135.186z M193.031,102.425v14.431c0,1.819-0.131,5.719-2.211,5.719c-1.56,0-1.819-3.899-1.819-5.719v-59.41
		c0-2.08,0.13-5.2,1.819-5.2c2.08,0,2.211,4.03,2.211,5.72v14.43h10.529v-14.43c0-6.76-2.47-19.37-12.869-19.37
		c-9.75,0-12.74,10.92-12.74,19.37v58.891c0,8.449,2.6,19.369,12.74,19.369c9.879,0,12.869-9.359,12.869-19.369v-14.431H193.031z
		 M153.511,53.545c0.65,0,2.08-0.13,2.99,1.3c1.04,1.56,1.17,5.851,1.17,12.87c0,6.891-0.13,11.7-1.3,13.391
		c-0.65,1.039-1.95,1.43-2.86,1.43V53.545z M169.631,135.186l-6.63-46.281c3.38-4.029,4.94-12.609,4.94-21.709
		c0-18.07-4.16-27.561-14.301-27.561h-10.92v95.551h10.79V93.585l5.591,41.601H169.631z M120.492,100.865h-4.03l1.95-37.961
		L120.492,100.865z M113.992,135.186l1.43-19.5h5.98l1.43,19.5h10.529l-8.58-95.551h-12.609l-8.71,95.551H113.992z M74.083,135.186
		h21.58v-14.431h-10.79v-26.26h7.8V79.154h-7.8v-25.09h10.79v-14.43h-21.58V135.186z M64.074,63.814c0-7.93-0.521-25.479-13-25.22
		c-10.4,0.261-12.09,14.04-12.09,22.36c0,7.41,2.99,16.9,5.85,24.57c5.59,13.39,8.58,20.539,8.58,28.6c0,6.109-0.26,9.23-2.21,9.23
		c-2.86,0-2.86-13.391-2.86-16.381l-10.529,1.561c0,8.71-0.261,27.689,13.39,27.689c11.18,0,12.87-13.65,12.87-22.75
		c0-9.619-3.51-18.72-8.19-30.029c-3.771-9.49-6.37-16.25-6.37-22.49c0-5.59,0.26-9.49,1.82-9.49c2.08,0,2.08,10.53,2.08,13.91
		L64.074,63.814z"/>
</g>
<path fill="#231F20" d="M194.803,493.16h46.199V542h-46.199V493.16z M73.362,429.8h33V318.92h-2.64l-2.641,9.68L73.362,429.8z
	 M106.362,471.6H32.883v-41.8l69.52-211.2h47.52v211.2h22v41.8h-22V542h-43.56V471.6z"/>
</svg>
