<?xml version="1.0" encoding="utf-8"?>
<!-- Generator: Adobe Illustrator 16.0.0, SVG Export Plug-In . SVG Version: 6.00 Build 0)  -->
<!DOCTYPE svg PUBLIC "-//W3C//DTD SVG 1.1//EN" "http://www.w3.org/Graphics/SVG/1.1/DTD/svg11.dtd">
<svg version="1.1" id="Layer_1" xmlns="http://www.w3.org/2000/svg" xmlns:xlink="http://www.w3.org/1999/xlink" x="0px" y="0px"
	 width="564px" height="1002px" viewBox="0 0 564 1002" enable-background="new 0 0 564 1002" xml:space="preserve">
<g>
	<defs>
		<rect id="SVGID_149_" width="564" height="1002"/>
	</defs>
	<clipPath id="SVGID_2_">
		<use xlink:href="#SVGID_149_"  overflow="visible"/>
	</clipPath>
	<path clip-path="url(#SVGID_2_)" fill="#FF1419" d="M499.277,52.21c-5.58,0-10.381,0.841-14.4,2.52
		c-4.021,1.68-7.081,4.02-9.18,7.02c-2.101,3.001-3.151,6.451-3.151,10.35c0,4.14,1.081,7.456,3.241,9.945
		c2.16,2.49,4.874,4.365,8.145,5.625c3.27,1.26,7.305,2.34,12.105,3.24c3.539,0.661,6.104,1.32,7.695,1.98
		c1.589,0.661,2.385,1.561,2.385,2.7c0,2.641-2.731,3.96-8.19,3.96c-4.021,0-7.515-0.615-10.485-1.845
		c-2.97-1.229-5.656-3.254-8.055-6.075l-8.55,12.6c3.6,3.181,7.499,5.505,11.7,6.975c4.199,1.47,9.72,2.205,16.56,2.205
		c4.918,0,9.329-0.72,13.23-2.16c3.898-1.44,6.989-3.569,9.27-6.39c2.279-2.82,3.42-6.21,3.42-10.17c0-3.72-0.796-6.84-2.385-9.36
		c-1.591-2.52-4.111-4.604-7.56-6.255c-3.451-1.65-8.055-2.984-13.815-4.005c-3.48-0.66-5.971-1.29-7.47-1.89
		c-1.501-0.599-2.25-1.44-2.25-2.52c0-1.38,0.72-2.489,2.16-3.33c1.44-0.84,3.449-1.26,6.03-1.26c3.538,0,6.674,0.616,9.405,1.845
		c2.729,1.231,5.294,3.226,7.695,5.985l9-11.61c-3.78-3.659-7.726-6.255-11.835-7.785C509.881,52.975,504.976,52.21,499.277,52.21
		 M454.729,53.11h-16.11v25.74l0.36,11.79h-0.09l-3.871-8.1l-16.199-29.43h-20.07v59.4h16.02V86.77l-0.359-11.79h0.18l3.78,8.1
		l16.2,29.43h20.16V53.11z M351.319,66.25c3.659,0,6.374,1.35,8.145,4.05c1.769,2.7,2.655,6.871,2.655,12.51
		c0,5.641-0.886,9.81-2.655,12.51c-1.771,2.7-4.486,4.05-8.145,4.05c-3.661,0-6.39-1.364-8.19-4.095c-1.8-2.73-2.7-6.885-2.7-12.465
		s0.9-9.734,2.7-12.465C344.929,67.615,347.658,66.25,351.319,66.25 M351.319,52.21c-6.12,0-11.416,1.201-15.886,3.6
		c-4.47,2.4-7.905,5.91-10.304,10.53c-2.401,4.621-3.6,10.111-3.6,16.47c0,6.36,1.199,11.85,3.6,16.47
		c2.399,4.621,5.834,8.131,10.304,10.53c4.47,2.4,9.766,3.6,15.886,3.6c9.299,0,16.56-2.685,21.78-8.055
		c5.22-5.369,7.83-12.884,7.83-22.545c0-9.66-2.61-17.174-7.83-22.545C367.879,54.896,360.618,52.21,351.319,52.21 M303.8,53.11
		h-18.36v59.4h18.36V53.11z M268.881,53.11h-56.339v13.77h19.08v45.63h18.36V66.88h18.899V53.11z M196.072,53.11h-18.36v59.4h18.36
		V53.11z M129.202,99.1h-6.66V66.52h6.66c4.32,0,7.38,1.305,9.18,3.915c1.799,2.61,2.7,6.736,2.7,12.375
		c0,5.641-0.9,9.765-2.7,12.375C136.582,97.795,133.522,99.1,129.202,99.1 M131.452,53.11h-27.271v59.4h27.271
		c9.239,0,16.304-2.565,21.195-7.695c4.89-5.13,7.335-12.465,7.335-22.005s-2.445-16.875-7.335-22.005
		C147.756,55.675,140.691,53.11,131.452,53.11 M57.023,98.74v-9.45h23.58V76.51h-23.58v-9.63h29.52V53.11h-47.88v59.4h49.05V98.74
		H57.023z"/>
	<path clip-path="url(#SVGID_2_)" fill="#231F20" d="M210.739,653.313c0-0.585,0-1.305-0.18-1.89c-0.225-0.54-0.585-0.99-1.305-0.99
		c-0.585,0-0.945,0.45-1.125,0.99c-0.225,0.54-0.271,1.305-0.271,1.89c0,0.765,0.405,1.575,0.991,2.295
		c0.54,0.72,1.259,1.44,1.98,2.115c0.945,0.945,2.069,2.025,2.835,3.24c0.765,1.26,1.35,2.654,1.35,4.274
		c0,1.575-0.36,3.24-1.26,4.5c-0.945,1.306-2.385,2.25-4.545,2.25c-2.745,0-4.365-1.26-5.265-2.79c-0.9-1.529-1.08-3.42-1.08-4.725
		h4.23c0,0.675,0.045,1.62,0.36,2.34c0.315,0.765,0.81,1.396,1.755,1.396c1.305,0,1.574-1.53,1.574-2.971
		c0-1.484-1.439-2.97-2.834-4.364c-1.08-1.035-2.115-1.98-2.925-3.195s-1.395-2.565-1.395-4.365c0-1.439,0.27-3.104,1.125-4.41
		c0.854-1.26,2.25-2.205,4.41-2.25c2.655-0.045,4.14,0.945,4.905,2.25c0.765,1.306,0.9,3.016,0.9,4.41H210.739z M192.559,671.629
		h-4.545v-24.615h4.545v2.07c0.089-0.045,0.27-0.226,0.54-0.495c0.495-0.495,1.17-1.17,1.98-1.62
		c0.405-0.226,0.765-0.315,1.17-0.315c1.215,0,2.07,0.721,2.609,1.62c0.54,0.945,0.811,2.16,0.811,3.195v20.16h-4.545v-19.485
		c0-0.945-0.54-1.08-1.08-1.08c-0.495,0-0.765,0.271-1.08,0.585c-0.135,0.18-0.27,0.36-0.405,0.585V671.629z M179.734,653.134
		c0.045-0.945-0.135-1.62-0.585-2.16c-0.225-0.225-0.584-0.36-0.99-0.36c-0.855,0-1.215,0.585-1.395,1.261
		c-0.135,0.359-0.18,0.765-0.135,1.26v12.375c-0.045,0.944,0.18,1.62,0.585,2.115c0.226,0.225,0.54,0.359,0.945,0.359
		c0.855,0,1.26-0.54,1.44-1.215c0.135-0.36,0.18-0.765,0.135-1.26V653.134z M184.009,665.644c-0.135,2.385-0.855,4.05-2.43,5.355
		c-0.81,0.675-1.935,0.989-3.42,0.989c-2.925,0-4.365-1.62-5.085-3.239c-0.404-0.945-0.675-2.025-0.719-3.24v-12.375
		c0.135-2.385,0.855-4.141,2.429-5.49c0.766-0.675,1.891-0.99,3.375-0.99c2.925,0,4.41,1.62,5.13,3.195
		c0.405,0.945,0.675,1.979,0.72,3.15V665.644z M163.804,647.014h4.545v24.615h-4.545V647.014z M163.804,638.554h4.545v4.545h-4.545
		V638.554z M157.369,640.938v6.075h3.104v4.095h-3.104v12.24c0,0.765,0,1.755,0.18,2.565c0.18,0.81,0.54,1.484,1.26,1.484
		c0.36,0,0.81-0.045,1.125-0.09c0.18-0.045,0.36-0.045,0.54-0.09v4.455c-0.225,0.045-0.45,0.135-0.675,0.18
		c-0.45,0.09-1.035,0.135-1.755,0.135c-2.655,0-3.915-1.35-4.545-3.06s-0.676-3.78-0.676-5.22v-12.601h-2.294v-4.095h2.294v-6.075
		H157.369z M140.72,666.229c0,0.72,0.675,1.485,1.35,1.485c0.675,0,1.215-0.63,1.215-1.485v-13.814c0-0.855-0.54-1.485-1.215-1.485
		c-0.675,0-1.35,0.63-1.35,1.485V666.229z M136.175,647.014h4.545v1.62c0.765-0.72,1.439-1.26,2.34-1.665
		c0.405-0.226,0.855-0.315,1.26-0.315c1.26,0,2.115,0.721,2.7,1.62c0.54,0.945,0.81,2.16,0.81,3.195v15.705
		c0,1.035-0.271,2.25-0.81,3.149c-0.585,0.945-1.44,1.665-2.7,1.665c-0.855,0-1.755-0.495-2.43-0.989
		c-0.405-0.315-0.765-0.631-1.17-0.99v10.08h-4.545V647.014z M127.13,647.014h4.545v24.615h-4.545V647.014z M127.13,638.554h4.545
		v4.545h-4.545V638.554z M124.25,651.693c-0.405-0.135-0.855-0.18-1.261-0.18c-0.719,0-1.574,0.09-2.294,0.765
		c-0.855,0.721-0.99,1.485-0.99,2.25v17.101h-4.546v-24.615h4.546v2.745c0.045-0.315,0.359-1.08,1.08-1.8
		c0.72-0.676,1.8-1.306,3.465-1.306V651.693z M104.361,665.959c0,0.899,0.045,1.979,1.26,1.979c1.035,0,1.305-0.495,1.305-1.979
		v-3.42h4.545v2.385c0,2.745-0.495,4.5-1.485,5.58s-2.43,1.484-4.365,1.484c-1.62,0-3.105-0.449-4.14-1.574
		c-1.036-1.125-1.666-2.971-1.666-5.716v-10.755c0-2.745,0.63-4.59,1.666-5.715c1.034-1.125,2.52-1.575,4.14-1.575
		c1.935,0,3.375,0.405,4.365,1.485s1.485,2.835,1.485,5.58v1.935h-4.545v-2.97c0-1.485-0.27-1.98-1.305-1.98
		c-1.215,0-1.26,1.08-1.26,1.98V665.959z M92.301,653.313c0-0.585,0-1.305-0.18-1.89c-0.225-0.54-0.585-0.99-1.305-0.99
		c-0.584,0-0.945,0.45-1.125,0.99c-0.225,0.54-0.27,1.305-0.27,1.89c0,0.765,0.404,1.575,0.99,2.295c0.54,0.72,1.26,1.44,1.98,2.115
		c0.945,0.945,2.07,2.025,2.834,3.24c0.765,1.26,1.35,2.654,1.35,4.274c0,1.575-0.359,3.24-1.259,4.5
		c-0.945,1.306-2.385,2.25-4.544,2.25c-2.746,0-4.366-1.26-5.266-2.79c-0.899-1.529-1.08-3.42-1.08-4.725h4.23
		c0,0.675,0.045,1.62,0.36,2.34c0.315,0.765,0.81,1.396,1.756,1.396c1.304,0,1.574-1.53,1.574-2.971c0-1.484-1.44-2.97-2.835-4.364
		c-1.08-1.035-2.114-1.98-2.925-3.195c-0.81-1.215-1.396-2.565-1.396-4.365c0-1.439,0.271-3.104,1.125-4.41
		c0.855-1.26,2.25-2.205,4.41-2.25c2.655-0.045,4.14,0.945,4.905,2.25c0.766,1.306,0.9,3.016,0.9,4.41H92.301z M74.121,671.629
		h-4.546v-24.615h4.546v2.07c0.09-0.045,0.27-0.226,0.54-0.495c0.495-0.495,1.17-1.17,1.98-1.62c0.405-0.226,0.765-0.315,1.17-0.315
		c1.215,0,2.07,0.721,2.61,1.62c0.54,0.945,0.811,2.16,0.811,3.195v20.16h-4.545v-19.485c0-0.945-0.54-1.08-1.08-1.08
		c-0.496,0-0.766,0.271-1.081,0.585c-0.135,0.18-0.27,0.36-0.405,0.585V671.629z M61.159,659.749
		c-2.204,0.944-3.149,3.149-3.149,5.489c0,0.315,0.045,0.855,0.225,1.351c0.181,0.54,0.496,0.944,1.036,0.944
		c1.035,0,1.889-0.63,1.889-1.484V659.749z M61.159,652.863c0-0.404,0-1.035-0.135-1.484c-0.18-0.45-0.54-0.766-1.125-0.766
		c-0.765,0-1.08,0.585-1.215,1.306c-0.045,0.359-0.09,0.765-0.09,1.17v1.17H54.05v-1.035c0-1.8,0.675-3.42,1.755-4.635
		c1.08-1.215,2.61-1.936,4.365-1.936c1.485,0,2.835,0.585,3.87,1.575c1.035,0.99,1.665,2.385,1.665,4.005v15.12
		c0,2.205,0.135,3.195,0.315,4.275h-4.456c-0.405-0.495-0.405-1.665-0.405-1.98h-0.314c-0.225,0.405-0.63,0.99-1.26,1.485
		s-1.485,0.854-2.386,0.854c-0.584,0-1.529-0.225-2.25-1.125c-0.764-0.854-1.395-2.385-1.395-4.949c0-2.745,0.81-4.726,1.89-6.075
		c1.08-1.351,2.43-2.205,3.555-2.79s1.98-0.99,2.159-1.485V652.863z M51.756,651.693c-0.405-0.135-0.855-0.18-1.26-0.18
		c-0.72,0-1.575,0.09-2.295,0.765c-0.855,0.721-0.99,1.485-0.99,2.25v17.101h-4.545v-24.615h4.545v2.745
		c0.045-0.315,0.36-1.08,1.08-1.8c0.72-0.676,1.8-1.306,3.465-1.306V651.693z M36.231,640.938v6.075h3.104v4.095h-3.104v12.24
		c0,0.765,0,1.755,0.18,2.565c0.18,0.81,0.54,1.484,1.26,1.484c0.36,0,0.811-0.045,1.125-0.09c0.18-0.045,0.36-0.045,0.54-0.09
		v4.455c-0.225,0.045-0.45,0.135-0.675,0.18c-0.45,0.09-1.035,0.135-1.755,0.135c-2.655,0-3.915-1.35-4.545-3.06
		c-0.629-1.71-0.675-3.78-0.675-5.22v-12.601h-2.295v-4.095h2.295v-6.075H36.231z"/>
	<path clip-path="url(#SVGID_2_)" fill="#231F20" d="M519.886,621.754c-0.945,0.54-1.665,1.215-1.665,2.16
		c0,0.944,0.854,1.71,2.97,1.71c0.766,0,1.621-0.136,2.295-0.405c0.675-0.271,1.17-0.675,1.17-1.26c0-0.405-0.045-0.721-0.36-1.035
		c-0.36-0.315-0.945-0.54-2.07-0.721L519.886,621.754z M522.001,602.089c0-0.855-0.18-1.396-0.54-1.89
		c-0.18-0.225-0.45-0.36-0.854-0.36c-0.721,0-1.081,0.585-1.216,1.125c-0.09,0.315-0.135,0.72-0.09,1.125v6.75
		c-0.045,0.854,0.09,1.395,0.495,1.845c0.18,0.225,0.45,0.36,0.811,0.36c0.765,0,1.08-0.54,1.259-1.08
		c0.091-0.315,0.136-0.721,0.136-1.125V602.089z M526.456,608.749c-0.135,2.295-0.945,3.915-2.52,5.13
		c-0.81,0.63-1.935,0.944-3.33,0.944h-0.406c-0.135,0-0.315,0-0.45-0.045c-0.405,0.36-0.63,0.721-0.63,1.125
		c0,0.54,0.45,0.855,1.125,1.035c0.675,0.226,1.485,0.36,2.34,0.495c1.44,0.18,2.97,0.54,4.23,1.395
		c1.215,0.855,2.07,2.16,2.07,4.32c0,2.385-1.035,4.005-2.475,4.95c-1.485,0.945-3.465,1.35-5.31,1.35
		c-2.161-0.045-4.005-0.359-5.265-1.08c-1.305-0.72-2.025-1.89-2.025-3.689c0-0.855,0.45-1.575,1.125-2.205
		c0.675-0.63,1.575-1.125,2.429-1.53c-1.484-0.404-2.744-1.35-2.744-3.285c0-0.72,0.405-1.439,0.945-2.114
		c0.541-0.676,1.215-1.216,1.89-1.575c-1.306-0.855-1.935-2.205-2.25-3.33c-0.18-0.675-0.315-1.35-0.36-2.025v-6.705
		c0.18-2.295,0.9-3.96,2.475-5.265c0.765-0.675,1.89-0.99,3.286-0.99c2.294,0,3.689,1.035,4.544,2.25
		c0.315-0.315,0.855-0.855,1.575-1.35c0.675-0.495,1.44-0.9,2.16-0.9v4.05c-1.215,0-2.114,0.225-2.654,0.54
		c0.044,0.225,0.089,0.45,0.134,0.585c0,0.18,0,0.36,0.046,0.495c0.045,0.135,0.045,0.315,0.045,0.45V608.749z M503.821,620.629
		h-4.545v-24.615h4.545v2.07c0.09-0.045,0.27-0.225,0.54-0.495c0.496-0.495,1.17-1.17,1.98-1.62c0.405-0.225,0.766-0.315,1.17-0.315
		c1.215,0,2.07,0.72,2.61,1.62c0.54,0.945,0.81,2.16,0.81,3.195v20.16h-4.545v-19.485c0-0.945-0.54-1.08-1.08-1.08
		c-0.495,0-0.765,0.27-1.08,0.585c-0.135,0.18-0.27,0.36-0.405,0.585V620.629z M490.231,596.014h4.544v24.615h-4.544V596.014z
		 M490.231,587.554h4.544v4.545h-4.544V587.554z M487.352,600.693c-0.405-0.135-0.854-0.18-1.26-0.18
		c-0.72,0-1.575,0.09-2.295,0.765c-0.855,0.72-0.99,1.485-0.99,2.25v17.101h-4.545v-24.615h4.545v2.745
		c0.045-0.315,0.36-1.08,1.08-1.8c0.72-0.675,1.801-1.305,3.465-1.305V600.693z M469.846,608.749
		c-2.205,0.944-3.15,3.149-3.15,5.489c0,0.315,0.045,0.855,0.225,1.351c0.18,0.54,0.495,0.944,1.035,0.944
		c1.035,0,1.89-0.63,1.89-1.484V608.749z M469.846,601.864c0-0.405,0-1.035-0.135-1.485c-0.18-0.45-0.54-0.765-1.125-0.765
		c-0.765,0-1.08,0.585-1.215,1.305c-0.046,0.36-0.09,0.765-0.09,1.17v1.17h-4.545v-1.035c0-1.8,0.675-3.42,1.755-4.635
		c1.08-1.215,2.61-1.935,4.366-1.935c1.484,0,2.834,0.585,3.869,1.575c1.035,0.99,1.665,2.385,1.665,4.005v15.12
		c0,2.205,0.135,3.195,0.315,4.275h-4.455c-0.405-0.495-0.405-1.665-0.405-1.98h-0.315c-0.225,0.405-0.63,0.99-1.259,1.485
		c-0.631,0.495-1.485,0.854-2.386,0.854c-0.585,0-1.529-0.225-2.25-1.125c-0.765-0.854-1.395-2.385-1.395-4.949
		c0-2.745,0.81-4.726,1.89-6.075c1.08-1.351,2.43-2.205,3.555-2.79s1.98-0.99,2.16-1.485V601.864z M451.801,615.229
		c0,0.72,0.675,1.485,1.35,1.485s1.215-0.63,1.215-1.485v-13.815c0-0.855-0.54-1.485-1.215-1.485s-1.35,0.63-1.35,1.485V615.229z
		 M447.256,596.014h4.545v1.62c0.765-0.72,1.44-1.26,2.34-1.665c0.405-0.225,0.855-0.315,1.26-0.315c1.261,0,2.115,0.72,2.701,1.62
		c0.54,0.945,0.81,2.16,0.81,3.195v15.705c0,1.035-0.271,2.25-0.81,3.149c-0.585,0.945-1.44,1.665-2.701,1.665
		c-0.854,0-1.754-0.495-2.43-0.989c-0.405-0.315-0.765-0.631-1.17-0.99v10.08h-4.545V596.014z M435.647,620.629h-4.275v-19.485
		c0-0.945-0.72-1.08-1.215-1.08c-0.495,0-0.9,0.27-1.215,0.585c-0.18,0.18-0.36,0.36-0.495,0.585v19.396h-4.545v-24.615h4.545v2.07
		c0.09-0.045,0.27-0.225,0.54-0.495c0.495-0.495,1.26-1.17,2.07-1.62c0.405-0.225,0.765-0.315,1.17-0.315
		c1.62,0,2.565,1.305,3.06,2.745c0.18-0.135,0.405-0.36,0.72-0.675c0.585-0.63,1.35-1.215,2.205-1.71
		c0.405-0.225,0.811-0.36,1.215-0.36c1.215,0,2.07,0.72,2.61,1.62c0.54,0.945,0.81,2.16,0.81,3.195v20.16h-4.275v-19.485
		c0-0.945-0.72-1.08-1.215-1.08c-0.495,0-0.899,0.27-1.215,0.585c-0.18,0.18-0.36,0.36-0.494,0.585V620.629z M415.622,602.134
		c0.045-0.945-0.135-1.62-0.585-2.16c-0.225-0.225-0.586-0.36-0.99-0.36c-0.855,0-1.215,0.585-1.395,1.26
		c-0.135,0.36-0.18,0.765-0.135,1.26v12.375c-0.045,0.944,0.18,1.62,0.584,2.115c0.225,0.225,0.54,0.359,0.945,0.359
		c0.855,0,1.26-0.54,1.44-1.215c0.135-0.36,0.18-0.765,0.135-1.26V602.134z M419.897,614.644c-0.136,2.385-0.855,4.05-2.431,5.355
		c-0.81,0.675-1.936,0.989-3.42,0.989c-2.925,0-4.365-1.62-5.085-3.239c-0.405-0.945-0.675-2.025-0.721-3.24v-12.375
		c0.136-2.385,0.855-4.14,2.431-5.49c0.766-0.675,1.891-0.99,3.375-0.99c2.925,0,4.41,1.62,5.13,3.195
		c0.405,0.945,0.675,1.98,0.721,3.15V614.644z M397.757,614.959c0,0.899,0.045,1.979,1.26,1.979c1.035,0,1.305-0.495,1.305-1.979
		v-3.42h4.545v2.385c0,2.745-0.495,4.5-1.485,5.58s-2.431,1.484-4.365,1.484c-1.62,0-3.105-0.449-4.14-1.574
		s-1.665-2.971-1.665-5.716v-10.755c0-2.745,0.63-4.59,1.665-5.715s2.521-1.575,4.14-1.575c1.934,0,3.375,0.405,4.365,1.485
		s1.485,2.835,1.485,5.58v1.935h-4.545v-2.97c0-1.485-0.27-1.98-1.305-1.98c-1.215,0-1.26,1.08-1.26,1.98V614.959z M376.698,601.414
		c0-0.72-0.675-1.485-1.35-1.485s-1.215,0.63-1.215,1.485v13.815c0,0.855,0.54,1.485,1.215,1.485s1.35-0.63,1.35-1.485V601.414z
		 M381.243,620.629h-4.545v-1.62c-0.765,0.72-1.44,1.26-2.295,1.665c-0.45,0.225-0.9,0.314-1.305,0.314
		c-1.26,0-2.115-0.72-2.655-1.665c-0.584-0.899-0.854-2.114-0.854-3.149v-15.705c0-1.035,0.27-2.25,0.854-3.195
		c0.54-0.9,1.396-1.62,2.655-1.62c0.855,0,1.755,0.495,2.43,0.99c0.405,0.315,0.765,0.63,1.17,0.99v-10.08h4.545V620.629z
		 M358.248,620.629h-4.544v-24.615h4.544v2.07c0.091-0.045,0.271-0.225,0.541-0.495c0.494-0.495,1.17-1.17,1.98-1.62
		c0.404-0.225,0.764-0.315,1.17-0.315c1.214,0,2.069,0.72,2.608,1.62c0.541,0.945,0.81,2.16,0.81,3.195v20.16h-4.543v-19.485
		c0-0.945-0.541-1.08-1.082-1.08c-0.495,0-0.764,0.27-1.079,0.585c-0.135,0.18-0.27,0.36-0.406,0.585V620.629z M345.288,608.749
		c-2.205,0.944-3.15,3.149-3.15,5.489c0,0.315,0.045,0.855,0.225,1.351c0.18,0.54,0.495,0.944,1.035,0.944
		c1.035,0,1.89-0.63,1.89-1.484V608.749z M345.288,601.864c0-0.405,0-1.035-0.135-1.485c-0.18-0.45-0.54-0.765-1.125-0.765
		c-0.765,0-1.08,0.585-1.214,1.305c-0.046,0.36-0.091,0.765-0.091,1.17v1.17h-4.545v-1.035c0-1.8,0.675-3.42,1.755-4.635
		c1.08-1.215,2.61-1.935,4.365-1.935c1.485,0,2.835,0.585,3.87,1.575c1.035,0.99,1.665,2.385,1.665,4.005v15.12
		c0,2.205,0.135,3.195,0.315,4.275h-4.456c-0.404-0.495-0.404-1.665-0.404-1.98h-0.315c-0.225,0.405-0.63,0.99-1.26,1.485
		s-1.485,0.854-2.385,0.854c-0.585,0-1.53-0.225-2.25-1.125c-0.765-0.854-1.395-2.385-1.395-4.949c0-2.745,0.81-4.726,1.89-6.075
		c1.08-1.351,2.43-2.205,3.555-2.79s1.98-0.99,2.16-1.485V601.864z M322.699,602.313c0-0.585,0-1.305-0.18-1.89
		c-0.225-0.54-0.585-0.99-1.305-0.99c-0.585,0-0.945,0.45-1.125,0.99c-0.225,0.54-0.27,1.305-0.27,1.89
		c0,0.765,0.405,1.575,0.99,2.295c0.54,0.72,1.26,1.44,1.98,2.115c0.945,0.945,2.069,2.025,2.835,3.24
		c0.765,1.26,1.35,2.654,1.35,4.274c0,1.575-0.36,3.24-1.26,4.5c-0.945,1.306-2.385,2.25-4.545,2.25c-2.745,0-4.365-1.26-5.265-2.79
		c-0.9-1.529-1.081-3.42-1.081-4.725h4.23c0,0.675,0.045,1.62,0.36,2.34c0.315,0.765,0.81,1.396,1.755,1.396
		c1.305,0,1.575-1.53,1.575-2.971c0-1.484-1.44-2.97-2.835-4.364c-1.08-1.035-2.115-1.98-2.925-3.195s-1.395-2.565-1.395-4.365
		c0-1.44,0.27-3.105,1.125-4.41c0.855-1.26,2.25-2.205,4.41-2.25c2.655-0.045,4.14,0.945,4.905,2.25c0.765,1.305,0.9,3.015,0.9,4.41
		H322.699z M304.519,620.629h-4.545v-33.075h4.545v10.53c0.089-0.045,0.27-0.225,0.54-0.495c0.495-0.495,1.17-1.17,1.98-1.62
		c0.405-0.225,0.765-0.315,1.17-0.315c1.215,0,2.07,0.72,2.61,1.62c0.54,0.945,0.81,2.16,0.81,3.195v20.16h-4.545v-19.485
		c0-0.945-0.54-1.08-1.08-1.08c-0.495,0-0.765,0.27-1.08,0.585c-0.135,0.18-0.27,0.36-0.405,0.585V620.629z M288.544,615.229
		c0,0.72,0.675,1.485,1.35,1.485c0.675,0,1.214-0.63,1.214-1.485v-13.815c0-0.855-0.54-1.485-1.214-1.485
		c-0.675,0-1.35,0.63-1.35,1.485V615.229z M283.999,596.014h4.545v1.62c0.765-0.72,1.44-1.26,2.34-1.665
		c0.405-0.225,0.855-0.315,1.26-0.315c1.26,0,2.115,0.72,2.7,1.62c0.54,0.945,0.81,2.16,0.81,3.195v15.705
		c0,1.035-0.27,2.25-0.81,3.149c-0.585,0.945-1.44,1.665-2.7,1.665c-0.855,0-1.755-0.495-2.43-0.989
		c-0.405-0.315-0.765-0.631-1.17-0.99v10.08h-4.545V596.014z M275.584,608.749c-2.205,0.944-3.15,3.149-3.15,5.489
		c0,0.315,0.046,0.855,0.225,1.351c0.18,0.54,0.495,0.944,1.035,0.944c1.036,0,1.89-0.63,1.89-1.484V608.749z M275.584,601.864
		c0-0.405,0-1.035-0.135-1.485c-0.18-0.45-0.54-0.765-1.125-0.765c-0.764,0-1.079,0.585-1.215,1.305
		c-0.044,0.36-0.089,0.765-0.089,1.17v1.17h-4.545v-1.035c0-1.8,0.675-3.42,1.756-4.635c1.08-1.215,2.609-1.935,4.364-1.935
		c1.485,0,2.835,0.585,3.87,1.575c1.035,0.99,1.665,2.385,1.665,4.005v15.12c0,2.205,0.135,3.195,0.315,4.275h-4.455
		c-0.405-0.495-0.405-1.665-0.405-1.98h-0.315c-0.225,0.405-0.63,0.99-1.26,1.485s-1.485,0.854-2.385,0.854
		c-0.585,0-1.53-0.225-2.25-1.125c-0.766-0.854-1.395-2.385-1.395-4.949c0-2.745,0.81-4.726,1.89-6.075
		c1.08-1.351,2.43-2.205,3.555-2.79s1.98-0.99,2.16-1.485V601.864z M266.179,600.693c-0.405-0.135-0.855-0.18-1.26-0.18
		c-0.72,0-1.575,0.09-2.295,0.765c-0.855,0.72-0.99,1.485-0.99,2.25v17.101h-4.545v-24.615h4.545v2.745
		c0.045-0.315,0.36-1.08,1.08-1.8c0.72-0.675,1.8-1.305,3.465-1.305V600.693z M245.344,621.754c-0.945,0.54-1.665,1.215-1.665,2.16
		c0,0.944,0.854,1.71,2.97,1.71c0.766,0,1.621-0.136,2.295-0.405c0.675-0.271,1.17-0.675,1.17-1.26c0-0.405-0.045-0.721-0.36-1.035
		c-0.36-0.315-0.945-0.54-2.07-0.721L245.344,621.754z M247.459,602.089c0-0.855-0.18-1.396-0.54-1.89
		c-0.18-0.225-0.45-0.36-0.854-0.36c-0.721,0-1.081,0.585-1.215,1.125c-0.09,0.315-0.135,0.72-0.09,1.125v6.75
		c-0.045,0.854,0.09,1.395,0.495,1.845c0.18,0.225,0.45,0.36,0.811,0.36c0.765,0,1.08-0.54,1.259-1.08
		c0.091-0.315,0.136-0.721,0.136-1.125V602.089z M251.914,608.749c-0.135,2.295-0.945,3.915-2.52,5.13
		c-0.81,0.63-1.935,0.944-3.33,0.944h-0.406c-0.135,0-0.315,0-0.45-0.045c-0.405,0.36-0.63,0.721-0.63,1.125
		c0,0.54,0.45,0.855,1.125,1.035c0.675,0.226,1.485,0.36,2.34,0.495c1.44,0.18,2.97,0.54,4.23,1.395
		c1.215,0.855,2.07,2.16,2.07,4.32c0,2.385-1.035,4.005-2.475,4.95c-1.485,0.945-3.465,1.35-5.31,1.35
		c-2.161-0.045-4.005-0.359-5.265-1.08c-1.305-0.72-2.025-1.89-2.025-3.689c0-0.855,0.45-1.575,1.125-2.205
		c0.675-0.63,1.575-1.125,2.429-1.53c-1.484-0.404-2.744-1.35-2.744-3.285c0-0.72,0.405-1.439,0.945-2.114
		c0.541-0.676,1.215-1.216,1.89-1.575c-1.306-0.855-1.935-2.205-2.25-3.33c-0.18-0.675-0.315-1.35-0.36-2.025v-6.705
		c0.18-2.295,0.9-3.96,2.475-5.265c0.765-0.675,1.89-0.99,3.286-0.99c2.294,0,3.689,1.035,4.544,2.25
		c0.315-0.315,0.855-0.855,1.575-1.35c0.675-0.495,1.44-0.9,2.16-0.9v4.05c-1.215,0-2.114,0.225-2.654,0.54
		c0.044,0.225,0.089,0.45,0.134,0.585c0,0.18,0,0.36,0.046,0.495c0.045,0.135,0.045,0.315,0.045,0.45V608.749z M232.429,602.134
		c0.045-0.945-0.135-1.62-0.585-2.16c-0.225-0.225-0.585-0.36-0.989-0.36c-0.855,0-1.216,0.585-1.396,1.26
		c-0.136,0.36-0.18,0.765-0.136,1.26v12.375c-0.044,0.944,0.181,1.62,0.585,2.115c0.225,0.225,0.54,0.359,0.946,0.359
		c0.854,0,1.259-0.54,1.439-1.215c0.135-0.36,0.18-0.765,0.135-1.26V602.134z M236.704,614.644c-0.135,2.385-0.855,4.05-2.43,5.355
		c-0.81,0.675-1.935,0.989-3.419,0.989c-2.926,0-4.366-1.62-5.085-3.239c-0.405-0.945-0.675-2.025-0.72-3.24v-12.375
		c0.135-2.385,0.855-4.14,2.431-5.49c0.765-0.675,1.89-0.99,3.375-0.99c2.924,0,4.409,1.62,5.129,3.195
		c0.405,0.945,0.675,1.98,0.72,3.15V614.644z M219.02,589.938v6.075h3.105v4.095h-3.105v12.24c0,0.765,0,1.755,0.179,2.565
		c0.181,0.81,0.54,1.484,1.261,1.484c0.36,0,0.81-0.045,1.125-0.09c0.18-0.045,0.36-0.045,0.54-0.09v4.455
		c-0.225,0.045-0.45,0.135-0.676,0.18c-0.449,0.09-1.034,0.135-1.754,0.135c-2.655,0-3.915-1.35-4.545-3.06s-0.675-3.78-0.675-5.22
		v-12.601h-2.295v-4.095h2.295v-6.075H219.02z M204.709,596.014h4.545v24.615h-4.545v-2.07c-0.09,0.045-0.27,0.225-0.495,0.45
		c-0.54,0.54-1.17,1.17-1.98,1.62c-0.405,0.225-0.81,0.359-1.215,0.359c-1.215,0-2.07-0.72-2.61-1.665
		c-0.54-0.899-0.81-2.114-0.81-3.149v-20.16h4.545v19.485c0,0.944,0.54,1.079,1.08,1.079c0.495,0,0.765-0.27,1.08-0.585
		c0.136-0.135,0.27-0.359,0.405-0.585V596.014z M189.14,608.749c-2.205,0.944-3.15,3.149-3.15,5.489
		c0,0.315,0.045,0.855,0.226,1.351c0.18,0.54,0.495,0.944,1.035,0.944c1.035,0,1.89-0.63,1.89-1.484V608.749z M189.14,601.864
		c0-0.405,0-1.035-0.135-1.485c-0.18-0.45-0.54-0.765-1.125-0.765c-0.765,0-1.08,0.585-1.215,1.305
		c-0.045,0.36-0.09,0.765-0.09,1.17v1.17h-4.545v-1.035c0-1.8,0.675-3.42,1.755-4.635c1.08-1.215,2.61-1.935,4.365-1.935
		c1.485,0,2.834,0.585,3.87,1.575c1.035,0.99,1.665,2.385,1.665,4.005v15.12c0,2.205,0.135,3.195,0.315,4.275h-4.455
		c-0.405-0.495-0.405-1.665-0.405-1.98h-0.315c-0.225,0.405-0.63,0.99-1.26,1.485c-0.629,0.495-1.484,0.854-2.385,0.854
		c-0.585,0-1.53-0.225-2.25-1.125c-0.765-0.854-1.395-2.385-1.395-4.949c0-2.745,0.81-4.726,1.89-6.075
		c1.08-1.351,2.431-2.205,3.555-2.79c1.125-0.585,1.98-0.99,2.16-1.485V601.864z M162.68,621.754
		c-0.945,0.54-1.665,1.215-1.665,2.16c0,0.944,0.855,1.71,2.97,1.71c0.766,0,1.621-0.136,2.295-0.405
		c0.675-0.271,1.169-0.675,1.169-1.26c0-0.405-0.044-0.721-0.359-1.035c-0.36-0.315-0.945-0.54-2.07-0.721L162.68,621.754z
		 M164.795,602.089c0-0.855-0.18-1.396-0.54-1.89c-0.18-0.225-0.45-0.36-0.855-0.36c-0.72,0-1.08,0.585-1.215,1.125
		c-0.09,0.315-0.135,0.72-0.09,1.125v6.75c-0.045,0.854,0.09,1.395,0.495,1.845c0.18,0.225,0.45,0.36,0.81,0.36
		c0.765,0,1.08-0.54,1.259-1.08c0.091-0.315,0.136-0.721,0.136-1.125V602.089z M169.25,608.749c-0.135,2.295-0.945,3.915-2.52,5.13
		c-0.81,0.63-1.935,0.944-3.33,0.944h-0.405c-0.135,0-0.315,0-0.45-0.045c-0.405,0.36-0.63,0.721-0.63,1.125
		c0,0.54,0.45,0.855,1.125,1.035c0.675,0.226,1.484,0.36,2.34,0.495c1.44,0.18,2.97,0.54,4.23,1.395
		c1.215,0.855,2.07,2.16,2.07,4.32c0,2.385-1.035,4.005-2.475,4.95c-1.485,0.945-3.466,1.35-5.31,1.35
		c-2.161-0.045-4.005-0.359-5.265-1.08c-1.305-0.72-2.024-1.89-2.024-3.689c0-0.855,0.449-1.575,1.125-2.205
		c0.675-0.63,1.575-1.125,2.429-1.53c-1.484-0.404-2.744-1.35-2.744-3.285c0-0.72,0.405-1.439,0.945-2.114
		c0.54-0.676,1.215-1.216,1.89-1.575c-1.305-0.855-1.936-2.205-2.25-3.33c-0.18-0.675-0.315-1.35-0.36-2.025v-6.705
		c0.18-2.295,0.9-3.96,2.475-5.265c0.765-0.675,1.89-0.99,3.285-0.99c2.295,0,3.69,1.035,4.545,2.25
		c0.315-0.315,0.855-0.855,1.575-1.35c0.675-0.495,1.44-0.9,2.16-0.9v4.05c-1.215,0-2.115,0.225-2.655,0.54
		c0.045,0.225,0.09,0.45,0.135,0.585c0,0.18,0,0.36,0.046,0.495c0.045,0.135,0.045,0.315,0.045,0.45V608.749z M146.615,620.629
		h-4.544v-24.615h4.544v2.07c0.091-0.045,0.271-0.225,0.541-0.495c0.495-0.495,1.169-1.17,1.98-1.62
		c0.405-0.225,0.765-0.315,1.17-0.315c1.216,0,2.07,0.72,2.61,1.62c0.54,0.945,0.81,2.16,0.81,3.195v20.16h-4.545v-19.485
		c0-0.945-0.54-1.08-1.08-1.08c-0.495,0-0.765,0.27-1.08,0.585c-0.136,0.18-0.271,0.36-0.406,0.585V620.629z M133.026,596.014h4.545
		v24.615h-4.545V596.014z M133.026,587.554h4.545v4.545h-4.545V587.554z M118.896,616.938l6.254-16.785h-5.265v-4.14h10.08v3.69
		l-6.255,16.785h6.255v4.141h-11.069V616.938z M111.381,596.014h4.545v24.615h-4.545V596.014z M111.381,587.554h4.545v4.545h-4.545
		V587.554z M102.336,587.554h4.545v33.075h-4.545V587.554z M93.921,608.749c-2.205,0.944-3.149,3.149-3.149,5.489
		c0,0.315,0.044,0.855,0.225,1.351c0.18,0.54,0.495,0.944,1.035,0.944c1.035,0,1.89-0.63,1.89-1.484V608.749z M93.921,601.864
		c0-0.405,0-1.035-0.135-1.485c-0.18-0.45-0.54-0.765-1.125-0.765c-0.765,0-1.08,0.585-1.215,1.305
		c-0.045,0.36-0.089,0.765-0.089,1.17v1.17h-4.545v-1.035c0-1.8,0.675-3.42,1.755-4.635c1.081-1.215,2.61-1.935,4.365-1.935
		c1.485,0,2.835,0.585,3.87,1.575c1.035,0.99,1.665,2.385,1.665,4.005v15.12c0,2.205,0.135,3.195,0.315,4.275h-4.456
		c-0.404-0.495-0.404-1.665-0.404-1.98h-0.314c-0.226,0.405-0.631,0.99-1.261,1.485s-1.485,0.854-2.385,0.854
		c-0.585,0-1.53-0.225-2.25-1.125c-0.765-0.854-1.395-2.385-1.395-4.949c0-2.745,0.81-4.726,1.89-6.075
		c1.08-1.351,2.43-2.205,3.555-2.79s1.98-0.99,2.16-1.485V601.864z M77.991,596.014h4.545v24.615h-4.545v-2.07
		c-0.09,0.045-0.27,0.225-0.495,0.45c-0.54,0.54-1.171,1.17-1.98,1.62c-0.405,0.225-0.81,0.359-1.215,0.359
		c-1.215,0-2.069-0.72-2.61-1.665c-0.54-0.899-0.81-2.114-0.81-3.149v-20.16h4.545v19.485c0,0.944,0.54,1.079,1.08,1.079
		c0.495,0,0.766-0.27,1.08-0.585c0.135-0.135,0.271-0.359,0.405-0.585V596.014z M63.096,602.313c0-0.585,0-1.305-0.18-1.89
		c-0.226-0.54-0.585-0.99-1.305-0.99c-0.585,0-0.945,0.45-1.125,0.99c-0.225,0.54-0.27,1.305-0.27,1.89
		c0,0.765,0.405,1.575,0.99,2.295c0.54,0.72,1.26,1.44,1.98,2.115c0.945,0.945,2.07,2.025,2.835,3.24
		c0.765,1.26,1.35,2.654,1.35,4.274c0,1.575-0.36,3.24-1.26,4.5c-0.945,1.306-2.385,2.25-4.545,2.25c-2.745,0-4.365-1.26-5.265-2.79
		c-0.9-1.529-1.08-3.42-1.08-4.725h4.23c0,0.675,0.045,1.62,0.36,2.34c0.315,0.765,0.81,1.396,1.755,1.396
		c1.305,0,1.575-1.53,1.575-2.971c0-1.484-1.44-2.97-2.835-4.364c-1.08-1.035-2.115-1.98-2.925-3.195
		c-0.81-1.215-1.395-2.565-1.395-4.365c0-1.44,0.27-3.105,1.125-4.41c0.855-1.26,2.25-2.205,4.411-2.25
		c2.654-0.045,4.14,0.945,4.904,2.25c0.765,1.305,0.899,3.015,0.899,4.41H63.096z M47.391,596.014h4.545v24.615h-4.545V596.014z
		 M47.391,587.554h4.545v4.545h-4.545V587.554z M39.561,587.554h4.725l-5.04,33.075h-4.86l-5.04-33.075h4.725l2.43,18.18l0.18,1.396
		h0.27l0.18-1.396L39.561,587.554z"/>
	<path clip-path="url(#SVGID_2_)" fill="#231F20" d="M147.313,907.167v-40.605h44.977v-24.956h-44.977v-37.504h25.379
		c3.853,0,7.072,0.352,9.657,1.057c2.584,0.705,4.654,1.952,6.205,3.736c1.551,1.787,2.608,4.279,3.171,7.473
		c0.564,3.197,0.847,7.285,0.847,12.267h49.348v-76.842H41.004v52.31c8.27,0,14.192,1.104,17.765,3.312
		c3.571,2.21,5.358,6.415,5.358,12.619v71.343c0,6.111-1.787,10.271-5.358,12.479c-3.573,2.209-9.495,3.312-17.765,3.312v52.31
		H241.92v-76.842h-49.348c0,4.982-0.282,9.071-0.847,12.267c-0.563,3.196-1.62,5.71-3.171,7.543
		c-1.551,1.833-3.621,3.08-6.205,3.736c-2.585,0.659-5.804,0.986-9.657,0.986H147.313z"/>
	<path clip-path="url(#SVGID_2_)" fill="#231F20" d="M488.093,467.698c-2.267-5.285-5.37-9.82-9.294-13.603
		c-3.932-3.776-8.544-6.801-13.829-9.068c-5.292-2.267-10.811-3.401-16.55-3.401c-6.05,0-11.64,1.134-16.776,3.401
		c-5.144,2.267-9.678,5.292-13.603,9.068c-3.932,3.783-7.028,8.318-9.295,13.603c-2.267,5.292-3.401,10.96-3.401,17.003
		c0,6.05,1.134,11.718,3.401,17.003c2.267,5.292,5.363,9.827,9.295,13.603c3.925,3.783,8.459,6.801,13.603,9.068
		c5.136,2.267,10.726,3.401,16.776,3.401c5.739,0,11.258-1.134,16.55-3.401c5.285-2.267,9.897-5.285,13.829-9.068
		c3.925-3.776,7.028-8.311,9.294-13.603c2.269-5.285,3.401-10.953,3.401-17.003C491.494,478.658,490.361,472.99,488.093,467.698
		 M184.529,385.402c14.205,0,25.916,3.252,35.14,9.749c9.217,6.503,13.829,16.854,13.829,31.059
		c0,13.305-4.307,24.031-12.922,32.193c-8.615,8.161-20.935,12.242-36.954,12.242c-18.746,0-32.802-5.285-42.168-15.87
		c-9.373-10.577-14.056-23.124-14.056-37.634v-16.323H67.547v19.044c0,14.509,2.72,28.268,8.161,41.261
		c5.441,13.001,13.22,24.485,23.351,34.46c10.124,9.975,22.445,17.839,36.954,23.578c14.509,5.738,30.677,8.615,48.516,8.615
		c17.528,0,33.1-2.572,46.702-7.708c13.603-5.137,25.009-12.165,34.233-21.084c9.217-8.913,16.168-19.419,20.858-31.513
		c4.683-12.086,7.027-25.236,7.027-39.448v-5.441c0-14.509-2.571-27.127-7.708-37.86c-5.144-10.726-11.866-19.724-20.177-26.979
		c-8.317-7.254-17.91-12.617-28.792-16.096c-10.882-3.472-21.92-5.214-33.099-5.214h-10.882v-8.162l84.336-24.485v-99.752H70.267
		v57.131h157.79v8.161l-78.895,21.765v94.311H184.529z"/>
</g>
<line fill="none" stroke="#231F20" stroke-width="2" x1="279.443" y1="722" x2="279.443" y2="976"/>
<g>
	<defs>
		<rect id="SVGID_151_" width="564" height="1002"/>
	</defs>
	<clipPath id="SVGID_4_">
		<use xlink:href="#SVGID_151_"  overflow="visible"/>
	</clipPath>
	<polygon clip-path="url(#SVGID_4_)" fill="none" stroke="#231F20" stroke-width="1.998" points="0.999,3 0.999,999 0.999,1001.002 
		3,1001.002 561,1001.002 563.001,1001.002 563.001,999 563.001,3 563.001,0.998 561,0.998 3,0.998 0.999,0.998 	"/>
</g>
<rect x="5.001" y="5.002" fill="none" stroke="#231F20" stroke-width="1.998" width="553.997" height="991.996"/>
<polygon fill="#FF1419" points="318.531,843.163 318.887,864.182 412.22,864.182 412.22,949.676 412.22,950.39 519.089,853.494 
	519.089,853.137 412.22,757.312 412.22,757.667 412.22,843.163 "/>
<line fill="none" stroke="#231F20" stroke-width="2" x1="23.944" y1="164" x2="536.944" y2="164"/>
<line fill="none" stroke="#231F20" stroke-width="2" x1="23.944" y1="561" x2="536.944" y2="561"/>
<line fill="none" stroke="#231F20" stroke-width="2" x1="23.944" y1="702" x2="536.944" y2="702"/>
</svg>
