<?xml version="1.0" encoding="utf-8"?>
<!-- Generator: Adobe Illustrator 16.0.0, SVG Export Plug-In . SVG Version: 6.00 Build 0)  -->
<!DOCTYPE svg PUBLIC "-//W3C//DTD SVG 1.1//EN" "http://www.w3.org/Graphics/SVG/1.1/DTD/svg11.dtd">
<svg version="1.1" id="Layer_1" xmlns="http://www.w3.org/2000/svg" xmlns:xlink="http://www.w3.org/1999/xlink" x="0px" y="0px"
	 width="564px" height="1002px" viewBox="0 0 564 1002" enable-background="new 0 0 564 1002" xml:space="preserve">
<g>
	<defs>
		<rect id="SVGID_27_" width="564" height="1002"/>
	</defs>
	<clipPath id="SVGID_2_">
		<use xlink:href="#SVGID_27_"  overflow="visible"/>
	</clipPath>
	<path clip-path="url(#SVGID_2_)" fill="#231F20" d="M486.175,755.128c-8.655,0-15.328,2.056-20.021,6.16
		c-4.695,4.107-7.039,9.899-7.039,17.38c0,7.479,2.344,13.275,7.039,17.38c4.692,4.107,11.365,6.16,20.021,6.16
		c8.652,0,15.324-2.053,20.02-6.16c4.692-4.104,7.04-9.9,7.04-17.38c0-7.48-2.348-13.272-7.04-17.38
		C501.499,757.184,494.827,755.128,486.175,755.128 M353.297,739.508l16.94-36.74c2.932-7.04,4.84-12.172,5.72-15.4h0.66
		c-0.588,17.017-0.88,29.92-0.88,38.721v13.42H353.297z M373.757,800.447h44v-27.72h20.021v-33.22h-20.021v-84.26h-58.08
		l-47.3,96.359v21.12h61.38V800.447z"/>
</g>
<line fill="none" stroke="#231F20" stroke-width="2" x1="24.419" y1="844.119" x2="537.418" y2="844.119"/>
<line fill="none" stroke="#231F20" stroke-width="2" x1="280.918" y1="633.967" x2="280.918" y2="823.118"/>
<g>
	<defs>
		<rect id="SVGID_29_" width="564" height="1002"/>
	</defs>
	<clipPath id="SVGID_4_">
		<use xlink:href="#SVGID_29_"  overflow="visible"/>
	</clipPath>
	<polygon clip-path="url(#SVGID_4_)" fill="none" stroke="#231F20" stroke-width="1.998" points="0.999,3 0.999,999 0.999,1001.002 
		3,1001.002 561,1001.002 563.001,1001.002 563.001,999 563.001,3 563.001,0.998 561,0.998 3,0.998 0.999,0.998 	"/>
</g>
<rect x="5.001" y="5.002" fill="none" stroke="#231F20" stroke-width="1.998" width="553.997" height="991.996"/>
<line fill="none" stroke="#231F20" stroke-width="2" x1="23.944" y1="126" x2="536.944" y2="126"/>
<line fill="none" stroke="#231F20" stroke-width="2" x1="23.944" y1="611" x2="536.944" y2="611"/>
<g>
	<defs>
		<rect id="SVGID_31_" width="564" height="1002"/>
	</defs>
	<clipPath id="SVGID_6_">
		<use xlink:href="#SVGID_31_"  overflow="visible"/>
	</clipPath>
	<path clip-path="url(#SVGID_6_)" fill="#FF1419" d="M492.393,60.095h0.258l3.224,9.894h-6.864L492.393,60.095z M498.001,76.401
		c0.343,0.924,0.306,1.692-0.113,2.304s-1.241,0.918-2.465,0.918h-1.773v11.957h29.294V79.624h-1.32
		c-0.795,0-1.445-0.075-1.95-0.225c-0.505-0.15-0.908-0.381-1.208-0.693c-0.301-0.311-0.555-0.687-0.758-1.128
		c-0.204-0.44-0.436-0.961-0.693-1.563l-6.606-16.307c-0.493-1.181-0.586-2.083-0.274-2.707c0.312-0.622,1.263-0.934,2.853-0.934
		h0.646V44.11h-33.129v11.956h0.677c1.568,0,2.508,0.295,2.819,0.886s0.23,1.51-0.241,2.755l-6.607,16.307
		c-0.494,1.182-1.004,2.079-1.529,2.691c-0.527,0.612-1.563,0.918-3.11,0.918h-1.322v11.957h20.078V79.624h-1.837
		c-1.247,0-2.063-0.306-2.45-0.918c-0.386-0.612-0.408-1.38-0.063-2.304l0.45-1.386h10.184L498.001,76.401z M438.789,91.645
		c3.48,0,6.768-0.408,9.86-1.225c3.095-0.816,5.796-2.148,8.105-3.996c2.31-1.847,4.136-4.286,5.479-7.315
		c1.343-3.029,2.015-6.768,2.015-11.215c0-4.447-0.683-8.191-2.047-11.231s-3.17-5.483-5.413-7.332
		c-2.246-1.847-4.809-3.179-7.687-3.996c-2.88-0.816-5.854-1.224-8.927-1.224h-34.193v11.956c1.892,0,3.244,0.253,4.062,0.757
		c0.815,0.505,1.225,1.466,1.225,2.884v16.307c0,1.397-0.409,2.348-1.225,2.852c-0.817,0.505-2.17,0.757-4.062,0.757v11.957
		L438.789,91.645z M430.28,79.624V56.066h3.03c1.225,0,2.411,0.134,3.562,0.403c1.148,0.269,2.137,0.821,2.964,1.659
		c0.827,0.838,1.499,2.036,2.014,3.594c0.516,1.558,0.774,3.615,0.774,6.171c0,2.6-0.27,4.668-0.807,6.204s-1.229,2.712-2.078,3.528
		c-0.849,0.817-1.837,1.354-2.965,1.612c-1.128,0.258-2.283,0.386-3.464,0.386H430.28z M373.136,79.624v-9.281h10.28v-5.704h-10.28
		v-8.572h5.801c0.88,0,1.616,0.08,2.207,0.242c0.591,0.161,1.064,0.446,1.418,0.854c0.355,0.408,0.596,0.977,0.726,1.708
		c0.129,0.73,0.193,1.665,0.193,2.803h11.279V44.11h-45.923v11.956c1.89,0,3.244,0.253,4.061,0.757
		c0.816,0.505,1.225,1.466,1.225,2.884v16.307c0,1.397-0.408,2.348-1.225,2.852c-0.816,0.505-2.171,0.757-4.061,0.757v11.957h45.923
		V74.017H383.48c0,1.139-0.064,2.074-0.193,2.804c-0.13,0.73-0.37,1.305-0.726,1.724c-0.354,0.419-0.827,0.704-1.418,0.854
		c-0.591,0.15-1.327,0.225-2.207,0.225H373.136z M285.149,44.11v11.956c1.891,0,3.243,0.253,4.061,0.757
		c0.815,0.505,1.225,1.466,1.225,2.884v15.501c0,1.053,0.085,2.208,0.258,3.465c0.171,1.257,0.521,2.546,1.047,3.867
		c0.526,1.321,1.273,2.6,2.24,3.835c0.966,1.236,2.267,2.336,3.899,3.303c1.633,0.967,3.626,1.746,5.978,2.337
		c2.354,0.59,5.161,0.886,8.427,0.886c4.49,0,8.101-0.586,10.828-1.757c2.729-1.17,4.829-2.642,6.302-4.415
		c1.471-1.772,2.46-3.727,2.965-5.865c0.504-2.137,0.757-4.194,0.757-6.171V59.322c0-1.332,0.387-2.208,1.16-2.627
		c0.773-0.419,1.88-0.628,3.318-0.628V44.11h-21.236v11.956c1.396,0,2.492,0.231,3.287,0.693s1.192,1.359,1.192,2.691v14.824
		c0,1.848-0.473,3.314-1.418,4.399c-0.946,1.085-2.45,1.627-4.512,1.627c-1.075,0-1.961-0.166-2.659-0.499s-1.257-0.784-1.676-1.354
		c-0.418-0.569-0.714-1.219-0.886-1.95c-0.173-0.73-0.259-1.493-0.259-2.288V59.322c0-1.16,0.317-1.993,0.951-2.498
		c0.634-0.504,1.768-0.757,3.4-0.757V44.11H285.149z M245.177,81.025c-0.901-0.483-1.353-1.229-1.353-2.239
		c0-0.581,0.252-1.166,0.756-1.757c0.504-0.59,1.402-0.886,2.691-0.886c1.053,0,2.096,0.306,3.126,0.918
		c1.031,0.613,1.88,1.424,2.546,2.434c-0.924,1.504-2.481,2.255-4.673,2.255C247.111,81.75,246.078,81.51,245.177,81.025
		 M242.147,61.384c0.193-1.783,0.532-3.211,1.015-4.286c0.483-1.074,1.134-1.853,1.951-2.336c0.815-0.484,1.868-0.725,3.157-0.725
		c1.224,0,2.257,0.241,3.095,0.725c0.836,0.483,1.498,1.262,1.98,2.336c0.484,1.075,0.822,2.503,1.016,4.286
		c0.193,1.784,0.291,3.954,0.291,6.51c0,1.182-0.022,2.278-0.065,3.287c-0.043,1.01-0.108,1.955-0.193,2.836
		c-0.881-0.429-1.815-0.778-2.804-1.047s-2.03-0.403-3.126-0.403c-1.461,0-2.707,0.253-3.738,0.757
		c-1.03,0.505-1.88,1.069-2.546,1.692c-0.129-0.967-0.215-2.035-0.258-3.206s-0.064-2.476-0.064-3.916
		C241.857,65.337,241.953,63.167,242.147,61.384 M222.248,78.77c1.363,3.126,3.291,5.748,5.785,7.864
		c2.492,2.116,5.451,3.701,8.877,4.753c3.428,1.053,7.213,1.579,11.36,1.579c2.104,0,3.872-0.108,5.302-0.322
		c1.428-0.215,3.002-0.527,4.721-0.935c1.139,2.192,2.514,3.884,4.125,5.076s3.642,1.789,6.091,1.789
		c3.565,0,6.188-1.365,7.862-4.093c1.677-2.729,2.515-6.907,2.515-12.536h-3.029c-0.044,0.623-0.102,1.337-0.177,2.143
		c-0.076,0.805-0.253,1.563-0.532,2.272c-0.28,0.709-0.715,1.305-1.305,1.788c-0.593,0.484-1.446,0.725-2.562,0.725
		c-0.731,0-1.408-0.166-2.031-0.499s-1.106-0.714-1.45-1.144c2.899-2.385,5.044-5.205,6.429-8.46
		c1.387-3.254,2.079-6.88,2.079-10.876c0-4.146-0.683-7.783-2.046-10.909c-1.365-3.126-3.288-5.741-5.77-7.847
		c-2.48-2.105-5.44-3.684-8.877-4.737c-3.438-1.053-7.22-1.579-11.345-1.579c-4.147,0-7.933,0.526-11.36,1.579
		c-3.426,1.053-6.385,2.632-8.877,4.737c-2.494,2.106-4.422,4.721-5.785,7.847c-1.365,3.126-2.047,6.763-2.047,10.909
		C220.201,72.019,220.883,75.644,222.248,78.77 M209.459,44.11h-10.635v2.997c-1.354-0.881-3.254-1.719-5.703-2.514
		c-2.449-0.794-5.383-1.192-8.799-1.192c-2.471,0-4.817,0.317-7.041,0.95c-2.224,0.634-4.185,1.569-5.881,2.804
		c-1.697,1.236-3.052,2.756-4.061,4.56c-1.012,1.805-1.516,3.879-1.516,6.22c0,3.158,0.64,5.715,1.918,7.67
		c1.277,1.955,2.862,3.529,4.754,4.721c1.89,1.192,3.957,2.106,6.203,2.739c2.244,0.634,4.312,1.204,6.203,1.708
		c1.891,0.505,3.476,1.08,4.754,1.724c1.277,0.645,1.918,1.558,1.918,2.74c0,0.752-0.388,1.423-1.16,2.014
		c-0.774,0.591-1.945,0.886-3.514,0.886c-2.342,0-4.447-0.725-6.316-2.175c-1.868-1.45-3.115-3.432-3.738-5.946h-10.634v17.564
		h10.634v-2.836c2.385,1.31,4.723,2.255,7.01,2.836c2.288,0.58,4.689,0.87,7.202,0.87c2.578,0,5.07-0.269,7.478-0.806
		c2.406-0.537,4.533-1.386,6.381-2.546c1.847-1.16,3.318-2.643,4.414-4.447c1.097-1.805,1.644-3.985,1.644-6.542
		c0-2.406-0.376-4.469-1.128-6.188c-0.752-1.718-1.74-3.174-2.964-4.366c-1.226-1.193-2.622-2.17-4.19-2.933
		c-1.568-0.762-3.164-1.412-4.785-1.95c-1.623-0.536-3.218-0.988-4.785-1.354c-1.569-0.365-2.965-0.746-4.19-1.144
		c-1.224-0.398-2.213-0.87-2.964-1.418c-0.753-0.548-1.128-1.262-1.128-2.143c0-0.924,0.419-1.644,1.256-2.159
		c0.838-0.516,1.935-0.774,3.288-0.774c1.115,0,2.201,0.188,3.254,0.564s2.009,0.908,2.869,1.595
		c0.859,0.688,1.584,1.504,2.175,2.449c0.591,0.946,0.972,1.966,1.144,3.062h10.635V44.11z M135.619,31.542l-6.735,9.958h7.928
		l11.796-9.958H135.619z M103.135,44.11v11.956c1.891,0,3.244,0.253,4.061,0.757c0.816,0.505,1.225,1.466,1.225,2.884v15.501
		c0,1.053,0.086,2.208,0.258,3.465c0.172,1.257,0.521,2.546,1.048,3.867c0.526,1.321,1.272,2.6,2.239,3.835
		c0.967,1.236,2.268,2.336,3.9,3.303c1.631,0.967,3.625,1.746,5.978,2.337c2.353,0.59,5.161,0.886,8.427,0.886
		c4.49,0,8.1-0.586,10.828-1.757c2.729-1.17,4.829-2.642,6.3-4.415c1.472-1.772,2.46-3.727,2.966-5.865
		c0.504-2.137,0.758-4.194,0.758-6.171V59.322c0-1.332,0.386-2.208,1.16-2.627c0.772-0.419,1.879-0.628,3.318-0.628V44.11h-21.236
		v11.956c1.396,0,2.491,0.231,3.287,0.693c0.795,0.462,1.191,1.359,1.191,2.691v14.824c0,1.848-0.473,3.314-1.418,4.399
		s-2.449,1.627-4.512,1.627c-1.074,0-1.961-0.166-2.658-0.499c-0.698-0.333-1.258-0.784-1.676-1.354
		c-0.42-0.569-0.715-1.219-0.887-1.95c-0.172-0.73-0.258-1.493-0.258-2.288V59.322c0-1.16,0.316-1.993,0.951-2.498
		c0.633-0.504,1.768-0.757,3.4-0.757V44.11H103.135z M66,56.066h4.865c1.332,0,2.293,0.43,2.885,1.289
		c0.591,0.859,0.887,1.858,0.887,2.997c0,1.203-0.296,2.229-0.887,3.078c-0.592,0.849-1.553,1.273-2.885,1.273H66V56.066z
		 M66,79.624v-9.216h4.802c1.804,0,3.05,0.37,3.737,1.111c0.688,0.742,1.031,1.929,1.031,3.562c0,1.632-0.344,2.798-1.031,3.496
		c-0.688,0.699-1.934,1.047-3.737,1.047H66z M92.748,51.539c-0.322-1.429-0.979-2.691-1.967-3.787
		c-0.987-1.095-2.396-1.976-4.221-2.642c-1.826-0.666-4.222-0.999-7.188-0.999H41.701v11.956c1.89,0,3.244,0.253,4.061,0.757
		c0.816,0.505,1.225,1.466,1.225,2.884v16.307c0,1.397-0.408,2.348-1.225,2.852c-0.816,0.505-2.171,0.757-4.061,0.757v11.957H77.15
		c3.867,0,6.944-0.366,9.232-1.096c2.288-0.73,4.039-1.676,5.253-2.836c1.214-1.16,2.003-2.487,2.369-3.98
		c0.364-1.493,0.548-3.013,0.548-4.56c0-3.695-1.075-6.521-3.223-8.476c-2.149-1.954-5.092-2.975-8.83-3.061v-0.355
		c7.154-0.644,10.73-4.404,10.73-11.279C93.23,54.434,93.07,52.968,92.748,51.539"/>
	<path clip-path="url(#SVGID_6_)" fill="#231F20" d="M231.424,514.788V382.811h28.418c12.385,0,23.314,1.87,32.788,5.602
		c9.47,3.736,17.441,8.654,23.909,14.755c6.464,6.105,11.339,13.073,14.618,20.903c3.279,7.835,4.919,15.848,4.919,24.046
		c0,9.29-1.55,17.991-4.646,26.094c-3.1,8.108-8.107,15.165-15.028,21.177c-6.925,6.011-15.942,10.75-27.051,14.208
		c-11.113,3.463-24.775,5.192-40.986,5.192H231.424z M231.424,333.354l0.273-105.471h16.668c14.934,0,27.503,1.46,37.707,4.371
		c10.2,2.916,18.35,6.789,24.456,11.613c6.101,4.829,10.472,10.431,13.115,16.805c2.639,6.378,3.962,13.026,3.962,19.946
		c0,6.925-1.323,13.573-3.962,19.947c-2.644,6.379-7.015,12.023-13.115,16.941c-6.106,4.919-14.256,8.791-24.456,11.613
		c-10.204,2.827-22.773,4.235-37.707,4.235H231.424z M73.489,574.354h247.558c30.236,0,56.651-3.416,79.241-10.247
		c22.585-6.83,41.396-15.89,56.425-27.187c15.028-11.293,26.321-24.225,33.882-38.801c7.558-14.571,11.339-29.689,11.339-45.358
		c0-22.953-7.014-42.353-21.038-58.201c-14.03-15.848-35.249-27.871-63.666-36.068c17.304-10.383,30.467-22.722,39.483-37.025
		c9.018-14.298,13.525-29.553,13.525-45.768c0-16.211-3.825-30.919-11.477-44.129c-7.65-13.205-19.084-24.498-34.292-33.882
		c-15.212-9.38-34.154-16.621-56.835-21.723c-22.679-5.097-49.141-7.651-79.377-7.651H73.489V574.354z"/>
</g>
<path fill="#FF1419" d="M45.184,725.931v14.514l97.854-3.043L100.9,801.076l0.234,0.234l137.65-67.89v-0.468l-137.65-67.421
	l-0.469,0.234l42.372,63.675L45.184,725.931z M157.786,733.421h61.802l-94.576,46.586L157.786,733.421z"/>
<g>
	<defs>
		<rect id="SVGID_33_" width="564" height="1002"/>
	</defs>
	<clipPath id="SVGID_8_">
		<use xlink:href="#SVGID_33_"  overflow="visible"/>
	</clipPath>
	<path clip-path="url(#SVGID_8_)" fill="#231F20" d="M501.928,949.111c0.138,1.683,0.289,3.28,0.578,4.556
		c0.629,0.221,2.816,0.748,4.728,0.748c2.616,0,5.882-1.425,5.882-4.386c0-1.153-0.286-2.081-1.041-2.924
		c-0.982-1.099-2.393-1.938-3.957-2.618c-1.361-0.593-1.836-1.663-1.836-2.652c0-0.782,0.646-1.428,1.632-1.428
		c1.19,0,2.346,1.088,3.196,3.162c0.611,0.102,0.985,0.067,1.324-0.17c0-1.225-0.136-2.517-0.44-3.604
		c-1.088-0.476-1.938-0.816-3.808-0.816c-1.792,0-3.518,0.674-4.591,1.769c-0.782,0.796-1.155,1.734-1.155,2.652
		c0,1.01,0.39,1.821,1.054,2.55c1.054,1.156,2.907,2.355,3.944,2.822c1.359,0.611,1.732,1.836,1.732,2.651
		c0,1.091-1.087,1.666-2.005,1.666c-1.534,0-3.163-1.547-3.876-4.046C502.745,948.941,502.474,948.975,501.928,949.111
		 M482.821,947.037c0,4.439,3.521,7.378,8.092,7.378c2.397,0,4.416-0.688,5.814-1.938c1.72-1.54,2.312-3.852,2.312-5.745
		c0-4.447-3.043-7.753-8.092-7.753c-2.819,0-4.924,0.973-6.268,2.517C483.393,942.977,482.821,945.028,482.821,947.037
		 M490.403,940.407c2.312,0,3.876,2.754,3.876,7.412c0,4.083-1.598,5.168-2.822,5.168c-2.789,0-3.876-4.183-3.876-6.698
		C487.581,943.161,488.125,940.407,490.403,940.407 M473.913,933.811c0,1.122,0.816,2.244,2.176,2.244
		c1.53,0,2.414-1.224,2.414-2.107c0-1.021-0.782-2.244-2.21-2.244C474.695,931.703,473.913,932.791,473.913,933.811
		 M478.503,949.927v-6.775c0-1.69,0.137-3.595,0.137-3.595c0-0.374-0.307-0.578-0.782-0.578c-0.969,0.374-3.707,0.646-6.053,0.952
		c-0.067,0.204,0,0.885,0.068,1.088c1.854,0.174,2.21,0.442,2.21,2.381v6.527c0,2.822-0.374,2.891-2.448,3.061
		c-0.203,0.204-0.203,0.952,0,1.155c1.429-0.033,2.843-0.067,4.658-0.067c1.816,0,3.196,0.034,4.658,0.067
		c0.204-0.203,0.204-0.951,0-1.155C478.877,952.851,478.503,952.749,478.503,949.927 M463.814,944.953
		c0-1.214,0.375-1.707,0.816-2.234c0.279-0.333,0.578-0.578,1.078-0.578c0.32,0,0.672,0.3,0.962,0.649
		c0.238,0.286,0.816,0.558,1.581,0.558c0.986,0,1.955-1.037,1.955-2.465c0-0.884-1.02-1.904-2.244-1.904
		c-1.189,0-2.481,1.021-4.046,3.265h-0.136c-0.068-1.021-0.238-2.687-0.238-2.687c-0.026-0.299-0.306-0.578-0.782-0.578
		c-1.614,0.408-3.399,0.901-5.644,1.122c-0.068,0.204,0,0.851,0.068,1.055c1.853,0.173,2.21,0.476,2.21,2.414v6.357
		c0,2.822-0.374,2.891-2.448,3.061c-0.204,0.204-0.204,0.952,0,1.155c1.428-0.033,2.843-0.067,4.658-0.067s3.195,0.034,4.658,0.067
		c0.203-0.203,0.203-0.951,0-1.155c-2.074-0.137-2.449-0.238-2.449-3.061V944.953z M454.091,949.689
		c-1.394,1.428-3.229,1.802-4.521,1.802c-2.652,0-4.284-1.53-4.284-4.862c0-0.238,0.034-0.374,0.034-0.544h8.16
		c0.815,0,0.985-0.578,0.985-1.054c0-2.891-1.122-6.053-6.12-6.053c-3.569,0-7.649,3.162-7.649,8.364
		c0,1.989,0.721,4.054,2.176,5.372c1.279,1.159,2.955,1.7,5.372,1.7c2.346,0,4.658-1.19,6.358-3.672
		C454.602,950.301,454.432,949.689,454.091,949.689 M445.455,944.725c0.034-1.189,0.218-2.472,0.68-3.161
		c0.541-0.81,1.452-1.156,1.836-1.156c0.919,0,2.177,0.884,2.177,3.604c0,0.204,0,0.646-0.068,0.714H445.455z M429.408,939.319
		c-0.476,0.003-0.996,0.136-1.428,0.51v0.986c0,0.17,0.033,0.203,0.17,0.203h2.21c-0.078,3.425-0.103,7.786-0.103,9.486
		c0,1.19,0.291,2.336,1.021,2.958c0.765,0.656,2.019,0.952,2.822,0.952c1.88,0,3.943-0.952,4.624-1.904
		c0-0.408-0.204-0.611-0.612-0.952c-0.442,0.341-1.292,0.477-1.938,0.477c-0.748,0-1.496-0.578-1.496-2.278
		s-0.033-5.338-0.033-8.738h3.434c0.34,0,0.816-0.136,0.816-0.441v-1.054c0-0.137-0.103-0.204-0.272-0.204h-3.978l0.033-1.156
		c0.068-2.264,0.171-3.842,0.171-3.842c0-0.219-0.103-0.299-0.263-0.299c-0.248,0-1.516,0.377-2.05,0.602
		c-0.578,0.241-1.571,0.438-1.802,0.751c-0.238,0.323-0.374,1.241-0.374,3.941L429.408,939.319z M419.615,933.811
		c0,1.122,0.817,2.244,2.177,2.244c1.53,0,2.414-1.224,2.414-2.107c0-1.021-0.782-2.244-2.21-2.244
		C420.398,931.703,419.615,932.791,419.615,933.811 M424.206,949.927v-6.775c0-1.69,0.136-3.595,0.136-3.595
		c0-0.374-0.306-0.578-0.781-0.578c-0.97,0.374-3.706,0.646-6.053,0.952c-0.067,0.204,0,0.885,0.068,1.088
		c1.854,0.174,2.21,0.442,2.21,2.381v6.527c0,2.822-0.374,2.891-2.448,3.061c-0.205,0.204-0.205,0.952,0,1.155
		c1.428-0.033,2.842-0.067,4.658-0.067s3.196,0.034,4.658,0.067c0.204-0.203,0.204-0.951,0-1.155
		C424.58,952.851,424.206,952.749,424.206,949.927 M409.519,944.953c0-1.214,0.374-1.707,0.815-2.234
		c0.279-0.333,0.578-0.578,1.078-0.578c0.32,0,0.673,0.3,0.962,0.649c0.238,0.286,0.816,0.558,1.581,0.558
		c0.986,0,1.955-1.037,1.955-2.465c0-0.884-1.02-1.904-2.244-1.904c-1.189,0-2.481,1.021-4.046,3.265h-0.136
		c-0.068-1.021-0.238-2.687-0.238-2.687c-0.027-0.299-0.306-0.578-0.782-0.578c-1.614,0.408-3.399,0.901-5.644,1.122
		c-0.068,0.204,0,0.851,0.068,1.055c1.853,0.173,2.21,0.476,2.21,2.414v6.357c0,2.822-0.374,2.891-2.448,3.061
		c-0.204,0.204-0.204,0.952,0,1.155c1.428-0.033,2.843-0.067,4.658-0.067s3.195,0.034,4.657,0.067c0.204-0.203,0.204-0.951,0-1.155
		c-2.073-0.137-2.447-0.238-2.447-3.061V944.953z M400.61,951.117c0-0.408-0.068-1.054-0.442-1.054
		c-1.359,1.258-2.516,1.903-3.502,1.903c-2.55,0-4.556-1.836-4.556-5.916c0-3.773,0.85-5.644,2.651-5.644
		c1.259,0,1.769,1.326,1.87,2.414c0.103,0.918,1.021,1.598,2.108,1.598s1.87-0.85,1.87-1.904c0-1.529-1.836-3.536-5.542-3.536
		c-4.012,0-7.548,3.23-7.548,8.263c0,2.195,0.789,4.165,2.107,5.406c1.337,1.255,2.873,1.768,5.305,1.768
		C396.973,954.415,399.318,952.987,400.61,951.117 M364.877,949.111c0.137,1.683,0.289,3.28,0.578,4.556
		c0.629,0.221,2.815,0.748,4.727,0.748c2.617,0,5.882-1.425,5.882-4.386c0-1.153-0.286-2.081-1.041-2.924
		c-0.982-1.099-2.394-1.938-3.957-2.618c-1.36-0.593-1.836-1.663-1.836-2.652c0-0.782,0.646-1.428,1.632-1.428
		c1.189,0,2.346,1.088,3.196,3.162c0.611,0.102,0.985,0.067,1.325-0.17c0-1.225-0.136-2.517-0.441-3.604
		c-1.088-0.476-1.938-0.816-3.809-0.816c-1.792,0-3.516,0.674-4.59,1.769c-0.782,0.796-1.156,1.734-1.156,2.652
		c0,1.01,0.392,1.821,1.055,2.55c1.054,1.156,2.907,2.355,3.943,2.822c1.36,0.611,1.734,1.836,1.734,2.651
		c0,1.091-1.088,1.666-2.006,1.666c-1.534,0-3.162-1.547-3.876-4.046C365.693,948.941,365.421,948.975,364.877,949.111
		 M361.273,949.689c-1.395,1.428-3.23,1.802-4.522,1.802c-2.651,0-4.284-1.53-4.284-4.862c0-0.238,0.034-0.374,0.034-0.544h8.16
		c0.816,0,0.986-0.578,0.986-1.054c0-2.891-1.122-6.053-6.12-6.053c-3.57,0-7.65,3.162-7.65,8.364c0,1.989,0.722,4.054,2.176,5.372
		c1.278,1.159,2.955,1.7,5.372,1.7c2.347,0,4.658-1.19,6.358-3.672C361.783,950.301,361.613,949.689,361.273,949.689
		 M352.637,944.725c0.034-1.189,0.219-2.472,0.681-3.161c0.541-0.81,1.452-1.156,1.836-1.156c0.918,0,2.176,0.884,2.176,3.604
		c0,0.204,0,0.646-0.068,0.714H352.637z M338.969,949.757c0,2.822-0.544,3.128-2.617,3.23c-0.204,0.204-0.204,0.952,0,1.155
		c1.428-0.033,2.943-0.067,4.828-0.067c1.884,0,3.365,0.034,4.827,0.067c0.204-0.203,0.204-0.951,0-1.155
		c-2.073-0.103-2.617-0.408-2.617-3.23v-15.504c0-2.21,0.102-3.468,0.102-3.468c0-0.307-0.238-0.442-0.544-0.442
		c-1.258,0.408-3.979,0.782-6.393,0.884c-0.102,0.408-0.067,0.782,0.103,1.089c2.142,0.17,2.312,0.218,2.312,2.55V949.757z
		 M323.465,951.865v-8.714c0-0.185-0.003-0.371-0.01-0.555c0.979-0.884,2.237-1.34,3.036-1.34c1.394,0,3.026,1.7,3.026,5.678
		c0,2.856-1.021,6.053-3.979,6.053C325.165,952.987,324.315,952.783,323.465,951.865 M319.045,943.569v14.246
		c0,2.821-0.374,2.89-2.447,3.06c-0.204,0.204-0.204,0.952,0,1.156c1.428-0.034,2.843-0.068,4.657-0.068
		c1.816,0,3.196,0.034,4.658,0.068c0.204-0.204,0.204-0.952,0-1.156c-2.074-0.136-2.448-0.238-2.448-3.06v-3.979
		c0.731,0.374,1.462,0.578,2.278,0.578c5.182,0,8.534-3.383,8.534-8.398c0-1.894-0.717-4.012-2.04-5.338
		c-1.193-1.196-2.9-1.7-4.658-1.7c-0.986,0-2.822,1.19-4.012,2.278h-0.19c-0.078-0.962-0.184-1.7-0.184-1.7
		c-0.03-0.415-0.307-0.578-0.782-0.578c-1.258,0.341-3.298,0.816-5.644,1.122c-0.068,0.204,0,0.885,0.067,1.089
		C318.688,941.362,319.045,941.631,319.045,943.569 M308.166,933.811c0,1.122,0.816,2.244,2.176,2.244
		c1.53,0,2.414-1.224,2.414-2.107c0-1.021-0.781-2.244-2.21-2.244C308.948,931.703,308.166,932.791,308.166,933.811
		 M312.756,949.927v-6.775c0-1.69,0.137-3.595,0.137-3.595c0-0.374-0.307-0.578-0.782-0.578c-0.969,0.374-3.706,0.646-6.052,0.952
		c-0.068,0.204,0,0.885,0.067,1.088c1.854,0.174,2.21,0.442,2.21,2.381v6.527c0,2.822-0.374,2.891-2.447,3.061
		c-0.204,0.204-0.204,0.952,0,1.155c1.428-0.033,2.842-0.067,4.657-0.067s3.196,0.034,4.658,0.067c0.204-0.203,0.204-0.951,0-1.155
		C313.13,952.851,312.756,952.749,312.756,949.927 M294.838,939.319c-0.476,0.003-0.996,0.136-1.428,0.51v0.986
		c0,0.17,0.034,0.203,0.17,0.203h2.21c-0.078,3.425-0.102,7.786-0.102,9.486c0,1.19,0.292,2.336,1.02,2.958
		c0.766,0.656,2.021,0.952,2.822,0.952c1.88,0,3.944-0.952,4.624-1.904c0-0.408-0.204-0.611-0.612-0.952
		c-0.441,0.341-1.292,0.477-1.938,0.477c-0.748,0-1.496-0.578-1.496-2.278s-0.034-5.338-0.034-8.738h3.434
		c0.341,0,0.816-0.136,0.816-0.441v-1.054c0-0.137-0.102-0.204-0.272-0.204h-3.978l0.034-1.156c0.067-2.264,0.17-3.842,0.17-3.842
		c0-0.219-0.103-0.299-0.262-0.299c-0.248,0-1.517,0.377-2.051,0.602c-0.577,0.241-1.57,0.438-1.802,0.751
		c-0.238,0.323-0.374,1.241-0.374,3.941L294.838,939.319z M285.046,949.757c0,2.822-0.544,3.128-2.618,3.23
		c-0.203,0.204-0.203,0.952,0,1.155c1.429-0.033,2.945-0.067,4.828-0.067c1.885,0,3.366,0.034,4.828,0.067
		c0.204-0.203,0.204-0.951,0-1.155c-2.074-0.103-2.618-0.408-2.618-3.23v-15.504c0-2.21,0.103-3.468,0.103-3.468
		c0-0.307-0.238-0.442-0.544-0.442c-1.258,0.408-3.979,0.782-6.393,0.884c-0.102,0.408-0.067,0.782,0.103,1.089
		c2.142,0.17,2.312,0.218,2.312,2.55V949.757z M278.654,949.553v-5.882c0-2.855,0.068-2.448,0.068-3.264
		c0-0.578-0.137-0.952-0.34-1.156c-0.613,0.034-1.293,0.068-1.938,0.068c-0.94,0-3.162-0.034-4.488-0.068
		c-0.204,0.204-0.204,0.952,0,1.156c1.734,0.17,2.278,0.408,2.278,3.264v6.3c0,0.327,0.011,0.667,0.027,1.011
		c-1.381,0.853-2.526,0.918-3.121,0.918c-1.36,0-2.381-0.153-2.381-2.551v-5.678c0-2.855,0.068-2.448,0.068-3.264
		c0-0.578-0.136-0.952-0.34-1.156c-0.612,0.034-1.314,0.068-1.938,0.068c-1.752,0-3.026-0.034-4.488-0.068
		c-0.204,0.204-0.204,0.952,0,1.156c1.563,0.067,2.277,0.408,2.277,3.264v5.304c0,3.621,1.428,5.44,4.353,5.44
		c1.235,0,3.706-0.979,5.661-2.074c0.074,0.857,0.152,1.496,0.152,1.496c0.028,0.408,0.307,0.578,0.782,0.578
		c1.259-0.34,3.298-0.816,5.644-1.122c0.068-0.204,0-0.884-0.067-1.088C279.012,952.032,278.654,951.491,278.654,949.553
		 M271.82,931.159l-2.822,4.454c-0.204,0.306-0.271,0.611-0.271,0.815s0.271,0.477,0.543,0.477c0.341,0,0.816-0.137,1.293-0.544
		l4.08-3.672l-0.34-0.782c-0.272-0.34-0.918-0.816-1.938-0.816C272.194,931.091,271.922,931.125,271.82,931.159 M238.297,949.927
		v-6.775c0-0.163-0.004-0.33-0.007-0.497c1.322-0.803,2.526-1.159,3.101-1.159c1.359,0,2.379,0.612,2.379,2.55v5.678
		c0,2.856-0.543,3.162-1.938,3.265c-0.203,0.204-0.203,0.952,0,1.155c1.428-0.033,2.516-0.067,4.148-0.067
		c1.632,0,2.686,0.034,4.148,0.067c0.203-0.203,0.203-0.951,0-1.155c-1.361-0.103-1.938-0.408-1.938-3.265v-5.304
		c0-0.833-0.052-1.513-0.122-1.863c1.277-0.667,2.736-1.061,3.283-1.061c1.361,0,2.312,0.612,2.312,2.55v5.678
		c0,2.856-0.544,3.162-1.938,3.265c-0.205,0.204-0.205,0.952,0,1.155c1.428-0.033,2.516-0.067,4.147-0.067
		c1.87,0,3.366,0.034,4.828,0.067c0.204-0.203,0.204-0.951,0-1.155c-2.073-0.103-2.618-0.408-2.618-3.265v-5.304
		c0-3.74-1.359-5.44-4.283-5.44c-1.252,0-4.125,1.351-6.093,2.466c-0.521-1.479-1.881-2.466-3.87-2.466
		c-1.217,0-3.682,1.278-5.619,2.373c-0.082-1.01-0.194-1.795-0.194-1.795c-0.03-0.415-0.306-0.578-0.782-0.578
		c-1.258,0.341-3.298,0.816-5.645,1.122c-0.067,0.204,0,0.885,0.068,1.089c1.854,0.173,2.21,0.441,2.21,2.38v6.357
		c0,2.822-0.374,2.891-2.448,3.061c-0.203,0.204-0.203,0.952,0,1.155c1.429-0.033,2.844-0.067,4.658-0.067
		c1.551,0,2.516,0.034,3.979,0.067c0.203-0.203,0.203-0.951,0-1.155C238.637,952.851,238.297,952.749,238.297,949.927
		 M208.854,949.927v-6.775v-0.062c1.349-0.929,2.732-1.595,3.332-1.595c1.359,0,2.38,0.612,2.38,2.55v5.678
		c0,2.856-0.544,3.162-1.938,3.265c-0.203,0.204-0.203,0.952,0,1.155c1.428-0.033,2.529-0.067,4.148-0.067
		c1.883,0,3.365,0.034,4.828,0.067c0.203-0.203,0.203-0.951,0-1.155c-2.074-0.103-2.618-0.408-2.618-3.265v-5.304
		c0-3.74-1.599-5.44-4.522-5.44c-1.371,0-3.787,1.499-5.66,2.785c-0.08-1.2-0.222-2.207-0.222-2.207
		c-0.03-0.415-0.306-0.578-0.782-0.578c-1.258,0.341-3.298,0.816-5.644,1.122c-0.067,0.204,0,0.885,0.067,1.089
		c1.854,0.173,2.211,0.441,2.211,2.38v6.357c0,2.822-0.375,2.891-2.448,3.061c-0.204,0.204-0.204,0.952,0,1.155
		c1.428-0.033,2.842-0.067,4.657-0.067c1.551,0,2.517,0.034,3.979,0.067c0.204-0.203,0.204-0.951,0-1.155
		C209.193,952.851,208.854,952.749,208.854,949.927 M183.625,947.037c0,4.439,3.521,7.378,8.092,7.378
		c2.397,0,4.416-0.688,5.814-1.938c1.72-1.54,2.312-3.852,2.312-5.745c0-4.447-3.043-7.753-8.093-7.753
		c-2.819,0-4.923,0.973-6.266,2.517C184.196,942.977,183.625,945.028,183.625,947.037 M191.207,940.407
		c2.312,0,3.876,2.754,3.876,7.412c0,4.083-1.598,5.168-2.821,5.168c-2.789,0-3.877-4.183-3.877-6.698
		C188.385,943.161,188.93,940.407,191.207,940.407 M181.211,951.117c0-0.408-0.068-1.054-0.441-1.054
		c-1.36,1.258-2.516,1.903-3.502,1.903c-2.551,0-4.557-1.836-4.557-5.916c0-3.773,0.85-5.644,2.652-5.644
		c1.258,0,1.768,1.326,1.87,2.414c0.102,0.918,1.021,1.598,2.108,1.598s1.869-0.85,1.869-1.904c0-1.529-1.836-3.536-5.541-3.536
		c-4.013,0-7.549,3.23-7.549,8.263c0,2.195,0.789,4.165,2.107,5.406c1.337,1.255,2.873,1.768,5.305,1.768
		C177.573,954.415,179.92,952.987,181.211,951.117 M140.887,947.037c0,4.439,3.523,7.378,8.092,7.378
		c2.397,0,4.418-0.688,5.814-1.938c1.721-1.54,2.312-3.852,2.312-5.745c0-4.447-3.043-7.753-8.092-7.753
		c-2.818,0-4.924,0.973-6.267,2.517C141.458,942.977,140.887,945.028,140.887,947.037 M148.469,940.407
		c2.312,0,3.877,2.754,3.877,7.412c0,4.083-1.599,5.168-2.822,5.168c-2.788,0-3.877-4.183-3.877-6.698
		C145.646,943.161,146.191,940.407,148.469,940.407 M132.615,952.443c0.072,0.802,0.146,1.394,0.146,1.394
		c0.027,0.408,0.306,0.578,0.781,0.578c1.258-0.34,3.299-0.816,5.645-1.122c0.068-0.204,0-0.884-0.068-1.088
		c-1.854-0.173-2.21-0.714-2.21-2.652v-15.3c0-2.21,0.103-3.468,0.103-3.468c0-0.307-0.238-0.442-0.545-0.442
		c-1.258,0.408-3.978,0.782-6.392,0.884c-0.103,0.408-0.067,0.851,0.103,1.156c2.142,0.17,2.312,0.204,2.312,2.55v4.435
		c-0.649-0.232-1.465-0.389-2.448-0.389c-4.386,0-8.229,3.843-8.229,8.364c0,2.023,0.729,4.359,2.381,5.645
		c1.224,0.952,2.081,1.428,3.979,1.428c0.918,0,3.434-1.496,4.147-1.972H132.615z M132.51,950.852
		c-0.718,0.574-2.513,1.319-2.91,1.319c-1.7,0-3.026-1.904-3.026-5.882c0-1.812,0.208-3.366,0.851-4.42
		c0.561-0.921,1.485-1.462,2.516-1.462c0.891,0,1.724,0.092,2.55,1.217v8.371C132.489,950.27,132.496,950.559,132.51,950.852
		 M114.028,944.953c0-1.214,0.374-1.707,0.815-2.234c0.278-0.333,0.578-0.578,1.078-0.578c0.319,0,0.674,0.3,0.963,0.649
		c0.237,0.286,0.815,0.558,1.58,0.558c0.986,0,1.955-1.037,1.955-2.465c0-0.884-1.02-1.904-2.244-1.904
		c-1.189,0-2.481,1.021-4.045,3.265h-0.137c-0.068-1.021-0.238-2.687-0.238-2.687c-0.027-0.299-0.306-0.578-0.781-0.578
		c-1.615,0.408-3.4,0.901-5.645,1.122c-0.068,0.204,0,0.851,0.068,1.055c1.853,0.173,2.21,0.476,2.21,2.414v6.357
		c0,2.822-0.374,2.891-2.448,3.061c-0.204,0.204-0.204,0.952,0,1.155c1.428-0.033,2.842-0.067,4.658-0.067
		c1.814,0,3.195,0.034,4.658,0.067c0.203-0.203,0.203-0.951,0-1.155c-2.074-0.137-2.448-0.238-2.448-3.061V944.953z
		 M104.305,949.689c-1.395,1.428-3.23,1.802-4.522,1.802c-2.651,0-4.284-1.53-4.284-4.862c0-0.238,0.034-0.374,0.034-0.544h8.16
		c0.815,0,0.985-0.578,0.985-1.054c0-2.891-1.121-6.053-6.119-6.053c-3.57,0-7.65,3.162-7.65,8.364c0,1.989,0.721,4.054,2.176,5.372
		c1.278,1.159,2.954,1.7,5.372,1.7c2.347,0,4.658-1.19,6.358-3.672C104.814,950.301,104.645,949.689,104.305,949.689
		 M95.668,944.725c0.034-1.189,0.217-2.472,0.68-3.161c0.541-0.81,1.451-1.156,1.836-1.156c0.918,0,2.177,0.884,2.177,3.604
		c0,0.204,0,0.646-0.068,0.714H95.668z M86.658,949.553v-5.882c0-2.855,0.068-2.448,0.068-3.264c0-0.578-0.137-0.952-0.34-1.156
		c-0.612,0.034-1.293,0.068-1.938,0.068c-0.942,0-3.162-0.034-4.488-0.068c-0.204,0.204-0.204,0.952,0,1.156
		c1.734,0.17,2.278,0.408,2.278,3.264v6.3c0,0.327,0.01,0.667,0.027,1.011c-1.381,0.853-2.526,0.918-3.121,0.918
		c-1.36,0-2.381-0.153-2.381-2.551v-5.678c0-2.855,0.068-2.448,0.068-3.264c0-0.578-0.136-0.952-0.34-1.156
		c-0.611,0.034-1.316,0.068-1.938,0.068c-1.752,0-3.026-0.034-4.488-0.068c-0.204,0.204-0.204,0.952,0,1.156
		c1.564,0.067,2.277,0.408,2.277,3.264v5.304c0,3.621,1.428,5.44,4.353,5.44c1.233,0,3.706-0.979,5.661-2.074
		c0.074,0.857,0.152,1.496,0.152,1.496c0.027,0.408,0.307,0.578,0.782,0.578c1.259-0.34,3.298-0.816,5.644-1.122
		c0.068-0.204,0-0.884-0.067-1.088C87.016,952.032,86.658,951.491,86.658,949.553 M68.162,951.117c0-0.408-0.068-1.054-0.441-1.054
		c-1.36,1.258-2.517,1.903-3.502,1.903c-2.551,0-4.557-1.836-4.557-5.916c0-3.773,0.85-5.644,2.652-5.644
		c1.258,0,1.768,1.326,1.869,2.414c0.103,0.918,1.021,1.598,2.108,1.598c1.089,0,1.87-0.85,1.87-1.904
		c0-1.529-1.836-3.536-5.542-3.536c-4.012,0-7.548,3.23-7.548,8.263c0,2.195,0.789,4.165,2.107,5.406
		c1.336,1.255,2.873,1.768,5.305,1.768C64.524,954.415,66.87,952.987,68.162,951.117 M46.471,946.663v4.488
		c-0.851,0.68-1.701,1.224-2.312,1.224c-1.462,0-1.973-0.986-1.973-2.04c0-1.261,0.113-2.309,2.517-3.094L46.471,946.663z
		 M46.646,952.426c0.232,1.377,1.15,1.989,2.646,1.989c1.88,0,3.196-0.714,4.454-1.904c-0.074-0.4-0.221-0.673-0.611-0.952
		c-0.442,0.341-0.783,0.477-1.429,0.477c-0.748,0-0.952-0.612-0.952-2.278l0.068-4.896c0-4.896-3.025-5.883-5.814-5.883
		c-2.481,0-6.307,1.414-6.307,3.658c0,0.974,0.412,1.722,1.758,1.722c1.204,0,2.115-0.748,2.115-1.571
		c0-0.449-0.238-1.021-0.157-1.605c0.052-0.377,0.296-0.774,1.435-0.774c1.429,0,2.619,0.611,2.619,4.93l-2.278,0.714
		c-3.583,1.122-6.086,2.108-6.086,4.794c0,2.347,1.292,3.57,4.25,3.57c0.985,0,2.958-1.088,4.079-1.972L46.646,952.426z"/>
	<path clip-path="url(#SVGID_8_)" fill="#231F20" d="M451.372,901.689c-1.394,1.428-3.229,1.802-4.522,1.802
		c-2.652,0-4.284-1.53-4.284-4.862c0-0.238,0.034-0.374,0.034-0.544h8.161c0.814,0,0.985-0.578,0.985-1.054
		c0-2.891-1.122-6.053-6.121-6.053c-3.568,0-7.648,3.162-7.648,8.364c0,1.989,0.72,4.054,2.174,5.372
		c1.28,1.159,2.956,1.7,5.373,1.7c2.346,0,4.658-1.19,6.359-3.672C451.883,902.301,451.711,901.689,451.372,901.689
		 M442.736,896.725c0.034-1.189,0.217-2.472,0.68-3.161c0.54-0.81,1.451-1.156,1.836-1.156c0.916,0,2.176,0.884,2.176,3.604
		c0,0.204,0,0.646-0.068,0.714H442.736z M429.704,904.443c0.071,0.802,0.146,1.394,0.146,1.394c0.027,0.408,0.307,0.578,0.783,0.578
		c1.258-0.34,3.298-0.816,5.644-1.122c0.068-0.204,0-0.884-0.068-1.088c-1.853-0.173-2.21-0.714-2.21-2.652v-15.3
		c0-2.21,0.103-3.468,0.103-3.468c0-0.307-0.238-0.442-0.544-0.442c-1.258,0.408-3.979,0.782-6.393,0.884
		c-0.102,0.408-0.067,0.851,0.102,1.156c2.143,0.17,2.312,0.204,2.312,2.55v4.435c-0.649-0.232-1.466-0.389-2.447-0.389
		c-4.387,0-8.229,3.843-8.229,8.364c0,2.023,0.727,4.359,2.38,5.645c1.225,0.952,2.081,1.428,3.979,1.428
		c0.918,0,3.434-1.496,4.147-1.972H429.704z M429.598,902.852c-0.717,0.574-2.512,1.319-2.909,1.319c-1.7,0-3.026-1.904-3.026-5.882
		c0-1.812,0.207-3.366,0.851-4.42c0.561-0.921,1.485-1.462,2.516-1.462c0.89,0,1.724,0.092,2.55,1.217v8.371
		C429.578,902.27,429.585,902.559,429.598,902.852z M396.259,901.111c0.136,1.683,0.288,3.28,0.577,4.556
		c0.63,0.221,2.816,0.748,4.727,0.748c2.618,0,5.882-1.425,5.882-4.386c0-1.153-0.285-2.081-1.04-2.924
		c-0.982-1.099-2.394-1.938-3.958-2.618c-1.36-0.593-1.836-1.663-1.836-2.652c0-0.782,0.646-1.428,1.632-1.428
		c1.19,0,2.346,1.088,3.196,3.162c0.612,0.102,0.986,0.067,1.326-0.17c0-1.225-0.137-2.517-0.442-3.604
		c-1.088-0.476-1.938-0.816-3.808-0.816c-1.791,0-3.516,0.674-4.59,1.769c-0.782,0.796-1.156,1.734-1.156,2.652
		c0,1.01,0.391,1.821,1.054,2.55c1.054,1.156,2.907,2.355,3.944,2.822c1.359,0.611,1.733,1.836,1.733,2.651
		c0,1.091-1.088,1.666-2.006,1.666c-1.533,0-3.162-1.547-3.876-4.046C397.074,900.941,396.803,900.975,396.259,901.111
		 M377.151,899.037c0,4.439,3.522,7.378,8.091,7.378c2.398,0,4.417-0.688,5.815-1.938c1.72-1.54,2.312-3.852,2.312-5.745
		c0-4.447-3.044-7.753-8.093-7.753c-2.818,0-4.923,0.973-6.266,2.517C377.723,894.977,377.151,897.028,377.151,899.037
		 M384.732,892.407c2.312,0,3.877,2.754,3.877,7.412c0,4.083-1.599,5.168-2.823,5.168c-2.788,0-3.875-4.183-3.875-6.698
		C381.911,895.161,382.455,892.407,384.732,892.407 M365.863,891.319c-0.476,0.003-0.996,0.136-1.428,0.51v0.986
		c0,0.17,0.034,0.203,0.17,0.203h2.21c-0.078,3.425-0.103,7.786-0.103,9.486c0,1.19,0.293,2.336,1.021,2.958
		c0.765,0.656,2.02,0.952,2.822,0.952c1.88,0,3.943-0.952,4.624-1.904c0-0.408-0.204-0.611-0.612-0.952
		c-0.442,0.341-1.292,0.477-1.938,0.477c-0.747,0-1.495-0.578-1.495-2.278s-0.034-5.338-0.034-8.738h3.434
		c0.34,0,0.816-0.136,0.816-0.441v-1.054c0-0.137-0.103-0.204-0.272-0.204H371.1l0.034-1.156c0.067-2.264,0.17-3.842,0.17-3.842
		c0-0.219-0.103-0.299-0.263-0.299c-0.248,0-1.516,0.377-2.05,0.602c-0.578,0.241-1.571,0.438-1.802,0.751
		c-0.238,0.323-0.374,1.241-0.374,3.941L365.863,891.319z M350.529,901.927v-6.775v-0.062c1.35-0.929,2.734-1.595,3.332-1.595
		c1.36,0,2.38,0.612,2.38,2.55v5.678c0,2.856-0.544,3.162-1.938,3.265c-0.204,0.204-0.204,0.952,0,1.155
		c1.428-0.033,2.529-0.067,4.147-0.067c1.884,0,3.366,0.034,4.828,0.067c0.204-0.203,0.204-0.951,0-1.155
		c-2.074-0.103-2.618-0.408-2.618-3.265v-5.304c0-3.74-1.598-5.44-4.521-5.44c-1.37,0-3.788,1.499-5.661,2.785
		c-0.078-1.2-0.221-2.207-0.221-2.207c-0.031-0.415-0.307-0.578-0.782-0.578c-1.258,0.341-3.298,0.816-5.645,1.122
		c-0.067,0.204,0,0.885,0.068,1.089c1.853,0.173,2.21,0.441,2.21,2.38v6.357c0,2.822-0.374,2.891-2.448,3.061
		c-0.204,0.204-0.204,0.952,0,1.155c1.429-0.033,2.842-0.067,4.658-0.067c1.55,0,2.516,0.034,3.978,0.067
		c0.204-0.203,0.204-0.951,0-1.155C350.869,904.851,350.529,904.749,350.529,901.927 M340.806,901.689
		c-1.395,1.428-3.23,1.802-4.522,1.802c-2.651,0-4.284-1.53-4.284-4.862c0-0.238,0.034-0.374,0.034-0.544h8.16
		c0.816,0,0.986-0.578,0.986-1.054c0-2.891-1.122-6.053-6.12-6.053c-3.57,0-7.65,3.162-7.65,8.364c0,1.989,0.722,4.054,2.176,5.372
		c1.279,1.159,2.955,1.7,5.372,1.7c2.347,0,4.658-1.19,6.358-3.672C341.315,902.301,341.146,901.689,340.806,901.689
		 M332.169,896.725c0.034-1.189,0.219-2.472,0.681-3.161c0.541-0.81,1.452-1.156,1.836-1.156c0.918,0,2.176,0.884,2.176,3.604
		c0,0.204,0,0.646-0.068,0.714H332.169z M303.134,901.927v-6.775c0-0.163-0.003-0.33-0.008-0.497
		c1.323-0.803,2.527-1.159,3.102-1.159c1.359,0,2.38,0.612,2.38,2.55v5.678c0,2.856-0.544,3.162-1.938,3.265
		c-0.203,0.204-0.203,0.952,0,1.155c1.429-0.033,2.517-0.067,4.148-0.067s2.686,0.034,4.148,0.067c0.203-0.203,0.203-0.951,0-1.155
		c-1.36-0.103-1.938-0.408-1.938-3.265v-5.304c0-0.833-0.051-1.513-0.122-1.863c1.278-0.667,2.737-1.061,3.284-1.061
		c1.36,0,2.312,0.612,2.312,2.55v5.678c0,2.856-0.544,3.162-1.938,3.265c-0.204,0.204-0.204,0.952,0,1.155
		c1.428-0.033,2.516-0.067,4.147-0.067c1.87,0,3.366,0.034,4.828,0.067c0.204-0.203,0.204-0.951,0-1.155
		c-2.073-0.103-2.617-0.408-2.617-3.265v-5.304c0-3.74-1.36-5.44-4.284-5.44c-1.251,0-4.124,1.351-6.094,2.466
		c-0.52-1.479-1.88-2.466-3.868-2.466c-1.218,0-3.683,1.278-5.62,2.373c-0.082-1.01-0.194-1.795-0.194-1.795
		c-0.03-0.415-0.306-0.578-0.782-0.578c-1.258,0.341-3.298,0.816-5.644,1.122c-0.068,0.204,0,0.885,0.067,1.089
		c1.854,0.173,2.21,0.441,2.21,2.38v6.357c0,2.822-0.373,2.891-2.447,3.061c-0.204,0.204-0.204,0.952,0,1.155
		c1.428-0.033,2.843-0.067,4.658-0.067c1.551,0,2.516,0.034,3.978,0.067c0.204-0.203,0.204-0.951,0-1.155
		C303.474,904.851,303.134,904.749,303.134,901.927 M293.545,892.679c0.952,0,1.496-0.407,1.496-1.666
		c0-0.646-0.884-1.632-2.176-1.632c-1.496,0-3.468,1.122-4.454,2.006c-0.611-0.34-1.326-0.408-2.855-0.408
		c-1.465,0-2.887,0.357-4.013,1.089c-1.379,0.897-2.312,2.199-2.312,3.943c0,1.666,0.985,3.468,2.618,4.369
		c-1.055,0.901-2.686,2.696-2.686,3.383c0,0.649,0.102,1.055,0.441,1.564c0.312,0.469,0.729,0.733,1.395,0.952
		c-1.463,0.884-2.959,2.821-2.959,3.399c0,1.258,0.392,2.71,1.326,3.366c1.316,0.921,3.574,1.122,5.202,1.122
		c4.726,0,10.132-2.482,10.132-6.222c0-0.729-0.33-2.173-1.7-3.095c-1.315-0.884-6.442-1.122-8.941-1.122
		c-0.612,0-1.53-0.067-1.53-1.428c0-0.544,0.323-1.02,0.493-1.428c0.714,0.34,1.445,0.374,2.499,0.374
		c1.734,0,3.329-0.436,4.488-1.462c0.979-0.867,1.666-2.077,1.666-3.604c0-1.903-0.952-3.162-2.108-4.113
		c0.272-0.341,1.394-0.952,1.734-0.952c0.306,0,0.544,0.204,0.646,0.408C292.083,891.965,292.695,892.679,293.545,892.679
		 M283.617,906.925c2.611,0,7.65,0.095,7.65,1.904c0,1.23-0.547,2.611-1.666,3.244c-1.054,0.595-2.778,0.666-4.08,0.666
		c-2.244,0-3.773-1.666-3.773-3.4c0-1.156,0-1.938,0.373-2.618C282.461,906.857,282.903,906.925,283.617,906.925 M287.527,896.283
		c0,3.264-0.952,3.672-1.836,3.672c-2.108,0-2.38-2.516-2.38-4.25c0-2.516,0.612-3.434,1.938-3.434
		C286.848,892.271,287.527,893.597,287.527,896.283 M270.323,898.663v4.488c-0.85,0.68-1.7,1.224-2.312,1.224
		c-1.463,0-1.973-0.986-1.973-2.04c0-1.261,0.113-2.309,2.516-3.094L270.323,898.663z M270.5,904.426
		c0.231,1.377,1.149,1.989,2.646,1.989c1.881,0,3.196-0.714,4.454-1.904c-0.074-0.4-0.221-0.673-0.612-0.952
		c-0.442,0.341-0.782,0.477-1.428,0.477c-0.748,0-0.952-0.612-0.952-2.278l0.068-4.896c0-4.896-3.026-5.883-5.814-5.883
		c-2.482,0-6.307,1.414-6.307,3.658c0,0.974,0.412,1.722,1.758,1.722c1.204,0,2.115-0.748,2.115-1.571
		c0-0.449-0.238-1.021-0.156-1.605c0.051-0.377,0.295-0.774,1.434-0.774c1.428,0,2.618,0.611,2.618,4.93l-2.278,0.714
		c-3.582,1.122-6.086,2.108-6.086,4.794c0,2.347,1.293,3.57,4.25,3.57c0.986,0,2.959-1.088,4.08-1.972L270.5,904.426z
		 M253.664,896.953c0-1.214,0.375-1.707,0.816-2.234c0.277-0.333,0.578-0.578,1.077-0.578c0.319,0,0.674,0.3,0.963,0.649
		c0.237,0.286,0.815,0.558,1.581,0.558c0.986,0,1.955-1.037,1.955-2.465c0-0.884-1.021-1.904-2.244-1.904
		c-1.189,0-2.482,1.021-4.046,3.265h-0.136c-0.068-1.021-0.238-2.687-0.238-2.687c-0.028-0.299-0.307-0.578-0.782-0.578
		c-1.614,0.408-3.399,0.901-5.644,1.122c-0.068,0.204,0,0.851,0.067,1.055c1.853,0.173,2.21,0.476,2.21,2.414v6.357
		c0,2.822-0.373,2.891-2.447,3.061c-0.205,0.204-0.205,0.952,0,1.155c1.428-0.033,2.842-0.067,4.658-0.067
		c1.814,0,3.195,0.034,4.657,0.067c0.204-0.203,0.204-0.951,0-1.155c-2.073-0.137-2.448-0.238-2.448-3.061V896.953z
		 M240.438,901.723v-8.704h2.924c0.612,0,1.19-0.17,1.19-0.577v-0.782c0-0.204-0.034-0.34-0.68-0.34h-3.435v-1.734
		c0-5.066,1.394-5.813,2.142-5.813c0.578,0,0.715,0.51,0.952,1.325c0.306,1.088,1.19,1.938,2.414,1.938
		c1.122,0,1.938-0.714,1.938-2.176c0-0.918-1.055-2.517-4.658-2.517c-1.598,0-3.502,0.578-4.794,1.973
		c-1.259,1.359-2.414,3.06-2.414,6.323v0.681h-0.068c-1.155,0-2.55,0.17-2.55,0.441v0.918c0,0.238,0.137,0.34,0.918,0.34h1.7v8.772
		c0,2.788-0.544,3.094-2.618,3.196c-0.204,0.204-0.204,0.952,0,1.155c1.428-0.033,2.958-0.067,4.828-0.067s3.365,0.034,4.828,0.067
		c0.203-0.203,0.203-0.951,0-1.155C240.982,904.885,240.438,904.579,240.438,901.723 M222.146,901.689
		c-1.395,1.428-3.23,1.802-4.521,1.802c-2.652,0-4.285-1.53-4.285-4.862c0-0.238,0.035-0.374,0.035-0.544h8.159
		c0.816,0,0.986-0.578,0.986-1.054c0-2.891-1.122-6.053-6.12-6.053c-3.57,0-7.65,3.162-7.65,8.364c0,1.989,0.721,4.054,2.176,5.372
		c1.279,1.159,2.955,1.7,5.373,1.7c2.346,0,4.658-1.19,6.357-3.672C222.656,902.301,222.486,901.689,222.146,901.689
		 M213.51,896.725c0.035-1.189,0.219-2.472,0.681-3.161c0.541-0.81,1.452-1.156,1.836-1.156c0.918,0,2.176,0.884,2.176,3.604
		c0,0.204,0,0.646-0.067,0.714H213.51z M200.479,904.443c0.072,0.802,0.146,1.394,0.146,1.394c0.027,0.408,0.305,0.578,0.781,0.578
		c1.258-0.34,3.299-0.816,5.645-1.122c0.067-0.204,0-0.884-0.068-1.088c-1.854-0.173-2.21-0.714-2.21-2.652v-15.3
		c0-2.21,0.103-3.468,0.103-3.468c0-0.307-0.238-0.442-0.545-0.442c-1.258,0.408-3.978,0.782-6.392,0.884
		c-0.103,0.408-0.067,0.851,0.103,1.156c2.142,0.17,2.312,0.204,2.312,2.55v4.435c-0.649-0.232-1.466-0.389-2.448-0.389
		c-4.386,0-8.229,3.843-8.229,8.364c0,2.023,0.729,4.359,2.381,5.645c1.224,0.952,2.08,1.428,3.978,1.428
		c0.918,0,3.435-1.496,4.148-1.972H200.479z M200.373,902.852c-0.718,0.574-2.513,1.319-2.91,1.319
		c-1.701,0-3.026-1.904-3.026-5.882c0-1.812,0.208-3.366,0.851-4.42c0.561-0.921,1.485-1.462,2.516-1.462
		c0.891,0,1.724,0.092,2.55,1.217v8.371C200.353,902.27,200.359,902.559,200.373,902.852z M166.727,901.927v-6.775v-0.062
		c1.35-0.929,2.734-1.595,3.332-1.595c1.359,0,2.38,0.612,2.38,2.55v5.678c0,2.856-0.544,3.162-1.938,3.265
		c-0.203,0.204-0.203,0.952,0,1.155c1.428-0.033,2.53-0.067,4.148-0.067c1.884,0,3.365,0.034,4.828,0.067
		c0.203-0.203,0.203-0.951,0-1.155c-2.074-0.103-2.618-0.408-2.618-3.265v-5.304c0-3.74-1.599-5.44-4.522-5.44
		c-1.369,0-3.787,1.499-5.66,2.785c-0.078-1.2-0.221-2.207-0.221-2.207c-0.031-0.415-0.307-0.578-0.783-0.578
		c-1.258,0.341-3.297,0.816-5.644,1.122c-0.067,0.204,0,0.885,0.067,1.089c1.854,0.173,2.211,0.441,2.211,2.38v6.357
		c0,2.822-0.374,2.891-2.448,3.061c-0.204,0.204-0.204,0.952,0,1.155c1.429-0.033,2.843-0.067,4.658-0.067
		c1.551,0,2.516,0.034,3.978,0.067c0.204-0.203,0.204-0.951,0-1.155C167.066,904.851,166.727,904.749,166.727,901.927
		 M141.5,899.037c0,4.439,3.521,7.378,8.092,7.378c2.396,0,4.416-0.688,5.813-1.938c1.72-1.54,2.312-3.852,2.312-5.745
		c0-4.447-3.043-7.753-8.092-7.753c-2.818,0-4.924,0.973-6.267,2.517C142.07,894.977,141.5,897.028,141.5,899.037 M149.082,892.407
		c2.312,0,3.875,2.754,3.875,7.412c0,4.083-1.598,5.168-2.822,5.168c-2.787,0-3.875-4.183-3.875-6.698
		C146.26,895.161,146.803,892.407,149.082,892.407 M149.83,883.159l-2.822,4.454c-0.205,0.306-0.272,0.611-0.272,0.815
		s0.272,0.477,0.544,0.477c0.34,0,0.816-0.137,1.292-0.544l4.08-3.672l-0.34-0.782c-0.272-0.34-0.918-0.816-1.938-0.816
		C150.203,883.091,149.932,883.125,149.83,883.159 M132.592,885.811c0,1.122,0.815,2.244,2.176,2.244
		c1.529,0,2.414-1.224,2.414-2.107c0-1.021-0.782-2.244-2.211-2.244C133.373,883.703,132.592,884.791,132.592,885.811
		 M137.182,901.927v-6.775c0-1.69,0.136-3.595,0.136-3.595c0-0.374-0.306-0.578-0.782-0.578c-0.969,0.374-3.705,0.646-6.052,0.952
		c-0.067,0.204,0,0.885,0.067,1.088c1.854,0.174,2.211,0.442,2.211,2.381v6.527c0,2.822-0.375,2.891-2.448,3.061
		c-0.204,0.204-0.204,0.952,0,1.155c1.428-0.033,2.842-0.067,4.657-0.067c1.816,0,3.197,0.034,4.658,0.067
		c0.205-0.203,0.205-0.951,0-1.155C137.555,904.851,137.182,904.749,137.182,901.927 M128.137,903.117
		c0-0.408-0.067-1.054-0.441-1.054c-1.359,1.258-2.516,1.903-3.502,1.903c-2.55,0-4.557-1.836-4.557-5.916
		c0-3.773,0.851-5.644,2.652-5.644c1.258,0,1.769,1.326,1.87,2.414c0.103,0.918,1.021,1.598,2.108,1.598s1.869-0.85,1.869-1.904
		c0-1.529-1.836-3.536-5.541-3.536c-4.012,0-7.549,3.23-7.549,8.263c0,2.195,0.789,4.165,2.108,5.406
		c1.336,1.255,2.873,1.768,5.304,1.768C124.5,906.415,126.846,904.987,128.137,903.117 M112.633,903.117
		c0-0.408-0.067-1.054-0.441-1.054c-1.359,1.258-2.516,1.903-3.502,1.903c-2.551,0-4.557-1.836-4.557-5.916
		c0-3.773,0.851-5.644,2.652-5.644c1.258,0,1.768,1.326,1.87,2.414c0.103,0.918,1.021,1.598,2.108,1.598s1.869-0.85,1.869-1.904
		c0-1.529-1.836-3.536-5.541-3.536c-4.012,0-7.549,3.23-7.549,8.263c0,2.195,0.789,4.165,2.108,5.406
		c1.337,1.255,2.873,1.768,5.304,1.768C108.996,906.415,111.342,904.987,112.633,903.117 M96.076,901.689
		c-1.394,1.428-3.23,1.802-4.521,1.802c-2.652,0-4.284-1.53-4.284-4.862c0-0.238,0.034-0.374,0.034-0.544h8.16
		c0.815,0,0.985-0.578,0.985-1.054c0-2.891-1.122-6.053-6.12-6.053c-3.57,0-7.65,3.162-7.65,8.364c0,1.989,0.722,4.054,2.177,5.372
		c1.278,1.159,2.954,1.7,5.372,1.7c2.346,0,4.658-1.19,6.357-3.672C96.586,902.301,96.416,901.689,96.076,901.689 M87.44,896.725
		c0.034-1.189,0.217-2.472,0.681-3.161c0.539-0.81,1.451-1.156,1.836-1.156c0.918,0,2.176,0.884,2.176,3.604
		c0,0.204,0,0.646-0.068,0.714H87.44z M73.772,901.757c0,2.822-0.544,3.128-2.618,3.23c-0.204,0.204-0.204,0.952,0,1.155
		c1.428-0.033,2.944-0.067,4.828-0.067c1.883,0,3.366,0.034,4.828,0.067c0.203-0.203,0.203-0.951,0-1.155
		c-2.074-0.103-2.618-0.408-2.618-3.23v-15.504c0-2.21,0.103-3.468,0.103-3.468c0-0.307-0.238-0.442-0.545-0.442
		c-1.258,0.408-3.978,0.782-6.392,0.884c-0.103,0.408-0.067,0.782,0.103,1.089c2.142,0.17,2.312,0.218,2.312,2.55V901.757z
		 M68.4,901.689c-1.395,1.428-3.23,1.802-4.521,1.802c-2.652,0-4.285-1.53-4.285-4.862c0-0.238,0.035-0.374,0.035-0.544h8.16
		c0.815,0,0.985-0.578,0.985-1.054c0-2.891-1.122-6.053-6.12-6.053c-3.57,0-7.65,3.162-7.65,8.364c0,1.989,0.722,4.054,2.176,5.372
		c1.279,1.159,2.955,1.7,5.373,1.7c2.346,0,4.658-1.19,6.357-3.672C68.91,902.301,68.74,901.689,68.4,901.689 M59.764,896.725
		c0.035-1.189,0.219-2.472,0.681-3.161c0.541-0.81,1.452-1.156,1.836-1.156c0.918,0,2.177,0.884,2.177,3.604
		c0,0.204,0,0.646-0.068,0.714H59.764z M50.924,884.621c-1.869-0.272-2.584-0.918-5.746-0.918c-1.543,0-3.545,0.49-4.963,1.632
		c-1.269,1.021-2.211,2.598-2.211,4.25c0,1.302,0.354,2.921,1.123,3.944c1.578,2.104,4.396,3.273,5.848,4.284
		c1.564,1.088,3.094,2.447,3.094,4.352c0,1.673-1.462,2.822-3.536,2.822c-2.278,0-4.624-1.87-5.304-4.964
		c-0.578-0.204-1.156-0.034-1.7,0.102c0,2.55,0.272,4.352,0.646,5.61c1.938,0,2.037,0.68,6.732,0.68
		c2.081,0,3.732-0.598,5.135-1.854c1.207-1.08,2.312-2.648,2.312-4.742c0-1.771-0.765-2.973-1.769-4.08
		c-1.326-1.465-3.229-2.517-4.556-3.196c-1.351-0.694-3.774-2.448-3.774-4.386c0-1.904,1.149-3.061,2.891-3.061
		c2.89,0,3.842,2.618,4.454,4.862c0.476,0.136,1.325,0.136,1.7-0.17C51.299,887.987,51.162,886.593,50.924,884.621"/>
</g>
</svg>
