<?xml version="1.0" encoding="utf-8"?>
<!-- Generator: Adobe Illustrator 16.0.0, SVG Export Plug-In . SVG Version: 6.00 Build 0)  -->
<!DOCTYPE svg PUBLIC "-//W3C//DTD SVG 1.1//EN" "http://www.w3.org/Graphics/SVG/1.1/DTD/svg11.dtd">
<svg version="1.1" id="Layer_1" xmlns="http://www.w3.org/2000/svg" xmlns:xlink="http://www.w3.org/1999/xlink" x="0px" y="0px"
	 width="564px" height="1002px" viewBox="0 0 564 1002" enable-background="new 0 0 564 1002" xml:space="preserve">
<g>
	<defs>
		<rect id="SVGID_129_" width="564" height="1002"/>
	</defs>
	<clipPath id="SVGID_2_">
		<use xlink:href="#SVGID_129_"  overflow="visible"/>
	</clipPath>
	<polygon clip-path="url(#SVGID_2_)" fill="none" stroke="#0046F9" stroke-width="1.998" points="1,3 1,999 1,1001.002 3,1001.002 
		561,1001.002 563.002,1001.002 563.002,999 563.002,3 563.002,0.998 561,0.998 3,0.998 1,0.998 	"/>
</g>
<rect x="5.002" y="5.002" fill="none" stroke="#0046F9" stroke-width="1.998" width="553.996" height="991.996"/>
<g>
	<defs>
		<rect id="SVGID_131_" width="564" height="1002"/>
	</defs>
	<clipPath id="SVGID_4_">
		<use xlink:href="#SVGID_131_"  overflow="visible"/>
	</clipPath>
	<path clip-path="url(#SVGID_4_)" fill="#0046F9" d="M63.49,861.577v22.928l336.545-4.968
		c-20.252,25.221-38.596,58.084-38.596,91.33l0.383,0.764c31.717-43.563,79.102-79.101,129.925-97.826v-1.146
		c-51.588-18.726-96.681-53.499-129.925-97.444l-0.383,0.382c0.766,31.335,16.051,70.313,38.596,90.948L63.49,861.577z"/>
</g>
<polygon fill="#231F20" points="49.866,38.283 225.527,38.283 225.527,117.225 126.673,117.225 126.673,254.481 197.791,254.481 
	197.791,338.401 126.673,338.401 126.673,482.06 225.527,482.06 225.527,561 49.866,561 "/>
<line fill="none" stroke="#0046F9" stroke-width="2" x1="300.641" y1="170.594" x2="537.141" y2="170.594"/>
<line fill="none" stroke="#0046F9" stroke-width="2" x1="279.639" y1="26" x2="279.639" y2="581"/>
<g>
	<defs>
		<rect id="SVGID_133_" width="564" height="1002"/>
	</defs>
	<clipPath id="SVGID_6_">
		<use xlink:href="#SVGID_133_"  overflow="visible"/>
	</clipPath>
	<path clip-path="url(#SVGID_6_)" fill="#0046F9" d="M518.179,104.232h-4.317l2.089-40.668L518.179,104.232z M511.215,141
		l1.531-20.891h6.406L520.686,141h11.281l-9.192-102.365h-13.509L499.934,141H511.215z M474.31,54.094V141h11.56V54.094h8.495
		V38.635h-28.55v15.459H474.31z M446.317,141h11.561V38.635h-11.561V141z M420.692,53.537c0.696,0,2.228-0.139,3.203,1.393
		c1.114,1.672,1.253,6.268,1.253,13.788c0,7.382-0.139,12.534-1.392,14.345c-0.697,1.114-2.091,1.533-3.064,1.533V53.537z
		 M437.962,141l-7.104-49.581c3.622-4.317,5.292-13.509,5.292-23.258c0-19.359-4.456-29.526-15.319-29.526h-11.698V141h11.56V96.434
		L426.681,141H437.962z M388.521,105.902v15.461c0,1.949-0.139,6.128-2.369,6.128c-1.67,0-1.949-4.179-1.949-6.128V57.715
		c0-2.229,0.141-5.57,1.949-5.57c2.23,0,2.369,4.317,2.369,6.127V73.73h11.281V58.271c0-7.241-2.646-20.75-13.789-20.75
		c-10.445,0-13.648,11.697-13.648,20.75v63.092c0,9.052,2.785,20.751,13.648,20.751c10.586,0,13.789-10.027,13.789-20.751v-15.461
		H388.521z M363.871,64.539c0-8.495-0.557-27.297-13.928-27.018c-11.141,0.277-12.952,15.041-12.952,23.953
		c0,7.939,3.203,18.106,6.268,26.323c5.988,14.345,9.191,22.005,9.191,30.64c0,6.547-0.277,9.889-2.366,9.889
		c-3.064,0-3.064-14.346-3.064-17.549l-11.281,1.672c0,9.331-0.278,29.665,14.346,29.665c11.977,0,13.787-14.623,13.787-24.372
		c0-10.307-3.761-20.057-8.773-32.172c-4.039-10.168-6.825-17.409-6.825-24.096c0-5.988,0.279-10.166,1.95-10.166
		c2.228,0,2.228,11.281,2.228,14.902L363.871,64.539z M304.961,141h23.118v-15.459h-11.56V97.408h8.357V80.975h-8.357V54.094h11.56
		V38.635h-23.118V141z"/>
	<path clip-path="url(#SVGID_6_)" fill="#231F20" d="M483.182,694.664c-1.493,1.072-2.239,2.571-2.239,4.495
		c0,1.283,0.345,2.313,1.036,3.091c0.691,0.775,1.628,1.474,2.812,2.09c0.47,0.247,1.116,0.518,1.943,0.813
		c0.826,0.296,1.412,0.562,1.757,0.796c0.346,0.234,0.519,0.562,0.519,0.98c0,0.913-0.679,1.369-2.035,1.369
		c-0.616,0-1.344-0.203-2.184-0.61c-0.839-0.407-1.418-0.728-1.738-0.962c-0.321-0.235-0.579-0.438-0.777-0.611l-2.664,4.478
		l0.814,0.666c0.543,0.42,1.425,0.839,2.646,1.258s2.51,0.629,3.865,0.629c5.995,0,8.992-2.158,8.992-6.475
		c0-0.912-0.172-1.727-0.519-2.442c-0.345-0.715-0.832-1.307-1.462-1.776c-0.629-0.468-1.227-0.838-1.795-1.109
		c-0.566-0.271-1.232-0.519-1.997-0.74c-0.124-0.024-0.302-0.074-0.536-0.147c-0.234-0.074-0.4-0.13-0.5-0.166
		c-0.098-0.037-0.246-0.094-0.443-0.167c-0.197-0.074-0.34-0.131-0.426-0.166c-0.087-0.037-0.203-0.094-0.352-0.167
		c-0.148-0.074-0.253-0.143-0.312-0.203c-0.063-0.062-0.133-0.137-0.205-0.223c-0.074-0.087-0.123-0.179-0.148-0.277
		c-0.023-0.099-0.037-0.197-0.037-0.296c0-0.444,0.154-0.746,0.463-0.907c0.309-0.16,0.832-0.24,1.572-0.24
		c1.332,0,2.738,0.395,4.217,1.184l2.147-4.292l-0.777-0.369c-0.518-0.246-1.307-0.493-2.368-0.74
		c-1.06-0.246-2.133-0.37-3.219-0.37C486.69,693.055,484.674,693.591,483.182,694.664 M465.217,698.642
		c1.234,0,2.276,0.42,3.128,1.258c0.851,0.839,1.276,1.912,1.276,3.219c0,1.283-0.414,2.345-1.24,3.183
		c-0.826,0.839-1.881,1.258-3.164,1.258c-1.33,0-2.403-0.413-3.219-1.239c-0.813-0.827-1.221-1.893-1.221-3.201
		c0-1.307,0.426-2.38,1.277-3.219C462.905,699.062,463.96,698.642,465.217,698.642 M465.254,713.146
		c3.281,0,5.988-0.943,8.123-2.831c2.133-1.886,3.199-4.285,3.199-7.196c0-2.909-1.091-5.314-3.273-7.215
		c-2.184-1.898-4.867-2.849-8.049-2.849c-3.23,0-5.943,0.944-8.139,2.831s-3.295,4.298-3.295,7.232c0,2.937,1.057,5.342,3.165,7.216
		C459.095,712.209,461.85,713.146,465.254,713.146 M437.469,693.609v4.995h2.737v7.289c0,0.913,0.099,1.771,0.296,2.572
		c0.197,0.801,0.524,1.565,0.98,2.294c0.457,0.727,1.129,1.307,2.018,1.739c0.887,0.431,1.947,0.646,3.182,0.646
		c1.8,0,3.404-0.395,4.81-1.184l-1.628-5.291l-0.222,0.147c-0.148,0.1-0.358,0.198-0.629,0.296c-0.272,0.1-0.531,0.148-0.778,0.148
		c-0.986,0-1.479-0.875-1.479-2.627v-6.031h3.996v-4.995h-3.996v-7.066h-6.55v7.066H437.469z M419.931,712.591v-10.73
		c0-0.937,0.4-1.788,1.202-2.553c0.801-0.764,1.695-1.147,2.682-1.147c1.012,0,1.832,0.37,2.461,1.11s0.943,1.604,0.943,2.59v10.73
		h6.55v-12.506c0-1.259-0.265-2.362-0.796-3.312c-0.53-0.95-1.221-1.684-2.072-2.202c-0.852-0.518-1.739-0.899-2.664-1.146
		c-0.925-0.246-1.855-0.37-2.793-0.37c-1.924,0-3.737,0.851-5.439,2.553h-0.073v-1.998h-6.55v18.981H419.931z M396.324,698.16
		c0.641-0.566,1.504-0.851,2.59-0.851c0.986,0,1.796,0.265,2.425,0.796c0.629,0.53,1.017,1.289,1.165,2.275h-7.217
		C395.338,699.469,395.682,698.729,396.324,698.16 M408.904,703.118c0-3.23-0.942-5.716-2.83-7.454
		c-1.887-1.739-4.336-2.609-7.345-2.609c-2.862,0-5.316,0.987-7.363,2.96c-2.048,1.974-3.07,4.342-3.07,7.104
		c0,2.764,1.022,5.125,3.07,7.087c2.047,1.961,4.501,2.94,7.363,2.94c4.588,0,7.868-1.652,9.841-4.958l-4.734-2.368
		c-0.79,0.839-1.493,1.4-2.109,1.685c-0.617,0.283-1.457,0.425-2.516,0.425c-1.013,0-1.949-0.32-2.812-0.962
		c-0.864-0.642-1.295-1.628-1.295-2.96h13.764C408.892,703.858,408.904,703.562,408.904,703.118 M358.289,712.591V701.49
		c0-0.862,0.252-1.608,0.759-2.237c0.505-0.629,1.264-0.944,2.275-0.944c1.11,0,1.942,0.339,2.497,1.018s0.832,1.523,0.832,2.534
		v10.73h6.549v-11.322c0.051-0.813,0.327-1.511,0.833-2.09c0.505-0.58,1.24-0.87,2.202-0.87c1.11,0,1.942,0.339,2.497,1.018
		c0.554,0.679,0.833,1.523,0.833,2.534v10.73h6.549v-12.506c0-2.417-0.729-4.193-2.183-5.328c-1.456-1.134-3.196-1.702-5.217-1.702
		c-2.271,0-4.366,1.16-6.29,3.478c-0.617-1.184-1.53-2.059-2.738-2.627c-1.209-0.566-2.504-0.851-3.885-0.851
		c-1.924,0-3.737,0.851-5.439,2.553h-0.074v-1.998h-6.549v18.981H358.289z M335.017,698.642c1.233,0,2.274,0.42,3.126,1.258
		c0.851,0.839,1.277,1.912,1.277,3.219c0,1.283-0.414,2.345-1.24,3.183c-0.828,0.839-1.881,1.258-3.163,1.258
		c-1.332,0-2.405-0.413-3.219-1.239c-0.815-0.827-1.222-1.893-1.222-3.201c0-1.307,0.426-2.38,1.275-3.219
		C332.703,699.062,333.759,698.642,335.017,698.642 M334.646,722.766c3.354,0,6.055-0.839,8.104-2.516
		c2.047-1.679,3.07-4.059,3.07-7.142v-19.499h-6.549v1.702h-0.111c-1.629-1.504-3.663-2.257-6.104-2.257
		c-2.738,0-4.995,0.975-6.772,2.923c-1.774,1.949-2.664,4.329-2.664,7.141c0,2.812,0.89,5.187,2.664,7.123
		c1.777,1.937,4.034,2.904,6.772,2.904c2.983,0,5.056-0.641,6.216-1.924v1.406c0,1.504-0.488,2.621-1.462,3.349
		c-0.974,0.727-2.029,1.091-3.163,1.091c-2.443,0-4.157-0.813-5.143-2.441l-5.365,2.627
		C325.717,720.928,329.219,722.766,334.646,722.766 M308.266,698.642c1.232,0,2.274,0.42,3.126,1.258
		c0.851,0.839,1.276,1.912,1.276,3.219c0,1.283-0.414,2.345-1.239,3.183c-0.827,0.839-1.881,1.258-3.163,1.258
		c-1.332,0-2.405-0.413-3.219-1.239c-0.814-0.827-1.222-1.893-1.222-3.201c0-1.307,0.425-2.38,1.276-3.219
		C305.951,699.062,307.008,698.642,308.266,698.642 M306.305,713.146c2.516,0,4.588-0.899,6.215-2.701h0.075v2.146h6.474v-18.981
		h-6.549v1.813c-1.627-1.578-3.699-2.368-6.215-2.368c-2.738,0-4.995,0.975-6.771,2.923c-1.775,1.949-2.664,4.329-2.664,7.141
		c0,2.812,0.889,5.187,2.664,7.123C301.31,712.178,303.566,713.146,306.305,713.146 M285.178,712.591v-9.99
		c0-0.197,0.049-0.468,0.147-0.813s0.266-0.765,0.5-1.259c0.234-0.493,0.635-0.912,1.202-1.258c0.567-0.345,1.245-0.518,2.035-0.518
		c1.455,0,2.59,0.346,3.404,1.036l2.736-5.551l-0.518-0.296c-0.32-0.196-0.826-0.394-1.516-0.592
		c-0.691-0.197-1.395-0.296-2.109-0.296c-0.691,0-1.369,0.117-2.035,0.352s-1.209,0.499-1.628,0.795
		c-0.42,0.297-0.813,0.63-1.184,0.999c-0.37,0.37-0.61,0.63-0.722,0.777c-0.111,0.148-0.191,0.272-0.24,0.37h-0.074v-2.738h-6.549
		v18.981H285.178z M261.646,693.609v4.995h2.737v13.986h6.55v-13.986h4.366v-4.995h-4.366v-3.848c0-1.381,0.134-2.35,0.407-2.904
		c0.271-0.556,0.812-0.833,1.627-0.833c0.715,0,1.369,0.173,1.962,0.519l2.294-4.625l-0.629-0.407
		c-0.396-0.296-1.043-0.586-1.943-0.869c-0.9-0.284-1.844-0.426-2.83-0.426c-2.318,0-4.132,0.851-5.439,2.553
		s-1.973,3.972-1.998,6.808v4.033H261.646z M234.211,694.664c-1.494,1.072-2.238,2.571-2.238,4.495c0,1.283,0.345,2.313,1.035,3.091
		c0.691,0.775,1.629,1.474,2.812,2.09c0.469,0.247,1.115,0.518,1.942,0.813c0.825,0.296,1.411,0.562,1.757,0.796
		s0.52,0.562,0.52,0.98c0,0.913-0.68,1.369-2.035,1.369c-0.617,0-1.346-0.203-2.184-0.61c-0.839-0.407-1.419-0.728-1.738-0.962
		c-0.321-0.235-0.58-0.438-0.777-0.611l-2.664,4.478l0.814,0.666c0.541,0.42,1.424,0.839,2.645,1.258s2.51,0.629,3.867,0.629
		c5.994,0,8.99-2.158,8.99-6.475c0-0.912-0.172-1.727-0.518-2.442c-0.346-0.715-0.833-1.307-1.462-1.776
		c-0.629-0.468-1.228-0.838-1.794-1.109c-0.568-0.271-1.234-0.519-1.998-0.74c-0.124-0.024-0.303-0.074-0.537-0.147
		c-0.234-0.074-0.4-0.13-0.499-0.166c-0.099-0.037-0.247-0.094-0.444-0.167c-0.197-0.074-0.34-0.131-0.426-0.166
		c-0.087-0.037-0.203-0.094-0.351-0.167c-0.148-0.074-0.255-0.143-0.315-0.203c-0.062-0.062-0.129-0.137-0.203-0.223
		c-0.074-0.087-0.123-0.179-0.147-0.277c-0.026-0.099-0.037-0.197-0.037-0.296c0-0.444,0.153-0.746,0.462-0.907
		c0.309-0.16,0.832-0.24,1.573-0.24c1.331,0,2.737,0.395,4.218,1.184l2.146-4.292l-0.777-0.369c-0.518-0.246-1.309-0.493-2.368-0.74
		c-1.062-0.246-2.134-0.37-3.219-0.37C237.719,693.055,235.703,693.591,234.211,694.664 M216.248,698.642
		c1.232,0,2.274,0.42,3.125,1.258c0.852,0.839,1.277,1.912,1.277,3.219c0,1.283-0.414,2.345-1.24,3.183
		c-0.826,0.839-1.881,1.258-3.162,1.258c-1.332,0-2.406-0.413-3.22-1.239c-0.813-0.827-1.221-1.893-1.221-3.201
		c0-1.307,0.425-2.38,1.276-3.219C213.934,699.062,214.989,698.642,216.248,698.642 M216.285,713.146
		c3.279,0,5.986-0.943,8.12-2.831c2.134-1.886,3.201-4.285,3.201-7.196c0-2.909-1.093-5.314-3.274-7.215
		c-2.184-1.898-4.865-2.849-8.047-2.849c-3.232,0-5.945,0.944-8.141,2.831s-3.293,4.298-3.293,7.232
		c0,2.937,1.054,5.342,3.162,7.216C210.123,712.209,212.881,713.146,216.285,713.146 M189.496,698.642
		c1.233,0,2.275,0.42,3.127,1.258c0.851,0.839,1.275,1.912,1.275,3.219c0,1.283-0.413,2.345-1.238,3.183
		c-0.826,0.839-1.882,1.258-3.164,1.258c-1.332,0-2.404-0.413-3.219-1.239c-0.814-0.827-1.221-1.893-1.221-3.201
		c0-1.307,0.425-2.38,1.275-3.219C187.184,699.062,188.238,698.642,189.496,698.642 M187.535,713.146
		c2.516,0,4.588-0.899,6.217-2.701h0.074v2.146h6.475v-31.82h-6.549v14.652c-1.629-1.578-3.701-2.368-6.217-2.368
		c-2.738,0-4.994,0.975-6.771,2.923c-1.776,1.949-2.664,4.329-2.664,7.141c0,2.812,0.888,5.187,2.664,7.123
		S184.797,713.146,187.535,713.146 M154.531,712.591v-9.99c0-0.197,0.051-0.468,0.148-0.813c0.099-0.346,0.265-0.765,0.5-1.259
		c0.234-0.493,0.635-0.912,1.201-1.258c0.568-0.345,1.246-0.518,2.035-0.518c1.457,0,2.59,0.346,3.404,1.036l2.738-5.551
		l-0.518-0.296c-0.32-0.196-0.826-0.394-1.518-0.592c-0.689-0.197-1.393-0.296-2.109-0.296c-0.689,0-1.369,0.117-2.035,0.352
		s-1.207,0.499-1.627,0.795c-0.42,0.297-0.814,0.63-1.186,0.999c-0.369,0.37-0.609,0.63-0.72,0.777
		c-0.112,0.148-0.191,0.272-0.241,0.37h-0.074v-2.738h-6.549v18.981H154.531z M141.879,712.591h-6.549v-18.981h6.549V712.591z
		 M134.812,685.766c0,1.061,0.382,1.974,1.147,2.738c0.764,0.765,1.676,1.146,2.737,1.146c1.06,0,1.974-0.382,2.737-1.146
		c0.766-0.765,1.148-1.678,1.148-2.738c0-1.06-0.383-1.973-1.148-2.738c-0.764-0.764-1.678-1.146-2.737-1.146
		c-1.062,0-1.974,0.383-2.737,1.146C135.193,683.793,134.812,684.706,134.812,685.766 M117.606,693.609v4.995h2.738v7.289
		c0,0.913,0.099,1.771,0.296,2.572c0.197,0.801,0.523,1.565,0.98,2.294c0.457,0.727,1.129,1.307,2.016,1.739
		c0.889,0.431,1.949,0.646,3.182,0.646c1.803,0,3.405-0.395,4.811-1.184l-1.627-5.291l-0.223,0.147
		c-0.148,0.1-0.357,0.198-0.629,0.296c-0.271,0.1-0.529,0.148-0.777,0.148c-0.986,0-1.479-0.875-1.479-2.627v-6.031h3.996v-4.995
		h-3.996v-7.066h-6.549v7.066H117.606z M105.879,712.591v-9.99c0-0.197,0.049-0.468,0.147-0.813s0.265-0.765,0.499-1.259
		c0.235-0.493,0.635-0.912,1.203-1.258c0.566-0.345,1.245-0.518,2.035-0.518c1.455,0,2.59,0.346,3.404,1.036l2.737-5.551
		l-0.519-0.296c-0.32-0.196-0.826-0.394-1.516-0.592c-0.691-0.197-1.395-0.296-2.109-0.296c-0.691,0-1.369,0.117-2.035,0.352
		s-1.209,0.499-1.629,0.795c-0.419,0.297-0.812,0.63-1.184,0.999c-0.369,0.37-0.611,0.63-0.722,0.777
		c-0.11,0.148-0.19,0.272-0.239,0.37h-0.074v-2.738H99.33v18.981H105.879z M82.605,698.642c1.232,0,2.275,0.42,3.125,1.258
		c0.852,0.839,1.277,1.912,1.277,3.219c0,1.283-0.412,2.345-1.239,3.183c-0.826,0.839-1.882,1.258-3.163,1.258
		c-1.332,0-2.404-0.413-3.219-1.239c-0.814-0.827-1.221-1.893-1.221-3.201c0-1.307,0.424-2.38,1.275-3.219
		C80.293,699.062,81.348,698.642,82.605,698.642 M80.645,713.146c2.516,0,4.588-0.899,6.216-2.701h0.073v2.146h6.477v-18.981h-6.55
		v1.813c-1.628-1.578-3.7-2.368-6.216-2.368c-2.738,0-4.995,0.975-6.771,2.923c-1.775,1.949-2.664,4.329-2.664,7.141
		c0,2.812,0.889,5.187,2.664,7.123C75.649,712.178,77.906,713.146,80.645,713.146 M56.631,707.559c-1.233,0-2.274-0.419-3.125-1.258
		c-0.852-0.838-1.277-1.911-1.277-3.219c0-1.282,0.413-2.344,1.24-3.183c0.826-0.838,1.88-1.258,3.162-1.258
		c1.332,0,2.406,0.413,3.219,1.24c0.814,0.826,1.221,1.893,1.221,3.2s-0.425,2.381-1.275,3.219
		C58.944,707.14,57.89,707.559,56.631,707.559 M58.592,693.055c-2.516,0-4.588,0.901-6.215,2.701h-0.074v-2.146h-6.475v28.602h6.549
		v-11.434c1.627,1.579,3.699,2.368,6.215,2.368c2.738,0,4.996-0.974,6.771-2.923c1.776-1.948,2.664-4.329,2.664-7.141
		c0-2.812-0.888-5.187-2.664-7.122C63.588,694.022,61.33,693.055,58.592,693.055"/>
	<path clip-path="url(#SVGID_6_)" fill="#231F20" d="M477.945,644.642c1.233,0,2.275,0.42,3.127,1.258
		c0.852,0.839,1.276,1.912,1.276,3.219c0,1.283-0.413,2.345-1.239,3.183c-0.827,0.839-1.881,1.258-3.164,1.258
		c-1.332,0-2.405-0.413-3.219-1.239c-0.814-0.827-1.221-1.893-1.221-3.201c0-1.307,0.426-2.38,1.276-3.219
		C475.633,645.062,476.688,644.642,477.945,644.642 M475.984,659.146c2.516,0,4.588-0.899,6.215-2.701h0.075v2.146h6.476v-18.981
		h-6.551v1.813c-1.627-1.578-3.699-2.368-6.215-2.368c-2.738,0-4.995,0.975-6.771,2.923c-1.776,1.949-2.665,4.329-2.665,7.141
		c0,2.812,0.889,5.187,2.665,7.123C470.989,658.178,473.246,659.146,475.984,659.146 M438.855,640.664
		c-1.492,1.072-2.238,2.571-2.238,4.495c0,1.283,0.346,2.312,1.035,3.091c0.691,0.775,1.629,1.474,2.812,2.09
		c0.469,0.247,1.116,0.518,1.942,0.813s1.411,0.562,1.759,0.795c0.345,0.235,0.518,0.562,0.518,0.981
		c0,0.913-0.68,1.369-2.035,1.369c-0.617,0-1.346-0.204-2.184-0.611s-1.418-0.727-1.738-0.962c-0.321-0.234-0.58-0.437-0.777-0.61
		l-2.664,4.478l0.814,0.666c0.542,0.42,1.424,0.839,2.645,1.258s2.51,0.629,3.867,0.629c5.994,0,8.99-2.158,8.99-6.475
		c0-0.912-0.172-1.727-0.518-2.442c-0.346-0.715-0.832-1.307-1.462-1.775c-0.629-0.469-1.227-0.839-1.794-1.11
		s-1.233-0.519-1.998-0.74c-0.124-0.024-0.303-0.074-0.536-0.147c-0.234-0.074-0.401-0.131-0.499-0.166
		c-0.1-0.038-0.247-0.094-0.445-0.167c-0.197-0.074-0.339-0.131-0.425-0.167s-0.204-0.093-0.352-0.166
		c-0.147-0.074-0.253-0.143-0.314-0.203c-0.062-0.062-0.129-0.137-0.203-0.224c-0.074-0.086-0.124-0.178-0.148-0.276
		s-0.038-0.197-0.038-0.296c0-0.444,0.155-0.746,0.463-0.906c0.309-0.161,0.834-0.241,1.573-0.241c1.331,0,2.738,0.396,4.218,1.184
		l2.146-4.292l-0.777-0.369c-0.518-0.246-1.308-0.493-2.367-0.74c-1.062-0.246-2.135-0.37-3.22-0.37
		C442.364,639.055,440.348,639.591,438.855,640.664 M419.672,644.16c0.641-0.566,1.504-0.851,2.59-0.851
		c0.985,0,1.794,0.265,2.423,0.795c0.629,0.531,1.017,1.29,1.165,2.276h-7.215C418.685,645.469,419.029,644.729,419.672,644.16
		 M432.252,649.118c0-3.23-0.944-5.717-2.832-7.454c-1.887-1.74-4.334-2.609-7.344-2.609c-2.861,0-5.315,0.987-7.362,2.96
		c-2.048,1.974-3.071,4.342-3.071,7.104c0,2.764,1.023,5.124,3.071,7.085c2.047,1.962,4.501,2.942,7.362,2.942
		c4.588,0,7.868-1.652,9.842-4.958l-4.736-2.368c-0.789,0.839-1.492,1.4-2.108,1.684c-0.617,0.284-1.456,0.426-2.516,0.426
		c-1.012,0-1.949-0.32-2.812-0.962c-0.864-0.642-1.295-1.628-1.295-2.96h13.765C432.238,649.858,432.252,649.562,432.252,649.118
		 M397.102,653.559c1.282,0,2.337-0.419,3.163-1.258c0.827-0.838,1.239-1.899,1.239-3.183c0-1.307-0.426-2.38-1.275-3.219
		c-0.852-0.838-1.895-1.258-3.127-1.258c-1.258,0-2.312,0.42-3.163,1.258c-0.851,0.839-1.277,1.912-1.277,3.219
		c0,1.309,0.407,2.374,1.222,3.201C394.696,653.146,395.77,653.559,397.102,653.559 M397.139,639.055
		c3.182,0,5.865,0.95,8.047,2.849c2.184,1.9,3.275,4.306,3.275,7.215c0,2.911-1.067,5.31-3.201,7.196
		c-2.133,1.889-4.842,2.831-8.121,2.831c-3.404,0-6.16-0.937-8.27-2.812c-2.109-1.874-3.164-4.279-3.164-7.216
		c0-2.935,1.098-5.347,3.293-7.233S393.906,639.055,397.139,639.055 M397.36,635.096c0.444,0.173,0.986,0.339,1.628,0.499
		c0.642,0.161,1.171,0.241,1.591,0.241c0.765,0,1.462-0.229,2.091-0.686c0.629-0.456,1.11-0.967,1.443-1.535
		c0.332-0.566,0.629-1.215,0.887-1.942c0.26-0.728,0.42-1.233,0.482-1.518c0.062-0.282,0.104-0.511,0.129-0.684h-3.736l-0.148,0.407
		c-0.099,0.296-0.291,0.586-0.574,0.869s-0.598,0.426-0.943,0.426c-0.889,0-1.825-0.234-2.812-0.703l-0.629-0.259
		c-0.444-0.172-0.987-0.339-1.628-0.5c-0.643-0.16-1.172-0.24-1.592-0.24c-0.766,0-1.461,0.228-2.09,0.684
		c-0.629,0.457-1.109,0.97-1.442,1.536c-0.335,0.568-0.63,1.215-0.888,1.942c-0.26,0.728-0.42,1.233-0.481,1.517
		c-0.062,0.284-0.106,0.514-0.13,0.686h3.736l0.148-0.407c0.098-0.296,0.29-0.586,0.573-0.87c0.284-0.283,0.598-0.425,0.944-0.425
		c0.888,0,1.824,0.234,2.811,0.703L397.36,635.096z M372.127,663.363l0.185-0.11c0.098-0.05,0.308-0.1,0.629-0.148
		c0.32-0.05,0.678-0.074,1.073-0.074c0.592,0,1.121,0.143,1.59,0.427c0.469,0.282,0.704,0.695,0.704,1.238
		c0,0.395-0.148,0.734-0.444,1.018c-0.297,0.284-0.766,0.426-1.406,0.426c-0.493,0-1.006-0.161-1.534-0.481
		c-0.531-0.32-0.889-0.579-1.073-0.776c-0.186-0.198-0.328-0.358-0.426-0.481l-2.664,1.998l0.666,0.777
		c0.468,0.493,1.178,0.999,2.127,1.517c0.949,0.519,1.918,0.777,2.904,0.777c1.899,0,3.312-0.469,4.237-1.406
		s1.387-2.06,1.387-3.367c0-1.184-0.506-2.108-1.517-2.774c-1.012-0.666-2.097-0.999-3.256-0.999l0.592-1.813
		c0.148,0.024,0.369,0.037,0.666,0.037c1.258,0,2.436-0.161,3.534-0.48c1.097-0.32,1.8-0.574,2.108-0.76
		c0.309-0.185,0.549-0.338,0.722-0.462l-2.22-4.551l-0.333,0.222c-0.247,0.148-0.636,0.296-1.165,0.444
		c-0.531,0.148-1.094,0.222-1.685,0.222c-1.233,0-2.294-0.456-3.182-1.368s-1.333-2.022-1.333-3.33c0-1.282,0.445-2.381,1.333-3.293
		s1.948-1.369,3.182-1.369c1.308,0,2.368,0.296,3.183,0.888l2.22-4.477l-0.63-0.444c-0.443-0.296-1.197-0.592-2.256-0.888
		c-1.062-0.296-2.221-0.444-3.479-0.444c-2.788,0-5.235,0.993-7.344,2.978c-2.109,1.986-3.164,4.361-3.164,7.123
		c0,2.146,0.678,4.083,2.035,5.81c1.355,1.727,3.057,2.936,5.105,3.626l-1.442,4.477L372.127,663.363z M350.703,644.642
		c1.232,0,2.276,0.42,3.127,1.258c0.852,0.839,1.276,1.912,1.276,3.219c0,1.283-0.413,2.345-1.239,3.183
		c-0.827,0.839-1.882,1.258-3.164,1.258c-1.332,0-2.404-0.413-3.219-1.239c-0.814-0.827-1.221-1.893-1.221-3.201
		c0-1.307,0.426-2.38,1.276-3.219C348.392,645.062,349.445,644.642,350.703,644.642 M348.742,659.146
		c2.517,0,4.588-0.899,6.217-2.701h0.072v2.146h6.477v-18.981h-6.549v1.813c-1.629-1.578-3.7-2.368-6.217-2.368
		c-2.738,0-4.995,0.975-6.771,2.923c-1.776,1.949-2.664,4.329-2.664,7.141c0,2.812,0.888,5.187,2.664,7.123
		C343.747,658.178,346.004,659.146,348.742,659.146 M334.572,658.591h-6.549v-18.981h6.549V658.591z M327.506,631.766
		c0,1.061,0.381,1.974,1.146,2.738c0.764,0.765,1.677,1.146,2.738,1.146c1.06,0,1.973-0.382,2.738-1.146
		c0.764-0.765,1.146-1.678,1.146-2.738c0-1.06-0.383-1.973-1.146-2.738c-0.766-0.764-1.679-1.146-2.738-1.146
		c-1.062,0-1.975,0.383-2.738,1.146C327.887,629.793,327.506,630.706,327.506,631.766 M314.666,658.591v-9.99
		c0-0.197,0.05-0.468,0.148-0.813c0.098-0.346,0.265-0.765,0.5-1.259c0.234-0.493,0.633-0.912,1.202-1.258
		c0.567-0.345,1.245-0.518,2.035-0.518c1.455,0,2.59,0.346,3.403,1.036l2.738-5.551l-0.518-0.296
		c-0.322-0.196-0.827-0.394-1.518-0.592c-0.69-0.197-1.394-0.296-2.109-0.296c-0.69,0-1.368,0.117-2.035,0.351
		c-0.665,0.235-1.208,0.5-1.627,0.796c-0.42,0.297-0.814,0.63-1.186,0.999c-0.369,0.37-0.608,0.63-0.72,0.777
		c-0.112,0.148-0.192,0.272-0.241,0.37h-0.074v-2.738h-6.549v18.981H314.666z M291.394,644.642c1.233,0,2.276,0.42,3.126,1.258
		c0.852,0.839,1.277,1.912,1.277,3.219c0,1.283-0.413,2.345-1.239,3.183c-0.827,0.839-1.881,1.258-3.164,1.258
		c-1.332,0-2.405-0.413-3.219-1.239c-0.814-0.827-1.222-1.893-1.222-3.201c0-1.307,0.427-2.38,1.277-3.219
		C289.081,645.062,290.135,644.642,291.394,644.642 M289.433,659.146c2.515,0,4.587-0.899,6.216-2.701h0.074v2.146h6.475v-18.981
		h-6.549v1.813c-1.629-1.578-3.701-2.368-6.216-2.368c-2.738,0-4.995,0.975-6.771,2.923c-1.776,1.949-2.663,4.329-2.663,7.141
		c0,2.812,0.887,5.187,2.663,7.123S286.694,659.146,289.433,659.146 M253.875,639.609l10.176,18.981h4.439l10.176-18.981h-7.771
		l-4.626,10.323l-4.624-10.323H253.875z M228.346,644.16c0.641-0.566,1.504-0.851,2.59-0.851c0.986,0,1.795,0.265,2.424,0.795
		c0.629,0.531,1.018,1.29,1.165,2.276h-7.215C227.359,645.469,227.705,644.729,228.346,644.16 M240.926,649.118
		c0-3.23-0.943-5.717-2.83-7.454c-1.887-1.74-4.335-2.609-7.346-2.609c-2.86,0-5.314,0.987-7.363,2.96
		c-2.047,1.974-3.07,4.342-3.07,7.104c0,2.764,1.023,5.124,3.07,7.085c2.049,1.962,4.503,2.942,7.363,2.942
		c4.588,0,7.869-1.652,9.842-4.958l-4.735-2.368c-0.79,0.839-1.492,1.4-2.108,1.684c-0.617,0.284-1.455,0.426-2.518,0.426
		c-1.01,0-1.947-0.32-2.811-0.962s-1.295-1.628-1.295-2.96h13.764C240.914,649.858,240.926,649.562,240.926,649.118
		 M204.961,644.642c1.234,0,2.275,0.42,3.127,1.258c0.852,0.839,1.276,1.912,1.276,3.219c0,1.283-0.413,2.345-1.239,3.183
		c-0.826,0.839-1.881,1.258-3.164,1.258c-1.332,0-2.404-0.413-3.219-1.239c-0.813-0.827-1.221-1.893-1.221-3.201
		c0-1.307,0.426-2.38,1.277-3.219C202.649,645.062,203.703,644.642,204.961,644.642 M203,659.146c2.517,0,4.588-0.899,6.217-2.701
		h0.074v2.146h6.475v-31.82h-6.549v14.652c-1.629-1.578-3.7-2.368-6.217-2.368c-2.737,0-4.994,0.975-6.771,2.923
		c-1.776,1.949-2.664,4.329-2.664,7.141c0,2.812,0.888,5.187,2.664,7.123S200.263,659.146,203,659.146 M166.631,644.642
		c1.232,0,2.274,0.42,3.125,1.258c0.852,0.839,1.277,1.912,1.277,3.219c0,1.283-0.414,2.345-1.24,3.183
		c-0.826,0.839-1.881,1.258-3.162,1.258c-1.332,0-2.405-0.413-3.219-1.239c-0.814-0.827-1.222-1.893-1.222-3.201
		c0-1.307,0.425-2.38,1.276-3.219C164.317,645.062,165.373,644.642,166.631,644.642 M164.67,659.146
		c2.516,0,4.588-0.899,6.215-2.701h0.074v2.146h6.475v-18.981h-6.549v1.813c-1.627-1.578-3.699-2.368-6.215-2.368
		c-2.738,0-4.996,0.975-6.771,2.923c-1.775,1.949-2.664,4.329-2.664,7.141c0,2.812,0.889,5.187,2.664,7.123
		S161.932,659.146,164.67,659.146 M138.955,639.609v4.995h2.737v7.289c0,0.913,0.099,1.771,0.296,2.572
		c0.197,0.801,0.524,1.565,0.98,2.293c0.457,0.728,1.129,1.308,2.017,1.739s1.948,0.647,3.183,0.647c1.799,0,3.402-0.395,4.81-1.184
		l-1.628-5.291l-0.223,0.147c-0.147,0.1-0.357,0.198-0.629,0.296c-0.271,0.1-0.531,0.148-0.776,0.148
		c-0.987,0-1.479-0.875-1.479-2.627v-6.031h3.994v-4.995h-3.994v-7.066h-6.55v7.066H138.955z M134.479,658.591h-6.549v-18.981h6.549
		V658.591z M127.412,631.766c0,1.061,0.381,1.974,1.146,2.738c0.764,0.765,1.676,1.146,2.738,1.146c1.06,0,1.973-0.382,2.738-1.146
		c0.764-0.765,1.146-1.678,1.146-2.738c0-1.06-0.383-1.973-1.146-2.738c-0.766-0.764-1.679-1.146-2.738-1.146
		c-1.062,0-1.975,0.383-2.738,1.146C127.793,629.793,127.412,630.706,127.412,631.766 M114.572,658.591v-9.99
		c0-0.197,0.049-0.468,0.148-0.813c0.098-0.346,0.265-0.765,0.5-1.259c0.234-0.493,0.633-0.912,1.201-1.258
		c0.567-0.345,1.246-0.518,2.035-0.518c1.455,0,2.59,0.346,3.404,1.036l2.738-5.551l-0.518-0.296
		c-0.321-0.196-0.828-0.394-1.518-0.592c-0.691-0.197-1.395-0.296-2.109-0.296c-0.69,0-1.369,0.117-2.035,0.351
		c-0.666,0.235-1.209,0.5-1.627,0.796c-0.42,0.297-0.814,0.63-1.185,0.999c-0.37,0.37-0.61,0.63-0.722,0.777
		c-0.11,0.148-0.191,0.272-0.24,0.37h-0.074v-2.738h-6.549v18.981H114.572z M101.733,645.308l2.22-4.477l-0.629-0.444
		c-0.443-0.296-1.197-0.592-2.258-0.888s-2.219-0.444-3.477-0.444c-2.789,0-5.236,0.993-7.344,2.978
		c-2.109,1.986-3.164,4.361-3.164,7.123c0,2.738,1.055,5.087,3.164,7.048c2.107,1.962,4.555,2.942,7.344,2.942
		c1.258,0,2.436-0.161,3.533-0.48c1.098-0.32,1.801-0.574,2.109-0.76c0.309-0.185,0.548-0.338,0.721-0.462l-2.22-4.551l-0.333,0.222
		c-0.248,0.148-0.635,0.296-1.166,0.444c-0.529,0.148-1.091,0.222-1.684,0.222c-1.233,0-2.293-0.456-3.182-1.368
		c-0.888-0.912-1.332-2.022-1.332-3.33c0-1.282,0.444-2.381,1.332-3.293c0.889-0.912,1.948-1.369,3.182-1.369
		C99.858,644.42,100.92,644.716,101.733,645.308 M70.969,640.664c-1.493,1.072-2.238,2.571-2.238,4.495
		c0,1.283,0.346,2.312,1.035,3.091c0.691,0.775,1.628,1.474,2.812,2.09c0.469,0.247,1.115,0.518,1.941,0.813
		c0.827,0.296,1.413,0.562,1.759,0.795c0.345,0.235,0.519,0.562,0.519,0.981c0,0.913-0.68,1.369-2.035,1.369
		c-0.617,0-1.346-0.204-2.184-0.611c-0.839-0.407-1.418-0.727-1.738-0.962c-0.322-0.234-0.58-0.437-0.778-0.61l-2.663,4.478
		l0.814,0.666c0.541,0.42,1.424,0.839,2.645,1.258s2.51,0.629,3.866,0.629c5.995,0,8.991-2.158,8.991-6.475
		c0-0.912-0.172-1.727-0.518-2.442c-0.346-0.715-0.833-1.307-1.463-1.775c-0.628-0.469-1.227-0.839-1.793-1.11
		c-0.568-0.271-1.234-0.519-1.998-0.74c-0.125-0.024-0.303-0.074-0.537-0.147c-0.234-0.074-0.4-0.131-0.5-0.166
		c-0.098-0.038-0.246-0.094-0.443-0.167c-0.197-0.074-0.34-0.131-0.426-0.167s-0.203-0.093-0.352-0.166
		c-0.146-0.074-0.253-0.143-0.314-0.203c-0.062-0.062-0.129-0.137-0.203-0.224c-0.073-0.086-0.123-0.178-0.148-0.276
		c-0.023-0.099-0.037-0.197-0.037-0.296c0-0.444,0.154-0.746,0.463-0.906c0.309-0.161,0.833-0.241,1.572-0.241
		c1.332,0,2.738,0.396,4.219,1.184l2.146-4.292l-0.777-0.369c-0.518-0.246-1.309-0.493-2.369-0.74
		c-1.061-0.246-2.133-0.37-3.219-0.37C74.478,639.055,72.461,639.591,70.969,640.664 M45.828,628.065v30.525h17.463v-6.105H52.783
		v-6.142h10.064v-6.105H52.783v-6.067h10.508v-6.105H45.828z"/>
</g>
<line fill="none" stroke="#0046F9" stroke-width="2" x1="24.141" y1="601.42" x2="537.141" y2="601.42"/>
<line fill="none" stroke="#0046F9" stroke-width="2" x1="24.141" y1="750.014" x2="537.141" y2="750.014"/>
<g>
	<defs>
		<rect id="SVGID_135_" width="564" height="1002"/>
	</defs>
	<clipPath id="SVGID_8_">
		<use xlink:href="#SVGID_135_"  overflow="visible"/>
	</clipPath>
	<path clip-path="url(#SVGID_8_)" fill="#231F20" d="M476.604,509.531h48.523v51.296h-48.523V509.531z M371.242,505.834
		c0,4.159,3.697,15.25,15.25,15.25c10.629,0,15.25-11.091,15.25-15.25V404.167c0-4.159-4.621-15.25-15.25-15.25
		s-14.789,8.78-15.25,13.864V505.834z M451.65,491.046c0,7.856-0.923,26.341-9.704,42.515c-8.78,16.638-25.416,30.963-55.454,30.963
		c-30.962,0-46.675-14.325-55.455-30.963c-8.779-16.174-9.703-34.658-9.703-42.515V297.879c0-11.553,0.462-32.349,9.241-49.447
		c8.78-16.637,24.491-30.961,55.917-30.961c31.424,0,47.137,14.324,55.917,30.961c8.78,17.099,9.241,37.895,9.241,49.447v21.258
		h-49.908c0-22.644-0.462-37.432-2.311-46.213c-1.848-8.779-5.545-12.015-12.939-12.015c-6.008,0-10.167,2.772-12.015,8.78
		c-2.312,6.008-3.235,15.25-3.235,28.189v60.538c8.78-5.083,16.174-8.317,24.954-8.317c25.879,0,39.743,13.4,47.138,28.65
		c7.394,15.25,8.316,33.734,8.316,42.979V491.046z"/>
</g>
</svg>
