<?xml version="1.0" encoding="utf-8"?>
<!-- Generator: Adobe Illustrator 16.0.0, SVG Export Plug-In . SVG Version: 6.00 Build 0)  -->
<!DOCTYPE svg PUBLIC "-//W3C//DTD SVG 1.1//EN" "http://www.w3.org/Graphics/SVG/1.1/DTD/svg11.dtd">
<svg version="1.1" id="Layer_1" xmlns="http://www.w3.org/2000/svg" xmlns:xlink="http://www.w3.org/1999/xlink" x="0px" y="0px"
	 width="564px" height="1002px" viewBox="0 0 564 1002" enable-background="new 0 0 564 1002" xml:space="preserve">
<g>
	<defs>
		<rect id="SVGID_1_" width="564" height="1002"/>
	</defs>
	<clipPath id="SVGID_2_">
		<use xlink:href="#SVGID_1_"  overflow="visible"/>
	</clipPath>
	<path clip-path="url(#SVGID_2_)" fill="#FF1419" d="M489.672,76.058l8.156-21.277h0.178l8.156,21.277H489.672z M490.204,32.173
		l-29.522,73.14h17.908l5.408-14.628h27.838l5.408,14.628h17.908l-29.522-73.14H490.204z M400.841,45.472h1.95
		c1.537,0,2.837,0.031,3.901,0.089c1.063,0.059,2.274,0.266,3.635,0.62c1.358,0.355,2.452,0.858,3.28,1.508
		c0.826,0.651,1.536,1.595,2.128,2.837c0.59,1.241,0.887,2.748,0.887,4.521s-0.297,3.28-0.887,4.521
		c-0.592,1.241-1.302,2.188-2.128,2.837c-0.828,0.651-1.922,1.153-3.28,1.507c-1.36,0.355-2.571,0.563-3.635,0.621
		c-1.064,0.06-2.364,0.089-3.901,0.089h-1.95V45.472z M384.174,105.313h16.667V76.413l22.341,28.901h21.189l-25.178-30.231
		c4.609-1.477,8.258-4.034,10.947-7.669c2.689-3.635,4.034-8.141,4.034-13.52c0-6.973-2.216-12.336-6.648-16.09
		c-4.434-3.753-10.166-5.63-17.199-5.63h-26.153V105.313z M336.922,32.173v42.288c0,5.911-0.931,10.018-2.793,12.323
		c-1.861,2.305-4.891,3.458-9.087,3.458c-4.197,0-7.225-1.153-9.087-3.458c-1.862-2.305-2.793-6.412-2.793-12.323V32.173h-16.667
		v47.164c0,8.985,2.423,15.781,7.27,20.391c4.847,4.61,11.938,6.915,21.277,6.915c9.338,0,16.43-2.305,21.277-6.915
		c4.846-4.61,7.27-11.406,7.27-20.391V32.173H336.922z M236.477,46.801v58.512h16.667V46.801h17.376V32.173H219.1v14.628H236.477z
		 M179.825,105.313h16.667v-73.14h-16.667V105.313z M107.573,32.173v73.14h41.845V90.686H124.24V75.968h24.114V61.34H124.24V46.801
		h25.178V32.173H107.573z M36.65,32.173v73.14h41.845V90.686H53.317V32.173H36.65z"/>
	<path clip-path="url(#SVGID_2_)" fill="#231F20" d="M510.136,532.672c2.799,0,4.935-0.548,6.407-1.646
		c1.471-1.098,2.208-2.527,2.208-4.29c0-1.567-0.586-2.805-1.756-3.71c-1.171-0.903-3.083-1.586-5.737-2.045
		c-1.23-0.24-2.093-0.487-2.588-0.742c-0.494-0.253-0.742-0.561-0.742-0.923c0-0.385,0.241-0.711,0.724-0.977
		c0.483-0.265,1.159-0.398,2.027-0.398c1.11,0,2.063,0.193,2.86,0.579c0.796,0.386,1.483,1.002,2.062,1.846l3.186-3.112
		c-0.821-1.134-1.889-1.984-3.203-2.551c-1.316-0.567-3.012-0.852-5.086-0.852c-1.883,0-3.481,0.284-4.796,0.852
		c-1.315,0.566-2.299,1.309-2.95,2.226s-0.978,1.894-0.978,2.931c0,1.521,0.573,2.739,1.72,3.656
		c1.146,0.917,3.07,1.641,5.773,2.172c1.206,0.241,2.057,0.488,2.551,0.742c0.495,0.253,0.742,0.549,0.742,0.887
		c0,0.387-0.241,0.694-0.724,0.923c-0.483,0.229-1.146,0.344-1.99,0.344c-2.534,0-4.32-0.856-5.357-2.569l-3.185,3.474
		C503.042,531.61,505.985,532.672,510.136,532.672 M488.419,528.69c-0.556,0-0.989-0.132-1.304-0.397
		c-0.312-0.266-0.47-0.652-0.47-1.158c0-0.507,0.163-0.899,0.489-1.177c0.325-0.277,0.874-0.513,1.646-0.706l2.933-0.688v1.557
		c0,0.772-0.338,1.394-1.014,1.863C490.023,528.456,489.264,528.69,488.419,528.69 M499.097,528.8c-0.869,0-1.303-0.471-1.303-1.412
		V520.8c0-2.316-0.736-4.053-2.208-5.212c-1.473-1.158-3.619-1.737-6.443-1.737c-2.413,0-4.331,0.489-5.755,1.466
		c-1.424,0.978-2.292,2.348-2.606,4.108l4.995,1.448c0.169-0.989,0.543-1.701,1.122-2.137c0.579-0.434,1.327-0.65,2.244-0.65
		c0.797,0,1.424,0.241,1.882,0.724c0.459,0.483,0.688,1.134,0.688,1.954v0.652l-4.09,0.796c-2.511,0.507-4.313,1.237-5.411,2.189
		c-1.099,0.953-1.647,2.202-1.647,3.746c0,1.473,0.482,2.595,1.448,3.366c0.965,0.773,2.353,1.158,4.162,1.158
		c3.209,0,5.356-0.928,6.442-2.787c0.508,1.859,2.063,2.787,4.67,2.787c0.94,0,1.761-0.193,2.462-0.579l0.47-3.438
		C499.929,528.752,499.555,528.8,499.097,528.8 M477.235,514.213h-6.152v18.098h6.152V514.213z M474.158,512.113
		c1.255,0,2.166-0.235,2.733-0.705c0.566-0.472,0.851-1.214,0.851-2.227c0-1.037-0.284-1.792-0.851-2.262
		c-0.567-0.471-1.479-0.706-2.733-0.706s-2.166,0.235-2.732,0.706c-0.567,0.47-0.85,1.225-0.85,2.262
		c0,1.013,0.282,1.755,0.85,2.227C471.992,511.878,472.903,512.113,474.158,512.113 M459.065,513.851
		c-2.993,0-5.327,0.827-7.004,2.479s-2.516,3.964-2.516,6.932c0,2.992,0.845,5.309,2.534,6.949c1.688,1.641,4.102,2.461,7.238,2.461
		c2.438,0,4.398-0.512,5.883-1.538c1.483-1.025,2.357-2.358,2.623-3.999l-5.537-1.774c-0.289,1.955-1.291,2.933-3.005,2.933
		c-2.389,0-3.583-1.653-3.583-4.959c0-3.402,1.194-5.104,3.583-5.104c1.616,0,2.546,1.037,2.787,3.112l5.72-1.882
		c-0.338-1.665-1.195-3.017-2.57-4.055C463.844,514.37,461.792,513.851,459.065,513.851 M439.846,513.851
		c-1.424,0-2.666,0.32-3.729,0.959c-1.062,0.641-1.882,1.6-2.461,2.878l-0.181-3.475h-5.502v18.098h6.153v-9.556
		c0-1.424,0.302-2.479,0.904-3.167c0.604-0.688,1.389-1.032,2.354-1.032c0.82,0,1.454,0.26,1.9,0.779
		c0.446,0.519,0.67,1.393,0.67,2.624v10.352h6.152v-12.053c0-2.051-0.566-3.632-1.701-4.742S441.752,513.851,439.846,513.851
		 M422.292,512.077l-3.909-6.262h-6.008l-3.909,6.262h4.452l2.461-3.149l2.461,3.149H422.292z M415.451,518.158
		c1.931,0,3.041,1.183,3.329,3.547h-6.804C412.339,519.341,413.497,518.158,415.451,518.158 M424.536,523.008
		c0-2.896-0.778-5.146-2.334-6.75c-1.558-1.604-3.796-2.407-6.715-2.407c-3.017,0-5.345,0.821-6.985,2.461
		c-1.642,1.642-2.461,3.958-2.461,6.95s0.838,5.309,2.515,6.949s4.096,2.461,7.257,2.461c2.123,0,3.915-0.403,5.375-1.212
		s2.443-1.985,2.95-3.529l-4.995-1.593c-0.193,0.651-0.573,1.146-1.14,1.483c-0.567,0.34-1.297,0.508-2.19,0.508
		c-1.062,0-1.912-0.266-2.551-0.796c-0.64-0.531-1.056-1.363-1.249-2.498h12.342C424.476,524.505,424.536,523.829,424.536,523.008
		 M396.34,514.213v9.592c0,1.399-0.302,2.443-0.904,3.131c-0.604,0.688-1.412,1.031-2.425,1.031c-0.845,0-1.473-0.241-1.883-0.724
		s-0.615-1.315-0.615-2.497v-10.533h-6.153v12.089c0,2.196,0.548,3.807,1.647,4.832c1.097,1.026,2.61,1.538,4.542,1.538
		c3.041,0,5.127-1.242,6.262-3.729l0.182,3.367h5.502v-18.098H396.34z M370.569,528.147c-2.269,0-3.402-1.629-3.402-4.886
		c0-3.258,1.134-4.887,3.402-4.887c1.037,0,1.852,0.404,2.443,1.213c0.591,0.809,0.887,1.973,0.887,3.493v0.361
		c0,1.496-0.29,2.654-0.869,3.475C372.452,527.737,371.631,528.147,370.569,528.147 M374.66,514.213l-0.219,3.8
		c-0.506-1.278-1.284-2.292-2.334-3.04s-2.287-1.122-3.71-1.122c-2.341,0-4.163,0.821-5.466,2.461
		c-1.303,1.642-1.954,3.935-1.954,6.877c0,2.993,0.657,5.321,1.974,6.986c1.313,1.665,3.142,2.497,5.482,2.497
		c1.254,0,2.347-0.295,3.276-0.886c0.928-0.592,1.657-1.418,2.189-2.48v10.606h6.153v-25.699H374.66z M349.179,518.158
		c1.93,0,3.04,1.183,3.33,3.547h-6.805C346.065,519.341,347.224,518.158,349.179,518.158 M358.264,523.008
		c0-2.896-0.778-5.146-2.335-6.75c-1.556-1.604-3.795-2.407-6.714-2.407c-3.018,0-5.345,0.821-6.986,2.461
		c-1.641,1.642-2.461,3.958-2.461,6.95s0.838,5.309,2.516,6.949c1.677,1.641,4.096,2.461,7.258,2.461
		c2.123,0,3.914-0.403,5.375-1.212c1.459-0.809,2.442-1.985,2.949-3.529l-4.994-1.593c-0.194,0.651-0.574,1.146-1.141,1.483
		c-0.567,0.34-1.298,0.508-2.189,0.508c-1.062,0-1.913-0.266-2.553-0.796c-0.64-0.531-1.056-1.363-1.249-2.498h12.344
		C358.203,524.505,358.264,523.829,358.264,523.008 M328.945,532.672c2.8,0,4.935-0.548,6.406-1.646
		c1.472-1.098,2.208-2.527,2.208-4.29c0-1.567-0.585-2.805-1.755-3.71c-1.171-0.903-3.083-1.586-5.737-2.045
		c-1.23-0.24-2.094-0.487-2.588-0.742c-0.495-0.253-0.742-0.561-0.742-0.923c0-0.385,0.241-0.711,0.725-0.977
		c0.481-0.265,1.158-0.398,2.026-0.398c1.109,0,2.063,0.193,2.859,0.579s1.484,1.002,2.063,1.846l3.185-3.112
		c-0.82-1.134-1.888-1.984-3.203-2.551c-1.314-0.567-3.01-0.852-5.085-0.852c-1.882,0-3.48,0.284-4.796,0.852
		c-1.316,0.566-2.299,1.309-2.95,2.226s-0.977,1.894-0.977,2.931c0,1.521,0.572,2.739,1.719,3.656
		c1.146,0.917,3.07,1.641,5.773,2.172c1.205,0.241,2.057,0.488,2.552,0.742c0.494,0.253,0.742,0.549,0.742,0.887
		c0,0.387-0.242,0.694-0.725,0.923c-0.482,0.229-1.146,0.344-1.991,0.344c-2.532,0-4.318-0.856-5.356-2.569l-3.186,3.474
		C321.852,531.61,324.795,532.672,328.945,532.672 M299.303,532.672c2.798,0,4.934-0.548,6.406-1.646
		c1.472-1.098,2.208-2.527,2.208-4.29c0-1.567-0.585-2.805-1.756-3.71c-1.171-0.903-3.082-1.586-5.736-2.045
		c-1.231-0.24-2.094-0.487-2.588-0.742c-0.495-0.253-0.742-0.561-0.742-0.923c0-0.385,0.241-0.711,0.723-0.977
		c0.483-0.265,1.159-0.398,2.027-0.398c1.11,0,2.063,0.193,2.86,0.579c0.796,0.386,1.483,1.002,2.062,1.846l3.186-3.112
		c-0.82-1.134-1.889-1.984-3.203-2.551c-1.316-0.567-3.012-0.852-5.086-0.852c-1.883,0-3.481,0.284-4.795,0.852
		c-1.316,0.566-2.3,1.309-2.95,2.226c-0.652,0.917-0.979,1.894-0.979,2.931c0,1.521,0.573,2.739,1.721,3.656
		c1.145,0.917,3.069,1.641,5.772,2.172c1.206,0.241,2.057,0.488,2.552,0.742c0.494,0.253,0.742,0.549,0.742,0.887
		c0,0.387-0.242,0.694-0.724,0.923c-0.483,0.229-1.147,0.344-1.991,0.344c-2.534,0-4.32-0.856-5.357-2.569l-3.185,3.474
		C292.208,531.61,295.151,532.672,299.303,532.672 M279.287,518.158c1.93,0,3.041,1.183,3.331,3.547h-6.806
		C276.174,519.341,277.333,518.158,279.287,518.158 M288.372,523.008c0-2.896-0.778-5.146-2.335-6.75s-3.794-2.407-6.714-2.407
		c-3.016,0-5.345,0.821-6.985,2.461c-1.642,1.642-2.462,3.958-2.462,6.95s0.839,5.309,2.516,6.949
		c1.677,1.641,4.096,2.461,7.257,2.461c2.123,0,3.915-0.403,5.375-1.212s2.443-1.985,2.95-3.529l-4.995-1.593
		c-0.192,0.651-0.573,1.146-1.14,1.483c-0.567,0.34-1.297,0.508-2.19,0.508c-1.062,0-1.913-0.266-2.552-0.796
		c-0.639-0.531-1.056-1.363-1.248-2.498h12.342C288.312,524.505,288.372,523.829,288.372,523.008 M267.523,527.497
		c-0.748,0.53-1.617,0.796-2.606,0.796c-1.593,0-2.389-0.809-2.389-2.425v-7.275h5.429v-4.38h-5.429v-5.755l-6.153,1.701v4.054
		h-3.113v4.38h3.113v8.288c0.023,2.027,0.603,3.499,1.737,4.416c1.134,0.917,2.775,1.375,4.923,1.375
		c0.941,0,1.876-0.126,2.805-0.38c0.928-0.253,1.695-0.584,2.298-0.995L267.523,527.497z M244.54,513.851
		c-1.424,0-2.667,0.32-3.728,0.959c-1.062,0.641-1.883,1.6-2.462,2.878l-0.181-3.475h-5.501v18.098h6.153v-9.556
		c0-1.424,0.301-2.479,0.905-3.167c0.603-0.688,1.387-1.032,2.352-1.032c0.82,0,1.454,0.26,1.901,0.779
		c0.446,0.519,0.669,1.393,0.669,2.624v10.352h6.153v-12.053c0-2.051-0.567-3.632-1.701-4.742
		C247.966,514.405,246.446,513.851,244.54,513.851 M220.145,518.158c1.93,0,3.04,1.183,3.33,3.547h-6.805
		C217.032,519.341,218.189,518.158,220.145,518.158 M229.229,523.008c0-2.896-0.778-5.146-2.335-6.75
		c-1.556-1.604-3.795-2.407-6.714-2.407c-3.017,0-5.345,0.821-6.986,2.461c-1.641,1.642-2.461,3.958-2.461,6.95
		s0.838,5.309,2.516,6.949c1.676,1.641,4.095,2.461,7.257,2.461c2.123,0,3.914-0.403,5.375-1.212
		c1.459-0.809,2.443-1.985,2.95-3.529l-4.995-1.593c-0.194,0.651-0.574,1.146-1.141,1.483c-0.567,0.34-1.297,0.508-2.189,0.508
		c-1.062,0-1.913-0.266-2.552-0.796c-0.64-0.531-1.056-1.363-1.249-2.498h12.343C229.169,524.505,229.229,523.829,229.229,523.008
		 M207.439,513.851c-1.375,0-2.528,0.368-3.456,1.104c-0.929,0.735-1.611,1.792-2.045,3.167l-0.254-3.909h-5.429v18.098h6.153
		v-9.122c0-1.375,0.386-2.43,1.158-3.167c0.772-0.735,1.738-1.104,2.896-1.104c0.458,0,0.893,0.055,1.303,0.163
		s0.736,0.234,0.977,0.38l0.652-5.212C208.912,513.983,208.26,513.851,207.439,513.851 M183.733,518.158
		c1.93,0,3.04,1.183,3.33,3.547h-6.805C180.62,519.341,181.779,518.158,183.733,518.158 M192.818,523.008
		c0-2.896-0.778-5.146-2.335-6.75c-1.556-1.604-3.794-2.407-6.714-2.407c-3.016,0-5.345,0.821-6.985,2.461
		c-1.642,1.642-2.462,3.958-2.462,6.95s0.838,5.309,2.516,6.949c1.677,1.641,4.096,2.461,7.257,2.461
		c2.123,0,3.915-0.403,5.375-1.212s2.443-1.985,2.95-3.529l-4.995-1.593c-0.193,0.651-0.573,1.146-1.14,1.483
		c-0.567,0.34-1.298,0.508-2.19,0.508c-1.062,0-1.913-0.266-2.552-0.796c-0.639-0.531-1.056-1.363-1.248-2.498h12.342
		C192.758,524.505,192.818,523.829,192.818,523.008 M167.409,512.945c0-1.736,1.001-2.605,3.004-2.605
		c0.845,0,1.532,0.193,2.064,0.579l0.615-3.836c-0.893-0.7-2.28-1.05-4.163-1.05c-2.171,0-3.933,0.543-5.284,1.629
		c-1.352,1.085-2.027,2.714-2.027,4.886v1.665h-2.896v4.38h2.896v13.718h6.153v-13.718h5.14v-4.38h-5.502V512.945z M156.008,514.213
		h-6.153v18.098h6.153V514.213z M152.932,512.113c1.254,0,2.165-0.235,2.732-0.705c0.567-0.472,0.851-1.214,0.851-2.227
		c0-1.037-0.284-1.792-0.851-2.262c-0.567-0.471-1.478-0.706-2.732-0.706c-1.255,0-2.166,0.235-2.733,0.706
		c-0.567,0.47-0.851,1.225-0.851,2.262c0,1.013,0.284,1.755,0.851,2.227C150.766,511.878,151.677,512.113,152.932,512.113
		 M135.957,528.147c-1.086,0-1.925-0.397-2.516-1.193c-0.592-0.798-0.887-2.027-0.887-3.692s0.295-2.896,0.887-3.692
		c0.591-0.796,1.43-1.194,2.516-1.194c0.989,0,1.779,0.361,2.37,1.086c0.591,0.724,0.923,1.75,0.996,3.077v1.447
		c-0.073,1.352-0.405,2.384-0.996,3.095C137.736,527.792,136.946,528.147,135.957,528.147 M139.323,506.54v10.713
		c-0.531-1.062-1.255-1.895-2.172-2.497c-0.917-0.604-2.015-0.905-3.294-0.905c-2.341,0-4.175,0.832-5.501,2.497
		c-1.328,1.665-1.991,3.994-1.991,6.986c0,2.943,0.657,5.236,1.972,6.877c1.315,1.641,3.143,2.461,5.484,2.461
		c1.351,0,2.539-0.338,3.565-1.013c1.026-0.676,1.804-1.604,2.335-2.787l0.217,3.438h5.538V506.54H139.323z M106.277,513.851
		c-1.327,0-2.528,0.314-3.602,0.941c-1.074,0.628-1.9,1.533-2.479,2.715c-0.434-1.182-1.153-2.087-2.154-2.715
		c-1.001-0.627-2.189-0.941-3.565-0.941c-1.399,0-2.618,0.326-3.655,0.978c-1.038,0.651-1.846,1.604-2.426,2.859l-0.181-3.475
		h-5.501v18.098h6.153v-9.556c0-1.399,0.301-2.449,0.905-3.149c0.603-0.7,1.363-1.05,2.28-1.05c1.641,0,2.461,1.038,2.461,3.113
		v10.642h6.154v-9.665c0-1.326,0.289-2.34,0.868-3.04s1.351-1.05,2.317-1.05c1.64,0,2.461,1.038,2.461,3.113v10.642h6.153v-12.053
		c0-2.051-0.573-3.632-1.719-4.742S108.11,513.851,106.277,513.851 M69.612,518.23c1.158,0,2.014,0.398,2.569,1.194
		s0.833,2.076,0.833,3.837s-0.278,3.04-0.833,3.836c-0.555,0.797-1.411,1.195-2.569,1.195c-1.159,0-2.015-0.398-2.57-1.195
		c-0.556-0.796-0.833-2.075-0.833-3.836s0.277-3.041,0.833-3.837C67.597,518.629,68.453,518.23,69.612,518.23 M69.612,513.851
		c-3.017,0-5.364,0.827-7.04,2.479c-1.678,1.652-2.516,3.964-2.516,6.932s0.838,5.279,2.516,6.931
		c1.676,1.653,4.023,2.479,7.04,2.479c3.016,0,5.362-0.826,7.04-2.479c1.676-1.651,2.515-3.963,2.515-6.931
		s-0.839-5.279-2.515-6.932C74.974,514.678,72.628,513.851,69.612,513.851 M48.908,513.851c-2.992,0-5.327,0.827-7.004,2.479
		c-1.677,1.652-2.515,3.964-2.515,6.932c0,2.992,0.844,5.309,2.533,6.949s4.102,2.461,7.239,2.461c2.437,0,4.398-0.512,5.882-1.538
		c1.484-1.025,2.358-2.358,2.624-3.999l-5.538-1.774c-0.289,1.955-1.291,2.933-3.004,2.933c-2.389,0-3.583-1.653-3.583-4.959
		c0-3.402,1.194-5.104,3.583-5.104c1.617,0,2.546,1.037,2.787,3.112l5.719-1.882c-0.338-1.665-1.194-3.017-2.57-4.055
		C53.686,514.37,51.635,513.851,48.908,513.851"/>
	<path clip-path="url(#SVGID_2_)" fill="#231F20" d="M486.973,467.557c1.158,0,2.015,0.398,2.569,1.194
		c0.555,0.797,0.833,2.076,0.833,3.837c0,1.762-0.278,3.041-0.833,3.837c-0.555,0.796-1.411,1.194-2.569,1.194
		s-2.015-0.398-2.569-1.194c-0.557-0.796-0.833-2.075-0.833-3.837c0-1.761,0.276-3.04,0.833-3.837
		C484.958,467.955,485.814,467.557,486.973,467.557 M486.973,463.177c-3.017,0-5.362,0.827-7.04,2.48
		c-1.678,1.653-2.516,3.963-2.516,6.931c0,2.968,0.838,5.279,2.516,6.932c1.678,1.653,4.023,2.479,7.04,2.479
		s5.362-0.826,7.04-2.479c1.677-1.653,2.516-3.964,2.516-6.932c0-2.968-0.839-5.278-2.516-6.931
		C492.335,464.004,489.989,463.177,486.973,463.177 M464.387,477.474c-1.086,0-1.924-0.398-2.515-1.194
		c-0.592-0.796-0.887-2.027-0.887-3.692c0-1.665,0.295-2.895,0.887-3.692c0.591-0.796,1.429-1.194,2.515-1.194
		c0.989,0,1.779,0.362,2.371,1.086c0.591,0.724,0.923,1.749,0.995,3.076v1.448c-0.072,1.352-0.404,2.383-0.995,3.095
		C466.166,477.119,465.376,477.474,464.387,477.474 M467.753,455.866v10.714c-0.531-1.062-1.255-1.894-2.171-2.498
		c-0.918-0.603-2.015-0.905-3.294-0.905c-2.341,0-4.175,0.833-5.502,2.498s-1.991,3.994-1.991,6.986
		c0,2.944,0.658,5.236,1.973,6.877c1.315,1.641,3.144,2.461,5.484,2.461c1.351,0,2.539-0.338,3.565-1.014
		c1.024-0.675,1.803-1.604,2.334-2.787l0.218,3.439h5.538v-25.771H467.753z M451.393,463.177c-1.375,0-2.527,0.369-3.456,1.104
		c-0.93,0.737-1.61,1.792-2.045,3.167l-0.254-3.909h-5.429v18.098h6.153v-9.121c0-1.376,0.386-2.431,1.157-3.167
		c0.772-0.736,1.738-1.104,2.896-1.104c0.458,0,0.892,0.054,1.303,0.163c0.41,0.108,0.736,0.235,0.978,0.38l0.651-5.212
		C452.865,463.31,452.213,463.177,451.393,463.177 M427.107,467.557c1.157,0,2.014,0.398,2.569,1.194
		c0.555,0.797,0.832,2.076,0.832,3.837c0,1.762-0.277,3.041-0.832,3.837c-0.556,0.796-1.412,1.194-2.569,1.194
		c-1.159,0-2.016-0.398-2.57-1.194c-0.556-0.796-0.833-2.075-0.833-3.837c0-1.761,0.277-3.04,0.833-3.837
		C425.092,467.955,425.948,467.557,427.107,467.557 M427.107,463.177c-3.018,0-5.363,0.827-7.04,2.48
		c-1.679,1.653-2.517,3.963-2.517,6.931c0,2.968,0.838,5.279,2.517,6.932c1.677,1.653,4.022,2.479,7.04,2.479
		c3.016,0,5.361-0.826,7.04-2.479c1.676-1.653,2.515-3.964,2.515-6.932c0-2.968-0.839-5.278-2.515-6.931
		C432.469,464.004,430.123,463.177,427.107,463.177 M406.403,463.177c-2.992,0-5.327,0.827-7.004,2.48
		c-1.678,1.653-2.516,3.963-2.516,6.931c0,2.992,0.844,5.309,2.533,6.95s4.102,2.461,7.24,2.461c2.436,0,4.396-0.512,5.881-1.538
		c1.484-1.026,2.359-2.359,2.624-4l-5.537-1.774c-0.29,1.955-1.292,2.932-3.005,2.932c-2.389,0-3.583-1.652-3.583-4.958
		c0-3.403,1.194-5.104,3.583-5.104c1.617,0,2.546,1.038,2.787,3.113l5.719-1.882c-0.338-1.665-1.194-3.016-2.57-4.054
		C411.181,463.697,409.13,463.177,406.403,463.177 M383.673,478.017c-0.556,0-0.99-0.132-1.303-0.398
		c-0.314-0.265-0.471-0.651-0.471-1.158c0-0.507,0.162-0.899,0.488-1.176s0.874-0.513,1.647-0.706l2.931-0.688v1.557
		c0,0.772-0.338,1.393-1.013,1.864C385.277,477.782,384.517,478.017,383.673,478.017 M394.35,478.126
		c-0.867,0-1.303-0.471-1.303-1.412v-6.587c0-2.317-0.736-4.054-2.208-5.212c-1.472-1.158-3.619-1.738-6.441-1.738
		c-2.414,0-4.332,0.489-5.756,1.466c-1.424,0.978-2.293,2.347-2.605,4.108l4.995,1.448c0.168-0.989,0.542-1.701,1.122-2.135
		c0.579-0.435,1.325-0.652,2.244-0.652c0.796,0,1.423,0.242,1.882,0.724c0.458,0.483,0.687,1.135,0.687,1.955v0.651l-4.09,0.797
		c-2.509,0.506-4.313,1.236-5.411,2.189c-1.098,0.954-1.646,2.203-1.646,3.746c0,1.473,0.482,2.595,1.447,3.367
		c0.966,0.772,2.354,1.158,4.163,1.158c3.209,0,5.357-0.929,6.442-2.787c0.507,1.858,2.063,2.787,4.67,2.787
		c0.941,0,1.761-0.194,2.461-0.579l0.47-3.439C395.183,478.078,394.808,478.126,394.35,478.126 M353.993,467.485
		c1.931,0,3.041,1.182,3.33,3.547h-6.805C350.881,468.667,352.039,467.485,353.993,467.485 M363.078,472.335
		c0-2.896-0.778-5.146-2.334-6.751c-1.558-1.604-3.795-2.407-6.714-2.407c-3.018,0-5.346,0.821-6.986,2.462
		s-2.461,3.957-2.461,6.949c0,2.992,0.838,5.309,2.515,6.95c1.678,1.641,4.097,2.461,7.258,2.461c2.122,0,3.914-0.404,5.375-1.213
		c1.46-0.808,2.443-1.984,2.949-3.529l-4.995-1.592c-0.192,0.651-0.572,1.146-1.14,1.484c-0.567,0.338-1.297,0.506-2.189,0.506
		c-1.062,0-1.912-0.265-2.552-0.796c-0.64-0.53-1.056-1.363-1.249-2.497h12.343C363.018,473.831,363.078,473.155,363.078,472.335
		 M331.553,477.474c-1.086,0-1.925-0.398-2.516-1.194s-0.887-2.027-0.887-3.692c0-1.665,0.296-2.895,0.887-3.692
		c0.591-0.796,1.43-1.194,2.516-1.194c0.989,0,1.779,0.362,2.371,1.086c0.591,0.724,0.923,1.749,0.995,3.076v1.448
		c-0.072,1.352-0.404,2.383-0.995,3.095C333.332,477.119,332.542,477.474,331.553,477.474 M334.919,455.866v10.714
		c-0.531-1.062-1.255-1.894-2.172-2.498c-0.917-0.603-2.015-0.905-3.294-0.905c-2.34,0-4.174,0.833-5.501,2.498
		c-1.328,1.665-1.991,3.994-1.991,6.986c0,2.944,0.657,5.236,1.973,6.877s3.143,2.461,5.483,2.461c1.351,0,2.54-0.338,3.565-1.014
		c1.025-0.675,1.804-1.604,2.335-2.787l0.217,3.439h5.538v-25.771H334.919z M298.47,478.017c-0.555,0-0.988-0.132-1.303-0.398
		c-0.314-0.265-0.47-0.651-0.47-1.158c0-0.507,0.163-0.899,0.487-1.176c0.326-0.277,0.875-0.513,1.647-0.706l2.932-0.688v1.557
		c0,0.772-0.338,1.393-1.013,1.864C300.075,477.782,299.315,478.017,298.47,478.017 M309.148,478.126
		c-0.869,0-1.304-0.471-1.304-1.412v-6.587c0-2.317-0.735-4.054-2.208-5.212c-1.472-1.158-3.62-1.738-6.442-1.738
		c-2.413,0-4.331,0.489-5.755,1.466c-1.425,0.978-2.293,2.347-2.606,4.108l4.995,1.448c0.169-0.989,0.543-1.701,1.122-2.135
		c0.579-0.435,1.327-0.652,2.244-0.652c0.797,0,1.424,0.242,1.882,0.724c0.459,0.483,0.688,1.135,0.688,1.955v0.651l-4.09,0.797
		c-2.51,0.506-4.312,1.236-5.411,2.189c-1.098,0.954-1.646,2.203-1.646,3.746c0,1.473,0.481,2.595,1.448,3.367
		c0.965,0.772,2.352,1.158,4.161,1.158c3.209,0,5.357-0.929,6.443-2.787c0.507,1.858,2.063,2.787,4.669,2.787
		c0.941,0,1.761-0.194,2.461-0.579l0.471-3.439C309.98,478.078,309.606,478.126,309.148,478.126 M287.503,463.177
		c-1.375,0-2.528,0.369-3.456,1.104c-0.929,0.737-1.611,1.792-2.045,3.167l-0.254-3.909h-5.429v18.098h6.153v-9.121
		c0-1.376,0.387-2.431,1.158-3.167c0.772-0.736,1.738-1.104,2.896-1.104c0.458,0,0.893,0.054,1.303,0.163
		c0.41,0.108,0.736,0.235,0.977,0.38l0.652-5.212C288.975,463.31,288.323,463.177,287.503,463.177 M263.072,477.474
		c-1.038,0-1.852-0.398-2.443-1.194c-0.592-0.796-0.887-1.966-0.887-3.511v-0.362c0-1.496,0.29-2.654,0.869-3.475
		c0.579-0.82,1.399-1.23,2.461-1.23c1.086,0,1.924,0.398,2.516,1.194c0.591,0.797,0.886,2.027,0.886,3.692
		c0,1.665-0.295,2.896-0.886,3.692C264.996,477.076,264.158,477.474,263.072,477.474 M265.208,463.177
		c-1.28,0-2.384,0.302-3.312,0.905c-0.93,0.604-1.647,1.436-2.154,2.498v-10.714h-6.153v25.771h5.393l0.181-3.837
		c0.507,1.28,1.285,2.299,2.335,3.059c1.049,0.76,2.285,1.14,3.71,1.14c2.364,0,4.198-0.82,5.501-2.461s1.955-3.933,1.955-6.877
		c0-2.992-0.664-5.321-1.991-6.986C269.346,464.01,267.524,463.177,265.208,463.177 M240.487,467.557
		c1.158,0,2.014,0.398,2.569,1.194c0.555,0.797,0.833,2.076,0.833,3.837c0,1.762-0.278,3.041-0.833,3.837
		c-0.555,0.796-1.411,1.194-2.569,1.194c-1.159,0-2.015-0.398-2.57-1.194c-0.556-0.796-0.833-2.075-0.833-3.837
		c0-1.761,0.277-3.04,0.833-3.837C238.472,467.955,239.328,467.557,240.487,467.557 M240.487,463.177
		c-3.017,0-5.363,0.827-7.04,2.48c-1.678,1.653-2.516,3.963-2.516,6.931c0,2.968,0.838,5.279,2.516,6.932
		c1.677,1.653,4.023,2.479,7.04,2.479c3.016,0,5.362-0.826,7.04-2.479c1.676-1.653,2.515-3.964,2.515-6.932
		c0-2.968-0.839-5.278-2.515-6.931C245.849,464.004,243.503,463.177,240.487,463.177 M207.549,478.017
		c-0.555,0-0.99-0.132-1.303-0.398c-0.314-0.265-0.471-0.651-0.471-1.158c0-0.507,0.163-0.899,0.489-1.176
		c0.326-0.277,0.874-0.513,1.647-0.706l2.932-0.688v1.557c0,0.772-0.338,1.393-1.014,1.864
		C209.153,477.782,208.393,478.017,207.549,478.017 M218.227,478.126c-0.869,0-1.303-0.471-1.303-1.412v-6.587
		c0-2.317-0.737-4.054-2.208-5.212c-1.472-1.158-3.62-1.738-6.443-1.738c-2.413,0-4.332,0.489-5.755,1.466
		c-1.424,0.978-2.293,2.347-2.606,4.108l4.995,1.448c0.168-0.989,0.543-1.701,1.122-2.135c0.579-0.435,1.327-0.652,2.244-0.652
		c0.796,0,1.423,0.242,1.882,0.724c0.458,0.483,0.688,1.135,0.688,1.955v0.651l-4.09,0.797c-2.51,0.506-4.314,1.236-5.411,2.189
		c-1.099,0.954-1.647,2.203-1.647,3.746c0,1.473,0.482,2.595,1.447,3.367c0.965,0.772,2.353,1.158,4.163,1.158
		c3.209,0,5.357-0.929,6.443-2.787c0.506,1.858,2.063,2.787,4.669,2.787c0.941,0,1.761-0.194,2.461-0.579l0.471-3.439
		C219.059,478.078,218.685,478.126,218.227,478.126 M186.846,477.474c-1.086,0-1.925-0.398-2.516-1.194
		c-0.591-0.796-0.887-2.027-0.887-3.692c0-1.665,0.296-2.895,0.887-3.692c0.591-0.796,1.43-1.194,2.516-1.194
		c0.989,0,1.779,0.362,2.37,1.086c0.591,0.724,0.923,1.749,0.996,3.076v1.448c-0.073,1.352-0.405,2.383-0.996,3.095
		C188.625,477.119,187.835,477.474,186.846,477.474 M190.212,455.866v10.714c-0.531-1.062-1.255-1.894-2.172-2.498
		c-0.917-0.603-2.015-0.905-3.294-0.905c-2.34,0-4.174,0.833-5.501,2.498c-1.328,1.665-1.991,3.994-1.991,6.986
		c0,2.944,0.657,5.236,1.973,6.877c1.315,1.641,3.142,2.461,5.483,2.461c1.351,0,2.54-0.338,3.565-1.014
		c1.026-0.675,1.804-1.604,2.335-2.787l0.217,3.439h5.538v-25.771H190.212z M153.763,478.017c-0.555,0-0.989-0.132-1.303-0.398
		c-0.314-0.265-0.47-0.651-0.47-1.158c0-0.507,0.163-0.899,0.488-1.176c0.326-0.277,0.875-0.513,1.647-0.706l2.932-0.688v1.557
		c0,0.772-0.338,1.393-1.013,1.864C155.368,477.782,154.608,478.017,153.763,478.017 M164.441,478.126
		c-0.869,0-1.303-0.471-1.303-1.412v-6.587c0-2.317-0.737-4.054-2.208-5.212c-1.472-1.158-3.62-1.738-6.443-1.738
		c-2.413,0-4.331,0.489-5.755,1.466c-1.424,0.978-2.293,2.347-2.606,4.108l4.995,1.448c0.169-0.989,0.543-1.701,1.122-2.135
		c0.579-0.435,1.327-0.652,2.244-0.652c0.797,0,1.424,0.242,1.882,0.724c0.458,0.483,0.688,1.135,0.688,1.955v0.651l-4.09,0.797
		c-2.51,0.506-4.313,1.236-5.411,2.189c-1.098,0.954-1.647,2.203-1.647,3.746c0,1.473,0.482,2.595,1.448,3.367
		c0.965,0.772,2.352,1.158,4.162,1.158c3.209,0,5.357-0.929,6.443-2.787c0.507,1.858,2.063,2.787,4.669,2.787
		c0.941,0,1.761-0.194,2.461-0.579l0.471-3.439C165.273,478.078,164.899,478.126,164.441,478.126 M142.796,463.177
		c-1.375,0-2.528,0.369-3.456,1.104c-0.93,0.737-1.611,1.792-2.045,3.167l-0.254-3.909h-5.429v18.098h6.153v-9.121
		c0-1.376,0.386-2.431,1.158-3.167s1.738-1.104,2.896-1.104c0.458,0,0.892,0.054,1.303,0.163c0.41,0.108,0.736,0.235,0.977,0.38
		l0.652-5.212C144.268,463.31,143.616,463.177,142.796,463.177 M121.043,463.539v9.592c0,1.4-0.302,2.443-0.905,3.131
		s-1.411,1.032-2.425,1.032c-0.845,0-1.472-0.241-1.882-0.724c-0.41-0.483-0.615-1.315-0.615-2.498v-10.533h-6.153v12.09
		c0,2.196,0.548,3.806,1.647,4.832c1.097,1.026,2.611,1.538,4.542,1.538c3.04,0,5.127-1.243,6.262-3.728l0.181,3.366h5.501v-18.098
		H121.043z M105.95,476.823c-0.748,0.531-1.617,0.796-2.606,0.796c-1.593,0-2.389-0.808-2.389-2.425v-7.275h5.429v-4.38h-5.429
		v-5.755l-6.153,1.701v4.054h-3.113v4.38h3.113v8.289c0.024,2.027,0.603,3.499,1.737,4.415c1.134,0.918,2.775,1.376,4.923,1.376
		c0.941,0,1.876-0.127,2.805-0.38c0.929-0.254,1.695-0.585,2.298-0.996L105.95,476.823z M89.047,463.539h-6.153v18.098h6.153
		V463.539z M85.971,461.44c1.254,0,2.165-0.235,2.732-0.706c0.567-0.47,0.851-1.212,0.851-2.226c0-1.037-0.284-1.791-0.851-2.262
		c-0.567-0.47-1.478-0.706-2.732-0.706c-1.255,0-2.166,0.236-2.733,0.706c-0.567,0.471-0.851,1.225-0.851,2.262
		c0,1.014,0.284,1.756,0.851,2.226C83.805,461.205,84.716,461.44,85.971,461.44 M70.371,467.485c1.93,0,3.041,1.182,3.33,3.547
		h-6.805C67.258,468.667,68.417,467.485,70.371,467.485 M79.456,472.335c0-2.896-0.778-5.146-2.334-6.751
		c-1.557-1.604-3.795-2.407-6.715-2.407c-3.016,0-5.345,0.821-6.985,2.462c-1.642,1.641-2.462,3.957-2.462,6.949
		c0,2.992,0.839,5.309,2.516,6.95c1.677,1.641,4.096,2.461,7.257,2.461c2.123,0,3.915-0.404,5.375-1.213
		c1.46-0.808,2.443-1.984,2.95-3.529l-4.995-1.592c-0.193,0.651-0.573,1.146-1.14,1.484c-0.567,0.338-1.297,0.506-2.19,0.506
		c-1.062,0-1.913-0.265-2.552-0.796c-0.639-0.53-1.056-1.363-1.248-2.497h12.342C79.396,473.831,79.456,473.155,79.456,472.335
		 M46.917,476.823v-19.075h-6.226v23.889h18.207v-4.814H46.917z"/>
	<path clip-path="url(#SVGID_2_)" fill="#231F20" d="M214.772,377.567c3.881,3.881,8.569,5.826,14.066,5.826
		c5.493,0,10.182-1.945,14.067-5.826c3.88-3.881,5.825-8.569,5.825-14.066c0-5.493-1.945-10.182-5.825-14.067
		c-3.885-3.88-8.574-5.825-14.067-5.825c-5.497,0-10.185,1.945-14.066,5.825c-3.885,3.885-5.826,8.574-5.826,14.067
		C208.946,368.999,210.887,373.687,214.772,377.567 M50.664,357.25v22.165h136.402V357.25H130.8V180.495H84.48l-37.226,83.546v1.705
		H70.84l32.68-74.736h3.41V357.25H50.664z"/>
</g>
<line fill="none" stroke="#231F20" stroke-width="2" x1="24.794" y1="139.264" x2="537.794" y2="139.264"/>
<line fill="none" stroke="#231F20" stroke-width="2" x1="24.794" y1="430.416" x2="537.794" y2="430.416"/>
<line fill="none" stroke="#231F20" stroke-width="2" x1="24.794" y1="559.01" x2="537.794" y2="559.01"/>
<line fill="none" stroke="#231F20" stroke-width="2" x1="281.293" y1="160.263" x2="281.293" y2="409.414"/>
<g>
	<defs>
		<rect id="SVGID_3_" width="564" height="1002"/>
	</defs>
	<clipPath id="SVGID_4_">
		<use xlink:href="#SVGID_3_"  overflow="visible"/>
	</clipPath>
	<polygon clip-path="url(#SVGID_4_)" fill="none" stroke="#231F20" stroke-width="1.998" points="0.999,3 0.999,999 0.999,1001.002 
		3,1001.002 561,1001.002 563.001,1001.002 563.001,999 563.001,3 563.001,0.998 561,0.998 3,0.998 0.999,0.998 	"/>
</g>
<rect x="5.001" y="5.002" fill="none" stroke="#231F20" stroke-width="1.998" width="553.998" height="991.996"/>
<path fill="#FF1419" d="M307.486,282.717v15.95l107.532-3.345l-46.306,69.973l0.258,0.257l151.265-74.603v-0.514l-151.265-74.089
	l-0.515,0.257l46.562,69.973L307.486,282.717z M431.226,290.949h67.915l-103.93,51.193L431.226,290.949z"/>
<polygon fill="#231F20" points="82.615,966.522 477.518,966.522 477.518,826.124 459.639,826.124 393.646,945.751 310.039,945.751 
	310.039,614.476 355.786,614.476 355.786,593.967 82.615,593.967 82.615,614.476 128.625,614.476 128.625,945.751 82.615,945.751 
	"/>
</svg>
