<?xml version="1.0" encoding="utf-8"?>
<!-- Generator: Adobe Illustrator 16.0.0, SVG Export Plug-In . SVG Version: 6.00 Build 0)  -->
<!DOCTYPE svg PUBLIC "-//W3C//DTD SVG 1.1//EN" "http://www.w3.org/Graphics/SVG/1.1/DTD/svg11.dtd">
<svg version="1.1" id="Layer_1" xmlns="http://www.w3.org/2000/svg" xmlns:xlink="http://www.w3.org/1999/xlink" x="0px" y="0px"
	 width="1170.09px" height="575.043px" viewBox="0 0 1170.09 575.043" enable-background="new 0 0 1170.09 575.043"
	 xml:space="preserve">
<g>
	<defs>
		<rect id="SVGID_15_" width="1170.088" height="575.042"/>
	</defs>
	<clipPath id="SVGID_2_">
		<use xlink:href="#SVGID_15_"  overflow="visible"/>
	</clipPath>
	<path clip-path="url(#SVGID_2_)" fill="#0046FA" d="M1044.326,129.398h14.708V97.308h25.183v32.091h14.709V51.4h-14.709v31.866
		h-25.183V51.4h-14.708V129.398z M963.598,116.306c-1.82-0.854-3.287-2.062-4.4-3.621c-1.115-1.561-1.934-3.398-2.452-5.516
		c-0.521-2.117-0.78-4.438-0.78-6.965V80.593c0-2.301,0.279-4.513,0.836-6.629c0.557-2.117,1.429-3.974,2.618-5.572
		c1.188-1.596,2.675-2.858,4.456-3.787c1.783-0.928,3.9-1.393,6.353-1.393c2.675,0,4.902,0.465,6.686,1.393
		c1.783,0.929,3.192,2.136,4.234,3.621c1.039,1.486,1.782,3.158,2.228,5.014c0.447,1.857,0.67,3.715,0.67,5.571v2.006h14.708v-2.006
		c0-4.457-0.614-8.468-1.839-12.034c-1.227-3.564-3.047-6.609-5.46-9.137c-2.414-2.524-5.404-4.457-8.97-5.795
		c-3.565-1.336-7.651-2.004-12.257-2.004c-4.457,0-8.47,0.724-12.034,2.172c-3.565,1.449-6.612,3.529-9.137,6.24
		c-2.526,2.713-4.457,6.055-5.794,10.028s-2.006,8.451-2.006,13.427v17.383c0,10.4,2.599,18.312,7.8,23.733
		c5.198,5.423,12.257,8.134,21.171,8.134c9.285,0,16.36-2.507,21.227-7.521c4.864-5.015,7.299-12.163,7.299-21.45v-2.006h-14.708
		v2.006c0,2.006-0.188,3.956-0.558,5.85c-0.372,1.895-1.059,3.566-2.062,5.014c-1.003,1.449-2.415,2.602-4.234,3.455
		c-1.82,0.854-4.142,1.281-6.964,1.281C967.627,117.587,965.417,117.16,963.598,116.306 M857.13,65.439h14.04
		c3.564,0,6.276,0.946,8.134,2.842c1.856,1.894,2.786,4.142,2.786,6.741v1.337c0,3.047-0.93,5.403-2.786,7.076
		c-1.857,1.671-4.569,2.507-8.134,2.507h-14.04V65.439z M894.791,102.433c0-2.6-0.761-4.752-2.283-6.463
		c-1.523-1.707-3.585-2.711-6.184-3.008v-2.006c3.564-1.484,6.199-3.621,7.91-6.406c1.709-2.787,2.563-5.775,2.563-8.971v-2.674
		c0-2.97-0.54-5.756-1.616-8.357c-1.078-2.6-2.638-4.884-4.68-6.853c-2.045-1.967-4.587-3.51-7.632-4.624
		c-3.047-1.113-6.575-1.671-10.586-1.671h-29.862v77.998h14.708V99.981h16.937c2.154,0,3.694,0.558,4.624,1.672
		c0.929,1.113,1.394,2.562,1.394,4.345v23.4h14.707V102.433z M765.761,58.755h2.005l9.025,39.89h-20.167L765.761,58.755z
		 M783.812,129.398h15.376L780.58,51.4h-27.634l-18.608,77.998h15.377l3.789-16.714h26.519L783.812,129.398z M640.183,129.398
		h50.588v-14.04h-35.88V97.308h33.205V83.267h-33.205V65.439h34.543V51.4h-49.251V129.398z M576.893,77.919h14.708v-4.011
		c0-3.192-0.612-6.239-1.838-9.137s-3.047-5.46-5.46-7.688c-2.415-2.229-5.404-3.992-8.97-5.293
		c-3.566-1.299-7.652-1.949-12.257-1.949c-4.086,0-7.782,0.557-11.088,1.67c-3.306,1.115-6.127,2.675-8.467,4.681
		c-2.341,2.006-4.162,4.364-5.461,7.075c-1.301,2.713-1.949,5.666-1.949,8.859v0.668c0,3.863,0.668,7.131,2.006,9.805
		c1.337,2.675,3.212,4.904,5.627,6.686c2.412,1.783,5.254,3.214,8.523,4.29c3.268,1.078,6.87,1.95,10.809,2.619
		c2.97,0.521,5.422,1.151,7.354,1.894c1.932,0.744,3.454,1.58,4.569,2.508c1.114,0.93,1.894,1.969,2.34,3.119
		c0.444,1.153,0.668,2.359,0.668,3.623c0,2.674-1.077,4.977-3.231,6.907c-2.155,1.933-5.459,2.897-9.916,2.897
		c-5.722,0-9.937-1.394-12.647-4.178c-2.712-2.787-4.067-6.52-4.067-11.199v-2.674h-14.707v3.342c0,4.087,0.668,7.855,2.004,11.311
		c1.338,3.454,3.306,6.462,5.906,9.025c2.6,2.562,5.85,4.568,9.75,6.017c3.9,1.449,8.412,2.173,13.538,2.173
		c4.382,0,8.319-0.557,11.812-1.671c3.49-1.114,6.463-2.711,8.914-4.792c2.451-2.078,4.326-4.586,5.627-7.521
		c1.299-2.934,1.949-6.221,1.949-9.86v-1.337c0-6.834-2.154-11.996-6.463-15.489c-4.308-3.489-10.548-5.978-18.719-7.465
		c-3.27-0.594-5.961-1.226-8.078-1.894c-2.117-0.67-3.827-1.431-5.126-2.285c-1.301-0.854-2.211-1.819-2.729-2.897
		c-0.521-1.075-0.781-2.284-0.781-3.62c0-2.601,1.076-4.662,3.232-6.185c2.153-1.522,5.088-2.285,8.803-2.285
		c4.381,0,7.781,1.153,10.195,3.455c2.414,2.303,3.621,5.015,3.621,8.134V77.919z"/>
	<path clip-path="url(#SVGID_2_)" fill="#231F20" d="M1077.615,365.985c-11.189,0-19.816,2.656-25.884,7.965
		c-6.071,5.311-9.102,12.799-9.102,22.469c0,9.672,3.03,17.164,9.102,22.471c6.067,5.311,14.694,7.963,25.884,7.963
		c11.187,0,19.812-2.652,25.883-7.963c6.067-5.307,9.103-12.799,9.103-22.471c0-9.67-3.035-17.158-9.103-22.469
		C1097.428,368.642,1088.802,365.985,1077.615,365.985 M905.82,345.79l21.901-47.5c3.791-9.102,6.258-15.738,7.395-19.91h0.854
		c-0.76,21.998-1.138,38.682-1.138,50.061v17.35H905.82z M932.271,424.579h56.887v-35.84h25.885V345.79h-25.885V236.853h-75.09
		l-61.152,124.582v27.305h79.355V424.579z"/>
	<path clip-path="url(#SVGID_2_)" fill="#231F20" d="M58.984,387.192c12.852,6.346,25.707,11.879,38.562,16.596
		c12.851,4.721,25.908,8.627,39.172,11.715c13.26,3.094,26.847,5.408,40.759,6.957c13.911,1.545,28.349,2.318,43.321,2.318
		c31.24,0,58.697-3.051,82.371-9.152s43.48-14.643,59.429-25.627c15.944-10.982,27.946-24.039,36-39.172
		c8.054-15.131,12.081-31.645,12.081-49.545c0-26.358-8.383-48.812-25.139-67.361c-16.76-18.548-41.002-33.107-72.73-43.688
		l-29.288-9.762c-10.091-3.416-18.511-6.711-25.261-9.885c-6.753-3.173-12.203-6.346-16.352-9.518
		c-4.149-3.174-7.078-6.426-8.787-9.764c-1.709-3.332-2.562-6.791-2.562-10.373c0-4.064,1.016-8.176,3.051-12.324
		c2.033-4.149,5.041-7.891,9.03-11.228c3.985-3.333,8.909-6.017,14.767-8.054c5.857-2.032,12.69-3.051,20.502-3.051
		c4.553,0,9.598,0.408,15.131,1.221c5.529,0.816,11.185,2.036,16.963,3.661c5.772,1.628,11.551,3.661,17.328,6.101
		c5.773,2.441,11.265,5.29,16.475,8.543l26.357-47.593c-7.16-3.253-15.459-6.548-24.894-9.884
		c-9.438-3.333-19.812-6.305-31.118-8.909c-11.311-2.601-23.392-4.717-36.242-6.345c-12.856-1.625-26.279-2.441-40.271-2.441
		c-28.311,0-53.004,3.417-74.073,10.251c-21.073,6.834-38.524,15.986-52.353,27.457c-13.83,11.472-24.161,24.734-30.995,39.782
		c-6.833,15.052-10.25,30.714-10.25,46.982c0,25.223,7.89,46.981,23.674,65.287c15.78,18.305,39.294,32.826,70.534,43.564
		l43.688,14.889c8.459,2.928,15.334,5.898,20.623,8.906c5.285,3.014,9.434,6.023,12.447,9.031c3.009,3.012,5.041,6.062,6.102,9.152
		c1.057,3.094,1.586,6.102,1.586,9.031c0,9.273-4.354,16.596-13.057,21.965c-8.707,5.369-22.416,8.055-41.125,8.055
		c-16.271,0-33.845-2.197-52.718-6.59c-18.876-4.395-36.937-10.982-54.183-19.77L58.984,387.192z"/>
	<path clip-path="url(#SVGID_2_)" fill="#231F20" d="M1103.397,521.083c1.333,0,2.46,0.453,3.38,1.359
		c0.921,0.906,1.381,2.066,1.381,3.48c0,1.387-0.447,2.533-1.34,3.439c-0.895,0.906-2.034,1.359-3.421,1.359
		c-1.44,0-2.6-0.445-3.479-1.34c-0.881-0.893-1.32-2.045-1.32-3.459s0.46-2.574,1.38-3.48S1102.037,521.083,1103.397,521.083
		 M1101.277,536.763c2.721,0,4.961-0.973,6.721-2.92h0.08v2.32h7v-20.521h-7.08v1.961c-1.76-1.707-4-2.561-6.721-2.561
		c-2.959,0-5.399,1.055-7.32,3.16c-1.92,2.107-2.879,4.68-2.879,7.721c0,3.039,0.959,5.607,2.879,7.699
		C1095.878,535.716,1098.318,536.763,1101.277,536.763 M1086.758,536.163h-7.079v-20.521h7.079V536.163z M1079.118,507.163
		c0,1.146,0.414,2.133,1.239,2.959c0.827,0.828,1.814,1.24,2.961,1.24s2.134-0.412,2.961-1.24c0.824-0.826,1.239-1.812,1.239-2.959
		s-0.415-2.133-1.239-2.961c-0.827-0.826-1.814-1.24-2.961-1.24s-2.134,0.414-2.961,1.24
		C1079.532,505.03,1079.118,506.017,1079.118,507.163 M1066.039,536.163v-10.801c0-0.213,0.053-0.506,0.16-0.879
		c0.105-0.373,0.285-0.826,0.54-1.361c0.253-0.533,0.687-0.986,1.3-1.359s1.346-0.561,2.2-0.561c1.572,0,2.8,0.375,3.68,1.121
		l2.96-6l-0.561-0.32c-0.348-0.213-0.893-0.426-1.64-0.641c-0.747-0.213-1.507-0.32-2.28-0.32c-0.746,0-1.479,0.127-2.199,0.381
		c-0.721,0.254-1.309,0.539-1.761,0.859c-0.454,0.32-0.88,0.68-1.28,1.08s-0.659,0.68-0.779,0.84c-0.121,0.16-0.207,0.295-0.26,0.4
		h-0.08v-2.961h-7.08v20.521H1066.039z M1041.318,520.562c0.693-0.611,1.627-0.92,2.801-0.92c1.065,0,1.939,0.287,2.62,0.861
		c0.68,0.574,1.1,1.393,1.26,2.459h-7.8C1040.252,521.976,1040.625,521.177,1041.318,520.562 M1054.919,525.923
		c0-3.494-1.021-6.18-3.06-8.061c-2.041-1.879-4.688-2.82-7.94-2.82c-3.095,0-5.747,1.068-7.96,3.201
		c-2.214,2.133-3.32,4.693-3.32,7.68s1.106,5.539,3.32,7.66c2.213,2.119,4.865,3.18,7.96,3.18c4.96,0,8.507-1.787,10.64-5.359
		l-5.12-2.561c-0.853,0.906-1.614,1.514-2.28,1.82s-1.572,0.459-2.72,0.459c-1.094,0-2.106-0.346-3.04-1.039
		s-1.399-1.76-1.399-3.201h14.88C1054.904,526.722,1054.919,526.403,1054.919,525.923 M1015.76,515.642v5.4h2.96v7.881
		c0,0.986,0.106,1.914,0.32,2.779c0.213,0.867,0.565,1.693,1.06,2.48c0.492,0.787,1.221,1.414,2.181,1.879
		c0.96,0.467,2.105,0.701,3.439,0.701c1.946,0,3.681-0.428,5.2-1.279l-1.76-5.721l-0.24,0.16c-0.16,0.107-0.387,0.213-0.68,0.32
		c-0.295,0.105-0.574,0.16-0.84,0.16c-1.067,0-1.601-0.947-1.601-2.842v-6.52h4.32v-5.4h-4.32v-7.639h-7.08v7.639H1015.76z
		 M1011.72,536.163h-7.081v-20.521h7.081V536.163z M1004.08,507.163c0,1.146,0.413,2.133,1.24,2.959
		c0.825,0.828,1.812,1.24,2.96,1.24c1.146,0,2.133-0.412,2.96-1.24c0.825-0.826,1.239-1.812,1.239-2.959s-0.414-2.133-1.239-2.961
		c-0.827-0.826-1.814-1.24-2.96-1.24c-1.147,0-2.135,0.414-2.96,1.24C1004.493,505.03,1004.08,506.017,1004.08,507.163
		 M991.001,536.163v-10.801c0-0.213,0.053-0.506,0.16-0.879c0.105-0.373,0.286-0.826,0.54-1.361c0.253-0.533,0.686-0.986,1.3-1.359
		c0.613-0.373,1.346-0.561,2.2-0.561c1.572,0,2.8,0.375,3.68,1.121l2.96-6l-0.56-0.32c-0.348-0.213-0.895-0.426-1.641-0.641
		c-0.747-0.213-1.507-0.32-2.279-0.32c-0.747,0-1.48,0.127-2.2,0.381c-0.722,0.254-1.308,0.539-1.761,0.859s-0.88,0.68-1.279,1.08
		c-0.4,0.4-0.66,0.68-0.78,0.84s-0.207,0.295-0.26,0.4h-0.08v-2.961h-7.08v20.521H991.001z M977.921,521.802l2.399-4.84l-0.68-0.479
		c-0.479-0.32-1.294-0.641-2.439-0.961c-1.147-0.32-2.4-0.48-3.762-0.48c-3.013,0-5.658,1.074-7.938,3.221s-3.42,4.713-3.42,7.699
		c0,2.961,1.14,5.5,3.42,7.621c2.28,2.119,4.926,3.18,7.938,3.18c1.361,0,2.635-0.174,3.821-0.52c1.187-0.348,1.946-0.621,2.28-0.82
		c0.332-0.201,0.593-0.367,0.779-0.5l-2.399-4.92l-0.36,0.24c-0.267,0.16-0.688,0.318-1.26,0.479c-0.574,0.16-1.18,0.24-1.82,0.24
		c-1.334,0-2.479-0.492-3.439-1.479s-1.44-2.188-1.44-3.602c0-1.385,0.48-2.572,1.44-3.559s2.105-1.48,3.439-1.48
		C975.894,520.843,977.041,521.163,977.921,521.802 M934.121,520.562c0.692-0.611,1.626-0.92,2.8-0.92
		c1.066,0,1.94,0.287,2.62,0.861s1.1,1.393,1.26,2.459h-7.8C933.054,521.976,933.427,521.177,934.121,520.562 M947.721,525.923
		c0-3.494-1.02-6.18-3.06-8.061c-2.04-1.879-4.688-2.82-7.94-2.82c-3.094,0-5.747,1.068-7.96,3.201
		c-2.214,2.133-3.321,4.693-3.321,7.68s1.107,5.539,3.321,7.66c2.213,2.119,4.866,3.18,7.96,3.18c4.96,0,8.506-1.787,10.641-5.359
		l-5.121-2.561c-0.854,0.906-1.613,1.514-2.279,1.82c-0.667,0.307-1.574,0.459-2.721,0.459c-1.094,0-2.106-0.346-3.039-1.039
		c-0.935-0.693-1.4-1.76-1.4-3.201h14.88C947.707,526.722,947.721,526.403,947.721,525.923 M921.32,501.763h-7.08v34.4h7.08V501.763
		z M897.801,530.722c-1.333,0-2.46-0.453-3.38-1.359s-1.38-2.066-1.38-3.48c0-1.385,0.447-2.533,1.34-3.439s2.033-1.359,3.42-1.359
		c1.439,0,2.6,0.447,3.48,1.34c0.88,0.895,1.319,2.047,1.319,3.459c0,1.414-0.46,2.574-1.38,3.48S899.161,530.722,897.801,530.722
		 M899.921,515.042c-2.72,0-4.96,0.975-6.72,2.92h-0.08v-2.32h-7v30.92h7.08v-12.359c1.76,1.707,4,2.561,6.72,2.561
		c2.96,0,5.399-1.053,7.319-3.16c1.921-2.105,2.881-4.68,2.881-7.721c0-3.039-0.96-5.605-2.881-7.699
		C905.32,516.089,902.881,515.042,899.921,515.042 M880.322,536.163h-7.08v-20.521h7.08V536.163z M872.682,507.163
		c0,1.146,0.413,2.133,1.24,2.959c0.826,0.828,1.812,1.24,2.96,1.24c1.146,0,2.133-0.412,2.96-1.24
		c0.826-0.826,1.24-1.812,1.24-2.959s-0.414-2.133-1.24-2.961c-0.827-0.826-1.813-1.24-2.96-1.24c-1.147,0-2.134,0.414-2.96,1.24
		C873.095,505.03,872.682,506.017,872.682,507.163 M854.882,515.642v5.4h2.96v7.881c0,0.986,0.106,1.914,0.32,2.779
		c0.213,0.867,0.566,1.693,1.06,2.48s1.22,1.414,2.181,1.879c0.96,0.467,2.105,0.701,3.439,0.701c1.947,0,3.68-0.428,5.199-1.279
		l-1.759-5.721l-0.241,0.16c-0.159,0.107-0.386,0.213-0.679,0.32c-0.294,0.105-0.573,0.16-0.841,0.16c-1.066,0-1.6-0.947-1.6-2.842
		v-6.52h4.32v-5.4h-4.32v-7.639h-7.08v7.639H854.882z M851.041,501.763h-7.079v34.4h7.079V501.763z M816.522,515.642v11.48
		c0,3.414,0.886,5.875,2.66,7.381c1.773,1.506,4.593,2.26,8.46,2.26c3.865,0,6.687-0.754,8.46-2.26
		c1.772-1.506,2.66-3.967,2.66-7.381v-11.48h-7.08v9.762c0,2.025-0.307,3.467-0.92,4.318c-0.614,0.855-1.653,1.281-3.12,1.281
		s-2.507-0.426-3.12-1.281c-0.614-0.852-0.92-2.293-0.92-4.318v-9.762H816.522z M783.803,536.163v-12c0-0.934,0.273-1.74,0.82-2.42
		c0.547-0.682,1.367-1.021,2.46-1.021c1.2,0,2.1,0.367,2.7,1.102c0.6,0.732,0.899,1.646,0.899,2.738v11.602h7.08v-12.24
		c0.053-0.881,0.354-1.633,0.9-2.26c0.547-0.627,1.34-0.941,2.38-0.941c1.2,0,2.1,0.367,2.7,1.102
		c0.6,0.732,0.899,1.646,0.899,2.738v11.602h7.08v-13.521c0-2.611-0.787-4.531-2.359-5.76c-1.574-1.225-3.453-1.84-5.641-1.84
		c-2.453,0-4.72,1.254-6.8,3.76c-0.667-1.279-1.653-2.225-2.96-2.84c-1.307-0.613-2.707-0.92-4.2-0.92c-2.08,0-4.04,0.92-5.88,2.76
		h-0.08v-2.16h-7.08v20.521H783.803z M748.604,521.083c1.333,0,2.46,0.453,3.381,1.359c0.92,0.906,1.38,2.066,1.38,3.48
		c0,1.387-0.447,2.533-1.341,3.439s-2.033,1.359-3.42,1.359c-1.439,0-2.6-0.445-3.479-1.34c-0.88-0.893-1.32-2.045-1.32-3.459
		s0.46-2.574,1.38-3.48S747.244,521.083,748.604,521.083 M748.644,536.763c3.546,0,6.474-1.02,8.78-3.061
		c2.306-2.039,3.46-4.633,3.46-7.779s-1.18-5.746-3.54-7.801c-2.359-2.053-5.26-3.08-8.7-3.08c-3.493,0-6.427,1.02-8.8,3.061
		c-2.374,2.039-3.56,4.646-3.56,7.82s1.14,5.773,3.42,7.799C741.984,535.749,744.964,536.763,748.644,536.763 M719.404,515.642v5.4
		h2.96v7.881c0,0.986,0.105,1.914,0.319,2.779c0.213,0.867,0.566,1.693,1.061,2.48c0.493,0.787,1.22,1.414,2.18,1.879
		c0.96,0.467,2.106,0.701,3.44,0.701c1.945,0,3.68-0.428,5.199-1.279l-1.76-5.721l-0.24,0.16c-0.159,0.107-0.387,0.213-0.68,0.32
		c-0.294,0.105-0.574,0.16-0.84,0.16c-1.067,0-1.6-0.947-1.6-2.842v-6.52h4.319v-5.4h-4.319v-7.639h-7.08v7.639H719.404z
		 M692.164,521.083c1.334,0,2.46,0.453,3.38,1.359s1.38,2.066,1.38,3.48c0,1.387-0.446,2.533-1.34,3.439s-2.033,1.359-3.42,1.359
		c-1.441,0-2.601-0.445-3.48-1.34c-0.88-0.893-1.319-2.045-1.319-3.459s0.46-2.574,1.38-3.48S690.804,521.083,692.164,521.083
		 M691.764,547.163c3.627,0,6.547-0.908,8.76-2.721c2.215-1.814,3.32-4.387,3.32-7.721v-21.08h-7.08v1.842h-0.12
		c-1.76-1.627-3.96-2.441-6.6-2.441c-2.96,0-5.4,1.055-7.321,3.16c-1.919,2.107-2.879,4.68-2.879,7.721
		c0,3.039,0.96,5.607,2.879,7.699c1.921,2.094,4.361,3.141,7.321,3.141c3.227,0,5.467-0.693,6.72-2.08v1.52
		c0,1.627-0.525,2.834-1.58,3.621c-1.053,0.785-2.192,1.18-3.42,1.18c-2.64,0-4.493-0.881-5.56-2.641l-5.8,2.84
		C682.111,545.175,685.897,547.163,691.764,547.163 M661.165,536.163v-11.602c0-1.012,0.433-1.932,1.3-2.76
		c0.866-0.826,1.833-1.24,2.9-1.24c1.092,0,1.979,0.4,2.66,1.201c0.68,0.799,1.02,1.734,1.02,2.799v11.602h7.08v-13.521
		c0-1.359-0.287-2.553-0.86-3.58c-0.574-1.025-1.319-1.818-2.239-2.379c-0.922-0.561-1.881-0.973-2.881-1.24
		c-1-0.266-2.007-0.4-3.02-0.4c-2.08,0-4.04,0.92-5.88,2.76h-0.08v-2.16h-7.08v20.521H661.165z M648.285,536.163h-7.08v-20.521h7.08
		V536.163z M640.645,507.163c0,1.146,0.413,2.133,1.24,2.959c0.826,0.828,1.813,1.24,2.96,1.24s2.133-0.412,2.96-1.24
		c0.826-0.826,1.24-1.812,1.24-2.959s-0.414-2.133-1.24-2.961c-0.827-0.826-1.813-1.24-2.96-1.24s-2.134,0.414-2.96,1.24
		C641.058,505.03,640.645,506.017,640.645,507.163 M623.925,521.083c1.333,0,2.46,0.453,3.38,1.359s1.38,2.066,1.38,3.48
		c0,1.387-0.446,2.533-1.34,3.439s-2.034,1.359-3.42,1.359c-1.44,0-2.601-0.445-3.479-1.34c-0.881-0.893-1.32-2.045-1.32-3.459
		s0.46-2.574,1.38-3.48S622.564,521.083,623.925,521.083 M621.805,536.763c2.721,0,4.96-0.973,6.721-2.92h0.078v2.32h7v-34.4h-7.078
		v15.84c-1.761-1.707-4-2.561-6.721-2.561c-2.96,0-5.4,1.055-7.32,3.16c-1.92,2.107-2.881,4.68-2.881,7.721
		c0,3.039,0.961,5.607,2.881,7.699C616.404,535.716,618.845,536.763,621.805,536.763 M599.446,536.163v-10.801
		c0-0.213,0.053-0.506,0.159-0.879s0.285-0.826,0.54-1.361c0.253-0.533,0.687-0.986,1.301-1.359
		c0.612-0.373,1.345-0.561,2.199-0.561c1.573,0,2.801,0.375,3.681,1.121l2.96-6l-0.562-0.32c-0.346-0.213-0.893-0.426-1.639-0.641
		c-0.747-0.213-1.507-0.32-2.28-0.32c-0.747,0-1.479,0.127-2.2,0.381c-0.72,0.254-1.307,0.539-1.76,0.859
		c-0.455,0.32-0.88,0.68-1.28,1.08c-0.399,0.4-0.659,0.68-0.779,0.84s-0.207,0.295-0.261,0.4h-0.079v-2.961h-7.08v20.521H599.446z
		 M576.046,521.083c1.333,0,2.46,0.453,3.38,1.359s1.38,2.066,1.38,3.48c0,1.387-0.446,2.533-1.34,3.439s-2.034,1.359-3.42,1.359
		c-1.44,0-2.601-0.445-3.479-1.34c-0.881-0.893-1.32-2.045-1.32-3.459s0.459-2.574,1.38-3.48
		C573.546,521.536,574.686,521.083,576.046,521.083 M576.086,536.763c3.546,0,6.473-1.02,8.779-3.061
		c2.307-2.039,3.461-4.633,3.461-7.779s-1.181-5.746-3.54-7.801c-2.36-2.053-5.261-3.08-8.7-3.08c-3.494,0-6.428,1.02-8.8,3.061
		c-2.374,2.039-3.56,4.646-3.56,7.82s1.139,5.773,3.42,7.799C569.426,535.749,572.406,536.763,576.086,536.763 M559.126,521.802
		l2.399-4.84l-0.68-0.479c-0.48-0.32-1.294-0.641-2.439-0.961c-1.148-0.32-2.4-0.48-3.76-0.48c-3.015,0-5.66,1.074-7.941,3.221
		c-2.279,2.146-3.419,4.713-3.419,7.699c0,2.961,1.14,5.5,3.419,7.621c2.281,2.119,4.927,3.18,7.941,3.18
		c1.359,0,2.633-0.174,3.819-0.52c1.187-0.348,1.946-0.621,2.28-0.82c0.333-0.201,0.593-0.367,0.779-0.5l-2.399-4.92l-0.36,0.24
		c-0.267,0.16-0.687,0.318-1.26,0.479c-0.574,0.16-1.18,0.24-1.82,0.24c-1.334,0-2.48-0.492-3.439-1.479
		c-0.96-0.986-1.44-2.188-1.44-3.602c0-1.385,0.48-2.572,1.44-3.559c0.959-0.986,2.105-1.48,3.439-1.48
		C557.099,520.843,558.246,521.163,559.126,521.802 M538.686,521.802l2.4-4.84l-0.68-0.479c-0.48-0.32-1.295-0.641-2.44-0.961
		c-1.147-0.32-2.399-0.48-3.761-0.48c-3.014,0-5.659,1.074-7.939,3.221c-2.279,2.146-3.42,4.713-3.42,7.699
		c0,2.961,1.141,5.5,3.42,7.621c2.28,2.119,4.926,3.18,7.939,3.18c1.361,0,2.634-0.174,3.82-0.52c1.187-0.348,1.945-0.621,2.28-0.82
		c0.333-0.201,0.593-0.367,0.78-0.5l-2.4-4.92l-0.359,0.24c-0.268,0.16-0.688,0.318-1.26,0.479c-0.574,0.16-1.181,0.24-1.82,0.24
		c-1.334,0-2.48-0.492-3.44-1.479s-1.44-2.188-1.44-3.602c0-1.385,0.48-2.572,1.44-3.559s2.106-1.48,3.44-1.48
		C536.658,520.843,537.806,521.163,538.686,521.802 M507.046,521.083c1.333,0,2.46,0.453,3.38,1.359s1.38,2.066,1.38,3.48
		c0,1.387-0.446,2.533-1.34,3.439s-2.034,1.359-3.42,1.359c-1.44,0-2.601-0.445-3.479-1.34c-0.881-0.893-1.32-2.045-1.32-3.459
		s0.46-2.574,1.38-3.48S505.686,521.083,507.046,521.083 M504.926,536.763c2.721,0,4.96-0.973,6.721-2.92h0.08v2.32h7v-20.521h-7.08
		v1.961c-1.761-1.707-4-2.561-6.721-2.561c-2.96,0-5.4,1.055-7.32,3.16c-1.92,2.107-2.879,4.68-2.879,7.721
		c0,3.039,0.959,5.607,2.879,7.699C499.525,535.716,501.966,536.763,504.926,536.763 M466.387,516.782
		c-1.613,1.16-2.42,2.779-2.42,4.859c0,1.389,0.373,2.5,1.12,3.342c0.746,0.84,1.76,1.594,3.04,2.26
		c0.506,0.266,1.206,0.559,2.1,0.879s1.526,0.607,1.9,0.861c0.373,0.254,0.561,0.605,0.561,1.059c0,0.988-0.734,1.48-2.201,1.48
		c-0.666,0-1.453-0.221-2.359-0.66c-0.907-0.439-1.534-0.785-1.88-1.039c-0.347-0.254-0.627-0.475-0.841-0.66l-2.879,4.84
		l0.879,0.719c0.586,0.455,1.541,0.908,2.861,1.361c1.319,0.453,2.713,0.68,4.18,0.68c6.479,0,9.72-2.334,9.72-7
		c0-0.986-0.187-1.867-0.56-2.641c-0.375-0.773-0.9-1.412-1.58-1.92c-0.681-0.506-1.328-0.906-1.94-1.199
		c-0.614-0.293-1.334-0.561-2.16-0.801c-0.134-0.025-0.327-0.08-0.58-0.16c-0.254-0.08-0.434-0.139-0.54-0.18
		c-0.107-0.039-0.267-0.1-0.48-0.18c-0.213-0.08-0.366-0.141-0.459-0.18c-0.094-0.041-0.221-0.1-0.381-0.18s-0.273-0.154-0.34-0.221
		s-0.14-0.146-0.22-0.24s-0.134-0.193-0.159-0.301c-0.027-0.105-0.041-0.213-0.041-0.318c0-0.48,0.166-0.807,0.5-0.98
		s0.9-0.26,1.7-0.26c1.44,0,2.96,0.426,4.56,1.279l2.32-4.641l-0.84-0.398c-0.561-0.268-1.414-0.533-2.561-0.801
		c-1.146-0.266-2.307-0.4-3.479-0.4C470.18,515.042,468,515.622,466.387,516.782 M445.646,515.642v5.4h2.961v7.881
		c0,0.986,0.105,1.914,0.319,2.779c0.213,0.867,0.565,1.693,1.06,2.48s1.221,1.414,2.181,1.879c0.96,0.467,2.106,0.701,3.44,0.701
		c1.945,0,3.68-0.428,5.199-1.279l-1.76-5.721l-0.24,0.16c-0.16,0.107-0.387,0.213-0.68,0.32c-0.294,0.105-0.574,0.16-0.84,0.16
		c-1.067,0-1.6-0.947-1.6-2.842v-6.52h4.319v-5.4h-4.319v-7.639h-7.08v7.639H445.646z M427.486,536.163v-11.602
		c0-1.012,0.434-1.932,1.301-2.76c0.867-0.826,1.833-1.24,2.9-1.24c1.092,0,1.979,0.4,2.659,1.201
		c0.681,0.799,1.021,1.734,1.021,2.799v11.602h7.08v-13.521c0-1.359-0.287-2.553-0.86-3.58c-0.573-1.025-1.319-1.818-2.24-2.379
		c-0.92-0.561-1.88-0.973-2.88-1.24c-1-0.266-2.007-0.4-3.02-0.4c-2.08,0-4.041,0.92-5.881,2.76h-0.08v-2.16h-7.08v20.521H427.486z
		 M402.768,520.562c0.693-0.611,1.627-0.92,2.799-0.92c1.067,0,1.94,0.287,2.621,0.861c0.68,0.574,1.1,1.393,1.26,2.459h-7.801
		C401.699,521.976,402.074,521.177,402.768,520.562 M416.367,525.923c0-3.494-1.021-6.18-3.061-8.061
		c-2.039-1.879-4.687-2.82-7.939-2.82c-3.094,0-5.747,1.068-7.961,3.201c-2.213,2.133-3.319,4.693-3.319,7.68
		s1.106,5.539,3.319,7.66c2.214,2.119,4.867,3.18,7.961,3.18c4.959,0,8.507-1.787,10.64-5.359l-5.12-2.561
		c-0.854,0.906-1.613,1.514-2.279,1.82c-0.668,0.307-1.574,0.459-2.721,0.459c-1.093,0-2.105-0.346-3.04-1.039
		c-0.933-0.693-1.399-1.76-1.399-3.201h14.879C416.354,526.722,416.367,526.403,416.367,525.923 M362.447,536.163v-12
		c0-0.934,0.273-1.74,0.82-2.42c0.547-0.682,1.366-1.021,2.461-1.021c1.199,0,2.1,0.367,2.699,1.102c0.6,0.732,0.9,1.646,0.9,2.738
		v11.602h7.08v-12.24c0.053-0.881,0.353-1.633,0.9-2.26c0.545-0.627,1.34-0.941,2.379-0.941c1.2,0,2.101,0.367,2.7,1.102
		c0.601,0.732,0.9,1.646,0.9,2.738v11.602h7.079v-13.521c0-2.611-0.786-4.531-2.359-5.76c-1.574-1.225-3.454-1.84-5.641-1.84
		c-2.453,0-4.719,1.254-6.799,3.76c-0.668-1.279-1.654-2.225-2.961-2.84c-1.307-0.613-2.707-0.92-4.199-0.92
		c-2.08,0-4.041,0.92-5.881,2.76h-0.08v-2.16h-7.08v20.521H362.447z M338.088,521.083c1.333,0,2.46,0.453,3.38,1.359
		s1.38,2.066,1.38,3.48c0,1.387-0.447,2.533-1.34,3.439c-0.895,0.906-2.034,1.359-3.42,1.359c-1.439,0-2.6-0.445-3.48-1.34
		c-0.879-0.893-1.319-2.045-1.319-3.459s0.46-2.574,1.38-3.48S336.729,521.083,338.088,521.083 M337.688,547.163
		c3.627,0,6.547-0.908,8.76-2.721c2.214-1.814,3.32-4.387,3.32-7.721v-21.08h-7.08v1.842h-0.119
		c-1.76-1.627-3.961-2.441-6.601-2.441c-2.96,0-5.399,1.055-7.319,3.16c-1.92,2.107-2.881,4.68-2.881,7.721
		c0,3.039,0.961,5.607,2.881,7.699c1.92,2.094,4.359,3.141,7.319,3.141c3.226,0,5.466-0.693,6.72-2.08v1.52
		c0,1.627-0.526,2.834-1.58,3.621c-1.054,0.785-2.193,1.18-3.42,1.18c-2.64,0-4.494-0.881-5.56-2.641l-5.8,2.84
		C328.033,545.175,331.82,547.163,337.688,547.163 M309.968,521.083c1.333,0,2.46,0.453,3.38,1.359s1.381,2.066,1.381,3.48
		c0,1.387-0.447,2.533-1.341,3.439s-2.034,1.359-3.42,1.359c-1.44,0-2.601-0.445-3.479-1.34c-0.881-0.893-1.32-2.045-1.32-3.459
		s0.46-2.574,1.38-3.48S308.607,521.083,309.968,521.083 M307.848,536.763c2.721,0,4.961-0.973,6.721-2.92h0.08v2.32h7v-20.521
		h-7.08v1.961c-1.76-1.707-4-2.561-6.721-2.561c-2.96,0-5.4,1.055-7.32,3.16c-1.92,2.107-2.879,4.68-2.879,7.721
		c0,3.039,0.959,5.607,2.879,7.699C302.447,535.716,304.888,536.763,307.848,536.763 M285.809,536.163v-10.801
		c0-0.213,0.053-0.506,0.159-0.879s0.287-0.826,0.54-1.361c0.254-0.533,0.688-0.986,1.301-1.359s1.346-0.561,2.199-0.561
		c1.574,0,2.801,0.375,3.68,1.121l2.961-6l-0.561-0.32c-0.346-0.213-0.893-0.426-1.641-0.641c-0.746-0.213-1.506-0.32-2.279-0.32
		c-0.746,0-1.48,0.127-2.2,0.381s-1.306,0.539-1.76,0.859c-0.453,0.32-0.88,0.68-1.28,1.08s-0.66,0.68-0.779,0.84
		c-0.121,0.16-0.207,0.295-0.261,0.4h-0.079v-2.961h-7.08v20.521H285.809z M261.168,515.642v5.4h2.96v15.121h7.08v-15.121h4.72v-5.4
		h-4.72v-4.158c0-1.494,0.147-2.541,0.44-3.141s0.879-0.9,1.76-0.9c0.773,0,1.479,0.188,2.119,0.561l2.48-5l-0.68-0.441
		c-0.426-0.318-1.127-0.633-2.1-0.939c-0.974-0.305-1.994-0.459-3.061-0.459c-2.506,0-4.467,0.92-5.88,2.76s-2.134,4.293-2.16,7.359
		v4.359H261.168z M233.929,521.083c1.333,0,2.46,0.453,3.38,1.359s1.381,2.066,1.381,3.48c0,1.387-0.447,2.533-1.34,3.439
		c-0.895,0.906-2.035,1.359-3.421,1.359c-1.44,0-2.6-0.445-3.479-1.34c-0.881-0.893-1.32-2.045-1.32-3.459s0.46-2.574,1.38-3.48
		S232.568,521.083,233.929,521.083 M233.529,547.163c3.625,0,6.545-0.908,8.76-2.721c2.213-1.814,3.32-4.387,3.32-7.721v-21.08
		h-7.08v1.842h-0.121c-1.76-1.627-3.959-2.441-6.6-2.441c-2.959,0-5.4,1.055-7.32,3.16c-1.92,2.107-2.879,4.68-2.879,7.721
		c0,3.039,0.959,5.607,2.879,7.699c1.92,2.094,4.361,3.141,7.32,3.141c3.227,0,5.467-0.693,6.721-2.08v1.52
		c0,1.627-0.527,2.834-1.58,3.621c-1.055,0.785-2.194,1.18-3.42,1.18c-2.641,0-4.494-0.881-5.561-2.641l-5.8,2.84
		C223.875,545.175,227.662,547.163,233.529,547.163 M202.929,536.163v-11.602c0-1.012,0.433-1.932,1.3-2.76
		c0.866-0.826,1.834-1.24,2.9-1.24c1.093,0,1.98,0.4,2.66,1.201c0.68,0.799,1.02,1.734,1.02,2.799v11.602h7.08v-13.521
		c0-1.359-0.287-2.553-0.859-3.58c-0.574-1.025-1.32-1.818-2.24-2.379s-1.881-0.973-2.881-1.24c-1-0.266-2.006-0.4-3.02-0.4
		c-2.08,0-4.039,0.92-5.88,2.76h-0.08v-2.16h-7.079v20.521H202.929z M190.049,536.163h-7.08v-20.521h7.08V536.163z M182.408,507.163
		c0,1.146,0.414,2.133,1.24,2.959c0.828,0.828,1.814,1.24,2.961,1.24s2.133-0.412,2.959-1.24c0.828-0.826,1.24-1.812,1.24-2.959
		s-0.412-2.133-1.24-2.961c-0.826-0.826-1.812-1.24-2.959-1.24s-2.133,0.414-2.961,1.24
		C182.822,505.03,182.408,506.017,182.408,507.163 M164.609,515.642v5.4h2.961v7.881c0,0.986,0.105,1.914,0.319,2.779
		c0.214,0.867,0.566,1.693,1.06,2.48c0.494,0.787,1.221,1.414,2.181,1.879c0.96,0.467,2.106,0.701,3.44,0.701
		c1.945,0,3.68-0.428,5.199-1.279l-1.76-5.721l-0.24,0.16c-0.16,0.107-0.387,0.213-0.68,0.32c-0.294,0.105-0.574,0.16-0.84,0.16
		c-1.066,0-1.6-0.947-1.6-2.842v-6.52h4.319v-5.4h-4.319v-7.639h-7.08v7.639H164.609z M160.49,521.802l2.399-4.84l-0.68-0.479
		c-0.479-0.32-1.294-0.641-2.44-0.961s-2.399-0.48-3.76-0.48c-3.014,0-5.66,1.074-7.939,3.221c-2.28,2.146-3.42,4.713-3.42,7.699
		c0,2.961,1.14,5.5,3.42,7.621c2.279,2.119,4.926,3.18,7.939,3.18c1.36,0,2.633-0.174,3.82-0.52c1.186-0.348,1.945-0.621,2.279-0.82
		c0.334-0.201,0.594-0.367,0.78-0.5l-2.399-4.92l-0.36,0.24c-0.267,0.16-0.687,0.318-1.26,0.479c-0.574,0.16-1.181,0.24-1.82,0.24
		c-1.334,0-2.479-0.492-3.44-1.479c-0.959-0.986-1.439-2.188-1.439-3.602c0-1.385,0.48-2.572,1.439-3.559
		c0.961-0.986,2.106-1.48,3.44-1.48C158.463,520.843,159.609,521.163,160.49,521.802 M128.41,520.562
		c0.693-0.611,1.626-0.92,2.8-0.92c1.065,0,1.94,0.287,2.62,0.861s1.1,1.393,1.26,2.459h-7.8
		C127.343,521.976,127.716,521.177,128.41,520.562 M142.01,525.923c0-3.494-1.02-6.18-3.061-8.061
		c-2.039-1.879-4.687-2.82-7.939-2.82c-3.094,0-5.747,1.068-7.96,3.201c-2.214,2.133-3.319,4.693-3.319,7.68s1.105,5.539,3.319,7.66
		c2.213,2.119,4.866,3.18,7.96,3.18c4.96,0,8.506-1.787,10.641-5.359l-5.121-2.561c-0.854,0.906-1.613,1.514-2.279,1.82
		c-0.667,0.307-1.574,0.459-2.721,0.459c-1.094,0-2.106-0.346-3.039-1.039c-0.935-0.693-1.4-1.76-1.4-3.201h14.88
		C141.996,526.722,142.01,526.403,142.01,525.923 M115.609,501.763h-7.08v34.4h7.08V501.763z M90.891,520.562
		c0.692-0.611,1.625-0.92,2.799-0.92c1.066,0,1.94,0.287,2.621,0.861c0.68,0.574,1.1,1.393,1.26,2.459H89.77
		C89.822,521.976,90.195,521.177,90.891,520.562 M104.49,525.923c0-3.494-1.021-6.18-3.061-8.061
		c-2.039-1.879-4.688-2.82-7.939-2.82c-3.094,0-5.748,1.068-7.961,3.201s-3.319,4.693-3.319,7.68s1.106,5.539,3.319,7.66
		c2.213,2.119,4.867,3.18,7.961,3.18c4.959,0,8.506-1.787,10.64-5.359l-5.12-2.561c-0.854,0.906-1.613,1.514-2.279,1.82
		c-0.668,0.307-1.574,0.459-2.721,0.459c-1.094,0-2.107-0.346-3.04-1.039c-0.934-0.693-1.399-1.76-1.399-3.201h14.879
		C104.477,526.722,104.49,526.403,104.49,525.923 M60.689,505.382c-2.187,1.881-3.279,4.301-3.279,7.26
		c0,1.707,0.546,3.301,1.64,4.781c1.093,1.48,2.64,2.713,4.64,3.699c0.48,0.24,1.221,0.594,2.221,1.061s1.72,0.814,2.16,1.039
		c0.439,0.229,0.945,0.535,1.52,0.92c0.573,0.389,0.973,0.775,1.2,1.16c0.226,0.389,0.34,0.809,0.34,1.26
		c0,2.16-1.587,3.24-4.76,3.24c-1.095,0-2.354-0.346-3.78-1.039c-1.427-0.693-2.42-1.246-2.98-1.66c-0.56-0.412-1-0.754-1.319-1.02
		l-3.761,6.32l0.521,0.439c0.347,0.293,0.894,0.654,1.64,1.08s1.586,0.859,2.521,1.299c0.933,0.441,2.093,0.809,3.479,1.102
		s2.801,0.439,4.24,0.439c1.68,0,3.24-0.193,4.68-0.58c1.44-0.387,2.754-0.98,3.94-1.779c1.187-0.801,2.12-1.906,2.8-3.32
		s1.021-3.066,1.021-4.961c0-1.973-0.755-3.74-2.261-5.299c-1.506-1.561-3.326-2.793-5.459-3.701
		c-1.228-0.533-2.135-0.932-2.721-1.199c-0.587-0.266-1.267-0.621-2.04-1.061c-0.774-0.439-1.319-0.854-1.64-1.24
		c-0.32-0.385-0.48-0.805-0.48-1.26c0-0.906,0.34-1.625,1.021-2.16c0.68-0.533,1.646-0.799,2.899-0.799
		c1.014,0,2.106,0.213,3.28,0.639c1.173,0.428,1.974,0.768,2.4,1.02c0.426,0.256,0.76,0.461,1,0.621l3.04-6l-1.2-0.801
		c-0.827-0.506-2.095-1.02-3.8-1.539c-1.707-0.52-3.454-0.781-5.24-0.781C65.37,502.562,62.876,503.503,60.689,505.382"/>
	<polygon clip-path="url(#SVGID_2_)" fill="none" stroke="#0046FA" stroke-width="1.998" points="0.999,3 0.999,572.04 
		0.999,574.042 3,574.042 1167.087,574.042 1169.088,574.042 1169.088,572.04 1169.088,3 1169.088,0.998 1167.087,0.998 3,0.998 
		0.999,0.998 	"/>
</g>
<rect x="5.001" y="5.002" fill="none" stroke="#0046FA" stroke-width="1.998" width="1160.085" height="565.036"/>
<line fill="none" stroke="#0046FA" stroke-width="2" x1="488.037" y1="171.012" x2="1144.086" y2="171.012"/>
<line fill="none" stroke="#0046FA" stroke-width="2" x1="27.002" y1="471.034" x2="1144.086" y2="471.034"/>
<line fill="none" stroke="#0046FA" stroke-width="2" x1="467.033" y1="26.002" x2="467.033" y2="450.034"/>
<line fill="none" stroke="#0046FA" stroke-width="2" x1="816.061" y1="192.015" x2="816.061" y2="450.032"/>
<path fill="#0046FA" d="M525.16,314.081v17.561l118.389-3.684l-50.98,77.037l0.283,0.283l166.536-82.135v-0.566l-166.536-81.568
	l-0.567,0.283l51.265,77.037L525.16,314.081z M661.391,323.144h74.771L621.74,379.505L661.391,323.144z"/>
</svg>
