<?xml version="1.0" encoding="utf-8"?>
<!-- Generator: Adobe Illustrator 16.0.0, SVG Export Plug-In . SVG Version: 6.00 Build 0)  -->
<!DOCTYPE svg PUBLIC "-//W3C//DTD SVG 1.1//EN" "http://www.w3.org/Graphics/SVG/1.1/DTD/svg11.dtd">
<svg version="1.1" id="Layer_1" xmlns="http://www.w3.org/2000/svg" xmlns:xlink="http://www.w3.org/1999/xlink" x="0px" y="0px"
	 width="1170.09px" height="492.17px" viewBox="0 0 1170.09 492.17" enable-background="new 0 0 1170.09 492.17"
	 xml:space="preserve">
<line fill="none" stroke="#231F20" stroke-width="2" x1="26.338" y1="391.83" x2="1144.505" y2="391.83"/>
<line fill="none" stroke="#231F20" stroke-width="2" x1="26.338" y1="160.83" x2="629.504" y2="160.83"/>
<line fill="none" stroke="#231F20" stroke-width="2" x1="650.504" y1="25.329" x2="650.504" y2="370.829"/>
<line fill="none" stroke="#231F20" stroke-width="2" x1="327.92" y1="182.606" x2="327.92" y2="370.829"/>
<g>
	<defs>
		<rect id="SVGID_69_" x="0.461" y="-0.17" width="1170.088" height="492.17"/>
	</defs>
	<clipPath id="SVGID_2_">
		<use xlink:href="#SVGID_69_"  overflow="visible"/>
	</clipPath>
	<path clip-path="url(#SVGID_2_)" fill="#FF1419" d="M567.82,78.653v14.5h19c0,4.801-1.785,8.65-5.35,11.551
		c-3.568,2.9-7.75,4.35-12.551,4.35c-5.799,0-10.75-2.482-14.85-7.449s-6.15-10.951-6.15-17.951c0-7.133,2.051-13.215,6.15-18.25
		c4.1-5.032,9.051-7.549,14.85-7.549c7.865,0,14,3.533,18.4,10.6l12.299-13.5c-7.799-9.4-18.398-14.1-31.799-14.1
		c-11.469,0-21.035,4.133-28.699,12.399c-7.668,8.267-11.5,18.399-11.5,30.399c0,11.801,3.914,21.867,11.75,30.201
		c7.832,8.334,17.314,12.5,28.449,12.5c8.865,0,16.9-2.517,24.1-7.551c7.199-5.033,11.865-12.449,14-22.25v-17.9H567.82z
		 M452.721,73.653l32.801,51.201h18.799v-82.5h-18.799v51.199h-0.201l-32.799-51.199h-18.801v82.5h18.801V73.653H452.721z
		 M387.922,124.854h18.799v-82.5h-18.799V124.854z M327.721,58.854v66h18.801v-66h19.6v-16.5h-58v16.5H327.721z M272.32,124.854
		h18.801v-82.5H272.32V124.854z M204.522,57.354h2.2c1.732,0,3.199,0.033,4.4,0.1c1.199,0.066,2.564,0.3,4.1,0.699
		c1.531,0.4,2.764,0.968,3.699,1.701c0.934,0.733,1.734,1.799,2.4,3.199c0.664,1.4,1,3.1,1,5.1s-0.336,3.701-1,5.101
		c-0.666,1.399-1.467,2.467-2.4,3.2c-0.936,0.734-2.168,1.3-3.699,1.699c-1.535,0.4-2.9,0.635-4.1,0.701
		c-1.201,0.066-2.668,0.1-4.4,0.1h-2.2V57.354z M185.723,124.854h18.8V92.254l25.2,32.601h23.9l-28.4-34.101
		c5.199-1.666,9.314-4.55,12.35-8.649c3.033-4.101,4.551-9.184,4.551-15.25c0-7.867-2.5-13.916-7.5-18.15
		c-5-4.233-11.467-6.35-19.4-6.35h-29.5V124.854z M142.724,124.854l23.5-82.5h-20.8l-14.1,56.6h-0.5l-15-56.6h-14.201l-15,56.6h-0.5
		l-14.1-56.6h-20.9l23.5,82.5h20.9l13.2-46.301l13.2,46.301H142.724z"/>
	<polygon clip-path="url(#SVGID_2_)" fill="none" stroke="#231F20" stroke-width="1.998" points="1.46,2.83 1.46,489 1.46,491.002 
		3.461,491.002 1167.547,491.002 1169.549,491.002 1169.549,489 1169.549,2.83 1169.549,0.828 1167.547,0.828 3.461,0.828 
		1.46,0.828 	"/>
</g>
<rect x="5.462" y="4.832" fill="none" stroke="#231F20" stroke-width="1.998" width="1160.085" height="482.166"/>
<g>
	<defs>
		<rect id="SVGID_71_" x="0.461" y="-0.17" width="1170.088" height="492.17"/>
	</defs>
	<clipPath id="SVGID_4_">
		<use xlink:href="#SVGID_71_"  overflow="visible"/>
	</clipPath>
	<path clip-path="url(#SVGID_4_)" fill="#231F20" d="M1107.861,437.249c0.426-0.306,1.066-0.46,1.92-0.46
		c0.933,0,1.692,0.207,2.279,0.62c0.586,0.414,1,0.98,1.24,1.7l4.561-1.84c-0.215-0.561-0.521-1.141-0.921-1.74
		c-0.399-0.6-0.921-1.146-1.56-1.64c-0.64-0.493-1.42-0.894-2.34-1.2c-0.92-0.306-2.008-0.46-3.26-0.46
		c-0.961,0-1.895,0.134-2.801,0.399c-0.906,0.268-1.707,0.66-2.399,1.181c-0.694,0.52-1.255,1.153-1.681,1.899
		c-0.427,0.747-0.64,1.614-0.64,2.601v0.239c0,1.895,0.66,3.327,1.98,4.301c1.319,0.974,3.1,1.554,5.34,1.739
		c0.825,0.08,1.513,0.188,2.06,0.32c0.546,0.134,0.98,0.3,1.3,0.5c0.32,0.2,0.54,0.414,0.659,0.64
		c0.121,0.228,0.182,0.475,0.182,0.74c0,0.454-0.234,0.874-0.7,1.26c-0.468,0.388-1.327,0.58-2.58,0.58
		c-1.415,0-2.46-0.319-3.14-0.96c-0.682-0.64-1.129-1.386-1.342-2.239l-4.639,1.52c0.133,0.694,0.393,1.407,0.78,2.14
		c0.386,0.734,0.938,1.4,1.659,2c0.721,0.601,1.627,1.101,2.721,1.5c1.094,0.4,2.412,0.601,3.96,0.601c2.612,0,4.64-0.586,6.08-1.76
		c1.438-1.174,2.16-2.746,2.16-4.721v-0.239c0-1.786-0.642-3.181-1.921-4.181s-2.934-1.605-4.959-1.819
		c-1.762-0.187-2.975-0.421-3.641-0.7c-0.667-0.28-1-0.74-1-1.38C1107.221,437.937,1107.434,437.557,1107.861,437.249
		 M1074.261,437.589h5.88v11.921c0,0.906,0.287,1.653,0.86,2.239c0.573,0.587,1.312,0.88,2.22,0.88h8.4v-4.8h-5.36
		c-0.72,0-1.081-0.399-1.081-1.2v-9.04h7.161v-4.8h-7.161v-8.16h-5.039v8.16h-5.88V437.589z M1053.781,442.31
		c0-1.681,0.366-3.021,1.1-4.021c0.732-1,1.846-1.5,3.34-1.5c1.28,0,2.26,0.407,2.94,1.221c0.68,0.813,1.019,1.927,1.019,3.34
		v11.279h5.041v-12.56c0-1.36-0.18-2.533-0.541-3.521c-0.359-0.985-0.859-1.8-1.5-2.439c-0.639-0.64-1.379-1.113-2.219-1.42
		c-0.84-0.306-1.74-0.46-2.7-0.46c-1.36,0-2.547,0.307-3.56,0.92c-1.015,0.614-1.748,1.479-2.2,2.6h-0.72v-2.96h-5.04v19.84h5.04
		V442.31z M1035.041,437.709c0.84,0.614,1.34,1.388,1.5,2.32h-9.361c0.241-0.853,0.761-1.606,1.562-2.26
		c0.8-0.653,1.84-0.98,3.12-0.98C1033.141,436.789,1034.201,437.097,1035.041,437.709 M1041.661,444.35v-2.681
		c0-1.04-0.188-2.112-0.562-3.22c-0.373-1.105-0.959-2.12-1.759-3.04s-1.813-1.68-3.04-2.28c-1.227-0.6-2.694-0.899-4.4-0.899
		c-1.387,0-2.687,0.247-3.899,0.74s-2.273,1.18-3.181,2.06c-0.906,0.88-1.619,1.947-2.141,3.2c-0.519,1.254-0.779,2.64-0.779,4.16
		v0.239c0,1.654,0.247,3.135,0.74,4.44c0.494,1.307,1.188,2.414,2.08,3.32s1.953,1.6,3.18,2.08c1.227,0.479,2.586,0.72,4.08,0.72
		c1.308,0,2.447-0.147,3.42-0.44c0.974-0.293,1.801-0.666,2.48-1.12c0.68-0.452,1.232-0.952,1.66-1.5c0.428-0.546,0.76-1.072,1-1.58
		l-4.32-2.399c-0.293,0.614-0.772,1.14-1.439,1.58c-0.668,0.439-1.627,0.66-2.881,0.66c-0.64,0-1.246-0.101-1.819-0.301
		c-0.573-0.199-1.08-0.479-1.521-0.84c-0.439-0.359-0.787-0.786-1.041-1.279c-0.252-0.493-0.393-1.033-0.42-1.62H1041.661z
		 M1016.501,437.27c0-1.573-0.401-2.807-1.2-3.7c-0.8-0.893-1.867-1.34-3.201-1.34c-1.012,0-1.858,0.233-2.539,0.7
		c-0.68,0.467-1.127,1.06-1.34,1.779h-0.72c-0.213-0.72-0.627-1.312-1.24-1.779s-1.36-0.7-2.241-0.7c-0.932,0-1.686,0.233-2.259,0.7
		s-0.94,1.06-1.1,1.779h-0.721v-1.92h-5.04v19.84h5.04v-13.68c0-0.64,0.159-1.12,0.48-1.439c0.32-0.32,0.72-0.48,1.2-0.48
		c0.426,0,0.793,0.14,1.1,0.42c0.308,0.28,0.459,0.7,0.459,1.26v13.92h5.041v-13.68c0-0.64,0.153-1.12,0.459-1.439
		c0.309-0.32,0.729-0.48,1.261-0.48c0.454,0,0.82,0.14,1.101,0.42c0.279,0.28,0.42,0.7,0.42,1.26v13.92h5.04V437.27z
		 M975.561,446.93c-0.973-0.974-1.461-2.301-1.461-3.98v-0.479c0-1.681,0.488-3.007,1.461-3.98c0.973-0.973,2.247-1.46,3.82-1.46
		c1.572,0,2.847,0.5,3.82,1.5c0.973,1,1.46,2.314,1.46,3.94v0.479c0,1.627-0.487,2.94-1.46,3.94c-0.974,1-2.248,1.5-3.82,1.5
		C977.808,448.39,976.533,447.903,975.561,446.93 M984.661,454.629c0,0.801-0.36,1.2-1.08,1.2h-10.32v4.8h13.36
		c0.907,0,1.646-0.294,2.22-0.88c0.573-0.587,0.86-1.334,0.86-2.239v-24.721h-5.04v2.88h-0.721c-0.532-1.093-1.267-1.939-2.199-2.54
		c-0.934-0.6-2.2-0.899-3.801-0.899c-1.199,0-2.341,0.227-3.421,0.68c-1.079,0.454-2.025,1.114-2.84,1.98
		c-0.812,0.866-1.452,1.927-1.919,3.18c-0.467,1.254-0.7,2.68-0.7,4.28v0.72c0,1.627,0.221,3.067,0.66,4.32
		c0.44,1.254,1.053,2.313,1.84,3.18c0.787,0.867,1.707,1.52,2.76,1.96c1.054,0.44,2.193,0.66,3.421,0.66
		c0.96,0,1.778-0.094,2.46-0.28c0.68-0.187,1.268-0.439,1.76-0.76s0.893-0.687,1.2-1.101c0.308-0.412,0.566-0.846,0.779-1.3h0.721
		V454.629z M949.261,446.93c-0.88-0.974-1.32-2.301-1.32-3.98v-0.479c0-1.681,0.44-3.007,1.32-3.98
		c0.88-0.973,2.054-1.46,3.521-1.46s2.64,0.487,3.52,1.46c0.879,0.974,1.32,2.3,1.32,3.98v0.479c0,1.68-0.441,3.007-1.32,3.98
		c-0.88,0.974-2.053,1.46-3.52,1.46S950.141,447.903,949.261,446.93 M957.98,449.749c0,0.854,0.287,1.547,0.86,2.08
		c0.573,0.534,1.314,0.8,2.22,0.8h3.44v-4.8h-0.76c-0.722,0-1.08-0.399-1.08-1.2v-13.84h-5.04v2.4H956.9
		c-0.506-1.013-1.193-1.76-2.06-2.24c-0.867-0.479-2.007-0.72-3.42-0.72c-1.173,0-2.273,0.233-3.3,0.7s-1.926,1.14-2.7,2.02
		c-0.773,0.88-1.386,1.947-1.84,3.2c-0.454,1.254-0.681,2.667-0.681,4.24v0.64c0,1.6,0.234,3.027,0.699,4.28
		c0.469,1.254,1.102,2.319,1.901,3.2c0.8,0.88,1.727,1.547,2.78,2c1.053,0.452,2.18,0.68,3.38,0.68c1.279,0,2.399-0.26,3.358-0.78
		c0.961-0.52,1.708-1.406,2.241-2.66H957.98z M917.381,437.589h3.6v10.24h-4.08v4.8h13.681v-4.8h-4.562v-6.399
		c0-1.44,0.321-2.546,0.961-3.32c0.641-0.773,1.521-1.16,2.641-1.16s1.96,0.327,2.52,0.98c0.561,0.653,0.84,1.526,0.84,2.619v0.561
		l5.199-0.48v-0.88c0-2.533-0.599-4.42-1.799-5.66c-1.201-1.239-2.787-1.859-4.76-1.859c-1.253,0-2.327,0.3-3.221,0.899
		c-0.893,0.601-1.525,1.447-1.899,2.54h-0.72v-2.88h-8.4V437.589z M892.1,437.589h5.642v15.04h5.04v-15.04h7.8v-4.8h-7.8v-2.16
		c0-0.8,0.359-1.199,1.08-1.199h6v-4.801h-8.08c-1.146,0-2.105,0.395-2.881,1.181c-0.773,0.787-1.159,1.754-1.159,2.899v4.08H892.1
		V437.589z M852.48,437.709c0.84,0.614,1.34,1.388,1.5,2.32h-9.359c0.24-0.853,0.76-1.606,1.559-2.26
		c0.801-0.653,1.84-0.98,3.121-0.98C850.581,436.789,851.641,437.097,852.48,437.709 M859.1,444.35v-2.681
		c0-1.04-0.186-2.112-0.559-3.22c-0.373-1.105-0.96-2.12-1.76-3.04c-0.801-0.92-1.812-1.68-3.04-2.28
		c-1.227-0.6-2.694-0.899-4.4-0.899c-1.386,0-2.686,0.247-3.9,0.74c-1.213,0.493-2.272,1.18-3.18,2.06
		c-0.906,0.88-1.62,1.947-2.14,3.2c-0.521,1.254-0.78,2.64-0.78,4.16v0.239c0,1.654,0.247,3.135,0.74,4.44
		c0.493,1.307,1.187,2.414,2.08,3.32s1.954,1.6,3.18,2.08c1.228,0.479,2.587,0.72,4.08,0.72c1.307,0,2.447-0.147,3.42-0.44
		c0.974-0.293,1.8-0.666,2.479-1.12c0.681-0.452,1.234-0.952,1.66-1.5c0.428-0.546,0.761-1.072,1-1.58l-4.319-2.399
		c-0.293,0.614-0.774,1.14-1.44,1.58c-0.666,0.439-1.626,0.66-2.88,0.66c-0.64,0-1.246-0.101-1.821-0.301
		c-0.571-0.199-1.079-0.479-1.519-0.84c-0.44-0.359-0.786-0.786-1.04-1.279s-0.393-1.033-0.42-1.62H859.1z M819.141,442.31
		c0-1.681,0.367-3.021,1.102-4.021c0.732-1,1.846-1.5,3.339-1.5c1.28,0,2.26,0.407,2.938,1.221c0.682,0.813,1.021,1.927,1.021,3.34
		v11.279h5.04v-12.479c0-1.36-0.173-2.54-0.521-3.54c-0.346-1-0.826-1.82-1.439-2.46s-1.333-1.12-2.16-1.44
		c-0.826-0.319-1.733-0.479-2.719-0.479c-1.439,0-2.654,0.327-3.643,0.979c-0.984,0.654-1.731,1.58-2.238,2.78h-0.721v-11.36H814.1
		v28h5.041V442.31z M787.381,437.589h5.88v11.921c0,0.906,0.286,1.653,0.86,2.239c0.574,0.587,1.313,0.88,2.22,0.88h8.4v-4.8h-5.36
		c-0.72,0-1.08-0.399-1.08-1.2v-9.04h7.16v-4.8h-7.16v-8.16h-5.04v8.16h-5.88V437.589z M740.82,442.31
		c0-1.681,0.367-3.021,1.102-4.021c0.732-1,1.846-1.5,3.339-1.5c1.28,0,2.259,0.407,2.94,1.221c0.68,0.813,1.02,1.927,1.02,3.34
		v11.279h5.04v-12.56c0-1.36-0.18-2.533-0.54-3.521c-0.358-0.985-0.858-1.8-1.5-2.439c-0.64-0.64-1.38-1.113-2.219-1.42
		c-0.841-0.306-1.741-0.46-2.699-0.46c-1.361,0-2.549,0.307-3.561,0.92c-1.015,0.614-1.747,1.479-2.201,2.6h-0.721v-2.96h-5.039
		v19.84h5.039V442.31z M716.781,448.029c-0.64-0.24-1.199-0.586-1.68-1.04c-0.48-0.453-0.859-1.006-1.14-1.66
		c-0.28-0.652-0.42-1.393-0.42-2.22v-0.8c0-0.826,0.14-1.566,0.42-2.221c0.28-0.652,0.659-1.205,1.14-1.659
		c0.48-0.453,1.04-0.801,1.68-1.04c0.641-0.24,1.32-0.36,2.041-0.36c0.72,0,1.398,0.12,2.04,0.36c0.64,0.239,1.199,0.587,1.68,1.04
		c0.479,0.454,0.86,1.007,1.14,1.659c0.28,0.654,0.42,1.395,0.42,2.221v0.8c0,0.827-0.14,1.567-0.42,2.22
		c-0.279,0.654-0.66,1.207-1.14,1.66c-0.48,0.454-1.04,0.8-1.68,1.04c-0.642,0.24-1.32,0.36-2.04,0.36
		C718.102,448.39,717.422,448.27,716.781,448.029 M729.142,442.47c0-1.626-0.279-3.073-0.839-4.341
		c-0.561-1.266-1.321-2.34-2.281-3.22s-2.06-1.546-3.301-2c-1.239-0.453-2.539-0.68-3.898-0.68c-1.36,0-2.66,0.227-3.9,0.68
		c-1.24,0.454-2.34,1.12-3.301,2c-0.959,0.88-1.719,1.954-2.279,3.22c-0.561,1.268-0.84,2.715-0.84,4.341v0.479
		c0,1.654,0.279,3.114,0.84,4.38c0.561,1.268,1.32,2.334,2.279,3.2c0.961,0.867,2.061,1.527,3.301,1.98
		c1.24,0.452,2.54,0.68,3.9,0.68c1.359,0,2.659-0.228,3.898-0.68c1.241-0.453,2.341-1.113,3.301-1.98
		c0.96-0.866,1.721-1.933,2.281-3.2c0.56-1.266,0.839-2.726,0.839-4.38V442.47z M662.682,446.93
		c-0.974-0.974-1.461-2.301-1.461-3.98v-0.479c0-1.681,0.487-3.007,1.461-3.98c0.973-0.973,2.246-1.46,3.82-1.46
		c1.573,0,2.846,0.5,3.82,1.5c0.973,1,1.459,2.314,1.459,3.94v0.479c0,1.627-0.486,2.94-1.459,3.94c-0.975,1-2.247,1.5-3.82,1.5
		C664.928,448.39,663.654,447.903,662.682,446.93 M671.781,452.629h5.041v-28h-5.041v11.04h-0.72
		c-0.533-1.093-1.267-1.939-2.199-2.54c-0.935-0.6-2.2-0.899-3.801-0.899c-1.199,0-2.341,0.227-3.42,0.68
		c-1.08,0.454-2.026,1.114-2.839,1.98c-0.814,0.866-1.455,1.927-1.921,3.18c-0.467,1.254-0.7,2.68-0.7,4.28v0.72
		c0,1.627,0.221,3.067,0.66,4.32c0.439,1.254,1.053,2.313,1.84,3.18c0.787,0.867,1.705,1.52,2.76,1.96
		c1.054,0.44,2.193,0.66,3.421,0.66c0.96,0,1.779-0.094,2.46-0.28c0.68-0.187,1.266-0.439,1.76-0.76
		c0.493-0.32,0.893-0.687,1.199-1.101c0.307-0.412,0.566-0.846,0.78-1.3h0.72V452.629z M643.842,437.709
		c0.84,0.614,1.34,1.388,1.5,2.32h-9.36c0.239-0.853,0.761-1.606,1.561-2.26s1.84-0.98,3.12-0.98
		C641.941,436.789,643.002,437.097,643.842,437.709 M650.462,444.35v-2.681c0-1.04-0.187-2.112-0.56-3.22
		c-0.374-1.105-0.961-2.12-1.761-3.04s-1.813-1.68-3.04-2.28c-1.227-0.6-2.693-0.899-4.4-0.899c-1.387,0-2.687,0.247-3.898,0.74
		c-1.215,0.493-2.274,1.18-3.182,2.06c-0.906,0.88-1.619,1.947-2.14,3.2c-0.52,1.254-0.78,2.64-0.78,4.16v0.239
		c0,1.654,0.247,3.135,0.74,4.44c0.493,1.307,1.187,2.414,2.08,3.32s1.953,1.6,3.18,2.08c1.227,0.479,2.586,0.72,4.08,0.72
		c1.307,0,2.446-0.147,3.42-0.44c0.975-0.293,1.801-0.666,2.48-1.12c0.681-0.452,1.233-0.952,1.66-1.5
		c0.426-0.546,0.76-1.072,1-1.58l-4.32-2.399c-0.294,0.614-0.773,1.14-1.439,1.58c-0.667,0.439-1.627,0.66-2.881,0.66
		c-0.64,0-1.246-0.101-1.819-0.301c-0.574-0.199-1.079-0.479-1.52-0.84c-0.44-0.359-0.787-0.786-1.04-1.279
		c-0.254-0.493-0.395-1.033-0.42-1.62H650.462z M612.342,437.249c0.426-0.306,1.066-0.46,1.92-0.46c0.934,0,1.693,0.207,2.28,0.62
		c0.586,0.414,1,0.98,1.239,1.7l4.561-1.84c-0.214-0.561-0.52-1.141-0.92-1.74s-0.92-1.146-1.56-1.64
		c-0.642-0.493-1.421-0.894-2.341-1.2c-0.92-0.306-2.007-0.46-3.26-0.46c-0.959,0-1.894,0.134-2.8,0.399
		c-0.907,0.268-1.708,0.66-2.4,1.181c-0.693,0.52-1.254,1.153-1.68,1.899c-0.427,0.747-0.64,1.614-0.64,2.601v0.239
		c0,1.895,0.66,3.327,1.979,4.301c1.321,0.974,3.102,1.554,5.341,1.739c0.825,0.08,1.514,0.188,2.06,0.32
		c0.547,0.134,0.98,0.3,1.301,0.5s0.54,0.414,0.66,0.64c0.119,0.228,0.18,0.475,0.18,0.74c0,0.454-0.233,0.874-0.7,1.26
		c-0.467,0.388-1.327,0.58-2.58,0.58c-1.413,0-2.46-0.319-3.14-0.96c-0.68-0.64-1.127-1.386-1.34-2.239l-4.64,1.52
		c0.133,0.694,0.392,1.407,0.779,2.14c0.387,0.734,0.94,1.4,1.661,2c0.719,0.601,1.625,1.101,2.719,1.5
		c1.094,0.4,2.413,0.601,3.96,0.601c2.613,0,4.64-0.586,6.08-1.76s2.159-2.746,2.159-4.721v-0.239c0-1.786-0.639-3.181-1.918-4.181
		c-1.281-1-2.935-1.605-4.961-1.819c-1.76-0.187-2.974-0.421-3.641-0.7c-0.666-0.28-1-0.74-1-1.38
		C611.701,437.937,611.915,437.557,612.342,437.249 M584.143,446.93c-0.881-0.974-1.32-2.301-1.32-3.98v-0.479
		c0-1.681,0.439-3.007,1.32-3.98c0.879-0.973,2.053-1.46,3.52-1.46c1.466,0,2.641,0.487,3.52,1.46c0.88,0.974,1.32,2.3,1.32,3.98
		v0.479c0,1.68-0.44,3.007-1.32,3.98c-0.879,0.974-2.054,1.46-3.52,1.46C586.195,448.39,585.021,447.903,584.143,446.93
		 M592.862,449.749c0,0.854,0.285,1.547,0.858,2.08c0.574,0.534,1.314,0.8,2.221,0.8h3.44v-4.8h-0.761
		c-0.719,0-1.079-0.399-1.079-1.2v-13.84h-5.04v2.4h-0.721c-0.506-1.013-1.193-1.76-2.061-2.24c-0.867-0.479-2.006-0.72-3.418-0.72
		c-1.175,0-2.275,0.233-3.301,0.7c-1.027,0.467-1.928,1.14-2.699,2.02c-0.775,0.88-1.388,1.947-1.841,3.2
		c-0.454,1.254-0.681,2.667-0.681,4.24v0.64c0,1.6,0.233,3.027,0.701,4.28c0.465,1.254,1.1,2.319,1.899,3.2
		c0.8,0.88,1.726,1.547,2.78,2c1.053,0.452,2.18,0.68,3.38,0.68c1.28,0,2.399-0.26,3.36-0.78c0.96-0.52,1.705-1.406,2.239-2.66
		H592.862z M558.882,446.89c-0.974-1-1.46-2.313-1.46-3.94v-0.479c0-1.626,0.486-2.94,1.46-3.94s2.246-1.5,3.819-1.5
		c1.574,0,2.847,0.487,3.82,1.46c0.974,0.974,1.461,2.3,1.461,3.98v0.479c0,1.68-0.487,3.007-1.461,3.98s-2.246,1.46-3.82,1.46
		C561.128,448.39,559.855,447.89,558.882,446.89 M557.422,449.749h0.721c0.239,0.454,0.525,0.888,0.859,1.3
		c0.332,0.414,0.746,0.78,1.24,1.101c0.492,0.32,1.072,0.573,1.74,0.76c0.666,0.187,1.453,0.28,2.359,0.28
		c1.227,0,2.366-0.22,3.42-0.66c1.053-0.44,1.967-1.093,2.74-1.96c0.773-0.866,1.385-1.926,1.84-3.18
		c0.453-1.253,0.68-2.693,0.68-4.32v-0.72c0-1.601-0.234-3.026-0.699-4.28c-0.467-1.253-1.094-2.313-1.881-3.18
		s-1.707-1.526-2.76-1.98c-1.054-0.453-2.167-0.68-3.34-0.68c-1.574,0-2.867,0.3-3.88,0.899c-1.015,0.601-1.786,1.447-2.319,2.54
		h-0.721v-11.04h-5.04v28h5.04V449.749z M508.021,437.249c0.426-0.306,1.066-0.46,1.92-0.46c0.934,0,1.693,0.207,2.279,0.62
		c0.588,0.414,1,0.98,1.241,1.7l4.56-1.84c-0.213-0.561-0.52-1.141-0.92-1.74s-0.92-1.146-1.56-1.64
		c-0.64-0.493-1.421-0.894-2.341-1.2c-0.92-0.306-2.006-0.46-3.26-0.46c-0.959,0-1.894,0.134-2.799,0.399
		c-0.908,0.268-1.707,0.66-2.4,1.181c-0.694,0.52-1.254,1.153-1.68,1.899c-0.428,0.747-0.641,1.614-0.641,2.601v0.239
		c0,1.895,0.66,3.327,1.98,4.301c1.318,0.974,3.1,1.554,5.34,1.739c0.826,0.08,1.512,0.188,2.061,0.32
		c0.545,0.134,0.979,0.3,1.299,0.5s0.541,0.414,0.66,0.64c0.12,0.228,0.18,0.475,0.18,0.74c0,0.454-0.233,0.874-0.699,1.26
		c-0.467,0.388-1.327,0.58-2.58,0.58c-1.414,0-2.461-0.319-3.141-0.96c-0.68-0.64-1.127-1.386-1.34-2.239l-4.64,1.52
		c0.134,0.694,0.394,1.407,0.78,2.14c0.386,0.734,0.939,1.4,1.66,2c0.719,0.601,1.625,1.101,2.719,1.5
		c1.094,0.4,2.414,0.601,3.961,0.601c2.613,0,4.641-0.586,6.08-1.76s2.16-2.746,2.16-4.721v-0.239c0-1.786-0.641-3.181-1.92-4.181
		c-1.281-1-2.935-1.605-4.961-1.819c-1.76-0.187-2.974-0.421-3.64-0.7c-0.667-0.28-1-0.74-1-1.38
		C507.382,437.937,507.595,437.557,508.021,437.249 M480.021,442.31c0-1.681,0.365-3.021,1.1-4.021s1.848-1.5,3.341-1.5
		c1.28,0,2.259,0.407,2.94,1.221c0.68,0.813,1.02,1.927,1.02,3.34v11.279h5.04v-12.56c0-1.36-0.181-2.533-0.54-3.521
		c-0.359-0.985-0.859-1.8-1.5-2.439s-1.38-1.113-2.221-1.42c-0.84-0.306-1.739-0.46-2.699-0.46c-1.359,0-2.547,0.307-3.561,0.92
		c-1.014,0.614-1.746,1.479-2.199,2.6h-0.721v-2.96h-5.039v19.84h5.039V442.31z M455.982,448.029c-0.641-0.24-1.201-0.586-1.68-1.04
		c-0.48-0.453-0.861-1.006-1.141-1.66c-0.28-0.652-0.42-1.393-0.42-2.22v-0.8c0-0.826,0.14-1.566,0.42-2.221
		c0.279-0.652,0.66-1.205,1.141-1.659c0.479-0.453,1.039-0.801,1.68-1.04c0.639-0.24,1.32-0.36,2.039-0.36
		c0.721,0,1.4,0.12,2.041,0.36c0.639,0.239,1.199,0.587,1.68,1.04c0.479,0.454,0.859,1.007,1.14,1.659
		c0.28,0.654,0.421,1.395,0.421,2.221v0.8c0,0.827-0.141,1.567-0.421,2.22c-0.28,0.654-0.661,1.207-1.14,1.66
		c-0.48,0.454-1.041,0.8-1.68,1.04c-0.641,0.24-1.32,0.36-2.041,0.36C457.303,448.39,456.621,448.27,455.982,448.029
		 M468.342,442.47c0-1.626-0.279-3.073-0.84-4.341c-0.561-1.266-1.32-2.34-2.281-3.22c-0.959-0.88-2.059-1.546-3.299-2
		c-1.24-0.453-2.54-0.68-3.9-0.68c-1.359,0-2.66,0.227-3.9,0.68c-1.239,0.454-2.34,1.12-3.299,2c-0.961,0.88-1.721,1.954-2.28,3.22
		c-0.56,1.268-0.841,2.715-0.841,4.341v0.479c0,1.654,0.281,3.114,0.841,4.38c0.56,1.268,1.319,2.334,2.28,3.2
		c0.959,0.867,2.06,1.527,3.299,1.98c1.24,0.452,2.541,0.68,3.9,0.68c1.36,0,2.66-0.228,3.9-0.68c1.24-0.453,2.34-1.113,3.299-1.98
		c0.961-0.866,1.721-1.933,2.281-3.2c0.561-1.266,0.84-2.726,0.84-4.38V442.47z M435.882,425.409c-0.2-0.466-0.474-0.866-0.819-1.2
		c-0.348-0.333-0.754-0.6-1.221-0.8s-0.955-0.3-1.46-0.3c-0.534,0-1.026,0.1-1.479,0.3c-0.455,0.2-0.854,0.467-1.201,0.8
		c-0.346,0.334-0.619,0.734-0.819,1.2c-0.2,0.467-0.3,0.967-0.3,1.5c0,0.534,0.1,1.034,0.3,1.5c0.2,0.467,0.474,0.867,0.819,1.2
		c0.347,0.334,0.746,0.6,1.201,0.8c0.453,0.2,0.945,0.3,1.479,0.3c0.505,0,0.993-0.1,1.46-0.3s0.873-0.466,1.221-0.8
		c0.346-0.333,0.619-0.733,0.819-1.2c0.2-0.466,0.3-0.966,0.3-1.5C436.182,426.376,436.082,425.876,435.882,425.409
		 M423.182,452.629h17.52v-4.8h-5.76v-15.04h-11.279v4.8h6.24v10.24h-6.721V452.629z M396.182,437.589h5.881v11.921
		c0,0.906,0.285,1.653,0.859,2.239c0.573,0.587,1.312,0.88,2.221,0.88h8.399v-4.8h-5.36c-0.72,0-1.08-0.399-1.08-1.2v-9.04h7.16
		v-4.8h-7.16v-8.16h-5.039v8.16h-5.881V437.589z M375.502,446.93c-0.881-0.974-1.32-2.301-1.32-3.98v-0.479
		c0-1.681,0.439-3.007,1.32-3.98c0.88-0.973,2.053-1.46,3.52-1.46s2.641,0.487,3.521,1.46c0.88,0.974,1.319,2.3,1.319,3.98v0.479
		c0,1.68-0.439,3.007-1.319,3.98s-2.054,1.46-3.521,1.46S376.382,447.903,375.502,446.93 M384.221,449.749
		c0,0.854,0.287,1.547,0.861,2.08c0.572,0.534,1.312,0.8,2.221,0.8h3.439v-4.8h-0.76c-0.721,0-1.08-0.399-1.08-1.2v-13.84h-5.041
		v2.4h-0.719c-0.508-1.013-1.195-1.76-2.061-2.24c-0.867-0.479-2.008-0.72-3.42-0.72c-1.174,0-2.275,0.233-3.301,0.7
		c-1.027,0.467-1.926,1.14-2.699,2.02c-0.775,0.88-1.387,1.947-1.84,3.2c-0.454,1.254-0.68,2.667-0.68,4.24v0.64
		c0,1.6,0.232,3.027,0.699,4.28c0.467,1.254,1.1,2.319,1.9,3.2c0.8,0.88,1.727,1.547,2.779,2c1.053,0.452,2.18,0.68,3.381,0.68
		c1.279,0,2.4-0.26,3.359-0.78c0.959-0.52,1.707-1.406,2.24-2.66H384.221z M357.643,425.409c-0.201-0.466-0.475-0.866-0.82-1.2
		c-0.348-0.333-0.754-0.6-1.221-0.8s-0.953-0.3-1.459-0.3c-0.535,0-1.027,0.1-1.48,0.3c-0.454,0.2-0.854,0.467-1.2,0.8
		c-0.347,0.334-0.62,0.734-0.819,1.2c-0.201,0.467-0.301,0.967-0.301,1.5c0,0.534,0.1,1.034,0.301,1.5
		c0.199,0.467,0.473,0.867,0.819,1.2c0.347,0.334,0.746,0.6,1.2,0.8c0.453,0.2,0.945,0.3,1.48,0.3c0.506,0,0.992-0.1,1.459-0.3
		s0.873-0.466,1.221-0.8c0.346-0.333,0.619-0.733,0.82-1.2c0.199-0.466,0.299-0.966,0.299-1.5
		C357.941,426.376,357.842,425.876,357.643,425.409 M344.941,452.629h17.521v-4.8h-5.761v-15.04h-11.279v4.8h6.24v10.24h-6.721
		V452.629z M317.542,437.589h3.601v10.24h-4.08v4.8h13.68v-4.8h-4.561v-6.399c0-1.44,0.32-2.546,0.961-3.32
		c0.639-0.773,1.52-1.16,2.639-1.16c1.121,0,1.961,0.327,2.521,0.98c0.559,0.653,0.84,1.526,0.84,2.619v0.561l5.199-0.48v-0.88
		c0-2.533-0.6-4.42-1.8-5.66c-1.2-1.239-2.788-1.859-4.761-1.859c-1.254,0-2.326,0.3-3.219,0.899c-0.895,0.601-1.527,1.447-1.9,2.54
		h-0.721v-2.88h-8.399V437.589z M297.262,446.93c-0.88-0.974-1.32-2.301-1.32-3.98v-0.479c0-1.681,0.44-3.007,1.32-3.98
		c0.881-0.973,2.053-1.46,3.52-1.46s2.641,0.487,3.521,1.46c0.879,0.974,1.318,2.3,1.318,3.98v0.479c0,1.68-0.439,3.007-1.318,3.98
		c-0.881,0.974-2.055,1.46-3.521,1.46S298.143,447.903,297.262,446.93 M305.982,449.749c0,0.854,0.285,1.547,0.859,2.08
		c0.573,0.534,1.312,0.8,2.221,0.8h3.439v-4.8h-0.76c-0.721,0-1.08-0.399-1.08-1.2v-13.84h-5.041v2.4h-0.719
		c-0.508-1.013-1.194-1.76-2.061-2.24c-0.867-0.479-2.008-0.72-3.42-0.72c-1.174,0-2.273,0.233-3.301,0.7
		c-1.026,0.467-1.926,1.14-2.699,2.02s-1.387,1.947-1.84,3.2c-0.454,1.254-0.68,2.667-0.68,4.24v0.64c0,1.6,0.232,3.027,0.699,4.28
		c0.467,1.254,1.1,2.319,1.9,3.2c0.801,0.88,1.727,1.547,2.779,2c1.053,0.452,2.181,0.68,3.381,0.68c1.279,0,2.4-0.26,3.359-0.78
		c0.961-0.52,1.707-1.406,2.24-2.66H305.982z M270.621,452.629h9.6l5.682-19.84h-5.44l-4.681,17.44h-0.719l-4.681-17.44h-5.44
		L270.621,452.629z M219.242,446.93c-0.975-0.974-1.461-2.301-1.461-3.98v-0.479c0-1.681,0.486-3.007,1.461-3.98
		c0.973-0.973,2.246-1.46,3.82-1.46c1.572,0,2.846,0.5,3.819,1.5s1.46,2.314,1.46,3.94v0.479c0,1.627-0.486,2.94-1.46,3.94
		s-2.247,1.5-3.819,1.5C221.488,448.39,220.215,447.903,219.242,446.93 M228.342,454.629c0,0.801-0.359,1.2-1.08,1.2h-10.32v4.8
		h13.361c0.905,0,1.645-0.294,2.219-0.88c0.573-0.587,0.86-1.334,0.86-2.239v-24.721h-5.04v2.88h-0.721
		c-0.533-1.093-1.266-1.939-2.199-2.54c-0.934-0.6-2.201-0.899-3.801-0.899c-1.199,0-2.34,0.227-3.42,0.68
		c-1.08,0.454-2.025,1.114-2.84,1.98c-0.813,0.866-1.453,1.927-1.92,3.18c-0.467,1.254-0.699,2.68-0.699,4.28v0.72
		c0,1.627,0.22,3.067,0.66,4.32c0.439,1.254,1.053,2.313,1.84,3.18c0.785,0.867,1.705,1.52,2.76,1.96
		c1.053,0.44,2.193,0.66,3.42,0.66c0.96,0,1.779-0.094,2.46-0.28s1.267-0.439,1.761-0.76c0.492-0.32,0.893-0.687,1.199-1.101
		c0.307-0.412,0.566-0.846,0.779-1.3h0.721V454.629z M193.143,442.31c0-1.681,0.365-3.021,1.1-4.021c0.732-1,1.846-1.5,3.34-1.5
		c1.279,0,2.26,0.407,2.939,1.221s1.021,1.927,1.021,3.34v11.279h5.04v-12.56c0-1.36-0.18-2.533-0.54-3.521
		c-0.36-0.985-0.86-1.8-1.5-2.439s-1.38-1.113-2.22-1.42c-0.84-0.306-1.74-0.46-2.701-0.46c-1.359,0-2.547,0.307-3.559,0.92
		c-1.015,0.614-1.748,1.479-2.201,2.6h-0.719v-2.96h-5.041v19.84h5.041V442.31z M175.082,425.409c-0.2-0.466-0.475-0.866-0.82-1.2
		c-0.347-0.333-0.754-0.6-1.22-0.8c-0.468-0.2-0.954-0.3-1.46-0.3c-0.534,0-1.027,0.1-1.48,0.3s-0.854,0.467-1.199,0.8
		c-0.348,0.334-0.621,0.734-0.82,1.2c-0.2,0.467-0.301,0.967-0.301,1.5c0,0.534,0.101,1.034,0.301,1.5
		c0.199,0.467,0.473,0.867,0.82,1.2c0.346,0.334,0.746,0.6,1.199,0.8s0.946,0.3,1.48,0.3c0.506,0,0.992-0.1,1.46-0.3
		c0.466-0.2,0.873-0.466,1.22-0.8c0.346-0.333,0.62-0.733,0.82-1.2c0.199-0.466,0.3-0.966,0.3-1.5
		C175.382,426.376,175.281,425.876,175.082,425.409 M162.382,452.629h17.521v-4.8h-5.76v-15.04h-11.281v4.8h6.24v10.24h-6.72
		V452.629z M135.382,437.589h5.88v11.921c0,0.906,0.286,1.653,0.86,2.239c0.573,0.587,1.313,0.88,2.22,0.88h8.4v-4.8h-5.36
		c-0.72,0-1.079-0.399-1.079-1.2v-9.04h7.159v-4.8h-7.159v-8.16h-5.041v8.16h-5.88V437.589z M122.922,425.409
		c-0.199-0.466-0.475-0.866-0.82-1.2c-0.348-0.333-0.754-0.6-1.22-0.8c-0.467-0.2-0.954-0.3-1.46-0.3c-0.535,0-1.027,0.1-1.48,0.3
		s-0.854,0.467-1.199,0.8c-0.348,0.334-0.62,0.734-0.82,1.2c-0.199,0.467-0.3,0.967-0.3,1.5c0,0.534,0.101,1.034,0.3,1.5
		c0.2,0.467,0.473,0.867,0.82,1.2c0.346,0.334,0.746,0.6,1.199,0.8s0.945,0.3,1.48,0.3c0.506,0,0.993-0.1,1.46-0.3
		c0.466-0.2,0.872-0.466,1.22-0.8c0.346-0.333,0.621-0.733,0.82-1.2c0.2-0.466,0.301-0.966,0.301-1.5
		C123.223,426.376,123.122,425.876,122.922,425.409 M110.223,452.629h17.52v-4.8h-5.76v-15.04h-11.281v4.8h6.24v10.24h-6.719
		V452.629z M82.822,437.589h3.6v10.24h-4.08v4.8h13.68v-4.8h-4.56v-6.399c0-1.44,0.319-2.546,0.96-3.32
		c0.641-0.773,1.52-1.16,2.641-1.16c1.119,0,1.959,0.327,2.52,0.98s0.84,1.526,0.84,2.619v0.561l5.2-0.48v-0.88
		c0-2.533-0.601-4.42-1.8-5.66c-1.2-1.239-2.787-1.859-4.76-1.859c-1.254,0-2.328,0.3-3.221,0.899
		c-0.895,0.601-1.527,1.447-1.9,2.54h-0.719v-2.88h-8.4V437.589z M78.742,424.629h-4.801l-0.639,21.28v3.601h-0.961v-3.601
		l-1.279-21.28h-8.48l-1.279,21.28v3.601h-0.961v-3.601l-0.641-21.28h-4.799l0.959,28h9.201l1.279-21.279v-3.84h0.961v3.84
		l1.279,21.279h9.199L78.742,424.629z"/>
	<path clip-path="url(#SVGID_4_)" fill="#231F20" d="M226.023,351.594c1.23,2.921,3.168,5.454,5.805,7.599
		c2.641,2.148,5.998,3.854,10.08,5.119c4.08,1.267,9.006,1.9,14.775,1.9c5.701,0,10.608-0.634,14.725-1.9
		c4.115-1.266,7.475-2.971,10.078-5.119c2.604-2.145,4.521-4.678,5.754-7.599c1.229-2.919,1.846-6.068,1.846-9.446
		c0-3.306-0.617-6.42-1.846-9.34c-1.232-2.919-3.15-5.452-5.754-7.6c-2.604-2.146-5.963-3.853-10.078-5.118
		c-4.116-1.268-9.023-1.9-14.725-1.9c-5.77,0-10.695,0.633-14.775,1.9c-4.082,1.266-7.439,2.973-10.08,5.118
		c-2.637,2.147-4.574,4.681-5.805,7.6c-1.231,2.92-1.846,6.034-1.846,9.34C224.178,345.525,224.792,348.675,226.023,351.594
		 M117.729,345.42c-2.359-1.196-4.416-3.377-6.176-6.544c-1.759-3.166-3.148-7.476-4.168-12.93
		c-1.021-5.452-1.529-12.436-1.529-20.949c0-2.322,0.033-4.592,0.104-6.809c0.069-2.216,0.175-4.344,0.317-6.385
		c2.391-2.603,5.029-4.555,7.916-5.858c2.883-1.301,6.121-1.952,9.709-1.952c3.234,0,6.191,0.564,8.865,1.688
		c2.674,1.127,4.961,2.903,6.861,5.33c1.898,2.428,3.377,5.578,4.432,9.446c1.057,3.87,1.584,8.586,1.584,14.143
		c0,10.696-1.865,18.805-5.594,24.328c-3.73,5.524-8.691,8.285-14.882,8.285C122.564,347.214,120.085,346.616,117.729,345.42
		 M49.125,316.976c1.23,5.383,3.148,10.521,5.752,15.409c2.602,4.892,5.945,9.43,10.027,13.615
		c4.08,4.188,9.006,7.811,14.775,10.871c5.768,3.061,12.401,5.472,19.895,7.229c7.494,1.758,15.953,2.639,25.384,2.639
		c12.101,0,23.009-1.442,32.718-4.328c9.711-2.884,17.996-6.823,24.855-11.819c6.86-4.996,12.138-10.854,15.832-17.573
		c3.694-6.719,5.541-13.949,5.541-21.69c0-6.543-1.355-12.718-4.063-18.521c-2.709-5.805-6.649-10.871-11.821-15.199
		c-5.171-4.327-11.557-7.739-19.156-10.236c-7.599-2.497-16.289-3.747-26.068-3.747c-6.615,0-12.596,0.598-17.943,1.794
		s-10.308,2.921-14.881,5.172c1.83-6.544,4.273-12.402,7.335-17.573c3.062-5.172,6.755-9.816,11.081-13.932
		c4.328-4.116,9.289-7.759,14.883-10.924c5.594-3.166,11.838-6.017,18.734-8.549l-9.605-14.248
		c-10.695,1.196-20.703,3.307-30.026,6.332c-9.324,3.026-17.89,6.807-25.7,11.346s-14.775,9.71-20.896,15.515
		c-6.123,5.805-11.293,12.032-15.516,18.681c-4.223,6.65-7.441,13.652-9.656,21.004c-2.217,7.354-3.326,14.828-3.326,22.429
		C47.277,306.157,47.893,311.593,49.125,316.976"/>
</g>
<path fill="#FF1419" d="M380.562,282.908v16.331l110.102-3.424l-47.412,71.644l0.264,0.264l154.879-76.386v-0.527l-154.879-75.858
	l-0.526,0.264l47.675,71.645L380.562,282.908z M507.258,291.337h69.537l-106.412,52.416L507.258,291.337z"/>
<polygon fill="#231F20" points="779.338,328.576 869.029,328.766 910.545,192.8 952.439,328.576 1042.131,328.766 1126.872,45.597 
	1077.17,45.788 1030.324,227.647 985.764,45.788 865.222,45.788 888.264,120.437 857.224,227.647 808.855,45.788 688.312,45.788 "/>
</svg>
