<?xml version="1.0" encoding="utf-8"?>
<!-- Generator: Adobe Illustrator 16.0.0, SVG Export Plug-In . SVG Version: 6.00 Build 0)  -->
<!DOCTYPE svg PUBLIC "-//W3C//DTD SVG 1.1//EN" "http://www.w3.org/Graphics/SVG/1.1/DTD/svg11.dtd">
<svg version="1.1" id="Layer_1" xmlns="http://www.w3.org/2000/svg" xmlns:xlink="http://www.w3.org/1999/xlink" x="0px" y="0px"
	 width="1170.09px" height="492.17px" viewBox="0 0 1170.09 492.17" enable-background="new 0 0 1170.09 492.17"
	 xml:space="preserve">
<polygon fill="#231F20" points="136.355,444.646 274.633,444.646 362.729,54.347 286.898,54.347 210.512,407.847 200.477,407.847 
	124.088,54.347 48.26,54.347 "/>
<line fill="none" stroke="#231F20" stroke-width="2" x1="426.044" y1="177.17" x2="1144.633" y2="177.17"/>
<line fill="none" stroke="#231F20" stroke-width="2" x1="665.056" y1="331.17" x2="1144.633" y2="331.17"/>
<line fill="none" stroke="#231F20" stroke-width="2" x1="405.043" y1="25.999" x2="405.043" y2="467.17"/>
<line fill="none" stroke="#231F20" stroke-width="2" x1="637.055" y1="198.17" x2="637.055" y2="467.17"/>
<g>
	<defs>
		<rect id="SVGID_61_" width="1170.088" height="492.17"/>
	</defs>
	<clipPath id="SVGID_2_">
		<use xlink:href="#SVGID_61_"  overflow="visible"/>
	</clipPath>
	<path clip-path="url(#SVGID_2_)" fill="#FF1419" d="M1045.511,125.352h73.339V99.278h-3.319l-12.256,22.217h-15.526V59.971h8.495
		v-3.808h-50.732v3.808h8.545v61.524h-8.545V125.352z M956.265,100.791l9.033-23.046l9.424,23.046H956.265z M935.61,125.352h22.314
		v-3.856c-1.302,0-2.498-0.032-3.589-0.098c-1.092-0.065-2.035-0.188-2.832-0.367c-0.799-0.179-1.416-0.406-1.855-0.684
		c-0.439-0.275-0.659-0.642-0.659-1.099c0-0.162,0.017-0.292,0.048-0.39l5.715-14.209h21.482l6.739,16.846h-9.425v3.856h55.371
		v-3.856h-8.495l-29.443-65.332h-21.436l-25.147,62.841c-0.39,0.944-1.293,1.596-2.709,1.953c-1.416,0.358-3.443,0.538-6.079,0.538
		V125.352z M844.362,95.372c0,2.832,0.251,5.583,0.757,8.251c0.505,2.67,1.311,5.185,2.416,7.544
		c1.107,2.361,2.557,4.525,4.346,6.494c1.791,1.97,3.986,3.662,6.593,5.078c2.604,1.416,5.631,2.515,9.082,3.297
		c3.45,0.781,7.389,1.171,11.815,1.171c6.381,0,11.713-0.644,15.992-1.929c4.28-1.285,7.715-3.295,10.303-6.03
		c2.588-2.734,4.427-6.226,5.518-10.474c1.09-4.248,1.635-9.334,1.635-15.259V62.852c0-0.944,0.716-1.659,2.149-2.147
		c1.431-0.489,3.548-0.733,6.347-0.733v-3.808h-21.239v3.808c2.832,0,4.973,0.244,6.42,0.733c1.449,0.488,2.173,1.203,2.173,2.147
		v32.031c0,3.679-0.228,6.86-0.683,9.546c-0.457,2.686-1.083,4.98-1.88,6.885c-0.798,1.904-1.726,3.459-2.783,4.663
		c-1.059,1.205-2.182,2.148-3.369,2.832c-1.188,0.685-2.418,1.147-3.688,1.392s-2.506,0.367-3.71,0.367
		c-3.158,0-5.688-0.619-7.593-1.856c-1.904-1.236-3.369-2.905-4.395-5.005s-1.702-4.532-2.025-7.299
		c-0.326-2.768-0.49-5.681-0.49-8.741V59.971h8.496v-3.808h-50.731v3.808h8.545V95.372z M752.089,125.352h50.732v-3.856h-8.545
		V59.971h7.08l11.913,24.121h3.419V56.163h-78.467v27.929h3.369l11.962-24.121h7.033v61.524h-8.497V125.352z M670.947,59.971
		c1.758,0,3.287,0.204,4.59,0.61c1.303,0.408,2.386,1.14,3.248,2.197c0.862,1.059,1.506,2.508,1.929,4.346
		c0.423,1.84,0.635,4.208,0.635,7.105s-0.212,5.281-0.635,7.152c-0.423,1.873-1.066,3.345-1.929,4.419s-1.945,1.824-3.248,2.246
		c-1.303,0.424-2.832,0.635-4.59,0.635V59.971z M628.712,125.352h50.732v-3.856h-8.497V92.539c1.596,0,2.971,0.229,4.127,0.684
		c1.155,0.456,2.092,1.294,2.807,2.515c0.717,1.221,1.246,2.89,1.588,5.006c0.342,2.115,0.513,4.834,0.513,8.154
		c0,3.026,0.31,5.696,0.928,8.008c0.618,2.311,1.685,4.248,3.198,5.81c1.512,1.563,3.54,2.742,6.078,3.54
		c2.54,0.798,5.73,1.197,9.571,1.197c4.004,0,7.308-0.303,9.911-0.904c2.604-0.602,4.68-1.587,6.227-2.954
		c1.546-1.367,2.619-3.157,3.223-5.371c0.602-2.213,0.902-4.932,0.902-8.153v-1.563h-4.102c0,3.938-0.243,6.951-0.732,9.034
		c-0.487,2.083-1.268,3.125-2.343,3.125c-0.651,0-1.115-0.262-1.392-0.782s-0.416-1.285-0.416-2.295v-1.733
		c0-0.504,0.033-1.228,0.098-2.173c0.033-0.911,0.058-1.7,0.074-2.368c0.016-0.666,0.023-1.473,0.023-2.416
		c0-3.418-0.602-6.242-1.806-8.473c-1.204-2.229-3.117-4.004-5.737-5.322c-2.621-1.318-5.998-2.246-10.132-2.783
		s-9.131-0.821-14.99-0.854c6.543-0.032,12.003-0.447,16.382-1.245c4.377-0.797,7.877-1.929,10.498-3.393
		c2.62-1.465,4.476-3.256,5.566-5.371c1.09-2.116,1.636-4.525,1.636-7.227c0-3.093-0.628-5.779-1.88-8.058
		c-1.254-2.278-3.076-4.158-5.469-5.64c-2.393-1.48-5.339-2.58-8.838-3.295c-3.499-0.717-7.479-1.074-11.938-1.074h-55.811v3.808
		h8.545v61.524h-8.545V125.352z M556.312,125.352h50.732v-3.856h-8.496V59.971h8.496v-3.808h-50.732v3.808h8.545v61.524h-8.545
		V125.352z M487.182,125.352h20.947l23.097-62.354c0.423-1.106,1.31-1.888,2.661-2.343c1.351-0.457,3.458-0.685,6.322-0.685v-3.808
		h-22.754v3.808c1.303,0,2.498,0.041,3.59,0.122c1.09,0.082,2.033,0.212,2.832,0.391c0.798,0.18,1.416,0.407,1.855,0.684
		c0.439,0.277,0.659,0.628,0.659,1.05c0,0.228-0.049,0.489-0.146,0.781l-14.795,39.649l-16.504-42.677h8.592v-3.808h-52.147v3.808
		h7.177L487.182,125.352z"/>
	<path clip-path="url(#SVGID_2_)" fill="#231F20" d="M1114.555,290.13c2.629,0,4.635-0.516,6.018-1.547
		c1.381-1.031,2.074-2.374,2.074-4.029c0-1.473-0.55-2.635-1.649-3.485c-1.1-0.85-2.896-1.489-5.389-1.921
		c-1.157-0.226-1.967-0.459-2.431-0.696c-0.465-0.238-0.697-0.527-0.697-0.867c0-0.362,0.226-0.668,0.68-0.918
		c0.453-0.249,1.088-0.374,1.904-0.374c1.042,0,1.938,0.182,2.686,0.544c0.748,0.363,1.395,0.94,1.938,1.733l2.992-2.924
		c-0.771-1.064-1.774-1.864-3.009-2.396c-1.236-0.532-2.828-0.799-4.777-0.799c-1.768,0-3.27,0.267-4.505,0.799
		c-1.237,0.532-2.159,1.229-2.771,2.091c-0.612,0.862-0.919,1.78-0.919,2.754c0,1.428,0.539,2.573,1.615,3.434
		c1.077,0.862,2.885,1.542,5.424,2.04c1.133,0.228,1.932,0.459,2.396,0.697s0.697,0.516,0.697,0.833c0,0.363-0.227,0.652-0.68,0.867
		c-0.454,0.216-1.077,0.323-1.87,0.323c-2.38,0-4.058-0.805-5.032-2.414l-2.991,3.264
		C1107.891,289.133,1110.655,290.13,1114.555,290.13 M1094.154,286.39c-0.521,0-0.93-0.124-1.224-0.374
		c-0.296-0.249-0.442-0.612-0.442-1.088s0.153-0.844,0.459-1.105c0.307-0.26,0.821-0.48,1.547-0.662l2.754-0.646v1.462
		c0,0.727-0.317,1.31-0.951,1.751C1095.661,286.169,1094.947,286.39,1094.154,286.39 M1104.185,286.492
		c-0.817,0-1.225-0.442-1.225-1.326v-6.188c0-2.176-0.691-3.808-2.073-4.896c-1.383-1.088-3.4-1.632-6.053-1.632
		c-2.268,0-4.068,0.459-5.405,1.377c-1.339,0.918-2.154,2.204-2.448,3.858l4.691,1.36c0.158-0.929,0.51-1.599,1.055-2.006
		c0.543-0.408,1.246-0.612,2.107-0.612c0.748,0,1.338,0.227,1.768,0.68c0.43,0.454,0.646,1.066,0.646,1.836v0.612l-3.842,0.748
		c-2.357,0.476-4.052,1.162-5.083,2.057c-1.032,0.896-1.547,2.069-1.547,3.52c0,1.383,0.453,2.437,1.36,3.162
		c0.906,0.726,2.21,1.088,3.91,1.088c3.014,0,5.031-0.872,6.051-2.618c0.477,1.746,1.938,2.618,4.387,2.618
		c0.883,0,1.654-0.183,2.312-0.544l0.441-3.23C1104.967,286.446,1104.614,286.492,1104.185,286.492 M1080.555,264.697l-2.278,5.883
		h4.216l3.435-5.883H1080.555z M1083.648,272.79h-5.781v17h5.781V272.79z M1068.01,272.45c-1.247,0-2.375,0.295-3.383,0.884
		c-1.01,0.59-1.785,1.439-2.33,2.55c-0.407-1.11-1.082-1.96-2.022-2.55c-0.94-0.589-2.058-0.884-3.349-0.884
		c-1.315,0-2.461,0.306-3.435,0.918c-0.975,0.611-1.733,1.508-2.278,2.686l-0.17-3.264h-5.168v17h5.78v-8.977
		c0-1.313,0.283-2.3,0.851-2.958c0.565-0.656,1.279-0.985,2.142-0.985c1.541,0,2.312,0.975,2.312,2.924v9.996h5.78v-9.078
		c0-1.246,0.272-2.198,0.816-2.856c0.544-0.656,1.269-0.985,2.175-0.985c1.542,0,2.312,0.975,2.312,2.924v9.996h5.78v-11.322
		c0-1.926-0.54-3.411-1.614-4.454C1071.131,272.972,1069.73,272.45,1068.01,272.45 M1033.566,276.563
		c1.089,0,1.893,0.374,2.415,1.122c0.521,0.748,0.782,1.95,0.782,3.604s-0.262,2.855-0.782,3.604
		c-0.522,0.748-1.326,1.122-2.415,1.122c-1.087,0-1.893-0.374-2.414-1.122s-0.781-1.949-0.781-3.604s0.26-2.856,0.781-3.604
		S1032.479,276.563,1033.566,276.563 M1033.566,272.45c-2.833,0-5.037,0.776-6.613,2.328c-1.574,1.554-2.361,3.724-2.361,6.512
		s0.787,4.959,2.361,6.511c1.576,1.553,3.78,2.329,6.613,2.329c2.834,0,5.038-0.776,6.614-2.329
		c1.575-1.552,2.362-3.723,2.362-6.511s-0.787-4.958-2.362-6.512C1038.604,273.227,1036.4,272.45,1033.566,272.45 M1015.479,272.45
		c-1.338,0-2.505,0.301-3.502,0.9c-0.998,0.602-1.769,1.502-2.312,2.703l-0.17-3.264h-5.168v17h5.78v-8.977
		c0-1.337,0.283-2.329,0.85-2.975c0.566-0.646,1.304-0.969,2.211-0.969c0.77,0,1.363,0.243,1.783,0.73
		c0.42,0.488,0.63,1.31,0.63,2.465v9.725h5.78v-11.322c0-1.926-0.533-3.411-1.598-4.454
		C1018.697,272.972,1017.27,272.45,1015.479,272.45 M992.02,276.563c1.088,0,1.893,0.374,2.414,1.122s0.782,1.95,0.782,3.604
		s-0.261,2.855-0.782,3.604s-1.326,1.122-2.414,1.122s-1.893-0.374-2.414-1.122s-0.782-1.949-0.782-3.604s0.261-2.856,0.782-3.604
		S990.932,276.563,992.02,276.563 M992.02,272.45c-2.834,0-5.037,0.776-6.613,2.328c-1.575,1.554-2.363,3.724-2.363,6.512
		s0.788,4.959,2.363,6.511c1.576,1.553,3.779,2.329,6.613,2.329s5.038-0.776,6.613-2.329c1.576-1.552,2.362-3.723,2.362-6.511
		s-0.786-4.958-2.362-6.512C997.058,273.227,994.854,272.45,992.02,272.45 M982.465,289.79l-6.052-8.568l5.916-8.432h-6.392
		l-3.196,5.678l-3.128-5.678h-6.562l5.882,8.397l-6.12,8.603h6.392l3.4-5.916l3.332,5.916H982.465z M951.356,286.39
		c-0.522,0-0.93-0.124-1.224-0.374c-0.295-0.249-0.442-0.612-0.442-1.088s0.153-0.844,0.459-1.105
		c0.306-0.26,0.821-0.48,1.547-0.662l2.754-0.646v1.462c0,0.727-0.317,1.31-0.952,1.751
		C952.863,286.169,952.149,286.39,951.356,286.39 M961.387,286.492c-0.816,0-1.225-0.442-1.225-1.326v-6.188
		c0-2.176-0.691-3.808-2.074-4.896s-3.399-1.632-6.053-1.632c-2.266,0-4.067,0.459-5.404,1.377
		c-1.338,0.918-2.154,2.204-2.449,3.858l4.693,1.36c0.156-0.929,0.509-1.599,1.054-2.006c0.544-0.408,1.246-0.612,2.106-0.612
		c0.748,0,1.338,0.227,1.77,0.68c0.43,0.454,0.646,1.066,0.646,1.836v0.612l-3.843,0.748c-2.357,0.476-4.051,1.162-5.082,2.057
		c-1.032,0.896-1.547,2.069-1.547,3.52c0,1.383,0.453,2.437,1.359,3.162s2.211,1.088,3.91,1.088c3.015,0,5.032-0.872,6.053-2.618
		c0.476,1.746,1.936,2.618,4.385,2.618c0.885,0,1.655-0.183,2.312-0.544l0.442-3.23
		C962.168,286.446,961.816,286.492,961.387,286.492 M941.666,285.268c-0.703,0.499-1.519,0.748-2.447,0.748
		c-1.496,0-2.244-0.759-2.244-2.278v-6.834h5.1v-4.113h-5.1v-5.406l-5.78,1.598v3.809h-2.925v4.113h2.925v7.786
		c0.022,1.904,0.566,3.287,1.632,4.148c1.065,0.862,2.606,1.292,4.624,1.292c0.884,0,1.763-0.119,2.636-0.357
		c0.871-0.237,1.592-0.549,2.158-0.935L941.666,285.268z M909.366,290.13c2.629,0,4.636-0.516,6.019-1.547
		c1.381-1.031,2.074-2.374,2.074-4.029c0-1.473-0.551-2.635-1.649-3.485c-1.101-0.85-2.896-1.489-5.39-1.921
		c-1.155-0.226-1.967-0.459-2.431-0.696c-0.465-0.238-0.696-0.527-0.696-0.867c0-0.362,0.225-0.668,0.68-0.918
		c0.453-0.249,1.088-0.374,1.904-0.374c1.041,0,1.938,0.182,2.686,0.544c0.748,0.363,1.394,0.94,1.938,1.733l2.992-2.924
		c-0.771-1.064-1.773-1.864-3.01-2.396c-1.235-0.532-2.827-0.799-4.776-0.799c-1.768,0-3.271,0.267-4.505,0.799
		c-1.236,0.532-2.158,1.229-2.771,2.091c-0.612,0.862-0.918,1.78-0.918,2.754c0,1.428,0.538,2.573,1.614,3.434
		c1.076,0.862,2.885,1.542,5.424,2.04c1.133,0.228,1.932,0.459,2.396,0.697c0.464,0.238,0.697,0.516,0.697,0.833
		c0,0.363-0.227,0.652-0.68,0.867c-0.454,0.216-1.077,0.323-1.87,0.323c-2.38,0-4.06-0.805-5.032-2.414l-2.992,3.264
		C902.701,289.133,905.468,290.13,909.366,290.13 M892.4,272.79v9.01c0,1.314-0.283,2.295-0.85,2.94
		c-0.568,0.646-1.326,0.97-2.278,0.97c-0.793,0-1.383-0.227-1.769-0.681c-0.385-0.452-0.577-1.234-0.577-2.346v-9.894h-5.78v11.355
		c0,2.063,0.516,3.576,1.547,4.539c1.031,0.964,2.454,1.445,4.267,1.445c2.856,0,4.817-1.167,5.883-3.502l0.17,3.162h5.168v-17
		H892.4z M870.165,290.13c2.629,0,4.636-0.516,6.019-1.547c1.382-1.031,2.074-2.374,2.074-4.029c0-1.473-0.551-2.635-1.649-3.485
		c-1.1-0.85-2.896-1.489-5.39-1.921c-1.155-0.226-1.967-0.459-2.431-0.696c-0.465-0.238-0.696-0.527-0.696-0.867
		c0-0.362,0.226-0.668,0.68-0.918c0.453-0.249,1.088-0.374,1.904-0.374c1.041,0,1.938,0.182,2.686,0.544
		c0.748,0.363,1.395,0.94,1.938,1.733l2.991-2.924c-0.771-1.064-1.773-1.864-3.009-2.396s-2.828-0.799-4.776-0.799
		c-1.77,0-3.271,0.267-4.506,0.799c-1.235,0.532-2.158,1.229-2.771,2.091c-0.612,0.862-0.918,1.78-0.918,2.754
		c0,1.428,0.538,2.573,1.615,3.434c1.075,0.862,2.884,1.542,5.423,2.04c1.133,0.228,1.932,0.459,2.396,0.697
		c0.464,0.238,0.697,0.516,0.697,0.833c0,0.363-0.227,0.652-0.68,0.867c-0.454,0.216-1.078,0.323-1.87,0.323
		c-2.38,0-4.058-0.805-5.032-2.414l-2.992,3.264C863.502,289.133,866.266,290.13,870.165,290.13 M852.077,272.79h-5.779
		l-2.618,9.554l-0.918,3.74l-0.816-3.604l-2.618-9.689h-6.358l5.066,12.75l1.973,4.624l-0.408,1.054
		c-0.25,0.612-0.578,1.037-0.986,1.275c-0.408,0.237-0.964,0.356-1.666,0.356c-0.703,0-1.274-0.062-1.717-0.187
		c-0.442-0.125-0.846-0.357-1.207-0.697l-1.224,3.876c1.155,0.838,2.696,1.258,4.624,1.258c1.449,0,2.686-0.232,3.705-0.697
		c1.021-0.465,1.904-1.229,2.652-2.295s1.439-2.505,2.074-4.317L852.077,272.79z M814.303,290.13c2.63,0,4.636-0.516,6.019-1.547
		c1.382-1.031,2.074-2.374,2.074-4.029c0-1.473-0.55-2.635-1.649-3.485c-1.1-0.85-2.896-1.489-5.389-1.921
		c-1.156-0.226-1.967-0.459-2.431-0.696c-0.466-0.238-0.697-0.527-0.697-0.867c0-0.362,0.226-0.668,0.68-0.918
		c0.453-0.249,1.088-0.374,1.904-0.374c1.042,0,1.938,0.182,2.686,0.544c0.748,0.363,1.395,0.94,1.938,1.733l2.992-2.924
		c-0.771-1.064-1.774-1.864-3.01-2.396s-2.827-0.799-4.776-0.799c-1.769,0-3.271,0.267-4.505,0.799
		c-1.236,0.532-2.159,1.229-2.771,2.091c-0.611,0.862-0.918,1.78-0.918,2.754c0,1.428,0.537,2.573,1.615,3.434
		c1.076,0.862,2.883,1.542,5.422,2.04c1.133,0.228,1.932,0.459,2.398,0.697c0.464,0.238,0.696,0.516,0.696,0.833
		c0,0.363-0.227,0.652-0.68,0.867c-0.454,0.216-1.077,0.323-1.87,0.323c-2.381,0-4.058-0.805-5.032-2.414l-2.991,3.264
		C807.64,289.133,810.404,290.13,814.303,290.13 M795.502,276.496c1.812,0,2.855,1.11,3.127,3.332h-6.393
		C792.577,277.606,793.665,276.496,795.502,276.496 M804.035,281.052c0-2.72-0.729-4.833-2.192-6.341
		c-1.462-1.507-3.564-2.261-6.308-2.261c-2.834,0-5.02,0.771-6.562,2.312c-1.541,1.542-2.312,3.718-2.312,6.528
		s0.787,4.986,2.362,6.527c1.576,1.542,3.848,2.312,6.817,2.312c1.994,0,3.678-0.379,5.049-1.14
		c1.372-0.759,2.295-1.863,2.771-3.314l-4.692-1.496c-0.181,0.612-0.537,1.077-1.07,1.395c-0.532,0.317-1.218,0.476-2.057,0.476
		c-0.997,0-1.797-0.249-2.397-0.748c-0.6-0.498-0.991-1.28-1.173-2.346h11.594C803.979,282.458,804.035,281.822,804.035,281.052
		 M782.072,265.582h-5.779v19.176c0,1.882,0.406,3.247,1.224,4.097c0.815,0.851,2.13,1.275,3.943,1.275
		c0.635,0,1.28-0.08,1.938-0.238c0.657-0.158,1.189-0.362,1.598-0.612l0.373-3.569c-0.61,0.204-1.188,0.306-1.732,0.306
		c-0.59,0-0.998-0.158-1.225-0.476s-0.34-0.861-0.34-1.632V265.582z M762.998,286.39c-0.521,0-0.93-0.124-1.224-0.374
		c-0.295-0.249-0.442-0.612-0.442-1.088s0.153-0.844,0.459-1.105c0.307-0.26,0.821-0.48,1.547-0.662l2.755-0.646v1.462
		c0,0.727-0.318,1.31-0.952,1.751C764.506,286.169,763.791,286.39,762.998,286.39 M773.028,286.492
		c-0.815,0-1.224-0.442-1.224-1.326v-6.188c0-2.176-0.692-3.808-2.074-4.896c-1.383-1.088-3.4-1.632-6.052-1.632
		c-2.268,0-4.069,0.459-5.406,1.377c-1.339,0.918-2.154,2.204-2.448,3.858l4.692,1.36c0.158-0.929,0.51-1.599,1.054-2.006
		c0.544-0.408,1.246-0.612,2.108-0.612c0.748,0,1.337,0.227,1.768,0.68c0.431,0.454,0.646,1.066,0.646,1.836v0.612l-3.843,0.748
		c-2.357,0.476-4.052,1.162-5.082,2.057c-1.033,0.896-1.549,2.069-1.549,3.52c0,1.383,0.454,2.437,1.361,3.162
		c0.906,0.726,2.21,1.088,3.91,1.088c3.014,0,5.032-0.872,6.052-2.618c0.476,1.746,1.938,2.618,4.386,2.618
		c0.885,0,1.654-0.183,2.312-0.544l0.441-3.23C773.811,286.446,773.459,286.492,773.028,286.492 M746.679,272.79v9.01
		c0,1.314-0.284,2.295-0.851,2.94c-0.566,0.646-1.326,0.97-2.277,0.97c-0.794,0-1.383-0.227-1.769-0.681
		c-0.386-0.452-0.578-1.234-0.578-2.346v-9.894h-5.779v11.355c0,2.063,0.515,3.576,1.547,4.539c1.03,0.964,2.453,1.445,4.267,1.445
		c2.856,0,4.816-1.167,5.881-3.502l0.171,3.162h5.169v-17H746.679z M732.5,285.268c-0.703,0.499-1.519,0.748-2.447,0.748
		c-1.496,0-2.244-0.759-2.244-2.278v-6.834h5.1v-4.113h-5.1v-5.406l-5.78,1.598v3.809h-2.924v4.113h2.924v7.786
		c0.022,1.904,0.566,3.287,1.632,4.148c1.065,0.862,2.605,1.292,4.623,1.292c0.885,0,1.764-0.119,2.635-0.357
		c0.873-0.237,1.594-0.549,2.16-0.935L732.5,285.268z M717.03,272.45c-1.292,0-2.375,0.346-3.247,1.036
		c-0.873,0.692-1.514,1.684-1.921,2.976l-0.238-3.672h-5.1v17h5.78v-8.568c0-1.292,0.361-2.283,1.088-2.975
		c0.725-0.691,1.632-1.037,2.72-1.037c0.431,0,0.838,0.051,1.224,0.152c0.386,0.103,0.691,0.222,0.918,0.357l0.612-4.896
		C718.412,272.575,717.801,272.45,717.03,272.45 M702.411,272.79h-5.779v17h5.779V272.79z M699.521,270.817
		c1.178,0,2.034-0.221,2.566-0.663c0.531-0.441,0.8-1.139,0.8-2.091c0-0.974-0.269-1.683-0.8-2.125
		c-0.532-0.441-1.389-0.663-2.566-0.663c-1.179,0-2.035,0.222-2.567,0.663c-0.532,0.442-0.799,1.151-0.799,2.125
		c0,0.952,0.267,1.649,0.799,2.091C697.486,270.597,698.343,270.817,699.521,270.817 M688.607,272.79l-3.57,13.328l-3.502-13.328
		h-6.086l6.119,17h6.903l6.12-17H688.607z"/>
	<path clip-path="url(#SVGID_2_)" fill="#231F20" d="M1034.688,246.13c2.629,0,4.635-0.516,6.018-1.547s2.074-2.374,2.074-4.029
		c0-1.473-0.55-2.635-1.648-3.485c-1.101-0.85-2.896-1.489-5.39-1.921c-1.155-0.226-1.967-0.459-2.431-0.696
		c-0.465-0.238-0.697-0.527-0.697-0.867c0-0.362,0.227-0.668,0.68-0.918c0.453-0.249,1.088-0.374,1.904-0.374
		c1.042,0,1.938,0.182,2.687,0.544c0.747,0.363,1.394,0.94,1.938,1.733l2.992-2.924c-0.771-1.064-1.774-1.863-3.009-2.396
		c-1.236-0.532-2.828-0.799-4.777-0.799c-1.768,0-3.27,0.267-4.505,0.799c-1.237,0.533-2.159,1.229-2.771,2.091
		c-0.612,0.862-0.918,1.78-0.918,2.754c0,1.428,0.537,2.573,1.613,3.434c1.077,0.862,2.885,1.542,5.424,2.04
		c1.133,0.228,1.932,0.459,2.397,0.697c0.465,0.238,0.696,0.516,0.696,0.833c0,0.363-0.227,0.652-0.68,0.867
		c-0.453,0.216-1.076,0.323-1.87,0.323c-2.38,0-4.057-0.805-5.031-2.414l-2.992,3.264
		C1028.023,245.133,1030.788,246.13,1034.688,246.13 M1015.887,232.496c1.812,0,2.855,1.11,3.127,3.332h-6.392
		C1012.963,233.606,1014.051,232.496,1015.887,232.496 M1024.42,237.052c0-2.72-0.73-4.833-2.192-6.341
		c-1.462-1.507-3.565-2.261-6.308-2.261c-2.834,0-5.021,0.771-6.562,2.312c-1.542,1.542-2.312,3.718-2.312,6.528
		s0.787,4.986,2.362,6.527c1.575,1.542,3.848,2.312,6.817,2.312c1.994,0,3.676-0.379,5.049-1.139
		c1.371-0.76,2.295-1.864,2.771-3.315l-4.692-1.496c-0.183,0.612-0.54,1.077-1.071,1.395c-0.533,0.317-1.219,0.476-2.057,0.476
		c-0.998,0-1.797-0.249-2.397-0.748c-0.601-0.498-0.991-1.28-1.173-2.346h11.594C1024.363,238.458,1024.42,237.822,1024.42,237.052
		 M997.934,228.45c-1.337,0-2.504,0.301-3.501,0.9c-0.999,0.602-1.769,1.502-2.313,2.703l-0.169-3.264h-5.168v17h5.78v-8.977
		c0-1.337,0.283-2.329,0.85-2.975c0.566-0.646,1.304-0.969,2.21-0.969c0.771,0,1.364,0.243,1.785,0.73
		c0.419,0.488,0.628,1.31,0.628,2.465v9.725h5.781v-11.322c0-1.926-0.533-3.411-1.598-4.454
		C1001.152,228.972,999.725,228.45,997.934,228.45 M974.475,232.563c1.088,0,1.893,0.374,2.414,1.122
		c0.521,0.748,0.781,1.95,0.781,3.604s-0.261,2.855-0.781,3.604c-0.521,0.748-1.326,1.122-2.414,1.122s-1.894-0.374-2.414-1.122
		c-0.521-0.748-0.782-1.949-0.782-3.604s0.261-2.856,0.782-3.604C972.581,232.938,973.387,232.563,974.475,232.563 M974.475,228.45
		c-2.834,0-5.039,0.776-6.613,2.328c-1.576,1.554-2.363,3.724-2.363,6.512s0.787,4.959,2.363,6.511
		c1.574,1.553,3.779,2.329,6.613,2.329c2.833,0,5.037-0.776,6.613-2.329c1.574-1.552,2.362-3.723,2.362-6.511
		s-0.788-4.958-2.362-6.512C979.512,229.227,977.308,228.45,974.475,228.45 M962.201,228.79h-5.779v17h5.779V228.79z
		 M959.312,226.817c1.178,0,2.034-0.221,2.567-0.662c0.531-0.442,0.799-1.14,0.799-2.092c0-0.974-0.268-1.683-0.799-2.125
		c-0.533-0.441-1.39-0.662-2.567-0.662c-1.179,0-2.035,0.221-2.567,0.662c-0.533,0.442-0.799,1.151-0.799,2.125
		c0,0.952,0.266,1.649,0.799,2.092C957.276,226.597,958.133,226.817,959.312,226.817 M945.133,228.45
		c-2.811,0-5.004,0.776-6.578,2.328c-1.576,1.554-2.363,3.724-2.363,6.512c0,2.811,0.793,4.986,2.38,6.527
		c1.586,1.542,3.854,2.312,6.8,2.312c2.289,0,4.131-0.481,5.525-1.445c1.394-0.963,2.215-2.215,2.465-3.757l-5.202-1.666
		c-0.271,1.836-1.213,2.754-2.821,2.754c-2.244,0-3.366-1.552-3.366-4.658c0-3.195,1.122-4.794,3.366-4.794
		c1.518,0,2.391,0.976,2.617,2.924l5.372-1.768c-0.317-1.564-1.122-2.833-2.414-3.809
		C949.621,228.938,947.694,228.45,945.133,228.45 M932.894,228.79h-5.78v17h5.78V228.79z M930.002,226.817
		c1.18,0,2.035-0.221,2.568-0.662c0.533-0.442,0.799-1.14,0.799-2.092c0-0.974-0.266-1.683-0.799-2.125
		c-0.533-0.441-1.389-0.662-2.568-0.662c-1.178,0-2.033,0.221-2.566,0.662c-0.533,0.442-0.798,1.151-0.798,2.125
		c0,0.952,0.265,1.649,0.798,2.092C927.969,226.597,928.824,226.817,930.002,226.817 M914.059,241.88
		c-1.021,0-1.809-0.374-2.363-1.122c-0.556-0.748-0.833-1.904-0.833-3.468c0-1.564,0.277-2.721,0.833-3.469
		c0.555-0.747,1.343-1.121,2.363-1.121c0.928,0,1.671,0.34,2.227,1.02s0.867,1.644,0.936,2.89v1.36
		c-0.068,1.27-0.38,2.239-0.936,2.907C915.729,241.546,914.986,241.88,914.059,241.88 M917.221,221.581v10.064
		c-0.499-0.997-1.18-1.779-2.04-2.346c-0.862-0.566-1.894-0.85-3.095-0.85c-2.198,0-3.922,0.781-5.168,2.346
		c-1.246,1.563-1.869,3.752-1.869,6.562c0,2.767,0.616,4.919,1.853,6.46c1.235,1.542,2.952,2.312,5.151,2.312
		c1.269,0,2.385-0.318,3.349-0.952c0.963-0.634,1.694-1.507,2.193-2.618l0.204,3.23H923v-24.209H917.221z M893.998,232.496
		c1.813,0,2.856,1.11,3.129,3.332h-6.393C891.074,233.606,892.162,232.496,893.998,232.496 M902.531,237.052
		c0-2.72-0.73-4.833-2.191-6.341c-1.463-1.507-3.565-2.261-6.309-2.261c-2.833,0-5.02,0.771-6.561,2.312
		c-1.542,1.542-2.312,3.718-2.312,6.528s0.787,4.986,2.363,6.527c1.575,1.542,3.846,2.312,6.816,2.312
		c1.994,0,3.678-0.379,5.05-1.139c1.371-0.76,2.294-1.864,2.771-3.315l-4.691-1.496c-0.184,0.612-0.539,1.077-1.071,1.395
		c-0.533,0.317-1.219,0.476-2.058,0.476c-0.997,0-1.797-0.249-2.396-0.748c-0.601-0.498-0.992-1.28-1.173-2.346h11.594
		C902.476,238.458,902.531,237.822,902.531,237.052 M864.486,232.496c1.814,0,2.857,1.11,3.129,3.332h-6.392
		C861.563,233.606,862.65,232.496,864.486,232.496 M873.021,237.052c0-2.72-0.731-4.833-2.193-6.341
		c-1.462-1.507-3.564-2.261-6.307-2.261c-2.834,0-5.021,0.771-6.562,2.312c-1.541,1.542-2.312,3.718-2.312,6.528
		s0.786,4.986,2.363,6.527c1.575,1.542,3.847,2.312,6.816,2.312c1.994,0,3.677-0.379,5.05-1.139c1.37-0.76,2.295-1.864,2.771-3.315
		l-4.692-1.496c-0.182,0.612-0.539,1.077-1.07,1.395c-0.533,0.317-1.22,0.476-2.058,0.476c-0.998,0-1.797-0.249-2.396-0.748
		c-0.602-0.498-0.992-1.28-1.173-2.346h11.594C872.965,238.458,873.021,237.822,873.021,237.052 M843.407,241.88
		c-1.02,0-1.808-0.374-2.363-1.122s-0.833-1.904-0.833-3.468c0-1.564,0.277-2.721,0.833-3.469c0.556-0.747,1.344-1.121,2.363-1.121
		c0.929,0,1.671,0.34,2.228,1.02c0.555,0.68,0.867,1.644,0.934,2.89v1.36c-0.066,1.27-0.379,2.239-0.934,2.907
		C845.078,241.546,844.336,241.88,843.407,241.88 M846.568,221.581v10.064c-0.498-0.997-1.178-1.779-2.039-2.346
		s-1.893-0.85-3.094-0.85c-2.199,0-3.922,0.781-5.168,2.346c-1.248,1.563-1.87,3.752-1.87,6.562c0,2.767,0.616,4.919,1.853,6.46
		c1.235,1.542,2.951,2.312,5.151,2.312c1.269,0,2.384-0.318,3.349-0.952c0.963-0.634,1.694-1.507,2.193-2.618l0.204,3.23h5.202
		v-24.209H846.568z M815.459,228.45c-1.337,0-2.505,0.301-3.502,0.9c-0.997,0.602-1.768,1.502-2.312,2.703l-0.17-3.264h-5.168v17
		h5.78v-8.977c0-1.337,0.283-2.329,0.85-2.975c0.566-0.646,1.303-0.969,2.21-0.969c0.771,0,1.366,0.243,1.785,0.73
		c0.419,0.488,0.629,1.31,0.629,2.465v9.725h5.78v-11.322c0-1.926-0.533-3.411-1.599-4.454
		C818.679,228.972,817.25,228.45,815.459,228.45 M791.66,220.698l-2.277,5.881h4.215l3.434-5.881H791.66z M792,232.563
		c1.088,0,1.893,0.374,2.414,1.122s0.782,1.95,0.782,3.604s-0.261,2.855-0.782,3.604s-1.326,1.122-2.414,1.122
		s-1.893-0.374-2.414-1.122s-0.781-1.949-0.781-3.604s0.26-2.856,0.781-3.604S790.912,232.563,792,232.563 M792,228.45
		c-2.834,0-5.037,0.776-6.612,2.328c-1.576,1.554-2.363,3.724-2.363,6.512s0.787,4.959,2.363,6.511
		c1.575,1.553,3.778,2.329,6.612,2.329s5.037-0.776,6.613-2.329c1.575-1.552,2.363-3.723,2.363-6.511s-0.788-4.958-2.363-6.512
		C797.037,229.227,794.834,228.45,792,228.45 M779.727,228.79h-5.78v17h5.78V228.79z M776.836,226.817
		c1.178,0,2.033-0.221,2.566-0.662c0.533-0.442,0.799-1.14,0.799-2.092c0-0.974-0.266-1.683-0.799-2.125
		c-0.533-0.441-1.389-0.662-2.566-0.662c-1.179,0-2.035,0.221-2.566,0.662c-0.533,0.442-0.799,1.151-0.799,2.125
		c0,0.952,0.266,1.649,0.799,2.092C774.801,226.597,775.657,226.817,776.836,226.817 M762.658,228.45
		c-2.811,0-5.004,0.776-6.579,2.328c-1.577,1.554-2.362,3.724-2.362,6.512c0,2.811,0.793,4.986,2.38,6.527
		c1.587,1.542,3.853,2.312,6.8,2.312c2.289,0,4.131-0.481,5.525-1.445c1.393-0.963,2.216-2.215,2.465-3.757l-5.202-1.666
		c-0.272,1.836-1.213,2.754-2.822,2.754c-2.244,0-3.366-1.552-3.366-4.658c0-3.195,1.122-4.794,3.366-4.794
		c1.519,0,2.39,0.976,2.618,2.924l5.371-1.768c-0.316-1.564-1.121-2.833-2.413-3.809C767.146,228.938,765.219,228.45,762.658,228.45
		 M741.307,242.39c-0.521,0-0.93-0.124-1.225-0.374c-0.295-0.249-0.441-0.612-0.441-1.088s0.152-0.844,0.459-1.105
		c0.306-0.26,0.822-0.48,1.547-0.662l2.754-0.646v1.462c0,0.727-0.316,1.31-0.953,1.751
		C742.813,242.169,742.101,242.39,741.307,242.39 M751.336,242.492c-0.816,0-1.224-0.442-1.224-1.326v-6.188
		c0-2.176-0.69-3.808-2.074-4.896c-1.383-1.088-3.399-1.631-6.052-1.631c-2.266,0-4.068,0.459-5.406,1.377
		c-1.337,0.918-2.152,2.204-2.447,3.858l4.691,1.36c0.158-0.929,0.51-1.599,1.054-2.006c0.544-0.408,1.247-0.612,2.108-0.612
		c0.748,0,1.338,0.227,1.768,0.68c0.432,0.454,0.646,1.066,0.646,1.836v0.612l-3.842,0.748c-2.357,0.476-4.052,1.162-5.083,2.057
		c-1.031,0.896-1.547,2.069-1.547,3.52c0,1.383,0.452,2.437,1.359,3.162s2.21,1.088,3.91,1.088c3.015,0,5.032-0.872,6.052-2.618
		c0.477,1.746,1.938,2.618,4.387,2.618c0.883,0,1.654-0.183,2.311-0.544l0.443-3.23
		C752.118,242.446,751.768,242.492,751.336,242.492 M723.15,232.496c1.814,0,2.857,1.11,3.129,3.332h-6.392
		C720.228,233.606,721.314,232.496,723.15,232.496 M731.686,237.052c0-2.72-0.731-4.833-2.193-6.341
		c-1.462-1.507-3.564-2.261-6.307-2.261c-2.834,0-5.021,0.771-6.562,2.312c-1.542,1.542-2.312,3.718-2.312,6.528
		s0.786,4.986,2.363,6.527c1.574,1.542,3.847,2.312,6.816,2.312c1.994,0,3.677-0.379,5.049-1.139
		c1.371-0.76,2.296-1.864,2.771-3.315l-4.692-1.496c-0.182,0.612-0.539,1.077-1.07,1.395c-0.533,0.317-1.22,0.476-2.058,0.476
		c-0.998,0-1.797-0.249-2.396-0.748c-0.602-0.498-0.993-1.28-1.173-2.346h11.594C731.628,238.458,731.686,237.822,731.686,237.052
		 M711.217,228.45c-1.291,0-2.374,0.346-3.246,1.037c-0.873,0.691-1.514,1.683-1.922,2.975l-0.237-3.672h-5.101v17h5.78v-8.568
		c0-1.292,0.362-2.283,1.088-2.975s1.632-1.037,2.721-1.037c0.43,0,0.838,0.051,1.224,0.152c0.385,0.103,0.691,0.222,0.918,0.357
		l0.611-4.896C712.6,228.575,711.987,228.45,711.217,228.45 M697.855,239.363l-5.304-1.495c-0.272,1.27-0.771,2.198-1.496,2.787
		c-0.727,0.591-1.712,0.885-2.958,0.885c-1.655,0-2.919-0.596-3.791-1.785c-0.873-1.19-1.31-2.918-1.31-5.186
		c0-2.266,0.453-3.994,1.36-5.185c0.906-1.19,2.187-1.785,3.842-1.785c1.201,0,2.13,0.272,2.788,0.815
		c0.657,0.545,1.144,1.496,1.462,2.856l5.135-2.073c-0.545-2.062-1.666-3.609-3.367-4.642c-1.699-1.03-3.773-1.547-6.222-1.547
		c-2.243,0-4.194,0.459-5.848,1.377c-1.655,0.918-2.924,2.25-3.808,3.995c-0.885,1.746-1.326,3.808-1.326,6.188
		c0,2.403,0.441,4.472,1.326,6.205c0.884,1.734,2.152,3.061,3.808,3.979c1.653,0.918,3.615,1.377,5.882,1.377
		c2.47,0,4.567-0.562,6.289-1.684C696.041,243.325,697.221,241.631,697.855,239.363"/>
	<path clip-path="url(#SVGID_2_)" fill="#231F20" d="M564.922,407.67h32.896v34.777h-32.896V407.67z M514.793,333.416
		c0-9.713-3.445-16.919-10.651-16.919c-3.761,0-6.894,2.819-9.399,6.267c-2.508,3.759-3.76,8.146-3.76,10.652h-28.512v-121.25
		h81.773v33.523h-52.636v47.937c3.761-2.82,7.833-5.326,12.533-6.894c2.192-0.939,4.698-1.253,6.892-0.939
		c17.547,0,26.945,10.025,31.959,20.992c5.012,10.966,5.639,22.871,5.639,26.631v51.383c0,10.965-0.627,25.691-6.579,37.91
		c-5.954,12.532-17.233,22.245-37.597,22.245c-20.992,0-31.645-9.713-37.598-23.498c-5.953-13.474-6.58-30.705-6.58-46.058h33.838
		v9.086c0,11.594,0.627,19.739,2.193,24.125c1.566,4.7,4.072,6.894,8.146,6.894c3.445,0,6.266-2.193,7.832-6.58
		c1.566-4.386,2.506-12.532,2.506-24.124V333.416z"/>
	<polygon clip-path="url(#SVGID_2_)" fill="none" stroke="#231F20" stroke-width="1.998" points="0.999,3 0.999,489.17 
		0.999,491.172 3,491.172 1167.086,491.172 1169.088,491.172 1169.088,489.17 1169.088,3 1169.088,0.998 1167.086,0.998 3,0.998 
		0.999,0.998 	"/>
</g>
<rect x="5.002" y="5.002" fill="none" stroke="#231F20" stroke-width="1.998" width="1160.084" height="482.166"/>
<g>
	<defs>
		<rect id="SVGID_63_" width="1170.088" height="492.17"/>
	</defs>
	<clipPath id="SVGID_4_">
		<use xlink:href="#SVGID_63_"  overflow="visible"/>
	</clipPath>
	<path clip-path="url(#SVGID_4_)" fill="#FF1419" d="M1066.729,355.165l-13.406,10.299c10.898,16.349,22.397,28.937,34.495,37.765
		c-9.482-1.308-19.347-1.962-29.59-1.962H686.077v17.493h372.151c11.006,0,20.869-0.598,29.59-1.799
		c-12.098,8.829-23.597,21.417-34.495,37.765l13.406,10.299c7.627-12.641,15.204-23.157,22.724-31.552
		c7.521-8.391,16.021-16.021,25.503-22.887v-0.981c-9.374-6.757-17.847-14.358-25.421-22.806
		C1081.959,378.354,1074.356,367.809,1066.729,355.165"/>
</g>
</svg>
