<?xml version="1.0" encoding="utf-8"?>
<!-- Generator: Adobe Illustrator 16.0.0, SVG Export Plug-In . SVG Version: 6.00 Build 0)  -->
<!DOCTYPE svg PUBLIC "-//W3C//DTD SVG 1.1//EN" "http://www.w3.org/Graphics/SVG/1.1/DTD/svg11.dtd">
<svg version="1.1" id="Layer_1" xmlns="http://www.w3.org/2000/svg" xmlns:xlink="http://www.w3.org/1999/xlink" x="0px" y="0px"
	 width="1170.09px" height="575.043px" viewBox="0 0 1170.09 575.043" enable-background="new 0 0 1170.09 575.043"
	 xml:space="preserve">
<g>
	<defs>
		<rect id="SVGID_15_" width="1170.088" height="575.043"/>
	</defs>
	<clipPath id="SVGID_2_">
		<use xlink:href="#SVGID_15_"  overflow="visible"/>
	</clipPath>
	<path clip-path="url(#SVGID_2_)" fill="#0046FA" d="M1094.244,58.754h2.006l9.026,39.891h-20.169L1094.244,58.754z
		 M1112.297,129.398h15.376l-18.608-78h-27.633l-18.609,78h15.377l3.789-16.715h26.52L1112.297,129.398z M1029.283,77.92h14.708
		v-4.014c0-3.191-0.611-6.238-1.838-9.137c-1.226-2.896-3.047-5.459-5.46-7.688c-2.416-2.229-5.404-3.992-8.971-5.293
		c-3.566-1.299-7.651-1.949-12.256-1.949c-4.086,0-7.782,0.557-11.087,1.672c-3.308,1.113-6.128,2.674-8.469,4.678
		c-2.34,2.006-4.161,4.365-5.46,7.076c-1.301,2.713-1.949,5.666-1.949,8.859v0.668c0,3.863,0.669,7.131,2.006,9.805
		c1.337,2.676,3.212,4.904,5.627,6.686c2.413,1.783,5.254,3.215,8.523,4.291c3.268,1.078,6.869,1.949,10.809,2.619
		c2.97,0.52,5.422,1.152,7.354,1.895s3.455,1.578,4.569,2.506c1.114,0.93,1.894,1.969,2.34,3.121
		c0.446,1.15,0.668,2.357,0.668,3.621c0,2.674-1.077,4.977-3.231,6.908s-5.461,2.896-9.916,2.896c-5.723,0-9.937-1.393-12.647-4.178
		c-2.712-2.785-4.067-6.52-4.067-11.199V99.09h-14.708v3.342c0,4.088,0.667,7.855,2.007,11.311c1.337,3.453,3.304,6.463,5.904,9.025
		c2.6,2.562,5.851,4.568,9.75,6.018c3.9,1.447,8.413,2.174,13.538,2.174c4.382,0,8.319-0.559,11.812-1.674
		c3.49-1.113,6.463-2.711,8.914-4.791c2.451-2.078,4.326-4.586,5.628-7.52c1.298-2.934,1.948-6.221,1.948-9.863v-1.336
		c0-6.834-2.154-11.996-6.463-15.488c-4.308-3.49-10.548-5.979-18.719-7.467c-3.27-0.592-5.961-1.225-8.078-1.893
		s-3.828-1.43-5.127-2.285c-1.299-0.852-2.21-1.82-2.729-2.896c-0.521-1.076-0.781-2.283-0.781-3.621c0-2.6,1.076-4.66,3.232-6.186
		c2.153-1.52,5.088-2.283,8.803-2.283c4.382,0,7.78,1.152,10.195,3.453c2.413,2.305,3.621,5.016,3.621,8.135V77.92z M910.504,65.439
		h18.719v49.918h-18.719v14.041h52.146v-14.041h-18.719V65.439h18.719V51.398h-52.146V65.439z M870.611,51.398v51.033
		c0,4.607-1.077,8.209-3.23,10.809c-2.156,2.602-5.535,3.9-10.141,3.9s-7.984-1.299-10.139-3.9c-2.155-2.6-3.231-6.201-3.231-10.809
		V51.398h-14.71v51.033c0,8.914,2.359,15.898,7.077,20.949c4.716,5.053,11.717,7.578,21.003,7.578s16.287-2.525,21.004-7.578
		c4.717-5.051,7.076-12.035,7.076-20.949V51.398H870.611z M771.221,116.25c-1.783-0.893-3.232-2.117-4.346-3.678
		c-1.114-1.561-1.895-3.436-2.341-5.627c-0.444-2.189-0.669-4.586-0.669-7.188V81.039c0-2.451,0.26-4.754,0.781-6.908
		c0.518-2.154,1.337-4.049,2.451-5.684c1.113-1.633,2.562-2.914,4.346-3.844c1.783-0.928,3.937-1.393,6.461-1.393
		c2.525,0,4.682,0.465,6.464,1.393c1.783,0.93,3.232,2.211,4.347,3.844c1.113,1.635,1.931,3.529,2.449,5.684
		c0.521,2.154,0.781,4.457,0.781,6.908v18.719c0,2.602-0.223,4.998-0.668,7.188c-0.446,2.191-1.226,4.066-2.34,5.627
		c-1.115,1.561-2.562,2.785-4.346,3.678c-1.783,0.891-4.012,1.336-6.688,1.336C775.231,117.586,773.004,117.141,771.221,116.25
		 M770.887,138.09c0,3.045,1.002,5.588,3.008,7.633c2.006,2.041,4.531,3.062,7.576,3.062h13.148v-13.369h-6.908
		c-1.857,0-2.785-1.043-2.785-3.121v-2.006c6.834-1.262,12.163-4.529,15.989-9.807c3.825-5.271,5.738-12.404,5.738-21.393V81.707
		c0-10.102-2.546-17.939-7.632-23.512c-5.09-5.57-12.128-8.355-21.117-8.355c-8.988,0-16.027,2.785-21.115,8.355
		c-5.088,5.572-7.633,13.41-7.633,23.512V99.09c0,8.988,1.896,16.121,5.685,21.393c3.788,5.277,9.137,8.545,16.046,9.807V138.09z
		 M711.941,77.92h14.707v-4.014c0-3.191-0.611-6.238-1.838-9.137c-1.225-2.896-3.046-5.459-5.459-7.688
		c-2.415-2.229-5.404-3.992-8.971-5.293c-3.565-1.299-7.651-1.949-12.256-1.949c-4.088,0-7.783,0.557-11.088,1.672
		c-3.306,1.113-6.129,2.674-8.468,4.678c-2.34,2.006-4.161,4.365-5.46,7.076c-1.301,2.713-1.95,5.666-1.95,8.859v0.668
		c0,3.863,0.669,7.131,2.005,9.805c1.339,2.676,3.213,4.904,5.629,6.686c2.412,1.783,5.254,3.215,8.523,4.291
		c3.268,1.078,6.87,1.949,10.809,2.619c2.969,0.52,5.422,1.152,7.354,1.895c1.93,0.742,3.455,1.578,4.569,2.506
		c1.112,0.93,1.894,1.969,2.34,3.121c0.446,1.15,0.667,2.357,0.667,3.621c0,2.674-1.076,4.977-3.23,6.908s-5.461,2.896-9.917,2.896
		c-5.721,0-9.937-1.393-12.646-4.178c-2.712-2.785-4.067-6.52-4.067-11.199V99.09h-14.708v3.342c0,4.088,0.668,7.855,2.006,11.311
		c1.337,3.453,3.305,6.463,5.905,9.025c2.598,2.562,5.85,4.568,9.75,6.018c3.9,1.447,8.412,2.174,13.538,2.174
		c4.382,0,8.319-0.559,11.81-1.674c3.492-1.113,6.465-2.711,8.916-4.791c2.451-2.078,4.326-4.586,5.627-7.52
		c1.299-2.934,1.949-6.221,1.949-9.863v-1.336c0-6.834-2.155-11.996-6.463-15.488c-4.308-3.49-10.549-5.979-18.719-7.467
		c-3.271-0.592-5.961-1.225-8.078-1.893s-3.828-1.43-5.126-2.285c-1.3-0.852-2.211-1.82-2.73-2.896s-0.78-2.283-0.78-3.621
		c0-2.6,1.076-4.66,3.232-6.186c2.152-1.52,5.086-2.283,8.803-2.283c4.382,0,7.779,1.152,10.195,3.453
		c2.413,2.305,3.621,5.016,3.621,8.135V77.92z M594.275,129.398h50.588v-14.041h-35.88V97.307h33.204V83.268h-33.204V65.439h34.542
		V51.398h-49.25V129.398z M528.533,65.439h14.374c3.269,0,5.851,0.891,7.745,2.674s2.842,4.086,2.842,6.908v1.338
		c0,2.824-0.947,5.125-2.842,6.908s-4.477,2.674-7.745,2.674h-14.374V65.439z M544.355,99.98c4.012,0,7.503-0.668,10.475-2.006
		c2.971-1.336,5.441-3.1,7.41-5.291c1.967-2.191,3.454-4.68,4.457-7.467c1.004-2.785,1.504-5.627,1.504-8.523V74.02
		c0-2.824-0.5-5.59-1.504-8.303c-1.003-2.709-2.49-5.125-4.457-7.242c-1.969-2.117-4.439-3.824-7.41-5.125
		c-2.972-1.299-6.463-1.951-10.475-1.951h-30.529v78h14.707V99.98H544.355z"/>
	<path clip-path="url(#SVGID_2_)" fill="#231F20" d="M1077.615,365.986c-11.189,0-19.816,2.656-25.884,7.963
		c-6.071,5.311-9.103,12.799-9.103,22.471c0,9.67,3.031,17.164,9.103,22.469c6.067,5.312,14.694,7.965,25.884,7.965
		c11.187,0,19.812-2.652,25.883-7.965c6.068-5.305,9.103-12.799,9.103-22.469c0-9.672-3.034-17.16-9.103-22.471
		C1097.428,368.643,1088.802,365.986,1077.615,365.986 M905.82,345.791l21.901-47.502c3.791-9.102,6.258-15.736,7.394-19.91h0.855
		c-0.76,22-1.139,38.684-1.139,50.061v17.352H905.82z M932.271,424.578h56.887V388.74h25.885v-42.949h-25.885V236.852h-75.09
		l-61.152,124.582v27.307h79.355V424.578z"/>
	<path clip-path="url(#SVGID_2_)" fill="#231F20" d="M199.727,114.693c11.062,0.328,20.948,2.195,29.654,5.613
		c8.701,3.416,16.107,8.096,22.21,14.033c6.101,5.941,10.776,13.059,14.032,21.355c3.254,8.299,4.883,17.572,4.883,27.824
		c0,10.414-1.588,19.811-4.76,28.188c-3.172,8.383-7.771,15.541-13.789,21.479c-6.022,5.941-13.424,10.578-22.211,13.91
		c-8.785,3.338-18.793,5.088-30.02,5.248V114.693z M58.658,424.164h141.068V305.549h46.372c29.937,0,55.769-3.332,77.49-10.006
		c21.722-6.67,39.618-15.619,53.694-26.846c14.071-11.229,24.486-24.201,31.239-38.928c6.75-14.725,10.13-30.143,10.13-46.25
		c0-18.387-3.623-35.104-10.861-50.156c-7.242-15.047-18.428-27.945-33.56-38.684c-15.131-10.738-34.374-18.996-57.72-24.771
		c-23.35-5.775-51.132-8.582-83.348-8.422H58.658V424.164z"/>
	<path clip-path="url(#SVGID_2_)" fill="#231F20" d="M1113.53,517.986c-1.493,1.074-2.239,2.572-2.239,4.496
		c0,1.283,0.346,2.312,1.036,3.09c0.691,0.777,1.628,1.475,2.812,2.09c0.469,0.248,1.117,0.52,1.943,0.814
		c0.826,0.297,1.412,0.561,1.758,0.797c0.346,0.234,0.519,0.561,0.519,0.979c0,0.914-0.679,1.369-2.035,1.369
		c-0.618,0-1.345-0.203-2.185-0.609c-0.837-0.406-1.417-0.729-1.738-0.961c-0.322-0.234-0.58-0.439-0.777-0.611l-2.664,4.477
		l0.814,0.666c0.543,0.42,1.425,0.838,2.646,1.26c1.222,0.418,2.511,0.629,3.867,0.629c5.993,0,8.991-2.16,8.991-6.477
		c0-0.912-0.174-1.727-0.518-2.441c-0.346-0.717-0.832-1.309-1.461-1.777c-0.631-0.467-1.229-0.838-1.795-1.109
		c-0.568-0.271-1.234-0.518-1.998-0.74c-0.125-0.025-0.304-0.074-0.537-0.148c-0.234-0.074-0.401-0.129-0.499-0.166
		c-0.1-0.037-0.247-0.092-0.444-0.166c-0.198-0.074-0.34-0.131-0.426-0.168c-0.087-0.037-0.203-0.092-0.352-0.166
		c-0.147-0.074-0.254-0.141-0.314-0.203c-0.062-0.061-0.129-0.135-0.203-0.223c-0.074-0.086-0.123-0.178-0.148-0.277
		c-0.024-0.098-0.037-0.197-0.037-0.295c0-0.445,0.153-0.746,0.463-0.908c0.309-0.16,0.832-0.238,1.572-0.238
		c1.332,0,2.738,0.393,4.219,1.184l2.146-4.293l-0.778-0.371c-0.519-0.246-1.308-0.492-2.368-0.74
		c-1.061-0.246-2.135-0.369-3.219-0.369C1117.039,516.377,1115.022,516.914,1113.53,517.986 M1097.045,521.965
		c1.234,0,2.275,0.42,3.127,1.258c0.852,0.84,1.275,1.912,1.275,3.219c0,1.283-0.412,2.344-1.238,3.182
		c-0.826,0.84-1.881,1.26-3.164,1.26c-1.332,0-2.404-0.414-3.219-1.24c-0.813-0.826-1.221-1.893-1.221-3.201
		c0-1.307,0.426-2.379,1.277-3.219C1094.732,522.385,1095.787,521.965,1097.045,521.965 M1097.082,536.471
		c3.281,0,5.988-0.945,8.122-2.832s3.2-4.285,3.2-7.197c0-2.91-1.091-5.316-3.273-7.215c-2.184-1.9-4.866-2.85-8.049-2.85
		c-3.231,0-5.944,0.943-8.141,2.83c-2.195,1.889-3.293,4.301-3.293,7.234c0,2.936,1.055,5.342,3.164,7.215
		C1090.922,535.531,1093.678,536.471,1097.082,536.471 M1082.394,535.914h-6.549v-18.98h6.549V535.914z M1075.324,509.088
		c0,1.061,0.383,1.973,1.148,2.738c0.765,0.766,1.676,1.146,2.736,1.146c1.062,0,1.976-0.381,2.74-1.146
		c0.764-0.766,1.147-1.678,1.147-2.738s-0.384-1.975-1.147-2.738c-0.765-0.766-1.678-1.148-2.74-1.148
		c-1.061,0-1.972,0.383-2.736,1.148C1075.707,507.113,1075.324,508.027,1075.324,509.088 M1063.967,535.914v-9.99
		c0-0.197,0.049-0.469,0.147-0.814c0.097-0.344,0.265-0.764,0.499-1.258c0.234-0.492,0.635-0.912,1.203-1.258
		c0.566-0.346,1.244-0.518,2.035-0.518c1.455,0,2.59,0.344,3.404,1.035l2.736-5.551l-0.516-0.295
		c-0.321-0.197-0.828-0.395-1.52-0.592c-0.689-0.197-1.393-0.297-2.107-0.297c-0.691,0-1.369,0.117-2.035,0.352
		s-1.209,0.5-1.628,0.795c-0.421,0.297-0.814,0.629-1.185,1c-0.369,0.369-0.611,0.629-0.723,0.777
		c-0.11,0.146-0.189,0.271-0.239,0.369h-0.073v-2.738h-6.551v18.982H1063.967z M1041.838,521.484
		c0.642-0.568,1.506-0.852,2.592-0.852c0.985,0,1.793,0.266,2.423,0.795c0.629,0.531,1.018,1.289,1.166,2.275h-7.216
		C1040.852,522.791,1041.195,522.051,1041.838,521.484 M1054.419,526.441c0-3.23-0.942-5.717-2.831-7.455
		c-1.887-1.74-4.335-2.609-7.345-2.609c-2.862,0-5.315,0.986-7.362,2.959c-2.049,1.975-3.071,4.344-3.071,7.105
		c0,2.764,1.022,5.125,3.071,7.086c2.047,1.961,4.5,2.943,7.362,2.943c4.589,0,7.868-1.654,9.843-4.959l-4.735-2.369
		c-0.79,0.84-1.493,1.4-2.11,1.684c-0.616,0.285-1.455,0.426-2.516,0.426c-1.012,0-1.949-0.32-2.812-0.963
		c-0.863-0.641-1.295-1.627-1.295-2.959h13.766C1054.407,527.182,1054.419,526.887,1054.419,526.441 M1044.021,514.193l8.807-5.105
		l-3.367-4.256l-7.512,6.514L1044.021,514.193z M1018.935,516.932v4.996h2.737v7.289c0,0.912,0.099,1.77,0.297,2.572
		c0.195,0.803,0.523,1.566,0.98,2.293c0.455,0.729,1.127,1.309,2.016,1.74c0.889,0.43,1.949,0.648,3.184,0.648
		c1.799,0,3.404-0.396,4.809-1.186l-1.627-5.291l-0.223,0.148c-0.147,0.098-0.357,0.197-0.628,0.295
		c-0.272,0.1-0.532,0.148-0.777,0.148c-0.987,0-1.479-0.875-1.479-2.627v-6.031h3.996v-4.996h-3.996v-7.066h-6.551v7.066H1018.935z
		 M1015.938,535.914h-6.549v-18.98h6.549V535.914z M1008.87,509.088c0,1.061,0.382,1.973,1.147,2.738
		c0.764,0.766,1.678,1.146,2.738,1.146s1.973-0.381,2.736-1.146c0.766-0.766,1.148-1.678,1.148-2.738s-0.383-1.975-1.148-2.738
		c-0.764-0.766-1.676-1.148-2.736-1.148s-1.975,0.383-2.738,1.148C1009.252,507.113,1008.87,508.027,1008.87,509.088
		 M997.51,535.914v-9.99c0-0.197,0.049-0.469,0.148-0.814c0.1-0.344,0.266-0.764,0.5-1.258c0.234-0.492,0.635-0.912,1.202-1.258
		s1.246-0.518,2.036-0.518c1.455,0,2.59,0.344,3.404,1.035l2.736-5.551l-0.517-0.295c-0.321-0.197-0.827-0.395-1.518-0.592
		s-1.394-0.297-2.108-0.297c-0.691,0-1.369,0.117-2.035,0.352s-1.209,0.5-1.629,0.795c-0.42,0.297-0.814,0.629-1.184,1
		c-0.37,0.369-0.61,0.629-0.723,0.777c-0.109,0.146-0.19,0.271-0.24,0.369h-0.074v-2.738h-6.549v18.982H997.51z M986.151,522.631
		l2.22-4.479l-0.629-0.443c-0.443-0.297-1.197-0.592-2.257-0.889c-1.06-0.295-2.221-0.443-3.479-0.443
		c-2.787,0-5.235,0.992-7.346,2.979c-2.107,1.986-3.164,4.361-3.164,7.123c0,2.738,1.057,5.088,3.164,7.049
		c2.11,1.961,4.559,2.943,7.346,2.943c1.259,0,2.436-0.162,3.534-0.482c1.098-0.32,1.801-0.574,2.108-0.758
		c0.309-0.186,0.55-0.34,0.723-0.463l-2.22-4.551l-0.333,0.221c-0.247,0.148-0.637,0.297-1.166,0.445
		c-0.531,0.146-1.092,0.221-1.684,0.221c-1.233,0-2.295-0.455-3.183-1.369c-0.888-0.912-1.332-2.021-1.332-3.33
		c0-1.281,0.444-2.379,1.332-3.293c0.888-0.912,1.949-1.369,3.183-1.369C984.276,521.742,985.337,522.039,986.151,522.631
		 M946.762,517.986c-1.492,1.074-2.238,2.572-2.238,4.496c0,1.283,0.345,2.312,1.035,3.09c0.689,0.777,1.629,1.475,2.812,2.09
		c0.47,0.248,1.116,0.52,1.943,0.814c0.826,0.297,1.412,0.561,1.758,0.797c0.345,0.234,0.518,0.561,0.518,0.979
		c0,0.914-0.679,1.369-2.035,1.369c-0.616,0-1.346-0.203-2.184-0.609c-0.84-0.406-1.418-0.729-1.738-0.961
		c-0.322-0.234-0.58-0.439-0.777-0.611l-2.664,4.477l0.814,0.666c0.541,0.42,1.424,0.838,2.646,1.26
		c1.221,0.418,2.509,0.629,3.867,0.629c5.994,0,8.991-2.16,8.991-6.477c0-0.912-0.174-1.727-0.519-2.441
		c-0.347-0.717-0.833-1.309-1.461-1.777c-0.629-0.467-1.228-0.838-1.795-1.109c-0.568-0.271-1.234-0.518-1.998-0.74
		c-0.124-0.025-0.303-0.074-0.537-0.148c-0.235-0.074-0.401-0.129-0.499-0.166c-0.099-0.037-0.247-0.092-0.443-0.166
		c-0.199-0.074-0.341-0.131-0.427-0.168c-0.087-0.037-0.203-0.092-0.351-0.166c-0.148-0.074-0.254-0.141-0.316-0.203
		c-0.061-0.061-0.128-0.135-0.203-0.223c-0.072-0.086-0.123-0.178-0.146-0.277c-0.025-0.098-0.037-0.197-0.037-0.295
		c0-0.445,0.152-0.746,0.462-0.908c0.308-0.16,0.833-0.238,1.573-0.238c1.332,0,2.738,0.393,4.218,1.184l2.146-4.293l-0.778-0.371
		c-0.518-0.246-1.307-0.492-2.367-0.74c-1.061-0.246-2.134-0.369-3.219-0.369C950.271,516.377,948.254,516.914,946.762,517.986
		 M930.277,521.965c1.232,0,2.276,0.42,3.127,1.258c0.852,0.84,1.276,1.912,1.276,3.219c0,1.283-0.413,2.344-1.239,3.182
		c-0.827,0.84-1.883,1.26-3.164,1.26c-1.332,0-2.405-0.414-3.219-1.24c-0.814-0.826-1.222-1.893-1.222-3.201
		c0-1.307,0.425-2.379,1.276-3.219C927.965,522.385,929.02,521.965,930.277,521.965 M930.314,536.471
		c3.281,0,5.988-0.945,8.122-2.832s3.201-4.285,3.201-7.197c0-2.91-1.093-5.316-3.275-7.215c-2.183-1.9-4.866-2.85-8.048-2.85
		c-3.232,0-5.945,0.943-8.141,2.83c-2.195,1.889-3.293,4.301-3.293,7.234c0,2.936,1.055,5.342,3.163,7.215
		C924.153,535.531,926.91,536.471,930.314,536.471 M915.81,504.092h-6.549v31.822h6.549V504.092z M894.791,530.883
		c-1.232,0-2.275-0.42-3.127-1.26c-0.85-0.838-1.275-1.91-1.275-3.219c0-1.281,0.413-2.342,1.239-3.182
		c0.826-0.838,1.882-1.258,3.163-1.258c1.333,0,2.406,0.412,3.221,1.238c0.812,0.828,1.221,1.895,1.221,3.201
		c0,1.309-0.426,2.381-1.277,3.219C897.104,530.463,896.051,530.883,894.791,530.883 M896.753,516.377
		c-2.516,0-4.589,0.9-6.217,2.701h-0.075v-2.146h-6.474v28.604h6.549v-11.434c1.628,1.578,3.701,2.369,6.217,2.369
		c2.738,0,4.995-0.977,6.771-2.926c1.777-1.947,2.664-4.328,2.664-7.141c0-2.811-0.887-5.186-2.664-7.123
		C901.748,517.346,899.491,516.377,896.753,516.377 M879.362,535.914h-6.549v-18.98h6.549V535.914z M872.293,509.088
		c0,1.061,0.385,1.973,1.148,2.738s1.678,1.146,2.739,1.146c1.06,0,1.973-0.381,2.737-1.146c0.764-0.766,1.148-1.678,1.148-2.738
		s-0.385-1.975-1.148-2.738c-0.765-0.766-1.678-1.148-2.737-1.148c-1.062,0-1.976,0.383-2.739,1.148
		C872.678,507.113,872.293,508.027,872.293,509.088 M856.569,516.932v4.996h2.737v7.289c0,0.912,0.098,1.77,0.297,2.572
		c0.197,0.803,0.523,1.566,0.979,2.293c0.458,0.729,1.129,1.309,2.019,1.74c0.888,0.43,1.948,0.648,3.182,0.648
		c1.8,0,3.405-0.396,4.812-1.186l-1.629-5.291l-0.222,0.148c-0.147,0.098-0.357,0.197-0.629,0.295
		c-0.272,0.1-0.532,0.148-0.778,0.148c-0.985,0-1.48-0.875-1.48-2.627v-6.031h3.998v-4.996h-3.998v-7.066h-6.549v7.066H856.569z
		 M853.758,504.092h-6.55v31.822h6.55V504.092z M829.113,516.932v9.029c0,1.875,0.283,3.207,0.852,3.996
		c0.566,0.789,1.527,1.184,2.886,1.184c1.356,0,2.318-0.395,2.887-1.184c0.567-0.789,0.851-2.121,0.851-3.996v-9.029h6.55v10.621
		c0,3.156-0.82,5.434-2.461,6.826c-1.641,1.395-4.249,2.092-7.826,2.092s-6.187-0.697-7.827-2.092
		c-1.64-1.393-2.459-3.67-2.459-6.826v-10.621H829.113z M832.739,514.193l8.808-5.105l-3.367-4.256l-7.513,6.514L832.739,514.193z
		 M793.036,535.914v-11.1c0-0.863,0.253-1.611,0.757-2.24c0.508-0.629,1.266-0.941,2.277-0.941c1.11,0,1.943,0.338,2.498,1.016
		c0.555,0.68,0.832,1.525,0.832,2.535v10.73h6.55v-11.322c0.049-0.814,0.327-1.512,0.832-2.092c0.506-0.578,1.24-0.867,2.202-0.867
		c1.109,0,1.943,0.338,2.498,1.016c0.555,0.68,0.832,1.525,0.832,2.535v10.73h6.549v-12.506c0-2.418-0.727-4.193-2.182-5.33
		c-1.457-1.133-3.195-1.701-5.219-1.701c-2.27,0-4.365,1.16-6.289,3.479c-0.617-1.186-1.531-2.061-2.738-2.627
		c-1.209-0.568-2.504-0.852-3.887-0.852c-1.924,0-3.736,0.852-5.438,2.553h-0.074v-1.998h-6.55v18.982H793.036z M746.487,535.914
		v-11.1c0-0.863,0.253-1.611,0.759-2.24c0.505-0.629,1.264-0.941,2.275-0.941c1.109,0,1.943,0.338,2.498,1.016
		c0.555,0.68,0.833,1.525,0.833,2.535v10.73h6.549v-11.322c0.049-0.814,0.327-1.512,0.833-2.092
		c0.505-0.578,1.239-0.867,2.201-0.867c1.109,0,1.941,0.338,2.498,1.016c0.555,0.68,0.833,1.525,0.833,2.535v10.73h6.55v-12.506
		c0-2.418-0.729-4.193-2.184-5.33c-1.456-1.133-3.195-1.701-5.219-1.701c-2.269,0-4.365,1.16-6.29,3.479
		c-0.616-1.186-1.53-2.061-2.737-2.627c-1.209-0.568-2.504-0.852-3.886-0.852c-1.925,0-3.737,0.852-5.44,2.553h-0.073v-1.998h-6.549
		v18.982H746.487z M725.58,521.965c1.234,0,2.275,0.42,3.127,1.258c0.852,0.84,1.277,1.912,1.277,3.219
		c0,1.283-0.413,2.344-1.24,3.182c-0.826,0.84-1.881,1.26-3.164,1.26c-1.332,0-2.403-0.414-3.218-1.24
		c-0.815-0.826-1.222-1.893-1.222-3.201c0-1.307,0.426-2.379,1.276-3.219C723.269,522.385,724.323,521.965,725.58,521.965
		 M725.618,536.471c3.28,0,5.988-0.945,8.122-2.832c2.133-1.887,3.201-4.285,3.201-7.197c0-2.91-1.092-5.316-3.275-7.215
		c-2.183-1.9-4.865-2.85-8.048-2.85c-3.231,0-5.946,0.943-8.141,2.83c-2.196,1.889-3.293,4.301-3.293,7.234
		c0,2.936,1.054,5.342,3.164,7.215C719.457,535.531,722.215,536.471,725.618,536.471 M710.669,522.631l2.221-4.479l-0.629-0.443
		c-0.444-0.297-1.197-0.592-2.258-0.889c-1.062-0.295-2.221-0.443-3.479-0.443c-2.787,0-5.234,0.992-7.344,2.979
		s-3.163,4.361-3.163,7.123c0,2.738,1.054,5.088,3.163,7.049s4.557,2.943,7.344,2.943c1.259,0,2.437-0.162,3.535-0.482
		c1.098-0.32,1.801-0.574,2.108-0.758c0.308-0.186,0.55-0.34,0.723-0.463l-2.221-4.551l-0.333,0.221
		c-0.246,0.148-0.636,0.297-1.166,0.445c-0.531,0.146-1.092,0.221-1.684,0.221c-1.233,0-2.295-0.455-3.182-1.369
		c-0.889-0.912-1.332-2.021-1.332-3.33c0-1.281,0.443-2.379,1.332-3.293c0.887-0.912,1.948-1.369,3.182-1.369
		C708.793,521.742,709.855,522.039,710.669,522.631 M672.853,521.965c1.232,0,2.275,0.42,3.127,1.258
		c0.851,0.84,1.276,1.912,1.276,3.219c0,1.283-0.414,2.344-1.239,3.182c-0.827,0.84-1.881,1.26-3.164,1.26
		c-1.332,0-2.405-0.414-3.219-1.24c-0.814-0.826-1.222-1.893-1.222-3.201c0-1.307,0.425-2.379,1.275-3.219
		C670.54,522.385,671.594,521.965,672.853,521.965 M672.89,536.471c3.28,0,5.987-0.945,8.122-2.832
		c2.134-1.887,3.199-4.285,3.199-7.197c0-2.91-1.091-5.316-3.273-7.215c-2.184-1.9-4.866-2.85-8.048-2.85
		c-3.233,0-5.945,0.943-8.142,2.83c-2.194,1.889-3.293,4.301-3.293,7.234c0,2.936,1.055,5.342,3.164,7.215
		C666.729,535.531,669.485,536.471,672.89,536.471 M647.579,521.965c1.234,0,2.276,0.42,3.126,1.258
		c0.853,0.84,1.278,1.912,1.278,3.219c0,1.283-0.414,2.344-1.24,3.182c-0.827,0.84-1.881,1.26-3.164,1.26
		c-1.332,0-2.405-0.414-3.219-1.24s-1.222-1.893-1.222-3.201c0-1.307,0.427-2.379,1.277-3.219
		C645.268,522.385,646.32,521.965,647.579,521.965 M645.618,536.471c2.517,0,4.589-0.902,6.217-2.703h0.073v2.146h6.477v-31.822
		h-6.55v14.652c-1.628-1.578-3.7-2.367-6.217-2.367c-2.737,0-4.995,0.975-6.771,2.924c-1.776,1.947-2.664,4.328-2.664,7.141
		s0.888,5.188,2.664,7.123C640.623,535.502,642.881,536.471,645.618,536.471 M625.674,535.914v-9.99
		c0-0.197,0.049-0.469,0.148-0.814c0.1-0.344,0.265-0.764,0.5-1.258c0.234-0.492,0.635-0.912,1.201-1.258
		c0.569-0.346,1.247-0.518,2.037-0.518c1.455,0,2.59,0.344,3.404,1.035l2.737-5.551l-0.518-0.295
		c-0.321-0.197-0.827-0.395-1.518-0.592s-1.394-0.297-2.108-0.297c-0.691,0-1.369,0.117-2.035,0.352s-1.209,0.5-1.629,0.795
		c-0.42,0.297-0.814,0.629-1.186,1c-0.368,0.369-0.608,0.629-0.721,0.777c-0.111,0.146-0.191,0.271-0.24,0.369h-0.074v-2.738h-6.549
		v18.982H625.674z M604.769,521.965c1.232,0,2.275,0.42,3.127,1.258c0.851,0.84,1.276,1.912,1.276,3.219
		c0,1.283-0.414,2.344-1.24,3.182c-0.826,0.84-1.881,1.26-3.163,1.26c-1.332,0-2.405-0.414-3.219-1.24
		c-0.814-0.826-1.222-1.893-1.222-3.201c0-1.307,0.425-2.379,1.275-3.219C602.455,522.385,603.51,521.965,604.769,521.965
		 M604.806,536.471c3.279,0,5.987-0.945,8.122-2.832c2.133-1.887,3.2-4.285,3.2-7.197c0-2.91-1.092-5.316-3.274-7.215
		c-2.184-1.9-4.866-2.85-8.048-2.85c-3.233,0-5.945,0.943-8.142,2.83c-2.195,1.889-3.293,4.301-3.293,7.234
		c0,2.936,1.055,5.342,3.164,7.215C598.645,535.531,601.401,536.471,604.806,536.471 M589.855,522.631l2.221-4.479l-0.629-0.443
		c-0.444-0.297-1.197-0.592-2.257-0.889c-1.062-0.295-2.22-0.443-3.478-0.443c-2.789,0-5.236,0.992-7.348,2.979
		c-2.107,1.986-3.162,4.361-3.162,7.123c0,2.738,1.055,5.088,3.162,7.049c2.111,1.961,4.559,2.943,7.348,2.943
		c1.258,0,2.435-0.162,3.531-0.482c1.1-0.32,1.803-0.574,2.11-0.758c0.309-0.186,0.549-0.34,0.722-0.463l-2.221-4.551l-0.332,0.221
		c-0.247,0.148-0.636,0.297-1.166,0.445c-0.531,0.146-1.091,0.221-1.684,0.221c-1.234,0-2.295-0.455-3.183-1.369
		c-0.888-0.912-1.332-2.021-1.332-3.33c0-1.281,0.444-2.379,1.332-3.293c0.888-0.912,1.948-1.369,3.183-1.369
		C587.981,521.742,589.041,522.039,589.855,522.631 M561.327,521.965c1.233,0,2.275,0.42,3.126,1.258
		c0.852,0.84,1.277,1.912,1.277,3.219c0,1.283-0.413,2.344-1.24,3.182c-0.826,0.84-1.881,1.26-3.163,1.26
		c-1.333,0-2.405-0.414-3.22-1.24s-1.221-1.893-1.221-3.201c0-1.307,0.426-2.379,1.277-3.219
		C559.014,522.385,560.069,521.965,561.327,521.965 M559.365,536.471c2.518,0,4.589-0.902,6.217-2.703h0.074v2.146h6.477v-18.982
		h-6.551v1.812c-1.628-1.578-3.699-2.367-6.217-2.367c-2.738,0-4.995,0.975-6.771,2.924c-1.775,1.947-2.664,4.328-2.664,7.141
		s0.889,5.188,2.664,7.123C554.37,535.502,556.627,536.471,559.365,536.471 M525.545,521.484c0.643-0.568,1.506-0.852,2.592-0.852
		c0.986,0,1.793,0.266,2.422,0.795c0.629,0.531,1.018,1.289,1.166,2.275h-7.215C524.559,522.791,524.904,522.051,525.545,521.484
		 M538.127,526.441c0-3.23-0.943-5.717-2.83-7.455c-1.889-1.74-4.336-2.609-7.346-2.609c-2.861,0-5.316,0.986-7.363,2.959
		c-2.049,1.975-3.071,4.344-3.071,7.105c0,2.764,1.022,5.125,3.071,7.086c2.047,1.961,4.502,2.943,7.363,2.943
		c4.588,0,7.868-1.654,9.842-4.959l-4.735-2.369c-0.79,0.84-1.493,1.4-2.11,1.684c-0.615,0.285-1.455,0.426-2.516,0.426
		c-1.012,0-1.948-0.32-2.812-0.963c-0.863-0.641-1.295-1.627-1.295-2.959h13.766C538.114,527.182,538.127,526.887,538.127,526.441
		 M503.641,521.965c1.232,0,2.275,0.42,3.127,1.258c0.851,0.84,1.275,1.912,1.275,3.219c0,1.283-0.412,2.344-1.238,3.182
		c-0.827,0.84-1.883,1.26-3.164,1.26c-1.332,0-2.405-0.414-3.219-1.24c-0.814-0.826-1.223-1.893-1.223-3.201
		c0-1.307,0.426-2.379,1.277-3.219C501.327,522.385,502.383,521.965,503.641,521.965 M501.68,536.471
		c2.516,0,4.588-0.902,6.216-2.703h0.073v2.146h6.477v-31.822h-6.55v14.652c-1.628-1.578-3.7-2.367-6.216-2.367
		c-2.739,0-4.996,0.975-6.772,2.924c-1.776,1.947-2.664,4.328-2.664,7.141s0.888,5.188,2.664,7.123
		C496.684,535.502,498.94,536.471,501.68,536.471 M467.508,517.986c-1.493,1.074-2.238,2.572-2.238,4.496
		c0,1.283,0.345,2.312,1.035,3.09c0.691,0.777,1.629,1.475,2.812,2.09c0.469,0.248,1.116,0.52,1.942,0.814
		c0.827,0.297,1.411,0.561,1.758,0.797c0.345,0.234,0.519,0.561,0.519,0.979c0,0.914-0.68,1.369-2.035,1.369
		c-0.617,0-1.346-0.203-2.184-0.609c-0.839-0.406-1.419-0.729-1.738-0.961c-0.321-0.234-0.58-0.439-0.777-0.611l-2.665,4.477
		l0.813,0.666c0.543,0.42,1.426,0.838,2.646,1.26c1.221,0.418,2.51,0.629,3.867,0.629c5.994,0,8.992-2.16,8.992-6.477
		c0-0.912-0.174-1.727-0.519-2.441c-0.346-0.717-0.833-1.309-1.462-1.777c-0.629-0.467-1.227-0.838-1.795-1.109
		c-0.566-0.271-1.232-0.518-1.998-0.74c-0.124-0.025-0.303-0.074-0.536-0.148c-0.235-0.074-0.401-0.129-0.5-0.166
		s-0.247-0.092-0.444-0.166s-0.338-0.131-0.425-0.168s-0.204-0.092-0.352-0.166c-0.148-0.074-0.253-0.141-0.313-0.203
		c-0.062-0.061-0.131-0.135-0.205-0.223c-0.074-0.086-0.123-0.178-0.147-0.277c-0.025-0.098-0.037-0.197-0.037-0.295
		c0-0.445,0.153-0.746,0.463-0.908c0.308-0.16,0.832-0.238,1.572-0.238c1.332,0,2.737,0.393,4.218,1.184l2.146-4.293l-0.776-0.371
		c-0.519-0.246-1.308-0.492-2.369-0.74c-1.062-0.246-2.134-0.369-3.219-0.369C471.017,516.377,469,516.914,467.508,517.986
		 M451.023,521.965c1.232,0,2.275,0.42,3.126,1.258c0.851,0.84,1.276,1.912,1.276,3.219c0,1.283-0.412,2.344-1.239,3.182
		c-0.826,0.84-1.882,1.26-3.163,1.26c-1.333,0-2.406-0.414-3.221-1.24c-0.813-0.826-1.221-1.893-1.221-3.201
		c0-1.307,0.426-2.379,1.277-3.219C448.711,522.385,449.765,521.965,451.023,521.965 M451.061,536.471
		c3.279,0,5.988-0.945,8.122-2.832c2.133-1.887,3.2-4.285,3.2-7.197c0-2.91-1.092-5.316-3.274-7.215
		c-2.183-1.9-4.866-2.85-8.048-2.85c-3.232,0-5.946,0.943-8.141,2.83c-2.196,1.889-3.293,4.301-3.293,7.234
		c0,2.936,1.053,5.342,3.162,7.215C444.899,535.531,447.655,536.471,451.061,536.471 M424.752,516.932v4.996h2.737v7.289
		c0,0.912,0.099,1.77,0.296,2.572s0.524,1.566,0.981,2.293c0.456,0.729,1.128,1.309,2.016,1.74c0.89,0.43,1.949,0.648,3.183,0.648
		c1.801,0,3.404-0.396,4.811-1.186l-1.628-5.291l-0.222,0.148c-0.148,0.098-0.358,0.197-0.629,0.295
		c-0.272,0.1-0.531,0.148-0.777,0.148c-0.987,0-1.48-0.875-1.48-2.627v-6.031h3.996v-4.996h-3.996v-7.066h-6.55v7.066H424.752z
		 M408.692,535.914v-10.73c0-0.938,0.401-1.787,1.202-2.553c0.802-0.766,1.695-1.146,2.683-1.146c1.011,0,1.832,0.369,2.462,1.109
		c0.629,0.74,0.942,1.604,0.942,2.59v10.73h6.55v-12.506c0-1.258-0.265-2.363-0.796-3.312c-0.53-0.949-1.221-1.684-2.071-2.201
		c-0.852-0.52-1.74-0.9-2.664-1.148c-0.926-0.246-1.857-0.369-2.795-0.369c-1.924,0-3.736,0.852-5.438,2.553h-0.074v-1.998h-6.55
		v18.982H408.692z M386.564,521.484c0.641-0.568,1.505-0.852,2.59-0.852c0.987,0,1.795,0.266,2.424,0.795
		c0.629,0.531,1.018,1.289,1.166,2.275h-7.216C385.577,522.791,385.924,522.051,386.564,521.484 M399.146,526.441
		c0-3.23-0.943-5.717-2.83-7.455c-1.888-1.74-4.336-2.609-7.347-2.609c-2.86,0-5.315,0.986-7.362,2.959
		c-2.048,1.975-3.071,4.344-3.071,7.105c0,2.764,1.023,5.125,3.071,7.086c2.047,1.961,4.502,2.943,7.362,2.943
		c4.59,0,7.869-1.654,9.844-4.959l-4.736-2.369c-0.789,0.84-1.492,1.4-2.109,1.684c-0.616,0.285-1.455,0.426-2.516,0.426
		c-1.012,0-1.949-0.32-2.812-0.963c-0.863-0.641-1.295-1.627-1.295-2.959h13.765C399.133,527.182,399.146,526.887,399.146,526.441
		 M350.006,535.914v-11.1c0-0.863,0.254-1.611,0.76-2.24c0.505-0.629,1.264-0.941,2.275-0.941c1.109,0,1.942,0.338,2.498,1.016
		c0.555,0.68,0.832,1.525,0.832,2.535v10.73h6.549v-11.322c0.049-0.814,0.328-1.512,0.834-2.092
		c0.504-0.578,1.238-0.867,2.201-0.867c1.109,0,1.942,0.338,2.497,1.016c0.556,0.68,0.833,1.525,0.833,2.535v10.73h6.549v-12.506
		c0-2.418-0.728-4.193-2.183-5.33c-1.456-1.133-3.194-1.701-5.218-1.701c-2.27,0-4.366,1.16-6.29,3.479
		c-0.617-1.186-1.53-2.061-2.738-2.627c-1.209-0.568-2.504-0.852-3.885-0.852c-1.925,0-3.738,0.852-5.44,2.553h-0.074v-1.998h-6.549
		v18.982H350.006z M328.213,521.965c1.232,0,2.274,0.42,3.125,1.258c0.852,0.84,1.277,1.912,1.277,3.219
		c0,1.283-0.414,2.344-1.24,3.182c-0.826,0.84-1.881,1.26-3.162,1.26c-1.334,0-2.406-0.414-3.221-1.24s-1.221-1.893-1.221-3.201
		c0-1.307,0.426-2.379,1.277-3.219C325.899,522.385,326.953,521.965,328.213,521.965 M327.842,546.09
		c3.354,0,6.056-0.84,8.104-2.516c2.047-1.678,3.071-4.059,3.071-7.141v-19.502h-6.55v1.703h-0.11
		c-1.628-1.504-3.663-2.258-6.106-2.258c-2.738,0-4.994,0.975-6.771,2.924c-1.776,1.947-2.664,4.328-2.664,7.141
		s0.888,5.188,2.664,7.123c1.776,1.938,4.032,2.906,6.771,2.906c2.985,0,5.058-0.643,6.217-1.926v1.406
		c0,1.504-0.487,2.621-1.461,3.35c-0.976,0.727-2.029,1.092-3.164,1.092c-2.442,0-4.157-0.814-5.144-2.443l-5.364,2.627
		C318.912,544.252,322.414,546.09,327.842,546.09 M302.939,521.965c1.232,0,2.275,0.42,3.126,1.258
		c0.851,0.84,1.276,1.912,1.276,3.219c0,1.283-0.412,2.344-1.239,3.182c-0.826,0.84-1.882,1.26-3.163,1.26
		c-1.332,0-2.406-0.414-3.221-1.24c-0.813-0.826-1.221-1.893-1.221-3.201c0-1.307,0.426-2.379,1.277-3.219
		C300.627,522.385,301.682,521.965,302.939,521.965 M300.979,536.471c2.516,0,4.588-0.902,6.216-2.703h0.074v2.146h6.475v-18.982
		h-6.549v1.812c-1.628-1.578-3.7-2.367-6.216-2.367c-2.739,0-4.996,0.975-6.771,2.924c-1.777,1.947-2.664,4.328-2.664,7.141
		s0.887,5.188,2.664,7.123C295.982,535.502,298.239,536.471,300.979,536.471 M281.33,535.914v-9.99c0-0.197,0.049-0.469,0.147-0.814
		c0.099-0.344,0.265-0.764,0.5-1.258c0.233-0.492,0.635-0.912,1.202-1.258c0.568-0.346,1.246-0.518,2.035-0.518
		c1.455,0,2.59,0.344,3.404,1.035l2.738-5.551l-0.518-0.295c-0.321-0.197-0.828-0.395-1.518-0.592
		c-0.691-0.197-1.395-0.297-2.109-0.297c-0.69,0-1.369,0.117-2.035,0.352s-1.209,0.5-1.627,0.795c-0.42,0.297-0.814,0.629-1.185,1
		c-0.37,0.369-0.61,0.629-0.722,0.777c-0.111,0.146-0.191,0.271-0.241,0.369h-0.073v-2.738h-6.55v18.982H281.33z M259.276,516.932
		v4.996h2.737v13.986h6.55v-13.986h4.366v-4.996h-4.366v-3.848c0-1.381,0.136-2.35,0.407-2.904c0.271-0.557,0.814-0.832,1.629-0.832
		c0.715,0,1.369,0.172,1.961,0.518l2.294-4.627l-0.629-0.406c-0.396-0.297-1.043-0.586-1.943-0.869
		c-0.901-0.283-1.844-0.426-2.83-0.426c-2.319,0-4.133,0.852-5.44,2.553c-1.307,1.703-1.973,3.973-1.998,6.809v4.033H259.276z
		 M235.15,521.484c0.641-0.568,1.505-0.852,2.59-0.852c0.987,0,1.795,0.266,2.424,0.795c0.629,0.531,1.019,1.289,1.166,2.275h-7.216
		C234.164,522.791,234.51,522.051,235.15,521.484 M247.731,526.441c0-3.23-0.942-5.717-2.83-7.455
		c-1.888-1.74-4.336-2.609-7.347-2.609c-2.86,0-5.315,0.986-7.362,2.959c-2.048,1.975-3.071,4.344-3.071,7.105
		c0,2.764,1.023,5.125,3.071,7.086c2.047,1.961,4.502,2.943,7.362,2.943c4.59,0,7.869-1.654,9.844-4.959l-4.736-2.369
		c-0.789,0.84-1.492,1.4-2.109,1.684c-0.616,0.285-1.455,0.426-2.516,0.426c-1.012,0-1.949-0.32-2.812-0.963
		c-0.863-0.641-1.295-1.627-1.295-2.959h13.765C247.719,527.182,247.731,526.887,247.731,526.441 M213.246,521.965
		c1.232,0,2.274,0.42,3.125,1.258c0.853,0.84,1.277,1.912,1.277,3.219c0,1.283-0.413,2.344-1.24,3.182
		c-0.826,0.84-1.881,1.26-3.162,1.26c-1.332,0-2.406-0.414-3.221-1.24s-1.221-1.893-1.221-3.201c0-1.307,0.426-2.379,1.277-3.219
		C210.933,522.385,211.987,521.965,213.246,521.965 M211.284,536.471c2.517,0,4.589-0.902,6.216-2.703h0.074v2.146h6.477v-31.822
		H217.5v14.652c-1.627-1.578-3.699-2.367-6.216-2.367c-2.739,0-4.995,0.975-6.772,2.924c-1.775,1.947-2.663,4.328-2.663,7.141
		s0.888,5.188,2.663,7.123C206.289,535.502,208.545,536.471,211.284,536.471 M178.685,521.965c1.233,0,2.276,0.42,3.127,1.258
		c0.851,0.84,1.276,1.912,1.276,3.219c0,1.283-0.414,2.344-1.239,3.182c-0.827,0.84-1.882,1.26-3.164,1.26
		c-1.332,0-2.405-0.414-3.22-1.24c-0.813-0.826-1.221-1.893-1.221-3.201c0-1.307,0.426-2.379,1.277-3.219
		C176.373,522.385,177.426,521.965,178.685,521.965 M178.721,536.471c3.281,0,5.99-0.945,8.123-2.832
		c2.134-1.887,3.201-4.285,3.201-7.197c0-2.91-1.092-5.316-3.274-7.215c-2.185-1.9-4.866-2.85-8.05-2.85
		c-3.23,0-5.944,0.943-8.139,2.83c-2.197,1.889-3.293,4.301-3.293,7.234c0,2.936,1.053,5.342,3.162,7.215
		C172.562,535.531,175.317,536.471,178.721,536.471 M153.412,530.883c1.282,0,2.338-0.42,3.163-1.26
		c0.827-0.838,1.24-1.898,1.24-3.182c0-1.307-0.427-2.379-1.276-3.219c-0.852-0.838-1.894-1.258-3.127-1.258
		c-1.258,0-2.312,0.42-3.164,1.258c-0.851,0.84-1.277,1.912-1.277,3.219c0,1.309,0.408,2.375,1.222,3.201
		S152.08,530.883,153.412,530.883 M151.45,516.377c2.517,0,4.589,0.789,6.218,2.367v-1.812h6.549v18.982h-6.476v-2.146h-0.073
		c-1.629,1.801-3.701,2.703-6.218,2.703c-2.737,0-4.995-0.969-6.771-2.906c-1.776-1.936-2.664-4.311-2.664-7.123
		s0.888-5.193,2.664-7.141C146.455,517.352,148.713,516.377,151.45,516.377 M154.115,512.418c0.419,0.174,0.949,0.34,1.592,0.498
		c0.641,0.162,1.17,0.242,1.59,0.242c0.765,0,1.463-0.229,2.092-0.686c0.629-0.455,1.109-0.967,1.443-1.535
		c0.332-0.566,0.629-1.215,0.887-1.943c0.26-0.727,0.42-1.232,0.481-1.516s0.104-0.512,0.13-0.686h-3.738l-0.147,0.406
		c-0.099,0.297-0.29,0.588-0.573,0.871s-0.599,0.426-0.943,0.426c-0.889,0-1.826-0.234-2.812-0.703l-0.666-0.26
		c-0.42-0.172-0.949-0.338-1.591-0.5c-0.642-0.16-1.172-0.24-1.592-0.24c-0.765,0-1.462,0.229-2.091,0.686s-1.109,0.967-1.442,1.535
		c-0.333,0.566-0.629,1.215-0.888,1.941c-0.26,0.729-0.42,1.234-0.481,1.518c-0.062,0.285-0.106,0.514-0.13,0.686h3.736l0.148-0.408
		c0.1-0.295,0.29-0.586,0.574-0.869c0.283-0.283,0.598-0.426,0.943-0.426c0.888,0,1.826,0.236,2.812,0.703L154.115,512.418z
		 M130.101,540.688l0.185-0.111c0.098-0.049,0.309-0.098,0.629-0.146c0.32-0.051,0.678-0.074,1.073-0.074
		c0.593,0,1.122,0.141,1.591,0.426c0.469,0.283,0.703,0.695,0.703,1.238c0,0.395-0.148,0.734-0.443,1.018
		c-0.297,0.283-0.766,0.426-1.406,0.426c-0.494,0-1.006-0.16-1.536-0.48c-0.531-0.322-0.888-0.58-1.073-0.777
		s-0.326-0.357-0.425-0.48l-2.665,1.998l0.666,0.775c0.469,0.494,1.178,1,2.128,1.518c0.949,0.518,1.918,0.777,2.905,0.777
		c1.898,0,3.312-0.469,4.236-1.406c0.926-0.938,1.387-2.061,1.387-3.367c0-1.184-0.506-2.109-1.516-2.775
		c-1.013-0.666-2.098-0.998-3.257-0.998l0.593-1.812c0.147,0.023,0.369,0.037,0.666,0.037c1.258,0,2.436-0.162,3.533-0.482
		s1.801-0.574,2.109-0.758c0.308-0.186,0.549-0.34,0.721-0.463l-2.22-4.551l-0.333,0.221c-0.247,0.148-0.635,0.297-1.165,0.445
		c-0.531,0.146-1.093,0.221-1.685,0.221c-1.233,0-2.293-0.455-3.182-1.369c-0.888-0.912-1.332-2.021-1.332-3.33
		c0-1.281,0.444-2.379,1.332-3.293c0.889-0.912,1.948-1.369,3.182-1.369c1.308,0,2.369,0.297,3.183,0.889l2.22-4.479l-0.629-0.443
		c-0.443-0.297-1.195-0.592-2.257-0.889c-1.062-0.295-2.22-0.443-3.478-0.443c-2.789,0-5.236,0.992-7.346,2.979
		s-3.164,4.361-3.164,7.123c0,2.146,0.678,4.084,2.035,5.809c1.357,1.729,3.059,2.938,5.107,3.627l-1.443,4.479L130.101,540.688z
		 M109.748,521.484c0.641-0.568,1.506-0.852,2.59-0.852c0.987,0,1.795,0.266,2.424,0.795c0.63,0.531,1.019,1.289,1.166,2.275h-7.215
		C108.762,522.791,109.106,522.051,109.748,521.484 M122.33,526.441c0-3.23-0.943-5.717-2.832-7.455
		c-1.887-1.74-4.334-2.609-7.345-2.609c-2.862,0-5.315,0.986-7.362,2.959c-2.049,1.975-3.072,4.344-3.072,7.105
		c0,2.764,1.023,5.125,3.072,7.086c2.047,1.961,4.5,2.943,7.362,2.943c4.589,0,7.869-1.654,9.843-4.959l-4.736-2.369
		c-0.789,0.84-1.492,1.4-2.108,1.684c-0.617,0.285-1.456,0.426-2.517,0.426c-1.012,0-1.949-0.32-2.812-0.963
		c-0.863-0.641-1.295-1.627-1.295-2.959h13.766C122.316,527.182,122.33,526.887,122.33,526.441 M98.647,504.092h-6.549v31.822h6.549
		V504.092z M76.521,521.484c0.642-0.568,1.504-0.852,2.59-0.852c0.985,0,1.795,0.266,2.424,0.795
		c0.63,0.531,1.017,1.289,1.165,2.275h-7.215C75.533,522.791,75.879,522.051,76.521,521.484 M89.102,526.441
		c0-3.23-0.944-5.717-2.831-7.455c-1.888-1.74-4.336-2.609-7.345-2.609c-2.862,0-5.316,0.986-7.363,2.959
		c-2.049,1.975-3.072,4.344-3.072,7.105c0,2.764,1.023,5.125,3.072,7.086c2.047,1.961,4.501,2.943,7.363,2.943
		c4.588,0,7.869-1.654,9.843-4.959l-4.737-2.369c-0.789,0.84-1.492,1.4-2.109,1.684c-0.617,0.285-1.455,0.426-2.516,0.426
		c-1.012,0-1.949-0.32-2.812-0.963c-0.863-0.641-1.295-1.627-1.295-2.959h13.766C89.088,527.182,89.102,526.887,89.102,526.441
		 M49.323,507.441c-2.022,1.738-3.034,3.977-3.034,6.715c0,1.58,0.506,3.053,1.518,4.422c1.011,1.369,2.441,2.512,4.292,3.424
		c0.444,0.223,1.129,0.549,2.054,0.98c0.926,0.432,1.591,0.752,1.998,0.961c0.407,0.211,0.875,0.494,1.406,0.852
		c0.529,0.357,0.9,0.717,1.109,1.072c0.209,0.359,0.315,0.748,0.315,1.166c0,1.998-1.468,2.998-4.403,2.998
		c-1.012,0-2.178-0.32-3.496-0.963c-1.32-0.641-2.24-1.152-2.758-1.535s-0.925-0.697-1.221-0.943l-3.479,5.846l0.481,0.408
		c0.319,0.271,0.826,0.604,1.517,0.998s1.467,0.797,2.332,1.203c0.862,0.406,1.936,0.746,3.219,1.018s2.59,0.408,3.922,0.408
		c1.555,0,2.998-0.182,4.33-0.537c1.332-0.357,2.547-0.906,3.645-1.646c1.098-0.742,1.961-1.764,2.59-3.072
		c0.629-1.307,0.943-2.836,0.943-4.588c0-1.824-0.697-3.461-2.09-4.902c-1.395-1.443-3.078-2.584-5.051-3.424
		c-1.135-0.492-1.975-0.863-2.517-1.109c-0.543-0.246-1.172-0.574-1.888-0.98c-0.715-0.406-1.221-0.791-1.518-1.146
		c-0.295-0.359-0.443-0.746-0.443-1.166c0-0.838,0.314-1.504,0.943-1.998s1.523-0.74,2.684-0.74c0.938,0,1.947,0.197,3.033,0.592
		s1.826,0.709,2.221,0.943s0.703,0.426,0.925,0.574l2.812-5.551l-1.109-0.74c-0.766-0.469-1.938-0.943-3.516-1.424
		c-1.578-0.482-3.194-0.723-4.847-0.723C53.652,504.832,51.346,505.701,49.323,507.441"/>
	<polygon clip-path="url(#SVGID_2_)" fill="none" stroke="#0046FA" stroke-width="1.998" points="0.999,3 0.999,572.041 
		0.999,574.043 3,574.043 1167.087,574.043 1169.088,574.043 1169.088,572.041 1169.088,3 1169.088,0.998 1167.087,0.998 3,0.998 
		0.999,0.998 	"/>
</g>
<rect x="5.001" y="5.002" fill="none" stroke="#0046FA" stroke-width="1.998" width="1160.085" height="565.037"/>
<line fill="none" stroke="#0046FA" stroke-width="2" x1="488.037" y1="171.012" x2="1144.086" y2="171.012"/>
<line fill="none" stroke="#0046FA" stroke-width="2" x1="27.002" y1="471.035" x2="1144.086" y2="471.035"/>
<line fill="none" stroke="#0046FA" stroke-width="2" x1="467.033" y1="26.002" x2="467.033" y2="450.033"/>
<line fill="none" stroke="#0046FA" stroke-width="2" x1="816.061" y1="192.014" x2="816.061" y2="450.033"/>
<path fill="#0046FA" d="M525.16,314.08v17.561l118.389-3.682l-50.98,77.037l0.283,0.283l166.536-82.135v-0.566l-166.536-81.57
	l-0.567,0.283l51.265,77.037L525.16,314.08z M661.391,323.145h74.771L621.74,379.506L661.391,323.145z"/>
</svg>
