<?xml version="1.0" encoding="utf-8"?>
<!-- Generator: Adobe Illustrator 16.0.0, SVG Export Plug-In . SVG Version: 6.00 Build 0)  -->
<!DOCTYPE svg PUBLIC "-//W3C//DTD SVG 1.1//EN" "http://www.w3.org/Graphics/SVG/1.1/DTD/svg11.dtd">
<svg version="1.1" id="Layer_1" xmlns="http://www.w3.org/2000/svg" xmlns:xlink="http://www.w3.org/1999/xlink" x="0px" y="0px"
	 width="1170.09px" height="525.04px" viewBox="0 0 1170.09 525.04" enable-background="new 0 0 1170.09 525.04"
	 xml:space="preserve">
<g>
	<defs>
		<rect id="SVGID_39_" width="1170.088" height="525.039"/>
	</defs>
	<clipPath id="SVGID_2_">
		<use xlink:href="#SVGID_39_"  overflow="visible"/>
	</clipPath>
	<polygon clip-path="url(#SVGID_2_)" fill="none" stroke="#0046FA" stroke-width="1.998" points="0.999,2.998 0.999,522.037 
		0.999,524.039 3,524.039 1167.087,524.039 1169.088,524.039 1169.088,522.037 1169.088,2.998 1169.088,0.996 1167.087,0.996 
		3,0.996 0.999,0.996 	"/>
</g>
<rect x="5.001" y="5" fill="none" stroke="#0046FA" stroke-width="1.998" width="1160.085" height="515.035"/>
<g>
	<defs>
		<rect id="SVGID_41_" width="1170.088" height="525.039"/>
	</defs>
	<clipPath id="SVGID_4_">
		<use xlink:href="#SVGID_41_"  overflow="visible"/>
	</clipPath>
	<path clip-path="url(#SVGID_4_)" fill="#0046FA" d="M1113.264,126.882h-6.174l2.986-58.15L1113.264,126.882z M1103.306,179.457
		l2.19-29.872h9.161l2.19,29.872h16.131l-13.143-146.372h-19.318l-13.342,146.372H1103.306z M1050.136,54.394
		c0.995,0,3.186-0.199,4.58,1.991c1.593,2.39,1.792,8.962,1.792,19.716c0,10.555-0.199,17.922-1.991,20.512
		c-0.996,1.593-2.987,2.19-4.381,2.19V54.394z M1074.83,179.457l-10.157-70.896c5.178-6.174,7.567-19.317,7.567-33.258
		c0-27.682-6.373-42.219-21.905-42.219h-16.729v146.372h16.53v-63.728l8.562,63.728H1074.83z M997.162,33.085v118.292
		c0,4.78-0.598,8.763-2.986,8.763c-2.589,0-3.188-3.187-3.188-8.763V33.085H974.46v118.292c0,14.937,3.783,29.673,19.716,29.673
		c14.936,0,19.516-13.143,19.516-29.673V33.085H997.162z M931.646,55.19v124.267h16.53V55.19h12.146V33.085h-40.823V55.19H931.646z
		 M887.637,179.457h16.529V33.085h-16.529V179.457z M837.056,179.457h33.058v-22.104h-16.528v-40.229h11.948V93.625h-11.948V55.19
		h16.528V33.085h-33.058V179.457z M787.869,179.457h33.656v-19.915h-17.127V33.085h-16.529V179.457z"/>
	<path clip-path="url(#SVGID_4_)" fill="#231F20" d="M674.158,469.078c0.253-0.378,0.588-0.692,1.009-0.944
		c0.42-0.252,0.902-0.441,1.448-0.567c0.547-0.126,1.113-0.188,1.702-0.188c1.511,0,2.735,0.378,3.674,1.134
		c0.938,0.756,1.477,1.806,1.618,3.149l3.107-0.756c-0.113-0.784-0.356-1.567-0.734-2.352c-0.379-0.784-0.918-1.478-1.617-2.079
		c-0.701-0.603-1.569-1.092-2.604-1.47c-1.037-0.379-2.241-0.567-3.611-0.567c-0.981,0-1.919,0.126-2.815,0.378
		s-1.7,0.63-2.414,1.134s-1.281,1.127-1.701,1.869c-0.421,0.742-0.63,1.604-0.63,2.583v0.252c0,1.82,0.644,3.206,1.933,4.158
		c1.286,0.952,3.135,1.512,5.543,1.68c2.071,0.141,3.57,0.462,4.493,0.966c0.926,0.505,1.387,1.345,1.387,2.521
		c0,1.092-0.47,1.938-1.407,2.541c-0.938,0.602-2.177,0.903-3.716,0.903c-1.821,0-3.276-0.483-4.368-1.449
		c-1.093-0.966-1.709-2.247-1.85-3.843l-3.107,0.756c0.056,0.924,0.28,1.841,0.672,2.751s0.973,1.722,1.744,2.436
		c0.769,0.714,1.734,1.288,2.896,1.723c1.162,0.434,2.556,0.65,4.181,0.65c1.203,0,2.315-0.146,3.339-0.44
		c1.021-0.294,1.89-0.722,2.604-1.281c0.715-0.561,1.273-1.239,1.68-2.037c0.405-0.798,0.608-1.701,0.608-2.709v-0.252
		c0-1.848-0.637-3.255-1.911-4.221c-1.273-0.967-3.128-1.548-5.563-1.743c-2.269-0.168-3.83-0.519-4.683-1.05
		c-0.855-0.532-1.281-1.303-1.281-2.311C673.781,469.897,673.906,469.456,674.158,469.078 M647.3,481.343
		c-1.247-1.33-1.869-3.186-1.869-5.565v-0.672c0-1.12,0.168-2.149,0.504-3.087c0.337-0.938,0.805-1.736,1.407-2.395
		c0.602-0.657,1.309-1.169,2.121-1.532c0.812-0.364,1.707-0.546,2.688-0.546c0.95,0,1.84,0.188,2.667,0.566
		c0.824,0.378,1.539,0.903,2.141,1.575s1.072,1.477,1.408,2.415c0.336,0.938,0.503,1.967,0.503,3.087v0.504
		c0,1.148-0.167,2.191-0.503,3.129c-0.336,0.938-0.799,1.743-1.387,2.415s-1.296,1.19-2.12,1.554
		c-0.827,0.364-1.73,0.547-2.709,0.547C650.162,483.338,648.545,482.673,647.3,481.343 M658.87,482.581
		c0,0.952,0.301,1.736,0.904,2.353c0.601,0.616,1.378,0.924,2.329,0.924h2.228v-3.024h-1.05c-0.756,0-1.135-0.42-1.135-1.26v-16.548
		h-3.276v3.276h-0.503c-0.672-1.316-1.59-2.289-2.752-2.919s-2.456-0.945-3.885-0.945c-1.316,0-2.562,0.238-3.737,0.714
		c-1.176,0.477-2.206,1.169-3.087,2.079c-0.882,0.91-1.575,2.023-2.079,3.339c-0.504,1.316-0.756,2.828-0.756,4.536v0.672
		c0,1.736,0.252,3.262,0.756,4.578s1.197,2.429,2.079,3.339c0.881,0.91,1.911,1.596,3.087,2.059
		c1.176,0.462,2.449,0.692,3.822,0.692c1.314,0,2.567-0.336,3.758-1.008c1.189-0.672,2.122-1.708,2.794-3.108h0.503V482.581z
		 M618.551,485.857h17.389v-3.024h-6.805v-17.808h-9.828v3.024h6.553v14.783h-7.309V485.857z M625.375,460.889
		c0.574,0.574,1.267,0.86,2.08,0.86c0.811,0,1.504-0.286,2.079-0.86c0.573-0.574,0.86-1.268,0.86-2.079
		c0-0.812-0.287-1.505-0.86-2.079c-0.575-0.574-1.269-0.861-2.079-0.861c-0.813,0-1.506,0.287-2.08,0.861s-0.86,1.267-0.86,2.079
		C624.515,459.621,624.801,460.314,625.375,460.889 M608.555,477.709c-0.112,0.729-0.33,1.429-0.65,2.101
		c-0.323,0.672-0.756,1.267-1.303,1.785c-0.546,0.518-1.205,0.938-1.974,1.26c-0.771,0.322-1.674,0.483-2.709,0.483
		c-1.037,0-2.003-0.176-2.897-0.525c-0.897-0.35-1.681-0.847-2.353-1.491c-0.672-0.644-1.197-1.435-1.575-2.373
		c-0.378-0.938-0.566-1.995-0.566-3.171v-0.504c0-1.12,0.188-2.156,0.566-3.108c0.378-0.951,0.903-1.771,1.575-2.457
		c0.672-0.686,1.449-1.218,2.331-1.596s1.827-0.566,2.835-0.566c1.035,0,1.945,0.153,2.73,0.462
		c0.782,0.308,1.448,0.721,1.994,1.238c0.547,0.519,0.979,1.12,1.303,1.807c0.32,0.686,0.524,1.393,0.608,2.121l3.276-0.757
		c-0.197-1.147-0.567-2.212-1.113-3.191c-0.546-0.98-1.247-1.827-2.1-2.541c-0.855-0.714-1.842-1.268-2.961-1.659
		c-1.121-0.392-2.339-0.588-3.654-0.588c-1.457,0-2.835,0.252-4.137,0.756s-2.444,1.218-3.423,2.143
		c-0.981,0.924-1.759,2.058-2.331,3.401c-0.575,1.344-0.861,2.856-0.861,4.536v0.504c0,1.708,0.286,3.22,0.861,4.536
		c0.572,1.316,1.35,2.429,2.331,3.339c0.979,0.91,2.121,1.604,3.423,2.079s2.68,0.714,4.137,0.714c1.371,0,2.617-0.196,3.738-0.588
		c1.119-0.392,2.1-0.945,2.939-1.659c0.841-0.714,1.533-1.561,2.079-2.541c0.546-0.979,0.931-2.044,1.155-3.191L608.555,477.709z
		 M569.915,475.021c0-2.268,0.567-4.081,1.701-5.439c1.134-1.357,2.694-2.036,4.683-2.036c1.68,0,3.009,0.546,3.99,1.638
		c0.979,1.092,1.47,2.729,1.47,4.914v11.76h3.276v-12.432c0-2.996-0.714-5.243-2.142-6.741c-1.428-1.498-3.347-2.247-5.754-2.247
		c-3.192,0-5.433,1.372-6.72,4.116h-0.504v-3.528h-3.276v20.832h3.276V475.021z M556.139,461.917l-3.36-4.955h-5.208l-3.36,4.955
		h3.528l2.184-3.695h0.504l2.184,3.695H556.139z M552.674,467.966c0.769,0.279,1.455,0.672,2.058,1.176
		c0.601,0.504,1.092,1.12,1.47,1.848c0.378,0.729,0.594,1.54,0.651,2.437h-13.44c0.111-0.84,0.357-1.617,0.735-2.331
		s0.867-1.337,1.47-1.869c0.601-0.532,1.302-0.945,2.1-1.239c0.798-0.294,1.659-0.44,2.583-0.44
		C551.112,467.546,551.903,467.686,552.674,467.966 M560.129,476.449v-2.688c0-0.924-0.189-1.933-0.567-3.024
		s-0.966-2.1-1.764-3.023c-0.798-0.925-1.821-1.701-3.066-2.331c-1.247-0.63-2.724-0.945-4.431-0.945
		c-1.457,0-2.808,0.259-4.053,0.777c-1.247,0.518-2.331,1.231-3.255,2.142c-0.924,0.91-1.646,1.995-2.163,3.255
		c-0.519,1.26-0.777,2.618-0.777,4.074v1.008c0,1.596,0.252,3.052,0.756,4.368s1.203,2.45,2.1,3.402
		c0.895,0.951,1.966,1.687,3.213,2.205c1.245,0.518,2.61,0.776,4.095,0.776c2.688,0,4.822-0.608,6.405-1.827
		c1.581-1.218,2.667-2.793,3.255-4.725l-3.108-0.84c-0.197,0.588-0.456,1.141-0.777,1.659c-0.323,0.518-0.743,0.973-1.26,1.364
		c-0.519,0.393-1.142,0.7-1.869,0.924c-0.729,0.225-1.583,0.337-2.562,0.337c-2.157,0-3.837-0.631-5.04-1.891
		c-1.205-1.26-1.848-2.926-1.932-4.998H560.129z M530.099,475.861c0,2.269-0.567,4.081-1.701,5.439
		c-1.134,1.357-2.696,2.037-4.683,2.037c-1.848,0-3.221-0.505-4.116-1.513c-0.897-1.008-1.344-2.604-1.344-4.788v-12.012h-3.276
		v12.432c0,1.484,0.189,2.786,0.567,3.906s0.909,2.059,1.596,2.814c0.685,0.756,1.512,1.322,2.478,1.701
		c0.966,0.378,2.022,0.566,3.171,0.566c1.68,0,3.066-0.392,4.158-1.176c1.092-0.784,1.974-1.848,2.646-3.192h0.504v3.78h3.276
		v-20.832h-3.276V475.861z M495.743,482.812c-0.84-0.35-1.575-0.854-2.205-1.512c-0.63-0.658-1.121-1.449-1.47-2.373
		c-0.351-0.924-0.525-1.975-0.525-3.15v-0.672c0-1.12,0.174-2.142,0.525-3.066c0.349-0.924,0.84-1.722,1.47-2.394
		s1.371-1.19,2.226-1.554c0.853-0.364,1.77-0.546,2.751-0.546c0.951,0,1.854,0.188,2.709,0.566c0.853,0.378,1.596,0.903,2.226,1.575
		c0.63,0.672,1.126,1.477,1.491,2.415c0.363,0.938,0.546,1.967,0.546,3.087v0.504c0,1.148-0.183,2.191-0.546,3.129
		c-0.365,0.938-0.861,1.743-1.491,2.415c-0.63,0.672-1.365,1.19-2.205,1.554c-0.84,0.364-1.751,0.547-2.73,0.547
		C497.507,483.338,496.583,483.162,495.743,482.812 M505.487,494.258h3.276v-29.232h-3.276v3.276h-0.504
		c-0.729-1.261-1.701-2.22-2.919-2.877c-1.218-0.658-2.541-0.987-3.969-0.987c-1.344,0-2.619,0.238-3.822,0.714
		c-1.205,0.477-2.255,1.169-3.15,2.079c-0.897,0.91-1.611,2.03-2.142,3.36c-0.533,1.33-0.798,2.835-0.798,4.515v0.672
		c0,1.708,0.258,3.228,0.777,4.557c0.517,1.33,1.231,2.443,2.142,3.34c0.909,0.896,1.966,1.582,3.171,2.058
		c1.203,0.476,2.505,0.714,3.906,0.714c0.615,0,1.252-0.077,1.911-0.23c0.657-0.154,1.287-0.393,1.89-0.715
		c0.601-0.321,1.161-0.714,1.68-1.176c0.517-0.462,0.958-1.015,1.323-1.659h0.504V494.258z M475.562,467.966
		c0.769,0.279,1.455,0.672,2.058,1.176c0.601,0.504,1.092,1.12,1.47,1.848c0.378,0.729,0.594,1.54,0.651,2.437h-13.44
		c0.111-0.84,0.357-1.617,0.735-2.331s0.867-1.337,1.47-1.869c0.601-0.532,1.302-0.945,2.1-1.239s1.659-0.44,2.583-0.44
		C474,467.546,474.791,467.686,475.562,467.966 M483.017,476.449v-2.688c0-0.924-0.189-1.933-0.567-3.024
		c-0.378-1.092-0.966-2.1-1.764-3.023c-0.798-0.925-1.821-1.701-3.066-2.331c-1.247-0.63-2.724-0.945-4.431-0.945
		c-1.457,0-2.808,0.259-4.053,0.777c-1.247,0.518-2.331,1.231-3.255,2.142c-0.924,0.91-1.646,1.995-2.163,3.255
		c-0.519,1.26-0.777,2.618-0.777,4.074v1.008c0,1.596,0.252,3.052,0.756,4.368c0.504,1.316,1.203,2.45,2.1,3.402
		c0.895,0.951,1.966,1.687,3.213,2.205c1.245,0.518,2.61,0.776,4.095,0.776c2.688,0,4.822-0.608,6.405-1.827
		c1.581-1.218,2.667-2.793,3.255-4.725l-3.108-0.84c-0.197,0.588-0.456,1.141-0.777,1.659c-0.323,0.518-0.743,0.973-1.26,1.364
		c-0.519,0.393-1.142,0.7-1.869,0.924c-0.729,0.225-1.583,0.337-2.562,0.337c-2.157,0-3.837-0.631-5.04-1.891
		c-1.205-1.26-1.848-2.926-1.932-4.998H483.017z M442.823,469.078c0.252-0.378,0.588-0.692,1.008-0.944s0.903-0.441,1.449-0.567
		c0.546-0.126,1.113-0.188,1.701-0.188c1.512,0,2.736,0.378,3.675,1.134c0.937,0.756,1.476,1.806,1.617,3.149l3.108-0.756
		c-0.113-0.784-0.357-1.567-0.735-2.352s-0.918-1.478-1.617-2.079c-0.701-0.603-1.569-1.092-2.604-1.47
		c-1.037-0.379-2.241-0.567-3.612-0.567c-0.981,0-1.919,0.126-2.814,0.378c-0.897,0.252-1.701,0.63-2.415,1.134
		s-1.281,1.127-1.701,1.869c-0.42,0.742-0.63,1.604-0.63,2.583v0.252c0,1.82,0.643,3.206,1.932,4.158
		c1.287,0.952,3.135,1.512,5.544,1.68c2.071,0.141,3.57,0.462,4.494,0.966c0.924,0.505,1.386,1.345,1.386,2.521
		c0,1.092-0.47,1.938-1.407,2.541c-0.939,0.602-2.178,0.903-3.717,0.903c-1.821,0-3.276-0.483-4.368-1.449
		c-1.092-0.966-1.709-2.247-1.848-3.843l-3.108,0.756c0.055,0.924,0.279,1.841,0.672,2.751c0.391,0.91,0.972,1.722,1.743,2.436
		c0.769,0.714,1.735,1.288,2.898,1.723c1.161,0.434,2.554,0.65,4.179,0.65c1.203,0,2.316-0.146,3.339-0.44
		c1.021-0.294,1.89-0.722,2.604-1.281c0.714-0.561,1.273-1.239,1.68-2.037c0.405-0.798,0.609-1.701,0.609-2.709v-0.252
		c0-1.848-0.638-3.255-1.911-4.221c-1.275-0.967-3.129-1.548-5.565-1.743c-2.268-0.168-3.83-0.519-4.683-1.05
		c-0.855-0.532-1.281-1.303-1.281-2.311C442.445,469.897,442.571,469.456,442.823,469.078 M391.415,469.078
		c0.252-0.378,0.588-0.692,1.008-0.944s0.903-0.441,1.449-0.567s1.113-0.188,1.701-0.188c1.512,0,2.736,0.378,3.675,1.134
		c0.938,0.756,1.476,1.806,1.617,3.149l3.108-0.756c-0.112-0.784-0.357-1.567-0.735-2.352c-0.378-0.784-0.918-1.478-1.617-2.079
		c-0.7-0.603-1.569-1.092-2.604-1.47c-1.036-0.379-2.241-0.567-3.612-0.567c-0.981,0-1.918,0.126-2.814,0.378
		c-0.897,0.252-1.701,0.63-2.415,1.134c-0.714,0.504-1.281,1.127-1.701,1.869s-0.63,1.604-0.63,2.583v0.252
		c0,1.82,0.644,3.206,1.932,4.158c1.287,0.952,3.135,1.512,5.544,1.68c2.072,0.141,3.57,0.462,4.494,0.966
		c0.924,0.505,1.386,1.345,1.386,2.521c0,1.092-0.469,1.938-1.407,2.541c-0.939,0.602-2.178,0.903-3.717,0.903
		c-1.821,0-3.276-0.483-4.368-1.449s-1.708-2.247-1.848-3.843l-3.108,0.756c0.056,0.924,0.279,1.841,0.672,2.751
		c0.392,0.91,0.972,1.722,1.743,2.436c0.77,0.714,1.736,1.288,2.898,1.723c1.161,0.434,2.555,0.65,4.179,0.65
		c1.203,0,2.316-0.146,3.339-0.44c1.022-0.294,1.89-0.722,2.604-1.281c0.714-0.561,1.274-1.239,1.68-2.037
		c0.405-0.798,0.609-1.701,0.609-2.709v-0.252c0-1.848-0.637-3.255-1.911-4.221c-1.275-0.967-3.129-1.548-5.565-1.743
		c-2.268-0.168-3.829-0.519-4.683-1.05c-0.855-0.532-1.281-1.303-1.281-2.311C391.037,469.897,391.163,469.456,391.415,469.078
		 M372.746,467.966c0.77,0.279,1.455,0.672,2.058,1.176c0.602,0.504,1.092,1.12,1.47,1.848c0.378,0.729,0.594,1.54,0.651,2.437
		h-13.44c0.111-0.84,0.357-1.617,0.735-2.331c0.378-0.714,0.867-1.337,1.47-1.869c0.602-0.532,1.302-0.945,2.1-1.239
		s1.659-0.44,2.583-0.44C371.185,467.546,371.975,467.686,372.746,467.966 M380.201,476.449v-2.688c0-0.924-0.189-1.933-0.567-3.024
		c-0.378-1.092-0.966-2.1-1.764-3.023c-0.798-0.925-1.821-1.701-3.066-2.331c-1.246-0.63-2.724-0.945-4.431-0.945
		c-1.456,0-2.808,0.259-4.053,0.777c-1.246,0.518-2.331,1.231-3.255,2.142s-1.645,1.995-2.163,3.255
		c-0.519,1.26-0.777,2.618-0.777,4.074v1.008c0,1.596,0.252,3.052,0.756,4.368s1.203,2.45,2.1,3.402
		c0.896,0.951,1.967,1.687,3.213,2.205c1.245,0.518,2.61,0.776,4.095,0.776c2.688,0,4.823-0.608,6.405-1.827
		c1.581-1.218,2.667-2.793,3.255-4.725l-3.108-0.84c-0.196,0.588-0.456,1.141-0.777,1.659c-0.322,0.518-0.742,0.973-1.26,1.364
		c-0.519,0.393-1.141,0.7-1.869,0.924c-0.729,0.225-1.582,0.337-2.562,0.337c-2.157,0-3.837-0.631-5.04-1.891
		c-1.204-1.26-1.848-2.926-1.932-4.998H380.201z M334.589,468.05h6.552v14.531c0,0.952,0.3,1.736,0.903,2.353
		c0.602,0.616,1.379,0.924,2.331,0.924h7.098v-3.024h-5.922c-0.756,0-1.134-0.42-1.134-1.26V468.05h8.064v-3.024h-8.064v-8.568
		h-3.276v8.568h-6.552V468.05z M312.875,475.021c0-2.268,0.567-4.081,1.701-5.439c1.134-1.357,2.694-2.036,4.683-2.036
		c1.68,0,3.009,0.546,3.99,1.638c0.98,1.092,1.47,2.729,1.47,4.914v11.76h3.276v-12.432c0-2.996-0.714-5.243-2.142-6.741
		s-3.346-2.247-5.754-2.247c-3.192,0-5.433,1.372-6.72,4.116h-0.504v-3.528h-3.276v20.832h3.276V475.021z M295.634,467.966
		c0.77,0.279,1.455,0.672,2.058,1.176c0.602,0.504,1.092,1.12,1.47,1.848c0.378,0.729,0.594,1.54,0.651,2.437h-13.44
		c0.111-0.84,0.357-1.617,0.735-2.331s0.867-1.337,1.47-1.869c0.602-0.532,1.302-0.945,2.1-1.239c0.798-0.294,1.659-0.44,2.583-0.44
		C294.073,467.546,294.863,467.686,295.634,467.966 M303.089,476.449v-2.688c0-0.924-0.189-1.933-0.567-3.024
		s-0.966-2.1-1.764-3.023c-0.798-0.925-1.821-1.701-3.066-2.331c-1.246-0.63-2.724-0.945-4.431-0.945
		c-1.456,0-2.808,0.259-4.053,0.777c-1.246,0.518-2.331,1.231-3.255,2.142c-0.924,0.91-1.645,1.995-2.163,3.255
		c-0.519,1.26-0.777,2.618-0.777,4.074v1.008c0,1.596,0.252,3.052,0.756,4.368s1.203,2.45,2.1,3.402
		c0.896,0.951,1.967,1.687,3.213,2.205c1.245,0.518,2.61,0.776,4.095,0.776c2.688,0,4.823-0.608,6.405-1.827
		c1.581-1.218,2.667-2.793,3.255-4.725l-3.108-0.84c-0.196,0.588-0.456,1.141-0.777,1.659c-0.322,0.518-0.742,0.973-1.26,1.364
		c-0.519,0.393-1.141,0.7-1.869,0.924c-0.729,0.225-1.582,0.337-2.562,0.337c-2.157,0-3.837-0.631-5.04-1.891
		c-1.204-1.26-1.848-2.926-1.932-4.998H303.089z M257.015,468.05h4.284v14.783h-4.788v3.024h13.356v-3.024h-5.292v-8.819
		c0-0.896,0.098-1.736,0.294-2.521c0.195-0.784,0.504-1.47,0.924-2.058s0.945-1.05,1.575-1.386c0.63-0.336,1.379-0.504,2.247-0.504
		c1.344,0,2.478,0.427,3.402,1.28c0.924,0.854,1.386,2.247,1.386,4.18l3.444-0.505c-0.084-2.632-0.771-4.634-2.058-6.006
		c-1.288-1.372-2.982-2.058-5.082-2.058c-1.26,0-2.38,0.273-3.36,0.819c-0.981,0.546-1.737,1.393-2.268,2.541h-0.504v-2.772h-7.56
		V468.05z M244.226,467.966c0.77,0.279,1.455,0.672,2.058,1.176c0.602,0.504,1.092,1.12,1.47,1.848
		c0.378,0.729,0.594,1.54,0.651,2.437h-13.44c0.111-0.84,0.357-1.617,0.735-2.331c0.378-0.714,0.867-1.337,1.47-1.869
		c0.602-0.532,1.302-0.945,2.1-1.239s1.659-0.44,2.583-0.44C242.665,467.546,243.455,467.686,244.226,467.966 M251.681,476.449
		v-2.688c0-0.924-0.189-1.933-0.567-3.024c-0.378-1.092-0.966-2.1-1.764-3.023c-0.798-0.925-1.821-1.701-3.066-2.331
		c-1.246-0.63-2.724-0.945-4.431-0.945c-1.456,0-2.808,0.259-4.053,0.777c-1.246,0.518-2.331,1.231-3.255,2.142
		s-1.645,1.995-2.163,3.255c-0.519,1.26-0.777,2.618-0.777,4.074v1.008c0,1.596,0.252,3.052,0.756,4.368
		c0.504,1.316,1.203,2.45,2.1,3.402c0.896,0.951,1.967,1.687,3.213,2.205c1.245,0.518,2.61,0.776,4.095,0.776
		c2.688,0,4.823-0.608,6.405-1.827c1.581-1.218,2.667-2.793,3.255-4.725l-3.108-0.84c-0.196,0.588-0.456,1.141-0.777,1.659
		c-0.322,0.518-0.742,0.973-1.26,1.364c-0.519,0.393-1.141,0.7-1.869,0.924c-0.729,0.225-1.582,0.337-2.562,0.337
		c-2.157,0-3.837-0.631-5.04-1.891c-1.204-1.26-1.848-2.926-1.932-4.998H251.681z M206.573,468.05h6.426v17.808h3.276V468.05h8.694
		v-3.024h-8.694v-4.284c0-0.84,0.378-1.26,1.134-1.26h7.056v-3.024h-8.232c-0.952,0-1.729,0.309-2.331,0.925
		c-0.603,0.615-0.903,1.399-0.903,2.352v5.292h-6.426V468.05z M181.583,485.857h17.388v-3.024h-6.804v-17.808h-9.828v3.024h6.552
		v14.783h-7.308V485.857z M188.408,460.889c0.573,0.574,1.266,0.86,2.079,0.86c0.812,0,1.505-0.286,2.079-0.86
		c0.573-0.574,0.861-1.268,0.861-2.079c0-0.812-0.288-1.505-0.861-2.079c-0.574-0.574-1.267-0.861-2.079-0.861
		c-0.813,0-1.506,0.287-2.079,0.861c-0.574,0.574-0.861,1.267-0.861,2.079C187.547,459.621,187.834,460.314,188.408,460.889
		 M161.759,482.812c-0.84-0.35-1.575-0.854-2.205-1.512c-0.63-0.658-1.12-1.449-1.47-2.373c-0.351-0.924-0.525-1.975-0.525-3.15
		v-0.672c0-1.12,0.174-2.142,0.525-3.066c0.35-0.924,0.84-1.722,1.47-2.394c0.63-0.672,1.371-1.19,2.226-1.554
		c0.854-0.364,1.77-0.546,2.751-0.546c0.951,0,1.854,0.188,2.709,0.566c0.854,0.378,1.596,0.903,2.226,1.575
		c0.63,0.672,1.127,1.477,1.491,2.415c0.363,0.938,0.546,1.967,0.546,3.087v0.504c0,1.148-0.183,2.191-0.546,3.129
		c-0.364,0.938-0.861,1.743-1.491,2.415c-0.63,0.672-1.365,1.19-2.205,1.554c-0.84,0.364-1.75,0.547-2.73,0.547
		C163.523,483.338,162.599,483.162,161.759,482.812 M171.503,485.857h3.276v-29.4h-3.276v11.845h-0.504
		c-0.672-1.316-1.632-2.289-2.877-2.919c-1.246-0.63-2.583-0.945-4.011-0.945c-1.344,0-2.619,0.238-3.822,0.714
		c-1.204,0.477-2.254,1.169-3.15,2.079c-0.897,0.91-1.611,2.03-2.142,3.36c-0.532,1.33-0.798,2.835-0.798,4.515v0.672
		c0,1.708,0.258,3.228,0.777,4.557c0.518,1.33,1.232,2.443,2.142,3.34c0.909,0.896,1.967,1.582,3.171,2.058
		c1.203,0.476,2.505,0.714,3.906,0.714c0.615,0,1.26-0.077,1.932-0.23c0.672-0.154,1.308-0.386,1.911-0.693
		c0.602-0.308,1.161-0.7,1.68-1.176c0.518-0.477,0.945-1.036,1.281-1.681h0.504V485.857z M124.001,469.813
		c0-1.596-0.427-2.891-1.281-3.885s-2.065-1.491-3.633-1.491c-2.072,0-3.584,0.952-4.536,2.856h-0.504
		c-0.252-0.841-0.707-1.526-1.365-2.059c-0.658-0.532-1.491-0.798-2.499-0.798c-0.952,0-1.778,0.231-2.478,0.693
		c-0.7,0.462-1.232,1.183-1.596,2.163h-0.504v-2.269h-3.276v20.832h3.276v-14.364c0-1.176,0.273-2.128,0.819-2.855
		c0.546-0.729,1.323-1.092,2.331-1.092c0.84,0,1.512,0.301,2.016,0.902c0.504,0.603,0.756,1.365,0.756,2.289v15.12h3.276v-14.112
		c0-1.428,0.287-2.484,0.861-3.171c0.574-0.686,1.323-1.028,2.247-1.028c0.98,0,1.694,0.314,2.142,0.944
		c0.448,0.63,0.672,1.436,0.672,2.415v14.952h3.276V469.813z M84.668,482.812c-0.854-0.35-1.603-0.861-2.247-1.533
		s-1.148-1.477-1.512-2.415c-0.364-0.938-0.546-1.995-0.546-3.171v-0.504c0-1.12,0.182-2.149,0.546-3.087
		c0.364-0.938,0.868-1.743,1.512-2.415s1.4-1.197,2.268-1.575s1.792-0.566,2.772-0.566s1.904,0.188,2.772,0.566
		c0.868,0.378,1.624,0.903,2.268,1.575s1.148,1.477,1.512,2.415c0.364,0.938,0.546,1.967,0.546,3.087v0.504
		c0,1.176-0.182,2.233-0.546,3.171c-0.364,0.938-0.868,1.743-1.512,2.415s-1.393,1.184-2.247,1.533s-1.785,0.525-2.793,0.525
		C86.453,483.338,85.522,483.162,84.668,482.812 M97.919,475.189c0-1.708-0.287-3.227-0.861-4.557
		c-0.574-1.33-1.344-2.457-2.31-3.382c-0.966-0.924-2.079-1.623-3.339-2.1c-1.26-0.476-2.576-0.714-3.948-0.714
		s-2.688,0.238-3.948,0.714c-1.26,0.477-2.373,1.176-3.339,2.1c-0.966,0.925-1.736,2.052-2.31,3.382
		c-0.574,1.33-0.861,2.849-0.861,4.557v0.504c0,1.736,0.287,3.27,0.861,4.599c0.574,1.33,1.337,2.45,2.289,3.36
		c0.952,0.91,2.058,1.604,3.318,2.079c1.26,0.476,2.59,0.714,3.99,0.714c1.372,0,2.695-0.238,3.969-0.714
		c1.274-0.476,2.387-1.169,3.339-2.079s1.715-2.03,2.289-3.36c0.574-1.329,0.861-2.862,0.861-4.599V475.189z M68.771,477.709
		c-0.112,0.729-0.329,1.429-0.651,2.101c-0.322,0.672-0.756,1.267-1.302,1.785c-0.546,0.518-1.204,0.938-1.974,1.26
		c-0.77,0.322-1.673,0.483-2.709,0.483c-1.036,0-2.002-0.176-2.898-0.525s-1.68-0.847-2.352-1.491
		c-0.672-0.644-1.197-1.435-1.575-2.373c-0.378-0.938-0.567-1.995-0.567-3.171v-0.504c0-1.12,0.189-2.156,0.567-3.108
		c0.378-0.951,0.903-1.771,1.575-2.457c0.672-0.686,1.449-1.218,2.331-1.596c0.882-0.378,1.827-0.566,2.835-0.566
		c1.036,0,1.946,0.153,2.73,0.462c0.784,0.308,1.449,0.721,1.995,1.238c0.546,0.519,0.98,1.12,1.302,1.807
		c0.322,0.686,0.525,1.393,0.609,2.121l3.276-0.757c-0.196-1.147-0.567-2.212-1.113-3.191c-0.546-0.98-1.246-1.827-2.1-2.541
		s-1.841-1.268-2.961-1.659s-2.338-0.588-3.654-0.588c-1.456,0-2.835,0.252-4.137,0.756c-1.302,0.504-2.443,1.218-3.423,2.143
		c-0.98,0.924-1.757,2.058-2.331,3.401c-0.574,1.344-0.861,2.856-0.861,4.536v0.504c0,1.708,0.287,3.22,0.861,4.536
		c0.574,1.316,1.351,2.429,2.331,3.339s2.121,1.604,3.423,2.079c1.302,0.476,2.681,0.714,4.137,0.714
		c1.372,0,2.618-0.196,3.738-0.588s2.1-0.945,2.94-1.659s1.533-1.561,2.079-2.541c0.546-0.979,0.931-2.044,1.155-3.191
		L68.771,477.709z"/>
	<path clip-path="url(#SVGID_4_)" fill="#231F20" d="M675.86,424.062c-0.855-0.35-1.604-0.861-2.247-1.533
		c-0.646-0.672-1.149-1.477-1.513-2.415c-0.364-0.938-0.546-1.995-0.546-3.171v-0.504c0-1.12,0.182-2.149,0.546-3.087
		c0.363-0.938,0.867-1.743,1.513-2.415c0.643-0.672,1.398-1.197,2.268-1.575c0.867-0.378,1.791-0.566,2.772-0.566
		c0.979,0,1.902,0.188,2.771,0.566c0.867,0.378,1.623,0.903,2.269,1.575c0.643,0.672,1.146,1.477,1.512,2.415
		c0.363,0.938,0.546,1.967,0.546,3.087v0.504c0,1.176-0.183,2.233-0.546,3.171c-0.365,0.938-0.869,1.743-1.512,2.415
		c-0.646,0.672-1.395,1.184-2.247,1.533c-0.855,0.35-1.785,0.525-2.793,0.525C677.645,424.587,676.713,424.411,675.86,424.062
		 M689.111,416.438c0-1.708-0.288-3.227-0.862-4.557s-1.344-2.457-2.31-3.382c-0.967-0.924-2.078-1.623-3.339-2.1
		c-1.261-0.476-2.576-0.714-3.947-0.714c-1.373,0-2.688,0.238-3.948,0.714c-1.261,0.477-2.373,1.176-3.339,2.1
		c-0.966,0.925-1.737,2.052-2.311,3.382c-0.575,1.33-0.861,2.849-0.861,4.557v0.504c0,1.736,0.286,3.27,0.861,4.599
		c0.573,1.33,1.336,2.45,2.289,3.36c0.951,0.91,2.059,1.604,3.318,2.079s2.589,0.714,3.99,0.714c1.371,0,2.693-0.238,3.968-0.714
		c1.273-0.476,2.387-1.169,3.339-2.079s1.715-2.03,2.289-3.36c0.574-1.329,0.862-2.862,0.862-4.599V416.438z M650.135,424.062
		c-0.84-0.35-1.575-0.854-2.205-1.512c-0.63-0.658-1.121-1.449-1.47-2.373c-0.351-0.924-0.525-1.975-0.525-3.15v-0.672
		c0-1.12,0.175-2.142,0.525-3.066c0.349-0.924,0.84-1.722,1.47-2.394s1.371-1.19,2.227-1.554c0.853-0.364,1.77-0.546,2.751-0.546
		c0.951,0,1.854,0.188,2.709,0.566c0.853,0.378,1.596,0.903,2.226,1.575s1.126,1.477,1.491,2.415
		c0.363,0.938,0.546,1.967,0.546,3.087v0.504c0,1.148-0.183,2.191-0.546,3.129c-0.365,0.938-0.861,1.743-1.491,2.415
		s-1.365,1.19-2.205,1.554c-0.84,0.364-1.751,0.547-2.729,0.547C651.899,424.587,650.975,424.411,650.135,424.062 M659.879,427.106
		h3.276v-29.4h-3.276v11.845h-0.504c-0.672-1.316-1.632-2.289-2.877-2.919c-1.247-0.63-2.583-0.945-4.011-0.945
		c-1.345,0-2.619,0.238-3.822,0.714c-1.205,0.477-2.255,1.169-3.15,2.079c-0.896,0.91-1.61,2.03-2.142,3.36
		c-0.533,1.33-0.798,2.835-0.798,4.515v0.672c0,1.708,0.258,3.228,0.776,4.557c0.518,1.33,1.231,2.443,2.143,3.34
		c0.909,0.896,1.966,1.582,3.171,2.058c1.203,0.476,2.505,0.714,3.906,0.714c0.614,0,1.26-0.077,1.932-0.23
		c0.672-0.154,1.308-0.386,1.911-0.693c0.601-0.308,1.161-0.7,1.68-1.176c0.518-0.477,0.945-1.036,1.281-1.681h0.504V427.106z
		 M616.871,409.299h4.284v14.783h-4.788v3.024h13.355v-3.024h-5.292v-8.819c0-0.896,0.098-1.736,0.294-2.521
		c0.195-0.784,0.504-1.47,0.925-2.058c0.42-0.588,0.944-1.05,1.574-1.386s1.378-0.504,2.247-0.504c1.344,0,2.479,0.427,3.402,1.28
		c0.924,0.854,1.386,2.247,1.386,4.18l3.444-0.505c-0.084-2.632-0.771-4.634-2.059-6.006c-1.289-1.372-2.981-2.058-5.082-2.058
		c-1.26,0-2.381,0.272-3.359,0.819c-0.981,0.546-1.737,1.393-2.269,2.541h-0.504v-2.772h-7.56V409.299z M598.748,424.062
		c-0.855-0.35-1.604-0.861-2.247-1.533c-0.646-0.672-1.149-1.477-1.512-2.415c-0.365-0.938-0.546-1.995-0.546-3.171v-0.504
		c0-1.12,0.181-2.149,0.546-3.087c0.362-0.938,0.866-1.743,1.512-2.415c0.643-0.672,1.399-1.197,2.268-1.575
		c0.867-0.378,1.791-0.566,2.772-0.566c0.979,0,1.903,0.188,2.771,0.566c0.867,0.378,1.623,0.903,2.269,1.575
		c0.643,0.672,1.146,1.477,1.512,2.415c0.363,0.938,0.546,1.967,0.546,3.087v0.504c0,1.176-0.183,2.233-0.546,3.171
		c-0.365,0.938-0.869,1.743-1.512,2.415c-0.646,0.672-1.395,1.184-2.247,1.533c-0.855,0.35-1.785,0.525-2.793,0.525
		S599.601,424.411,598.748,424.062 M611.999,416.438c0-1.708-0.288-3.227-0.861-4.557c-0.575-1.33-1.344-2.457-2.31-3.382
		c-0.966-0.924-2.079-1.623-3.339-2.1c-1.261-0.476-2.577-0.714-3.948-0.714c-1.373,0-2.688,0.238-3.948,0.714
		c-1.26,0.477-2.373,1.176-3.339,2.1c-0.966,0.925-1.737,2.052-2.31,3.382c-0.575,1.33-0.861,2.849-0.861,4.557v0.504
		c0,1.736,0.286,3.27,0.861,4.599c0.572,1.33,1.336,2.45,2.289,3.36c0.95,0.91,2.058,1.604,3.317,2.079s2.589,0.714,3.99,0.714
		c1.371,0,2.694-0.238,3.969-0.714c1.273-0.476,2.386-1.169,3.339-2.079c0.951-0.91,1.714-2.03,2.289-3.36
		c0.573-1.329,0.861-2.862,0.861-4.599V416.438z M582.851,418.958c-0.113,0.729-0.33,1.429-0.651,2.101
		c-0.323,0.672-0.756,1.267-1.302,1.785c-0.546,0.518-1.205,0.938-1.974,1.26c-0.771,0.322-1.674,0.483-2.709,0.483
		c-1.037,0-2.003-0.176-2.898-0.525c-0.897-0.35-1.68-0.847-2.352-1.491c-0.672-0.644-1.197-1.435-1.575-2.373
		c-0.378-0.938-0.567-1.995-0.567-3.171v-0.504c0-1.12,0.189-2.156,0.567-3.108c0.378-0.951,0.903-1.771,1.575-2.457
		c0.672-0.686,1.449-1.218,2.331-1.596s1.827-0.566,2.835-0.566c1.035,0,1.945,0.153,2.73,0.462
		c0.783,0.308,1.449,0.721,1.995,1.238c0.546,0.519,0.979,1.12,1.302,1.807c0.321,0.686,0.525,1.393,0.609,2.121l3.276-0.757
		c-0.197-1.147-0.567-2.212-1.113-3.191c-0.546-0.98-1.247-1.827-2.1-2.541c-0.855-0.714-1.842-1.268-2.961-1.659
		c-1.121-0.392-2.339-0.588-3.654-0.588c-1.457,0-2.835,0.252-4.137,0.756c-1.302,0.504-2.444,1.218-3.423,2.142
		c-0.981,0.925-1.758,2.059-2.331,3.402c-0.575,1.344-0.861,2.856-0.861,4.536v0.504c0,1.708,0.286,3.22,0.861,4.536
		c0.573,1.316,1.35,2.429,2.331,3.339c0.979,0.91,2.121,1.604,3.423,2.079c1.302,0.476,2.68,0.714,4.137,0.714
		c1.371,0,2.617-0.196,3.738-0.588c1.119-0.392,2.1-0.945,2.94-1.659c0.84-0.714,1.533-1.561,2.079-2.541
		c0.546-0.979,0.93-2.044,1.155-3.191L582.851,418.958z M544.484,422.592c-1.247-1.33-1.869-3.186-1.869-5.565v-0.672
		c0-1.12,0.168-2.149,0.504-3.087c0.336-0.938,0.804-1.736,1.407-2.395c0.601-0.657,1.308-1.169,2.121-1.532
		c0.811-0.364,1.707-0.546,2.688-0.546c0.951,0,1.84,0.188,2.667,0.566c0.825,0.378,1.539,0.903,2.142,1.575
		c0.601,0.672,1.071,1.477,1.407,2.415c0.336,0.938,0.504,1.967,0.504,3.087v0.504c0,1.148-0.168,2.191-0.504,3.129
		c-0.336,0.938-0.798,1.743-1.386,2.415s-1.296,1.19-2.121,1.554c-0.827,0.364-1.73,0.547-2.709,0.547
		C547.346,424.587,545.729,423.922,544.484,422.592 M556.055,423.83c0,0.952,0.3,1.736,0.903,2.353
		c0.601,0.616,1.378,0.924,2.331,0.924h2.226v-3.024h-1.05c-0.756,0-1.134-0.42-1.134-1.26v-16.548h-3.276v3.276h-0.504
		c-0.672-1.316-1.59-2.289-2.751-2.919c-1.163-0.63-2.457-0.945-3.885-0.945c-1.317,0-2.562,0.238-3.738,0.714
		c-1.176,0.477-2.205,1.169-3.087,2.079c-0.882,0.91-1.575,2.023-2.079,3.339c-0.504,1.316-0.756,2.828-0.756,4.536v0.672
		c0,1.736,0.252,3.262,0.756,4.578c0.504,1.316,1.197,2.429,2.079,3.339c0.882,0.91,1.911,1.596,3.087,2.059
		c1.176,0.462,2.449,0.692,3.822,0.692c1.315,0,2.568-0.336,3.759-1.008c1.189-0.672,2.121-1.708,2.793-3.108h0.504V423.83z
		 M501.266,409.215c0.769,0.279,1.455,0.672,2.058,1.176c0.601,0.504,1.092,1.12,1.47,1.848c0.378,0.729,0.594,1.54,0.651,2.437
		h-13.44c0.111-0.841,0.357-1.617,0.735-2.331c0.378-0.714,0.867-1.337,1.47-1.869c0.601-0.532,1.302-0.945,2.1-1.239
		s1.659-0.44,2.583-0.44C499.704,408.795,500.495,408.935,501.266,409.215 M508.721,417.698v-2.688c0-0.924-0.189-1.933-0.567-3.024
		c-0.378-1.092-0.966-2.1-1.764-3.023c-0.798-0.925-1.821-1.701-3.066-2.331c-1.247-0.63-2.724-0.945-4.431-0.945
		c-1.457,0-2.808,0.259-4.053,0.777c-1.247,0.518-2.331,1.231-3.255,2.142s-1.646,1.995-2.163,3.255
		c-0.519,1.26-0.777,2.618-0.777,4.074v1.008c0,1.596,0.252,3.052,0.756,4.368s1.203,2.45,2.1,3.402
		c0.895,0.951,1.966,1.687,3.213,2.204c1.245,0.519,2.61,0.777,4.095,0.777c2.688,0,4.822-0.608,6.405-1.827
		c1.581-1.218,2.667-2.793,3.255-4.725l-3.108-0.84c-0.197,0.588-0.456,1.141-0.777,1.659c-0.323,0.518-0.743,0.973-1.26,1.364
		c-0.519,0.393-1.142,0.7-1.869,0.924c-0.729,0.225-1.583,0.337-2.562,0.337c-2.157,0-3.837-0.631-5.04-1.891
		c-1.205-1.26-1.848-2.926-1.932-4.998H508.721z M470.207,424.062c-0.84-0.35-1.575-0.854-2.205-1.512
		c-0.63-0.658-1.121-1.449-1.47-2.373c-0.351-0.924-0.525-1.975-0.525-3.15v-0.672c0-1.12,0.174-2.142,0.525-3.066
		c0.349-0.924,0.84-1.722,1.47-2.394s1.371-1.19,2.226-1.554c0.853-0.364,1.77-0.546,2.751-0.546c0.951,0,1.854,0.188,2.709,0.566
		c0.853,0.378,1.596,0.903,2.226,1.575s1.126,1.477,1.491,2.415c0.363,0.938,0.546,1.967,0.546,3.087v0.504
		c0,1.148-0.183,2.191-0.546,3.129c-0.365,0.938-0.861,1.743-1.491,2.415s-1.365,1.19-2.205,1.554
		c-0.84,0.364-1.751,0.547-2.73,0.547C471.971,424.587,471.047,424.411,470.207,424.062 M479.951,427.106h3.276v-29.4h-3.276v11.845
		h-0.504c-0.672-1.316-1.632-2.289-2.877-2.919c-1.247-0.63-2.583-0.945-4.011-0.945c-1.344,0-2.619,0.238-3.822,0.714
		c-1.205,0.477-2.255,1.169-3.15,2.079c-0.897,0.91-1.611,2.03-2.142,3.36c-0.533,1.33-0.798,2.835-0.798,4.515v0.672
		c0,1.708,0.258,3.228,0.777,4.557c0.517,1.33,1.231,2.443,2.142,3.34c0.909,0.896,1.966,1.582,3.171,2.058
		c1.203,0.476,2.505,0.714,3.906,0.714c0.615,0,1.26-0.077,1.932-0.23c0.672-0.154,1.308-0.386,1.911-0.693
		c0.601-0.308,1.161-0.7,1.68-1.176c0.517-0.477,0.945-1.036,1.281-1.681h0.504V427.106z M415.964,422.592
		c-1.246-1.33-1.869-3.186-1.869-5.565v-0.672c0-1.12,0.168-2.149,0.504-3.087c0.336-0.938,0.804-1.736,1.407-2.395
		c0.601-0.657,1.308-1.169,2.121-1.532c0.812-0.364,1.707-0.546,2.688-0.546c0.951,0,1.84,0.188,2.667,0.566
		c0.825,0.378,1.539,0.903,2.142,1.575c0.602,0.672,1.071,1.477,1.407,2.415c0.336,0.938,0.504,1.967,0.504,3.087v0.504
		c0,1.148-0.168,2.191-0.504,3.129c-0.336,0.938-0.798,1.743-1.386,2.415s-1.296,1.19-2.121,1.554
		c-0.827,0.364-1.73,0.547-2.709,0.547C418.826,424.587,417.209,423.922,415.964,422.592 M427.535,423.83
		c0,0.952,0.3,1.736,0.903,2.353c0.601,0.616,1.379,0.924,2.331,0.924h2.226v-3.024h-1.05c-0.756,0-1.134-0.42-1.134-1.26v-16.548
		h-3.276v3.276h-0.504c-0.672-1.316-1.59-2.289-2.751-2.919c-1.163-0.63-2.457-0.945-3.885-0.945c-1.317,0-2.562,0.238-3.738,0.714
		c-1.176,0.477-2.205,1.169-3.087,2.079c-0.882,0.91-1.575,2.023-2.079,3.339c-0.504,1.316-0.756,2.828-0.756,4.536v0.672
		c0,1.736,0.252,3.262,0.756,4.578c0.504,1.316,1.197,2.429,2.079,3.339c0.882,0.91,1.911,1.596,3.087,2.059
		c1.176,0.462,2.449,0.692,3.822,0.692c1.315,0,2.568-0.336,3.759-1.008c1.189-0.672,2.121-1.708,2.793-3.108h0.504V423.83z
		 M385.535,409.299h4.284v14.783h-4.788v3.024h13.356v-3.024h-5.292v-8.819c0-0.896,0.097-1.736,0.294-2.521
		c0.195-0.784,0.504-1.47,0.924-2.058s0.945-1.05,1.575-1.386c0.63-0.336,1.379-0.504,2.247-0.504c1.344,0,2.478,0.427,3.402,1.28
		c0.924,0.854,1.386,2.247,1.386,4.18l3.444-0.505c-0.084-2.632-0.771-4.634-2.058-6.006c-1.289-1.372-2.982-2.058-5.082-2.058
		c-1.26,0-2.38,0.272-3.36,0.819c-0.981,0.546-1.737,1.393-2.268,2.541h-0.504v-2.772h-7.56V409.299z M367.769,424.04
		c-0.84-0.363-1.575-0.882-2.205-1.554s-1.128-1.477-1.491-2.415c-0.364-0.938-0.546-1.98-0.546-3.129v-0.504
		c0-1.12,0.182-2.149,0.546-3.087c0.363-0.938,0.861-1.743,1.491-2.415s1.365-1.197,2.205-1.575s1.749-0.566,2.73-0.566
		c0.98,0,1.896,0.182,2.751,0.546c0.854,0.363,1.596,0.875,2.226,1.532c0.63,0.658,1.119,1.442,1.47,2.353
		c0.35,0.91,0.525,1.925,0.525,3.045v0.84c0,1.148-0.175,2.185-0.525,3.108c-0.351,0.924-0.84,1.708-1.47,2.352
		c-0.63,0.645-1.365,1.142-2.205,1.491s-1.764,0.525-2.772,0.525C369.518,424.587,368.609,424.404,367.769,424.04 M363.527,423.914
		h0.504c0.363,0.645,0.812,1.197,1.344,1.659c0.531,0.462,1.113,0.854,1.743,1.176c0.63,0.322,1.295,0.561,1.995,0.715
		c0.699,0.153,1.386,0.23,2.058,0.23c1.316,0,2.562-0.23,3.738-0.692c1.176-0.463,2.205-1.142,3.087-2.037
		c0.882-0.896,1.575-2.002,2.079-3.318c0.504-1.316,0.756-2.828,0.756-4.536v-0.84c0-1.68-0.259-3.178-0.777-4.494
		c-0.519-1.315-1.218-2.422-2.1-3.318c-0.882-0.896-1.897-1.581-3.045-2.058c-1.149-0.476-2.367-0.714-3.654-0.714
		c-1.512,0-2.913,0.329-4.2,0.987c-1.288,0.657-2.296,1.616-3.024,2.877h-0.504v-11.845h-3.276v29.4h3.276V423.914z
		 M341.708,424.062c-0.855-0.35-1.603-0.861-2.247-1.533c-0.645-0.672-1.149-1.477-1.512-2.415
		c-0.364-0.938-0.546-1.995-0.546-3.171v-0.504c0-1.12,0.182-2.149,0.546-3.087c0.363-0.938,0.867-1.743,1.512-2.415
		c0.644-0.672,1.4-1.197,2.268-1.575c0.867-0.378,1.791-0.566,2.772-0.566c0.98,0,1.904,0.188,2.772,0.566
		c0.867,0.378,1.623,0.903,2.268,1.575c0.644,0.672,1.148,1.477,1.512,2.415c0.363,0.938,0.546,1.967,0.546,3.087v0.504
		c0,1.176-0.183,2.233-0.546,3.171c-0.364,0.938-0.868,1.743-1.512,2.415c-0.645,0.672-1.393,1.184-2.247,1.533
		c-0.855,0.35-1.785,0.525-2.793,0.525S342.562,424.411,341.708,424.062 M354.959,416.438c0-1.708-0.288-3.227-0.861-4.557
		c-0.574-1.33-1.344-2.457-2.31-3.382c-0.966-0.924-2.079-1.623-3.339-2.1c-1.26-0.476-2.577-0.714-3.948-0.714
		c-1.372,0-2.688,0.238-3.948,0.714c-1.26,0.477-2.373,1.176-3.339,2.1c-0.966,0.925-1.737,2.052-2.31,3.382
		c-0.574,1.33-0.861,2.849-0.861,4.557v0.504c0,1.736,0.287,3.27,0.861,4.599c0.573,1.33,1.337,2.45,2.289,3.36
		c0.951,0.91,2.058,1.604,3.318,2.079c1.26,0.476,2.589,0.714,3.99,0.714c1.371,0,2.694-0.238,3.969-0.714
		c1.274-0.476,2.387-1.169,3.339-2.079c0.951-0.91,1.715-2.03,2.289-3.36c0.573-1.329,0.861-2.862,0.861-4.599V416.438z
		 M287.444,422.592c-1.246-1.33-1.869-3.186-1.869-5.565v-0.672c0-1.12,0.168-2.149,0.504-3.087
		c0.336-0.938,0.804-1.736,1.407-2.395c0.602-0.657,1.308-1.169,2.121-1.532c0.812-0.364,1.707-0.546,2.688-0.546
		c0.951,0,1.841,0.188,2.667,0.566c0.825,0.378,1.539,0.903,2.142,1.575c0.602,0.672,1.071,1.477,1.407,2.415
		c0.336,0.938,0.504,1.967,0.504,3.087v0.504c0,1.148-0.168,2.191-0.504,3.129c-0.336,0.938-0.798,1.743-1.386,2.415
		s-1.296,1.19-2.121,1.554c-0.826,0.364-1.729,0.547-2.709,0.547C290.306,424.587,288.689,423.922,287.444,422.592 M299.015,423.83
		c0,0.952,0.3,1.736,0.903,2.353c0.602,0.616,1.379,0.924,2.331,0.924h2.226v-3.024h-1.05c-0.756,0-1.134-0.42-1.134-1.26v-16.548
		h-3.276v3.276h-0.504c-0.672-1.316-1.59-2.289-2.751-2.919c-1.162-0.63-2.457-0.945-3.885-0.945c-1.317,0-2.562,0.238-3.738,0.714
		c-1.176,0.477-2.205,1.169-3.087,2.079c-0.882,0.91-1.575,2.023-2.079,3.339c-0.504,1.316-0.756,2.828-0.756,4.536v0.672
		c0,1.736,0.252,3.262,0.756,4.578c0.504,1.316,1.197,2.429,2.079,3.339c0.882,0.91,1.911,1.596,3.087,2.059
		c1.176,0.462,2.45,0.692,3.822,0.692c1.316,0,2.568-0.336,3.759-1.008c1.19-0.672,2.121-1.708,2.793-3.108h0.504V423.83z
		 M264.575,424.062c-0.84-0.35-1.575-0.854-2.205-1.512c-0.63-0.658-1.12-1.449-1.47-2.373c-0.351-0.924-0.525-1.975-0.525-3.15
		v-0.672c0-1.12,0.174-2.142,0.525-3.066c0.35-0.924,0.84-1.722,1.47-2.394s1.371-1.19,2.226-1.554
		c0.854-0.364,1.77-0.546,2.751-0.546c0.951,0,1.854,0.188,2.709,0.566c0.854,0.378,1.596,0.903,2.226,1.575
		c0.63,0.672,1.127,1.477,1.491,2.415c0.363,0.938,0.546,1.967,0.546,3.087v0.504c0,1.148-0.183,2.191-0.546,3.129
		c-0.364,0.938-0.861,1.743-1.491,2.415c-0.63,0.672-1.365,1.19-2.205,1.554c-0.84,0.364-1.75,0.547-2.73,0.547
		C266.339,424.587,265.415,424.411,264.575,424.062 M274.319,427.106h3.276v-29.4h-3.276v11.845h-0.504
		c-0.672-1.316-1.632-2.289-2.877-2.919c-1.246-0.63-2.583-0.945-4.011-0.945c-1.344,0-2.619,0.238-3.822,0.714
		c-1.204,0.477-2.254,1.169-3.15,2.079c-0.897,0.91-1.611,2.03-2.142,3.36c-0.532,1.33-0.798,2.835-0.798,4.515v0.672
		c0,1.708,0.258,3.228,0.777,4.557c0.518,1.33,1.232,2.443,2.142,3.34c0.909,0.896,1.967,1.582,3.171,2.058
		c1.203,0.476,2.505,0.714,3.906,0.714c0.615,0,1.26-0.077,1.932-0.23c0.672-0.154,1.308-0.386,1.911-0.693
		c0.602-0.308,1.161-0.7,1.68-1.176c0.518-0.477,0.945-1.036,1.281-1.681h0.504V427.106z M210.332,422.592
		c-1.246-1.33-1.869-3.186-1.869-5.565v-0.672c0-1.12,0.168-2.149,0.504-3.087c0.336-0.938,0.804-1.736,1.407-2.395
		c0.602-0.657,1.308-1.169,2.121-1.532c0.812-0.364,1.707-0.546,2.688-0.546c0.951,0,1.841,0.188,2.667,0.566
		c0.825,0.378,1.539,0.903,2.142,1.575c0.602,0.672,1.071,1.477,1.407,2.415c0.336,0.938,0.504,1.967,0.504,3.087v0.504
		c0,1.148-0.168,2.191-0.504,3.129c-0.336,0.938-0.798,1.743-1.386,2.415c-0.588,0.672-1.296,1.19-2.121,1.554
		c-0.826,0.364-1.729,0.547-2.709,0.547C213.194,424.587,211.577,423.922,210.332,422.592 M221.903,423.83
		c0,0.952,0.3,1.736,0.903,2.353c0.602,0.616,1.379,0.924,2.331,0.924h2.226v-3.024h-1.05c-0.756,0-1.134-0.42-1.134-1.26v-16.548
		h-3.276v3.276h-0.504c-0.672-1.316-1.59-2.289-2.751-2.919c-1.162-0.63-2.457-0.945-3.885-0.945c-1.317,0-2.562,0.238-3.738,0.714
		c-1.176,0.477-2.205,1.169-3.087,2.079s-1.575,2.023-2.079,3.339c-0.504,1.316-0.756,2.828-0.756,4.536v0.672
		c0,1.736,0.252,3.262,0.756,4.578s1.197,2.429,2.079,3.339s1.911,1.596,3.087,2.059c1.176,0.462,2.45,0.692,3.822,0.692
		c1.316,0,2.568-0.336,3.759-1.008c1.19-0.672,2.121-1.708,2.793-3.108h0.504V423.83z M179.903,409.299h4.284v14.783h-4.788v3.024
		h13.356v-3.024h-5.292v-8.819c0-0.896,0.098-1.736,0.294-2.521c0.195-0.784,0.504-1.47,0.924-2.058
		c0.42-0.588,0.945-1.05,1.575-1.386s1.379-0.504,2.247-0.504c1.344,0,2.478,0.427,3.402,1.28c0.924,0.854,1.386,2.247,1.386,4.18
		l3.444-0.505c-0.084-2.632-0.771-4.634-2.058-6.006c-1.288-1.372-2.982-2.058-5.082-2.058c-1.26,0-2.38,0.272-3.36,0.819
		c-0.981,0.546-1.737,1.393-2.268,2.541h-0.504v-2.772h-7.56V409.299z M170.243,417.11c0,2.269-0.567,4.081-1.701,5.439
		c-1.134,1.357-2.695,2.037-4.683,2.037c-1.848,0-3.22-0.505-4.116-1.513c-0.897-1.008-1.344-2.604-1.344-4.788v-12.012h-3.276
		v12.432c0,1.484,0.189,2.786,0.567,3.906s0.909,2.059,1.596,2.814c0.686,0.756,1.512,1.322,2.478,1.701
		c0.966,0.378,2.022,0.566,3.171,0.566c1.68,0,3.066-0.392,4.158-1.176c1.092-0.784,1.974-1.848,2.646-3.192h0.504v3.78h3.276
		v-20.832h-3.276V417.11z M128.957,409.299h6.552v14.531c0,0.952,0.301,1.736,0.903,2.353s1.379,0.924,2.331,0.924h7.098v-3.024
		h-5.922c-0.756,0-1.134-0.42-1.134-1.26v-13.523h8.064v-3.024h-8.064v-8.568h-3.276v8.568h-6.552V409.299z M104.471,427.106h17.388
		v-3.024h-6.804v-17.808h-9.828v3.024h6.552v14.783h-7.308V427.106z M111.296,402.138c0.574,0.574,1.267,0.86,2.079,0.86
		s1.505-0.286,2.079-0.86c0.574-0.574,0.861-1.268,0.861-2.079c0-0.812-0.287-1.505-0.861-2.079
		c-0.574-0.574-1.267-0.861-2.079-0.861s-1.505,0.287-2.079,0.861c-0.574,0.574-0.861,1.267-0.861,2.079
		C110.435,400.87,110.722,401.563,111.296,402.138 M90.002,409.215c0.77,0.279,1.456,0.672,2.058,1.176s1.092,1.12,1.47,1.848
		c0.378,0.729,0.595,1.54,0.651,2.437h-13.44c0.112-0.841,0.357-1.617,0.735-2.331s0.868-1.337,1.47-1.869s1.302-0.945,2.1-1.239
		s1.659-0.44,2.583-0.44C88.441,408.795,89.232,408.935,90.002,409.215 M97.457,417.698v-2.688c0-0.924-0.189-1.933-0.567-3.024
		s-0.966-2.1-1.764-3.023c-0.798-0.925-1.82-1.701-3.066-2.331s-2.723-0.945-4.431-0.945c-1.456,0-2.807,0.259-4.053,0.777
		c-1.246,0.518-2.331,1.231-3.255,2.142c-0.924,0.91-1.645,1.995-2.163,3.255c-0.518,1.26-0.777,2.618-0.777,4.074v1.008
		c0,1.596,0.252,3.052,0.756,4.368c0.504,1.316,1.204,2.45,2.1,3.402c0.896,0.951,1.967,1.687,3.213,2.204
		c1.246,0.519,2.611,0.777,4.095,0.777c2.688,0,4.823-0.608,6.405-1.827c1.582-1.218,2.667-2.793,3.255-4.725l-3.108-0.84
		c-0.196,0.588-0.455,1.141-0.777,1.659c-0.322,0.518-0.742,0.973-1.26,1.364c-0.518,0.393-1.141,0.7-1.869,0.924
		c-0.728,0.225-1.582,0.337-2.562,0.337c-2.156,0-3.836-0.631-5.04-1.891s-1.848-2.926-1.932-4.998H97.457z M52.559,427.106h18.9
		v-3.276H56.087v-26.124h-3.528V427.106z"/>
</g>
<path fill="#0046FA" d="M795.333,361.031v24.783l167.085-5.197l-71.949,108.725l0.399,0.4l235.038-115.92v-0.799L890.868,257.901
	l-0.8,0.4l72.35,108.726L795.333,361.031z M987.602,373.822h105.526l-161.487,79.545L987.602,373.822z"/>
<line fill="none" stroke="#0046FA" stroke-width="1.991" x1="769.31" y1="210.658" x2="1151.549" y2="210.658"/>
<line fill="none" stroke="#0046FA" stroke-width="1.991" x1="22.044" y1="364.824" x2="737.839" y2="364.824"/>
<line fill="none" stroke="#0046FA" stroke-width="1.991" x1="757.84" y1="25.347" x2="757.84" y2="499.347"/>
<line fill="none" stroke="#0046FA" stroke-width="2" x1="386.439" y1="26.402" x2="386.439" y2="344.291"/>
<polygon fill="#231F20" points="39.833,321.342 346.545,321.342 346.545,212.298 332.66,212.298 281.405,305.21 216.468,305.21 
	216.468,47.915 252,47.915 252,31.987 39.833,31.987 39.833,47.915 75.568,47.915 75.568,305.21 39.833,305.21 "/>
<g>
	<defs>
		<rect id="SVGID_43_" width="1170.088" height="525.039"/>
	</defs>
	<clipPath id="SVGID_6_">
		<use xlink:href="#SVGID_43_"  overflow="visible"/>
	</clipPath>
	<path clip-path="url(#SVGID_6_)" fill="#231F20" d="M698.779,284.569c-5.74,0-10.397,1.795-13.979,5.377
		c-3.589,3.59-5.377,8.246-5.377,13.979c0,5.739,1.788,10.396,5.377,13.979c3.582,3.582,8.239,5.377,13.979,5.377
		c5.731,0,10.39-1.795,13.979-5.377c3.582-3.582,5.376-8.239,5.376-13.979c0-5.733-1.794-10.39-5.376-13.979
		C709.169,286.364,704.511,284.569,698.779,284.569 M548.67,300.484V35.958h-18.925c-4.88,8.031-13.193,16.203-24.948,24.517
		c-11.761,8.321-24.302,15.633-37.636,21.937c-13.333,6.312-24.449,10.612-33.334,12.904l6.021,19.785
		c15.196-4.301,31.037-11.109,47.529-20.431c16.486-9.315,30.035-19.57,40.647-30.755c-0.578,13.765-0.86,23.947-0.86,30.539v206.03
		h-89.036v19.356h190.545v-19.356H548.67z"/>
</g>
</svg>
