<?xml version="1.0" encoding="utf-8"?>
<!-- Generator: Adobe Illustrator 16.0.0, SVG Export Plug-In . SVG Version: 6.00 Build 0)  -->
<!DOCTYPE svg PUBLIC "-//W3C//DTD SVG 1.1//EN" "http://www.w3.org/Graphics/SVG/1.1/DTD/svg11.dtd">
<svg version="1.1" id="Layer_1" xmlns="http://www.w3.org/2000/svg" xmlns:xlink="http://www.w3.org/1999/xlink" x="0px" y="0px"
	 width="1170.09px" height="492.17px" viewBox="0 0 1170.09 492.17" enable-background="new 0 0 1170.09 492.17"
	 xml:space="preserve">
<line fill="none" stroke="#231F20" stroke-width="2" x1="25.877" y1="392" x2="1144.043" y2="392"/>
<line fill="none" stroke="#231F20" stroke-width="2" x1="25.877" y1="181" x2="799.043" y2="181"/>
<line fill="none" stroke="#231F20" stroke-width="2" x1="820.043" y1="25.499" x2="820.043" y2="370.999"/>
<line fill="none" stroke="#231F20" stroke-width="2" x1="412.459" y1="202.776" x2="412.459" y2="370.999"/>
<path fill="#FF1419" d="M505.102,283.078v16.331l110.102-3.424l-47.412,71.644l0.264,0.264l154.879-76.386v-0.527l-154.879-75.858
	l-0.526,0.264l47.675,71.645L505.102,283.078z M631.797,291.507h69.537L594.92,343.923L631.797,291.507z"/>
<g>
	<defs>
		<rect id="SVGID_69_" width="1170.088" height="492.17"/>
	</defs>
	<clipPath id="SVGID_2_">
		<use xlink:href="#SVGID_69_"  overflow="visible"/>
	</clipPath>
	<path clip-path="url(#SVGID_2_)" fill="#FF1419" d="M707.074,104.624l11.959-31.2h0.26l11.961,31.2H707.074z M707.854,40.274
		l-43.289,107.25h26.26l7.93-21.451h40.82l7.93,21.451h26.26l-43.289-107.25H707.854z M596.184,61.724v85.801h24.44V61.724h25.479
		V40.274h-75.4v21.449H596.184z M516.362,147.524h24.44V40.274h-24.44V147.524z M420.424,59.774h2.86
		c2.253,0,4.159,0.045,5.72,0.129c1.561,0.088,3.336,0.391,5.33,0.91c1.992,0.521,3.596,1.258,4.811,2.211
		c1.213,0.955,2.252,2.34,3.119,4.159c0.865,1.82,1.301,4.03,1.301,6.63c0,2.601-0.436,4.811-1.301,6.631
		c-0.867,1.819-1.906,3.207-3.119,4.16c-1.215,0.954-2.818,1.689-4.811,2.209c-1.994,0.521-3.77,0.825-5.33,0.91
		c-1.561,0.088-3.467,0.131-5.72,0.131h-2.86V59.774z M395.984,147.524h24.439v-42.381l32.76,42.381h31.07l-36.92-44.33
		c6.76-2.166,12.109-5.916,16.055-11.246c3.943-5.33,5.916-11.938,5.916-19.824c0-10.225-3.25-18.09-9.75-23.596
		c-6.5-5.502-14.908-8.254-25.221-8.254h-38.35V147.524z M301.67,115.739c-6.109-6.455-9.164-13.758-9.164-21.905
		c0-3.726,0.715-7.388,2.145-10.985c1.43-3.595,3.51-6.955,6.24-10.074c2.729-3.121,6.434-5.634,11.115-7.541
		c4.68-1.904,9.965-2.859,15.859-2.859c3.725,0,7.41,0.607,11.05,1.82c3.64,1.215,6.065,2.189,7.28,2.924
		c1.213,0.738,2.123,1.365,2.73,1.886l10.398-20.8l-3.639-2.471c-2.428-1.645-6.566-3.293-12.416-4.939
		c-5.85-1.645-12.241-2.471-19.174-2.471c-7.455,0-14.736,1.476-21.84,4.42c-7.107,2.947-13.326,6.891-18.656,11.83
		c-5.33,4.94-9.6,10.877-12.805,17.811c-3.207,6.936-4.811,14.17-4.811,21.71c0,9.968,2.73,19.24,8.191,27.82
		c5.459,8.579,12.652,15.319,21.58,20.215c8.924,4.897,18.373,7.345,28.34,7.345c4.332,0,8.535-0.347,12.609-1.04
		c4.073-0.694,7.365-1.473,9.88-2.34c2.513-0.864,4.874-1.885,7.085-3.055c2.211-1.171,3.617-1.97,4.225-2.405
		c0.606-0.434,1.084-0.779,1.43-1.04l-10.398-20.8l-2.471,1.689c-1.646,1.041-4.225,2.125-7.734,3.25
		c-3.512,1.127-7.131,1.69-10.855,1.69C316.512,125.424,307.78,122.196,301.67,115.739 M175.506,47.489
		c-7.107,6.109-10.66,13.975-10.66,23.595c0,5.547,1.775,10.725,5.33,15.534c3.553,4.811,8.58,8.82,15.08,12.025
		c1.56,0.78,3.965,1.93,7.215,3.445c3.25,1.518,5.59,2.645,7.02,3.38c1.43,0.737,3.076,1.735,4.939,2.99
		c1.863,1.257,3.164,2.515,3.9,3.771s1.105,2.621,1.105,4.094c0,7.021-5.157,10.531-15.471,10.531
		c-3.555,0-7.648-1.125-12.285-3.381c-4.637-2.253-7.864-4.05-9.685-5.395c-1.819-1.344-3.25-2.448-4.29-3.315l-12.221,20.54
		l1.691,1.43c1.125,0.955,2.902,2.125,5.33,3.51c2.426,1.388,5.155,2.796,8.189,4.226c3.033,1.431,6.803,2.622,11.311,3.575
		c4.506,0.953,9.1,1.43,13.779,1.43c5.46,0,10.53-0.63,15.21-1.885c4.681-1.255,8.948-3.186,12.806-5.785
		c3.855-2.6,6.89-6.195,9.1-10.79c2.209-4.593,3.314-9.965,3.314-16.12c0-6.412-2.449-12.154-7.346-17.225
		s-10.811-9.078-17.744-12.025c-3.986-1.732-6.934-3.033-8.84-3.9c-1.906-0.864-4.117-2.014-6.631-3.444s-4.289-2.772-5.33-4.03
		c-1.039-1.255-1.559-2.619-1.559-4.095c0-2.944,1.104-5.285,3.314-7.021c2.209-1.732,5.352-2.6,9.426-2.6
		c3.293,0,6.846,0.695,10.659,2.08c3.813,1.387,6.413,2.492,7.8,3.314c1.387,0.826,2.471,1.496,3.25,2.016l9.881-19.5l-3.9-2.6
		c-2.688-1.646-6.805-3.315-12.35-5.006c-5.547-1.689-11.225-2.535-17.03-2.535C190.715,38.323,182.611,41.379,175.506,47.489
		 M57.598,40.274v107.25h61.359v-21.451h-36.92v-21.58h35.359V83.044H82.037v-21.32h36.92V40.274H57.598z"/>
	<polygon clip-path="url(#SVGID_2_)" fill="none" stroke="#231F20" stroke-width="1.998" points="0.998,3 0.998,489.17 
		0.998,491.172 3,491.172 1167.086,491.172 1169.088,491.172 1169.088,489.17 1169.088,3 1169.088,0.998 1167.086,0.998 3,0.998 
		0.998,0.998 	"/>
</g>
<rect x="5.001" y="5.002" fill="none" stroke="#231F20" stroke-width="1.998" width="1160.085" height="482.166"/>
<g>
	<defs>
		<rect id="SVGID_71_" width="1170.088" height="492.17"/>
	</defs>
	<clipPath id="SVGID_4_">
		<use xlink:href="#SVGID_71_"  overflow="visible"/>
	</clipPath>
	<path clip-path="url(#SVGID_4_)" fill="#231F20" d="M1112.12,437.419c0.426-0.306,1.065-0.46,1.92-0.46
		c0.933,0,1.692,0.207,2.28,0.62c0.586,0.414,1,0.98,1.238,1.7l4.562-1.84c-0.214-0.561-0.521-1.141-0.92-1.74
		s-0.92-1.146-1.562-1.64c-0.639-0.493-1.42-0.894-2.338-1.2c-0.922-0.307-2.008-0.46-3.261-0.46c-0.96,0-1.896,0.134-2.8,0.399
		c-0.907,0.268-1.707,0.66-2.4,1.181c-0.695,0.52-1.254,1.153-1.68,1.899c-0.428,0.747-0.641,1.614-0.641,2.601v0.239
		c0,1.895,0.66,3.327,1.98,4.301s3.1,1.554,5.34,1.739c0.826,0.08,1.512,0.188,2.061,0.32c0.545,0.134,0.979,0.3,1.3,0.5
		c0.319,0.2,0.54,0.414,0.659,0.64c0.12,0.228,0.181,0.475,0.181,0.74c0,0.454-0.234,0.874-0.7,1.26
		c-0.467,0.388-1.328,0.58-2.58,0.58c-1.414,0-2.459-0.319-3.14-0.96c-0.681-0.64-1.128-1.386-1.34-2.239l-4.642,1.52
		c0.135,0.694,0.395,1.407,0.781,2.14c0.386,0.734,0.939,1.4,1.66,2c0.721,0.601,1.625,1.101,2.721,1.5
		c1.092,0.4,2.412,0.601,3.959,0.601c2.613,0,4.641-0.586,6.08-1.76c1.44-1.174,2.16-2.746,2.16-4.721v-0.239
		c0-1.786-0.641-3.181-1.92-4.181s-2.936-1.605-4.96-1.819c-1.761-0.187-2.976-0.421-3.641-0.7c-0.667-0.28-1-0.74-1-1.38
		C1111.479,438.106,1111.693,437.727,1112.12,437.419 M1087.76,448.199c-0.64-0.24-1.201-0.586-1.68-1.04
		c-0.48-0.453-0.861-1.006-1.141-1.66c-0.279-0.652-0.42-1.393-0.42-2.22v-0.8c0-0.826,0.141-1.566,0.42-2.221
		c0.279-0.652,0.66-1.206,1.141-1.659c0.479-0.453,1.04-0.801,1.68-1.04c0.641-0.24,1.32-0.36,2.041-0.36
		c0.719,0,1.399,0.12,2.039,0.36c0.64,0.239,1.2,0.587,1.68,1.04c0.48,0.453,0.859,1.007,1.141,1.659
		c0.279,0.654,0.42,1.395,0.42,2.221v0.8c0,0.827-0.141,1.567-0.42,2.22c-0.281,0.654-0.66,1.207-1.141,1.66
		c-0.479,0.454-1.04,0.8-1.68,1.04s-1.32,0.36-2.039,0.36C1089.08,448.56,1088.4,448.439,1087.76,448.199 M1100.12,442.64
		c0-1.626-0.28-3.073-0.84-4.341c-0.562-1.266-1.32-2.34-2.28-3.22s-2.061-1.546-3.3-2c-1.241-0.453-2.54-0.68-3.899-0.68
		c-1.361,0-2.662,0.227-3.9,0.68c-1.24,0.454-2.342,1.12-3.301,2c-0.961,0.88-1.721,1.954-2.279,3.22
		c-0.561,1.268-0.841,2.715-0.841,4.341v0.479c0,1.654,0.28,3.114,0.841,4.38c0.559,1.268,1.318,2.334,2.279,3.2
		c0.959,0.867,2.061,1.527,3.301,1.98c1.238,0.452,2.539,0.68,3.9,0.68c1.359,0,2.658-0.228,3.899-0.68
		c1.239-0.453,2.34-1.113,3.3-1.98c0.96-0.866,1.719-1.933,2.28-3.2c0.56-1.266,0.84-2.726,0.84-4.38V442.64z M1055.639,437.759
		h5.881v11.921c0,0.906,0.286,1.653,0.859,2.239c0.574,0.587,1.314,0.88,2.221,0.88h8.4v-4.8h-5.361c-0.719,0-1.08-0.399-1.08-1.2
		v-9.04h7.16v-4.8h-7.16v-8.16h-5.039v8.16h-5.881V437.759z M1036.76,442.479c0-1.681,0.365-3.021,1.1-4.021s1.848-1.5,3.341-1.5
		c1.28,0,2.259,0.407,2.938,1.221c0.682,0.813,1.021,1.927,1.021,3.34v11.279h5.04v-12.56c0-1.36-0.181-2.533-0.54-3.521
		c-0.359-0.985-0.859-1.8-1.5-2.439s-1.38-1.113-2.221-1.42c-0.84-0.307-1.739-0.46-2.699-0.46c-1.361,0-2.547,0.307-3.561,0.92
		c-1.014,0.614-1.746,1.479-2.199,2.6h-0.721v-2.96h-5.041v19.84h5.041V442.479z M1019.62,437.879c0.839,0.614,1.341,1.388,1.5,2.32
		h-9.36c0.24-0.853,0.76-1.606,1.561-2.26c0.8-0.653,1.84-0.98,3.119-0.98S1018.78,437.267,1019.62,437.879 M1026.24,444.52v-2.681
		c0-1.04-0.188-2.112-0.561-3.22c-0.374-1.105-0.961-2.12-1.76-3.04c-0.8-0.92-1.814-1.68-3.041-2.28
		c-1.227-0.6-2.693-0.899-4.398-0.899c-1.387,0-2.688,0.247-3.9,0.74s-2.274,1.18-3.18,2.06c-0.908,0.88-1.62,1.947-2.141,3.2
		c-0.52,1.254-0.779,2.64-0.779,4.16v0.239c0,1.654,0.244,3.135,0.738,4.44c0.494,1.307,1.188,2.414,2.082,3.32
		c0.893,0.906,1.952,1.6,3.18,2.08c1.225,0.479,2.586,0.72,4.078,0.72c1.307,0,2.447-0.147,3.422-0.44
		c0.973-0.293,1.8-0.666,2.479-1.12c0.68-0.452,1.234-0.952,1.661-1.5c0.426-0.546,0.759-1.072,1-1.58l-4.319-2.399
		c-0.295,0.614-0.775,1.14-1.441,1.58c-0.666,0.439-1.627,0.66-2.879,0.66c-0.641,0-1.246-0.101-1.82-0.301
		c-0.574-0.199-1.08-0.479-1.521-0.84c-0.438-0.359-0.787-0.786-1.039-1.279c-0.254-0.493-0.395-1.033-0.42-1.62H1026.24z
		 M1002.68,437.439c0-1.573-0.399-2.807-1.199-3.7c-0.801-0.893-1.867-1.34-3.2-1.34c-1.015,0-1.86,0.233-2.54,0.7
		c-0.682,0.467-1.127,1.06-1.34,1.779h-0.721c-0.213-0.72-0.627-1.312-1.24-1.779c-0.611-0.467-1.359-0.7-2.239-0.7
		c-0.935,0-1.688,0.233-2.261,0.7s-0.939,1.06-1.1,1.779h-0.72v-1.92h-5.04v19.84h5.04v-13.68c0-0.64,0.16-1.12,0.479-1.439
		c0.32-0.32,0.721-0.48,1.201-0.48c0.425,0,0.793,0.14,1.1,0.42c0.305,0.28,0.459,0.7,0.459,1.26v13.92h5.041v-13.68
		c0-0.64,0.152-1.12,0.459-1.439c0.307-0.32,0.727-0.48,1.261-0.48c0.452,0,0.819,0.14,1.099,0.42c0.281,0.28,0.42,0.7,0.42,1.26
		v13.92h5.041V437.439z M963.34,447.1c-0.973-0.974-1.461-2.301-1.461-3.98v-0.479c0-1.681,0.488-3.007,1.461-3.98
		c0.973-0.973,2.246-1.46,3.82-1.46c1.572,0,2.848,0.5,3.82,1.5s1.459,2.314,1.459,3.94v0.479c0,1.627-0.486,2.94-1.459,3.94
		s-2.248,1.5-3.82,1.5C965.586,448.56,964.312,448.073,963.34,447.1 M972.439,454.799c0,0.801-0.359,1.2-1.08,1.2H961.04v4.8h13.36
		c0.905,0,1.646-0.294,2.22-0.88c0.573-0.587,0.86-1.334,0.86-2.239v-24.721h-5.041v2.88h-0.721
		c-0.533-1.093-1.266-1.939-2.199-2.54c-0.934-0.6-2.199-0.899-3.801-0.899c-1.199,0-2.34,0.227-3.418,0.68
		c-1.082,0.454-2.027,1.114-2.842,1.98c-0.812,0.866-1.451,1.927-1.919,3.18c-0.468,1.254-0.7,2.68-0.7,4.28v0.72
		c0,1.627,0.219,3.067,0.66,4.32c0.439,1.254,1.053,2.313,1.84,3.18c0.785,0.867,1.706,1.52,2.76,1.96
		c1.053,0.44,2.193,0.66,3.42,0.66c0.961,0,1.781-0.094,2.461-0.28s1.266-0.439,1.76-0.76s0.893-0.687,1.199-1.101
		c0.307-0.412,0.568-0.846,0.779-1.3h0.721V454.799z M938.639,447.1c-0.879-0.974-1.318-2.301-1.318-3.98v-0.479
		c0-1.681,0.439-3.007,1.318-3.98c0.881-0.973,2.055-1.46,3.521-1.46c1.465,0,2.641,0.487,3.52,1.46c0.879,0.974,1.32,2.3,1.32,3.98
		v0.479c0,1.68-0.441,3.007-1.32,3.98s-2.055,1.46-3.52,1.46C940.693,448.56,939.52,448.073,938.639,447.1 M947.359,449.919
		c0,0.854,0.287,1.547,0.859,2.08c0.574,0.534,1.314,0.8,2.221,0.8h3.439v-4.8h-0.759c-0.72,0-1.08-0.399-1.08-1.2v-13.84H947v2.4
		h-0.72c-0.507-1.013-1.194-1.76-2.062-2.24c-0.867-0.479-2.006-0.72-3.418-0.72c-1.176,0-2.273,0.233-3.301,0.7
		s-1.928,1.14-2.699,2.02c-0.773,0.88-1.388,1.947-1.84,3.2c-0.453,1.254-0.681,2.667-0.681,4.24v0.64c0,1.6,0.231,3.027,0.7,4.28
		c0.467,1.254,1.1,2.319,1.898,3.2c0.801,0.88,1.729,1.547,2.781,2c1.053,0.452,2.18,0.68,3.38,0.68c1.28,0,2.399-0.26,3.36-0.78
		c0.959-0.52,1.707-1.406,2.238-2.66H947.359z M908.359,437.759h3.602v10.24h-4.082v4.8h13.68v-4.8H917V441.6
		c0-1.44,0.32-2.547,0.961-3.32c0.639-0.773,1.52-1.16,2.639-1.16s1.959,0.327,2.521,0.98c0.56,0.653,0.841,1.526,0.841,2.619v0.561
		l5.199-0.48v-0.88c0-2.533-0.602-4.42-1.801-5.66c-1.199-1.239-2.787-1.859-4.76-1.859c-1.253,0-2.326,0.3-3.221,0.899
		c-0.892,0.601-1.527,1.447-1.898,2.54h-0.721v-2.88h-8.4V437.759z M884.68,437.759h5.641v15.04h5.039v-15.04h7.801v-4.8h-7.801
		v-2.16c0-0.8,0.359-1.199,1.08-1.199h6v-4.801h-8.08c-1.146,0-2.106,0.395-2.879,1.181c-0.773,0.787-1.16,1.754-1.16,2.899v4.08
		h-5.641V437.759z M842.84,437.419c0.427-0.306,1.067-0.46,1.92-0.46c0.934,0,1.693,0.207,2.28,0.62c0.587,0.414,1,0.98,1.24,1.7
		l4.56-1.84c-0.213-0.561-0.52-1.141-0.92-1.74s-0.92-1.146-1.561-1.64s-1.42-0.894-2.34-1.2s-2.008-0.46-3.26-0.46
		c-0.959,0-1.893,0.134-2.799,0.399c-0.908,0.268-1.708,0.66-2.402,1.181c-0.691,0.52-1.252,1.153-1.68,1.899
		c-0.426,0.747-0.639,1.614-0.639,2.601v0.239c0,1.895,0.66,3.327,1.979,4.301c1.321,0.974,3.102,1.554,5.34,1.739
		c0.828,0.08,1.514,0.188,2.062,0.32c0.546,0.134,0.979,0.3,1.3,0.5s0.539,0.414,0.66,0.64c0.12,0.228,0.18,0.475,0.18,0.74
		c0,0.454-0.232,0.874-0.701,1.26c-0.465,0.388-1.326,0.58-2.578,0.58c-1.413,0-2.461-0.319-3.141-0.96
		c-0.68-0.64-1.127-1.386-1.34-2.239l-4.641,1.52c0.133,0.694,0.394,1.407,0.779,2.14c0.389,0.734,0.941,1.4,1.662,2
		c0.719,0.601,1.625,1.101,2.719,1.5c1.094,0.4,2.414,0.601,3.961,0.601c2.613,0,4.64-0.586,6.078-1.76
		c1.441-1.174,2.16-2.746,2.16-4.721v-0.239c0-1.786-0.639-3.181-1.918-4.181c-1.281-1-2.934-1.605-4.961-1.819
		c-1.76-0.187-2.973-0.421-3.64-0.7c-0.667-0.28-1-0.74-1-1.38C842.2,438.106,842.413,437.727,842.84,437.419 M818.48,448.199
		c-0.641-0.24-1.2-0.586-1.68-1.04c-0.48-0.453-0.861-1.006-1.141-1.66c-0.281-0.652-0.42-1.393-0.42-2.22v-0.8
		c0-0.826,0.139-1.566,0.42-2.221c0.279-0.652,0.66-1.206,1.141-1.659c0.479-0.453,1.039-0.801,1.68-1.04
		c0.64-0.24,1.32-0.36,2.039-0.36c0.721,0,1.4,0.12,2.039,0.36c0.642,0.239,1.201,0.587,1.682,1.04
		c0.479,0.453,0.859,1.007,1.139,1.659c0.281,0.654,0.422,1.395,0.422,2.221v0.8c0,0.827-0.141,1.567-0.422,2.22
		c-0.279,0.654-0.66,1.207-1.139,1.66c-0.48,0.454-1.04,0.8-1.682,1.04c-0.639,0.24-1.318,0.36-2.039,0.36
		C819.801,448.56,819.12,448.439,818.48,448.199 M830.84,442.64c0-1.626-0.281-3.073-0.84-4.341c-0.561-1.266-1.32-2.34-2.281-3.22
		c-0.959-0.88-2.059-1.546-3.299-2c-1.24-0.453-2.541-0.68-3.9-0.68s-2.66,0.227-3.899,0.68c-1.241,0.454-2.34,1.12-3.3,2
		c-0.961,0.88-1.721,1.954-2.28,3.22c-0.56,1.268-0.84,2.715-0.84,4.341v0.479c0,1.654,0.28,3.114,0.84,4.38
		c0.56,1.268,1.319,2.334,2.28,3.2c0.96,0.867,2.059,1.527,3.3,1.98c1.239,0.452,2.54,0.68,3.899,0.68s2.66-0.228,3.9-0.68
		c1.24-0.453,2.34-1.113,3.299-1.98c0.961-0.866,1.721-1.933,2.281-3.2c0.559-1.266,0.84-2.726,0.84-4.38V442.64z M792.059,447.1
		c-0.973-0.974-1.459-2.301-1.459-3.98v-0.479c0-1.681,0.486-3.007,1.459-3.98c0.975-0.973,2.248-1.46,3.82-1.46
		c1.574,0,2.848,0.5,3.821,1.5s1.46,2.314,1.46,3.94v0.479c0,1.627-0.486,2.94-1.46,3.94s-2.247,1.5-3.821,1.5
		C794.307,448.56,793.033,448.073,792.059,447.1 M801.16,452.799h5.04v-28h-5.04v11.04h-0.721c-0.532-1.093-1.266-1.939-2.199-2.54
		c-0.934-0.6-2.2-0.899-3.801-0.899c-1.199,0-2.34,0.227-3.42,0.68c-1.08,0.454-2.027,1.114-2.84,1.98s-1.453,1.927-1.92,3.18
		c-0.467,1.254-0.701,2.68-0.701,4.28v0.72c0,1.627,0.222,3.067,0.66,4.32c0.441,1.254,1.055,2.313,1.84,3.18
		c0.788,0.867,1.708,1.52,2.762,1.96c1.053,0.44,2.193,0.66,3.42,0.66c0.96,0,1.779-0.094,2.46-0.28
		c0.679-0.187,1.267-0.439,1.759-0.76c0.494-0.32,0.893-0.687,1.201-1.101c0.307-0.412,0.566-0.846,0.779-1.3h0.721V452.799z
		 M737,437.759h3.6v10.24h-4.08v4.8H750.2v-4.8h-4.562V441.6c0-1.44,0.32-2.547,0.961-3.32s1.52-1.16,2.641-1.16
		c1.119,0,1.96,0.327,2.52,0.98c0.561,0.653,0.84,1.526,0.84,2.619v0.561l5.201-0.48v-0.88c0-2.533-0.601-4.42-1.801-5.66
		c-1.199-1.239-2.785-1.859-4.76-1.859c-1.254,0-2.326,0.3-3.221,0.899c-0.893,0.601-1.525,1.447-1.9,2.54H745.4v-2.88H737V437.759z
		 M726.54,425.579c-0.2-0.466-0.473-0.866-0.821-1.2c-0.346-0.333-0.752-0.6-1.219-0.8s-0.953-0.3-1.46-0.3
		c-0.532,0-1.026,0.1-1.481,0.3c-0.451,0.2-0.852,0.467-1.199,0.8c-0.346,0.334-0.619,0.734-0.819,1.2c-0.2,0.467-0.3,0.967-0.3,1.5
		c0,0.534,0.1,1.034,0.3,1.5c0.2,0.467,0.474,0.867,0.819,1.2c0.348,0.334,0.748,0.6,1.199,0.8c0.455,0.2,0.949,0.3,1.481,0.3
		c0.507,0,0.993-0.1,1.46-0.3s0.873-0.466,1.219-0.8c0.349-0.333,0.621-0.733,0.821-1.2c0.2-0.466,0.3-0.966,0.3-1.5
		C726.84,426.546,726.74,426.046,726.54,425.579 M713.84,452.799h17.52v-4.8h-5.76v-15.04H714.32v4.8h6.238v10.24h-6.719V452.799z
		 M688.439,437.759h5.881v11.921c0,0.906,0.287,1.653,0.859,2.239c0.574,0.587,1.314,0.88,2.221,0.88h8.4v-4.8h-5.361
		c-0.721,0-1.08-0.399-1.08-1.2v-9.04h7.16v-4.8h-7.16v-8.16h-5.039v8.16h-5.881V437.759z M663.559,437.759h3.602v10.24h-4.08v4.8
		h13.68v-4.8h-4.56V441.6c0-1.44,0.319-2.547,0.96-3.32s1.521-1.16,2.641-1.16c1.119,0,1.959,0.327,2.52,0.98
		c0.56,0.653,0.84,1.526,0.84,2.619v0.561l5.201-0.48v-0.88c0-2.533-0.602-4.42-1.803-5.66c-1.197-1.239-2.784-1.859-4.758-1.859
		c-1.254,0-2.327,0.3-3.221,0.899c-0.895,0.601-1.527,1.447-1.899,2.54h-0.722v-2.88h-8.4V437.759z M644.881,447.1
		c-0.88-0.974-1.32-2.301-1.32-3.98v-0.479c0-1.681,0.44-3.007,1.32-3.98c0.879-0.973,2.053-1.46,3.52-1.46s2.64,0.487,3.52,1.46
		c0.881,0.974,1.32,2.3,1.32,3.98v0.479c0,1.68-0.439,3.007-1.32,3.98c-0.88,0.974-2.053,1.46-3.52,1.46
		S645.76,448.073,644.881,447.1 M653.6,449.919c0,0.854,0.287,1.547,0.859,2.08c0.574,0.534,1.315,0.8,2.222,0.8h3.44v-4.8h-0.76
		c-0.723,0-1.081-0.399-1.081-1.2v-13.84h-5.04v2.4h-0.721c-0.506-1.013-1.193-1.76-2.061-2.24c-0.865-0.479-2.006-0.72-3.419-0.72
		c-1.173,0-2.273,0.233-3.3,0.7c-1.025,0.467-1.926,1.14-2.7,2.02c-0.773,0.88-1.386,1.947-1.839,3.2
		c-0.454,1.254-0.682,2.667-0.682,4.24v0.64c0,1.6,0.234,3.027,0.699,4.28c0.467,1.254,1.102,2.319,1.902,3.2
		c0.799,0.88,1.726,1.547,2.779,2c1.053,0.452,2.18,0.68,3.38,0.68c1.28,0,2.4-0.26,3.358-0.78c0.961-0.52,1.708-1.406,2.242-2.66
		H653.6z M621.021,447.06c-0.975-1-1.461-2.313-1.461-3.94v-0.479c0-1.626,0.486-2.94,1.461-3.94c0.973-1,2.245-1.5,3.82-1.5
		c1.572,0,2.844,0.487,3.818,1.46c0.975,0.974,1.461,2.3,1.461,3.98v0.479c0,1.68-0.486,3.007-1.461,3.98s-2.246,1.46-3.818,1.46
		C623.267,448.56,621.994,448.06,621.021,447.06 M619.561,449.919h0.721c0.24,0.454,0.525,0.888,0.859,1.3
		c0.333,0.414,0.746,0.78,1.24,1.101c0.492,0.32,1.072,0.573,1.74,0.76c0.666,0.187,1.453,0.28,2.359,0.28
		c1.227,0,2.366-0.22,3.42-0.66c1.053-0.44,1.967-1.093,2.74-1.96c0.773-0.866,1.387-1.926,1.84-3.18
		c0.453-1.253,0.68-2.693,0.68-4.32v-0.72c0-1.601-0.234-3.026-0.699-4.28c-0.467-1.253-1.094-2.313-1.88-3.18
		c-0.788-0.866-1.708-1.526-2.761-1.98c-1.054-0.453-2.166-0.68-3.34-0.68c-1.573,0-2.866,0.3-3.881,0.899
		c-1.014,0.601-1.785,1.447-2.318,2.54h-0.721v-2.88h-5.039v27.84h5.039V449.919z M571.441,447.1c-0.881-0.974-1.32-2.301-1.32-3.98
		v-0.479c0-1.681,0.439-3.007,1.32-3.98c0.879-0.973,2.053-1.46,3.52-1.46c1.465,0,2.641,0.487,3.52,1.46
		c0.881,0.974,1.32,2.3,1.32,3.98v0.479c0,1.68-0.439,3.007-1.32,3.98c-0.879,0.974-2.055,1.46-3.52,1.46
		C573.494,448.56,572.32,448.073,571.441,447.1 M580.16,449.919c0,0.854,0.287,1.547,0.861,2.08c0.572,0.534,1.312,0.8,2.219,0.8
		h3.44v-4.8h-0.761c-0.719,0-1.078-0.399-1.078-1.2v-13.84h-5.041v2.4h-0.72c-0.507-1.013-1.194-1.76-2.06-2.24
		c-0.867-0.479-2.008-0.72-3.42-0.72c-1.176,0-2.275,0.233-3.301,0.7c-1.027,0.467-1.928,1.14-2.699,2.02
		c-0.775,0.88-1.387,1.947-1.842,3.2c-0.453,1.254-0.679,2.667-0.679,4.24v0.64c0,1.6,0.233,3.027,0.7,4.28
		c0.466,1.254,1.1,2.319,1.9,3.2c0.799,0.88,1.726,1.547,2.779,2c1.053,0.452,2.18,0.68,3.381,0.68c1.279,0,2.398-0.26,3.359-0.78
		c0.959-0.52,1.706-1.406,2.24-2.66H580.16z M524.602,437.419c0.426-0.306,1.064-0.46,1.92-0.46c0.932,0,1.693,0.207,2.279,0.62
		c0.586,0.414,1,0.98,1.24,1.7l4.561-1.84c-0.215-0.561-0.521-1.141-0.92-1.74c-0.4-0.6-0.922-1.146-1.561-1.64
		c-0.641-0.493-1.42-0.894-2.34-1.2s-2.008-0.46-3.26-0.46c-0.961,0-1.895,0.134-2.801,0.399c-0.906,0.268-1.707,0.66-2.4,1.181
		c-0.693,0.52-1.254,1.153-1.68,1.899c-0.426,0.747-0.64,1.614-0.64,2.601v0.239c0,1.895,0.659,3.327,1.979,4.301
		s3.101,1.554,5.34,1.739c0.826,0.08,1.514,0.188,2.061,0.32c0.545,0.134,0.98,0.3,1.301,0.5c0.319,0.2,0.539,0.414,0.66,0.64
		c0.119,0.228,0.18,0.475,0.18,0.74c0,0.454-0.234,0.874-0.701,1.26c-0.467,0.388-1.326,0.58-2.58,0.58
		c-1.414,0-2.459-0.319-3.139-0.96c-0.682-0.64-1.127-1.386-1.342-2.239l-4.639,1.52c0.133,0.694,0.393,1.407,0.779,2.14
		c0.387,0.734,0.941,1.4,1.66,2c0.721,0.601,1.627,1.101,2.721,1.5c1.092,0.4,2.412,0.601,3.959,0.601
		c2.613,0,4.641-0.586,6.08-1.76s2.16-2.746,2.16-4.721v-0.239c0-1.786-0.639-3.181-1.92-4.181c-1.279-1-2.934-1.605-4.959-1.819
		c-1.76-0.187-2.975-0.421-3.641-0.7c-0.668-0.28-1-0.74-1-1.38C523.961,438.106,524.174,437.727,524.602,437.419 M505.541,437.879
		c0.84,0.614,1.34,1.388,1.5,2.32h-9.359c0.238-0.853,0.76-1.606,1.559-2.26c0.801-0.653,1.841-0.98,3.121-0.98
		C503.641,436.959,504.701,437.267,505.541,437.879 M512.16,444.52v-2.681c0-1.04-0.186-2.112-0.559-3.22
		c-0.375-1.105-0.961-2.12-1.76-3.04c-0.801-0.92-1.814-1.68-3.041-2.28c-1.227-0.6-2.693-0.899-4.4-0.899
		c-1.387,0-2.686,0.247-3.899,0.74s-2.274,1.18-3.181,2.06s-1.619,1.947-2.139,3.2c-0.521,1.254-0.781,2.64-0.781,4.16v0.239
		c0,1.654,0.246,3.135,0.74,4.44c0.494,1.307,1.186,2.414,2.08,3.32c0.894,0.906,1.953,1.6,3.18,2.08
		c1.227,0.479,2.586,0.72,4.08,0.72c1.307,0,2.445-0.147,3.42-0.44c0.973-0.293,1.801-0.666,2.48-1.12
		c0.68-0.452,1.233-0.952,1.66-1.5c0.426-0.546,0.76-1.072,1-1.58l-4.32-2.399c-0.295,0.614-0.773,1.14-1.439,1.58
		c-0.667,0.439-1.627,0.66-2.881,0.66c-0.641,0-1.246-0.101-1.819-0.301c-0.573-0.199-1.08-0.479-1.521-0.84
		c-0.439-0.359-0.787-0.786-1.039-1.279c-0.254-0.493-0.395-1.033-0.42-1.62H512.16z M477.021,424.039
		c-0.494-0.24-1.008-0.359-1.541-0.359c-0.666,0-1.279,0.134-1.84,0.399c-0.56,0.268-1.094,0.72-1.6,1.36l-2.24,2.88l3.08,2.439
		l1.2-1.52c0.212-0.293,0.433-0.526,0.659-0.7c0.227-0.173,0.527-0.26,0.9-0.26s0.666,0.1,0.881,0.3
		c0.213,0.2,0.426,0.42,0.639,0.66c0.454,0.534,0.926,0.92,1.421,1.16c0.493,0.24,1.005,0.359,1.54,0.359
		c0.693,0,1.32-0.14,1.88-0.42c0.56-0.279,1.08-0.726,1.56-1.34l2.24-2.88l-3.08-2.439l-1.199,1.52
		c-0.215,0.294-0.436,0.527-0.66,0.7c-0.227,0.174-0.527,0.26-0.9,0.26c-0.375,0-0.668-0.1-0.88-0.3
		c-0.214-0.2-0.427-0.42-0.64-0.66C477.986,424.666,477.514,424.279,477.021,424.039 M475.76,448.199
		c-0.639-0.24-1.199-0.586-1.679-1.04c-0.479-0.453-0.86-1.006-1.14-1.66c-0.281-0.652-0.42-1.393-0.42-2.22v-0.8
		c0-0.826,0.139-1.566,0.42-2.221c0.279-0.652,0.66-1.206,1.14-1.659s1.04-0.801,1.679-1.04c0.641-0.24,1.321-0.36,2.041-0.36
		c0.721,0,1.4,0.12,2.041,0.36c0.639,0.239,1.199,0.587,1.68,1.04c0.479,0.453,0.859,1.007,1.139,1.659
		c0.281,0.654,0.421,1.395,0.421,2.221v0.8c0,0.827-0.14,1.567-0.421,2.22c-0.279,0.654-0.659,1.207-1.139,1.66
		c-0.48,0.454-1.041,0.8-1.68,1.04c-0.641,0.24-1.32,0.36-2.041,0.36C477.081,448.56,476.4,448.439,475.76,448.199 M488.121,442.64
		c0-1.626-0.279-3.073-0.84-4.341c-0.561-1.266-1.32-2.34-2.28-3.22s-2.06-1.546-3.3-2c-1.24-0.453-2.541-0.68-3.9-0.68
		s-2.66,0.227-3.9,0.68c-1.24,0.454-2.34,1.12-3.299,2c-0.961,0.88-1.721,1.954-2.281,3.22c-0.561,1.268-0.84,2.715-0.84,4.341
		v0.479c0,1.654,0.279,3.114,0.84,4.38c0.561,1.268,1.32,2.334,2.281,3.2c0.959,0.867,2.059,1.527,3.299,1.98
		c1.24,0.452,2.541,0.68,3.9,0.68s2.66-0.228,3.9-0.68c1.24-0.453,2.34-1.113,3.3-1.98c0.96-0.866,1.72-1.933,2.28-3.2
		c0.561-1.266,0.84-2.726,0.84-4.38V442.64z M458.602,444.279c-0.24,1.307-0.768,2.347-1.58,3.12
		c-0.814,0.773-1.994,1.16-3.541,1.16c-0.721,0-1.399-0.113-2.039-0.341c-0.641-0.226-1.201-0.565-1.682-1.02
		c-0.479-0.453-0.859-1.02-1.139-1.7c-0.279-0.68-0.42-1.46-0.42-2.34v-0.24c0-0.88,0.141-1.673,0.42-2.38
		c0.279-0.706,0.66-1.306,1.139-1.8c0.48-0.493,1.041-0.873,1.682-1.14c0.64-0.267,1.318-0.4,2.039-0.4
		c1.547,0,2.746,0.427,3.601,1.28c0.853,0.854,1.36,1.867,1.521,3.04l4.959-1.28c-0.453-2.346-1.539-4.24-3.26-5.68
		c-1.72-1.44-3.967-2.16-6.74-2.16c-1.439,0-2.793,0.24-4.06,0.72c-1.267,0.48-2.374,1.174-3.319,2.08
		c-0.947,0.907-1.688,2-2.221,3.28c-0.535,1.279-0.801,2.72-0.801,4.319v0.48c0,1.439,0.221,2.747,0.66,3.92
		c0.439,1.174,1.047,2.18,1.82,3.02c0.773,0.841,1.701,1.515,2.779,2.021c1.081,0.507,2.246,0.84,3.5,1l-0.68,3.24v0.479h3.881
		c0.08-0.374,0.346-0.56,0.799-0.56c0.268,0,0.467,0.086,0.602,0.26c0.133,0.173,0.199,0.38,0.199,0.62
		c0,0.32-0.127,0.573-0.379,0.76c-0.256,0.187-0.582,0.28-0.98,0.28c-0.721,0-1.387-0.188-2-0.561l-1.041,2.721
		c0.453,0.239,0.934,0.433,1.439,0.58c0.508,0.146,1.147,0.22,1.922,0.22c1.252,0,2.299-0.354,3.139-1.061s1.261-1.687,1.261-2.939
		c0-0.96-0.274-1.787-0.821-2.48c-0.545-0.693-1.379-1.04-2.5-1.04c-0.506,0-0.906,0.087-1.199,0.261
		c-0.293,0.173-0.506,0.38-0.641,0.62h-0.479l0.279-1.36c2.506-0.214,4.5-1.013,5.98-2.4c1.48-1.386,2.434-3.173,2.859-5.359
		L458.602,444.279z M424.561,447.1c-0.879-0.974-1.32-2.301-1.32-3.98v-0.479c0-1.681,0.441-3.007,1.32-3.98
		c0.881-0.973,2.054-1.46,3.521-1.46c1.466,0,2.64,0.487,3.521,1.46c0.879,0.974,1.318,2.3,1.318,3.98v0.479
		c0,1.68-0.439,3.007-1.318,3.98c-0.881,0.974-2.055,1.46-3.521,1.46C426.614,448.56,425.441,448.073,424.561,447.1
		 M433.281,449.919c0,0.854,0.285,1.547,0.859,2.08c0.574,0.534,1.312,0.8,2.221,0.8h3.439v-4.8h-0.76c-0.721,0-1.08-0.399-1.08-1.2
		v-13.84h-5.041v2.4h-0.719c-0.508-1.013-1.193-1.76-2.061-2.24c-0.867-0.479-2.006-0.72-3.42-0.72c-1.174,0-2.273,0.233-3.301,0.7
		c-1.025,0.467-1.926,1.14-2.699,2.02s-1.387,1.947-1.84,3.2c-0.455,1.254-0.68,2.667-0.68,4.24v0.64c0,1.6,0.232,3.027,0.699,4.28
		c0.467,1.254,1.101,2.319,1.9,3.2c0.801,0.88,1.727,1.547,2.78,2c1.054,0.452,2.179,0.68,3.38,0.68c1.279,0,2.4-0.26,3.359-0.78
		c0.961-0.52,1.707-1.406,2.24-2.66H433.281z M408.301,425.579c-0.199-0.466-0.475-0.866-0.82-1.2c-0.346-0.333-0.754-0.6-1.221-0.8
		s-0.953-0.3-1.459-0.3c-0.533,0-1.027,0.1-1.48,0.3s-0.854,0.467-1.199,0.8c-0.348,0.334-0.62,0.734-0.82,1.2
		c-0.199,0.467-0.3,0.967-0.3,1.5c0,0.534,0.101,1.034,0.3,1.5c0.2,0.467,0.473,0.867,0.82,1.2c0.346,0.334,0.746,0.6,1.199,0.8
		s0.947,0.3,1.48,0.3c0.506,0,0.992-0.1,1.459-0.3s0.875-0.466,1.221-0.8c0.346-0.333,0.621-0.733,0.82-1.2
		c0.2-0.466,0.301-0.966,0.301-1.5C408.602,426.546,408.501,426.046,408.301,425.579 M395.602,452.799h17.52v-4.8h-5.76v-15.04
		h-11.28v4.8h6.239v10.24h-6.719V452.799z M369.801,437.759h3.6v10.24h-4.08v4.8h13.681v-4.8h-4.56V441.6
		c0-1.44,0.318-2.547,0.959-3.32s1.52-1.16,2.641-1.16c1.119,0,1.96,0.327,2.52,0.98c0.561,0.653,0.84,1.526,0.84,2.619v0.561
		l5.201-0.48v-0.88c0-2.533-0.601-4.42-1.801-5.66c-1.199-1.239-2.787-1.859-4.76-1.859c-1.254,0-2.326,0.3-3.221,0.899
		c-0.895,0.601-1.527,1.447-1.9,2.54h-0.719v-2.88h-8.4V437.759z M351.121,447.1c-0.881-0.974-1.32-2.301-1.32-3.98v-0.479
		c0-1.681,0.439-3.007,1.32-3.98c0.88-0.973,2.053-1.46,3.52-1.46s2.641,0.487,3.52,1.46c0.881,0.974,1.32,2.3,1.32,3.98v0.479
		c0,1.68-0.439,3.007-1.32,3.98c-0.879,0.974-2.053,1.46-3.52,1.46S352.001,448.073,351.121,447.1 M359.842,449.919
		c0,0.854,0.285,1.547,0.859,2.08c0.572,0.534,1.312,0.8,2.219,0.8h3.441v-4.8h-0.76c-0.721,0-1.08-0.399-1.08-1.2v-13.84h-5.041
		v2.4h-0.721c-0.506-1.013-1.193-1.76-2.059-2.24c-0.867-0.479-2.008-0.72-3.42-0.72c-1.174,0-2.273,0.233-3.301,0.7
		s-1.926,1.14-2.699,2.02s-1.387,1.947-1.84,3.2c-0.455,1.254-0.682,2.667-0.682,4.24v0.64c0,1.6,0.234,3.027,0.701,4.28
		c0.465,1.254,1.1,2.319,1.9,3.2c0.799,0.88,1.725,1.547,2.779,2c1.053,0.452,2.18,0.68,3.381,0.68c1.279,0,2.398-0.26,3.359-0.78
		c0.961-0.52,1.705-1.406,2.24-2.66H359.842z M326.081,452.799h9.601l5.68-19.84h-5.441l-4.68,17.44h-0.719l-4.68-17.44H320.4
		L326.081,452.799z M285.221,437.879c0.84,0.614,1.34,1.388,1.5,2.32h-9.359c0.24-0.853,0.76-1.606,1.559-2.26
		c0.801-0.653,1.84-0.98,3.121-0.98C283.32,436.959,284.381,437.267,285.221,437.879 M291.842,444.52v-2.681
		c0-1.04-0.188-2.112-0.561-3.22c-0.374-1.105-0.961-2.12-1.76-3.04c-0.801-0.92-1.814-1.68-3.041-2.28
		c-1.227-0.6-2.693-0.899-4.399-0.899c-1.388,0-2.687,0.247-3.899,0.74c-1.215,0.493-2.274,1.18-3.181,2.06
		c-0.907,0.88-1.62,1.947-2.14,3.2c-0.52,1.254-0.78,2.64-0.78,4.16v0.239c0,1.654,0.245,3.135,0.739,4.44
		c0.494,1.307,1.188,2.414,2.08,3.32s1.953,1.6,3.181,2.08c1.226,0.479,2.585,0.72,4.079,0.72c1.307,0,2.447-0.147,3.421-0.44
		s1.8-0.666,2.479-1.12c0.68-0.452,1.232-0.952,1.66-1.5c0.426-0.546,0.76-1.072,1-1.58l-4.32-2.399
		c-0.293,0.614-0.773,1.14-1.439,1.58c-0.668,0.439-1.627,0.66-2.88,0.66c-0.64,0-1.247-0.101-1.821-0.301
		c-0.572-0.199-1.078-0.479-1.52-0.84c-0.439-0.359-0.787-0.786-1.039-1.279c-0.254-0.493-0.395-1.033-0.42-1.62H291.842z
		 M253.501,447.1c-0.974-0.974-1.46-2.301-1.46-3.98v-0.479c0-1.681,0.486-3.007,1.46-3.98c0.974-0.973,2.246-1.46,3.819-1.46
		c1.574,0,2.846,0.5,3.82,1.5c0.973,1,1.461,2.314,1.461,3.94v0.479c0,1.627-0.488,2.94-1.461,3.94c-0.975,1-2.246,1.5-3.82,1.5
		C255.747,448.56,254.475,448.073,253.501,447.1 M262.602,452.799h5.039v-28h-5.039v11.04h-0.721
		c-0.533-1.093-1.268-1.939-2.199-2.54c-0.935-0.6-2.201-0.899-3.801-0.899c-1.199,0-2.34,0.227-3.42,0.68
		c-1.08,0.454-2.027,1.114-2.84,1.98c-0.814,0.866-1.455,1.927-1.92,3.18c-0.467,1.254-0.7,2.68-0.7,4.28v0.72
		c0,1.627,0.22,3.067,0.659,4.32c0.441,1.254,1.055,2.313,1.841,3.18c0.786,0.867,1.706,1.52,2.761,1.96
		c1.053,0.44,2.191,0.66,3.42,0.66c0.959,0,1.779-0.094,2.459-0.28s1.267-0.439,1.76-0.76c0.494-0.32,0.893-0.687,1.201-1.101
		c0.306-0.412,0.564-0.846,0.779-1.3h0.721V452.799z M204.24,447.1c-0.879-0.974-1.32-2.301-1.32-3.98v-0.479
		c0-1.681,0.441-3.007,1.32-3.98c0.881-0.973,2.053-1.46,3.521-1.46c1.465,0,2.639,0.487,3.52,1.46c0.879,0.974,1.32,2.3,1.32,3.98
		v0.479c0,1.68-0.441,3.007-1.32,3.98c-0.881,0.974-2.055,1.46-3.52,1.46C206.293,448.56,205.121,448.073,204.24,447.1
		 M212.961,449.919c0,0.854,0.286,1.547,0.859,2.08c0.574,0.534,1.314,0.8,2.221,0.8h3.439v-4.8h-0.76c-0.72,0-1.08-0.399-1.08-1.2
		v-13.84h-5.039v2.4h-0.721c-0.508-1.013-1.193-1.76-2.061-2.24c-0.867-0.479-2.006-0.72-3.42-0.72c-1.174,0-2.273,0.233-3.299,0.7
		c-1.027,0.467-1.928,1.14-2.701,2.02s-1.387,1.947-1.84,3.2c-0.453,1.254-0.68,2.667-0.68,4.24v0.64c0,1.6,0.232,3.027,0.7,4.28
		c0.466,1.254,1.101,2.319,1.899,3.2c0.801,0.88,1.727,1.547,2.781,2c1.053,0.452,2.18,0.68,3.379,0.68c1.279,0,2.4-0.26,3.36-0.78
		c0.96-0.52,1.706-1.406,2.239-2.66H212.961z M174.361,437.759h5.879v11.921c0,0.906,0.287,1.653,0.861,2.239
		c0.572,0.587,1.312,0.88,2.219,0.88h8.4v-4.8h-5.359c-0.721,0-1.08-0.399-1.08-1.2v-9.04h7.16v-4.8h-7.16v-8.16h-5.041v8.16h-5.879
		V437.759z M163.501,425.579c-0.2-0.466-0.474-0.866-0.819-1.2c-0.348-0.333-0.756-0.6-1.221-0.8c-0.467-0.2-0.953-0.3-1.46-0.3
		c-0.534,0-1.026,0.1-1.479,0.3c-0.455,0.2-0.855,0.467-1.201,0.8c-0.346,0.334-0.619,0.734-0.819,1.2c-0.2,0.467-0.3,0.967-0.3,1.5
		c0,0.534,0.1,1.034,0.3,1.5c0.2,0.467,0.474,0.867,0.819,1.2c0.346,0.334,0.746,0.6,1.201,0.8c0.453,0.2,0.945,0.3,1.479,0.3
		c0.507,0,0.993-0.1,1.46-0.3c0.465-0.2,0.873-0.466,1.221-0.8c0.346-0.333,0.619-0.733,0.819-1.2c0.2-0.466,0.3-0.966,0.3-1.5
		C163.801,426.546,163.701,426.046,163.501,425.579 M150.801,452.799h17.52v-4.8h-5.76v-15.04h-11.279v4.8h6.24v10.24h-6.721
		V452.799z M125.001,437.759h3.601v10.24h-4.08v4.8h13.68v-4.8h-4.561V441.6c0-1.44,0.32-2.547,0.961-3.32
		c0.639-0.773,1.52-1.16,2.639-1.16c1.121,0,1.961,0.327,2.521,0.98c0.559,0.653,0.84,1.526,0.84,2.619v0.561l5.199-0.48v-0.88
		c0-2.533-0.6-4.42-1.8-5.66c-1.2-1.239-2.786-1.859-4.761-1.859c-1.254,0-2.326,0.3-3.219,0.899c-0.895,0.601-1.527,1.447-1.9,2.54
		H133.4v-2.88h-8.399V437.759z M115.881,444.279c-0.24,1.307-0.768,2.347-1.58,3.12c-0.814,0.773-1.994,1.16-3.539,1.16
		c-0.721,0-1.4-0.113-2.041-0.341c-0.64-0.226-1.199-0.565-1.68-1.02c-0.48-0.453-0.859-1.02-1.141-1.7
		c-0.279-0.68-0.42-1.46-0.42-2.34v-0.24c0-0.88,0.141-1.673,0.42-2.38c0.281-0.706,0.66-1.306,1.141-1.8
		c0.48-0.493,1.04-0.873,1.68-1.14c0.641-0.267,1.32-0.4,2.041-0.4c1.545,0,2.746,0.427,3.6,1.28s1.359,1.867,1.52,3.04l4.961-1.28
		c-0.455-2.346-1.541-4.24-3.261-5.68c-1.72-1.44-3.968-2.16-6.739-2.16c-1.441,0-2.795,0.24-4.061,0.72
		c-1.268,0.48-2.374,1.174-3.32,2.08c-0.947,0.907-1.688,2-2.221,3.28c-0.533,1.279-0.799,2.72-0.799,4.319v0.48
		c0,1.6,0.266,3.027,0.799,4.28c0.533,1.254,1.268,2.307,2.201,3.159c0.932,0.854,2.033,1.508,3.299,1.961
		c1.268,0.452,2.633,0.68,4.102,0.68c2.824,0,5.084-0.72,6.779-2.16c1.693-1.44,2.766-3.333,3.221-5.68L115.881,444.279z
		 M83.961,437.419c0.426-0.306,1.066-0.46,1.92-0.46c0.934,0,1.693,0.207,2.28,0.62c0.586,0.414,1,0.98,1.239,1.7l4.561-1.84
		c-0.214-0.561-0.52-1.141-0.92-1.74s-0.92-1.146-1.561-1.64c-0.639-0.493-1.42-0.894-2.34-1.2s-2.006-0.46-3.26-0.46
		c-0.961,0-1.895,0.134-2.8,0.399c-0.907,0.268-1.708,0.66-2.399,1.181c-0.695,0.52-1.256,1.153-1.681,1.899
		c-0.427,0.747-0.64,1.614-0.64,2.601v0.239c0,1.895,0.66,3.327,1.98,4.301c1.319,0.974,3.1,1.554,5.34,1.739
		c0.826,0.08,1.512,0.188,2.059,0.32c0.547,0.134,0.98,0.3,1.301,0.5s0.54,0.414,0.66,0.64c0.119,0.228,0.18,0.475,0.18,0.74
		c0,0.454-0.234,0.874-0.699,1.26c-0.467,0.388-1.328,0.58-2.58,0.58c-1.414,0-2.461-0.319-3.141-0.96
		c-0.68-0.64-1.127-1.386-1.34-2.239l-4.641,1.52c0.133,0.694,0.393,1.407,0.781,2.14c0.385,0.734,0.939,1.4,1.658,2
		c0.721,0.601,1.627,1.101,2.721,1.5c1.094,0.4,2.414,0.601,3.961,0.601c2.613,0,4.639-0.586,6.08-1.76
		c1.439-1.174,2.16-2.746,2.16-4.721v-0.239c0-1.786-0.641-3.181-1.922-4.181c-1.279-1-2.934-1.605-4.959-1.819
		c-1.76-0.187-2.975-0.421-3.641-0.7c-0.666-0.28-1-0.74-1-1.38C83.32,438.106,83.533,437.727,83.961,437.419 M52.682,452.799h18.16
		v-5.04H57.961v-6.479h11.92v-5.04h-11.92v-6.4h12.4v-5.04h-17.68V452.799z"/>
</g>
<polygon fill="#231F20" points="865.41,344.008 1119.027,344.008 1119.027,297.767 982.123,297.767 982.123,217.4 1086.719,217.4 
	1086.719,171.159 982.123,171.159 982.324,90.188 1119.027,90.188 1119.027,43.946 865.41,43.946 "/>
<g>
	<defs>
		<rect id="SVGID_73_" width="1170.088" height="492.17"/>
	</defs>
	<clipPath id="SVGID_6_">
		<use xlink:href="#SVGID_73_"  overflow="visible"/>
	</clipPath>
	<path clip-path="url(#SVGID_6_)" fill="#231F20" d="M275.824,351.764c1.23,2.921,3.166,5.454,5.806,7.599
		c2.638,2.148,5.997,3.854,10.079,5.119c4.08,1.267,9.006,1.9,14.775,1.9c5.699,0,10.607-0.634,14.724-1.9
		c4.116-1.266,7.476-2.971,10.079-5.119c2.603-2.145,4.521-4.678,5.753-7.599c1.229-2.919,1.847-6.068,1.847-9.446
		c0-3.306-0.617-6.42-1.847-9.34c-1.231-2.919-3.15-5.452-5.753-7.6c-2.604-2.146-5.963-3.853-10.079-5.118
		c-4.116-1.268-9.024-1.9-14.724-1.9c-5.77,0-10.695,0.633-14.775,1.9c-4.082,1.266-7.441,2.973-10.079,5.118
		c-2.64,2.147-4.575,4.681-5.806,7.6c-1.232,2.92-1.846,6.034-1.846,9.34C273.979,345.695,274.592,348.845,275.824,351.764
		 M137.268,345.59c-2.359-1.196-4.416-3.377-6.176-6.544c-1.759-3.166-3.148-7.476-4.168-12.93
		c-1.021-5.452-1.529-12.436-1.529-20.949c0-2.322,0.033-4.592,0.104-6.809c0.07-2.216,0.176-4.344,0.318-6.385
		c2.391-2.603,5.029-4.555,7.916-5.858c2.883-1.301,6.121-1.952,9.709-1.952c3.234,0,6.191,0.564,8.865,1.688
		c2.674,1.127,4.961,2.903,6.861,5.33c1.898,2.428,3.377,5.578,4.432,9.446c1.057,3.87,1.584,8.586,1.584,14.143
		c0,10.696-1.865,18.805-5.594,24.328c-3.73,5.524-8.691,8.285-14.882,8.285C142.104,347.384,139.624,346.786,137.268,345.59
		 M68.664,317.146c1.23,5.383,3.148,10.521,5.752,15.409c2.602,4.892,5.945,9.43,10.027,13.615
		c4.08,4.188,9.006,7.811,14.775,10.871c5.768,3.061,12.4,5.472,19.895,7.229s15.953,2.639,25.384,2.639
		c12.101,0,23.009-1.442,32.718-4.328c9.711-2.884,17.996-6.823,24.855-11.819c6.86-4.996,12.138-10.854,15.832-17.573
		c3.694-6.719,5.541-13.949,5.541-21.69c0-6.543-1.355-12.718-4.063-18.521c-2.71-5.805-6.649-10.871-11.821-15.199
		c-5.172-4.327-11.557-7.739-19.156-10.236s-16.289-3.747-26.068-3.747c-6.615,0-12.596,0.598-17.943,1.794
		s-10.309,2.921-14.881,5.172c1.83-6.544,4.273-12.402,7.335-17.573c3.062-5.172,6.755-9.816,11.081-13.932
		c4.328-4.116,9.289-7.759,14.883-10.924c5.594-3.166,11.838-6.017,18.734-8.549l-9.605-14.248
		c-10.695,1.196-20.703,3.307-30.026,6.332c-9.325,3.026-17.89,6.807-25.7,11.346s-14.775,9.71-20.896,15.515
		c-6.123,5.805-11.293,12.032-15.516,18.681c-4.223,6.65-7.441,13.652-9.656,21.004c-2.217,7.354-3.326,14.828-3.326,22.429
		C66.816,306.327,67.432,311.763,68.664,317.146"/>
</g>
</svg>
