<?xml version="1.0" encoding="utf-8"?>
<!-- Generator: Adobe Illustrator 16.0.0, SVG Export Plug-In . SVG Version: 6.00 Build 0)  -->
<!DOCTYPE svg PUBLIC "-//W3C//DTD SVG 1.1//EN" "http://www.w3.org/Graphics/SVG/1.1/DTD/svg11.dtd">
<svg version="1.1" id="Layer_1" xmlns="http://www.w3.org/2000/svg" xmlns:xlink="http://www.w3.org/1999/xlink" x="0px" y="0px"
	 width="1170.09px" height="525.04px" viewBox="0 0 1170.09 525.04" enable-background="new 0 0 1170.09 525.04"
	 xml:space="preserve">
<g>
	<defs>
		<rect id="SVGID_5_" width="1170.088" height="525.039"/>
	</defs>
	<clipPath id="SVGID_2_">
		<use xlink:href="#SVGID_5_"  overflow="visible"/>
	</clipPath>
	<path clip-path="url(#SVGID_2_)" fill="#0046FA" d="M819.038,85.881v18.63h24.412c0,6.167-2.292,11.113-6.874,14.84
		c-4.583,3.726-9.957,5.589-16.125,5.589c-7.452,0-13.812-3.19-19.08-9.572c-5.268-6.38-7.9-14.068-7.9-23.062
		c0-9.165,2.633-16.98,7.9-23.448c5.269-6.467,11.628-9.701,19.08-9.701c10.107,0,17.988,4.541,23.642,13.619l15.804-17.345
		c-10.021-12.078-23.642-18.117-40.858-18.117c-14.733,0-27.026,5.312-36.875,15.933c-9.851,10.622-14.776,23.642-14.776,39.06
		c0,15.161,5.031,28.096,15.098,38.803c10.063,10.708,22.248,16.061,36.554,16.061c11.392,0,21.714-3.232,30.965-9.7
		c9.251-6.467,15.246-15.997,17.988-28.588V85.881H819.038z M657.021,79.456l42.143,65.784h24.155v-106h-24.155v65.784h-0.257
		L656.764,39.24h-24.156v106h24.156V79.456H657.021z M559.628,145.24h24.155v-106h-24.155V145.24z M455.556,60.825h3.726
		c8.908,0,16.167,3,21.778,8.994c5.609,5.997,8.416,13.491,8.416,22.485c-0.086,8.994-2.935,16.468-8.544,22.421
		c-5.611,5.954-12.829,8.929-21.65,8.929h-3.726V60.825z M431.401,145.24h30.708c14.818,0,27.431-5.03,37.839-15.097
		c10.407-10.064,15.611-22.72,15.611-37.967c0-15.162-5.226-27.773-15.676-37.839C489.432,44.273,476.84,39.24,462.109,39.24
		h-30.708V145.24z M327.971,102.841l11.82-30.837h0.257l11.821,30.837H327.971z M328.741,39.24l-42.785,106h25.954l7.837-21.2
		h40.345l7.837,21.2h25.954l-42.785-106H328.741z M188.566,39.24v106h60.645v-21.2h-36.49v-21.328h34.948v-21.2h-34.948V60.44h36.49
		v-21.2H188.566z M87.321,58.513h2.827c2.226,0,4.111,0.045,5.653,0.129c1.542,0.086,3.297,0.385,5.268,0.898
		c1.97,0.515,3.554,1.243,4.754,2.186c1.199,0.943,2.227,2.312,3.084,4.111c0.855,1.799,1.285,3.982,1.285,6.553
		s-0.43,4.754-1.285,6.553c-0.857,1.798-1.885,3.17-3.084,4.111c-1.2,0.943-2.784,1.67-4.754,2.184
		c-1.971,0.515-3.726,0.815-5.268,0.9c-1.542,0.086-3.427,0.128-5.653,0.128h-2.827V58.513z M63.166,145.24h24.155v-41.886
		L119.7,145.24h30.708l-36.49-43.812c6.681-2.142,11.969-5.848,15.868-11.114c3.896-5.268,5.846-11.799,5.846-19.594
		c0-10.107-3.212-17.88-9.637-23.321c-6.424-5.438-14.733-8.158-24.926-8.158H63.166V145.24z"/>
	<path clip-path="url(#SVGID_2_)" fill="#231F20" d="M779.595,303.776c2.938,0,5.181-0.575,6.726-1.729
		c1.545-1.152,2.318-2.653,2.318-4.503c0-1.646-0.614-2.945-1.843-3.896c-1.229-0.949-3.236-1.665-6.023-2.146
		c-1.292-0.253-2.198-0.513-2.717-0.779c-0.519-0.266-0.779-0.589-0.779-0.969c0-0.405,0.253-0.747,0.761-1.026
		c0.507-0.277,1.216-0.418,2.128-0.418c1.165,0,2.166,0.203,3.002,0.608c0.836,0.406,1.558,1.052,2.166,1.938l3.344-3.268
		c-0.861-1.19-1.982-2.083-3.363-2.679s-3.16-0.894-5.339-0.894c-1.976,0-3.654,0.298-5.035,0.894s-2.413,1.375-3.097,2.337
		c-0.685,0.963-1.026,1.988-1.026,3.078c0,1.596,0.603,2.876,1.805,3.838c1.203,0.963,3.225,1.723,6.062,2.279
		c1.267,0.254,2.16,0.514,2.679,0.779c0.52,0.266,0.779,0.577,0.779,0.931c0,0.406-0.253,0.729-0.76,0.97s-1.203,0.36-2.09,0.36
		c-2.66,0-4.535-0.898-5.624-2.697l-3.345,3.647C772.146,302.663,775.237,303.776,779.595,303.776 M758.582,288.539
		c2.025,0,3.191,1.242,3.495,3.724h-7.144C755.313,289.781,756.529,288.539,758.582,288.539 M768.119,293.631
		c0-3.04-0.816-5.402-2.45-7.087c-1.635-1.685-3.984-2.527-7.05-2.527c-3.167,0-5.611,0.862-7.334,2.584
		c-1.723,1.724-2.584,4.155-2.584,7.296c0,3.143,0.881,5.574,2.642,7.296c1.76,1.724,4.3,2.584,7.619,2.584
		c2.229,0,4.109-0.424,5.643-1.272c1.532-0.848,2.565-2.083,3.097-3.705l-5.243-1.672c-0.203,0.684-0.603,1.204-1.197,1.558
		c-0.596,0.355-1.362,0.532-2.299,0.532c-1.115,0-2.009-0.278-2.68-0.836c-0.672-0.557-1.108-1.431-1.311-2.622h12.958
		C768.056,295.202,768.119,294.493,768.119,293.631 M736.998,284.017c-3.143,0-5.594,0.868-7.354,2.604
		c-1.761,1.735-2.641,4.161-2.641,7.276c0,3.143,0.886,5.574,2.66,7.296c1.772,1.724,4.306,2.584,7.6,2.584
		c2.558,0,4.617-0.538,6.175-1.614s2.477-2.477,2.755-4.199l-5.813-1.862c-0.305,2.052-1.356,3.078-3.154,3.078
		c-2.508,0-3.762-1.735-3.762-5.206c0-3.572,1.254-5.357,3.762-5.357c1.697,0,2.672,1.09,2.926,3.268l6.004-1.976
		c-0.354-1.748-1.254-3.166-2.697-4.257C742.014,284.562,739.859,284.017,736.998,284.017 M716.819,284.017
		c-1.495,0-2.8,0.336-3.914,1.007c-1.114,0.672-1.976,1.68-2.584,3.021l-0.189-3.648h-5.776v19h6.46v-10.031
		c0-1.494,0.316-2.604,0.95-3.325c0.633-0.723,1.456-1.083,2.47-1.083c0.861,0,1.526,0.272,1.995,0.816
		c0.468,0.545,0.703,1.463,0.703,2.755v10.868h6.46v-12.653c0-2.153-0.596-3.812-1.786-4.979
		C720.417,284.6,718.82,284.017,716.819,284.017 M691.208,288.539c2.026,0,3.191,1.242,3.495,3.724h-7.144
		C687.939,289.781,689.155,288.539,691.208,288.539 M700.746,293.631c0-3.04-0.817-5.402-2.451-7.087
		c-1.635-1.685-3.984-2.527-7.049-2.527c-3.168,0-5.611,0.862-7.334,2.584c-1.724,1.724-2.585,4.155-2.585,7.296
		c0,3.143,0.881,5.574,2.642,7.296c1.761,1.724,4.3,2.584,7.619,2.584c2.229,0,4.109-0.424,5.643-1.272
		c1.533-0.848,2.565-2.083,3.097-3.705l-5.243-1.672c-0.203,0.684-0.603,1.204-1.197,1.558c-0.595,0.355-1.362,0.532-2.299,0.532
		c-1.115,0-2.008-0.278-2.68-0.836c-0.671-0.557-1.107-1.431-1.311-2.622h12.958C700.683,295.202,700.746,294.493,700.746,293.631
		 M671.145,284.396v10.07c0,1.47-0.317,2.565-0.95,3.287c-0.634,0.722-1.481,1.083-2.546,1.083c-0.888,0-1.546-0.253-1.976-0.76
		c-0.433-0.507-0.646-1.381-0.646-2.622v-11.059h-6.46v12.692c0,2.306,0.575,3.997,1.729,5.073c1.151,1.076,2.741,1.614,4.769,1.614
		c3.192,0,5.383-1.304,6.574-3.914l0.189,3.534h5.776v-19H671.145z M644.089,299.026c-2.382,0-3.572-1.71-3.572-5.13
		s1.19-5.13,3.572-5.13c1.089,0,1.943,0.425,2.564,1.273c0.62,0.849,0.932,2.07,0.932,3.667v0.38c0,1.571-0.305,2.787-0.912,3.647
		C646.064,298.597,645.202,299.026,644.089,299.026 M648.383,284.396l-0.229,3.99c-0.531-1.342-1.349-2.406-2.451-3.192
		c-1.102-0.784-2.4-1.178-3.895-1.178c-2.458,0-4.37,0.862-5.738,2.584c-1.368,1.724-2.052,4.13-2.052,7.22
		c0,3.143,0.69,5.587,2.071,7.334c1.38,1.748,3.299,2.622,5.757,2.622c1.317,0,2.463-0.311,3.438-0.931s1.741-1.488,2.3-2.603
		v11.134h6.46v-26.98H648.383z M621.631,288.539c2.026,0,3.191,1.242,3.496,3.724h-7.145
		C618.362,289.781,619.578,288.539,621.631,288.539 M631.169,293.631c0-3.04-0.817-5.402-2.451-7.087s-3.984-2.527-7.049-2.527
		c-3.167,0-5.611,0.862-7.334,2.584c-1.724,1.724-2.584,4.155-2.584,7.296c0,3.143,0.88,5.574,2.641,7.296
		c1.761,1.724,4.3,2.584,7.619,2.584c2.229,0,4.11-0.424,5.643-1.272c1.533-0.848,2.565-2.083,3.098-3.705l-5.244-1.672
		c-0.203,0.684-0.603,1.204-1.197,1.558c-0.595,0.355-1.362,0.532-2.299,0.532c-1.115,0-2.008-0.278-2.679-0.836
		c-0.672-0.557-1.108-1.431-1.312-2.622h12.958C631.105,295.202,631.169,294.493,631.169,293.631 M600.389,303.776
		c2.938,0,5.181-0.575,6.726-1.729c1.545-1.152,2.318-2.653,2.318-4.503c0-1.646-0.614-2.945-1.843-3.896
		c-1.229-0.949-3.236-1.665-6.023-2.146c-1.292-0.253-2.198-0.513-2.717-0.779c-0.52-0.266-0.779-0.589-0.779-0.969
		c0-0.405,0.253-0.747,0.76-1.026c0.508-0.277,1.217-0.418,2.129-0.418c1.165,0,2.166,0.203,3.002,0.608
		c0.836,0.406,1.558,1.052,2.166,1.938l3.344-3.268c-0.861-1.19-1.982-2.083-3.363-2.679s-3.16-0.894-5.339-0.894
		c-1.976,0-3.654,0.298-5.035,0.894s-2.413,1.375-3.097,2.337c-0.685,0.963-1.026,1.988-1.026,3.078
		c0,1.596,0.603,2.876,1.806,3.838c1.202,0.963,3.224,1.723,6.061,2.279c1.267,0.254,2.16,0.514,2.679,0.779
		c0.52,0.266,0.779,0.577,0.779,0.931c0,0.406-0.253,0.729-0.76,0.97s-1.203,0.36-2.09,0.36c-2.66,0-4.535-0.898-5.624-2.697
		l-3.345,3.647C592.94,302.663,596.031,303.776,600.389,303.776 M578.273,298.343c-0.786,0.558-1.698,0.836-2.737,0.836
		c-1.672,0-2.508-0.848-2.508-2.546v-7.638h5.701v-4.599h-5.701v-6.042l-6.46,1.786v4.256h-3.267v4.599h3.267v8.701
		c0.025,2.129,0.633,3.675,1.825,4.637c1.19,0.963,2.912,1.443,5.168,1.443c0.988,0,1.969-0.133,2.944-0.398
		c0.975-0.267,1.78-0.614,2.414-1.045L578.273,298.343z M554.143,284.017c-1.495,0-2.799,0.336-3.914,1.007
		c-1.115,0.672-1.976,1.68-2.584,3.021l-0.19-3.648h-5.776v19h6.46v-10.031c0-1.494,0.317-2.604,0.95-3.325
		c0.633-0.723,1.457-1.083,2.47-1.083c0.861,0,1.526,0.272,1.995,0.816c0.469,0.545,0.703,1.463,0.703,2.755v10.868h6.46v-12.653
		c0-2.153-0.595-3.812-1.786-4.979C557.74,284.6,556.144,284.017,554.143,284.017 M528.532,288.539c2.026,0,3.192,1.242,3.496,3.724
		h-7.144C525.264,289.781,526.479,288.539,528.532,288.539 M538.069,293.631c0-3.04-0.817-5.402-2.451-7.087
		c-1.634-1.685-3.984-2.527-7.049-2.527c-3.167,0-5.612,0.862-7.334,2.584c-1.723,1.724-2.584,4.155-2.584,7.296
		c0,3.143,0.88,5.574,2.641,7.296c1.76,1.724,4.3,2.584,7.619,2.584c2.229,0,4.11-0.424,5.643-1.272
		c1.532-0.848,2.565-2.083,3.097-3.705l-5.244-1.672c-0.203,0.684-0.602,1.204-1.197,1.558c-0.596,0.355-1.362,0.532-2.299,0.532
		c-1.115,0-2.008-0.278-2.679-0.836c-0.672-0.557-1.109-1.431-1.311-2.622h12.958C538.006,295.202,538.069,294.493,538.069,293.631
		 M515.193,284.017c-1.444,0-2.654,0.387-3.629,1.159c-0.975,0.773-1.691,1.881-2.147,3.325l-0.266-4.104h-5.7v19h6.46v-9.576
		c0-1.443,0.405-2.552,1.216-3.324s1.824-1.159,3.04-1.159c0.481,0,0.937,0.057,1.368,0.171s0.772,0.247,1.026,0.399l0.684-5.473
		C516.739,284.157,516.055,284.017,515.193,284.017 M490.305,288.539c2.026,0,3.192,1.242,3.496,3.724h-7.144
		C487.037,289.781,488.252,288.539,490.305,288.539 M499.843,293.631c0-3.04-0.817-5.402-2.451-7.087s-3.984-2.527-7.049-2.527
		c-3.167,0-5.612,0.862-7.334,2.584c-1.723,1.724-2.584,4.155-2.584,7.296c0,3.143,0.88,5.574,2.641,7.296
		c1.76,1.724,4.3,2.584,7.619,2.584c2.229,0,4.11-0.424,5.643-1.272c1.532-0.848,2.565-2.083,3.097-3.705l-5.244-1.672
		c-0.203,0.684-0.602,1.204-1.197,1.558c-0.596,0.355-1.362,0.532-2.299,0.532c-1.115,0-2.008-0.278-2.679-0.836
		c-0.672-0.557-1.109-1.431-1.311-2.622h12.958C499.779,295.202,499.843,294.493,499.843,293.631 M473.167,283.066
		c0-1.823,1.051-2.735,3.154-2.735c0.886,0,1.608,0.203,2.166,0.607l0.646-4.027c-0.938-0.734-2.394-1.103-4.37-1.103
		c-2.28,0-4.13,0.57-5.548,1.71c-1.419,1.141-2.128,2.851-2.128,5.13v1.748h-3.04v4.599h3.04v14.401h6.46v-14.401h5.396v-4.599
		h-5.776V283.066z M458.954,283.066c0-1.823,1.051-2.735,3.154-2.735c0.887,0,1.609,0.203,2.166,0.607l0.646-4.027
		c-0.937-0.734-2.394-1.103-4.37-1.103c-2.28,0-4.129,0.57-5.548,1.71c-1.419,1.141-2.128,2.851-2.128,5.13v1.748h-3.04v4.599h3.04
		v14.401h6.46v-14.401h5.396v-4.599h-5.776V283.066z M446.984,284.396h-6.46v19h6.46V284.396z M443.754,282.192
		c1.317,0,2.273-0.247,2.869-0.74c0.595-0.494,0.893-1.273,0.893-2.337c0-1.09-0.298-1.882-0.893-2.375
		c-0.596-0.494-1.552-0.741-2.869-0.741c-1.318,0-2.274,0.247-2.869,0.741c-0.596,0.493-0.893,1.285-0.893,2.375
		c0,1.063,0.297,1.843,0.893,2.337C441.48,281.945,442.437,282.192,443.754,282.192 M425.933,299.026
		c-1.14,0-2.02-0.418-2.641-1.254s-0.931-2.128-0.931-3.876s0.31-3.04,0.931-3.876s1.501-1.254,2.641-1.254
		c1.039,0,1.868,0.38,2.489,1.141c0.621,0.76,0.969,1.837,1.045,3.229v1.521c-0.076,1.419-0.424,2.502-1.045,3.249
		C427.801,298.653,426.972,299.026,425.933,299.026 M429.467,276.341v11.248c-0.557-1.114-1.317-1.988-2.28-2.622
		c-0.963-0.633-2.115-0.95-3.458-0.95c-2.457,0-4.383,0.874-5.776,2.622s-2.09,4.193-2.09,7.334c0,3.091,0.69,5.498,2.071,7.22
		c1.381,1.724,3.3,2.584,5.757,2.584c1.419,0,2.666-0.354,3.743-1.063s1.894-1.685,2.451-2.926l0.228,3.609h5.814v-27.056H429.467z
		 M392.038,288.615c1.216,0,2.115,0.418,2.698,1.254c0.582,0.836,0.874,2.179,0.874,4.027c0,1.851-0.292,3.192-0.874,4.028
		c-0.583,0.836-1.482,1.254-2.698,1.254s-2.116-0.418-2.698-1.254c-0.583-0.836-0.874-2.178-0.874-4.028
		c0-1.849,0.291-3.191,0.874-4.027C389.921,289.033,390.822,288.615,392.038,288.615 M392.038,284.017
		c-3.167,0-5.631,0.868-7.391,2.604c-1.761,1.735-2.641,4.161-2.641,7.276c0,3.116,0.88,5.542,2.641,7.277
		c1.76,1.736,4.224,2.603,7.391,2.603c3.166,0,5.63-0.866,7.391-2.603c1.76-1.735,2.641-4.161,2.641-7.277
		c0-3.115-0.881-5.541-2.641-7.276C397.667,284.885,395.204,284.017,392.038,284.017 M379.536,298.343
		c-0.786,0.558-1.698,0.836-2.736,0.836c-1.672,0-2.508-0.848-2.508-2.546v-7.638h5.7v-4.599h-5.7v-6.042l-6.46,1.786v4.256h-3.268
		v4.599h3.268v8.701c0.025,2.129,0.633,3.675,1.824,4.637c1.19,0.963,2.913,1.443,5.168,1.443c0.988,0,1.969-0.133,2.945-0.398
		c0.975-0.267,1.779-0.614,2.413-1.045L379.536,298.343z"/>
	<path clip-path="url(#SVGID_2_)" fill="#231F20" d="M878.394,253.387c-3.521,0-5.282-0.583-5.282-1.748
		c0-0.456,0.223-0.792,0.665-1.007c0.443-0.216,1.185-0.323,2.224-0.323h5.205c0.837,0,1.432,0.102,1.786,0.305
		c0.355,0.202,0.532,0.506,0.532,0.912c0,0.557-0.437,1.007-1.311,1.349S880.065,253.387,878.394,253.387 M878.09,233.703
		c0.836,0,1.514,0.254,2.033,0.76c0.519,0.507,0.778,1.178,0.778,2.014c0,0.837-0.26,1.501-0.778,1.995
		c-0.52,0.494-1.197,0.741-2.033,0.741s-1.515-0.247-2.033-0.741c-0.52-0.494-0.779-1.158-0.779-1.995
		c0-0.836,0.26-1.507,0.779-2.014C876.575,233.957,877.254,233.703,878.09,233.703 M881.699,245.179h-6.46
		c-1.316,0-1.976-0.43-1.976-1.292c0-0.684,0.393-1.127,1.178-1.33c1.064,0.229,2.28,0.343,3.648,0.343
		c2.938,0,5.219-0.558,6.84-1.673c1.621-1.113,2.432-2.697,2.432-4.75c0-2.381-1.063-4.129-3.191-5.243
		c0.253-0.532,0.665-0.95,1.234-1.255c0.57-0.304,1.286-0.455,2.147-0.455c0.203,0,0.557,0.025,1.063,0.075l-0.722-4.294
		l-0.608-0.038c-1.57,0-2.799,0.482-3.686,1.444c-0.887,0.963-1.457,2.204-1.71,3.724c-1.165-0.277-2.432-0.418-3.8-0.418
		c-2.939,0-5.219,0.564-6.84,1.691c-1.621,1.128-2.433,2.717-2.433,4.769c0,2.356,1.039,4.093,3.116,5.206
		c-0.963,0.33-1.723,0.836-2.28,1.521c-0.557,0.684-0.836,1.47-0.836,2.355c0,1.8,0.976,3.116,2.926,3.952
		c-1.19,0.278-2.076,0.734-2.659,1.368c-0.583,0.633-0.874,1.368-0.874,2.204c0,1.418,0.792,2.52,2.375,3.306
		c1.583,0.785,4.033,1.178,7.353,1.178c3.293,0,5.896-0.576,7.809-1.729c1.913-1.153,2.869-2.806,2.869-4.959
		c0-1.874-0.602-3.293-1.805-4.256C885.607,245.661,883.903,245.179,881.699,245.179 M858.559,230.017
		c-1.496,0-2.8,0.336-3.914,1.008c-1.116,0.672-1.977,1.679-2.584,3.021l-0.189-3.647h-5.776v19h6.459v-10.032
		c0-1.494,0.317-2.604,0.951-3.325c0.632-0.722,1.456-1.083,2.47-1.083c0.86,0,1.525,0.273,1.995,0.817
		c0.468,0.545,0.703,1.463,0.703,2.755v10.868h6.459v-12.654c0-2.153-0.596-3.812-1.785-4.979
		C862.154,230.6,860.559,230.017,858.559,230.017 M841.496,230.397h-6.459v19h6.459V230.397z M838.267,228.193
		c1.317,0,2.274-0.247,2.869-0.741s0.893-1.273,0.893-2.337c0-1.089-0.298-1.881-0.893-2.375s-1.552-0.741-2.869-0.741
		s-2.274,0.247-2.869,0.741s-0.893,1.286-0.893,2.375c0,1.063,0.298,1.843,0.893,2.337S836.949,228.193,838.267,228.193
		 M820.444,245.027c-1.14,0-2.02-0.418-2.641-1.254c-0.621-0.837-0.931-2.129-0.931-3.876c0-1.748,0.31-3.04,0.931-3.876
		c0.621-0.837,1.501-1.255,2.641-1.255c1.039,0,1.868,0.381,2.489,1.141s0.969,1.837,1.045,3.229v1.521
		c-0.076,1.419-0.424,2.502-1.045,3.249C822.312,244.654,821.483,245.027,820.444,245.027 M823.979,222.341v11.248
		c-0.557-1.114-1.317-1.988-2.28-2.622c-0.963-0.633-2.114-0.95-3.458-0.95c-2.457,0-4.383,0.874-5.775,2.622
		c-1.394,1.748-2.09,4.193-2.09,7.334c0,3.092,0.689,5.498,2.07,7.221s3.301,2.584,5.757,2.584c1.419,0,2.666-0.355,3.743-1.064
		s1.895-1.684,2.451-2.926l0.229,3.61h5.813v-27.057H823.979z M806.804,230.017c-1.444,0-2.654,0.388-3.629,1.159
		c-0.977,0.773-1.691,1.881-2.147,3.325l-0.266-4.104h-5.7v19h6.46v-9.576c0-1.444,0.405-2.553,1.216-3.325s1.824-1.159,3.04-1.159
		c0.481,0,0.938,0.057,1.368,0.171c0.43,0.114,0.772,0.247,1.026,0.399l0.684-5.473
		C808.349,230.157,807.665,230.017,806.804,230.017 M781.306,234.615c1.216,0,2.115,0.418,2.698,1.254
		c0.582,0.836,0.874,2.179,0.874,4.028s-0.292,3.191-0.874,4.027c-0.583,0.836-1.482,1.254-2.698,1.254s-2.116-0.418-2.698-1.254
		c-0.583-0.836-0.874-2.178-0.874-4.027s0.291-3.192,0.874-4.028C779.189,235.033,780.09,234.615,781.306,234.615 M781.306,230.017
		c-3.167,0-5.631,0.868-7.391,2.604c-1.762,1.736-2.642,4.161-2.642,7.277c0,3.115,0.88,5.542,2.642,7.276
		c1.76,1.736,4.224,2.604,7.391,2.604c3.166,0,5.63-0.867,7.391-2.604c1.761-1.734,2.642-4.161,2.642-7.276
		c0-3.116-0.881-5.541-2.642-7.277C786.936,230.885,784.472,230.017,781.306,230.017 M759.569,230.017
		c-3.141,0-5.593,0.868-7.353,2.604c-1.762,1.736-2.642,4.161-2.642,7.277c0,3.142,0.887,5.573,2.66,7.296s4.308,2.584,7.601,2.584
		c2.558,0,4.616-0.538,6.175-1.615c1.558-1.076,2.476-2.477,2.755-4.199l-5.814-1.862c-0.304,2.053-1.355,3.078-3.153,3.078
		c-2.508,0-3.763-1.734-3.763-5.206c0-3.571,1.255-5.357,3.763-5.357c1.696,0,2.672,1.09,2.926,3.268l6.004-1.976
		c-0.354-1.748-1.254-3.166-2.698-4.256C764.586,230.562,762.433,230.017,759.569,230.017 M737.871,230.017
		c-3.141,0-5.592,0.868-7.353,2.604c-1.761,1.736-2.641,4.161-2.641,7.277c0,3.142,0.887,5.573,2.659,7.296
		c1.773,1.723,4.308,2.584,7.601,2.584c2.559,0,4.617-0.538,6.175-1.615c1.559-1.076,2.477-2.477,2.755-4.199l-5.813-1.862
		c-0.305,2.053-1.356,3.078-3.154,3.078c-2.508,0-3.762-1.734-3.762-5.206c0-3.571,1.254-5.357,3.762-5.357
		c1.697,0,2.672,1.09,2.926,3.268l6.004-1.976c-0.354-1.748-1.254-3.166-2.697-4.256
		C742.888,230.562,740.734,230.017,737.871,230.017 M714.008,245.597c-0.583,0-1.039-0.139-1.368-0.418
		c-0.329-0.277-0.494-0.684-0.494-1.216s0.171-0.943,0.513-1.235c0.343-0.291,0.918-0.537,1.729-0.74l3.078-0.723v1.635
		c0,0.811-0.355,1.463-1.064,1.957C715.692,245.35,714.895,245.597,714.008,245.597 M725.218,245.711
		c-0.912,0-1.368-0.494-1.368-1.482v-6.915c0-2.433-0.773-4.257-2.318-5.473s-3.8-1.824-6.764-1.824
		c-2.533,0-4.547,0.514-6.042,1.539c-1.495,1.026-2.407,2.464-2.736,4.313l5.244,1.52c0.177-1.038,0.57-1.786,1.178-2.241
		c0.608-0.456,1.394-0.685,2.356-0.685c0.836,0,1.495,0.254,1.976,0.76c0.481,0.508,0.723,1.191,0.723,2.053v0.684l-4.294,0.836
		c-2.636,0.532-4.528,1.299-5.682,2.299c-1.152,1.001-1.729,2.312-1.729,3.934c0,1.546,0.507,2.724,1.52,3.533
		c1.014,0.812,2.471,1.217,4.37,1.217c3.369,0,5.624-0.976,6.765-2.927c0.531,1.951,2.166,2.927,4.901,2.927
		c0.988,0,1.85-0.203,2.584-0.608l0.494-3.61C726.092,245.661,725.698,245.711,725.218,245.711 M687.066,249.397h7.145l-7.41-11.553
		l6.992-7.447h-7.145l-7.258,7.979v-16.036h-6.46v27.057h6.46v-4.37l3.078-3.42L687.066,249.397z M668.333,230.017
		c-1.444,0-2.654,0.388-3.63,1.159c-0.976,0.773-1.69,1.881-2.146,3.325l-0.266-4.104h-5.7v19h6.46v-9.576
		c0-1.444,0.404-2.553,1.216-3.325c0.81-0.772,1.824-1.159,3.04-1.159c0.48,0,0.937,0.057,1.368,0.171
		c0.43,0.114,0.771,0.247,1.025,0.399l0.685-5.473C669.878,230.157,669.193,230.017,668.333,230.017 M642.835,234.615
		c1.216,0,2.114,0.418,2.697,1.254s0.874,2.179,0.874,4.028s-0.291,3.191-0.874,4.027s-1.481,1.254-2.697,1.254
		c-1.217,0-2.115-0.418-2.698-1.254s-0.874-2.178-0.874-4.027s0.291-3.192,0.874-4.028S641.618,234.615,642.835,234.615
		 M642.835,230.017c-3.167,0-5.63,0.868-7.392,2.604c-1.761,1.736-2.641,4.161-2.641,7.277c0,3.115,0.88,5.542,2.641,7.276
		c1.762,1.736,4.225,2.604,7.392,2.604s5.63-0.867,7.391-2.604c1.761-1.734,2.641-4.161,2.641-7.276c0-3.116-0.88-5.541-2.641-7.277
		C648.465,230.885,646.002,230.017,642.835,230.017 M624.671,230.397l-3.23,14.325l-3.686-14.325h-6.385l-3.724,14.325
		l-3.191-14.325h-6.803l5.776,19h7.714l3.382-12.198l3.42,12.198h7.752l5.738-19H624.671z M576.412,234.539
		c2.026,0,3.192,1.242,3.496,3.724h-7.144C573.144,235.781,574.359,234.539,576.412,234.539 M585.95,239.631
		c0-3.04-0.817-5.402-2.451-7.087c-1.634-1.684-3.984-2.527-7.049-2.527c-3.167,0-5.612,0.862-7.334,2.584
		c-1.723,1.724-2.584,4.155-2.584,7.297s0.88,5.573,2.641,7.296c1.76,1.723,4.3,2.584,7.619,2.584c2.229,0,4.11-0.425,5.643-1.273
		c1.532-0.848,2.565-2.083,3.097-3.705l-5.244-1.672c-0.203,0.684-0.602,1.204-1.197,1.558c-0.596,0.355-1.362,0.532-2.299,0.532
		c-1.115,0-2.008-0.277-2.679-0.836c-0.672-0.557-1.109-1.431-1.311-2.622h12.958C585.886,241.202,585.95,240.493,585.95,239.631
		 M556.348,230.017c-1.394,0-2.603,0.323-3.629,0.97c-1.026,0.646-1.818,1.603-2.375,2.869v-11.515h-6.46v27.057h6.46v-9.994
		c0-1.521,0.316-2.647,0.95-3.382c0.633-0.734,1.456-1.103,2.47-1.103c1.798,0,2.698,1.204,2.698,3.61v10.868h6.46v-12.654
		c0-2.153-0.596-3.812-1.786-4.979C559.944,230.6,558.349,230.017,556.348,230.017 M540.045,244.343
		c-0.785,0.559-1.697,0.836-2.736,0.836c-1.672,0-2.508-0.848-2.508-2.546v-7.638h5.7v-4.598h-5.7v-6.042l-6.46,1.785v4.257h-3.268
		v4.598h3.268v8.702c0.025,2.128,0.633,3.674,1.824,4.636c1.191,0.963,2.913,1.444,5.168,1.444c0.988,0,1.97-0.134,2.945-0.399
		c0.975-0.266,1.78-0.614,2.413-1.045L540.045,244.343z M503.565,253.387c-3.521,0-5.282-0.583-5.282-1.748
		c0-0.456,0.222-0.792,0.665-1.007c0.443-0.216,1.184-0.323,2.223-0.323h5.206c0.836,0,1.431,0.102,1.786,0.305
		c0.355,0.202,0.532,0.506,0.532,0.912c0,0.557-0.437,1.007-1.311,1.349S505.238,253.387,503.565,253.387 M503.262,233.703
		c0.836,0,1.514,0.254,2.033,0.76c0.519,0.507,0.779,1.178,0.779,2.014c0,0.837-0.26,1.501-0.779,1.995s-1.197,0.741-2.033,0.741
		s-1.514-0.247-2.033-0.741s-0.779-1.158-0.779-1.995c0-0.836,0.26-1.507,0.779-2.014
		C501.748,233.957,502.426,233.703,503.262,233.703 M506.872,245.179h-6.46c-1.317,0-1.976-0.43-1.976-1.292
		c0-0.684,0.393-1.127,1.178-1.33c1.064,0.229,2.28,0.343,3.648,0.343c2.939,0,5.219-0.558,6.84-1.673
		c1.621-1.113,2.432-2.697,2.432-4.75c0-2.381-1.064-4.129-3.192-5.243c0.253-0.532,0.665-0.95,1.235-1.255
		c0.57-0.304,1.286-0.455,2.147-0.455c0.203,0,0.557,0.025,1.064,0.075l-0.722-4.294l-0.608-0.038c-1.571,0-2.799,0.482-3.686,1.444
		c-0.887,0.963-1.457,2.204-1.71,3.724c-1.165-0.277-2.432-0.418-3.8-0.418c-2.939,0-5.219,0.564-6.84,1.691
		c-1.621,1.128-2.432,2.717-2.432,4.769c0,2.356,1.039,4.093,3.116,5.206c-0.963,0.33-1.723,0.836-2.28,1.521
		c-0.557,0.684-0.836,1.47-0.836,2.355c0,1.8,0.975,3.116,2.926,3.952c-1.191,0.278-2.077,0.734-2.66,1.368
		c-0.583,0.633-0.874,1.368-0.874,2.204c0,1.418,0.792,2.52,2.375,3.306c1.583,0.785,4.034,1.178,7.353,1.178
		c3.293,0,5.896-0.576,7.809-1.729c1.913-1.153,2.869-2.806,2.869-4.959c0-1.874-0.602-3.293-1.805-4.256
		C510.78,245.661,509.076,245.179,506.872,245.179 M483.73,230.017c-1.495,0-2.8,0.336-3.914,1.008
		c-1.115,0.672-1.976,1.679-2.584,3.021l-0.19-3.647h-5.776v19h6.46v-10.032c0-1.494,0.316-2.604,0.95-3.325
		c0.633-0.722,1.456-1.083,2.47-1.083c0.861,0,1.526,0.273,1.995,0.817c0.468,0.545,0.703,1.463,0.703,2.755v10.868h6.46v-12.654
		c0-2.153-0.596-3.812-1.786-4.979C487.328,230.6,485.731,230.017,483.73,230.017 M466.668,230.397h-6.46v19h6.46V230.397z
		 M463.438,228.193c1.317,0,2.274-0.247,2.869-0.741c0.595-0.494,0.893-1.273,0.893-2.337c0-1.089-0.298-1.881-0.893-2.375
		c-0.595-0.494-1.552-0.741-2.869-0.741s-2.274,0.247-2.869,0.741c-0.595,0.494-0.893,1.286-0.893,2.375
		c0,1.063,0.298,1.843,0.893,2.337C461.165,227.946,462.122,228.193,463.438,228.193 M445.618,245.027
		c-1.14,0-2.021-0.418-2.641-1.254c-0.621-0.837-0.931-2.129-0.931-3.876c0-1.748,0.31-3.04,0.931-3.876
		c0.62-0.837,1.501-1.255,2.641-1.255c1.038,0,1.868,0.381,2.489,1.141c0.62,0.76,0.969,1.837,1.045,3.229v1.521
		c-0.076,1.419-0.425,2.502-1.045,3.249C447.485,244.654,446.656,245.027,445.618,245.027 M449.151,222.341v11.248
		c-0.558-1.114-1.318-1.988-2.28-2.622c-0.964-0.633-2.116-0.95-3.458-0.95c-2.458,0-4.384,0.874-5.776,2.622
		c-1.394,1.748-2.09,4.193-2.09,7.334c0,3.092,0.689,5.498,2.071,7.221c1.38,1.723,3.299,2.584,5.757,2.584
		c1.418,0,2.666-0.355,3.743-1.064c1.076-0.709,1.893-1.684,2.451-2.926l0.228,3.61h5.814v-27.057H449.151z M421.563,245.597
		c-0.583,0-1.039-0.139-1.368-0.418c-0.33-0.277-0.494-0.684-0.494-1.216s0.171-0.943,0.513-1.235
		c0.342-0.291,0.918-0.537,1.729-0.74l3.078-0.723v1.635c0,0.811-0.355,1.463-1.064,1.957
		C423.248,245.35,422.45,245.597,421.563,245.597 M432.773,245.711c-0.912,0-1.368-0.494-1.368-1.482v-6.915
		c0-2.433-0.773-4.257-2.318-5.473c-1.546-1.216-3.8-1.824-6.764-1.824c-2.534,0-4.548,0.514-6.042,1.539
		c-1.495,1.026-2.407,2.464-2.736,4.313l5.244,1.52c0.177-1.038,0.57-1.786,1.178-2.241c0.608-0.456,1.393-0.685,2.356-0.685
		c0.836,0,1.494,0.254,1.976,0.76c0.481,0.508,0.722,1.191,0.722,2.053v0.684l-4.294,0.836c-2.635,0.532-4.529,1.299-5.681,2.299
		c-1.153,1.001-1.729,2.312-1.729,3.934c0,1.546,0.506,2.724,1.52,3.533c1.013,0.812,2.47,1.217,4.37,1.217
		c3.369,0,5.624-0.976,6.764-2.927c0.532,1.951,2.166,2.927,4.902,2.927c0.988,0,1.849-0.203,2.584-0.608l0.494-3.61
		C433.647,245.661,433.254,245.711,432.773,245.711 M401.271,234.539c2.027,0,3.192,1.242,3.496,3.724h-7.144
		C398.003,235.781,399.22,234.539,401.271,234.539 M410.81,239.631c0-3.04-0.817-5.402-2.451-7.087
		c-1.634-1.684-3.984-2.527-7.049-2.527c-3.167,0-5.611,0.862-7.334,2.584c-1.723,1.724-2.584,4.155-2.584,7.297
		s0.88,5.573,2.641,7.296c1.761,1.723,4.3,2.584,7.619,2.584c2.229,0,4.11-0.425,5.643-1.273c1.533-0.848,2.565-2.083,3.097-3.705
		l-5.244-1.672c-0.203,0.684-0.602,1.204-1.197,1.558c-0.595,0.355-1.362,0.532-2.299,0.532c-1.115,0-2.008-0.277-2.679-0.836
		c-0.671-0.557-1.108-1.431-1.311-2.622h12.958C410.747,241.202,410.81,240.493,410.81,239.631 M373.266,229.257h4.446
		c1.393,0,2.406,0.254,3.04,0.76c0.633,0.508,0.95,1.306,0.95,2.395c0,1.115-0.317,1.926-0.95,2.432
		c-0.634,0.507-1.647,0.76-3.04,0.76h-4.446V229.257z M382.538,249.397h7.22l-6.384-9.843c1.596-0.582,2.812-1.481,3.648-2.697
		c0.836-1.217,1.254-2.736,1.254-4.561c0-2.584-0.817-4.56-2.451-5.928c-1.634-1.368-3.971-2.052-7.011-2.052h-11.97v25.08h6.422
		v-9.158h3.914L382.538,249.397z"/>
	<path clip-path="url(#SVGID_2_)" fill="#231F20" d="M255.91,482.984c4.589,4.589,10.133,6.889,16.633,6.889
		c6.494,0,12.039-2.3,16.632-6.889c4.589-4.589,6.889-10.133,6.889-16.633c0-6.494-2.3-12.038-6.889-16.632
		c-4.593-4.589-10.138-6.888-16.632-6.888c-6.5,0-12.044,2.299-16.633,6.888c-4.593,4.594-6.888,10.138-6.888,16.632
		C249.022,472.852,251.317,478.396,255.91,482.984 M61.865,458.96v26.209H223.15V458.96h-66.53V249.962h-54.77l-44.017,98.787v2.016
		h27.889l38.641-88.371h4.032V458.96H61.865z"/>
	<path clip-path="url(#SVGID_2_)" fill="#0046FA" d="M808.014,485.005c11.916-13.619,22.981-24.116,32.628-31.493
		c11.065-8.512,20.995-14.187,29.507-17.023v-6.525c-11.916-5.107-22.13-11.065-30.357-18.726
		c-16.456-15.037-27.237-25.534-31.777-31.21h-19.577c4.54,9.647,9.363,18.442,14.187,26.387
		c3.972,5.959,8.228,11.633,13.619,17.307H390.531v17.307h425.995c-7.377,9.079-11.633,15.038-13.902,18.727
		c-5.958,9.646-10.781,18.158-13.618,25.251H808.014z"/>
</g>
<line fill="none" stroke="#0046FA" stroke-width="2" x1="16.001" y1="180.014" x2="911.068" y2="180.014"/>
<line fill="none" stroke="#0046FA" stroke-width="2" x1="352.026" y1="348.408" x2="911.068" y2="348.408"/>
<line fill="none" stroke="#0046FA" stroke-width="2" x1="921.568" y1="14.001" x2="921.568" y2="505.456"/>
<line fill="none" stroke="#0046FA" stroke-width="2" x1="341.523" y1="191.015" x2="341.523" y2="505.456"/>
<g>
	<defs>
		<rect id="SVGID_7_" width="1170.088" height="525.039"/>
	</defs>
	<clipPath id="SVGID_4_">
		<use xlink:href="#SVGID_7_"  overflow="visible"/>
	</clipPath>
	<path clip-path="url(#SVGID_4_)" fill="#231F20" d="M1029.756,107.426c3.03,0,9.696-0.606,13.938,6.06
		c4.848,7.271,5.454,27.27,5.454,59.994c0,32.118-0.606,54.54-6.061,62.418c-3.029,4.848-9.09,6.666-13.332,6.666V107.426z
		 M1104.9,487.993l-30.906-215.736c15.756-18.785,23.028-58.781,23.028-101.201c0-84.234-19.393-128.473-66.66-128.473h-50.904
		v445.41h50.298v-193.92l26.059,193.92H1104.9z"/>
	<polygon clip-path="url(#SVGID_4_)" fill="none" stroke="#0046FA" stroke-width="1.998" points="0.999,2.998 0.999,522.037 
		0.999,524.039 3,524.039 1167.087,524.039 1169.088,524.039 1169.088,522.037 1169.088,2.998 1169.088,0.996 1167.087,0.996 
		3,0.996 0.999,0.996 	"/>
</g>
<rect x="5.001" y="5" fill="none" stroke="#0046FA" stroke-width="1.998" width="1160.085" height="515.035"/>
</svg>
