<?xml version="1.0" encoding="utf-8"?>
<!-- Generator: Adobe Illustrator 16.0.0, SVG Export Plug-In . SVG Version: 6.00 Build 0)  -->
<!DOCTYPE svg PUBLIC "-//W3C//DTD SVG 1.1//EN" "http://www.w3.org/Graphics/SVG/1.1/DTD/svg11.dtd">
<svg version="1.1" id="Layer_1" xmlns="http://www.w3.org/2000/svg" xmlns:xlink="http://www.w3.org/1999/xlink" x="0px" y="0px"
	 width="1170.09px" height="574.889px" viewBox="0 0 1170.09 574.889" enable-background="new 0 0 1170.09 574.889"
	 xml:space="preserve">
<g>
	<defs>
		<rect id="SVGID_9_" y="0" width="1170.088" height="574.889"/>
	</defs>
	<clipPath id="SVGID_2_">
		<use xlink:href="#SVGID_9_"  overflow="visible"/>
	</clipPath>
	<path clip-path="url(#SVGID_2_)" fill="#FF1419" d="M1051.017,123.901c2.957,1.461,5.915,2.733,8.873,3.818
		c2.957,1.086,5.961,1.985,9.013,2.696c3.051,0.711,6.178,1.244,9.378,1.601c3.201,0.354,6.523,0.533,9.968,0.533
		c7.188,0,13.506-0.701,18.952-2.105c5.448-1.404,10.005-3.371,13.676-5.897c3.668-2.526,6.429-5.53,8.282-9.013
		s2.779-7.281,2.779-11.4c0-6.064-1.928-11.23-5.784-15.499c-3.855-4.268-9.434-7.618-16.733-10.052l-6.739-2.246
		c-2.322-0.786-4.259-1.544-5.812-2.273c-1.555-0.73-2.809-1.461-3.764-2.191s-1.628-1.479-2.021-2.246
		c-0.395-0.768-0.591-1.562-0.591-2.387c0-0.936,0.233-1.881,0.702-2.836c0.468-0.955,1.16-1.815,2.078-2.584
		c0.917-0.766,2.049-1.383,3.397-1.853c1.348-0.467,2.92-0.702,4.717-0.702c1.048,0,2.209,0.094,3.482,0.281
		c1.271,0.188,2.572,0.469,3.902,0.842c1.328,0.375,2.658,0.844,3.987,1.404c1.328,0.562,2.592,1.217,3.79,1.966l6.064-10.95
		c-1.646-0.748-3.557-1.507-5.728-2.274c-2.171-0.767-4.558-1.45-7.16-2.05c-2.602-0.599-5.382-1.086-8.339-1.461
		c-2.958-0.373-6.046-0.561-9.266-0.561c-6.515,0-12.195,0.786-17.043,2.357c-4.85,1.574-8.864,3.679-12.047,6.318
		c-3.182,2.639-5.559,5.691-7.132,9.153c-1.571,3.464-2.357,7.067-2.357,10.81c0,5.805,1.814,10.812,5.446,15.022
		c3.631,4.212,9.041,7.553,16.229,10.024l10.052,3.426c1.946,0.674,3.528,1.357,4.745,2.05s2.171,1.385,2.865,2.077
		c0.691,0.693,1.16,1.395,1.402,2.105c0.243,0.713,0.365,1.404,0.365,2.078c0,2.135-1.002,3.819-3.004,5.055
		c-2.003,1.235-5.158,1.853-9.462,1.853c-3.744,0-7.788-0.505-12.13-1.517c-4.343-1.01-8.499-2.526-12.467-4.549L1051.017,123.901z
		 M974.57,119.746c-1.74-0.786-3.191-2.321-4.352-4.604c-1.161-2.283-2.041-5.484-2.64-9.604c-0.6-4.118-0.898-9.51-0.898-16.174
		c0-6.588,0.299-11.922,0.898-16.004c0.599-4.08,1.479-7.244,2.64-9.49c1.16-2.246,2.611-3.762,4.352-4.549
		c1.741-0.786,3.734-1.18,5.981-1.18c2.246,0,4.229,0.394,5.952,1.18c1.722,0.787,3.163,2.303,4.324,4.549
		c1.159,2.246,2.039,5.41,2.64,9.49c0.598,4.082,0.897,9.416,0.897,16.004c0,6.664-0.3,12.056-0.897,16.174
		c-0.601,4.119-1.48,7.32-2.64,9.604c-1.161,2.283-2.603,3.818-4.324,4.604c-1.723,0.786-3.706,1.179-5.952,1.179
		C978.305,120.924,976.312,120.532,974.57,119.746 M935.626,106.942c2.021,5.316,5.034,9.865,9.042,13.646
		c4.005,3.782,9.003,6.722,14.992,8.817c5.99,2.096,12.953,3.145,20.892,3.145c7.936,0,14.899-1.049,20.89-3.145
		c5.989-2.096,10.987-5.035,14.994-8.817c4.005-3.78,7.02-8.329,9.041-13.646c2.022-5.315,3.032-11.176,3.032-17.578
		c0-6.325-1.01-12.119-3.032-17.379c-2.021-5.26-5.036-9.78-9.041-13.562c-4.007-3.781-9.005-6.72-14.994-8.816
		c-5.99-2.097-12.954-3.145-20.89-3.145c-7.938,0-14.901,1.048-20.892,3.145c-5.989,2.097-10.987,5.035-14.992,8.816
		c-4.008,3.782-7.021,8.303-9.042,13.562s-3.032,11.054-3.032,17.379C932.594,95.766,933.604,101.626,935.626,106.942
		 M857.523,131.257h32.458V60.612h23.812V47.752h-80.08v12.859h23.811V131.257z M724.332,131.257h12.354V86.95l53.012,44.308h20.329
		V47.809h-12.354l-0.057,44.476L744.66,47.809h-20.328V131.257z M625.619,131.257h70.532v-12.86h-38.073v-22.35h29.089V83.188
		h-29.089l0.056-22.52h38.018V47.809h-70.532V131.257z M485.913,131.257h12.355V88.634l30.998,43.69l31.111-43.69v42.623h32.402
		V47.809h-22.35l-29.987,43.689l-31.56-43.689h-22.969V131.257z M380.575,99.08c0,5.167,0.786,9.81,2.359,13.927
		c1.572,4.119,4.043,7.629,7.412,10.529c3.37,2.902,7.674,5.13,12.916,6.683c5.241,1.554,11.512,2.331,18.813,2.331
		c5.353,0,10.201-0.787,14.544-2.359c4.343-1.571,8.049-3.826,11.119-6.767c3.07-2.938,5.438-6.485,7.104-10.641
		c1.665-4.156,2.499-8.817,2.499-13.983v-50.99h-12.354v52.899c0,2.995-0.375,5.597-1.123,7.806
		c-0.75,2.209-1.817,4.043-3.201,5.504c-1.386,1.459-3.061,2.545-5.026,3.256c-1.966,0.713-4.184,1.067-6.655,1.067
		c-2.246,0-4.343-0.354-6.29-1.067c-1.947-0.711-3.641-1.787-5.082-3.229c-1.441-1.441-2.564-3.257-3.369-5.447
		c-0.806-2.189-1.207-4.781-1.207-7.777V47.809h-32.459V99.08z M278.634,106.295c2.302,5.223,5.606,9.791,9.912,13.703
		c4.304,3.912,9.537,7.001,15.695,9.266c6.158,2.264,13.075,3.397,20.75,3.397c3.294,0,6.439-0.206,9.435-0.618
		c2.994-0.412,5.802-0.982,8.423-1.713c2.62-0.73,5.054-1.562,7.3-2.499c2.247-0.935,4.287-1.946,6.121-3.032l-4.829-9.434
		c-2.246,1.086-4.717,1.955-7.413,2.611c-2.695,0.654-5.391,0.982-8.086,0.982c-3.819,0-7.366-0.702-10.642-2.105
		c-3.276-1.404-6.102-3.389-8.479-5.953c-2.378-2.564-4.24-5.652-5.588-9.267c-1.348-3.612-2.022-7.646-2.022-12.101
		c0-4.493,0.683-8.545,2.05-12.158c1.366-3.613,3.247-6.691,5.644-9.238c2.395-2.545,5.241-4.511,8.536-5.896
		c3.293-1.386,6.869-2.078,10.725-2.078c2.883,0,5.663,0.346,8.34,1.039c2.676,0.692,5.063,1.544,7.16,2.555l4.829-9.434
		c-1.835-1.048-3.884-2.05-6.149-3.005c-2.266-0.955-4.727-1.797-7.385-2.527c-2.658-0.73-5.494-1.3-8.507-1.713
		c-3.014-0.411-6.169-0.617-9.463-0.617c-5.129,0-9.921,0.516-14.376,1.544c-4.455,1.03-8.527,2.479-12.214,4.353
		c-3.688,1.873-6.973,4.119-9.855,6.738c-2.884,2.621-5.317,5.522-7.301,8.704c-1.984,3.183-3.491,6.618-4.52,10.306
		c-1.03,3.688-1.545,7.516-1.545,11.483C275.18,95.505,276.332,101.073,278.634,106.295 M198.173,119.746
		c-1.741-0.786-3.192-2.321-4.352-4.604c-1.161-2.283-2.041-5.484-2.64-9.604c-0.599-4.118-0.898-9.51-0.898-16.174
		c0-6.588,0.299-11.922,0.898-16.004c0.599-4.08,1.479-7.244,2.64-9.49c1.16-2.246,2.611-3.762,4.352-4.549
		c1.741-0.786,3.734-1.18,5.981-1.18c2.246,0,4.23,0.394,5.952,1.18c1.722,0.787,3.163,2.303,4.324,4.549
		c1.16,2.246,2.04,5.41,2.64,9.49c0.598,4.082,0.898,9.416,0.898,16.004c0,6.664-0.3,12.056-0.898,16.174
		c-0.6,4.119-1.48,7.32-2.64,9.604c-1.161,2.283-2.602,3.818-4.324,4.604c-1.722,0.786-3.706,1.179-5.952,1.179
		C201.907,120.924,199.914,120.532,198.173,119.746 M159.228,106.942c2.022,5.316,5.035,9.865,9.042,13.646
		c4.005,3.782,9.003,6.722,14.993,8.817s12.953,3.145,20.891,3.145c7.936,0,14.9-1.049,20.89-3.145
		c5.989-2.096,10.987-5.035,14.994-8.817c4.005-3.78,7.019-8.329,9.041-13.646c2.022-5.315,3.032-11.176,3.032-17.578
		c0-6.325-1.01-12.119-3.032-17.379s-5.036-9.78-9.041-13.562c-4.007-3.781-9.005-6.72-14.994-8.816
		c-5.99-2.097-12.954-3.145-20.89-3.145c-7.938,0-14.901,1.048-20.891,3.145s-10.988,5.035-14.993,8.816
		c-4.007,3.782-7.02,8.303-9.042,13.562c-2.021,5.26-3.032,11.054-3.032,17.379C156.196,95.766,157.207,101.626,159.228,106.942
		 M74.949,60.05c3.668,0,6.991,0.534,9.967,1.601c2.977,1.067,5.513,2.771,7.61,5.11c2.096,2.341,3.706,5.345,4.829,9.013
		c1.123,3.67,1.685,8.106,1.685,13.31c0,5.242-0.553,9.744-1.657,13.506c-1.105,3.763-2.695,6.861-4.773,9.294
		c-2.078,2.434-4.615,4.23-7.609,5.391c-2.996,1.162-6.365,1.742-10.109,1.742L74.949,60.05z M42.434,131.257h34.312
		c9.659,0,18.026-1.085,25.102-3.257c7.075-2.171,12.934-5.157,17.577-8.957c4.641-3.799,8.086-8.255,10.332-13.365
		c2.247-5.111,3.37-10.623,3.37-16.537c0-6.627-1.123-12.505-3.37-17.635c-2.246-5.128-5.691-9.452-10.332-12.972
		c-4.643-3.519-10.502-6.187-17.577-8.002c-7.076-1.815-15.443-2.724-25.102-2.724H42.434V131.257z"/>
	<path clip-path="url(#SVGID_2_)" fill="#231F20" d="M1112.291,258.309c0.373-0.268,0.933-0.402,1.68-0.402
		c0.816,0,1.481,0.181,1.995,0.543c0.513,0.361,0.875,0.856,1.085,1.486l3.99-1.609c-0.188-0.49-0.455-0.998-0.806-1.522
		c-0.35-0.524-0.805-1.003-1.364-1.435c-0.561-0.432-1.242-0.782-2.048-1.051c-0.805-0.268-1.756-0.402-2.853-0.402
		c-0.84,0-1.657,0.117-2.45,0.35c-0.793,0.234-1.493,0.578-2.1,1.033c-0.607,0.455-1.098,1.01-1.471,1.662
		c-0.373,0.654-0.56,1.412-0.56,2.275v0.209c0,1.658,0.578,2.912,1.732,3.764c1.155,0.852,2.713,1.359,4.673,1.521
		c0.723,0.07,1.323,0.164,1.803,0.28c0.478,0.117,0.856,0.263,1.137,0.438c0.28,0.175,0.474,0.361,0.578,0.56
		c0.105,0.198,0.157,0.414,0.157,0.647c0,0.396-0.204,0.766-0.612,1.104c-0.409,0.338-1.161,0.506-2.258,0.506
		c-1.237,0-2.152-0.279-2.747-0.84s-0.986-1.213-1.173-1.96l-4.06,1.33c0.116,0.606,0.344,1.231,0.683,1.874
		c0.338,0.641,0.822,1.225,1.452,1.75c0.63,0.523,1.423,0.961,2.38,1.311c0.957,0.352,2.112,0.525,3.465,0.525
		c2.287,0,4.06-0.514,5.32-1.539c1.26-1.027,1.89-2.404,1.89-4.131v-0.21c0-1.563-0.56-2.782-1.68-3.657s-2.567-1.406-4.34-1.593
		c-1.54-0.163-2.603-0.367-3.186-0.612c-0.583-0.244-0.875-0.648-0.875-1.208C1111.73,258.911,1111.918,258.577,1112.291,258.309
		 M1095.613,258.711c0.735,0.537,1.172,1.214,1.312,2.029h-8.19c0.21-0.745,0.665-1.404,1.365-1.977s1.61-0.857,2.729-0.857
		C1093.95,257.907,1094.879,258.175,1095.613,258.711 M1101.405,264.522v-2.346c0-0.91-0.163-1.85-0.489-2.816
		c-0.327-0.969-0.841-1.855-1.54-2.66c-0.7-0.805-1.587-1.471-2.66-1.995c-1.073-0.525-2.357-0.788-3.851-0.788
		c-1.213,0-2.351,0.216-3.412,0.648c-1.062,0.432-1.989,1.031-2.782,1.801c-0.793,0.771-1.417,1.705-1.872,2.801
		c-0.455,1.097-0.684,2.311-0.684,3.64v0.21c0,1.447,0.217,2.742,0.648,3.885c0.431,1.145,1.038,2.113,1.82,2.906
		c0.78,0.793,1.709,1.4,2.781,1.82c1.073,0.42,2.264,0.629,3.57,0.629c1.143,0,2.141-0.127,2.993-0.385
		c0.851-0.256,1.575-0.582,2.17-0.98c0.595-0.395,1.079-0.834,1.452-1.312c0.373-0.477,0.665-0.938,0.875-1.383l-3.78-2.1
		c-0.257,0.537-0.677,0.998-1.259,1.383c-0.584,0.385-1.424,0.578-2.521,0.578c-0.56,0-1.091-0.088-1.592-0.262
		c-0.502-0.176-0.945-0.42-1.33-0.736c-0.385-0.314-0.688-0.688-0.91-1.119c-0.222-0.433-0.345-0.904-0.367-1.418H1101.405z
		 M1062.871,258.606h5.146v10.432c0,0.793,0.25,1.445,0.752,1.959c0.501,0.514,1.149,0.77,1.942,0.77h7.35v-4.199h-4.689
		c-0.631,0-0.945-0.35-0.945-1.051v-7.91h6.265v-4.199h-6.265v-7.141h-4.409v7.141h-5.146V258.606z M1046.351,262.737
		c0-1.471,0.321-2.643,0.963-3.518s1.615-1.312,2.922-1.312c1.12,0,1.979,0.355,2.573,1.067s0.892,1.687,0.892,2.923v9.869h4.41
		v-10.99c0-1.189-0.157-2.215-0.472-3.08c-0.315-0.862-0.752-1.574-1.313-2.135c-0.559-0.56-1.207-0.974-1.941-1.242
		c-0.735-0.268-1.523-0.402-2.362-0.402c-1.191,0-2.229,0.27-3.115,0.805c-0.888,0.537-1.528,1.295-1.926,2.275h-0.63v-2.59h-4.41
		v17.359h4.41V262.737z M1031.354,258.711c0.735,0.537,1.173,1.214,1.313,2.029h-8.191c0.211-0.745,0.666-1.404,1.365-1.977
		c0.701-0.572,1.609-0.857,2.73-0.857C1029.691,257.907,1030.618,258.175,1031.354,258.711 M1037.146,264.522v-2.346
		c0-0.91-0.164-1.85-0.49-2.816c-0.326-0.969-0.84-1.855-1.541-2.66c-0.698-0.805-1.587-1.471-2.66-1.995
		c-1.072-0.525-2.355-0.788-3.85-0.788c-1.213,0-2.35,0.216-3.412,0.648c-1.062,0.432-1.988,1.031-2.781,1.801
		c-0.795,0.771-1.419,1.705-1.873,2.801c-0.455,1.097-0.684,2.311-0.684,3.64v0.21c0,1.447,0.216,2.742,0.648,3.885
		c0.431,1.145,1.038,2.113,1.819,2.906c0.782,0.793,1.709,1.4,2.782,1.82s2.263,0.629,3.571,0.629c1.142,0,2.14-0.127,2.992-0.385
		c0.852-0.256,1.574-0.582,2.17-0.98c0.595-0.395,1.079-0.834,1.453-1.312c0.372-0.477,0.663-0.938,0.875-1.383l-3.78-2.1
		c-0.258,0.537-0.677,0.998-1.261,1.383c-0.583,0.385-1.424,0.578-2.521,0.578c-0.559,0-1.09-0.088-1.592-0.262
		c-0.502-0.176-0.945-0.42-1.33-0.736c-0.385-0.314-0.688-0.688-0.91-1.119c-0.222-0.433-0.345-0.904-0.367-1.418H1037.146z
		 M1010.86,263.506c0,1.471-0.309,2.631-0.927,3.482c-0.619,0.854-1.593,1.277-2.922,1.277c-1.167,0-2.042-0.344-2.625-1.031
		c-0.584-0.688-0.875-1.651-0.875-2.889v-9.939h-4.411v10.85c0,1.189,0.158,2.223,0.473,3.098c0.315,0.875,0.753,1.605,1.313,2.188
		c0.56,0.584,1.213,1.016,1.959,1.295c0.747,0.279,1.552,0.42,2.416,0.42c2.542,0,4.2-1.002,4.969-3.01h0.63v2.52h4.411v-17.359
		h-4.411V263.506z M977.542,258.606h4.935v13.16h4.41v-13.16h6.825v-4.199h-6.825v-1.891c0-0.699,0.314-1.05,0.945-1.05h5.25v-4.2
		h-7.07c-1.004,0-1.844,0.346-2.521,1.033c-0.677,0.688-1.014,1.534-1.014,2.537v3.57h-4.935V258.606z M940.932,258.309
		c0.373-0.268,0.933-0.402,1.68-0.402c0.816,0,1.481,0.181,1.995,0.543c0.513,0.361,0.875,0.856,1.085,1.486l3.99-1.609
		c-0.188-0.49-0.455-0.998-0.805-1.522c-0.351-0.524-0.806-1.003-1.365-1.435c-0.561-0.432-1.243-0.782-2.048-1.051
		c-0.806-0.268-1.756-0.402-2.853-0.402c-0.84,0-1.656,0.117-2.449,0.35c-0.795,0.234-1.494,0.578-2.101,1.033
		s-1.097,1.01-1.47,1.662c-0.374,0.654-0.561,1.412-0.561,2.275v0.209c0,1.658,0.577,2.912,1.732,3.764s2.713,1.359,4.673,1.521
		c0.723,0.07,1.324,0.164,1.802,0.28c0.479,0.117,0.858,0.263,1.139,0.438c0.279,0.175,0.472,0.361,0.576,0.56
		c0.105,0.198,0.158,0.414,0.158,0.647c0,0.396-0.205,0.766-0.612,1.104c-0.408,0.338-1.161,0.506-2.258,0.506
		c-1.236,0-2.152-0.279-2.748-0.84c-0.595-0.561-0.985-1.213-1.172-1.96l-4.06,1.33c0.116,0.606,0.344,1.231,0.682,1.874
		c0.338,0.641,0.823,1.225,1.453,1.75c0.63,0.523,1.422,0.961,2.38,1.311c0.956,0.352,2.111,0.525,3.465,0.525
		c2.286,0,4.061-0.514,5.32-1.539c1.26-1.027,1.89-2.404,1.89-4.131v-0.21c0-1.563-0.56-2.782-1.68-3.657s-2.566-1.406-4.34-1.593
		c-1.54-0.163-2.602-0.367-3.186-0.612c-0.584-0.244-0.875-0.648-0.875-1.208C940.371,258.911,940.558,258.577,940.932,258.309
		 M917.656,266.78c-0.77-0.853-1.154-2.014-1.154-3.483v-0.42c0-1.47,0.385-2.63,1.154-3.481c0.771-0.853,1.796-1.279,3.08-1.279
		c1.283,0,2.311,0.427,3.08,1.279c0.771,0.852,1.155,2.012,1.155,3.481v0.42c0,1.47-0.385,2.631-1.155,3.483
		c-0.77,0.852-1.797,1.277-3.08,1.277C919.452,268.057,918.427,267.631,917.656,266.78 M925.286,269.247
		c0,0.746,0.25,1.354,0.753,1.82c0.502,0.467,1.148,0.699,1.942,0.699h3.01v-4.199h-0.665c-0.63,0-0.944-0.35-0.944-1.051v-12.109
		h-4.41v2.1h-0.63c-0.444-0.886-1.045-1.54-1.803-1.96c-0.759-0.42-1.757-0.63-2.992-0.63c-1.027,0-1.99,0.205-2.889,0.613
		c-0.897,0.408-1.686,0.996-2.361,1.767c-0.678,0.771-1.214,1.704-1.61,2.8c-0.396,1.098-0.595,2.334-0.595,3.71v0.56
		c0,1.4,0.204,2.649,0.611,3.746c0.408,1.098,0.964,2.029,1.663,2.801c0.7,0.77,1.511,1.354,2.433,1.75s1.908,0.594,2.958,0.594
		c1.12,0,2.1-0.227,2.939-0.682s1.493-1.23,1.96-2.328H925.286z M891.896,271.766h16.17v-4.199h-5.67v-20.301h-10.29v4.2h5.88
		v16.101h-6.09V271.766z M859.993,258.711c0.735,0.537,1.174,1.214,1.313,2.029h-8.19c0.21-0.745,0.665-1.404,1.365-1.977
		s1.61-0.857,2.73-0.857S859.259,258.175,859.993,258.711 M865.786,264.522v-2.346c0-0.91-0.163-1.85-0.489-2.816
		c-0.327-0.969-0.84-1.855-1.54-2.66s-1.587-1.471-2.66-1.995c-1.074-0.525-2.357-0.788-3.851-0.788
		c-1.214,0-2.351,0.216-3.412,0.648c-1.062,0.432-1.989,1.031-2.782,1.801c-0.794,0.771-1.418,1.705-1.873,2.801
		c-0.455,1.097-0.683,2.311-0.683,3.64v0.21c0,1.447,0.216,2.742,0.647,3.885c0.432,1.145,1.038,2.113,1.82,2.906
		s1.709,1.4,2.782,1.82s2.264,0.629,3.57,0.629c1.144,0,2.141-0.127,2.992-0.385c0.852-0.256,1.575-0.582,2.17-0.98
		c0.595-0.395,1.079-0.834,1.453-1.312c0.373-0.477,0.665-0.938,0.875-1.383l-3.78-2.1c-0.257,0.537-0.677,0.998-1.26,1.383
		c-0.584,0.385-1.424,0.578-2.521,0.578c-0.56,0-1.091-0.088-1.593-0.262c-0.502-0.176-0.944-0.42-1.33-0.736
		c-0.385-0.314-0.688-0.688-0.909-1.119c-0.223-0.433-0.345-0.904-0.367-1.418H865.786z M832.238,266.78
		c-0.852-0.853-1.276-2.014-1.276-3.483v-0.42c0-1.47,0.425-2.63,1.276-3.481c0.853-0.853,1.967-1.279,3.344-1.279
		c1.376,0,2.489,0.438,3.342,1.313c0.852,0.875,1.277,2.024,1.277,3.447v0.42c0,1.424-0.426,2.573-1.277,3.448
		c-0.853,0.875-1.966,1.312-3.342,1.312C834.205,268.057,833.091,267.631,832.238,266.78 M840.201,271.766h4.41v-24.5h-4.41v9.66
		h-0.63c-0.467-0.956-1.108-1.697-1.925-2.222c-0.816-0.525-1.925-0.788-3.325-0.788c-1.05,0-2.048,0.199-2.993,0.595
		c-0.944,0.397-1.772,0.976-2.484,1.733s-1.272,1.686-1.68,2.781c-0.408,1.098-0.612,2.346-0.612,3.746v0.629
		c0,1.424,0.191,2.685,0.577,3.781c0.385,1.096,0.922,2.025,1.609,2.783c0.688,0.758,1.493,1.33,2.415,1.715
		s1.919,0.576,2.993,0.576c0.84,0,1.557-0.082,2.152-0.244c0.595-0.164,1.107-0.385,1.54-0.666c0.432-0.279,0.782-0.6,1.05-0.961
		c0.268-0.363,0.496-0.742,0.683-1.139h0.63V271.766z M789.137,266.78c-0.771-0.853-1.155-2.014-1.155-3.483v-0.42
		c0-1.47,0.385-2.63,1.155-3.481c0.77-0.853,1.796-1.279,3.08-1.279c1.283,0,2.31,0.427,3.08,1.279
		c0.77,0.852,1.154,2.012,1.154,3.481v0.42c0,1.47-0.385,2.631-1.154,3.483c-0.771,0.852-1.797,1.277-3.08,1.277
		C790.933,268.057,789.906,267.631,789.137,266.78 M796.767,269.247c0,0.746,0.25,1.354,0.752,1.82s1.149,0.699,1.943,0.699h3.01
		v-4.199h-0.665c-0.63,0-0.945-0.35-0.945-1.051v-12.109h-4.41v2.1h-0.63c-0.443-0.886-1.045-1.54-1.803-1.96
		s-1.756-0.63-2.992-0.63c-1.026,0-1.99,0.205-2.888,0.613c-0.898,0.408-1.687,0.996-2.362,1.767
		c-0.677,0.771-1.214,1.704-1.609,2.8c-0.397,1.098-0.596,2.334-0.596,3.71v0.56c0,1.4,0.204,2.649,0.612,3.746
		c0.408,1.098,0.963,2.029,1.663,2.801c0.7,0.77,1.51,1.354,2.432,1.75s1.908,0.594,2.958,0.594c1.12,0,2.101-0.227,2.94-0.682
		s1.493-1.23,1.96-2.328H796.767z M776.082,264.311c-0.211,1.145-0.672,2.055-1.384,2.73c-0.712,0.678-1.743,1.016-3.097,1.016
		c-0.63,0-1.225-0.1-1.785-0.297c-0.56-0.199-1.05-0.496-1.47-0.895c-0.42-0.396-0.753-0.892-0.998-1.486
		c-0.245-0.596-0.367-1.277-0.367-2.048v-0.21c0-0.77,0.122-1.465,0.367-2.082c0.245-0.618,0.578-1.143,0.998-1.575
		s0.91-0.765,1.47-0.998c0.561-0.233,1.155-0.351,1.785-0.351c1.354,0,2.403,0.375,3.15,1.121c0.746,0.746,1.189,1.634,1.33,2.66
		l4.34-1.121c-0.397-2.053-1.349-3.709-2.854-4.97c-1.505-1.26-3.471-1.89-5.896-1.89c-1.261,0-2.445,0.21-3.554,0.63
		c-1.107,0.42-2.076,1.026-2.904,1.819c-0.828,0.795-1.477,1.75-1.942,2.871c-0.467,1.119-0.7,2.379-0.7,3.779v0.42
		c0,1.4,0.233,2.649,0.7,3.746c0.466,1.096,1.108,2.018,1.925,2.764c0.816,0.748,1.779,1.32,2.888,1.717
		c1.107,0.396,2.304,0.594,3.588,0.594c2.473,0,4.449-0.629,5.932-1.891c1.482-1.26,2.421-2.916,2.818-4.969L776.082,264.311z
		 M741.222,258.606h3.149v8.961h-3.569v4.199h11.97v-4.199h-3.99v-5.601c0-1.26,0.28-2.228,0.84-2.905
		c0.561-0.676,1.33-1.015,2.311-1.015c0.979,0,1.715,0.286,2.205,0.858s0.734,1.336,0.734,2.291v0.49l4.551-0.42v-0.77
		c0-2.217-0.525-3.867-1.575-4.952s-2.439-1.628-4.165-1.628c-1.097,0-2.036,0.263-2.818,0.788
		c-0.781,0.524-1.336,1.266-1.662,2.222h-0.63v-2.52h-7.35V258.606z M731.474,258.711c0.735,0.537,1.173,1.214,1.312,2.029h-8.189
		c0.21-0.745,0.665-1.404,1.365-1.977c0.699-0.572,1.609-0.857,2.729-0.857S730.738,258.175,731.474,258.711 M737.267,264.522
		v-2.346c0-0.91-0.164-1.85-0.49-2.816c-0.327-0.969-0.84-1.855-1.54-2.66s-1.587-1.471-2.66-1.995
		c-1.073-0.525-2.356-0.788-3.85-0.788c-1.214,0-2.351,0.216-3.413,0.648c-1.062,0.432-1.989,1.031-2.782,1.801
		c-0.794,0.771-1.418,1.705-1.873,2.801c-0.455,1.097-0.682,2.311-0.682,3.64v0.21c0,1.447,0.215,2.742,0.647,3.885
		c0.432,1.145,1.037,2.113,1.819,2.906s1.709,1.4,2.783,1.82c1.073,0.42,2.263,0.629,3.57,0.629c1.143,0,2.14-0.127,2.992-0.385
		c0.852-0.256,1.574-0.582,2.17-0.98c0.595-0.395,1.078-0.834,1.452-1.312c0.373-0.477,0.665-0.938,0.875-1.383l-3.779-2.1
		c-0.257,0.537-0.677,0.998-1.261,1.383s-1.424,0.578-2.52,0.578c-0.56,0-1.091-0.088-1.593-0.262
		c-0.502-0.176-0.945-0.42-1.33-0.736c-0.385-0.314-0.688-0.688-0.91-1.119c-0.222-0.433-0.344-0.904-0.367-1.418H737.267z
		 M711.821,264.311c-0.21,1.145-0.671,2.055-1.383,2.73c-0.712,0.678-1.744,1.016-3.097,1.016c-0.63,0-1.226-0.1-1.785-0.297
		c-0.561-0.199-1.05-0.496-1.47-0.895c-0.42-0.396-0.753-0.892-0.998-1.486c-0.245-0.596-0.367-1.277-0.367-2.048v-0.21
		c0-0.77,0.122-1.465,0.367-2.082c0.245-0.618,0.578-1.143,0.998-1.575s0.909-0.765,1.47-0.998c0.56-0.233,1.155-0.351,1.785-0.351
		c1.353,0,2.402,0.375,3.149,1.121c0.746,0.746,1.19,1.634,1.33,2.66l4.34-1.121c-0.396-2.053-1.348-3.709-2.853-4.97
		c-1.505-1.26-3.471-1.89-5.897-1.89c-1.26,0-2.444,0.21-3.553,0.63c-1.107,0.42-2.077,1.026-2.905,1.819
		c-0.827,0.795-1.476,1.75-1.941,2.871c-0.467,1.119-0.7,2.379-0.7,3.779v0.42c0,1.4,0.233,2.649,0.7,3.746
		c0.466,1.096,1.107,2.018,1.925,2.764c0.816,0.748,1.779,1.32,2.887,1.717c1.108,0.396,2.305,0.594,3.588,0.594
		c2.474,0,4.45-0.629,5.933-1.891c1.481-1.26,2.421-2.916,2.817-4.969L711.821,264.311z M682.036,266.78
		c-0.77-0.853-1.154-2.014-1.154-3.483v-0.42c0-1.47,0.385-2.63,1.154-3.481c0.771-0.853,1.797-1.279,3.08-1.279
		s2.311,0.427,3.08,1.279c0.771,0.852,1.155,2.012,1.155,3.481v0.42c0,1.47-0.385,2.631-1.155,3.483
		c-0.77,0.852-1.797,1.277-3.08,1.277S682.807,267.631,682.036,266.78 M689.667,269.247c0,0.746,0.25,1.354,0.752,1.82
		s1.148,0.699,1.942,0.699h3.01v-4.199h-0.664c-0.631,0-0.945-0.35-0.945-1.051v-12.109h-4.41v2.1h-0.63
		c-0.444-0.886-1.045-1.54-1.803-1.96c-0.759-0.42-1.757-0.63-2.992-0.63c-1.027,0-1.99,0.205-2.888,0.613
		c-0.898,0.408-1.687,0.996-2.362,1.767c-0.677,0.771-1.214,1.704-1.61,2.8c-0.396,1.098-0.595,2.334-0.595,3.71v0.56
		c0,1.4,0.204,2.649,0.612,3.746c0.407,1.098,0.963,2.029,1.662,2.801c0.7,0.77,1.511,1.354,2.433,1.75s1.908,0.594,2.958,0.594
		c1.12,0,2.1-0.227,2.939-0.682c0.841-0.455,1.493-1.23,1.96-2.328H689.667z M639.371,262.737c0-1.471,0.32-2.643,0.963-3.518
		c0.642-0.875,1.615-1.312,2.923-1.312c1.12,0,1.977,0.355,2.571,1.067c0.596,0.712,0.894,1.687,0.894,2.923v9.869h4.41v-10.99
		c0-1.189-0.158-2.215-0.474-3.08c-0.314-0.862-0.752-1.574-1.312-2.135c-0.561-0.56-1.208-0.974-1.943-1.242
		c-0.734-0.268-1.521-0.402-2.361-0.402c-1.19,0-2.229,0.27-3.115,0.805c-0.888,0.537-1.529,1.295-1.925,2.275h-0.631v-2.59h-4.409
		v17.359h4.409V262.737z M619.807,251.817h3.57l2.939-4.761h-4.689L619.807,251.817z M619.736,267.741
		c-0.56-0.209-1.05-0.512-1.47-0.909c-0.42-0.396-0.753-0.88-0.998-1.452s-0.367-1.219-0.367-1.943v-0.699
		c0-0.724,0.122-1.371,0.367-1.942c0.245-0.572,0.578-1.056,0.998-1.453c0.42-0.396,0.91-0.7,1.47-0.91
		c0.561-0.21,1.155-0.315,1.785-0.315s1.225,0.105,1.785,0.315c0.56,0.21,1.05,0.515,1.47,0.91c0.42,0.397,0.752,0.881,0.997,1.453
		c0.245,0.571,0.368,1.219,0.368,1.942v0.699c0,0.725-0.123,1.371-0.368,1.943s-0.577,1.057-0.997,1.452
		c-0.42,0.397-0.91,0.7-1.47,0.909c-0.561,0.211-1.155,0.316-1.785,0.316S620.297,267.952,619.736,267.741 M630.552,262.876
		c0-1.423-0.245-2.688-0.735-3.798c-0.49-1.107-1.155-2.047-1.995-2.817s-1.803-1.353-2.888-1.75
		c-1.085-0.396-2.222-0.595-3.412-0.595c-1.189,0-2.328,0.199-3.413,0.595c-1.085,0.397-2.047,0.979-2.887,1.75
		s-1.505,1.71-1.995,2.817c-0.49,1.109-0.735,2.375-0.735,3.798v0.42c0,1.446,0.245,2.726,0.735,3.833s1.155,2.043,1.995,2.801
		s1.802,1.336,2.887,1.732s2.224,0.594,3.413,0.594c1.19,0,2.327-0.197,3.412-0.594s2.048-0.975,2.888-1.732
		s1.505-1.693,1.995-2.801s0.735-2.387,0.735-3.833V262.876z M603.549,247.95c-0.175-0.408-0.414-0.758-0.717-1.051
		c-0.305-0.291-0.66-0.524-1.068-0.699c-0.408-0.176-0.834-0.264-1.277-0.264c-0.467,0-0.898,0.088-1.295,0.264
		c-0.396,0.175-0.747,0.408-1.05,0.699c-0.304,0.293-0.543,0.643-0.718,1.051s-0.263,0.846-0.263,1.312
		c0,0.468,0.088,0.905,0.263,1.313s0.414,0.758,0.718,1.05c0.303,0.292,0.653,0.524,1.05,0.7c0.396,0.175,0.828,0.262,1.295,0.262
		c0.443,0,0.869-0.087,1.277-0.262c0.408-0.176,0.764-0.408,1.068-0.7c0.303-0.292,0.542-0.642,0.717-1.05s0.263-0.846,0.263-1.313
		C603.812,248.795,603.724,248.358,603.549,247.95 M592.437,271.766h15.33v-4.199h-5.04v-13.16h-9.87v4.199h5.46v8.961h-5.88
		V271.766z M583.302,264.311c-0.21,1.145-0.671,2.055-1.383,2.73c-0.712,0.678-1.744,1.016-3.097,1.016
		c-0.63,0-1.225-0.1-1.785-0.297c-0.56-0.199-1.05-0.496-1.47-0.895c-0.42-0.396-0.753-0.892-0.998-1.486
		c-0.245-0.596-0.367-1.277-0.367-2.048v-0.21c0-0.77,0.122-1.465,0.367-2.082c0.245-0.618,0.578-1.143,0.998-1.575
		s0.91-0.765,1.47-0.998s1.155-0.351,1.785-0.351c1.353,0,2.403,0.375,3.15,1.121c0.746,0.746,1.19,1.634,1.33,2.66l4.34-1.121
		c-0.397-2.053-1.348-3.709-2.853-4.97c-1.505-1.26-3.471-1.89-5.897-1.89c-1.26,0-2.445,0.21-3.553,0.63
		c-1.108,0.42-2.077,1.026-2.905,1.819c-0.828,0.795-1.476,1.75-1.942,2.871c-0.467,1.119-0.701,2.379-0.701,3.779v0.42
		c0,1.4,0.233,2.649,0.701,3.746c0.466,1.096,1.108,2.018,1.925,2.764c0.816,0.748,1.779,1.32,2.887,1.717
		c1.108,0.396,2.304,0.594,3.588,0.594c2.473,0,4.45-0.629,5.932-1.891c1.482-1.26,2.42-2.916,2.818-4.969L583.302,264.311z
		 M553.517,266.78c-0.77-0.853-1.155-2.014-1.155-3.483v-0.42c0-1.47,0.385-2.63,1.155-3.481c0.77-0.853,1.796-1.279,3.08-1.279
		c1.283,0,2.31,0.427,3.08,1.279c0.77,0.852,1.155,2.012,1.155,3.481v0.42c0,1.47-0.385,2.631-1.155,3.483
		c-0.77,0.852-1.797,1.277-3.08,1.277C555.312,268.057,554.287,267.631,553.517,266.78 M561.146,269.247
		c0,0.746,0.25,1.354,0.752,1.82s1.149,0.699,1.943,0.699h3.01v-4.199h-0.665c-0.63,0-0.945-0.35-0.945-1.051v-12.109h-4.41v2.1
		h-0.63c-0.444-0.886-1.045-1.54-1.803-1.96c-0.758-0.42-1.756-0.63-2.992-0.63c-1.027,0-1.99,0.205-2.888,0.613
		s-1.686,0.996-2.362,1.767c-0.677,0.771-1.214,1.704-1.61,2.8c-0.397,1.098-0.595,2.334-0.595,3.71v0.56
		c0,1.4,0.204,2.649,0.612,3.746c0.408,1.098,0.963,2.029,1.663,2.801c0.7,0.77,1.51,1.354,2.432,1.75
		c0.922,0.396,1.908,0.594,2.958,0.594c1.12,0,2.101-0.227,2.94-0.682s1.493-1.23,1.96-2.328H561.146z M545.291,258.327
		c0-1.377-0.35-2.455-1.049-3.237c-0.701-0.782-1.634-1.173-2.8-1.173c-0.887,0-1.628,0.205-2.223,0.613
		c-0.595,0.408-0.986,0.927-1.172,1.557h-0.63c-0.187-0.63-0.549-1.148-1.085-1.557c-0.537-0.408-1.19-0.613-1.96-0.613
		c-0.817,0-1.476,0.205-1.978,0.613s-0.822,0.927-0.962,1.557h-0.63v-1.68h-4.41v17.359h4.41v-11.97c0-0.56,0.14-0.979,0.42-1.26
		c0.28-0.28,0.63-0.421,1.05-0.421c0.373,0,0.694,0.123,0.962,0.369c0.268,0.244,0.403,0.611,0.403,1.102v12.18h4.41v-11.97
		c0-0.56,0.134-0.979,0.402-1.26s0.636-0.421,1.103-0.421c0.396,0,0.717,0.123,0.962,0.369c0.245,0.244,0.368,0.611,0.368,1.102
		v12.18h4.409V258.327z M505.602,258.606h3.15v8.961h-3.57v4.199h11.97v-4.199h-3.99v-5.601c0-1.26,0.28-2.228,0.84-2.905
		c0.56-0.676,1.33-1.015,2.31-1.015c0.979,0,1.715,0.286,2.205,0.858s0.735,1.336,0.735,2.291v0.49l4.55-0.42v-0.77
		c0-2.217-0.525-3.867-1.575-4.952s-2.439-1.628-4.165-1.628c-1.097,0-2.036,0.263-2.818,0.788
		c-0.782,0.524-1.336,1.266-1.662,2.222h-0.63v-2.52h-7.35V258.606z M491.217,267.741c-0.56-0.209-1.05-0.512-1.47-0.909
		c-0.42-0.396-0.753-0.88-0.998-1.452s-0.367-1.219-0.367-1.943v-0.699c0-0.724,0.122-1.371,0.367-1.942
		c0.245-0.572,0.578-1.056,0.998-1.453c0.42-0.396,0.91-0.7,1.47-0.91c0.56-0.21,1.155-0.315,1.785-0.315
		c0.63,0,1.225,0.105,1.785,0.315s1.05,0.515,1.47,0.91c0.42,0.397,0.752,0.881,0.997,1.453c0.245,0.571,0.368,1.219,0.368,1.942
		v0.699c0,0.725-0.123,1.371-0.368,1.943c-0.245,0.572-0.577,1.057-0.997,1.452c-0.42,0.397-0.91,0.7-1.47,0.909
		c-0.56,0.211-1.155,0.316-1.785,0.316C492.372,268.057,491.776,267.952,491.217,267.741 M502.032,262.876
		c0-1.423-0.245-2.688-0.735-3.798c-0.49-1.107-1.155-2.047-1.995-2.817c-0.84-0.771-1.803-1.353-2.888-1.75
		c-1.085-0.396-2.222-0.595-3.412-0.595s-2.328,0.199-3.413,0.595c-1.085,0.397-2.047,0.979-2.887,1.75s-1.505,1.71-1.995,2.817
		c-0.49,1.109-0.735,2.375-0.735,3.798v0.42c0,1.446,0.245,2.726,0.735,3.833c0.49,1.107,1.155,2.043,1.995,2.801
		s1.802,1.336,2.887,1.732c1.085,0.396,2.223,0.594,3.413,0.594s2.327-0.197,3.412-0.594s2.048-0.975,2.888-1.732
		c0.84-0.758,1.505-1.693,1.995-2.801c0.49-1.107,0.735-2.387,0.735-3.833V262.876z M463.461,258.606h4.935v13.16h4.41v-13.16h6.825
		v-4.199h-6.825v-1.891c0-0.699,0.315-1.05,0.945-1.05h5.25v-4.2h-7.07c-1.004,0-1.844,0.346-2.52,1.033
		c-0.677,0.688-1.015,1.534-1.015,2.537v3.57h-4.935V258.606z M446.592,262.737c0-1.471,0.32-2.643,0.962-3.518
		s1.616-1.312,2.923-1.312c1.12,0,1.977,0.355,2.572,1.067c0.595,0.712,0.893,1.687,0.893,2.923v9.869h4.41v-10.99
		c0-1.189-0.158-2.215-0.473-3.08c-0.315-0.862-0.752-1.574-1.312-2.135c-0.56-0.56-1.208-0.974-1.943-1.242
		c-0.735-0.268-1.522-0.402-2.362-0.402c-1.19,0-2.229,0.27-3.115,0.805c-0.887,0.537-1.529,1.295-1.925,2.275h-0.63v-2.59h-4.41
		v17.359h4.41V262.737z M432.188,247.95c-0.174-0.408-0.414-0.758-0.717-1.051c-0.304-0.291-0.66-0.524-1.068-0.699
		c-0.408-0.176-0.834-0.264-1.277-0.264c-0.467,0-0.899,0.088-1.295,0.264c-0.397,0.175-0.747,0.408-1.05,0.699
		c-0.304,0.293-0.543,0.643-0.718,1.051c-0.175,0.408-0.262,0.846-0.262,1.312c0,0.468,0.087,0.905,0.262,1.313
		c0.175,0.408,0.414,0.758,0.718,1.05c0.303,0.292,0.653,0.524,1.05,0.7c0.396,0.175,0.828,0.262,1.295,0.262
		c0.443,0,0.869-0.087,1.277-0.262c0.408-0.176,0.764-0.408,1.068-0.7c0.303-0.292,0.543-0.642,0.717-1.05
		c0.175-0.408,0.263-0.846,0.263-1.313C432.452,248.795,432.364,248.358,432.188,247.95 M421.077,271.766h15.33v-4.199h-5.04v-13.16
		h-9.87v4.199h5.46v8.961h-5.88V271.766z"/>
	<path clip-path="url(#SVGID_2_)" fill="#231F20" d="M1074.193,211.708c0.735,0.537,1.172,1.215,1.312,2.03h-8.19
		c0.211-0.745,0.665-1.405,1.365-1.978c0.7-0.571,1.61-0.857,2.731-0.857C1072.531,210.903,1073.459,211.172,1074.193,211.708
		 M1079.985,217.518v-2.346c0-0.909-0.163-1.849-0.489-2.817c-0.327-0.967-0.84-1.854-1.541-2.66
		c-0.699-0.804-1.587-1.47-2.659-1.993c-1.073-0.525-2.357-0.789-3.851-0.789c-1.213,0-2.351,0.217-3.412,0.647
		c-1.062,0.433-1.989,1.032-2.782,1.803s-1.417,1.704-1.872,2.8c-0.455,1.098-0.684,2.311-0.684,3.641v0.21
		c0,1.446,0.217,2.741,0.648,3.885c0.431,1.144,1.038,2.112,1.82,2.905c0.78,0.794,1.709,1.4,2.781,1.82
		c1.073,0.42,2.264,0.629,3.571,0.629c1.142,0,2.14-0.129,2.992-0.385c0.851-0.256,1.575-0.582,2.17-0.979
		c0.595-0.396,1.079-0.834,1.452-1.313c0.373-0.477,0.665-0.938,0.875-1.382l-3.78-2.101c-0.257,0.537-0.677,0.998-1.26,1.383
		c-0.583,0.386-1.423,0.578-2.521,0.578c-0.56,0-1.091-0.088-1.592-0.264c-0.502-0.174-0.945-0.42-1.33-0.733
		c-0.385-0.315-0.688-0.688-0.91-1.121c-0.222-0.431-0.345-0.903-0.367-1.417H1079.985z M1026.61,211.306
		c0.374-0.269,0.934-0.403,1.682-0.403c0.815,0,1.48,0.182,1.995,0.542c0.512,0.363,0.875,0.858,1.084,1.488l3.989-1.61
		c-0.187-0.49-0.454-0.998-0.804-1.521c-0.352-0.525-0.806-1.004-1.365-1.436c-0.561-0.432-1.243-0.781-2.048-1.051
		c-0.805-0.268-1.756-0.402-2.852-0.402c-0.842,0-1.658,0.117-2.451,0.351s-1.493,0.577-2.101,1.032
		c-0.606,0.455-1.097,1.01-1.469,1.662c-0.374,0.654-0.561,1.412-0.561,2.275v0.21c0,1.657,0.578,2.911,1.732,3.763
		c1.155,0.853,2.713,1.359,4.672,1.522c0.724,0.069,1.324,0.164,1.804,0.28c0.478,0.117,0.857,0.263,1.138,0.437
		c0.279,0.175,0.472,0.363,0.577,0.56c0.104,0.199,0.158,0.416,0.158,0.648c0,0.396-0.205,0.766-0.613,1.102
		c-0.408,0.34-1.161,0.509-2.257,0.509c-1.238,0-2.153-0.28-2.748-0.841c-0.596-0.56-0.986-1.213-1.173-1.959l-4.06,1.33
		c0.116,0.606,0.343,1.23,0.683,1.871c0.338,0.644,0.822,1.227,1.451,1.75c0.631,0.525,1.423,0.963,2.38,1.313
		s2.112,0.524,3.467,0.524c2.286,0,4.059-0.513,5.318-1.539c1.261-1.026,1.891-2.403,1.891-4.131v-0.209
		c0-1.563-0.56-2.783-1.681-3.658c-1.12-0.875-2.566-1.405-4.34-1.592c-1.539-0.164-2.602-0.369-3.184-0.613
		c-0.584-0.244-0.875-0.647-0.875-1.207C1026.052,211.907,1026.237,211.574,1026.61,211.306 M1005.297,220.738
		c-0.562-0.21-1.051-0.513-1.471-0.909s-0.753-0.881-0.998-1.453c-0.244-0.571-0.366-1.219-0.366-1.942v-0.7
		c0-0.723,0.122-1.37,0.366-1.943c0.245-0.57,0.578-1.055,0.998-1.451s0.909-0.7,1.471-0.91c0.559-0.211,1.154-0.315,1.785-0.315
		c0.63,0,1.225,0.104,1.783,0.315c0.562,0.21,1.052,0.514,1.472,0.91c0.419,0.396,0.752,0.881,0.997,1.451
		c0.244,0.573,0.367,1.221,0.367,1.943v0.7c0,0.724-0.123,1.371-0.367,1.942c-0.245,0.572-0.578,1.057-0.997,1.453
		c-0.42,0.396-0.91,0.699-1.472,0.909c-0.559,0.21-1.153,0.315-1.783,0.315C1006.451,221.053,1005.855,220.948,1005.297,220.738
		 M1016.11,215.874c0-1.424-0.245-2.689-0.734-3.799c-0.49-1.107-1.155-2.047-1.995-2.816c-0.839-0.771-1.803-1.354-2.888-1.75
		s-2.222-0.596-3.411-0.596c-1.19,0-2.328,0.199-3.413,0.596s-2.048,0.979-2.888,1.75c-0.84,0.77-1.505,1.709-1.994,2.816
		c-0.49,1.109-0.735,2.375-0.735,3.799v0.42c0,1.446,0.245,2.725,0.735,3.832c0.489,1.108,1.154,2.043,1.994,2.801
		s1.803,1.336,2.888,1.732c1.085,0.396,2.223,0.594,3.413,0.594c1.189,0,2.326-0.198,3.411-0.594
		c1.085-0.396,2.049-0.975,2.888-1.732c0.84-0.758,1.505-1.692,1.995-2.801c0.489-1.107,0.734-2.386,0.734-3.832V215.874z
		 M977.191,211.603h5.146v10.431c0,0.793,0.25,1.446,0.752,1.959c0.501,0.514,1.148,0.771,1.942,0.771h7.35v-4.2h-4.689
		c-0.63,0-0.945-0.35-0.945-1.05v-7.91h6.265v-4.2h-6.265v-7.14h-4.409v7.14h-5.146V211.603z M960.672,215.733
		c0-1.47,0.319-2.643,0.962-3.518c0.642-0.875,1.616-1.312,2.923-1.312c1.12,0,1.977,0.355,2.572,1.067
		c0.595,0.713,0.893,1.687,0.893,2.923v9.87h4.41v-10.99c0-1.19-0.158-2.216-0.473-3.08c-0.315-0.862-0.752-1.575-1.312-2.135
		c-0.56-0.56-1.208-0.974-1.943-1.243c-0.734-0.268-1.521-0.402-2.361-0.402c-1.19,0-2.229,0.27-3.115,0.805
		c-0.888,0.537-1.529,1.296-1.925,2.275h-0.63v-2.59h-4.411v17.36h4.411V215.733z M945.674,211.708
		c0.734,0.537,1.173,1.215,1.312,2.03h-8.189c0.21-0.745,0.665-1.405,1.365-1.978c0.699-0.571,1.609-0.857,2.729-0.857
		S944.938,211.172,945.674,211.708 M951.467,217.518v-2.346c0-0.909-0.164-1.849-0.49-2.817c-0.327-0.967-0.84-1.854-1.54-2.66
		c-0.7-0.804-1.587-1.47-2.66-1.993c-1.073-0.525-2.356-0.789-3.85-0.789c-1.214,0-2.352,0.217-3.413,0.647
		c-1.062,0.433-1.989,1.032-2.782,1.803c-0.794,0.771-1.418,1.704-1.873,2.8c-0.455,1.098-0.682,2.311-0.682,3.641v0.21
		c0,1.446,0.215,2.741,0.646,3.885c0.433,1.144,1.038,2.112,1.82,2.905c0.782,0.794,1.709,1.4,2.783,1.82
		c1.073,0.42,2.262,0.629,3.569,0.629c1.144,0,2.141-0.129,2.992-0.385c0.853-0.256,1.575-0.582,2.17-0.979
		c0.596-0.396,1.079-0.834,1.453-1.313c0.373-0.477,0.665-0.938,0.875-1.382l-3.779-2.101c-0.259,0.537-0.678,0.998-1.261,1.383
		c-0.584,0.386-1.424,0.578-2.52,0.578c-0.561,0-1.091-0.088-1.593-0.264c-0.502-0.174-0.945-0.42-1.33-0.733
		c-0.386-0.315-0.688-0.688-0.91-1.121c-0.223-0.431-0.344-0.903-0.367-1.417H951.467z M930.852,211.323
		c0-1.376-0.35-2.455-1.05-3.236c-0.7-0.782-1.634-1.174-2.8-1.174c-0.888,0-1.628,0.205-2.224,0.613
		c-0.595,0.408-0.985,0.928-1.172,1.557h-0.63c-0.187-0.629-0.549-1.148-1.085-1.557c-0.537-0.408-1.19-0.613-1.96-0.613
		c-0.817,0-1.477,0.205-1.979,0.613s-0.821,0.928-0.962,1.557h-0.63v-1.68h-4.41v17.36h4.41v-11.97c0-0.561,0.141-0.98,0.42-1.26
		c0.28-0.281,0.631-0.421,1.051-0.421c0.373,0,0.693,0.123,0.962,0.367c0.268,0.245,0.402,0.612,0.402,1.103v12.181h4.41v-11.97
		c0-0.561,0.134-0.98,0.402-1.26c0.268-0.281,0.636-0.421,1.103-0.421c0.396,0,0.717,0.123,0.962,0.367
		c0.245,0.245,0.368,0.612,0.368,1.103v12.181h4.41V211.323z M896.429,219.776c-0.853-0.852-1.277-2.013-1.277-3.482v-0.42
		c0-1.471,0.425-2.631,1.277-3.482c0.852-0.852,1.966-1.278,3.343-1.278c1.376,0,2.49,0.438,3.342,1.313
		c0.853,0.875,1.278,2.023,1.278,3.447v0.42c0,1.424-0.426,2.572-1.278,3.447c-0.852,0.875-1.966,1.312-3.342,1.312
		C898.395,221.053,897.28,220.627,896.429,219.776 M904.392,226.513c0,0.7-0.315,1.05-0.945,1.05h-9.029v4.2h11.689
		c0.793,0,1.44-0.257,1.942-0.771s0.753-1.166,0.753-1.959v-21.631h-4.41v2.52h-0.63c-0.467-0.955-1.109-1.697-1.925-2.221
		c-0.817-0.525-1.925-0.789-3.325-0.789c-1.05,0-2.048,0.199-2.993,0.596s-1.772,0.975-2.485,1.732
		c-0.712,0.758-1.271,1.686-1.68,2.782s-0.612,2.345-0.612,3.745v0.63c0,1.424,0.192,2.685,0.577,3.78
		c0.385,1.097,0.922,2.025,1.61,2.783c0.688,0.758,1.493,1.328,2.415,1.715c0.922,0.384,1.919,0.576,2.993,0.576
		c0.84,0,1.557-0.082,2.151-0.244c0.596-0.164,1.108-0.385,1.54-0.666c0.433-0.279,0.782-0.6,1.05-0.963
		c0.269-0.36,0.496-0.739,0.684-1.137h0.63V226.513z M874.816,219.776c-0.77-0.852-1.154-2.013-1.154-3.482v-0.42
		c0-1.471,0.385-2.631,1.154-3.482c0.771-0.852,1.796-1.278,3.08-1.278c1.283,0,2.311,0.427,3.08,1.278s1.155,2.012,1.155,3.482
		v0.42c0,1.47-0.386,2.631-1.155,3.482s-1.797,1.277-3.08,1.277C876.612,221.053,875.587,220.627,874.816,219.776 M882.446,222.243
		c0,0.747,0.25,1.354,0.752,1.82c0.502,0.467,1.149,0.7,1.943,0.7h3.01v-4.2h-0.665c-0.63,0-0.944-0.35-0.944-1.05v-12.11h-4.41v2.1
		h-0.63c-0.444-0.885-1.045-1.539-1.804-1.959c-0.758-0.42-1.756-0.631-2.991-0.631c-1.027,0-1.99,0.205-2.889,0.613
		c-0.897,0.408-1.686,0.997-2.361,1.768c-0.678,0.77-1.215,1.703-1.61,2.799c-0.397,1.098-0.595,2.334-0.595,3.711v0.56
		c0,1.4,0.203,2.649,0.611,3.745c0.408,1.098,0.963,2.03,1.663,2.801c0.7,0.77,1.511,1.354,2.433,1.75
		c0.922,0.396,1.907,0.594,2.958,0.594c1.12,0,2.1-0.227,2.939-0.683c0.84-0.454,1.493-1.229,1.96-2.327H882.446z M848.321,211.603
		h3.15v8.96h-3.57v4.2h11.97v-4.2h-3.989v-5.6c0-1.26,0.28-2.229,0.84-2.905s1.33-1.015,2.31-1.015c0.98,0,1.715,0.285,2.205,0.857
		s0.735,1.336,0.735,2.292v0.49l4.55-0.42v-0.771c0-2.216-0.525-3.867-1.575-4.953c-1.05-1.084-2.438-1.627-4.165-1.627
		c-1.097,0-2.035,0.264-2.817,0.789c-0.782,0.523-1.336,1.266-1.662,2.221h-0.63v-2.52h-7.351V211.603z M827.602,211.603h4.936
		v13.16h4.409v-13.16h6.825v-4.2h-6.825v-1.89c0-0.7,0.315-1.05,0.945-1.05h5.25v-4.2h-7.07c-1.004,0-1.844,0.345-2.52,1.032
		c-0.677,0.688-1.015,1.535-1.015,2.537v3.57h-4.936V211.603z M790.991,211.306c0.373-0.269,0.934-0.403,1.681-0.403
		c0.815,0,1.48,0.182,1.995,0.542c0.513,0.363,0.875,0.858,1.085,1.488l3.989-1.61c-0.187-0.49-0.454-0.998-0.805-1.521
		c-0.35-0.525-0.805-1.004-1.365-1.436c-0.56-0.432-1.243-0.781-2.048-1.051c-0.805-0.268-1.756-0.402-2.852-0.402
		c-0.84,0-1.657,0.117-2.45,0.351c-0.794,0.233-1.494,0.577-2.101,1.032s-1.097,1.01-1.47,1.662c-0.374,0.654-0.56,1.412-0.56,2.275
		v0.21c0,1.657,0.577,2.911,1.731,3.763c1.155,0.853,2.714,1.359,4.673,1.522c0.724,0.069,1.324,0.164,1.803,0.28
		c0.478,0.117,0.857,0.263,1.138,0.437c0.28,0.175,0.472,0.363,0.577,0.56c0.104,0.199,0.158,0.416,0.158,0.648
		c0,0.396-0.205,0.766-0.613,1.102c-0.408,0.34-1.161,0.509-2.257,0.509c-1.237,0-2.153-0.28-2.748-0.841
		c-0.595-0.56-0.986-1.213-1.172-1.959l-4.061,1.33c0.116,0.606,0.345,1.23,0.683,1.871c0.338,0.644,0.822,1.227,1.453,1.75
		c0.63,0.525,1.423,0.963,2.38,1.313c0.956,0.351,2.11,0.524,3.465,0.524c2.286,0,4.06-0.513,5.319-1.539
		c1.261-1.026,1.891-2.403,1.891-4.131v-0.209c0-1.563-0.561-2.783-1.68-3.658c-1.12-0.875-2.567-1.405-4.341-1.592
		c-1.54-0.164-2.602-0.369-3.185-0.613c-0.584-0.244-0.875-0.647-0.875-1.207C790.432,211.907,790.617,211.574,790.991,211.306
		 M769.677,220.738c-0.561-0.21-1.05-0.513-1.47-0.909s-0.754-0.881-0.998-1.453c-0.245-0.571-0.367-1.219-0.367-1.942v-0.7
		c0-0.723,0.122-1.37,0.367-1.943c0.244-0.57,0.578-1.055,0.998-1.451s0.909-0.7,1.47-0.91c0.56-0.211,1.155-0.315,1.785-0.315
		s1.225,0.104,1.784,0.315c0.561,0.21,1.051,0.514,1.471,0.91s0.752,0.881,0.997,1.451c0.245,0.573,0.368,1.221,0.368,1.943v0.7
		c0,0.724-0.123,1.371-0.368,1.942c-0.245,0.572-0.577,1.057-0.997,1.453s-0.91,0.699-1.471,0.909
		c-0.56,0.21-1.154,0.315-1.784,0.315S770.236,220.948,769.677,220.738 M780.491,215.874c0-1.424-0.245-2.689-0.734-3.799
		c-0.49-1.107-1.155-2.047-1.995-2.816c-0.84-0.771-1.803-1.354-2.888-1.75s-2.223-0.596-3.412-0.596
		c-1.19,0-2.328,0.199-3.413,0.596s-2.047,0.979-2.887,1.75c-0.841,0.77-1.506,1.709-1.995,2.816
		c-0.49,1.109-0.735,2.375-0.735,3.799v0.42c0,1.446,0.245,2.725,0.735,3.832c0.489,1.108,1.154,2.043,1.995,2.801
		c0.84,0.758,1.802,1.336,2.887,1.732c1.085,0.396,2.223,0.594,3.413,0.594c1.189,0,2.327-0.198,3.412-0.594
		c1.085-0.396,2.048-0.975,2.888-1.732s1.505-1.692,1.995-2.801c0.489-1.107,0.734-2.386,0.734-3.832V215.874z M741.957,224.763
		h16.17v-4.2h-5.67v-20.3h-10.29v4.2h5.88v16.1h-6.09V224.763z M705.312,211.306c0.373-0.269,0.933-0.403,1.68-0.403
		c0.816,0,1.481,0.182,1.995,0.542c0.514,0.363,0.875,0.858,1.085,1.488l3.99-1.61c-0.187-0.49-0.455-0.998-0.805-1.521
		c-0.351-0.525-0.806-1.004-1.365-1.436s-1.243-0.781-2.048-1.051c-0.805-0.268-1.756-0.402-2.853-0.402
		c-0.84,0-1.656,0.117-2.449,0.351c-0.794,0.233-1.494,0.577-2.101,1.032s-1.097,1.01-1.47,1.662
		c-0.374,0.654-0.56,1.412-0.56,2.275v0.21c0,1.657,0.576,2.911,1.731,3.763c1.155,0.853,2.713,1.359,4.673,1.522
		c0.724,0.069,1.324,0.164,1.802,0.28c0.479,0.117,0.858,0.263,1.139,0.437c0.28,0.175,0.472,0.363,0.577,0.56
		c0.104,0.199,0.157,0.416,0.157,0.648c0,0.396-0.204,0.766-0.612,1.102c-0.408,0.34-1.161,0.509-2.258,0.509
		c-1.236,0-2.152-0.28-2.747-0.841c-0.596-0.56-0.986-1.213-1.173-1.959l-4.06,1.33c0.116,0.606,0.344,1.23,0.682,1.871
		c0.339,0.644,0.823,1.227,1.453,1.75c0.63,0.525,1.423,0.963,2.38,1.313c0.956,0.351,2.111,0.524,3.465,0.524
		c2.286,0,4.061-0.513,5.32-1.539s1.891-2.403,1.891-4.131v-0.209c0-1.563-0.561-2.783-1.681-3.658s-2.566-1.405-4.34-1.592
		c-1.54-0.164-2.602-0.369-3.185-0.613c-0.584-0.244-0.875-0.647-0.875-1.207C704.752,211.907,704.938,211.574,705.312,211.306
		 M683.996,220.738c-0.56-0.21-1.05-0.513-1.47-0.909s-0.753-0.881-0.998-1.453c-0.245-0.571-0.366-1.219-0.366-1.942v-0.7
		c0-0.723,0.121-1.37,0.366-1.943c0.245-0.57,0.578-1.055,0.998-1.451s0.91-0.7,1.47-0.91c0.561-0.211,1.155-0.315,1.785-0.315
		c0.631,0,1.226,0.104,1.785,0.315c0.561,0.21,1.05,0.514,1.471,0.91c0.42,0.396,0.752,0.881,0.996,1.451
		c0.245,0.573,0.368,1.221,0.368,1.943v0.7c0,0.724-0.123,1.371-0.368,1.942c-0.244,0.572-0.576,1.057-0.996,1.453
		c-0.421,0.396-0.91,0.699-1.471,0.909c-0.56,0.21-1.154,0.315-1.785,0.315C685.151,221.053,684.557,220.948,683.996,220.738
		 M694.812,215.874c0-1.424-0.245-2.689-0.735-3.799c-0.489-1.107-1.154-2.047-1.994-2.816c-0.841-0.771-1.804-1.354-2.889-1.75
		s-2.222-0.596-3.412-0.596c-1.189,0-2.328,0.199-3.413,0.596s-2.047,0.979-2.887,1.75c-0.84,0.77-1.505,1.709-1.995,2.816
		c-0.49,1.109-0.734,2.375-0.734,3.799v0.42c0,1.446,0.244,2.725,0.734,3.832c0.49,1.108,1.155,2.043,1.995,2.801
		s1.802,1.336,2.887,1.732c1.085,0.396,2.224,0.594,3.413,0.594c1.19,0,2.327-0.198,3.412-0.594
		c1.085-0.396,2.048-0.975,2.889-1.732c0.84-0.758,1.505-1.692,1.994-2.801c0.49-1.107,0.735-2.386,0.735-3.832V215.874z
		 M660.879,219.776c-0.853-0.852-1.277-2.013-1.277-3.482v-0.42c0-1.471,0.425-2.631,1.277-3.482
		c0.852-0.852,1.966-1.278,3.343-1.278c1.376,0,2.49,0.438,3.342,1.313c0.853,0.875,1.278,2.023,1.278,3.447v0.42
		c0,1.424-0.426,2.572-1.278,3.447c-0.852,0.875-1.966,1.312-3.342,1.312C662.845,221.053,661.73,220.627,660.879,219.776
		 M668.842,224.763h4.41v-24.5h-4.41v9.659h-0.63c-0.468-0.955-1.109-1.697-1.926-2.221c-0.816-0.525-1.925-0.789-3.324-0.789
		c-1.051,0-2.048,0.199-2.993,0.596s-1.773,0.975-2.485,1.732s-1.271,1.686-1.68,2.782s-0.612,2.345-0.612,3.745v0.63
		c0,1.424,0.192,2.685,0.577,3.78c0.385,1.097,0.922,2.025,1.61,2.783c0.688,0.758,1.492,1.328,2.415,1.715
		c0.922,0.384,1.919,0.576,2.992,0.576c0.841,0,1.558-0.082,2.152-0.244c0.595-0.164,1.108-0.385,1.54-0.666
		c0.432-0.279,0.782-0.6,1.05-0.963c0.269-0.36,0.496-0.739,0.684-1.137h0.63V224.763z M641.156,220.738
		c-0.56-0.21-1.05-0.513-1.47-0.909s-0.753-0.881-0.998-1.453c-0.245-0.571-0.367-1.219-0.367-1.942v-0.7
		c0-0.723,0.122-1.37,0.367-1.943c0.245-0.57,0.578-1.055,0.998-1.451s0.91-0.7,1.47-0.91c0.561-0.211,1.155-0.315,1.785-0.315
		s1.226,0.104,1.785,0.315c0.56,0.21,1.05,0.514,1.47,0.91s0.752,0.881,0.997,1.451c0.245,0.573,0.368,1.221,0.368,1.943v0.7
		c0,0.724-0.123,1.371-0.368,1.942c-0.245,0.572-0.577,1.057-0.997,1.453s-0.91,0.699-1.47,0.909s-1.155,0.315-1.785,0.315
		S641.717,220.948,641.156,220.738 M651.972,215.874c0-1.424-0.245-2.689-0.735-3.799c-0.49-1.107-1.154-2.047-1.995-2.816
		c-0.84-0.771-1.803-1.354-2.888-1.75s-2.222-0.596-3.412-0.596c-1.189,0-2.328,0.199-3.413,0.596s-2.047,0.979-2.887,1.75
		c-0.84,0.77-1.505,1.709-1.995,2.816c-0.49,1.109-0.735,2.375-0.735,3.799v0.42c0,1.446,0.245,2.725,0.735,3.832
		c0.49,1.108,1.155,2.043,1.995,2.801s1.802,1.336,2.887,1.732c1.085,0.396,2.224,0.594,3.413,0.594c1.19,0,2.327-0.198,3.412-0.594
		c1.085-0.396,2.048-0.975,2.888-1.732c0.841-0.758,1.505-1.692,1.995-2.801c0.49-1.107,0.735-2.386,0.735-3.832V215.874z
		 M613.052,211.603h5.145v10.431c0,0.793,0.25,1.446,0.752,1.959c0.502,0.514,1.149,0.771,1.943,0.771h7.35v-4.2h-4.689
		c-0.63,0-0.945-0.35-0.945-1.05v-7.91h6.265v-4.2h-6.265v-7.14h-4.41v7.14h-5.145V211.603z M581.534,211.708
		c0.735,0.537,1.173,1.215,1.313,2.03h-8.19c0.209-0.745,0.665-1.405,1.365-1.978c0.7-0.571,1.61-0.857,2.73-0.857
		C579.872,210.903,580.799,211.172,581.534,211.708 M587.326,217.518v-2.346c0-0.909-0.164-1.849-0.489-2.817
		c-0.327-0.967-0.84-1.854-1.541-2.66c-0.7-0.804-1.587-1.47-2.66-1.993c-1.074-0.525-2.357-0.789-3.85-0.789
		c-1.214,0-2.351,0.217-3.413,0.647c-1.062,0.433-1.989,1.032-2.782,1.803c-0.794,0.771-1.418,1.704-1.873,2.8
		c-0.455,1.098-0.682,2.311-0.682,3.641v0.21c0,1.446,0.215,2.741,0.647,3.885s1.038,2.112,1.82,2.905
		c0.782,0.794,1.709,1.4,2.783,1.82c1.073,0.42,2.263,0.629,3.57,0.629c1.143,0,2.14-0.129,2.992-0.385s1.575-0.582,2.17-0.979
		c0.595-0.396,1.079-0.834,1.453-1.313c0.373-0.477,0.665-0.938,0.875-1.382l-3.78-2.101c-0.257,0.537-0.677,0.998-1.26,1.383
		c-0.584,0.386-1.424,0.578-2.52,0.578c-0.56,0-1.091-0.088-1.593-0.264c-0.502-0.174-0.945-0.42-1.33-0.733
		c-0.385-0.315-0.688-0.688-0.91-1.121c-0.222-0.431-0.344-0.903-0.367-1.417H587.326z M553.778,219.776
		c-0.852-0.852-1.277-2.013-1.277-3.482v-0.42c0-1.471,0.425-2.631,1.277-3.482c0.853-0.852,1.966-1.278,3.343-1.278
		c1.376,0,2.49,0.438,3.342,1.313s1.278,2.023,1.278,3.447v0.42c0,1.424-0.426,2.572-1.278,3.447s-1.966,1.312-3.342,1.312
		C555.745,221.053,554.631,220.627,553.778,219.776 M561.742,224.763h4.41v-24.5h-4.41v9.659h-0.63
		c-0.467-0.955-1.109-1.697-1.925-2.221c-0.817-0.525-1.925-0.789-3.325-0.789c-1.05,0-2.048,0.199-2.993,0.596
		s-1.773,0.975-2.485,1.732c-0.712,0.758-1.272,1.686-1.68,2.782c-0.408,1.097-0.612,2.345-0.612,3.745v0.63
		c0,1.424,0.192,2.685,0.577,3.78c0.385,1.097,0.922,2.025,1.61,2.783c0.688,0.758,1.493,1.328,2.415,1.715
		c0.922,0.384,1.919,0.576,2.993,0.576c0.84,0,1.557-0.082,2.152-0.244c0.595-0.164,1.108-0.385,1.54-0.666
		c0.432-0.279,0.782-0.6,1.05-0.963c0.268-0.36,0.496-0.739,0.683-1.137h0.63V224.763z M510.677,219.776
		c-0.77-0.852-1.155-2.013-1.155-3.482v-0.42c0-1.471,0.385-2.631,1.155-3.482s1.796-1.278,3.08-1.278
		c1.283,0,2.31,0.427,3.08,1.278s1.155,2.012,1.155,3.482v0.42c0,1.47-0.385,2.631-1.155,3.482s-1.797,1.277-3.08,1.277
		C512.473,221.053,511.447,220.627,510.677,219.776 M518.307,222.243c0,0.747,0.25,1.354,0.752,1.82
		c0.502,0.467,1.149,0.7,1.943,0.7h3.01v-4.2h-0.665c-0.63,0-0.945-0.35-0.945-1.05v-12.11h-4.41v2.1h-0.63
		c-0.444-0.885-1.045-1.539-1.803-1.959s-1.756-0.631-2.992-0.631c-1.027,0-1.99,0.205-2.888,0.613s-1.686,0.997-2.362,1.768
		c-0.677,0.77-1.214,1.703-1.61,2.799c-0.397,1.098-0.595,2.334-0.595,3.711v0.56c0,1.4,0.204,2.649,0.612,3.745
		c0.408,1.098,0.963,2.03,1.663,2.801c0.7,0.77,1.51,1.354,2.432,1.75c0.922,0.396,1.908,0.594,2.958,0.594
		c1.12,0,2.1-0.227,2.94-0.683c0.84-0.454,1.493-1.229,1.96-2.327H518.307z M484.532,211.603h5.145v10.431
		c0,0.793,0.25,1.446,0.752,1.959c0.502,0.514,1.149,0.771,1.943,0.771h7.35v-4.2h-4.69c-0.63,0-0.945-0.35-0.945-1.05v-7.91h6.265
		v-4.2h-6.265v-7.14h-4.41v7.14h-5.145V211.603z M469.691,211.306c0.373-0.269,0.933-0.403,1.68-0.403
		c0.816,0,1.481,0.182,1.995,0.542c0.513,0.363,0.875,0.858,1.085,1.488l3.99-1.61c-0.187-0.49-0.455-0.998-0.805-1.521
		c-0.35-0.525-0.805-1.004-1.365-1.436s-1.243-0.781-2.048-1.051c-0.805-0.268-1.756-0.402-2.852-0.402
		c-0.84,0-1.657,0.117-2.45,0.351c-0.794,0.233-1.494,0.577-2.1,1.032c-0.607,0.455-1.097,1.01-1.47,1.662
		c-0.374,0.654-0.56,1.412-0.56,2.275v0.21c0,1.657,0.577,2.911,1.732,3.763c1.155,0.853,2.713,1.359,4.673,1.522
		c0.723,0.069,1.324,0.164,1.802,0.28c0.478,0.117,0.858,0.263,1.138,0.437c0.28,0.175,0.472,0.363,0.577,0.56
		c0.105,0.199,0.158,0.416,0.158,0.648c0,0.396-0.205,0.766-0.613,1.102c-0.408,0.34-1.161,0.509-2.257,0.509
		c-1.237,0-2.153-0.28-2.748-0.841c-0.595-0.56-0.986-1.213-1.172-1.959l-4.06,1.33c0.116,0.606,0.344,1.23,0.682,1.871
		c0.338,0.644,0.823,1.227,1.453,1.75c0.63,0.525,1.423,0.963,2.38,1.313c0.956,0.351,2.111,0.524,3.465,0.524
		c2.286,0,4.06-0.513,5.32-1.539c1.26-1.026,1.89-2.403,1.89-4.131v-0.209c0-1.563-0.56-2.783-1.68-3.658
		c-1.12-0.875-2.567-1.405-4.34-1.592c-1.54-0.164-2.602-0.369-3.185-0.613c-0.584-0.244-0.875-0.647-0.875-1.207
		C469.132,211.907,469.317,211.574,469.691,211.306 M453.608,200.945c-0.174-0.407-0.414-0.757-0.717-1.049
		c-0.304-0.292-0.66-0.524-1.068-0.701c-0.408-0.174-0.834-0.262-1.277-0.262c-0.467,0-0.899,0.088-1.295,0.262
		c-0.397,0.177-0.747,0.409-1.05,0.701c-0.304,0.292-0.543,0.642-0.718,1.049c-0.174,0.409-0.262,0.847-0.262,1.313
		s0.088,0.904,0.262,1.312c0.175,0.409,0.414,0.759,0.718,1.052c0.303,0.291,0.653,0.524,1.05,0.698
		c0.396,0.177,0.828,0.263,1.295,0.263c0.443,0,0.869-0.086,1.277-0.263c0.408-0.174,0.764-0.407,1.068-0.698
		c0.303-0.293,0.543-0.643,0.717-1.052c0.175-0.407,0.263-0.845,0.263-1.312S453.784,201.354,453.608,200.945 M442.497,224.763
		h15.33v-4.2h-5.04v-13.16h-9.87v4.2h5.46v8.96h-5.88V224.763z M420.901,224.763h15.75v-4.41h-11.13v-20.09h-4.62V224.763z"/>
	<path clip-path="url(#SVGID_2_)" fill="#231F20" d="M648.75,509.461c1.71,3.84,3.963,7.18,6.761,10.016
		c2.795,2.838,6.135,5.111,10.016,6.824c3.883,1.709,8.033,2.566,12.458,2.566c4.258,0,8.347-0.857,12.271-2.566
		c3.923-1.713,7.303-3.986,10.142-6.824c2.837-2.836,5.112-6.176,6.824-10.016c1.709-3.84,2.566-7.971,2.566-12.396
		c0-4.256-0.857-8.346-2.566-12.27c-1.712-3.924-3.987-7.303-6.824-10.143c-2.839-2.836-6.219-5.111-10.142-6.824
		c-3.924-1.709-8.013-2.564-12.271-2.564c-4.425,0-8.575,0.855-12.458,2.564c-3.881,1.713-7.221,3.988-10.016,6.824
		c-2.798,2.84-5.051,6.219-6.761,10.143c-1.712,3.924-2.567,8.014-2.567,12.27C646.183,501.491,647.038,505.622,648.75,509.461
		 M497.439,489.928c3.255-6.842,7.657-12.457,13.209-16.84c5.55-4.381,11.707-8.055,18.468-11.018
		c6.761-2.963,13.898-5.426,21.41-7.387c7.512-1.961,14.941-3.945,22.287-5.949c7.344-2.002,14.355-4.318,21.034-6.947
		c6.677-2.631,12.583-5.988,17.717-10.08c5.134-4.088,9.202-9.266,12.207-15.525s4.509-14.064,4.509-23.412
		c0-7.764-1.797-15.045-5.385-21.85c-3.59-6.803-8.933-12.771-16.025-17.904c-7.097-5.133-15.86-9.16-26.294-12.082
		c-10.435-2.92-22.495-4.383-36.184-4.383c-12.855,0-24.665,1.314-35.433,3.943c-10.768,2.631-19.992,6.387-27.67,11.27
		c-7.681,4.883-13.648,10.664-17.905,17.342s-6.385,14.023-6.385,22.035c0,6.01,0.98,11.102,2.942,15.275
		c1.96,4.176,4.464,7.555,7.512,10.143c3.046,2.588,6.468,4.465,10.267,5.633c3.797,1.17,7.491,1.754,11.081,1.754
		c4.758,0,9.015-0.627,12.771-1.879s6.865-3.004,9.328-5.258c2.461-2.254,4.339-4.736,5.634-7.451
		c1.293-2.711,1.94-5.527,1.94-8.451c0-6.51-1.878-11.434-5.634-14.773c-3.756-3.338-8.181-5.76-13.272-7.262
		c4.089-2.086,8.389-3.547,12.897-4.383c4.507-0.834,9.597-1.252,15.275-1.252c8.013,0,14.877,1.795,20.596,5.383
		c5.716,3.592,8.577,9.059,8.577,16.402c0,4.926-1.399,9.184-4.195,12.771c-2.797,3.59-6.51,6.93-11.143,10.018
		c-4.633,3.088-9.934,6.094-15.901,9.014c-5.969,2.922-12.041,6.221-18.218,9.893c-6.178,3.674-12.25,7.949-18.217,12.832
		c-5.969,4.883-11.268,10.727-15.901,17.529c-4.633,6.805-8.348,14.773-11.143,23.914c-2.798,9.141-4.195,19.971-4.195,32.49h28.672
		c0.834-1.668,2.045-3.211,3.631-4.633c1.335-1.166,3.109-2.273,5.322-3.316c2.21-1.043,5.237-1.566,9.077-1.566
		c4.423,0,9.159,0.648,14.211,1.941c5.049,1.295,10.349,2.672,15.901,4.133c5.55,1.461,11.35,2.816,17.403,4.068
		c6.051,1.252,12.333,1.877,18.844,1.877c8.179,0,15.858-0.668,23.038-2.002c7.177-1.334,13.375-4.445,18.593-9.328
		c5.216-4.883,9.327-12.02,12.332-21.41s4.509-22.057,4.509-38h-24.666c0,7.512-1.797,12.646-5.385,15.4
		c-3.589,2.754-8.557,4.131-14.898,4.131c-3.34,0-6.386-0.291-9.14-0.875c-2.755-0.584-5.677-1.189-8.764-1.816
		c-3.089-0.625-6.511-1.23-10.267-1.814c-3.756-0.584-8.348-0.877-13.773-0.877c-5.343,0-10.267,0.732-14.774,2.191
		c-4.507,1.461-8.557,3.256-12.145,5.383c-3.59,2.129-6.761,4.426-9.516,6.887c-2.754,2.463-4.967,4.738-6.636,6.824
		L497.439,489.928z"/>
	<path clip-path="url(#SVGID_2_)" fill="#FF1419" d="M828.643,425.87v21.035l200.176-4.559
		c-18.58,23.139-35.407,53.287-35.407,83.787l0.351,0.701c29.098-39.965,72.568-72.568,119.194-89.746v-1.051
		c-47.327-17.178-88.695-49.08-119.194-89.396l-0.351,0.352c0.701,28.746,14.724,64.504,35.407,83.434L828.643,425.87z"/>
	<path clip-path="url(#SVGID_2_)" fill="#231F20" d="M168.267,468.313V272.145h24.52c20.143,0,34.223,4.529,42.255,13.574
		c8.025,9.051,12.042,22.33,12.042,39.846v84.072c0,20.143-4.017,34.961-12.042,44.443c-8.032,9.49-22.112,14.232-42.255,14.232
		H168.267z M81.568,272.145h28.9v195.729h-28.9v55.609h111.219c37.945,0,66.119-8.824,84.51-26.49
		c18.39-17.658,27.586-45.025,27.586-82.102v-89.326c0-37.068-9.196-64.436-27.586-82.102c-18.391-17.658-46.565-26.49-84.51-26.49
		H81.568V272.145z"/>
	<polygon clip-path="url(#SVGID_2_)" fill="none" stroke="#231F20" stroke-width="1.998" points="0.999,3 0.999,571.889 
		0.999,573.891 3,573.891 1167.087,573.891 1169.088,573.891 1169.088,571.889 1169.088,3 1169.088,0.999 1167.087,0.999 3,0.999 
		0.999,0.999 	"/>
</g>
<rect x="5.001" y="5.002" fill="none" stroke="#231F20" stroke-width="1.998" width="1160.085" height="564.885"/>
<line fill="none" stroke="#231F20" stroke-width="2" x1="26.002" y1="169.014" x2="1144.086" y2="169.014"/>
<line fill="none" stroke="#231F20" stroke-width="2" x1="403.03" y1="298.024" x2="1144.086" y2="298.024"/>
<line fill="none" stroke="#231F20" stroke-width="2" x1="382.027" y1="190.014" x2="382.027" y2="549.042"/>
<line fill="none" stroke="#231F20" stroke-width="2" x1="773.557" y1="319.024" x2="773.557" y2="549.042"/>
</svg>
