<?xml version="1.0" encoding="utf-8"?>
<!-- Generator: Adobe Illustrator 16.0.0, SVG Export Plug-In . SVG Version: 6.00 Build 0)  -->
<!DOCTYPE svg PUBLIC "-//W3C//DTD SVG 1.1//EN" "http://www.w3.org/Graphics/SVG/1.1/DTD/svg11.dtd">
<svg version="1.1" id="Layer_1" xmlns="http://www.w3.org/2000/svg" xmlns:xlink="http://www.w3.org/1999/xlink" x="0px" y="0px"
	 width="1170.09px" height="525.04px" viewBox="0 0 1170.09 525.04" enable-background="new 0 0 1170.09 525.04"
	 xml:space="preserve">
<g>
	<defs>
		<rect id="SVGID_5_" width="1170.088" height="525.038"/>
	</defs>
	<clipPath id="SVGID_2_">
		<use xlink:href="#SVGID_5_"  overflow="visible"/>
	</clipPath>
	<path clip-path="url(#SVGID_2_)" fill="#0046FA" d="M818.139,102.84l11.821-30.836h0.257l11.821,30.836H818.139z M818.91,39.239
		l-42.785,106h25.954l7.837-21.199h40.345l7.837,21.199h25.954l-42.785-106H818.91z M671.411,58.513h2.826
		c2.227,0,4.111,0.044,5.653,0.128c1.542,0.087,3.296,0.386,5.269,0.9c1.969,0.514,3.553,1.242,4.754,2.184
		c1.198,0.943,2.226,2.313,3.083,4.111c0.854,1.799,1.285,3.982,1.285,6.553s-0.431,4.754-1.285,6.553
		c-0.857,1.8-1.885,3.17-3.083,4.111c-1.201,0.944-2.785,1.671-4.754,2.185c-1.973,0.515-3.727,0.815-5.269,0.899
		c-1.542,0.086-3.427,0.129-5.653,0.129h-2.826V58.513z M647.255,145.239h24.156v-41.886l32.378,41.886h30.708l-36.49-43.812
		c6.681-2.14,11.969-5.846,15.868-11.114c3.896-5.268,5.846-11.799,5.846-19.594c0-10.106-3.212-17.88-9.636-23.32
		c-6.425-5.438-14.734-8.159-24.926-8.159h-37.904V145.239z M560.786,39.239v61.287c0,8.567-1.349,14.52-4.047,17.86
		c-2.698,3.341-7.089,5.011-13.17,5.011c-6.083,0-10.471-1.67-13.169-5.011c-2.699-3.341-4.048-9.293-4.048-17.86V39.239h-24.155
		v68.354c0,13.021,3.511,22.871,10.536,29.552c7.022,6.682,17.301,10.022,30.836,10.022c13.533,0,23.812-3.341,30.837-10.022
		c7.022-6.681,10.536-16.531,10.536-29.552V39.239H560.786z M397.226,60.439v84.8h24.155v-84.8h25.183v-21.2h-74.522v21.2H397.226z
		 M297.134,145.239h24.155v-106h-24.155V145.239z M174.433,39.239v106h60.645V124.04h-36.49v-21.328h34.948v-21.2h-34.948V60.439
		h36.49v-21.2H174.433z M53.658,39.239v106h60.645V124.04h-36.49V39.239H53.658z"/>
	<path clip-path="url(#SVGID_2_)" fill="#231F20" d="M880.372,305.968c3.037,0,5.354-0.594,6.952-1.787
		c1.597-1.191,2.396-2.742,2.396-4.654c0-1.703-0.635-3.045-1.904-4.025c-1.271-0.982-3.346-1.723-6.226-2.221
		c-1.336-0.262-2.271-0.529-2.809-0.805s-0.805-0.609-0.805-1.002c0-0.418,0.262-0.771,0.785-1.059
		c0.523-0.289,1.258-0.434,2.199-0.434c1.204,0,2.239,0.209,3.104,0.629c0.863,0.418,1.61,1.086,2.238,2.002l3.457-3.377
		c-0.891-1.23-2.05-2.152-3.476-2.77c-1.428-0.615-3.267-0.922-5.52-0.922c-2.043,0-3.777,0.307-5.203,0.922
		c-1.429,0.617-2.495,1.422-3.202,2.416c-0.707,0.996-1.061,2.057-1.061,3.182c0,1.65,0.622,2.973,1.866,3.967
		c1.243,0.996,3.331,1.781,6.264,2.357c1.31,0.262,2.233,0.529,2.771,0.805c0.536,0.275,0.805,0.596,0.805,0.963
		c0,0.418-0.262,0.752-0.786,1c-0.523,0.25-1.244,0.373-2.16,0.373c-2.75,0-4.688-0.928-5.812-2.787l-3.457,3.77
		C872.674,304.815,875.868,305.968,880.372,305.968 M856.805,301.647c-0.602,0-1.073-0.143-1.414-0.432
		c-0.34-0.289-0.51-0.707-0.51-1.258s0.176-0.975,0.53-1.275c0.353-0.301,0.949-0.557,1.787-0.766l3.182-0.748v1.689
		c0,0.838-0.367,1.512-1.1,2.023C858.546,301.392,857.722,301.647,856.805,301.647 M868.393,301.765
		c-0.942,0-1.414-0.51-1.414-1.531v-7.148c0-2.514-0.8-4.4-2.396-5.656c-1.597-1.258-3.927-1.885-6.991-1.885
		c-2.619,0-4.701,0.529-6.245,1.59c-1.546,1.061-2.487,2.547-2.828,4.459l5.421,1.57c0.183-1.072,0.589-1.846,1.218-2.316
		c0.628-0.473,1.438-0.707,2.435-0.707c0.864,0,1.545,0.262,2.042,0.785s0.747,1.23,0.747,2.121v0.707l-4.438,0.863
		c-2.725,0.551-4.682,1.344-5.872,2.377c-1.192,1.033-1.787,2.391-1.787,4.064c0,1.598,0.522,2.816,1.571,3.654
		c1.047,0.838,2.553,1.256,4.517,1.256c3.481,0,5.812-1.008,6.992-3.025c0.549,2.018,2.237,3.025,5.066,3.025
		c1.021,0,1.911-0.209,2.67-0.629l0.512-3.73C869.296,301.714,868.889,301.765,868.393,301.765 M844.669,285.937h-6.677v19.639
		h6.677V285.937z M841.33,283.657c1.361,0,2.35-0.256,2.966-0.766c0.615-0.51,0.923-1.316,0.923-2.416
		c0-1.125-0.308-1.943-0.923-2.455c-0.616-0.51-1.604-0.766-2.966-0.766c-1.362,0-2.35,0.256-2.965,0.766
		c-0.616,0.512-0.923,1.33-0.923,2.455c0,1.1,0.307,1.906,0.923,2.416C838.98,283.401,839.968,283.657,841.33,283.657
		 M824.951,285.544c-3.247,0-5.781,0.896-7.6,2.689c-1.821,1.793-2.73,4.301-2.73,7.521c0,3.248,0.916,5.762,2.749,7.543
		c1.833,1.779,4.452,2.67,7.856,2.67c2.644,0,4.771-0.557,6.383-1.67c1.609-1.111,2.559-2.559,2.847-4.34l-6.009-1.924
		c-0.314,2.121-1.401,3.182-3.26,3.182c-2.594,0-3.89-1.793-3.89-5.381c0-3.693,1.296-5.539,3.89-5.539
		c1.754,0,2.762,1.127,3.023,3.379l6.206-2.043c-0.367-1.809-1.296-3.273-2.789-4.4C830.136,286.106,827.91,285.544,824.951,285.544
		 M804.094,285.544c-1.545,0-2.893,0.346-4.045,1.041c-1.152,0.693-2.043,1.734-2.671,3.123l-0.197-3.771h-5.97v19.639h6.677
		v-10.369c0-1.545,0.327-2.691,0.982-3.438s1.506-1.119,2.553-1.119c0.891,0,1.578,0.281,2.062,0.844
		c0.484,0.564,0.727,1.514,0.727,2.848v11.234h6.677v-13.08c0-2.225-0.614-3.939-1.846-5.145
		C807.812,286.146,806.163,285.544,804.094,285.544 M785.045,283.618l-4.242-6.795h-6.52l-4.243,6.795h4.832l2.671-3.418
		l2.671,3.418H785.045z M777.621,290.218c2.095,0,3.3,1.283,3.614,3.848h-7.386C774.243,291.501,775.5,290.218,777.621,290.218
		 M787.48,295.479c0-3.141-0.845-5.582-2.533-7.324c-1.689-1.74-4.119-2.611-7.287-2.611c-3.273,0-5.8,0.891-7.58,2.67
		c-1.781,1.781-2.671,4.295-2.671,7.541c0,3.248,0.909,5.762,2.729,7.543c1.819,1.779,4.444,2.67,7.875,2.67
		c2.305,0,4.248-0.438,5.833-1.316c1.584-0.877,2.651-2.152,3.201-3.83l-5.42-1.727c-0.21,0.707-0.623,1.244-1.238,1.609
		c-0.614,0.367-1.407,0.551-2.376,0.551c-1.152,0-2.075-0.287-2.769-0.865c-0.694-0.574-1.146-1.479-1.355-2.709h13.395
		C787.414,297.104,787.48,296.37,787.48,295.479 M756.882,285.937v10.408c0,1.52-0.327,2.65-0.981,3.396
		c-0.655,0.746-1.531,1.121-2.631,1.121c-0.918,0-1.599-0.262-2.043-0.787c-0.445-0.521-0.669-1.426-0.669-2.709v-11.43h-6.677
		v13.119c0,2.383,0.596,4.131,1.787,5.242c1.192,1.113,2.834,1.67,4.93,1.67c3.3,0,5.564-1.35,6.795-4.045l0.196,3.652h5.972
		v-19.639H756.882z M728.916,301.058c-2.462,0-3.692-1.768-3.692-5.303s1.23-5.303,3.692-5.303c1.126,0,2.009,0.439,2.651,1.316
		c0.642,0.877,0.963,2.141,0.963,3.791v0.393c0,1.623-0.315,2.881-0.943,3.771C730.959,300.612,730.068,301.058,728.916,301.058
		 M733.355,285.937l-0.236,4.123c-0.55-1.387-1.396-2.486-2.534-3.299s-2.48-1.217-4.026-1.217c-2.539,0-4.517,0.891-5.931,2.67
		c-1.414,1.781-2.121,4.268-2.121,7.463c0,3.248,0.713,5.773,2.142,7.582c1.427,1.805,3.409,2.709,5.95,2.709
		c1.361,0,2.547-0.32,3.555-0.963c1.008-0.641,1.8-1.537,2.377-2.689v11.508h6.677v-27.887H733.355z M705.703,290.218
		c2.095,0,3.299,1.283,3.614,3.848h-7.386C702.325,291.501,703.582,290.218,705.703,290.218 M715.562,295.479
		c0-3.141-0.845-5.582-2.533-7.324c-1.689-1.74-4.119-2.611-7.287-2.611c-3.273,0-5.8,0.891-7.58,2.67
		c-1.781,1.781-2.671,4.295-2.671,7.541c0,3.248,0.909,5.762,2.729,7.543c1.819,1.779,4.444,2.67,7.875,2.67
		c2.305,0,4.248-0.438,5.833-1.316c1.584-0.877,2.651-2.152,3.201-3.83l-5.421-1.727c-0.209,0.707-0.622,1.244-1.237,1.609
		c-0.614,0.367-1.407,0.551-2.376,0.551c-1.152,0-2.075-0.287-2.769-0.865c-0.694-0.574-1.146-1.479-1.355-2.709h13.395
		C715.496,297.104,715.562,296.37,715.562,295.479 M683.746,305.968c3.038,0,5.355-0.594,6.953-1.787
		c1.597-1.191,2.396-2.742,2.396-4.654c0-1.703-0.635-3.045-1.904-4.025c-1.271-0.982-3.347-1.723-6.227-2.221
		c-1.335-0.262-2.271-0.529-2.808-0.805c-0.537-0.275-0.807-0.609-0.807-1.002c0-0.418,0.263-0.771,0.786-1.059
		c0.524-0.289,1.257-0.434,2.2-0.434c1.204,0,2.238,0.209,3.104,0.629c0.863,0.418,1.609,1.086,2.237,2.002l3.457-3.377
		c-0.89-1.23-2.049-2.152-3.476-2.77c-1.428-0.615-3.268-0.922-5.52-0.922c-2.042,0-3.776,0.307-5.203,0.922
		c-1.429,0.617-2.494,1.422-3.201,2.416c-0.707,0.996-1.062,2.057-1.062,3.182c0,1.65,0.622,2.973,1.866,3.967
		c1.243,0.996,3.332,1.781,6.265,2.357c1.31,0.262,2.232,0.529,2.77,0.805c0.536,0.275,0.805,0.596,0.805,0.963
		c0,0.418-0.262,0.752-0.785,1c-0.524,0.25-1.245,0.373-2.161,0.373c-2.749,0-4.687-0.928-5.812-2.787l-3.457,3.77
		C676.048,304.815,679.242,305.968,683.746,305.968 M651.578,305.968c3.037,0,5.354-0.594,6.952-1.787
		c1.597-1.191,2.396-2.742,2.396-4.654c0-1.703-0.635-3.045-1.904-4.025c-1.271-0.982-3.346-1.723-6.226-2.221
		c-1.336-0.262-2.271-0.529-2.809-0.805s-0.806-0.609-0.806-1.002c0-0.418,0.262-0.771,0.786-1.059
		c0.523-0.289,1.256-0.434,2.199-0.434c1.204,0,2.239,0.209,3.104,0.629c0.863,0.418,1.61,1.086,2.238,2.002l3.457-3.377
		c-0.891-1.23-2.05-2.152-3.477-2.77c-1.427-0.615-3.267-0.922-5.519-0.922c-2.043,0-3.777,0.307-5.205,0.922
		c-1.427,0.617-2.493,1.422-3.2,2.416c-0.707,0.996-1.061,2.057-1.061,3.182c0,1.65,0.621,2.973,1.865,3.967
		c1.244,0.996,3.332,1.781,6.265,2.357c1.31,0.262,2.232,0.529,2.77,0.805s0.806,0.596,0.806,0.963c0,0.418-0.262,0.752-0.786,1
		c-0.523,0.25-1.244,0.373-2.16,0.373c-2.75,0-4.688-0.928-5.812-2.787l-3.457,3.77
		C643.879,304.815,647.074,305.968,651.578,305.968 M629.858,290.218c2.094,0,3.299,1.283,3.612,3.848h-7.384
		C626.48,291.501,627.736,290.218,629.858,290.218 M639.716,295.479c0-3.141-0.844-5.582-2.533-7.324
		c-1.688-1.74-4.117-2.611-7.285-2.611c-3.274,0-5.802,0.891-7.581,2.67c-1.781,1.781-2.671,4.295-2.671,7.541
		c0,3.248,0.909,5.762,2.729,7.543c1.82,1.779,4.445,2.67,7.875,2.67c2.304,0,4.249-0.438,5.833-1.316
		c1.584-0.877,2.651-2.152,3.201-3.83l-5.42-1.727c-0.21,0.707-0.622,1.244-1.237,1.609c-0.616,0.367-1.408,0.551-2.377,0.551
		c-1.152,0-2.075-0.287-2.769-0.865c-0.694-0.574-1.146-1.479-1.355-2.709h13.395C639.651,297.104,639.716,296.37,639.716,295.479
		 M617.092,300.351c-0.812,0.576-1.755,0.865-2.828,0.865c-1.728,0-2.592-0.877-2.592-2.633v-7.895h5.892v-4.752h-5.892v-6.246
		l-6.678,1.846v4.4h-3.378v4.752h3.378v8.994c0.026,2.201,0.655,3.797,1.886,4.793s3.011,1.492,5.342,1.492
		c1.021,0,2.035-0.139,3.044-0.412c1.008-0.275,1.84-0.635,2.494-1.08L617.092,300.351z M592.15,285.544
		c-1.545,0-2.895,0.346-4.046,1.041c-1.152,0.693-2.042,1.734-2.671,3.123l-0.196-3.771h-5.97v19.639h6.677v-10.369
		c0-1.545,0.327-2.691,0.981-3.438s1.505-1.119,2.554-1.119c0.89,0,1.576,0.281,2.062,0.844c0.484,0.564,0.727,1.514,0.727,2.848
		v11.234h6.678v-13.08c0-2.225-0.615-3.939-1.847-5.145C595.868,286.146,594.218,285.544,592.15,285.544 M565.677,290.218
		c2.095,0,3.299,1.283,3.614,3.848h-7.385C562.299,291.501,563.556,290.218,565.677,290.218 M575.536,295.479
		c0-3.141-0.845-5.582-2.534-7.324c-1.689-1.74-4.118-2.611-7.286-2.611c-3.273,0-5.8,0.891-7.581,2.67
		c-1.781,1.781-2.67,4.295-2.67,7.541c0,3.248,0.909,5.762,2.729,7.543c1.82,1.779,4.445,2.67,7.876,2.67
		c2.304,0,4.248-0.438,5.833-1.316c1.584-0.877,2.651-2.152,3.201-3.83l-5.421-1.727c-0.21,0.707-0.622,1.244-1.237,1.609
		c-0.615,0.367-1.408,0.551-2.376,0.551c-1.153,0-2.076-0.287-2.769-0.865c-0.695-0.574-1.146-1.479-1.356-2.709h13.394
		C575.47,297.104,575.536,296.37,575.536,295.479 M551.89,285.544c-1.492,0-2.743,0.398-3.751,1.197
		c-1.008,0.799-1.748,1.943-2.219,3.438l-0.275-4.242h-5.892v19.639h6.678v-9.898c0-1.492,0.418-2.637,1.257-3.438
		c0.837-0.797,1.885-1.197,3.142-1.197c0.497,0,0.968,0.059,1.414,0.178c0.445,0.117,0.798,0.254,1.06,0.412l0.707-5.656
		C553.487,285.687,552.78,285.544,551.89,285.544 M526.164,290.218c2.094,0,3.299,1.283,3.613,3.848h-7.384
		C522.786,291.501,524.042,290.218,526.164,290.218 M536.022,295.479c0-3.141-0.844-5.582-2.533-7.324
		c-1.689-1.74-4.118-2.611-7.286-2.611c-3.274,0-5.801,0.891-7.581,2.67c-1.781,1.781-2.671,4.295-2.671,7.541
		c0,3.248,0.91,5.762,2.73,7.543c1.82,1.779,4.445,2.67,7.875,2.67c2.304,0,4.249-0.438,5.833-1.316
		c1.584-0.877,2.651-2.152,3.201-3.83l-5.42-1.727c-0.21,0.707-0.622,1.244-1.237,1.609c-0.616,0.367-1.408,0.551-2.377,0.551
		c-1.152,0-2.075-0.287-2.769-0.865c-0.694-0.574-1.146-1.479-1.355-2.709h13.394C535.957,297.104,536.022,296.37,536.022,295.479
		 M508.449,284.562c0-1.885,1.086-2.828,3.26-2.828c0.916,0,1.663,0.209,2.239,0.627l0.668-4.162
		c-0.969-0.76-2.475-1.139-4.517-1.139c-2.357,0-4.269,0.588-5.735,1.766c-1.467,1.18-2.2,2.947-2.2,5.305v1.807h-3.142v4.752h3.142
		v14.887h6.678v-14.887h5.577v-4.752h-5.97V284.562z M496.077,285.937H489.4v19.639h6.677V285.937z M492.738,283.657
		c1.361,0,2.35-0.256,2.966-0.766c0.615-0.51,0.923-1.316,0.923-2.416c0-1.125-0.308-1.943-0.923-2.455
		c-0.616-0.51-1.605-0.766-2.966-0.766c-1.362,0-2.35,0.256-2.965,0.766c-0.616,0.512-0.923,1.33-0.923,2.455
		c0,1.1,0.307,1.906,0.923,2.416C490.388,283.401,491.376,283.657,492.738,283.657 M474.317,301.058
		c-1.178,0-2.089-0.432-2.73-1.295c-0.642-0.865-0.962-2.201-0.962-4.008s0.32-3.143,0.962-4.006
		c0.641-0.863,1.552-1.297,2.73-1.297c1.073,0,1.931,0.395,2.573,1.18c0.641,0.785,1.001,1.898,1.08,3.338v1.572
		c-0.079,1.467-0.439,2.586-1.08,3.357C476.248,300.673,475.39,301.058,474.317,301.058 M477.97,277.608v11.627
		c-0.576-1.152-1.362-2.055-2.357-2.711c-0.995-0.654-2.187-0.98-3.574-0.98c-2.54,0-4.531,0.902-5.97,2.709
		c-1.441,1.807-2.161,4.334-2.161,7.582c0,3.193,0.713,5.682,2.141,7.463c1.427,1.779,3.41,2.67,5.951,2.67
		c1.466,0,2.755-0.367,3.869-1.1c1.112-0.732,1.957-1.74,2.533-3.023l0.236,3.73h6.009v-27.967H477.97z M442.109,285.544
		c-1.44,0-2.743,0.34-3.908,1.02c-1.166,0.682-2.062,1.664-2.691,2.947c-0.471-1.283-1.251-2.266-2.337-2.947
		c-1.087-0.68-2.376-1.02-3.869-1.02c-1.519,0-2.841,0.354-3.967,1.061s-2.003,1.74-2.632,3.104l-0.196-3.771h-5.97v19.639h6.677
		v-10.369c0-1.52,0.327-2.658,0.982-3.418c0.654-0.76,1.479-1.139,2.475-1.139c1.78,0,2.671,1.125,2.671,3.377v11.549h6.677v-10.486
		c0-1.441,0.314-2.541,0.943-3.301c0.628-0.76,1.466-1.139,2.513-1.139c1.781,0,2.671,1.125,2.671,3.377v11.549h6.678v-13.08
		c0-2.225-0.623-3.939-1.866-5.145C445.716,286.146,444.099,285.544,442.109,285.544 M402.32,290.296
		c1.257,0,2.186,0.432,2.789,1.297c0.602,0.863,0.903,2.252,0.903,4.162c0,1.912-0.301,3.301-0.903,4.164
		c-0.603,0.863-1.532,1.297-2.789,1.297c-1.257,0-2.186-0.434-2.788-1.297c-0.603-0.863-0.904-2.252-0.904-4.164
		c0-1.91,0.301-3.299,0.904-4.162C400.134,290.728,401.063,290.296,402.32,290.296 M402.32,285.544c-3.273,0-5.82,0.896-7.639,2.689
		c-1.821,1.793-2.73,4.301-2.73,7.521s0.909,5.729,2.73,7.521c1.819,1.795,4.366,2.691,7.639,2.691c3.273,0,5.82-0.896,7.64-2.691
		c1.82-1.793,2.73-4.301,2.73-7.521s-0.91-5.729-2.73-7.521C408.14,286.44,405.593,285.544,402.32,285.544 M379.853,285.544
		c-3.247,0-5.781,0.896-7.6,2.689c-1.821,1.793-2.73,4.301-2.73,7.521c0,3.248,0.916,5.762,2.749,7.543
		c1.833,1.779,4.452,2.67,7.856,2.67c2.645,0,4.772-0.557,6.383-1.67c1.61-1.111,2.559-2.559,2.847-4.34l-6.009-1.924
		c-0.314,2.121-1.401,3.182-3.26,3.182c-2.593,0-3.889-1.793-3.889-5.381c0-3.693,1.296-5.539,3.889-5.539
		c1.754,0,2.762,1.127,3.024,3.379l6.206-2.043c-0.367-1.809-1.296-3.273-2.789-4.4
		C385.038,286.106,382.812,285.544,379.853,285.544"/>
	<path clip-path="url(#SVGID_2_)" fill="#231F20" d="M855.235,235.307c1.258,0,2.187,0.433,2.789,1.296
		c0.603,0.864,0.903,2.252,0.903,4.163c0,1.912-0.301,3.3-0.903,4.164s-1.531,1.296-2.789,1.296c-1.257,0-2.187-0.432-2.788-1.296
		c-0.604-0.864-0.903-2.252-0.903-4.164c0-1.911,0.3-3.299,0.903-4.163C853.049,235.739,853.979,235.307,855.235,235.307
		 M855.235,230.554c-3.273,0-5.819,0.896-7.64,2.691c-1.82,1.793-2.729,4.301-2.729,7.521c0,3.222,0.909,5.729,2.729,7.522
		s4.366,2.69,7.64,2.69s5.819-0.897,7.64-2.69s2.729-4.301,2.729-7.522c0-3.22-0.909-5.728-2.729-7.521
		C861.055,231.45,858.509,230.554,855.235,230.554 M830.726,246.069c-1.178,0-2.088-0.433-2.729-1.297
		c-0.642-0.863-0.962-2.199-0.962-4.007c0-1.806,0.32-3.142,0.962-4.006s1.552-1.296,2.729-1.296c1.074,0,1.932,0.393,2.573,1.178
		c0.641,0.786,1.002,1.898,1.08,3.339v1.571c-0.078,1.467-0.439,2.586-1.08,3.357C832.657,245.683,831.8,246.069,830.726,246.069
		 M834.379,222.62v11.625c-0.576-1.151-1.362-2.055-2.357-2.709s-2.186-0.982-3.573-0.982c-2.54,0-4.53,0.902-5.971,2.71
		s-2.16,4.334-2.16,7.581c0,3.195,0.714,5.682,2.141,7.463s3.411,2.671,5.951,2.671c1.466,0,2.756-0.366,3.868-1.1
		c1.113-0.733,1.957-1.741,2.533-3.024l0.236,3.731h6.01V222.62H834.379z M816.626,230.554c-1.493,0-2.744,0.4-3.752,1.197
		c-1.008,0.8-1.747,1.945-2.22,3.438l-0.274-4.242h-5.892v19.64h6.678v-9.898c0-1.493,0.418-2.638,1.257-3.437
		c0.837-0.799,1.885-1.198,3.142-1.198c0.497,0,0.969,0.06,1.414,0.177c0.445,0.118,0.799,0.256,1.062,0.412l0.707-5.656
		C818.222,230.698,817.515,230.554,816.626,230.554 M790.27,235.307c1.257,0,2.187,0.433,2.789,1.296
		c0.603,0.864,0.903,2.252,0.903,4.163c0,1.912-0.301,3.3-0.903,4.164s-1.532,1.296-2.789,1.296s-2.187-0.432-2.789-1.296
		c-0.602-0.864-0.902-2.252-0.902-4.164c0-1.911,0.301-3.299,0.902-4.163C788.083,235.739,789.013,235.307,790.27,235.307
		 M790.27,230.554c-3.273,0-5.819,0.896-7.64,2.691c-1.82,1.793-2.729,4.301-2.729,7.521c0,3.222,0.909,5.729,2.729,7.522
		s4.366,2.69,7.64,2.69s5.819-0.897,7.641-2.69c1.818-1.793,2.729-4.301,2.729-7.522c0-3.22-0.911-5.728-2.729-7.521
		C796.089,231.45,793.543,230.554,790.27,230.554 M767.803,230.554c-3.247,0-5.781,0.896-7.601,2.691
		c-1.82,1.793-2.729,4.301-2.729,7.521c0,3.248,0.916,5.761,2.749,7.542s4.451,2.671,7.856,2.671c2.644,0,4.771-0.556,6.382-1.67
		c1.61-1.112,2.56-2.56,2.848-4.34l-6.01-1.924c-0.314,2.12-1.401,3.181-3.26,3.181c-2.593,0-3.889-1.793-3.889-5.381
		c0-3.691,1.296-5.538,3.889-5.538c1.754,0,2.763,1.126,3.024,3.378l6.206-2.043c-0.367-1.807-1.296-3.273-2.789-4.398
		C772.988,231.116,770.762,230.554,767.803,230.554 M743.136,246.657c-0.603,0-1.074-0.143-1.414-0.432
		c-0.341-0.288-0.511-0.707-0.511-1.257s0.177-0.976,0.531-1.276c0.353-0.301,0.947-0.556,1.787-0.766l3.181-0.747v1.688
		c0,0.84-0.367,1.514-1.1,2.023C744.877,246.403,744.052,246.657,743.136,246.657 M754.723,246.776
		c-0.943,0-1.414-0.512-1.414-1.533v-7.148c0-2.514-0.799-4.398-2.396-5.656c-1.598-1.257-3.929-1.885-6.991-1.885
		c-2.619,0-4.701,0.529-6.246,1.591c-1.545,1.06-2.488,2.548-2.828,4.458l5.421,1.571c0.184-1.073,0.589-1.847,1.217-2.317
		c0.63-0.472,1.44-0.707,2.437-0.707c0.864,0,1.544,0.262,2.042,0.785c0.497,0.523,0.746,1.23,0.746,2.121v0.707l-4.438,0.863
		c-2.724,0.551-4.681,1.344-5.872,2.378s-1.786,2.39-1.786,4.065c0,1.598,0.522,2.814,1.57,3.652
		c1.047,0.838,2.553,1.257,4.518,1.257c3.481,0,5.812-1.008,6.99-3.024c0.551,2.017,2.239,3.024,5.067,3.024
		c1.021,0,1.911-0.21,2.671-0.629l0.511-3.731C755.627,246.724,755.22,246.776,754.723,246.776 M710.928,235.228
		c2.095,0,3.3,1.283,3.614,3.85h-7.384C707.55,236.511,708.807,235.228,710.928,235.228 M720.787,240.491
		c0-3.143-0.845-5.584-2.533-7.326c-1.689-1.74-4.118-2.611-7.286-2.611c-3.274,0-5.801,0.891-7.581,2.671
		c-1.781,1.781-2.671,4.295-2.671,7.541c0,3.248,0.91,5.761,2.729,7.542c1.82,1.781,4.444,2.671,7.875,2.671
		c2.305,0,4.248-0.438,5.834-1.315c1.584-0.877,2.65-2.154,3.2-3.83l-5.42-1.729c-0.21,0.707-0.622,1.244-1.236,1.611
		c-0.616,0.367-1.408,0.549-2.378,0.549c-1.151,0-2.074-0.287-2.769-0.863s-1.146-1.479-1.354-2.711h13.394
		C720.722,242.114,720.787,241.382,720.787,240.491 M686.576,246.069c-1.179,0-2.088-0.433-2.73-1.297
		c-0.642-0.863-0.962-2.199-0.962-4.007c0-1.806,0.32-3.142,0.962-4.006c0.643-0.864,1.552-1.296,2.73-1.296
		c1.072,0,1.931,0.393,2.572,1.178c0.642,0.786,1.001,1.898,1.08,3.339v1.571c-0.079,1.467-0.438,2.586-1.08,3.357
		C688.507,245.683,687.648,246.069,686.576,246.069 M690.229,222.62v11.625c-0.576-1.151-1.361-2.055-2.356-2.709
		s-2.187-0.982-3.574-0.982c-2.54,0-4.531,0.902-5.97,2.71c-1.441,1.808-2.161,4.334-2.161,7.581c0,3.195,0.713,5.682,2.141,7.463
		c1.427,1.781,3.41,2.671,5.951,2.671c1.466,0,2.755-0.366,3.869-1.1c1.112-0.733,1.957-1.741,2.533-3.024l0.235,3.731h6.01V222.62
		H690.229z M650.675,246.657c-0.602,0-1.074-0.143-1.413-0.432c-0.341-0.288-0.511-0.707-0.511-1.257s0.177-0.976,0.53-1.276
		s0.948-0.556,1.786-0.766l3.183-0.747v1.688c0,0.84-0.367,1.514-1.101,2.023C652.417,246.403,651.592,246.657,650.675,246.657
		 M662.263,246.776c-0.942,0-1.414-0.512-1.414-1.533v-7.148c0-2.514-0.799-4.398-2.396-5.656c-1.599-1.257-3.929-1.885-6.992-1.885
		c-2.619,0-4.7,0.529-6.245,1.591c-1.546,1.06-2.488,2.548-2.828,4.458l5.42,1.571c0.184-1.073,0.589-1.847,1.218-2.317
		c0.629-0.472,1.44-0.707,2.436-0.707c0.864,0,1.545,0.262,2.043,0.785c0.497,0.523,0.746,1.23,0.746,2.121v0.707l-4.439,0.863
		c-2.723,0.551-4.681,1.344-5.872,2.378s-1.787,2.39-1.787,4.065c0,1.598,0.524,2.814,1.571,3.652s2.553,1.257,4.518,1.257
		c3.482,0,5.812-1.008,6.991-3.024c0.551,2.017,2.239,3.024,5.067,3.024c1.021,0,1.911-0.21,2.671-0.629l0.51-3.731
		C663.166,246.724,662.76,246.776,662.263,246.776 M638.773,230.554c-1.491,0-2.742,0.4-3.751,1.197
		c-1.008,0.8-1.748,1.945-2.219,3.438l-0.274-4.242h-5.893v19.64h6.678v-9.898c0-1.493,0.418-2.638,1.258-3.437
		c0.837-0.799,1.885-1.198,3.142-1.198c0.497,0,0.968,0.06,1.414,0.177c0.445,0.118,0.798,0.256,1.06,0.412l0.707-5.656
		C640.371,230.698,639.664,230.554,638.773,230.554 M612.262,246.069c-1.127,0-2.01-0.433-2.652-1.297
		c-0.642-0.863-0.962-2.134-0.962-3.81v-0.394c0-1.623,0.314-2.88,0.943-3.771c0.628-0.89,1.518-1.335,2.671-1.335
		c1.178,0,2.088,0.432,2.729,1.296s0.963,2.2,0.963,4.006c0,1.808-0.321,3.144-0.963,4.007
		C614.35,245.637,613.439,246.069,612.262,246.069 M614.579,230.554c-1.389,0-2.586,0.328-3.595,0.982
		c-1.008,0.654-1.786,1.558-2.337,2.709V222.62h-6.677v27.966h5.853l0.196-4.163c0.549,1.388,1.395,2.494,2.533,3.318
		s2.481,1.237,4.026,1.237c2.565,0,4.556-0.89,5.97-2.671s2.121-4.268,2.121-7.463c0-3.247-0.72-5.773-2.16-7.581
		S617.093,230.554,614.579,230.554 M587.752,235.307c1.257,0,2.186,0.433,2.789,1.296c0.602,0.864,0.902,2.252,0.902,4.163
		c0,1.912-0.301,3.3-0.902,4.164c-0.604,0.864-1.532,1.296-2.789,1.296s-2.186-0.432-2.788-1.296
		c-0.603-0.864-0.904-2.252-0.904-4.164c0-1.911,0.301-3.299,0.904-4.163C585.566,235.739,586.495,235.307,587.752,235.307
		 M587.752,230.554c-3.273,0-5.82,0.896-7.639,2.691c-1.821,1.793-2.73,4.301-2.73,7.521c0,3.222,0.909,5.729,2.73,7.522
		c1.819,1.793,4.366,2.69,7.639,2.69c3.272,0,5.82-0.897,7.64-2.69c1.82-1.793,2.73-4.301,2.73-7.522c0-3.22-0.91-5.728-2.73-7.521
		C593.572,231.45,591.024,230.554,587.752,230.554 M552.009,246.657c-0.603,0-1.074-0.143-1.414-0.432
		c-0.341-0.288-0.511-0.707-0.511-1.257s0.177-0.976,0.53-1.276c0.354-0.301,0.949-0.556,1.788-0.766l3.181-0.747v1.688
		c0,0.84-0.367,1.514-1.1,2.023C553.75,246.403,552.925,246.657,552.009,246.657 M563.596,246.776c-0.943,0-1.414-0.512-1.414-1.533
		v-7.148c0-2.514-0.799-4.398-2.396-5.656c-1.598-1.257-3.928-1.885-6.992-1.885c-2.618,0-4.7,0.529-6.245,1.591
		c-1.545,1.06-2.488,2.548-2.828,4.458l5.42,1.571c0.183-1.073,0.59-1.847,1.218-2.317c0.629-0.472,1.44-0.707,2.435-0.707
		c0.864,0,1.545,0.262,2.043,0.785c0.497,0.523,0.746,1.23,0.746,2.121v0.707l-4.438,0.863c-2.724,0.551-4.681,1.344-5.873,2.378
		c-1.191,1.034-1.787,2.39-1.787,4.065c0,1.598,0.524,2.814,1.571,3.652c1.048,0.838,2.554,1.257,4.518,1.257
		c3.482,0,5.813-1.008,6.991-3.024c0.55,2.017,2.239,3.024,5.067,3.024c1.021,0,1.911-0.21,2.671-0.629l0.511-3.731
		C564.499,246.724,564.093,246.776,563.596,246.776 M529.542,246.069c-1.178,0-2.089-0.433-2.73-1.297
		c-0.642-0.863-0.962-2.199-0.962-4.007c0-1.806,0.32-3.142,0.962-4.006c0.641-0.864,1.552-1.296,2.73-1.296
		c1.073,0,1.931,0.393,2.573,1.178c0.641,0.786,1.001,1.898,1.08,3.339v1.571c-0.079,1.467-0.439,2.586-1.08,3.357
		C531.473,245.683,530.615,246.069,529.542,246.069 M533.195,222.62v11.625c-0.577-1.151-1.362-2.055-2.357-2.709
		s-2.187-0.982-3.574-0.982c-2.541,0-4.531,0.902-5.971,2.71c-1.44,1.808-2.16,4.334-2.16,7.581c0,3.195,0.713,5.682,2.141,7.463
		c1.427,1.781,3.41,2.671,5.95,2.671c1.467,0,2.756-0.366,3.869-1.1c1.113-0.733,1.958-1.741,2.534-3.024l0.235,3.731h6.01V222.62
		H533.195z M493.641,246.657c-0.602,0-1.074-0.143-1.414-0.432c-0.34-0.288-0.51-0.707-0.51-1.257s0.176-0.976,0.53-1.276
		c0.353-0.301,0.949-0.556,1.787-0.766l3.182-0.747v1.688c0,0.84-0.367,1.514-1.1,2.023
		C495.382,246.403,494.558,246.657,493.641,246.657 M505.228,246.776c-0.942,0-1.414-0.512-1.414-1.533v-7.148
		c0-2.514-0.799-4.398-2.396-5.656c-1.597-1.257-3.927-1.885-6.991-1.885c-2.619,0-4.701,0.529-6.245,1.591
		c-1.546,1.06-2.489,2.548-2.829,4.458l5.421,1.571c0.183-1.073,0.589-1.847,1.218-2.317c0.628-0.472,1.439-0.707,2.435-0.707
		c0.864,0,1.545,0.262,2.042,0.785s0.747,1.23,0.747,2.121v0.707l-4.439,0.863c-2.724,0.551-4.681,1.344-5.872,2.378
		c-1.192,1.034-1.787,2.39-1.787,4.065c0,1.598,0.523,2.814,1.571,3.652c1.047,0.838,2.553,1.257,4.517,1.257
		c3.482,0,5.812-1.008,6.992-3.024c0.549,2.017,2.238,3.024,5.067,3.024c1.021,0,1.911-0.21,2.67-0.629l0.511-3.731
		C506.132,246.724,505.726,246.776,505.228,246.776 M481.74,230.554c-1.493,0-2.743,0.4-3.751,1.197
		c-1.008,0.8-1.748,1.945-2.219,3.438l-0.275-4.242h-5.892v19.64h6.677v-9.898c0-1.493,0.419-2.638,1.257-3.437
		c0.838-0.799,1.886-1.198,3.143-1.198c0.497,0,0.968,0.06,1.414,0.177c0.444,0.118,0.798,0.256,1.06,0.412l0.707-5.656
		C483.337,230.698,482.63,230.554,481.74,230.554 M458.134,230.946v10.409c0,1.519-0.328,2.651-0.982,3.397
		c-0.655,0.746-1.532,1.119-2.632,1.119c-0.917,0-1.597-0.262-2.042-0.785c-0.446-0.523-0.668-1.428-0.668-2.711v-11.43h-6.677
		v13.119c0,2.383,0.595,4.131,1.787,5.243c1.191,1.114,2.834,1.67,4.929,1.67c3.3,0,5.564-1.349,6.795-4.046l0.197,3.653h5.97
		v-19.64H458.134z M441.755,245.362c-0.812,0.575-1.755,0.863-2.828,0.863c-1.729,0-2.593-0.877-2.593-2.632v-7.896h5.892v-4.752
		h-5.892v-6.244l-6.677,1.846v4.398h-3.378v4.752h3.378v8.996c0.026,2.199,0.654,3.797,1.885,4.791
		c1.231,0.996,3.011,1.493,5.342,1.493c1.022,0,2.036-0.138,3.044-0.413s1.84-0.634,2.495-1.08L441.755,245.362z M423.412,230.946
		h-6.677v19.64h6.677V230.946z M420.074,228.669c1.361,0,2.35-0.256,2.965-0.766c0.615-0.512,0.923-1.316,0.923-2.416
		c0-1.125-0.308-1.945-0.923-2.455c-0.615-0.511-1.604-0.767-2.965-0.767c-1.362,0-2.351,0.256-2.966,0.767
		c-0.615,0.51-0.923,1.33-0.923,2.455c0,1.1,0.308,1.904,0.923,2.416C417.723,228.413,418.712,228.669,420.074,228.669
		 M403.145,235.228c2.095,0,3.3,1.283,3.614,3.85h-7.385C399.767,236.511,401.024,235.228,403.145,235.228 M413.004,240.491
		c0-3.143-0.844-5.584-2.533-7.326c-1.689-1.74-4.118-2.611-7.287-2.611c-3.273,0-5.8,0.891-7.58,2.671
		c-1.781,1.781-2.671,4.295-2.671,7.541c0,3.248,0.909,5.761,2.73,7.542c1.819,1.781,4.444,2.671,7.875,2.671
		c2.304,0,4.248-0.438,5.833-1.315c1.584-0.877,2.651-2.154,3.201-3.83l-5.42-1.729c-0.21,0.707-0.623,1.244-1.238,1.611
		c-0.615,0.367-1.408,0.549-2.376,0.549c-1.153,0-2.076-0.287-2.769-0.863c-0.694-0.576-1.146-1.479-1.355-2.711h13.394
		C412.938,242.114,413.004,241.382,413.004,240.491 M377.693,245.362v-20.701h-6.756v25.925h19.757v-5.224H377.693z"/>
	<path clip-path="url(#SVGID_2_)" fill="#231F20" d="M255.91,482.983c4.589,4.59,10.133,6.889,16.633,6.889
		c6.494,0,12.039-2.299,16.632-6.889c4.589-4.588,6.889-10.133,6.889-16.633c0-6.494-2.3-12.037-6.889-16.631
		c-4.593-4.59-10.138-6.889-16.632-6.889c-6.5,0-12.044,2.299-16.633,6.889c-4.593,4.594-6.888,10.137-6.888,16.631
		C249.022,472.851,251.317,478.396,255.91,482.983 M61.865,458.96v26.209H223.15V458.96h-66.53V249.962h-54.77l-44.017,98.787v2.016
		h27.889l38.641-88.371h4.032V458.96H61.865z"/>
	<path clip-path="url(#SVGID_2_)" fill="#0046FA" d="M808.014,485.005c11.916-13.619,22.981-24.117,32.628-31.494
		c11.065-8.512,20.995-14.186,29.507-17.023v-6.525c-11.916-5.107-22.13-11.064-30.357-18.725
		c-16.456-15.037-27.237-25.535-31.777-31.211h-19.577c4.54,9.648,9.363,18.443,14.187,26.387
		c3.972,5.959,8.228,11.633,13.619,17.307H390.531v17.307h425.995c-7.377,9.08-11.633,15.039-13.902,18.727
		c-5.958,9.646-10.781,18.158-13.618,25.252H808.014z"/>
</g>
<line fill="none" stroke="#0046FA" stroke-width="2" x1="16.001" y1="180.014" x2="911.068" y2="180.014"/>
<line fill="none" stroke="#0046FA" stroke-width="2" x1="352.026" y1="348.407" x2="911.068" y2="348.407"/>
<line fill="none" stroke="#0046FA" stroke-width="2" x1="921.568" y1="14.001" x2="921.568" y2="505.456"/>
<line fill="none" stroke="#0046FA" stroke-width="2" x1="341.523" y1="191.014" x2="341.523" y2="505.456"/>
<polygon fill="#231F20" points="969.608,39.583 1035.059,39.583 1035.059,424.403 1121.719,424.403 1121.719,485.005 
	969.608,485.005 "/>
<g>
	<defs>
		<rect id="SVGID_7_" width="1170.088" height="525.038"/>
	</defs>
	<clipPath id="SVGID_4_">
		<use xlink:href="#SVGID_7_"  overflow="visible"/>
	</clipPath>
	<polygon clip-path="url(#SVGID_4_)" fill="none" stroke="#0046FA" stroke-width="1.998" points="0.999,2.998 0.999,522.036 
		0.999,524.038 3,524.038 1167.087,524.038 1169.088,524.038 1169.088,522.036 1169.088,2.998 1169.088,0.996 1167.087,0.996 
		3,0.996 0.999,0.996 	"/>
</g>
<rect x="5.001" y="5" fill="none" stroke="#0046FA" stroke-width="1.998" width="1160.085" height="515.034"/>
</svg>
