<?xml version="1.0" encoding="utf-8"?>
<!-- Generator: Adobe Illustrator 16.0.0, SVG Export Plug-In . SVG Version: 6.00 Build 0)  -->
<!DOCTYPE svg PUBLIC "-//W3C//DTD SVG 1.1//EN" "http://www.w3.org/Graphics/SVG/1.1/DTD/svg11.dtd">
<svg version="1.1" id="Layer_1" xmlns="http://www.w3.org/2000/svg" xmlns:xlink="http://www.w3.org/1999/xlink" x="0px" y="0px"
	 width="564px" height="1002px" viewBox="0 0 564 1002" enable-background="new 0 0 564 1002" xml:space="preserve">
<g>
	<g>
		<defs>
			<rect id="SVGID_27_" width="564" height="1002"/>
		</defs>
		<clipPath id="SVGID_2_">
			<use xlink:href="#SVGID_27_"  overflow="visible"/>
		</clipPath>
		<path clip-path="url(#SVGID_2_)" fill="#231F20" d="M486.175,755.128c-8.655,0-15.328,2.056-20.021,6.16
			c-4.695,4.107-7.039,9.899-7.039,17.38c0,7.479,2.344,13.275,7.039,17.38c4.692,4.107,11.365,6.16,20.021,6.16
			c8.652,0,15.324-2.053,20.02-6.16c4.692-4.104,7.04-9.9,7.04-17.38c0-7.48-2.348-13.272-7.04-17.38
			C501.499,757.184,494.827,755.128,486.175,755.128 M353.297,739.508l16.94-36.74c2.932-7.04,4.84-12.172,5.72-15.4h0.66
			c-0.588,17.017-0.88,29.92-0.88,38.721v13.42H353.297z M373.757,800.447h44v-27.72h20.021v-33.22h-20.021v-84.26h-58.08
			l-47.3,96.359v21.12h61.38V800.447z"/>
	</g>
	<line fill="none" stroke="#231F20" stroke-width="2" x1="24.419" y1="844.119" x2="537.418" y2="844.119"/>
	<line fill="none" stroke="#231F20" stroke-width="2" x1="280.918" y1="633.967" x2="280.918" y2="823.118"/>
	<g>
		<defs>
			<rect id="SVGID_29_" width="564" height="1002"/>
		</defs>
		<clipPath id="SVGID_4_">
			<use xlink:href="#SVGID_29_"  overflow="visible"/>
		</clipPath>
		<polygon clip-path="url(#SVGID_4_)" fill="none" stroke="#231F20" stroke-width="1.998" points="0.999,3 0.999,999 
			0.999,1001.002 3,1001.002 561,1001.002 563.001,1001.002 563.001,999 563.001,3 563.001,0.998 561,0.998 3,0.998 0.999,0.998 		
			"/>
	</g>
	<rect x="5.001" y="5.002" fill="none" stroke="#231F20" stroke-width="1.998" width="553.997" height="991.996"/>
	<line fill="none" stroke="#231F20" stroke-width="2" x1="23.944" y1="126" x2="536.944" y2="126"/>
	<line fill="none" stroke="#231F20" stroke-width="2" x1="23.944" y1="611" x2="536.944" y2="611"/>
	<g>
		<defs>
			<rect id="SVGID_31_" width="564" height="1002"/>
		</defs>
		<clipPath id="SVGID_6_">
			<use xlink:href="#SVGID_31_"  overflow="visible"/>
		</clipPath>
		<path clip-path="url(#SVGID_6_)" fill="#FF1419" d="M491.022,57.766h0.285l3.56,10.928h-7.582L491.022,57.766z M497.217,75.778
			c0.38,1.021,0.338,1.869-0.124,2.545c-0.463,0.677-1.371,1.015-2.724,1.015h-1.958v13.206h32.358V79.338h-1.46
			c-0.878,0-1.596-0.083-2.154-0.249c-0.558-0.166-1.002-0.421-1.334-0.766c-0.333-0.344-0.612-0.759-0.837-1.246
			c-0.226-0.486-0.48-1.061-0.765-1.726l-7.298-18.012c-0.547-1.305-0.647-2.302-0.303-2.991c0.344-0.688,1.395-1.032,3.15-1.032
			h0.712V40.109h-36.594v13.206h0.747c1.732,0,2.771,0.327,3.114,0.979c0.345,0.653,0.256,1.668-0.267,3.044l-7.297,18.012
			c-0.546,1.305-1.11,2.296-1.691,2.972c-0.582,0.677-1.726,1.015-3.435,1.015h-1.46v13.206h22.177V79.338h-2.029
			c-1.376,0-2.277-0.338-2.704-1.015c-0.428-0.676-0.451-1.524-0.071-2.545l0.498-1.531h11.249L497.217,75.778z M456.109,40.109
			h-11.747v3.31c-1.496-0.973-3.597-1.898-6.301-2.776c-2.706-0.878-5.946-1.318-9.718-1.318c-2.73,0-5.322,0.351-7.778,1.051
			c-2.456,0.7-4.622,1.732-6.497,3.096c-1.875,1.365-3.37,3.044-4.485,5.038c-1.115,1.993-1.673,4.283-1.673,6.87
			c0,3.488,0.706,6.312,2.118,8.472c1.412,2.16,3.162,3.898,5.251,5.215c2.088,1.317,4.371,2.326,6.853,3.026
			c2.479,0.7,4.764,1.329,6.851,1.886c2.089,0.558,3.84,1.193,5.252,1.905s2.118,1.721,2.118,3.026c0,0.831-0.427,1.572-1.281,2.224
			c-0.854,0.653-2.147,0.979-3.88,0.979c-2.587,0-4.913-0.801-6.978-2.402c-2.064-1.602-3.441-3.792-4.13-6.568h-11.746v19.4h11.746
			v-3.132c2.635,1.448,5.216,2.492,7.743,3.132c2.527,0.641,5.18,0.961,7.956,0.961c2.848,0,5.601-0.297,8.258-0.889
			c2.658-0.593,5.008-1.531,7.049-2.813c2.041-1.281,3.667-2.919,4.877-4.912c1.211-1.994,1.815-4.402,1.815-7.226
			c0-2.658-0.416-4.936-1.246-6.835c-0.831-1.898-1.922-3.506-3.274-4.823c-1.354-1.318-2.896-2.397-4.629-3.24
			c-1.731-0.842-3.494-1.56-5.285-2.153c-1.792-0.593-3.554-1.092-5.286-1.495c-1.733-0.404-3.275-0.825-4.628-1.264
			c-1.354-0.439-2.444-0.961-3.275-1.566c-0.831-0.606-1.246-1.394-1.246-2.368c0-1.021,0.463-1.815,1.389-2.385
			c0.926-0.569,2.136-0.854,3.632-0.854c1.232,0,2.432,0.208,3.595,0.623c1.162,0.415,2.219,1.003,3.168,1.762
			c0.949,0.76,1.75,1.661,2.402,2.705c0.652,1.045,1.074,2.172,1.265,3.382h11.747V40.109z M397.346,92.543V79.338
			c-2.089,0-3.578-0.279-4.468-0.837c-0.891-0.557-1.335-1.607-1.335-3.15V57.339c0-1.567,0.444-2.628,1.335-3.186
			c0.89-0.558,2.379-0.837,4.468-0.837V40.109h-32.644v13.206c2.088,0,3.583,0.279,4.485,0.837c0.902,0.558,1.353,1.619,1.353,3.186
			v18.012c0,1.543-0.45,2.593-1.353,3.15c-0.902,0.558-2.397,0.837-4.485,0.837v13.206H397.346z M296.54,40.109v13.206
			c2.089,0,3.583,0.279,4.486,0.837c0.901,0.558,1.353,1.619,1.353,3.186V74.46c0,1.163,0.095,2.438,0.284,3.827
			c0.19,1.388,0.575,2.812,1.157,4.271c0.581,1.46,1.406,2.872,2.475,4.236c1.067,1.365,2.503,2.581,4.307,3.649
			c1.804,1.068,4.005,1.928,6.604,2.581c2.599,0.652,5.701,0.979,9.309,0.979c4.96,0,8.947-0.647,11.961-1.94
			c3.013-1.293,5.333-2.919,6.959-4.877c1.625-1.958,2.717-4.117,3.274-6.479c0.558-2.361,0.838-4.633,0.838-6.817v-16.98
			c0-1.471,0.427-2.438,1.28-2.901c0.854-0.462,2.076-0.694,3.667-0.694V40.109h-23.459v13.206c1.542,0,2.753,0.255,3.631,0.766
			c0.879,0.51,1.317,1.501,1.317,2.972v16.375c0,2.041-0.521,3.661-1.566,4.859c-1.045,1.198-2.705,1.797-4.983,1.797
			c-1.188,0-2.166-0.183-2.938-0.551c-0.771-0.368-1.388-0.866-1.851-1.496c-0.462-0.628-0.789-1.346-0.979-2.153
			c-0.189-0.807-0.283-1.649-0.283-2.528V56.911c0-1.281,0.35-2.2,1.05-2.758c0.7-0.558,1.952-0.837,3.755-0.837V40.109H296.54z
			 M253.117,80.886c-0.998-0.534-1.496-1.358-1.496-2.474c0-0.641,0.279-1.287,0.836-1.94c0.559-0.652,1.549-0.979,2.974-0.979
			c1.161,0,2.313,0.338,3.452,1.015c1.14,0.676,2.076,1.572,2.812,2.687c-1.021,1.662-2.74,2.492-5.162,2.492
			C255.252,81.687,254.113,81.419,253.117,80.886 M249.771,59.189c0.213-1.97,0.587-3.548,1.121-4.735
			c0.534-1.186,1.252-2.047,2.153-2.581c0.901-0.534,2.064-0.8,3.488-0.8c1.354,0,2.492,0.266,3.418,0.8
			c0.926,0.534,1.655,1.395,2.189,2.581c0.533,1.187,0.908,2.765,1.121,4.735c0.214,1.97,0.32,4.366,0.32,7.19
			c0,1.306-0.023,2.516-0.071,3.631c-0.048,1.116-0.119,2.16-0.214,3.133c-0.974-0.475-2.006-0.86-3.096-1.157
			c-1.093-0.297-2.244-0.445-3.453-0.445c-1.615,0-2.99,0.279-4.129,0.837c-1.14,0.557-2.078,1.18-2.813,1.868
			c-0.142-1.068-0.237-2.248-0.284-3.542c-0.048-1.293-0.072-2.734-0.072-4.325C249.449,63.556,249.557,61.16,249.771,59.189
			 M227.789,78.394c1.506,3.453,3.637,6.349,6.39,8.686c2.753,2.338,6.022,4.088,9.807,5.251c3.785,1.162,7.968,1.744,12.548,1.744
			c2.326,0,4.278-0.119,5.856-0.356c1.577-0.237,3.315-0.582,5.215-1.032c1.258,2.42,2.776,4.289,4.558,5.606
			c1.778,1.317,4.021,1.976,6.727,1.976c3.938,0,6.835-1.507,8.686-4.521c1.852-3.014,2.777-7.629,2.777-13.847h-3.346
			c-0.049,0.688-0.113,1.477-0.196,2.367c-0.084,0.89-0.279,1.726-0.588,2.51c-0.309,0.783-0.789,1.441-1.441,1.975
			c-0.652,0.534-1.597,0.801-2.829,0.801c-0.808,0-1.556-0.183-2.244-0.552c-0.688-0.367-1.222-0.788-1.602-1.263
			c3.204-2.634,5.571-5.749,7.102-9.345c1.531-3.595,2.297-7.6,2.297-12.014c0-4.579-0.755-8.596-2.261-12.049
			c-1.508-3.453-3.631-6.342-6.372-8.668c-2.74-2.326-6.011-4.07-9.807-5.233c-3.798-1.163-7.975-1.744-12.531-1.744
			c-4.58,0-8.763,0.581-12.548,1.744c-3.784,1.163-7.054,2.907-9.807,5.233s-4.884,5.215-6.39,8.668
			c-1.508,3.453-2.261,7.47-2.261,12.049C225.528,70.937,226.281,74.941,227.789,78.394 M215.851,40.109h-11.747v3.31
			c-1.495-0.973-3.596-1.898-6.301-2.776s-5.945-1.318-9.719-1.318c-2.729,0-5.321,0.351-7.777,1.051
			c-2.456,0.7-4.622,1.732-6.496,3.096c-1.875,1.365-3.37,3.044-4.486,5.038c-1.115,1.993-1.673,4.283-1.673,6.87
			c0,3.488,0.706,6.312,2.118,8.472c1.412,2.16,3.162,3.898,5.251,5.215c2.088,1.317,4.372,2.326,6.853,3.026
			c2.479,0.7,4.764,1.329,6.853,1.886c2.088,0.558,3.838,1.193,5.25,1.905s2.118,1.721,2.118,3.026c0,0.831-0.428,1.572-1.281,2.224
			c-0.854,0.653-2.148,0.979-3.88,0.979c-2.587,0-4.913-0.801-6.978-2.402c-2.064-1.602-3.44-3.792-4.129-6.568h-11.748v19.4h11.748
			v-3.132c2.635,1.448,5.215,2.492,7.742,3.132c2.527,0.641,5.18,0.961,7.956,0.961c2.849,0,5.601-0.297,8.259-0.889
			c2.657-0.593,5.006-1.531,7.049-2.813c2.039-1.281,3.666-2.919,4.877-4.912c1.209-1.994,1.814-4.402,1.814-7.226
			c0-2.658-0.415-4.936-1.246-6.835c-0.831-1.898-1.922-3.506-3.275-4.823c-1.353-1.318-2.895-2.397-4.627-3.24
			c-1.732-0.842-3.494-1.56-5.287-2.153c-1.791-0.593-3.553-1.092-5.285-1.495c-1.732-0.404-3.275-0.825-4.629-1.264
			c-1.352-0.439-2.443-0.961-3.273-1.566c-0.831-0.606-1.246-1.394-1.246-2.368c0-1.021,0.463-1.815,1.389-2.385
			c0.924-0.569,2.136-0.854,3.631-0.854c1.234,0,2.432,0.208,3.595,0.623s2.219,1.003,3.168,1.762
			c0.949,0.76,1.75,1.661,2.403,2.705c0.652,1.045,1.074,2.172,1.264,3.382h11.747V40.109z M133.201,79.338V69.085h11.355v-6.301
			h-11.355v-9.469h6.407c0.974,0,1.785,0.089,2.438,0.267c0.652,0.178,1.175,0.493,1.565,0.943c0.392,0.452,0.659,1.081,0.802,1.887
			c0.143,0.807,0.213,1.839,0.213,3.097h12.459v-19.4H106.36v13.206c2.089,0,3.583,0.279,4.485,0.837
			c0.902,0.558,1.354,1.619,1.354,3.186v18.012c0,1.543-0.451,2.593-1.354,3.15c-0.902,0.558-2.396,0.837-4.485,0.837v13.206h50.726
			v-19.4h-12.459c0,1.258-0.07,2.29-0.213,3.097s-0.41,1.441-0.802,1.904c-0.391,0.463-0.913,0.778-1.565,0.944
			c-0.653,0.166-1.465,0.249-2.438,0.249H133.201z M66.783,53.315h3.844c1.994,0,3.371,0.558,4.131,1.673
			c0.759,1.116,1.139,2.48,1.139,4.094c0,1.709-0.38,3.085-1.139,4.129c-0.76,1.045-2.137,1.566-4.131,1.566h-3.844V53.315z
			 M78.353,73.215c3.512,0,6.455-0.35,8.828-1.05c2.373-0.7,4.276-1.744,5.713-3.133c1.437-1.388,2.457-3.067,3.062-5.037
			c0.605-1.969,0.908-4.236,0.908-6.799c0-2.539-0.303-4.864-0.908-6.977c-0.604-2.112-1.625-3.909-3.062-5.393
			c-1.437-1.483-3.34-2.64-5.713-3.47c-2.373-0.831-5.316-1.246-8.828-1.246H39.943v13.206c2.088,0,3.583,0.279,4.485,0.837
			c0.901,0.558,1.352,1.619,1.352,3.186v18.012c0,1.543-0.45,2.593-1.352,3.15c-0.902,0.558-2.397,0.837-4.485,0.837v13.206h34.85
			V79.338h-3.631c-1.662,0-2.807-0.35-3.436-1.05c-0.629-0.7-0.943-1.679-0.943-2.937v-2.136H78.353z"/>
		<path clip-path="url(#SVGID_6_)" fill="#231F20" d="M238.424,227.883c12.385,0.367,23.452,2.459,33.199,6.284
			c9.742,3.826,18.034,9.064,24.865,15.712c6.831,6.651,12.064,14.618,15.711,23.908c3.642,9.291,5.465,19.674,5.465,31.15
			c0,11.66-1.776,22.18-5.328,31.56c-3.552,9.384-8.701,17.398-15.438,24.045c-6.742,6.652-15.029,11.844-24.865,15.575
			c-9.837,3.736-21.04,5.695-33.609,5.875V227.883z M80.489,574.354h157.935V441.559h51.916c33.516,0,62.437-3.732,86.755-11.203
			c24.318-7.467,44.355-17.488,60.113-30.057c15.754-12.569,27.414-27.094,34.974-43.582c7.559-16.485,11.342-33.746,11.342-51.78
			c0-20.583-4.057-39.3-12.159-56.151c-8.108-16.848-20.63-31.287-37.571-43.309c-16.941-12.023-38.485-21.266-64.622-27.735
			c-26.142-6.464-57.245-9.606-93.313-9.427H80.489V574.354z"/>
	</g>
	<path fill="#FF1419" d="M45.184,725.931v14.514l97.854-3.043L100.9,801.076l0.234,0.234l137.65-67.89v-0.468l-137.65-67.421
		l-0.469,0.234l42.372,63.675L45.184,725.931z M157.786,733.421h61.802l-94.576,46.586L157.786,733.421z"/>
	<g>
		<defs>
			<rect id="SVGID_33_" width="564" height="1002"/>
		</defs>
		<clipPath id="SVGID_8_">
			<use xlink:href="#SVGID_33_"  overflow="visible"/>
		</clipPath>
		<path clip-path="url(#SVGID_8_)" fill="#231F20" d="M509.14,949.859c0.14,1.732,0.298,3.377,0.595,4.69
			c0.648,0.227,2.898,0.77,4.865,0.77c2.694,0,6.055-1.467,6.055-4.515c0-1.188-0.294-2.143-1.071-3.01
			c-1.011-1.132-2.464-1.995-4.073-2.696c-1.4-0.608-1.891-1.711-1.891-2.729c0-0.805,0.664-1.47,1.681-1.47
			c1.225,0,2.415,1.12,3.29,3.255c0.63,0.105,1.015,0.069,1.364-0.175c0-1.26-0.14-2.59-0.455-3.71c-1.12-0.49-1.995-0.84-3.92-0.84
			c-1.845,0-3.619,0.692-4.725,1.819c-0.806,0.819-1.19,1.785-1.19,2.73c0,1.039,0.402,1.876,1.085,2.625
			c1.085,1.19,2.993,2.425,4.061,2.905c1.399,0.63,1.785,1.89,1.785,2.729c0,1.124-1.12,1.716-2.065,1.716
			c-1.578,0-3.255-1.593-3.99-4.165C509.979,949.685,509.699,949.72,509.14,949.859 M489.47,947.724c0,4.572,3.626,7.596,8.33,7.596
			c2.468,0,4.547-0.708,5.983-1.995c1.772-1.586,2.381-3.966,2.381-5.915c0-4.578-3.133-7.979-8.33-7.979
			c-2.9,0-5.068,1.001-6.449,2.59C490.058,943.546,489.47,945.655,489.47,947.724 M497.274,940.899c2.38,0,3.99,2.835,3.99,7.63
			c0,4.203-1.646,5.319-2.905,5.319c-2.87,0-3.99-4.304-3.99-6.895C494.369,943.734,494.93,940.899,497.274,940.899
			 M480.301,934.109c0,1.155,0.84,2.311,2.239,2.311c1.575,0,2.485-1.261,2.485-2.171c0-1.05-0.805-2.31-2.275-2.31
			C481.105,931.939,480.301,933.06,480.301,934.109 M485.025,950.699v-6.976c0-1.739,0.14-3.699,0.14-3.699
			c0-0.385-0.315-0.595-0.805-0.595c-0.998,0.385-3.815,0.665-6.229,0.979c-0.07,0.21,0,0.91,0.068,1.12
			c1.908,0.178,2.276,0.455,2.276,2.45v6.72c0,2.905-0.385,2.976-2.521,3.149c-0.21,0.211-0.21,0.98,0,1.19
			c1.471-0.034,2.926-0.069,4.795-0.069s3.29,0.035,4.795,0.069c0.211-0.21,0.211-0.979,0-1.19
			C485.41,953.709,485.025,953.604,485.025,950.699 M469.905,945.578c0-1.249,0.385-1.757,0.84-2.299
			c0.286-0.343,0.596-0.595,1.109-0.595c0.329,0,0.693,0.308,0.991,0.668c0.245,0.294,0.84,0.574,1.627,0.574
			c1.015,0,2.013-1.067,2.013-2.537c0-0.91-1.05-1.96-2.31-1.96c-1.226,0-2.556,1.05-4.165,3.359h-0.141
			c-0.069-1.051-0.245-2.765-0.245-2.765c-0.027-0.308-0.314-0.595-0.805-0.595c-1.663,0.419-3.5,0.927-5.81,1.154
			c-0.07,0.211,0,0.875,0.069,1.086c1.907,0.178,2.275,0.489,2.275,2.484v6.545c0,2.905-0.385,2.976-2.521,3.149
			c-0.21,0.211-0.21,0.98,0,1.19c1.471-0.034,2.927-0.069,4.796-0.069c1.868,0,3.289,0.035,4.795,0.069
			c0.209-0.21,0.209-0.979,0-1.19c-2.136-0.14-2.521-0.244-2.521-3.149V945.578z M459.896,950.454
			c-1.436,1.471-3.325,1.855-4.655,1.855c-2.729,0-4.41-1.575-4.41-5.005c0-0.245,0.035-0.385,0.035-0.561h8.4
			c0.84,0,1.015-0.595,1.015-1.085c0-2.975-1.155-6.229-6.3-6.229c-3.675,0-7.875,3.255-7.875,8.609c0,2.048,0.742,4.172,2.24,5.53
			c1.315,1.193,3.042,1.75,5.529,1.75c2.415,0,4.795-1.225,6.545-3.78C460.42,951.084,460.245,950.454,459.896,950.454
			 M451.006,945.345c0.034-1.226,0.224-2.545,0.699-3.255c0.558-0.833,1.494-1.19,1.891-1.19c0.944,0,2.239,0.91,2.239,3.71
			c0,0.21,0,0.665-0.069,0.735H451.006z M454.681,931.38l-2.905,4.585c-0.21,0.314-0.28,0.63-0.28,0.84s0.28,0.49,0.561,0.49
			c0.35,0,0.84-0.141,1.329-0.561l4.2-3.78l-0.351-0.805c-0.279-0.35-0.944-0.84-1.994-0.84
			C455.065,931.31,454.785,931.345,454.681,931.38 M434.485,939.779c-0.49,0.003-1.025,0.141-1.47,0.525v1.015
			c0,0.175,0.035,0.21,0.175,0.21h2.274c-0.08,3.524-0.104,8.016-0.104,9.766c0,1.225,0.301,2.403,1.05,3.045
			c0.788,0.675,2.079,0.979,2.904,0.979c1.937,0,4.061-0.979,4.761-1.96c0-0.42-0.21-0.63-0.63-0.979
			c-0.455,0.35-1.33,0.489-1.995,0.489c-0.77,0-1.54-0.595-1.54-2.345s-0.035-5.495-0.035-8.995h3.535c0.351,0,0.84-0.14,0.84-0.455
			v-1.086c0-0.14-0.104-0.209-0.279-0.209h-4.096l0.035-1.189c0.07-2.331,0.175-3.955,0.175-3.955c0-0.225-0.104-0.309-0.269-0.309
			c-0.256,0-1.561,0.389-2.111,0.619c-0.595,0.249-1.617,0.452-1.855,0.774c-0.244,0.332-0.385,1.276-0.385,4.056L434.485,939.779z
			 M424.406,934.109c0,1.155,0.84,2.311,2.24,2.311c1.575,0,2.485-1.261,2.485-2.171c0-1.05-0.806-2.31-2.275-2.31
			C425.211,931.939,424.406,933.06,424.406,934.109 M429.132,950.699v-6.976c0-1.739,0.14-3.699,0.14-3.699
			c0-0.385-0.315-0.595-0.805-0.595c-0.998,0.385-3.816,0.665-6.23,0.979c-0.07,0.21,0,0.91,0.07,1.12
			c1.906,0.178,2.274,0.455,2.274,2.45v6.72c0,2.905-0.385,2.976-2.52,3.149c-0.21,0.211-0.21,0.98,0,1.19
			c1.47-0.034,2.926-0.069,4.795-0.069s3.29,0.035,4.794,0.069c0.211-0.21,0.211-0.979,0-1.19
			C429.517,953.709,429.132,953.604,429.132,950.699 M414.012,945.578c0-1.249,0.385-1.757,0.84-2.299
			c0.287-0.343,0.595-0.595,1.109-0.595c0.329,0,0.693,0.308,0.99,0.668c0.245,0.294,0.84,0.574,1.628,0.574
			c1.016,0,2.013-1.067,2.013-2.537c0-0.91-1.051-1.96-2.311-1.96c-1.225,0-2.555,1.05-4.166,3.359h-0.139
			c-0.07-1.051-0.246-2.765-0.246-2.765c-0.027-0.308-0.314-0.595-0.804-0.595c-1.662,0.419-3.5,0.927-5.811,1.154
			c-0.069,0.211,0,0.875,0.07,1.086c1.908,0.178,2.274,0.489,2.274,2.484v6.545c0,2.905-0.385,2.976-2.52,3.149
			c-0.21,0.211-0.21,0.98,0,1.19c1.47-0.034,2.926-0.069,4.795-0.069s3.29,0.035,4.795,0.069c0.21-0.21,0.21-0.979,0-1.19
			c-2.135-0.14-2.52-0.244-2.52-3.149V945.578z M404.842,951.925c0-0.42-0.07-1.085-0.455-1.085c-1.4,1.295-2.59,1.96-3.605,1.96
			c-2.625,0-4.689-1.891-4.689-6.09c0-3.886,0.875-5.811,2.729-5.811c1.295,0,1.82,1.365,1.925,2.485
			c0.105,0.944,1.051,1.645,2.17,1.645c1.12,0,1.926-0.875,1.926-1.96c0-1.575-1.891-3.64-5.705-3.64
			c-4.13,0-7.771,3.325-7.771,8.505c0,2.261,0.812,4.287,2.17,5.564c1.376,1.291,2.958,1.82,5.46,1.82
			C401.097,955.319,403.512,953.849,404.842,951.925 M368.058,949.859c0.14,1.732,0.297,3.377,0.595,4.69
			c0.647,0.227,2.898,0.77,4.865,0.77c2.694,0,6.055-1.467,6.055-4.515c0-1.188-0.294-2.143-1.071-3.01
			c-1.012-1.132-2.464-1.995-4.073-2.696c-1.4-0.608-1.891-1.711-1.891-2.729c0-0.805,0.665-1.47,1.681-1.47
			c1.225,0,2.415,1.12,3.29,3.255c0.63,0.105,1.015,0.069,1.364-0.175c0-1.26-0.14-2.59-0.455-3.71
			c-1.119-0.49-1.994-0.84-3.92-0.84c-1.845,0-3.619,0.692-4.725,1.819c-0.805,0.819-1.19,1.785-1.19,2.73
			c0,1.039,0.402,1.876,1.085,2.625c1.085,1.19,2.992,2.425,4.061,2.905c1.399,0.63,1.785,1.89,1.785,2.729
			c0,1.124-1.12,1.716-2.065,1.716c-1.579,0-3.255-1.593-3.99-4.165C368.897,949.685,368.617,949.72,368.058,949.859
			 M348.388,947.724c0,4.572,3.626,7.596,8.33,7.596c2.467,0,4.546-0.708,5.984-1.995c1.771-1.586,2.38-3.966,2.38-5.915
			c0-4.578-3.133-7.979-8.33-7.979c-2.901,0-5.067,1.001-6.45,2.59C348.976,943.546,348.388,945.655,348.388,947.724
			 M356.192,940.899c2.38,0,3.99,2.835,3.99,7.63c0,4.203-1.646,5.319-2.905,5.319c-2.87,0-3.99-4.304-3.99-6.895
			C353.287,943.734,353.848,940.899,356.192,940.899 M339.218,950.524c0,2.905-0.561,3.22-2.695,3.324c-0.21,0.211-0.21,0.98,0,1.19
			c1.47-0.034,3.031-0.069,4.97-0.069c1.939,0,3.465,0.035,4.97,0.069c0.211-0.21,0.211-0.979,0-1.19
			c-2.135-0.104-2.694-0.419-2.694-3.324v-15.96c0-2.275,0.104-3.57,0.104-3.57c0-0.314-0.245-0.455-0.56-0.455
			c-1.295,0.421-4.095,0.806-6.58,0.91c-0.105,0.42-0.07,0.806,0.104,1.12c2.205,0.175,2.381,0.225,2.381,2.625V950.524z
			 M323.258,952.694v-8.971c0-0.189-0.004-0.381-0.011-0.57c1.009-0.91,2.304-1.379,3.125-1.379c1.436,0,3.115,1.75,3.115,5.845
			c0,2.94-1.05,6.229-4.095,6.229C325.008,953.849,324.133,953.64,323.258,952.694 M318.707,944.154v14.665
			c0,2.904-0.385,2.976-2.52,3.15c-0.21,0.21-0.21,0.979,0,1.189c1.47-0.035,2.926-0.069,4.795-0.069s3.29,0.034,4.795,0.069
			c0.21-0.21,0.21-0.979,0-1.189c-2.135-0.141-2.52-0.246-2.52-3.15v-4.096c0.753,0.386,1.505,0.596,2.345,0.596
			c5.334,0,8.785-3.482,8.785-8.645c0-1.95-0.738-4.13-2.101-5.495c-1.228-1.232-2.984-1.75-4.795-1.75
			c-1.015,0-2.905,1.225-4.13,2.345h-0.196c-0.08-0.991-0.188-1.75-0.188-1.75c-0.031-0.427-0.315-0.595-0.805-0.595
			c-1.296,0.35-3.396,0.84-5.811,1.154c-0.07,0.211,0,0.91,0.07,1.12C318.341,941.883,318.707,942.159,318.707,944.154
			 M307.508,934.109c0,1.155,0.84,2.311,2.24,2.311c1.574,0,2.484-1.261,2.484-2.171c0-1.05-0.804-2.31-2.274-2.31
			C308.313,931.939,307.508,933.06,307.508,934.109 M312.232,950.699v-6.976c0-1.739,0.141-3.699,0.141-3.699
			c0-0.385-0.314-0.595-0.806-0.595c-0.997,0.385-3.814,0.665-6.229,0.979c-0.069,0.21,0,0.91,0.07,1.12
			c1.907,0.178,2.275,0.455,2.275,2.45v6.72c0,2.905-0.386,2.976-2.521,3.149c-0.21,0.211-0.21,0.98,0,1.19
			c1.471-0.034,2.928-0.069,4.796-0.069s3.29,0.035,4.795,0.069c0.21-0.21,0.21-0.979,0-1.19
			C312.618,953.709,312.232,953.604,312.232,950.699 M293.788,939.779c-0.489,0.003-1.025,0.141-1.47,0.525v1.015
			c0,0.175,0.035,0.21,0.175,0.21h2.275c-0.081,3.524-0.105,8.016-0.105,9.766c0,1.225,0.302,2.403,1.05,3.045
			c0.788,0.675,2.079,0.979,2.905,0.979c1.936,0,4.061-0.979,4.76-1.96c0-0.42-0.21-0.63-0.63-0.979
			c-0.455,0.35-1.33,0.489-1.995,0.489c-0.77,0-1.54-0.595-1.54-2.345s-0.034-5.495-0.034-8.995h3.534
			c0.351,0,0.841-0.14,0.841-0.455v-1.086c0-0.14-0.105-0.209-0.28-0.209h-4.095l0.034-1.189c0.07-2.331,0.176-3.955,0.176-3.955
			c0-0.225-0.105-0.309-0.271-0.309c-0.255,0-1.561,0.389-2.109,0.619c-0.596,0.249-1.617,0.452-1.855,0.774
			c-0.245,0.332-0.385,1.276-0.385,4.056L293.788,939.779z M283.708,950.524c0,2.905-0.56,3.22-2.694,3.324
			c-0.211,0.211-0.211,0.98,0,1.19c1.47-0.034,3.03-0.069,4.97-0.069s3.465,0.035,4.97,0.069c0.21-0.21,0.21-0.979,0-1.19
			c-2.135-0.104-2.694-0.419-2.694-3.324v-15.96c0-2.275,0.104-3.57,0.104-3.57c0-0.314-0.245-0.455-0.56-0.455
			c-1.295,0.421-4.096,0.806-6.58,0.91c-0.105,0.42-0.07,0.806,0.104,1.12c2.205,0.175,2.38,0.225,2.38,2.625V950.524z
			 M277.129,950.314v-6.055c0-2.94,0.069-2.521,0.069-3.36c0-0.595-0.14-0.979-0.35-1.19c-0.63,0.035-1.33,0.07-1.995,0.07
			c-0.969,0-3.255-0.035-4.62-0.07c-0.21,0.211-0.21,0.98,0,1.19c1.785,0.175,2.345,0.42,2.345,3.36v6.484
			c0,0.336,0.012,0.687,0.028,1.04c-1.421,0.878-2.601,0.945-3.213,0.945c-1.4,0-2.45-0.158-2.45-2.625v-5.845
			c0-2.94,0.07-2.521,0.07-3.36c0-0.595-0.141-0.979-0.35-1.19c-0.631,0.035-1.354,0.07-1.996,0.07c-1.802,0-3.115-0.035-4.619-0.07
			c-0.211,0.211-0.211,0.98,0,1.19c1.609,0.07,2.345,0.42,2.345,3.36v5.46c0,3.727,1.47,5.6,4.479,5.6
			c1.271,0,3.815-1.008,5.828-2.135c0.077,0.882,0.157,1.539,0.157,1.539c0.028,0.421,0.315,0.596,0.806,0.596
			c1.295-0.35,3.395-0.84,5.81-1.155c0.069-0.21,0-0.909-0.07-1.119C277.496,952.865,277.129,952.31,277.129,950.314
			 M270.094,931.38l-2.905,4.585c-0.21,0.314-0.28,0.63-0.28,0.84s0.28,0.49,0.561,0.49c0.35,0,0.84-0.141,1.33-0.561l4.199-3.78
			l-0.35-0.805c-0.28-0.35-0.945-0.84-1.995-0.84C270.479,931.31,270.198,931.345,270.094,931.38 M235.584,950.699v-6.976
			c0-0.168-0.004-0.339-0.008-0.511c1.362-0.826,2.602-1.193,3.192-1.193c1.399,0,2.45,0.63,2.45,2.625v5.844
			c0,2.941-0.561,3.256-1.995,3.36c-0.21,0.211-0.21,0.98,0,1.19c1.47-0.034,2.59-0.069,4.27-0.069c1.681,0,2.765,0.035,4.271,0.069
			c0.21-0.21,0.21-0.979,0-1.19c-1.4-0.104-1.995-0.419-1.995-3.36v-5.459c0-0.857-0.052-1.558-0.126-1.918
			c1.316-0.686,2.818-1.092,3.381-1.092c1.4,0,2.38,0.63,2.38,2.625v5.844c0,2.941-0.56,3.256-1.995,3.36
			c-0.21,0.211-0.21,0.98,0,1.19c1.471-0.034,2.59-0.069,4.27-0.069c1.926,0,3.466,0.035,4.971,0.069c0.21-0.21,0.21-0.979,0-1.19
			c-2.135-0.104-2.695-0.419-2.695-3.36v-5.459c0-3.85-1.4-5.6-4.41-5.6c-1.287,0-4.244,1.389-6.271,2.537
			c-0.535-1.522-1.936-2.537-3.982-2.537c-1.254,0-3.791,1.315-5.785,2.442c-0.084-1.04-0.201-1.848-0.201-1.848
			c-0.03-0.427-0.314-0.595-0.805-0.595c-1.295,0.35-3.395,0.84-5.81,1.154c-0.07,0.211,0,0.91,0.069,1.12
			c1.908,0.179,2.275,0.455,2.275,2.45v6.545c0,2.905-0.385,2.976-2.52,3.149c-0.211,0.211-0.211,0.98,0,1.19
			c1.47-0.034,2.926-0.069,4.795-0.069c1.596,0,2.59,0.035,4.095,0.069c0.21-0.21,0.21-0.979,0-1.19
			C235.934,953.709,235.584,953.604,235.584,950.699 M195.158,950.699v-6.976c0-0.168-0.003-0.339-0.007-0.511
			c1.362-0.826,2.601-1.193,3.192-1.193c1.399,0,2.449,0.63,2.449,2.625v5.844c0,2.941-0.56,3.256-1.994,3.36
			c-0.211,0.211-0.211,0.98,0,1.19c1.47-0.034,2.59-0.069,4.27-0.069s2.766,0.035,4.27,0.069c0.211-0.21,0.211-0.979,0-1.19
			c-1.399-0.104-1.994-0.419-1.994-3.36v-5.459c0-0.857-0.053-1.558-0.127-1.918c1.316-0.686,2.818-1.092,3.382-1.092
			c1.399,0,2.38,0.63,2.38,2.625v5.844c0,2.941-0.561,3.256-1.995,3.36c-0.21,0.211-0.21,0.98,0,1.19
			c1.47-0.034,2.59-0.069,4.271-0.069c1.924,0,3.465,0.035,4.97,0.069c0.21-0.21,0.21-0.979,0-1.19
			c-2.136-0.104-2.695-0.419-2.695-3.36v-5.459c0-3.85-1.399-5.6-4.41-5.6c-1.288,0-4.245,1.389-6.272,2.537
			c-0.534-1.522-1.934-2.537-3.982-2.537c-1.253,0-3.79,1.315-5.785,2.442c-0.084-1.04-0.199-1.848-0.199-1.848
			c-0.031-0.427-0.315-0.595-0.806-0.595c-1.295,0.35-3.396,0.84-5.81,1.154c-0.07,0.211,0,0.91,0.07,1.12
			c1.907,0.179,2.274,0.455,2.274,2.45v6.545c0,2.905-0.385,2.976-2.521,3.149c-0.209,0.211-0.209,0.98,0,1.19
			c1.471-0.034,2.927-0.069,4.795-0.069c1.597,0,2.591,0.035,4.096,0.069c0.21-0.21,0.21-0.979,0-1.19
			C195.508,953.709,195.158,953.604,195.158,950.699 M169.189,947.724c0,4.572,3.626,7.596,8.33,7.596
			c2.467,0,4.546-0.708,5.984-1.995c1.771-1.586,2.381-3.966,2.381-5.915c0-4.578-3.133-7.979-8.33-7.979
			c-2.902,0-5.068,1.001-6.451,2.59C169.777,943.546,169.189,945.655,169.189,947.724 M176.994,940.899
			c2.381,0,3.99,2.835,3.99,7.63c0,4.203-1.645,5.319-2.904,5.319c-2.871,0-3.99-4.304-3.99-6.895
			C174.09,943.734,174.649,940.899,176.994,940.899 M166.705,951.925c0-0.42-0.07-1.085-0.455-1.085
			c-1.4,1.295-2.591,1.96-3.605,1.96c-2.625,0-4.689-1.891-4.689-6.09c0-3.886,0.875-5.811,2.729-5.811
			c1.295,0,1.819,1.365,1.925,2.485c0.105,0.944,1.05,1.645,2.17,1.645s1.926-0.875,1.926-1.96c0-1.575-1.891-3.64-5.705-3.64
			c-4.131,0-7.771,3.325-7.771,8.505c0,2.261,0.812,4.287,2.17,5.564c1.375,1.291,2.957,1.82,5.46,1.82
			C162.959,955.319,165.375,953.849,166.705,951.925 M125.194,947.724c0,4.572,3.626,7.596,8.33,7.596
			c2.468,0,4.547-0.708,5.985-1.995c1.771-1.586,2.379-3.966,2.379-5.915c0-4.578-3.131-7.979-8.329-7.979
			c-2.901,0-5.068,1.001-6.45,2.59C125.782,943.546,125.194,945.655,125.194,947.724 M133,940.899c2.379,0,3.989,2.835,3.989,7.63
			c0,4.203-1.646,5.319-2.905,5.319c-2.869,0-3.99-4.304-3.99-6.895C130.094,943.734,130.654,940.899,133,940.899 M116.68,953.289
			c0.072,0.826,0.15,1.435,0.15,1.435c0.027,0.421,0.314,0.596,0.805,0.596c1.295-0.35,3.395-0.84,5.81-1.155
			c0.069-0.21,0-0.91-0.069-1.119c-1.908-0.18-2.275-0.735-2.275-2.73v-15.75c0-2.275,0.105-3.57,0.105-3.57
			c0-0.314-0.246-0.455-0.561-0.455c-1.295,0.421-4.096,0.806-6.58,0.91c-0.105,0.42-0.07,0.875,0.105,1.19
			c2.205,0.175,2.379,0.209,2.379,2.625v4.563c-0.668-0.237-1.508-0.398-2.52-0.398c-4.516,0-8.47,3.955-8.47,8.609
			c0,2.082,0.749,4.487,2.45,5.81c1.26,0.98,2.142,1.471,4.095,1.471c0.944,0,3.534-1.54,4.271-2.03H116.68z M116.57,951.651
			c-0.738,0.591-2.586,1.358-2.996,1.358c-1.75,0-3.115-1.96-3.115-6.056c0-1.865,0.215-3.466,0.875-4.55
			c0.578-0.949,1.53-1.505,2.59-1.505c0.918,0,1.775,0.094,2.625,1.253v8.617C116.549,951.053,116.557,951.351,116.57,951.651
			 M97.545,945.578c0-1.249,0.385-1.757,0.84-2.299c0.287-0.343,0.595-0.595,1.109-0.595c0.329,0,0.693,0.308,0.99,0.668
			c0.245,0.294,0.84,0.574,1.628,0.574c1.015,0,2.013-1.067,2.013-2.537c0-0.91-1.051-1.96-2.311-1.96
			c-1.225,0-2.555,1.05-4.165,3.359h-0.14c-0.07-1.051-0.246-2.765-0.246-2.765c-0.027-0.308-0.314-0.595-0.805-0.595
			c-1.662,0.419-3.5,0.927-5.81,1.154c-0.069,0.211,0,0.875,0.069,1.086c1.908,0.178,2.275,0.489,2.275,2.484v6.545
			c0,2.905-0.385,2.976-2.52,3.149c-0.211,0.211-0.211,0.98,0,1.19c1.47-0.034,2.926-0.069,4.795-0.069s3.29,0.035,4.795,0.069
			c0.21-0.21,0.21-0.979,0-1.19c-2.135-0.14-2.52-0.244-2.52-3.149V945.578z M71.575,947.724c0,4.572,3.626,7.596,8.33,7.596
			c2.468,0,4.546-0.708,5.985-1.995c1.771-1.586,2.38-3.966,2.38-5.915c0-4.578-3.134-7.979-8.33-7.979
			c-2.901,0-5.067,1.001-6.451,2.59C72.164,943.546,71.575,945.655,71.575,947.724 M79.381,940.899c2.379,0,3.99,2.835,3.99,7.63
			c0,4.203-1.646,5.319-2.906,5.319c-2.869,0-3.989-4.304-3.989-6.895C76.476,943.734,77.035,940.899,79.381,940.899 M69.09,951.925
			c0-0.42-0.069-1.085-0.455-1.085c-1.399,1.295-2.59,1.96-3.604,1.96c-2.625,0-4.69-1.891-4.69-6.09
			c0-3.886,0.875-5.811,2.73-5.811c1.295,0,1.82,1.365,1.926,2.485c0.104,0.944,1.049,1.645,2.17,1.645
			c1.119,0,1.924-0.875,1.924-1.96c0-1.575-1.89-3.64-5.705-3.64c-4.129,0-7.77,3.325-7.77,8.505c0,2.261,0.812,4.287,2.17,5.564
			c1.375,1.291,2.957,1.82,5.461,1.82C65.346,955.319,67.76,953.849,69.09,951.925 M46.76,947.34v4.62
			c-0.875,0.699-1.75,1.26-2.379,1.26c-1.506,0-2.03-1.016-2.03-2.101c0-1.299,0.114-2.377,2.59-3.185L46.76,947.34z
			 M46.942,953.271c0.237,1.418,1.183,2.048,2.724,2.048c1.936,0,3.289-0.735,4.584-1.96c-0.076-0.414-0.227-0.693-0.629-0.979
			c-0.455,0.35-0.806,0.489-1.471,0.489c-0.77,0-0.98-0.631-0.98-2.345l0.07-5.04c0-5.04-3.115-6.055-5.984-6.055
			c-2.556,0-6.494,1.456-6.494,3.766c0,1,0.425,1.771,1.811,1.771c1.239,0,2.178-0.771,2.178-1.618c0-0.461-0.246-1.049-0.162-1.651
			c0.054-0.389,0.306-0.798,1.478-0.798c1.47,0,2.694,0.63,2.694,5.074l-2.344,0.736c-3.689,1.153-6.266,2.17-6.266,4.935
			c0,2.415,1.33,3.675,4.375,3.675c1.016,0,3.045-1.12,4.2-2.03L46.942,953.271z"/>
		<path clip-path="url(#SVGID_8_)" fill="#231F20" d="M432.491,902.454c-1.435,1.47-3.325,1.854-4.655,1.854
			c-2.729,0-4.409-1.574-4.409-5.005c0-0.245,0.034-0.385,0.034-0.56h8.4c0.84,0,1.015-0.595,1.015-1.085
			c0-2.976-1.154-6.23-6.3-6.23c-3.675,0-7.875,3.255-7.875,8.61c0,2.047,0.742,4.172,2.24,5.53c1.316,1.193,3.041,1.75,5.53,1.75
			c2.415,0,4.794-1.226,6.545-3.78C433.017,903.084,432.842,902.454,432.491,902.454 M423.602,897.344
			c0.035-1.225,0.224-2.545,0.699-3.255c0.557-0.833,1.494-1.189,1.891-1.189c0.945,0,2.24,0.909,2.24,3.71
			c0,0.21,0,0.665-0.07,0.734H423.602z M410.187,905.289c0.073,0.826,0.149,1.435,0.149,1.435c0.028,0.42,0.315,0.596,0.806,0.596
			c1.295-0.351,3.395-0.841,5.81-1.155c0.07-0.21,0-0.91-0.07-1.12c-1.906-0.178-2.274-0.735-2.274-2.729v-15.75
			c0-2.275,0.104-3.57,0.104-3.57c0-0.315-0.244-0.455-0.561-0.455c-1.294,0.42-4.094,0.805-6.579,0.91
			c-0.104,0.42-0.07,0.875,0.105,1.189c2.205,0.176,2.38,0.21,2.38,2.625v4.564c-0.668-0.238-1.508-0.399-2.521-0.399
			c-4.515,0-8.47,3.955-8.47,8.61c0,2.083,0.749,4.487,2.45,5.81c1.26,0.98,2.142,1.471,4.095,1.471c0.945,0,3.535-1.54,4.271-2.03
			H410.187z M410.077,903.651c-0.737,0.592-2.586,1.357-2.996,1.357c-1.75,0-3.114-1.96-3.114-6.055c0-1.866,0.214-3.465,0.875-4.55
			c0.577-0.948,1.529-1.505,2.59-1.505c0.917,0,1.774,0.094,2.625,1.253v8.616C410.057,903.053,410.063,903.35,410.077,903.651
			 M375.758,901.859c0.14,1.732,0.297,3.378,0.595,4.689c0.646,0.229,2.897,0.771,4.865,0.771c2.694,0,6.055-1.467,6.055-4.516
			c0-1.186-0.294-2.142-1.071-3.01c-1.012-1.13-2.464-1.995-4.074-2.695c-1.399-0.608-1.89-1.711-1.89-2.729
			c0-0.805,0.665-1.47,1.68-1.47c1.226,0,2.415,1.119,3.29,3.255c0.631,0.104,1.016,0.069,1.365-0.176c0-1.26-0.14-2.59-0.455-3.71
			c-1.12-0.489-1.995-0.84-3.92-0.84c-1.845,0-3.619,0.693-4.725,1.82c-0.806,0.819-1.19,1.785-1.19,2.729
			c0,1.04,0.402,1.877,1.085,2.625c1.085,1.19,2.992,2.427,4.061,2.905c1.399,0.63,1.785,1.891,1.785,2.73
			c0,1.124-1.12,1.715-2.065,1.715c-1.579,0-3.255-1.592-3.99-4.165C376.598,901.684,376.317,901.719,375.758,901.859
			 M356.088,899.724c0,4.571,3.626,7.596,8.329,7.596c2.468,0,4.547-0.707,5.985-1.995c1.771-1.585,2.38-3.965,2.38-5.915
			c0-4.578-3.133-7.98-8.33-7.98c-2.901,0-5.067,1.001-6.451,2.59C356.676,895.545,356.088,897.655,356.088,899.724
			 M363.893,892.899c2.38,0,3.99,2.835,3.99,7.63c0,4.204-1.646,5.319-2.905,5.319c-2.87,0-3.99-4.305-3.99-6.895
			C360.987,895.734,361.548,892.899,363.893,892.899 M344.468,891.779c-0.49,0.003-1.025,0.14-1.471,0.524v1.016
			c0,0.175,0.035,0.21,0.176,0.21h2.274c-0.08,3.524-0.104,8.015-0.104,9.765c0,1.225,0.301,2.404,1.05,3.045
			c0.788,0.676,2.079,0.98,2.905,0.98c1.936,0,4.06-0.98,4.76-1.96c0-0.42-0.21-0.631-0.63-0.98c-0.455,0.35-1.33,0.49-1.995,0.49
			c-0.771,0-1.54-0.595-1.54-2.345s-0.035-5.495-0.035-8.995h3.535c0.35,0,0.84-0.141,0.84-0.455v-1.085
			c0-0.141-0.105-0.21-0.28-0.21h-4.095l0.035-1.19c0.07-2.331,0.175-3.955,0.175-3.955c0-0.224-0.104-0.308-0.269-0.308
			c-0.257,0-1.562,0.389-2.111,0.62c-0.595,0.248-1.617,0.451-1.855,0.772c-0.244,0.333-0.385,1.278-0.385,4.058L344.468,891.779z
			 M328.684,902.699v-6.976v-0.062c1.389-0.956,2.812-1.643,3.43-1.643c1.399,0,2.449,0.631,2.449,2.625v5.846
			c0,2.939-0.561,3.255-1.995,3.359c-0.209,0.21-0.209,0.98,0,1.19c1.471-0.035,2.604-0.07,4.271-0.07
			c1.939,0,3.466,0.035,4.971,0.07c0.209-0.21,0.209-0.98,0-1.19c-2.135-0.104-2.695-0.42-2.695-3.359v-5.46
			c0-3.851-1.646-5.601-4.656-5.601c-1.409,0-3.897,1.544-5.826,2.866c-0.08-1.235-0.229-2.271-0.229-2.271
			c-0.031-0.428-0.314-0.596-0.804-0.596c-1.295,0.351-3.396,0.84-5.811,1.155c-0.07,0.21,0,0.91,0.07,1.12
			c1.907,0.179,2.274,0.455,2.274,2.45v6.545c0,2.904-0.385,2.975-2.52,3.149c-0.211,0.21-0.211,0.98,0,1.19
			c1.469-0.035,2.925-0.07,4.794-0.07c1.597,0,2.591,0.035,4.095,0.07c0.211-0.21,0.211-0.98,0-1.19
			C329.032,905.709,328.684,905.604,328.684,902.699 M318.674,902.454c-1.436,1.47-3.325,1.854-4.655,1.854
			c-2.73,0-4.41-1.574-4.41-5.005c0-0.245,0.035-0.385,0.035-0.56h8.399c0.841,0,1.016-0.595,1.016-1.085
			c0-2.976-1.155-6.23-6.3-6.23c-3.676,0-7.875,3.255-7.875,8.61c0,2.047,0.741,4.172,2.239,5.53c1.316,1.193,3.041,1.75,5.53,1.75
			c2.415,0,4.795-1.226,6.545-3.78C319.198,903.084,319.023,902.454,318.674,902.454 M309.783,897.344
			c0.035-1.225,0.225-2.545,0.7-3.255c0.556-0.833,1.494-1.189,1.89-1.189c0.945,0,2.24,0.909,2.24,3.71c0,0.21,0,0.665-0.07,0.734
			H309.783z M279.894,902.699v-6.976c0-0.168-0.004-0.34-0.007-0.511c1.361-0.826,2.6-1.194,3.191-1.194
			c1.4,0,2.45,0.631,2.45,2.625v5.846c0,2.939-0.56,3.255-1.995,3.359c-0.21,0.21-0.21,0.98,0,1.19c1.47-0.035,2.59-0.07,4.271-0.07
			c1.68,0,2.765,0.035,4.27,0.07c0.21-0.21,0.21-0.98,0-1.19c-1.399-0.104-1.995-0.42-1.995-3.359v-5.46
			c0-0.857-0.053-1.558-0.126-1.918c1.316-0.687,2.817-1.093,3.381-1.093c1.4,0,2.38,0.631,2.38,2.625v5.846
			c0,2.939-0.56,3.255-1.994,3.359c-0.21,0.21-0.21,0.98,0,1.19c1.47-0.035,2.59-0.07,4.27-0.07c1.925,0,3.465,0.035,4.97,0.07
			c0.21-0.21,0.21-0.98,0-1.19c-2.135-0.104-2.694-0.42-2.694-3.359v-5.46c0-3.851-1.4-5.601-4.41-5.601
			c-1.288,0-4.246,1.391-6.272,2.538c-0.536-1.522-1.936-2.538-3.982-2.538c-1.253,0-3.791,1.316-5.786,2.443
			c-0.084-1.039-0.199-1.848-0.199-1.848c-0.031-0.428-0.314-0.596-0.805-0.596c-1.295,0.351-3.395,0.84-5.811,1.155
			c-0.07,0.21,0,0.91,0.07,1.12c1.907,0.179,2.275,0.455,2.275,2.45v6.545c0,2.904-0.385,2.975-2.521,3.149
			c-0.21,0.21-0.21,0.98,0,1.19c1.47-0.035,2.927-0.07,4.795-0.07c1.597,0,2.591,0.035,4.095,0.07c0.211-0.21,0.211-0.98,0-1.19
			C280.243,905.709,279.894,905.604,279.894,902.699 M270.023,893.179c0.98,0,1.54-0.42,1.54-1.715c0-0.665-0.91-1.68-2.24-1.68
			c-1.54,0-3.569,1.155-4.585,2.064c-0.63-0.35-1.365-0.42-2.939-0.42c-1.51,0-2.973,0.368-4.131,1.12
			c-1.42,0.924-2.379,2.266-2.379,4.061c0,1.715,1.014,3.569,2.694,4.498c-1.085,0.927-2.765,2.774-2.765,3.481
			c0,0.669,0.104,1.085,0.455,1.61c0.322,0.482,0.748,0.756,1.435,0.979c-1.505,0.91-3.045,2.905-3.045,3.5
			c0,1.295,0.401,2.79,1.364,3.465c1.354,0.949,3.679,1.155,5.355,1.155c4.865,0,10.43-2.555,10.43-6.405
			c0-0.749-0.34-2.236-1.75-3.185c-1.354-0.91-6.633-1.155-9.205-1.155c-0.629,0-1.574-0.069-1.574-1.47
			c0-0.56,0.332-1.05,0.507-1.47c0.735,0.35,1.487,0.385,2.573,0.385c1.785,0,3.426-0.448,4.619-1.505
			c1.009-0.894,1.716-2.139,1.716-3.71c0-1.96-0.98-3.255-2.171-4.235c0.281-0.35,1.436-0.979,1.785-0.979
			c0.315,0,0.561,0.21,0.666,0.42C268.519,892.444,269.148,893.179,270.023,893.179 M259.803,907.844
			c2.688,0,7.875,0.099,7.875,1.96c0,1.268-0.563,2.688-1.715,3.339c-1.084,0.613-2.859,0.687-4.199,0.687
			c-2.311,0-3.885-1.715-3.885-3.5c0-1.19,0-1.995,0.385-2.695C258.613,907.774,259.068,907.844,259.803,907.844 M263.828,896.889
			c0,3.36-0.979,3.78-1.89,3.78c-2.17,0-2.45-2.59-2.45-4.375c0-2.59,0.63-3.535,1.995-3.535
			C263.129,892.759,263.828,894.124,263.828,896.889 M246.118,899.339v4.62c-0.875,0.7-1.75,1.26-2.38,1.26
			c-1.505,0-2.029-1.015-2.029-2.1c0-1.298,0.114-2.376,2.59-3.186L246.118,899.339z M246.301,905.271
			c0.238,1.418,1.183,2.048,2.723,2.048c1.936,0,3.29-0.735,4.585-1.96c-0.077-0.413-0.228-0.693-0.63-0.98
			c-0.455,0.35-0.805,0.49-1.471,0.49c-0.77,0-0.979-0.63-0.979-2.345l0.07-5.04c0-5.04-3.115-6.056-5.985-6.056
			c-2.555,0-6.492,1.456-6.492,3.767c0,1.001,0.424,1.771,1.809,1.771c1.24,0,2.178-0.77,2.178-1.617
			c0-0.462-0.245-1.05-0.161-1.651c0.052-0.39,0.304-0.798,1.478-0.798c1.47,0,2.694,0.63,2.694,5.074l-2.345,0.735
			c-3.689,1.155-6.266,2.17-6.266,4.935c0,2.415,1.33,3.676,4.375,3.676c1.016,0,3.045-1.12,4.201-2.03L246.301,905.271z
			 M228.969,897.579c0-1.25,0.385-1.757,0.84-2.3c0.287-0.344,0.595-0.596,1.109-0.596c0.33,0,0.693,0.309,0.99,0.669
			c0.245,0.294,0.84,0.574,1.629,0.574c1.014,0,2.012-1.067,2.012-2.538c0-0.91-1.051-1.96-2.311-1.96
			c-1.225,0-2.555,1.05-4.165,3.36h-0.14c-0.07-1.05-0.245-2.765-0.245-2.765c-0.028-0.309-0.315-0.596-0.806-0.596
			c-1.662,0.42-3.5,0.929-5.81,1.155c-0.069,0.21,0,0.875,0.07,1.085c1.907,0.179,2.274,0.49,2.274,2.485v6.545
			c0,2.904-0.385,2.975-2.52,3.149c-0.21,0.21-0.21,0.98,0,1.19c1.47-0.035,2.926-0.07,4.795-0.07s3.29,0.035,4.795,0.07
			c0.21-0.21,0.21-0.98,0-1.19c-2.135-0.14-2.52-0.245-2.52-3.149V897.579z M215.354,902.489v-8.96h3.01
			c0.63,0,1.225-0.176,1.225-0.596v-0.805c0-0.21-0.035-0.35-0.699-0.35h-3.535v-1.785c0-5.215,1.436-5.985,2.205-5.985
			c0.595,0,0.734,0.525,0.98,1.365c0.314,1.12,1.225,1.995,2.484,1.995c1.154,0,1.995-0.735,1.995-2.24
			c0-0.945-1.085-2.59-4.795-2.59c-1.646,0-3.605,0.595-4.935,2.03c-1.296,1.399-2.486,3.149-2.486,6.51v0.7h-0.069
			c-1.19,0-2.625,0.175-2.625,0.455v0.944c0,0.245,0.14,0.351,0.944,0.351h1.75v9.029c0,2.87-0.56,3.186-2.694,3.29
			c-0.21,0.21-0.21,0.98,0,1.19c1.47-0.035,3.045-0.07,4.97-0.07c1.926,0,3.465,0.035,4.971,0.07c0.209-0.21,0.209-0.98,0-1.19
			C215.914,905.744,215.354,905.429,215.354,902.489 M196.523,902.454c-1.436,1.47-3.325,1.854-4.655,1.854
			c-2.729,0-4.409-1.574-4.409-5.005c0-0.245,0.034-0.385,0.034-0.56h8.4c0.84,0,1.015-0.595,1.015-1.085
			c0-2.976-1.154-6.23-6.3-6.23c-3.675,0-7.875,3.255-7.875,8.61c0,2.047,0.742,4.172,2.24,5.53c1.315,1.193,3.042,1.75,5.53,1.75
			c2.414,0,4.795-1.226,6.545-3.78C197.049,903.084,196.873,902.454,196.523,902.454 M187.633,897.344
			c0.035-1.225,0.225-2.545,0.701-3.255c0.557-0.833,1.494-1.189,1.89-1.189c0.944,0,2.239,0.909,2.239,3.71
			c0,0.21,0,0.665-0.069,0.734H187.633z M174.219,905.289c0.074,0.826,0.15,1.435,0.15,1.435c0.028,0.42,0.315,0.596,0.805,0.596
			c1.295-0.351,3.396-0.841,5.811-1.155c0.07-0.21,0-0.91-0.07-1.12c-1.908-0.178-2.275-0.735-2.275-2.729v-15.75
			c0-2.275,0.105-3.57,0.105-3.57c0-0.315-0.244-0.455-0.56-0.455c-1.296,0.42-4.095,0.805-6.58,0.91
			c-0.104,0.42-0.07,0.875,0.104,1.189c2.205,0.176,2.381,0.21,2.381,2.625v4.564c-0.67-0.238-1.51-0.399-2.521-0.399
			c-4.515,0-8.47,3.955-8.47,8.61c0,2.083,0.749,4.487,2.449,5.81c1.261,0.98,2.143,1.471,4.096,1.471c0.945,0,3.535-1.54,4.27-2.03
			H174.219z M174.11,903.651c-0.739,0.592-2.587,1.357-2.996,1.357c-1.75,0-3.114-1.96-3.114-6.055c0-1.866,0.213-3.465,0.875-4.55
			c0.576-0.948,1.528-1.505,2.59-1.505c0.916,0,1.773,0.094,2.625,1.253v8.616C174.09,903.053,174.096,903.35,174.11,903.651
			 M135.064,899.724c0,4.571,3.626,7.596,8.33,7.596c2.467,0,4.546-0.707,5.984-1.995c1.771-1.585,2.381-3.965,2.381-5.915
			c0-4.578-3.133-7.98-8.33-7.98c-2.902,0-5.068,1.001-6.451,2.59C135.652,895.545,135.064,897.655,135.064,899.724
			 M142.869,892.899c2.381,0,3.99,2.835,3.99,7.63c0,4.204-1.645,5.319-2.904,5.319c-2.871,0-3.99-4.305-3.99-6.895
			C139.965,895.734,140.524,892.899,142.869,892.899 M126.209,899.339v4.62c-0.875,0.7-1.75,1.26-2.379,1.26
			c-1.506,0-2.031-1.015-2.031-2.1c0-1.298,0.117-2.376,2.59-3.186L126.209,899.339z M126.392,905.271
			c0.237,1.418,1.183,2.048,2.723,2.048c1.937,0,3.29-0.735,4.585-1.96c-0.076-0.413-0.227-0.693-0.63-0.98
			c-0.455,0.35-0.806,0.49-1.47,0.49c-0.77,0-0.98-0.63-0.98-2.345l0.07-5.04c0-5.04-3.115-6.056-5.984-6.056
			c-2.556,0-6.492,1.46-6.492,3.77c0,1.002,0.422,1.768,1.809,1.768c1.238,0,2.177-0.77,2.177-1.617c0-0.462-0.241-1.05-0.161-1.651
			c0.053-0.39,0.305-0.798,1.477-0.798c1.471,0,2.695,0.63,2.695,5.074l-2.345,0.735c-3.688,1.155-6.265,2.17-6.265,4.935
			c0,2.415,1.33,3.676,4.375,3.676c1.015,0,3.045-1.12,4.199-2.03L126.392,905.271z M126.489,886.354c-0.385,0-1.295,0-1.925-0.489
			c-0.7-0.561-1.505-0.875-2.59-0.875c-1.225,0-2.346,1.47-2.905,3.255c0,0.49,0.49,0.63,0.91,0.63c0.385-1.33,0.944-1.4,1.715-1.4
			c0.63,0,1.33,0.141,2.03,0.596c0.699,0.524,1.47,0.734,2.275,0.734c1.295,0,2.59-1.225,3.185-3.255c0-0.42-0.49-0.7-0.979-0.7
			C127.715,886.109,126.979,886.354,126.489,886.354 M106.154,910.504c1.26,0.07,3.115,0.224,3.115,1.54
			c0,0.945-0.7,1.435-1.75,1.435c-0.7,0-1.085-0.14-2.03-0.489c-0.317,0.146-0.351,0.56-0.351,0.91
			c0.806,0.427,1.121,0.595,2.24,0.595c2.269,0,4.092-1.389,4.092-3.146c0-1.911-1.662-2.625-3.252-2.943l0.455-1.088
			c0.117,0.003,0.231,0.003,0.351,0.003c2.101,0,4.515-1.471,5.845-3.396c0-0.42-0.07-1.085-0.455-1.085
			c-1.4,1.295-2.59,1.96-3.604,1.96c-2.625,0-4.69-1.89-4.69-6.09c0-3.885,0.875-5.81,2.73-5.81c1.295,0,1.82,1.364,1.925,2.484
			c0.104,0.945,1.05,1.646,2.17,1.646s1.925-0.875,1.925-1.96c0-1.575-1.89-3.641-5.705-3.641c-4.13,0-7.77,3.325-7.77,8.505
			c0,2.262,0.812,4.288,2.17,5.565c1.068,1.005,2.261,1.547,3.91,1.74l-1.53,3.055L106.154,910.504z M97.825,902.454
			c-1.435,1.47-3.325,1.854-4.655,1.854c-2.729,0-4.41-1.574-4.41-5.005c0-0.245,0.035-0.385,0.035-0.56h8.4
			c0.84,0,1.016-0.595,1.016-1.085c0-2.976-1.156-6.23-6.301-6.23c-3.675,0-7.875,3.255-7.875,8.61c0,2.047,0.742,4.172,2.24,5.53
			c1.316,1.193,3.041,1.75,5.529,1.75c2.416,0,4.796-1.226,6.546-3.78C98.351,903.084,98.176,902.454,97.825,902.454
			 M88.936,897.344c0.035-1.225,0.224-2.545,0.699-3.255c0.557-0.833,1.494-1.189,1.891-1.189c0.945,0,2.24,0.909,2.24,3.71
			c0,0.21,0,0.665-0.07,0.734H88.936z M74.865,902.524c0,2.904-0.561,3.22-2.695,3.324c-0.209,0.21-0.209,0.98,0,1.19
			c1.471-0.035,3.031-0.07,4.971-0.07s3.465,0.035,4.97,0.07c0.21-0.21,0.21-0.98,0-1.19c-2.135-0.104-2.694-0.42-2.694-3.324
			v-15.96c0-2.275,0.104-3.57,0.104-3.57c0-0.315-0.245-0.455-0.56-0.455c-1.295,0.42-4.096,0.805-6.58,0.91
			c-0.105,0.42-0.07,0.805,0.104,1.12c2.205,0.175,2.38,0.224,2.38,2.625V902.524z M69.336,902.454
			c-1.436,1.47-3.326,1.854-4.656,1.854c-2.729,0-4.409-1.574-4.409-5.005c0-0.245,0.034-0.385,0.034-0.56h8.4
			c0.84,0,1.016-0.595,1.016-1.085c0-2.976-1.155-6.23-6.301-6.23c-3.674,0-7.875,3.255-7.875,8.61c0,2.047,0.742,4.172,2.24,5.53
			c1.316,1.193,3.041,1.75,5.53,1.75c2.415,0,4.795-1.226,6.545-3.78C69.86,903.084,69.686,902.454,69.336,902.454 M60.445,897.344
			c0.035-1.225,0.225-2.545,0.7-3.255c0.556-0.833,1.493-1.189,1.89-1.189c0.945,0,2.24,0.909,2.24,3.71c0,0.21,0,0.665-0.07,0.734
			H60.445z M51.346,884.884c-1.926-0.28-2.66-0.944-5.916-0.944c-1.588,0-3.65,0.504-5.109,1.68
			c-1.307,1.05-2.275,2.674-2.275,4.375c0,1.341,0.364,3.007,1.155,4.06c1.624,2.167,4.526,3.37,6.021,4.41
			c1.609,1.12,3.185,2.521,3.185,4.48c0,1.722-1.505,2.904-3.64,2.904c-2.346,0-4.76-1.925-5.461-5.109
			c-0.594-0.21-1.189-0.035-1.75,0.104c0,2.625,0.281,4.48,0.666,5.775c1.994,0,2.096,0.7,6.93,0.7c2.143,0,3.843-0.616,5.285-1.908
			c1.242-1.112,2.38-2.727,2.38-4.882c0-1.823-0.788-3.06-1.819-4.2c-1.365-1.508-3.326-2.59-4.691-3.29
			c-1.389-0.714-3.885-2.521-3.885-4.515c0-1.96,1.184-3.15,2.976-3.15c2.976,0,3.955,2.695,4.585,5.005
			c0.49,0.14,1.365,0.14,1.75-0.175C51.73,888.349,51.59,886.914,51.346,884.884"/>
	</g>
</g>
</svg>
