<?xml version="1.0" encoding="utf-8"?>
<!-- Generator: Adobe Illustrator 16.0.0, SVG Export Plug-In . SVG Version: 6.00 Build 0)  -->
<!DOCTYPE svg PUBLIC "-//W3C//DTD SVG 1.1//EN" "http://www.w3.org/Graphics/SVG/1.1/DTD/svg11.dtd">
<svg version="1.1" id="Layer_1" xmlns="http://www.w3.org/2000/svg" xmlns:xlink="http://www.w3.org/1999/xlink" x="0px" y="0px"
	 width="564px" height="1002px" viewBox="0 0 564 1002" enable-background="new 0 0 564 1002" xml:space="preserve">
<g>
	<g>
		<defs>
			<rect id="SVGID_51_" width="564" height="1002"/>
		</defs>
		<clipPath id="SVGID_2_">
			<use xlink:href="#SVGID_51_"  overflow="visible"/>
		</clipPath>
		<path clip-path="url(#SVGID_2_)" fill="#231F20" d="M351.607,711.334c0-0.819,0-1.827-0.252-2.646
			c-0.315-0.756-0.82-1.386-1.827-1.386c-0.819,0-1.323,0.63-1.575,1.386c-0.314,0.756-0.378,1.827-0.378,2.646
			c0,1.07,0.567,2.204,1.386,3.213c0.756,1.008,1.765,2.016,2.772,2.961c1.323,1.322,2.897,2.835,3.968,4.536
			c1.072,1.764,1.891,3.717,1.891,5.984c0,2.205-0.504,4.536-1.764,6.3c-1.323,1.827-3.339,3.15-6.363,3.15
			c-3.843,0-6.11-1.764-7.371-3.906c-1.26-2.142-1.512-4.788-1.512-6.615h5.922c0,0.945,0.062,2.269,0.504,3.276
			c0.441,1.071,1.135,1.953,2.457,1.953c1.828,0,2.205-2.142,2.205-4.158c0-2.079-2.016-4.158-3.969-6.11
			c-1.512-1.449-2.961-2.772-4.095-4.474s-1.954-3.591-1.954-6.11c0-2.017,0.379-4.348,1.576-6.175
			c1.196-1.764,3.149-3.087,6.174-3.149c3.717-0.063,5.796,1.322,6.867,3.149c1.07,1.827,1.26,4.222,1.26,6.175H351.607z
			 M331.51,720.343c-3.087,1.322-4.409,4.41-4.409,7.686c0,0.441,0.062,1.197,0.314,1.891c0.253,0.756,0.693,1.322,1.449,1.322
			c1.449,0,2.646-0.882,2.646-2.079V720.343z M331.51,710.703c0-0.566,0-1.448-0.188-2.078c-0.253-0.631-0.756-1.071-1.575-1.071
			c-1.071,0-1.512,0.818-1.701,1.827c-0.062,0.504-0.127,1.07-0.127,1.638v1.638h-6.361v-1.449c0-2.52,0.945-4.787,2.457-6.488
			s3.654-2.709,6.111-2.709c2.078,0,3.968,0.818,5.418,2.205c1.448,1.386,2.33,3.339,2.33,5.606v21.168
			c0,3.087,0.189,4.474,0.441,5.985h-6.237c-0.567-0.693-0.567-2.331-0.567-2.772h-0.441c-0.314,0.567-0.881,1.387-1.763,2.079
			c-0.883,0.693-2.079,1.197-3.341,1.197c-0.817,0-2.141-0.315-3.148-1.575c-1.071-1.197-1.953-3.339-1.953-6.93
			c0-3.843,1.134-6.615,2.646-8.505c1.513-1.891,3.402-3.087,4.978-3.906s2.771-1.386,3.023-2.079V710.703z M310.468,702.514h6.363
			v34.461h-6.363V702.514z M310.468,690.67h6.363v6.362h-6.363V690.67z M295.476,736.975h-5.985v-27.279
			c0-1.323-1.008-1.512-1.701-1.512s-1.26,0.378-1.701,0.819c-0.252,0.252-0.504,0.504-0.692,0.818v27.153h-6.364v-34.461h6.364
			v2.897c0.126-0.062,0.378-0.314,0.755-0.692c0.693-0.693,1.765-1.639,2.898-2.269c0.566-0.314,1.07-0.44,1.639-0.44
			c2.268,0,3.591,1.827,4.283,3.843c0.253-0.189,0.567-0.504,1.009-0.945c0.818-0.882,1.89-1.701,3.087-2.394
			c0.566-0.315,1.133-0.504,1.701-0.504c1.7,0,2.897,1.008,3.652,2.268c0.757,1.323,1.135,3.024,1.135,4.474v28.224h-5.984v-27.279
			c0-1.323-1.008-1.512-1.701-1.512s-1.26,0.378-1.701,0.819c-0.252,0.252-0.504,0.504-0.692,0.818V736.975z M268.699,711.081
			c0.064-1.322-0.188-2.268-0.818-3.023c-0.314-0.315-0.818-0.504-1.386-0.504c-1.196,0-1.701,0.818-1.952,1.764
			c-0.189,0.504-0.253,1.071-0.189,1.764v17.325c-0.063,1.323,0.252,2.269,0.818,2.961c0.314,0.315,0.756,0.504,1.323,0.504
			c1.197,0,1.765-0.756,2.017-1.7c0.188-0.505,0.252-1.071,0.188-1.765V711.081z M274.686,728.596
			c-0.189,3.339-1.197,5.67-3.402,7.497c-1.134,0.944-2.709,1.386-4.788,1.386c-4.095,0-6.11-2.268-7.118-4.536
			c-0.568-1.323-0.945-2.835-1.01-4.536v-17.325c0.189-3.339,1.198-5.796,3.402-7.686c1.072-0.945,2.646-1.386,4.726-1.386
			c4.095,0,6.173,2.268,7.183,4.473c0.566,1.323,0.944,2.772,1.008,4.41V728.596z M244.066,736.975h-6.363v-34.461h6.363v2.897
			c0.127-0.062,0.379-0.314,0.757-0.692c0.692-0.693,1.638-1.639,2.772-2.269c0.566-0.314,1.07-0.44,1.638-0.44
			c1.7,0,2.897,1.008,3.653,2.268c0.756,1.323,1.135,3.024,1.135,4.474v28.224h-6.363v-27.279c0-1.323-0.756-1.512-1.512-1.512
			c-0.693,0-1.071,0.378-1.512,0.819c-0.189,0.252-0.379,0.504-0.568,0.818V736.975z M227.372,711.081
			c0.063-1.322-0.188-2.268-0.819-3.023c-0.314-0.315-0.818-0.504-1.385-0.504c-1.197,0-1.701,0.818-1.953,1.764
			c-0.189,0.504-0.252,1.071-0.189,1.764v17.325c-0.062,1.323,0.252,2.269,0.818,2.961c0.315,0.315,0.756,0.504,1.324,0.504
			c1.196,0,1.764-0.756,2.016-1.7c0.188-0.505,0.252-1.071,0.188-1.765V711.081z M233.357,728.596
			c-0.189,3.339-1.197,5.67-3.402,7.497c-1.134,0.944-2.709,1.386-4.787,1.386c-4.096,0-6.111-2.268-7.119-4.536
			c-0.568-1.323-0.945-2.835-1.009-4.536v-17.325c0.188-3.339,1.196-5.796,3.402-7.686c1.071-0.945,2.646-1.386,4.726-1.386
			c4.094,0,6.174,2.268,7.182,4.473c0.566,1.323,0.944,2.772,1.008,4.41V728.596z M202.488,719.209l-5.418-16.695h5.984l2.269,8.063
			l0.188,0.945h0.127l0.188-0.945l2.269-8.063h5.984l-5.418,16.695l5.922,17.766h-6.174l-2.583-8.694l-0.188-0.944h-0.127
			l-0.188,0.944l-2.583,8.694h-6.174L202.488,719.209z M187.872,720.343c-3.087,1.322-4.409,4.41-4.409,7.686
			c0,0.441,0.062,1.197,0.314,1.891c0.252,0.756,0.693,1.322,1.449,1.322c1.449,0,2.646-0.882,2.646-2.079V720.343z
			 M187.872,710.703c0-0.566,0-1.448-0.188-2.078c-0.252-0.631-0.756-1.071-1.575-1.071c-1.071,0-1.513,0.818-1.701,1.827
			c-0.063,0.504-0.126,1.07-0.126,1.638v1.638h-6.363v-1.449c0-2.52,0.945-4.787,2.457-6.488s3.654-2.709,6.111-2.709
			c2.079,0,3.969,0.818,5.418,2.205c1.449,1.386,2.33,3.339,2.33,5.606v21.168c0,3.087,0.189,4.474,0.441,5.985h-6.236
			c-0.567-0.693-0.567-2.331-0.567-2.772h-0.44c-0.316,0.567-0.883,1.387-1.764,2.079c-0.883,0.693-2.08,1.197-3.34,1.197
			c-0.818,0-2.143-0.315-3.15-1.575c-1.07-1.197-1.953-3.339-1.953-6.93c0-3.843,1.135-6.615,2.646-8.505
			c1.512-1.891,3.402-3.087,4.977-3.906c1.576-0.819,2.771-1.386,3.024-2.079V710.703z M170.611,694.009v8.505h4.348v5.732h-4.348
			v17.137c0,1.07,0,2.457,0.252,3.591s0.756,2.079,1.764,2.079c0.504,0,1.135-0.063,1.574-0.126
			c0.252-0.063,0.505-0.063,0.758-0.126v6.236c-0.316,0.063-0.631,0.189-0.945,0.252c-0.631,0.126-1.449,0.189-2.457,0.189
			c-3.717,0-5.481-1.89-6.363-4.284c-0.883-2.394-0.945-5.292-0.945-7.308v-17.641h-3.213v-5.732h3.213v-8.505H170.611z
			 M143.459,711.334c0-0.819,0-1.827-0.253-2.646c-0.315-0.756-0.819-1.386-1.827-1.386c-0.818,0-1.322,0.63-1.574,1.386
			c-0.315,0.756-0.379,1.827-0.379,2.646c0,1.07,0.567,2.204,1.387,3.213c0.756,1.008,1.764,2.016,2.771,2.961
			c1.323,1.322,2.898,2.835,3.969,4.536c1.072,1.764,1.891,3.717,1.891,5.984c0,2.205-0.504,4.536-1.764,6.3
			c-1.323,1.827-3.34,3.15-6.363,3.15c-3.844,0-6.111-1.764-7.371-3.906c-1.26-2.142-1.512-4.788-1.512-6.615h5.922
			c0,0.945,0.062,2.269,0.504,3.276c0.441,1.071,1.134,1.953,2.457,1.953c1.826,0,2.205-2.142,2.205-4.158
			c0-2.079-2.016-4.158-3.969-6.11c-1.513-1.449-2.961-2.772-4.096-4.474c-1.134-1.701-1.953-3.591-1.953-6.11
			c0-2.017,0.379-4.348,1.575-6.175c1.197-1.764,3.149-3.087,6.175-3.149c3.717-0.063,5.795,1.322,6.865,3.149
			c1.072,1.827,1.262,4.222,1.262,6.175H143.459z M123.361,720.343c-3.087,1.322-4.41,4.41-4.41,7.686
			c0,0.441,0.062,1.197,0.314,1.891c0.252,0.756,0.693,1.322,1.449,1.322c1.449,0,2.646-0.882,2.646-2.079V720.343z
			 M123.361,710.703c0-0.566,0-1.448-0.189-2.078c-0.252-0.631-0.756-1.071-1.574-1.071c-1.071,0-1.512,0.818-1.701,1.827
			c-0.062,0.504-0.127,1.07-0.127,1.638v1.638h-6.362v-1.449c0-2.52,0.944-4.787,2.457-6.488s3.653-2.709,6.11-2.709
			c2.08,0,3.97,0.818,5.418,2.205c1.449,1.386,2.332,3.339,2.332,5.606v21.168c0,3.087,0.188,4.474,0.44,5.985h-6.237
			c-0.566-0.693-0.566-2.331-0.566-2.772h-0.441c-0.314,0.567-0.882,1.387-1.764,2.079c-0.882,0.693-2.079,1.197-3.339,1.197
			c-0.819,0-2.142-0.315-3.149-1.575c-1.072-1.197-1.953-3.339-1.953-6.93c0-3.843,1.133-6.615,2.646-8.505
			c1.512-1.891,3.401-3.087,4.978-3.906c1.574-0.819,2.771-1.386,3.023-2.079V710.703z M102.32,702.514h6.363v34.461h-6.363v-2.898
			c-0.126,0.063-0.378,0.315-0.693,0.63c-0.756,0.757-1.638,1.639-2.771,2.269c-0.567,0.314-1.135,0.504-1.701,0.504
			c-1.701,0-2.898-1.008-3.654-2.331c-0.756-1.26-1.134-2.961-1.134-4.41v-28.224h6.362v27.279c0,1.322,0.757,1.512,1.513,1.512
			c0.692,0,1.071-0.378,1.513-0.819c0.188-0.188,0.377-0.504,0.566-0.819V702.514z M82.727,711.334c0-0.819,0-1.827-0.252-2.646
			c-0.314-0.756-0.818-1.386-1.826-1.386c-0.819,0-1.323,0.63-1.575,1.386c-0.315,0.756-0.378,1.827-0.378,2.646
			c0,1.07,0.566,2.204,1.386,3.213c0.757,1.008,1.765,2.016,2.772,2.961c1.322,1.322,2.898,2.835,3.969,4.536
			c1.07,1.764,1.891,3.717,1.891,5.984c0,2.205-0.504,4.536-1.766,6.3c-1.322,1.827-3.338,3.15-6.361,3.15
			c-3.844,0-6.111-1.764-7.371-3.906c-1.261-2.142-1.514-4.788-1.514-6.615h5.923c0,0.945,0.063,2.269,0.505,3.276
			c0.439,1.071,1.133,1.953,2.457,1.953c1.826,0,2.204-2.142,2.204-4.158c0-2.079-2.016-4.158-3.969-6.11
			c-1.513-1.449-2.961-2.772-4.095-4.474c-1.135-1.701-1.953-3.591-1.953-6.11c0-2.017,0.377-4.348,1.574-6.175
			c1.197-1.764,3.15-3.087,6.174-3.149c3.718-0.063,5.797,1.322,6.867,3.149c1.071,1.827,1.261,4.222,1.261,6.175H82.727z
			 M48.52,715.933h4.599v-4.852c0-1.322-0.252-2.268-0.882-3.023c-0.314-0.315-0.818-0.504-1.387-0.504
			c-1.197,0-1.7,0.818-2.016,1.764c-0.189,0.504-0.252,1.071-0.314,1.764V715.933z M59.04,724.627v3.969
			c-0.188,3.339-1.196,5.67-3.465,7.497c-1.134,0.944-2.709,1.386-4.788,1.386c-4.095,0-6.174-2.268-7.182-4.536
			c-0.567-1.323-0.945-2.835-1.008-4.536v-17.325c0.188-3.339,1.26-5.796,3.527-7.686c1.071-0.945,2.646-1.386,4.725-1.386
			c4.096,0,6.175,2.268,7.182,4.473c0.568,1.323,0.945,2.772,1.009,4.41v10.017H48.52v7.497c0.062,1.323,0.44,2.269,1.008,2.961
			c0.314,0.315,0.756,0.504,1.322,0.504c1.197,0,1.765-0.756,2.017-1.7c0.188-0.505,0.252-1.071,0.252-1.765v-3.779H59.04z"/>
		<path clip-path="url(#SVGID_2_)" fill="#231F20" d="M498.52,648.66c0-0.818,0-1.827-0.251-2.646
			c-0.315-0.757-0.819-1.387-1.827-1.387c-0.819,0-1.323,0.63-1.575,1.387c-0.315,0.756-0.378,1.827-0.378,2.646
			c0,1.071,0.567,2.205,1.387,3.213c0.755,1.008,1.764,2.017,2.771,2.961c1.322,1.323,2.897,2.835,3.969,4.536
			c1.07,1.765,1.89,3.717,1.89,5.985c0,2.205-0.503,4.536-1.764,6.3c-1.323,1.827-3.339,3.15-6.363,3.15
			c-3.843,0-6.11-1.765-7.371-3.906c-1.26-2.143-1.512-4.788-1.512-6.615h5.923c0,0.945,0.062,2.269,0.502,3.276
			c0.442,1.07,1.136,1.953,2.458,1.953c1.827,0,2.206-2.143,2.206-4.158c0-2.079-2.018-4.158-3.97-6.111
			c-1.513-1.449-2.962-2.771-4.095-4.473c-1.135-1.701-1.953-3.591-1.953-6.111c0-2.016,0.378-4.347,1.575-6.174
			c1.196-1.764,3.149-3.087,6.173-3.15c3.717-0.062,5.797,1.323,6.867,3.15s1.261,4.221,1.261,6.174H498.52z M477.793,639.84h6.362
			v34.462h-6.362V639.84z M477.793,627.996h6.362v6.363h-6.362V627.996z M467.27,657.669c-3.085,1.323-4.408,4.41-4.408,7.687
			c0,0.44,0.062,1.197,0.314,1.89c0.252,0.756,0.693,1.323,1.449,1.323c1.449,0,2.645-0.882,2.645-2.079V657.669z M467.27,648.03
			c0-0.567,0-1.449-0.188-2.079c-0.252-0.63-0.757-1.071-1.575-1.071c-1.071,0-1.513,0.819-1.7,1.827
			c-0.063,0.504-0.127,1.071-0.127,1.639v1.638h-6.362v-1.449c0-2.52,0.944-4.788,2.456-6.489c1.512-1.7,3.654-2.709,6.111-2.709
			c2.078,0,3.969,0.819,5.418,2.205c1.449,1.387,2.33,3.339,2.33,5.607v21.168c0,3.087,0.189,4.473,0.442,5.985h-6.237
			c-0.568-0.693-0.568-2.331-0.568-2.772h-0.439c-0.314,0.567-0.883,1.386-1.764,2.079c-0.882,0.693-2.08,1.197-3.34,1.197
			c-0.818,0-2.141-0.315-3.149-1.575c-1.071-1.197-1.952-3.339-1.952-6.93c0-3.844,1.132-6.615,2.645-8.506
			c1.513-1.89,3.4-3.087,4.978-3.905c1.575-0.819,2.772-1.387,3.022-2.079V648.03z M446.229,639.84h6.362v34.462h-6.362v-2.898
			c-0.126,0.063-0.378,0.315-0.694,0.63c-0.755,0.756-1.637,1.638-2.771,2.269c-0.567,0.314-1.135,0.504-1.701,0.504
			c-1.701,0-2.897-1.009-3.654-2.331c-0.757-1.261-1.134-2.961-1.134-4.41V639.84h6.363v27.279c0,1.323,0.756,1.512,1.512,1.512
			c0.692,0,1.07-0.378,1.512-0.818c0.189-0.189,0.378-0.504,0.567-0.819V639.84z M428.652,631.335v8.505H433v5.733h-4.348v17.136
			c0,1.071,0,2.457,0.252,3.592c0.252,1.134,0.756,2.078,1.764,2.078c0.504,0,1.133-0.062,1.575-0.126
			c0.252-0.062,0.504-0.062,0.757-0.126v6.237c-0.315,0.063-0.631,0.189-0.945,0.252c-0.631,0.126-1.449,0.189-2.457,0.189
			c-3.718,0-5.482-1.891-6.363-4.284c-0.883-2.395-0.945-5.292-0.945-7.309v-17.64h-3.213v-5.733h3.213v-8.505H428.652z
			 M418.195,646.393c-0.567-0.189-1.197-0.252-1.764-0.252c-1.009,0-2.205,0.126-3.215,1.07c-1.195,1.009-1.385,2.079-1.385,3.15
			v23.94h-6.363V639.84h6.363v3.844c0.063-0.441,0.504-1.513,1.512-2.521c1.008-0.944,2.521-1.827,4.852-1.827V646.393z
			 M394.066,639.84h6.363v34.462h-6.363V639.84z M394.066,627.996h6.363v6.363h-6.363V627.996z M379.135,674.302l-5.605-34.462
			h6.174l2.079,19.972l0.252,2.205h0.504l0.252-2.205l2.079-19.972h6.174l-5.607,34.462H379.135z M356.078,648.66
			c0-0.818,0-1.827-0.252-2.646c-0.315-0.757-0.819-1.387-1.826-1.387c-0.819,0-1.324,0.63-1.576,1.387
			c-0.314,0.756-0.378,1.827-0.378,2.646c0,1.071,0.567,2.205,1.387,3.213c0.756,1.008,1.764,2.017,2.771,2.961
			c1.324,1.323,2.898,2.835,3.97,4.536c1.071,1.765,1.891,3.717,1.891,5.985c0,2.205-0.504,4.536-1.765,6.3
			c-1.322,1.827-3.339,3.15-6.363,3.15c-3.843,0-6.11-1.765-7.37-3.906c-1.26-2.143-1.513-4.788-1.513-6.615h5.923
			c0,0.945,0.062,2.269,0.504,3.276c0.44,1.07,1.134,1.953,2.456,1.953c1.828,0,2.206-2.143,2.206-4.158
			c0-2.079-2.017-4.158-3.97-6.111c-1.512-1.449-2.961-2.771-4.095-4.473s-1.952-3.591-1.952-6.111c0-2.016,0.377-4.347,1.574-6.174
			c1.197-1.764,3.15-3.087,6.174-3.15c3.717-0.062,5.795,1.323,6.867,3.15c1.071,1.827,1.26,4.221,1.26,6.174H356.078z
			 M331.824,653.26h4.599v-4.852c0-1.323-0.253-2.268-0.882-3.023c-0.314-0.315-0.818-0.505-1.386-0.505
			c-1.196,0-1.702,0.819-2.016,1.765c-0.189,0.504-0.253,1.07-0.315,1.764V653.26z M342.345,661.953v3.969
			c-0.188,3.34-1.196,5.671-3.465,7.497c-1.134,0.945-2.71,1.387-4.788,1.387c-4.095,0-6.174-2.269-7.182-4.536
			c-0.567-1.323-0.945-2.835-1.008-4.536v-17.325c0.188-3.339,1.26-5.796,3.528-7.686c1.071-0.945,2.646-1.387,4.725-1.387
			c4.095,0,6.174,2.269,7.181,4.474c0.568,1.322,0.946,2.771,1.009,4.41v10.017h-10.521v7.497c0.062,1.323,0.441,2.268,1.008,2.961
			c0.315,0.315,0.756,0.504,1.323,0.504c1.196,0,1.763-0.756,2.015-1.701c0.19-0.504,0.253-1.07,0.253-1.764v-3.78H342.345z
			 M315.947,648.408c0.063-1.323-0.188-2.268-0.818-3.023c-0.314-0.315-0.818-0.505-1.386-0.505c-1.197,0-1.7,0.819-1.953,1.765
			c-0.188,0.504-0.252,1.07-0.188,1.764v17.325c-0.063,1.323,0.252,2.268,0.818,2.961c0.314,0.315,0.756,0.504,1.323,0.504
			c1.197,0,1.764-0.756,2.016-1.701c0.188-0.504,0.252-1.07,0.188-1.764V648.408z M321.934,665.922
			c-0.189,3.34-1.197,5.671-3.402,7.497c-1.134,0.945-2.709,1.387-4.788,1.387c-4.095,0-6.111-2.269-7.118-4.536
			c-0.567-1.323-0.945-2.835-1.01-4.536v-17.325c0.19-3.339,1.198-5.796,3.402-7.686c1.071-0.945,2.646-1.387,4.726-1.387
			c4.095,0,6.175,2.269,7.182,4.474c0.567,1.322,0.944,2.771,1.009,4.41V665.922z M307.695,629.508
			c0.566-0.44,1.322-0.756,2.079-1.008c0.378-0.126,0.818-0.188,1.26-0.188c0.945,0,1.89,0.188,2.772,0.504
			c0.882,0.378,1.826,0.63,2.771,0.692c0.945,0,1.638-0.252,2.331-0.504c0.378-0.188,0.692-0.314,1.009-0.504v4.662
			c-0.568,0.504-1.324,0.819-2.08,1.008c-0.378,0.126-0.818,0.189-1.26,0.189c-0.945,0-1.89-0.189-2.709-0.567
			c-0.883-0.378-1.826-0.566-2.835-0.63c-0.945,0-1.638,0.252-2.331,0.504c-0.378,0.189-0.693,0.315-1.008,0.504V629.508z
			 M296.418,682.051l-1.385,4.095h-3.213l1.26-4.095h-1.953v-4.348h5.291V682.051z M292.198,666.363c0,1.26,0.062,2.772,1.764,2.772
			c1.449,0,1.827-0.693,1.827-2.772v-4.788h6.363v3.339c0,3.843-0.693,6.3-2.079,7.812c-1.386,1.512-3.403,2.079-6.111,2.079
			c-2.268,0-4.347-0.63-5.796-2.205s-2.33-4.158-2.33-8.001v-15.058c0-3.843,0.881-6.426,2.33-8.001
			c1.449-1.574,3.528-2.205,5.796-2.205c2.708,0,4.726,0.567,6.111,2.079c1.386,1.513,2.079,3.97,2.079,7.812v2.709h-6.363v-4.158
			c0-2.079-0.378-2.772-1.827-2.772c-1.701,0-1.764,1.513-1.764,2.772V666.363z M275.062,639.84h6.363v34.462h-6.363V639.84z
			 M275.062,627.996h6.363v6.363h-6.363V627.996z M263.659,647.4c0-1.008-0.944-2.079-1.89-2.079s-1.701,0.882-1.701,2.079v19.341
			c0,1.197,0.756,2.079,1.701,2.079s1.89-0.882,1.89-2.079V647.4z M270.021,674.302h-6.362v-2.269
			c-1.071,1.008-2.017,1.764-3.213,2.331c-0.63,0.315-1.261,0.441-1.827,0.441c-1.764,0-2.961-1.009-3.717-2.331
			c-0.818-1.261-1.197-2.961-1.197-4.41v-21.987c0-1.449,0.379-3.149,1.197-4.473c0.756-1.26,1.953-2.269,3.717-2.269
			c1.197,0,2.457,0.693,3.402,1.387c0.566,0.44,1.07,0.882,1.638,1.386v-14.112h6.362V674.302z M239.09,653.26h4.6v-4.852
			c0-1.323-0.252-2.268-0.883-3.023c-0.314-0.315-0.818-0.505-1.385-0.505c-1.197,0-1.701,0.819-2.017,1.765
			c-0.188,0.504-0.253,1.07-0.315,1.764V653.26z M249.611,661.953v3.969c-0.189,3.34-1.197,5.671-3.465,7.497
			c-1.135,0.945-2.709,1.387-4.788,1.387c-4.095,0-6.175-2.269-7.183-4.536c-0.566-1.323-0.945-2.835-1.008-4.536v-17.325
			c0.189-3.339,1.26-5.796,3.528-7.686c1.071-0.945,2.646-1.387,4.726-1.387c4.094,0,6.174,2.269,7.182,4.474
			c0.566,1.322,0.945,2.771,1.008,4.41v10.017H239.09v7.497c0.062,1.323,0.441,2.268,1.008,2.961
			c0.315,0.315,0.756,0.504,1.324,0.504c1.196,0,1.764-0.756,2.016-1.701c0.189-0.504,0.252-1.07,0.252-1.764v-3.78H249.611z
			 M209.104,653.26h4.598v-4.852c0-1.323-0.251-2.268-0.881-3.023c-0.314-0.315-0.818-0.505-1.387-0.505
			c-1.197,0-1.7,0.819-2.016,1.765c-0.189,0.504-0.252,1.07-0.314,1.764V653.26z M219.625,661.953v3.969
			c-0.189,3.34-1.197,5.671-3.466,7.497c-1.134,0.945-2.709,1.387-4.788,1.387c-4.095,0-6.174-2.269-7.182-4.536
			c-0.567-1.323-0.945-2.835-1.008-4.536v-17.325c0.188-3.339,1.26-5.796,3.527-7.686c1.071-0.945,2.646-1.387,4.725-1.387
			c4.096,0,6.175,2.269,7.182,4.474c0.568,1.322,0.945,2.771,1.01,4.41v10.017h-10.521v7.497c0.062,1.323,0.441,2.268,1.008,2.961
			c0.314,0.315,0.756,0.504,1.322,0.504c1.197,0,1.765-0.756,2.017-1.701c0.188-0.504,0.251-1.07,0.251-1.764v-3.78H219.625z
			 M192.282,647.4c0-1.008-0.944-2.079-1.89-2.079s-1.701,0.882-1.701,2.079v19.341c0,1.197,0.756,2.079,1.701,2.079
			s1.89-0.882,1.89-2.079V647.4z M198.645,674.302h-6.362v-2.269c-1.071,1.008-2.017,1.764-3.214,2.331
			c-0.629,0.315-1.26,0.441-1.826,0.441c-1.764,0-2.961-1.009-3.717-2.331c-0.819-1.261-1.197-2.961-1.197-4.41v-21.987
			c0-1.449,0.378-3.149,1.197-4.473c0.756-1.26,1.953-2.269,3.717-2.269c1.197,0,2.457,0.693,3.402,1.387
			c0.566,0.44,1.07,0.882,1.638,1.386v-14.112h6.362V674.302z M162.422,648.408c0.062-1.323-0.189-2.268-0.82-3.023
			c-0.314-0.315-0.818-0.505-1.385-0.505c-1.197,0-1.701,0.819-1.953,1.765c-0.189,0.504-0.252,1.07-0.189,1.764v17.325
			c-0.062,1.323,0.252,2.268,0.818,2.961c0.316,0.315,0.757,0.504,1.324,0.504c1.196,0,1.764-0.756,2.016-1.701
			c0.189-0.504,0.252-1.07,0.189-1.764V648.408z M168.406,665.922c-0.189,3.34-1.197,5.671-3.402,7.497
			c-1.135,0.945-2.709,1.387-4.787,1.387c-4.096,0-6.111-2.269-7.119-4.536c-0.567-1.323-0.945-2.835-1.008-4.536v-17.325
			c0.188-3.339,1.195-5.796,3.401-7.686c1.071-0.945,2.646-1.387,4.726-1.387c4.094,0,6.174,2.269,7.182,4.474
			c0.566,1.322,0.945,2.771,1.008,4.41V665.922z M141.316,657.669c-3.088,1.323-4.41,4.41-4.41,7.687c0,0.44,0.062,1.197,0.314,1.89
			c0.252,0.756,0.693,1.323,1.449,1.323c1.449,0,2.646-0.882,2.646-2.079V657.669z M141.316,648.03c0-0.567,0-1.449-0.189-2.079
			c-0.252-0.63-0.756-1.071-1.574-1.071c-1.071,0-1.513,0.819-1.701,1.827c-0.063,0.504-0.127,1.071-0.127,1.639v1.638h-6.362
			v-1.449c0-2.52,0.944-4.788,2.456-6.489c1.513-1.7,3.654-2.709,6.111-2.709c2.08,0,3.969,0.819,5.418,2.205
			c1.449,1.387,2.332,3.339,2.332,5.607v21.168c0,3.087,0.188,4.473,0.439,5.985h-6.236c-0.566-0.693-0.566-2.331-0.566-2.772
			h-0.441c-0.314,0.567-0.882,1.386-1.764,2.079c-0.883,0.693-2.08,1.197-3.34,1.197c-0.818,0-2.141-0.315-3.149-1.575
			c-1.071-1.197-1.954-3.339-1.954-6.93c0-3.844,1.135-6.615,2.646-8.506c1.513-1.89,3.402-3.087,4.979-3.905
			c1.574-0.819,2.771-1.387,3.023-2.079V648.03z M133.566,629.508c0.568-0.44,1.324-0.756,2.08-1.008
			c0.378-0.126,0.818-0.188,1.26-0.188c0.945,0,1.891,0.188,2.771,0.504c0.883,0.378,1.828,0.63,2.772,0.692
			c0.944,0,1.638-0.252,2.331-0.504c0.378-0.188,0.693-0.314,1.008-0.504v4.662c-0.566,0.504-1.322,0.819-2.079,1.008
			c-0.378,0.126-0.819,0.189-1.26,0.189c-0.944,0-1.89-0.189-2.709-0.567c-0.882-0.378-1.827-0.566-2.835-0.63
			c-0.945,0-1.639,0.252-2.331,0.504c-0.378,0.189-0.692,0.315-1.009,0.504V629.508z M122.229,682.051l-1.387,4.095h-3.213
			l1.26-4.095h-1.953v-4.348h5.293V682.051z M118.008,666.363c0,1.26,0.062,2.772,1.764,2.772c1.449,0,1.826-0.693,1.826-2.772
			v-4.788h6.363v3.339c0,3.843-0.693,6.3-2.078,7.812c-1.387,1.512-3.402,2.079-6.111,2.079c-2.268,0-4.348-0.63-5.797-2.205
			c-1.448-1.575-2.33-4.158-2.33-8.001v-15.058c0-3.843,0.882-6.426,2.33-8.001c1.449-1.574,3.529-2.205,5.797-2.205
			c2.709,0,4.725,0.567,6.111,2.079c1.385,1.513,2.078,3.97,2.078,7.812v2.709h-6.363v-4.158c0-2.079-0.377-2.772-1.826-2.772
			c-1.701,0-1.764,1.513-1.764,2.772V666.363z M101.438,657.669c-3.086,1.323-4.409,4.41-4.409,7.687c0,0.44,0.063,1.197,0.315,1.89
			c0.252,0.756,0.691,1.323,1.449,1.323c1.448,0,2.645-0.882,2.645-2.079V657.669z M101.438,648.03c0-0.567,0-1.449-0.188-2.079
			c-0.252-0.63-0.756-1.071-1.575-1.071c-1.07,0-1.512,0.819-1.701,1.827c-0.062,0.504-0.125,1.071-0.125,1.639v1.638h-6.363v-1.449
			c0-2.52,0.945-4.788,2.457-6.489c1.512-1.7,3.654-2.709,6.111-2.709c2.078,0,3.969,0.819,5.418,2.205
			c1.449,1.387,2.33,3.339,2.33,5.607v21.168c0,3.087,0.189,4.473,0.441,5.985h-6.236c-0.568-0.693-0.568-2.331-0.568-2.772h-0.44
			c-0.315,0.567-0.882,1.386-1.764,2.079s-2.079,1.197-3.339,1.197c-0.819,0-2.143-0.315-3.15-1.575
			c-1.07-1.197-1.953-3.339-1.953-6.93c0-3.844,1.135-6.615,2.646-8.506c1.512-1.89,3.402-3.087,4.977-3.905
			c1.575-0.819,2.771-1.387,3.023-2.079V648.03z M80.396,639.84h6.363v34.462h-6.363V639.84z M80.396,627.996h6.363v6.363h-6.363
			V627.996z M77.625,646.393c-0.566-0.189-1.197-0.252-1.764-0.252c-1.008,0-2.205,0.126-3.213,1.07
			c-1.197,1.009-1.387,2.079-1.387,3.15v23.94h-6.363V639.84h6.363v3.844c0.063-0.441,0.504-1.513,1.513-2.521
			c1.008-0.944,2.521-1.827,4.851-1.827V646.393z M60.805,658.426v6.362c-0.063,1.891-0.441,3.591-1.135,5.04
			c-0.566,1.26-1.449,2.457-2.709,3.402c-1.26,1.008-2.961,1.575-5.229,1.575s-4.033-0.567-5.292-1.575
			c-1.261-0.945-2.079-2.143-2.646-3.402c-0.693-1.449-1.072-3.149-1.135-5.04V637.51c0.062-1.827,0.441-3.528,1.135-4.978
			c0.566-1.26,1.385-2.52,2.646-3.465c1.259-0.945,3.024-1.575,5.292-1.575s3.969,0.63,5.229,1.575s2.143,2.205,2.709,3.465
			c0.693,1.449,1.071,3.15,1.135,4.978v6.362h-6.363v-6.362c0-1.261-0.314-2.143-1.008-2.898c-0.315-0.315-0.883-0.504-1.575-0.504
			c-1.197,0-1.765,0.882-2.079,1.701c-0.189,0.504-0.252,1.07-0.314,1.701v27.278c0.062,1.323,0.44,2.205,1.07,2.898
			c0.314,0.314,0.756,0.504,1.323,0.504c1.448,0,2.016-0.756,2.331-1.701c0.189-0.441,0.252-1.008,0.252-1.701v-6.362H60.805z"/>
		<path clip-path="url(#SVGID_2_)" fill="#231F20" d="M196.484,937.599c1.133,2.546,2.629,4.761,4.482,6.642
			c1.854,1.882,4.068,3.389,6.641,4.523c2.573,1.133,5.326,1.701,8.26,1.701c2.822,0,5.533-0.568,8.135-1.701
			c2.6-1.135,4.842-2.642,6.725-4.523c1.879-1.881,3.389-4.096,4.523-6.642c1.133-2.545,1.701-5.284,1.701-8.218
			c0-2.822-0.568-5.533-1.701-8.134c-1.135-2.602-2.645-4.842-4.523-6.725c-1.883-1.881-4.125-3.389-6.725-4.523
			c-2.602-1.134-5.312-1.702-8.135-1.702c-2.934,0-5.687,0.568-8.26,1.702c-2.572,1.135-4.787,2.643-6.641,4.523
			c-1.854,1.883-3.35,4.123-4.482,6.725c-1.135,2.601-1.701,5.312-1.701,8.134C194.783,932.314,195.35,935.054,196.484,937.599
			 M97.01,925.396c-3.045-0.719-5.922-1.77-8.633-3.153c3.375-0.996,6.309-2.602,8.799-4.815c2.49-2.212,3.735-5.478,3.735-9.795
			c0-4.315-1.577-7.83-4.731-10.542c-3.154-2.71-7.969-4.067-14.443-4.067c-2.602,0-5.203,0.456-7.803,1.37
			c-2.602,0.913-4.926,2.297-6.973,4.15c-2.048,1.854-3.693,4.262-4.939,7.222c-1.244,2.961-1.867,6.406-1.867,10.334
			c0,10.903,4.814,19.328,14.443,25.276s22.993,8.923,40.094,8.923c10.181,0,18.967-1.052,26.354-3.154
			c7.388-2.102,13.487-5.021,18.304-8.757c4.813-3.735,8.383-8.121,10.707-13.157c2.324-5.034,3.486-10.568,3.486-16.602
			c0-5.865-0.913-11.44-2.74-16.726c-1.824-5.284-4.885-9.933-9.171-13.945c-4.29-4.012-10.044-7.18-17.267-9.504
			c-7.221-2.325-16.145-3.487-26.77-3.487c-2.822,0-5.258,0.056-7.305,0.166c-2.049,0.112-3.832,0.278-5.354,0.498
			c-1.522,0.222-2.852,0.444-3.984,0.664c-1.135,0.222-2.229,0.498-3.279,0.831v-11.041c2.047,0.499,4.635,0.886,7.762,1.163
			c3.125,0.277,7.512,0.415,13.156,0.415c9.629,0,17.541-0.83,23.74-2.491c6.197-1.66,11.136-3.928,14.816-6.806
			c3.681-2.877,6.446-6.351,8.301-10.418c1.854-4.067,3.363-8.509,4.525-13.322l-4.068-1.661c-2.656,0.664-5.451,1.233-8.383,1.702
			c-2.935,0.471-6.24,0.817-9.92,1.038c-3.682,0.221-7.9,0.387-12.658,0.498c-4.76,0.11-10.267,0.166-16.52,0.166
			c-5.312,0-9.919-0.028-13.82-0.083c-3.901-0.056-7.554-0.194-10.957-0.415s-6.779-0.567-10.127-1.038
			c-3.35-0.469-7.181-1.092-11.496-1.868h-3.57v66.324h20.752c1.383-0.609,3.486-1.383,6.309-2.325
			c2.822-0.94,6.557-1.411,11.206-1.411c7.028,0,12.603,1.702,16.726,5.105s6.185,8.314,6.185,14.733
			c0,6.144-1.868,11.193-5.603,15.149c-3.735,3.957-9.338,5.935-16.811,5.935C103.456,926.476,100.053,926.117,97.01,925.396"/>
	</g>
	<line fill="none" stroke="#231F20" stroke-width="2" x1="281.832" y1="794" x2="281.832" y2="976"/>
	<g>
		<defs>
			<rect id="SVGID_53_" width="564" height="1002"/>
		</defs>
		<clipPath id="SVGID_4_">
			<use xlink:href="#SVGID_53_"  overflow="visible"/>
		</clipPath>
		<polygon clip-path="url(#SVGID_4_)" fill="none" stroke="#231F20" stroke-width="1.998" points="0.999,3 0.999,999 
			0.999,1001.002 3,1001.002 561,1001.002 563.002,1001.002 563.002,999 563.002,3 563.002,0.998 561,0.998 3,0.998 0.999,0.998 		
			"/>
	</g>
	<rect x="5.002" y="5.002" fill="none" stroke="#231F20" stroke-width="1.998" width="553.996" height="991.996"/>
	<polygon fill="#FF1419" points="335.604,876.762 335.905,894.532 414.818,894.532 414.818,966.819 414.818,967.421 
		505.177,885.497 505.177,885.195 414.818,804.174 414.818,804.476 414.818,876.762 	"/>
	<line fill="none" stroke="#231F20" stroke-width="2" x1="26.081" y1="484.293" x2="537.581" y2="484.293"/>
	<line fill="none" stroke="#231F20" stroke-width="2" x1="26.081" y1="601" x2="537.581" y2="601"/>
	<line fill="none" stroke="#231F20" stroke-width="2" x1="26.081" y1="773" x2="537.581" y2="773"/>
	<g>
		<defs>
			<rect id="SVGID_55_" width="564" height="1002"/>
		</defs>
		<clipPath id="SVGID_6_">
			<use xlink:href="#SVGID_55_"  overflow="visible"/>
		</clipPath>
		<path clip-path="url(#SVGID_6_)" fill="#FF1419" d="M476.641,572h44.766v-8.945h-22.188l0.039-49.102h-22.617V572z
			 M409.717,553.797l7.305-15.938l7.344,15.938H409.717z M391.436,572.039h9.883l4.258-9.297h22.892l4.296,9.297h25.508
			l-28.436-58.086h-23.79l6.718,14.648L391.436,572.039z M321.035,549.617c0,3.594,0.549,6.822,1.642,9.688s2.812,5.307,5.157,7.324
			c2.343,2.018,5.336,3.568,8.983,4.648c3.646,1.08,8.007,1.62,13.085,1.62c3.725,0,7.098-0.546,10.117-1.64
			c3.021-1.094,5.599-2.662,7.735-4.707c2.135-2.044,3.78-4.512,4.94-7.403c1.159-2.89,1.738-6.132,1.738-9.726v-35.469h-8.593
			v36.797c0,2.084-0.261,3.893-0.781,5.43s-1.264,2.812-2.226,3.828c-0.967,1.015-2.131,1.771-3.498,2.265
			c-1.367,0.495-2.909,0.743-4.627,0.743c-1.563,0-3.023-0.248-4.375-0.743c-1.355-0.493-2.534-1.242-3.536-2.245
			c-1.003-1.002-1.784-2.266-2.345-3.789c-0.56-1.523-0.84-3.326-0.84-5.41v-36.875h-22.578V549.617z M263.252,572h22.58v-49.141
			h16.562v-8.945H246.69v8.945h16.562V572z M192.385,543.875l0.039-21.406h1.328c1.849,0,3.502,0.26,4.961,0.781
			c1.457,0.521,2.695,1.257,3.711,2.207c1.015,0.951,1.797,2.084,2.344,3.398c0.546,1.315,0.82,2.754,0.82,4.316
			s-0.274,3.002-0.82,4.316c-0.547,1.315-1.329,2.447-2.344,3.398c-1.016,0.951-2.254,1.687-3.711,2.207
			c-1.459,0.521-3.112,0.781-4.961,0.781H192.385z M169.807,572h22.578v-21.055h4.765l9.22,21.094h25.508l-12.188-24.023
			c3.177-1.562,5.573-3.665,7.188-6.309c1.613-2.644,2.422-5.67,2.422-9.082c0-2.76-0.547-5.286-1.641-7.578
			c-1.095-2.291-2.729-4.258-4.902-5.899c-2.176-1.64-4.883-2.915-8.125-3.827c-3.242-0.911-7.025-1.367-11.348-1.367h-33.477V572z
			 M121.945,572h22.578l0.039-58.047h-22.617V572z M64.865,571.961L83.264,572l20.352-58.086l-10.195,0.039l-12.577,37.305
			l-13.595-37.305H42.521L64.865,571.961z"/>
		<path clip-path="url(#SVGID_6_)" fill="#231F20" d="M232.298,424.285h110.295L464.199,95.972
			c2.226-5.825,6.897-9.938,14.012-12.34c7.111-2.399,18.209-3.6,33.294-3.6V59.979H391.698v20.053
			c6.853,0,13.151,0.217,18.896,0.643c5.741,0.43,10.708,1.117,14.911,2.057c4.197,0.944,7.456,2.145,9.77,3.599
			c2.314,1.458,3.472,3.302,3.472,5.528c0,1.201-0.257,2.571-0.771,4.113l-77.9,208.763L273.176,80.031h45.249V59.979H43.846v20.053
			h37.793L232.298,424.285z"/>
	</g>
</g>
</svg>
