<?xml version="1.0" encoding="utf-8"?>
<!-- Generator: Adobe Illustrator 16.0.0, SVG Export Plug-In . SVG Version: 6.00 Build 0)  -->
<!DOCTYPE svg PUBLIC "-//W3C//DTD SVG 1.1//EN" "http://www.w3.org/Graphics/SVG/1.1/DTD/svg11.dtd">
<svg version="1.1" id="Layer_1" xmlns="http://www.w3.org/2000/svg" xmlns:xlink="http://www.w3.org/1999/xlink" x="0px" y="0px"
	 width="1170.09px" height="505.192px" viewBox="0 0 1170.09 505.192" enable-background="new 0 0 1170.09 505.192"
	 xml:space="preserve">
<g>
	<defs>
		<rect id="SVGID_97_" x="0.002" width="1170.088" height="505.192"/>
	</defs>
	<clipPath id="SVGID_2_">
		<use xlink:href="#SVGID_97_"  overflow="visible"/>
	</clipPath>
	<path clip-path="url(#SVGID_2_)" fill="#0046F9" d="M1046.358,131.242c3.086,1.524,6.172,2.852,9.258,3.985
		c3.086,1.133,6.22,2.07,9.404,2.812c3.184,0.743,6.445,1.298,9.785,1.67c3.34,0.371,6.807,0.558,10.4,0.558
		c7.5,0,14.092-0.733,19.775-2.198c5.684-1.464,10.438-3.516,14.268-6.152c3.828-2.637,6.709-5.771,8.642-9.403
		c1.935-3.634,2.901-7.598,2.901-11.896c0-6.328-2.012-11.719-6.035-16.172s-9.844-7.948-17.461-10.488l-7.03-2.344
		c-2.424-0.82-4.444-1.611-6.065-2.373s-2.93-1.523-3.926-2.285s-1.699-1.543-2.109-2.344s-0.615-1.63-0.615-2.49
		c0-0.977,0.243-1.963,0.732-2.959c0.488-0.996,1.211-1.895,2.168-2.695c0.957-0.8,2.139-1.445,3.545-1.934s3.047-0.732,4.922-0.732
		c1.093,0,2.304,0.099,3.633,0.293c1.327,0.196,2.686,0.489,4.072,0.879c1.386,0.392,2.773,0.879,4.16,1.465
		c1.386,0.586,2.705,1.27,3.955,2.051l6.328-11.426c-1.72-0.78-3.711-1.571-5.977-2.373c-2.266-0.801-4.756-1.514-7.471-2.139
		s-5.616-1.133-8.701-1.523c-3.086-0.391-6.309-0.586-9.668-0.586c-6.797,0-12.725,0.82-17.783,2.461s-9.249,3.838-12.568,6.592
		c-3.32,2.754-5.801,5.938-7.441,9.551c-1.641,3.614-2.461,7.374-2.461,11.279c0,6.057,1.894,11.279,5.684,15.674
		c3.788,4.395,9.434,7.881,16.934,10.459l10.487,3.574c2.031,0.703,3.683,1.417,4.952,2.139c1.27,0.724,2.266,1.446,2.988,2.168
		c0.722,0.724,1.21,1.456,1.465,2.197c0.253,0.743,0.381,1.465,0.381,2.168c0,2.228-1.046,3.985-3.135,5.274
		c-2.09,1.289-5.381,1.933-9.873,1.933c-3.907,0-8.125-0.527-12.656-1.582s-8.867-2.637-13.008-4.746L1046.358,131.242z
		 M949.046,138.918h73.595V125.5h-39.728v-23.32h30.353V88.762h-30.353l0.059-23.496h39.669V51.848h-73.595V138.918z M863.6,126.906
		c-1.817-0.82-3.331-2.421-4.541-4.804c-1.213-2.384-2.131-5.723-2.755-10.021c-0.626-4.297-0.938-9.922-0.938-16.875
		c0-6.875,0.312-12.441,0.938-16.699c0.624-4.257,1.542-7.559,2.755-9.902c1.21-2.344,2.724-3.926,4.541-4.746
		c1.815-0.82,3.896-1.23,6.239-1.23c2.345,0,4.414,0.41,6.211,1.23c1.796,0.82,3.301,2.402,4.512,4.746s2.129,5.646,2.754,9.902
		c0.625,4.258,0.938,9.824,0.938,16.699c0,6.953-0.312,12.578-0.938,16.875c-0.625,4.298-1.543,7.637-2.754,10.021
		c-1.211,2.383-2.716,3.983-4.512,4.804c-1.797,0.821-3.866,1.231-6.211,1.231C867.495,128.138,865.415,127.728,863.6,126.906
		 M822.964,113.547c2.109,5.547,5.253,10.293,9.434,14.238c4.18,3.946,9.395,7.012,15.645,9.199
		c6.249,2.188,13.515,3.282,21.797,3.282c8.281,0,15.546-1.095,21.797-3.282c6.249-2.188,11.465-5.253,15.645-9.199
		c4.18-3.945,7.324-8.691,9.434-14.238c2.109-5.546,3.164-11.66,3.164-18.34c0-6.601-1.055-12.646-3.164-18.135
		c-2.109-5.487-5.254-10.204-9.434-14.15c-4.18-3.945-9.396-7.011-15.645-9.199c-6.251-2.188-13.516-3.281-21.797-3.281
		c-8.282,0-15.548,1.094-21.797,3.281c-6.25,2.188-11.465,5.254-15.645,9.199c-4.181,3.946-7.324,8.663-9.434,14.15
		c-2.109,5.488-3.164,11.534-3.164,18.135C819.8,101.887,820.854,108.001,822.964,113.547 M846.753,43.938
		c1.132-0.78,2.168-1.444,3.105-1.992c0.938-0.546,1.846-0.986,2.725-1.318c0.879-0.33,1.748-0.566,2.607-0.703
		c0.858-0.137,1.758-0.205,2.695-0.205c1.875,0,3.594,0.226,5.156,0.674c1.562,0.449,3.125,0.938,4.688,1.465
		c1.562,0.527,3.213,1.007,4.952,1.436c1.736,0.43,3.72,0.645,5.946,0.645c1.679,0,3.311-0.166,4.893-0.498
		c1.582-0.331,3.144-0.918,4.688-1.758c1.543-0.84,3.076-1.963,4.601-3.369c1.522-1.406,3.046-3.184,4.569-5.332l-4.395-5.625
		c-1.133,0.781-2.168,1.445-3.105,1.992s-1.846,0.987-2.725,1.318c-0.879,0.332-1.748,0.567-2.607,0.703
		c-0.859,0.139-1.758,0.205-2.694,0.205c-1.875,0-3.596-0.214-5.157-0.645c-1.563-0.43-3.125-0.908-4.688-1.436
		s-3.214-1.016-4.95-1.465c-1.739-0.448-3.722-0.674-5.948-0.674c-1.72,0-3.369,0.166-4.951,0.498s-3.135,0.918-4.658,1.758
		c-1.522,0.841-3.047,1.973-4.57,3.398s-3.047,3.213-4.57,5.361L846.753,43.938z M720.817,110.676
		c1.816,4.806,4.424,9.141,7.823,13.009c3.397,3.866,7.548,7.157,12.45,9.873c4.901,2.715,10.459,4.618,16.67,5.713l-3.398,12.832
		h5.977c2.891,0,4.932,0.399,6.123,1.2s1.787,1.825,1.787,3.076c0,1.602-0.87,2.988-2.606,4.16
		c-1.739,1.172-4.366,1.758-7.882,1.758h-1.377c-0.409,0-0.831-0.02-1.26-0.059c-0.43-0.039-0.889-0.088-1.377-0.146
		c-0.489-0.059-1.046-0.127-1.67-0.204l-1.523,6.62c0.624,0.117,1.239,0.205,1.846,0.265c0.605,0.058,1.23,0.106,1.875,0.146
		c0.645,0.038,1.348,0.068,2.109,0.088s1.63,0.029,2.607,0.029c4.453,0,8.359-0.372,11.719-1.113
		c3.359-0.743,6.161-1.738,8.408-2.987c2.246-1.251,3.945-2.696,5.098-4.336c1.151-1.642,1.729-3.36,1.729-5.157
		c0-1.523-0.322-2.871-0.967-4.043c-0.645-1.171-1.69-2.158-3.135-2.959c-1.445-0.802-3.32-1.406-5.625-1.816
		c-2.306-0.41-5.098-0.615-8.379-0.615h-1.348l1.406-5.684c0.352,0.039,0.704,0.059,1.055,0.059h1.113
		c3.437,0,6.719-0.215,9.844-0.645s6.055-1.025,8.789-1.787c2.733-0.762,5.273-1.63,7.617-2.607c2.344-0.976,4.473-2.03,6.387-3.163
		l-5.039-9.845c-2.344,1.133-4.922,2.042-7.734,2.726c-2.812,0.683-5.625,1.024-8.438,1.024c-3.984,0-7.687-0.731-11.104-2.196
		c-3.419-1.466-6.367-3.535-8.848-6.212c-2.48-2.675-4.424-5.897-5.83-9.668c-1.406-3.769-2.108-7.978-2.108-12.627
		c0-4.688,0.712-8.916,2.138-12.686s3.389-6.982,5.889-9.639c2.499-2.655,5.468-4.707,8.906-6.152
		c3.437-1.443,7.168-2.168,11.192-2.168c3.007,0,5.906,0.361,8.7,1.084c2.792,0.725,5.282,1.611,7.471,2.666l5.039-9.844
		c-1.914-1.094-4.054-2.139-6.416-3.135c-2.363-0.996-4.932-1.875-7.705-2.637c-2.774-0.762-5.733-1.357-8.877-1.787
		c-3.145-0.429-6.437-0.645-9.873-0.645c-5.353,0-10.352,0.537-15,1.611c-4.649,1.076-8.897,2.588-12.744,4.541
		c-3.849,1.955-7.275,4.297-10.283,7.031c-3.008,2.735-5.547,5.762-7.617,9.082c-2.07,3.321-3.643,6.905-4.717,10.752
		c-1.075,3.848-1.611,7.842-1.611,11.982C718.093,100.794,719.001,105.871,720.817,110.676 M654.999,138.918h33.867l0.059-87.07
		h-33.926V138.918z M565.128,64.621c3.828,0,7.295,0.557,10.4,1.67c3.106,1.113,5.752,2.891,7.94,5.332
		c2.187,2.442,3.867,5.577,5.039,9.404c1.172,3.829,1.757,8.458,1.757,13.887c0,5.469-0.577,10.166-1.729,14.092
		c-1.153,3.927-2.812,7.158-4.98,9.697c-2.168,2.54-4.815,4.415-7.94,5.625c-3.125,1.211-6.642,1.817-10.547,1.817L565.128,64.621z
		 M531.202,138.918h35.801c10.078,0,18.808-1.133,26.191-3.397c7.383-2.266,13.495-5.381,18.34-9.347
		c4.843-3.964,8.438-8.612,10.781-13.944c2.344-5.332,3.516-11.085,3.516-17.257c0-6.914-1.172-13.047-3.516-18.398
		c-2.343-5.352-5.938-9.863-10.781-13.535c-4.845-3.671-10.957-6.454-18.34-8.35c-7.383-1.895-16.113-2.842-26.191-2.842h-35.801
		V138.918z M428.206,138.918H501.8V125.5h-39.727v-23.32h30.352V88.762h-30.352l0.059-23.496H501.8V51.848h-73.594V138.918z"/>
	<path clip-path="url(#SVGID_2_)" fill="#231F20" d="M1088.062,319.226c1.055,2.369,2.444,4.428,4.17,6.178
		c1.725,1.751,3.784,3.153,6.179,4.209s4.955,1.584,7.685,1.584c2.626,0,5.148-0.528,7.569-1.584
		c2.419-1.056,4.504-2.458,6.255-4.209c1.75-1.75,3.154-3.809,4.21-6.178c1.054-2.368,1.583-4.917,1.583-7.646
		c0-2.626-0.529-5.147-1.583-7.568c-1.056-2.419-2.46-4.505-4.21-6.256c-1.751-1.749-3.836-3.153-6.255-4.209
		c-2.421-1.056-4.943-1.583-7.569-1.583c-2.729,0-5.29,0.527-7.685,1.583s-4.454,2.46-6.179,4.209
		c-1.726,1.751-3.115,3.837-4.17,6.256c-1.057,2.421-1.584,4.942-1.584,7.568C1086.479,314.309,1087.006,316.857,1088.062,319.226
		 M1016.124,235.66c2.213,0.413,4.132,1.146,5.754,2.201c1.622,1.057,2.935,2.485,3.939,4.286c1.004,1.803,1.506,4.018,1.506,6.643
		c0,3.398-1.264,6.359-3.785,8.882c-2.523,2.522-6.333,3.784-11.43,3.784h-5.484v16.76h5.484c2.11,0,4.221,0.258,6.333,0.771
		c2.11,0.516,3.988,1.326,5.638,2.434c1.646,1.107,2.973,2.562,3.977,4.362c1.004,1.804,1.507,3.967,1.507,6.488
		c0,5.097-1.688,9.011-5.059,11.739c-3.373,2.729-8.664,4.093-15.871,4.093c-8.754,0-15.705-1.57-20.853-4.711
		c3.14-0.977,6.011-2.626,8.61-4.943c2.601-2.316,3.901-5.638,3.901-9.962c0-1.596-0.323-3.256-0.966-4.981
		c-0.645-1.725-1.674-3.309-3.089-4.75c-1.417-1.441-3.31-2.626-5.678-3.553s-5.303-1.391-8.804-1.391
		c-2.729,0-5.329,0.464-7.801,1.391c-2.471,0.927-4.633,2.317-6.487,4.171c-1.854,1.854-3.309,4.158-4.364,6.911
		c-1.056,2.756-1.582,5.858-1.582,9.308c0,4.325,0.978,8.599,2.935,12.819c1.956,4.224,5.123,7.994,9.499,11.315
		s10.066,6.037,17.069,8.148c7.001,2.109,15.522,3.166,25.562,3.166c10.555,0,19.463-1.005,26.723-3.013s13.13-4.568,17.608-7.684
		c4.48-3.115,7.697-6.59,9.654-10.427c1.956-3.835,2.935-7.607,2.935-11.314c0-8.65-2.664-15.265-7.993-19.849
		c-5.329-4.582-12.318-7.388-20.969-8.418v-0.851c8.65-1.439,15.111-4.35,19.385-8.727c4.274-4.375,6.411-10.168,6.411-17.377
		c0-5.767-1.533-10.631-4.596-14.598c-3.064-3.964-7.093-7.155-12.086-9.575c-4.995-2.42-10.71-4.133-17.146-5.137
		s-12.975-1.506-19.616-1.506c-8.032,0-15.267,0.76-21.702,2.278c-6.438,1.519-11.92,3.707-16.45,6.564
		c-4.531,2.857-8.007,6.27-10.426,10.233c-2.422,3.965-3.631,8.368-3.631,13.207c0,3.45,0.553,6.448,1.66,8.997
		s2.613,4.686,4.519,6.41c1.903,1.726,4.094,3.012,6.564,3.861c2.472,0.85,5.071,1.274,7.801,1.274
		c5.715,0,10.052-1.235,13.014-3.707c2.96-2.471,4.44-5.766,4.44-9.886c0-2.213-0.373-4.054-1.119-5.522
		c-0.747-1.467-1.675-2.626-2.781-3.475c-1.107-0.851-2.316-1.493-3.629-1.931c-1.313-0.438-2.51-0.707-3.592-0.812
		c1.286-1.029,3.218-2.124,5.793-3.282c2.573-1.158,6.513-1.737,11.815-1.737C1011.593,235.043,1013.91,235.25,1016.124,235.66"/>
	<path clip-path="url(#SVGID_2_)" fill="#231F20" d="M684.155,448.443c-1.371,0.985-2.057,2.362-2.057,4.131
		c0,1.179,0.316,2.125,0.951,2.839c0.636,0.714,1.496,1.355,2.584,1.921c0.432,0.228,1.026,0.477,1.785,0.748
		c0.759,0.272,1.298,0.516,1.615,0.731s0.476,0.516,0.476,0.9c0,0.839-0.623,1.258-1.869,1.258c-0.567,0-1.235-0.187-2.007-0.561
		c-0.771-0.374-1.303-0.668-1.598-0.884c-0.295-0.215-0.533-0.402-0.714-0.562l-2.448,4.114l0.748,0.612
		c0.499,0.386,1.31,0.771,2.431,1.155c1.122,0.386,2.307,0.578,3.554,0.578c5.508,0,8.262-1.982,8.262-5.949
		c0-0.839-0.159-1.587-0.476-2.244c-0.317-0.657-0.766-1.201-1.344-1.633c-0.577-0.43-1.128-0.77-1.648-1.02
		c-0.521-0.249-1.133-0.476-1.836-0.68c-0.113-0.022-0.278-0.068-0.493-0.137c-0.215-0.067-0.368-0.118-0.459-0.152
		s-0.228-0.085-0.408-0.153s-0.312-0.119-0.391-0.153c-0.079-0.033-0.188-0.085-0.323-0.152c-0.136-0.068-0.232-0.13-0.289-0.188
		c-0.057-0.056-0.119-0.124-0.187-0.204c-0.068-0.079-0.113-0.164-0.137-0.255c-0.022-0.09-0.034-0.181-0.034-0.271
		c0-0.408,0.143-0.686,0.426-0.833s0.765-0.222,1.444-0.222c1.225,0,2.517,0.363,3.876,1.089l1.973-3.944l-0.714-0.34
		c-0.477-0.227-1.201-0.453-2.177-0.681c-0.975-0.226-1.961-0.34-2.958-0.34C687.379,446.964,685.526,447.457,684.155,448.443
		 M667.887,451.656c0.589-0.521,1.383-0.782,2.38-0.782c0.906,0,1.648,0.244,2.227,0.731s0.935,1.185,1.071,2.091h-6.63
		C666.979,452.858,667.297,452.178,667.887,451.656 M679.446,456.212c0-2.969-0.867-5.253-2.601-6.851
		c-1.734-1.599-3.984-2.397-6.75-2.397c-2.629,0-4.885,0.907-6.766,2.721s-2.822,3.989-2.822,6.527c0,2.539,0.941,4.709,2.822,6.511
		c1.881,1.803,4.137,2.703,6.766,2.703c4.217,0,7.231-1.518,9.045-4.556l-4.353-2.176c-0.725,0.771-1.371,1.287-1.938,1.547
		c-0.567,0.261-1.337,0.391-2.312,0.391c-0.929,0-1.791-0.294-2.584-0.884c-0.793-0.589-1.189-1.496-1.189-2.72h12.647
		C679.436,456.892,679.446,456.62,679.446,456.212 M648.506,460.292c1.18,0,2.148-0.385,2.907-1.156
		c0.76-0.77,1.139-1.745,1.139-2.924c0-1.201-0.391-2.187-1.173-2.958c-0.781-0.77-1.738-1.156-2.873-1.156
		c-1.155,0-2.125,0.387-2.906,1.156c-0.782,0.771-1.174,1.757-1.174,2.958c0,1.202,0.374,2.183,1.122,2.941
		C646.296,459.913,647.282,460.292,648.506,460.292 M648.54,446.964c2.924,0,5.39,0.873,7.396,2.618
		c2.006,1.746,3.009,3.956,3.009,6.63c0,2.675-0.98,4.879-2.941,6.613c-1.96,1.734-4.447,2.601-7.463,2.601
		c-3.128,0-5.661-0.86-7.599-2.584c-1.938-1.722-2.907-3.932-2.907-6.63c0-2.697,1.009-4.913,3.026-6.646
		C643.078,447.831,645.571,446.964,648.54,446.964 M648.744,443.326c0.408,0.159,0.907,0.312,1.496,0.459
		c0.59,0.147,1.077,0.221,1.462,0.221c0.703,0,1.343-0.209,1.921-0.629c0.578-0.419,1.021-0.889,1.326-1.411
		c0.306-0.521,0.578-1.116,0.816-1.785c0.237-0.668,0.386-1.133,0.441-1.394c0.058-0.26,0.098-0.47,0.119-0.629h-3.434l-0.137,0.374
		c-0.09,0.271-0.266,0.539-0.526,0.799c-0.261,0.261-0.549,0.391-0.867,0.391c-0.816,0-1.677-0.215-2.584-0.646l-0.578-0.238
		c-0.408-0.158-0.906-0.311-1.496-0.459c-0.589-0.146-1.076-0.221-1.462-0.221c-0.702,0-1.343,0.21-1.921,0.629
		c-0.578,0.42-1.021,0.89-1.326,1.411s-0.578,1.117-0.815,1.785c-0.238,0.669-0.386,1.134-0.442,1.394
		c-0.056,0.261-0.096,0.471-0.119,0.629h3.434l0.137-0.374c0.091-0.271,0.267-0.538,0.526-0.799c0.262-0.26,0.551-0.391,0.867-0.391
		c0.816,0,1.678,0.216,2.584,0.646L648.744,443.326z M626.917,469.302l0.17-0.102c0.09-0.046,0.283-0.091,0.578-0.136
		c0.294-0.046,0.623-0.068,0.986-0.068c0.544,0,1.031,0.13,1.462,0.391c0.43,0.261,0.646,0.641,0.646,1.14
		c0,0.361-0.136,0.674-0.408,0.935c-0.272,0.26-0.703,0.392-1.292,0.392c-0.454,0-0.924-0.148-1.411-0.442
		c-0.488-0.295-0.816-0.533-0.986-0.714c-0.17-0.183-0.301-0.329-0.391-0.442l-2.448,1.836l0.612,0.714
		c0.43,0.453,1.082,0.918,1.955,1.395c0.872,0.476,1.762,0.714,2.669,0.714c1.745,0,3.043-0.431,3.893-1.292
		c0.85-0.862,1.275-1.893,1.275-3.094c0-1.088-0.465-1.938-1.394-2.55c-0.93-0.612-1.927-0.919-2.992-0.919l0.544-1.666
		c0.136,0.022,0.339,0.034,0.612,0.034c1.156,0,2.238-0.147,3.247-0.441c1.008-0.294,1.654-0.527,1.938-0.697
		c0.283-0.17,0.504-0.311,0.663-0.425l-2.041-4.183l-0.306,0.204c-0.227,0.137-0.584,0.272-1.071,0.408
		c-0.488,0.136-1.003,0.204-1.547,0.204c-1.134,0-2.108-0.419-2.924-1.258c-0.816-0.838-1.224-1.858-1.224-3.061
		c0-1.178,0.407-2.187,1.224-3.025c0.816-0.838,1.79-1.258,2.924-1.258c1.201,0,2.175,0.271,2.923,0.815l2.041-4.114l-0.579-0.407
		c-0.407-0.272-1.1-0.544-2.073-0.816c-0.975-0.272-2.04-0.408-3.196-0.408c-2.562,0-4.811,0.913-6.749,2.737
		c-1.938,1.825-2.907,4.007-2.907,6.545c0,1.972,0.623,3.752,1.87,5.338c1.246,1.587,2.81,2.698,4.692,3.332l-1.326,4.114
		L626.917,469.302z M618.349,464.916h-6.018v-17.442h6.018V464.916z M611.855,440.266c0,0.976,0.351,1.814,1.054,2.517
		c0.702,0.703,1.541,1.054,2.516,1.054s1.813-0.351,2.517-1.054c0.702-0.702,1.054-1.541,1.054-2.517
		c0-0.974-0.352-1.812-1.054-2.516c-0.703-0.702-1.542-1.054-2.517-1.054s-1.813,0.352-2.516,1.054
		C612.206,438.453,611.855,439.292,611.855,440.266 M601.417,464.916v-9.18c0-0.182,0.046-0.431,0.136-0.748
		c0.091-0.317,0.244-0.702,0.459-1.156c0.216-0.453,0.584-0.838,1.105-1.156c0.521-0.316,1.145-0.476,1.87-0.476
		c1.338,0,2.38,0.318,3.128,0.952l2.516-5.101l-0.476-0.271c-0.294-0.182-0.759-0.362-1.394-0.544
		c-0.634-0.182-1.28-0.272-1.938-0.272c-0.634,0-1.258,0.108-1.87,0.323c-0.612,0.216-1.11,0.459-1.496,0.731
		c-0.385,0.271-0.748,0.577-1.088,0.918c-0.34,0.34-0.561,0.577-0.663,0.714c-0.102,0.136-0.175,0.25-0.221,0.34h-0.068v-2.517
		h-6.018v17.442H601.417z M590.98,452.71l2.04-4.114l-0.578-0.407c-0.408-0.272-1.1-0.544-2.075-0.816
		c-0.974-0.272-2.039-0.408-3.195-0.408c-2.562,0-4.811,0.913-6.749,2.737c-1.938,1.825-2.907,4.007-2.907,6.545
		c0,2.516,0.969,4.675,2.907,6.477c1.938,1.803,4.187,2.703,6.749,2.703c1.156,0,2.238-0.147,3.247-0.441
		c1.008-0.294,1.654-0.527,1.938-0.697c0.283-0.17,0.504-0.311,0.663-0.425l-2.04-4.183l-0.307,0.204
		c-0.227,0.137-0.584,0.272-1.071,0.408c-0.488,0.136-1.003,0.204-1.547,0.204c-1.134,0-2.108-0.419-2.924-1.258
		c-0.816-0.838-1.224-1.858-1.224-3.061c0-1.178,0.407-2.187,1.224-3.025c0.816-0.838,1.79-1.258,2.924-1.258
		C589.257,451.895,590.232,452.166,590.98,452.71 M564.069,448.443c-1.372,0.985-2.057,2.362-2.057,4.131
		c0,1.179,0.317,2.125,0.952,2.839c0.634,0.714,1.496,1.355,2.584,1.921c0.43,0.228,1.025,0.477,1.785,0.748
		c0.759,0.272,1.297,0.516,1.615,0.731c0.316,0.216,0.476,0.516,0.476,0.9c0,0.839-0.624,1.258-1.87,1.258
		c-0.567,0-1.236-0.187-2.006-0.561s-1.304-0.668-1.598-0.884c-0.295-0.215-0.533-0.402-0.714-0.562l-2.448,4.114l0.748,0.612
		c0.498,0.386,1.309,0.771,2.431,1.155c1.122,0.386,2.306,0.578,3.553,0.578c5.508,0,8.262-1.982,8.262-5.949
		c0-0.839-0.159-1.587-0.476-2.244c-0.318-0.657-0.765-1.201-1.343-1.633c-0.578-0.43-1.128-0.77-1.649-1.02
		c-0.522-0.249-1.134-0.476-1.836-0.68c-0.114-0.022-0.278-0.068-0.493-0.137c-0.216-0.067-0.369-0.118-0.459-0.152
		c-0.091-0.034-0.227-0.085-0.408-0.153c-0.182-0.068-0.312-0.119-0.391-0.153c-0.08-0.033-0.187-0.085-0.323-0.152
		c-0.136-0.068-0.233-0.13-0.289-0.188c-0.057-0.056-0.119-0.124-0.187-0.204c-0.068-0.079-0.114-0.164-0.136-0.255
		c-0.023-0.09-0.034-0.181-0.034-0.271c0-0.408,0.142-0.686,0.425-0.833s0.766-0.222,1.446-0.222c1.224,0,2.516,0.363,3.876,1.089
		l1.972-3.944l-0.714-0.34c-0.476-0.227-1.202-0.453-2.176-0.681c-0.975-0.226-1.961-0.34-2.958-0.34
		C567.293,446.964,565.44,447.457,564.069,448.443 M545.76,464.916v-9.86c0-0.86,0.368-1.643,1.105-2.346
		c0.736-0.702,1.558-1.054,2.465-1.054c0.929,0,1.683,0.34,2.261,1.02c0.578,0.681,0.867,1.475,0.867,2.38v9.86h6.018v-11.492
		c0-1.155-0.244-2.17-0.731-3.043c-0.488-0.872-1.122-1.547-1.904-2.022c-0.782-0.477-1.598-0.827-2.448-1.055
		c-0.85-0.226-1.706-0.34-2.567-0.34c-1.768,0-3.434,0.782-4.998,2.347h-0.068v-1.837h-6.018v17.442H545.76z M525.734,452.098
		c1.133,0,2.091,0.387,2.873,1.156c0.781,0.771,1.173,1.757,1.173,2.958c0,1.179-0.38,2.154-1.14,2.924
		c-0.759,0.771-1.729,1.156-2.906,1.156c-1.224,0-2.21-0.379-2.958-1.139c-0.748-0.759-1.122-1.739-1.122-2.941
		c0-1.201,0.391-2.187,1.173-2.958C523.609,452.484,524.578,452.098,525.734,452.098 M523.932,465.426
		c2.312,0,4.216-0.827,5.712-2.481h0.068v1.972h5.95v-17.442h-6.018v1.666c-1.496-1.449-3.4-2.176-5.712-2.176
		c-2.516,0-4.59,0.896-6.222,2.687c-1.632,1.791-2.448,3.978-2.448,6.562s0.816,4.767,2.448,6.545
		C519.342,464.537,521.416,465.426,523.932,465.426 M505.878,464.916v-9.18c0-0.182,0.045-0.431,0.136-0.748
		c0.09-0.317,0.243-0.702,0.458-1.156c0.216-0.453,0.583-0.838,1.105-1.156c0.521-0.316,1.144-0.476,1.87-0.476
		c1.337,0,2.38,0.318,3.128,0.952l2.516-5.101l-0.476-0.271c-0.295-0.182-0.76-0.362-1.394-0.544
		c-0.635-0.182-1.281-0.272-1.938-0.272c-0.635,0-1.258,0.108-1.87,0.323c-0.612,0.216-1.111,0.459-1.496,0.731
		c-0.386,0.271-0.748,0.577-1.088,0.918c-0.34,0.34-0.561,0.577-0.663,0.714c-0.102,0.136-0.176,0.25-0.221,0.34h-0.068v-2.517
		h-6.018v17.442H505.878z M484.934,447.474v4.591h2.516v6.697c0,0.84,0.091,1.627,0.272,2.363c0.182,0.737,0.482,1.44,0.901,2.108
		c0.42,0.669,1.037,1.202,1.853,1.598c0.816,0.396,1.791,0.595,2.924,0.595c1.654,0,3.128-0.362,4.42-1.088l-1.496-4.861
		l-0.204,0.136c-0.136,0.091-0.328,0.182-0.578,0.271c-0.249,0.091-0.487,0.137-0.714,0.137c-0.906,0-1.36-0.805-1.36-2.414v-5.542
		h3.672v-4.591h-3.672v-6.493h-6.018v6.493H484.934z M462.444,448.443c-1.372,0.985-2.057,2.362-2.057,4.131
		c0,1.179,0.317,2.125,0.952,2.839c0.633,0.714,1.496,1.355,2.584,1.921c0.43,0.228,1.025,0.477,1.785,0.748
		c0.759,0.272,1.297,0.516,1.615,0.731c0.317,0.216,0.476,0.516,0.476,0.9c0,0.839-0.624,1.258-1.87,1.258
		c-0.567,0-1.236-0.187-2.006-0.561c-0.771-0.374-1.304-0.668-1.598-0.884c-0.295-0.215-0.533-0.402-0.714-0.562l-2.448,4.114
		l0.748,0.612c0.498,0.386,1.309,0.771,2.431,1.155c1.122,0.386,2.306,0.578,3.553,0.578c5.508,0,8.262-1.982,8.262-5.949
		c0-0.839-0.159-1.587-0.477-2.244s-0.765-1.201-1.343-1.633c-0.578-0.43-1.127-0.77-1.648-1.02
		c-0.522-0.249-1.135-0.476-1.836-0.68c-0.114-0.022-0.278-0.068-0.493-0.137c-0.216-0.067-0.369-0.118-0.459-0.152
		c-0.091-0.034-0.228-0.085-0.408-0.153c-0.182-0.068-0.312-0.119-0.391-0.153c-0.08-0.033-0.187-0.085-0.323-0.152
		c-0.136-0.068-0.233-0.13-0.289-0.188c-0.058-0.056-0.119-0.124-0.187-0.204c-0.068-0.079-0.114-0.164-0.136-0.255
		c-0.023-0.09-0.034-0.181-0.034-0.271c0-0.408,0.141-0.686,0.425-0.833c0.283-0.147,0.765-0.222,1.445-0.222
		c1.224,0,2.516,0.363,3.876,1.089l1.972-3.944l-0.714-0.34c-0.476-0.227-1.202-0.453-2.176-0.681
		c-0.975-0.226-1.961-0.34-2.958-0.34C465.668,446.964,463.815,447.457,462.444,448.443 M446.549,452.098
		c1.133,0,2.091,0.387,2.873,1.156c0.782,0.771,1.173,1.757,1.173,2.958c0,1.179-0.38,2.154-1.139,2.924
		c-0.76,0.771-1.729,1.156-2.907,1.156c-1.224,0-2.21-0.379-2.958-1.139c-0.748-0.759-1.122-1.739-1.122-2.941
		c0-1.201,0.391-2.187,1.173-2.958C444.424,452.484,445.393,452.098,446.549,452.098 M444.747,465.426
		c2.312,0,4.216-0.827,5.712-2.481h0.068v1.972h5.95v-17.442h-6.018v1.666c-1.496-1.449-3.4-2.176-5.712-2.176
		c-2.516,0-4.59,0.896-6.222,2.687c-1.632,1.791-2.448,3.978-2.448,6.562s0.816,4.767,2.448,6.545
		C440.157,464.537,442.231,465.426,444.747,465.426 M423.327,452.098c1.133,0,2.091,0.387,2.873,1.156
		c0.782,0.771,1.173,1.757,1.173,2.958c0,1.179-0.38,2.154-1.139,2.924c-0.76,0.771-1.729,1.156-2.907,1.156
		c-1.224,0-2.21-0.379-2.958-1.139c-0.748-0.759-1.122-1.739-1.122-2.941c0-1.201,0.391-2.187,1.173-2.958
		C421.202,452.484,422.171,452.098,423.327,452.098 M421.525,465.426c2.312,0,4.216-0.827,5.712-2.481h0.067v1.972h5.951v-29.24
		h-6.018v13.464c-1.496-1.449-3.4-2.176-5.712-2.176c-2.516,0-4.59,0.896-6.222,2.687c-1.632,1.791-2.448,3.978-2.448,6.562
		s0.816,4.767,2.448,6.545C416.935,464.537,419.009,465.426,421.525,465.426"/>
	<path clip-path="url(#SVGID_2_)" fill="#231F20" d="M1121.748,403.095c1.133,0,2.091,0.386,2.873,1.156s1.173,1.757,1.173,2.957
		c0,1.18-0.38,2.154-1.139,2.925c-0.76,0.771-1.729,1.155-2.907,1.155c-1.224,0-2.21-0.379-2.958-1.139
		c-0.748-0.759-1.122-1.739-1.122-2.941c0-1.2,0.392-2.187,1.173-2.957C1119.623,403.48,1120.592,403.095,1121.748,403.095
		 M1121.782,416.423c3.014,0,5.502-0.867,7.463-2.602c1.96-1.733,2.941-3.938,2.941-6.613c0-2.674-1.003-4.884-3.009-6.63
		c-2.007-1.745-4.472-2.617-7.396-2.617c-2.97,0-5.463,0.866-7.479,2.601c-2.019,1.734-3.026,3.95-3.026,6.646
		c0,2.698,0.969,4.908,2.907,6.631C1116.121,415.562,1118.654,416.423,1121.782,416.423 M1098.526,411.288
		c1.178,0,2.146-0.385,2.907-1.155c0.759-0.771,1.139-1.745,1.139-2.925c0-1.2-0.391-2.187-1.173-2.957s-1.74-1.156-2.873-1.156
		c-1.156,0-2.125,0.386-2.907,1.156s-1.173,1.757-1.173,2.957c0,1.202,0.374,2.183,1.122,2.941
		C1096.316,410.909,1097.303,411.288,1098.526,411.288 M1096.725,397.961c2.312,0,4.216,0.726,5.712,2.176v-1.666h6.018v17.441
		h-5.95v-1.972h-0.067c-1.496,1.655-3.4,2.482-5.712,2.482c-2.517,0-4.591-0.89-6.223-2.669s-2.447-3.961-2.447-6.546
		c0-2.584,0.815-4.771,2.447-6.562C1092.134,398.856,1094.208,397.961,1096.725,397.961 M1099.172,394.322
		c0.386,0.159,0.872,0.312,1.462,0.459c0.59,0.148,1.076,0.222,1.462,0.222c0.702,0,1.344-0.209,1.922-0.63
		c0.578-0.419,1.02-0.889,1.326-1.41c0.306-0.521,0.577-1.116,0.815-1.785c0.238-0.668,0.385-1.133,0.442-1.395
		c0.056-0.26,0.096-0.47,0.119-0.629h-3.435l-0.136,0.374c-0.091,0.272-0.268,0.539-0.527,0.799
		c-0.261,0.262-0.55,0.392-0.867,0.392c-0.815,0-1.678-0.215-2.584-0.646l-0.611-0.237c-0.387-0.158-0.873-0.312-1.462-0.459
		c-0.591-0.147-1.077-0.222-1.462-0.222c-0.703,0-1.344,0.21-1.922,0.629c-0.578,0.42-1.02,0.891-1.326,1.411
		c-0.306,0.522-0.577,1.117-0.815,1.785c-0.238,0.669-0.386,1.134-0.442,1.394c-0.057,0.262-0.097,0.472-0.119,0.63h3.435
		l0.136-0.374c0.09-0.272,0.267-0.538,0.527-0.8c0.26-0.26,0.549-0.391,0.867-0.391c0.815,0,1.677,0.216,2.584,0.646
		L1099.172,394.322z M1077.106,420.299l0.17-0.103c0.09-0.046,0.283-0.091,0.578-0.136c0.294-0.046,0.623-0.068,0.985-0.068
		c0.544,0,1.031,0.13,1.463,0.392c0.43,0.26,0.646,0.64,0.646,1.139c0,0.362-0.136,0.674-0.408,0.935
		c-0.271,0.261-0.703,0.392-1.292,0.392c-0.454,0-0.924-0.148-1.411-0.442c-0.487-0.295-0.815-0.533-0.985-0.714
		c-0.17-0.182-0.302-0.329-0.392-0.441l-2.448,1.836l0.612,0.714c0.431,0.453,1.082,0.918,1.955,1.394
		c0.872,0.477,1.762,0.714,2.669,0.714c1.745,0,3.043-0.431,3.894-1.292c0.85-0.861,1.274-1.893,1.274-3.094
		c0-1.088-0.465-1.938-1.394-2.55c-0.931-0.612-1.927-0.918-2.992-0.918l0.544-1.666c0.136,0.021,0.34,0.034,0.612,0.034
		c1.155,0,2.237-0.148,3.247-0.442c1.008-0.294,1.653-0.527,1.938-0.697c0.283-0.17,0.504-0.311,0.663-0.425l-2.04-4.182
		l-0.306,0.204c-0.228,0.136-0.584,0.271-1.071,0.407c-0.488,0.137-1.003,0.204-1.547,0.204c-1.134,0-2.108-0.419-2.924-1.258
		c-0.816-0.838-1.225-1.857-1.225-3.06c0-1.179,0.408-2.188,1.225-3.026c0.815-0.838,1.79-1.258,2.924-1.258
		c1.201,0,2.176,0.271,2.924,0.815l2.04-4.113l-0.578-0.408c-0.408-0.272-1.1-0.544-2.074-0.816
		c-0.975-0.271-2.04-0.407-3.195-0.407c-2.562,0-4.812,0.912-6.749,2.736c-1.938,1.825-2.907,4.007-2.907,6.545
		c0,1.973,0.623,3.752,1.87,5.338c1.246,1.588,2.81,2.698,4.691,3.332l-1.325,4.114L1077.106,420.299z M1058.78,403.095
		c1.133,0,2.091,0.386,2.873,1.156s1.173,1.757,1.173,2.957c0,1.18-0.38,2.154-1.139,2.925c-0.76,0.771-1.729,1.155-2.907,1.155
		c-1.224,0-2.21-0.379-2.958-1.139c-0.748-0.759-1.122-1.739-1.122-2.941c0-1.2,0.391-2.187,1.173-2.957
		S1057.624,403.095,1058.78,403.095 M1056.979,416.423c2.312,0,4.216-0.827,5.712-2.482h0.067v1.972h5.95v-17.441h-6.018v1.666
		c-1.496-1.45-3.4-2.176-5.712-2.176c-2.517,0-4.59,0.896-6.223,2.686c-1.632,1.791-2.447,3.978-2.447,6.562
		c0,2.585,0.815,4.767,2.447,6.546C1052.389,415.533,1054.462,416.423,1056.979,416.423 M1038.924,415.912v-9.18
		c0-0.181,0.045-0.43,0.137-0.748c0.09-0.316,0.242-0.702,0.459-1.156c0.215-0.452,0.583-0.838,1.104-1.155s1.146-0.477,1.87-0.477
		c1.337,0,2.38,0.318,3.128,0.952l2.517-5.1l-0.477-0.272c-0.295-0.181-0.76-0.362-1.394-0.544
		c-0.636-0.181-1.281-0.271-1.938-0.271c-0.635,0-1.258,0.107-1.87,0.322c-0.611,0.216-1.11,0.459-1.496,0.731
		c-0.386,0.271-0.748,0.578-1.088,0.918s-0.561,0.578-0.663,0.714c-0.102,0.136-0.176,0.25-0.221,0.34h-0.068v-2.516h-6.018v17.441
		H1038.924z M1018.898,403.095c1.133,0,2.091,0.386,2.873,1.156c0.781,0.771,1.173,1.757,1.173,2.957c0,1.18-0.38,2.154-1.139,2.925
		c-0.761,0.771-1.729,1.155-2.907,1.155c-1.225,0-2.21-0.379-2.958-1.139c-0.748-0.759-1.122-1.739-1.122-2.941
		c0-1.2,0.391-2.187,1.173-2.957S1017.742,403.095,1018.898,403.095 M1017.097,416.423c2.312,0,4.216-0.827,5.712-2.482h0.067v1.972
		h5.95v-17.441h-6.018v1.666c-1.496-1.45-3.4-2.176-5.712-2.176c-2.517,0-4.591,0.896-6.223,2.686
		c-1.632,1.791-2.448,3.978-2.448,6.562c0,2.585,0.816,4.767,2.448,6.546S1014.58,416.423,1017.097,416.423 M996.391,411.288
		c-1.134,0-2.092-0.385-2.873-1.155c-0.782-0.771-1.174-1.756-1.174-2.958c0-1.179,0.381-2.153,1.14-2.924s1.728-1.156,2.907-1.156
		c1.224,0,2.21,0.38,2.958,1.139c0.748,0.76,1.122,1.74,1.122,2.941c0,1.202-0.392,2.188-1.174,2.958
		C998.516,410.903,997.546,411.288,996.391,411.288 M998.192,397.961c-2.312,0-4.216,0.827-5.712,2.481h-0.068v-1.972h-5.95v26.282
		h6.019v-10.507c1.496,1.451,3.399,2.177,5.712,2.177c2.516,0,4.59-0.896,6.222-2.687c1.632-1.79,2.448-3.978,2.448-6.562
		s-0.816-4.766-2.448-6.545S1000.708,397.961,998.192,397.961 M958.991,415.912v-10.199c0-0.793,0.232-1.479,0.697-2.058
		c0.464-0.578,1.161-0.867,2.091-0.867c1.02,0,1.785,0.312,2.295,0.936c0.51,0.624,0.765,1.399,0.765,2.329v9.859h6.019v-10.403
		c0.045-0.748,0.3-1.389,0.765-1.921c0.464-0.532,1.14-0.8,2.023-0.8c1.02,0,1.785,0.312,2.295,0.936
		c0.51,0.624,0.765,1.399,0.765,2.329v9.859h6.019v-11.491c0-2.222-0.669-3.854-2.007-4.896c-1.338-1.042-2.936-1.563-4.794-1.563
		c-2.086,0-4.012,1.065-5.779,3.195c-0.567-1.088-1.406-1.892-2.517-2.414c-1.11-0.521-2.301-0.781-3.569-0.781
		c-1.769,0-3.435,0.781-4.998,2.346h-0.068v-1.836h-6.018v17.441H958.991z M939.781,403.095c1.133,0,2.091,0.386,2.873,1.156
		s1.173,1.757,1.173,2.957c0,1.18-0.38,2.154-1.139,2.925c-0.761,0.771-1.729,1.155-2.907,1.155c-1.224,0-2.21-0.379-2.958-1.139
		c-0.748-0.759-1.122-1.739-1.122-2.941c0-1.2,0.391-2.187,1.173-2.957S938.625,403.095,939.781,403.095 M939.815,416.423
		c3.014,0,5.502-0.867,7.463-2.602c1.96-1.733,2.94-3.938,2.94-6.613c0-2.674-1.003-4.884-3.009-6.63
		c-2.006-1.745-4.471-2.617-7.395-2.617c-2.97,0-5.463,0.866-7.48,2.601s-3.025,3.95-3.025,6.646c0,2.698,0.969,4.908,2.906,6.631
		C934.154,415.562,936.688,416.423,939.815,416.423 M926.079,403.706l2.04-4.113l-0.578-0.408c-0.408-0.272-1.1-0.544-2.074-0.816
		c-0.975-0.271-2.039-0.407-3.195-0.407c-2.562,0-4.812,0.912-6.749,2.736c-1.938,1.825-2.907,4.007-2.907,6.545
		c0,2.517,0.969,4.676,2.907,6.478c1.938,1.802,4.187,2.703,6.749,2.703c1.156,0,2.238-0.148,3.247-0.442
		c1.008-0.294,1.653-0.527,1.938-0.697c0.283-0.17,0.504-0.311,0.663-0.425l-2.04-4.182l-0.306,0.204
		c-0.228,0.136-0.584,0.271-1.071,0.407c-0.488,0.137-1.003,0.204-1.547,0.204c-1.134,0-2.108-0.419-2.924-1.258
		c-0.816-0.838-1.225-1.857-1.225-3.06c0-1.179,0.408-2.188,1.225-3.026c0.815-0.838,1.79-1.258,2.924-1.258
		C924.356,402.891,925.331,403.162,926.079,403.706 M890.209,402.652c0.589-0.521,1.383-0.782,2.38-0.782
		c0.907,0,1.649,0.244,2.228,0.731c0.578,0.488,0.935,1.185,1.071,2.091h-6.631C889.303,403.854,889.62,403.175,890.209,402.652
		 M901.77,407.208c0-2.969-0.867-5.253-2.602-6.851c-1.733-1.598-3.983-2.396-6.749-2.396c-2.629,0-4.885,0.906-6.766,2.72
		s-2.822,3.99-2.822,6.527c0,2.539,0.941,4.71,2.822,6.512s4.137,2.703,6.766,2.703c4.216,0,7.231-1.519,9.044-4.557l-4.352-2.176
		c-0.725,0.771-1.371,1.287-1.938,1.547c-0.566,0.261-1.337,0.392-2.312,0.392c-0.929,0-1.791-0.294-2.584-0.885
		c-0.793-0.589-1.19-1.496-1.19-2.72h12.648C901.758,407.889,901.77,407.616,901.77,407.208 M860.104,399.439
		c-1.372,0.986-2.058,2.363-2.058,4.131c0,1.179,0.317,2.125,0.952,2.839c0.634,0.714,1.496,1.355,2.584,1.921
		c0.431,0.228,1.025,0.477,1.785,0.748c0.759,0.272,1.297,0.517,1.615,0.731c0.316,0.216,0.476,0.516,0.476,0.901
		c0,0.839-0.624,1.258-1.87,1.258c-0.566,0-1.235-0.188-2.006-0.562s-1.304-0.668-1.598-0.884c-0.295-0.215-0.533-0.402-0.714-0.561
		l-2.448,4.113l0.748,0.612c0.498,0.386,1.309,0.771,2.431,1.156s2.307,0.578,3.554,0.578c5.508,0,8.262-1.983,8.262-5.95
		c0-0.838-0.159-1.586-0.477-2.244c-0.317-0.657-0.765-1.201-1.343-1.632s-1.128-0.771-1.648-1.021
		c-0.522-0.249-1.135-0.476-1.836-0.68c-0.114-0.022-0.278-0.068-0.493-0.136c-0.217-0.068-0.369-0.119-0.459-0.153
		c-0.092-0.034-0.228-0.085-0.408-0.153c-0.182-0.067-0.312-0.118-0.391-0.152c-0.08-0.034-0.188-0.085-0.323-0.153
		s-0.233-0.13-0.289-0.187c-0.058-0.057-0.119-0.124-0.188-0.204c-0.067-0.079-0.113-0.164-0.136-0.255
		c-0.023-0.091-0.034-0.182-0.034-0.272c0-0.408,0.142-0.685,0.425-0.833c0.283-0.146,0.766-0.221,1.445-0.221
		c1.225,0,2.516,0.362,3.876,1.088l1.972-3.944l-0.714-0.34c-0.476-0.226-1.202-0.453-2.176-0.68
		c-0.975-0.227-1.961-0.34-2.958-0.34C863.327,397.961,861.475,398.453,860.104,399.439 M853.83,415.912h-6.018v-17.441h6.018
		V415.912z M847.336,391.263c0,0.975,0.352,1.813,1.055,2.516c0.703,0.703,1.541,1.054,2.516,1.054s1.812-0.351,2.516-1.054
		c0.703-0.702,1.055-1.541,1.055-2.516s-0.352-1.813-1.055-2.517c-0.703-0.701-1.541-1.054-2.516-1.054s-1.812,0.353-2.516,1.054
		C847.688,389.449,847.336,390.288,847.336,391.263 M833.805,403.095c1.133,0,2.091,0.386,2.873,1.156
		c0.781,0.771,1.173,1.757,1.173,2.957c0,1.18-0.38,2.154-1.14,2.925c-0.759,0.771-1.728,1.155-2.906,1.155
		c-1.225,0-2.211-0.379-2.958-1.139c-0.748-0.759-1.122-1.739-1.122-2.941c0-1.2,0.391-2.187,1.173-2.957
		S832.648,403.095,833.805,403.095 M832.002,416.423c2.312,0,4.217-0.827,5.712-2.482h0.068v1.972h5.95v-17.441h-6.019v1.666
		c-1.495-1.45-3.399-2.176-5.712-2.176c-2.516,0-4.59,0.896-6.222,2.686c-1.632,1.791-2.448,3.978-2.448,6.562
		c0,2.585,0.816,4.767,2.448,6.546S829.486,416.423,832.002,416.423 M808.135,415.912v-9.859c0-0.861,0.368-1.644,1.104-2.347
		c0.737-0.701,1.559-1.054,2.465-1.054c0.931,0,1.684,0.34,2.261,1.021c0.578,0.68,0.867,1.474,0.867,2.38v9.859h6.019v-11.491
		c0-1.156-0.243-2.17-0.731-3.043c-0.487-0.872-1.122-1.548-1.904-2.023c-0.781-0.476-1.598-0.827-2.447-1.054
		c-0.851-0.227-1.705-0.34-2.567-0.34c-1.768,0-3.434,0.781-4.998,2.346h-0.067v-1.836h-6.019v17.441H808.135z M797.867,415.912
		h-6.018v-17.441h6.018V415.912z M791.373,391.263c0,0.975,0.352,1.813,1.055,2.516c0.701,0.703,1.541,1.054,2.516,1.054
		c0.974,0,1.812-0.351,2.516-1.054c0.702-0.702,1.055-1.541,1.055-2.516s-0.353-1.813-1.055-2.517
		c-0.703-0.701-1.542-1.054-2.516-1.054c-0.975,0-1.814,0.353-2.516,1.054C791.725,389.449,791.373,390.288,791.373,391.263
		 M777.841,403.095c1.134,0,2.092,0.386,2.873,1.156c0.782,0.771,1.174,1.757,1.174,2.957c0,1.18-0.381,2.154-1.14,2.925
		c-0.76,0.771-1.729,1.155-2.907,1.155c-1.224,0-2.21-0.379-2.958-1.139c-0.748-0.759-1.121-1.739-1.121-2.941
		c0-1.2,0.391-2.187,1.173-2.957C775.716,403.48,776.686,403.095,777.841,403.095 M777.501,425.263c3.082,0,5.564-0.771,7.446-2.312
		c1.881-1.542,2.822-3.729,2.822-6.562v-17.918h-6.019v1.563h-0.102c-1.496-1.382-3.366-2.073-5.61-2.073
		c-2.516,0-4.59,0.896-6.222,2.686c-1.632,1.791-2.448,3.978-2.448,6.562c0,2.585,0.816,4.767,2.448,6.546s3.706,2.669,6.222,2.669
		c2.742,0,4.646-0.59,5.712-1.769v1.292c0,1.382-0.448,2.408-1.343,3.077c-0.896,0.668-1.865,1.003-2.907,1.003
		c-2.244,0-3.819-0.748-4.726-2.244l-4.93,2.414C769.295,423.573,772.515,425.263,777.501,425.263 M764.377,415.912h-6.018v-17.441
		h6.018V415.912z M757.883,391.263c0,0.975,0.353,1.813,1.055,2.516c0.703,0.703,1.542,1.054,2.516,1.054
		c0.975,0,1.814-0.351,2.516-1.054c0.703-0.702,1.055-1.541,1.055-2.516s-0.352-1.813-1.055-2.517
		c-0.701-0.701-1.541-1.054-2.516-1.054c-0.974,0-1.812,0.353-2.516,1.054C758.235,389.449,757.883,390.288,757.883,391.263
		 M747.446,415.912v-9.18c0-0.181,0.045-0.43,0.136-0.748c0.09-0.316,0.243-0.702,0.459-1.156c0.215-0.452,0.583-0.838,1.105-1.155
		c0.521-0.317,1.144-0.477,1.87-0.477c1.337,0,2.38,0.318,3.128,0.952l2.516-5.1l-0.476-0.272c-0.295-0.181-0.761-0.362-1.395-0.544
		c-0.635-0.181-1.28-0.271-1.938-0.271c-0.636,0-1.259,0.107-1.87,0.322c-0.612,0.216-1.111,0.459-1.496,0.731
		c-0.386,0.271-0.748,0.578-1.088,0.918s-0.562,0.578-0.663,0.714c-0.103,0.136-0.176,0.25-0.221,0.34h-0.068v-2.516h-6.019v17.441
		H747.446z M728.236,403.095c1.133,0,2.091,0.386,2.873,1.156s1.173,1.757,1.173,2.957c0,1.18-0.38,2.154-1.139,2.925
		c-0.761,0.771-1.729,1.155-2.907,1.155c-1.224,0-2.21-0.379-2.958-1.139c-0.748-0.759-1.122-1.739-1.122-2.941
		c0-1.2,0.391-2.187,1.173-2.957S727.08,403.095,728.236,403.095 M728.271,416.423c3.014,0,5.502-0.867,7.463-2.602
		c1.96-1.733,2.94-3.938,2.94-6.613c0-2.674-1.003-4.884-3.009-6.63c-2.006-1.745-4.471-2.617-7.395-2.617
		c-2.971,0-5.463,0.866-7.48,2.601s-3.025,3.95-3.025,6.646c0,2.698,0.969,4.908,2.906,6.631
		C722.609,415.562,725.143,416.423,728.271,416.423 M695.035,399.439c-1.371,0.986-2.056,2.363-2.056,4.131
		c0,1.179,0.316,2.125,0.951,2.839s1.497,1.355,2.584,1.921c0.431,0.228,1.025,0.477,1.785,0.748
		c0.76,0.272,1.298,0.517,1.614,0.731c0.318,0.216,0.478,0.516,0.478,0.901c0,0.839-0.624,1.258-1.87,1.258
		c-0.567,0-1.236-0.188-2.007-0.562s-1.304-0.668-1.598-0.884c-0.295-0.215-0.532-0.402-0.714-0.561l-2.448,4.113l0.748,0.612
		c0.498,0.386,1.309,0.771,2.432,1.156c1.121,0.385,2.306,0.578,3.553,0.578c5.508,0,8.261-1.983,8.261-5.95
		c0-0.838-0.158-1.586-0.475-2.244c-0.318-0.657-0.766-1.201-1.343-1.632c-0.578-0.431-1.128-0.771-1.649-1.021
		c-0.521-0.249-1.134-0.476-1.836-0.68c-0.114-0.022-0.278-0.068-0.494-0.136c-0.215-0.068-0.368-0.119-0.458-0.153
		c-0.091-0.034-0.227-0.085-0.408-0.153c-0.182-0.067-0.312-0.118-0.391-0.152c-0.08-0.034-0.188-0.085-0.323-0.153
		s-0.232-0.13-0.29-0.187c-0.056-0.057-0.119-0.124-0.187-0.204c-0.068-0.079-0.113-0.164-0.137-0.255
		c-0.021-0.091-0.032-0.182-0.032-0.272c0-0.408,0.141-0.685,0.424-0.833c0.284-0.146,0.765-0.221,1.446-0.221
		c1.224,0,2.516,0.362,3.876,1.088l1.972-3.944l-0.714-0.34c-0.477-0.226-1.202-0.453-2.177-0.68s-1.961-0.34-2.957-0.34
		C698.26,397.961,696.407,398.453,695.035,399.439 M679.89,403.095c1.133,0,2.091,0.386,2.873,1.156
		c0.781,0.771,1.173,1.757,1.173,2.957c0,1.18-0.38,2.154-1.14,2.925s-1.729,1.155-2.906,1.155c-1.225,0-2.21-0.379-2.958-1.139
		c-0.748-0.759-1.122-1.739-1.122-2.941c0-1.2,0.391-2.187,1.173-2.957S678.733,403.095,679.89,403.095 M679.923,416.423
		c3.015,0,5.502-0.867,7.464-2.602c1.96-1.733,2.94-3.938,2.94-6.613c0-2.674-1.003-4.884-3.009-6.63
		c-2.006-1.745-4.471-2.617-7.396-2.617c-2.97,0-5.463,0.866-7.479,2.601c-2.019,1.734-3.026,3.95-3.026,6.646
		c0,2.698,0.97,4.908,2.907,6.631C674.263,415.562,676.795,416.423,679.923,416.423 M656.667,403.095
		c1.133,0,2.091,0.386,2.873,1.156s1.173,1.757,1.173,2.957c0,1.18-0.38,2.154-1.139,2.925c-0.76,0.771-1.729,1.155-2.907,1.155
		c-1.224,0-2.21-0.379-2.958-1.139c-0.748-0.759-1.122-1.739-1.122-2.941c0-1.2,0.392-2.187,1.173-2.957
		C654.542,403.48,655.512,403.095,656.667,403.095 M654.865,416.423c2.312,0,4.216-0.827,5.712-2.482h0.068v1.972h5.95v-29.239
		h-6.019v13.464c-1.496-1.45-3.399-2.176-5.712-2.176c-2.516,0-4.59,0.896-6.222,2.686c-1.632,1.791-2.448,3.978-2.448,6.562
		c0,2.585,0.816,4.767,2.448,6.546S652.35,416.423,654.865,416.423 M624.911,403.095c1.133,0,2.091,0.386,2.873,1.156
		c0.782,0.771,1.173,1.757,1.173,2.957c0,1.18-0.38,2.154-1.139,2.925c-0.76,0.771-1.729,1.155-2.907,1.155
		c-1.224,0-2.21-0.379-2.958-1.139c-0.748-0.759-1.122-1.739-1.122-2.941c0-1.2,0.391-2.187,1.173-2.957
		C622.786,403.48,623.755,403.095,624.911,403.095 M624.945,416.423c3.014,0,5.502-0.867,7.463-2.602
		c1.96-1.733,2.94-3.938,2.94-6.613c0-2.674-1.002-4.884-3.009-6.63c-2.006-1.745-4.471-2.617-7.395-2.617
		c-2.971,0-5.463,0.866-7.48,2.601c-2.018,1.734-3.026,3.95-3.026,6.646c0,2.698,0.969,4.908,2.907,6.631
		S621.817,416.423,624.945,416.423 M601.689,411.288c1.178,0,2.147-0.385,2.907-1.155c0.759-0.771,1.139-1.745,1.139-2.925
		c0-1.2-0.391-2.187-1.173-2.957c-0.782-0.771-1.74-1.156-2.873-1.156c-1.156,0-2.125,0.386-2.907,1.156s-1.173,1.757-1.173,2.957
		c0,1.202,0.374,2.183,1.122,2.941C599.479,410.909,600.465,411.288,601.689,411.288 M599.887,397.961
		c2.312,0,4.216,0.726,5.711,2.176v-1.666h6.019v17.441h-5.95v-1.972h-0.068c-1.495,1.655-3.399,2.482-5.711,2.482
		c-2.516,0-4.59-0.89-6.222-2.669c-1.632-1.779-2.448-3.961-2.448-6.546c0-2.584,0.816-4.771,2.448-6.562
		C595.297,398.856,597.371,397.961,599.887,397.961 M602.335,394.322c0.385,0.159,0.872,0.312,1.462,0.459
		c0.589,0.148,1.076,0.222,1.462,0.222c0.702,0,1.343-0.209,1.921-0.63c0.578-0.419,1.02-0.889,1.326-1.41
		c0.307-0.521,0.578-1.116,0.816-1.785c0.238-0.668,0.385-1.133,0.442-1.395c0.056-0.26,0.096-0.47,0.119-0.629h-3.434l-0.136,0.374
		c-0.091,0.272-0.268,0.539-0.527,0.799c-0.261,0.262-0.55,0.392-0.867,0.392c-0.816,0-1.678-0.215-2.584-0.646l-0.613-0.237
		c-0.385-0.158-0.873-0.312-1.461-0.459c-0.59-0.147-1.077-0.222-1.462-0.222c-0.703,0-1.343,0.21-1.921,0.629
		c-0.579,0.42-1.02,0.891-1.326,1.411c-0.306,0.522-0.578,1.117-0.816,1.785c-0.238,0.669-0.386,1.134-0.442,1.394
		c-0.057,0.262-0.097,0.472-0.12,0.63h3.435l0.136-0.374c0.09-0.272,0.266-0.538,0.527-0.8c0.26-0.26,0.549-0.391,0.866-0.391
		c0.816,0,1.678,0.216,2.584,0.646L602.335,394.322z M580.269,420.299l0.17-0.103c0.09-0.046,0.283-0.091,0.578-0.136
		c0.294-0.046,0.623-0.068,0.986-0.068c0.544,0,1.031,0.13,1.462,0.392c0.43,0.26,0.646,0.64,0.646,1.139
		c0,0.362-0.137,0.674-0.408,0.935c-0.272,0.261-0.703,0.392-1.292,0.392c-0.454,0-0.924-0.148-1.411-0.442
		c-0.488-0.295-0.816-0.533-0.986-0.714c-0.17-0.182-0.301-0.329-0.391-0.441l-2.448,1.836l0.612,0.714
		c0.43,0.453,1.082,0.918,1.955,1.394c0.872,0.477,1.762,0.714,2.669,0.714c1.745,0,3.043-0.431,3.893-1.292
		s1.275-1.893,1.275-3.094c0-1.088-0.465-1.938-1.394-2.55c-0.93-0.612-1.927-0.918-2.992-0.918l0.544-1.666
		c0.136,0.021,0.34,0.034,0.611,0.034c1.157,0,2.239-0.148,3.248-0.442c1.008-0.294,1.654-0.527,1.938-0.697
		c0.283-0.17,0.504-0.311,0.663-0.425l-2.04-4.182l-0.306,0.204c-0.227,0.136-0.584,0.271-1.071,0.407
		c-0.488,0.137-1.003,0.204-1.547,0.204c-1.135,0-2.108-0.419-2.924-1.258c-0.816-0.838-1.224-1.857-1.224-3.06
		c0-1.179,0.408-2.188,1.224-3.026c0.816-0.838,1.79-1.258,2.924-1.258c1.201,0,2.176,0.271,2.924,0.815l2.04-4.113l-0.578-0.408
		c-0.408-0.272-1.1-0.544-2.074-0.816c-0.975-0.271-2.04-0.407-3.197-0.407c-2.562,0-4.811,0.912-6.749,2.736
		c-1.938,1.825-2.907,4.007-2.907,6.545c0,1.973,0.623,3.752,1.87,5.338c1.246,1.588,2.81,2.698,4.692,3.332l-1.326,4.114
		L580.269,420.299z M561.943,403.095c1.133,0,2.091,0.386,2.873,1.156c0.782,0.771,1.173,1.757,1.173,2.957
		c0,1.18-0.38,2.154-1.139,2.925c-0.76,0.771-1.729,1.155-2.907,1.155c-1.224,0-2.21-0.379-2.958-1.139
		c-0.748-0.759-1.122-1.739-1.122-2.941c0-1.2,0.391-2.187,1.173-2.957C559.818,403.48,560.787,403.095,561.943,403.095
		 M560.141,416.423c2.312,0,4.217-0.827,5.713-2.482h0.068v1.972h5.95v-17.441h-6.018v1.666c-1.496-1.45-3.4-2.176-5.713-2.176
		c-2.516,0-4.589,0.896-6.221,2.686c-1.632,1.791-2.449,3.978-2.449,6.562c0,2.585,0.816,4.767,2.449,6.546
		C555.551,415.533,557.625,416.423,560.141,416.423 M533.213,398.471v4.59h7.208l-8.636,12.852h18.054v-4.59h-7.956l8.636-12.852
		H533.213z M529.406,415.912h-6.018v-17.441h6.018V415.912z M522.912,391.263c0,0.975,0.351,1.813,1.054,2.516
		c0.702,0.703,1.542,1.054,2.517,1.054c0.974,0,1.813-0.351,2.516-1.054c0.702-0.702,1.054-1.541,1.054-2.516
		s-0.352-1.813-1.054-2.517c-0.703-0.701-1.542-1.054-2.516-1.054c-0.975,0-1.814,0.353-2.517,1.054
		C523.263,389.449,522.912,390.288,522.912,391.263 M519.308,386.673h-6.018v29.239h6.018V386.673z M499.282,403.095
		c1.133,0,2.091,0.386,2.873,1.156s1.173,1.757,1.173,2.957c0,1.18-0.38,2.154-1.139,2.925c-0.76,0.771-1.729,1.155-2.907,1.155
		c-1.224,0-2.21-0.379-2.958-1.139c-0.748-0.759-1.122-1.739-1.122-2.941c0-1.2,0.391-2.187,1.173-2.957
		C497.157,403.48,498.126,403.095,499.282,403.095 M497.48,416.423c2.312,0,4.216-0.827,5.712-2.482h0.068v1.972h5.95v-17.441
		h-6.018v1.666c-1.496-1.45-3.4-2.176-5.712-2.176c-2.517,0-4.59,0.896-6.223,2.686c-1.631,1.791-2.448,3.978-2.448,6.562
		c0,2.585,0.816,4.767,2.448,6.546C492.89,415.533,494.964,416.423,497.48,416.423 M467.424,398.471v9.758
		c0,2.902,0.753,4.993,2.261,6.273c1.507,1.28,3.904,1.921,7.191,1.921c3.286,0,5.683-0.641,7.191-1.921
		c1.507-1.28,2.261-3.371,2.261-6.273v-9.758h-6.018v8.296c0,1.723-0.261,2.947-0.782,3.672c-0.522,0.726-1.406,1.088-2.652,1.088
		c-1.247,0-2.131-0.362-2.652-1.088c-0.522-0.725-0.782-1.949-0.782-3.672v-8.296H467.424z M453.059,399.439
		c-1.371,0.986-2.057,2.363-2.057,4.131c0,1.179,0.318,2.125,0.952,2.839c0.635,0.714,1.496,1.355,2.584,1.921
		c0.431,0.228,1.026,0.477,1.785,0.748c0.76,0.272,1.298,0.517,1.615,0.731c0.317,0.216,0.476,0.516,0.476,0.901
		c0,0.839-0.623,1.258-1.87,1.258c-0.566,0-1.235-0.188-2.006-0.562c-0.77-0.374-1.303-0.668-1.598-0.884
		c-0.294-0.215-0.532-0.402-0.714-0.561l-2.448,4.113l0.748,0.612c0.499,0.386,1.309,0.771,2.431,1.156
		c1.122,0.385,2.307,0.578,3.553,0.578c5.508,0,8.262-1.983,8.262-5.95c0-0.838-0.158-1.586-0.477-2.244
		c-0.316-0.657-0.765-1.201-1.343-1.632s-1.127-0.771-1.649-1.021c-0.521-0.249-1.133-0.476-1.836-0.68
		c-0.113-0.022-0.277-0.068-0.494-0.136c-0.214-0.068-0.367-0.119-0.458-0.153c-0.09-0.034-0.226-0.085-0.408-0.153
		c-0.181-0.067-0.311-0.118-0.391-0.152c-0.079-0.034-0.187-0.085-0.323-0.153s-0.232-0.13-0.289-0.187
		c-0.056-0.057-0.119-0.124-0.187-0.204c-0.068-0.079-0.114-0.164-0.136-0.255c-0.022-0.091-0.034-0.182-0.034-0.272
		c0-0.408,0.142-0.685,0.425-0.833c0.284-0.146,0.765-0.221,1.445-0.221c1.224,0,2.516,0.362,3.876,1.088l1.972-3.944l-0.713-0.34
		c-0.476-0.226-1.201-0.453-2.176-0.68c-0.974-0.227-1.96-0.34-2.958-0.34C456.284,397.961,454.431,398.453,453.059,399.439
		 M446.787,415.912h-6.018v-17.441h6.018V415.912z M440.293,391.263c0,0.975,0.351,1.813,1.053,2.516
		c0.703,0.703,1.542,1.054,2.517,1.054c0.974,0,1.813-0.351,2.516-1.054c0.702-0.702,1.053-1.541,1.053-2.516
		s-0.352-1.813-1.053-2.517c-0.703-0.701-1.542-1.054-2.516-1.054c-0.975,0-1.814,0.353-2.517,1.054
		C440.644,389.449,440.293,390.288,440.293,391.263 M427.917,415.912l11.763-28.05h-7.208l-7.071,18.428l-7.072-18.428h-7.208
		l11.764,28.05H427.917z"/>
	<polygon clip-path="url(#SVGID_2_)" fill="none" stroke="#0046F9" stroke-width="1.998" points="1.001,3.001 1.001,502.194 
		1.001,504.196 3.002,504.196 1167.089,504.196 1169.09,504.196 1169.09,502.194 1169.09,3.001 1169.09,0.999 1167.089,0.999 
		3.002,0.999 1.001,0.999 	"/>
</g>
<rect x="5.003" y="5.004" fill="none" stroke="#0046F9" stroke-width="1.998" width="1160.085" height="495.188"/>
<line fill="none" stroke="#0046F9" stroke-width="2" x1="403.032" y1="188.169" x2="1144.088" y2="188.169"/>
<line fill="none" stroke="#0046F9" stroke-width="2" x1="403.032" y1="357.413" x2="1144.088" y2="357.413"/>
<line fill="none" stroke="#0046F9" stroke-width="2" x1="382.029" y1="26.156" x2="382.029" y2="480.19"/>
<line fill="none" stroke="#0046F9" stroke-width="2" x1="920.045" y1="209.169" x2="920.045" y2="336.413"/>
<polygon fill="#231F20" points="55.937,467.056 329.758,467.056 329.758,391.062 135.549,391.062 135.549,293.354 315.282,293.354 
	315.282,217.359 135.549,217.359 135.549,120.859 322.52,120.859 322.52,44.864 55.937,44.864 "/>
<g>
	<defs>
		<rect id="SVGID_99_" x="0.002" width="1170.088" height="505.192"/>
	</defs>
	<clipPath id="SVGID_4_">
		<use xlink:href="#SVGID_99_"  overflow="visible"/>
	</clipPath>
	<path clip-path="url(#SVGID_4_)" fill="#0046F9" d="M823.712,323.389c11.916-13.619,22.981-24.115,32.628-31.493
		c11.065-8.512,20.995-14.186,29.507-17.022v-6.526c-11.915-5.106-22.13-11.064-30.357-18.725
		c-16.456-15.037-27.237-25.535-31.777-31.21h-19.577c4.54,9.646,9.363,18.441,14.187,26.386
		c3.972,5.959,8.228,11.633,13.619,17.307H426.229v17.308h405.996c-7.378,9.079-11.634,15.038-13.903,18.726
		c-5.958,9.646-10.781,18.158-13.618,25.251H823.712z"/>
</g>
</svg>
