<?xml version="1.0" encoding="utf-8"?>
<!-- Generator: Adobe Illustrator 16.0.0, SVG Export Plug-In . SVG Version: 6.00 Build 0)  -->
<!DOCTYPE svg PUBLIC "-//W3C//DTD SVG 1.1//EN" "http://www.w3.org/Graphics/SVG/1.1/DTD/svg11.dtd">
<svg version="1.1" id="Layer_1" xmlns="http://www.w3.org/2000/svg" xmlns:xlink="http://www.w3.org/1999/xlink" x="0px" y="0px"
	 width="564px" height="1002px" viewBox="0 0 564 1002" enable-background="new 0 0 564 1002" xml:space="preserve">
<g>
	<defs>
		<rect id="SVGID_5_" width="564" height="1002"/>
	</defs>
	<clipPath id="SVGID_2_">
		<use xlink:href="#SVGID_5_"  overflow="visible"/>
	</clipPath>
	<path clip-path="url(#SVGID_2_)" fill="#FF1419" d="M65.862,853.543v24.654l329.619-5.342c-21.778,27.119-41.5,62.456-41.5,98.204
		l0.409,0.82c34.105-46.841,85.056-85.055,139.704-105.188v-1.233c-55.47-20.134-103.956-57.524-139.704-104.777l-0.409,0.41
		c0.82,33.693,17.257,75.604,41.5,97.793L65.862,853.543z"/>
</g>
<polygon fill="#231F20" points="52.225,38.533 129.032,38.533 129.032,490.132 230.731,490.132 230.731,561.25 52.225,561.25 "/>
<line fill="none" stroke="#231F20" stroke-width="2" x1="303" y1="170.844" x2="539.5" y2="170.844"/>
<line fill="none" stroke="#231F20" stroke-width="2" x1="282" y1="26.25" x2="282" y2="581.25"/>
<g>
	<defs>
		<rect id="SVGID_7_" width="564" height="1002"/>
	</defs>
	<clipPath id="SVGID_4_">
		<use xlink:href="#SVGID_7_"  overflow="visible"/>
	</clipPath>
	<polygon clip-path="url(#SVGID_4_)" fill="none" stroke="#231F20" stroke-width="1.998" points="0.999,3 0.999,999 0.999,1001.002 
		3,1001.002 561,1001.002 563.001,1001.002 563.001,999 563.001,3 563.001,0.998 561,0.998 3,0.998 0.999,0.998 	"/>
</g>
<rect x="5.001" y="5.002" fill="none" stroke="#231F20" stroke-width="1.998" width="553.998" height="991.996"/>
<g>
	<defs>
		<rect id="SVGID_9_" width="564" height="1002"/>
	</defs>
	<clipPath id="SVGID_6_">
		<use xlink:href="#SVGID_9_"  overflow="visible"/>
	</clipPath>
	<path clip-path="url(#SVGID_6_)" fill="#FF1419" d="M522.021,103.999h-4.154l2.01-39.128L522.021,103.999z M515.321,139.375
		l1.474-20.1h6.164l1.474,20.1h10.854l-8.844-98.49h-12.998l-8.979,98.49H515.321z M482.224,55.223c0.67,0,2.145-0.134,3.082,1.34
		c1.072,1.608,1.206,6.03,1.206,13.266c0,7.102-0.134,12.06-1.34,13.802c-0.67,1.072-2.01,1.474-2.948,1.474V55.223z
		 M498.84,139.375l-6.834-47.704c3.484-4.154,5.092-12.998,5.092-22.378c0-18.626-4.288-28.408-14.739-28.408h-11.257v98.49h11.122
		v-42.88l5.763,42.88H498.84z M449.26,40.885v79.596c0,3.216-0.401,5.896-2.01,5.896c-1.742,0-2.144-2.144-2.144-5.896V40.885
		h-11.122v79.596c0,10.05,2.546,19.966,13.266,19.966c10.05,0,13.132-8.844,13.132-19.966V40.885H449.26z M407.855,55.759v83.616
		h11.121V55.759h8.175V40.885h-27.471v14.874H407.855z M382.933,105.607v14.874c0,1.876-0.134,5.896-2.277,5.896
		c-1.608,0-1.876-4.02-1.876-5.896V59.243c0-2.144,0.134-5.36,1.876-5.36c2.144,0,2.277,4.154,2.277,5.896v14.874h10.854V59.779
		c0-6.968-2.546-19.966-13.266-19.966c-10.051,0-13.133,11.256-13.133,19.966v60.702c0,8.71,2.681,19.966,13.133,19.966
		c10.184,0,13.266-9.648,13.266-19.966v-14.874H382.933z M336.838,139.375h22.244v-14.874H347.96V97.433H356V81.621h-8.04V55.759
		h11.122V40.885h-22.244V139.375z M306.422,139.375h22.646v-13.4h-11.524v-85.09h-11.122V139.375z"/>
	<path clip-path="url(#SVGID_6_)" fill="#231F20" d="M440.827,686.32c-1.251,0.9-1.876,2.155-1.876,3.768
		c0,1.075,0.289,1.938,0.868,2.589s1.363,1.235,2.355,1.751c0.394,0.207,0.936,0.434,1.628,0.682s1.184,0.471,1.473,0.666
		c0.289,0.197,0.434,0.472,0.434,0.822c0,0.765-0.568,1.146-1.705,1.146c-0.517,0-1.126-0.171-1.829-0.511
		c-0.703-0.341-1.188-0.609-1.457-0.807c-0.269-0.196-0.485-0.366-0.65-0.511l-2.232,3.751l0.683,0.558
		c0.454,0.352,1.193,0.703,2.217,1.054c1.022,0.352,2.102,0.527,3.238,0.527c5.022,0,7.533-1.808,7.533-5.425
		c0-0.765-0.145-1.446-0.434-2.046s-0.697-1.096-1.225-1.488c-0.526-0.392-1.028-0.702-1.504-0.93
		c-0.475-0.228-1.032-0.435-1.674-0.62c-0.103-0.021-0.253-0.062-0.449-0.124c-0.196-0.062-0.336-0.108-0.419-0.14
		s-0.207-0.077-0.372-0.14c-0.165-0.062-0.283-0.109-0.355-0.139c-0.073-0.031-0.171-0.078-0.295-0.141
		c-0.124-0.062-0.212-0.118-0.264-0.17s-0.108-0.113-0.171-0.186c-0.062-0.073-0.103-0.15-0.124-0.233
		c-0.021-0.082-0.03-0.165-0.03-0.248c0-0.372,0.129-0.625,0.388-0.76c0.258-0.134,0.697-0.201,1.317-0.201
		c1.115,0,2.294,0.331,3.533,0.992l1.799-3.596l-0.651-0.311c-0.434-0.206-1.095-0.413-1.984-0.62
		c-0.889-0.206-1.788-0.31-2.696-0.31C443.766,684.973,442.077,685.423,440.827,686.32 M425.404,689.653
		c1.033,0,1.907,0.353,2.62,1.055s1.068,1.602,1.068,2.696c0,1.075-0.346,1.964-1.038,2.666c-0.692,0.703-1.575,1.055-2.65,1.055
		c-1.116,0-2.016-0.347-2.697-1.039s-1.023-1.585-1.023-2.682c0-1.095,0.357-1.994,1.07-2.696S424.35,689.653,425.404,689.653
		 M423.761,701.806c2.108,0,3.845-0.754,5.208-2.263h0.062v1.798h5.425v-15.903h-5.487v1.52c-1.363-1.322-3.1-1.984-5.208-1.984
		c-2.294,0-4.185,0.817-5.673,2.449c-1.488,1.633-2.231,3.627-2.231,5.982c0,2.356,0.743,4.346,2.231,5.968
		S421.467,701.806,423.761,701.806 M412.199,701.341h-5.487v-15.903h5.487V701.341z M406.278,678.865
		c0,0.89,0.319,1.654,0.961,2.294c0.64,0.642,1.405,0.962,2.294,0.962c0.888,0,1.653-0.32,2.294-0.962
		c0.64-0.64,0.961-1.404,0.961-2.294c0-0.888-0.321-1.652-0.961-2.294c-0.641-0.64-1.406-0.961-2.294-0.961
		c-0.889,0-1.654,0.321-2.294,0.961C406.598,677.213,406.278,677.978,406.278,678.865 M401.752,690.212l1.86-3.751l-0.527-0.372
		c-0.372-0.248-1.003-0.496-1.891-0.744c-0.89-0.248-1.86-0.372-2.914-0.372c-2.336,0-4.388,0.832-6.154,2.496
		c-1.767,1.663-2.649,3.653-2.649,5.967c0,2.294,0.883,4.262,2.649,5.905c1.767,1.643,3.818,2.465,6.154,2.465
		c1.054,0,2.04-0.135,2.96-0.403c0.92-0.268,1.508-0.48,1.767-0.635c0.258-0.156,0.46-0.284,0.605-0.388l-1.86-3.813l-0.279,0.187
		c-0.207,0.124-0.532,0.248-0.977,0.372c-0.445,0.124-0.914,0.186-1.41,0.186c-1.034,0-1.922-0.382-2.666-1.146
		s-1.116-1.694-1.116-2.79c0-1.074,0.372-1.994,1.116-2.76c0.744-0.764,1.632-1.146,2.666-1.146
		C400.181,689.468,401.07,689.716,401.752,690.212 M374.689,701.341v-8.99c0-0.785,0.335-1.498,1.007-2.139s1.421-0.961,2.248-0.961
		c0.847,0,1.534,0.31,2.061,0.93c0.527,0.62,0.791,1.344,0.791,2.17v8.99h5.487v-10.479c0-1.054-0.223-1.979-0.667-2.774
		c-0.444-0.795-1.023-1.41-1.736-1.845c-0.713-0.434-1.457-0.754-2.231-0.961c-0.775-0.206-1.556-0.31-2.341-0.31
		c-1.611,0-3.131,0.713-4.557,2.139h-0.062v-1.674h-5.487v15.903H374.689z M355.221,689.251c0.537-0.476,1.261-0.713,2.17-0.713
		c0.826,0,1.504,0.222,2.03,0.665c0.527,0.445,0.854,1.081,0.978,1.907h-6.045C354.395,690.347,354.683,689.727,355.221,689.251
		 M365.761,693.404c0-2.707-0.791-4.789-2.372-6.246s-3.632-2.186-6.152-2.186c-2.398,0-4.454,0.827-6.169,2.48
		c-1.716,1.653-2.573,3.638-2.573,5.951c0,2.315,0.857,4.293,2.573,5.937c1.715,1.643,3.771,2.465,6.169,2.465
		c3.844,0,6.592-1.384,8.246-4.154l-3.969-1.983c-0.661,0.703-1.251,1.173-1.767,1.41c-0.517,0.237-1.22,0.356-2.108,0.356
		c-0.848,0-1.633-0.268-2.355-0.806c-0.725-0.537-1.085-1.364-1.085-2.48h11.532C365.75,694.024,365.761,693.776,365.761,693.404
		 M328.065,685.438v8.897c0,2.646,0.687,4.552,2.062,5.719c1.374,1.168,3.56,1.752,6.556,1.752s5.183-0.584,6.558-1.752
		c1.374-1.167,2.061-3.073,2.061-5.719v-8.897h-5.486v7.564c0,1.57-0.238,2.687-0.713,3.348c-0.477,0.662-1.282,0.992-2.419,0.992
		s-1.942-0.33-2.418-0.992c-0.476-0.661-0.713-1.777-0.713-3.348v-7.564H328.065z M323.354,690.212l1.859-3.751l-0.526-0.372
		c-0.372-0.248-1.003-0.496-1.892-0.744s-1.859-0.372-2.914-0.372c-2.335,0-4.386,0.832-6.152,2.496
		c-1.768,1.663-2.651,3.653-2.651,5.967c0,2.294,0.884,4.262,2.651,5.905c1.767,1.643,3.817,2.465,6.152,2.465
		c1.055,0,2.041-0.135,2.961-0.403c0.919-0.268,1.508-0.48,1.768-0.635c0.258-0.156,0.459-0.284,0.604-0.388l-1.859-3.813
		l-0.279,0.187c-0.207,0.124-0.532,0.248-0.977,0.372s-0.915,0.186-1.41,0.186c-1.033,0-1.923-0.382-2.666-1.146
		c-0.744-0.765-1.116-1.694-1.116-2.79c0-1.074,0.372-1.994,1.116-2.76c0.743-0.764,1.633-1.146,2.666-1.146
		C321.782,689.468,322.671,689.716,323.354,690.212 M298.181,689.251c0.537-0.476,1.262-0.713,2.171-0.713
		c0.826,0,1.504,0.222,2.03,0.665c0.527,0.445,0.853,1.081,0.977,1.907h-6.045C297.354,690.347,297.645,689.727,298.181,689.251
		 M308.721,693.404c0-2.707-0.79-4.789-2.371-6.246c-1.58-1.457-3.633-2.186-6.153-2.186c-2.397,0-4.454,0.827-6.169,2.48
		s-2.573,3.638-2.573,5.951c0,2.315,0.858,4.293,2.573,5.937c1.715,1.643,3.771,2.465,6.169,2.465c3.844,0,6.593-1.384,8.246-4.154
		l-3.969-1.983c-0.66,0.703-1.25,1.173-1.767,1.41s-1.219,0.356-2.108,0.356c-0.847,0-1.633-0.268-2.355-0.806
		c-0.723-0.537-1.085-1.364-1.085-2.48h11.532C308.711,694.024,308.721,693.776,308.721,693.404 M278.264,686.32
		c-1.25,0.9-1.875,2.155-1.875,3.768c0,1.075,0.289,1.938,0.868,2.589c0.578,0.651,1.364,1.235,2.356,1.751
		c0.392,0.207,0.935,0.434,1.627,0.682c0.692,0.248,1.183,0.471,1.473,0.666c0.289,0.197,0.435,0.472,0.435,0.822
		c0,0.765-0.569,1.146-1.706,1.146c-0.517,0-1.127-0.171-1.829-0.511c-0.703-0.341-1.189-0.609-1.457-0.807
		c-0.269-0.196-0.486-0.366-0.651-0.511l-2.232,3.751l0.682,0.558c0.454,0.352,1.193,0.703,2.216,1.054
		c1.023,0.352,2.103,0.527,3.24,0.527c5.021,0,7.533-1.808,7.533-5.425c0-0.765-0.146-1.446-0.435-2.046
		c-0.29-0.6-0.697-1.096-1.225-1.488c-0.527-0.392-1.028-0.702-1.503-0.93c-0.477-0.228-1.034-0.435-1.674-0.62
		c-0.104-0.021-0.254-0.062-0.45-0.124c-0.196-0.062-0.336-0.108-0.418-0.14c-0.083-0.031-0.207-0.077-0.372-0.14
		c-0.166-0.062-0.285-0.109-0.357-0.139c-0.071-0.031-0.17-0.078-0.294-0.141c-0.124-0.062-0.212-0.118-0.264-0.17
		c-0.052-0.052-0.108-0.113-0.17-0.186c-0.062-0.073-0.104-0.15-0.124-0.233c-0.021-0.082-0.031-0.165-0.031-0.248
		c0-0.372,0.129-0.625,0.387-0.76c0.259-0.134,0.698-0.201,1.318-0.201c1.116,0,2.294,0.331,3.534,0.992l1.798-3.596l-0.651-0.311
		c-0.434-0.206-1.096-0.413-1.983-0.62c-0.89-0.206-1.788-0.31-2.697-0.31C281.204,684.973,279.514,685.423,278.264,686.32
		 M252.69,686.32c-1.251,0.9-1.876,2.155-1.876,3.768c0,1.075,0.289,1.938,0.868,2.589s1.364,1.235,2.356,1.751
		c0.393,0.207,0.935,0.434,1.628,0.682c0.692,0.248,1.183,0.471,1.472,0.666c0.289,0.197,0.434,0.472,0.434,0.822
		c0,0.765-0.568,1.146-1.705,1.146c-0.517,0-1.126-0.171-1.829-0.511c-0.703-0.341-1.188-0.609-1.457-0.807
		c-0.269-0.196-0.486-0.366-0.651-0.511l-2.232,3.751l0.682,0.558c0.455,0.352,1.194,0.703,2.217,1.054
		c1.023,0.352,2.102,0.527,3.239,0.527c5.022,0,7.533-1.808,7.533-5.425c0-0.765-0.145-1.446-0.434-2.046s-0.697-1.096-1.224-1.488
		c-0.527-0.392-1.029-0.702-1.504-0.93s-1.033-0.435-1.674-0.62c-0.103-0.021-0.253-0.062-0.449-0.124
		c-0.197-0.062-0.336-0.108-0.419-0.14s-0.207-0.077-0.372-0.14c-0.165-0.062-0.284-0.109-0.356-0.139
		c-0.073-0.031-0.171-0.078-0.295-0.141c-0.124-0.062-0.212-0.118-0.263-0.17c-0.052-0.052-0.109-0.113-0.171-0.186
		c-0.062-0.073-0.103-0.15-0.124-0.233c-0.021-0.082-0.031-0.165-0.031-0.248c0-0.372,0.129-0.625,0.388-0.76
		c0.258-0.134,0.697-0.201,1.317-0.201c1.116,0,2.294,0.331,3.534,0.992l1.798-3.596l-0.651-0.311
		c-0.434-0.206-1.095-0.413-1.984-0.62c-0.889-0.206-1.788-0.31-2.697-0.31C255.629,684.973,253.94,685.423,252.69,686.32
		 M236.926,689.251c0.537-0.476,1.261-0.713,2.17-0.713c0.827,0,1.504,0.222,2.031,0.665c0.527,0.445,0.852,1.081,0.976,1.907
		h-6.045C236.099,690.347,236.389,689.727,236.926,689.251 M247.466,693.404c0-2.707-0.79-4.789-2.371-6.246
		s-3.633-2.186-6.154-2.186c-2.397,0-4.454,0.827-6.169,2.48c-1.715,1.653-2.573,3.638-2.573,5.951c0,2.315,0.858,4.293,2.573,5.937
		c1.715,1.643,3.772,2.465,6.169,2.465c3.844,0,6.593-1.384,8.246-4.154l-3.968-1.983c-0.661,0.703-1.25,1.173-1.767,1.41
		s-1.219,0.356-2.108,0.356c-0.847,0-1.633-0.268-2.356-0.806c-0.723-0.537-1.085-1.364-1.085-2.48h11.532
		C247.456,694.024,247.466,693.776,247.466,693.404 M216.808,685.438v4.186h2.294v6.106c0,0.765,0.082,1.483,0.248,2.155
		c0.165,0.671,0.438,1.312,0.821,1.922c0.382,0.609,0.946,1.095,1.69,1.456c0.744,0.362,1.632,0.543,2.666,0.543
		c1.508,0,2.852-0.331,4.03-0.992l-1.364-4.433l-0.186,0.124c-0.124,0.083-0.3,0.166-0.527,0.248
		c-0.228,0.083-0.445,0.124-0.651,0.124c-0.827,0-1.24-0.733-1.24-2.201v-5.053h3.348v-4.186h-3.348v-5.921h-5.487v5.921H216.808z
		 M202.424,701.341v-8.99c0-0.785,0.335-1.498,1.007-2.139c0.671-0.641,1.421-0.961,2.248-0.961c0.847,0,1.534,0.31,2.061,0.93
		c0.527,0.62,0.791,1.344,0.791,2.17v8.99h5.487v-10.479c0-1.054-0.223-1.979-0.667-2.774c-0.445-0.795-1.023-1.41-1.736-1.845
		c-0.713-0.434-1.457-0.754-2.232-0.961c-0.775-0.206-1.555-0.31-2.34-0.31c-1.612,0-3.131,0.713-4.557,2.139h-0.062v-1.674h-5.487
		v15.903H202.424z M182.956,689.251c0.537-0.476,1.26-0.713,2.17-0.713c0.826,0,1.503,0.222,2.03,0.665
		c0.527,0.445,0.853,1.081,0.977,1.907h-6.045C182.129,690.347,182.418,689.727,182.956,689.251 M193.496,693.404
		c0-2.707-0.791-4.789-2.372-6.246s-3.632-2.186-6.153-2.186c-2.398,0-4.454,0.827-6.169,2.48c-1.716,1.653-2.573,3.638-2.573,5.951
		c0,2.315,0.857,4.293,2.573,5.937c1.715,1.643,3.771,2.465,6.169,2.465c3.844,0,6.592-1.384,8.246-4.154l-3.968-1.983
		c-0.662,0.703-1.251,1.173-1.767,1.41c-0.517,0.237-1.22,0.356-2.108,0.356c-0.848,0-1.633-0.268-2.356-0.806
		c-0.724-0.537-1.085-1.364-1.085-2.48h11.532C193.485,694.024,193.496,693.776,193.496,693.404 M166.681,701.341v-8.37
		c0-0.165,0.041-0.393,0.124-0.682c0.082-0.289,0.222-0.641,0.418-1.055c0.197-0.413,0.532-0.764,1.008-1.054
		c0.475-0.289,1.043-0.434,1.705-0.434c1.219,0,2.17,0.29,2.852,0.867l2.294-4.649l-0.434-0.248
		c-0.269-0.165-0.693-0.33-1.271-0.496c-0.579-0.165-1.168-0.248-1.767-0.248c-0.579,0-1.147,0.098-1.705,0.295
		c-0.558,0.196-1.013,0.418-1.364,0.666c-0.352,0.248-0.682,0.527-0.992,0.837c-0.31,0.311-0.512,0.527-0.604,0.651
		c-0.094,0.124-0.161,0.228-0.202,0.31h-0.062v-2.294h-5.487v15.903H166.681z M147.213,689.251c0.537-0.476,1.26-0.713,2.17-0.713
		c0.826,0,1.504,0.222,2.031,0.665c0.527,0.445,0.852,1.081,0.976,1.907h-6.045C146.386,690.347,146.675,689.727,147.213,689.251
		 M157.753,693.404c0-2.707-0.79-4.789-2.371-6.246c-1.581-1.457-3.633-2.186-6.154-2.186c-2.398,0-4.454,0.827-6.169,2.48
		c-1.716,1.653-2.573,3.638-2.573,5.951c0,2.315,0.857,4.293,2.573,5.937c1.715,1.643,3.771,2.465,6.169,2.465
		c3.844,0,6.592-1.384,8.246-4.154l-3.968-1.983c-0.662,0.703-1.251,1.173-1.767,1.41c-0.517,0.237-1.22,0.356-2.108,0.356
		c-0.848,0-1.633-0.268-2.356-0.806c-0.724-0.537-1.085-1.364-1.085-2.48h11.532C157.742,694.024,157.753,693.776,157.753,693.404
		 M127.714,685.438v4.186h2.294v11.718h5.487v-11.718h3.658v-4.186h-3.658v-3.224c0-1.157,0.113-1.968,0.341-2.434
		c0.227-0.466,0.682-0.697,1.364-0.697c0.599,0,1.147,0.145,1.643,0.434l1.922-3.875l-0.527-0.341
		c-0.331-0.248-0.873-0.491-1.627-0.729c-0.755-0.237-1.546-0.356-2.372-0.356c-1.943,0-3.462,0.713-4.557,2.139
		c-1.096,1.426-1.654,3.328-1.674,5.704v3.379H127.714z M124.273,701.341h-5.487v-15.903h5.487V701.341z M118.352,678.865
		c0,0.89,0.321,1.654,0.961,2.294c0.641,0.642,1.406,0.962,2.294,0.962c0.889,0,1.654-0.32,2.294-0.962
		c0.641-0.64,0.961-1.404,0.961-2.294c0-0.888-0.32-1.652-0.961-2.294c-0.64-0.64-1.405-0.961-2.294-0.961
		c-0.888,0-1.653,0.321-2.294,0.961C118.673,677.213,118.352,677.978,118.352,678.865 M105.085,689.653
		c1.033,0,1.906,0.353,2.619,1.055s1.07,1.602,1.07,2.696c0,1.075-0.347,1.964-1.039,2.666c-0.693,0.703-1.576,1.055-2.65,1.055
		c-1.116,0-2.015-0.347-2.697-1.039s-1.023-1.585-1.023-2.682c0-1.095,0.356-1.994,1.069-2.696S104.031,689.653,105.085,689.653
		 M103.442,701.806c2.108,0,3.844-0.754,5.208-2.263h0.062v1.798h5.425v-26.66h-5.487v12.276c-1.364-1.322-3.1-1.984-5.208-1.984
		c-2.294,0-4.185,0.817-5.673,2.449c-1.488,1.633-2.232,3.627-2.232,5.982c0,2.356,0.744,4.346,2.232,5.968
		C99.257,700.994,101.148,701.806,103.442,701.806 M71.357,701.341v-8.99c0-0.785,0.335-1.498,1.007-2.139
		c0.672-0.641,1.421-0.961,2.248-0.961c0.847,0,1.534,0.31,2.061,0.93c0.527,0.62,0.791,1.344,0.791,2.17v8.99h5.487v-10.479
		c0-1.054-0.223-1.979-0.667-2.774c-0.444-0.795-1.023-1.41-1.736-1.845c-0.713-0.434-1.457-0.754-2.232-0.961
		c-0.775-0.206-1.555-0.31-2.34-0.31c-1.612,0-3.131,0.713-4.557,2.139h-0.062v-1.674H65.87v15.903H71.357z M52.912,689.653
		c1.033,0,1.906,0.353,2.619,1.055c0.713,0.702,1.07,1.602,1.07,2.696c0,1.075-0.346,1.964-1.039,2.666
		c-0.692,0.703-1.576,1.055-2.65,1.055c-1.116,0-2.015-0.347-2.697-1.039c-0.682-0.692-1.023-1.585-1.023-2.682
		c0-1.095,0.356-1.994,1.069-2.696S51.858,689.653,52.912,689.653 M52.943,701.806c2.748,0,5.017-0.791,6.804-2.371
		c1.788-1.581,2.682-3.591,2.682-6.03c0-2.438-0.915-4.453-2.744-6.045c-1.829-1.591-4.076-2.387-6.742-2.387
		c-2.708,0-4.981,0.79-6.82,2.372c-1.84,1.581-2.759,3.601-2.759,6.06c0,2.46,0.883,4.476,2.65,6.045
		C47.781,701.021,50.091,701.806,52.943,701.806 M39.489,690.212l1.86-3.751l-0.527-0.372c-0.372-0.248-1.003-0.496-1.891-0.744
		c-0.889-0.248-1.86-0.372-2.914-0.372c-2.336,0-4.387,0.832-6.154,2.496c-1.767,1.663-2.65,3.653-2.65,5.967
		c0,2.294,0.883,4.262,2.65,5.905c1.767,1.643,3.818,2.465,6.154,2.465c1.054,0,2.041-0.135,2.96-0.403
		c0.92-0.268,1.509-0.48,1.767-0.635c0.259-0.156,0.46-0.284,0.605-0.388l-1.86-3.813l-0.279,0.187
		c-0.207,0.124-0.532,0.248-0.977,0.372c-0.444,0.124-0.914,0.186-1.41,0.186c-1.034,0-1.922-0.382-2.666-1.146
		c-0.744-0.765-1.116-1.694-1.116-2.79c0-1.074,0.372-1.994,1.116-2.76c0.744-0.764,1.632-1.146,2.666-1.146
		C37.918,689.468,38.807,689.716,39.489,690.212"/>
	<path clip-path="url(#SVGID_6_)" fill="#231F20" d="M525.441,641.653c1.032,0,1.906,0.353,2.619,1.055
		c0.714,0.702,1.069,1.602,1.069,2.696c0,1.075-0.346,1.964-1.038,2.666c-0.692,0.703-1.577,1.055-2.65,1.055
		c-1.116,0-2.016-0.347-2.697-1.038c-0.682-0.693-1.023-1.586-1.023-2.683c0-1.095,0.357-1.994,1.07-2.696
		S524.387,641.653,525.441,641.653 M525.472,653.806c2.748,0,5.018-0.79,6.806-2.371c1.787-1.581,2.681-3.591,2.681-6.03
		c0-2.438-0.914-4.453-2.743-6.045c-1.829-1.591-4.077-2.387-6.743-2.387c-2.708,0-4.98,0.79-6.819,2.372
		c-1.84,1.581-2.76,3.601-2.76,6.06c0,2.46,0.885,4.476,2.651,6.045C520.311,653.021,522.62,653.806,525.472,653.806
		 M503.338,641.653c1.033,0,1.907,0.353,2.62,1.055s1.069,1.602,1.069,2.696c0,1.075-0.347,1.964-1.038,2.666
		c-0.693,0.703-1.577,1.055-2.651,1.055c-1.116,0-2.015-0.347-2.697-1.038c-0.682-0.693-1.022-1.586-1.022-2.683
		c0-1.095,0.356-1.994,1.07-2.696C501.401,642.006,502.284,641.653,503.338,641.653 M501.695,653.806
		c2.107,0,3.844-0.754,5.208-2.263h0.062v1.798h5.425v-26.66h-5.486v12.276c-1.364-1.322-3.101-1.984-5.208-1.984
		c-2.294,0-4.186,0.817-5.673,2.449c-1.488,1.633-2.232,3.627-2.232,5.982c0,2.356,0.744,4.346,2.232,5.969
		C497.51,652.994,499.401,653.806,501.695,653.806 M484.057,653.341v-8.37c0-0.165,0.041-0.393,0.124-0.682
		c0.082-0.289,0.222-0.641,0.418-1.055c0.196-0.413,0.532-0.764,1.009-1.054c0.475-0.289,1.043-0.434,1.705-0.434
		c1.219,0,2.17,0.29,2.852,0.867l2.294-4.649l-0.434-0.248c-0.27-0.165-0.693-0.33-1.271-0.496
		c-0.579-0.165-1.168-0.248-1.767-0.248c-0.579,0-1.147,0.098-1.705,0.295c-0.559,0.196-1.014,0.418-1.364,0.666
		c-0.352,0.248-0.682,0.527-0.992,0.837c-0.31,0.311-0.512,0.527-0.604,0.651s-0.16,0.228-0.201,0.31h-0.062v-2.294h-5.486v15.903
		H484.057z M464.589,641.251c0.537-0.476,1.26-0.714,2.17-0.714c0.826,0,1.503,0.223,2.03,0.668
		c0.527,0.443,0.854,1.079,0.977,1.905h-6.045C463.762,642.347,464.051,641.727,464.589,641.251 M475.129,645.404
		c0-2.707-0.791-4.789-2.372-6.246s-3.632-2.186-6.152-2.186c-2.398,0-4.454,0.827-6.169,2.479
		c-1.717,1.654-2.573,3.639-2.573,5.952c0,2.315,0.856,4.294,2.573,5.938c1.715,1.643,3.771,2.464,6.169,2.464
		c3.844,0,6.592-1.384,8.245-4.154l-3.968-1.983c-0.662,0.703-1.251,1.173-1.767,1.409c-0.518,0.238-1.22,0.357-2.108,0.357
		c-0.848,0-1.633-0.268-2.355-0.806c-0.725-0.537-1.085-1.364-1.085-2.48h11.531C475.118,646.024,475.129,645.776,475.129,645.404
		 M437.433,637.438v8.897c0,2.646,0.688,4.552,2.062,5.72c1.375,1.167,3.56,1.751,6.557,1.751c2.996,0,5.183-0.584,6.557-1.751
		c1.375-1.168,2.062-3.074,2.062-5.72v-8.897h-5.487v7.564c0,1.57-0.237,2.687-0.713,3.348c-0.476,0.662-1.281,0.992-2.418,0.992
		s-1.942-0.33-2.418-0.992c-0.476-0.661-0.713-1.777-0.713-3.348v-7.564H437.433z M432.721,642.212l1.86-3.751l-0.527-0.372
		c-0.372-0.248-1.003-0.496-1.891-0.744c-0.889-0.248-1.86-0.372-2.914-0.372c-2.336,0-4.386,0.832-6.153,2.496
		c-1.767,1.663-2.65,3.653-2.65,5.967c0,2.294,0.884,4.263,2.65,5.906c1.768,1.643,3.817,2.464,6.153,2.464
		c1.054,0,2.041-0.135,2.961-0.403c0.919-0.268,1.508-0.479,1.768-0.635c0.258-0.156,0.459-0.284,0.604-0.388l-1.86-3.813
		l-0.278,0.187c-0.207,0.124-0.532,0.248-0.977,0.372s-0.915,0.186-1.411,0.186c-1.033,0-1.922-0.382-2.666-1.146
		c-0.743-0.765-1.115-1.694-1.115-2.79c0-1.074,0.372-1.994,1.115-2.76c0.744-0.764,1.633-1.146,2.666-1.146
		C431.15,641.468,432.039,641.716,432.721,642.212 M407.89,641.653c1.033,0,1.907,0.353,2.62,1.055s1.069,1.602,1.069,2.696
		c0,1.075-0.346,1.964-1.038,2.666c-0.693,0.703-1.577,1.055-2.651,1.055c-1.115,0-2.015-0.347-2.696-1.038
		c-0.683-0.693-1.023-1.586-1.023-2.683c0-1.095,0.357-1.994,1.07-2.696C405.952,642.006,406.836,641.653,407.89,641.653
		 M406.247,653.806c2.108,0,3.844-0.754,5.208-2.263h0.062v1.798h5.425v-15.903h-5.487v1.52c-1.364-1.322-3.1-1.984-5.208-1.984
		c-2.294,0-4.185,0.817-5.673,2.449c-1.488,1.633-2.232,3.627-2.232,5.982c0,2.356,0.744,4.346,2.232,5.969
		C402.062,652.994,403.953,653.806,406.247,653.806 M376.053,641.251c0.537-0.476,1.262-0.714,2.17-0.714
		c0.827,0,1.505,0.223,2.031,0.668c0.527,0.443,0.853,1.079,0.977,1.905h-6.045C375.227,642.347,375.516,641.727,376.053,641.251
		 M386.593,645.404c0-2.707-0.79-4.789-2.371-6.246s-3.633-2.186-6.153-2.186c-2.397,0-4.454,0.827-6.169,2.479
		c-1.716,1.654-2.573,3.639-2.573,5.952c0,2.315,0.857,4.294,2.573,5.938c1.715,1.643,3.771,2.464,6.169,2.464
		c3.844,0,6.593-1.384,8.246-4.154l-3.969-1.983c-0.66,0.703-1.25,1.173-1.767,1.409c-0.517,0.238-1.219,0.357-2.108,0.357
		c-0.847,0-1.633-0.268-2.355-0.806c-0.723-0.537-1.085-1.364-1.085-2.48h11.532C386.583,646.024,386.593,645.776,386.593,645.404
		 M356.771,641.653c1.033,0,1.906,0.353,2.619,1.055c0.714,0.702,1.069,1.602,1.069,2.696c0,1.075-0.346,1.964-1.038,2.666
		c-0.692,0.703-1.576,1.055-2.65,1.055c-1.116,0-2.016-0.347-2.697-1.038c-0.682-0.693-1.023-1.586-1.023-2.683
		c0-1.095,0.357-1.994,1.07-2.696S355.717,641.653,356.771,641.653 M355.128,653.806c2.108,0,3.844-0.754,5.208-2.263h0.062v1.798
		h5.425v-26.66h-5.487v12.276c-1.364-1.322-3.1-1.984-5.208-1.984c-2.294,0-4.185,0.817-5.673,2.449
		c-1.488,1.633-2.232,3.627-2.232,5.982c0,2.356,0.744,4.346,2.232,5.969C350.943,652.994,352.834,653.806,355.128,653.806
		 M325.275,641.653c1.033,0,1.906,0.353,2.62,1.055c0.713,0.702,1.069,1.602,1.069,2.696c0,1.075-0.347,1.964-1.039,2.666
		c-0.692,0.703-1.576,1.055-2.65,1.055c-1.116,0-2.015-0.347-2.696-1.038c-0.683-0.693-1.024-1.586-1.024-2.683
		c0-1.095,0.357-1.994,1.07-2.696S324.222,641.653,325.275,641.653 M323.633,653.806c2.108,0,3.845-0.754,5.207-2.263h0.063v1.798
		h5.424v-15.903h-5.487v1.52c-1.362-1.322-3.099-1.984-5.207-1.984c-2.294,0-4.185,0.817-5.673,2.449
		c-1.488,1.633-2.231,3.627-2.231,5.982c0,2.356,0.743,4.346,2.231,5.969C319.448,652.994,321.339,653.806,323.633,653.806
		 M306.242,653.341v-8.37c0-0.165,0.041-0.393,0.124-0.682c0.082-0.289,0.222-0.641,0.418-1.055
		c0.196-0.413,0.532-0.764,1.008-1.054c0.476-0.289,1.043-0.434,1.705-0.434c1.219,0,2.17,0.29,2.852,0.867l2.294-4.649
		l-0.434-0.248c-0.269-0.165-0.693-0.33-1.271-0.496c-0.579-0.165-1.168-0.248-1.768-0.248c-0.579,0-1.146,0.098-1.705,0.295
		c-0.558,0.196-1.013,0.418-1.363,0.666c-0.353,0.248-0.683,0.527-0.992,0.837c-0.311,0.311-0.513,0.527-0.605,0.651
		s-0.16,0.228-0.201,0.31h-0.062v-2.294h-5.487v15.903H306.242z M287.704,649.125c-1.075,0-1.958-0.352-2.651-1.055
		c-0.691-0.702-1.038-1.591-1.038-2.666c0-1.095,0.356-1.994,1.069-2.696s1.586-1.055,2.62-1.055c1.054,0,1.937,0.353,2.65,1.055
		c0.713,0.702,1.069,1.602,1.069,2.696c0,1.097-0.341,1.989-1.022,2.683C289.719,648.778,288.82,649.125,287.704,649.125
		 M289.347,636.973c-2.107,0-3.844,0.662-5.208,1.984v-12.276h-5.486v26.66h5.425v-1.798h0.062c1.364,1.509,3.101,2.263,5.208,2.263
		c2.294,0,4.186-0.812,5.674-2.433c1.487-1.623,2.231-3.612,2.231-5.969c0-2.355-0.744-4.35-2.231-5.982
		C293.532,637.79,291.641,636.973,289.347,636.973 M265.632,641.653c1.033,0,1.907,0.353,2.62,1.055s1.069,1.602,1.069,2.696
		c0,1.075-0.346,1.964-1.038,2.666c-0.693,0.703-1.577,1.055-2.651,1.055c-1.116,0-2.015-0.347-2.697-1.038
		c-0.682-0.693-1.023-1.586-1.023-2.683c0-1.095,0.357-1.994,1.07-2.696C263.695,642.006,264.578,641.653,265.632,641.653
		 M265.663,653.806c2.748,0,5.017-0.79,6.805-2.371c1.787-1.581,2.681-3.591,2.681-6.03c0-2.438-0.914-4.453-2.743-6.045
		c-1.829-1.591-4.077-2.387-6.743-2.387c-2.708,0-4.981,0.79-6.82,2.372c-1.84,1.581-2.759,3.601-2.759,6.06
		c0,2.46,0.884,4.476,2.651,6.045C260.502,653.021,262.811,653.806,265.663,653.806 M234.136,641.653
		c1.033,0,1.907,0.353,2.62,1.055c0.713,0.702,1.069,1.602,1.069,2.696c0,1.075-0.346,1.964-1.038,2.666
		c-0.693,0.703-1.576,1.055-2.651,1.055c-1.116,0-2.015-0.347-2.697-1.038c-0.682-0.693-1.023-1.586-1.023-2.683
		c0-1.095,0.357-1.994,1.07-2.696C232.199,642.006,233.082,641.653,234.136,641.653 M232.493,653.806
		c2.108,0,3.844-0.754,5.208-2.263h0.062v1.798h5.425v-15.903h-5.487v1.52c-1.364-1.322-3.1-1.984-5.208-1.984
		c-2.294,0-4.185,0.817-5.673,2.449c-1.488,1.633-2.232,3.627-2.232,5.982c0,2.356,0.744,4.346,2.232,5.969
		C228.308,652.994,230.199,653.806,232.493,653.806 M221.085,626.681h-5.487v26.66h5.487V626.681z M192.163,641.251
		c0.537-0.476,1.26-0.714,2.17-0.714c0.826,0,1.503,0.223,2.03,0.668c0.527,0.443,0.853,1.079,0.977,1.905h-6.045
		C191.336,642.347,191.625,641.727,192.163,641.251 M202.703,645.404c0-2.707-0.791-4.789-2.372-6.246s-3.632-2.186-6.153-2.186
		c-2.398,0-4.454,0.827-6.169,2.479c-1.716,1.654-2.573,3.639-2.573,5.952c0,2.315,0.857,4.294,2.573,5.938
		c1.715,1.643,3.771,2.464,6.169,2.464c3.844,0,6.592-1.384,8.246-4.154l-3.968-1.983c-0.662,0.703-1.251,1.173-1.767,1.409
		c-0.517,0.238-1.22,0.357-2.108,0.357c-0.848,0-1.633-0.268-2.356-0.806c-0.724-0.537-1.085-1.364-1.085-2.48h11.532
		C202.692,646.024,202.703,645.776,202.703,645.404 M172.881,641.653c1.033,0,1.906,0.353,2.619,1.055s1.07,1.602,1.07,2.696
		c0,1.075-0.347,1.964-1.039,2.666c-0.693,0.703-1.576,1.055-2.65,1.055c-1.116,0-2.015-0.347-2.697-1.038
		c-0.682-0.693-1.023-1.586-1.023-2.683c0-1.095,0.356-1.994,1.069-2.696S171.827,641.653,172.881,641.653 M171.238,653.806
		c2.108,0,3.844-0.754,5.208-2.263h0.062v1.798h5.425v-26.66h-5.487v12.276c-1.364-1.322-3.1-1.984-5.208-1.984
		c-2.294,0-4.185,0.817-5.673,2.449c-1.488,1.633-2.232,3.627-2.232,5.982c0,2.356,0.744,4.346,2.232,5.969
		C167.053,652.994,168.944,653.806,171.238,653.806 M141.385,641.653c1.033,0,1.906,0.353,2.619,1.055
		c0.713,0.702,1.07,1.602,1.07,2.696c0,1.075-0.347,1.964-1.039,2.666c-0.692,0.703-1.576,1.055-2.65,1.055
		c-1.116,0-2.015-0.347-2.697-1.038c-0.682-0.693-1.023-1.586-1.023-2.683c0-1.095,0.356-1.994,1.069-2.696
		C139.447,642.006,140.331,641.653,141.385,641.653 M139.742,653.806c2.108,0,3.844-0.754,5.208-2.263h0.062v1.798h5.425v-15.903
		h-5.487v1.52c-1.364-1.322-3.1-1.984-5.208-1.984c-2.294,0-4.185,0.817-5.673,2.449c-1.488,1.633-2.232,3.627-2.232,5.982
		c0,2.356,0.744,4.346,2.232,5.969C135.557,652.994,137.448,653.806,139.742,653.806 M122.351,653.341v-8.37
		c0-0.165,0.041-0.393,0.124-0.682c0.082-0.289,0.222-0.641,0.419-1.055c0.196-0.413,0.531-0.764,1.007-1.054
		c0.475-0.289,1.043-0.434,1.705-0.434c1.219,0,2.17,0.29,2.852,0.867l2.294-4.649l-0.434-0.248
		c-0.269-0.165-0.693-0.33-1.271-0.496c-0.579-0.165-1.168-0.248-1.767-0.248c-0.579,0-1.147,0.098-1.705,0.295
		c-0.558,0.196-1.013,0.418-1.364,0.666c-0.352,0.248-0.682,0.527-0.992,0.837c-0.31,0.311-0.511,0.527-0.604,0.651
		c-0.093,0.124-0.161,0.228-0.202,0.31h-0.062v-2.294h-5.487v15.903H122.351z M95.288,637.438v8.897c0,2.646,0.687,4.552,2.062,5.72
		c1.374,1.167,3.56,1.751,6.556,1.751c2.997,0,5.182-0.584,6.557-1.751c1.374-1.168,2.061-3.074,2.061-5.72v-8.897h-5.487v7.564
		c0,1.57-0.237,2.687-0.713,3.348c-0.475,0.662-1.281,0.992-2.418,0.992c-1.136,0-1.942-0.33-2.418-0.992
		c-0.475-0.661-0.713-1.777-0.713-3.348v-7.564H95.288z M81.06,637.438v4.186h2.294v6.106c0,0.765,0.082,1.483,0.248,2.154
		c0.165,0.672,0.439,1.312,0.821,1.923c0.382,0.609,0.946,1.095,1.69,1.456c0.744,0.362,1.632,0.543,2.666,0.543
		c1.508,0,2.852-0.331,4.03-0.992l-1.364-4.433l-0.186,0.124c-0.124,0.083-0.3,0.166-0.527,0.248
		c-0.228,0.083-0.445,0.124-0.651,0.124c-0.827,0-1.24-0.733-1.24-2.201v-5.053h3.348v-4.186h-3.348v-5.921h-5.487v5.921H81.06z
		 M77.557,642.212l1.86-3.751l-0.528-0.372c-0.371-0.248-1.002-0.496-1.89-0.744c-0.889-0.248-1.86-0.372-2.914-0.372
		c-2.336,0-4.387,0.832-6.154,2.496c-1.767,1.663-2.65,3.653-2.65,5.967c0,2.294,0.883,4.263,2.65,5.906
		c1.767,1.643,3.818,2.464,6.154,2.464c1.054,0,2.04-0.135,2.96-0.403c0.919-0.268,1.508-0.479,1.767-0.635
		c0.258-0.156,0.46-0.284,0.605-0.388l-1.86-3.813l-0.28,0.187c-0.206,0.124-0.532,0.248-0.976,0.372
		c-0.445,0.124-0.914,0.186-1.41,0.186c-1.034,0-1.922-0.382-2.666-1.146c-0.745-0.765-1.116-1.694-1.116-2.79
		c0-1.074,0.371-1.994,1.116-2.76c0.744-0.764,1.632-1.146,2.666-1.146C75.986,641.468,76.874,641.716,77.557,642.212
		 M52.385,641.251c0.537-0.476,1.26-0.714,2.17-0.714c0.826,0,1.503,0.223,2.03,0.668c0.527,0.443,0.853,1.079,0.977,1.905h-6.045
		C51.558,642.347,51.847,641.727,52.385,641.251 M62.925,645.404c0-2.707-0.791-4.789-2.372-6.246s-3.632-2.186-6.153-2.186
		c-2.398,0-4.454,0.827-6.169,2.479c-1.716,1.654-2.573,3.639-2.573,5.952c0,2.315,0.857,4.294,2.573,5.938
		c1.715,1.643,3.771,2.464,6.169,2.464c3.844,0,6.592-1.384,8.246-4.154l-3.968-1.983c-0.662,0.703-1.251,1.173-1.767,1.409
		c-0.517,0.238-1.22,0.357-2.108,0.357c-0.848,0-1.633-0.268-2.356-0.806c-0.724-0.537-1.085-1.364-1.085-2.48h11.532
		C62.914,646.024,62.925,645.776,62.925,645.404 M28.36,627.766v25.575h14.632v-5.115h-8.804v-20.46H28.36z"/>
</g>
<line fill="none" stroke="#231F20" stroke-width="2" x1="26.5" y1="601.67" x2="539.5" y2="601.67"/>
<line fill="none" stroke="#231F20" stroke-width="2" x1="26.5" y1="730.264" x2="539.5" y2="730.264"/>
<g>
	<defs>
		<rect id="SVGID_11_" width="564" height="1002"/>
	</defs>
	<clipPath id="SVGID_8_">
		<use xlink:href="#SVGID_11_"  overflow="visible"/>
	</clipPath>
	<path clip-path="url(#SVGID_8_)" fill="#231F20" d="M464.66,506.882h51.43v54.368h-51.43V506.882z M314.782,279.122v-33.797
		c22.041-4.408,35.266-15.673,44.571-25.469c4.898-5.878,8.817-12.246,11.757-18.613h31.837V561.25h-52.899V279.122H314.782z"/>
</g>
</svg>
