<?xml version="1.0" encoding="utf-8"?>
<!-- Generator: Adobe Illustrator 16.0.0, SVG Export Plug-In . SVG Version: 6.00 Build 0)  -->
<!DOCTYPE svg PUBLIC "-//W3C//DTD SVG 1.1//EN" "http://www.w3.org/Graphics/SVG/1.1/DTD/svg11.dtd">
<svg version="1.1" id="Layer_1" xmlns="http://www.w3.org/2000/svg" xmlns:xlink="http://www.w3.org/1999/xlink" x="0px" y="0px"
	 width="1170.09px" height="505.192px" viewBox="0 0 1170.09 505.192" enable-background="new 0 0 1170.09 505.192"
	 xml:space="preserve">
<g>
	<defs>
		<rect id="SVGID_87_" x="0.002" width="1170.088" height="505.191"/>
	</defs>
	<clipPath id="SVGID_2_">
		<use xlink:href="#SVGID_87_"  overflow="visible"/>
	</clipPath>
	<path clip-path="url(#SVGID_2_)" fill="#0046F9" d="M1102.324,63.886c-6.199,0-11.569,0.969-16.112,2.905
		c-4.543,1.938-7.994,4.633-10.353,8.082c-2.361,3.453-3.54,7.361-3.54,11.728c0,4.368,1.072,7.96,3.223,10.777
		c2.147,2.817,5.177,5.054,9.086,6.709s8.856,3.082,14.844,4.277c4.86,0.917,8.328,1.887,10.406,2.906
		c2.077,1.022,3.117,2.342,3.117,3.962c0,2.043-0.969,3.61-2.905,4.701c-1.938,1.093-4.844,1.638-8.717,1.638
		c-4.86,0-9.016-0.773-12.466-2.323c-3.452-1.55-6.552-4.228-9.298-8.03l-9.297,12.678c3.592,4.016,7.853,6.991,12.783,8.928
		c4.93,1.937,11.339,2.905,19.229,2.905c5.634,0,10.688-0.845,15.161-2.535c4.472-1.69,7.977-4.155,10.513-7.396
		c2.535-3.239,3.803-7.079,3.803-11.517c0-6.128-2.06-10.881-6.181-14.263c-4.12-3.381-11.006-5.95-20.654-7.713
		c-5.002-0.914-8.542-1.918-10.618-3.011c-2.078-1.092-3.117-2.518-3.117-4.279c0-2.113,0.985-3.803,2.959-5.07
		c1.971-1.269,4.789-1.902,8.451-1.902c4.367,0,8.117,0.828,11.252,2.482c3.134,1.656,5.864,4.244,8.188,7.766l10.248-11.832
		c-4.015-4.438-8.364-7.643-13.048-9.615C1114.596,64.873,1108.944,63.886,1102.324,63.886 M1054.887,64.943h-16.059v35.182
		l0.423,13.1h-0.106l-5.281-10.564l-21.659-37.717h-20.18v69.729h16.059V99.49l-0.422-13.101h0.105l5.282,10.565l21.659,37.718
		h20.179V64.943z M940.678,78.148c5.071,0,8.928,1.834,11.569,5.494c2.641,3.663,3.962,9.051,3.962,16.165
		c0,7.115-1.321,12.503-3.962,16.164c-2.642,3.663-6.498,5.494-11.569,5.494c-5.07,0-8.945-1.831-11.622-5.494
		c-2.677-3.661-4.015-9.049-4.015-16.164c0-7.114,1.338-12.502,4.015-16.165C931.732,79.982,935.607,78.148,940.678,78.148
		 M940.678,63.886c-7.044,0-13.137,1.426-18.277,4.278c-5.143,2.854-9.086,6.974-11.833,12.361
		c-2.747,5.389-4.12,11.817-4.12,19.282c0,7.466,1.373,13.894,4.12,19.281s6.69,9.509,11.833,12.36
		c5.141,2.854,11.233,4.279,18.277,4.279c7.042,0,13.117-1.426,18.226-4.279c5.105-2.852,9.032-6.973,11.779-12.36
		s4.12-11.815,4.12-19.281c0-7.465-1.373-13.894-4.12-19.282c-2.747-5.388-6.674-9.508-11.779-12.361
		C953.795,65.312,947.72,63.886,940.678,63.886 M889.226,64.943h-18.172v69.729h18.172V64.943z M855.946,64.943h-63.708v14.051
		h22.82v55.679h18.173V78.994h22.715V64.943z M777.131,64.943h-18.172v69.729h18.172V64.943z M706.134,120.938h-9.614V78.677h9.614
		c5.847,0,10.144,1.762,12.891,5.283c2.747,3.522,4.119,8.805,4.119,15.848c0,7.044-1.372,12.326-4.119,15.847
		C716.277,119.178,711.98,120.938,706.134,120.938 M707.93,64.943h-29.582v69.729h29.582c10.917,0,19.282-3.011,25.094-9.034
		c5.811-6.021,8.716-14.632,8.716-25.831c0-11.198-2.905-19.81-8.716-25.832C727.212,67.953,718.847,64.943,707.93,64.943
		 M625.1,120.621v-14.264h28.737V93.152H625.1V78.994h36.133V64.943h-54.306v69.729h55.679v-14.052H625.1z"/>
	<path clip-path="url(#SVGID_2_)" fill="#231F20" d="M271.978,397.236h59.245v62.631h-59.245V397.236z M120.201,272.538v-50.782
		c25.391-1.692,37.24-6.771,42.318-18.619c2.82-5.643,3.95-12.978,3.95-22.006V147.84c0-11.849,0-24.825-2.257-35.547
		c-2.257-10.72-7.335-18.056-16.927-18.056c-7.336,0-11.849,3.386-14.106,14.106c-2.822,11.284-3.95,28.776-3.95,56.425h-59.81
		c0-23.134,0.564-54.732,10.721-80.123c10.156-24.826,28.776-44.011,67.145-44.011c38.368,0,58.117,19.748,68.273,40.625
		c10.155,20.877,10.721,43.447,10.721,48.525c0,61.502-10.721,90.843-29.341,109.463l-0.564,0.564
		c29.339,23.134,34.983,66.016,34.983,113.977c0,1.693,0,5.643-0.565,11.85c-0.564,11.849-3.949,29.341-10.156,47.396
		c-6.771,18.056-18.056,34.419-35.547,44.011c-9.028,5.078-19.75,7.335-32.726,7.335c-38.369,0-58.117-19.184-68.838-44.574
		c-10.721-24.826-11.849-56.425-11.849-79.559h59.81c0,27.648,1.693,45.14,5.078,55.86c3.385,11.285,8.464,14.67,15.799,14.67
		c9.592,0,14.67-7.335,16.927-17.491c2.257-10.157,2.257-23.134,2.257-34.982c0-12.979,0-24.827,0.564-35.548
		c0-20.312-3.949-34.419-16.927-42.883c-6.771-3.95-16.927-6.771-29.905-7.335H120.201z"/>
</g>
<polygon fill="#0046F9" points="423.174,100.033 423.384,112.424 478.408,112.424 478.408,162.828 478.408,163.248 541.413,106.123 
	541.413,105.913 478.408,49.419 478.408,49.629 478.408,100.033 "/>
<g>
	<defs>
		<rect id="SVGID_89_" x="0.002" width="1170.088" height="505.191"/>
	</defs>
	<clipPath id="SVGID_4_">
		<use xlink:href="#SVGID_89_"  overflow="visible"/>
	</clipPath>
	<polygon clip-path="url(#SVGID_4_)" fill="none" stroke="#0046F9" stroke-width="1.998" points="1.001,3 1.001,502.193 
		1.001,504.195 3.002,504.195 1167.089,504.195 1169.09,504.195 1169.09,502.193 1169.09,3 1169.09,0.998 1167.089,0.998 
		3.002,0.998 1.001,0.998 	"/>
</g>
<rect x="5.003" y="5.002" fill="none" stroke="#0046F9" stroke-width="1.998" width="1160.085" height="495.189"/>
<line fill="none" stroke="#0046F9" stroke-width="2" x1="403.032" y1="189.168" x2="1144.088" y2="189.168"/>
<line fill="none" stroke="#0046F9" stroke-width="2" x1="382.029" y1="26.155" x2="382.029" y2="480.189"/>
<line fill="none" stroke="#0046F9" stroke-width="2" x1="572.045" y1="26.155" x2="572.045" y2="178.167"/>
<line fill="none" stroke="#0046F9" stroke-width="2" x1="868.066" y1="210.169" x2="868.066" y2="479.054"/>
<g>
	<defs>
		<rect id="SVGID_91_" x="0.002" width="1170.088" height="505.191"/>
	</defs>
	<clipPath id="SVGID_6_">
		<use xlink:href="#SVGID_91_"  overflow="visible"/>
	</clipPath>
	<path clip-path="url(#SVGID_6_)" fill="#231F20" d="M1020.057,403.28v-45.118h49.974v-27.729h-49.974v-41.672h28.198
		c4.281,0,7.857,0.392,10.731,1.176c2.871,0.782,5.17,2.168,6.893,4.15c1.724,1.985,2.898,4.754,3.525,8.303
		c0.626,3.553,0.939,8.096,0.939,13.631h54.832v-85.381h-223.24v58.121c9.188,0,15.768,1.229,19.738,3.682
		c3.969,2.455,5.953,7.128,5.953,14.021v79.271c0,6.79-1.984,11.412-5.953,13.863c-3.971,2.456-10.55,3.683-19.738,3.683v58.121
		h223.24v-85.38h-54.832c0,5.537-0.313,10.08-0.939,13.63c-0.627,3.551-1.802,6.344-3.525,8.381
		c-1.723,2.036-4.021,3.422-6.893,4.151c-2.874,0.731-6.45,1.097-10.731,1.097H1020.057z"/>
	<path clip-path="url(#SVGID_6_)" fill="#231F20" d="M724.758,430.601c0.35,2.6,0.6,4.8,0.6,7.2c2.601-0.051,4.75,0.6,7.15,0.6
		c3.85,0,8.649-1.7,8.649-6.45c0-3.899-3.545-6.075-7.85-7.649c-2.05-0.75-2.75-1.9-2.75-3.65c0-2,1.45-2.85,2.8-2.85
		c2.25,0,3.851,1.149,4.851,4.649l1.949-0.25c-0.149-1.8-0.35-3.6-0.55-5.1c-1.95-0.95-3.649-1.4-6.399-1.4
		c-4.551,0-7.801,2.7-7.801,6.15c0,4,4.4,6.55,6.9,7.45c2.75,0.949,3.3,1.949,3.3,3.899c0,2.3-1.6,3.25-2.95,3.25
		c-3.75,0-5-1.649-5.899-5.95L724.758,430.601z M704.658,418.851h-0.1l0.1-3.15c0-0.1-0.25-0.149-0.35-0.149
		c-1.6,0.5-4.9,1.05-8.4,1.5l0.101,1.699l2.05,0.2c0.7,0.05,1.1,0.4,1.1,2.9v12.25c0,1.399-0.789,1.739-2.399,2.1l-0.45,0.101
		c-0.245,0.055-0.4,0.149-0.4,0.449v1.15l0.101,0.1c0,0,4.05-0.1,5.8-0.1c1.95,0,5.75,0.1,5.75,0.1l0.1-0.1v-1.15
		c0-0.3-0.205-0.399-0.399-0.449l-0.2-0.051c-1.51-0.375-2.4-0.8-2.4-2.149v-13.25c2.476-1.55,4.551-2.351,6.051-2.351
		c1.8,0,2.1,1.5,2.1,4.9v10.7c0,1.399-0.84,1.76-2.4,2.149l-0.199,0.051c-0.245,0.06-0.4,0.149-0.4,0.449v1.15l0.1,0.1
		c0,0,3.801-0.1,5.601-0.1c1.95,0,5.95,0.1,5.95,0.1l0.1-0.1v-1.15c0-0.3-0.205-0.399-0.4-0.449l-0.399-0.101
		c-1.535-0.385-2.45-0.7-2.45-2.1V423.75c0-4.55-0.75-8.05-6.1-8.05C709.809,415.7,707.209,416.9,704.658,418.851 M669.509,427.551
		c0,5.149,3.899,10.85,11.25,10.85c7.75,0,11.3-6.25,11.3-11.3c0-5.25-3.1-11.4-11.25-11.4
		C673.559,415.7,669.509,420.7,669.509,427.551 M680.309,417.75c3.4,0,5.7,3.801,5.7,10.95c0,6.351-2.65,7.55-4.45,7.55
		c-4.1,0-5.95-6.1-5.95-9.8C675.608,422.2,677.108,417.75,680.309,417.75 M657.759,409.351c0,1.649,1.35,3,3,3c1.649,0,3-1.351,3-3
		c0-1.65-1.351-3-3-3C659.108,406.351,657.759,407.7,657.759,409.351 M663.559,421.835c0-2.5,0.15-6.135,0.15-6.135
		c0-0.12-0.23-0.149-0.351-0.149c-1.575,0.5-5.075,1.024-8.55,1.5l0.1,1.5l2.051,0.199c0.699,0.051,1.1,0.601,1.1,3.101v12.2
		c0,1.399-0.8,1.89-2.35,2.149l-0.601,0.101c-0.194,0.034-0.35,0.149-0.35,0.449v1.15l0.1,0.1c0,0,4.05-0.1,5.851-0.1
		c1.949,0,6,0.1,6,0.1l0.1-0.1v-1.15c0-0.3-0.205-0.404-0.4-0.449l-0.5-0.101c-1.479-0.295-2.35-0.75-2.35-2.149V421.835z
		 M645.908,418.551h4c0.95,0,1.851-0.25,1.851-0.851v-1c0-0.3-0.15-0.5-1.101-0.5h-4.75v-8.05l-4.05,1.55c0,4.05-0.5,6.5-3,6.5
		c-1,0-1.9,0.101-1.9,0.4v1.55c0,0.3,0.1,0.4,0.9,0.4h2.55v14.75c0,3.649,1.801,5.1,4.301,5.1c2.75,0,5.199-1.25,7.05-3.7
		l-1.15-1.149c-1.475,1.175-2.399,1.25-3.399,1.25c-0.65,0-1.301-0.351-1.301-3.65V418.551z M619.059,418.851h-0.1l0.1-3.15
		c0-0.1-0.25-0.149-0.35-0.149c-1.6,0.5-4.9,1.05-8.4,1.5l0.101,1.699l2.049,0.2c0.701,0.05,1.1,0.4,1.1,2.9v23.75
		c0,1.399-0.745,1.83-2.399,2.2l-0.451,0.1c-0.245,0.055-0.4,0.15-0.4,0.4v1.199l0.101,0.101c0,0,4-0.101,5.799-0.101
		c1.951,0,6,0.101,6,0.101l0.051-0.101v-1.199c0-0.25-0.156-0.341-0.401-0.4l-0.4-0.1c-1.554-0.391-2.4-0.801-2.4-2.2v-8.05
		c1.076,0.55,2.15,0.85,3.351,0.85c3.049,0,5.5-0.9,7.449-2.85c2.45-2.45,3.85-5.601,3.85-9.5c0-5.301-3.15-10.351-8.6-10.351
		C622.934,415.7,620.684,416.976,619.059,418.851 M619.059,420.851c1.451-1.601,3.25-2.55,4.451-2.55c2.949,0,4.449,3.25,4.449,9.1
		c0,4.2-1.5,8.9-5.85,8.9c-0.55,0-1.8-0.301-3.05-1.65V420.851z M599.26,409.351c0,1.649,1.35,3,3,3c1.65,0,3-1.351,3-3
		c0-1.65-1.35-3-3-3C600.609,406.351,599.26,407.7,599.26,409.351 M605.06,421.835c0-2.5,0.15-6.135,0.15-6.135
		c0-0.12-0.23-0.149-0.35-0.149c-1.575,0.5-5.075,1.024-8.55,1.5l0.1,1.5l2.05,0.199c0.7,0.051,1.1,0.601,1.1,3.101v12.2
		c0,1.399-0.8,1.89-2.35,2.149l-0.6,0.101c-0.195,0.034-0.35,0.149-0.35,0.449v1.15l0.1,0.1c0,0,4.05-0.1,5.85-0.1
		c1.95,0,6,0.1,6,0.1l0.1-0.1v-1.15c0-0.3-0.205-0.404-0.4-0.449l-0.5-0.101c-1.48-0.295-2.35-0.75-2.35-2.149V421.835z
		 M584.31,418.851h-0.1l0.1-3.15c0-0.1-0.25-0.149-0.35-0.149c-1.6,0.5-4.9,1.05-8.4,1.5l0.1,1.699l2.05,0.2
		c0.7,0.05,1.1,0.4,1.1,2.9v12.2c0,1.35-0.825,1.835-2.4,2.149l-0.5,0.101c-0.195,0.039-0.35,0.149-0.35,0.449v1.15l0.1,0.1
		c0,0,4-0.1,5.8-0.1c1.95,0,5.95,0.1,5.95,0.1l0.1-0.1v-1.15c0-0.3-0.205-0.399-0.4-0.449l-0.4-0.101
		c-1.53-0.385-2.4-0.75-2.4-2.149V423.5c0-1.774,0.55-2.975,1.3-3.5c0.61-0.425,1.035-0.649,1.836-0.649c0.895,0,1.699,2,3.664,2
		c1.45,0,2.5-1.25,2.5-2.851c0-1.3-1.1-2.8-2.9-2.8C588.959,415.7,586.81,416.275,584.31,418.851 M572.011,433.551l-1-0.95
		c-2.15,2.399-3.7,3.25-5.55,3.25c-3.3,0-6.2-3.851-6.2-9.25c0-5.55,2.25-8.8,4.9-8.8c1.9,0,2.6,1.949,2.75,3.55
		c0.15,1.35,1.25,2.35,2.85,2.35c1.6,0,2.5-1.25,2.5-2.8c0-2.7-2.45-5.2-7.9-5.2c-5.9,0-10.8,5-10.8,12.15
		c0,6.5,3.5,10.55,10.6,10.55C567.71,438.4,570.511,436.601,572.011,433.551 M533.011,430.601c0.35,2.6,0.6,4.8,0.6,7.2
		c2.6-0.051,4.75,0.6,7.15,0.6c3.85,0,8.65-1.7,8.65-6.45c0-3.899-3.545-6.075-7.85-7.649c-2.05-0.75-2.75-1.9-2.75-3.65
		c0-2,1.45-2.85,2.8-2.85c2.25,0,3.85,1.149,4.85,4.649l1.95-0.25c-0.15-1.8-0.35-3.6-0.55-5.1c-1.95-0.95-3.65-1.4-6.4-1.4
		c-4.55,0-7.8,2.7-7.8,6.15c0,4,4.4,6.55,6.9,7.45c2.75,0.949,3.3,1.949,3.3,3.899c0,2.3-1.6,3.25-2.95,3.25
		c-3.75,0-5-1.649-5.9-5.95L533.011,430.601z M512.912,418.851h-0.1l0.1-3.15c0-0.1-0.25-0.149-0.35-0.149
		c-1.6,0.5-4.9,1.05-8.4,1.5l0.1,1.699l2.05,0.2c0.7,0.05,1.1,0.4,1.1,2.9v12.25c0,1.399-0.791,1.739-2.4,2.1l-0.45,0.101
		c-0.245,0.055-0.4,0.149-0.4,0.449v1.15l0.1,0.1c0,0,4.05-0.1,5.8-0.1c1.95,0,5.75,0.1,5.75,0.1l0.1-0.1v-1.15
		c0-0.3-0.205-0.399-0.4-0.449l-0.2-0.051c-1.51-0.375-2.4-0.8-2.4-2.149v-13.25c2.475-1.55,4.55-2.351,6.05-2.351
		c1.8,0,2.1,1.5,2.1,4.9v10.7c0,1.399-0.84,1.76-2.4,2.149l-0.2,0.051c-0.245,0.06-0.4,0.149-0.4,0.449v1.15l0.1,0.1
		c0,0,3.8-0.1,5.6-0.1c1.95,0,5.95,0.1,5.95,0.1l0.1-0.1v-1.15c0-0.3-0.205-0.399-0.4-0.449l-0.4-0.101
		c-1.535-0.385-2.45-0.7-2.45-2.1V423.75c0-4.55-0.75-8.05-6.1-8.05C518.062,415.7,515.461,416.9,512.912,418.851 M492.312,433.65
		c-1.25,1-3,2-3.9,2c-2.4,0-3.15-1.5-3.15-3.25c0-2.05,0.685-3.55,4.2-4.6l2.85-0.851V433.65z M492.262,435.5h0.101
		c0.599,1.926,1.899,2.9,4.899,2.9c2.75,0,4.65-2.15,4.65-2.4c0-0.35-0.45-1-0.65-1c-0.29,0-0.34,0.801-1.55,0.801
		c-1.95,0-2-1.9-2-4.2v-7.25c0-7.2-4.099-8.65-8.2-8.65c-3.649,0-8.899,2.601-8.899,5.601c0,1.3,0.549,2.1,2.349,2.1
		c1.401,0,2.6-1.2,2.6-1.9c0-0.6-0.3-1.149-0.3-2.149c0-1.101,1.65-1.75,3.55-1.75c2.1,0,3.5,1.1,3.5,7.45l-3.6,1.05
		c-5.155,1.505-8.7,3.1-8.7,7.05c0,3.45,1.65,5.25,6,5.25C488.112,438.4,490.336,437.176,492.262,435.5 M468.013,418.851h-0.1
		l0.1-3.15c0-0.1-0.25-0.149-0.35-0.149c-1.6,0.5-4.9,1.05-8.4,1.5l0.1,1.699l2.05,0.2c0.7,0.05,1.1,0.4,1.1,2.9v12.2
		c0,1.35-0.825,1.835-2.4,2.149l-0.5,0.101c-0.195,0.039-0.35,0.149-0.35,0.449v1.15l0.1,0.1c0,0,4-0.1,5.8-0.1
		c1.95,0,5.95,0.1,5.95,0.1l0.101-0.1v-1.15c0-0.3-0.205-0.399-0.4-0.449l-0.4-0.101c-1.53-0.385-2.4-0.75-2.4-2.149V423.5
		c0-1.774,0.55-2.975,1.3-3.5c0.61-0.425,1.035-0.649,1.835-0.649c0.895,0,1.7,2,3.665,2c1.45,0,2.5-1.25,2.5-2.851
		c0-1.3-1.1-2.8-2.9-2.8C472.663,415.7,470.513,416.275,468.013,418.851 M450.562,418.551h4c0.95,0,1.85-0.25,1.85-0.851v-1
		c0-0.3-0.15-0.5-1.1-0.5h-4.75v-8.05l-4.05,1.55c0,4.05-0.5,6.5-3,6.5c-1,0-1.9,0.101-1.9,0.4v1.55c0,0.3,0.101,0.4,0.9,0.4h2.55
		v14.75c0,3.649,1.8,5.1,4.3,5.1c2.75,0,5.2-1.25,7.05-3.7l-1.15-1.149c-1.475,1.175-2.4,1.25-3.4,1.25c-0.649,0-1.3-0.351-1.3-3.65
		V418.551z"/>
	<path clip-path="url(#SVGID_6_)" fill="#231F20" d="M760.209,365.75c1.399,0,2.199-0.8,2.199-2c0-0.949-0.8-2.199-2.699-2.199
		c-1.351,0-3.601,0.8-5.051,2.1c-0.899-0.5-2.449-0.95-4.699-0.95c-4.801,0-9.2,2.95-9.2,7.601c0,2.449,1.2,5,3.05,6.274
		c-1.5,1.4-2.6,3.075-2.6,4.625c0,1.601,1,2.8,2.399,3.65c-2.6,1.75-4.05,3.899-4.05,5.85c0,4.45,4.35,6.101,8.45,6.101
		c6.95,0,14.5-3.65,14.5-9.15c0-1.9-2-5.55-10.15-5.55c-1.899,0-4.25,0.35-4.7,0.35c-0.899,0-2.25-0.6-2.25-2.6
		c0-0.8,0.075-1.851,0.325-2.45c1.05,0.5,2.625,0.75,4.175,0.75c4.7,0,8.95-2.7,8.95-7.6c0-2.801-1-4.551-2.7-5.95
		c0.4-0.5,0.95-0.9,1.45-0.9c0.45,0,0.601,0.3,0.75,0.601C758.559,364.95,758.959,365.75,760.209,365.75 M747.009,385.65
		c0.55,0,1.35,0,2.1-0.05c0.65-0.05,1.101-0.101,1.55-0.101c2.25,0,7.301,0.15,7.301,3.45c0,3.75-4.801,5.75-8.551,5.75
		c-1.399,0-5.149-1.45-5.149-5c0-1.7,0.05-3.149,1.1-4.25C745.858,385.65,746.408,385.65,747.009,385.65 M753.459,370.7
		c0,4.8-2,5.601-3.301,5.601c-3.1,0-4.1-3.9-4.1-6.45c0-3.7,1.5-5.4,3.45-5.4C751.858,364.45,753.459,366.75,753.459,370.7
		 M719.609,365.851h-0.1l0.1-3.15c0-0.1-0.25-0.149-0.35-0.149c-1.6,0.5-4.9,1.05-8.4,1.5l0.101,1.699l2.05,0.2
		c0.7,0.05,1.1,0.4,1.1,2.9v12.25c0,1.399-0.79,1.739-2.399,2.1l-0.45,0.101c-0.245,0.055-0.4,0.149-0.4,0.449v1.15l0.101,0.1
		c0,0,4.05-0.1,5.8-0.1c1.95,0,5.75,0.1,5.75,0.1l0.1-0.1v-1.15c0-0.3-0.205-0.399-0.399-0.449l-0.2-0.051
		c-1.51-0.375-2.4-0.8-2.4-2.149v-13.25c2.476-1.55,4.551-2.351,6.051-2.351c1.8,0,2.1,1.5,2.1,4.9v10.7
		c0,1.399-0.84,1.76-2.4,2.149l-0.199,0.051c-0.245,0.06-0.4,0.149-0.4,0.449v1.15l0.1,0.1c0,0,3.801-0.1,5.601-0.1
		c1.95,0,5.95,0.1,5.95,0.1l0.1-0.1v-1.15c0-0.3-0.205-0.399-0.4-0.449l-0.399-0.101c-1.535-0.385-2.45-0.7-2.45-2.1V370.75
		c0-4.55-0.75-8.05-6.1-8.05C724.76,362.7,722.16,363.9,719.609,365.851 M699.159,356.351c0,1.649,1.351,3,3,3c1.65,0,3-1.351,3-3
		c0-1.65-1.35-3-3-3C700.51,353.351,699.159,354.7,699.159,356.351 M704.96,368.835c0-2.5,0.149-6.135,0.149-6.135
		c0-0.12-0.229-0.149-0.35-0.149c-1.575,0.5-5.075,1.024-8.55,1.5l0.1,1.5l2.05,0.199c0.7,0.051,1.101,0.601,1.101,3.101v12.2
		c0,1.399-0.801,1.89-2.351,2.149l-0.6,0.101c-0.195,0.034-0.351,0.149-0.351,0.449v1.15l0.101,0.1c0,0,4.05-0.1,5.85-0.1
		c1.95,0,6,0.1,6,0.1l0.101-0.1v-1.15c0-0.3-0.205-0.404-0.4-0.449l-0.5-0.101c-1.479-0.295-2.35-0.75-2.35-2.149V368.835z
		 M684.211,365.851h-0.101l0.101-3.15c0-0.1-0.25-0.149-0.351-0.149c-1.6,0.5-4.899,1.05-8.399,1.5l0.1,1.699l2.05,0.2
		c0.7,0.05,1.101,0.4,1.101,2.9v12.2c0,1.35-0.825,1.835-2.4,2.149l-0.5,0.101c-0.195,0.039-0.35,0.149-0.35,0.449v1.15l0.1,0.1
		c0,0,4-0.1,5.8-0.1c1.95,0,5.95,0.1,5.95,0.1l0.1-0.1v-1.15c0-0.3-0.204-0.399-0.399-0.449l-0.4-0.101
		c-1.529-0.385-2.399-0.75-2.399-2.149V370.5c0-1.774,0.55-2.975,1.3-3.5c0.61-0.425,1.035-0.649,1.835-0.649c0.895,0,1.7,2,3.665,2
		c1.45,0,2.5-1.25,2.5-2.851c0-1.3-1.101-2.8-2.9-2.8C688.86,362.7,686.711,363.275,684.211,365.851 M663.66,380.65
		c-1.25,1-3,2-3.899,2c-2.4,0-3.15-1.5-3.15-3.25c0-2.05,0.686-3.55,4.2-4.6l2.85-0.851V380.65z M663.61,382.5h0.101
		c0.6,1.926,1.899,2.9,4.899,2.9c2.75,0,4.65-2.15,4.65-2.4c0-0.35-0.45-1-0.65-1c-0.29,0-0.34,0.801-1.55,0.801
		c-1.95,0-2-1.9-2-4.2v-7.25c0-7.2-4.1-8.65-8.2-8.65c-3.649,0-8.899,2.601-8.899,5.601c0,1.3,0.55,2.1,2.35,2.1
		c1.4,0,2.6-1.2,2.6-1.9c0-0.6-0.3-1.149-0.3-2.149c0-1.101,1.65-1.75,3.55-1.75c2.101,0,3.5,1.1,3.5,7.45l-3.6,1.05
		c-5.155,1.505-8.7,3.1-8.7,7.05c0,3.45,1.65,5.25,6,5.25C659.461,385.4,661.686,384.176,663.61,382.5 M632.411,365.851h-0.1
		l0.1-3.15c0-0.1-0.25-0.149-0.35-0.149c-1.6,0.5-4.9,1.05-8.4,1.5l0.1,1.699l2.05,0.2c0.7,0.05,1.1,0.4,1.1,2.9v23.75
		c0,1.399-0.746,1.83-2.4,2.2l-0.45,0.1c-0.245,0.055-0.4,0.15-0.4,0.4v1.199l0.1,0.101c0,0,4-0.101,5.8-0.101
		c1.95,0,6,0.101,6,0.101l0.051-0.101v-1.199c0-0.25-0.156-0.341-0.401-0.4l-0.4-0.1c-1.555-0.391-2.4-0.801-2.4-2.2v-8.05
		c1.076,0.55,2.15,0.85,3.35,0.85c3.05,0,5.5-0.9,7.45-2.85c2.449-2.45,3.85-5.601,3.85-9.5c0-5.301-3.15-10.351-8.6-10.351
		C636.286,362.7,634.036,363.976,632.411,365.851 M632.411,367.851c1.451-1.601,3.25-2.55,4.451-2.55c2.949,0,4.449,3.25,4.449,9.1
		c0,4.2-1.5,8.9-5.85,8.9c-0.55,0-1.8-0.301-3.05-1.65V367.851z M592.362,365.851l0.099-3.15c0-0.1-0.25-0.149-0.349-0.149
		c-1.601,0.5-4.901,1.05-8.401,1.5l0.1,1.699l2.051,0.2c0.699,0.05,1.099,0.4,1.099,2.9v12.3c0,1.4-0.75,1.7-2.4,2.05l-0.449,0.101
		c-0.25,0.05-0.401,0.149-0.401,0.449v1.15l0.1,0.1c0,0,4.051-0.1,5.801-0.1c2,0,5.599,0.1,5.599,0.1l0.1-0.1v-1.15
		c0-0.3-0.199-0.399-0.449-0.449c-1.151-0.15-2.401-0.4-2.401-2.15v-13.3c2.1-1.75,3.75-2.4,5.2-2.4c1.25,0,2.05,1.25,2.05,4.4
		v11.25c0,1.399-0.7,2.05-2.349,2.2c-0.301,0.05-0.451,0.199-0.451,0.449v1.15l0.1,0.1c0,0,3.601-0.1,5.4-0.1
		c1.951,0,5.55,0.1,5.55,0.1l0.1-0.1v-1.15c0-0.3-0.199-0.449-0.4-0.449c-1.2-0.15-2.45-0.45-2.45-2.2v-10.3
		c0-0.7-0.05-2.25-0.099-2.9c1.949-1.65,3.75-2.45,5.449-2.45c1.2,0,2,1.3,2,4.3v11.351c0,1.399-0.699,2.05-2.4,2.2
		c-0.299,0.05-0.4,0.199-0.4,0.449v1.15l0.101,0.1c0,0,3.599-0.1,5.349-0.1c1.95,0,6,0.1,6,0.1l0.1-0.1v-1.15
		c0-0.3-0.199-0.399-0.4-0.449l-0.4-0.101c-1.55-0.399-2.45-0.7-2.45-2.1v-10.25c0-4.5-0.5-8.15-5.75-8.15
		c-2.65,0-5.4,1.3-7.699,3.3c-0.75-1.949-2.5-3.3-5.151-3.3c-2.75,0-5.25,1.601-7,3.15H592.362z M557.362,374.551
		c0,5.149,3.899,10.85,11.25,10.85c7.75,0,11.299-6.25,11.299-11.3c0-5.25-3.1-11.4-11.25-11.4
		C561.412,362.7,557.362,367.7,557.362,374.551 M568.162,364.75c3.4,0,5.701,3.801,5.701,10.95c0,6.351-2.651,7.55-4.451,7.55
		c-4.1,0-5.95-6.1-5.95-9.8C563.461,369.2,564.961,364.75,568.162,364.75 M553.711,380.551l-1-0.95c-2.15,2.399-3.7,3.25-5.55,3.25
		c-3.299,0-6.2-3.851-6.2-9.25c0-5.55,2.25-8.8,4.901-8.8c1.899,0,2.599,1.949,2.75,3.55c0.149,1.35,1.25,2.35,2.849,2.35
		c1.6,0,2.5-1.25,2.5-2.8c0-2.7-2.45-5.2-7.9-5.2c-5.9,0-10.8,5-10.8,12.15c0,6.5,3.5,10.55,10.601,10.55
		C549.412,385.4,552.211,383.601,553.711,380.551 M515.762,355.75c0-3.25,0.15-5.25,0.15-5.25c0-0.35-0.35-0.5-0.799-0.5
		c-1.256,0.5-6.375,1.15-8.401,1.301l0.151,1.449c0.014,0.15,0.139,0.24,0.299,0.25l1.6,0.101c1,0,1.5,0.399,1.5,3.649v7.2
		c-0.7-0.7-2.45-1.25-3.25-1.25c-3.85,0-6.149,1.101-8.2,3c-2.3,2.3-3.4,5.4-3.4,8.95c0,6.2,4.4,10.75,9.701,10.75
		c2.099,0,3.349-0.6,5.25-2.25l-0.101,2.35h1.7c1.651-0.85,3.8-1.649,7.1-2l-0.1-1.55c-2.65-0.25-3.2-1.3-3.2-2.8V355.75z
		 M510.262,367.75v12.95c-1.8,1.7-2.899,2.2-3.899,2.2c-2.851,0-5.201-2.8-5.201-9.1c0-7.25,3.1-9,5.15-9
		C507.862,364.801,509.162,366.101,510.262,367.75 M475.312,365.851h-0.1l0.1-3.15c0-0.1-0.25-0.149-0.35-0.149
		c-1.601,0.5-4.9,1.05-8.4,1.5l0.1,1.699l2.05,0.2c0.7,0.05,1.1,0.4,1.1,2.9v12.25c0,1.399-0.79,1.739-2.4,2.1l-0.45,0.101
		c-0.245,0.055-0.4,0.149-0.4,0.449v1.15l0.1,0.1c0,0,4.05-0.1,5.8-0.1c1.95,0,5.75,0.1,5.75,0.1l0.1-0.1v-1.15
		c0-0.3-0.205-0.399-0.4-0.449l-0.2-0.051c-1.51-0.375-2.4-0.8-2.4-2.149v-13.25c2.475-1.55,4.55-2.351,6.05-2.351
		c1.8,0,2.101,1.5,2.101,4.9v10.7c0,1.399-0.84,1.76-2.4,2.149l-0.2,0.051c-0.245,0.06-0.399,0.149-0.399,0.449v1.15l0.1,0.1
		c0,0,3.8-0.1,5.6-0.1c1.95,0,5.95,0.1,5.95,0.1l0.101-0.1v-1.15c0-0.3-0.205-0.399-0.4-0.449l-0.4-0.101
		c-1.535-0.385-2.45-0.7-2.45-2.1V370.75c0-4.55-0.75-8.05-6.101-8.05C480.463,362.7,477.862,363.9,475.312,365.851 M454.713,380.65
		c-1.25,1-3,2-3.9,2c-2.4,0-3.15-1.5-3.15-3.25c0-2.05,0.685-3.55,4.2-4.6l2.851-0.851V380.65z M454.663,382.5h0.1
		c0.6,1.926,1.9,2.9,4.9,2.9c2.75,0,4.65-2.15,4.65-2.4c0-0.35-0.45-1-0.65-1c-0.29,0-0.34,0.801-1.55,0.801c-1.95,0-2-1.9-2-4.2
		v-7.25c0-7.2-4.1-8.65-8.2-8.65c-3.65,0-8.9,2.601-8.9,5.601c0,1.3,0.55,2.1,2.35,2.1c1.4,0,2.601-1.2,2.601-1.9
		c0-0.6-0.3-1.149-0.3-2.149c0-1.101,1.65-1.75,3.55-1.75c2.1,0,3.5,1.1,3.5,7.45l-3.601,1.05c-5.155,1.505-8.7,3.1-8.7,7.05
		c0,3.45,1.65,5.25,6,5.25C450.513,385.4,452.738,384.176,454.663,382.5"/>
	<path clip-path="url(#SVGID_6_)" fill="#231F20" d="M663.659,324.601c0.351,2.6,0.601,4.8,0.601,7.2c2.6-0.051,4.75,0.6,7.149,0.6
		c3.851,0,8.65-1.7,8.65-6.45c0-3.899-3.545-6.075-7.85-7.649c-2.051-0.75-2.75-1.9-2.75-3.65c0-2,1.449-2.85,2.8-2.85
		c2.25,0,3.85,1.149,4.85,4.649l1.95-0.25c-0.15-1.8-0.35-3.6-0.55-5.1c-1.95-0.95-3.65-1.4-6.4-1.4c-4.55,0-7.8,2.7-7.8,6.15
		c0,4,4.4,6.55,6.9,7.45c2.75,0.949,3.3,1.949,3.3,3.899c0,2.3-1.601,3.25-2.95,3.25c-3.75,0-5-1.649-5.9-5.95L663.659,324.601z
		 M657.211,328.051V317.7c0-5.25-1.601-8.05-5.9-8.05c-1.85,0-5,1.15-7.75,3.2V302.75c0-3.25,0.15-5.25,0.15-5.25
		c0-0.35-0.351-0.5-0.801-0.5c-1.255,0.5-6.375,1.15-8.399,1.301l0.15,1.449c0.015,0.15,0.14,0.24,0.3,0.25l1.6,0.101
		c1,0,1.5,0.399,1.5,3.649v24.301c0,1.399-0.82,1.885-2.4,2.149l-0.6,0.101c-0.245,0.039-0.4,0.149-0.4,0.449v1.15l0.1,0.1
		c0,0,4.2-0.1,5.95-0.1c1.949,0,5.949,0.1,5.949,0.1l0.101-0.1v-1.15c0-0.3-0.205-0.415-0.4-0.449l-0.35-0.101
		c-1.595-0.455-2.45-0.75-2.45-2.149v-13.2c2.3-1.65,4.75-2.45,5.65-2.45c2,0,2.5,0.85,2.5,4.75v10.9c0,1.399-0.86,1.71-2.4,2.149
		l-0.35,0.101c-0.245,0.039-0.4,0.149-0.4,0.449v1.15l0.1,0.1c0,0,3.95-0.1,5.7-0.1c1.95,0,6.15,0.1,6.15,0.1l0.1-0.1v-1.15
		c0-0.3-0.205-0.415-0.399-0.449l-0.551-0.101C658.03,329.905,657.211,329.45,657.211,328.051 M616.911,312.851h-0.1l0.1-3.15
		c0-0.1-0.25-0.149-0.35-0.149c-1.6,0.5-4.9,1.05-8.4,1.5l0.1,1.699l2.05,0.2c0.7,0.05,1.1,0.4,1.1,2.9v23.75
		c0,1.399-0.746,1.83-2.4,2.2l-0.45,0.1c-0.245,0.055-0.4,0.15-0.4,0.4v1.199l0.1,0.101c0,0,4-0.101,5.8-0.101
		c1.95,0,6,0.101,6,0.101l0.051-0.101v-1.199c0-0.25-0.156-0.341-0.401-0.4l-0.4-0.1c-1.555-0.391-2.4-0.801-2.4-2.2v-8.05
		c1.076,0.55,2.15,0.85,3.35,0.85c3.05,0,5.5-0.9,7.45-2.85c2.45-2.45,3.85-5.601,3.85-9.5c0-5.301-3.15-10.351-8.6-10.351
		C620.786,309.7,618.536,310.976,616.911,312.851 M616.911,314.851c1.451-1.601,3.25-2.55,4.451-2.55c2.949,0,4.449,3.25,4.449,9.1
		c0,4.2-1.5,8.9-5.85,8.9c-0.55,0-1.8-0.301-3.05-1.65V314.851z M596.96,327.65c-1.25,1-3,2-3.9,2c-2.4,0-3.15-1.5-3.15-3.25
		c0-2.05,0.685-3.55,4.201-4.6l2.849-0.851V327.65z M596.911,329.5h0.1c0.601,1.926,1.9,2.9,4.9,2.9c2.75,0,4.65-2.15,4.65-2.4
		c0-0.35-0.449-1-0.65-1c-0.29,0-0.339,0.801-1.549,0.801c-1.951,0-2-1.9-2-4.2v-7.25c0-7.2-4.101-8.65-8.201-8.65
		c-3.65,0-8.9,2.601-8.9,5.601c0,1.3,0.55,2.1,2.351,2.1c1.399,0,2.599-1.2,2.599-1.9c0-0.6-0.3-1.149-0.3-2.149
		c0-1.101,1.65-1.75,3.55-1.75c2.1,0,3.5,1.1,3.5,7.45l-3.599,1.05c-5.156,1.505-8.701,3.1-8.701,7.05c0,3.45,1.65,5.25,6,5.25
		C592.761,332.4,594.986,331.176,596.911,329.5 M572.662,312.851h-0.1l0.1-3.15c0-0.1-0.25-0.149-0.35-0.149
		c-1.6,0.5-4.9,1.05-8.4,1.5l0.1,1.699l2.05,0.2c0.7,0.05,1.1,0.4,1.1,2.9v12.2c0,1.35-0.825,1.835-2.4,2.149l-0.5,0.101
		c-0.195,0.039-0.35,0.149-0.35,0.449v1.15l0.1,0.1c0,0,4-0.1,5.8-0.1c1.95,0,5.95,0.1,5.95,0.1l0.101-0.1v-1.15
		c0-0.3-0.206-0.399-0.401-0.449l-0.4-0.101c-1.53-0.385-2.4-0.75-2.4-2.149V317.5c0-1.774,0.55-2.975,1.3-3.5
		c0.61-0.425,1.035-0.649,1.835-0.649c0.895,0,1.7,2,3.665,2c1.45,0,2.5-1.25,2.5-2.851c0-1.3-1.099-2.8-2.9-2.8
		C577.312,309.7,575.162,310.275,572.662,312.851 M558.762,312.75c1.4,0,2.2-0.8,2.2-2c0-0.949-0.8-2.199-2.7-2.199
		c-1.35,0-3.6,0.8-5.05,2.1c-0.9-0.5-2.45-0.95-4.7-0.95c-4.8,0-9.2,2.95-9.2,7.601c0,2.449,1.2,5,3.051,6.274
		c-1.5,1.4-2.601,3.075-2.601,4.625c0,1.601,1,2.8,2.4,3.65c-2.6,1.75-4.049,3.899-4.049,5.85c0,4.45,4.349,6.101,8.449,6.101
		c6.95,0,14.5-3.65,14.5-9.15c0-1.9-2-5.55-10.15-5.55c-1.9,0-4.25,0.35-4.7,0.35c-0.9,0-2.25-0.6-2.25-2.6
		c0-0.8,0.075-1.851,0.325-2.45c1.05,0.5,2.625,0.75,4.175,0.75c4.7,0,8.95-2.7,8.95-7.6c0-2.801-1-4.551-2.7-5.95
		c0.401-0.5,0.95-0.9,1.45-0.9c0.451,0,0.6,0.3,0.75,0.601C557.112,311.95,557.512,312.75,558.762,312.75 M545.562,332.65
		c0.551,0,1.35,0,2.1-0.05c0.65-0.05,1.1-0.101,1.55-0.101c2.25,0,7.3,0.15,7.3,3.45c0,3.75-4.8,5.75-8.55,5.75
		c-1.4,0-5.15-1.45-5.15-5c0-1.7,0.051-3.149,1.1-4.25C544.412,332.65,544.961,332.65,545.562,332.65 M552.012,317.7
		c0,4.8-2,5.601-3.3,5.601c-3.099,0-4.099-3.9-4.099-6.45c0-3.7,1.5-5.4,3.449-5.4C550.412,311.45,552.012,313.75,552.012,317.7
		 M511.662,321.551c0,5.149,3.9,10.85,11.25,10.85c7.75,0,11.3-6.25,11.3-11.3c0-5.25-3.099-11.4-11.25-11.4
		C515.711,309.7,511.662,314.7,511.662,321.551 M522.461,311.75c3.401,0,5.7,3.801,5.7,10.95c0,6.351-2.65,7.55-4.45,7.55
		c-4.099,0-5.95-6.1-5.95-9.8C517.762,316.2,519.262,311.75,522.461,311.75 M502.862,312.551h4c0.949,0,1.849-0.25,1.849-0.851v-1
		c0-0.3-0.15-0.5-1.099-0.5h-4.75v-8.05l-4.051,1.55c0,4.05-0.5,6.5-3,6.5c-1,0-1.9,0.101-1.9,0.4v1.55c0,0.3,0.1,0.4,0.9,0.4h2.551
		v14.75c0,3.649,1.799,5.1,4.299,5.1c2.75,0,5.201-1.25,7.05-3.7l-1.15-1.149c-1.475,1.175-2.4,1.25-3.4,1.25
		c-0.65,0-1.299-0.351-1.299-3.65V312.551z M488.013,326.15V314.2c0-2.024,0.1-4.1,0.1-4.1s-1.95,0.1-3,0.1
		c-1.35,0-5.55-0.1-5.55-0.1l-0.2,0.1v1.5l0.2,0.101l1.55,0.1c0.9,0,1.4,0.8,1.4,2.4v13.75c-1.85,1.6-3.95,1.85-5.05,1.85
		c-1.05,0-2.7-0.9-2.7-5.1V314.2c0-1.85,0.05-4.1,0.05-4.1s-2.2,0.1-2.9,0.1c-1.6,0-5.55-0.1-5.55-0.1l-0.25,0.1v1.5l0.15,0.101
		l1.55,0.1c1.17,0.075,1.45,0.9,1.45,2.4V325.5c0,3.5,1.15,6.9,6.95,6.9c1.85,0,4.1-0.75,6.45-2.25l-0.15,2.35h1.7
		c1.3-0.75,2.5-1.399,7.05-2l-0.05-1.55C488.513,328.801,488.013,327.65,488.013,326.15 M454.713,327.65c-1.25,1-3,2-3.9,2
		c-2.4,0-3.15-1.5-3.15-3.25c0-2.05,0.685-3.55,4.2-4.6l2.851-0.851V327.65z M454.663,329.5h0.1c0.6,1.926,1.9,2.9,4.9,2.9
		c2.75,0,4.65-2.15,4.65-2.4c0-0.35-0.45-1-0.65-1c-0.29,0-0.34,0.801-1.55,0.801c-1.95,0-2-1.9-2-4.2v-7.25
		c0-7.2-4.1-8.65-8.2-8.65c-3.65,0-8.9,2.601-8.9,5.601c0,1.3,0.55,2.1,2.35,2.1c1.4,0,2.601-1.2,2.601-1.9
		c0-0.6-0.3-1.149-0.3-2.149c0-1.101,1.65-1.75,3.55-1.75c2.1,0,3.5,1.1,3.5,7.45l-3.601,1.05c-5.155,1.505-8.7,3.1-8.7,7.05
		c0,3.45,1.65,5.25,6,5.25C450.513,332.4,452.738,331.176,454.663,329.5"/>
	<path clip-path="url(#SVGID_6_)" fill="#231F20" d="M678.208,259.75c1.4,0,2.199-0.8,2.199-2c0-0.949-0.799-2.199-2.699-2.199
		c-1.35,0-3.6,0.8-5.051,2.1c-0.898-0.5-2.449-0.95-4.699-0.95c-4.801,0-9.199,2.95-9.199,7.601c0,2.449,1.199,5,3.05,6.274
		c-1.5,1.4-2.601,3.075-2.601,4.625c0,1.601,1,2.8,2.4,3.65c-2.6,1.75-4.05,3.899-4.05,5.85c0,4.45,4.349,6.101,8.45,6.101
		c6.949,0,14.5-3.65,14.5-9.15c0-1.9-2-5.55-10.15-5.55c-1.9,0-4.25,0.35-4.701,0.35c-0.898,0-2.25-0.6-2.25-2.6
		c0-0.8,0.076-1.851,0.326-2.45c1.049,0.5,2.625,0.75,4.174,0.75c4.701,0,8.951-2.7,8.951-7.6c0-2.801-1-4.551-2.701-5.95
		c0.401-0.5,0.951-0.9,1.451-0.9c0.45,0,0.6,0.3,0.75,0.601C676.559,258.95,676.958,259.75,678.208,259.75 M665.009,279.65
		c0.55,0,1.35,0,2.1-0.05c0.65-0.05,1.1-0.101,1.549-0.101c2.25,0,7.301,0.15,7.301,3.45c0,3.75-4.801,5.75-8.551,5.75
		c-1.398,0-5.148-1.45-5.148-5c0-1.7,0.05-3.149,1.1-4.25C663.858,279.65,664.407,279.65,665.009,279.65 M671.458,264.7
		c0,4.8-2,5.601-3.301,5.601c-3.099,0-4.099-3.9-4.099-6.45c0-3.7,1.5-5.4,3.45-5.4C669.858,258.45,671.458,260.75,671.458,264.7
		 M637.608,259.851h-0.1l0.1-3.15c0-0.1-0.25-0.149-0.35-0.149c-1.601,0.5-4.9,1.05-8.4,1.5l0.1,1.699l2.05,0.2
		c0.7,0.05,1.1,0.4,1.1,2.9v12.25c0,1.399-0.79,1.739-2.4,2.1l-0.45,0.101c-0.245,0.055-0.4,0.149-0.4,0.449v1.15l0.1,0.1
		c0,0,4.05-0.1,5.8-0.1c1.95,0,5.75,0.1,5.75,0.1l0.1-0.1v-1.15c0-0.3-0.205-0.399-0.399-0.449l-0.2-0.051
		c-1.51-0.375-2.4-0.8-2.4-2.149v-13.25c2.476-1.55,4.55-2.351,6.05-2.351c1.801,0,2.101,1.5,2.101,4.9v10.7
		c0,1.399-0.84,1.76-2.4,2.149l-0.2,0.051c-0.244,0.06-0.399,0.149-0.399,0.449v1.15l0.1,0.1c0,0,3.8-0.1,5.601-0.1
		c1.949,0,5.949,0.1,5.949,0.1l0.101-0.1v-1.15c0-0.3-0.205-0.399-0.4-0.449l-0.399-0.101c-1.535-0.385-2.45-0.7-2.45-2.1V264.75
		c0-4.55-0.75-8.05-6.101-8.05C642.759,256.7,640.158,257.9,637.608,259.851 M617.158,250.351c0,1.649,1.351,3,3,3
		c1.65,0,3-1.351,3-3c0-1.65-1.35-3-3-3C618.509,247.351,617.158,248.7,617.158,250.351 M622.958,262.835
		c0-2.5,0.15-6.135,0.15-6.135c0-0.12-0.23-0.149-0.35-0.149c-1.575,0.5-5.075,1.024-8.55,1.5l0.1,1.5l2.05,0.199
		c0.7,0.051,1.1,0.601,1.1,3.101v12.2c0,1.399-0.8,1.89-2.35,2.149l-0.6,0.101c-0.195,0.034-0.351,0.149-0.351,0.449v1.15l0.101,0.1
		c0,0,4.05-0.1,5.85-0.1c1.95,0,6,0.1,6,0.1l0.1-0.1v-1.15c0-0.3-0.205-0.404-0.4-0.449l-0.5-0.101
		c-1.48-0.295-2.35-0.75-2.35-2.149V262.835z M595.209,256.601h-1.65c-0.1,2.149-0.3,3.899-1.1,7.2l2.15,0.3
		c0.85-3.7,2.05-4.8,3.55-4.8h5.8c-3.9,5.899-7.6,11.85-11.5,17.699c-0.4,0.65-0.55,1-0.55,1.101c0,0.5,0.6,0.8,2.75,0.8h14.9
		c0.2-2.05,0.55-4.25,1.3-6.95l-2.1-0.45c-0.85,3.25-2.3,5.301-4.5,5.301h-5.8l11.15-17.15c0.55-0.85,1-1.65,1-1.8
		c0-0.5-0.8-0.8-1.8-0.8c-0.15,0-1.345,0.149-2.55,0.149h-10.2C595.76,257.2,595.41,257.15,595.209,256.601 M580.26,250.351
		c0,1.649,1.35,3,3,3c1.65,0,3-1.351,3-3c0-1.65-1.35-3-3-3C581.609,247.351,580.26,248.7,580.26,250.351 M586.06,262.835
		c0-2.5,0.15-6.135,0.15-6.135c0-0.12-0.23-0.149-0.35-0.149c-1.575,0.5-5.075,1.024-8.55,1.5l0.1,1.5l2.05,0.199
		c0.7,0.051,1.1,0.601,1.1,3.101v12.2c0,1.399-0.8,1.89-2.35,2.149l-0.6,0.101c-0.195,0.034-0.35,0.149-0.35,0.449v1.15l0.1,0.1
		c0,0,4.05-0.1,5.85-0.1c1.95,0,6,0.1,6,0.1l0.1-0.1v-1.15c0-0.3-0.205-0.404-0.4-0.449l-0.5-0.101
		c-1.48-0.295-2.35-0.75-2.35-2.149V262.835z M565.311,250.75v24.301c0,1.399-0.82,1.885-2.4,2.149l-0.6,0.101
		c-0.245,0.039-0.4,0.149-0.4,0.449v1.15l0.1,0.1c0,0,4.2-0.1,5.95-0.1c1.95,0,6.15,0.1,6.15,0.1l0.1-0.1v-1.15
		c0-0.3-0.205-0.415-0.4-0.449l-0.55-0.101c-1.63-0.295-2.45-0.75-2.45-2.149V249.75c0-3.25,0.15-5.25,0.15-5.25
		c0-0.35-0.35-0.5-0.8-0.5c-1.255,0.5-6.375,1.15-8.4,1.301l0.15,1.449c0.015,0.15,0.14,0.24,0.3,0.25l1.6,0.101
		C564.811,247.101,565.311,247.5,565.311,250.75 M550.36,274.65c-1.25,1-3,2-3.9,2c-2.4,0-3.15-1.5-3.15-3.25
		c0-2.05,0.685-3.55,4.2-4.6l2.85-0.851V274.65z M550.311,276.5h0.1c0.6,1.926,1.9,2.9,4.9,2.9c2.75,0,4.65-2.15,4.65-2.4
		c0-0.35-0.45-1-0.65-1c-0.29,0-0.34,0.801-1.55,0.801c-1.95,0-2-1.9-2-4.2v-7.25c0-7.2-4.1-8.65-8.2-8.65
		c-3.65,0-8.9,2.601-8.9,5.601c0,1.3,0.55,2.1,2.35,2.1c1.4,0,2.6-1.2,2.6-1.9c0-0.6-0.3-1.149-0.3-2.149
		c0-1.101,1.65-1.75,3.55-1.75c2.1,0,3.5,1.1,3.5,7.45l-3.6,1.05c-5.155,1.505-8.7,3.1-8.7,7.05c0,3.45,1.65,5.25,6,5.25
		C546.161,279.4,548.386,278.176,550.311,276.5 M531.36,273.15V261.2c0-2.024,0.1-4.1,0.1-4.1s-1.95,0.1-3,0.1
		c-1.35,0-5.55-0.1-5.55-0.1l-0.2,0.1v1.5l0.2,0.101l1.55,0.1c0.9,0,1.4,0.8,1.4,2.4v13.75c-1.85,1.6-3.95,1.85-5.05,1.85
		c-1.05,0-2.7-0.9-2.7-5.1V261.2c0-1.85,0.05-4.1,0.05-4.1s-2.2,0.1-2.9,0.1c-1.6,0-5.55-0.1-5.55-0.1l-0.25,0.1v1.5l0.151,0.101
		l1.549,0.1c1.17,0.075,1.45,0.9,1.45,2.4V272.5c0,3.5,1.15,6.9,6.95,6.9c1.85,0,4.1-0.75,6.45-2.25l-0.15,2.35h1.7
		c1.3-0.75,2.5-1.399,7.05-2l-0.05-1.55C531.86,275.801,531.36,274.65,531.36,273.15 M489.562,271.601c0.35,2.6,0.6,4.8,0.6,7.2
		c2.6-0.051,4.75,0.6,7.15,0.6c3.85,0,8.65-1.7,8.65-6.45c0-3.899-3.545-6.075-7.849-7.649c-2.051-0.75-2.75-1.9-2.75-3.65
		c0-2,1.449-2.85,2.799-2.85c2.25,0,3.85,1.149,4.85,4.649l1.95-0.25c-0.15-1.8-0.349-3.6-0.55-5.1c-1.95-0.95-3.65-1.4-6.4-1.4
		c-4.55,0-7.8,2.7-7.8,6.15c0,4,4.401,6.55,6.901,7.45c2.75,0.949,3.299,1.949,3.299,3.899c0,2.3-1.6,3.25-2.95,3.25
		c-3.75,0-5-1.649-5.9-5.95L489.562,271.601z M477.662,250.351c0,1.649,1.35,3,3,3s3-1.351,3-3c0-1.65-1.35-3-3-3
		S477.662,248.7,477.662,250.351 M483.461,262.835c0-2.5,0.151-6.135,0.151-6.135c0-0.12-0.23-0.149-0.351-0.149
		c-1.575,0.5-5.075,1.024-8.55,1.5l0.1,1.5l2.051,0.199c0.699,0.051,1.099,0.601,1.099,3.101v12.2c0,1.399-0.8,1.89-2.349,2.149
		l-0.601,0.101c-0.195,0.034-0.35,0.149-0.35,0.449v1.15l0.1,0.1c0,0,4.05-0.1,5.851-0.1c1.949,0,6,0.1,6,0.1l0.099-0.1v-1.15
		c0-0.3-0.205-0.404-0.4-0.449l-0.5-0.101c-1.48-0.295-2.35-0.75-2.35-2.149V262.835z M461.963,248.25c3.25,0,3.6,0.45,2.8,2.551
		l-6.5,17.449l-0.6,1.4l-0.55-1.55l-6.25-17.8c-0.55-1.551,0.4-2.051,3.55-2.051c0.25,0,0.4-0.149,0.4-0.399v-1.2l-0.1-0.05
		c0,0-5.4,0.05-7.2,0.05c-1.95,0-6.8-0.05-6.8-0.05l-0.101,0.05v1.2c0,0.25,0.2,0.399,0.4,0.399c2.55,0,3.15,0.65,4,2.95l9.5,27.15
		c0.25,0.75,1.1,1.149,1.65,1.149c0.5,0,1.4-0.399,1.7-1.149l10.05-26.9c1-2.649,1.35-3.2,4.15-3.2c0.25,0,0.4-0.149,0.4-0.399v-1.2
		l-0.101-0.05c0,0-2.6,0.05-4.399,0.05c-1.95,0-6.3-0.05-6.3-0.05l-0.1,0.05v1.2C461.562,248.101,461.763,248.25,461.963,248.25"/>
</g>
</svg>
