<?xml version="1.0" encoding="utf-8"?>
<!-- Generator: Adobe Illustrator 16.0.0, SVG Export Plug-In . SVG Version: 6.00 Build 0)  -->
<!DOCTYPE svg PUBLIC "-//W3C//DTD SVG 1.1//EN" "http://www.w3.org/Graphics/SVG/1.1/DTD/svg11.dtd">
<svg version="1.1" id="Layer_1" xmlns="http://www.w3.org/2000/svg" xmlns:xlink="http://www.w3.org/1999/xlink" x="0px" y="0px"
	 width="1170.09px" height="574.889px" viewBox="0 0 1170.09 574.889" enable-background="new 0 0 1170.09 574.889"
	 xml:space="preserve">
<polygon fill="#FF1419" points="391.854,274.469 392.21,295.486 485.543,295.486 485.543,380.98 485.543,381.693 592.412,284.799 
	592.412,284.441 485.543,188.615 485.543,188.973 485.543,274.469 "/>
<line fill="none" stroke="#231F20" stroke-width="1.991" x1="342.098" y1="407.301" x2="1144.045" y2="407.301"/>
<line fill="none" stroke="#231F20" stroke-width="1.991" x1="26.044" y1="157.301" x2="656.639" y2="157.301"/>
<g>
	<defs>
		<rect id="SVGID_45_" width="1170.088" height="574.889"/>
	</defs>
	<clipPath id="SVGID_2_">
		<use xlink:href="#SVGID_45_"  overflow="visible"/>
	</clipPath>
	<path clip-path="url(#SVGID_2_)" fill="#FF1419" d="M620.961,69.574h11.88v-3.24c0-2.58-0.495-5.041-1.484-7.381
		c-0.99-2.34-2.461-4.41-4.41-6.209c-1.951-1.801-4.365-3.225-7.245-4.275c-2.88-1.049-6.181-1.574-9.9-1.574
		c-3.301,0-6.285,0.449-8.955,1.35c-2.671,0.9-4.949,2.16-6.84,3.779c-1.89,1.621-3.36,3.525-4.41,5.715
		c-1.051,2.191-1.574,4.576-1.574,7.156v0.539c0,3.121,0.54,5.76,1.62,7.92c1.079,2.16,2.594,3.961,4.545,5.4
		c1.948,1.439,4.243,2.596,6.885,3.465c2.639,0.869,5.549,1.574,8.729,2.115c2.399,0.42,4.379,0.932,5.94,1.529
		c1.559,0.6,2.79,1.275,3.69,2.025c0.899,0.752,1.529,1.59,1.89,2.52c0.36,0.932,0.54,1.906,0.54,2.926c0,2.16-0.871,4.02-2.61,5.58
		c-1.741,1.561-4.41,2.34-8.01,2.34c-4.621,0-8.026-1.125-10.215-3.375c-2.191-2.25-3.285-5.266-3.285-9.045v-2.16h-11.88v2.699
		c0,3.301,0.54,6.346,1.62,9.135c1.08,2.791,2.669,5.221,4.77,7.291c2.1,2.07,4.726,3.689,7.875,4.859
		c3.15,1.17,6.795,1.756,10.936,1.756c3.539,0,6.719-0.451,9.54-1.35c2.818-0.9,5.22-2.191,7.199-3.871
		c1.98-1.678,3.494-3.703,4.545-6.074c1.05-2.371,1.575-5.025,1.575-7.965v-1.08c0-5.52-1.741-9.689-5.22-12.51
		c-3.481-2.82-8.521-4.83-15.12-6.031c-2.641-0.479-4.814-0.99-6.524-1.529c-1.711-0.541-3.092-1.154-4.141-1.846
		c-1.051-0.688-1.786-1.469-2.205-2.34c-0.421-0.869-0.63-1.844-0.63-2.924c0-2.102,0.869-3.766,2.61-4.996
		c1.738-1.229,4.108-1.844,7.109-1.844c3.539,0,6.284,0.93,8.235,2.789c1.949,1.859,2.925,4.051,2.925,6.57V69.574z
		 M544.281,100.578c-1.44-0.688-2.61-1.664-3.51-2.924c-0.9-1.26-1.53-2.76-1.89-4.5c-0.36-1.74-0.54-3.66-0.54-5.76v-15.48
		c0-1.98,0.209-3.84,0.629-5.58c0.419-1.74,1.081-3.24,1.98-4.5s2.07-2.264,3.51-3.016c1.44-0.75,3.179-1.125,5.22-1.125
		c2.039,0,3.78,0.375,5.22,1.125c1.44,0.752,2.61,1.756,3.51,3.016s1.559,2.76,1.98,4.5c0.419,1.74,0.63,3.6,0.63,5.58v15.48
		c0,2.1-0.18,4.02-0.54,5.76c-0.36,1.74-0.99,3.24-1.89,4.5s-2.07,2.236-3.51,2.924c-1.44,0.691-3.24,1.035-5.4,1.035
		S545.721,101.27,544.281,100.578 M526.461,86.674c0,8.4,2.054,14.791,6.165,19.17c4.109,4.381,9.794,6.57,17.055,6.57
		c7.259,0,12.944-2.189,17.055-6.57c4.109-4.379,6.165-10.77,6.165-19.17V72.633c0-8.158-2.056-14.488-6.165-18.988
		c-4.111-4.5-9.796-6.75-17.055-6.75c-7.261,0-12.946,2.25-17.055,6.75c-4.111,4.5-6.165,10.83-6.165,18.988V86.674z
		 M466.521,59.494h16.74v51.66h11.88v-51.66h16.74v-11.34h-45.36V59.494z M429.891,48.154h-23.22v63h11.88V54.094h1.62l7.38,57.061
		h23.22v-63h-11.88v57.059h-1.62L429.891,48.154z M348.081,111.154h40.86v-11.34h-28.98v-14.58h26.82v-11.34h-26.82v-14.4h27.9
		v-11.34h-39.78V111.154z M282.201,111.154h10.8V69.033l-1.08-14.4h2.16l4.86,56.521h17.82l4.68-56.521h2.16l-1.08,14.4v42.121h10.8
		v-63h-20.88l-3.6,47.34v9.18h-2.16v-9.18l-3.6-47.34h-20.88V111.154z M258.081,48.154v41.219c0,3.723-0.871,6.631-2.61,8.73
		c-1.741,2.102-4.471,3.15-8.19,3.15c-3.721,0-6.451-1.049-8.19-3.15c-1.741-2.1-2.61-5.008-2.61-8.73V48.154h-11.88v41.219
		c0,7.201,1.904,12.84,5.715,16.92c3.809,4.082,9.464,6.121,16.965,6.121c7.499,0,13.154-2.039,16.965-6.121
		c3.809-4.08,5.715-9.719,5.715-16.92V48.154H258.081z M181.626,100.578c-1.471-0.688-2.655-1.664-3.555-2.924
		s-1.561-2.746-1.98-4.455c-0.421-1.711-0.63-3.586-0.63-5.625v-15.84c0-1.859,0.225-3.646,0.675-5.355
		c0.45-1.711,1.154-3.209,2.115-4.5c0.959-1.291,2.16-2.309,3.6-3.061c1.44-0.75,3.15-1.125,5.13-1.125c2.16,0,3.96,0.375,5.4,1.125
		c1.44,0.752,2.579,1.725,3.42,2.926c0.839,1.201,1.44,2.551,1.8,4.049c0.36,1.5,0.54,3.002,0.54,4.5v1.621h11.88v-1.621
		c0-3.6-0.495-6.84-1.485-9.719c-0.99-2.881-2.461-5.34-4.41-7.381c-1.951-2.039-4.365-3.6-7.245-4.68
		c-2.88-1.08-6.181-1.619-9.9-1.619c-3.6,0-6.84,0.584-9.72,1.754s-5.341,2.85-7.38,5.041c-2.041,2.189-3.6,4.891-4.68,8.1
		s-1.62,6.826-1.62,10.844v14.041c0,8.4,2.099,14.791,6.3,19.17c4.199,4.381,9.9,6.57,17.1,6.57c7.499,0,13.214-2.025,17.145-6.076
		c3.929-4.049,5.895-9.822,5.895-17.324v-1.619h-11.88v1.619c0,1.619-0.151,3.195-0.45,4.725c-0.301,1.531-0.855,2.881-1.665,4.051
		s-1.951,2.102-3.42,2.789c-1.471,0.691-3.346,1.035-5.625,1.035C184.88,101.613,183.095,101.27,181.626,100.578 M120.921,100.578
		c-1.44-0.688-2.61-1.664-3.51-2.924s-1.53-2.76-1.89-4.5c-0.36-1.74-0.54-3.66-0.54-5.76v-15.48c0-1.98,0.209-3.84,0.63-5.58
		c0.419-1.74,1.08-3.24,1.98-4.5s2.07-2.264,3.51-3.016c1.44-0.75,3.179-1.125,5.22-1.125c2.039,0,3.78,0.375,5.22,1.125
		c1.44,0.752,2.61,1.756,3.51,3.016s1.559,2.76,1.98,4.5c0.419,1.74,0.63,3.6,0.63,5.58v15.48c0,2.1-0.18,4.02-0.54,5.76
		c-0.36,1.74-0.99,3.24-1.89,4.5c-0.9,1.26-2.07,2.236-3.51,2.924c-1.44,0.691-3.24,1.035-5.4,1.035S122.361,101.27,120.921,100.578
		 M103.101,86.674c0,8.4,2.054,14.791,6.165,19.17c4.109,4.381,9.794,6.57,17.055,6.57c7.259,0,12.944-2.189,17.055-6.57
		c4.109-4.379,6.165-10.77,6.165-19.17V72.633c0-8.158-2.056-14.488-6.165-18.988c-4.111-4.5-9.796-6.75-17.055-6.75
		c-7.261,0-12.946,2.25-17.055,6.75c-4.111,4.5-6.165,10.83-6.165,18.988V86.674z M60.261,99.814v-40.32h5.04
		c4.14,0,7.034,0.93,8.685,2.789c1.65,1.861,2.475,4.59,2.475,8.191v17.279c0,4.141-0.825,7.186-2.475,9.135
		c-1.651,1.949-4.545,2.926-8.685,2.926H60.261z M42.441,59.494h5.94v40.23h-5.94v11.43h22.86c7.799,0,13.59-1.814,17.37-5.445
		c3.78-3.631,5.67-9.256,5.67-16.875V70.475c0-7.619-1.89-13.244-5.67-16.875c-3.78-3.631-9.571-5.445-17.37-5.445h-22.86V59.494z"
		/>
	<path clip-path="url(#SVGID_2_)" fill="#231F20" d="M1088.277,531.115c3.072,0,5.415-0.604,7.031-1.809
		c1.615-1.203,2.424-2.773,2.424-4.707c0-1.721-0.643-3.078-1.927-4.072c-1.285-0.992-3.384-1.74-6.297-2.244
		c-1.351-0.264-2.298-0.537-2.84-0.814c-0.543-0.277-0.814-0.615-0.814-1.014c0-0.422,0.265-0.779,0.794-1.072
		c0.53-0.291,1.271-0.436,2.226-0.436c1.218,0,2.264,0.211,3.138,0.635s1.629,1.1,2.264,2.025l3.496-3.416
		c-0.9-1.244-2.072-2.178-3.516-2.801c-1.443-0.621-3.305-0.934-5.581-0.934c-2.066,0-3.82,0.312-5.265,0.934
		c-1.442,0.623-2.521,1.438-3.236,2.443s-1.073,2.08-1.073,3.217c0,1.67,0.629,3.006,1.887,4.014
		c1.259,1.006,3.37,1.801,6.336,2.383c1.324,0.266,2.259,0.537,2.802,0.814s0.813,0.604,0.813,0.975c0,0.424-0.265,0.76-0.794,1.012
		c-0.53,0.252-1.258,0.377-2.185,0.377c-2.781,0-4.741-0.939-5.879-2.82l-3.496,3.814
		C1080.491,529.949,1083.722,531.115,1088.277,531.115 M1064.721,515.184c2.119,0,3.337,1.299,3.655,3.895h-7.469
		C1061.305,516.482,1062.576,515.184,1064.721,515.184 M1074.691,520.508c0-3.178-0.854-5.646-2.562-7.408s-4.165-2.643-7.369-2.643
		c-3.312,0-5.866,0.9-7.667,2.701s-2.701,4.344-2.701,7.627c0,3.285,0.919,5.828,2.761,7.629c1.841,1.801,4.495,2.701,7.966,2.701
		c2.329,0,4.296-0.443,5.898-1.332c1.602-0.887,2.681-2.178,3.237-3.873l-5.482-1.748c-0.212,0.715-0.629,1.258-1.251,1.629
		c-0.623,0.371-1.424,0.557-2.402,0.557c-1.166,0-2.101-0.291-2.802-0.875c-0.702-0.582-1.159-1.494-1.371-2.74h13.548
		C1074.626,522.15,1074.691,521.408,1074.691,520.508 M1050.222,525.434c-0.822,0.582-1.775,0.873-2.861,0.873
		c-1.748,0-2.621-0.887-2.621-2.66v-7.984h5.958v-4.807h-5.958v-6.316l-6.754,1.867v4.449h-3.416v4.807h3.416v9.096
		c0.026,2.227,0.662,3.84,1.907,4.848c1.245,1.006,3.045,1.51,5.403,1.51c1.032,0,2.059-0.141,3.078-0.418s1.86-0.643,2.522-1.092
		L1050.222,525.434z M1023.406,510.457c-1.562,0-2.927,0.352-4.092,1.053c-1.166,0.703-2.065,1.754-2.701,3.158l-0.198-3.812h-6.038
		v19.861h6.753V520.23c0-1.562,0.331-2.723,0.993-3.477s1.522-1.133,2.582-1.133c0.899,0,1.596,0.285,2.086,0.854
		c0.489,0.57,0.734,1.531,0.734,2.881v11.361h6.753v-13.229c0-2.25-0.622-3.984-1.866-5.203
		C1027.167,511.066,1025.499,510.457,1023.406,510.457 M995.043,515.184c2.119,0,3.337,1.299,3.654,3.895h-7.468
		C991.627,516.482,992.897,515.184,995.043,515.184 M1005.014,520.508c0-3.178-0.854-5.646-2.562-7.408
		c-1.707-1.762-4.164-2.643-7.368-2.643c-3.312,0-5.866,0.9-7.667,2.701c-1.802,1.801-2.701,4.344-2.701,7.627
		c0,3.285,0.92,5.828,2.761,7.629c1.84,1.801,4.495,2.701,7.965,2.701c2.33,0,4.296-0.443,5.899-1.332
		c1.602-0.887,2.681-2.178,3.238-3.873l-5.483-1.748c-0.212,0.715-0.629,1.258-1.251,1.629c-0.623,0.371-1.424,0.557-2.403,0.557
		c-1.166,0-2.1-0.291-2.801-0.875c-0.702-0.582-1.159-1.494-1.37-2.74h13.546C1004.947,522.15,1005.014,521.408,1005.014,520.508
		 M972.479,510.855v10.525c0,1.537-0.332,2.684-0.994,3.438s-1.549,1.133-2.661,1.133c-0.928,0-1.615-0.266-2.065-0.795
		c-0.451-0.529-0.675-1.443-0.675-2.742v-11.559h-6.754v13.268c0,2.41,0.603,4.178,1.808,5.303c1.205,1.127,2.866,1.689,4.985,1.689
		c3.337,0,5.628-1.365,6.873-4.092l0.198,3.693h6.038v-19.861H972.479z M949.082,509.465c0-1.908,1.098-2.861,3.297-2.861
		c0.927,0,1.681,0.213,2.264,0.637l0.675-4.211c-0.979-0.77-2.502-1.152-4.567-1.152c-2.385,0-4.317,0.596-5.801,1.787
		c-1.482,1.193-2.225,2.98-2.225,5.363v1.828h-3.178v4.807h3.178v15.055h6.754v-15.055h5.642v-4.807h-6.038V509.465z
		 M914.203,531.115c3.071,0,5.416-0.604,7.03-1.809c1.616-1.203,2.424-2.773,2.424-4.707c0-1.721-0.643-3.078-1.927-4.072
		c-1.285-0.992-3.383-1.74-6.296-2.244c-1.351-0.264-2.298-0.537-2.841-0.814s-0.814-0.615-0.814-1.014
		c0-0.422,0.265-0.779,0.794-1.072c0.53-0.291,1.272-0.436,2.226-0.436c1.218,0,2.264,0.211,3.138,0.635s1.629,1.1,2.265,2.025
		l3.495-3.416c-0.899-1.244-2.071-2.178-3.515-2.801c-1.444-0.621-3.304-0.934-5.582-0.934c-2.064,0-3.82,0.312-5.263,0.934
		c-1.444,0.623-2.523,1.438-3.238,2.443s-1.072,2.08-1.072,3.217c0,1.67,0.628,3.006,1.887,4.014
		c1.258,1.006,3.369,1.801,6.337,2.383c1.323,0.266,2.257,0.537,2.8,0.814s0.814,0.604,0.814,0.975c0,0.424-0.265,0.76-0.795,1.012
		c-0.529,0.252-1.258,0.377-2.185,0.377c-2.78,0-4.741-0.939-5.879-2.82l-3.496,3.814
		C906.417,529.949,909.647,531.115,914.203,531.115 M888.778,526.744c-0.608,0-1.086-0.145-1.43-0.438
		c-0.345-0.291-0.516-0.715-0.516-1.27c0-0.557,0.178-0.986,0.536-1.291c0.356-0.305,0.959-0.562,1.807-0.775l3.218-0.754v1.707
		c0,0.85-0.371,1.529-1.112,2.047C890.54,526.486,889.706,526.744,888.778,526.744 M900.498,526.863
		c-0.953,0-1.431-0.516-1.431-1.549v-7.23c0-2.541-0.808-4.449-2.423-5.719c-1.616-1.273-3.973-1.908-7.071-1.908
		c-2.648,0-4.754,0.537-6.316,1.609c-1.563,1.072-2.517,2.576-2.86,4.51l5.482,1.588c0.185-1.086,0.596-1.867,1.231-2.344
		s1.456-0.715,2.463-0.715c0.874,0,1.562,0.266,2.065,0.795s0.755,1.244,0.755,2.145v0.715l-4.489,0.873
		c-2.755,0.559-4.733,1.359-5.938,2.404c-1.205,1.047-1.808,2.418-1.808,4.111c0,1.615,0.529,2.848,1.59,3.695
		c1.059,0.848,2.582,1.271,4.567,1.271c3.522,0,5.879-1.02,7.071-3.061c0.556,2.041,2.265,3.061,5.125,3.061
		c1.033,0,1.933-0.213,2.701-0.637l0.517-3.773C901.412,526.812,901.001,526.863,900.498,526.863 M873.326,502.432h-6.754v22.406
		c0,2.199,0.478,3.793,1.431,4.787c0.953,0.992,2.489,1.49,4.607,1.49c0.741,0,1.496-0.094,2.265-0.279
		c0.768-0.184,1.391-0.422,1.867-0.715l0.438-4.17c-0.716,0.238-1.391,0.355-2.026,0.355c-0.688,0-1.166-0.184-1.431-0.555
		s-0.396-1.006-0.396-1.908V502.432z M838.369,515.184c2.117,0,3.336,1.299,3.653,3.895h-7.468
		C834.951,516.482,836.223,515.184,838.369,515.184 M848.34,520.508c0-3.178-0.854-5.646-2.563-7.408
		c-1.708-1.762-4.165-2.643-7.369-2.643c-3.311,0-5.865,0.9-7.667,2.701c-1.801,1.801-2.7,4.344-2.7,7.627
		c0,3.285,0.92,5.828,2.761,7.629c1.84,1.801,4.495,2.701,7.965,2.701c2.33,0,4.296-0.443,5.899-1.332
		c1.602-0.887,2.681-2.178,3.237-3.873l-5.481-1.748c-0.213,0.715-0.63,1.258-1.252,1.629s-1.424,0.557-2.403,0.557
		c-1.166,0-2.099-0.291-2.801-0.875c-0.702-0.582-1.159-1.494-1.37-2.74h13.546C848.272,522.15,848.34,521.408,848.34,520.508
		 M812.149,526.148c-1.191,0-2.111-0.438-2.761-1.311c-0.649-0.875-0.973-2.225-0.973-4.053c0-1.826,0.323-3.178,0.973-4.051
		c0.649-0.875,1.569-1.312,2.761-1.312c1.086,0,1.953,0.398,2.603,1.193c0.648,0.795,1.013,1.92,1.093,3.377v1.588
		c-0.08,1.484-0.444,2.617-1.093,3.396C814.103,525.758,813.235,526.148,812.149,526.148 M815.845,502.432v11.76
		c-0.583-1.164-1.378-2.078-2.384-2.74c-1.007-0.662-2.212-0.994-3.615-0.994c-2.569,0-4.582,0.914-6.038,2.742
		c-1.457,1.826-2.185,4.383-2.185,7.666c0,3.23,0.721,5.748,2.165,7.549c1.442,1.801,3.448,2.701,6.018,2.701
		c1.483,0,2.787-0.371,3.913-1.113c1.126-0.74,1.979-1.76,2.562-3.059l0.238,3.773h6.078v-28.285H815.845z M772.663,526.744
		c-0.61,0-1.087-0.145-1.431-0.438c-0.345-0.291-0.517-0.715-0.517-1.27c0-0.557,0.179-0.986,0.537-1.291
		c0.356-0.305,0.959-0.562,1.807-0.775l3.218-0.754v1.707c0,0.85-0.371,1.529-1.111,2.047
		C774.424,526.486,773.59,526.744,772.663,526.744 M784.382,526.863c-0.953,0-1.431-0.516-1.431-1.549v-7.23
		c0-2.541-0.808-4.449-2.423-5.719c-1.615-1.273-3.973-1.908-7.071-1.908c-2.648,0-4.754,0.537-6.316,1.609s-2.516,2.576-2.86,4.51
		l5.482,1.588c0.185-1.086,0.596-1.867,1.231-2.344s1.457-0.715,2.463-0.715c0.874,0,1.562,0.266,2.065,0.795
		s0.755,1.244,0.755,2.145v0.715l-4.488,0.873c-2.756,0.559-4.734,1.359-5.939,2.404c-1.205,1.047-1.807,2.418-1.807,4.111
		c0,1.615,0.528,2.848,1.589,3.695c1.059,0.848,2.582,1.271,4.567,1.271c3.522,0,5.88-1.02,7.071-3.061
		c0.556,2.041,2.265,3.061,5.125,3.061c1.033,0,1.934-0.213,2.701-0.637l0.516-3.773
		C785.296,526.812,784.885,526.863,784.382,526.863 M750.417,510.457c-3.284,0-5.848,0.908-7.688,2.721
		c-1.841,1.814-2.761,4.352-2.761,7.607c0,3.285,0.927,5.828,2.781,7.629c1.853,1.801,4.502,2.701,7.944,2.701
		c2.675,0,4.827-0.562,6.455-1.689c1.629-1.125,2.589-2.588,2.88-4.389l-6.078-1.947c-0.316,2.146-1.416,3.217-3.297,3.217
		c-2.622,0-3.933-1.812-3.933-5.441c0-3.734,1.311-5.602,3.933-5.602c1.774,0,2.794,1.141,3.06,3.416l6.276-2.064
		c-0.371-1.828-1.311-3.311-2.82-4.449C755.661,511.027,753.408,510.457,750.417,510.457 M734.765,510.457
		c-1.509,0-2.774,0.404-3.794,1.211c-1.02,0.811-1.767,1.967-2.244,3.477l-0.278-4.289h-5.959v19.861h6.753v-10.01
		c0-1.51,0.425-2.668,1.272-3.477c0.847-0.809,1.906-1.211,3.178-1.211c0.502,0,0.979,0.059,1.431,0.178
		c0.449,0.119,0.807,0.258,1.071,0.418l0.716-5.721C736.38,510.604,735.665,510.457,734.765,510.457 M707.156,515.184
		c2.118,0,3.338,1.299,3.654,3.895h-7.468C703.739,516.482,705.011,515.184,707.156,515.184 M717.128,520.508
		c0-3.178-0.854-5.646-2.563-7.408c-1.708-1.762-4.165-2.643-7.369-2.643c-3.311,0-5.865,0.9-7.667,2.701
		c-1.801,1.801-2.7,4.344-2.7,7.627c0,3.285,0.92,5.828,2.761,7.629c1.84,1.801,4.495,2.701,7.965,2.701
		c2.33,0,4.296-0.443,5.899-1.332c1.602-0.887,2.681-2.178,3.237-3.873l-5.481-1.748c-0.213,0.715-0.63,1.258-1.252,1.629
		s-1.425,0.557-2.403,0.557c-1.166,0-2.099-0.291-2.801-0.875c-0.702-0.582-1.159-1.494-1.37-2.74h13.546
		C717.061,522.15,717.128,521.408,717.128,520.508 M683.004,510.457c-3.285,0-5.848,0.908-7.688,2.721
		c-1.841,1.814-2.761,4.352-2.761,7.607c0,3.285,0.927,5.828,2.781,7.629c1.853,1.801,4.502,2.701,7.944,2.701
		c2.675,0,4.826-0.562,6.455-1.689c1.629-1.125,2.588-2.588,2.881-4.389l-6.078-1.947c-0.318,2.146-1.417,3.217-3.297,3.217
		c-2.622,0-3.934-1.812-3.934-5.441c0-3.734,1.312-5.602,3.934-5.602c1.773,0,2.794,1.141,3.059,3.416l6.275-2.064
		c-0.37-1.828-1.311-3.311-2.819-4.449C688.247,511.027,685.996,510.457,683.004,510.457 M656.467,526.744
		c-0.609,0-1.086-0.145-1.43-0.438c-0.345-0.291-0.517-0.715-0.517-1.27c0-0.557,0.178-0.986,0.536-1.291
		c0.357-0.305,0.96-0.562,1.807-0.775l3.219-0.754v1.707c0,0.85-0.371,1.529-1.112,2.047
		C658.228,526.486,657.394,526.744,656.467,526.744 M668.186,526.863c-0.953,0-1.43-0.516-1.43-1.549v-7.23
		c0-2.541-0.809-4.449-2.423-5.719c-1.616-1.273-3.974-1.908-7.071-1.908c-2.649,0-4.754,0.537-6.317,1.609
		c-1.562,1.072-2.516,2.576-2.859,4.51l5.481,1.588c0.186-1.086,0.597-1.867,1.232-2.344c0.635-0.477,1.456-0.715,2.463-0.715
		c0.874,0,1.562,0.266,2.064,0.795c0.504,0.529,0.756,1.244,0.756,2.145v0.715l-4.489,0.873c-2.755,0.559-4.734,1.359-5.939,2.404
		c-1.205,1.047-1.807,2.418-1.807,4.111c0,1.615,0.529,2.848,1.589,3.695s2.582,1.271,4.568,1.271c3.521,0,5.88-1.02,7.07-3.061
		c0.557,2.041,2.266,3.061,5.125,3.061c1.033,0,1.934-0.213,2.701-0.637l0.518-3.773C669.1,526.812,668.688,526.863,668.186,526.863
		 M622.859,510.457c-1.562,0-2.927,0.352-4.092,1.053c-1.166,0.703-2.066,1.754-2.701,3.158l-0.199-3.812h-6.037v19.861h6.753
		V520.23c0-1.562,0.331-2.723,0.993-3.477c0.661-0.754,1.522-1.133,2.582-1.133c0.9,0,1.596,0.285,2.086,0.854
		c0.489,0.57,0.734,1.531,0.734,2.881v11.361h6.753v-13.229c0-2.25-0.622-3.984-1.867-5.203
		C626.62,511.066,624.951,510.457,622.859,510.457 M593.463,501.4l-2.661,6.873h4.926l4.012-6.873H593.463z M593.86,515.264
		c1.271,0,2.211,0.438,2.82,1.312c0.609,0.873,0.914,2.277,0.914,4.209c0,1.934-0.305,3.338-0.914,4.211
		c-0.609,0.875-1.549,1.311-2.82,1.311c-1.271,0-2.212-0.436-2.82-1.311c-0.609-0.873-0.914-2.277-0.914-4.211
		c0-1.932,0.305-3.336,0.914-4.209C591.648,515.701,592.59,515.264,593.86,515.264 M593.86,510.457
		c-3.311,0-5.886,0.908-7.727,2.721c-1.841,1.814-2.761,4.352-2.761,7.607c0,3.258,0.92,5.795,2.761,7.609
		c1.841,1.812,4.416,2.721,7.727,2.721s5.886-0.908,7.727-2.721c1.841-1.814,2.761-4.352,2.761-7.609
		c0-3.256-0.92-5.793-2.761-7.607C599.746,511.365,597.171,510.457,593.86,510.457 M577.931,510.855h-6.753v19.861h6.753V510.855z
		 M574.555,508.551c1.376,0,2.376-0.258,2.999-0.775c0.622-0.516,0.934-1.33,0.934-2.443c0-1.137-0.312-1.965-0.934-2.482
		c-0.623-0.516-1.623-0.773-2.999-0.773c-1.378,0-2.378,0.258-2.999,0.773c-0.623,0.518-0.934,1.346-0.934,2.482
		c0,1.113,0.311,1.928,0.934,2.443C572.177,508.293,573.177,508.551,574.555,508.551 M556.399,510.457
		c-3.284,0-5.846,0.908-7.687,2.721c-1.841,1.814-2.761,4.352-2.761,7.607c0,3.285,0.927,5.828,2.781,7.629
		c1.854,1.801,4.502,2.701,7.945,2.701c2.675,0,4.827-0.562,6.456-1.689c1.628-1.125,2.588-2.588,2.88-4.389l-6.078-1.947
		c-0.318,2.146-1.417,3.217-3.297,3.217c-2.622,0-3.933-1.812-3.933-5.441c0-3.734,1.311-5.602,3.933-5.602
		c1.774,0,2.793,1.141,3.058,3.416l6.277-2.064c-0.371-1.828-1.311-3.311-2.82-4.449
		C561.644,511.027,559.393,510.457,556.399,510.457 M529.864,526.744c-0.61,0-1.086-0.145-1.43-0.438
		c-0.345-0.291-0.517-0.715-0.517-1.27c0-0.557,0.179-0.986,0.537-1.291c0.357-0.305,0.959-0.562,1.807-0.775l3.218-0.754v1.707
		c0,0.85-0.371,1.529-1.112,2.047C531.625,526.486,530.791,526.744,529.864,526.744 M541.583,526.863
		c-0.954,0-1.43-0.516-1.43-1.549v-7.23c0-2.541-0.808-4.449-2.423-5.719c-1.616-1.273-3.973-1.908-7.072-1.908
		c-2.648,0-4.754,0.537-6.316,1.609c-1.563,1.072-2.516,2.576-2.86,4.51l5.482,1.588c0.185-1.086,0.596-1.867,1.231-2.344
		c0.636-0.477,1.457-0.715,2.463-0.715c0.874,0,1.563,0.266,2.066,0.795s0.755,1.244,0.755,2.145v0.715l-4.489,0.873
		c-2.755,0.559-4.734,1.359-5.939,2.404c-1.205,1.047-1.807,2.418-1.807,4.111c0,1.615,0.529,2.848,1.588,3.695
		s2.583,1.271,4.569,1.271c3.522,0,5.879-1.02,7.071-3.061c0.556,2.041,2.264,3.061,5.125,3.061c1.032,0,1.933-0.213,2.701-0.637
		l0.516-3.773C542.497,526.812,542.086,526.863,541.583,526.863 M509.286,510.457c-1.457,0-2.774,0.344-3.952,1.033
		c-1.179,0.689-2.086,1.682-2.722,2.979c-0.476-1.297-1.264-2.289-2.363-2.979c-1.099-0.689-2.404-1.033-3.913-1.033
		c-1.536,0-2.874,0.357-4.012,1.072c-1.139,0.715-2.026,1.762-2.662,3.139l-0.199-3.812h-6.038v19.861h6.753V520.23
		c0-1.535,0.331-2.688,0.994-3.457c0.661-0.768,1.495-1.152,2.502-1.152c1.801,0,2.702,1.139,2.702,3.418v11.678h6.753v-10.605
		c0-1.457,0.318-2.568,0.953-3.338c0.636-0.768,1.483-1.152,2.543-1.152c1.8,0,2.701,1.139,2.701,3.418v11.678h6.753v-13.229
		c0-2.25-0.629-3.984-1.887-5.203C512.934,511.066,511.299,510.457,509.286,510.457 M477.03,510.457
		c-1.51,0-2.775,0.404-3.794,1.211c-1.02,0.811-1.768,1.967-2.245,3.477l-0.278-4.289h-5.959v19.861h6.754v-10.01
		c0-1.51,0.423-2.668,1.271-3.477c0.847-0.809,1.907-1.211,3.178-1.211c0.503,0,0.979,0.059,1.43,0.178
		c0.45,0.119,0.808,0.258,1.073,0.418l0.715-5.721C478.645,510.604,477.93,510.457,477.03,510.457 M448.785,515.264
		c1.271,0,2.211,0.438,2.821,1.312c0.609,0.873,0.913,2.277,0.913,4.209c0,1.934-0.304,3.338-0.913,4.211
		c-0.61,0.875-1.55,1.311-2.821,1.311s-2.211-0.436-2.82-1.311c-0.61-0.873-0.914-2.277-0.914-4.211
		c0-1.932,0.304-3.336,0.914-4.209C446.574,515.701,447.514,515.264,448.785,515.264 M448.785,510.457
		c-3.311,0-5.886,0.908-7.726,2.721c-1.841,1.814-2.761,4.352-2.761,7.607c0,3.258,0.92,5.795,2.761,7.609
		c1.84,1.812,4.415,2.721,7.726,2.721c3.31,0,5.886-0.908,7.727-2.721c1.84-1.814,2.761-4.352,2.761-7.609
		c0-3.256-0.921-5.793-2.761-7.607C454.671,511.365,452.095,510.457,448.785,510.457 M429.121,509.465
		c0-1.908,1.099-2.861,3.298-2.861c0.926,0,1.681,0.213,2.264,0.637l0.675-4.211c-0.979-0.77-2.502-1.152-4.568-1.152
		c-2.384,0-4.317,0.596-5.8,1.787c-1.484,1.193-2.225,2.98-2.225,5.363v1.828h-3.178v4.807h3.178v15.055h6.754v-15.055h5.641v-4.807
		h-6.039V509.465z M408.345,510.457c-1.563,0-2.927,0.352-4.092,1.053c-1.166,0.703-2.066,1.754-2.701,3.158l-0.199-3.812h-6.038
		v19.861h6.753V520.23c0-1.562,0.331-2.723,0.993-3.477s1.523-1.133,2.582-1.133c0.9,0,1.596,0.285,2.086,0.854
		c0.49,0.57,0.735,1.531,0.735,2.881v11.361h6.753v-13.229c0-2.25-0.622-3.984-1.867-5.203S410.437,510.457,408.345,510.457
		 M388.92,510.855h-6.753v19.861h6.753V510.855z M385.542,508.551c1.377,0,2.377-0.258,2.999-0.775
		c0.622-0.516,0.934-1.33,0.934-2.443c0-1.137-0.312-1.965-0.934-2.482c-0.622-0.516-1.622-0.773-2.999-0.773
		c-1.377,0-2.377,0.258-2.999,0.773c-0.623,0.518-0.934,1.346-0.934,2.482c0,1.113,0.311,1.928,0.934,2.443
		C383.166,508.293,384.166,508.551,385.542,508.551"/>
	<path clip-path="url(#SVGID_2_)" fill="#231F20" d="M1036.196,461.836c2.118,0,3.337,1.297,3.655,3.893h-7.469
		C1032.78,463.133,1034.052,461.836,1036.196,461.836 M1046.168,467.158c0-3.178-0.854-5.646-2.562-7.408s-4.165-2.641-7.369-2.641
		c-3.311,0-5.867,0.898-7.667,2.699c-1.802,1.803-2.702,4.346-2.702,7.629s0.92,5.826,2.762,7.627
		c1.841,1.801,4.495,2.701,7.965,2.701c2.33,0,4.297-0.443,5.898-1.332c1.604-0.887,2.683-2.178,3.238-3.871l-5.482-1.748
		c-0.212,0.715-0.629,1.258-1.251,1.629c-0.623,0.371-1.424,0.555-2.403,0.555c-1.165,0-2.1-0.291-2.801-0.873
		c-0.701-0.584-1.158-1.496-1.37-2.742h13.547C1046.102,468.801,1046.168,468.059,1046.168,467.158 M999.332,477.766
		c3.071,0,5.415-0.602,7.031-1.809c1.615-1.205,2.423-2.773,2.423-4.707c0-1.721-0.642-3.078-1.927-4.072
		c-1.284-0.992-3.383-1.74-6.296-2.244c-1.351-0.264-2.298-0.535-2.84-0.814c-0.544-0.277-0.815-0.615-0.815-1.012
		c0-0.424,0.266-0.781,0.795-1.074c0.529-0.291,1.271-0.438,2.225-0.438c1.218,0,2.265,0.213,3.139,0.637s1.628,1.1,2.264,2.025
		l3.496-3.416c-0.9-1.244-2.072-2.178-3.516-2.801c-1.444-0.621-3.304-0.932-5.581-0.932c-2.066,0-3.821,0.311-5.264,0.932
		c-1.444,0.623-2.522,1.438-3.237,2.443c-0.716,1.008-1.073,2.08-1.073,3.219c0,1.668,0.629,3.006,1.888,4.012
		c1.257,1.006,3.369,1.801,6.336,2.383c1.323,0.266,2.258,0.537,2.801,0.814c0.542,0.279,0.813,0.604,0.813,0.973
		c0,0.424-0.265,0.764-0.794,1.014c-0.531,0.252-1.259,0.379-2.185,0.379c-2.781,0-4.741-0.941-5.88-2.822l-3.495,3.814
		C991.546,476.6,994.776,477.766,999.332,477.766 M975.14,461.914c1.271,0,2.211,0.438,2.821,1.311
		c0.608,0.875,0.912,2.279,0.912,4.213s-0.304,3.336-0.912,4.211c-0.61,0.873-1.551,1.311-2.821,1.311
		c-1.271,0-2.211-0.438-2.82-1.311c-0.61-0.875-0.914-2.277-0.914-4.211s0.304-3.338,0.914-4.213
		C972.929,462.352,973.868,461.914,975.14,461.914 M975.14,457.109c-3.312,0-5.886,0.906-7.728,2.721
		c-1.841,1.814-2.76,4.35-2.76,7.607s0.919,5.793,2.76,7.607c1.842,1.814,4.416,2.721,7.728,2.721c3.31,0,5.886-0.906,7.727-2.721
		c1.84-1.814,2.761-4.35,2.761-7.607s-0.921-5.793-2.761-7.607C981.025,458.016,978.449,457.109,975.14,457.109 M960.481,472.084
		c-0.822,0.584-1.775,0.875-2.861,0.875c-1.748,0-2.622-0.887-2.622-2.662v-7.984h5.959v-4.807h-5.959v-6.316l-6.753,1.867v4.449
		h-3.416v4.807h3.416v9.098c0.026,2.223,0.662,3.84,1.907,4.846c1.244,1.006,3.045,1.51,5.403,1.51c1.032,0,2.058-0.139,3.078-0.418
		c1.019-0.277,1.86-0.641,2.522-1.092L960.481,472.084z M933.666,457.109c-1.562,0-2.927,0.35-4.092,1.051
		c-1.166,0.703-2.065,1.756-2.701,3.158l-0.198-3.812h-6.038v19.861h6.753v-10.486c0-1.562,0.331-2.721,0.993-3.477
		c0.662-0.754,1.522-1.131,2.582-1.131c0.899,0,1.596,0.283,2.086,0.854c0.489,0.57,0.734,1.529,0.734,2.879v11.361h6.753v-13.229
		c0-2.25-0.622-3.984-1.866-5.203C937.427,457.717,935.759,457.109,933.666,457.109 M905.303,461.836
		c2.119,0,3.337,1.297,3.654,3.893h-7.468C901.887,463.133,903.157,461.836,905.303,461.836 M915.273,467.158
		c0-3.178-0.854-5.646-2.562-7.408s-4.165-2.641-7.369-2.641c-3.312,0-5.866,0.898-7.667,2.699
		c-1.802,1.803-2.701,4.346-2.701,7.629s0.92,5.826,2.761,7.627c1.84,1.801,4.495,2.701,7.965,2.701c2.33,0,4.296-0.443,5.899-1.332
		c1.602-0.887,2.681-2.178,3.238-3.871l-5.483-1.748c-0.212,0.715-0.629,1.258-1.251,1.629c-0.623,0.371-1.424,0.555-2.403,0.555
		c-1.166,0-2.1-0.291-2.801-0.873c-0.702-0.584-1.159-1.496-1.371-2.742h13.547C915.207,468.801,915.273,468.059,915.273,467.158
		 M882.818,457.109c-1.457,0-2.775,0.344-3.953,1.031c-1.178,0.689-2.085,1.682-2.721,2.98c-0.477-1.299-1.265-2.291-2.364-2.98
		c-1.099-0.688-2.402-1.031-3.912-1.031c-1.537,0-2.874,0.355-4.013,1.07c-1.139,0.717-2.026,1.764-2.661,3.139l-0.199-3.812h-6.038
		v19.861h6.754v-10.486c0-1.537,0.33-2.688,0.992-3.457c0.662-0.768,1.496-1.15,2.503-1.15c1.802,0,2.701,1.139,2.701,3.416v11.678
		h6.754v-10.605c0-1.457,0.317-2.568,0.953-3.338c0.636-0.768,1.483-1.15,2.542-1.15c1.801,0,2.702,1.139,2.702,3.416v11.678h6.753
		v-13.229c0-2.25-0.629-3.984-1.887-5.203S884.83,457.109,882.818,457.109 M842.021,481.539c-3.681,0-5.522-0.609-5.522-1.828
		c0-0.475,0.232-0.828,0.696-1.051c0.463-0.227,1.237-0.338,2.324-0.338h5.442c0.873,0,1.495,0.104,1.866,0.316
		c0.371,0.211,0.557,0.529,0.557,0.953c0,0.582-0.457,1.055-1.37,1.41C845.1,481.361,843.769,481.539,842.021,481.539
		 M841.702,460.961c0.874,0,1.583,0.266,2.126,0.795c0.542,0.529,0.814,1.232,0.814,2.105c0,0.875-0.272,1.568-0.814,2.086
		c-0.543,0.516-1.252,0.773-2.126,0.773c-0.873,0-1.582-0.258-2.125-0.773c-0.543-0.518-0.813-1.211-0.813-2.086
		c0-0.873,0.271-1.576,0.813-2.105S840.829,460.961,841.702,460.961 M845.477,472.959h-6.753c-1.377,0-2.066-0.451-2.066-1.352
		c0-0.715,0.411-1.178,1.232-1.391c1.112,0.238,2.383,0.357,3.812,0.357c3.072,0,5.456-0.582,7.151-1.746
		c1.695-1.166,2.542-2.822,2.542-4.967c0-2.488-1.112-4.316-3.337-5.482c0.265-0.555,0.696-0.992,1.292-1.311
		c0.595-0.318,1.343-0.477,2.244-0.477c0.212,0,0.582,0.027,1.111,0.08l-0.754-4.49l-0.636-0.039c-1.642,0-2.927,0.504-3.853,1.51
		c-0.929,1.006-1.524,2.303-1.788,3.893c-1.219-0.291-2.542-0.436-3.974-0.436c-3.071,0-5.456,0.588-7.149,1.766
		c-1.695,1.18-2.543,2.842-2.543,4.986c0,2.463,1.086,4.277,3.258,5.441c-1.007,0.346-1.801,0.875-2.384,1.59
		c-0.582,0.715-0.874,1.535-0.874,2.463c0,1.881,1.02,3.258,3.059,4.133c-1.245,0.291-2.172,0.766-2.781,1.43
		c-0.608,0.66-0.913,1.43-0.913,2.303c0,1.484,0.827,2.637,2.483,3.457c1.654,0.82,4.217,1.23,7.688,1.23
		c3.441,0,6.162-0.602,8.162-1.807c1.999-1.205,2.999-2.934,2.999-5.184c0-1.961-0.629-3.443-1.887-4.449
		C849.562,473.461,847.78,472.959,845.477,472.959 M815.484,473.396c-0.609,0-1.086-0.146-1.43-0.438s-0.517-0.715-0.517-1.271
		s0.18-0.986,0.536-1.291c0.358-0.305,0.96-0.562,1.809-0.775l3.217-0.754v1.707c0,0.848-0.371,1.531-1.112,2.047
		C817.245,473.137,816.411,473.396,815.484,473.396 M827.203,473.514c-0.953,0-1.43-0.516-1.43-1.549v-7.229
		c0-2.543-0.808-4.449-2.423-5.723c-1.616-1.27-3.973-1.904-7.071-1.904c-2.648,0-4.754,0.535-6.316,1.607s-2.517,2.576-2.86,4.508
		l5.481,1.59c0.186-1.084,0.597-1.867,1.232-2.344c0.635-0.477,1.456-0.715,2.463-0.715c0.874,0,1.562,0.266,2.066,0.795
		c0.502,0.529,0.754,1.244,0.754,2.145v0.715l-4.489,0.875c-2.754,0.555-4.733,1.357-5.938,2.402
		c-1.205,1.047-1.808,2.418-1.808,4.111c0,1.617,0.529,2.848,1.589,3.695s2.582,1.271,4.568,1.271c3.521,0,5.88-1.02,7.071-3.059
		c0.557,2.039,2.265,3.059,5.125,3.059c1.032,0,1.933-0.213,2.7-0.637l0.518-3.773C828.117,473.461,827.706,473.514,827.203,473.514
		 M801.859,457.109c-1.51,0-2.775,0.402-3.794,1.211c-1.02,0.807-1.768,1.967-2.245,3.475l-0.277-4.289h-5.959v19.861h6.754v-10.01
		c0-1.51,0.423-2.668,1.271-3.477c0.847-0.807,1.907-1.211,3.178-1.211c0.503,0,0.98,0.061,1.431,0.178
		c0.449,0.119,0.808,0.26,1.072,0.418l0.716-5.721C803.475,457.254,802.76,457.109,801.859,457.109 M779.216,456.115
		c0-1.906,1.099-2.861,3.298-2.861c0.926,0,1.681,0.213,2.264,0.637l0.675-4.211c-0.979-0.768-2.502-1.152-4.567-1.152
		c-2.385,0-4.317,0.596-5.801,1.787s-2.225,2.98-2.225,5.363v1.828h-3.178v4.807h3.178v15.055h6.754v-15.055h5.642v-4.807h-6.039
		V456.115z M744.338,477.766c3.071,0,5.416-0.602,7.03-1.809c1.616-1.205,2.425-2.773,2.425-4.707c0-1.721-0.644-3.078-1.928-4.072
		c-1.285-0.992-3.384-1.74-6.296-2.244c-1.351-0.264-2.298-0.535-2.841-0.814c-0.543-0.277-0.814-0.615-0.814-1.012
		c0-0.424,0.265-0.781,0.795-1.074c0.529-0.291,1.271-0.438,2.225-0.438c1.218,0,2.264,0.213,3.138,0.637s1.629,1.1,2.266,2.025
		l3.494-3.416c-0.899-1.244-2.071-2.178-3.515-2.801c-1.444-0.621-3.304-0.932-5.582-0.932c-2.064,0-3.82,0.311-5.263,0.932
		c-1.444,0.623-2.523,1.438-3.238,2.443c-0.715,1.008-1.073,2.08-1.073,3.219c0,1.668,0.629,3.006,1.888,4.012
		c1.258,1.006,3.37,1.801,6.337,2.383c1.324,0.266,2.257,0.537,2.8,0.814c0.543,0.279,0.814,0.604,0.814,0.973
		c0,0.424-0.265,0.764-0.795,1.014c-0.529,0.252-1.258,0.379-2.185,0.379c-2.781,0-4.741-0.941-5.879-2.822l-3.496,3.814
		C736.552,476.6,739.782,477.766,744.338,477.766 M720.146,461.914c1.271,0,2.211,0.438,2.82,1.311
		c0.608,0.875,0.914,2.279,0.914,4.213s-0.306,3.336-0.914,4.211c-0.609,0.873-1.55,1.311-2.82,1.311
		c-1.272,0-2.212-0.438-2.821-1.311c-0.608-0.875-0.914-2.277-0.914-4.211s0.306-3.338,0.914-4.213
		C717.934,462.352,718.873,461.914,720.146,461.914 M720.146,457.109c-3.312,0-5.887,0.906-7.728,2.721s-2.761,4.35-2.761,7.607
		s0.92,5.793,2.761,7.607s4.416,2.721,7.728,2.721c3.31,0,5.885-0.906,7.726-2.721c1.842-1.814,2.762-4.35,2.762-7.607
		s-0.92-5.793-2.762-7.607C726.03,458.016,723.455,457.109,720.146,457.109 M702.705,449.084h-6.753v22.404
		c0,2.199,0.478,3.795,1.431,4.787c0.954,0.994,2.488,1.49,4.607,1.49c0.741,0,1.496-0.094,2.266-0.277
		c0.767-0.186,1.39-0.424,1.866-0.715l0.438-4.174c-0.715,0.24-1.392,0.359-2.026,0.359c-0.688,0-1.166-0.186-1.43-0.557
		c-0.265-0.371-0.398-1.006-0.398-1.906V449.084z M668.543,477.766c3.071,0,5.416-0.602,7.031-1.809
		c1.615-1.205,2.423-2.773,2.423-4.707c0-1.721-0.643-3.078-1.927-4.072c-1.285-0.992-3.383-1.74-6.296-2.244
		c-1.351-0.264-2.298-0.535-2.841-0.814c-0.543-0.277-0.814-0.615-0.814-1.012c0-0.424,0.265-0.781,0.794-1.074
		c0.53-0.291,1.272-0.438,2.226-0.438c1.218,0,2.264,0.213,3.138,0.637s1.629,1.1,2.265,2.025l3.496-3.416
		c-0.9-1.244-2.072-2.178-3.516-2.801c-1.444-0.621-3.304-0.932-5.582-0.932c-2.065,0-3.82,0.311-5.263,0.932
		c-1.444,0.623-2.523,1.438-3.238,2.443c-0.715,1.008-1.072,2.08-1.072,3.219c0,1.668,0.628,3.006,1.888,4.012
		c1.257,1.006,3.368,1.801,6.336,2.383c1.323,0.266,2.257,0.537,2.8,0.814c0.543,0.279,0.814,0.604,0.814,0.973
		c0,0.424-0.265,0.764-0.795,1.014c-0.529,0.252-1.258,0.379-2.185,0.379c-2.78,0-4.741-0.941-5.879-2.822l-3.496,3.814
		C660.757,476.6,663.987,477.766,668.543,477.766 M644.351,461.914c1.271,0,2.211,0.438,2.82,1.311
		c0.608,0.875,0.913,2.279,0.913,4.213s-0.305,3.336-0.913,4.211c-0.609,0.873-1.55,1.311-2.82,1.311
		c-1.271,0-2.212-0.438-2.821-1.311c-0.608-0.875-0.913-2.277-0.913-4.211s0.305-3.338,0.913-4.213
		C642.139,462.352,643.079,461.914,644.351,461.914 M644.351,457.109c-3.312,0-5.886,0.906-7.728,2.721
		c-1.841,1.814-2.761,4.35-2.761,7.607s0.92,5.793,2.761,7.607c1.842,1.814,4.416,2.721,7.728,2.721c3.31,0,5.885-0.906,7.726-2.721
		c1.842-1.814,2.762-4.35,2.762-7.607s-0.92-5.793-2.762-7.607C650.235,458.016,647.66,457.109,644.351,457.109 M617.973,472.799
		c-1.191,0-2.112-0.436-2.76-1.311c-0.65-0.873-0.975-2.225-0.975-4.051c0-1.828,0.324-3.18,0.975-4.053
		c0.647-0.875,1.568-1.311,2.76-1.311c1.086,0,1.953,0.396,2.602,1.191c0.649,0.793,1.014,1.92,1.094,3.377v1.59
		c-0.08,1.482-0.444,2.613-1.094,3.395C619.926,472.41,619.059,472.799,617.973,472.799 M621.668,449.084v11.758
		c-0.584-1.164-1.378-2.078-2.385-2.74c-1.006-0.662-2.211-0.992-3.615-0.992c-2.568,0-4.581,0.912-6.037,2.74
		c-1.457,1.826-2.186,4.383-2.186,7.666c0,3.232,0.721,5.748,2.165,7.549c1.443,1.801,3.45,2.701,6.02,2.701
		c1.482,0,2.786-0.371,3.913-1.113c1.125-0.74,1.979-1.762,2.562-3.059l0.238,3.773h6.078v-28.283H621.668z M592.311,461.914
		c1.271,0,2.211,0.438,2.821,1.311c0.608,0.875,0.913,2.279,0.913,4.213s-0.305,3.336-0.913,4.211
		c-0.61,0.873-1.551,1.311-2.821,1.311c-1.271,0-2.211-0.438-2.82-1.311c-0.609-0.875-0.914-2.277-0.914-4.211
		s0.305-3.338,0.914-4.213C590.1,462.352,591.039,461.914,592.311,461.914 M592.311,457.109c-3.312,0-5.886,0.906-7.726,2.721
		c-1.841,1.814-2.761,4.35-2.761,7.607s0.92,5.793,2.761,7.607c1.84,1.814,4.415,2.721,7.726,2.721c3.311,0,5.886-0.906,7.727-2.721
		c1.84-1.814,2.762-4.35,2.762-7.607s-0.922-5.793-2.762-7.607C598.196,458.016,595.621,457.109,592.311,457.109 M577.652,472.084
		c-0.822,0.584-1.775,0.875-2.861,0.875c-1.748,0-2.621-0.887-2.621-2.662v-7.984h5.958v-4.807h-5.958v-6.316l-6.754,1.867v4.449
		H562v4.807h3.416v9.098c0.026,2.223,0.662,3.84,1.907,4.846c1.245,1.006,3.045,1.51,5.403,1.51c1.033,0,2.059-0.139,3.078-0.418
		c1.02-0.277,1.861-0.641,2.523-1.092L577.652,472.084z M535.941,461.836c2.118,0,3.336,1.297,3.654,3.893h-7.468
		C532.524,463.133,533.795,461.836,535.941,461.836 M545.913,467.158c0-3.178-0.854-5.646-2.563-7.408
		c-1.708-1.762-4.165-2.641-7.369-2.641c-3.311,0-5.866,0.898-7.667,2.699c-1.801,1.803-2.701,4.346-2.701,7.629
		s0.92,5.826,2.761,7.627c1.84,1.801,4.495,2.701,7.965,2.701c2.33,0,4.296-0.443,5.899-1.332c1.602-0.887,2.682-2.178,3.238-3.871
		l-5.482-1.748c-0.213,0.715-0.63,1.258-1.252,1.629c-0.622,0.371-1.424,0.555-2.403,0.555c-1.166,0-2.099-0.291-2.801-0.873
		c-0.702-0.584-1.159-1.496-1.37-2.742h13.546C545.846,468.801,545.913,468.059,545.913,467.158 M509.723,472.799
		c-1.192,0-2.112-0.436-2.761-1.311c-0.649-0.873-0.973-2.225-0.973-4.051c0-1.828,0.324-3.18,0.973-4.053
		c0.649-0.875,1.569-1.311,2.761-1.311c1.086,0,1.953,0.396,2.602,1.191c0.649,0.793,1.013,1.92,1.093,3.377v1.59
		c-0.08,1.482-0.444,2.613-1.093,3.395C511.675,472.41,510.809,472.799,509.723,472.799 M513.417,449.084v11.758
		c-0.583-1.164-1.378-2.078-2.384-2.74c-1.007-0.662-2.211-0.992-3.615-0.992c-2.569,0-4.582,0.912-6.038,2.74
		c-1.457,1.826-2.185,4.383-2.185,7.666c0,3.232,0.721,5.748,2.165,7.549c1.443,1.801,3.449,2.701,6.018,2.701
		c1.483,0,2.787-0.371,3.913-1.113c1.126-0.74,1.98-1.762,2.563-3.059l0.238,3.773h6.078v-28.283H513.417z M470.235,473.396
		c-0.609,0-1.086-0.146-1.43-0.438c-0.345-0.291-0.516-0.715-0.516-1.271s0.178-0.986,0.536-1.291
		c0.357-0.305,0.959-0.562,1.807-0.775l3.218-0.754v1.707c0,0.848-0.371,1.531-1.112,2.047
		C471.997,473.137,471.163,473.396,470.235,473.396 M481.955,473.514c-0.953,0-1.43-0.516-1.43-1.549v-7.229
		c0-2.543-0.808-4.449-2.423-5.723c-1.616-1.27-3.973-1.904-7.071-1.904c-2.649,0-4.754,0.535-6.317,1.607s-2.516,2.576-2.86,4.508
		l5.482,1.59c0.185-1.084,0.596-1.867,1.232-2.344c0.635-0.477,1.456-0.715,2.463-0.715c0.874,0,1.562,0.266,2.065,0.795
		c0.503,0.529,0.755,1.244,0.755,2.145v0.715l-4.489,0.875c-2.755,0.555-4.734,1.357-5.939,2.402
		c-1.205,1.047-1.807,2.418-1.807,4.111c0,1.617,0.529,2.848,1.589,3.695c1.059,0.848,2.582,1.271,4.568,1.271
		c3.522,0,5.879-1.02,7.071-3.059c0.556,2.039,2.265,3.059,5.125,3.059c1.033,0,1.933-0.213,2.701-0.637l0.517-3.773
		C482.869,473.461,482.458,473.514,481.955,473.514 M457.326,472.084c-0.822,0.584-1.775,0.875-2.861,0.875
		c-1.748,0-2.622-0.887-2.622-2.662v-7.984h5.959v-4.807h-5.959v-6.316l-6.753,1.867v4.449h-3.416v4.807h3.416v9.098
		c0.026,2.223,0.662,3.84,1.907,4.846s3.045,1.51,5.403,1.51c1.032,0,2.059-0.139,3.078-0.418c1.02-0.277,1.861-0.641,2.523-1.092
		L457.326,472.084z M429.041,477.766c3.072,0,5.416-0.602,7.032-1.809c1.615-1.205,2.423-2.773,2.423-4.707
		c0-1.721-0.642-3.078-1.927-4.072c-1.284-0.992-3.383-1.74-6.296-2.244c-1.351-0.264-2.298-0.535-2.84-0.814
		c-0.543-0.277-0.815-0.615-0.815-1.012c0-0.424,0.265-0.781,0.795-1.074c0.529-0.291,1.271-0.438,2.224-0.438
		c1.218,0,2.265,0.213,3.139,0.637s1.628,1.1,2.264,2.025l3.496-3.416c-0.901-1.244-2.073-2.178-3.516-2.801
		c-1.444-0.621-3.304-0.932-5.581-0.932c-2.066,0-3.821,0.311-5.264,0.932c-1.444,0.623-2.522,1.438-3.237,2.443
		c-0.716,1.008-1.073,2.08-1.073,3.219c0,1.668,0.629,3.006,1.887,4.012c1.257,1.006,3.37,1.801,6.336,2.383
		c1.324,0.266,2.258,0.537,2.801,0.814c0.542,0.279,0.814,0.604,0.814,0.973c0,0.424-0.265,0.764-0.794,1.014
		c-0.53,0.252-1.259,0.379-2.185,0.379c-2.781,0-4.741-0.941-5.88-2.822l-3.496,3.814
		C421.254,476.6,424.485,477.766,429.041,477.766 M414.422,457.506h-6.753v19.863h6.753V457.506z M411.045,455.201
		c1.377,0,2.377-0.258,3-0.775c0.622-0.516,0.933-1.33,0.933-2.441c0-1.139-0.311-1.967-0.933-2.484
		c-0.623-0.516-1.623-0.775-3-0.775s-2.377,0.26-2.999,0.775c-0.622,0.518-0.933,1.346-0.933,2.484c0,1.111,0.311,1.926,0.933,2.441
		C408.668,454.943,409.668,455.201,411.045,455.201 M389.476,472.084V451.15h-6.833v26.217h19.982v-5.283H389.476z"/>
	<path clip-path="url(#SVGID_2_)" fill="#231F20" d="M223.152,484.816h49.652v52.488h-49.652V484.816z M56.23,299.922v-24.117
		c0-23.17,3.31-45.867,13.24-62.418c9.931-16.551,26.954-27.428,54.854-27.428c26.008,0,43.504,9.932,53.907,25.062
		c10.404,15.605,14.187,37.357,14.187,61.475c0,35.465-13.241,77.551-29.791,116.799c-17.024,39.723-36.885,75.188-50.125,97.412
		h80.861v50.598H54.811v-50.598C70.416,462.592,84.602,438,97.37,413.412c10.876-20.807,21.279-44.449,29.318-68.566
		s14.186-47.76,14.659-69.041c0-9.457-0.473-20.332-2.837-28.371c-2.364-8.039-6.62-14.186-14.186-14.186
		c-7.093,0-11.349,5.199-13.714,12.766c-2.364,8.039-3.31,18.443-3.31,29.791v24.117H56.23z"/>
	<path clip-path="url(#SVGID_2_)" fill="#231F20" d="M915.611,60.555c7.048,0,13.46,0.752,19.236,2.248
		c5.771,1.502,10.834,4.162,15.186,7.988c4.348,3.824,8.099,9.111,11.248,15.861c3.15,6.748,5.737,15.375,7.762,25.871
		c2.025,10.502,3.522,23.1,4.5,37.797c0.975,14.701,1.462,32.023,1.462,51.971c0,19.949-0.487,37.311-1.462,52.082
		c-0.978,14.775-2.475,27.412-4.5,37.908c-2.024,10.5-4.611,19.088-7.762,25.76c-3.149,6.676-6.9,11.963-11.248,15.861
		c-4.352,3.902-9.414,6.562-15.186,7.986c-5.776,1.428-12.188,2.137-19.236,2.137V60.555z M721.005,361.799h250.851
		c23.848,0,45.369-3.561,64.568-10.686c19.197-7.121,35.547-17.471,49.045-31.047c13.499-13.572,23.884-30.26,31.16-50.059
		c7.273-19.797,10.911-42.369,10.911-67.717c0-25.199-3.638-47.658-10.911-67.381c-7.276-19.721-17.661-36.408-31.16-50.059
		c-13.498-13.646-29.848-24.033-49.045-31.158c-19.199-7.123-40.721-10.688-64.568-10.688H721.005v17.549h39.371v283.471h-39.371
		V361.799z"/>
	<polygon clip-path="url(#SVGID_2_)" fill="none" stroke="#231F20" stroke-width="1.998" points="0.999,3 0.999,571.889 
		0.999,573.891 3,573.891 1167.087,573.891 1169.088,573.891 1169.088,571.889 1169.088,3 1169.088,0.998 1167.087,0.998 3,0.998 
		0.999,0.998 	"/>
</g>
<rect x="5.001" y="5.002" fill="none" stroke="#231F20" stroke-width="1.998" width="1160.085" height="564.885"/>
<line fill="none" stroke="#231F20" stroke-width="2" x1="677.637" y1="26.287" x2="677.637" y2="386.305"/>
<line fill="none" stroke="#231F20" stroke-width="2" x1="322.096" y1="178.297" x2="322.096" y2="548.305"/>
</svg>
