<?xml version="1.0" encoding="utf-8"?>
<!-- Generator: Adobe Illustrator 16.0.0, SVG Export Plug-In . SVG Version: 6.00 Build 0)  -->
<!DOCTYPE svg PUBLIC "-//W3C//DTD SVG 1.1//EN" "http://www.w3.org/Graphics/SVG/1.1/DTD/svg11.dtd">
<svg version="1.1" id="Layer_1" xmlns="http://www.w3.org/2000/svg" xmlns:xlink="http://www.w3.org/1999/xlink" x="0px" y="0px"
	 width="1170.09px" height="574.889px" viewBox="0 0 1170.09 574.889" enable-background="new 0 0 1170.09 574.889"
	 xml:space="preserve">
<polygon fill="#0046FA" points="494.188,277.547 494.458,293.492 565.263,293.492 565.263,358.351 565.263,358.891 646.337,285.385 
	646.337,285.114 565.263,212.418 565.263,212.688 565.263,277.547 "/>
<line fill="none" stroke="#0046FA" stroke-width="1.991" x1="482.098" y1="407.302" x2="1144.045" y2="407.302"/>
<line fill="none" stroke="#0046FA" stroke-width="1.991" x1="26.044" y1="157.302" x2="656.639" y2="157.302"/>
<g>
	<defs>
		<rect id="SVGID_47_" width="1170.088" height="574.89"/>
	</defs>
	<clipPath id="SVGID_2_">
		<use xlink:href="#SVGID_47_"  overflow="visible"/>
	</clipPath>
	<path clip-path="url(#SVGID_2_)" fill="#0046FA" d="M619.521,69.574h11.88v-3.24c0-2.579-0.495-5.04-1.485-7.38
		s-2.461-4.41-4.41-6.21c-1.951-1.801-4.364-3.225-7.245-4.275c-2.88-1.049-6.181-1.574-9.899-1.574
		c-3.301,0-6.286,0.449-8.955,1.35c-2.671,0.9-4.95,2.16-6.84,3.779c-1.891,1.621-3.361,3.525-4.41,5.716
		c-1.051,2.19-1.575,4.575-1.575,7.155v0.539c0,3.121,0.54,5.76,1.62,7.92s2.594,3.961,4.545,5.4
		c1.949,1.439,4.244,2.596,6.885,3.465c2.64,0.87,5.549,1.575,8.73,2.115c2.398,0.42,4.379,0.932,5.939,1.53
		c1.56,0.6,2.79,1.274,3.69,2.024c0.9,0.752,1.53,1.59,1.89,2.521c0.36,0.931,0.54,1.905,0.54,2.925c0,2.16-0.871,4.02-2.609,5.58
		c-1.741,1.561-4.41,2.34-8.011,2.34c-4.621,0-8.025-1.125-10.215-3.375c-2.19-2.25-3.285-5.265-3.285-9.045v-2.16h-11.88v2.7
		c0,3.3,0.54,6.345,1.62,9.135s2.669,5.22,4.771,7.29c2.099,2.07,4.725,3.69,7.875,4.86c3.149,1.17,6.795,1.755,10.935,1.755
		c3.539,0,6.719-0.45,9.54-1.35c2.819-0.9,5.22-2.19,7.2-3.871c1.979-1.678,3.494-3.703,4.545-6.074
		c1.049-2.37,1.575-5.025,1.575-7.965v-1.08c0-5.52-1.741-9.689-5.221-12.51c-3.48-2.82-8.521-4.83-15.119-6.03
		c-2.642-0.479-4.815-0.99-6.525-1.53s-3.091-1.154-4.14-1.845c-1.052-0.688-1.786-1.47-2.205-2.341
		c-0.421-0.868-0.63-1.844-0.63-2.924c0-2.101,0.868-3.766,2.609-4.996c1.739-1.229,4.109-1.844,7.11-1.844
		c3.539,0,6.284,0.93,8.234,2.789c1.949,1.86,2.926,4.051,2.926,6.57V69.574z M518.361,59.494h16.74v51.66h11.88v-51.66h16.74
		v-11.34h-45.36V59.494z M474.531,48.154h-23.22v63h11.88V54.094h1.62l7.38,57.061h23.22v-63h-11.88v57.06h-1.62L474.531,48.154z
		 M385.521,111.154h40.86v-11.34h-28.98v-14.58h26.82v-11.34h-26.82v-14.4h27.9v-11.34h-39.78V111.154z M312.441,111.154h10.8
		v-42.12l-1.08-14.4h2.16l4.86,56.521h17.82l4.68-56.521h2.16l-1.08,14.4v42.12h10.8v-63h-20.88l-3.6,47.34v9.18h-2.16v-9.18
		l-3.6-47.34h-20.88V111.154z M281.121,48.154v41.22c0,3.722-0.871,6.63-2.61,8.729c-1.741,2.102-4.471,3.15-8.19,3.15
		c-3.721,0-6.451-1.049-8.19-3.15c-1.741-2.1-2.61-5.008-2.61-8.729v-41.22h-11.88v41.22c0,7.2,1.904,12.84,5.715,16.92
		c3.809,4.081,9.464,6.12,16.965,6.12c7.499,0,13.154-2.039,16.965-6.12c3.809-4.08,5.715-9.72,5.715-16.92v-41.22H281.121z
		 M197.466,100.579c-1.471-0.688-2.655-1.665-3.555-2.925s-1.561-2.745-1.98-4.455c-0.421-1.71-0.63-3.585-0.63-5.625v-15.84
		c0-1.859,0.225-3.646,0.675-5.355c0.45-1.71,1.154-3.209,2.115-4.5c0.959-1.29,2.16-2.309,3.6-3.061
		c1.44-0.75,3.15-1.125,5.13-1.125c2.16,0,3.96,0.375,5.4,1.125c1.44,0.752,2.579,1.726,3.42,2.926c0.839,1.201,1.44,2.551,1.8,4.05
		c0.36,1.5,0.54,3.001,0.54,4.5v1.62h11.88v-1.62c0-3.601-0.495-6.84-1.485-9.72c-0.99-2.881-2.461-5.34-4.41-7.381
		c-1.951-2.038-4.365-3.6-7.245-4.68s-6.181-1.619-9.9-1.619c-3.6,0-6.84,0.584-9.72,1.754c-2.88,1.17-5.341,2.851-7.38,5.041
		c-2.041,2.19-3.6,4.891-4.68,8.1c-1.08,3.21-1.62,6.826-1.62,10.845v14.04c0,8.401,2.099,14.791,6.3,19.17
		c4.199,4.381,9.9,6.57,17.1,6.57c7.499,0,13.214-2.025,17.145-6.075c3.929-4.05,5.895-9.823,5.895-17.325v-1.619h-11.88v1.619
		c0,1.62-0.151,3.195-0.45,4.726c-0.301,1.53-0.855,2.88-1.665,4.05s-1.951,2.102-3.42,2.79c-1.471,0.69-3.346,1.035-5.625,1.035
		C200.72,101.614,198.935,101.27,197.466,100.579 M129.561,100.579c-1.44-0.688-2.61-1.665-3.51-2.925s-1.53-2.76-1.89-4.5
		s-0.54-3.659-0.54-5.76v-15.48c0-1.98,0.209-3.839,0.63-5.58c0.419-1.74,1.08-3.24,1.98-4.5c0.9-1.26,2.07-2.264,3.51-3.016
		c1.44-0.75,3.179-1.125,5.22-1.125c2.039,0,3.78,0.375,5.22,1.125c1.44,0.752,2.61,1.756,3.51,3.016c0.9,1.26,1.559,2.76,1.98,4.5
		c0.419,1.741,0.63,3.6,0.63,5.58v15.48c0,2.101-0.18,4.02-0.54,5.76s-0.99,3.24-1.89,4.5s-2.07,2.236-3.51,2.925
		c-1.44,0.69-3.24,1.035-5.4,1.035C132.801,101.614,131.001,101.27,129.561,100.579 M111.741,86.674
		c0,8.401,2.054,14.791,6.165,19.17c4.109,4.381,9.794,6.57,17.055,6.57c7.259,0,12.944-2.189,17.055-6.57
		c4.109-4.379,6.165-10.769,6.165-19.17v-14.04c0-8.159-2.056-14.489-6.165-18.989c-4.111-4.5-9.796-6.75-17.055-6.75
		c-7.261,0-12.946,2.25-17.055,6.75c-4.111,4.5-6.165,10.83-6.165,18.989V86.674z M61.701,99.814v-40.32h5.04
		c4.14,0,7.034,0.931,8.685,2.79c1.65,1.86,2.475,4.59,2.475,8.19v17.279c0,4.141-0.825,7.186-2.475,9.135
		c-1.651,1.95-4.545,2.926-8.685,2.926H61.701z M43.881,59.494h5.94v40.23h-5.94v11.43h22.86c7.799,0,13.59-1.814,17.37-5.445
		c3.78-3.63,5.67-9.255,5.67-16.875V70.475c0-7.619-1.89-13.244-5.67-16.875c-3.78-3.631-9.571-5.445-17.37-5.445h-22.86V59.494z"/>
	<path clip-path="url(#SVGID_2_)" fill="#231F20" d="M1062.011,529.115c3.071,0,5.415-0.603,7.031-1.808
		c1.614-1.204,2.423-2.773,2.423-4.708c0-1.721-0.643-3.078-1.926-4.071c-1.285-0.993-3.385-1.741-6.297-2.244
		c-1.352-0.265-2.299-0.537-2.841-0.815c-0.543-0.277-0.814-0.614-0.814-1.013c0-0.423,0.265-0.78,0.795-1.072
		c0.529-0.291,1.271-0.437,2.225-0.437c1.218,0,2.265,0.212,3.139,0.635c0.874,0.424,1.628,1.1,2.264,2.026l3.496-3.416
		c-0.901-1.245-2.073-2.179-3.517-2.802c-1.442-0.621-3.304-0.933-5.58-0.933c-2.066,0-3.821,0.312-5.265,0.933
		c-1.442,0.623-2.521,1.438-3.237,2.443c-0.715,1.007-1.072,2.08-1.072,3.218c0,1.669,0.629,3.006,1.887,4.014
		c1.258,1.006,3.37,1.801,6.336,2.383c1.324,0.265,2.258,0.536,2.801,0.813c0.542,0.278,0.814,0.604,0.814,0.975
		c0,0.424-0.266,0.761-0.794,1.013c-0.53,0.252-1.258,0.377-2.186,0.377c-2.78,0-4.74-0.939-5.88-2.82l-3.495,3.813
		C1054.224,527.95,1057.455,529.115,1062.011,529.115 M1038.454,513.185c2.118,0,3.337,1.299,3.654,3.894h-7.469
		C1035.038,514.483,1036.309,513.185,1038.454,513.185 M1048.425,518.508c0-3.178-0.854-5.646-2.562-7.408
		c-1.709-1.761-4.166-2.642-7.369-2.642c-3.312,0-5.867,0.9-7.667,2.701c-1.803,1.801-2.702,4.344-2.702,7.627
		c0,3.285,0.92,5.827,2.761,7.628s4.496,2.701,7.965,2.701c2.33,0,4.297-0.443,5.899-1.331c1.602-0.887,2.682-2.178,3.238-3.873
		l-5.482-1.748c-0.212,0.715-0.629,1.258-1.251,1.629c-0.623,0.371-1.424,0.556-2.404,0.556c-1.165,0-2.099-0.291-2.8-0.874
		c-0.702-0.582-1.159-1.495-1.371-2.74h13.547C1048.358,520.151,1048.425,519.409,1048.425,518.508 M1014.301,508.458
		c-3.284,0-5.846,0.907-7.688,2.721c-1.841,1.814-2.761,4.351-2.761,7.607c0,3.285,0.927,5.827,2.781,7.628
		c1.853,1.801,4.502,2.701,7.945,2.701c2.675,0,4.827-0.562,6.455-1.688c1.629-1.126,2.589-2.589,2.881-4.39l-6.078-1.946
		c-0.318,2.146-1.417,3.217-3.298,3.217c-2.621,0-3.933-1.812-3.933-5.441c0-3.734,1.312-5.602,3.933-5.602
		c1.773,0,2.794,1.14,3.059,3.416l6.277-2.065c-0.371-1.827-1.312-3.311-2.821-4.449
		C1019.545,509.028,1017.294,508.458,1014.301,508.458 M998.648,508.458c-1.509,0-2.773,0.404-3.793,1.211
		c-1.02,0.81-1.768,1.967-2.245,3.477l-0.277-4.29h-5.959v19.862h6.754v-10.011c0-1.51,0.423-2.668,1.271-3.476
		c0.848-0.809,1.907-1.212,3.179-1.212c0.503,0,0.979,0.06,1.43,0.179c0.45,0.119,0.807,0.258,1.072,0.417l0.716-5.72
		C1000.264,508.604,999.549,508.458,998.648,508.458 M973.186,508.855v10.526c0,1.537-0.332,2.683-0.994,3.438
		c-0.662,0.754-1.549,1.132-2.66,1.132c-0.928,0-1.616-0.265-2.066-0.795c-0.451-0.529-0.675-1.443-0.675-2.741v-11.56h-6.754
		v13.268c0,2.411,0.603,4.178,1.808,5.304s2.866,1.688,4.986,1.688c3.336,0,5.627-1.364,6.872-4.092l0.198,3.694h6.038v-19.862
		H973.186z M944.186,513.265c1.272,0,2.211,0.438,2.821,1.312c0.609,0.873,0.914,2.278,0.914,4.21c0,1.934-0.305,3.337-0.914,4.211
		c-0.61,0.874-1.549,1.311-2.821,1.311c-1.271,0-2.211-0.437-2.819-1.311c-0.61-0.874-0.914-2.277-0.914-4.211
		c0-1.932,0.304-3.337,0.914-4.21C941.975,513.702,942.915,513.265,944.186,513.265 M944.186,508.458
		c-3.31,0-5.886,0.907-7.726,2.721c-1.841,1.814-2.761,4.351-2.761,7.607c0,3.258,0.92,5.794,2.761,7.608
		c1.84,1.813,4.416,2.721,7.726,2.721c3.312,0,5.887-0.907,7.728-2.721c1.84-1.814,2.761-4.351,2.761-7.608
		c0-3.257-0.921-5.793-2.761-7.607C950.072,509.365,947.497,508.458,944.186,508.458 M920.231,529.115
		c3.072,0,5.416-0.603,7.031-1.808c1.616-1.204,2.424-2.773,2.424-4.708c0-1.721-0.643-3.078-1.927-4.071
		c-1.285-0.993-3.383-1.741-6.296-2.244c-1.351-0.265-2.298-0.537-2.841-0.815c-0.543-0.277-0.814-0.614-0.814-1.013
		c0-0.423,0.265-0.78,0.794-1.072c0.53-0.291,1.272-0.437,2.226-0.437c1.218,0,2.264,0.212,3.138,0.635
		c0.874,0.424,1.629,1.1,2.265,2.026l3.496-3.416c-0.9-1.245-2.072-2.179-3.516-2.802c-1.444-0.621-3.304-0.933-5.582-0.933
		c-2.065,0-3.82,0.312-5.263,0.933c-1.444,0.623-2.523,1.438-3.238,2.443c-0.715,1.007-1.072,2.08-1.072,3.218
		c0,1.669,0.628,3.006,1.887,4.014c1.258,1.006,3.369,1.801,6.337,2.383c1.323,0.265,2.257,0.536,2.8,0.813
		c0.543,0.278,0.814,0.604,0.814,0.975c0,0.424-0.265,0.761-0.795,1.013s-1.258,0.377-2.185,0.377c-2.781,0-4.741-0.939-5.879-2.82
		l-3.496,3.813C912.445,527.95,915.677,529.115,920.231,529.115 M893.934,523.434c-0.82,0.583-1.774,0.874-2.859,0.874
		c-1.748,0-2.622-0.887-2.622-2.66v-7.985h5.959v-4.807h-5.959v-6.316l-6.753,1.867v4.449h-3.417v4.807h3.417v9.097
		c0.025,2.226,0.66,3.84,1.906,4.847c1.244,1.007,3.045,1.51,5.402,1.51c1.033,0,2.059-0.14,3.079-0.417
		c1.019-0.278,1.86-0.643,2.521-1.093L893.934,523.434z M867.001,508.855v10.526c0,1.537-0.332,2.683-0.994,3.438
		c-0.662,0.754-1.549,1.132-2.661,1.132c-0.927,0-1.616-0.265-2.066-0.795c-0.45-0.529-0.675-1.443-0.675-2.741v-11.56h-6.754
		v13.268c0,2.411,0.604,4.178,1.809,5.304c1.204,1.126,2.865,1.688,4.984,1.688c3.337,0,5.628-1.364,6.873-4.092l0.199,3.694h6.038
		v-19.862H867.001z M838.001,513.265c1.271,0,2.211,0.438,2.821,1.312c0.608,0.873,0.913,2.278,0.913,4.21
		c0,1.934-0.305,3.337-0.913,4.211c-0.61,0.874-1.55,1.311-2.821,1.311s-2.211-0.437-2.82-1.311
		c-0.61-0.874-0.914-2.277-0.914-4.211c0-1.932,0.304-3.337,0.914-4.21C835.79,513.702,836.729,513.265,838.001,513.265
		 M838.001,508.458c-3.312,0-5.886,0.907-7.727,2.721c-1.841,1.814-2.761,4.351-2.761,7.607c0,3.258,0.92,5.794,2.761,7.608
		c1.841,1.813,4.415,2.721,7.727,2.721c3.311,0,5.886-0.907,7.727-2.721c1.84-1.814,2.761-4.351,2.761-7.608
		c0-3.257-0.921-5.793-2.761-7.607C843.887,509.365,841.312,508.458,838.001,508.458 M812.339,524.149
		c-1.139,0-2.033-0.438-2.681-1.312c-0.65-0.874-0.975-2.158-0.975-3.853v-0.397c0-1.642,0.318-2.913,0.954-3.813
		c0.635-0.9,1.535-1.352,2.701-1.352c1.192,0,2.112,0.438,2.761,1.312c0.649,0.874,0.974,2.225,0.974,4.052
		c0,1.828-0.324,3.178-0.974,4.052C814.451,523.712,813.531,524.149,812.339,524.149 M814.683,508.458
		c-1.403,0-2.616,0.331-3.635,0.993c-1.021,0.662-1.807,1.576-2.364,2.741v-11.76h-6.753v28.285h5.919l0.199-4.211
		c0.556,1.404,1.41,2.522,2.562,3.357c1.152,0.834,2.51,1.251,4.072,1.251c2.595,0,4.608-0.9,6.038-2.701s2.146-4.317,2.146-7.548
		c0-3.284-0.729-5.84-2.186-7.667C819.225,509.372,817.225,508.458,814.683,508.458 M784.729,524.745
		c-0.608,0-1.086-0.146-1.43-0.438c-0.344-0.291-0.516-0.715-0.516-1.271s0.178-0.986,0.536-1.291
		c0.356-0.304,0.959-0.562,1.807-0.775l3.218-0.754v1.708c0,0.849-0.371,1.529-1.112,2.046S785.657,524.745,784.729,524.745
		 M796.449,524.864c-0.953,0-1.431-0.517-1.431-1.549v-7.23c0-2.542-0.808-4.449-2.423-5.72c-1.616-1.272-3.973-1.907-7.071-1.907
		c-2.648,0-4.754,0.536-6.316,1.609c-1.563,1.071-2.517,2.575-2.86,4.509l5.482,1.589c0.185-1.086,0.596-1.868,1.231-2.344
		c0.636-0.478,1.456-0.715,2.463-0.715c0.874,0,1.562,0.265,2.065,0.794s0.755,1.245,0.755,2.145v0.715l-4.489,0.874
		c-2.754,0.558-4.733,1.358-5.938,2.404s-1.808,2.417-1.808,4.111c0,1.615,0.529,2.848,1.59,3.694
		c1.059,0.849,2.582,1.271,4.567,1.271c3.522,0,5.88-1.02,7.071-3.06c0.556,2.04,2.265,3.06,5.125,3.06
		c1.033,0,1.933-0.212,2.701-0.636l0.517-3.773C797.363,524.812,796.952,524.864,796.449,524.864 M751.123,508.458
		c-1.563,0-2.928,0.351-4.092,1.053c-1.166,0.702-2.066,1.754-2.701,3.158l-0.199-3.813h-6.038v19.862h6.753V518.23
		c0-1.562,0.331-2.722,0.993-3.477c0.662-0.754,1.522-1.132,2.583-1.132c0.9,0,1.595,0.285,2.085,0.854
		c0.49,0.57,0.735,1.53,0.735,2.881v11.361h6.753v-13.229c0-2.25-0.622-3.985-1.867-5.204
		C754.883,509.067,753.215,508.458,751.123,508.458 M722.124,513.265c1.271,0,2.211,0.438,2.819,1.312
		c0.609,0.873,0.914,2.278,0.914,4.21c0,1.934-0.305,3.337-0.914,4.211c-0.608,0.874-1.549,1.311-2.819,1.311
		c-1.271,0-2.212-0.437-2.821-1.311s-0.913-2.277-0.913-4.211c0-1.932,0.304-3.337,0.913-4.21
		C719.912,513.702,720.853,513.265,722.124,513.265 M722.124,508.458c-3.312,0-5.886,0.907-7.728,2.721
		c-1.841,1.814-2.761,4.351-2.761,7.607c0,3.258,0.92,5.794,2.761,7.608c1.842,1.813,4.416,2.721,7.728,2.721
		c3.31,0,5.885-0.907,7.726-2.721c1.841-1.814,2.761-4.351,2.761-7.608c0-3.257-0.92-5.793-2.761-7.607
		C728.009,509.365,725.434,508.458,722.124,508.458 M706.193,508.855h-6.753v19.862h6.753V508.855z M702.817,506.551
		c1.377,0,2.376-0.258,2.999-0.774c0.622-0.517,0.935-1.33,0.935-2.443c0-1.138-0.312-1.966-0.935-2.483
		c-0.623-0.516-1.622-0.773-2.999-0.773c-1.378,0-2.378,0.258-2.999,0.773c-0.623,0.518-0.934,1.346-0.934,2.483
		c0,1.113,0.311,1.927,0.934,2.443C700.439,506.293,701.439,506.551,702.817,506.551 M694.316,523.434
		c-0.821,0.583-1.774,0.874-2.86,0.874c-1.747,0-2.621-0.887-2.621-2.66v-7.985h5.958v-4.807h-5.958v-6.316l-6.754,1.867v4.449
		h-3.416v4.807h3.416v9.097c0.025,2.226,0.662,3.84,1.907,4.847c1.244,1.007,3.045,1.51,5.402,1.51c1.033,0,2.06-0.14,3.078-0.417
		c1.02-0.278,1.861-0.643,2.523-1.093L694.316,523.434z M664.165,524.745c-0.61,0-1.086-0.146-1.431-0.438
		c-0.345-0.291-0.517-0.715-0.517-1.271s0.179-0.986,0.537-1.291c0.356-0.304,0.959-0.562,1.807-0.775l3.218-0.754v1.708
		c0,0.849-0.37,1.529-1.111,2.046C665.926,524.487,665.092,524.745,664.165,524.745 M675.884,524.864
		c-0.954,0-1.43-0.517-1.43-1.549v-7.23c0-2.542-0.809-4.449-2.423-5.72c-1.616-1.272-3.974-1.907-7.072-1.907
		c-2.648,0-4.754,0.536-6.316,1.609c-1.562,1.071-2.516,2.575-2.859,4.509l5.481,1.589c0.186-1.086,0.596-1.868,1.231-2.344
		c0.636-0.478,1.457-0.715,2.463-0.715c0.874,0,1.562,0.265,2.065,0.794s0.755,1.245,0.755,2.145v0.715l-4.488,0.874
		c-2.755,0.558-4.734,1.358-5.939,2.404s-1.807,2.417-1.807,4.111c0,1.615,0.529,2.848,1.588,3.694
		c1.059,0.849,2.583,1.271,4.569,1.271c3.521,0,5.879-1.02,7.07-3.06c0.557,2.04,2.265,3.06,5.125,3.06
		c1.032,0,1.934-0.212,2.701-0.636l0.517-3.773C676.798,524.812,676.387,524.864,675.884,524.864 M643.587,508.458
		c-1.456,0-2.774,0.344-3.952,1.033c-1.179,0.688-2.086,1.682-2.721,2.979c-0.478-1.297-1.266-2.29-2.364-2.979
		c-1.099-0.689-2.404-1.033-3.913-1.033c-1.536,0-2.874,0.357-4.012,1.072c-1.14,0.715-2.026,1.762-2.662,3.139l-0.199-3.813h-6.038
		v19.862h6.753V518.23c0-1.535,0.331-2.688,0.994-3.456c0.661-0.769,1.495-1.152,2.502-1.152c1.801,0,2.702,1.139,2.702,3.417
		v11.679h6.753v-10.606c0-1.456,0.318-2.568,0.953-3.337c0.636-0.769,1.483-1.152,2.543-1.152c1.8,0,2.701,1.139,2.701,3.417v11.679
		h6.753v-13.229c0-2.25-0.629-3.985-1.887-5.204C647.234,509.067,645.6,508.458,643.587,508.458 M611.331,508.458
		c-1.511,0-2.775,0.404-3.794,1.211c-1.021,0.81-1.769,1.967-2.245,3.477l-0.278-4.29h-5.959v19.862h6.754v-10.011
		c0-1.51,0.423-2.668,1.271-3.476c0.847-0.809,1.906-1.212,3.178-1.212c0.503,0,0.979,0.06,1.43,0.179
		c0.45,0.119,0.809,0.258,1.073,0.417l0.715-5.72C612.945,508.604,612.23,508.458,611.331,508.458 M583.086,513.265
		c1.271,0,2.211,0.438,2.821,1.312c0.609,0.873,0.913,2.278,0.913,4.21c0,1.934-0.304,3.337-0.913,4.211
		c-0.61,0.874-1.55,1.311-2.821,1.311c-1.271,0-2.211-0.437-2.82-1.311c-0.61-0.874-0.914-2.277-0.914-4.211
		c0-1.932,0.304-3.337,0.914-4.21C580.875,513.702,581.814,513.265,583.086,513.265 M583.086,508.458
		c-3.311,0-5.886,0.907-7.726,2.721c-1.841,1.814-2.761,4.351-2.761,7.607c0,3.258,0.92,5.794,2.761,7.608
		c1.84,1.813,4.415,2.721,7.726,2.721c3.31,0,5.886-0.907,7.727-2.721c1.84-1.814,2.762-4.351,2.762-7.608
		c0-3.257-0.922-5.793-2.762-7.607C588.972,509.365,586.396,508.458,583.086,508.458 M563.422,507.465
		c0-1.907,1.099-2.86,3.298-2.86c0.926,0,1.681,0.213,2.264,0.636l0.675-4.211c-0.98-0.769-2.502-1.152-4.568-1.152
		c-2.384,0-4.317,0.596-5.8,1.788c-1.484,1.192-2.225,2.979-2.225,5.363v1.827h-3.178v4.807h3.178v15.056h6.754v-15.056h5.641
		v-4.807h-6.039V507.465z M542.646,508.458c-1.562,0-2.927,0.351-4.092,1.053c-1.166,0.702-2.066,1.754-2.701,3.158l-0.199-3.813
		h-6.038v19.862h6.753V518.23c0-1.562,0.331-2.722,0.993-3.477c0.662-0.754,1.523-1.132,2.582-1.132c0.9,0,1.596,0.285,2.086,0.854
		c0.49,0.57,0.735,1.53,0.735,2.881v11.361h6.753v-13.229c0-2.25-0.622-3.985-1.867-5.204
		C546.406,509.067,544.738,508.458,542.646,508.458 M523.221,508.855h-6.753v19.862h6.753V508.855z M519.844,506.551
		c1.377,0,2.377-0.258,2.999-0.774s0.934-1.33,0.934-2.443c0-1.138-0.312-1.966-0.934-2.483c-0.622-0.516-1.622-0.773-2.999-0.773
		s-2.377,0.258-2.999,0.773c-0.623,0.518-0.934,1.346-0.934,2.483c0,1.113,0.311,1.927,0.934,2.443
		C517.467,506.293,518.467,506.551,519.844,506.551"/>
	<path clip-path="url(#SVGID_2_)" fill="#231F20" d="M1085.17,470.8c-1.192,0-2.112-0.437-2.762-1.311
		c-0.648-0.874-0.973-2.226-0.973-4.052c0-1.827,0.324-3.179,0.973-4.053c0.649-0.874,1.569-1.311,2.762-1.311
		c1.086,0,1.953,0.396,2.602,1.191c0.648,0.794,1.013,1.921,1.092,3.377v1.59c-0.079,1.482-0.443,2.614-1.092,3.396
		C1087.123,470.41,1086.256,470.8,1085.17,470.8 M1088.863,447.084v11.759c-0.583-1.165-1.377-2.079-2.383-2.74
		c-1.007-0.662-2.212-0.993-3.615-0.993c-2.568,0-4.582,0.913-6.037,2.74c-1.457,1.827-2.187,4.384-2.187,7.667
		c0,3.231,0.722,5.747,2.166,7.548c1.443,1.802,3.449,2.701,6.018,2.701c1.483,0,2.787-0.37,3.913-1.112
		c1.125-0.741,1.979-1.762,2.562-3.059l0.238,3.773h6.078v-28.284H1088.863z M1062.287,455.109c-1.562,0-2.926,0.351-4.092,1.052
		c-1.165,0.702-2.064,1.755-2.701,3.158l-0.197-3.813h-6.039v19.862h6.754v-10.487c0-1.562,0.33-2.721,0.993-3.476
		c0.661-0.755,1.521-1.132,2.582-1.132c0.899,0,1.595,0.284,2.086,0.854c0.489,0.57,0.733,1.529,0.733,2.88v11.361h6.754V462.14
		c0-2.251-0.623-3.985-1.866-5.203C1066.048,455.718,1064.38,455.109,1062.287,455.109 M1032.057,471.396
		c-0.609,0-1.086-0.146-1.43-0.438c-0.345-0.291-0.517-0.715-0.517-1.271c0-0.557,0.179-0.987,0.536-1.291
		c0.358-0.305,0.96-0.563,1.809-0.775l3.218-0.755v1.708c0,0.848-0.372,1.53-1.113,2.046
		C1033.817,471.138,1032.983,471.396,1032.057,471.396 M1043.776,471.515c-0.954,0-1.431-0.516-1.431-1.549v-7.229
		c0-2.543-0.809-4.449-2.423-5.722c-1.616-1.271-3.973-1.905-7.071-1.905c-2.649,0-4.754,0.536-6.316,1.607
		c-1.562,1.073-2.517,2.576-2.86,4.509l5.481,1.59c0.186-1.085,0.597-1.867,1.232-2.345c0.636-0.476,1.456-0.715,2.463-0.715
		c0.874,0,1.562,0.266,2.066,0.795c0.502,0.53,0.755,1.245,0.755,2.146v0.715l-4.49,0.874c-2.754,0.556-4.734,1.357-5.938,2.403
		c-1.205,1.047-1.808,2.418-1.808,4.111c0,1.616,0.529,2.848,1.589,3.695c1.06,0.847,2.582,1.271,4.568,1.271
		c3.521,0,5.88-1.019,7.072-3.059c0.556,2.04,2.264,3.059,5.123,3.059c1.033,0,1.934-0.213,2.701-0.636l0.518-3.773
		C1044.689,471.462,1044.278,471.515,1043.776,471.515 M997.1,475.766c3.072,0,5.415-0.602,7.031-1.808
		c1.615-1.205,2.423-2.774,2.423-4.707c0-1.721-0.642-3.079-1.926-4.072c-1.285-0.992-3.385-1.74-6.298-2.245
		c-1.351-0.264-2.298-0.535-2.84-0.813c-0.543-0.278-0.814-0.616-0.814-1.013c0-0.424,0.265-0.781,0.795-1.073
		c0.529-0.291,1.271-0.438,2.225-0.438c1.217,0,2.265,0.213,3.139,0.637s1.629,1.099,2.264,2.025l3.496-3.416
		c-0.901-1.245-2.072-2.178-3.517-2.801c-1.442-0.622-3.304-0.933-5.581-0.933c-2.065,0-3.82,0.311-5.264,0.933
		c-1.442,0.623-2.521,1.438-3.236,2.443c-0.716,1.007-1.073,2.08-1.073,3.218c0,1.668,0.629,3.006,1.887,4.012
		c1.258,1.007,3.37,1.802,6.336,2.384c1.324,0.266,2.258,0.536,2.801,0.814c0.542,0.278,0.814,0.603,0.814,0.973
		c0,0.424-0.265,0.763-0.794,1.014c-0.53,0.252-1.258,0.378-2.186,0.378c-2.78,0-4.74-0.94-5.88-2.821l-3.495,3.814
		C989.312,474.601,992.544,475.766,997.1,475.766 M983.752,470.085c-0.821,0.583-1.775,0.874-2.86,0.874
		c-1.748,0-2.622-0.887-2.622-2.662v-7.983h5.959v-4.808h-5.959v-6.316l-6.753,1.867v4.449H968.1v4.808h3.417v9.097
		c0.026,2.224,0.661,3.84,1.906,4.846c1.245,1.007,3.046,1.51,5.402,1.51c1.033,0,2.06-0.139,3.079-0.417
		c1.02-0.277,1.86-0.642,2.522-1.093L983.752,470.085z M956.937,455.109c-1.562,0-2.926,0.351-4.092,1.052
		c-1.165,0.702-2.065,1.755-2.701,3.158l-0.198-3.813h-6.039v19.862h6.754v-10.487c0-1.562,0.33-2.721,0.993-3.476
		c0.661-0.755,1.522-1.132,2.582-1.132c0.9,0,1.595,0.284,2.085,0.854c0.49,0.57,0.735,1.529,0.735,2.88v11.361h6.754V462.14
		c0-2.251-0.623-3.985-1.867-5.203C960.696,455.718,959.028,455.109,956.937,455.109 M928.573,459.836
		c2.118,0,3.337,1.298,3.655,3.894h-7.469C925.156,461.134,926.429,459.836,928.573,459.836 M938.545,465.159
		c0-3.178-0.854-5.647-2.562-7.409c-1.709-1.761-4.165-2.641-7.369-2.641c-3.311,0-5.867,0.899-7.667,2.7
		c-1.802,1.802-2.702,4.345-2.702,7.628s0.921,5.826,2.762,7.627c1.841,1.802,4.495,2.701,7.965,2.701
		c2.33,0,4.297-0.442,5.898-1.331c1.603-0.887,2.683-2.178,3.238-3.872l-5.481-1.748c-0.212,0.715-0.63,1.258-1.251,1.629
		c-0.623,0.371-1.425,0.556-2.404,0.556c-1.166,0-2.1-0.291-2.801-0.874c-0.702-0.583-1.158-1.496-1.37-2.741h13.546
		C938.479,466.801,938.545,466.06,938.545,465.159 M906.089,455.109c-1.456,0-2.774,0.344-3.952,1.031
		c-1.179,0.689-2.086,1.683-2.721,2.98c-0.478-1.298-1.266-2.291-2.364-2.98c-1.1-0.688-2.403-1.031-3.913-1.031
		c-1.536,0-2.874,0.356-4.012,1.071c-1.14,0.716-2.026,1.763-2.662,3.139l-0.198-3.813h-6.039v19.862h6.754v-10.487
		c0-1.536,0.33-2.688,0.993-3.456c0.661-0.768,1.496-1.151,2.502-1.151c1.801,0,2.702,1.139,2.702,3.416v11.679h6.753v-10.606
		c0-1.456,0.318-2.568,0.954-3.337c0.635-0.768,1.481-1.151,2.542-1.151c1.801,0,2.701,1.139,2.701,3.416v11.679h6.754V462.14
		c0-2.251-0.63-3.985-1.887-5.203C909.736,455.718,908.102,455.109,906.089,455.109 M865.292,479.54
		c-3.683,0-5.522-0.61-5.522-1.828c0-0.476,0.231-0.828,0.695-1.052c0.463-0.227,1.237-0.338,2.324-0.338h5.441
		c0.874,0,1.496,0.104,1.868,0.317c0.37,0.211,0.556,0.529,0.556,0.953c0,0.582-0.457,1.054-1.371,1.41
		C868.371,479.361,867.04,479.54,865.292,479.54 M864.974,458.962c0.874,0,1.582,0.266,2.125,0.794
		c0.543,0.53,0.815,1.232,0.815,2.106s-0.272,1.568-0.815,2.085s-1.251,0.774-2.125,0.774s-1.583-0.258-2.125-0.774
		c-0.543-0.517-0.815-1.211-0.815-2.085s0.272-1.576,0.815-2.106C863.391,459.228,864.1,458.962,864.974,458.962 M868.748,470.959
		h-6.754c-1.378,0-2.065-0.45-2.065-1.351c0-0.716,0.41-1.179,1.23-1.391c1.113,0.238,2.385,0.357,3.814,0.357
		c3.072,0,5.455-0.582,7.151-1.747c1.693-1.166,2.542-2.821,2.542-4.966c0-2.489-1.112-4.317-3.337-5.482
		c0.264-0.556,0.694-0.993,1.291-1.311c0.596-0.318,1.344-0.478,2.244-0.478c0.211,0,0.582,0.027,1.112,0.08l-0.755-4.489
		l-0.636-0.04c-1.643,0-2.927,0.504-3.854,1.51c-0.927,1.007-1.522,2.304-1.788,3.893c-1.218-0.291-2.542-0.436-3.972-0.436
		c-3.073,0-5.456,0.589-7.151,1.767c-1.694,1.179-2.542,2.841-2.542,4.986c0,2.463,1.086,4.276,3.257,5.441
		c-1.006,0.346-1.801,0.874-2.383,1.589c-0.583,0.716-0.874,1.536-0.874,2.464c0,1.881,1.02,3.258,3.06,4.132
		c-1.245,0.291-2.172,0.767-2.781,1.43c-0.61,0.661-0.914,1.43-0.914,2.304c0,1.483,0.828,2.636,2.483,3.456
		c1.654,0.821,4.217,1.231,7.687,1.231c3.442,0,6.164-0.603,8.164-1.807c1.999-1.205,2.999-2.935,2.999-5.185
		c0-1.96-0.63-3.443-1.887-4.449C872.833,471.462,871.052,470.959,868.748,470.959 M838.756,471.396
		c-0.61,0-1.086-0.146-1.431-0.438c-0.345-0.291-0.517-0.715-0.517-1.271c0-0.557,0.179-0.987,0.537-1.291
		c0.356-0.305,0.959-0.563,1.807-0.775l3.219-0.755v1.708c0,0.848-0.371,1.53-1.113,2.046
		C840.517,471.138,839.683,471.396,838.756,471.396 M850.475,471.515c-0.954,0-1.43-0.516-1.43-1.549v-7.229
		c0-2.543-0.81-4.449-2.424-5.722c-1.615-1.271-3.973-1.905-7.071-1.905c-2.648,0-4.754,0.536-6.316,1.607
		c-1.562,1.073-2.516,2.576-2.859,4.509l5.481,1.59c0.186-1.085,0.596-1.867,1.231-2.345c0.636-0.476,1.456-0.715,2.463-0.715
		c0.874,0,1.562,0.266,2.065,0.795c0.503,0.53,0.756,1.245,0.756,2.146v0.715l-4.489,0.874c-2.755,0.556-4.734,1.357-5.939,2.403
		c-1.206,1.047-1.808,2.418-1.808,4.111c0,1.616,0.53,2.848,1.589,3.695c1.059,0.847,2.583,1.271,4.569,1.271
		c3.521,0,5.879-1.019,7.07-3.059c0.557,2.04,2.265,3.059,5.125,3.059c1.032,0,1.933-0.213,2.701-0.636l0.516-3.773
		C851.388,471.462,850.978,471.515,850.475,471.515 M825.13,455.109c-1.509,0-2.774,0.403-3.794,1.211s-1.768,1.967-2.244,3.476
		l-0.278-4.29h-5.959v19.862h6.753v-10.01c0-1.511,0.424-2.668,1.272-3.477c0.847-0.808,1.905-1.212,3.178-1.212
		c0.502,0,0.979,0.061,1.43,0.179c0.45,0.119,0.808,0.259,1.072,0.417l0.715-5.721C826.744,455.254,826.029,455.109,825.13,455.109
		 M802.486,454.115c0-1.906,1.1-2.86,3.297-2.86c0.928,0,1.683,0.212,2.266,0.636l0.675-4.211c-0.98-0.768-2.503-1.151-4.569-1.151
		c-2.383,0-4.316,0.596-5.799,1.787c-1.484,1.191-2.225,2.979-2.225,5.362v1.828h-3.179v4.808h3.179v15.055h6.753v-15.055h5.641
		v-4.808h-6.038V454.115z M774.798,447.084h-6.753v22.405c0,2.199,0.477,3.794,1.43,4.787s2.489,1.489,4.608,1.489
		c0.74,0,1.495-0.093,2.265-0.277c0.767-0.186,1.39-0.424,1.867-0.715l0.437-4.173c-0.715,0.239-1.391,0.358-2.025,0.358
		c-0.689,0-1.166-0.185-1.431-0.556c-0.266-0.371-0.397-1.006-0.397-1.907V447.084z M760.219,447.084h-6.753v22.405
		c0,2.199,0.477,3.794,1.43,4.787s2.489,1.489,4.608,1.489c0.74,0,1.496-0.093,2.265-0.277c0.767-0.186,1.39-0.424,1.867-0.715
		l0.437-4.173c-0.715,0.239-1.391,0.358-2.025,0.358c-0.689,0-1.166-0.185-1.432-0.556c-0.265-0.371-0.396-1.006-0.396-1.907
		V447.084z M736.345,471.396c-0.61,0-1.087-0.146-1.431-0.438c-0.345-0.291-0.517-0.715-0.517-1.271
		c0-0.557,0.179-0.987,0.536-1.291c0.358-0.305,0.96-0.563,1.808-0.775l3.218-0.755v1.708c0,0.848-0.371,1.53-1.112,2.046
		C738.104,471.138,737.271,471.396,736.345,471.396 M748.062,471.515c-0.953,0-1.43-0.516-1.43-1.549v-7.229
		c0-2.543-0.809-4.449-2.423-5.722c-1.616-1.271-3.973-1.905-7.071-1.905c-2.649,0-4.754,0.536-6.316,1.607
		c-1.562,1.073-2.517,2.576-2.86,4.509l5.482,1.59c0.186-1.085,0.596-1.867,1.231-2.345c0.636-0.476,1.456-0.715,2.463-0.715
		c0.874,0,1.562,0.266,2.066,0.795c0.502,0.53,0.754,1.245,0.754,2.146v0.715l-4.488,0.874c-2.755,0.556-4.735,1.357-5.939,2.403
		c-1.206,1.047-1.808,2.418-1.808,4.111c0,1.616,0.53,2.848,1.589,3.695c1.059,0.847,2.582,1.271,4.568,1.271
		c3.521,0,5.88-1.019,7.071-3.059c0.557,2.04,2.265,3.059,5.124,3.059c1.033,0,1.934-0.213,2.702-0.636l0.517-3.773
		C748.977,471.462,748.565,471.515,748.062,471.515 M706.192,454.115c0-1.906,1.1-2.86,3.297-2.86c0.928,0,1.683,0.212,2.266,0.636
		l0.675-4.211c-0.98-0.768-2.503-1.151-4.569-1.151c-2.383,0-4.316,0.596-5.799,1.787c-1.484,1.191-2.225,2.979-2.225,5.362v1.828
		h-3.179v4.808h3.179v15.055h6.753v-15.055h5.641v-4.808h-6.038V454.115z M682.676,459.915c1.271,0,2.211,0.438,2.82,1.311
		c0.608,0.874,0.913,2.278,0.913,4.212s-0.305,3.337-0.913,4.211c-0.609,0.874-1.55,1.311-2.82,1.311
		c-1.271,0-2.212-0.437-2.821-1.311c-0.608-0.874-0.913-2.277-0.913-4.211s0.305-3.338,0.913-4.212
		C680.464,460.353,681.404,459.915,682.676,459.915 M682.676,455.109c-3.312,0-5.886,0.906-7.728,2.721
		c-1.841,1.814-2.761,4.35-2.761,7.607s0.92,5.794,2.761,7.607c1.842,1.814,4.416,2.721,7.728,2.721c3.31,0,5.885-0.906,7.726-2.721
		c1.841-1.813,2.761-4.35,2.761-7.607s-0.92-5.793-2.761-7.607S685.985,455.109,682.676,455.109 M645.255,479.54
		c-3.682,0-5.522-0.61-5.522-1.828c0-0.476,0.232-0.828,0.695-1.052c0.463-0.227,1.238-0.338,2.324-0.338h5.442
		c0.874,0,1.496,0.104,1.867,0.317c0.37,0.211,0.556,0.529,0.556,0.953c0,0.582-0.457,1.054-1.371,1.41
		C648.334,479.361,647.003,479.54,645.255,479.54 M644.937,458.962c0.874,0,1.582,0.266,2.126,0.794
		c0.542,0.53,0.814,1.232,0.814,2.106s-0.272,1.568-0.814,2.085c-0.544,0.517-1.252,0.774-2.126,0.774s-1.583-0.258-2.125-0.774
		c-0.543-0.517-0.813-1.211-0.813-2.085s0.271-1.576,0.813-2.106C643.354,459.228,644.062,458.962,644.937,458.962 M648.711,470.959
		h-6.753c-1.378,0-2.066-0.45-2.066-1.351c0-0.716,0.41-1.179,1.232-1.391c1.111,0.238,2.383,0.357,3.812,0.357
		c3.072,0,5.456-0.582,7.151-1.747c1.693-1.166,2.542-2.821,2.542-4.966c0-2.489-1.112-4.317-3.337-5.482
		c0.265-0.556,0.694-0.993,1.291-1.311c0.596-0.318,1.344-0.478,2.244-0.478c0.212,0,0.582,0.027,1.112,0.08l-0.755-4.489
		l-0.635-0.04c-1.644,0-2.927,0.504-3.854,1.51c-0.927,1.007-1.522,2.304-1.787,3.893c-1.219-0.291-2.543-0.436-3.973-0.436
		c-3.072,0-5.456,0.589-7.15,1.767c-1.695,1.179-2.543,2.841-2.543,4.986c0,2.463,1.087,4.276,3.259,5.441
		c-1.008,0.346-1.803,0.874-2.385,1.589c-0.583,0.716-0.874,1.536-0.874,2.464c0,1.881,1.02,3.258,3.06,4.132
		c-1.245,0.291-2.172,0.767-2.781,1.43c-0.609,0.661-0.913,1.43-0.913,2.304c0,1.483,0.827,2.636,2.482,3.456
		c1.655,0.821,4.217,1.231,7.687,1.231c3.443,0,6.164-0.603,8.164-1.807c1.999-1.205,2.999-2.935,2.999-5.185
		c0-1.96-0.629-3.443-1.887-4.449C652.796,471.462,651.015,470.959,648.711,470.959 M622.929,455.109
		c-1.562,0-2.926,0.351-4.091,1.052c-1.166,0.702-2.066,1.755-2.702,3.158l-0.198-3.813h-6.038v19.862h6.753v-10.487
		c0-1.562,0.331-2.721,0.993-3.476s1.523-1.132,2.582-1.132c0.9,0,1.595,0.284,2.086,0.854c0.489,0.57,0.735,1.529,0.735,2.88
		v11.361h6.753V462.14c0-2.251-0.623-3.985-1.867-5.203C626.689,455.718,625.021,455.109,622.929,455.109 M603.504,455.506h-6.753
		v19.863h6.753V455.506z M600.128,453.202c1.376,0,2.376-0.259,2.999-0.775c0.622-0.516,0.934-1.331,0.934-2.442
		c0-1.139-0.312-1.967-0.934-2.483c-0.623-0.516-1.623-0.775-2.999-0.775c-1.378,0-2.378,0.26-3,0.775
		c-0.622,0.517-0.934,1.345-0.934,2.483c0,1.111,0.312,1.927,0.934,2.442C597.75,452.943,598.75,453.202,600.128,453.202
		 M591.627,470.085c-0.822,0.583-1.775,0.874-2.861,0.874c-1.748,0-2.622-0.887-2.622-2.662v-7.983h5.959v-4.808h-5.959v-6.316
		l-6.753,1.867v4.449h-3.416v4.808h3.416v9.097c0.026,2.224,0.662,3.84,1.907,4.846c1.245,1.007,3.045,1.51,5.402,1.51
		c1.032,0,2.06-0.139,3.078-0.417c1.021-0.277,1.861-0.642,2.523-1.093L591.627,470.085z M563.342,475.766
		c3.072,0,5.416-0.602,7.032-1.808c1.615-1.205,2.423-2.774,2.423-4.707c0-1.721-0.642-3.079-1.927-4.072
		c-1.284-0.992-3.383-1.74-6.296-2.245c-1.351-0.264-2.298-0.535-2.84-0.813c-0.543-0.278-0.815-0.616-0.815-1.013
		c0-0.424,0.265-0.781,0.795-1.073c0.529-0.291,1.271-0.438,2.224-0.438c1.218,0,2.265,0.213,3.139,0.637s1.628,1.099,2.264,2.025
		l3.496-3.416c-0.901-1.245-2.073-2.178-3.516-2.801c-1.444-0.622-3.304-0.933-5.581-0.933c-2.065,0-3.821,0.311-5.264,0.933
		c-1.444,0.623-2.522,1.438-3.237,2.443c-0.716,1.007-1.073,2.08-1.073,3.218c0,1.668,0.629,3.006,1.887,4.012
		c1.257,1.007,3.37,1.802,6.336,2.384c1.324,0.266,2.258,0.536,2.801,0.814c0.542,0.278,0.814,0.603,0.814,0.973
		c0,0.424-0.265,0.763-0.794,1.014c-0.53,0.252-1.259,0.378-2.185,0.378c-2.781,0-4.741-0.94-5.88-2.821l-3.496,3.814
		C555.556,474.601,558.787,475.766,563.342,475.766 M548.724,455.506h-6.753v19.863h6.753V455.506z M545.347,453.202
		c1.377,0,2.377-0.259,3-0.775c0.622-0.516,0.933-1.331,0.933-2.442c0-1.139-0.311-1.967-0.933-2.483
		c-0.623-0.516-1.623-0.775-3-0.775s-2.377,0.26-2.999,0.775c-0.622,0.517-0.933,1.345-0.933,2.483c0,1.111,0.311,1.927,0.933,2.442
		C542.97,452.943,543.97,453.202,545.347,453.202 M523.776,470.085V449.15h-6.833v26.218h19.982v-5.283H523.776z"/>
	<path clip-path="url(#SVGID_2_)" fill="#231F20" d="M355.25,453.823c-8.505,8.505-12.751,18.841-12.751,31.021
		c0,11.93,4.246,22.143,12.751,30.642c8.499,8.499,18.711,12.752,30.642,12.752c12.18,0,22.517-4.253,31.022-12.752
		c8.499-8.499,12.751-18.712,12.751-30.642c0-12.181-4.252-22.517-12.751-31.021c-8.505-8.499-18.842-12.752-31.022-12.752
		C373.961,441.071,363.75,445.324,355.25,453.823 M195.577,269.213c6.596,3.938,11.163,9.01,13.703,15.227
		c2.534,6.221,4.246,11.483,5.139,15.795c0.886,4.318,1.332,8.631,1.332,12.942c0,10.913-5.841,25.122-17.51,42.631
		c-11.674,17.51-24.616,33.943-38.825,49.293c-14.214,15.356-30.582,31.783-49.102,49.293
		c-18.526,17.51-31.468,29.374-38.825,35.589c-7.363,6.222-13.198,11.104-17.51,14.655v17.891h244.751v-62.806H182.254l11.419-7.994
		c7.613-5.329,16.873-12.876,27.786-22.647c10.908-9.767,21.756-20.555,32.545-32.354c10.783-11.8,19.984-25.247,27.596-40.348
		c7.613-15.094,11.419-29.499,11.419-43.202c0-9.385-0.701-18.396-2.093-27.026c-1.398-8.623-4.699-18.205-9.897-28.737
		c-5.204-10.527-11.99-19.662-20.364-27.406c-8.374-7.737-20.239-14.208-35.59-19.412c-15.356-5.198-33.305-7.803-53.86-7.803
		c-15.987,0-30.897,3.3-44.725,9.896c-13.834,6.603-24.741,13.894-32.735,21.887c-7.993,7.994-15.291,17.26-21.887,27.787
		c-6.601,10.533-10.788,17.83-12.561,21.887c-1.778,4.062-3.045,7.363-3.806,9.896l59.76,28.929l6.471-14.845
		c4.312-9.896,11.098-19.853,20.364-29.881c9.261-10.021,18.967-15.035,29.119-15.035
		C180.856,263.312,188.975,265.281,195.577,269.213"/>
	<path clip-path="url(#SVGID_2_)" fill="#231F20" d="M915.611,60.555c7.048,0,13.46,0.752,19.236,2.249
		c5.771,1.501,10.834,4.162,15.186,7.987c4.348,3.824,8.099,9.111,11.248,15.861c3.15,6.748,5.737,15.375,7.762,25.871
		c2.025,10.502,3.522,23.1,4.5,37.797c0.975,14.701,1.462,32.024,1.462,51.971c0,19.949-0.487,37.311-1.462,52.082
		c-0.978,14.775-2.475,27.412-4.5,37.908c-2.024,10.5-4.611,19.089-7.762,25.761c-3.149,6.675-6.9,11.962-11.248,15.861
		c-4.352,3.901-9.414,6.562-15.186,7.985c-5.776,1.428-12.188,2.138-19.236,2.138V60.555z M721.005,361.8h250.851
		c23.848,0,45.369-3.561,64.568-10.686c19.197-7.122,35.547-17.472,49.045-31.048c13.499-13.572,23.884-30.26,31.16-50.058
		c7.273-19.798,10.911-42.37,10.911-67.718c0-25.198-3.638-47.657-10.911-67.381c-7.276-19.721-17.661-36.408-31.16-50.059
		c-13.498-13.646-29.848-24.033-49.045-31.158c-19.199-7.123-40.721-10.688-64.568-10.688H721.005v17.549h39.371v283.472h-39.371
		V361.8z"/>
	<polygon clip-path="url(#SVGID_2_)" fill="none" stroke="#0046FA" stroke-width="1.998" points="0.999,3.001 0.999,571.89 
		0.999,573.892 3,573.892 1167.087,573.892 1169.088,573.892 1169.088,571.89 1169.088,3.001 1169.088,0.999 1167.087,0.999 
		3,0.999 0.999,0.999 	"/>
</g>
<rect x="5.001" y="5.002" fill="none" stroke="#0046FA" stroke-width="1.998" width="1160.085" height="564.886"/>
<line fill="none" stroke="#0046FA" stroke-width="2" x1="677.637" y1="26.288" x2="677.637" y2="386.305"/>
<line fill="none" stroke="#0046FA" stroke-width="2" x1="462.096" y1="178.297" x2="462.096" y2="548.306"/>
</svg>
