<?xml version="1.0" encoding="utf-8"?>
<!-- Generator: Adobe Illustrator 16.0.0, SVG Export Plug-In . SVG Version: 6.00 Build 0)  -->
<!DOCTYPE svg PUBLIC "-//W3C//DTD SVG 1.1//EN" "http://www.w3.org/Graphics/SVG/1.1/DTD/svg11.dtd">
<svg version="1.1" id="Layer_1" xmlns="http://www.w3.org/2000/svg" xmlns:xlink="http://www.w3.org/1999/xlink" x="0px" y="0px"
	 width="1170.09px" height="492.17px" viewBox="0 0 1170.09 492.17" enable-background="new 0 0 1170.09 492.17"
	 xml:space="preserve">
<g>
	<defs>
		<rect id="SVGID_21_" width="1170.088" height="492.168"/>
	</defs>
	<clipPath id="SVGID_2_">
		<use xlink:href="#SVGID_21_"  overflow="visible"/>
	</clipPath>
	<path clip-path="url(#SVGID_2_)" fill="#0046FA" d="M673.769,44.109h30.923v181.824h40.947v28.633h-71.87V44.109z M599.036,112.544
		l-0.86-5.44h-1.719l-0.857,5.44l-8.877,66.431h21.189L599.036,112.544z M546.637,254.566L578.42,44.109h37.797l31.782,210.457
		h-30.064l-5.728-42.949h-29.779l-5.727,42.949H546.637z M521.152,44.109v167.222c-0.286,8.59-2.004,16.321-5.154,22.907
		c-2.576,5.727-6.586,11.166-12.312,15.461c-5.728,4.58-13.458,7.158-23.767,7.158s-18.326-2.578-24.053-7.158
		c-5.727-4.295-9.449-9.734-12.025-15.461c-3.15-6.586-4.868-14.317-5.154-22.907V44.109h30.924v167.222
		c0,6.013,1.432,10.021,4.295,13.171c1.432,1.432,3.436,2.291,6.014,2.291c5.44,0,8.018-3.436,9.162-7.73
		c0.859-2.006,1.146-4.582,1.146-7.731V44.109H521.152z M326.156,75.893V44.109h89.34v31.783h-29.207v178.674h-30.925V75.893
		H326.156z M253.144,137.169c4.295,0,10.022-0.573,14.604-4.581c4.58-4.009,8.303-11.74,8.303-26.63s-3.723-22.907-8.303-26.916
		c-4.582-4.008-10.31-4.295-14.604-4.295V137.169z M277.482,254.566l-16.035-88.764h-8.304v88.764h-30.925V44.109h30.925
		c36.938,0,52.687,20.902,52.687,60.703c0,20.902-5.441,39.801-17.181,47.818l19.758,101.936H277.482z M156.938,44.109h30.925
		v210.457h-30.925V44.109z M101.391,44.109h30.066l-32.07,210.457H68.461L36.391,44.109h30.066L81.92,159.79l1.145,8.876h1.718
		l1.146-8.876L101.391,44.109z"/>
	<path clip-path="url(#SVGID_2_)" fill="#231F20" d="M957.676,254.566h63.702l70.236-189.623c1.286-3.363,3.983-5.74,8.093-7.127
		c4.107-1.385,10.516-2.078,19.229-2.078V44.156h-69.196v11.582c3.958,0,7.596,0.125,10.914,0.371
		c3.314,0.248,6.186,0.645,8.611,1.188c2.426,0.545,4.307,1.238,5.643,2.078c1.337,0.843,2.006,1.908,2.006,3.193
		c0,0.693-0.149,1.485-0.446,2.375l-44.993,120.576L981.285,55.738h26.135V44.156H848.831v11.582h21.827L957.676,254.566z"/>
	<path clip-path="url(#SVGID_2_)" fill="#231F20" d="M174.781,440.57c0.918,2.182,2.365,4.072,4.334,5.676
		c1.972,1.604,4.48,2.877,7.529,3.822c3.047,0.945,6.726,1.418,11.034,1.418c4.257,0,7.923-0.473,10.997-1.418
		c3.073-0.945,5.582-2.219,7.527-3.822c1.943-1.604,3.375-3.494,4.295-5.676c0.919-2.18,1.38-4.533,1.38-7.055
		c0-2.469-0.461-4.795-1.38-6.975c-0.92-2.182-2.352-4.072-4.295-5.678c-1.945-1.602-4.454-2.877-7.527-3.822
		c-3.074-0.945-6.74-1.418-10.997-1.418c-4.309,0-7.987,0.473-11.034,1.418c-3.049,0.945-5.558,2.221-7.529,3.822
		c-1.969,1.605-3.416,3.496-4.334,5.678c-0.92,2.18-1.381,4.506-1.381,6.975C173.4,436.037,173.861,438.391,174.781,440.57
		 M46.732,438.244c2.785,2.104,5.912,3.994,9.379,5.676c3.469,1.684,7.199,3.113,11.193,4.297c3.993,1.182,8.198,2.088,12.612,2.719
		s8.958,0.945,13.636,0.945c7.83,0,15.016-0.895,21.559-2.68s12.178-4.375,16.908-7.764c4.729-3.389,8.42-7.514,11.074-12.375
		c2.653-4.861,3.98-10.365,3.98-16.514c0-4.889-0.895-9.459-2.68-13.715c-1.787-4.258-4.521-7.947-8.197-11.074
		c-3.68-3.127-8.344-5.598-13.992-7.41c-5.65-1.814-12.309-2.719-19.98-2.719c-2.261,0-4.611,0.078-7.056,0.234
		c-2.442,0.158-4.888,0.408-7.331,0.75s-4.848,0.762-7.213,1.262c-2.364,0.5-4.598,1.062-6.699,1.693l1.812-19.311h64.006v-29.322
		H58.555l-4.887,63.295c1.734-0.631,3.561-1.182,5.479-1.656c1.918-0.473,3.889-0.893,5.912-1.26
		c2.022-0.367,4.033-0.643,6.029-0.828c1.997-0.184,3.915-0.275,5.754-0.275c4.678,0,8.697,0.59,12.061,1.773
		c3.363,1.182,6.135,2.719,8.315,4.611c2.181,1.891,3.784,4.059,4.81,6.502c1.023,2.443,1.537,4.926,1.537,7.449
		c0,2.68-0.553,5.203-1.656,7.566c-1.104,2.365-2.719,4.428-4.848,6.188c-2.127,1.762-4.717,3.154-7.764,4.178
		c-3.049,1.025-6.518,1.537-10.404,1.537c-1.683,0-3.482-0.105-5.4-0.314c-1.918-0.211-3.862-0.525-5.832-0.945
		c-1.971-0.42-3.93-0.947-5.873-1.578c-1.945-0.629-3.783-1.391-5.518-2.285L46.732,438.244z"/>
	<path clip-path="url(#SVGID_2_)" fill="#231F20" d="M865.722,421.529c0.145,1.98,0.612,3.672,1.261,5.148
		c0.432-0.072,1.008-0.145,1.223-0.145c0.289,0,0.793,0.029,1.081,0.109c0.666,0.18,2.538,0.432,4.572,0.432
		c4.824,0,8.604-1.459,8.604-5.58c0-2.736-1.365-4.137-7.021-5.041c-3.941-0.631-6.407-1.297-6.407-3.312
		c0-1.549,1.8-2.736,5.112-2.736c2.826,0,4.177,1.836,5.688,4.428c0.576,0.037,1.044-0.18,1.296-0.432
		c-0.216-1.691-0.432-3.061-0.72-4.211c-1.242-0.414-3.708-1.117-6.265-1.117c-3.925,0-7.812,1.764-7.812,4.645
		c0,3.186,1.729,4.521,6.516,5.328c5.132,0.865,6.661,1.621,6.661,3.35c0,1.979-2.124,3.348-5.725,3.348
		c-2.052,0-3.708-0.396-4.356-0.938c-1.044-0.898-1.908-2.699-2.16-3.707C866.766,421.025,866.046,421.205,865.722,421.529
		 M854.165,424.734c0.18,1.223,0.612,2.34,3.096,2.34c2.736,0,4.247-1.57,4.247-1.98c0-0.289-0.395-0.684-0.611-0.684
		c-0.287,0-0.432,0.648-1.404,0.648c-1.799,0-2.274-1.621-2.195-3.422l0.252-5.797c0.354-5.67-3.24-6.768-6.623-6.768
		c-3.783,0-7.706,2.268-7.706,4.428c0,0.973,0.685,1.404,1.62,1.404c1.116,0,1.98-0.648,1.98-1.152c0-0.287-0.072-0.611-0.145-0.756
		c-0.037-0.107-0.072-0.359-0.072-0.791c0-1.26,2.196-1.693,3.962-1.693c1.942,0,3.923,1.01,3.923,5.4
		c0,0.289-0.251,0.469-0.359,0.504l-4.681,0.793c-5.124,0.867-7.632,2.988-7.632,5.652c0,3.061,2.483,4.213,5.796,4.213
		c2.194,0,3.313-0.324,5.437-1.656l1.008-0.684H854.165z M854.417,417.713l-0.252,4.824c-0.029,0.545-0.36,0.865-0.72,1.117
		c-1.225,0.791-3.42,1.799-4.754,1.799c-2.411,0-3.312-1.547-3.312-2.771c0-2.016,1.663-3.557,4.717-4.141L854.417,417.713z
		 M830.151,421.891v-8.57c0-2.441,0.504-3.041,0.504-3.887c0-0.234-0.259-0.469-0.504-0.469c-0.403,0-1.404,0.227-2.369,0.398
		c-1.644,0.297-4.695,0.58-6.272,0.682c-0.107,0.307-0.072,0.9,0.072,1.188c3.439,0.072,4.724,0.141,5.041,0.541
		c0.342,0.432,0.396,0.898,0.396,1.836v8.281c0,1.691-0.144,2.375-0.647,2.771c-0.396,0.287-4.572,0.719-6.337,0.791
		c-0.216,0.217-0.216,1.117,0,1.332c1.512-0.035,6.984-0.072,8.604-0.072c1.513,0,6.588,0.037,8.137,0.072
		c0.217-0.215,0.217-1.115,0-1.332c-1.944-0.072-5.58-0.504-5.977-0.791C830.258,424.301,830.151,423.617,830.151,421.891
		 M828.999,400.467l-2.722,4.285c-0.291,0.461-0.41,0.605-0.41,1.008c0,0.252,0.252,0.469,0.504,0.469s0.54-0.145,1.08-0.684
		l4.141-3.926l-0.108-0.395c-0.828-0.793-1.75-0.828-1.98-0.828C829.323,400.396,829.107,400.432,828.999,400.467 M798.829,421.961
		v-7.381c0-0.756,0.38-1.512,0.612-1.871c1.044-1.631,1.907-1.656,2.484-1.656c1.367,0,1.799,0.863,1.799,3.275v7.633
		c0,3.205-0.018,4.32-0.071,4.824c0.384-0.035,1.26-0.072,1.62-0.072c0.406,0,1.018,0.037,1.476,0.072
		c-0.028-0.611-0.073-1.768-0.073-4.824v-9.037c1.262-1.709,2.111-1.871,2.881-1.871c1.369,0,2.018,0.791,2.018,3.203v6.986
		c0,3.887,0.061,4.992,0.288,5.543c0.396-0.035,1.019-0.072,1.296-0.072c1.476,0,1.584,0.037,3.131,0.072
		c0.181-0.215,0.181-1.115,0-1.332c-1.752-0.119-1.764-0.24-1.764-4.211v-6.445c0-3.197-0.504-5.725-3.672-5.725
		c-1.234,0-2.477,0.219-4.068,2.232c-0.205,0.26-0.338,0.342-0.433-0.014c-0.378-1.445-1.403-2.219-3.276-2.219
		c-1.367,0-2.635,0.656-3.923,2.557c-0.228,0.338-0.324,0.35-0.324,0c0-1.439-0.12-2.006-0.288-2.377
		c-0.076-0.166-0.145-0.287-0.432-0.287c-1.009,0.396-1.98,0.721-4.467,1.043c-0.07,0.217,0,0.793,0.074,1.01
		c1.943,0.18,2.158,0.359,2.158,2.447v8.496c0,3.205-0.017,4.32-0.07,4.824c0.386-0.035,1.261-0.072,1.621-0.072
		c0.405,0,1.018,0.037,1.476,0.072C798.872,426.174,798.829,425.018,798.829,421.961 M781.223,410.549
		c4.105,0,6.59,2.951,6.59,8.857c0,5.146-3.024,6.191-5.294,6.191c-4.932,0-6.516-4.896-6.516-8.064
		C776.003,413.969,777.043,410.549,781.223,410.549 M772.547,418.434c0,4.104,3.024,8.641,9.324,8.641
		c2.846,0,5.004-0.9,6.517-2.232c2.017-1.764,2.88-4.32,2.88-6.768c0-4.178-2.556-9.002-9.324-9.002
		c-2.916,0-5.292,1.08-6.912,2.809C773.447,413.609,772.547,415.912,772.547,418.434 M754.978,412.709
		c-0.108,0.145-0.324,0.504-0.324,0c0-2.201-0.118-3.086-0.288-3.457c-0.076-0.166-0.145-0.287-0.433-0.287
		c-1.007,0.396-2.341,0.721-4.823,1.043c-0.072,0.217,0,0.793,0.071,1.01c1.944,0.18,2.341,0.359,2.341,2.447v8.713
		c0,2.951-0.36,3.057-2.881,3.275c-0.215,0.217-0.215,1.117,0,1.332c1.477-0.035,2.881-0.072,4.429-0.072
		c1.403,0,2.231,0.037,3.745,0.072c0.216-0.215,0.216-1.115,0-1.332c-1.837-0.18-2.161-0.324-2.161-3.275v-6.877
		c0-0.756,0.324-1.188,0.611-1.512c1.369-1.332,3.386-2.844,5.581-2.844c0.721,0,1.408,0.508,1.908,1.295
		c0.432,0.684,0.54,1.693,0.54,2.771v7.166c0,2.951-0.36,3.096-2.231,3.275c-0.18,0.217-0.18,1.117,0,1.332
		c1.512-0.035,2.34-0.072,3.779-0.072c1.477,0,2.809,0.037,4.357,0.072c0.18-0.215,0.18-1.115,0-1.332
		c-2.377-0.148-2.773-0.324-2.773-3.275v-7.057c0-1.98-0.144-3.781-1.08-4.824c-0.67-0.746-1.728-1.225-2.987-1.225
		C759.478,409.072,757.174,410.26,754.978,412.709 M735.139,410.549c4.105,0,6.589,2.951,6.589,8.857
		c0,5.146-3.023,6.191-5.292,6.191c-4.932,0-6.516-4.896-6.516-8.064C729.92,413.969,730.959,410.549,735.139,410.549
		 M726.463,418.434c0,4.104,3.025,8.641,9.325,8.641c2.845,0,5.003-0.9,6.517-2.232c2.016-1.764,2.88-4.32,2.88-6.768
		c0-4.178-2.556-9.002-9.325-9.002c-2.915,0-5.291,1.08-6.911,2.809C727.363,413.609,726.463,415.912,726.463,418.434
		 M709.362,411.988c-0.685-0.9-0.181-1.08,1.511-1.295c0.217-0.217,0.217-1.117,0-1.332c-1.054,0.035-3.131,0.072-4.283,0.072
		s-2.654-0.037-3.707-0.072c-0.217,0.215-0.217,1.115,0,1.332c1.331,0.107,2.411,0.576,3.49,2.051l4.177,5.51
		c0.108,0.145,0.216,0.324,0.036,0.539l-4.068,4.789c-1.473,1.732-2.447,1.799-3.815,1.871c-0.216,0.217-0.145,1.117,0.072,1.332
		c0.853-0.035,1.728-0.072,3.132-0.072c1.477,0,2.761,0.037,3.635,0.072c0.217-0.215,0.181-1.115-0.035-1.332
		c-1.044-0.143-1.973-0.283-1.188-1.295l3.239-4.176c0.288-0.361,0.396-0.469,0.685-0.072l3.061,3.779
		c1.228,1.52,0.42,1.656-0.937,1.764c-0.216,0.217-0.144,1.117,0.073,1.332c1.26-0.035,2.986-0.072,4.392-0.072
		c1.476,0,2.593,0.037,3.636,0.072c0.216-0.215,0.145-1.115-0.072-1.332c-1.248-0.061-2.336-0.234-3.815-2.123l-4.284-5.473
		c-0.174-0.221-0.156-0.354,0-0.541l4.032-4.787c1.273-1.512,2.376-1.729,3.78-1.836c0.216-0.217,0.216-1.117,0-1.332
		c-0.973,0.035-2.232,0.072-3.204,0.072c-0.792,0-2.423-0.037-3.637-0.072c-0.216,0.215-0.216,1.115,0,1.332
		c1.296,0.143,2.163,0.283,1.332,1.332l-3.349,4.211c-0.145,0.18-0.424,0.316-0.72-0.072L709.362,411.988z M692.873,424.734
		c0.18,1.223,0.612,2.34,3.096,2.34c2.736,0,4.248-1.57,4.248-1.98c0-0.289-0.396-0.684-0.611-0.684
		c-0.288,0-0.432,0.648-1.404,0.648c-1.8,0-2.275-1.621-2.196-3.422l0.253-5.797c0.352-5.67-3.241-6.768-6.625-6.768
		c-3.781,0-7.705,2.268-7.705,4.428c0,0.973,0.685,1.404,1.621,1.404c1.115,0,1.979-0.648,1.979-1.152
		c0-0.287-0.072-0.611-0.145-0.756c-0.036-0.107-0.071-0.359-0.071-0.791c0-1.26,2.195-1.693,3.961-1.693
		c1.943,0,3.924,1.01,3.924,5.4c0,0.289-0.252,0.469-0.36,0.504l-4.681,0.793c-5.123,0.867-7.633,2.988-7.633,5.652
		c0,3.061,2.484,4.213,5.797,4.213c2.196,0,3.312-0.324,5.438-1.656l1.007-0.684H692.873z M693.125,417.713l-0.252,4.824
		c-0.029,0.545-0.36,0.865-0.72,1.117c-1.225,0.791-3.42,1.799-4.753,1.799c-2.412,0-3.312-1.547-3.312-2.771
		c0-2.016,1.664-3.557,4.717-4.141L693.125,417.713z M658.383,410.873c-0.505,0-0.648,0.432-0.648,0.719v0.648
		c0,0.18,0.035,0.217,0.18,0.217h4.033v9.252c0,4.033,2.376,5.365,5.544,5.365c2.105,0,4.536-1.117,7.453-2.736
		c-0.072-0.371-0.288-0.973-0.648-1.008c-1.963,0.828-3.979,1.619-5.545,1.619c-1.836,0-3.672-0.719-3.672-4.967v-7.525h7.345
		c0.359,0,0.863-0.145,0.863-0.469v-0.9c0-0.143-0.108-0.215-0.288-0.215h-7.92v-3.205c0-2.34,0.144-3.781,0.144-3.781
		c0-0.229-0.107-0.314-0.276-0.314c-0.264,0-1.03,0.398-1.596,0.637c-0.611,0.256-1.512,0.328-1.512,0.688
		c0,0.418,0.108,1.98,0.108,5.973L658.383,410.873z M612.263,421.529c0.145,1.98,0.612,3.672,1.261,5.148
		c0.432-0.072,1.008-0.145,1.224-0.145c0.288,0,0.792,0.029,1.08,0.109c0.665,0.18,2.538,0.432,4.573,0.432
		c4.822,0,8.604-1.459,8.604-5.58c0-2.736-1.365-4.137-7.02-5.041c-3.943-0.631-6.409-1.297-6.409-3.312
		c0-1.549,1.8-2.736,5.112-2.736c2.826,0,4.177,1.836,5.688,4.428c0.577,0.037,1.045-0.18,1.297-0.432
		c-0.216-1.691-0.432-3.061-0.72-4.211c-1.243-0.414-3.708-1.117-6.265-1.117c-3.925,0-7.812,1.764-7.812,4.645
		c0,3.186,1.728,4.521,6.516,5.328c5.131,0.865,6.661,1.621,6.661,3.35c0,1.979-2.124,3.348-5.724,3.348
		c-2.053,0-3.709-0.396-4.357-0.938c-1.045-0.898-1.908-2.699-2.16-3.707C613.307,421.025,612.587,421.205,612.263,421.529
		 M594.928,427.074c1.404,0,4.086-0.688,6.517-2.521c0.184-0.139,0.431-0.215,0.431,0.037c0,1.588,0.396,2.484,0.396,2.484
		c0.287,0.107,0.396,0.072,0.685,0c0.792-0.648,2.556-1.189,4.753-1.441c0.217-0.215,0.217-0.756,0-0.971
		c-2.305-0.18-2.738-0.865-2.738-2.629v-8.605c0-1.078,0.146-3.852,0.146-3.852c0-0.107-0.108-0.215-0.288-0.215
		c-0.18,0.035-1.008,0.072-1.548,0.072c-1.152,0-2.521-0.037-3.853-0.072c-0.216,0.215-0.216,1.115,0,1.332
		c0.789,0.047,1.498,0.158,1.844,0.48c0.425,0.4,0.568,1.121,0.568,2.436v8.137c0,0.684-0.039,1.01-0.576,1.404
		c-2.105,1.547-4.283,2.23-5.184,2.23c-1.08,0-2.88-0.504-2.88-3.707v-8.246c0-1.078,0.144-3.852,0.144-3.852
		c0-0.107-0.107-0.215-0.289-0.215c-0.18,0.035-0.792,0.072-1.332,0.072c-1.151,0-2.916-0.037-4.248-0.072
		c-0.217,0.215-0.217,1.115,0,1.332c0.792,0.064,1.689,0.184,2.033,0.518c0.412,0.396,0.56,1.094,0.56,2.361v8.605
		C590.067,424.662,591.363,427.074,594.928,427.074 M566.18,421.529c0.145,1.98,0.611,3.672,1.26,5.148
		c0.433-0.072,1.009-0.145,1.225-0.145c0.288,0,0.792,0.029,1.08,0.109c0.666,0.18,2.538,0.432,4.572,0.432
		c4.824,0,8.604-1.459,8.604-5.58c0-2.736-1.364-4.137-7.021-5.041c-3.943-0.631-6.408-1.297-6.408-3.312
		c0-1.549,1.799-2.736,5.111-2.736c2.826,0,4.176,1.836,5.689,4.428c0.576,0.037,1.044-0.18,1.296-0.432
		c-0.216-1.691-0.433-3.061-0.72-4.211c-1.242-0.414-3.709-1.117-6.266-1.117c-3.924,0-7.812,1.764-7.812,4.645
		c0,3.186,1.729,4.521,6.518,5.328c5.129,0.865,6.66,1.621,6.66,3.35c0,1.979-2.125,3.348-5.725,3.348
		c-2.053,0-3.708-0.396-4.355-0.938c-1.045-0.898-1.908-2.699-2.16-3.707C567.225,421.025,566.504,421.205,566.18,421.529
		 M526.793,432.475c0.611-1.008,1.115-2.018,1.584-3.098c3.096-6.947,5.652-12.492,7.704-16.523c0.54-1.045,1.296-2.053,3.205-2.16
		c0.216-0.217,0.216-1.117,0-1.332c-0.972,0.035-2.233,0.072-3.313,0.072c-1.367,0-2.484-0.037-3.564-0.072
		c-0.215,0.215-0.215,1.115,0,1.332c1.297,0.035,2.809,0.215,2.232,1.475l-4.644,10.082c-0.501,1.09-0.642,1.062-1.152-0.037
		l-4.356-9.324c-0.685-1.512-0.864-2.016,1.117-2.195c0.215-0.217,0.215-1.117,0-1.332c-1.441,0.035-2.989,0.072-4.394,0.072
		c-1.332,0-2.448-0.037-3.239-0.072c-0.217,0.215-0.217,1.115,0,1.332c1.764,0.143,2.088,0.252,3.168,2.555l5.293,11.305
		c0.611,1.297,1.188,2.664,0.899,3.385c-0.468,1.188-0.937,2.195-1.513,3.312c-0.432,0.721-1.729,1.045-2.7,1.045
		c-0.54,0-0.72-0.107-1.152-0.107c-1.116,0-1.692,1.08-1.692,1.547c0,0.756,0.757,1.332,1.801,1.332
		C522.904,435.066,525.389,434.779,526.793,432.475 M474.014,421.529c0.143,1.98,0.611,3.672,1.26,5.148
		c0.432-0.072,1.008-0.145,1.224-0.145c0.288,0,0.792,0.029,1.08,0.109c0.665,0.18,2.538,0.432,4.571,0.432
		c4.826,0,8.605-1.459,8.605-5.58c0-2.736-1.365-4.137-7.021-5.041c-3.941-0.631-6.408-1.297-6.408-3.312
		c0-1.549,1.801-2.736,5.113-2.736c2.826,0,4.176,1.836,5.688,4.428c0.577,0.037,1.045-0.18,1.297-0.432
		c-0.217-1.691-0.432-3.061-0.72-4.211c-1.243-0.414-3.708-1.117-6.265-1.117c-3.924,0-7.812,1.764-7.812,4.645
		c0,3.186,1.729,4.521,6.516,5.328c5.131,0.865,6.661,1.621,6.661,3.35c0,1.979-2.124,3.348-5.725,3.348
		c-2.052,0-3.708-0.396-4.356-0.938c-1.045-0.898-1.908-2.699-2.16-3.707C475.057,421.025,474.337,421.205,474.014,421.529
		 M467.641,422.789c-1.692,1.549-3.564,2.484-6.266,2.484c-2.311,0-4.5-0.791-5.977-2.879c-0.899-1.369-1.332-2.484-1.332-4.861
		h13.502c0.504,0,0.863-0.613,0.863-1.045c0-3.383-2.016-7.416-8.136-7.416c-4.969,0-9.685,3.42-9.685,9.506
		c0,2.232,0.756,4.428,2.23,5.939c1.514,1.619,4.285,2.557,7.454,2.557c3.384,0,6.372-1.404,8.172-3.492
		C468.359,423.186,468.18,422.826,467.641,422.789 M454.247,416.057c0.828-4.32,3.673-5.545,5.978-5.545
		c1.728,0,4.607,1.01,4.607,4.465c0,0.359-0.216,0.93-0.721,0.936L454.247,416.057z M435.076,422.07
		c0,1.703-0.126,2.375-0.631,2.771c-0.396,0.287-5.482,0.564-6.426,0.611c-0.217,0.217-0.217,1.117,0,1.332
		c1.512-0.035,5.27-0.072,8.641-0.072c3.244,0,6.768,0.037,8.316,0.072c0.217-0.215,0.217-1.115,0-1.332
		c-0.899-0.043-5.67-0.359-6.066-0.611c-0.576-0.359-0.702-1.008-0.702-2.771v-16.346c0-2.342,0.144-3.781,0.144-3.781
		c0-0.252-0.144-0.359-0.468-0.359c-1.332,0.359-5.616,0.863-7.056,0.971c-0.072,0.289-0.072,0.973,0.145,1.189
		c1.457,0,2.801,0.025,3.617,0.703c0.374,0.309,0.486,1.395,0.486,2.896V422.07z M416.372,424.734c0.18,1.223,0.612,2.34,3.097,2.34
		c2.736,0,4.248-1.57,4.248-1.98c0-0.289-0.396-0.684-0.611-0.684c-0.289,0-0.433,0.648-1.404,0.648
		c-1.801,0-2.275-1.621-2.196-3.422l0.253-5.797c0.352-5.67-3.242-6.768-6.625-6.768c-3.781,0-7.705,2.268-7.705,4.428
		c0,0.973,0.684,1.404,1.62,1.404c1.116,0,1.979-0.648,1.979-1.152c0-0.287-0.071-0.611-0.144-0.756
		c-0.036-0.107-0.071-0.359-0.071-0.791c0-1.26,2.195-1.693,3.959-1.693c1.945,0,3.926,1.01,3.926,5.4
		c0,0.289-0.254,0.469-0.361,0.504l-4.68,0.793c-5.123,0.867-7.633,2.988-7.633,5.652c0,3.061,2.484,4.213,5.797,4.213
		c2.195,0,3.312-0.324,5.436-1.656l1.008-0.684H416.372z M416.624,417.713l-0.252,4.824c-0.028,0.545-0.36,0.865-0.72,1.117
		c-1.225,0.791-3.42,1.799-4.752,1.799c-2.412,0-3.312-1.547-3.312-2.771c0-2.016,1.663-3.557,4.717-4.141L416.624,417.713z
		 M387.552,427.074c1.404,0,4.087-0.688,6.517-2.521c0.184-0.139,0.433-0.215,0.433,0.037c0,1.588,0.396,2.484,0.396,2.484
		c0.289,0.107,0.396,0.072,0.685,0c0.792-0.648,2.556-1.189,4.752-1.441c0.216-0.215,0.216-0.756,0-0.971
		c-2.304-0.18-2.735-0.865-2.735-2.629v-8.605c0-1.078,0.143-3.852,0.143-3.852c0-0.107-0.107-0.215-0.287-0.215
		c-0.18,0.035-1.008,0.072-1.549,0.072c-1.151,0-2.52-0.037-3.852-0.072c-0.216,0.215-0.216,1.115,0,1.332
		c0.789,0.047,1.497,0.158,1.844,0.48c0.424,0.4,0.568,1.121,0.568,2.436v8.137c0,0.684-0.039,1.01-0.576,1.404
		c-2.105,1.547-4.285,2.23-5.185,2.23c-1.08,0-2.88-0.504-2.88-3.707v-8.246c0-1.078,0.144-3.852,0.144-3.852
		c0-0.107-0.108-0.215-0.288-0.215c-0.18,0.035-0.791,0.072-1.332,0.072c-1.152,0-2.916-0.037-4.248-0.072
		c-0.216,0.215-0.216,1.115,0,1.332c0.793,0.064,1.688,0.184,2.034,0.518c0.41,0.396,0.558,1.094,0.558,2.361v8.605
		C382.691,424.662,383.988,427.074,387.552,427.074 M358.84,410.873c-0.504,0-0.648,0.432-0.648,0.719v0.648
		c0,0.18,0.037,0.217,0.181,0.217h4.032v9.252c0,4.033,2.377,5.365,5.545,5.365c2.105,0,4.535-1.117,7.451-2.736
		c-0.071-0.371-0.287-0.973-0.647-1.008c-1.962,0.828-3.978,1.619-5.544,1.619c-1.836,0-3.672-0.719-3.672-4.967v-7.525h7.344
		c0.359,0,0.864-0.145,0.864-0.469v-0.9c0-0.143-0.108-0.215-0.288-0.215h-7.92v-3.205c0-2.34,0.145-3.781,0.145-3.781
		c0-0.229-0.109-0.314-0.277-0.314c-0.264,0-1.031,0.398-1.596,0.637c-0.611,0.256-1.513,0.328-1.513,0.688
		c0,0.418,0.108,1.98,0.108,5.973L358.84,410.873z M343.432,412.096c0-1.961-0.108-2.482-0.289-2.844
		c-0.072-0.18-0.144-0.287-0.432-0.287c-1.584,0.27-4.393,0.721-6.876,1.043c-0.071,0.217,0,0.793,0.072,1.01
		c0.846,0,3.456,0.287,3.815,0.504c0.469,0.287,0.576,0.756,0.576,1.943v8.713c0,1.729-0.148,2.404-0.684,2.771
		c-0.342,0.234-3.276,0.432-4.754,0.504c-0.215,0.217-0.215,1.117,0,1.332c1.514-0.035,6.014-0.072,7.453-0.072
		c1.477,0,5.869,0.037,7.418,0.072c0.216-0.215,0.216-1.115,0-1.332c-1.262-0.035-5.078-0.287-5.51-0.504
		c-0.647-0.359-0.791-1.008-0.791-2.771v-4.969c0-0.936,0.33-1.711,0.863-2.305c2.016-2.25,3.78-3.727,5.186-3.727
		c0.504,0,1.332,0.451,1.584,0.738c0.395,0.434,0.936,0.973,1.656,0.973c0.936,0,1.691-1.008,1.691-1.98
		c0-0.719-0.432-1.836-2.053-1.836c-4.356,0-6.156,1.639-8.568,4.176C343.48,413.576,343.432,413.285,343.432,412.096
		 M323.234,421.891v-8.57c0-2.441,0.504-3.041,0.504-3.887c0-0.234-0.26-0.469-0.504-0.469c-0.404,0-1.405,0.227-2.369,0.398
		c-1.643,0.297-4.695,0.58-6.273,0.682c-0.107,0.307-0.07,0.9,0.073,1.188c3.438,0.072,4.724,0.141,5.04,0.541
		c0.342,0.432,0.396,0.898,0.396,1.836v8.281c0,1.691-0.145,2.375-0.648,2.771c-0.396,0.287-4.572,0.719-6.336,0.791
		c-0.217,0.217-0.217,1.117,0,1.332c1.512-0.035,6.984-0.072,8.604-0.072c1.514,0,6.59,0.037,8.137,0.072
		c0.217-0.215,0.217-1.115,0-1.332c-1.943-0.072-5.58-0.504-5.975-0.791C323.342,424.301,323.234,423.617,323.234,421.891
		 M319.417,403.312c0,1.08,0.972,2.16,1.944,2.16c1.117,0,2.089-1.115,2.089-1.98c0-1.008-0.864-2.16-1.945-2.16
		C320.533,401.332,319.417,402.303,319.417,403.312 M301.775,410.693c2.125,0.143,2.772,0.432,1.944,2.268l-4.104,8.893
		c-0.648,1.404-0.864,1.404-1.476-0.107l-3.674-8.785c-0.738-1.764-0.828-2.125,1.045-2.268c0.252-0.217,0.252-1.117,0-1.332
		c-1.477,0.035-2.57,0.072-4.213,0.072c-1.367,0-2.232-0.037-3.707-0.072c-0.253,0.215-0.253,1.115,0,1.332
		c2.268,0.252,2.663,0.646,3.455,2.482l5.833,13.215c0.253,0.539,0.612,0.756,1.116,0.756c0.396,0,0.721-0.217,1.008-0.828
		l6.229-13.105c0.76-1.602,1.115-2.305,3.24-2.52c0.252-0.217,0.252-1.117,0-1.332c-0.865,0.035-1.873,0.072-2.916,0.072
		c-1.477,0-2.305-0.037-3.781-0.072C301.523,409.576,301.523,410.477,301.775,410.693"/>
	<path clip-path="url(#SVGID_2_)" fill="#231F20" d="M750.513,365.525c0.144,1.98,0.612,3.672,1.259,5.148
		c0.434-0.072,1.011-0.145,1.227-0.145c0.288,0,0.791,0.029,1.08,0.109c0.666,0.18,2.538,0.432,4.572,0.432
		c4.823,0,8.604-1.459,8.604-5.58c0-2.738-1.365-4.137-7.021-5.041c-3.943-0.631-6.408-1.297-6.408-3.312
		c0-1.549,1.799-2.736,5.111-2.736c2.826,0,4.177,1.836,5.688,4.428c0.577,0.037,1.045-0.18,1.299-0.432
		c-0.219-1.691-0.434-3.061-0.722-4.211c-1.243-0.414-3.708-1.117-6.265-1.117c-3.924,0-7.812,1.764-7.812,4.645
		c0,3.186,1.729,4.521,6.517,5.328c5.13,0.863,6.66,1.621,6.66,3.35c0,1.979-2.124,3.348-5.724,3.348
		c-2.053,0-3.708-0.396-4.356-0.938c-1.044-0.898-1.909-2.699-2.161-3.707C751.557,365.021,750.837,365.201,750.513,365.525
		 M744.141,366.785c-1.691,1.549-3.563,2.484-6.266,2.484c-2.311,0-4.5-0.791-5.975-2.879c-0.9-1.369-1.332-2.486-1.332-4.861h13.5
		c0.504,0,0.864-0.613,0.864-1.045c0-3.383-2.016-7.416-8.137-7.416c-4.968,0-9.684,3.42-9.684,9.504
		c0,2.234,0.756,4.43,2.231,5.941c1.512,1.619,4.284,2.557,7.452,2.557c3.385,0,6.373-1.404,8.173-3.492
		C744.861,367.182,744.681,366.822,744.141,366.785 M730.748,360.053c0.828-4.32,3.672-5.545,5.975-5.545
		c1.729,0,4.61,1.01,4.61,4.465c0,0.359-0.216,0.93-0.72,0.936L730.748,360.053z M708.893,356.705c-0.106,0.145-0.322,0.504-0.322,0
		c0-2.201-0.119-3.086-0.288-3.457c-0.075-0.166-0.145-0.287-0.433-0.287c-1.008,0.396-2.34,0.721-4.824,1.043
		c-0.071,0.217,0,0.793,0.072,1.01c1.943,0.18,2.34,0.359,2.34,2.447v8.713c0,2.951-0.359,3.057-2.88,3.275
		c-0.216,0.217-0.216,1.117,0,1.332c1.477-0.035,2.88-0.072,4.429-0.072c1.403,0,2.231,0.037,3.743,0.072
		c0.217-0.215,0.217-1.115,0-1.332c-1.837-0.18-2.159-0.324-2.159-3.275v-6.877c0-0.756,0.322-1.188,0.611-1.512
		c1.368-1.332,3.385-2.844,5.581-2.844c0.72,0,1.407,0.506,1.908,1.295c0.432,0.684,0.54,1.693,0.54,2.771v7.166
		c0,2.951-0.36,3.096-2.232,3.275c-0.18,0.217-0.18,1.117,0,1.332c1.513-0.035,2.34-0.072,3.779-0.072
		c1.477,0,2.809,0.037,4.357,0.072c0.18-0.215,0.18-1.115,0-1.332c-2.376-0.148-2.773-0.324-2.773-3.275v-7.057
		c0-1.98-0.143-3.781-1.079-4.824c-0.671-0.746-1.728-1.225-2.987-1.225C713.395,353.068,711.09,354.256,708.893,356.705
		 M689.057,354.545c4.104,0,6.588,2.951,6.588,8.855c0,5.148-3.023,6.193-5.292,6.193c-4.933,0-6.517-4.896-6.517-8.064
		C683.836,357.965,684.877,354.545,689.057,354.545 M680.38,362.43c0,4.104,3.024,8.641,9.325,8.641c2.844,0,5.004-0.9,6.516-2.232
		c2.017-1.764,2.881-4.32,2.881-6.77c0-4.176-2.557-9-9.324-9c-2.916,0-5.293,1.08-6.913,2.809
		C681.28,357.605,680.38,359.908,680.38,362.43 M668.859,365.887v-8.57c0-2.441,0.504-3.041,0.504-3.887
		c0-0.234-0.26-0.469-0.504-0.469c-0.403,0-1.404,0.227-2.369,0.398c-1.642,0.295-4.694,0.58-6.271,0.682
		c-0.107,0.307-0.072,0.9,0.072,1.188c3.438,0.072,4.723,0.141,5.04,0.541c0.343,0.432,0.396,0.898,0.396,1.836v8.281
		c0,1.691-0.144,2.375-0.647,2.771c-0.396,0.287-4.571,0.719-6.337,0.791c-0.215,0.217-0.215,1.117,0,1.332
		c1.513-0.035,6.984-0.072,8.604-0.072c1.513,0,6.589,0.037,8.138,0.072c0.216-0.215,0.216-1.115,0-1.332
		c-1.944-0.072-5.581-0.504-5.977-0.791C668.967,368.297,668.859,367.613,668.859,365.887 M665.043,347.309
		c0,1.08,0.972,2.158,1.944,2.158c1.115,0,2.088-1.115,2.088-1.979c0-1.008-0.864-2.16-1.944-2.16
		C666.158,345.328,665.043,346.299,665.043,347.309 M652.981,366.822c-0.144-0.361-0.647-0.865-1.044-0.9
		c-2.268,2.34-5.04,3.203-6.876,3.203c-4.032,0-6.913-3.311-6.913-7.668c0-4.213,2.16-6.912,5.832-6.912
		c2.521,0,4.573,1.439,4.825,3.275c0.147,1.076,0.937,1.729,1.8,1.729c1.08,0,1.693-0.697,1.693-2.053
		c0-0.77-0.444-1.623-1.262-2.303c-1.516-1.26-4.197-2.125-6.839-2.125c-5.077,0-9.325,3.889-9.325,9.252
		c0,4.861,3.348,8.75,9.289,8.75C646.718,371.07,649.742,370.494,652.981,366.822 M622.775,365.887v-8.57
		c0-2.441,0.505-3.041,0.505-3.887c0-0.234-0.26-0.469-0.505-0.469c-0.402,0-1.403,0.227-2.368,0.398
		c-1.643,0.295-4.695,0.58-6.272,0.682c-0.107,0.307-0.072,0.9,0.072,1.188c3.438,0.072,4.724,0.141,5.041,0.541
		c0.342,0.432,0.395,0.898,0.395,1.836v8.281c0,1.691-0.143,2.375-0.646,2.771c-0.396,0.287-4.572,0.719-6.338,0.791
		c-0.215,0.217-0.215,1.117,0,1.332c1.513-0.035,6.984-0.072,8.605-0.072c1.512,0,6.588,0.037,8.137,0.072
		c0.216-0.215,0.216-1.115,0-1.332c-1.944-0.072-5.58-0.504-5.977-0.791C622.884,368.297,622.775,367.613,622.775,365.887
		 M618.959,347.309c0,1.08,0.973,2.158,1.945,2.158c1.115,0,2.088-1.115,2.088-1.979c0-1.008-0.864-2.16-1.943-2.16
		C620.076,345.328,618.959,346.299,618.959,347.309 M601.534,368.693c0.18-0.145,0.468-0.252,0.468,0.037
		c0,0.971,0.396,2.34,0.396,2.34c0.288,0.107,0.396,0.072,0.685,0c0.793-0.648,2.305-1.229,5.005-1.441
		c0.216-0.215,0.216-0.756,0-0.971c-2.7-0.328-2.988-0.865-2.988-2.629v-16.309c0-2.342,0.144-3.781,0.144-3.781
		c0-0.252-0.144-0.359-0.467-0.359c-0.9,0.359-4.609,0.863-6.051,0.971c-0.07,0.289,0,0.865,0.217,1.08
		c2.593,0.105,3.025,0.285,3.025,2.953v2.809c0,0.289-0.074,0.359-0.361,0.359c-0.144,0-2.699-0.646-4.104-0.646
		c-2.809,0-4.645,0.863-6.372,2.375c-1.837,1.729-2.917,4.104-2.917,7.092c0,4.934,2.989,8.533,7.561,8.533
		C597.43,371.105,599.554,370.314,601.534,368.693 M601.967,365.742c0,0.756-0.074,1.043-0.648,1.547
		c-1.477,1.297-3.349,1.945-4.429,1.945c-2.304,0-5.436-2.377-5.436-7.381c0-2.881,0.576-4.5,1.224-5.328
		c1.332-1.873,3.564-1.98,4.393-1.98c1.512,0,3.42,0.469,4.212,1.404c0.575,0.648,0.685,0.9,0.685,2.16V365.742z M582.849,366.785
		c-1.692,1.549-3.563,2.484-6.265,2.484c-2.311,0-4.5-0.791-5.977-2.879c-0.899-1.369-1.332-2.486-1.332-4.861h13.502
		c0.504,0,0.863-0.613,0.863-1.045c0-3.383-2.016-7.416-8.137-7.416c-4.968,0-9.684,3.42-9.684,9.504
		c0,2.234,0.756,4.43,2.231,5.941c1.513,1.619,4.284,2.557,7.452,2.557c3.385,0,6.373-1.404,8.172-3.492
		C583.568,367.182,583.389,366.822,582.849,366.785 M569.456,360.053c0.827-4.32,3.672-5.545,5.976-5.545
		c1.729,0,4.609,1.01,4.609,4.465c0,0.359-0.217,0.93-0.721,0.936L569.456,360.053z M536.766,366.785
		c-1.693,1.549-3.564,2.484-6.265,2.484c-2.312,0-4.5-0.791-5.976-2.879c-0.9-1.369-1.332-2.486-1.332-4.861h13.5
		c0.504,0,0.864-0.613,0.864-1.045c0-3.383-2.017-7.416-8.137-7.416c-4.968,0-9.685,3.42-9.685,9.504
		c0,2.234,0.756,4.43,2.231,5.941c1.513,1.619,4.285,2.557,7.453,2.557c3.384,0,6.372-1.404,8.173-3.492
		C537.486,367.182,537.306,366.822,536.766,366.785 M523.373,360.053c0.828-4.32,3.672-5.545,5.976-5.545
		c1.728,0,4.608,1.01,4.608,4.465c0,0.359-0.217,0.93-0.721,0.936L523.373,360.053z M509.367,368.693
		c0.181-0.145,0.469-0.252,0.469,0.037c0,0.971,0.396,2.34,0.396,2.34c0.287,0.107,0.396,0.072,0.684,0
		c0.792-0.648,2.304-1.229,5.004-1.441c0.216-0.215,0.216-0.756,0-0.971c-2.7-0.328-2.988-0.865-2.988-2.629v-16.309
		c0-2.342,0.145-3.781,0.145-3.781c0-0.252-0.145-0.359-0.469-0.359c-0.899,0.359-4.608,0.863-6.049,0.971
		c-0.072,0.289,0,0.865,0.217,1.08c2.592,0.105,3.024,0.285,3.024,2.953v2.809c0,0.289-0.071,0.359-0.36,0.359
		c-0.145,0-2.701-0.646-4.104-0.646c-2.808,0-4.644,0.863-6.372,2.375c-1.836,1.729-2.916,4.104-2.916,7.092
		c0,4.934,2.988,8.533,7.561,8.533C505.263,371.105,507.387,370.314,509.367,368.693 M509.8,365.742
		c0,0.756-0.071,1.043-0.647,1.547c-1.477,1.297-3.35,1.945-4.43,1.945c-2.304,0-5.436-2.377-5.436-7.381
		c0-2.881,0.576-4.5,1.224-5.328c1.331-1.873,3.563-1.98,4.392-1.98c1.513,0,3.42,0.469,4.213,1.404
		c0.576,0.648,0.685,0.9,0.685,2.16V365.742z M455.436,356.705c-0.107,0.145-0.324,0.504-0.324,0c0-2.201-0.119-3.086-0.289-3.457
		c-0.074-0.166-0.144-0.287-0.432-0.287c-1.008,0.396-2.34,0.721-4.824,1.043c-0.071,0.217,0,0.793,0.072,1.01
		c1.944,0.18,2.34,0.359,2.34,2.447v8.713c0,2.951-0.359,3.057-2.88,3.275c-0.216,0.217-0.216,1.117,0,1.332
		c1.476-0.035,2.88-0.072,4.429-0.072c1.403,0,2.232,0.037,3.744,0.072c0.217-0.215,0.217-1.115,0-1.332
		c-1.836-0.18-2.16-0.324-2.16-3.275v-6.877c0-0.756,0.324-1.188,0.611-1.512c1.369-1.332,3.385-2.844,5.581-2.844
		c0.72,0,1.408,0.506,1.908,1.295c0.433,0.684,0.54,1.693,0.54,2.771v7.166c0,2.951-0.359,3.096-2.232,3.275
		c-0.18,0.217-0.18,1.117,0,1.332c1.512-0.035,2.34-0.072,3.78-0.072c1.476,0,2.808,0.037,4.356,0.072
		c0.181-0.215,0.181-1.115,0-1.332c-2.377-0.148-2.772-0.324-2.772-3.275v-7.057c0-1.98-0.144-3.781-1.08-4.824
		c-0.669-0.746-1.728-1.225-2.987-1.225C459.936,353.068,457.633,354.256,455.436,356.705 M435.598,354.545
		c4.104,0,6.59,2.951,6.59,8.855c0,5.148-3.025,6.193-5.293,6.193c-4.933,0-6.517-4.896-6.517-8.064
		C430.378,357.965,431.418,354.545,435.598,354.545 M426.921,362.43c0,4.104,3.024,8.641,9.325,8.641c2.844,0,5.005-0.9,6.517-2.232
		c2.017-1.764,2.88-4.32,2.88-6.77c0-4.176-2.556-9-9.324-9c-2.916,0-5.293,1.08-6.912,2.809
		C427.82,357.605,426.921,359.908,426.921,362.43 M437.289,344.463l-2.721,4.285c-0.291,0.461-0.41,0.605-0.41,1.008
		c0,0.252,0.252,0.469,0.504,0.469s0.539-0.145,1.08-0.686l4.141-3.924l-0.109-0.395c-0.828-0.793-1.748-0.828-1.979-0.828
		C437.613,344.393,437.398,344.428,437.289,344.463 M415.4,365.887v-8.57c0-2.441,0.504-3.041,0.504-3.887
		c0-0.234-0.26-0.469-0.504-0.469c-0.403,0-1.404,0.227-2.369,0.398c-1.642,0.295-4.694,0.58-6.271,0.682
		c-0.107,0.307-0.072,0.9,0.072,1.188c3.438,0.072,4.723,0.141,5.04,0.541c0.342,0.432,0.396,0.898,0.396,1.836v8.281
		c0,1.691-0.144,2.375-0.647,2.771c-0.397,0.287-4.572,0.719-6.337,0.791c-0.215,0.217-0.215,1.117,0,1.332
		c1.513-0.035,6.984-0.072,8.604-0.072c1.513,0,6.589,0.037,8.138,0.072c0.215-0.215,0.215-1.115,0-1.332
		c-1.944-0.072-5.58-0.504-5.977-0.791C415.508,368.297,415.4,367.613,415.4,365.887 M411.584,347.309
		c0,1.08,0.971,2.158,1.943,2.158c1.117,0,2.09-1.115,2.09-1.979c0-1.008-0.864-2.16-1.945-2.16
		C412.699,345.328,411.584,346.299,411.584,347.309 M399.523,366.822c-0.145-0.361-0.648-0.865-1.045-0.9
		c-2.268,2.34-5.039,3.203-6.875,3.203c-4.033,0-6.914-3.311-6.914-7.668c0-4.213,2.16-6.912,5.834-6.912
		c2.52,0,4.571,1.439,4.823,3.275c0.148,1.076,0.937,1.729,1.8,1.729c1.08,0,1.692-0.697,1.692-2.053c0-0.77-0.442-1.623-1.26-2.303
		c-1.515-1.26-4.198-2.125-6.841-2.125c-5.076,0-9.324,3.889-9.324,9.252c0,4.861,3.348,8.75,9.289,8.75
		C393.258,371.07,396.283,370.494,399.523,366.822 M370.289,368.73c0.18,1.223,0.611,2.34,3.096,2.34c2.736,0,4.249-1.57,4.249-1.98
		c0-0.289-0.396-0.684-0.612-0.684c-0.287,0-0.432,0.648-1.404,0.648c-1.799,0-2.275-1.621-2.196-3.422l0.252-5.797
		c0.353-5.67-3.239-6.768-6.624-6.768c-3.779,0-7.705,2.268-7.705,4.428c0,0.973,0.684,1.404,1.621,1.404
		c1.116,0,1.98-0.648,1.98-1.152c0-0.287-0.072-0.611-0.145-0.756c-0.036-0.107-0.072-0.359-0.072-0.791
		c0-1.26,2.197-1.693,3.961-1.693c1.943,0,3.924,1.01,3.924,5.4c0,0.289-0.252,0.469-0.36,0.504l-4.681,0.793
		c-5.123,0.867-7.633,2.988-7.633,5.652c0,3.061,2.486,4.213,5.797,4.213c2.197,0,3.312-0.324,5.437-1.656l1.008-0.684H370.289z
		 M370.541,361.709l-0.252,4.824c-0.029,0.543-0.36,0.865-0.721,1.117c-1.224,0.791-3.42,1.799-4.752,1.799
		c-2.412,0-3.312-1.547-3.312-2.771c0-2.016,1.663-3.557,4.716-4.141L370.541,361.709z M352.432,366.785
		c-1.691,1.549-3.564,2.484-6.265,2.484c-2.312,0-4.5-0.791-5.976-2.879c-0.9-1.369-1.332-2.486-1.332-4.861h13.5
		c0.504,0,0.863-0.613,0.863-1.045c0-3.383-2.015-7.416-8.136-7.416c-4.968,0-9.685,3.42-9.685,9.504
		c0,2.234,0.756,4.43,2.232,5.941c1.512,1.619,4.284,2.557,7.452,2.557c3.384,0,6.372-1.404,8.173-3.492
		C353.152,367.182,352.971,366.822,352.432,366.785 M339.039,360.053c0.828-4.32,3.672-5.545,5.976-5.545
		c1.728,0,4.609,1.01,4.609,4.465c0,0.359-0.216,0.93-0.72,0.936L339.039,360.053z M320.39,356.092c0-1.961-0.108-2.482-0.288-2.844
		c-0.072-0.18-0.145-0.287-0.432-0.287c-1.585,0.27-4.393,0.721-6.877,1.043c-0.072,0.217,0,0.793,0.072,1.01
		c0.846,0,3.455,0.287,3.815,0.504c0.468,0.287,0.577,0.756,0.577,1.943v8.713c0,1.729-0.148,2.404-0.686,2.771
		c-0.342,0.234-3.275,0.432-4.752,0.504c-0.215,0.217-0.215,1.117,0,1.332c1.513-0.035,6.013-0.072,7.453-0.072
		c1.477,0,5.869,0.037,7.416,0.072c0.217-0.215,0.217-1.115,0-1.332c-1.26-0.035-5.076-0.287-5.508-0.504
		c-0.648-0.359-0.792-1.008-0.792-2.771v-4.969c0-0.936,0.331-1.711,0.864-2.305c2.016-2.25,3.779-3.727,5.184-3.727
		c0.504,0,1.332,0.451,1.584,0.738c0.396,0.434,0.936,0.973,1.656,0.973c0.936,0,1.692-1.008,1.692-1.98
		c0-0.719-0.433-1.836-2.052-1.836c-4.356,0-6.156,1.639-8.568,4.176C320.439,357.572,320.39,357.281,320.39,356.092
		 M299.256,371.07c3.132,0,6.768-1.512,8.965-4.572c-0.145-0.324-0.611-0.684-0.972-0.684c-2.306,2.664-5.005,3.779-8.029,3.779
		c-4.896,0-7.957-4.969-7.957-9.973c0-6.336,3.853-10.045,7.921-10.045c4.465,0,6.623,2.701,7.453,5.652
		c0.396,0.145,0.792,0.037,1.152-0.18c-0.145-1.764-0.432-3.42-0.721-5.293c-1.656-0.18-3.528-1.549-7.524-1.549
		c-6.731,0-11.772,5.582-11.772,12.062C287.771,366.102,292.055,371.07,299.256,371.07"/>
	<polygon clip-path="url(#SVGID_2_)" fill="none" stroke="#0046FA" stroke-width="1.998" points="0.999,3 0.999,489.168 
		0.999,491.17 3,491.17 1167.087,491.17 1169.088,491.17 1169.088,489.168 1169.088,3 1169.088,0.998 1167.087,0.998 3,0.998 
		0.999,0.998 	"/>
</g>
<rect x="5.001" y="5.002" fill="none" stroke="#0046FA" stroke-width="1.998" width="1160.085" height="482.164"/>
<line fill="none" stroke="#0046FA" stroke-width="2" x1="25.491" y1="293.02" x2="1144.085" y2="293.02"/>
<line fill="none" stroke="#0046FA" stroke-width="2" x1="806.059" y1="27.001" x2="806.059" y2="274.02"/>
<line fill="none" stroke="#0046FA" stroke-width="2" x1="918.812" y1="314.021" x2="918.812" y2="466.033"/>
<line fill="none" stroke="#0046FA" stroke-width="2" x1="250.857" y1="314.021" x2="250.857" y2="466.033"/>
<g>
	<defs>
		<rect id="SVGID_23_" width="1170.088" height="492.168"/>
	</defs>
	<clipPath id="SVGID_4_">
		<use xlink:href="#SVGID_23_"  overflow="visible"/>
	</clipPath>
	<path clip-path="url(#SVGID_4_)" fill="#0046FA" d="M1051.398,314.582l-14.491,11.961c17.327,26.223,34.193,45.238,50.604,57.045
		c-13.803-1.227-27.067-1.84-39.793-1.84h-81.656v18.4h81.656c12.726,0,25.99-0.611,39.793-1.84
		c-16.411,11.811-33.277,30.822-50.604,57.045l14.491,11.959c10.731-17.631,21.352-32.236,31.856-43.816
		c10.503-11.576,22.503-22.197,35.998-31.857v-1.381c-13.495-9.66-25.495-20.277-35.998-31.857
		C1072.75,346.824,1062.13,332.219,1051.398,314.582"/>
</g>
</svg>
