<?xml version="1.0" encoding="utf-8"?>
<!-- Generator: Adobe Illustrator 16.0.0, SVG Export Plug-In . SVG Version: 6.00 Build 0)  -->
<!DOCTYPE svg PUBLIC "-//W3C//DTD SVG 1.1//EN" "http://www.w3.org/Graphics/SVG/1.1/DTD/svg11.dtd">
<svg version="1.1" id="Layer_1" xmlns="http://www.w3.org/2000/svg" xmlns:xlink="http://www.w3.org/1999/xlink" x="0px" y="0px"
	 width="1170.09px" height="575.043px" viewBox="0 0 1170.09 575.043" enable-background="new 0 0 1170.09 575.043"
	 xml:space="preserve">
<g>
	<defs>
		<rect id="SVGID_49_" width="1170.088" height="575.043"/>
	</defs>
	<clipPath id="SVGID_2_">
		<use xlink:href="#SVGID_49_"  overflow="visible"/>
	</clipPath>
	<path clip-path="url(#SVGID_2_)" fill="#231F20" d="M331.533,528.731c6.009,6.009,13.269,9.021,21.779,9.021
		c8.504,0,15.765-3.012,21.78-9.021c6.009-6.009,9.021-13.269,9.021-21.78c0-8.504-3.012-15.764-9.021-21.779
		c-6.016-6.01-13.276-9.021-21.78-9.021c-8.511,0-15.771,3.011-21.779,9.021c-6.016,6.016-9.021,13.275-9.021,21.779
		C322.513,515.463,325.518,522.723,331.533,528.731 M187.434,239.432h5.279v199.76H81.833v-5.28L187.434,239.432z M50.152,422.472
		v51.04h142.561v58.08h36.96v-58.08h47.521v-34.32h-47.521v-215.6h-71.72L50.152,422.472z"/>
</g>
<line fill="none" stroke="#231F20" stroke-width="2" x1="26.479" y1="173.959" x2="854.066" y2="173.959"/>
<line fill="none" stroke="#231F20" stroke-width="2" x1="453.044" y1="373.555" x2="854.066" y2="373.555"/>
<line fill="none" stroke="#231F20" stroke-width="2" x1="875.066" y1="25.151" x2="875.066" y2="550.15"/>
<line fill="none" stroke="#231F20" stroke-width="2" x1="432.043" y1="194.96" x2="432.043" y2="550.15"/>
<g>
	<defs>
		<rect id="SVGID_51_" width="1170.088" height="575.043"/>
	</defs>
	<clipPath id="SVGID_4_">
		<use xlink:href="#SVGID_51_"  overflow="visible"/>
	</clipPath>
	<path clip-path="url(#SVGID_4_)" fill="#FF1419" d="M786.782,79.325h0.391l4.884,14.99h-10.401L786.782,79.325z M795.279,104.032
		c0.52,1.399,0.463,2.562-0.171,3.49c-0.636,0.928-1.88,1.393-3.736,1.393h-2.685v18.115h44.384v-18.115h-2.001
		c-1.205,0-2.19-0.114-2.955-0.342c-0.766-0.228-1.375-0.578-1.832-1.051c-0.455-0.471-0.837-1.041-1.146-1.709
		c-0.31-0.666-0.658-1.455-1.05-2.367l-10.01-24.707c-0.749-1.791-0.887-3.157-0.415-4.103c0.471-0.942,1.912-1.416,4.322-1.416
		h0.976V55.106h-50.194v18.114h1.024c2.376,0,3.8,0.448,4.273,1.343c0.471,0.896,0.349,2.287-0.367,4.176l-10.009,24.707
		c-0.75,1.791-1.522,3.148-2.32,4.076c-0.799,0.928-2.368,1.393-4.712,1.393h-2.001v18.115h30.419v-18.115h-2.783
		c-1.888,0-3.125-0.465-3.711-1.393s-0.618-2.091-0.097-3.49l0.683-2.101h15.43L795.279,104.032z M694.564,127.128
		c5.272,0,10.254-0.618,14.94-1.855c4.688-1.238,8.781-3.256,12.28-6.056c3.498-2.799,6.266-6.494,8.301-11.084
		c2.034-4.589,3.053-10.253,3.053-16.991s-1.034-12.41-3.102-17.017s-4.803-8.31-8.203-11.108c-3.402-2.8-7.285-4.818-11.645-6.055
		c-4.363-1.236-8.871-1.855-13.526-1.855h-51.806v18.114c2.863,0,4.914,0.384,6.151,1.148s1.855,2.221,1.855,4.37v24.707
		c0,2.115-0.618,3.557-1.855,4.32c-1.237,0.766-3.288,1.148-6.151,1.148v18.115L694.564,127.128z M681.673,108.915V73.221h4.591
		c1.854,0,3.653,0.204,5.395,0.611c1.74,0.407,3.239,1.245,4.492,2.514c1.253,1.271,2.271,3.085,3.051,5.445
		c0.783,2.36,1.173,5.478,1.173,9.351c0,3.938-0.407,7.072-1.22,9.399c-0.815,2.327-1.864,4.11-3.15,5.346
		c-1.287,1.238-2.783,2.052-4.492,2.442c-1.709,0.39-3.459,0.586-5.248,0.586H681.673z M590.089,108.915V94.853h15.576V86.21
		h-15.576V73.221h8.789c1.334,0,2.449,0.122,3.345,0.367c0.896,0.244,1.611,0.676,2.148,1.294s0.904,1.48,1.099,2.587
		c0.195,1.106,0.294,2.522,0.294,4.248h17.09v-26.61h-69.58v18.114c2.863,0,4.914,0.384,6.152,1.148
		c1.236,0.765,1.854,2.221,1.854,4.37v24.707c0,2.115-0.618,3.557-1.854,4.32c-1.238,0.766-3.289,1.148-6.152,1.148v18.115h69.58
		v-26.611h-17.09c0,1.725-0.099,3.141-0.294,4.248c-0.194,1.107-0.562,1.977-1.099,2.611c-0.537,0.636-1.253,1.067-2.148,1.295
		s-2.011,0.342-3.345,0.342H590.089z M451.777,55.106v18.114c2.863,0,4.914,0.384,6.152,1.148c1.236,0.765,1.854,2.221,1.854,4.37
		v23.486c0,1.596,0.13,3.344,0.392,5.248c0.26,1.905,0.789,3.858,1.586,5.86s1.93,3.938,3.394,5.81
		c1.465,1.872,3.435,3.541,5.909,5.006c2.473,1.465,5.492,2.645,9.057,3.539c3.564,0.896,7.82,1.344,12.77,1.344
		c6.803,0,12.271-0.887,16.406-2.661c4.133-1.774,7.315-4.005,9.545-6.69c2.229-2.685,3.728-5.646,4.492-8.886
		c0.766-3.239,1.148-6.356,1.148-9.351V78.153c0-2.019,0.586-3.346,1.757-3.98c1.172-0.634,2.849-0.952,5.03-0.952V55.106h-32.178
		v18.114c2.115,0,3.775,0.351,4.979,1.05c1.204,0.701,1.807,2.06,1.807,4.077v22.462c0,2.799-0.716,5.021-2.147,6.664
		c-1.434,1.645-3.711,2.467-6.836,2.467c-1.629,0-2.971-0.252-4.029-0.758c-1.059-0.504-1.904-1.188-2.539-2.051
		c-0.634-0.861-1.082-1.848-1.342-2.954c-0.262-1.106-0.391-2.262-0.391-3.466V78.153c0-1.758,0.479-3.02,1.439-3.784
		s2.678-1.148,5.152-1.148V55.106H451.777z M380.213,111.039c-1.367-0.733-2.052-1.863-2.052-3.394c0-0.88,0.383-1.766,1.147-2.662
		c0.765-0.895,2.125-1.343,4.078-1.343c1.594,0,3.174,0.464,4.735,1.392c1.563,0.929,2.849,2.158,3.858,3.687
		c-1.4,2.279-3.76,3.418-7.08,3.418C383.143,112.137,381.579,111.771,380.213,111.039 M375.622,81.278
		c0.293-2.703,0.806-4.866,1.538-6.494c0.732-1.627,1.717-2.809,2.954-3.54c1.237-0.733,2.832-1.099,4.786-1.099
		c1.855,0,3.418,0.365,4.688,1.099c1.27,0.731,2.271,1.913,3.002,3.54c0.732,1.628,1.245,3.791,1.538,6.494
		c0.294,2.701,0.44,5.99,0.44,9.863c0,1.79-0.033,3.45-0.098,4.98c-0.066,1.529-0.164,2.962-0.293,4.297
		c-1.336-0.65-2.752-1.18-4.248-1.587c-1.498-0.407-3.076-0.611-4.736-0.611c-2.215,0-4.102,0.384-5.664,1.148
		s-2.85,1.62-3.857,2.562c-0.195-1.465-0.326-3.084-0.392-4.858c-0.065-1.773-0.097-3.75-0.097-5.932
		C375.184,87.269,375.329,83.979,375.622,81.278 M345.471,107.621c2.067,4.735,4.988,8.708,8.766,11.913
		c3.775,3.207,8.259,5.607,13.451,7.203c5.193,1.595,10.93,2.393,17.213,2.393c3.189,0,5.867-0.164,8.031-0.489
		s4.549-0.798,7.153-1.415c1.726,3.32,3.81,5.883,6.25,7.69c2.442,1.806,5.519,2.71,9.229,2.71c5.402,0,9.375-2.068,11.914-6.202
		s3.808-10.465,3.808-18.994h-4.59c-0.065,0.945-0.154,2.027-0.269,3.247c-0.113,1.221-0.383,2.369-0.806,3.443
		s-1.082,1.977-1.978,2.71c-0.896,0.731-2.189,1.098-3.881,1.098c-1.107,0-2.133-0.251-3.076-0.756
		c-0.945-0.505-1.678-1.082-2.198-1.733c4.396-3.613,7.642-7.887,9.741-12.817c2.1-4.933,3.15-10.425,3.15-16.479
		c0-6.283-1.035-11.793-3.101-16.529c-2.067-4.735-4.981-8.698-8.741-11.89c-3.759-3.19-8.244-5.581-13.451-7.177
		c-5.209-1.595-10.938-2.393-17.188-2.393c-6.283,0-12.02,0.798-17.213,2.393c-5.192,1.596-9.676,3.986-13.451,7.177
		c-3.777,3.191-6.698,7.154-8.766,11.89c-2.067,4.736-3.101,10.246-3.101,16.529C342.37,97.392,343.403,102.884,345.471,107.621
		 M317.096,55.106h-16.113v4.541c-2.051-1.334-4.932-2.604-8.643-3.809s-8.154-1.807-13.33-1.807c-3.744,0-7.301,0.48-10.67,1.439
		c-3.369,0.961-6.34,2.377-8.91,4.248c-2.572,1.873-4.623,4.176-6.152,6.91c-1.531,2.734-2.295,5.876-2.295,9.423
		c0,4.786,0.968,8.66,2.904,11.621c1.937,2.963,4.338,5.347,7.203,7.154c2.863,1.806,5.998,3.19,9.398,4.149
		c3.402,0.961,6.535,1.824,9.4,2.588c2.863,0.766,5.265,1.637,7.201,2.612c1.937,0.978,2.905,2.361,2.905,4.151
		c0,1.14-0.586,2.156-1.757,3.052c-1.172,0.896-2.947,1.342-5.323,1.342c-3.548,0-6.737-1.098-9.569-3.296
		c-2.832-2.197-4.721-5.199-5.664-9.008h-16.113v26.611h16.113v-4.297c3.612,1.985,7.152,3.418,10.619,4.297
		s7.104,1.317,10.914,1.317c3.905,0,7.682-0.407,11.327-1.22c3.646-0.814,6.868-2.1,9.668-3.857c2.8-1.759,5.029-4.005,6.69-6.738
		c1.66-2.734,2.49-6.038,2.49-9.912c0-3.646-0.57-6.771-1.709-9.375c-1.141-2.604-2.638-4.811-4.492-6.616
		c-1.856-1.808-3.973-3.288-6.348-4.444c-2.377-1.154-4.795-2.14-7.252-2.953s-4.875-1.498-7.25-2.052
		c-2.377-0.553-4.492-1.13-6.349-1.733c-1.854-0.602-3.353-1.317-4.492-2.147c-1.14-0.831-1.709-1.912-1.709-3.248
		c0-1.399,0.636-2.489,1.905-3.271s2.929-1.172,4.98-1.172c1.691,0,3.336,0.285,4.932,0.854c1.594,0.569,3.043,1.375,4.345,2.417
		s2.401,2.277,3.296,3.71s1.473,2.979,1.734,4.64h16.113V55.106z M198.217,36.063l-10.205,15.088h12.012l17.871-15.088H198.217z
		 M148.997,55.106v18.114c2.864,0,4.915,0.384,6.153,1.148c1.236,0.765,1.855,2.221,1.855,4.37v23.486
		c0,1.596,0.129,3.344,0.391,5.248c0.26,1.905,0.789,3.858,1.587,5.86c0.797,2.002,1.928,3.938,3.393,5.81
		c1.466,1.872,3.435,3.541,5.908,5.006s5.494,2.645,9.058,3.539c3.564,0.896,7.82,1.344,12.77,1.344
		c6.803,0,12.271-0.887,16.406-2.661c4.133-1.774,7.315-4.005,9.545-6.69c2.229-2.685,3.728-5.646,4.492-8.886
		s1.147-6.356,1.147-9.351V78.153c0-2.019,0.586-3.346,1.758-3.98c1.173-0.634,2.849-0.952,5.029-0.952V55.106h-32.177v18.114
		c2.115,0,3.775,0.351,4.979,1.05c1.204,0.701,1.808,2.06,1.808,4.077v22.462c0,2.799-0.717,5.021-2.149,6.664
		c-1.433,1.645-3.711,2.467-6.836,2.467c-1.628,0-2.97-0.252-4.028-0.758c-1.058-0.504-1.904-1.188-2.539-2.051
		c-0.635-0.861-1.082-1.848-1.343-2.954s-0.39-2.262-0.39-3.466V78.153c0-1.758,0.479-3.02,1.439-3.784
		c0.961-0.765,2.678-1.148,5.151-1.148V55.106H148.997z M83.732,73.221h7.373c2.018,0,3.474,0.652,4.369,1.953
		c0.896,1.304,1.344,2.815,1.344,4.541c0,1.824-0.448,3.378-1.344,4.664s-2.352,1.928-4.369,1.928h-7.373V73.221z M83.732,108.915
		V94.95h7.275c2.733,0,4.621,0.561,5.664,1.684c1.041,1.123,1.562,2.922,1.562,5.396c0,2.474-0.521,4.24-1.562,5.298
		c-1.043,1.058-2.931,1.587-5.664,1.587H83.732z M124.26,66.36c-0.488-2.164-1.482-4.076-2.979-5.736s-3.63-2.995-6.396-4.004
		c-2.768-1.01-6.396-1.514-10.89-1.514h-57.08v18.114c2.864,0,4.915,0.384,6.153,1.148c1.236,0.765,1.855,2.221,1.855,4.37v24.707
		c0,2.115-0.619,3.557-1.855,4.32c-1.238,0.766-3.289,1.148-6.153,1.148v18.115h53.711c5.86,0,10.523-0.553,13.989-1.66
		c3.467-1.106,6.12-2.539,7.959-4.297s3.035-3.768,3.589-6.03s0.83-4.565,0.83-6.91c0-5.599-1.628-9.879-4.882-12.841
		c-3.256-2.962-7.715-4.51-13.379-4.639v-0.537c10.84-0.978,16.259-6.674,16.259-17.09C124.991,70.748,124.747,68.526,124.26,66.36"
		/>
	<path clip-path="url(#SVGID_4_)" fill="#231F20" d="M995.115,466.524c6.024,0,20.082,1.34,32.132-7.362
		c12.049-8.703,21.42-28.115,21.42-68.279s-9.371-59.577-21.42-68.279c-12.05-8.701-26.107-7.363-32.132-7.363V466.524z
		 M995.115,248.97c6.024,0,20.082,0.669,32.132-7.363c12.049-8.033,21.42-24.099,21.42-58.238c0-34.139-9.371-50.205-21.42-58.237
		c-12.05-8.033-26.107-7.364-32.132-7.364V248.97z M922.82,538.15V46.141h63.593c42.842,0,76.312,8.033,98.401,28.784
		c22.09,20.752,33.471,52.883,33.471,101.749c0,23.429-2.008,40.834-9.371,56.899c-7.365,16.065-18.744,29.453-35.48,44.85
		c18.075,10.041,31.463,28.785,42.173,60.246c5.356,15.396,8.033,35.479,8.033,60.247c0,36.816-6.694,69.617-23.429,95.055
		c-16.735,25.438-45.52,42.172-88.361,44.18H922.82z"/>
	<path clip-path="url(#SVGID_4_)" fill="#231F20" d="M824.026,324.713c0.148,1.845,0.316,3.596,0.633,4.992
		c0.69,0.243,3.085,0.82,5.179,0.82c2.869,0,6.445-1.562,6.445-4.806c0-1.264-0.312-2.281-1.139-3.205
		c-1.078-1.203-2.623-2.123-4.337-2.868c-1.49-0.649-2.013-1.822-2.013-2.907c0-0.857,0.708-1.565,1.789-1.565
		c1.305,0,2.57,1.193,3.502,3.467c0.671,0.11,1.08,0.073,1.453-0.188c0-1.341-0.148-2.757-0.484-3.949
		c-1.192-0.521-2.123-0.894-4.174-0.894c-1.963,0-3.852,0.737-5.029,1.937c-0.856,0.872-1.266,1.9-1.266,2.906
		c0,1.107,0.428,1.997,1.154,2.795c1.155,1.267,3.186,2.582,4.322,3.092c1.489,0.672,1.899,2.013,1.899,2.906
		c0,1.196-1.191,1.826-2.197,1.826c-1.681,0-3.466-1.695-4.248-4.434C824.92,324.526,824.622,324.564,824.026,324.713
		 M803.087,322.44c0,4.866,3.86,8.085,8.867,8.085c2.627,0,4.84-0.753,6.372-2.124c1.885-1.688,2.533-4.221,2.533-6.296
		c0-4.874-3.334-8.495-8.867-8.495c-3.089,0-5.396,1.065-6.867,2.757C803.713,317.991,803.087,320.238,803.087,322.44
		 M811.396,315.174c2.534,0,4.248,3.019,4.248,8.123c0,4.476-1.751,5.663-3.095,5.663c-3.054,0-4.246-4.583-4.246-7.34
		C808.303,318.192,808.898,315.174,811.396,315.174 M793.325,307.946c0,1.23,0.894,2.459,2.385,2.459
		c1.675,0,2.646-1.341,2.646-2.311c0-1.117-0.857-2.459-2.422-2.459C794.182,305.636,793.325,306.828,793.325,307.946
		 M798.355,325.607v-7.426c0-1.853,0.148-3.938,0.148-3.938c0-0.41-0.336-0.633-0.856-0.633c-1.062,0.409-4.062,0.707-6.632,1.043
		c-0.074,0.223,0,0.969,0.074,1.192c2.03,0.189,2.422,0.483,2.422,2.607v7.154c0,3.092-0.41,3.167-2.683,3.353
		c-0.224,0.225-0.224,1.043,0,1.268c1.565-0.037,3.115-0.074,5.104-0.074s3.503,0.037,5.104,0.074c0.223-0.225,0.223-1.043,0-1.268
		C798.766,328.812,798.355,328.699,798.355,325.607 M782.26,320.156c0-1.33,0.408-1.87,0.895-2.448
		c0.305-0.364,0.633-0.633,1.182-0.633c0.35,0,0.737,0.328,1.054,0.711c0.261,0.313,0.894,0.611,1.732,0.611
		c1.079,0,2.143-1.136,2.143-2.701c0-0.969-1.117-2.086-2.46-2.086c-1.304,0-2.719,1.117-4.434,3.576h-0.148
		c-0.074-1.117-0.261-2.943-0.261-2.943c-0.029-0.328-0.336-0.633-0.856-0.633c-1.77,0.447-3.727,0.987-6.186,1.229
		c-0.074,0.225,0,0.933,0.074,1.155c2.031,0.19,2.422,0.522,2.422,2.646v6.967c0,3.092-0.41,3.167-2.683,3.353
		c-0.224,0.225-0.224,1.043,0,1.268c1.564-0.037,3.115-0.074,5.104-0.074s3.502,0.037,5.104,0.074c0.224-0.225,0.224-1.043,0-1.268
		c-2.274-0.148-2.683-0.261-2.683-3.353V320.156z M771.604,325.347c-1.528,1.564-3.54,1.975-4.956,1.975
		c-2.906,0-4.694-1.677-4.694-5.328c0-0.261,0.037-0.41,0.037-0.596h8.942c0.894,0,1.08-0.634,1.08-1.155
		c0-3.167-1.23-6.632-6.706-6.632c-3.912,0-8.384,3.465-8.384,9.165c0,2.18,0.789,4.441,2.385,5.887
		c1.4,1.271,3.237,1.863,5.887,1.863c2.57,0,5.104-1.304,6.968-4.024C772.163,326.018,771.977,325.347,771.604,325.347
		 M762.141,319.906c0.036-1.304,0.237-2.708,0.744-3.465c0.593-0.887,1.592-1.268,2.013-1.268c1.006,0,2.385,0.97,2.385,3.95
		c0,0.224,0,0.708-0.075,0.782H762.141z M744.555,313.982c-0.521,0.004-1.092,0.148-1.565,0.559v1.081
		c0,0.187,0.038,0.224,0.187,0.224h2.422c-0.086,3.752-0.111,8.531-0.111,10.395c0,1.304,0.32,2.56,1.117,3.242
		c0.839,0.719,2.214,1.043,3.093,1.043c2.06,0,4.321-1.043,5.067-2.086c0-0.447-0.224-0.671-0.672-1.044
		c-0.483,0.373-1.415,0.521-2.123,0.521c-0.819,0-1.64-0.633-1.64-2.496c0-1.862-0.037-5.85-0.037-9.575h3.763
		c0.373,0,0.895-0.149,0.895-0.484v-1.155c0-0.148-0.111-0.224-0.299-0.224h-4.358l0.037-1.267c0.075-2.481,0.188-4.211,0.188-4.211
		c0-0.238-0.112-0.328-0.287-0.328c-0.272,0-1.663,0.414-2.247,0.66c-0.633,0.264-1.722,0.48-1.976,0.823
		c-0.261,0.354-0.409,1.36-0.409,4.318L744.555,313.982z M733.824,307.946c0,1.23,0.893,2.459,2.385,2.459
		c1.676,0,2.646-1.341,2.646-2.311c0-1.117-0.857-2.459-2.422-2.459C734.682,305.636,733.824,306.828,733.824,307.946
		 M738.854,325.607v-7.426c0-1.853,0.148-3.938,0.148-3.938c0-0.41-0.335-0.633-0.856-0.633c-1.062,0.409-4.062,0.707-6.633,1.043
		c-0.074,0.223,0,0.969,0.074,1.192c2.031,0.189,2.422,0.483,2.422,2.607v7.154c0,3.092-0.409,3.167-2.682,3.353
		c-0.224,0.225-0.224,1.043,0,1.268c1.564-0.037,3.114-0.074,5.104-0.074c1.989,0,3.501,0.037,5.104,0.074
		c0.223-0.225,0.223-1.043,0-1.268C739.265,328.812,738.854,328.699,738.854,325.607 M722.758,320.156c0-1.33,0.41-1.87,0.896-2.448
		c0.305-0.364,0.633-0.633,1.181-0.633c0.351,0,0.737,0.328,1.055,0.711c0.261,0.313,0.894,0.611,1.732,0.611
		c1.08,0,2.143-1.136,2.143-2.701c0-0.969-1.118-2.086-2.459-2.086c-1.305,0-2.721,1.117-4.435,3.576h-0.149
		c-0.073-1.117-0.261-2.943-0.261-2.943c-0.03-0.328-0.335-0.633-0.856-0.633c-1.771,0.447-3.727,0.987-6.186,1.229
		c-0.074,0.225,0,0.933,0.075,1.155c2.03,0.19,2.422,0.522,2.422,2.646v6.967c0,3.092-0.41,3.167-2.683,3.353
		c-0.225,0.225-0.225,1.043,0,1.268c1.564-0.037,3.115-0.074,5.104-0.074c1.99,0,3.503,0.037,5.105,0.074
		c0.223-0.225,0.223-1.043,0-1.268c-2.273-0.148-2.684-0.261-2.684-3.353V320.156z M712.997,326.911
		c0-0.447-0.075-1.155-0.485-1.155c-1.489,1.38-2.757,2.086-3.837,2.086c-2.795,0-4.993-2.012-4.993-6.482
		c0-4.135,0.933-6.186,2.906-6.186c1.379,0,1.938,1.454,2.049,2.646c0.112,1.006,1.118,1.751,2.311,1.751
		c1.193,0,2.05-0.931,2.05-2.087c0-1.676-2.012-3.874-6.073-3.874c-4.396,0-8.271,3.539-8.271,9.053c0,2.407,0.864,4.565,2.31,5.925
		c1.464,1.374,3.149,1.938,5.813,1.938C709.01,330.525,711.581,328.96,712.997,326.911 M673.838,324.713
		c0.149,1.845,0.317,3.596,0.635,4.992c0.688,0.243,3.085,0.82,5.178,0.82c2.869,0,6.445-1.562,6.445-4.806
		c0-1.264-0.312-2.281-1.14-3.205c-1.077-1.203-2.623-2.123-4.337-2.868c-1.49-0.649-2.012-1.822-2.012-2.907
		c0-0.857,0.707-1.565,1.789-1.565c1.303,0,2.57,1.193,3.502,3.467c0.671,0.11,1.081,0.073,1.453-0.188
		c0-1.341-0.15-2.757-0.484-3.949c-1.193-0.521-2.124-0.894-4.173-0.894c-1.964,0-3.854,0.737-5.03,1.937
		c-0.856,0.872-1.267,1.9-1.267,2.906c0,1.107,0.429,1.997,1.154,2.795c1.155,1.267,3.187,2.582,4.322,3.092
		c1.49,0.672,1.9,2.013,1.9,2.906c0,1.196-1.192,1.826-2.198,1.826c-1.68,0-3.465-1.695-4.247-4.434
		C674.732,324.526,674.434,324.564,673.838,324.713 M669.889,325.347c-1.527,1.564-3.539,1.975-4.955,1.975
		c-2.906,0-4.694-1.677-4.694-5.328c0-0.261,0.037-0.41,0.037-0.596h8.94c0.896,0,1.082-0.634,1.082-1.155
		c0-3.167-1.229-6.632-6.707-6.632c-3.912,0-8.383,3.465-8.383,9.165c0,2.18,0.79,4.441,2.384,5.887
		c1.401,1.271,3.238,1.863,5.888,1.863c2.57,0,5.104-1.304,6.967-4.024C670.447,326.018,670.261,325.347,669.889,325.347
		 M660.425,319.906c0.037-1.304,0.238-2.708,0.745-3.465c0.594-0.887,1.591-1.268,2.012-1.268c1.007,0,2.385,0.97,2.385,3.95
		c0,0.224,0,0.708-0.074,0.782H660.425z M645.447,325.421c0,3.093-0.596,3.428-2.869,3.539c-0.223,0.225-0.223,1.043,0,1.268
		c1.565-0.037,3.227-0.074,5.291-0.074s3.689,0.037,5.291,0.074c0.223-0.225,0.223-1.043,0-1.268
		c-2.273-0.111-2.869-0.446-2.869-3.539v-16.99c0-2.422,0.112-3.801,0.112-3.801c0-0.334-0.261-0.483-0.597-0.483
		c-1.379,0.446-4.359,0.856-7.006,0.969c-0.11,0.447-0.073,0.856,0.112,1.192c2.348,0.186,2.534,0.238,2.534,2.793V325.421z
		 M628.457,327.731v-9.55c0-0.201-0.003-0.406-0.011-0.607c1.073-0.969,2.452-1.468,3.327-1.468c1.527,0,3.315,1.863,3.315,6.222
		c0,3.13-1.116,6.632-4.358,6.632C630.32,328.96,629.389,328.737,628.457,327.731 M623.614,318.641v15.61
		c0,3.093-0.41,3.167-2.683,3.354c-0.225,0.224-0.225,1.044,0,1.267c1.564-0.037,3.114-0.074,5.104-0.074
		c1.99,0,3.503,0.037,5.105,0.074c0.223-0.223,0.223-1.043,0-1.267c-2.273-0.149-2.684-0.261-2.684-3.354v-4.358
		c0.801,0.41,1.603,0.633,2.497,0.633c5.678,0,9.353-3.707,9.353-9.203c0-2.075-0.787-4.396-2.236-5.849
		c-1.309-1.312-3.178-1.863-5.105-1.863c-1.08,0-3.092,1.304-4.396,2.496h-0.209c-0.085-1.054-0.201-1.863-0.201-1.863
		c-0.033-0.455-0.335-0.633-0.858-0.633c-1.377,0.372-3.612,0.894-6.184,1.229c-0.074,0.225,0,0.97,0.075,1.192
		C623.223,316.222,623.614,316.517,623.614,318.641 M611.691,307.946c0,1.23,0.894,2.459,2.385,2.459
		c1.676,0,2.645-1.341,2.645-2.311c0-1.117-0.856-2.459-2.422-2.459C612.548,305.636,611.691,306.828,611.691,307.946
		 M616.721,325.607v-7.426c0-1.853,0.149-3.938,0.149-3.938c0-0.41-0.335-0.633-0.856-0.633c-1.062,0.409-4.062,0.707-6.633,1.043
		c-0.073,0.223,0,0.969,0.075,1.192c2.03,0.189,2.421,0.483,2.421,2.607v7.154c0,3.092-0.409,3.167-2.682,3.353
		c-0.225,0.225-0.225,1.043,0,1.268c1.564-0.037,3.115-0.074,5.104-0.074c1.99,0,3.502,0.037,5.105,0.074
		c0.223-0.225,0.223-1.043,0-1.268C617.131,328.812,616.721,328.699,616.721,325.607 M597.086,313.982
		c-0.521,0.004-1.092,0.148-1.564,0.559v1.081c0,0.187,0.038,0.224,0.187,0.224h2.421c-0.085,3.752-0.111,8.531-0.111,10.395
		c0,1.304,0.32,2.56,1.117,3.242c0.84,0.719,2.215,1.043,3.094,1.043c2.06,0,4.32-1.043,5.066-2.086
		c0-0.447-0.223-0.671-0.671-1.044c-0.483,0.373-1.415,0.521-2.123,0.521c-0.819,0-1.64-0.633-1.64-2.496
		c0-1.862-0.037-5.85-0.037-9.575h3.763c0.373,0,0.895-0.149,0.895-0.484v-1.155c0-0.148-0.111-0.224-0.298-0.224h-4.359
		l0.037-1.267c0.075-2.481,0.187-4.211,0.187-4.211c0-0.238-0.111-0.328-0.287-0.328c-0.271,0-1.661,0.414-2.247,0.66
		c-0.633,0.264-1.721,0.48-1.975,0.823c-0.261,0.354-0.41,1.36-0.41,4.318L597.086,313.982z M586.356,325.421
		c0,3.093-0.597,3.428-2.869,3.539c-0.224,0.225-0.224,1.043,0,1.268c1.565-0.037,3.226-0.074,5.291-0.074
		c2.063,0,3.687,0.037,5.29,0.074c0.224-0.225,0.224-1.043,0-1.268c-2.272-0.111-2.869-0.446-2.869-3.539v-16.99
		c0-2.422,0.112-3.801,0.112-3.801c0-0.334-0.263-0.483-0.597-0.483c-1.379,0.446-4.358,0.856-7.005,0.969
		c-0.11,0.447-0.073,0.856,0.112,1.192c2.346,0.186,2.534,0.238,2.534,2.793V325.421z M579.352,325.197v-6.446
		c0-3.129,0.074-2.682,0.074-3.577c0-0.633-0.148-1.043-0.373-1.266c-0.67,0.037-1.416,0.074-2.123,0.074
		c-1.033,0-3.465-0.037-4.918-0.074c-0.224,0.223-0.224,1.043,0,1.266c1.9,0.188,2.496,0.448,2.496,3.577v6.904
		c0,0.358,0.012,0.731,0.03,1.107c-1.513,0.935-2.769,1.006-3.421,1.006c-1.49,0-2.607-0.168-2.607-2.794v-6.224
		c0-3.129,0.074-2.682,0.074-3.577c0-0.633-0.15-1.043-0.373-1.266c-0.671,0.037-1.441,0.074-2.124,0.074
		c-1.919,0-3.315-0.037-4.919-0.074c-0.223,0.223-0.223,1.043,0,1.266c1.715,0.075,2.497,0.448,2.497,3.577v5.813
		c0,3.968,1.565,5.961,4.769,5.961c1.354,0,4.062-1.073,6.205-2.273c0.082,0.939,0.168,1.641,0.168,1.641
		c0.029,0.446,0.334,0.633,0.856,0.633c1.378-0.372,3.614-0.895,6.185-1.229c0.074-0.224,0-0.969-0.074-1.192
		C579.743,327.913,579.352,327.321,579.352,325.197 M571.862,305.04l-3.093,4.881c-0.223,0.336-0.297,0.672-0.297,0.895
		c0,0.224,0.297,0.521,0.596,0.521c0.373,0,0.894-0.148,1.416-0.596l4.471-4.023l-0.373-0.857c-0.299-0.373-1.006-0.895-2.124-0.895
		C572.271,304.966,571.975,305.003,571.862,305.04 M535.125,325.607v-7.426c0-0.18-0.004-0.361-0.007-0.544
		c1.448-0.88,2.769-1.271,3.397-1.271c1.49,0,2.608,0.67,2.608,2.794v6.222c0,3.131-0.596,3.466-2.124,3.577
		c-0.223,0.225-0.223,1.043,0,1.268c1.565-0.037,2.758-0.074,4.547-0.074c1.787,0,2.942,0.037,4.545,0.074
		c0.223-0.225,0.223-1.043,0-1.268c-1.49-0.111-2.125-0.446-2.125-3.577v-5.812c0-0.913-0.055-1.658-0.134-2.042
		c1.401-0.73,3-1.162,3.601-1.162c1.49,0,2.533,0.67,2.533,2.794v6.222c0,3.131-0.597,3.466-2.125,3.577
		c-0.223,0.225-0.223,1.043,0,1.268c1.565-0.037,2.758-0.074,4.547-0.074c2.049,0,3.688,0.037,5.291,0.074
		c0.223-0.225,0.223-1.043,0-1.268c-2.273-0.111-2.869-0.446-2.869-3.577v-5.812c0-4.098-1.491-5.961-4.695-5.961
		c-1.371,0-4.52,1.479-6.678,2.701c-0.57-1.621-2.06-2.701-4.239-2.701c-1.334,0-4.035,1.401-6.159,2.6
		c-0.089-1.105-0.212-1.967-0.212-1.967c-0.034-0.455-0.335-0.633-0.856-0.633c-1.379,0.372-3.614,0.894-6.186,1.229
		c-0.074,0.225,0,0.97,0.075,1.192c2.03,0.19,2.421,0.485,2.421,2.609v6.967c0,3.092-0.409,3.167-2.682,3.353
		c-0.225,0.225-0.225,1.043,0,1.268c1.564-0.037,3.115-0.074,5.104-0.074c1.699,0,2.757,0.037,4.359,0.074
		c0.224-0.225,0.224-1.043,0-1.268C535.498,328.812,535.125,328.699,535.125,325.607 M502.859,325.607v-7.426v-0.067
		c1.479-1.017,2.996-1.747,3.65-1.747c1.491,0,2.609,0.67,2.609,2.794v6.222c0,3.131-0.598,3.466-2.124,3.577
		c-0.224,0.225-0.224,1.043,0,1.268c1.565-0.037,2.772-0.074,4.545-0.074c2.065,0,3.688,0.037,5.291,0.074
		c0.224-0.225,0.224-1.043,0-1.268c-2.272-0.111-2.869-0.446-2.869-3.577v-5.812c0-4.098-1.751-5.961-4.954-5.961
		c-1.502,0-4.151,1.643-6.205,3.051c-0.086-1.314-0.242-2.418-0.242-2.418c-0.033-0.455-0.334-0.633-0.856-0.633
		c-1.379,0.372-3.614,0.894-6.185,1.229c-0.074,0.225,0,0.97,0.074,1.192c2.03,0.19,2.422,0.485,2.422,2.609v6.967
		c0,3.092-0.409,3.167-2.683,3.353c-0.224,0.225-0.224,1.043,0,1.268c1.565-0.037,3.115-0.074,5.104-0.074
		c1.699,0,2.757,0.037,4.359,0.074c0.223-0.225,0.223-1.043,0-1.268C503.232,328.812,502.859,328.699,502.859,325.607
		 M475.213,322.44c0,4.866,3.86,8.085,8.868,8.085c2.627,0,4.841-0.753,6.371-2.124c1.886-1.688,2.534-4.221,2.534-6.296
		c0-4.874-3.335-8.495-8.868-8.495c-3.089,0-5.396,1.065-6.867,2.757C475.84,317.991,475.213,320.238,475.213,322.44
		 M483.521,315.174c2.533,0,4.248,3.019,4.248,8.123c0,4.476-1.752,5.663-3.092,5.663c-3.056,0-4.248-4.583-4.248-7.34
		C480.43,318.192,481.026,315.174,483.521,315.174 M472.568,326.911c0-0.447-0.074-1.155-0.484-1.155
		c-1.49,1.38-2.758,2.086-3.838,2.086c-2.794,0-4.992-2.012-4.992-6.482c0-4.135,0.932-6.186,2.905-6.186
		c1.379,0,1.938,1.454,2.05,2.646c0.112,1.006,1.117,1.751,2.311,1.751c1.191,0,2.049-0.931,2.049-2.087
		c0-1.676-2.012-3.874-6.073-3.874c-4.397,0-8.272,3.539-8.272,9.053c0,2.407,0.865,4.565,2.311,5.925
		c1.465,1.374,3.148,1.938,5.812,1.938C468.581,330.525,471.152,328.96,472.568,326.911"/>
	<path clip-path="url(#SVGID_4_)" fill="#231F20" d="M822.313,275.863c0,4.866,3.86,8.085,8.867,8.085
		c2.627,0,4.84-0.753,6.372-2.124c1.885-1.688,2.533-4.221,2.533-6.297c0-4.873-3.334-8.495-8.867-8.495
		c-3.089,0-5.396,1.066-6.867,2.758C822.939,271.415,822.313,273.661,822.313,275.863 M830.622,268.597
		c2.533,0,4.247,3.019,4.247,8.123c0,4.475-1.751,5.664-3.092,5.664c-3.056,0-4.248-4.584-4.248-7.34
		C827.529,271.615,828.125,268.597,830.622,268.597 M813.248,281.788c0.078,0.879,0.16,1.526,0.16,1.526
		c0.03,0.446,0.336,0.634,0.857,0.634c1.379-0.373,3.614-0.895,6.185-1.23c0.075-0.223,0-0.969-0.073-1.191
		c-2.031-0.189-2.423-0.783-2.423-2.906v-16.767c0-2.423,0.112-3.8,0.112-3.8c0-0.336-0.261-0.485-0.596-0.485
		c-1.379,0.448-4.36,0.856-7.006,0.97c-0.111,0.446-0.074,0.932,0.112,1.266c2.348,0.187,2.533,0.225,2.533,2.795v4.859
		c-0.712-0.254-1.605-0.426-2.682-0.426c-4.808,0-9.018,4.21-9.018,9.166c0,2.217,0.798,4.776,2.608,6.186
		c1.341,1.043,2.28,1.564,4.359,1.564c1.006,0,3.764-1.64,4.546-2.16H813.248z M813.133,280.044
		c-0.786,0.629-2.753,1.445-3.189,1.445c-1.863,0-3.315-2.087-3.315-6.445c0-1.986,0.228-3.689,0.932-4.845
		c0.614-1.01,1.628-1.603,2.757-1.603c0.977,0,1.889,0.102,2.794,1.334v9.174C813.11,279.406,813.118,279.724,813.133,280.044
		 M792.88,273.579c0-1.33,0.409-1.871,0.894-2.447c0.306-0.365,0.633-0.635,1.181-0.635c0.351,0,0.738,0.328,1.056,0.713
		c0.26,0.312,0.894,0.61,1.731,0.61c1.081,0,2.143-1.136,2.143-2.701c0-0.969-1.118-2.087-2.459-2.087
		c-1.305,0-2.721,1.118-4.434,3.577h-0.148c-0.075-1.118-0.262-2.942-0.262-2.942c-0.029-0.328-0.336-0.635-0.856-0.635
		c-1.771,0.447-3.727,0.988-6.186,1.23c-0.074,0.223,0,0.931,0.074,1.154c2.031,0.19,2.422,0.521,2.422,2.646v6.968
		c0,3.092-0.41,3.167-2.682,3.354c-0.224,0.223-0.224,1.043,0,1.267c1.564-0.038,3.114-0.075,5.104-0.075
		c1.99,0,3.502,0.037,5.104,0.075c0.224-0.224,0.224-1.044,0-1.267c-2.272-0.149-2.682-0.262-2.682-3.354V273.579z M782.224,278.77
		c-1.528,1.565-3.54,1.974-4.956,1.974c-2.906,0-4.694-1.676-4.694-5.328c0-0.26,0.037-0.408,0.037-0.596h8.942
		c0.894,0,1.08-0.633,1.08-1.154c0-3.168-1.229-6.633-6.706-6.633c-3.913,0-8.384,3.465-8.384,9.166c0,2.18,0.791,4.441,2.385,5.887
		c1.4,1.271,3.237,1.863,5.887,1.863c2.57,0,5.105-1.304,6.968-4.023C782.782,279.439,782.596,278.77,782.224,278.77
		 M772.76,273.329c0.037-1.304,0.238-2.709,0.745-3.465c0.593-0.887,1.591-1.268,2.012-1.268c1.006,0,2.385,0.97,2.385,3.951
		c0,0.223,0,0.707-0.075,0.781H772.76z M762.887,278.62v-6.445c0-3.131,0.074-2.684,0.074-3.578c0-0.633-0.149-1.043-0.372-1.266
		c-0.671,0.037-1.416,0.074-2.124,0.074c-1.032,0-3.466-0.037-4.918-0.074c-0.225,0.223-0.225,1.043,0,1.266
		c1.899,0.187,2.496,0.447,2.496,3.578v6.903c0,0.358,0.011,0.73,0.029,1.107c-1.513,0.935-2.768,1.006-3.42,1.006
		c-1.491,0-2.609-0.168-2.609-2.795v-6.222c0-3.131,0.075-2.684,0.075-3.578c0-0.633-0.148-1.043-0.373-1.266
		c-0.67,0.037-1.441,0.074-2.123,0.074c-1.919,0-3.315-0.037-4.919-0.074c-0.223,0.223-0.223,1.043,0,1.266
		c1.715,0.076,2.496,0.447,2.496,3.578v5.812c0,3.968,1.566,5.962,4.771,5.962c1.352,0,4.061-1.072,6.204-2.273
		c0.081,0.939,0.167,1.64,0.167,1.64c0.029,0.446,0.336,0.634,0.856,0.634c1.379-0.373,3.614-0.895,6.186-1.23
		c0.074-0.223,0-0.969-0.074-1.191C763.277,281.337,762.887,280.743,762.887,278.62 M742.617,280.335
		c0-0.447-0.074-1.156-0.484-1.156c-1.49,1.379-2.756,2.087-3.837,2.087c-2.794,0-4.993-2.013-4.993-6.483
		c0-4.136,0.932-6.186,2.906-6.186c1.379,0,1.938,1.453,2.05,2.646c0.111,1.007,1.118,1.752,2.31,1.752
		c1.192,0,2.049-0.932,2.049-2.087c0-1.677-2.012-3.875-6.072-3.875c-4.397,0-8.272,3.54-8.272,9.055
		c0,2.406,0.865,4.563,2.312,5.924c1.464,1.375,3.146,1.938,5.812,1.938C738.631,283.948,741.201,282.384,742.617,280.335
		 M718.847,275.453v4.919c-0.932,0.744-1.864,1.34-2.533,1.34c-1.603,0-2.161-1.08-2.161-2.234c0-1.383,0.123-2.53,2.757-3.391
		L718.847,275.453z M719.04,281.769c0.253,1.509,1.26,2.18,2.899,2.18c2.06,0,3.502-0.783,4.881-2.087
		c-0.082-0.438-0.243-0.737-0.671-1.043c-0.484,0.373-0.856,0.522-1.565,0.522c-0.819,0-1.043-0.672-1.043-2.498l0.074-5.364
		c0-5.365-3.315-6.446-6.371-6.446c-2.72,0-6.912,1.551-6.912,4.01c0,1.065,0.451,1.885,1.928,1.885
		c1.318,0,2.316-0.819,2.316-1.721c0-0.492-0.262-1.119-0.171-1.759c0.057-0.414,0.324-0.851,1.572-0.851
		c1.565,0,2.869,0.672,2.869,5.404l-2.497,0.781c-3.926,1.23-6.669,2.311-6.669,5.254c0,2.57,1.416,3.912,4.658,3.912
		c1.079,0,3.24-1.193,4.471-2.16L719.04,281.769z M696.565,278.77c-1.527,1.565-3.539,1.974-4.955,1.974
		c-2.906,0-4.695-1.676-4.695-5.328c0-0.26,0.038-0.408,0.038-0.596h8.942c0.894,0,1.08-0.633,1.08-1.154
		c0-3.168-1.229-6.633-6.706-6.633c-3.913,0-8.385,3.465-8.385,9.166c0,2.18,0.791,4.441,2.386,5.887
		c1.401,1.271,3.238,1.863,5.887,1.863c2.571,0,5.104-1.304,6.967-4.023C697.124,279.439,696.938,278.77,696.565,278.77
		 M687.102,273.329c0.038-1.304,0.239-2.709,0.746-3.465c0.592-0.887,1.591-1.268,2.012-1.268c1.006,0,2.384,0.97,2.384,3.951
		c0,0.223,0,0.707-0.073,0.781H687.102z M672.821,281.788c0.077,0.879,0.16,1.526,0.16,1.526c0.03,0.446,0.335,0.634,0.857,0.634
		c1.378-0.373,3.612-0.895,6.185-1.23c0.074-0.223,0-0.969-0.076-1.191c-2.029-0.189-2.42-0.783-2.42-2.906v-16.767
		c0-2.423,0.111-3.8,0.111-3.8c0-0.336-0.262-0.485-0.596-0.485c-1.379,0.448-4.359,0.856-7.006,0.97
		c-0.11,0.446-0.073,0.932,0.112,1.266c2.348,0.187,2.534,0.225,2.534,2.795v4.859c-0.712-0.254-1.606-0.426-2.684-0.426
		c-4.806,0-9.016,4.21-9.016,9.166c0,2.217,0.797,4.776,2.608,6.186c1.341,1.043,2.279,1.564,4.358,1.564
		c1.006,0,3.764-1.64,4.546-2.16H672.821z M672.705,280.044c-0.785,0.629-2.754,1.445-3.188,1.445c-1.863,0-3.317-2.087-3.317-6.445
		c0-1.986,0.229-3.689,0.933-4.845c0.614-1.01,1.628-1.603,2.757-1.603c0.977,0,1.889,0.102,2.795,1.334v9.174
		C672.684,279.406,672.69,279.724,672.705,280.044 M636.171,278.136c0.148,1.845,0.315,3.596,0.633,4.992
		c0.688,0.242,3.085,0.82,5.179,0.82c2.869,0,6.446-1.561,6.446-4.807c0-1.264-0.313-2.28-1.141-3.204
		c-1.076-1.203-2.623-2.124-4.337-2.869c-1.49-0.647-2.012-1.821-2.012-2.905c0-0.857,0.708-1.566,1.788-1.566
		c1.304,0,2.571,1.193,3.503,3.466c0.67,0.112,1.08,0.075,1.453-0.187c0-1.341-0.149-2.757-0.485-3.949
		c-1.191-0.521-2.123-0.895-4.173-0.895c-1.963,0-3.852,0.738-5.03,1.938c-0.856,0.873-1.266,1.9-1.266,2.906
		c0,1.106,0.428,1.998,1.155,2.795c1.154,1.267,3.185,2.582,4.321,3.092c1.49,0.671,1.9,2.013,1.9,2.906
		c0,1.196-1.192,1.826-2.198,1.826c-1.681,0-3.466-1.695-4.248-4.434C637.064,277.949,636.766,277.986,636.171,278.136
		 M615.23,275.863c0,4.866,3.86,8.085,8.867,8.085c2.628,0,4.841-0.753,6.372-2.124c1.886-1.688,2.534-4.221,2.534-6.297
		c0-4.873-3.336-8.495-8.869-8.495c-3.088,0-5.395,1.066-6.866,2.758C615.856,271.415,615.23,273.661,615.23,275.863
		 M623.539,268.597c2.534,0,4.248,3.019,4.248,8.123c0,4.475-1.752,5.664-3.093,5.664c-3.055,0-4.247-4.584-4.247-7.34
		C620.447,271.615,621.043,268.597,623.539,268.597 M602.861,267.405c-0.521,0.004-1.092,0.148-1.564,0.559v1.08
		c0,0.187,0.037,0.225,0.186,0.225h2.422c-0.086,3.752-0.111,8.531-0.111,10.395c0,1.305,0.32,2.561,1.117,3.241
		c0.839,0.72,2.213,1.044,3.094,1.044c2.06,0,4.321-1.044,5.066-2.087c0-0.446-0.224-0.67-0.672-1.043
		c-0.483,0.373-1.416,0.522-2.123,0.522c-0.819,0-1.639-0.635-1.639-2.498c0-1.862-0.037-5.849-0.037-9.574h3.763
		c0.372,0,0.895-0.149,0.895-0.485v-1.155c0-0.148-0.112-0.223-0.298-0.223H608.6l0.037-1.268c0.075-2.48,0.186-4.209,0.186-4.209
		c0-0.239-0.11-0.328-0.287-0.328c-0.271,0-1.661,0.412-2.246,0.658c-0.634,0.266-1.723,0.481-1.975,0.824
		c-0.261,0.354-0.41,1.36-0.41,4.318L602.861,267.405z M586.058,279.03v-7.426v-0.066c1.479-1.018,2.996-1.748,3.651-1.748
		c1.49,0,2.608,0.67,2.608,2.795v6.221c0,3.131-0.596,3.466-2.124,3.578c-0.224,0.223-0.224,1.043,0,1.267
		c1.565-0.038,2.771-0.075,4.546-0.075c2.064,0,3.688,0.037,5.29,0.075c0.225-0.224,0.225-1.044,0-1.267
		c-2.271-0.112-2.869-0.447-2.869-3.578v-5.812c0-4.099-1.751-5.962-4.955-5.962c-1.502,0-4.15,1.643-6.203,3.053
		c-0.086-1.316-0.242-2.418-0.242-2.418c-0.033-0.455-0.336-0.635-0.857-0.635c-1.378,0.373-3.613,0.895-6.186,1.23
		c-0.073,0.223,0,0.968,0.076,1.191c2.029,0.19,2.422,0.484,2.422,2.608v6.968c0,3.092-0.41,3.167-2.684,3.354
		c-0.224,0.223-0.224,1.043,0,1.267c1.565-0.038,3.115-0.075,5.104-0.075c1.699,0,2.759,0.037,4.36,0.075
		c0.224-0.224,0.224-1.044,0-1.267C586.431,282.234,586.058,282.122,586.058,279.03 M575.401,278.77
		c-1.526,1.565-3.539,1.974-4.955,1.974c-2.905,0-4.694-1.676-4.694-5.328c0-0.26,0.037-0.408,0.037-0.596h8.941
		c0.895,0,1.081-0.633,1.081-1.154c0-3.168-1.229-6.633-6.706-6.633c-3.913,0-8.384,3.465-8.384,9.166
		c0,2.18,0.79,4.441,2.385,5.887c1.401,1.271,3.238,1.863,5.888,1.863c2.57,0,5.104-1.304,6.967-4.023
		C575.961,279.439,575.774,278.77,575.401,278.77 M565.938,273.329c0.037-1.304,0.237-2.709,0.745-3.465
		c0.592-0.887,1.591-1.268,2.012-1.268c1.006,0,2.385,0.97,2.385,3.951c0,0.223,0,0.707-0.074,0.781H565.938z M534.119,279.03
		v-7.426c0-0.18-0.004-0.362-0.008-0.544c1.449-0.88,2.768-1.271,3.398-1.271c1.49,0,2.607,0.67,2.607,2.795v6.221
		c0,3.131-0.596,3.466-2.123,3.578c-0.224,0.223-0.224,1.043,0,1.267c1.564-0.038,2.758-0.075,4.545-0.075
		c1.789,0,2.943,0.037,4.547,0.075c0.223-0.224,0.223-1.044,0-1.267c-1.491-0.112-2.125-0.447-2.125-3.578v-5.812
		c0-0.913-0.056-1.657-0.133-2.042c1.4-0.73,2.998-1.162,3.598-1.162c1.49,0,2.535,0.67,2.535,2.795v6.221
		c0,3.131-0.598,3.466-2.125,3.578c-0.224,0.223-0.224,1.043,0,1.267c1.565-0.038,2.758-0.075,4.545-0.075
		c2.051,0,3.689,0.037,5.291,0.075c0.225-0.224,0.225-1.044,0-1.267c-2.273-0.112-2.868-0.447-2.868-3.578v-5.812
		c0-4.099-1.49-5.962-4.694-5.962c-1.372,0-4.52,1.479-6.677,2.701c-0.57-1.62-2.062-2.701-4.24-2.701
		c-1.334,0-4.035,1.401-6.159,2.602c-0.09-1.107-0.213-1.967-0.213-1.967c-0.033-0.455-0.335-0.635-0.857-0.635
		c-1.377,0.373-3.613,0.895-6.184,1.23c-0.074,0.223,0,0.968,0.074,1.191c2.031,0.19,2.422,0.484,2.422,2.608v6.968
		c0,3.092-0.41,3.167-2.684,3.354c-0.223,0.223-0.223,1.043,0,1.267c1.565-0.038,3.115-0.075,5.105-0.075
		c1.699,0,2.758,0.037,4.359,0.075c0.224-0.224,0.224-1.044,0-1.267C534.491,282.234,534.119,282.122,534.119,279.03
		 M523.612,268.896c1.043,0,1.64-0.447,1.64-1.826c0-0.707-0.97-1.788-2.386-1.788c-1.639,0-3.8,1.229-4.88,2.198
		c-0.671-0.372-1.454-0.447-3.13-0.447c-1.606,0-3.163,0.391-4.397,1.192c-1.512,0.983-2.533,2.411-2.533,4.323
		c0,1.824,1.08,3.799,2.869,4.787c-1.154,0.987-2.943,2.955-2.943,3.707c0,0.711,0.111,1.155,0.484,1.713
		c0.343,0.516,0.797,0.806,1.527,1.045c-1.602,0.968-3.24,3.092-3.24,3.726c0,1.378,0.428,2.969,1.453,3.688
		c1.441,1.01,3.916,1.229,5.699,1.229c5.18,0,11.104-2.72,11.104-6.819c0-0.797-0.361-2.38-1.862-3.39
		c-1.442-0.969-7.062-1.229-9.8-1.229c-0.67,0-1.676-0.074-1.676-1.565c0-0.597,0.354-1.117,0.539-1.563
		c0.782,0.371,1.584,0.408,2.739,0.408c1.9,0,3.647-0.477,4.918-1.602c1.073-0.95,1.825-2.276,1.825-3.949
		c0-2.087-1.043-3.465-2.311-4.509c0.299-0.372,1.528-1.044,1.901-1.044c0.335,0,0.597,0.225,0.708,0.447
		C522.01,268.113,522.681,268.896,523.612,268.896 M512.732,284.507c2.862,0,8.383,0.104,8.383,2.086c0,1.35-0.6,2.863-1.824,3.556
		c-1.156,0.651-3.045,0.729-4.472,0.729c-2.46,0-4.136-1.826-4.136-3.726c0-1.267,0-2.124,0.41-2.869
		C511.465,284.433,511.951,284.507,512.732,284.507 M517.018,272.845c0,3.576-1.043,4.024-2.012,4.024
		c-2.311,0-2.608-2.758-2.608-4.657c0-2.758,0.67-3.764,2.123-3.764C516.272,268.448,517.018,269.901,517.018,272.845
		 M498.164,275.453v4.919c-0.931,0.744-1.863,1.34-2.533,1.34c-1.603,0-2.161-1.08-2.161-2.234c0-1.383,0.122-2.53,2.758-3.391
		L498.164,275.453z M498.358,281.769c0.253,1.509,1.259,2.18,2.897,2.18c2.062,0,3.504-0.783,4.882-2.087
		c-0.082-0.438-0.242-0.737-0.671-1.043c-0.484,0.373-0.856,0.522-1.564,0.522c-0.82,0-1.043-0.672-1.043-2.498l0.074-5.364
		c0-5.365-3.316-6.446-6.371-6.446c-2.721,0-6.912,1.551-6.912,4.01c0,1.065,0.451,1.885,1.928,1.885
		c1.318,0,2.316-0.819,2.316-1.721c0-0.492-0.262-1.119-0.171-1.759c0.056-0.414,0.323-0.851,1.571-0.851
		c1.565,0,2.869,0.672,2.869,5.404l-2.496,0.781c-3.926,1.23-6.67,2.311-6.67,5.254c0,2.57,1.416,3.912,4.658,3.912
		c1.08,0,3.241-1.193,4.471-2.16L498.358,281.769z M479.907,273.579c0-1.33,0.41-1.871,0.896-2.447
		c0.305-0.365,0.633-0.635,1.181-0.635c0.351,0,0.737,0.328,1.054,0.713c0.262,0.312,0.895,0.61,1.733,0.61
		c1.08,0,2.142-1.136,2.142-2.701c0-0.969-1.117-2.087-2.459-2.087c-1.304,0-2.72,1.118-4.434,3.577h-0.148
		c-0.074-1.118-0.262-2.942-0.262-2.942c-0.029-0.328-0.335-0.635-0.857-0.635c-1.769,0.447-3.726,0.988-6.185,1.23
		c-0.073,0.223,0,0.931,0.075,1.154c2.029,0.19,2.422,0.521,2.422,2.646v6.968c0,3.092-0.41,3.167-2.684,3.354
		c-0.224,0.223-0.224,1.043,0,1.267c1.565-0.038,3.115-0.075,5.105-0.075c1.989,0,3.502,0.037,5.104,0.075
		c0.225-0.224,0.225-1.044,0-1.267c-2.272-0.149-2.683-0.262-2.683-3.354V273.579z M465.414,278.806v-9.537h3.205
		c0.67,0,1.303-0.188,1.303-0.635v-0.856c0-0.224-0.037-0.372-0.744-0.372h-3.764v-1.9c0-5.552,1.528-6.371,2.348-6.371
		c0.634,0,0.783,0.559,1.044,1.453c0.335,1.192,1.304,2.123,2.646,2.123c1.229,0,2.123-0.781,2.123-2.384
		c0-1.006-1.154-2.758-5.104-2.758c-1.751,0-3.837,0.634-5.253,2.161c-1.379,1.49-2.646,3.354-2.646,6.931v0.745h-0.074
		c-1.267,0-2.795,0.186-2.795,0.484v1.006c0,0.261,0.149,0.373,1.006,0.373h1.863v9.613c0,3.055-0.596,3.39-2.869,3.502
		c-0.223,0.223-0.223,1.043,0,1.267c1.565-0.038,3.242-0.075,5.291-0.075s3.689,0.037,5.291,0.075c0.223-0.224,0.223-1.044,0-1.267
		C466.01,282.271,465.414,281.937,465.414,278.806"/>
	<path clip-path="url(#SVGID_4_)" fill="#231F20" d="M660.164,232.192c-1.527,1.564-3.539,1.975-4.955,1.975
		c-2.906,0-4.695-1.677-4.695-5.328c0-0.261,0.038-0.41,0.038-0.596h8.942c0.894,0,1.08-0.635,1.08-1.156
		c0-3.167-1.229-6.632-6.707-6.632c-3.912,0-8.383,3.465-8.383,9.166c0,2.18,0.789,4.44,2.385,5.887
		c1.4,1.271,3.237,1.863,5.887,1.863c2.571,0,5.104-1.304,6.967-4.024C660.723,232.862,660.537,232.192,660.164,232.192
		 M650.701,226.752c0.037-1.304,0.237-2.709,0.745-3.465c0.592-0.888,1.591-1.267,2.012-1.267c1.006,0,2.384,0.969,2.384,3.949
		c0,0.223,0,0.708-0.074,0.782H650.701z M636.42,235.21c0.078,0.879,0.16,1.527,0.16,1.527c0.029,0.447,0.335,0.634,0.856,0.634
		c1.378-0.373,3.614-0.894,6.186-1.229c0.074-0.224,0-0.969-0.075-1.192c-2.03-0.19-2.421-0.782-2.421-2.906v-16.767
		c0-2.422,0.111-3.801,0.111-3.801c0-0.334-0.262-0.483-0.597-0.483c-1.378,0.446-4.358,0.856-7.006,0.968
		c-0.109,0.447-0.073,0.932,0.113,1.268c2.348,0.186,2.534,0.224,2.534,2.795v4.857c-0.712-0.253-1.606-0.425-2.685-0.425
		c-4.805,0-9.015,4.211-9.015,9.166c0,2.217,0.797,4.776,2.608,6.185c1.34,1.043,2.279,1.565,4.357,1.565
		c1.007,0,3.764-1.64,4.547-2.161H636.42z M636.304,233.466c-0.786,0.631-2.753,1.446-3.188,1.446c-1.863,0-3.316-2.087-3.316-6.446
		c0-1.986,0.227-3.689,0.931-4.844c0.615-1.01,1.63-1.602,2.758-1.602c0.977,0,1.889,0.101,2.795,1.334v9.172
		C636.282,232.829,636.289,233.146,636.304,233.466 M599.433,232.453v-7.427v-0.066c1.479-1.018,2.996-1.747,3.651-1.747
		c1.491,0,2.607,0.67,2.607,2.794v6.223c0,3.129-0.596,3.465-2.122,3.576c-0.225,0.225-0.225,1.043,0,1.268
		c1.563-0.037,2.771-0.075,4.545-0.075c2.063,0,3.688,0.038,5.291,0.075c0.224-0.225,0.224-1.043,0-1.268
		c-2.273-0.111-2.869-0.447-2.869-3.576v-5.812c0-4.1-1.751-5.962-4.955-5.962c-1.502,0-4.151,1.644-6.204,3.052
		c-0.086-1.314-0.242-2.418-0.242-2.418c-0.034-0.455-0.335-0.634-0.856-0.634c-1.38,0.373-3.614,0.896-6.186,1.229
		c-0.075,0.225,0,0.969,0.074,1.192c2.031,0.19,2.422,0.485,2.422,2.608v6.968c0,3.092-0.41,3.167-2.682,3.353
		c-0.226,0.225-0.226,1.043,0,1.268c1.563-0.037,3.113-0.075,5.104-0.075c1.699,0,2.757,0.038,4.359,0.075
		c0.224-0.225,0.224-1.043,0-1.268C599.806,235.657,599.433,235.545,599.433,232.453 M571.787,229.286
		c0,4.865,3.859,8.085,8.867,8.085c2.627,0,4.841-0.753,6.371-2.124c1.886-1.688,2.534-4.221,2.534-6.297
		c0-4.873-3.335-8.495-8.868-8.495c-3.088,0-5.395,1.065-6.867,2.758C572.413,224.837,571.787,227.084,571.787,229.286
		 M580.096,222.021c2.533,0,4.247,3.018,4.247,8.123c0,4.475-1.751,5.662-3.092,5.662c-3.056,0-4.248-4.582-4.248-7.34
		C577.003,225.038,577.598,222.021,580.096,222.021 M580.915,211.886l-3.093,4.881c-0.225,0.336-0.297,0.67-0.297,0.895
		c0,0.224,0.297,0.521,0.596,0.521c0.373,0,0.893-0.148,1.416-0.597l4.471-4.022l-0.373-0.857c-0.298-0.373-1.006-0.895-2.123-0.895
		C581.324,211.812,581.027,211.849,580.915,211.886 M562.025,214.792c0,1.23,0.895,2.459,2.385,2.459
		c1.677,0,2.646-1.341,2.646-2.311c0-1.117-0.856-2.459-2.423-2.459C562.883,212.481,562.025,213.674,562.025,214.792
		 M567.056,232.453v-7.427c0-1.852,0.149-3.938,0.149-3.938c0-0.41-0.336-0.634-0.857-0.634c-1.062,0.41-4.062,0.708-6.632,1.044
		c-0.075,0.223,0,0.968,0.074,1.191c2.03,0.19,2.422,0.484,2.422,2.608v7.154c0,3.092-0.411,3.167-2.683,3.353
		c-0.224,0.225-0.224,1.043,0,1.268c1.564-0.037,3.115-0.075,5.104-0.075c1.99,0,3.502,0.038,5.105,0.075
		c0.224-0.225,0.224-1.043,0-1.268C567.465,235.657,567.056,235.545,567.056,232.453 M557.145,233.757
		c0-0.447-0.074-1.154-0.483-1.154c-1.491,1.377-2.759,2.086-3.839,2.086c-2.795,0-4.992-2.013-4.992-6.483
		c0-4.136,0.932-6.185,2.906-6.185c1.379,0,1.938,1.453,2.05,2.646c0.11,1.006,1.116,1.751,2.31,1.751
		c1.192,0,2.049-0.932,2.049-2.087c0-1.677-2.012-3.875-6.072-3.875c-4.397,0-8.272,3.54-8.272,9.054
		c0,2.407,0.865,4.565,2.31,5.924c1.465,1.375,3.149,1.938,5.813,1.938C553.158,237.371,555.729,235.806,557.145,233.757
		 M540.154,233.757c0-0.447-0.073-1.154-0.483-1.154c-1.491,1.377-2.757,2.086-3.838,2.086c-2.794,0-4.993-2.013-4.993-6.483
		c0-4.136,0.932-6.185,2.907-6.185c1.378,0,1.937,1.453,2.049,2.646c0.112,1.006,1.118,1.751,2.31,1.751
		c1.192,0,2.049-0.932,2.049-2.087c0-1.677-2.012-3.875-6.072-3.875c-4.396,0-8.271,3.54-8.271,9.054
		c0,2.407,0.864,4.565,2.31,5.924c1.465,1.375,3.149,1.938,5.812,1.938C536.168,237.371,538.738,235.806,540.154,233.757
		 M522.011,232.192c-1.528,1.564-3.54,1.975-4.956,1.975c-2.906,0-4.695-1.677-4.695-5.328c0-0.261,0.039-0.41,0.039-0.596h8.941
		c0.895,0,1.08-0.635,1.08-1.156c0-3.167-1.229-6.632-6.706-6.632c-3.912,0-8.383,3.465-8.383,9.166c0,2.18,0.789,4.44,2.384,5.887
		c1.4,1.271,3.238,1.863,5.887,1.863c2.571,0,5.104-1.304,6.967-4.024C522.568,232.862,522.383,232.192,522.011,232.192
		 M512.547,226.752c0.037-1.304,0.238-2.709,0.745-3.465c0.592-0.888,1.591-1.267,2.012-1.267c1.007,0,2.384,0.969,2.384,3.949
		c0,0.223,0,0.708-0.074,0.782H512.547z M497.568,232.267c0,3.092-0.596,3.428-2.869,3.539c-0.223,0.225-0.223,1.043,0,1.268
		c1.565-0.037,3.228-0.075,5.291-0.075c2.064,0,3.688,0.038,5.291,0.075c0.224-0.225,0.224-1.043,0-1.268
		c-2.272-0.111-2.869-0.447-2.869-3.539v-16.99c0-2.422,0.111-3.801,0.111-3.801c0-0.334-0.261-0.483-0.596-0.483
		c-1.378,0.446-4.359,0.856-7.005,0.968c-0.11,0.447-0.073,0.857,0.112,1.193c2.348,0.186,2.533,0.238,2.533,2.793V232.267z
		 M491.682,232.192c-1.527,1.564-3.539,1.975-4.955,1.975c-2.906,0-4.695-1.677-4.695-5.328c0-0.261,0.037-0.41,0.037-0.596h8.942
		c0.896,0,1.081-0.635,1.081-1.156c0-3.167-1.23-6.632-6.707-6.632c-3.912,0-8.383,3.465-8.383,9.166c0,2.18,0.79,4.44,2.385,5.887
		c1.401,1.271,3.237,1.863,5.887,1.863c2.57,0,5.104-1.304,6.967-4.024C492.24,232.862,492.055,232.192,491.682,232.192
		 M482.218,226.752c0.037-1.304,0.239-2.709,0.745-3.465c0.593-0.888,1.591-1.267,2.012-1.267c1.006,0,2.385,0.969,2.385,3.949
		c0,0.223,0,0.708-0.074,0.782H482.218z M472.531,213.487c-2.049-0.297-2.832-1.006-6.297-1.006c-1.691,0-3.887,0.537-5.44,1.789
		c-1.39,1.117-2.421,2.847-2.421,4.657c0,1.427,0.387,3.2,1.229,4.322c1.729,2.306,4.818,3.588,6.409,4.694
		c1.714,1.193,3.39,2.683,3.39,4.77c0,1.833-1.602,3.092-3.875,3.092c-2.496,0-5.066-2.049-5.812-5.439
		c-0.633-0.223-1.267-0.037-1.862,0.111c0,2.795,0.297,4.77,0.707,6.148c2.125,0,2.232,0.745,7.377,0.745
		c2.28,0,4.092-0.656,5.627-2.031c1.322-1.185,2.533-2.901,2.533-5.196c0-1.941-0.838-3.258-1.938-4.472
		c-1.453-1.606-3.539-2.758-4.992-3.503c-1.479-0.76-4.137-2.682-4.137-4.807c0-2.086,1.26-3.353,3.168-3.353
		c3.166,0,4.209,2.869,4.881,5.328c0.521,0.149,1.453,0.149,1.863-0.187C472.941,217.177,472.792,215.649,472.531,213.487"/>
	<polygon clip-path="url(#SVGID_4_)" fill="none" stroke="#231F20" stroke-width="1.998" points="0.999,3 0.999,572.041 
		0.999,574.043 3,574.043 1167.087,574.043 1169.088,574.043 1169.088,572.041 1169.088,3 1169.088,0.998 1167.087,0.998 3,0.998 
		0.999,0.998 	"/>
</g>
<rect x="5.001" y="5.002" fill="none" stroke="#231F20" stroke-width="1.998" width="1160.085" height="565.037"/>
<g>
	<defs>
		<rect id="SVGID_53_" width="1170.088" height="575.043"/>
	</defs>
	<clipPath id="SVGID_6_">
		<use xlink:href="#SVGID_53_"  overflow="visible"/>
	</clipPath>
	<path clip-path="url(#SVGID_6_)" fill="#FF1419" d="M481.068,461.42v16.266l279.188-3.523
		c-14.368,17.892-27.381,41.207-27.381,64.793l0.271,0.542c22.501-30.905,56.117-56.118,92.174-69.402v-0.813
		c-36.6-13.283-68.588-37.953-92.174-69.131l-0.271,0.271c0.542,22.23,11.386,49.883,27.381,64.521L481.068,461.42z"/>
</g>
</svg>
