<?xml version="1.0" encoding="utf-8"?>
<!-- Generator: Adobe Illustrator 16.0.0, SVG Export Plug-In . SVG Version: 6.00 Build 0)  -->
<!DOCTYPE svg PUBLIC "-//W3C//DTD SVG 1.1//EN" "http://www.w3.org/Graphics/SVG/1.1/DTD/svg11.dtd">
<svg version="1.1" id="Layer_1" xmlns="http://www.w3.org/2000/svg" xmlns:xlink="http://www.w3.org/1999/xlink" x="0px" y="0px"
	 width="564px" height="1002px" viewBox="0 0 564 1002" enable-background="new 0 0 564 1002" xml:space="preserve">
<g>
	<defs>
		<rect id="SVGID_133_" width="564" height="1002"/>
	</defs>
	<clipPath id="SVGID_2_">
		<use xlink:href="#SVGID_133_"  overflow="visible"/>
	</clipPath>
	<polygon clip-path="url(#SVGID_2_)" fill="none" stroke="#0046F9" stroke-width="1.998" points="1,3 1,999 1,1001.002 3,1001.002 
		561,1001.002 563.002,1001.002 563.002,999 563.002,3 563.002,0.998 561,0.998 3,0.998 1,0.998 	"/>
</g>
<rect x="5.002" y="5.002" fill="none" stroke="#0046F9" stroke-width="1.998" width="553.996" height="991.996"/>
<g>
	<defs>
		<rect id="SVGID_135_" width="564" height="1002"/>
	</defs>
	<clipPath id="SVGID_4_">
		<use xlink:href="#SVGID_135_"  overflow="visible"/>
	</clipPath>
	<path clip-path="url(#SVGID_4_)" fill="#0046F9" d="M63.49,861.577v22.928l336.545-4.968
		c-20.252,25.221-38.596,58.084-38.596,91.33l0.383,0.764c31.717-43.563,79.102-79.101,129.925-97.826v-1.146
		c-51.588-18.726-96.681-53.499-129.925-97.444l-0.383,0.382c0.766,31.335,16.051,70.313,38.596,90.948L63.49,861.577z"/>
</g>
<polygon fill="#231F20" points="115.332,561 79.908,561 38.16,38.283 80.33,38.283 98.463,309.954 99.307,327.021 102.68,327.021 
	103.945,309.954 123.344,38.283 156.236,38.283 175.635,309.954 176.898,327.021 180.272,327.021 181.115,309.954 199.25,38.283 
	241.418,38.283 199.67,561 164.248,561 143.164,313.51 140.633,282.93 138.946,282.93 136.416,313.51 "/>
<line fill="none" stroke="#0046F9" stroke-width="2" x1="300.641" y1="170.594" x2="537.141" y2="170.594"/>
<line fill="none" stroke="#0046F9" stroke-width="2" x1="279.639" y1="26" x2="279.639" y2="581"/>
<g>
	<defs>
		<rect id="SVGID_137_" width="564" height="1002"/>
	</defs>
	<clipPath id="SVGID_6_">
		<use xlink:href="#SVGID_137_"  overflow="visible"/>
	</clipPath>
	<path clip-path="url(#SVGID_6_)" fill="#0046F9" d="M522.128,72.955v-15.99c0-7.67-2.471-19.37-12.87-19.37
		c-9.75,0-12.871,10.79-12.871,19.37v58.891c0,6.76,2.211,19.369,11.83,19.369c2.341,0,5.98-2.21,7.15-4.55l1.17,3.511h5.591v-47.58
		h-12.351v11.83h2.34v18.59c0,2.34-0.26,5.72-2.6,5.72c-1.559,0-2.21-2.73-2.21-5.72V56.965c0-2.34,0.52-5.72,1.95-5.72
		c1.819,0,2.08,3.77,2.08,5.72v15.99H522.128z M478.968,134.186h9.099V38.635h-10.009v45.11l-7.8-45.11h-9.101v95.551h10.011v-46.41
		L478.968,134.186z M441.269,134.186h10.79V38.635h-10.79V134.186z M416.311,53.064v81.121h10.79V53.064h7.93v-14.43h-26.649v14.43
		H416.311z M391.481,134.186h10.79V38.635h-10.79V134.186z M368.862,52.545c0.65,0,2.08-0.13,2.989,1.3
		c1.041,1.56,1.171,5.851,1.171,12.87c0,6.891-0.13,11.7-1.3,13.391c-0.65,1.039-1.95,1.43-2.86,1.43V52.545z M384.982,134.186
		l-6.631-46.281c3.381-4.029,4.941-12.609,4.941-21.709c0-18.07-4.16-27.561-14.301-27.561h-10.92v95.551h10.79V92.585l5.589,41.601
		H384.982z M334.803,134.186h9.229l7.021-95.551h-10.141c-0.779,14.04-1.819,30.68-2.6,44.721l-3.25-44.721h-7.93l-3.12,44.85
		l-2.73-44.85h-10.14l7.28,95.551h9.1l3.64-45.761L334.803,134.186z"/>
	<path clip-path="url(#SVGID_6_)" fill="#231F20" d="M495.565,694.398c-1.452,1.044-2.179,2.502-2.179,4.374
		c0,1.248,0.337,2.25,1.009,3.006c0.671,0.756,1.584,1.435,2.736,2.034c0.456,0.24,1.085,0.504,1.89,0.792
		c0.804,0.288,1.374,0.546,1.709,0.774c0.336,0.228,0.504,0.546,0.504,0.954c0,0.888-0.659,1.332-1.979,1.332
		c-0.601,0-1.309-0.198-2.124-0.595c-0.817-0.396-1.38-0.708-1.692-0.936c-0.312-0.229-0.564-0.426-0.756-0.594l-2.592,4.355
		l0.792,0.648c0.527,0.408,1.386,0.815,2.573,1.224c1.188,0.408,2.441,0.612,3.762,0.612c5.833,0,8.749-2.101,8.749-6.3
		c0-0.889-0.168-1.681-0.504-2.376c-0.336-0.696-0.812-1.272-1.423-1.729s-1.193-0.816-1.745-1.08
		c-0.553-0.264-1.2-0.504-1.944-0.72c-0.121-0.024-0.294-0.072-0.522-0.145c-0.228-0.071-0.39-0.126-0.485-0.161
		c-0.097-0.036-0.24-0.091-0.433-0.162c-0.192-0.072-0.33-0.126-0.414-0.162s-0.197-0.09-0.342-0.162
		c-0.144-0.072-0.246-0.138-0.306-0.198c-0.061-0.06-0.126-0.132-0.199-0.216c-0.071-0.084-0.119-0.174-0.143-0.271
		c-0.025-0.096-0.037-0.191-0.037-0.287c0-0.433,0.15-0.727,0.451-0.883c0.299-0.155,0.809-0.233,1.529-0.233
		c1.296,0,2.664,0.384,4.104,1.151l2.088-4.176l-0.757-0.359c-0.503-0.24-1.271-0.48-2.303-0.721
		c-1.032-0.239-2.076-0.359-3.133-0.359C498.979,692.833,497.018,693.354,495.565,694.398 M476.54,693.373v4.859h2.663v7.092
		c0,0.889,0.097,1.723,0.289,2.502c0.192,0.78,0.51,1.524,0.954,2.232s1.099,1.272,1.962,1.692c0.864,0.42,1.895,0.63,3.096,0.63
		c1.752,0,3.312-0.384,4.681-1.152l-1.584-5.147l-0.216,0.144c-0.145,0.096-0.35,0.192-0.612,0.288
		c-0.265,0.096-0.517,0.144-0.756,0.144c-0.96,0-1.44-0.852-1.44-2.556v-5.868h3.889v-4.859h-3.889v-6.876h-6.373v6.876H476.54z
		 M459.836,711.841V701.4c0-0.912,0.391-1.74,1.171-2.483c0.778-0.744,1.649-1.116,2.608-1.116c0.985,0,1.783,0.359,2.396,1.08
		c0.611,0.72,0.918,1.56,0.918,2.52v10.44h6.372v-12.168c0-1.225-0.258-2.298-0.774-3.223c-0.516-0.924-1.188-1.638-2.016-2.142
		c-0.829-0.504-1.692-0.876-2.593-1.116c-0.9-0.239-1.806-0.359-2.719-0.359c-1.871,0-3.635,0.827-5.291,2.483h-0.072v-1.943h-6.371
		v18.468H459.836z M437.229,697.801c0.623-0.552,1.464-0.828,2.52-0.828c0.961,0,1.746,0.258,2.358,0.774
		c0.612,0.516,0.99,1.254,1.134,2.214h-7.02C436.269,699.072,436.604,698.353,437.229,697.801 M449.469,702.625
		c0-3.145-0.918-5.562-2.754-7.254c-1.836-1.692-4.219-2.538-7.146-2.538c-2.785,0-5.172,0.96-7.164,2.88s-2.988,4.224-2.988,6.912
		c0,2.688,0.996,4.985,2.988,6.894s4.379,2.862,7.164,2.862c4.463,0,7.656-1.608,9.576-4.824l-4.609-2.304
		c-0.767,0.815-1.449,1.361-2.051,1.638c-0.6,0.276-1.416,0.414-2.449,0.414c-0.982,0-1.895-0.312-2.734-0.937
		s-1.261-1.584-1.261-2.88h13.393C449.456,703.345,449.469,703.057,449.469,702.625 M400.58,711.841v-10.8
		c0-0.841,0.246-1.566,0.738-2.179c0.492-0.611,1.23-0.918,2.213-0.918c1.081,0,1.892,0.33,2.432,0.99
		c0.539,0.66,0.81,1.482,0.81,2.466v10.44h6.372v-11.017c0.048-0.792,0.318-1.47,0.809-2.033c0.493-0.564,1.207-0.847,2.144-0.847
		c1.08,0,1.89,0.33,2.43,0.99s0.81,1.482,0.81,2.466v10.44h6.373v-12.168c0-2.353-0.709-4.08-2.123-5.185
		c-1.418-1.104-3.109-1.655-5.077-1.655c-2.208,0-4.248,1.128-6.12,3.384c-0.602-1.152-1.488-2.004-2.664-2.557
		c-1.176-0.552-2.438-0.827-3.78-0.827c-1.872,0-3.636,0.827-5.292,2.483h-0.072v-1.943h-6.371v18.468H400.58z M378.297,698.269
		c1.199,0,2.215,0.408,3.043,1.224c0.828,0.816,1.241,1.86,1.241,3.133c0,1.248-0.402,2.279-1.206,3.096
		c-0.805,0.816-1.83,1.224-3.078,1.224c-1.295,0-2.34-0.401-3.131-1.206c-0.793-0.804-1.188-1.842-1.188-3.113
		c0-1.272,0.414-2.316,1.241-3.133C376.047,698.677,377.072,698.269,378.297,698.269 M377.938,721.74
		c3.262,0,5.891-0.815,7.883-2.447c1.992-1.633,2.989-3.948,2.989-6.948v-18.972h-6.372v1.655h-0.108
		c-1.584-1.464-3.563-2.195-5.939-2.195c-2.664,0-4.86,0.947-6.589,2.844c-1.729,1.896-2.591,4.212-2.591,6.948
		c0,2.735,0.862,5.046,2.591,6.93s3.925,2.826,6.589,2.826c2.903,0,4.919-0.624,6.048-1.872v1.368c0,1.464-0.475,2.55-1.422,3.258
		c-0.949,0.708-1.976,1.062-3.078,1.062c-2.376,0-4.045-0.792-5.004-2.376l-5.22,2.557
		C369.248,719.953,372.656,721.74,377.938,721.74 M352.63,698.269c1.198,0,2.214,0.408,3.042,1.224
		c0.828,0.816,1.241,1.86,1.241,3.133c0,1.248-0.402,2.279-1.206,3.096c-0.805,0.816-1.83,1.224-3.077,1.224
		c-1.296,0-2.341-0.401-3.133-1.206c-0.792-0.804-1.188-1.842-1.188-3.113c0-1.272,0.414-2.316,1.242-3.133
		C350.38,698.677,351.405,698.269,352.63,698.269 M350.722,712.381c2.448,0,4.464-0.876,6.048-2.628h0.072v2.088h6.3v-18.468h-6.372
		v1.764c-1.584-1.536-3.6-2.304-6.048-2.304c-2.664,0-4.86,0.947-6.589,2.844c-1.728,1.896-2.592,4.212-2.592,6.948
		c0,2.735,0.864,5.046,2.592,6.93C345.861,711.438,348.058,712.381,350.722,712.381 M330.525,711.841v-9.72
		c0-0.192,0.048-0.456,0.145-0.793c0.096-0.336,0.258-0.743,0.485-1.224c0.229-0.479,0.618-0.888,1.17-1.224
		c0.553-0.336,1.212-0.504,1.98-0.504c1.416,0,2.52,0.336,3.312,1.008l2.664-5.4l-0.504-0.288c-0.312-0.191-0.804-0.384-1.477-0.575
		c-0.671-0.192-1.355-0.288-2.051-0.288c-0.673,0-1.332,0.113-1.98,0.342c-0.648,0.228-1.176,0.485-1.584,0.773
		s-0.792,0.612-1.152,0.973c-0.359,0.359-0.594,0.611-0.702,0.756c-0.107,0.144-0.186,0.264-0.233,0.36h-0.072v-2.664h-6.373v18.468
		H330.525z M307.989,693.373v4.859h2.663v13.608h6.373v-13.608h4.248v-4.859h-4.248v-3.744c0-1.345,0.132-2.286,0.396-2.826
		c0.264-0.54,0.792-0.811,1.584-0.811c0.695,0,1.332,0.168,1.907,0.505l2.232-4.5l-0.612-0.396c-0.384-0.288-1.014-0.57-1.89-0.846
		c-0.876-0.276-1.794-0.414-2.754-0.414c-2.257,0-4.021,0.828-5.292,2.483c-1.272,1.656-1.92,3.864-1.945,6.624v3.925H307.989z
		 M282.357,697.801c0.624-0.552,1.463-0.828,2.521-0.828c0.96,0,1.745,0.258,2.356,0.774c0.613,0.516,0.991,1.254,1.135,2.214h-7.02
		C281.397,699.072,281.733,698.353,282.357,697.801 M294.598,702.625c0-3.145-0.918-5.562-2.754-7.254
		c-1.836-1.692-4.219-2.538-7.146-2.538c-2.783,0-5.172,0.96-7.164,2.88s-2.988,4.224-2.988,6.912c0,2.688,0.996,4.985,2.988,6.894
		s4.381,2.862,7.164,2.862c4.464,0,7.656-1.608,9.576-4.824l-4.607-2.304c-0.769,0.815-1.452,1.361-2.053,1.638
		c-0.6,0.276-1.416,0.414-2.447,0.414c-0.984,0-1.896-0.312-2.736-0.937s-1.26-1.584-1.26-2.88h13.392
		C294.586,703.345,294.598,703.057,294.598,702.625 M257.373,711.841V701.4c0-0.912,0.391-1.74,1.17-2.483
		c0.78-0.744,1.65-1.116,2.609-1.116c0.984,0,1.783,0.359,2.395,1.08c0.613,0.72,0.918,1.56,0.918,2.52v10.44h6.373v-12.168
		c0-1.225-0.258-2.298-0.774-3.223c-0.517-0.924-1.188-1.638-2.017-2.142s-1.691-0.876-2.592-1.116
		c-0.899-0.239-1.806-0.359-2.719-0.359c-1.871,0-3.635,0.827-5.291,2.483h-0.072v-14.436h-6.371v30.96H257.373z M234.119,693.373
		v4.859h2.664v7.092c0,0.889,0.094,1.723,0.287,2.502c0.192,0.78,0.51,1.524,0.954,2.232s1.099,1.272,1.962,1.692
		s1.895,0.63,3.096,0.63c1.752,0,3.312-0.384,4.681-1.152l-1.584-5.147l-0.216,0.144c-0.145,0.096-0.349,0.192-0.613,0.288
		c-0.264,0.096-0.516,0.144-0.755,0.144c-0.96,0-1.44-0.852-1.44-2.556v-5.868h3.889v-4.859h-3.889v-6.876h-6.371v6.876H234.119z
		 M206.291,711.841V701.4c0-0.912,0.39-1.74,1.17-2.483c0.779-0.744,1.649-1.116,2.609-1.116c0.984,0,1.781,0.359,2.395,1.08
		c0.611,0.72,0.918,1.56,0.918,2.52v10.44h6.371v-12.168c0-1.225-0.258-2.298-0.773-3.223c-0.516-0.924-1.188-1.638-2.016-2.142
		s-1.692-0.876-2.592-1.116c-0.9-0.239-1.807-0.359-2.719-0.359c-1.871,0-3.637,0.827-5.292,2.483h-0.071v-1.943h-6.373v18.468
		H206.291z M184.871,698.269c1.199,0,2.213,0.408,3.041,1.224c0.828,0.816,1.242,1.86,1.242,3.133c0,1.248-0.402,2.279-1.205,3.096
		c-0.805,0.816-1.83,1.224-3.078,1.224c-1.297,0-2.341-0.401-3.133-1.206c-0.792-0.804-1.188-1.842-1.188-3.113
		c0-1.272,0.414-2.316,1.242-3.133C182.621,698.677,183.646,698.269,184.871,698.269 M184.906,712.381
		c3.191,0,5.826-0.918,7.902-2.754s3.113-4.17,3.113-7.002s-1.062-5.172-3.186-7.021c-2.124-1.848-4.734-2.771-7.83-2.771
		c-3.144,0-5.783,0.918-7.92,2.754s-3.203,4.182-3.203,7.038c0,2.855,1.025,5.195,3.077,7.02S181.595,712.381,184.906,712.381
		 M148.295,698.269c1.199,0,2.213,0.408,3.041,1.224c0.828,0.816,1.242,1.86,1.242,3.133c0,1.248-0.402,2.279-1.205,3.096
		c-0.805,0.816-1.83,1.224-3.078,1.224c-1.297,0-2.34-0.401-3.133-1.206c-0.791-0.804-1.188-1.842-1.188-3.113
		c0-1.272,0.414-2.316,1.242-3.133C146.045,698.677,147.07,698.269,148.295,698.269 M146.387,712.381
		c2.447,0,4.463-0.876,6.047-2.628h0.072v2.088h6.301v-30.96h-6.373v14.256c-1.584-1.536-3.6-2.304-6.047-2.304
		c-2.664,0-4.86,0.947-6.588,2.844c-1.729,1.896-2.592,4.212-2.592,6.948c0,2.735,0.863,5.046,2.592,6.93
		C141.526,711.438,143.723,712.381,146.387,712.381 M122.23,697.801c0.623-0.552,1.464-0.828,2.521-0.828
		c0.959,0,1.746,0.258,2.357,0.774c0.612,0.516,0.99,1.254,1.135,2.214h-7.021C121.27,699.072,121.606,698.353,122.23,697.801
		 M134.472,702.625c0-3.145-0.919-5.562-2.755-7.254c-1.836-1.692-4.219-2.538-7.146-2.538c-2.783,0-5.172,0.96-7.162,2.88
		c-1.994,1.92-2.988,4.224-2.988,6.912c0,2.688,0.994,4.985,2.988,6.894c1.99,1.908,4.379,2.862,7.162,2.862
		c4.465,0,7.656-1.608,9.577-4.824l-4.608-2.304c-0.77,0.815-1.453,1.361-2.053,1.638s-1.416,0.414-2.447,0.414
		c-0.984,0-1.896-0.312-2.736-0.937s-1.26-1.584-1.26-2.88h13.393C134.459,703.345,134.472,703.057,134.472,702.625 M99.102,694.398
		c-1.452,1.044-2.178,2.502-2.178,4.374c0,1.248,0.336,2.25,1.008,3.006s1.584,1.435,2.736,2.034c0.455,0.24,1.086,0.504,1.89,0.792
		s1.374,0.546,1.71,0.774c0.336,0.228,0.504,0.546,0.504,0.954c0,0.888-0.66,1.332-1.98,1.332c-0.6,0-1.309-0.198-2.123-0.595
		c-0.816-0.396-1.381-0.708-1.692-0.936c-0.312-0.229-0.563-0.426-0.757-0.594l-2.592,4.355l0.793,0.648
		c0.527,0.408,1.386,0.815,2.574,1.224c1.188,0.408,2.441,0.612,3.762,0.612c5.832,0,8.748-2.101,8.748-6.3
		c0-0.889-0.168-1.681-0.504-2.376c-0.336-0.696-0.811-1.272-1.422-1.729c-0.613-0.456-1.195-0.816-1.746-1.08
		c-0.553-0.264-1.201-0.504-1.945-0.72c-0.119-0.024-0.293-0.072-0.521-0.145c-0.229-0.071-0.39-0.126-0.486-0.161
		c-0.096-0.036-0.239-0.091-0.432-0.162c-0.191-0.072-0.33-0.126-0.414-0.162s-0.197-0.09-0.342-0.162s-0.246-0.138-0.307-0.198
		c-0.059-0.06-0.125-0.132-0.197-0.216s-0.121-0.174-0.145-0.271c-0.023-0.096-0.035-0.191-0.035-0.287
		c0-0.433,0.15-0.727,0.449-0.883c0.301-0.155,0.811-0.233,1.529-0.233c1.297,0,2.664,0.384,4.105,1.151l2.088-4.176l-0.756-0.359
		c-0.504-0.24-1.273-0.48-2.305-0.721c-1.031-0.239-2.076-0.359-3.133-0.359C102.516,692.833,100.553,693.354,99.102,694.398
		 M81.191,698.269c1.2,0,2.214,0.408,3.042,1.224c0.828,0.816,1.242,1.86,1.242,3.133c0,1.248-0.401,2.279-1.206,3.096
		s-1.83,1.224-3.078,1.224c-1.296,0-2.34-0.401-3.132-1.206c-0.792-0.804-1.188-1.842-1.188-3.113c0-1.272,0.414-2.316,1.242-3.133
		C78.941,698.677,79.967,698.269,81.191,698.269 M79.283,712.381c2.447,0,4.465-0.876,6.049-2.628h0.07v2.088h6.301v-18.468h-6.371
		v1.764c-1.584-1.536-3.602-2.304-6.049-2.304c-2.664,0-4.859,0.947-6.588,2.844c-1.729,1.896-2.592,4.212-2.592,6.948
		c0,2.735,0.863,5.046,2.592,6.93S76.619,712.381,79.283,712.381 M56.279,706.944c-1.248,0-2.273-0.407-3.078-1.224
		c-0.804-0.816-1.205-1.848-1.205-3.096c0-1.272,0.414-2.316,1.24-3.133c0.829-0.815,1.844-1.224,3.043-1.224
		c1.225,0,2.25,0.408,3.078,1.224c0.828,0.816,1.242,1.86,1.242,3.133c0,1.271-0.396,2.31-1.188,3.113
		C58.619,706.543,57.576,706.944,56.279,706.944 M58.188,692.833c-2.448,0-4.464,0.768-6.048,2.304v-14.256h-6.372v30.96h6.299
		v-2.088h0.073c1.584,1.752,3.6,2.628,6.048,2.628c2.664,0,4.859-0.942,6.588-2.826s2.592-4.194,2.592-6.93
		c0-2.736-0.863-5.053-2.592-6.948C63.047,693.78,60.852,692.833,58.188,692.833"/>
	<path clip-path="url(#SVGID_6_)" fill="#231F20" d="M389.652,640.398c-1.451,1.044-2.177,2.502-2.177,4.374
		c0,1.248,0.336,2.25,1.007,3.006c0.673,0.756,1.584,1.435,2.736,2.034c0.457,0.24,1.087,0.504,1.891,0.792s1.373,0.546,1.709,0.774
		c0.337,0.228,0.505,0.546,0.505,0.954c0,0.888-0.66,1.332-1.979,1.332c-0.601,0-1.309-0.198-2.125-0.595
		c-0.816-0.396-1.379-0.708-1.691-0.936c-0.312-0.229-0.563-0.426-0.756-0.594l-2.592,4.355l0.791,0.648
		c0.529,0.408,1.387,0.815,2.575,1.224c1.188,0.408,2.44,0.612,3.762,0.612c5.832,0,8.748-2.101,8.748-6.3
		c0-0.889-0.169-1.681-0.504-2.376c-0.336-0.696-0.811-1.272-1.422-1.729c-0.612-0.456-1.194-0.816-1.746-1.08
		c-0.553-0.264-1.2-0.504-1.944-0.72c-0.121-0.024-0.294-0.072-0.521-0.145c-0.229-0.071-0.391-0.126-0.486-0.161
		c-0.096-0.036-0.24-0.091-0.432-0.162c-0.192-0.072-0.33-0.126-0.414-0.162s-0.199-0.09-0.343-0.162s-0.246-0.138-0.306-0.198
		c-0.06-0.06-0.126-0.132-0.198-0.216c-0.071-0.084-0.12-0.174-0.144-0.271c-0.025-0.096-0.036-0.191-0.036-0.287
		c0-0.433,0.149-0.727,0.45-0.883c0.3-0.155,0.809-0.233,1.529-0.233c1.297,0,2.664,0.384,4.104,1.151l2.087-4.176l-0.755-0.359
		c-0.505-0.24-1.272-0.48-2.304-0.721c-1.032-0.24-2.076-0.359-3.133-0.359C393.066,638.833,391.105,639.354,389.652,640.398
		 M369.188,657.841V647.4c0-0.912,0.39-1.74,1.17-2.483c0.779-0.744,1.65-1.116,2.61-1.116c0.983,0,1.782,0.359,2.394,1.08
		c0.612,0.72,0.918,1.56,0.918,2.52v10.44h6.371v-12.168c0-1.225-0.257-2.298-0.772-3.223c-0.517-0.924-1.188-1.638-2.017-2.142
		s-1.691-0.876-2.592-1.116s-1.806-0.359-2.718-0.359c-1.872,0-3.636,0.827-5.292,2.483h-0.072v-1.943h-6.373v18.468H369.188z
		 M347.768,644.269c1.2,0,2.214,0.408,3.042,1.224c0.827,0.816,1.242,1.86,1.242,3.133c0,1.248-0.402,2.279-1.206,3.096
		c-0.805,0.816-1.83,1.224-3.078,1.224c-1.296,0-2.34-0.401-3.133-1.206c-0.791-0.804-1.188-1.842-1.188-3.113
		c0-1.272,0.414-2.316,1.242-3.133C345.518,644.677,346.544,644.269,347.768,644.269 M347.803,658.381
		c3.192,0,5.827-0.918,7.902-2.754c2.076-1.836,3.113-4.17,3.113-7.002s-1.061-5.172-3.186-7.021
		c-2.123-1.848-4.734-2.771-7.83-2.771c-3.144,0-5.783,0.918-7.919,2.754c-2.137,1.836-3.204,4.182-3.204,7.038
		c0,2.855,1.025,5.195,3.078,7.02C341.81,657.469,344.491,658.381,347.803,658.381 M332.433,657.841h-6.372v-18.468h6.372V657.841z
		 M325.557,631.74c0,1.032,0.371,1.92,1.116,2.664c0.743,0.744,1.63,1.116,2.663,1.116c1.031,0,1.92-0.372,2.664-1.116
		c0.743-0.744,1.115-1.632,1.115-2.664c0-1.031-0.372-1.92-1.115-2.664c-0.744-0.743-1.633-1.115-2.664-1.115
		c-1.033,0-1.92,0.372-2.663,1.115C325.928,629.82,325.557,630.709,325.557,631.74 M309.177,639.373v4.859h2.664v7.092
		c0,0.889,0.095,1.723,0.288,2.502c0.191,0.78,0.51,1.524,0.953,2.232c0.444,0.708,1.099,1.272,1.963,1.692
		c0.863,0.42,1.896,0.63,3.096,0.63c1.752,0,3.311-0.384,4.68-1.152l-1.584-5.147l-0.217,0.144
		c-0.143,0.096-0.347,0.192-0.611,0.288c-0.264,0.096-0.516,0.144-0.756,0.144c-0.96,0-1.439-0.852-1.439-2.556v-5.868h3.888v-4.859
		h-3.888v-6.876h-6.372v6.876H309.177z M295.101,644.269c1.199,0,2.214,0.408,3.042,1.224c0.828,0.816,1.242,1.86,1.242,3.133
		c0,1.248-0.403,2.279-1.206,3.096c-0.806,0.816-1.831,1.224-3.078,1.224c-1.296,0-2.34-0.401-3.132-1.206
		c-0.792-0.804-1.188-1.842-1.188-3.113c0-1.272,0.414-2.316,1.242-3.133C292.85,644.677,293.877,644.269,295.101,644.269
		 M293.192,658.381c2.448,0,4.464-0.876,6.048-2.628h0.072v2.088h6.3v-18.468h-6.372v1.764c-1.584-1.536-3.6-2.304-6.048-2.304
		c-2.664,0-4.86,0.947-6.589,2.844c-1.727,1.896-2.591,4.212-2.591,6.948c0,2.735,0.864,5.046,2.591,6.93
		C288.332,657.438,290.528,658.381,293.192,658.381 M279.765,657.841h-6.372v-18.468h6.372V657.841z M272.889,631.74
		c0,1.032,0.372,1.92,1.115,2.664c0.744,0.744,1.633,1.116,2.664,1.116c1.033,0,1.92-0.372,2.664-1.116s1.115-1.632,1.115-2.664
		c0-1.031-0.371-1.92-1.115-2.664c-0.744-0.743-1.631-1.115-2.664-1.115c-1.031,0-1.92,0.372-2.664,1.115
		C273.261,629.82,272.889,630.709,272.889,631.74 M260.758,657.841v-9.72c0-0.192,0.047-0.456,0.144-0.793
		c0.095-0.336,0.257-0.743,0.485-1.224c0.228-0.479,0.617-0.888,1.171-1.224c0.551-0.336,1.211-0.504,1.979-0.504
		c1.416,0,2.521,0.336,3.312,1.008l2.664-5.4l-0.504-0.288c-0.313-0.191-0.805-0.384-1.477-0.575
		c-0.673-0.192-1.357-0.288-2.052-0.288c-0.673,0-1.332,0.113-1.979,0.342c-0.648,0.228-1.178,0.485-1.584,0.773
		c-0.41,0.288-0.793,0.612-1.152,0.973c-0.36,0.359-0.594,0.611-0.702,0.756c-0.108,0.144-0.187,0.264-0.233,0.36h-0.072v-2.664
		h-6.373v18.468H260.758z M238.474,644.269c1.198,0,2.214,0.408,3.042,1.224c0.828,0.816,1.242,1.86,1.242,3.133
		c0,1.248-0.404,2.279-1.207,3.096c-0.805,0.816-1.83,1.224-3.077,1.224c-1.296,0-2.341-0.401-3.132-1.206
		c-0.793-0.804-1.189-1.842-1.189-3.113c0-1.272,0.414-2.316,1.243-3.133C236.224,644.677,237.25,644.269,238.474,644.269
		 M236.565,658.381c2.448,0,4.464-0.876,6.048-2.628h0.072v2.088h6.3v-18.468h-6.372v1.764c-1.584-1.536-3.6-2.304-6.048-2.304
		c-2.664,0-4.86,0.947-6.588,2.844c-1.728,1.896-2.593,4.212-2.593,6.948c0,2.735,0.865,5.046,2.593,6.93
		S233.901,658.381,236.565,658.381 M202.33,639.373l9.899,18.468h4.319l9.9-18.468h-7.56l-4.5,10.044l-4.5-10.044H202.33z
		 M178.605,644.269c1.2,0,2.213,0.408,3.042,1.224c0.828,0.816,1.242,1.86,1.242,3.133c0,1.248-0.403,2.279-1.206,3.096
		c-0.805,0.816-1.832,1.224-3.078,1.224c-1.296,0-2.34-0.401-3.132-1.206c-0.792-0.804-1.188-1.842-1.188-3.113
		c0-1.272,0.414-2.316,1.242-3.133C176.355,644.677,177.381,644.269,178.605,644.269 M178.246,667.74
		c3.262,0,5.891-0.815,7.883-2.447c1.992-1.633,2.988-3.948,2.988-6.948v-18.972h-6.371v1.655h-0.109
		c-1.584-1.464-3.562-2.195-5.939-2.195c-2.664,0-4.859,0.947-6.588,2.844c-1.729,1.896-2.592,4.212-2.592,6.948
		c0,2.735,0.863,5.046,2.592,6.93s3.924,2.826,6.588,2.826c2.903,0,4.92-0.624,6.049-1.872v1.368c0,1.464-0.475,2.55-1.422,3.258
		c-0.949,0.708-1.976,1.062-3.078,1.062c-2.377,0-4.045-0.792-5.004-2.376l-5.221,2.557
		C169.557,665.953,172.965,667.74,178.246,667.74 M150.346,657.841V647.4c0-0.912,0.389-1.74,1.17-2.483
		c0.779-0.744,1.65-1.116,2.609-1.116c0.984,0,1.783,0.359,2.395,1.08c0.611,0.72,0.918,1.56,0.918,2.52v10.44h6.372v-12.168
		c0-1.225-0.259-2.298-0.774-3.223c-0.516-0.924-1.188-1.638-2.016-2.142s-1.691-0.876-2.592-1.116s-1.807-0.359-2.719-0.359
		c-1.871,0-3.635,0.827-5.291,2.483h-0.072v-1.943h-6.372v18.468H150.346z M138.394,657.841h-6.372v-18.468h6.372V657.841z
		 M131.518,631.74c0,1.032,0.372,1.92,1.115,2.664c0.744,0.744,1.633,1.116,2.664,1.116c1.033,0,1.92-0.372,2.664-1.116
		s1.117-1.632,1.117-2.664c0-1.031-0.373-1.92-1.117-2.664c-0.744-0.743-1.631-1.115-2.664-1.115c-1.031,0-1.92,0.372-2.664,1.115
		C131.89,629.82,131.518,630.709,131.518,631.74 M115.139,639.373v4.859h2.664v7.092c0,0.889,0.095,1.723,0.287,2.502
		c0.193,0.78,0.51,1.524,0.955,2.232c0.443,0.708,1.098,1.272,1.961,1.692c0.865,0.42,1.896,0.63,3.096,0.63
		c1.752,0,3.312-0.384,4.682-1.152l-1.584-5.147l-0.217,0.144c-0.145,0.096-0.348,0.192-0.611,0.288
		c-0.266,0.096-0.518,0.144-0.757,0.144c-0.96,0-1.44-0.852-1.44-2.556v-5.868h3.889v-4.859h-3.889v-6.876h-6.371v6.876H115.139z
		 M111.143,657.841h-6.373v-18.468h6.373V657.841z M104.266,631.74c0,1.032,0.373,1.92,1.117,2.664s1.631,1.116,2.664,1.116
		c1.031,0,1.92-0.372,2.664-1.116s1.115-1.632,1.115-2.664c0-1.031-0.371-1.92-1.115-2.664c-0.744-0.743-1.633-1.115-2.664-1.115
		c-1.033,0-1.92,0.372-2.664,1.115C104.639,629.82,104.266,630.709,104.266,631.74 M92.135,657.841v-9.72
		c0-0.192,0.049-0.456,0.145-0.793c0.096-0.336,0.258-0.743,0.486-1.224c0.229-0.479,0.617-0.888,1.17-1.224
		c0.551-0.336,1.211-0.504,1.98-0.504c1.416,0,2.52,0.336,3.312,1.008l2.664-5.4l-0.505-0.288c-0.311-0.191-0.805-0.384-1.475-0.575
		c-0.673-0.192-1.356-0.288-2.053-0.288c-0.672,0-1.332,0.113-1.98,0.342c-0.648,0.228-1.176,0.485-1.584,0.773
		s-0.791,0.612-1.151,0.973c-0.36,0.359-0.595,0.611-0.702,0.756c-0.107,0.144-0.186,0.264-0.234,0.36h-0.072v-2.664h-6.371v18.468
		H92.135z M76.043,657.841l8.461-29.7h-7.488l-5.076,20.376h-0.18l-5.4-20.376h-5.111l-5.4,20.376h-0.18l-5.076-20.376h-7.525
		l8.461,29.7h7.523l4.752-16.668l4.753,16.668H76.043z"/>
</g>
<line fill="none" stroke="#0046F9" stroke-width="2" x1="24.141" y1="601.42" x2="537.141" y2="601.42"/>
<line fill="none" stroke="#0046F9" stroke-width="2" x1="24.141" y1="750.014" x2="537.141" y2="750.014"/>
<g>
	<defs>
		<rect id="SVGID_139_" width="564" height="1002"/>
	</defs>
	<clipPath id="SVGID_8_">
		<use xlink:href="#SVGID_139_"  overflow="visible"/>
	</clipPath>
	<path clip-path="url(#SVGID_8_)" fill="#231F20" d="M476.604,509.531h48.523v51.296h-48.523V509.531z M371.242,505.834
		c0,4.159,3.697,15.25,15.25,15.25c10.629,0,15.25-11.091,15.25-15.25V404.167c0-4.159-4.621-15.25-15.25-15.25
		s-14.789,8.78-15.25,13.864V505.834z M451.65,491.046c0,7.856-0.923,26.341-9.704,42.515c-8.78,16.638-25.416,30.963-55.454,30.963
		c-30.962,0-46.675-14.325-55.455-30.963c-8.779-16.174-9.703-34.658-9.703-42.515V297.879c0-11.553,0.462-32.349,9.241-49.447
		c8.78-16.637,24.491-30.961,55.917-30.961c31.424,0,47.137,14.324,55.917,30.961c8.78,17.099,9.241,37.895,9.241,49.447v21.258
		h-49.908c0-22.644-0.462-37.432-2.311-46.213c-1.848-8.779-5.545-12.015-12.939-12.015c-6.008,0-10.167,2.772-12.015,8.78
		c-2.312,6.008-3.235,15.25-3.235,28.189v60.538c8.78-5.083,16.174-8.317,24.954-8.317c25.879,0,39.743,13.4,47.138,28.65
		c7.394,15.25,8.316,33.734,8.316,42.979V491.046z"/>
</g>
</svg>
