<?xml version="1.0" encoding="utf-8"?>
<!-- Generator: Adobe Illustrator 16.0.0, SVG Export Plug-In . SVG Version: 6.00 Build 0)  -->
<!DOCTYPE svg PUBLIC "-//W3C//DTD SVG 1.1//EN" "http://www.w3.org/Graphics/SVG/1.1/DTD/svg11.dtd">
<svg version="1.1" id="Layer_1" xmlns="http://www.w3.org/2000/svg" xmlns:xlink="http://www.w3.org/1999/xlink" x="0px" y="0px"
	 width="564px" height="1002px" viewBox="0 0 564 1002" enable-background="new 0 0 564 1002" xml:space="preserve">
<g>
	<defs>
		<rect id="SVGID_67_" width="564" height="1002"/>
	</defs>
	<clipPath id="SVGID_2_">
		<use xlink:href="#SVGID_67_"  overflow="visible"/>
	</clipPath>
	<path clip-path="url(#SVGID_2_)" fill="#231F20" d="M197.125,744.748c0.966,2.297,2.488,4.289,4.564,5.976
		c2.074,1.689,4.717,3.03,7.926,4.026c3.21,0.996,7.084,1.494,11.623,1.494c4.482,0,8.342-0.498,11.578-1.494
		c3.238-0.996,5.879-2.337,7.928-4.026c2.047-1.687,3.555-3.679,4.523-5.976c0.969-2.296,1.453-4.773,1.453-7.43
		c0-2.601-0.484-5.05-1.453-7.347c-0.969-2.296-2.477-4.288-4.523-5.976c-2.049-1.688-4.689-3.03-7.928-4.026
		c-3.236-0.996-7.096-1.494-11.578-1.494c-4.539,0-8.413,0.498-11.623,1.494c-3.209,0.996-5.852,2.338-7.926,4.026
		c-2.076,1.688-3.599,3.68-4.564,5.976c-0.971,2.297-1.454,4.746-1.454,7.347C195.671,739.975,196.154,742.452,197.125,744.748
		 M105.15,739.892c-1.854-0.94-3.473-2.656-4.855-5.146c-1.384-2.49-2.477-5.879-3.279-10.168
		c-0.803-4.288-1.203-9.781-1.203-16.478c0-1.826,0.027-3.61,0.084-5.354c0.054-1.744,0.137-3.417,0.248-5.022
		c1.881-2.047,3.957-3.583,6.226-4.606c2.269-1.024,4.815-1.536,7.636-1.536c2.546,0,4.871,0.444,6.975,1.328
		c2.102,0.886,3.9,2.283,5.395,4.191c1.494,1.909,2.656,4.388,3.486,7.43c0.83,3.044,1.246,6.752,1.246,11.123
		c0,8.413-1.467,14.79-4.4,19.134c-2.934,4.345-6.835,6.516-11.704,6.516C108.955,741.303,107.004,740.833,105.15,739.892
		 M51.195,717.521c0.969,4.232,2.477,8.273,4.525,12.118c2.047,3.848,4.676,7.416,7.885,10.708
		c3.209,3.293,7.084,6.144,11.621,8.551c4.537,2.406,9.754,4.303,15.648,5.686c5.893,1.383,12.545,2.075,19.961,2.075
		c9.518,0,18.098-1.135,25.734-3.403c7.636-2.269,14.152-5.367,19.548-9.297c5.396-3.929,9.546-8.536,12.45-13.821
		c2.906-5.284,4.357-10.97,4.357-17.058c0-5.146-1.064-10.002-3.195-14.568c-2.131-4.564-5.229-8.55-9.297-11.953
		c-4.066-3.402-9.088-6.087-15.066-8.052c-5.975-1.963-12.811-2.946-20.502-2.946c-5.202,0-9.906,0.471-14.111,1.411
		c-4.206,0.941-8.107,2.297-11.705,4.067c1.439-5.146,3.363-9.753,5.77-13.821c2.408-4.066,5.313-7.719,8.717-10.957
		c3.402-3.236,7.305-6.101,11.703-8.591c4.4-2.49,9.311-4.731,14.734-6.724l-7.554-11.206c-8.413,0.941-16.284,2.602-23.616,4.98
		c-7.332,2.38-14.068,5.354-20.213,8.923c-6.143,3.569-11.619,7.638-16.436,12.202c-4.813,4.566-8.881,9.463-12.201,14.693
		c-3.32,5.229-5.852,10.736-7.596,16.518c-1.742,5.783-2.614,11.663-2.614,17.64C49.743,709.013,50.227,713.288,51.195,717.521"/>
</g>
<line fill="none" stroke="#231F20" stroke-width="2" x1="282.207" y1="576" x2="282.207" y2="809"/>
<g>
	<defs>
		<rect id="SVGID_69_" width="564" height="1002"/>
	</defs>
	<clipPath id="SVGID_4_">
		<use xlink:href="#SVGID_69_"  overflow="visible"/>
	</clipPath>
	<path clip-path="url(#SVGID_4_)" fill="#231F20" d="M319.296,496.607h88.888l73.471-197.993c1.602-4.135,3.103-7.639,4.505-10.51
		c1.401-2.869,3.168-5.205,5.305-7.007c2.133-1.802,5.071-3.103,8.81-3.904c3.732-0.801,8.473-1.201,14.213-1.201v-74.273H397.973
		v74.273c19.484,0,27.158,6.741,23.022,20.219l-30.03,97.095h-1.602l-25.023-97.095c-2.137-6.672-2.036-11.711,0.3-15.114
		c2.334-3.404,8.51-5.104,18.519-5.104v-74.273H224.604v74.273c6.271,0,10.711,1.77,13.314,5.305
		c2.602,3.538,5.369,9.309,8.307,17.317l4.205,11.811l-26.227,82.881h-1.602l-29.229-97.095c-2.136-6.672-1.702-11.711,1.301-15.114
		c3.004-3.404,8.039-5.104,15.115-5.104v-74.273H42.426v74.273c5.737,0,10.41,0.4,14.014,1.201c3.604,0.801,6.572,2.171,8.908,4.104
		c2.334,1.936,4.17,4.273,5.506,7.007c1.332,2.737,2.803,6.175,4.404,10.31l77.076,197.993h89.086l38.037-107.104L319.296,496.607z"
		/>
	<path clip-path="url(#SVGID_4_)" fill="#231F20" d="M481.489,937.497c0.204-0.307,0.476-0.562,0.815-0.766
		c0.341-0.204,0.73-0.356,1.174-0.459c0.441-0.102,0.9-0.152,1.377-0.152c1.224,0,2.215,0.306,2.975,0.918
		c0.758,0.611,1.195,1.462,1.309,2.55l2.516-0.612c-0.09-0.634-0.288-1.269-0.594-1.903c-0.307-0.635-0.743-1.195-1.309-1.684
		c-0.567-0.487-1.271-0.884-2.109-1.189c-0.838-0.307-1.814-0.459-2.924-0.459c-0.794,0-1.553,0.102-2.277,0.306
		c-0.727,0.204-1.377,0.51-1.955,0.918s-1.037,0.913-1.377,1.513c-0.34,0.602-0.51,1.298-0.51,2.091v0.204
		c0,1.475,0.52,2.597,1.563,3.366c1.042,0.771,2.538,1.224,4.487,1.36c1.678,0.113,2.891,0.374,3.639,0.782
		c0.748,0.407,1.122,1.088,1.122,2.039c0,0.885-0.38,1.57-1.139,2.058c-0.761,0.488-1.764,0.73-3.009,0.73
		c-1.475,0-2.652-0.391-3.537-1.173c-0.884-0.782-1.383-1.818-1.496-3.11l-2.516,0.611c0.045,0.748,0.227,1.491,0.544,2.228
		s0.786,1.394,1.411,1.972c0.623,0.578,1.405,1.043,2.347,1.394c0.939,0.352,2.067,0.527,3.382,0.527
		c0.975,0,1.876-0.119,2.703-0.356c0.828-0.238,1.53-0.583,2.108-1.037c0.577-0.453,1.031-1.003,1.36-1.649
		c0.328-0.646,0.492-1.377,0.492-2.193v-0.203c0-1.496-0.516-2.636-1.546-3.417c-1.032-0.782-2.534-1.252-4.507-1.411
		c-1.836-0.137-3.099-0.419-3.79-0.851c-0.692-0.43-1.036-1.054-1.036-1.87C481.184,938.16,481.285,937.803,481.489,937.497
		 M456.635,936.664h5.305v11.764c0,0.771,0.242,1.406,0.73,1.904c0.486,0.499,1.116,0.748,1.888,0.748h5.745v-2.448h-4.794
		c-0.611,0-0.919-0.34-0.919-1.021v-10.947h6.529v-2.448h-6.529v-6.936h-2.65v6.936h-5.305V936.664z M439.397,942.308
		c0-1.836,0.458-3.303,1.377-4.402c0.918-1.1,2.181-1.649,3.791-1.649c1.359,0,2.437,0.442,3.229,1.326s1.19,2.21,1.19,3.978v9.521
		h2.651v-10.064c0-2.425-0.578-4.244-1.734-5.457c-1.155-1.212-2.708-1.818-4.658-1.818c-2.584,0-4.396,1.11-5.439,3.332h-0.407
		v-2.856h-2.653v16.864h2.653V942.308z M425.779,936.596c0.623,0.228,1.18,0.544,1.667,0.952s0.884,0.907,1.189,1.496
		c0.307,0.59,0.481,1.247,0.527,1.972h-10.88c0.09-0.68,0.289-1.309,0.594-1.887c0.308-0.578,0.703-1.082,1.191-1.513
		c0.486-0.431,1.054-0.766,1.7-1.003c0.646-0.238,1.343-0.357,2.091-0.357C424.517,936.256,425.156,936.37,425.779,936.596
		 M431.814,943.464v-2.176c0-0.748-0.152-1.564-0.458-2.448c-0.308-0.884-0.782-1.7-1.429-2.448
		c-0.646-0.748-1.474-1.377-2.481-1.887c-1.009-0.51-2.205-0.765-3.587-0.765c-1.18,0-2.273,0.21-3.281,0.629
		c-1.009,0.42-1.887,0.998-2.635,1.733c-0.748,0.737-1.332,1.615-1.752,2.636c-0.419,1.02-0.629,2.119-0.629,3.298v0.815
		c0,1.292,0.205,2.472,0.611,3.536c0.41,1.066,0.976,1.984,1.701,2.754c0.726,0.771,1.592,1.366,2.602,1.785
		c1.008,0.419,2.111,0.629,3.314,0.629c2.176,0,3.904-0.493,5.186-1.479c1.279-0.986,2.158-2.262,2.635-3.825l-2.518-0.68
		c-0.157,0.476-0.367,0.924-0.629,1.343c-0.26,0.42-0.6,0.788-1.019,1.104c-0.42,0.318-0.924,0.567-1.513,0.748
		c-0.592,0.183-1.281,0.272-2.074,0.272c-1.746,0-3.107-0.51-4.08-1.53c-0.975-1.02-1.496-2.368-1.564-4.046H431.814z
		 M412.027,938.092c0-1.292-0.346-2.34-1.037-3.145c-0.693-0.805-1.672-1.207-2.941-1.207c-1.678,0-2.902,0.771-3.672,2.312h-0.408
		c-0.203-0.68-0.572-1.235-1.105-1.666c-0.532-0.43-1.206-0.646-2.022-0.646c-0.771,0-1.439,0.187-2.005,0.561
		c-0.567,0.374-1,0.958-1.293,1.751h-0.408v-1.836h-2.652v16.864h2.652v-11.628c0-0.952,0.222-1.723,0.662-2.312
		c0.443-0.589,1.072-0.884,1.889-0.884c0.68,0,1.223,0.244,1.632,0.73c0.408,0.488,0.612,1.105,0.612,1.854v12.24h2.65v-11.424
		c0-1.156,0.233-2.012,0.698-2.567c0.464-0.555,1.071-0.833,1.819-0.833c0.793,0,1.37,0.255,1.733,0.765
		c0.362,0.511,0.544,1.162,0.544,1.955v12.104h2.652V938.092z M380.271,948.615c-0.682-0.283-1.275-0.691-1.785-1.225
		c-0.51-0.532-0.907-1.173-1.19-1.921c-0.284-0.748-0.425-1.598-0.425-2.55v-0.544c0-0.906,0.141-1.734,0.425-2.482
		c0.283-0.748,0.681-1.394,1.19-1.938s1.109-0.963,1.801-1.258s1.434-0.442,2.229-0.442c0.77,0,1.501,0.153,2.193,0.459
		c0.689,0.306,1.291,0.73,1.801,1.275c0.511,0.544,0.912,1.195,1.207,1.954c0.293,0.761,0.442,1.594,0.442,2.499v0.408
		c0,0.931-0.149,1.774-0.442,2.533c-0.295,0.76-0.696,1.411-1.207,1.955c-0.51,0.544-1.104,0.964-1.784,1.258
		c-0.681,0.295-1.417,0.442-2.21,0.442C381.699,949.04,380.951,948.898,380.271,948.615 M388.159,954.412
		c0,0.68-0.306,1.02-0.918,1.02h-10.03v2.448h10.982c0.77,0,1.398-0.25,1.887-0.748c0.486-0.499,0.73-1.134,0.73-1.904v-21.012
		h-2.651v2.652h-0.407c-0.522-1.021-1.242-1.796-2.16-2.329c-0.918-0.532-1.988-0.799-3.213-0.799c-1.088,0-2.131,0.192-3.127,0.577
		c-1,0.387-1.871,0.947-2.619,1.684c-0.748,0.737-1.35,1.644-1.802,2.72c-0.454,1.077-0.681,2.295-0.681,3.655v0.544
		c0,1.383,0.221,2.613,0.664,3.688c0.441,1.077,1.041,1.979,1.801,2.703c0.76,0.727,1.637,1.281,2.637,1.666
		c0.996,0.386,2.062,0.578,3.195,0.578c1.11,0,2.137-0.255,3.077-0.765c0.939-0.51,1.683-1.275,2.228-2.295h0.407V954.412z
		 M357.746,947.425c-1.009-1.076-1.513-2.578-1.513-4.505v-0.544c0-0.906,0.136-1.739,0.408-2.499
		c0.271-0.759,0.651-1.405,1.138-1.938c0.488-0.531,1.06-0.945,1.717-1.24c0.658-0.295,1.383-0.442,2.177-0.442
		c0.771,0,1.49,0.153,2.159,0.459c0.668,0.306,1.246,0.73,1.734,1.275c0.486,0.544,0.867,1.195,1.139,1.954
		c0.272,0.761,0.408,1.594,0.408,2.499v0.408c0,0.931-0.136,1.774-0.408,2.533c-0.271,0.76-0.646,1.411-1.121,1.955
		c-0.477,0.544-1.05,0.964-1.718,1.258c-0.669,0.295-1.401,0.442-2.193,0.442C360.062,949.04,358.754,948.502,357.746,947.425
		 M367.113,948.428c0,0.771,0.243,1.406,0.73,1.904c0.487,0.499,1.116,0.748,1.887,0.748h1.803v-2.448h-0.85
		c-0.613,0-0.918-0.34-0.918-1.021v-13.396h-2.652v2.652h-0.408c-0.545-1.065-1.287-1.854-2.227-2.363
		c-0.941-0.51-1.989-0.765-3.145-0.765c-1.066,0-2.075,0.192-3.027,0.577c-0.951,0.387-1.784,0.947-2.498,1.684
		c-0.715,0.737-1.275,1.638-1.684,2.703s-0.611,2.29-0.611,3.672v0.544c0,1.406,0.203,2.641,0.611,3.706s0.969,1.967,1.684,2.703
		c0.714,0.736,1.547,1.292,2.498,1.666c0.952,0.374,1.983,0.561,3.095,0.561c1.063,0,2.079-0.271,3.042-0.815
		c0.964-0.545,1.717-1.383,2.262-2.517h0.408V948.428z M333.453,936.664h3.467v11.968h-3.875v2.448h10.812v-2.448h-4.285v-7.14
		c0-0.726,0.08-1.405,0.238-2.04s0.408-1.19,0.75-1.666c0.338-0.477,0.764-0.851,1.273-1.122c0.51-0.272,1.116-0.408,1.819-0.408
		c1.087,0,2.006,0.346,2.754,1.037c0.747,0.691,1.122,1.818,1.122,3.383l2.788-0.408c-0.067-2.13-0.624-3.751-1.667-4.861
		s-2.413-1.666-4.113-1.666c-1.02,0-1.927,0.221-2.72,0.662c-0.794,0.442-1.406,1.129-1.836,2.058h-0.409v-2.244h-6.119V936.664z
		 M313.768,936.664h5.201v14.416h2.652v-14.416h7.038v-2.448h-7.038v-3.468c0-0.681,0.305-1.021,0.918-1.021h5.713v-2.447h-6.665
		c-0.771,0-1.399,0.25-1.888,0.747c-0.487,0.499-0.73,1.135-0.73,1.904v4.284h-5.201V936.664z M282.504,936.596
		c0.623,0.228,1.178,0.544,1.666,0.952c0.487,0.408,0.883,0.907,1.189,1.496c0.307,0.59,0.481,1.247,0.527,1.972h-10.879
		c0.09-0.68,0.289-1.309,0.594-1.887c0.307-0.578,0.703-1.082,1.191-1.513c0.486-0.431,1.053-0.766,1.699-1.003
		c0.646-0.238,1.344-0.357,2.092-0.357C281.24,936.256,281.881,936.37,282.504,936.596 M288.539,943.464v-2.176
		c0-0.748-0.154-1.564-0.459-2.448c-0.306-0.884-0.783-1.7-1.428-2.448c-0.646-0.748-1.475-1.377-2.482-1.887
		c-1.01-0.51-2.205-0.765-3.586-0.765c-1.18,0-2.273,0.21-3.281,0.629c-1.01,0.42-1.887,0.998-2.635,1.733
		c-0.749,0.737-1.332,1.615-1.752,2.636c-0.42,1.02-0.629,2.119-0.629,3.298v0.815c0,1.292,0.204,2.472,0.611,3.536
		c0.408,1.066,0.975,1.984,1.701,2.754c0.725,0.771,1.592,1.366,2.6,1.785c1.01,0.419,2.113,0.629,3.316,0.629
		c2.176,0,3.903-0.493,5.184-1.479c1.281-0.986,2.16-2.262,2.637-3.825l-2.518-0.68c-0.158,0.476-0.368,0.924-0.628,1.343
		c-0.262,0.42-0.603,0.788-1.021,1.104c-0.42,0.318-0.924,0.567-1.513,0.748c-0.591,0.183-1.28,0.272-2.073,0.272
		c-1.746,0-3.107-0.51-4.081-1.53c-0.976-1.02-1.495-2.368-1.563-4.046H288.539z M255.186,942.308c0-1.836,0.459-3.303,1.377-4.402
		s2.181-1.649,3.791-1.649c1.359,0,2.436,0.442,3.23,1.326c0.793,0.884,1.189,2.21,1.189,3.978v9.521h2.652v-10.064
		c0-2.425-0.574-4.244-1.717-5.457c-1.146-1.212-2.636-1.818-4.472-1.818c-1.36,0-2.511,0.317-3.451,0.951
		c-0.94,0.636-1.672,1.496-2.192,2.584h-0.408v-9.995h-2.652v23.8h2.652V942.308z M231.486,936.664h5.305v11.764
		c0,0.771,0.243,1.406,0.73,1.904c0.488,0.499,1.117,0.748,1.888,0.748h5.745v-2.448h-4.793c-0.611,0-0.918-0.34-0.918-1.021
		v-10.947h6.527v-2.448h-6.527v-6.936h-2.652v6.936h-5.305V936.664z M193.781,942.308c0-1.836,0.459-3.303,1.377-4.402
		s2.182-1.649,3.791-1.649c1.359,0,2.436,0.442,3.23,1.326c0.793,0.884,1.189,2.21,1.189,3.978v9.521h2.652v-10.064
		c0-2.425-0.578-4.244-1.734-5.457c-1.156-1.212-2.709-1.818-4.658-1.818c-2.584,0-4.398,1.11-5.439,3.332h-0.408v-2.856h-2.652
		v16.864h2.652V942.308z M175.846,948.615c-0.691-0.283-1.297-0.697-1.818-1.241s-0.93-1.195-1.225-1.955
		c-0.295-0.759-0.441-1.615-0.441-2.567v-0.408c0-0.905,0.146-1.738,0.441-2.499c0.295-0.759,0.703-1.41,1.225-1.954
		c0.521-0.545,1.133-0.97,1.836-1.275c0.702-0.306,1.449-0.459,2.244-0.459c0.793,0,1.541,0.153,2.244,0.459
		c0.701,0.306,1.314,0.73,1.836,1.275c0.521,0.544,0.928,1.195,1.224,1.954c0.294,0.761,0.442,1.594,0.442,2.499v0.408
		c0,0.952-0.148,1.809-0.442,2.567c-0.296,0.76-0.702,1.411-1.224,1.955s-1.129,0.958-1.82,1.241s-1.443,0.425-2.26,0.425
		S176.537,948.898,175.846,948.615 M186.572,942.443c0-1.382-0.232-2.611-0.695-3.688c-0.466-1.076-1.09-1.989-1.871-2.737
		s-1.683-1.313-2.703-1.7c-1.02-0.385-2.086-0.577-3.195-0.577c-1.111,0-2.176,0.192-3.196,0.577
		c-1.021,0.387-1.921,0.952-2.702,1.7c-0.783,0.748-1.406,1.661-1.871,2.737c-0.465,1.077-0.697,2.307-0.697,3.688v0.408
		c0,1.406,0.232,2.647,0.697,3.724s1.082,1.983,1.854,2.72c0.77,0.737,1.666,1.298,2.686,1.683c1.02,0.386,2.096,0.578,3.23,0.578
		c1.109,0,2.18-0.192,3.213-0.578c1.031-0.385,1.932-0.945,2.703-1.683c0.77-0.736,1.388-1.644,1.854-2.72
		c0.463-1.076,0.695-2.317,0.695-3.724V942.443z M134.893,948.615c-0.68-0.283-1.274-0.691-1.784-1.225
		c-0.511-0.532-0.907-1.173-1.19-1.921s-0.426-1.598-0.426-2.55v-0.544c0-0.906,0.143-1.734,0.426-2.482s0.68-1.394,1.19-1.938
		c0.51-0.544,1.11-0.963,1.802-1.258s1.434-0.442,2.227-0.442c0.771,0,1.502,0.153,2.193,0.459s1.292,0.73,1.803,1.275
		c0.51,0.544,0.911,1.195,1.207,1.954c0.293,0.761,0.441,1.594,0.441,2.499v0.408c0,0.931-0.148,1.774-0.441,2.533
		c-0.296,0.76-0.697,1.411-1.207,1.955c-0.511,0.544-1.105,0.964-1.785,1.258c-0.68,0.295-1.418,0.442-2.211,0.442
		C136.321,949.04,135.572,948.898,134.893,948.615 M142.781,951.08h2.652v-23.8h-2.652v9.588h-0.408
		c-0.545-1.065-1.32-1.854-2.329-2.363s-2.091-0.765-3.247-0.765c-1.088,0-2.119,0.192-3.094,0.577
		c-0.975,0.387-1.824,0.947-2.55,1.684c-0.726,0.737-1.304,1.644-1.734,2.72c-0.431,1.077-0.646,2.295-0.646,3.655v0.544
		c0,1.383,0.209,2.613,0.629,3.688c0.419,1.077,0.996,1.979,1.734,2.703c0.734,0.727,1.592,1.281,2.566,1.666
		c0.975,0.386,2.027,0.578,3.162,0.578c0.498,0,1.02-0.062,1.564-0.187c0.543-0.125,1.059-0.312,1.547-0.562
		c0.486-0.249,0.939-0.565,1.359-0.952c0.42-0.385,0.766-0.838,1.037-1.359h0.408V951.08z M118.76,936.596
		c0.623,0.228,1.178,0.544,1.666,0.952c0.486,0.408,0.885,0.907,1.189,1.496c0.307,0.59,0.482,1.247,0.527,1.972h-10.879
		c0.09-0.68,0.289-1.309,0.595-1.887s0.702-1.082,1.19-1.513c0.486-0.431,1.053-0.766,1.699-1.003
		c0.646-0.238,1.344-0.357,2.092-0.357C117.496,936.256,118.137,936.37,118.76,936.596 M124.795,943.464v-2.176
		c0-0.748-0.152-1.564-0.459-2.448c-0.306-0.884-0.781-1.7-1.428-2.448s-1.475-1.377-2.482-1.887s-2.205-0.765-3.586-0.765
		c-1.18,0-2.273,0.21-3.281,0.629c-1.01,0.42-1.887,0.998-2.635,1.733c-0.748,0.737-1.332,1.615-1.752,2.636
		c-0.42,1.02-0.629,2.119-0.629,3.298v0.815c0,1.292,0.204,2.472,0.611,3.536c0.408,1.066,0.975,1.984,1.701,2.754
		c0.725,0.771,1.592,1.366,2.601,1.785s2.113,0.629,3.315,0.629c2.176,0,3.904-0.493,5.185-1.479
		c1.28-0.986,2.159-2.262,2.636-3.825l-2.517-0.68c-0.159,0.476-0.369,0.924-0.629,1.343c-0.261,0.42-0.601,0.788-1.021,1.104
		c-0.42,0.318-0.924,0.567-1.514,0.748c-0.589,0.183-1.279,0.272-2.072,0.272c-1.746,0-3.106-0.51-4.08-1.53
		c-0.977-1.02-1.496-2.368-1.564-4.046H124.795z M92.598,937.497c0.203-0.307,0.476-0.562,0.814-0.766
		c0.342-0.204,0.732-0.356,1.174-0.459c0.441-0.102,0.9-0.152,1.377-0.152c1.225,0,2.215,0.306,2.975,0.918
		c0.76,0.611,1.195,1.462,1.31,2.55l2.517-0.612c-0.092-0.634-0.289-1.269-0.596-1.903c-0.306-0.635-0.742-1.195-1.309-1.684
		c-0.566-0.487-1.27-0.884-2.107-1.189c-0.84-0.307-1.814-0.459-2.925-0.459c-0.794,0-1.553,0.102-2.278,0.306
		s-1.377,0.51-1.955,0.918s-1.037,0.913-1.377,1.513c-0.34,0.602-0.51,1.298-0.51,2.091v0.204c0,1.475,0.521,2.597,1.564,3.366
		c1.041,0.771,2.537,1.224,4.488,1.36c1.676,0.113,2.89,0.374,3.637,0.782c0.748,0.407,1.123,1.088,1.123,2.039
		c0,0.885-0.381,1.57-1.139,2.058c-0.762,0.488-1.764,0.73-3.01,0.73c-1.475,0-2.652-0.391-3.535-1.173
		c-0.885-0.782-1.385-1.818-1.496-3.11l-2.517,0.611c0.044,0.748,0.226,1.491,0.544,2.228c0.316,0.736,0.787,1.394,1.411,1.972
		c0.623,0.578,1.405,1.043,2.347,1.394c0.939,0.352,2.066,0.527,3.383,0.527c0.974,0,1.875-0.119,2.702-0.356
		c0.827-0.238,1.53-0.583,2.108-1.037c0.578-0.453,1.031-1.003,1.359-1.649c0.328-0.646,0.494-1.377,0.494-2.193v-0.203
		c0-1.496-0.518-2.636-1.547-3.417c-1.033-0.782-2.533-1.252-4.506-1.411c-1.836-0.137-3.1-0.419-3.791-0.851
		c-0.691-0.43-1.037-1.054-1.037-1.87C92.291,938.16,92.393,937.803,92.598,937.497 M71.194,947.425
		c-1.009-1.076-1.513-2.578-1.513-4.505v-0.544c0-0.906,0.136-1.739,0.408-2.499c0.271-0.759,0.65-1.405,1.139-1.938
		c0.486-0.531,1.059-0.945,1.717-1.24c0.656-0.295,1.382-0.442,2.176-0.442c0.77,0,1.49,0.153,2.158,0.459s1.247,0.73,1.734,1.275
		c0.488,0.544,0.867,1.195,1.14,1.954c0.272,0.761,0.407,1.594,0.407,2.499v0.408c0,0.931-0.135,1.774-0.407,2.533
		c-0.272,0.76-0.646,1.411-1.122,1.955s-1.049,0.964-1.717,1.258c-0.67,0.295-1.4,0.442-2.193,0.442
		C73.512,949.04,72.202,948.502,71.194,947.425 M80.561,948.428c0,0.771,0.244,1.406,0.732,1.904
		c0.486,0.499,1.115,0.748,1.887,0.748h1.802v-2.448h-0.851c-0.611,0-0.918-0.34-0.918-1.021v-13.396h-2.652v2.652h-0.407
		c-0.544-1.065-1.287-1.854-2.228-2.363s-1.988-0.765-3.145-0.765c-1.066,0-2.074,0.192-3.025,0.577
		c-0.953,0.387-1.785,0.947-2.5,1.684c-0.713,0.737-1.275,1.638-1.684,2.703c-0.406,1.065-0.611,2.29-0.611,3.672v0.544
		c0,1.406,0.205,2.641,0.611,3.706c0.408,1.065,0.971,1.967,1.684,2.703c0.715,0.736,1.547,1.292,2.5,1.666
		c0.951,0.374,1.982,0.561,3.094,0.561c1.064,0,2.078-0.271,3.043-0.815c0.963-0.545,1.717-1.383,2.261-2.517h0.407V948.428z
		 M53.327,948.598c-0.681-0.294-1.274-0.714-1.784-1.258c-0.512-0.544-0.914-1.195-1.207-1.955
		c-0.296-0.759-0.443-1.603-0.443-2.533v-0.408c0-0.905,0.147-1.738,0.443-2.499c0.293-0.759,0.695-1.41,1.207-1.954
		c0.51-0.545,1.104-0.97,1.784-1.275s1.416-0.459,2.21-0.459c0.793,0,1.535,0.147,2.227,0.442s1.293,0.709,1.803,1.24
		c0.51,0.533,0.906,1.168,1.189,1.904c0.283,0.737,0.426,1.559,0.426,2.465v0.681c0,0.93-0.143,1.768-0.426,2.516
		s-0.68,1.383-1.189,1.904s-1.105,0.924-1.785,1.207s-1.428,0.425-2.244,0.425C54.743,949.04,54.008,948.893,53.327,948.598
		 M49.893,948.496h0.408c0.295,0.521,0.658,0.969,1.088,1.343s0.901,0.692,1.412,0.952c0.51,0.261,1.047,0.453,1.615,0.578
		c0.564,0.124,1.121,0.187,1.664,0.187c1.066,0,2.074-0.187,3.027-0.561c0.951-0.374,1.785-0.923,2.498-1.649
		c0.715-0.725,1.275-1.62,1.684-2.686s0.612-2.289,0.612-3.672v-0.681c0-1.359-0.21-2.572-0.63-3.638s-0.985-1.96-1.699-2.687
		c-0.714-0.725-1.537-1.279-2.465-1.666c-0.93-0.385-1.916-0.577-2.958-0.577c-1.224,0-2.358,0.267-3.399,0.799
		c-1.044,0.533-1.859,1.309-2.449,2.329h-0.408v-9.588h-2.651v23.8h2.651V948.496z"/>
	<path clip-path="url(#SVGID_4_)" fill="#231F20" d="M399.617,885.497c0.204-0.307,0.476-0.562,0.816-0.766
		c0.34-0.204,0.73-0.356,1.173-0.459c0.441-0.102,0.9-0.152,1.376-0.152c1.225,0,2.216,0.306,2.977,0.918
		c0.758,0.611,1.194,1.462,1.309,2.55l2.516-0.612c-0.091-0.634-0.289-1.269-0.595-1.903c-0.308-0.635-0.743-1.195-1.31-1.684
		c-0.566-0.487-1.27-0.884-2.107-1.189c-0.839-0.307-1.814-0.459-2.924-0.459c-0.795,0-1.555,0.102-2.278,0.306
		c-0.726,0.204-1.378,0.51-1.955,0.918c-0.579,0.408-1.038,0.913-1.377,1.513c-0.34,0.602-0.511,1.298-0.511,2.091v0.204
		c0,1.475,0.521,2.597,1.564,3.366c1.043,0.771,2.537,1.224,4.488,1.36c1.677,0.113,2.889,0.374,3.639,0.782
		c0.748,0.407,1.121,1.088,1.121,2.039c0,0.885-0.38,1.57-1.139,2.058c-0.76,0.488-1.764,0.73-3.009,0.73
		c-1.474,0-2.652-0.391-3.536-1.173c-0.885-0.782-1.383-1.818-1.496-3.11l-2.516,0.611c0.045,0.748,0.226,1.491,0.543,2.228
		c0.316,0.736,0.787,1.394,1.41,1.972s1.406,1.043,2.348,1.394c0.939,0.352,2.067,0.527,3.383,0.527
		c0.975,0,1.875-0.119,2.703-0.356c0.827-0.238,1.529-0.583,2.107-1.037c0.578-0.453,1.031-1.003,1.36-1.649
		c0.328-0.646,0.493-1.377,0.493-2.193v-0.203c0-1.496-0.517-2.636-1.547-3.417c-1.033-0.782-2.533-1.252-4.506-1.411
		c-1.836-0.137-3.1-0.419-3.79-0.851c-0.692-0.43-1.038-1.054-1.038-1.87C399.311,886.16,399.412,885.803,399.617,885.497
		 M377.994,890.308c0-1.836,0.457-3.303,1.376-4.402c0.917-1.1,2.181-1.649,3.79-1.649c1.361,0,2.438,0.442,3.231,1.326
		c0.793,0.884,1.188,2.21,1.188,3.978v9.521h2.653v-10.064c0-2.425-0.579-4.244-1.733-5.457c-1.158-1.212-2.71-1.818-4.659-1.818
		c-2.584,0-4.397,1.11-5.439,3.332h-0.407v-2.856h-2.653v16.864h2.653V890.308z M360.059,896.615
		c-0.692-0.283-1.299-0.697-1.819-1.241c-0.522-0.544-0.93-1.195-1.224-1.955c-0.296-0.759-0.443-1.615-0.443-2.567v-0.408
		c0-0.905,0.147-1.738,0.443-2.499c0.294-0.759,0.701-1.41,1.224-1.954c0.521-0.545,1.132-0.97,1.836-1.275
		c0.702-0.306,1.45-0.459,2.243-0.459s1.543,0.153,2.244,0.459c0.703,0.306,1.314,0.73,1.836,1.275
		c0.521,0.544,0.93,1.195,1.225,1.954c0.295,0.761,0.442,1.594,0.442,2.499v0.408c0,0.952-0.147,1.809-0.442,2.567
		c-0.295,0.76-0.703,1.411-1.225,1.955s-1.127,0.958-1.818,1.241s-1.445,0.425-2.262,0.425
		C361.503,897.04,360.75,896.898,360.059,896.615 M370.785,890.443c0-1.382-0.233-2.611-0.697-3.688
		c-0.465-1.076-1.088-1.989-1.871-2.737c-0.78-0.748-1.682-1.313-2.701-1.7c-1.021-0.385-2.086-0.577-3.197-0.577
		c-1.109,0-2.174,0.192-3.195,0.577c-1.02,0.387-1.921,0.952-2.703,1.7c-0.781,0.748-1.406,1.661-1.871,2.737
		c-0.463,1.077-0.695,2.307-0.695,3.688v0.408c0,1.406,0.232,2.647,0.695,3.724c0.465,1.076,1.083,1.983,1.854,2.72
		c0.771,0.737,1.667,1.298,2.686,1.683c1.021,0.386,2.098,0.578,3.23,0.578c1.111,0,2.182-0.192,3.213-0.578
		c1.031-0.385,1.933-0.945,2.703-1.683c0.77-0.736,1.389-1.644,1.854-2.72c0.464-1.076,0.697-2.317,0.697-3.724V890.443z
		 M334.813,899.08h14.076v-2.448h-5.509v-14.416h-7.956v2.448h5.305v11.968h-5.916V899.08z M340.338,878.867
		c0.463,0.465,1.025,0.696,1.684,0.696c0.656,0,1.218-0.231,1.682-0.696c0.465-0.465,0.698-1.025,0.698-1.684
		c0-0.657-0.233-1.218-0.698-1.683c-0.464-0.464-1.025-0.697-1.682-0.697c-0.658,0-1.221,0.233-1.684,0.697
		c-0.465,0.465-0.696,1.025-0.696,1.683C339.642,877.842,339.873,878.402,340.338,878.867 M313.359,884.664h5.304v11.764
		c0,0.771,0.243,1.406,0.731,1.904c0.486,0.499,1.115,0.748,1.887,0.748h5.746v-2.448h-4.794c-0.612,0-0.919-0.34-0.919-1.021
		v-10.947h6.529v-2.448h-6.529v-6.936h-2.651v6.936h-5.304V884.664z M296.342,895.425c-1.008-1.076-1.514-2.578-1.514-4.505v-0.544
		c0-0.906,0.137-1.739,0.409-2.499c0.271-0.759,0.651-1.405,1.14-1.938c0.486-0.531,1.059-0.945,1.716-1.24s1.382-0.442,2.177-0.442
		c0.77,0,1.488,0.153,2.158,0.459c0.668,0.306,1.246,0.73,1.734,1.275c0.487,0.544,0.867,1.195,1.139,1.954
		c0.271,0.761,0.408,1.594,0.408,2.499v0.408c0,0.931-0.137,1.774-0.408,2.533c-0.271,0.76-0.646,1.411-1.121,1.955
		c-0.477,0.544-1.051,0.964-1.719,1.258c-0.668,0.295-1.398,0.442-2.191,0.442C298.659,897.04,297.35,896.502,296.342,895.425
		 M305.709,896.428c0,0.771,0.242,1.406,0.73,1.904c0.486,0.499,1.117,0.748,1.888,0.748h1.802v-2.448h-0.85
		c-0.611,0-0.918-0.34-0.918-1.021v-13.396h-2.652v2.652h-0.408c-0.544-1.065-1.287-1.854-2.227-2.363
		c-0.941-0.51-1.988-0.765-3.145-0.765c-1.066,0-2.074,0.192-3.027,0.577c-0.951,0.387-1.784,0.947-2.498,1.684
		c-0.714,0.737-1.275,1.638-1.684,2.703c-0.407,1.065-0.611,2.29-0.611,3.672v0.544c0,1.406,0.204,2.641,0.611,3.706
		c0.408,1.065,0.97,1.967,1.684,2.703s1.547,1.292,2.498,1.666c0.953,0.374,1.982,0.561,3.094,0.561c1.066,0,2.08-0.271,3.044-0.815
		c0.963-0.545,1.717-1.383,2.261-2.517h0.408V896.428z M273.409,899.08h14.076v-2.448h-5.509v-14.416h-7.955v2.448h5.303v11.968
		h-5.915V899.08z M278.934,878.867c0.465,0.465,1.025,0.696,1.684,0.696c0.657,0,1.219-0.231,1.683-0.696
		c0.465-0.465,0.696-1.025,0.696-1.684c0-0.657-0.231-1.218-0.696-1.683c-0.464-0.464-1.025-0.697-1.683-0.697
		c-0.658,0-1.219,0.233-1.684,0.697c-0.465,0.465-0.696,1.025-0.696,1.683C278.237,877.842,278.469,878.402,278.934,878.867
		 M251.58,884.664h3.469v11.968h-3.875v2.448h10.812v-2.448h-4.284v-7.14c0-0.726,0.078-1.405,0.238-2.04
		c0.158-0.635,0.408-1.19,0.748-1.666c0.34-0.477,0.764-0.851,1.275-1.122c0.51-0.272,1.115-0.408,1.818-0.408
		c1.088,0,2.006,0.346,2.754,1.037s1.122,1.818,1.122,3.383l2.788-0.408c-0.068-2.13-0.624-3.751-1.666-4.861
		c-1.043-1.11-2.414-1.666-4.113-1.666c-1.021,0-1.928,0.221-2.721,0.662c-0.795,0.442-1.406,1.129-1.836,2.058h-0.408v-2.244
		h-6.121V884.664z M234.938,895.425c-1.008-1.076-1.512-2.578-1.512-4.505v-0.544c0-0.906,0.135-1.739,0.408-2.499
		c0.271-0.759,0.65-1.405,1.139-1.938c0.486-0.531,1.059-0.945,1.717-1.24c0.656-0.295,1.381-0.442,2.176-0.442
		c0.77,0,1.49,0.153,2.158,0.459c0.669,0.306,1.246,0.73,1.734,1.275c0.486,0.544,0.867,1.195,1.139,1.954
		c0.271,0.761,0.408,1.594,0.408,2.499v0.408c0,0.931-0.137,1.774-0.408,2.533c-0.271,0.76-0.645,1.411-1.121,1.955
		s-1.049,0.964-1.717,1.258c-0.67,0.295-1.4,0.442-2.193,0.442C237.256,897.04,235.946,896.502,234.938,895.425 M244.305,896.428
		c0,0.771,0.244,1.406,0.73,1.904c0.488,0.499,1.117,0.748,1.889,0.748h1.801v-2.448h-0.85c-0.611,0-0.918-0.34-0.918-1.021v-13.396
		h-2.652v2.652h-0.408c-0.543-1.065-1.286-1.854-2.227-2.363c-0.941-0.51-1.988-0.765-3.145-0.765c-1.066,0-2.074,0.192-3.025,0.577
		c-0.953,0.387-1.785,0.947-2.5,1.684c-0.714,0.737-1.275,1.638-1.683,2.703c-0.409,1.065-0.612,2.29-0.612,3.672v0.544
		c0,1.406,0.203,2.641,0.612,3.706c0.407,1.065,0.969,1.967,1.683,2.703c0.715,0.736,1.547,1.292,2.5,1.666
		c0.951,0.374,1.982,0.561,3.094,0.561c1.064,0,2.078-0.271,3.043-0.815c0.963-0.545,1.717-1.383,2.26-2.517h0.408V896.428z
		 M227.51,882.216h-3.129l-5.168,15.64h-0.408l-5.168-15.64h-3.127l5.881,16.864h5.236L227.51,882.216z M175.592,896.615
		c-0.681-0.283-1.275-0.691-1.785-1.225c-0.51-0.532-0.908-1.173-1.191-1.921s-0.424-1.598-0.424-2.55v-0.544
		c0-0.906,0.141-1.734,0.424-2.482s0.682-1.394,1.191-1.938s1.109-0.963,1.801-1.258s1.434-0.442,2.229-0.442
		c0.77,0,1.5,0.153,2.191,0.459s1.293,0.73,1.803,1.275c0.51,0.544,0.912,1.195,1.207,1.954c0.294,0.761,0.441,1.594,0.441,2.499
		v0.408c0,0.931-0.147,1.774-0.441,2.533c-0.295,0.76-0.697,1.411-1.207,1.955s-1.105,0.964-1.785,1.258
		c-0.68,0.295-1.416,0.442-2.209,0.442C177.02,897.04,176.271,896.898,175.592,896.615 M183.479,902.412
		c0,0.68-0.305,1.02-0.918,1.02h-10.029v2.448h10.982c0.77,0,1.398-0.25,1.887-0.748c0.486-0.499,0.73-1.134,0.73-1.904v-21.012
		h-2.652v2.652h-0.408c-0.521-1.021-1.24-1.796-2.158-2.329c-0.918-0.532-1.988-0.799-3.213-0.799c-1.088,0-2.131,0.192-3.129,0.577
		c-0.998,0.387-1.869,0.947-2.617,1.684c-0.748,0.737-1.35,1.644-1.803,2.72c-0.453,1.077-0.68,2.295-0.68,3.655v0.544
		c0,1.383,0.222,2.613,0.664,3.688c0.441,1.077,1.041,1.979,1.801,2.703c0.76,0.727,1.637,1.281,2.635,1.666
		c0.998,0.386,2.062,0.578,3.197,0.578c1.109,0,2.135-0.255,3.076-0.765c0.939-0.51,1.684-1.275,2.227-2.295h0.408V902.412z
		 M152.846,890.308c0-1.836,0.459-3.303,1.377-4.402s2.18-1.649,3.791-1.649c1.359,0,2.436,0.442,3.229,1.326
		c0.792,0.884,1.19,2.21,1.19,3.978v9.521h2.652v-10.064c0-2.425-0.578-4.244-1.734-5.457c-1.156-1.212-2.709-1.818-4.658-1.818
		c-2.584,0-4.398,1.11-5.439,3.332h-0.408v-2.856h-2.652v16.864h2.652V890.308z M130.133,899.08h14.076v-2.448h-5.508v-14.416
		h-7.957v2.448h5.305v11.968h-5.916V899.08z M135.658,878.867c0.464,0.465,1.025,0.696,1.684,0.696c0.656,0,1.217-0.231,1.682-0.696
		s0.697-1.025,0.697-1.684c0-0.657-0.232-1.218-0.697-1.683c-0.465-0.464-1.025-0.697-1.682-0.697c-0.658,0-1.22,0.233-1.684,0.697
		c-0.465,0.465-0.697,1.025-0.697,1.683C134.961,877.842,135.193,878.402,135.658,878.867 M108.68,884.664h5.303v11.764
		c0,0.771,0.244,1.406,0.732,1.904c0.486,0.499,1.115,0.748,1.887,0.748h5.746v-2.448h-4.795c-0.611,0-0.918-0.34-0.918-1.021
		v-10.947h6.528v-2.448h-6.528v-6.936h-2.652v6.936h-5.303V884.664z M89.197,899.08h14.076v-2.448h-5.508v-14.416h-7.957v2.448
		h5.305v11.968h-5.916V899.08z M94.723,878.867c0.463,0.465,1.024,0.696,1.683,0.696c0.657,0,1.218-0.231,1.683-0.696
		s0.697-1.025,0.697-1.684c0-0.657-0.232-1.218-0.697-1.683c-0.465-0.464-1.025-0.697-1.683-0.697c-0.658,0-1.22,0.233-1.683,0.697
		c-0.465,0.465-0.697,1.025-0.697,1.683C94.025,877.842,94.258,878.402,94.723,878.867 M67.369,884.664h3.469v11.968h-3.877v2.448
		h10.812v-2.448h-4.284v-7.14c0-0.726,0.079-1.405,0.237-2.04s0.408-1.19,0.748-1.666c0.34-0.477,0.766-0.851,1.275-1.122
		c0.51-0.272,1.116-0.408,1.819-0.408c1.088,0,2.006,0.346,2.754,1.037c0.747,0.691,1.122,1.818,1.122,3.383l2.788-0.408
		c-0.067-2.13-0.624-3.751-1.667-4.861c-1.042-1.11-2.413-1.666-4.113-1.666c-1.02,0-1.927,0.221-2.72,0.662
		c-0.794,0.442-1.406,1.129-1.837,2.058h-0.407v-2.244h-6.12V884.664z M65.328,875.28h-2.584l-2.277,22.575h-0.408l-2.141-22.575
		h-5.236l-2.143,22.575h-0.408l-2.277-22.575H45.27l2.414,23.8h5.201l2.211-22.576h0.408l2.209,22.576h5.203L65.328,875.28z"/>
	<polygon clip-path="url(#SVGID_4_)" fill="none" stroke="#231F20" stroke-width="1.998" points="1,3 1,999 1,1001.002 3,1001.002 
		561,1001.002 563.002,1001.002 563.002,999 563.002,3 563.002,0.998 561,0.998 3,0.998 1,0.998 	"/>
</g>
<rect x="5.002" y="5.002" fill="none" stroke="#231F20" stroke-width="1.998" width="553.998" height="991.996"/>
<g>
	<defs>
		<rect id="SVGID_71_" width="564" height="1002"/>
	</defs>
	<clipPath id="SVGID_6_">
		<use xlink:href="#SVGID_71_"  overflow="visible"/>
	</clipPath>
	<path clip-path="url(#SVGID_6_)" fill="#FF1419" d="M465.178,82.45c1.381,3.386,3.347,6.342,5.9,8.867
		c2.551,2.527,5.625,4.519,9.218,5.977c3.594,1.458,7.618,2.187,12.071,2.187c2.523,0,4.836-0.202,6.933-0.605
		c2.095-0.404,4.069-0.827,5.917-1.27c1.642-0.416,3.178-0.781,4.611-1.093c1.431-0.313,2.85-0.469,4.258-0.469
		c1.458,0,2.838,0.248,4.14,0.742c1.302,0.495,2.578,1.38,3.827,2.656h2.422V73.231h6.29v-3.085h-37.187v3.085h7.265v11.094
		c0,2.136-0.033,3.939-0.097,5.41c-0.066,1.472-0.242,2.67-0.529,3.594c-0.287,0.925-0.728,1.596-1.327,2.012
		c-0.599,0.417-1.421,0.625-2.461,0.625c-1.302,0-2.389-0.495-3.261-1.485c-0.873-0.989-1.576-2.584-2.11-4.785
		c-0.534-2.2-0.912-5.084-1.133-8.652c-0.222-3.568-0.332-7.93-0.332-13.086c0-3.411,0.15-6.328,0.45-8.75
		c0.299-2.422,0.703-4.459,1.209-6.113c0.509-1.654,1.115-2.962,1.817-3.926c0.703-0.963,1.458-1.699,2.267-2.207
		c0.806-0.508,1.646-0.833,2.518-0.977c0.873-0.142,1.752-0.215,2.639-0.215c1.848,0,3.808,0.333,5.879,0.997
		c2.068,0.664,4.062,1.81,5.975,3.438c1.915,1.628,3.672,3.809,5.275,6.543c1.6,2.734,2.871,6.172,3.808,10.313h3.046V41.708h-2.693
		l-4.806,7.187c-3.15-2.838-6.543-4.843-10.176-6.015c-3.632-1.172-7.389-1.758-11.269-1.758c-5.443,0-10.189,0.781-14.238,2.344
		c-4.05,1.562-7.422,3.711-10.119,6.445c-2.695,2.734-4.713,5.957-6.053,9.668c-1.343,3.711-2.013,7.715-2.013,12.012
		C463.108,75.445,463.799,79.065,465.178,82.45 M385.805,97.958h20.313v-3.086c-1.146,0-2.228-0.032-3.241-0.098
		c-1.018-0.064-1.896-0.181-2.638-0.351c-0.743-0.169-1.328-0.41-1.758-0.723c-0.43-0.312-0.646-0.729-0.646-1.25V56.278
		l30.041,41.68h19.804v-50c0-0.963,0.638-1.588,1.913-1.875c1.276-0.286,3.034-0.43,5.273-0.43v-3.047h-17.694v3.047
		c1.12,0,2.122,0.033,3.008,0.098c0.885,0.065,1.64,0.182,2.265,0.352c0.625,0.169,1.1,0.404,1.426,0.703
		c0.326,0.299,0.488,0.683,0.488,1.152v27.734l-25.116-33.086h-34.142v3.047h4.65l4.765,6.25v40.743
		c0,0.468-0.241,0.846-0.724,1.132c-0.482,0.287-1.125,0.508-1.934,0.664c-0.807,0.157-1.737,0.268-2.793,0.332
		c-1.054,0.066-2.142,0.098-3.262,0.098V97.958z M337.956,97.958h40.587v-3.086h-6.799V45.653h6.799v-3.047h-40.587v3.047h6.837
		v49.219h-6.837V97.958z M278.23,97.958h40.586v-3.086h-6.836V45.653h5.664l9.531,19.297h2.734V42.606h-62.773V64.95h2.695
		l9.57-19.297h5.625v49.219h-6.797V97.958z M218.506,97.958h40.586v-3.086h-6.797V45.653h6.797v-3.047h-40.586v3.047h6.836v49.219
		h-6.836V97.958z M171.398,45.653c1.405,0,2.629,0.163,3.672,0.489c1.041,0.326,1.906,0.911,2.598,1.757
		c0.689,0.847,1.203,2.006,1.542,3.477c0.339,1.472,0.507,3.366,0.507,5.684c0,2.318-0.168,4.225-0.507,5.722
		c-0.339,1.498-0.853,2.676-1.542,3.535c-0.691,0.86-1.557,1.459-2.598,1.797c-1.043,0.339-2.267,0.508-3.672,0.508V45.653z
		 M137.609,97.958h40.586v-3.086h-6.797V71.708c1.275,0,2.375,0.182,3.301,0.547c0.924,0.365,1.672,1.035,2.246,2.012
		c0.571,0.976,0.996,2.312,1.268,4.004c0.275,1.693,0.412,3.867,0.412,6.523c0,2.422,0.246,4.557,0.742,6.406
		c0.494,1.85,1.346,3.399,2.558,4.649c1.211,1.25,2.832,2.193,4.864,2.832c2.031,0.637,4.582,0.957,7.656,0.957
		c3.203,0,5.846-0.241,7.93-0.723c2.084-0.482,3.742-1.269,4.98-2.363c1.236-1.094,2.096-2.526,2.577-4.297
		c0.483-1.771,0.724-3.945,0.724-6.524v-1.25h-3.281c0,3.152-0.197,5.561-0.586,7.227c-0.391,1.667-1.016,2.5-1.875,2.5
		c-0.522,0-0.893-0.208-1.114-0.625c-0.222-0.416-0.332-1.028-0.332-1.836V90.36c0-0.403,0.026-0.982,0.077-1.738
		c0.027-0.729,0.047-1.36,0.061-1.894c0.012-0.534,0.02-1.178,0.02-1.934c0-2.734-0.483-4.993-1.447-6.777
		c-0.963-1.784-2.493-3.204-4.589-4.258c-2.097-1.055-4.798-1.797-8.104-2.227c-3.309-0.429-7.307-0.657-11.992-0.683
		c5.233-0.026,9.602-0.358,13.104-0.996c3.501-0.638,6.302-1.543,8.399-2.715c2.096-1.172,3.58-2.604,4.453-4.297
		c0.871-1.693,1.308-3.62,1.308-5.781c0-2.474-0.501-4.623-1.505-6.446c-1-1.822-2.459-3.326-4.375-4.511
		c-1.913-1.185-4.27-2.064-7.069-2.637c-2.8-0.573-5.983-0.86-9.551-0.86h-44.647v3.047h6.836v49.219h-6.836V97.958z M54.836,97.958
		h16.758l10.039-33.906l12.307,33.906h16.795l14.768-49.883c0.285-0.911,0.982-1.543,2.088-1.894
		c1.107-0.352,2.818-0.528,5.139-0.528v-3.047h-18.596v3.047c1.041,0,1.999,0.033,2.871,0.098c0.873,0.065,1.628,0.17,2.268,0.312
		c0.637,0.144,1.131,0.326,1.483,0.547c0.353,0.222,0.526,0.502,0.526,0.84c0,0.183-0.039,0.391-0.115,0.625l-8.557,29.414
		l-10.742-31.836h7.033v-3.047H72.336v3.047h2.58l4.49,12.344l-5.858,19.688L62.729,45.653h7.029v-3.047H30.266v3.047h5.51
		L54.836,97.958z"/>
</g>
<line fill="none" stroke="#231F20" stroke-width="2" x1="23.479" y1="132" x2="536.479" y2="132"/>
<line fill="none" stroke="#231F20" stroke-width="2" x1="23.479" y1="555" x2="536.479" y2="555"/>
<line fill="none" stroke="#231F20" stroke-width="2" x1="23.479" y1="830" x2="536.479" y2="830"/>
<g>
	<defs>
		<rect id="SVGID_73_" width="564" height="1002"/>
	</defs>
	<clipPath id="SVGID_8_">
		<use xlink:href="#SVGID_73_"  overflow="visible"/>
	</clipPath>
	<path clip-path="url(#SVGID_8_)" fill="#FF1419" d="M443.438,751c11.916-13.619,22.982-24.116,32.629-31.493
		c11.065-8.512,20.995-14.186,29.508-17.022v-6.526c-11.916-5.107-22.131-11.065-30.358-18.725
		c-16.456-15.037-27.237-25.535-31.778-31.21h-19.575c4.54,9.646,9.362,18.441,14.186,26.386c3.972,5.959,8.228,11.633,13.62,17.307
		H315.956v17.308h135.995c-7.377,9.078-11.633,15.037-13.903,18.726c-5.958,9.646-10.782,18.158-13.618,25.251H443.438z"/>
</g>
</svg>
