<?xml version="1.0" encoding="utf-8"?>
<!-- Generator: Adobe Illustrator 16.0.0, SVG Export Plug-In . SVG Version: 6.00 Build 0)  -->
<!DOCTYPE svg PUBLIC "-//W3C//DTD SVG 1.1//EN" "http://www.w3.org/Graphics/SVG/1.1/DTD/svg11.dtd">
<svg version="1.1" id="Layer_1" xmlns="http://www.w3.org/2000/svg" xmlns:xlink="http://www.w3.org/1999/xlink" x="0px" y="0px"
	 width="564px" height="1002px" viewBox="0 0 564 1002" enable-background="new 0 0 564 1002" xml:space="preserve">
<g>
	<defs>
		<rect id="SVGID_1_" width="564" height="1002"/>
	</defs>
	<clipPath id="SVGID_2_">
		<use xlink:href="#SVGID_1_"  overflow="visible"/>
	</clipPath>
	<path clip-path="url(#SVGID_2_)" fill="#FF1419" d="M484.456,78.263L492,58.583h0.164l7.544,19.68H484.456z M484.948,37.672
		l-27.307,67.65h16.564l5.002-13.53h25.748l5.002,13.53h16.563l-27.306-67.65H484.948z M405.573,49.973h1.804
		c1.42,0,2.624,0.028,3.608,0.082c0.983,0.055,2.103,0.246,3.361,0.574c1.256,0.328,2.268,0.793,3.034,1.394
		c0.764,0.602,1.42,1.476,1.968,2.624c0.545,1.148,0.82,2.542,0.82,4.182s-0.275,3.034-0.82,4.182
		c-0.548,1.148-1.204,2.023-1.968,2.624c-0.767,0.602-1.778,1.066-3.034,1.394c-1.259,0.328-2.378,0.52-3.361,0.574
		c-0.984,0.055-2.188,0.082-3.608,0.082h-1.804V49.973z M390.157,105.322h15.416V78.59l20.664,26.732h19.598L422.547,77.36
		c4.264-1.366,7.638-3.731,10.127-7.093c2.486-3.362,3.731-7.53,3.731-12.505c0-6.45-2.051-11.411-6.15-14.883
		c-4.1-3.471-9.404-5.207-15.908-5.207h-24.189V105.322z M349.73,37.672v39.114c0,5.467-0.859,9.266-2.583,11.398
		c-1.721,2.132-4.523,3.198-8.404,3.198c-3.882,0-6.683-1.066-8.405-3.198c-1.721-2.132-2.583-5.931-2.583-11.398V37.672H312.34
		v43.624c0,8.31,2.24,14.596,6.723,18.86c4.482,4.264,11.042,6.396,19.681,6.396c8.637,0,15.196-2.132,19.68-6.396
		c4.482-4.264,6.724-10.55,6.724-18.86V37.672H349.73z M260.106,51.203v54.12h15.416v-54.12h16.072v-13.53h-47.56v13.53H260.106z
		 M190.038,85.273c-3.854-4.072-5.781-8.678-5.781-13.817c0-2.35,0.451-4.66,1.353-6.929c0.902-2.268,2.214-4.387,3.936-6.355
		c1.722-1.968,4.059-3.553,7.011-4.756c2.952-1.202,6.286-1.804,10.004-1.804c2.35,0,4.674,0.383,6.97,1.148
		c2.296,0.766,3.826,1.381,4.592,1.845c0.765,0.465,1.339,0.861,1.722,1.189l6.56-13.12l-2.296-1.558
		c-1.531-1.038-4.141-2.077-7.831-3.116c-3.69-1.038-7.722-1.558-12.095-1.558c-4.702,0-9.294,0.93-13.776,2.788
		c-4.483,1.859-8.405,4.346-11.767,7.462c-3.362,3.116-6.055,6.861-8.077,11.234c-2.023,4.374-3.034,8.938-3.034,13.694
		c0,6.287,1.722,12.136,5.166,17.548s7.981,9.663,13.612,12.751c5.63,3.089,11.589,4.633,17.876,4.633
		c2.733,0,5.384-0.219,7.954-0.656c2.569-0.438,4.646-0.929,6.232-1.476c1.585-0.546,3.075-1.189,4.469-1.927
		c1.394-0.738,2.282-1.243,2.665-1.517c0.382-0.273,0.683-0.492,0.902-0.656l-6.56-13.12l-1.558,1.066
		c-1.039,0.656-2.665,1.34-4.879,2.05c-2.214,0.711-4.497,1.066-6.847,1.066C199.399,91.382,193.892,89.347,190.038,85.273
		 M107.014,37.672v67.65h38.704v-13.53H122.43V78.181h22.304V64.65H122.43V51.203h23.288v-13.53H107.014z M44.695,37.672v67.65
		h38.704v-13.53H60.111v-54.12H44.695z"/>
	<path clip-path="url(#SVGID_2_)" fill="#231F20" d="M461.058,530.608c2.629,0,4.635-0.515,6.019-1.547
		c1.382-1.03,2.073-2.374,2.073-4.028c0-1.474-0.55-2.636-1.648-3.485c-1.1-0.85-2.896-1.49-5.39-1.921
		c-1.155-0.227-1.967-0.459-2.431-0.697c-0.465-0.238-0.697-0.527-0.697-0.867c0-0.361,0.227-0.668,0.681-0.918
		c0.452-0.249,1.088-0.374,1.903-0.374c1.042,0,1.938,0.183,2.687,0.544c0.748,0.363,1.394,0.941,1.938,1.734l2.992-2.924
		c-0.771-1.065-1.773-1.864-3.009-2.397c-1.236-0.531-2.828-0.799-4.777-0.799c-1.768,0-3.27,0.268-4.505,0.799
		c-1.236,0.533-2.159,1.23-2.771,2.091c-0.612,0.862-0.918,1.78-0.918,2.755c0,1.428,0.537,2.572,1.614,3.434
		c1.076,0.862,2.885,1.542,5.423,2.04c1.134,0.227,1.933,0.459,2.397,0.697c0.464,0.237,0.697,0.516,0.697,0.833
		c0,0.362-0.228,0.651-0.681,0.866c-0.453,0.217-1.076,0.323-1.869,0.323c-2.381,0-4.059-0.804-5.032-2.414l-2.992,3.265
		C454.394,529.611,457.158,530.608,461.058,530.608 M440.657,526.869c-0.521,0-0.929-0.124-1.224-0.374
		c-0.294-0.249-0.442-0.612-0.442-1.088c0-0.477,0.153-0.845,0.46-1.105c0.306-0.26,0.821-0.48,1.547-0.663l2.754-0.646v1.462
		c0,0.726-0.317,1.309-0.952,1.751C442.166,526.647,441.452,526.869,440.657,526.869 M450.688,526.971
		c-0.815,0-1.224-0.441-1.224-1.326v-6.188c0-2.176-0.691-3.809-2.074-4.896c-1.382-1.088-3.4-1.632-6.052-1.632
		c-2.267,0-4.068,0.459-5.406,1.377c-1.337,0.918-2.153,2.205-2.448,3.859l4.692,1.359c0.159-0.929,0.51-1.598,1.054-2.006
		s1.247-0.611,2.108-0.611c0.748,0,1.338,0.227,1.768,0.68c0.432,0.454,0.646,1.065,0.646,1.836v0.612l-3.842,0.748
		c-2.357,0.476-4.052,1.162-5.083,2.057c-1.031,0.896-1.548,2.069-1.548,3.519c0,1.384,0.454,2.438,1.36,3.162
		c0.907,0.727,2.21,1.088,3.91,1.088c3.015,0,5.032-0.872,6.052-2.617c0.477,1.745,1.938,2.617,4.386,2.617
		c0.885,0,1.655-0.182,2.312-0.544l0.441-3.229C451.47,526.926,451.119,526.971,450.688,526.971 M430.152,513.269h-5.779v17h5.779
		V513.269z M427.263,511.297c1.178,0,2.034-0.221,2.567-0.663c0.531-0.442,0.799-1.139,0.799-2.091c0-0.975-0.268-1.684-0.799-2.125
		c-0.533-0.442-1.39-0.663-2.567-0.663c-1.179,0-2.035,0.221-2.567,0.663c-0.532,0.441-0.799,1.15-0.799,2.125
		c0,0.952,0.267,1.648,0.799,2.091S426.084,511.297,427.263,511.297 M413.085,512.929c-2.812,0-5.004,0.777-6.579,2.329
		c-1.576,1.553-2.363,3.723-2.363,6.511c0,2.812,0.793,4.987,2.38,6.528c1.586,1.542,3.854,2.312,6.8,2.312
		c2.289,0,4.132-0.48,5.525-1.444c1.394-0.963,2.215-2.215,2.465-3.757l-5.202-1.666c-0.271,1.836-1.213,2.754-2.821,2.754
		c-2.244,0-3.366-1.553-3.366-4.658c0-3.196,1.122-4.794,3.366-4.794c1.518,0,2.391,0.975,2.617,2.924l5.372-1.768
		c-0.317-1.564-1.122-2.833-2.414-3.809C417.572,513.417,415.646,512.929,413.085,512.929 M395.03,512.929
		c-1.338,0-2.505,0.301-3.502,0.901c-0.998,0.601-1.768,1.502-2.312,2.703l-0.17-3.265h-5.168v17h5.779v-8.976
		c0-1.337,0.283-2.329,0.851-2.976c0.565-0.646,1.303-0.969,2.21-0.969c0.77,0,1.365,0.244,1.785,0.731
		c0.419,0.487,0.629,1.309,0.629,2.465v9.724h5.78v-11.321c0-1.927-0.533-3.411-1.599-4.454
		C398.249,513.451,396.82,512.929,395.03,512.929 M372.115,516.975c1.813,0,2.856,1.111,3.129,3.332h-6.393
		C369.191,518.086,370.279,516.975,372.115,516.975 M380.649,521.531c0-2.721-0.73-4.833-2.192-6.342
		c-1.462-1.507-3.565-2.261-6.308-2.261c-2.834,0-5.021,0.771-6.562,2.312c-1.542,1.542-2.312,3.718-2.312,6.527
		c0,2.812,0.787,4.987,2.363,6.528c1.575,1.542,3.847,2.312,6.817,2.312c1.993,0,3.677-0.379,5.049-1.139
		c1.371-0.759,2.295-1.864,2.771-3.314l-4.691-1.496c-0.183,0.611-0.539,1.076-1.071,1.394c-0.533,0.318-1.219,0.477-2.057,0.477
		c-0.998,0-1.798-0.249-2.397-0.748c-0.601-0.498-0.992-1.28-1.173-2.347h11.594C380.593,522.937,380.649,522.302,380.649,521.531
		 M354.164,513.269v9.011c0,1.314-0.284,2.295-0.851,2.94c-0.566,0.646-1.326,0.969-2.277,0.969c-0.795,0-1.384-0.226-1.769-0.68
		c-0.386-0.453-0.578-1.235-0.578-2.346v-9.895h-5.779v11.356c0,2.062,0.515,3.576,1.547,4.539c1.03,0.964,2.453,1.444,4.267,1.444
		c2.856,0,4.816-1.167,5.882-3.502l0.17,3.162h5.168v-17H354.164z M331.724,512.929c-2.811,0-5.004,0.777-6.579,2.329
		c-1.576,1.553-2.363,3.723-2.363,6.511c0,2.812,0.793,4.987,2.381,6.528c1.586,1.542,3.853,2.312,6.8,2.312
		c2.289,0,4.131-0.48,5.524-1.444c1.395-0.963,2.216-2.215,2.466-3.757l-5.202-1.666c-0.272,1.836-1.213,2.754-2.822,2.754
		c-2.244,0-3.366-1.553-3.366-4.658c0-3.196,1.122-4.794,3.366-4.794c1.518,0,2.391,0.975,2.618,2.924l5.372-1.768
		c-0.318-1.564-1.122-2.833-2.414-3.809C336.212,513.417,334.285,512.929,331.724,512.929 M311.834,516.975
		c1.812,0,2.855,1.111,3.128,3.332h-6.393C308.91,518.086,309.998,516.975,311.834,516.975 M320.367,521.531
		c0-2.721-0.73-4.833-2.192-6.342c-1.462-1.507-3.564-2.261-6.308-2.261c-2.832,0-5.021,0.771-6.562,2.312
		c-1.541,1.542-2.312,3.718-2.312,6.527c0,2.812,0.787,4.987,2.362,6.528c1.575,1.542,3.849,2.312,6.817,2.312
		c1.995,0,3.678-0.379,5.049-1.139c1.371-0.759,2.295-1.864,2.771-3.314l-4.692-1.496c-0.181,0.611-0.538,1.076-1.071,1.394
		c-0.533,0.318-1.218,0.477-2.057,0.477c-0.997,0-1.796-0.249-2.397-0.748c-0.601-0.498-0.991-1.28-1.173-2.347h11.594
		C320.311,522.937,320.367,522.302,320.367,521.531 M292.828,530.608c2.629,0,4.635-0.515,6.018-1.547
		c1.383-1.03,2.074-2.374,2.074-4.028c0-1.474-0.55-2.636-1.649-3.485c-1.099-0.85-2.896-1.49-5.389-1.921
		c-1.156-0.227-1.966-0.459-2.431-0.697c-0.466-0.238-0.697-0.527-0.697-0.867c0-0.361,0.227-0.668,0.68-0.918
		c0.453-0.249,1.088-0.374,1.904-0.374c1.043,0,1.938,0.183,2.686,0.544c0.748,0.363,1.395,0.941,1.938,1.734l2.992-2.924
		c-0.771-1.065-1.774-1.864-3.01-2.397c-1.234-0.531-2.827-0.799-4.776-0.799c-1.769,0-3.271,0.268-4.505,0.799
		c-1.235,0.533-2.159,1.23-2.771,2.091c-0.612,0.862-0.918,1.78-0.918,2.755c0,1.428,0.538,2.572,1.615,3.434
		c1.077,0.862,2.884,1.542,5.423,2.04c1.133,0.227,1.932,0.459,2.396,0.697c0.466,0.237,0.697,0.516,0.697,0.833
		c0,0.362-0.227,0.651-0.68,0.866c-0.453,0.217-1.077,0.323-1.87,0.323c-2.38,0-4.057-0.804-5.032-2.414l-2.992,3.265
		C286.164,529.611,288.929,530.608,292.828,530.608 M264.983,530.608c2.629,0,4.635-0.515,6.018-1.547
		c1.382-1.03,2.074-2.374,2.074-4.028c0-1.474-0.55-2.636-1.649-3.485c-1.1-0.85-2.896-1.49-5.389-1.921
		c-1.156-0.227-1.967-0.459-2.431-0.697c-0.465-0.238-0.697-0.527-0.697-0.867c0-0.361,0.226-0.668,0.68-0.918
		c0.453-0.249,1.088-0.374,1.904-0.374c1.042,0,1.938,0.183,2.686,0.544c0.748,0.363,1.394,0.941,1.938,1.734l2.992-2.924
		c-0.771-1.065-1.774-1.864-3.009-2.397c-1.236-0.531-2.828-0.799-4.777-0.799c-1.768,0-3.27,0.268-4.505,0.799
		c-1.236,0.533-2.159,1.23-2.771,2.091c-0.612,0.862-0.918,1.78-0.918,2.755c0,1.428,0.538,2.572,1.615,3.434
		c1.076,0.862,2.884,1.542,5.423,2.04c1.133,0.227,1.932,0.459,2.397,0.697c0.464,0.237,0.697,0.516,0.697,0.833
		c0,0.362-0.227,0.651-0.68,0.866c-0.454,0.217-1.077,0.323-1.87,0.323c-2.38,0-4.058-0.804-5.032-2.414l-2.992,3.265
		C258.319,529.611,261.083,530.608,264.983,530.608 M246.181,516.975c1.813,0,2.856,1.111,3.128,3.332h-6.392
		C243.257,518.086,244.345,516.975,246.181,516.975 M254.715,521.531c0-2.721-0.731-4.833-2.193-6.342
		c-1.462-1.507-3.564-2.261-6.307-2.261c-2.833,0-5.021,0.771-6.562,2.312c-1.541,1.542-2.312,3.718-2.312,6.527
		c0,2.812,0.788,4.987,2.363,6.528c1.575,1.542,3.848,2.312,6.817,2.312c1.995,0,3.678-0.379,5.049-1.139
		c1.371-0.759,2.295-1.864,2.771-3.314l-4.692-1.496c-0.181,0.611-0.538,1.076-1.071,1.394c-0.533,0.318-1.218,0.477-2.057,0.477
		c-0.997,0-1.796-0.249-2.397-0.748c-0.601-0.498-0.992-1.28-1.173-2.347h11.594C254.658,522.937,254.715,522.302,254.715,521.531
		 M235.131,525.747c-0.702,0.499-1.518,0.748-2.448,0.748c-1.496,0-2.244-0.76-2.244-2.278v-6.834h5.1v-4.114h-5.1v-5.405
		l-5.78,1.598v3.808h-2.924v4.114h2.924v7.786c0.023,1.904,0.567,3.287,1.632,4.147c1.066,0.862,2.607,1.292,4.624,1.292
		c0.884,0,1.763-0.118,2.635-0.356c0.873-0.238,1.593-0.549,2.159-0.936L235.131,525.747z M213.541,512.929
		c-1.337,0-2.505,0.301-3.502,0.901s-1.768,1.502-2.312,2.703l-0.17-3.265h-5.168v17h5.78v-8.976c0-1.337,0.283-2.329,0.85-2.976
		c0.567-0.646,1.303-0.969,2.21-0.969c0.771,0,1.366,0.244,1.785,0.731s0.629,1.309,0.629,2.465v9.724h5.78v-11.321
		c0-1.927-0.533-3.411-1.598-4.454C216.76,513.451,215.332,512.929,213.541,512.929 M190.625,516.975
		c1.813,0,2.856,1.111,3.128,3.332h-6.392C187.702,518.086,188.79,516.975,190.625,516.975 M199.16,521.531
		c0-2.721-0.731-4.833-2.193-6.342c-1.462-1.507-3.565-2.261-6.307-2.261c-2.834,0-5.021,0.771-6.562,2.312
		c-1.542,1.542-2.312,3.718-2.312,6.527c0,2.812,0.787,4.987,2.363,6.528c1.575,1.542,3.847,2.312,6.817,2.312
		c1.994,0,3.677-0.379,5.049-1.139c1.371-0.759,2.295-1.864,2.771-3.314l-4.692-1.496c-0.182,0.611-0.539,1.076-1.071,1.394
		c-0.533,0.318-1.219,0.477-2.057,0.477c-0.998,0-1.797-0.249-2.397-0.748c-0.601-0.498-0.992-1.28-1.173-2.347h11.594
		C199.103,522.937,199.16,522.302,199.16,521.531 M178.692,512.929c-1.292,0-2.375,0.346-3.247,1.037
		c-0.873,0.692-1.513,1.683-1.921,2.975l-0.238-3.672h-5.1v17h5.78v-8.567c0-1.292,0.362-2.283,1.088-2.976
		c0.725-0.69,1.632-1.037,2.72-1.037c0.43,0,0.838,0.052,1.224,0.153c0.385,0.102,0.691,0.221,0.918,0.357l0.612-4.896
		C180.074,513.054,179.462,512.929,178.692,512.929 M156.422,516.975c1.814,0,2.856,1.111,3.128,3.332h-6.392
		C153.498,518.086,154.586,516.975,156.422,516.975 M164.956,521.531c0-2.721-0.731-4.833-2.193-6.342
		c-1.462-1.507-3.564-2.261-6.307-2.261c-2.833,0-5.02,0.771-6.562,2.312c-1.541,1.542-2.312,3.718-2.312,6.527
		c0,2.812,0.788,4.987,2.363,6.528c1.576,1.542,3.848,2.312,6.817,2.312c1.995,0,3.678-0.379,5.049-1.139
		c1.372-0.759,2.295-1.864,2.771-3.314l-4.692-1.496c-0.181,0.611-0.538,1.076-1.071,1.394c-0.532,0.318-1.218,0.477-2.057,0.477
		c-0.997,0-1.796-0.249-2.397-0.748c-0.6-0.498-0.991-1.28-1.173-2.347h11.594C164.9,522.937,164.956,522.302,164.956,521.531
		 M141.088,512.079c0-1.632,0.941-2.448,2.822-2.448c0.794,0,1.44,0.182,1.938,0.544l0.578-3.604
		c-0.838-0.657-2.142-0.986-3.91-0.986c-2.04,0-3.694,0.51-4.964,1.53c-1.269,1.02-1.904,2.55-1.904,4.59v1.563h-2.72v4.114h2.72
		v12.886h5.78v-12.886h4.828v-4.114h-5.168V512.079z M130.379,513.269h-5.78v17h5.78V513.269z M127.489,511.297
		c1.178,0,2.034-0.221,2.567-0.663c0.532-0.442,0.799-1.139,0.799-2.091c0-0.975-0.267-1.684-0.799-2.125
		c-0.533-0.442-1.389-0.663-2.567-0.663c-1.179,0-2.035,0.221-2.567,0.663c-0.533,0.441-0.799,1.15-0.799,2.125
		c0,0.952,0.266,1.648,0.799,2.091C125.454,511.076,126.31,511.297,127.489,511.297 M111.542,526.358
		c-1.02,0-1.808-0.374-2.363-1.122c-0.555-0.747-0.833-1.903-0.833-3.468c0-1.563,0.278-2.72,0.833-3.468s1.343-1.122,2.363-1.122
		c0.929,0,1.672,0.34,2.227,1.021c0.555,0.68,0.867,1.644,0.935,2.89v1.36c-0.068,1.27-0.38,2.238-0.935,2.906
		C113.215,526.024,112.472,526.358,111.542,526.358 M114.705,506.061v10.064c-0.499-0.997-1.179-1.779-2.04-2.346
		c-0.861-0.566-1.893-0.851-3.094-0.851c-2.199,0-3.921,0.782-5.168,2.346c-1.247,1.564-1.87,3.752-1.87,6.562
		c0,2.766,0.618,4.919,1.853,6.46c1.235,1.542,2.952,2.312,5.151,2.312c1.269,0,2.386-0.317,3.349-0.951
		c0.963-0.635,1.694-1.508,2.193-2.618l0.204,3.229h5.202v-24.208H114.705z M83.596,512.929c-1.338,0-2.505,0.301-3.502,0.901
		c-0.998,0.601-1.768,1.502-2.312,2.703l-0.17-3.265h-5.168v17h5.78v-8.976c0-1.337,0.283-2.329,0.85-2.976
		c0.566-0.646,1.303-0.969,2.21-0.969c0.77,0,1.365,0.244,1.785,0.731c0.419,0.487,0.629,1.309,0.629,2.465v9.724h5.78v-11.321
		c0-1.927-0.533-3.411-1.598-4.454C86.813,513.451,85.386,512.929,83.596,512.929 M60.136,517.043c1.088,0,1.892,0.374,2.414,1.122
		c0.521,0.748,0.782,1.95,0.782,3.604c0,1.655-0.261,2.856-0.782,3.604c-0.522,0.748-1.326,1.122-2.414,1.122
		s-1.893-0.374-2.414-1.122c-0.522-0.748-0.782-1.949-0.782-3.604c0-1.653,0.26-2.855,0.782-3.604
		C58.243,517.417,59.048,517.043,60.136,517.043 M60.136,512.929c-2.834,0-5.038,0.777-6.613,2.329
		c-1.576,1.553-2.363,3.723-2.363,6.511s0.787,4.959,2.363,6.512c1.575,1.553,3.779,2.328,6.613,2.328
		c2.833,0,5.037-0.775,6.613-2.328c1.575-1.553,2.363-3.724,2.363-6.512s-0.788-4.958-2.363-6.511
		C65.173,513.706,62.969,512.929,60.136,512.929 M40.688,512.929c-2.811,0-5.004,0.777-6.579,2.329
		c-1.576,1.553-2.363,3.723-2.363,6.511c0,2.812,0.793,4.987,2.38,6.528c1.586,1.542,3.853,2.312,6.8,2.312
		c2.289,0,4.131-0.48,5.525-1.444c1.394-0.963,2.215-2.215,2.465-3.757l-5.202-1.666c-0.272,1.836-1.213,2.754-2.822,2.754
		c-2.244,0-3.366-1.553-3.366-4.658c0-3.196,1.122-4.794,3.366-4.794c1.518,0,2.391,0.975,2.618,2.924l5.372-1.768
		c-0.318-1.564-1.122-2.833-2.414-3.809C45.176,513.417,43.249,512.929,40.688,512.929"/>
	<path clip-path="url(#SVGID_2_)" fill="#231F20" d="M522.803,466.37c1.088,0,1.892,0.374,2.414,1.122
		c0.521,0.748,0.782,1.95,0.782,3.604c0,1.655-0.262,2.856-0.782,3.604c-0.522,0.748-1.326,1.122-2.414,1.122
		s-1.893-0.374-2.414-1.122s-0.782-1.949-0.782-3.604c0-1.654,0.261-2.856,0.782-3.604S521.715,466.37,522.803,466.37
		 M522.803,462.256c-2.834,0-5.038,0.777-6.613,2.329c-1.576,1.553-2.363,3.723-2.363,6.511s0.787,4.959,2.363,6.511
		c1.575,1.553,3.779,2.329,6.613,2.329c2.833,0,5.037-0.776,6.613-2.329c1.574-1.552,2.362-3.723,2.362-6.511
		s-0.788-4.958-2.362-6.511C527.84,463.033,525.636,462.256,522.803,462.256 M501.587,475.686c-1.021,0-1.809-0.374-2.363-1.122
		c-0.556-0.748-0.833-1.904-0.833-3.468s0.277-2.72,0.833-3.468c0.555-0.748,1.343-1.122,2.363-1.122c0.929,0,1.671,0.34,2.227,1.02
		c0.556,0.68,0.867,1.644,0.936,2.89v1.36c-0.068,1.271-0.38,2.239-0.936,2.907C503.258,475.352,502.516,475.686,501.587,475.686
		 M504.749,455.388v10.064c-0.499-0.997-1.18-1.779-2.04-2.346c-0.862-0.566-1.894-0.85-3.095-0.85
		c-2.198,0-3.922,0.782-5.168,2.346c-1.247,1.564-1.869,3.752-1.869,6.562c0,2.766,0.616,4.919,1.853,6.46
		c1.235,1.542,2.952,2.312,5.151,2.312c1.269,0,2.385-0.318,3.349-0.952c0.963-0.634,1.694-1.507,2.193-2.618l0.204,3.23h5.201
		v-24.208H504.749z M489.381,462.256c-1.292,0-2.374,0.346-3.247,1.037c-0.873,0.692-1.513,1.683-1.921,2.975l-0.238-3.672h-5.1v17
		h5.779v-8.568c0-1.292,0.363-2.283,1.088-2.975c0.726-0.691,1.633-1.037,2.721-1.037c0.431,0,0.839,0.051,1.224,0.153
		s0.691,0.221,0.918,0.357l0.612-4.896C490.764,462.381,490.151,462.256,489.381,462.256 M467.111,466.302
		c1.813,0,2.856,1.111,3.128,3.332h-6.392C464.188,467.413,465.275,466.302,467.111,466.302 M475.646,470.857
		c0-2.72-0.73-4.833-2.192-6.341c-1.463-1.507-3.565-2.261-6.308-2.261c-2.834,0-5.021,0.771-6.562,2.312
		c-1.542,1.542-2.312,3.718-2.312,6.528c0,2.811,0.787,4.987,2.363,6.528c1.575,1.542,3.847,2.312,6.817,2.312
		c1.993,0,3.677-0.379,5.049-1.139c1.371-0.759,2.295-1.864,2.771-3.315l-4.691-1.496c-0.183,0.612-0.539,1.077-1.071,1.394
		c-0.533,0.318-1.219,0.476-2.057,0.476c-0.998,0-1.798-0.249-2.397-0.748c-0.601-0.498-0.992-1.28-1.173-2.346h11.594
		C475.589,472.264,475.646,471.629,475.646,470.857 M449.16,462.596v9.01c0,1.315-0.284,2.295-0.851,2.941
		c-0.567,0.646-1.326,0.969-2.278,0.969c-0.794,0-1.383-0.226-1.768-0.68c-0.386-0.453-0.578-1.235-0.578-2.346v-9.894h-5.78v11.356
		c0,2.063,0.516,3.576,1.548,4.539c1.03,0.964,2.452,1.445,4.267,1.445c2.856,0,4.816-1.167,5.882-3.502l0.17,3.162h5.168v-17
		H449.16z M426.72,462.256c-2.812,0-5.004,0.777-6.579,2.329c-1.576,1.553-2.363,3.723-2.363,6.511c0,2.811,0.793,4.987,2.38,6.528
		c1.587,1.542,3.854,2.312,6.801,2.312c2.289,0,4.131-0.481,5.524-1.445c1.395-0.963,2.215-2.215,2.465-3.757l-5.201-1.666
		c-0.272,1.836-1.214,2.754-2.822,2.754c-2.244,0-3.366-1.552-3.366-4.658c0-3.196,1.122-4.794,3.366-4.794
		c1.518,0,2.391,0.975,2.618,2.924l5.372-1.768c-0.318-1.564-1.122-2.833-2.414-3.808
		C431.208,462.744,429.28,462.256,426.72,462.256 M405.367,476.196c-0.521,0-0.93-0.124-1.224-0.374
		c-0.295-0.249-0.441-0.612-0.441-1.088c0-0.476,0.152-0.844,0.459-1.104c0.306-0.26,0.82-0.481,1.547-0.663l2.754-0.646v1.462
		c0,0.726-0.318,1.309-0.952,1.751C406.875,475.975,406.161,476.196,405.367,476.196 M415.397,476.298
		c-0.815,0-1.224-0.442-1.224-1.326v-6.188c0-2.176-0.692-3.808-2.074-4.896c-1.383-1.088-3.4-1.632-6.052-1.632
		c-2.268,0-4.069,0.459-5.406,1.377c-1.338,0.918-2.154,2.205-2.448,3.859l4.692,1.36c0.158-0.929,0.51-1.598,1.054-2.006
		s1.246-0.612,2.108-0.612c0.748,0,1.337,0.227,1.768,0.68c0.431,0.454,0.646,1.066,0.646,1.836v0.612l-3.842,0.748
		c-2.358,0.476-4.053,1.162-5.083,2.057c-1.032,0.896-1.548,2.069-1.548,3.519c0,1.383,0.453,2.437,1.36,3.162
		c0.906,0.726,2.21,1.088,3.91,1.088c3.014,0,5.032-0.872,6.052-2.618c0.477,1.746,1.938,2.618,4.386,2.618
		c0.885,0,1.654-0.182,2.312-0.544l0.442-3.23C416.18,476.252,415.828,476.298,415.397,476.298 M377.488,466.302
		c1.813,0,2.856,1.111,3.129,3.332h-6.393C374.564,467.413,375.652,466.302,377.488,466.302 M386.022,470.857
		c0-2.72-0.73-4.833-2.192-6.341c-1.463-1.507-3.565-2.261-6.308-2.261c-2.834,0-5.021,0.771-6.562,2.312
		c-1.542,1.542-2.312,3.718-2.312,6.528c0,2.811,0.787,4.987,2.363,6.528c1.575,1.542,3.847,2.312,6.817,2.312
		c1.993,0,3.677-0.379,5.049-1.139c1.371-0.759,2.295-1.864,2.771-3.315l-4.691-1.496c-0.183,0.612-0.539,1.077-1.071,1.394
		c-0.533,0.318-1.219,0.476-2.057,0.476c-0.998,0-1.798-0.249-2.397-0.748c-0.601-0.498-0.992-1.28-1.173-2.346h11.594
		C385.966,472.264,386.022,471.629,386.022,470.857 M356.408,475.686c-1.02,0-1.808-0.374-2.362-1.122
		c-0.557-0.748-0.833-1.904-0.833-3.468s0.276-2.72,0.833-3.468c0.555-0.748,1.343-1.122,2.362-1.122c0.93,0,1.672,0.34,2.228,1.02
		c0.555,0.68,0.867,1.644,0.935,2.89v1.36c-0.067,1.271-0.38,2.239-0.935,2.907C358.08,475.352,357.338,475.686,356.408,475.686
		 M359.57,455.388v10.064c-0.499-0.997-1.179-1.779-2.04-2.346c-0.861-0.566-1.893-0.85-3.094-0.85
		c-2.199,0-3.922,0.782-5.168,2.346c-1.247,1.564-1.87,3.752-1.87,6.562c0,2.766,0.617,4.919,1.854,6.46
		c1.234,1.542,2.952,2.312,5.15,2.312c1.27,0,2.386-0.318,3.35-0.952c0.963-0.634,1.693-1.507,2.192-2.618l0.204,3.23h5.202v-24.208
		H359.57z M325.333,476.196c-0.522,0-0.931-0.124-1.225-0.374c-0.295-0.249-0.441-0.612-0.441-1.088
		c0-0.476,0.152-0.844,0.459-1.104c0.306-0.26,0.82-0.481,1.547-0.663l2.754-0.646v1.462c0,0.726-0.318,1.309-0.952,1.751
		C326.84,475.975,326.126,476.196,325.333,476.196 M335.362,476.298c-0.815,0-1.224-0.442-1.224-1.326v-6.188
		c0-2.176-0.692-3.808-2.074-4.896c-1.383-1.088-3.399-1.632-6.052-1.632c-2.267,0-4.069,0.459-5.406,1.377
		c-1.338,0.918-2.153,2.205-2.448,3.859l4.692,1.36c0.158-0.929,0.51-1.598,1.054-2.006s1.246-0.612,2.108-0.612
		c0.748,0,1.337,0.227,1.768,0.68c0.431,0.454,0.646,1.066,0.646,1.836v0.612l-3.842,0.748c-2.358,0.476-4.053,1.162-5.083,2.057
		c-1.032,0.896-1.547,2.069-1.547,3.519c0,1.383,0.452,2.437,1.359,3.162c0.906,0.726,2.21,1.088,3.91,1.088
		c3.014,0,5.032-0.872,6.052-2.618c0.477,1.746,1.938,2.618,4.387,2.618c0.884,0,1.653-0.182,2.312-0.544l0.442-3.23
		C336.145,476.252,335.793,476.298,335.362,476.298 M315.03,462.256c-1.292,0-2.374,0.346-3.247,1.037
		c-0.872,0.692-1.513,1.683-1.921,2.975l-0.237-3.672h-5.101v17h5.78v-8.568c0-1.292,0.362-2.283,1.088-2.975
		c0.725-0.691,1.632-1.037,2.72-1.037c0.431,0,0.839,0.051,1.225,0.153c0.385,0.102,0.69,0.221,0.918,0.357l0.612-4.896
		C316.413,462.381,315.801,462.256,315.03,462.256 M292.081,475.686c-0.975,0-1.739-0.374-2.295-1.122s-0.833-1.847-0.833-3.298
		v-0.34c0-1.405,0.271-2.493,0.815-3.264c0.544-0.77,1.315-1.156,2.312-1.156c1.02,0,1.808,0.374,2.362,1.122
		c0.557,0.748,0.833,1.904,0.833,3.468s-0.276,2.72-0.833,3.468C293.889,475.312,293.101,475.686,292.081,475.686 M294.087,462.256
		c-1.201,0-2.238,0.284-3.111,0.85c-0.872,0.567-1.547,1.349-2.022,2.346v-10.064h-5.78v24.208h5.065l0.17-3.604
		c0.477,1.202,1.207,2.159,2.193,2.873c0.986,0.714,2.148,1.071,3.485,1.071c2.222,0,3.944-0.77,5.168-2.312
		c1.224-1.541,1.836-3.694,1.836-6.46c0-2.81-0.623-4.998-1.869-6.562C297.975,463.038,296.263,462.256,294.087,462.256
		 M270.866,466.37c1.088,0,1.892,0.374,2.414,1.122c0.521,0.748,0.782,1.95,0.782,3.604c0,1.655-0.261,2.856-0.782,3.604
		c-0.522,0.748-1.326,1.122-2.414,1.122s-1.893-0.374-2.414-1.122c-0.522-0.748-0.782-1.949-0.782-3.604
		c0-1.654,0.26-2.856,0.782-3.604C268.973,466.744,269.778,466.37,270.866,466.37 M270.866,462.256
		c-2.834,0-5.038,0.777-6.613,2.329c-1.576,1.553-2.363,3.723-2.363,6.511s0.787,4.959,2.363,6.511
		c1.575,1.553,3.779,2.329,6.613,2.329c2.833,0,5.037-0.776,6.613-2.329c1.575-1.552,2.363-3.723,2.363-6.511
		s-0.788-4.958-2.363-6.511C275.903,463.033,273.699,462.256,270.866,462.256 M239.926,476.196c-0.522,0-0.93-0.124-1.224-0.374
		c-0.295-0.249-0.442-0.612-0.442-1.088c0-0.476,0.153-0.844,0.459-1.104c0.306-0.26,0.821-0.481,1.547-0.663l2.754-0.646v1.462
		c0,0.726-0.318,1.309-0.952,1.751C241.433,475.975,240.719,476.196,239.926,476.196 M249.956,476.298
		c-0.816,0-1.224-0.442-1.224-1.326v-6.188c0-2.176-0.692-3.808-2.074-4.896c-1.383-1.088-3.4-1.632-6.052-1.632
		c-2.267,0-4.069,0.459-5.406,1.377c-1.338,0.918-2.154,2.205-2.448,3.859l4.692,1.36c0.158-0.929,0.51-1.598,1.054-2.006
		s1.246-0.612,2.108-0.612c0.748,0,1.337,0.227,1.768,0.68c0.43,0.454,0.646,1.066,0.646,1.836v0.612l-3.842,0.748
		c-2.358,0.476-4.052,1.162-5.083,2.057c-1.032,0.896-1.547,2.069-1.547,3.519c0,1.383,0.453,2.437,1.36,3.162
		c0.906,0.726,2.21,1.088,3.91,1.088c3.014,0,5.032-0.872,6.052-2.618c0.476,1.746,1.938,2.618,4.386,2.618
		c0.884,0,1.654-0.182,2.312-0.544l0.442-3.23C250.738,476.252,250.386,476.298,249.956,476.298 M228.06,455.388h-5.78v19.176
		c0,1.882,0.408,3.247,1.224,4.097c0.816,0.85,2.13,1.275,3.944,1.275c0.634,0,1.28-0.08,1.938-0.238
		c0.657-0.158,1.19-0.362,1.598-0.612l0.374-3.57c-0.612,0.204-1.19,0.306-1.734,0.306c-0.59,0-0.998-0.158-1.224-0.476
		c-0.227-0.317-0.34-0.861-0.34-1.632V455.388z M200.861,466.302c1.813,0,2.856,1.111,3.128,3.332h-6.392
		C197.937,467.413,199.025,466.302,200.861,466.302 M209.395,470.857c0-2.72-0.731-4.833-2.193-6.341
		c-1.462-1.507-3.565-2.261-6.307-2.261c-2.834,0-5.021,0.771-6.562,2.312c-1.542,1.542-2.312,3.718-2.312,6.528
		c0,2.811,0.787,4.987,2.363,6.528c1.575,1.542,3.847,2.312,6.817,2.312c1.994,0,3.677-0.379,5.049-1.139
		c1.371-0.759,2.295-1.864,2.771-3.315l-4.692-1.496c-0.182,0.612-0.539,1.077-1.071,1.394c-0.533,0.318-1.219,0.476-2.057,0.476
		c-0.998,0-1.797-0.249-2.397-0.748c-0.601-0.498-0.992-1.28-1.173-2.346h11.594C209.338,472.264,209.395,471.629,209.395,470.857
		 M179.781,475.686c-1.02,0-1.808-0.374-2.363-1.122c-0.556-0.748-0.833-1.904-0.833-3.468s0.277-2.72,0.833-3.468
		c0.555-0.748,1.343-1.122,2.363-1.122c0.929,0,1.671,0.34,2.227,1.02c0.555,0.68,0.867,1.644,0.935,2.89v1.36
		c-0.068,1.271-0.38,2.239-0.935,2.907C181.452,475.352,180.709,475.686,179.781,475.686 M182.943,455.388v10.064
		c-0.499-0.997-1.179-1.779-2.04-2.346c-0.862-0.566-1.893-0.85-3.094-0.85c-2.199,0-3.922,0.782-5.168,2.346
		c-1.247,1.564-1.87,3.752-1.87,6.562c0,2.766,0.617,4.919,1.853,6.46c1.235,1.542,2.952,2.312,5.151,2.312
		c1.269,0,2.385-0.318,3.349-0.952c0.963-0.634,1.694-1.507,2.193-2.618l0.204,3.23h5.202v-24.208H182.943z M148.705,476.196
		c-0.522,0-0.93-0.124-1.224-0.374c-0.295-0.249-0.442-0.612-0.442-1.088c0-0.476,0.153-0.844,0.459-1.104
		c0.306-0.26,0.821-0.481,1.547-0.663l2.754-0.646v1.462c0,0.726-0.318,1.309-0.952,1.751
		C150.212,475.975,149.498,476.196,148.705,476.196 M158.735,476.298c-0.816,0-1.224-0.442-1.224-1.326v-6.188
		c0-2.176-0.692-3.808-2.074-4.896c-1.383-1.088-3.4-1.632-6.052-1.632c-2.267,0-4.069,0.459-5.406,1.377
		c-1.338,0.918-2.154,2.205-2.448,3.859l4.692,1.36c0.158-0.929,0.51-1.598,1.054-2.006s1.246-0.612,2.108-0.612
		c0.748,0,1.337,0.227,1.768,0.68c0.43,0.454,0.646,1.066,0.646,1.836v0.612l-3.842,0.748c-2.358,0.476-4.052,1.162-5.083,2.057
		c-1.032,0.896-1.547,2.069-1.547,3.519c0,1.383,0.453,2.437,1.36,3.162c0.906,0.726,2.21,1.088,3.91,1.088
		c3.014,0,5.032-0.872,6.052-2.618c0.476,1.746,1.938,2.618,4.386,2.618c0.884,0,1.654-0.182,2.312-0.544l0.442-3.23
		C159.517,476.252,159.165,476.298,158.735,476.298 M138.403,462.256c-1.292,0-2.375,0.346-3.247,1.037
		c-0.873,0.692-1.513,1.683-1.921,2.975l-0.238-3.672h-5.1v17h5.78v-8.568c0-1.292,0.362-2.283,1.088-2.975
		c0.725-0.691,1.632-1.037,2.72-1.037c0.43,0,0.838,0.051,1.224,0.153c0.385,0.102,0.691,0.221,0.918,0.357l0.612-4.896
		C139.785,462.381,139.173,462.256,138.403,462.256 M117.969,462.596v9.01c0,1.315-0.284,2.295-0.85,2.941
		c-0.567,0.646-1.326,0.969-2.278,0.969c-0.794,0-1.383-0.226-1.768-0.68c-0.386-0.453-0.578-1.235-0.578-2.346v-9.894h-5.78v11.356
		c0,2.063,0.515,3.576,1.547,4.539c1.031,0.964,2.453,1.445,4.267,1.445c2.856,0,4.816-1.167,5.882-3.502l0.17,3.162h5.168v-17
		H117.969z M103.791,475.074c-0.703,0.499-1.519,0.748-2.448,0.748c-1.496,0-2.244-0.759-2.244-2.278v-6.834h5.1v-4.114h-5.1v-5.406
		l-5.78,1.598v3.808h-2.924v4.114h2.924v7.786c0.023,1.904,0.567,3.287,1.632,4.148c1.065,0.862,2.607,1.292,4.624,1.292
		c0.884,0,1.762-0.119,2.635-0.357c0.873-0.238,1.592-0.549,2.159-0.935L103.791,475.074z M80.739,462.256
		c-2.811,0-5.004,0.777-6.579,2.329c-1.575,1.553-2.363,3.723-2.363,6.511c0,2.811,0.793,4.987,2.38,6.528
		c1.587,1.542,3.853,2.312,6.8,2.312c2.289,0,4.131-0.481,5.525-1.445c1.394-0.963,2.216-2.215,2.465-3.757l-5.202-1.666
		c-0.272,1.836-1.213,2.754-2.822,2.754c-2.244,0-3.366-1.552-3.366-4.658c0-3.196,1.122-4.794,3.366-4.794
		c1.519,0,2.391,0.975,2.618,2.924l5.372-1.768c-0.317-1.564-1.122-2.833-2.414-3.808C85.227,462.744,83.3,462.256,80.739,462.256
		 M60.85,466.302c1.813,0,2.856,1.111,3.128,3.332h-6.392C57.926,467.413,59.014,466.302,60.85,466.302 M69.384,470.857
		c0-2.72-0.731-4.833-2.193-6.341c-1.462-1.507-3.565-2.261-6.307-2.261c-2.834,0-5.021,0.771-6.562,2.312
		c-1.542,1.542-2.312,3.718-2.312,6.528c0,2.811,0.787,4.987,2.363,6.528c1.575,1.542,3.847,2.312,6.817,2.312
		c1.994,0,3.677-0.379,5.049-1.139c1.371-0.759,2.295-1.864,2.771-3.315l-4.692-1.496c-0.182,0.612-0.539,1.077-1.071,1.394
		c-0.533,0.318-1.219,0.476-2.057,0.476c-0.998,0-1.797-0.249-2.397-0.748c-0.601-0.498-0.992-1.28-1.173-2.346h11.594
		C69.327,472.264,69.384,471.629,69.384,470.857 M38.818,475.074v-17.918H32.97v22.44h17.102v-4.522H38.818z"/>
	<path clip-path="url(#SVGID_2_)" fill="#231F20" d="M214.772,377.567c3.881,3.881,8.569,5.826,14.066,5.826
		c5.493,0,10.182-1.945,14.067-5.826c3.88-3.881,5.825-8.569,5.825-14.066c0-5.493-1.945-10.182-5.825-14.067
		c-3.885-3.88-8.574-5.825-14.067-5.825c-5.497,0-10.185,1.945-14.066,5.825c-3.885,3.885-5.826,8.574-5.826,14.067
		C208.946,368.999,210.887,373.687,214.772,377.567 M50.664,357.25v22.165h136.402V357.25H130.8V180.495H84.48l-37.226,83.546v1.705
		H70.84l32.68-74.736h3.41V357.25H50.664z"/>
</g>
<line fill="none" stroke="#231F20" stroke-width="2" x1="24.794" y1="139.264" x2="537.794" y2="139.264"/>
<line fill="none" stroke="#231F20" stroke-width="2" x1="24.794" y1="430.416" x2="537.794" y2="430.416"/>
<line fill="none" stroke="#231F20" stroke-width="2" x1="24.794" y1="559.01" x2="537.794" y2="559.01"/>
<line fill="none" stroke="#231F20" stroke-width="2" x1="281.293" y1="160.263" x2="281.293" y2="409.414"/>
<g>
	<defs>
		<rect id="SVGID_3_" width="564" height="1002"/>
	</defs>
	<clipPath id="SVGID_4_">
		<use xlink:href="#SVGID_3_"  overflow="visible"/>
	</clipPath>
	<polygon clip-path="url(#SVGID_4_)" fill="none" stroke="#231F20" stroke-width="1.998" points="0.999,3 0.999,999 0.999,1001.002 
		3,1001.002 561,1001.002 563.001,1001.002 563.001,999 563.001,3 563.001,0.998 561,0.998 3,0.998 0.999,0.998 	"/>
</g>
<rect x="5.001" y="5.002" fill="none" stroke="#231F20" stroke-width="1.998" width="553.998" height="991.996"/>
<path fill="#FF1419" d="M307.486,282.717v15.95l107.532-3.345l-46.306,69.973l0.258,0.257l151.265-74.603v-0.514l-151.265-74.089
	l-0.515,0.257l46.562,69.973L307.486,282.717z M431.226,290.949h67.915l-103.93,51.193L431.226,290.949z"/>
<polygon fill="#231F20" points="82.615,966.522 477.518,966.522 477.518,826.124 459.639,826.124 393.646,945.751 310.039,945.751 
	310.039,614.476 355.786,614.476 355.786,593.967 82.615,593.967 82.615,614.476 128.625,614.476 128.625,945.751 82.615,945.751 
	"/>
</svg>
