<?xml version="1.0" encoding="utf-8"?>
<!-- Generator: Adobe Illustrator 16.0.0, SVG Export Plug-In . SVG Version: 6.00 Build 0)  -->
<!DOCTYPE svg PUBLIC "-//W3C//DTD SVG 1.1//EN" "http://www.w3.org/Graphics/SVG/1.1/DTD/svg11.dtd">
<svg version="1.1" id="Layer_1" xmlns="http://www.w3.org/2000/svg" xmlns:xlink="http://www.w3.org/1999/xlink" x="0px" y="0px"
	 width="564px" height="1002px" viewBox="0 0 564 1002" enable-background="new 0 0 564 1002" xml:space="preserve">
<g>
	<defs>
		<rect id="SVGID_107_" width="564" height="1002"/>
	</defs>
	<clipPath id="SVGID_2_">
		<use xlink:href="#SVGID_107_"  overflow="visible"/>
	</clipPath>
	<path clip-path="url(#SVGID_2_)" fill="#231F20" d="M394.469,271.32c22.11,0,36.181-4.021,44.221-15.41
		c8.04-10.721,10.05-28.811,10.05-56.28s-2.01-46.899-10.05-58.96s-22.11-17.42-44.221-17.42V271.32z M322.109,49.55h72.359
		c31.49,0,62.98,8.04,87.1,30.82c24.121,22.78,40.201,60.3,40.201,116.58s-16.08,93.13-40.201,115.909
		c-24.119,22.781-55.609,32.16-87.1,32.16V542h-72.359V49.55z"/>
</g>
<line fill="none" stroke="#0046F9" stroke-width="2" x1="281.625" y1="26" x2="281.625" y2="561"/>
<g>
	<defs>
		<rect id="SVGID_109_" width="564" height="1002"/>
	</defs>
	<clipPath id="SVGID_4_">
		<use xlink:href="#SVGID_109_"  overflow="visible"/>
	</clipPath>
	<polygon clip-path="url(#SVGID_4_)" fill="none" stroke="#0046F9" stroke-width="1.998" points="0.999,3 0.999,999 0.999,1001.002 
		3,1001.002 561,1001.002 563.002,1001.002 563.002,999 563.002,3 563.002,0.998 561,0.998 3,0.998 0.999,0.998 	"/>
</g>
<rect x="5.001" y="5.002" fill="none" stroke="#0046F9" stroke-width="1.998" width="553.997" height="991.996"/>
<g>
	<defs>
		<rect id="SVGID_111_" width="564" height="1002"/>
	</defs>
	<clipPath id="SVGID_6_">
		<use xlink:href="#SVGID_111_"  overflow="visible"/>
	</clipPath>
	<path clip-path="url(#SVGID_6_)" fill="#231F20" d="M450.788,735.057c0.145,1.979,0.612,3.672,1.261,5.147
		c0.432-0.071,1.008-0.144,1.224-0.144c0.288,0,0.792,0.028,1.079,0.107c0.666,0.181,2.539,0.433,4.573,0.433
		c4.823,0,8.604-1.458,8.604-5.58c0-2.736-1.365-4.136-7.02-5.04c-3.942-0.63-6.408-1.296-6.408-3.312
		c0-1.548,1.8-2.735,5.112-2.735c2.825,0,4.176,1.836,5.688,4.428c0.576,0.036,1.044-0.18,1.296-0.432
		c-0.216-1.692-0.432-3.061-0.72-4.212c-1.242-0.414-3.708-1.116-6.264-1.116c-3.925,0-7.812,1.764-7.812,4.644
		c0,3.187,1.728,4.522,6.516,5.328c5.131,0.864,6.66,1.62,6.66,3.348c0,1.98-2.125,3.349-5.725,3.349
		c-2.051,0-3.707-0.396-4.355-0.937c-1.045-0.899-1.907-2.699-2.16-3.708C451.832,734.553,451.112,734.732,450.788,735.057
		 M435.776,724.076c4.104,0,6.588,2.952,6.588,8.856c0,5.147-3.023,6.191-5.292,6.191c-4.932,0-6.516-4.896-6.516-8.063
		C430.557,727.496,431.597,724.076,435.776,724.076 M427.101,731.96c0,4.104,3.023,8.641,9.324,8.641c2.844,0,5.004-0.9,6.516-2.232
		c2.016-1.764,2.88-4.319,2.88-6.768c0-4.177-2.556-9-9.324-9c-2.916,0-5.292,1.08-6.912,2.808
		C428,727.137,427.101,729.44,427.101,731.96 M415.94,735.416v-8.567c0-2.441,0.504-3.042,0.504-3.889
		c0-0.233-0.26-0.468-0.504-0.468c-0.405,0-1.405,0.228-2.369,0.4c-1.642,0.295-4.694,0.579-6.271,0.68
		c-0.108,0.306-0.072,0.9,0.071,1.188c3.438,0.071,4.724,0.14,5.04,0.54c0.342,0.432,0.396,0.899,0.396,1.836v8.279
		c0,1.692-0.145,2.376-0.648,2.772c-0.396,0.288-4.571,0.72-6.336,0.792c-0.216,0.216-0.216,1.116,0,1.332
		c1.512-0.036,6.984-0.072,8.604-0.072c1.512,0,6.588,0.036,8.136,0.072c0.216-0.216,0.216-1.116,0-1.332
		c-1.944-0.072-5.58-0.504-5.976-0.792C416.049,737.828,415.94,737.145,415.94,735.416 M412.124,716.84
		c0,1.08,0.973,2.16,1.944,2.16c1.116,0,2.088-1.115,2.088-1.979c0-1.008-0.864-2.16-1.943-2.16
		C413.24,714.86,412.124,715.832,412.124,716.84 M390.416,725.624c0-1.962-0.107-2.483-0.288-2.844
		c-0.071-0.18-0.144-0.288-0.432-0.288c-1.584,0.271-4.392,0.72-6.876,1.044c-0.072,0.216,0,0.792,0.072,1.008
		c0.846,0,3.456,0.288,3.815,0.505c0.469,0.287,0.575,0.756,0.575,1.943v8.712c0,1.729-0.146,2.405-0.683,2.772
		c-0.342,0.233-3.276,0.432-4.752,0.504c-0.216,0.216-0.216,1.116,0,1.332c1.512-0.036,6.012-0.072,7.452-0.072
		c1.476,0,5.867,0.036,7.416,0.072c0.216-0.216,0.216-1.116,0-1.332c-1.261-0.036-5.076-0.288-5.509-0.504
		c-0.647-0.36-0.792-1.008-0.792-2.772v-4.968c0-0.936,0.331-1.71,0.864-2.304c2.017-2.25,3.78-3.727,5.185-3.727
		c0.504,0,1.332,0.45,1.584,0.738c0.396,0.432,0.936,0.972,1.655,0.972c0.937,0,1.692-1.008,1.692-1.979
		c0-0.72-0.432-1.836-2.052-1.836c-4.356,0-6.156,1.638-8.568,4.176C390.467,727.104,390.416,726.812,390.416,725.624
		 M376.736,736.316c-1.692,1.548-3.563,2.484-6.264,2.484c-2.312,0-4.5-0.792-5.977-2.881c-0.899-1.367-1.332-2.483-1.332-4.859
		h13.5c0.504,0,0.864-0.612,0.864-1.044c0-3.384-2.016-7.416-8.136-7.416c-4.968,0-9.685,3.42-9.685,9.504
		c0,2.231,0.757,4.428,2.232,5.939c1.511,1.62,4.284,2.557,7.452,2.557c3.384,0,6.372-1.404,8.172-3.492
		C377.456,736.712,377.276,736.353,376.736,736.316 M363.345,729.584c0.828-4.319,3.672-5.544,5.976-5.544
		c1.729,0,4.608,1.009,4.608,4.464c0,0.36-0.216,0.93-0.721,0.937L363.345,729.584z M369.429,713.996l-2.723,4.284
		c-0.292,0.461-0.409,0.605-0.409,1.008c0,0.252,0.252,0.468,0.504,0.468s0.54-0.144,1.08-0.684l4.14-3.924l-0.108-0.396
		c-0.828-0.792-1.75-0.828-1.979-0.828C369.752,713.924,369.535,713.96,369.429,713.996 M337.425,724.4
		c-0.505,0-0.648,0.432-0.648,0.72v0.648c0,0.18,0.036,0.216,0.18,0.216h4.032v9.252c0,4.032,2.376,5.364,5.543,5.364
		c2.107,0,4.537-1.116,7.453-2.736c-0.072-0.371-0.288-0.972-0.648-1.008c-1.962,0.828-3.978,1.62-5.544,1.62
		c-1.836,0-3.672-0.721-3.672-4.968v-7.524h7.345c0.359,0,0.863-0.145,0.863-0.468v-0.9c0-0.144-0.107-0.216-0.288-0.216h-7.92
		v-3.204c0-2.34,0.145-3.78,0.145-3.78c0-0.229-0.108-0.316-0.278-0.316c-0.262,0-1.029,0.399-1.594,0.637
		c-0.612,0.256-1.512,0.328-1.512,0.688c0,0.419,0.107,1.98,0.107,5.973L337.425,724.4z M325.221,735.416v-8.567
		c0-2.441,0.504-3.042,0.504-3.889c0-0.233-0.26-0.468-0.504-0.468c-0.404,0-1.404,0.228-2.369,0.4
		c-1.643,0.295-4.694,0.579-6.271,0.68c-0.107,0.306-0.071,0.9,0.072,1.188c3.438,0.071,4.723,0.14,5.04,0.54
		c0.342,0.432,0.396,0.899,0.396,1.836v8.279c0,1.692-0.145,2.376-0.648,2.772c-0.396,0.288-4.573,0.72-6.336,0.792
		c-0.216,0.216-0.216,1.116,0,1.332c1.511-0.036,6.984-0.072,8.604-0.072c1.513,0,6.589,0.036,8.137,0.072
		c0.216-0.216,0.216-1.116,0-1.332c-1.944-0.072-5.58-0.504-5.978-0.792C325.328,737.828,325.221,737.145,325.221,735.416
		 M321.404,716.84c0,1.08,0.972,2.16,1.944,2.16c1.116,0,2.088-1.115,2.088-1.979c0-1.008-0.864-2.16-1.944-2.16
		C322.521,714.86,321.404,715.832,321.404,716.84 M299.696,725.624c0-1.962-0.108-2.483-0.288-2.844
		c-0.072-0.18-0.144-0.288-0.432-0.288c-1.584,0.271-4.393,0.72-6.876,1.044c-0.072,0.216,0,0.792,0.072,1.008
		c0.845,0,3.455,0.288,3.815,0.505c0.468,0.287,0.576,0.756,0.576,1.943v8.712c0,1.729-0.148,2.405-0.684,2.772
		c-0.343,0.233-3.276,0.432-4.753,0.504c-0.216,0.216-0.216,1.116,0,1.332c1.513-0.036,6.013-0.072,7.452-0.072
		c1.477,0,5.867,0.036,7.416,0.072c0.217-0.216,0.217-1.116,0-1.332c-1.26-0.036-5.076-0.288-5.508-0.504
		c-0.647-0.36-0.792-1.008-0.792-2.772v-4.968c0-0.936,0.331-1.71,0.864-2.304c2.016-2.25,3.78-3.727,5.184-3.727
		c0.504,0,1.332,0.45,1.584,0.738c0.396,0.432,0.937,0.972,1.656,0.972c0.936,0,1.692-1.008,1.692-1.979
		c0-0.72-0.433-1.836-2.053-1.836c-4.355,0-6.155,1.638-8.567,4.176C299.746,727.104,299.696,726.812,299.696,725.624
		 M287.024,736.353c-0.144-0.36-0.648-0.864-1.044-0.9c-2.268,2.34-5.04,3.204-6.876,3.204c-4.032,0-6.912-3.312-6.912-7.668
		c0-4.212,2.159-6.912,5.832-6.912c2.521,0,4.572,1.44,4.824,3.276c0.146,1.076,0.935,1.728,1.8,1.728
		c1.08,0,1.692-0.697,1.692-2.052c0-0.77-0.443-1.624-1.261-2.304c-1.516-1.261-4.197-2.124-6.84-2.124
		c-5.076,0-9.324,3.888-9.324,9.252c0,4.859,3.348,8.748,9.289,8.748C280.76,740.601,283.783,740.024,287.024,736.353
		 M223.988,735.057c0.145,1.979,0.612,3.672,1.26,5.147c0.432-0.071,1.008-0.144,1.225-0.144c0.287,0,0.791,0.028,1.08,0.107
		c0.666,0.181,2.537,0.433,4.572,0.433c4.822,0,8.604-1.458,8.604-5.58c0-2.736-1.365-4.136-7.02-5.04
		c-3.943-0.63-6.408-1.296-6.408-3.312c0-1.548,1.8-2.735,5.111-2.735c2.826,0,4.176,1.836,5.688,4.428
		c0.575,0.036,1.044-0.18,1.296-0.432c-0.217-1.692-0.432-3.061-0.721-4.212c-1.242-0.414-3.707-1.116-6.264-1.116
		c-3.924,0-7.812,1.764-7.812,4.644c0,3.187,1.728,4.522,6.515,5.328c5.131,0.864,6.661,1.62,6.661,3.348
		c0,1.98-2.124,3.349-5.724,3.349c-2.053,0-3.709-0.396-4.356-0.937c-1.044-0.899-1.907-2.699-2.159-3.708
		C225.031,734.553,224.312,734.732,223.988,735.057 M208.977,724.076c4.104,0,6.588,2.952,6.588,8.856
		c0,5.147-3.023,6.191-5.292,6.191c-4.933,0-6.517-4.896-6.517-8.063C203.756,727.496,204.797,724.076,208.977,724.076
		 M200.301,731.96c0,4.104,3.023,8.641,9.324,8.641c2.844,0,5.004-0.9,6.516-2.232c2.016-1.764,2.88-4.319,2.88-6.768
		c0-4.177-2.556-9-9.324-9c-2.916,0-5.292,1.08-6.913,2.808C201.199,727.137,200.301,729.44,200.301,731.96 M185.774,735.597
		c0,1.702-0.126,2.376-0.63,2.771c-0.396,0.288-5.482,0.565-6.426,0.612c-0.217,0.216-0.217,1.116,0,1.332
		c1.512-0.036,5.27-0.072,8.64-0.072c3.243,0,6.769,0.036,8.315,0.072c0.217-0.216,0.217-1.116,0-1.332
		c-0.899-0.043-5.67-0.36-6.065-0.612c-0.577-0.359-0.702-1.008-0.702-2.771v-16.345c0-2.34,0.145-3.779,0.145-3.779
		c0-0.252-0.145-0.36-0.469-0.36c-1.332,0.36-5.615,0.864-7.056,0.972c-0.071,0.288-0.071,0.973,0.144,1.188
		c1.459,0,2.801,0.024,3.619,0.702c0.373,0.31,0.485,1.396,0.485,2.897V735.597z M159.801,725.805c0-1.188-0.037-2.593-0.217-3.024
		c-0.072-0.18-0.144-0.324-0.469-0.324c-1.115,0.433-2.734,0.828-5.507,1.188c-0.071,0.252,0.036,0.864,0.108,1.116
		c2.16,0.216,2.951,0.396,2.951,2.735v16.561c0,2.987-0.756,3.168-2.951,3.275c-0.217,0.216-0.217,1.116,0,1.332
		c1.512-0.036,2.768-0.071,4.535-0.071c2.037,0,3.672,0.035,5.221,0.071c0.216-0.216,0.216-1.116,0-1.332
		c-3.276-0.144-3.672-0.302-3.672-3.275v-5.544c1.15,1.26,2.736,2.088,4.859,2.088c2.232,0,4.32-0.685,5.977-2.232
		c1.871-1.836,3.023-4.355,3.023-7.596c0-4.914-2.57-8.172-7.56-8.172c-2.751,0-4.41,1.313-5.976,3.348
		C160.012,726.093,159.801,726.093,159.801,725.805 M160.699,727.208c1.027-1.422,2.557-2.771,4.178-2.771
		c3.944,0,5.328,2.88,5.328,7.416c0,4.571-2.197,7.235-5.797,7.235c-1.667,0-4.302-1.836-4.607-3.924v-5.688
		C159.801,728.648,160.264,727.81,160.699,727.208 M143.78,735.416v-8.567c0-2.441,0.503-3.042,0.503-3.889
		c0-0.233-0.258-0.468-0.503-0.468c-0.403,0-1.403,0.228-2.368,0.4c-1.642,0.295-4.695,0.579-6.271,0.68
		c-0.109,0.306-0.072,0.9,0.072,1.188c3.438,0.071,4.723,0.14,5.039,0.54c0.342,0.432,0.396,0.899,0.396,1.836v8.279
		c0,1.692-0.145,2.376-0.648,2.772c-0.396,0.288-4.572,0.72-6.336,0.792c-0.217,0.216-0.217,1.116,0,1.332
		c1.512-0.036,6.984-0.072,8.604-0.072c1.512,0,6.588,0.036,8.136,0.072c0.217-0.216,0.217-1.116,0-1.332
		c-1.943-0.072-5.58-0.504-5.977-0.792C143.889,737.828,143.78,737.145,143.78,735.416 M139.965,716.84
		c0,1.08,0.972,2.16,1.943,2.16c1.116,0,2.088-1.115,2.088-1.979c0-1.008-0.863-2.16-1.943-2.16
		C141.08,714.86,139.965,715.832,139.965,716.84 M110.625,724.4c-0.504,0-0.648,0.432-0.648,0.72v0.648
		c0,0.18,0.035,0.216,0.18,0.216h4.032v9.252c0,4.032,2.376,5.364,5.544,5.364c2.105,0,4.536-1.116,7.452-2.736
		c-0.072-0.371-0.288-0.972-0.647-1.008c-1.963,0.828-3.979,1.62-5.545,1.62c-1.836,0-3.672-0.721-3.672-4.968v-7.524h7.344
		c0.36,0,0.864-0.145,0.864-0.468v-0.9c0-0.144-0.108-0.216-0.288-0.216h-7.92v-3.204c0-2.34,0.145-3.78,0.145-3.78
		c0-0.229-0.108-0.316-0.277-0.316c-0.264,0-1.03,0.399-1.596,0.637c-0.611,0.256-1.512,0.328-1.512,0.688
		c0,0.419,0.108,1.98,0.108,5.973L110.625,724.4z M95.055,735.597c0,1.702-0.127,2.376-0.631,2.771
		c-0.396,0.288-5.482,0.565-6.426,0.612c-0.216,0.216-0.216,1.116,0,1.332c1.512-0.036,5.271-0.072,8.641-0.072
		c3.244,0,6.768,0.036,8.316,0.072c0.215-0.216,0.215-1.116,0-1.332c-0.9-0.043-5.672-0.36-6.066-0.612
		c-0.576-0.359-0.702-1.008-0.702-2.771v-16.345c0-2.34,0.144-3.779,0.144-3.779c0-0.252-0.144-0.36-0.468-0.36
		c-1.332,0.36-5.616,0.864-7.056,0.972c-0.072,0.288-0.072,0.973,0.144,1.188c1.458,0,2.802,0.024,3.618,0.702
		c0.374,0.31,0.486,1.396,0.486,2.897V735.597z M70.934,740.601c1.404,0,4.087-0.688,6.517-2.521
		c0.185-0.14,0.433-0.216,0.433,0.036c0,1.588,0.396,2.484,0.396,2.484c0.288,0.107,0.396,0.071,0.685,0
		c0.791-0.648,2.555-1.188,4.752-1.44c0.215-0.216,0.215-0.756,0-0.972c-2.305-0.18-2.736-0.864-2.736-2.628v-8.604
		c0-1.08,0.145-3.852,0.145-3.852c0-0.108-0.109-0.216-0.289-0.216c-0.18,0.035-1.008,0.071-1.547,0.071
		c-1.152,0-2.521-0.036-3.854-0.071c-0.215,0.216-0.215,1.115,0,1.332c0.789,0.047,1.499,0.157,1.844,0.481
		c0.426,0.4,0.568,1.12,0.568,2.435v8.136c0,0.684-0.039,1.012-0.575,1.404c-2.106,1.548-4.284,2.231-5.185,2.231
		c-1.08,0-2.879-0.504-2.879-3.708v-8.244c0-1.08,0.143-3.852,0.143-3.852c0-0.108-0.107-0.216-0.287-0.216
		c-0.18,0.035-0.792,0.071-1.332,0.071c-1.152,0-2.916-0.036-4.248-0.071c-0.217,0.216-0.217,1.115,0,1.332
		c0.792,0.064,1.688,0.184,2.034,0.518c0.409,0.396,0.558,1.095,0.558,2.362v8.604C66.074,738.188,67.371,740.601,70.934,740.601
		 M74.588,713.996l-2.722,4.284c-0.291,0.461-0.409,0.605-0.409,1.008c0,0.252,0.252,0.468,0.504,0.468s0.539-0.144,1.08-0.684
		l4.139-3.924l-0.107-0.396c-0.828-0.792-1.75-0.828-1.98-0.828C74.912,713.924,74.696,713.96,74.588,713.996 M44.78,735.488v-7.38
		c0-0.756,0.382-1.512,0.612-1.872c1.044-1.631,1.908-1.656,2.484-1.656c1.367,0,1.799,0.864,1.799,3.276v7.632
		c0,3.204-0.018,4.32-0.071,4.824c0.385-0.036,1.26-0.072,1.62-0.072c0.406,0,1.019,0.036,1.475,0.072
		c-0.027-0.612-0.07-1.769-0.07-4.824v-9.036c1.26-1.71,2.109-1.872,2.879-1.872c1.369,0,2.017,0.792,2.017,3.204v6.984
		c0,3.888,0.062,4.993,0.288,5.544c0.396-0.036,1.02-0.072,1.296-0.072c1.476,0,1.584,0.036,3.132,0.072
		c0.18-0.216,0.18-1.116,0-1.332c-1.753-0.119-1.764-0.241-1.764-4.212v-6.444c0-3.197-0.504-5.724-3.672-5.724
		c-1.236,0-2.477,0.22-4.068,2.231c-0.205,0.26-0.338,0.342-0.432-0.014c-0.379-1.444-1.404-2.218-3.276-2.218
		c-1.368,0-2.635,0.654-3.924,2.556c-0.228,0.338-0.324,0.349-0.324,0c0-1.439-0.118-2.005-0.288-2.376
		c-0.076-0.166-0.144-0.288-0.432-0.288c-1.008,0.396-1.98,0.72-4.465,1.044c-0.071,0.216,0,0.792,0.072,1.008
		c1.944,0.181,2.16,0.36,2.16,2.448v8.496c0,3.204-0.018,4.32-0.072,4.824c0.386-0.036,1.261-0.072,1.621-0.072
		c0.406,0,1.019,0.036,1.475,0.072C44.823,739.7,44.78,738.544,44.78,735.488"/>
	<path clip-path="url(#SVGID_6_)" fill="#231F20" d="M316.94,685.488v-7.38c0-0.756,0.381-1.512,0.612-1.872
		c1.044-1.631,1.907-1.656,2.482-1.656c1.369,0,1.801,0.864,1.801,3.276v7.632c0,3.204-0.018,4.32-0.071,4.824
		c0.385-0.036,1.26-0.072,1.62-0.072c0.406,0,1.019,0.036,1.476,0.072c-0.029-0.612-0.072-1.769-0.072-4.824v-9.036
		c1.261-1.71,2.109-1.872,2.88-1.872c1.367,0,2.017,0.792,2.017,3.204v6.984c0,3.888,0.061,4.993,0.288,5.544
		c0.395-0.036,1.019-0.072,1.296-0.072c1.476,0,1.583,0.036,3.132,0.072c0.18-0.216,0.18-1.116,0-1.332
		c-1.753-0.119-1.764-0.241-1.764-4.212v-6.444c0-3.197-0.504-5.724-3.672-5.724c-1.235,0-2.478,0.22-4.068,2.231
		c-0.206,0.26-0.339,0.342-0.432-0.014c-0.379-1.444-1.404-2.218-3.276-2.218c-1.368,0-2.636,0.654-3.924,2.556
		c-0.228,0.338-0.324,0.349-0.324,0c0-1.439-0.119-2.005-0.288-2.376c-0.076-0.166-0.144-0.288-0.432-0.288
		c-1.008,0.396-1.98,0.72-4.464,1.044c-0.072,0.216,0,0.792,0.071,1.008c1.944,0.181,2.16,0.36,2.16,2.448v8.496
		c0,3.204-0.018,4.32-0.072,4.824c0.385-0.036,1.261-0.072,1.619-0.072c0.408,0,1.021,0.036,1.478,0.072
		C316.982,689.7,316.94,688.544,316.94,685.488 M299.696,674.076c4.104,0,6.587,2.952,6.587,8.856c0,5.147-3.022,6.191-5.291,6.191
		c-4.932,0-6.516-4.896-6.516-8.063C294.477,677.496,295.517,674.076,299.696,674.076 M291.021,681.96
		c0,4.104,3.023,8.641,9.324,8.641c2.844,0,5.004-0.9,6.516-2.232c2.016-1.764,2.88-4.32,2.88-6.768c0-4.177-2.556-9-9.324-9
		c-2.916,0-5.292,1.08-6.912,2.808C291.92,677.137,291.021,679.44,291.021,681.96 M287.024,686.353
		c-0.144-0.36-0.648-0.864-1.044-0.9c-2.269,2.34-5.04,3.204-6.876,3.204c-4.032,0-6.912-3.312-6.912-7.668
		c0-4.212,2.159-6.912,5.832-6.912c2.521,0,4.572,1.44,4.824,3.276c0.146,1.076,0.935,1.728,1.8,1.728
		c1.08,0,1.692-0.697,1.692-2.052c0-0.77-0.443-1.624-1.261-2.304c-1.516-1.261-4.197-2.124-6.84-2.124
		c-5.076,0-9.324,3.888-9.324,9.252c0,4.859,3.348,8.748,9.289,8.748C280.76,690.601,283.783,690.024,287.024,686.353
		 M231.656,674.076c4.104,0,6.588,2.952,6.588,8.856c0,5.147-3.023,6.191-5.293,6.191c-4.931,0-6.515-4.896-6.515-8.063
		C226.437,677.496,227.477,674.076,231.656,674.076 M222.98,681.96c0,4.104,3.023,8.641,9.324,8.641c2.844,0,5.004-0.9,6.516-2.232
		c2.016-1.764,2.879-4.32,2.879-6.768c0-4.177-2.555-9-9.322-9c-2.916,0-5.293,1.08-6.912,2.808
		C223.881,677.137,222.98,679.44,222.98,681.96 M213.621,688.225c0.18-0.145,0.467-0.252,0.467,0.036c0,0.972,0.396,2.34,0.396,2.34
		c0.288,0.107,0.396,0.071,0.684,0c0.793-0.648,2.305-1.229,5.004-1.44c0.217-0.216,0.217-0.756,0-0.972
		c-2.699-0.328-2.987-0.864-2.987-2.628v-16.309c0-2.34,0.144-3.779,0.144-3.779c0-0.252-0.144-0.36-0.468-0.36
		c-0.899,0.36-4.608,0.864-6.048,0.972c-0.072,0.288,0,0.864,0.216,1.08c2.593,0.104,3.024,0.284,3.024,2.952v2.808
		c0,0.288-0.072,0.36-0.36,0.36c-0.144,0-2.7-0.647-4.104-0.647c-2.808,0-4.644,0.863-6.371,2.376
		c-1.836,1.728-2.916,4.104-2.916,7.092c0,4.932,2.988,8.532,7.56,8.532C209.517,690.637,211.641,689.845,213.621,688.225
		 M214.053,685.272c0,0.756-0.072,1.044-0.648,1.548c-1.477,1.296-3.348,1.944-4.428,1.944c-2.305,0-5.436-2.376-5.436-7.38
		c0-2.881,0.574-4.5,1.223-5.328c1.332-1.872,3.564-1.98,4.393-1.98c1.512,0,3.42,0.468,4.211,1.404
		c0.577,0.647,0.686,0.899,0.686,2.16V685.272z M186.297,675.624c0-1.962-0.108-2.483-0.289-2.844
		c-0.071-0.18-0.144-0.288-0.432-0.288c-1.584,0.271-4.392,0.72-6.877,1.044c-0.07,0.216,0,0.792,0.073,1.008
		c0.846,0,3.456,0.288,3.815,0.504c0.469,0.288,0.576,0.757,0.576,1.944v8.712c0,1.729-0.147,2.405-0.684,2.772
		c-0.342,0.233-3.275,0.432-4.752,0.504c-0.217,0.216-0.217,1.116,0,1.332c1.512-0.036,6.012-0.072,7.451-0.072
		c1.477,0,5.869,0.036,7.416,0.072c0.217-0.216,0.217-1.116,0-1.332c-1.26-0.036-5.075-0.288-5.508-0.504
		c-0.647-0.36-0.791-1.008-0.791-2.772v-4.968c0-0.936,0.33-1.71,0.863-2.304c2.016-2.25,3.78-3.727,5.184-3.727
		c0.505,0,1.332,0.45,1.584,0.738c0.396,0.432,0.937,0.972,1.656,0.972c0.937,0,1.692-1.008,1.692-1.979
		c0-0.72-0.433-1.836-2.052-1.836c-4.357,0-6.156,1.638-8.568,4.176C186.346,677.104,186.297,676.812,186.297,675.624
		 M163.615,674.076c4.105,0,6.59,2.952,6.59,8.856c0,5.147-3.025,6.191-5.293,6.191c-4.932,0-6.516-4.896-6.516-8.063
		C158.396,677.496,159.437,674.076,163.615,674.076 M154.94,681.96c0,4.104,3.024,8.641,9.323,8.641c2.845,0,5.005-0.9,6.517-2.232
		c2.017-1.764,2.88-4.32,2.88-6.768c0-4.177-2.556-9-9.324-9c-2.916,0-5.291,1.08-6.912,2.808
		C155.84,677.137,154.94,679.44,154.94,681.96 M150.944,686.353c-0.144-0.36-0.647-0.864-1.044-0.9
		c-2.268,2.34-5.04,3.204-6.876,3.204c-4.032,0-6.912-3.312-6.912-7.668c0-4.212,2.16-6.912,5.832-6.912
		c2.521,0,4.572,1.44,4.824,3.276c0.147,1.076,0.937,1.728,1.8,1.728c1.08,0,1.691-0.697,1.691-2.052c0-0.77-0.442-1.624-1.26-2.304
		c-1.516-1.261-4.197-2.124-6.84-2.124c-5.076,0-9.324,3.888-9.324,9.252c0,4.859,3.349,8.748,9.289,8.748
		C144.68,690.601,147.705,690.024,150.944,686.353 M122.072,688.261c0.18,1.224,0.612,2.34,3.096,2.34
		c2.736,0,4.248-1.57,4.248-1.98c0-0.288-0.396-0.684-0.611-0.684c-0.288,0-0.432,0.647-1.404,0.647c-1.8,0-2.275-1.62-2.195-3.42
		l0.252-5.796c0.353-5.67-3.24-6.768-6.625-6.768c-3.779,0-7.703,2.268-7.703,4.428c0,0.972,0.684,1.404,1.619,1.404
		c1.116,0,1.98-0.648,1.98-1.152c0-0.288-0.072-0.612-0.145-0.756c-0.035-0.108-0.072-0.36-0.072-0.792
		c0-1.26,2.197-1.692,3.961-1.692c1.943,0,3.924,1.008,3.924,5.4c0,0.288-0.252,0.468-0.359,0.504l-4.681,0.792
		c-5.123,0.868-7.632,2.988-7.632,5.652c0,3.06,2.484,4.212,5.796,4.212c2.196,0,3.312-0.324,5.437-1.656l1.008-0.684H122.072z
		 M122.324,681.24l-0.252,4.824c-0.029,0.544-0.359,0.864-0.721,1.116c-1.223,0.792-3.419,1.8-4.751,1.8
		c-2.412,0-3.312-1.548-3.312-2.772c0-2.016,1.662-3.557,4.715-4.14L122.324,681.24z M81.896,686.316
		c-1.691,1.548-3.564,2.484-6.264,2.484c-2.312,0-4.5-0.792-5.977-2.881c-0.9-1.367-1.332-2.483-1.332-4.859h13.5
		c0.504,0,0.864-0.612,0.864-1.044c0-3.384-2.017-7.416-8.136-7.416c-4.969,0-9.686,3.42-9.686,9.504
		c0,2.231,0.758,4.428,2.233,5.939c1.512,1.62,4.284,2.557,7.452,2.557c3.384,0,6.371-1.404,8.172-3.492
		C82.615,686.712,82.437,686.353,81.896,686.316 M68.504,679.584c0.828-4.319,3.672-5.544,5.977-5.544
		c1.729,0,4.607,1.008,4.607,4.464c0,0.36-0.215,0.93-0.721,0.937L68.504,679.584z M54.86,688.225
		c0.181-0.145,0.468-0.252,0.468,0.036c0,0.972,0.396,2.34,0.396,2.34c0.287,0.107,0.396,0.071,0.684,0
		c0.791-0.648,2.305-1.229,5.004-1.44c0.217-0.216,0.217-0.756,0-0.972c-2.699-0.328-2.988-0.864-2.988-2.628v-16.309
		c0-2.34,0.145-3.779,0.145-3.779c0-0.252-0.145-0.36-0.468-0.36c-0.901,0.36-4.608,0.864-6.048,0.972
		c-0.072,0.288,0,0.864,0.216,1.08c2.592,0.104,3.024,0.284,3.024,2.952v2.808c0,0.288-0.072,0.36-0.36,0.36
		c-0.144,0-2.7-0.647-4.104-0.647c-2.808,0-4.644,0.863-6.371,2.376c-1.836,1.728-2.916,4.104-2.916,7.092
		c0,4.932,2.987,8.532,7.56,8.532C50.756,690.637,52.881,689.845,54.86,688.225 M55.293,685.272c0,0.756-0.072,1.044-0.648,1.548
		c-1.477,1.296-3.348,1.944-4.428,1.944c-2.305,0-5.437-2.376-5.437-7.38c0-2.881,0.576-4.5,1.224-5.328
		c1.332-1.872,3.564-1.98,4.393-1.98c1.512,0,3.42,0.468,4.212,1.404c0.576,0.647,0.685,0.899,0.685,2.16V685.272z"/>
	<path clip-path="url(#SVGID_6_)" fill="#231F20" d="M496.148,635.057c0.144,1.979,0.612,3.672,1.26,5.147
		c0.433-0.071,1.008-0.144,1.225-0.144c0.287,0,0.792,0.029,1.08,0.107c0.665,0.181,2.537,0.433,4.57,0.433
		c4.825,0,8.605-1.458,8.605-5.58c0-2.736-1.365-4.136-7.021-5.04c-3.94-0.63-6.407-1.296-6.407-3.312
		c0-1.548,1.801-2.735,5.112-2.735c2.826,0,4.176,1.836,5.688,4.428c0.575,0.036,1.044-0.18,1.296-0.432
		c-0.216-1.692-0.433-3.061-0.721-4.212c-1.241-0.414-3.708-1.116-6.264-1.116c-3.924,0-7.812,1.764-7.812,4.644
		c0,3.187,1.728,4.522,6.516,5.328c5.13,0.864,6.659,1.62,6.659,3.348c0,1.98-2.123,3.349-5.723,3.349
		c-2.053,0-3.709-0.396-4.356-0.937c-1.044-0.899-1.909-2.699-2.16-3.708C497.192,634.553,496.473,634.732,496.148,635.057
		 M481.137,624.076c4.104,0,6.588,2.952,6.588,8.856c0,5.147-3.025,6.191-5.292,6.191c-4.933,0-6.517-4.896-6.517-8.063
		C475.916,627.496,476.956,624.076,481.137,624.076 M472.46,631.96c0,4.104,3.024,8.641,9.323,8.641c2.845,0,5.005-0.9,6.518-2.232
		c2.016-1.764,2.88-4.319,2.88-6.768c0-4.176-2.557-9-9.324-9c-2.916,0-5.292,1.08-6.912,2.808
		C473.36,627.137,472.46,629.44,472.46,631.96 M450.824,624.4c-0.504,0-0.647,0.432-0.647,0.72v0.648c0,0.18,0.036,0.216,0.18,0.216
		h4.032v9.252c0,4.032,2.376,5.364,5.544,5.364c2.105,0,4.536-1.116,7.452-2.736c-0.072-0.371-0.288-0.972-0.648-1.008
		c-1.962,0.828-3.978,1.62-5.544,1.62c-1.836,0-3.672-0.72-3.672-4.968v-7.524h7.344c0.36,0,0.864-0.144,0.864-0.468v-0.9
		c0-0.144-0.108-0.216-0.288-0.216h-7.92v-3.204c0-2.34,0.144-3.78,0.144-3.78c0-0.229-0.107-0.316-0.277-0.316
		c-0.263,0-1.029,0.399-1.595,0.637c-0.611,0.256-1.512,0.328-1.512,0.688c0,0.418,0.108,1.979,0.108,5.972L450.824,624.4z
		 M432.572,626.236c-0.107,0.145-0.324,0.504-0.324,0c0-2.2-0.119-3.085-0.288-3.456c-0.075-0.166-0.144-0.288-0.432-0.288
		c-1.008,0.396-2.34,0.721-4.824,1.044c-0.071,0.216,0,0.792,0.072,1.008c1.944,0.181,2.339,0.36,2.339,2.448v8.712
		c0,2.952-0.358,3.057-2.879,3.276c-0.216,0.216-0.216,1.116,0,1.332c1.477-0.036,2.879-0.072,4.428-0.072
		c1.404,0,2.232,0.036,3.744,0.072c0.216-0.216,0.216-1.116,0-1.332c-1.836-0.18-2.16-0.324-2.16-3.276v-6.876
		c0-0.756,0.324-1.188,0.612-1.512c1.368-1.332,3.384-2.844,5.58-2.844c0.72,0,1.407,0.508,1.908,1.296
		c0.432,0.684,0.54,1.691,0.54,2.771v7.164c0,2.952-0.36,3.097-2.232,3.276c-0.18,0.216-0.18,1.116,0,1.332
		c1.512-0.036,2.34-0.072,3.78-0.072c1.476,0,2.808,0.036,4.355,0.072c0.181-0.216,0.181-1.116,0-1.332
		c-2.376-0.148-2.771-0.324-2.771-3.276v-7.056c0-1.98-0.144-3.78-1.08-4.824c-0.67-0.745-1.728-1.224-2.989-1.224
		C437.072,622.601,434.769,623.788,432.572,626.236 M422.097,636.316c-1.692,1.548-3.565,2.484-6.265,2.484
		c-2.312,0-4.5-0.792-5.976-2.881c-0.9-1.367-1.332-2.483-1.332-4.859h13.5c0.504,0,0.864-0.612,0.864-1.044
		c0-3.384-2.017-7.416-8.137-7.416c-4.969,0-9.684,3.42-9.684,9.504c0,2.231,0.756,4.428,2.232,5.939
		c1.512,1.62,4.283,2.557,7.451,2.557c3.385,0,6.372-1.404,8.173-3.492C422.816,636.713,422.637,636.353,422.097,636.316
		 M408.704,629.584c0.827-4.319,3.673-5.544,5.977-5.544c1.728,0,4.607,1.009,4.607,4.464c0,0.36-0.216,0.93-0.72,0.937
		L408.704,629.584z M384.98,635.488v-7.38c0-0.756,0.381-1.512,0.612-1.872c1.044-1.631,1.907-1.656,2.483-1.656
		c1.368,0,1.801,0.864,1.801,3.276v7.632c0,3.204-0.019,4.32-0.072,4.824c0.385-0.036,1.26-0.072,1.62-0.072
		c0.405,0,1.018,0.036,1.476,0.072c-0.029-0.612-0.072-1.769-0.072-4.824v-9.036c1.261-1.71,2.109-1.872,2.88-1.872
		c1.368,0,2.017,0.792,2.017,3.204v6.984c0,3.888,0.061,4.993,0.288,5.544c0.396-0.036,1.018-0.072,1.296-0.072
		c1.475,0,1.584,0.036,3.132,0.072c0.18-0.216,0.18-1.116,0-1.332c-1.754-0.119-1.764-0.241-1.764-4.212v-6.444
		c0-3.197-0.504-5.724-3.673-5.724c-1.234,0-2.477,0.22-4.067,2.231c-0.206,0.26-0.339,0.343-0.433-0.014
		c-0.377-1.444-1.403-2.218-3.275-2.218c-1.368,0-2.636,0.655-3.924,2.556c-0.228,0.338-0.324,0.35-0.324,0
		c0-1.439-0.119-2.005-0.288-2.376c-0.077-0.166-0.144-0.288-0.432-0.288c-1.009,0.396-1.98,0.721-4.464,1.044
		c-0.072,0.216,0,0.792,0.07,1.008c1.945,0.181,2.161,0.36,2.161,2.448v8.496c0,3.204-0.018,4.32-0.072,4.824
		c0.386-0.036,1.261-0.072,1.62-0.072c0.406,0,1.019,0.036,1.477,0.072C385.023,639.7,384.98,638.544,384.98,635.488
		 M376.377,624.652c0.756,0,1.475-0.72,1.475-1.512c0-0.828-0.755-1.477-1.835-1.477c-1.044,0-2.988,0.685-4.032,2.053
		c-0.468-0.324-1.8-1.116-4.537-1.116c-3.923,0-7.199,2.376-7.199,6.084c0,2.16,1.152,3.42,2.269,4.5
		c-1.116,0.972-1.584,2.664-1.584,4.032c0,1.439,0.792,2.592,1.836,3.096c-2.16,1.296-3.564,2.808-3.564,4.355
		c0,3.133,3.601,4.104,6.84,4.104c5.725,0,11.808-2.34,11.808-6.229c0-1.151-0.684-2.016-1.907-2.987
		c-1.62-1.296-4.608-1.332-6.156-1.332c-0.757,0-1.8,0.107-2.808,0.216c-0.648,0.036-1.08,0.072-1.296,0.072
		c-1.225,0-2.628-0.54-2.628-2.269c0-0.792,0.071-1.655,0.54-2.34c0.972,0.576,2.268,0.828,3.815,0.828
		c3.889,0,7.164-2.196,7.164-6.12c0-1.872-0.576-2.988-1.728-4.176c0.288-0.396,1.08-0.972,1.584-0.972
		c0.288,0,0.576,0.107,0.828,0.468C375.404,624.257,375.944,624.652,376.377,624.652 M363.488,640.601
		c0.432,0.107,1.152,0.216,1.692,0.216c1.332,0,2.447-0.144,3.06-0.144c2.124,0,4.032-0.108,5.256,0.54
		c1.619,0.899,2.053,1.331,2.053,2.268c0,2.592-4.5,3.96-8.28,3.96c-2.269,0-5.292-1.044-5.292-3.492
		C361.977,642.725,362.336,642.004,363.488,640.601 M371.372,629.009c0,3.743-1.943,4.392-3.744,4.392
		c-3.384,0-4.104-2.771-4.104-5.328c0-2.808,1.044-4.14,3.564-4.14C370.004,623.933,371.372,625.66,371.372,629.009
		 M348.872,638.261c0.181,1.224,0.612,2.34,3.097,2.34c2.735,0,4.248-1.57,4.248-1.98c0-0.288-0.396-0.684-0.612-0.684
		c-0.288,0-0.432,0.647-1.405,0.647c-1.799,0-2.273-1.619-2.195-3.42l0.253-5.796c0.353-5.67-3.24-6.768-6.624-6.768
		c-3.781,0-7.704,2.268-7.704,4.428c0,0.972,0.684,1.404,1.62,1.404c1.115,0,1.979-0.648,1.979-1.152
		c0-0.288-0.072-0.612-0.144-0.756c-0.036-0.108-0.072-0.36-0.072-0.792c0-1.26,2.196-1.692,3.96-1.692
		c1.944,0,3.924,1.009,3.924,5.4c0,0.288-0.252,0.468-0.36,0.504l-4.68,0.792c-5.123,0.868-7.632,2.988-7.632,5.652
		c0,3.06,2.484,4.212,5.796,4.212c2.196,0,3.312-0.324,5.437-1.656l1.008-0.684H348.872z M349.124,631.24l-0.252,4.824
		c-0.028,0.544-0.359,0.864-0.72,1.116c-1.224,0.792-3.42,1.8-4.752,1.8c-2.412,0-3.312-1.548-3.312-2.772
		c0-2.016,1.662-3.557,4.716-4.14L349.124,631.24z M322.376,625.624c0-1.962-0.107-2.483-0.287-2.844
		c-0.072-0.18-0.145-0.288-0.433-0.288c-1.584,0.271-4.392,0.721-6.876,1.044c-0.072,0.216,0,0.792,0.071,1.008
		c0.847,0,3.457,0.288,3.816,0.505c0.469,0.287,0.576,0.756,0.576,1.943v8.712c0,1.729-0.147,2.405-0.684,2.772
		c-0.342,0.233-3.277,0.432-4.752,0.504c-0.216,0.216-0.216,1.116,0,1.332c1.512-0.036,6.012-0.072,7.452-0.072
		c1.476,0,5.867,0.036,7.416,0.072c0.216-0.216,0.216-1.116,0-1.332c-1.261-0.036-5.076-0.288-5.509-0.504
		c-0.647-0.36-0.792-1.008-0.792-2.772v-4.968c0-0.936,0.331-1.71,0.864-2.304c2.017-2.25,3.78-3.727,5.185-3.727
		c0.504,0,1.332,0.45,1.584,0.738c0.396,0.432,0.936,0.972,1.655,0.972c0.937,0,1.692-1.008,1.692-1.979
		c0-0.72-0.432-1.836-2.052-1.836c-4.357,0-6.156,1.638-8.568,4.176C322.427,627.104,322.376,626.812,322.376,625.624
		 M299.301,635.704v-9.72h6.588c0.324,0,0.863-0.144,0.863-0.468v-0.9c0-0.144-0.107-0.216-0.287-0.216h-7.164v-2.52
		c0-4.572,3.096-5.4,4.283-5.4c1.513,0,2.305,0.864,3.061,2.736c0.306,0.763,0.971,1.008,1.8,1.008c0.684,0,1.584-0.54,1.584-1.62
		c0-0.72-0.504-1.656-1.224-2.124c-1.404-0.914-3.132-1.368-4.86-1.368c-3.24,0-7.776,1.44-7.776,7.38v1.908h-3.239
		c-0.648,0-0.864,0.432-0.864,0.72v0.648c0,0.18,0.072,0.216,0.216,0.216h3.888v9.72c0,1.729-0.107,2.412-0.611,2.772
		c-0.36,0.288-1.477,0.432-4.212,0.504c-0.217,0.216-0.217,1.116,0,1.332c1.512-0.036,3.907-0.072,6.407-0.072
		c3.398,0,7.164,0.036,8.713,0.072c0.216-0.216,0.216-1.116,0-1.332c-3.816-0.145-6.014-0.252-6.444-0.504
		C299.408,638.116,299.301,637.433,299.301,635.704 M263.336,636.316c-1.691,1.548-3.563,2.484-6.264,2.484
		c-2.311,0-4.5-0.792-5.977-2.881c-0.899-1.367-1.331-2.483-1.331-4.859h13.5c0.504,0,0.864-0.612,0.864-1.044
		c0-3.384-2.017-7.416-8.137-7.416c-4.968,0-9.684,3.42-9.684,9.504c0,2.231,0.756,4.428,2.232,5.939
		c1.512,1.62,4.283,2.557,7.451,2.557c3.385,0,6.372-1.404,8.172-3.492C264.057,636.713,263.877,636.353,263.336,636.316
		 M249.944,629.584c0.828-4.319,3.671-5.544,5.976-5.544c1.729,0,4.608,1.009,4.608,4.464c0,0.36-0.216,0.93-0.72,0.937
		L249.944,629.584z M236.301,638.225c0.18-0.145,0.468-0.252,0.468,0.036c0,0.972,0.396,2.34,0.396,2.34
		c0.287,0.107,0.396,0.072,0.685,0c0.792-0.648,2.304-1.229,5.003-1.44c0.217-0.216,0.217-0.756,0-0.972
		c-2.699-0.328-2.987-0.864-2.987-2.628v-16.309c0-2.34,0.144-3.779,0.144-3.779c0-0.252-0.144-0.36-0.467-0.36
		c-0.9,0.36-4.608,0.864-6.049,0.972c-0.072,0.288,0,0.864,0.217,1.08c2.592,0.104,3.023,0.284,3.023,2.952v2.809
		c0,0.288-0.072,0.359-0.359,0.359c-0.145,0-2.701-0.647-4.104-0.647c-2.808,0-4.644,0.863-6.372,2.376
		c-1.836,1.728-2.916,4.104-2.916,7.092c0,4.932,2.988,8.532,7.561,8.532C232.196,640.637,234.32,639.845,236.301,638.225
		 M236.732,635.272c0,0.756-0.072,1.044-0.648,1.548c-1.476,1.296-3.348,1.944-4.428,1.944c-2.305,0-5.436-2.376-5.436-7.38
		c0-2.881,0.576-4.5,1.224-5.328c1.332-1.872,3.563-1.98,4.392-1.98c1.513,0,3.42,0.468,4.213,1.404
		c0.576,0.648,0.684,0.9,0.684,2.16V635.272z M186.297,624.076c4.104,0,6.588,2.952,6.588,8.856c0,5.147-3.024,6.191-5.293,6.191
		c-4.932,0-6.516-4.896-6.516-8.063C181.076,627.496,182.115,624.076,186.297,624.076 M177.621,631.96
		c0,4.104,3.023,8.641,9.323,8.641c2.845,0,5.003-0.9,6.517-2.232c2.016-1.764,2.879-4.319,2.879-6.768c0-4.176-2.557-9-9.323-9
		c-2.916,0-5.292,1.08-6.912,2.808C178.521,627.137,177.621,629.44,177.621,631.96 M167.433,638.261
		c0.18,1.224,0.612,2.34,3.096,2.34c2.735,0,4.248-1.57,4.248-1.98c0-0.288-0.396-0.684-0.612-0.684
		c-0.287,0-0.432,0.647-1.404,0.647c-1.799,0-2.274-1.619-2.195-3.42l0.252-5.796c0.354-5.67-3.24-6.768-6.624-6.768
		c-3.78,0-7.704,2.268-7.704,4.428c0,0.972,0.684,1.404,1.62,1.404c1.116,0,1.979-0.648,1.979-1.152
		c0-0.288-0.071-0.612-0.144-0.756c-0.036-0.108-0.071-0.36-0.071-0.792c0-1.26,2.195-1.692,3.959-1.692
		c1.944,0,3.924,1.009,3.924,5.4c0,0.288-0.252,0.468-0.359,0.504l-4.68,0.792c-5.123,0.868-7.633,2.988-7.633,5.652
		c0,3.06,2.484,4.212,5.797,4.212c2.195,0,3.312-0.324,5.436-1.656l1.008-0.684H167.433z M167.685,631.24l-0.252,4.824
		c-0.029,0.544-0.36,0.864-0.72,1.116c-1.225,0.792-3.42,1.8-4.752,1.8c-2.412,0-3.312-1.548-3.312-2.772
		c0-2.016,1.663-3.557,4.716-4.14L167.685,631.24z M166.316,617.129c-0.684,0-1.357-0.241-1.872-0.685
		c-0.666-0.572-1.512-1.224-2.593-1.224c-1.547,0-2.375,1.403-2.879,3.527c0.216,0.217,0.576,0.252,0.972,0.181
		c0.36-1.188,0.72-1.729,1.656-1.729c0.612,0,1.35,0.209,1.944,0.685c0.719,0.575,1.512,1.151,2.304,1.151
		c1.655,0,2.7-1.403,3.132-3.563c-0.217-0.145-0.576-0.252-0.973-0.216C167.504,616.769,167.108,617.129,166.316,617.129
		 M150.944,636.353c-0.144-0.36-0.647-0.864-1.044-0.9c-2.268,2.34-5.04,3.204-6.876,3.204c-4.032,0-6.912-3.312-6.912-7.668
		c0-4.212,2.16-6.912,5.832-6.912c2.521,0,4.572,1.44,4.824,3.276c0.147,1.076,0.937,1.728,1.8,1.728
		c1.08,0,1.691-0.697,1.691-2.052c0-0.77-0.442-1.624-1.26-2.304c-1.516-1.26-4.197-2.124-6.84-2.124
		c-5.076,0-9.324,3.888-9.324,9.252c0,4.315,2.643,7.87,7.398,8.607l-1.35,3.236l0.216,0.216c0.575-0.18,0.937-0.216,1.62-0.216
		c0.828,0,1.188,0.504,1.188,1.26c0,0.937-0.756,1.44-1.836,1.44c-0.721,0-1.115-0.145-2.088-0.504
		c-0.252,0.252-0.359,0.504-0.359,0.936c0.899,0.396,1.512,0.612,2.664,0.612c2.195,0,3.852-1.116,3.852-2.664
		c0-1.368-1.116-2.232-2.557-2.232c-0.324,0-0.647,0.036-0.936,0.108l0.773-2.07c0.23,0.012,0.465,0.019,0.703,0.019
		C144.68,640.601,147.705,640.024,150.944,636.353 M127.256,636.316c-1.691,1.548-3.563,2.484-6.264,2.484
		c-2.311,0-4.5-0.792-5.976-2.881c-0.901-1.367-1.332-2.483-1.332-4.859h13.5c0.504,0,0.864-0.612,0.864-1.044
		c0-3.384-2.018-7.416-8.137-7.416c-4.968,0-9.684,3.42-9.684,9.504c0,2.231,0.756,4.428,2.232,5.939
		c1.512,1.62,4.283,2.557,7.451,2.557c3.385,0,6.371-1.404,8.172-3.492C127.977,636.713,127.797,636.353,127.256,636.316
		 M113.864,629.584c0.828-4.319,3.673-5.544,5.976-5.544c1.729,0,4.607,1.009,4.607,4.464c0,0.36-0.215,0.93-0.719,0.937
		L113.864,629.584z M95.055,635.597c0,1.703-0.127,2.376-0.631,2.771c-0.396,0.288-5.482,0.565-6.426,0.612
		c-0.216,0.216-0.216,1.116,0,1.332c1.512-0.036,5.271-0.072,8.641-0.072c3.244,0,6.768,0.036,8.316,0.072
		c0.215-0.216,0.215-1.116,0-1.332c-0.9-0.043-5.672-0.36-6.066-0.612c-0.576-0.359-0.702-1.008-0.702-2.771v-16.345
		c0-2.34,0.144-3.779,0.144-3.779c0-0.252-0.144-0.36-0.468-0.36c-1.332,0.36-5.616,0.864-7.056,0.972
		c-0.072,0.288-0.072,0.973,0.144,1.188c1.458,0,2.802,0.025,3.618,0.702c0.374,0.31,0.486,1.396,0.486,2.897V635.597z
		 M81.896,636.316c-1.691,1.548-3.564,2.484-6.264,2.484c-2.312,0-4.5-0.792-5.977-2.881c-0.9-1.367-1.332-2.483-1.332-4.859h13.5
		c0.504,0,0.864-0.612,0.864-1.044c0-3.384-2.017-7.416-8.136-7.416c-4.969,0-9.686,3.42-9.686,9.504
		c0,2.231,0.758,4.428,2.233,5.939c1.512,1.62,4.284,2.557,7.452,2.557c3.384,0,6.371-1.404,8.172-3.492
		C82.615,636.713,82.437,636.353,81.896,636.316 M68.504,629.584c0.828-4.319,3.672-5.544,5.977-5.544
		c1.729,0,4.607,1.009,4.607,4.464c0,0.36-0.215,0.93-0.721,0.937L68.504,629.584z M57.776,618.677
		c-2.521-0.288-2.521-0.937-6.769-0.937c-4.428,0-8.387,1.692-8.387,6.264c0,3.637,3.819,5.797,7.739,6.192
		c3.563,0.36,5.976,1.296,5.976,4.933c0,2.771-2.123,4.104-5.615,4.104c-4.068,0-6.732-1.332-7.704-4.752
		c-0.54-0.145-1.044-0.072-1.44,0.108c0.18,2.628,0.36,3.527,0.864,5.22c2.735,0,4.032,0.792,7.92,0.792
		c1.979,0,3.96-0.396,5.472-1.152c2.484-1.224,4.104-3.096,4.104-5.508c0-4.104-3.097-5.94-7.237-6.372
		c-2.753-0.288-7.055-1.584-7.055-4.464c0-2.521,2.412-4.032,4.968-4.032c4.248,0,5.651,1.944,6.517,4.212
		c0.504,0,1.043,0.036,1.439-0.216C58.424,621.412,58.209,620.477,57.776,618.677"/>
</g>
<line fill="none" stroke="#0046F9" stroke-width="2" x1="26.125" y1="581.42" x2="539.125" y2="581.42"/>
<line fill="none" stroke="#0046F9" stroke-width="2" x1="26.125" y1="784.119" x2="539.125" y2="784.119"/>
<g>
	<defs>
		<rect id="SVGID_113_" width="564" height="1002"/>
	</defs>
	<clipPath id="SVGID_8_">
		<use xlink:href="#SVGID_113_"  overflow="visible"/>
	</clipPath>
	<path clip-path="url(#SVGID_8_)" fill="#0046F9" d="M444.063,944.488c11.916-13.619,22.981-24.116,32.628-31.493
		c11.065-8.512,20.994-14.186,29.508-17.022v-6.526c-11.916-5.107-22.131-11.065-30.358-18.725
		c-16.456-15.037-27.237-25.535-31.777-31.21h-19.576c4.54,9.646,9.362,18.441,14.186,26.386
		c3.972,5.959,8.228,11.633,13.619,17.307H46.581v17.308h405.995c-7.377,9.078-11.633,15.037-13.903,18.726
		c-5.958,9.646-10.781,18.158-13.618,25.251H444.063z"/>
</g>
<line fill="none" stroke="#0046F9" stroke-width="2" x1="22.698" y1="160.594" x2="259.198" y2="160.594"/>
<g>
	<defs>
		<rect id="SVGID_115_" width="564" height="1002"/>
	</defs>
	<clipPath id="SVGID_10_">
		<use xlink:href="#SVGID_115_"  overflow="visible"/>
	</clipPath>
	<path clip-path="url(#SVGID_10_)" fill="#0046F9" d="M239.514,95.155h-3.721l1.801-35.04L239.514,95.155z M233.514,126.835l1.32-18
		h5.52l1.32,18h9.72l-7.92-88.2h-11.64l-8.041,88.2H233.514z M219.114,60.955c0-7.32-0.479-23.52-12-23.279
		c-9.601,0.239-11.159,12.959-11.159,20.639c0,6.841,2.76,15.601,5.399,22.681c5.159,12.36,7.92,18.96,7.92,26.399
		c0,5.641-0.239,8.521-2.04,8.521c-2.64,0-2.64-12.36-2.64-15.12l-9.72,1.44c0,8.04-0.24,25.56,12.359,25.56
		c10.32,0,11.88-12.6,11.88-21c0-8.88-3.239-17.279-7.56-27.72c-3.48-8.761-5.881-15-5.881-20.761c0-5.159,0.24-8.76,1.681-8.76
		c1.92,0,1.92,9.721,1.92,12.84L219.114,60.955z M178.076,126.835h9.959v-88.2h-9.959V126.835z M159.715,38.635v71.28
		c0,2.88-0.359,5.28-1.799,5.28c-1.561,0-1.92-1.92-1.92-5.28v-71.28h-9.961v71.28c0,9,2.279,17.88,11.881,17.88
		c9,0,11.76-7.92,11.76-17.88v-71.28H159.715z M129.117,109.915c0,2.399-0.48,5.28-1.681,5.28c-1.08,0-1.56-2.52-1.56-5.28v-54.36
		c0-2.879,0.24-5.279,1.56-5.279s1.681,2.52,1.681,5.279V109.915z M139.316,55.555c0-7.199-2.4-17.879-12-17.879
		c-9,0-11.641,8.76-11.641,17.879v54.36c0,7.681,2.041,17.16,10.801,17.761c0.12,0,0.24,0.119,0.48,0.119h0.959l1.44-0.24
		c0.36,0,0.72-0.119,1.08-0.24h0.12c1.32,3.361,4.08,6.24,9.72,6.24v-10.8c-1.2-0.36-2.04-1.079-2.76-2.159v-0.121
		c0.12,0.121,0,0,0-0.119c1.08-3.12,1.8-6.84,1.8-10.44V55.555z M109.558,60.955c0-7.32-0.479-23.52-12-23.279
		c-9.601,0.239-11.16,12.959-11.16,20.639c0,6.841,2.761,15.601,5.399,22.681c5.16,12.36,7.92,18.96,7.92,26.399
		c0,5.641-0.239,8.521-2.039,8.521c-2.641,0-2.641-12.36-2.641-15.12l-9.72,1.44c0,8.04-0.239,25.56,12.36,25.56
		c10.32,0,11.88-12.6,11.88-21c0-8.88-3.24-17.279-7.56-27.72c-3.48-8.761-5.881-15-5.881-20.761c0-5.159,0.24-8.76,1.68-8.76
		c1.92,0,1.92,9.721,1.92,12.84L109.558,60.955z M60,126.835h19.92v-13.319h-9.961v-24.24h7.201v-14.16h-7.201v-23.16h9.961v-13.32
		H60V126.835z M39.84,51.596c1.08,0,2.52,0,3.119,1.319c0.961,2.16,0.961,7.681,0.961,12.601s0,9.479-0.961,11.399
		c-0.6,1.2-2.16,1.44-3.119,1.44V51.596z M29.879,126.835h9.961v-35.28c3.6-0.119,7.199-1.439,9.479-5.039
		c2.641-4.201,4.201-11.521,4.201-21.48s-1.561-16.92-4.201-21.12c-2.639-4.08-5.398-5.28-9.359-5.28h-10.08V126.835z"/>
</g>
<path fill="#231F20" d="M194.803,493.16h46.199V542h-46.199V493.16z M73.362,429.8h33V318.92h-2.64l-2.641,9.68L73.362,429.8z
	 M106.362,471.6H32.883v-41.8l69.52-211.2h47.52v211.2h22v41.8h-22V542h-43.56V471.6z"/>
</svg>
