<?xml version="1.0" encoding="utf-8"?>
<!-- Generator: Adobe Illustrator 16.0.0, SVG Export Plug-In . SVG Version: 6.00 Build 0)  -->
<!DOCTYPE svg PUBLIC "-//W3C//DTD SVG 1.1//EN" "http://www.w3.org/Graphics/SVG/1.1/DTD/svg11.dtd">
<svg version="1.1" id="Layer_1" xmlns="http://www.w3.org/2000/svg" xmlns:xlink="http://www.w3.org/1999/xlink" x="0px" y="0px"
	 width="564px" height="1002px" viewBox="0 0 564 1002" enable-background="new 0 0 564 1002" xml:space="preserve">
<g>
	<defs>
		<rect id="SVGID_77_" width="564" height="1002"/>
	</defs>
	<clipPath id="SVGID_2_">
		<use xlink:href="#SVGID_77_"  overflow="visible"/>
	</clipPath>
	<path clip-path="url(#SVGID_2_)" fill="#0046F9" d="M65.862,853.543v24.654l329.619-5.342c-21.778,27.119-41.5,62.456-41.5,98.204
		l0.409,0.82c34.105-46.841,85.056-85.055,139.704-105.188v-1.233c-55.47-20.134-103.956-57.524-139.704-104.777l-0.409,0.41
		c0.82,33.693,17.257,75.604,41.5,97.793L65.862,853.543z"/>
</g>
<polygon fill="#231F20" points="52.225,38.533 129.032,38.533 129.032,490.133 230.731,490.133 230.731,561.25 52.225,561.25 "/>
<line fill="none" stroke="#0046F9" stroke-width="2" x1="303" y1="170.844" x2="539.5" y2="170.844"/>
<line fill="none" stroke="#0046F9" stroke-width="2" x1="282" y1="26.25" x2="282" y2="581.25"/>
<g>
	<defs>
		<rect id="SVGID_79_" width="564" height="1002"/>
	</defs>
	<clipPath id="SVGID_4_">
		<use xlink:href="#SVGID_79_"  overflow="visible"/>
	</clipPath>
	<polygon clip-path="url(#SVGID_4_)" fill="none" stroke="#0046F9" stroke-width="1.998" points="0.999,3 0.999,999 0.999,1001.002 
		3,1001.002 561,1001.002 563.001,1001.002 563.001,999 563.001,3 563.001,0.998 561,0.998 3,0.998 0.999,0.998 	"/>
</g>
<rect x="5.001" y="5.002" fill="none" stroke="#0046F9" stroke-width="1.998" width="553.998" height="991.996"/>
<g>
	<defs>
		<rect id="SVGID_81_" width="564" height="1002"/>
	</defs>
	<clipPath id="SVGID_6_">
		<use xlink:href="#SVGID_81_"  overflow="visible"/>
	</clipPath>
	<path clip-path="url(#SVGID_6_)" fill="#0046F9" d="M523.532,104.482h-4.317l2.09-40.668L523.532,104.482z M516.568,141.25
		l1.532-20.891h6.406l1.532,20.891h11.281l-9.192-102.365h-13.509l-9.332,102.365H516.568z M480.776,53.787
		c0.697,0,2.229-0.139,3.203,1.393c1.115,1.672,1.254,6.268,1.254,13.789c0,7.381-0.139,12.533-1.394,14.344
		c-0.695,1.115-2.089,1.533-3.063,1.533V53.787z M498.046,141.25l-7.103-49.581c3.621-4.317,5.292-13.509,5.292-23.258
		c0-19.358-4.456-29.526-15.32-29.526h-11.698V141.25h11.56V96.684l5.989,44.566H498.046z M445.122,38.885v82.729
		c0,3.342-0.417,6.128-2.089,6.128c-1.81,0-2.228-2.229-2.228-6.128V38.885h-11.561v82.729c0,10.445,2.647,20.751,13.788,20.751
		c10.446,0,13.649-9.192,13.649-20.751V38.885H445.122z M400.697,54.344v86.906h11.559V54.344h8.496V38.885h-28.551v15.459H400.697z
		 M371.312,141.25h11.56V38.885h-11.56V141.25z M337.331,141.25h23.119v-15.459h-11.56V97.658h8.355V81.225h-8.355V54.344h11.56
		V38.885h-23.119V141.25z M304.325,141.25h23.537v-13.927h-11.977V38.885h-11.561V141.25z"/>
	<path clip-path="url(#SVGID_6_)" fill="#231F20" d="M505.761,685.852c-1.331,0.957-1.996,2.294-1.996,4.01
		c0,1.145,0.308,2.062,0.924,2.755c0.615,0.693,1.452,1.315,2.508,1.865c0.417,0.22,0.995,0.462,1.732,0.727
		c0.736,0.264,1.259,0.501,1.567,0.709c0.309,0.21,0.462,0.501,0.462,0.875c0,0.813-0.605,1.221-1.814,1.221
		c-0.55,0-1.2-0.182-1.947-0.545c-0.748-0.363-1.266-0.648-1.551-0.858c-0.286-0.208-0.518-0.39-0.693-0.544l-2.376,3.993
		l0.727,0.594c0.482,0.374,1.27,0.748,2.358,1.122s2.239,0.562,3.449,0.562c5.346,0,8.019-1.926,8.019-5.775
		c0-0.813-0.153-1.54-0.462-2.178c-0.309-0.639-0.742-1.166-1.304-1.584c-0.561-0.418-1.094-0.748-1.6-0.99
		c-0.507-0.242-1.102-0.462-1.782-0.66c-0.111-0.021-0.271-0.065-0.479-0.132s-0.357-0.116-0.444-0.149
		c-0.088-0.032-0.22-0.082-0.396-0.147c-0.177-0.066-0.303-0.116-0.38-0.149s-0.181-0.082-0.312-0.147
		c-0.133-0.066-0.227-0.126-0.281-0.183c-0.055-0.054-0.115-0.119-0.181-0.197c-0.066-0.076-0.111-0.159-0.133-0.247
		s-0.032-0.177-0.032-0.265c0-0.396,0.137-0.665,0.411-0.809c0.275-0.142,0.743-0.214,1.403-0.214c1.188,0,2.442,0.352,3.762,1.056
		l1.914-3.828l-0.692-0.33c-0.462-0.22-1.167-0.439-2.112-0.659c-0.946-0.221-1.903-0.33-2.871-0.33
		C508.891,684.417,507.092,684.895,505.761,685.852 M489.014,689.399c1.099,0,2.028,0.374,2.788,1.122
		c0.759,0.748,1.139,1.705,1.139,2.871c0,1.145-0.369,2.09-1.106,2.838c-0.736,0.748-1.678,1.122-2.82,1.122
		c-1.188,0-2.146-0.368-2.871-1.105c-0.727-0.736-1.089-1.688-1.089-2.854s0.379-2.123,1.138-2.871S487.892,689.399,489.014,689.399
		 M487.265,702.336c2.244,0,4.092-0.804,5.544-2.409h0.065v1.914h5.775v-16.929h-5.841v1.616c-1.452-1.407-3.3-2.111-5.544-2.111
		c-2.442,0-4.455,0.868-6.039,2.606s-2.376,3.861-2.376,6.369s0.792,4.626,2.376,6.352
		C482.81,701.473,484.822,702.336,487.265,702.336 M474.625,701.841h-5.841v-16.93h5.841V701.841z M468.322,677.916
		c0,0.945,0.341,1.76,1.023,2.441c0.682,0.683,1.496,1.023,2.441,1.023c0.946,0,1.761-0.341,2.442-1.023
		c0.682-0.682,1.022-1.496,1.022-2.441c0-0.946-0.341-1.761-1.022-2.442s-1.496-1.023-2.442-1.023c-0.945,0-1.76,0.342-2.441,1.023
		C468.663,676.155,468.322,676.97,468.322,677.916 M463.175,689.993l1.979-3.992l-0.561-0.396c-0.396-0.264-1.067-0.528-2.014-0.792
		c-0.945-0.264-1.979-0.396-3.102-0.396c-2.486,0-4.669,0.886-6.55,2.655c-1.881,1.772-2.822,3.89-2.822,6.354
		c0,2.441,0.941,4.537,2.822,6.286s4.063,2.624,6.55,2.624c1.122,0,2.173-0.144,3.152-0.43c0.978-0.285,1.604-0.512,1.881-0.677
		c0.274-0.165,0.488-0.302,0.643-0.412l-1.979-4.059l-0.298,0.198c-0.22,0.132-0.565,0.264-1.038,0.396
		c-0.475,0.132-0.975,0.198-1.503,0.198c-1.1,0-2.046-0.407-2.838-1.221c-0.792-0.814-1.188-1.805-1.188-2.971
		c0-1.144,0.396-2.123,1.188-2.937c0.792-0.814,1.738-1.222,2.838-1.222C461.502,689.201,462.448,689.466,463.175,689.993
		 M434.035,701.841v-9.57c0-0.836,0.358-1.595,1.073-2.277c0.714-0.682,1.512-1.022,2.392-1.022c0.902,0,1.635,0.33,2.195,0.99
		c0.562,0.66,0.841,1.43,0.841,2.31v9.57h5.841v-11.154c0-1.122-0.235-2.105-0.709-2.953c-0.474-0.847-1.089-1.502-1.848-1.964
		s-1.551-0.803-2.376-1.022c-0.825-0.221-1.656-0.33-2.492-0.33c-1.716,0-3.333,0.759-4.851,2.276h-0.066v-1.781h-5.841v16.929
		H434.035z M412.981,688.971c0.572-0.506,1.342-0.759,2.31-0.759c0.881,0,1.602,0.236,2.162,0.709
		c0.562,0.474,0.907,1.149,1.039,2.029h-6.435C412.102,690.137,412.409,689.477,412.981,688.971 M424.201,693.393
		c0-2.882-0.841-5.099-2.523-6.65c-1.684-1.551-3.867-2.325-6.552-2.325c-2.552,0-4.74,0.88-6.566,2.64s-2.739,3.872-2.739,6.336
		s0.913,4.57,2.739,6.319s4.015,2.624,6.566,2.624c4.093,0,7.019-1.475,8.778-4.422l-4.224-2.112
		c-0.704,0.748-1.331,1.249-1.881,1.501c-0.551,0.254-1.299,0.38-2.244,0.38c-0.902,0-1.738-0.286-2.508-0.858
		c-0.771-0.571-1.155-1.451-1.155-2.64h12.275C424.19,694.053,424.201,693.789,424.201,693.393 M409.945,682.47l5.049-3.696
		l5.049,3.696l2.244-3.003l-7.293-5.346l-7.293,5.346L409.945,682.47z M383.744,684.912v9.471c0,2.815,0.731,4.846,2.194,6.088
		c1.463,1.244,3.79,1.865,6.979,1.865s5.517-0.621,6.979-1.865c1.463-1.242,2.195-3.272,2.195-6.088v-9.471h-5.842v8.052
		c0,1.672-0.253,2.859-0.759,3.563c-0.507,0.704-1.365,1.057-2.574,1.057c-1.21,0-2.067-0.353-2.573-1.057
		c-0.507-0.704-0.76-1.892-0.76-3.563v-8.052H383.744z M369.158,689.399c1.144,0,2.084,0.374,2.821,1.122s1.105,1.694,1.105,2.838
		c0,1.166-0.38,2.123-1.139,2.871s-1.688,1.122-2.788,1.122c-1.122,0-2.062-0.374-2.822-1.122c-0.759-0.748-1.138-1.705-1.138-2.871
		s0.363-2.117,1.089-2.854C367.014,689.769,367.971,689.399,369.158,689.399 M367.409,702.336c2.244,0,4.092-0.704,5.544-2.112
		v10.197h5.841v-25.509h-5.774v1.913h-0.066c-1.452-1.605-3.3-2.408-5.544-2.408c-2.441,0-4.455,0.863-6.039,2.59
		c-1.584,1.728-2.376,3.845-2.376,6.353s0.792,4.631,2.376,6.369S364.968,702.336,367.409,702.336 M344.937,688.971
		c0.572-0.506,1.342-0.759,2.31-0.759c0.88,0,1.601,0.236,2.161,0.709c0.562,0.474,0.908,1.149,1.04,2.029h-6.435
		C344.057,690.137,344.364,689.477,344.937,688.971 M356.156,693.393c0-2.882-0.842-5.099-2.524-6.65
		c-1.684-1.551-3.866-2.325-6.551-2.325c-2.552,0-4.74,0.88-6.566,2.64s-2.739,3.872-2.739,6.336s0.913,4.57,2.739,6.319
		s4.015,2.624,6.566,2.624c4.093,0,7.019-1.475,8.778-4.422l-4.224-2.112c-0.704,0.748-1.331,1.249-1.882,1.501
		c-0.55,0.254-1.298,0.38-2.243,0.38c-0.902,0-1.738-0.286-2.509-0.858c-0.77-0.571-1.154-1.451-1.154-2.64h12.275
		C356.146,694.053,356.156,693.789,356.156,693.393 M323.404,685.852c-1.332,0.957-1.997,2.294-1.997,4.01
		c0,1.145,0.309,2.062,0.924,2.755c0.616,0.693,1.452,1.315,2.509,1.865c0.418,0.22,0.994,0.462,1.732,0.727
		c0.737,0.264,1.259,0.501,1.567,0.709c0.308,0.21,0.462,0.501,0.462,0.875c0,0.813-0.605,1.221-1.815,1.221
		c-0.55,0-1.198-0.182-1.946-0.545s-1.266-0.648-1.552-0.858c-0.286-0.208-0.517-0.39-0.692-0.544l-2.376,3.993l0.726,0.594
		c0.484,0.374,1.271,0.748,2.36,1.122s2.237,0.562,3.447,0.562c5.347,0,8.02-1.926,8.02-5.775c0-0.813-0.154-1.54-0.462-2.178
		c-0.309-0.639-0.742-1.166-1.303-1.584c-0.562-0.418-1.096-0.748-1.602-0.99s-1.1-0.462-1.782-0.66
		c-0.109-0.021-0.269-0.065-0.478-0.132c-0.21-0.066-0.358-0.116-0.446-0.149c-0.088-0.032-0.22-0.082-0.396-0.147
		c-0.177-0.066-0.303-0.116-0.379-0.149c-0.078-0.033-0.183-0.082-0.314-0.147c-0.132-0.066-0.226-0.126-0.28-0.183
		c-0.055-0.054-0.115-0.119-0.182-0.197c-0.066-0.076-0.11-0.159-0.132-0.247c-0.022-0.088-0.033-0.177-0.033-0.265
		c0-0.396,0.137-0.665,0.413-0.809c0.275-0.142,0.742-0.214,1.402-0.214c1.188,0,2.441,0.352,3.762,1.056l1.914-3.828l-0.693-0.33
		c-0.462-0.22-1.166-0.439-2.112-0.659c-0.945-0.221-1.902-0.33-2.87-0.33C326.533,684.417,324.735,684.895,323.404,685.852
		 M295.52,685.852c-1.331,0.957-1.996,2.294-1.996,4.01c0,1.145,0.308,2.062,0.924,2.755c0.615,0.693,1.452,1.315,2.508,1.865
		c0.417,0.22,0.995,0.462,1.732,0.727c0.737,0.264,1.259,0.501,1.568,0.709c0.308,0.21,0.462,0.501,0.462,0.875
		c0,0.813-0.606,1.221-1.815,1.221c-0.55,0-1.2-0.182-1.947-0.545c-0.748-0.363-1.266-0.648-1.551-0.858
		c-0.286-0.208-0.517-0.39-0.693-0.544l-2.376,3.993l0.727,0.594c0.482,0.374,1.27,0.748,2.358,1.122
		c1.09,0.374,2.239,0.562,3.449,0.562c5.347,0,8.02-1.926,8.02-5.775c0-0.813-0.154-1.54-0.462-2.178
		c-0.31-0.639-0.743-1.166-1.305-1.584c-0.561-0.418-1.094-0.748-1.6-0.99c-0.507-0.242-1.101-0.462-1.782-0.66
		c-0.111-0.021-0.27-0.065-0.479-0.132s-0.358-0.116-0.445-0.149c-0.088-0.032-0.22-0.082-0.396-0.147
		c-0.177-0.066-0.303-0.116-0.38-0.149s-0.181-0.082-0.312-0.147c-0.132-0.066-0.227-0.126-0.281-0.183
		c-0.055-0.054-0.115-0.119-0.181-0.197c-0.066-0.076-0.111-0.159-0.132-0.247c-0.022-0.088-0.033-0.177-0.033-0.265
		c0-0.396,0.137-0.665,0.412-0.809c0.274-0.142,0.743-0.214,1.402-0.214c1.188,0,2.442,0.352,3.763,1.056l1.914-3.828l-0.693-0.33
		c-0.462-0.22-1.167-0.439-2.112-0.659c-0.945-0.221-1.902-0.33-2.871-0.33C298.649,684.417,296.851,684.895,295.52,685.852
		 M278.409,688.971c0.572-0.506,1.341-0.759,2.31-0.759c0.879,0,1.6,0.236,2.162,0.709c0.561,0.474,0.907,1.149,1.039,2.029h-6.435
		C277.529,690.137,277.836,689.477,278.409,688.971 M289.629,693.393c0-2.882-0.842-5.099-2.524-6.65
		c-1.683-1.551-3.866-2.325-6.55-2.325c-2.553,0-4.741,0.88-6.567,2.64c-1.827,1.76-2.739,3.872-2.739,6.336s0.912,4.57,2.739,6.319
		c1.826,1.749,4.014,2.624,6.567,2.624c4.092,0,7.017-1.475,8.778-4.422l-4.224-2.112c-0.705,0.748-1.332,1.249-1.881,1.501
		c-0.55,0.254-1.299,0.38-2.244,0.38c-0.903,0-1.738-0.286-2.508-0.858c-0.771-0.571-1.155-1.451-1.155-2.64h12.276
		C289.617,694.053,289.629,693.789,289.629,693.393 M256.663,684.912v4.454h2.442v6.501c0,0.814,0.088,1.579,0.264,2.293
		c0.176,0.717,0.467,1.398,0.875,2.048c0.406,0.648,1.006,1.166,1.798,1.55c0.792,0.385,1.738,0.578,2.838,0.578
		c1.606,0,3.036-0.353,4.29-1.057l-1.452-4.719l-0.198,0.132c-0.132,0.088-0.319,0.176-0.561,0.265
		c-0.242,0.088-0.473,0.132-0.693,0.132c-0.88,0-1.32-0.781-1.32-2.343v-5.38h3.564v-4.454h-3.564v-6.304h-5.841v6.304H256.663z
		 M241.021,701.841v-9.57c0-0.836,0.358-1.595,1.073-2.277c0.714-0.682,1.512-1.022,2.392-1.022c0.902,0,1.634,0.33,2.195,0.99
		c0.561,0.66,0.841,1.43,0.841,2.31v9.57h5.841v-11.154c0-1.122-0.236-2.105-0.709-2.953c-0.474-0.847-1.089-1.502-1.848-1.964
		c-0.759-0.462-1.551-0.803-2.376-1.022c-0.825-0.221-1.656-0.33-2.492-0.33c-1.716,0-3.333,0.759-4.851,2.276h-0.066v-1.781h-5.841
		v16.929H241.021z M219.966,688.971c0.572-0.506,1.342-0.759,2.31-0.759c0.88,0,1.601,0.236,2.162,0.709
		c0.561,0.474,0.907,1.149,1.039,2.029h-6.435C219.086,690.137,219.395,689.477,219.966,688.971 M231.187,693.393
		c0-2.882-0.841-5.099-2.524-6.65c-1.683-1.551-3.867-2.325-6.551-2.325c-2.552,0-4.741,0.88-6.567,2.64s-2.739,3.872-2.739,6.336
		s0.913,4.57,2.739,6.319s4.015,2.624,6.567,2.624c4.092,0,7.018-1.475,8.778-4.422l-4.224-2.112
		c-0.704,0.748-1.331,1.249-1.881,1.501c-0.55,0.254-1.298,0.38-2.244,0.38c-0.902,0-1.738-0.286-2.508-0.858
		c-0.77-0.571-1.155-1.451-1.155-2.64h12.276C231.175,694.053,231.187,693.789,231.187,693.393 M202.312,701.841v-8.91
		c0-0.176,0.043-0.418,0.132-0.726c0.087-0.309,0.236-0.683,0.445-1.122c0.209-0.44,0.566-0.814,1.073-1.122
		c0.505-0.309,1.11-0.462,1.815-0.462c1.297,0,2.31,0.308,3.036,0.924l2.442-4.95l-0.462-0.264
		c-0.287-0.177-0.738-0.353-1.353-0.528c-0.617-0.176-1.244-0.264-1.881-0.264c-0.617,0-1.221,0.104-1.815,0.312
		c-0.594,0.21-1.079,0.446-1.452,0.71c-0.375,0.264-0.726,0.562-1.056,0.892c-0.33,0.329-0.545,0.561-0.644,0.692
		s-0.171,0.242-0.214,0.33h-0.066v-2.441h-5.841v16.929H202.312z M181.258,688.971c0.571-0.506,1.341-0.759,2.31-0.759
		c0.879,0,1.6,0.236,2.161,0.709c0.561,0.474,0.908,1.149,1.04,2.029h-6.435C180.378,690.137,180.686,689.477,181.258,688.971
		 M192.479,693.393c0-2.882-0.842-5.099-2.525-6.65c-1.683-1.551-3.866-2.325-6.55-2.325c-2.553,0-4.742,0.88-6.567,2.64
		c-1.827,1.76-2.739,3.872-2.739,6.336s0.912,4.57,2.739,6.319c1.825,1.749,4.014,2.624,6.567,2.624
		c4.092,0,7.017-1.475,8.778-4.422l-4.224-2.112c-0.705,0.748-1.332,1.249-1.881,1.501c-0.55,0.254-1.299,0.38-2.244,0.38
		c-0.903,0-1.738-0.286-2.508-0.858c-0.771-0.571-1.155-1.451-1.155-2.64h12.276C192.466,694.053,192.479,693.789,192.479,693.393
		 M160.171,684.912v4.454h2.442v12.475h5.841v-12.475h3.894v-4.454h-3.894v-3.433c0-1.231,0.12-2.095,0.363-2.591
		c0.242-0.495,0.726-0.742,1.452-0.742c0.637,0,1.221,0.154,1.749,0.462l2.046-4.125l-0.561-0.362
		c-0.353-0.265-0.93-0.522-1.733-0.775c-0.803-0.253-1.645-0.38-2.524-0.38c-2.069,0-3.685,0.759-4.851,2.276
		c-1.167,1.519-1.761,3.542-1.782,6.072v3.598H160.171z M156.178,701.841h-5.841v-16.93h5.841V701.841z M149.875,677.916
		c0,0.945,0.341,1.76,1.023,2.441c0.682,0.683,1.496,1.023,2.442,1.023c0.946,0,1.76-0.341,2.442-1.023
		c0.682-0.682,1.023-1.496,1.023-2.441c0-0.946-0.341-1.761-1.023-2.442c-0.682-0.682-1.496-1.023-2.442-1.023
		c-0.946,0-1.76,0.342-2.442,1.023S149.875,676.97,149.875,677.916 M135.421,689.399c1.1,0,2.03,0.374,2.789,1.122
		c0.759,0.748,1.138,1.705,1.138,2.871c0,1.145-0.369,2.09-1.105,2.838c-0.738,0.748-1.678,1.122-2.822,1.122
		c-1.188,0-2.145-0.368-2.871-1.105c-0.726-0.736-1.089-1.688-1.089-2.854s0.38-2.123,1.139-2.871
		C133.359,689.773,134.299,689.399,135.421,689.399 M133.672,702.336c2.244,0,4.092-0.804,5.544-2.409h0.066v1.914h5.775v-28.38
		h-5.841v13.067c-1.452-1.407-3.3-2.111-5.544-2.111c-2.442,0-4.455,0.868-6.039,2.606s-2.376,3.861-2.376,6.369
		s0.792,4.626,2.376,6.352C129.217,701.473,131.23,702.336,133.672,702.336 M88.167,701.841v-9.9c0-0.77,0.225-1.436,0.676-1.996
		c0.451-0.562,1.127-0.842,2.03-0.842c0.99,0,1.732,0.303,2.227,0.907c0.495,0.605,0.743,1.358,0.743,2.261v9.57h5.841v-10.099
		c0.044-0.726,0.291-1.347,0.742-1.864c0.451-0.517,1.106-0.775,1.964-0.775c0.99,0,1.732,0.303,2.227,0.907
		c0.495,0.605,0.743,1.358,0.743,2.261v9.57h5.841v-11.154c0-2.156-0.649-3.74-1.947-4.752c-1.299-1.012-2.85-1.518-4.653-1.518
		c-2.025,0-3.894,1.033-5.61,3.102c-0.55-1.056-1.365-1.837-2.442-2.343c-1.078-0.506-2.233-0.759-3.465-0.759
		c-1.716,0-3.333,0.759-4.851,2.276h-0.066v-1.781h-5.841v16.929H88.167z M68.201,689.399c1.1,0,2.029,0.374,2.788,1.122
		c0.759,0.748,1.139,1.705,1.139,2.871c0,1.145-0.369,2.09-1.106,2.838c-0.737,0.748-1.677,1.122-2.821,1.122
		c-1.188,0-2.145-0.368-2.871-1.105c-0.726-0.736-1.089-1.688-1.089-2.854s0.379-2.123,1.138-2.871S67.08,689.399,68.201,689.399
		 M68.234,702.336c2.926,0,5.34-0.843,7.243-2.525c1.903-1.683,2.855-3.822,2.855-6.418s-0.974-4.741-2.921-6.435
		c-1.947-1.694-4.339-2.541-7.177-2.541c-2.882,0-5.302,0.841-7.26,2.523c-1.958,1.684-2.937,3.834-2.937,6.452
		s0.94,4.763,2.821,6.435C62.739,701.5,65.198,702.336,68.234,702.336 M53.583,689.993l1.98-3.992l-0.561-0.396
		c-0.396-0.264-1.067-0.528-2.013-0.792c-0.946-0.264-1.98-0.396-3.102-0.396c-2.486,0-4.669,0.886-6.55,2.655
		c-1.881,1.772-2.822,3.89-2.822,6.354c0,2.441,0.941,4.537,2.822,6.286s4.064,2.624,6.55,2.624c1.122,0,2.172-0.144,3.152-0.43
		c0.978-0.285,1.605-0.512,1.881-0.677c0.274-0.165,0.489-0.302,0.643-0.412l-1.98-4.059l-0.297,0.198
		c-0.22,0.132-0.567,0.264-1.039,0.396c-0.474,0.132-0.974,0.198-1.502,0.198c-1.1,0-2.046-0.407-2.838-1.221
		c-0.792-0.814-1.188-1.805-1.188-2.971c0-1.144,0.396-2.123,1.188-2.937c0.792-0.814,1.738-1.222,2.838-1.222
		C51.91,689.201,52.856,689.466,53.583,689.993"/>
	<path clip-path="url(#SVGID_6_)" fill="#231F20" d="M510.266,640.399c1.1,0,2.028,0.374,2.788,1.122
		c0.759,0.748,1.139,1.705,1.139,2.871c0,1.145-0.369,2.09-1.106,2.838c-0.736,0.748-1.678,1.122-2.82,1.122
		c-1.188,0-2.146-0.368-2.871-1.104c-0.727-0.737-1.089-1.689-1.089-2.855s0.379-2.123,1.138-2.871S509.144,640.399,510.266,640.399
		 M510.299,653.336c2.925,0,5.34-0.842,7.242-2.525c1.903-1.682,2.855-3.822,2.855-6.418s-0.975-4.741-2.921-6.435
		c-1.947-1.694-4.339-2.541-7.177-2.541c-2.884,0-5.303,0.842-7.261,2.524c-1.959,1.684-2.937,3.833-2.937,6.451
		s0.939,4.763,2.821,6.435C504.804,652.5,507.263,653.336,510.299,653.336 M486.406,640.399c1.101,0,2.029,0.374,2.788,1.122
		s1.139,1.705,1.139,2.871c0,1.145-0.368,2.09-1.105,2.838s-1.677,1.122-2.821,1.122c-1.188,0-2.145-0.368-2.871-1.104
		c-0.726-0.737-1.089-1.689-1.089-2.855s0.379-2.123,1.138-2.871C484.344,640.773,485.284,640.399,486.406,640.399 M484.657,653.336
		c2.244,0,4.092-0.804,5.544-2.409h0.066v1.914h5.774v-28.38h-5.841v13.067c-1.452-1.407-3.3-2.111-5.544-2.111
		c-2.441,0-4.455,0.868-6.039,2.606s-2.376,3.861-2.376,6.369s0.792,4.626,2.376,6.354
		C480.202,652.473,482.216,653.336,484.657,653.336 M465.551,652.841v-8.91c0-0.176,0.044-0.418,0.132-0.726
		c0.088-0.309,0.235-0.683,0.445-1.122c0.209-0.44,0.566-0.814,1.072-1.122c0.506-0.309,1.111-0.462,1.815-0.462
		c1.298,0,2.31,0.308,3.036,0.924l2.441-4.95l-0.462-0.264c-0.286-0.177-0.737-0.353-1.353-0.528
		c-0.616-0.176-1.243-0.264-1.881-0.264c-0.616,0-1.222,0.104-1.815,0.313s-1.078,0.445-1.452,0.709s-0.726,0.562-1.056,0.892
		c-0.33,0.329-0.544,0.561-0.644,0.692c-0.099,0.132-0.171,0.242-0.215,0.33h-0.065v-2.441h-5.842v16.929H465.551z M445.585,640.399
		c1.101,0,2.03,0.374,2.789,1.122c0.76,0.748,1.139,1.705,1.139,2.871c0,1.145-0.368,2.09-1.105,2.838s-1.678,1.122-2.822,1.122
		c-1.188,0-2.144-0.368-2.87-1.104c-0.727-0.737-1.089-1.689-1.089-2.855s0.38-2.123,1.139-2.871S444.463,640.399,445.585,640.399
		 M445.618,653.336c2.926,0,5.341-0.842,7.244-2.525c1.903-1.682,2.854-3.822,2.854-6.418s-0.974-4.741-2.92-6.435
		c-1.947-1.694-4.341-2.541-7.179-2.541c-2.882,0-5.302,0.842-7.26,2.524c-1.958,1.684-2.937,3.833-2.937,6.451
		s0.94,4.763,2.821,6.435C440.124,652.5,442.582,653.336,445.618,653.336 M430.968,640.993l1.979-3.992l-0.561-0.396
		c-0.396-0.264-1.068-0.528-2.014-0.792c-0.946-0.264-1.979-0.396-3.102-0.396c-2.487,0-4.67,0.886-6.551,2.656
		c-1.881,1.771-2.821,3.889-2.821,6.353c0,2.441,0.94,4.538,2.821,6.286c1.881,1.75,4.063,2.624,6.551,2.624
		c1.122,0,2.172-0.144,3.151-0.43c0.979-0.285,1.605-0.511,1.881-0.676c0.274-0.166,0.488-0.303,0.644-0.413l-1.979-4.059
		l-0.298,0.198c-0.221,0.132-0.566,0.264-1.039,0.396c-0.474,0.132-0.974,0.198-1.502,0.198c-1.101,0-2.046-0.407-2.838-1.221
		c-0.792-0.814-1.188-1.805-1.188-2.971c0-1.144,0.396-2.123,1.188-2.937c0.792-0.814,1.737-1.222,2.838-1.222
		C429.294,640.201,430.241,640.466,430.968,640.993 M404.204,640.399c1.1,0,2.029,0.374,2.788,1.122s1.14,1.705,1.14,2.871
		c0,1.145-0.369,2.09-1.106,2.838s-1.678,1.122-2.821,1.122c-1.188,0-2.145-0.368-2.871-1.104c-0.726-0.737-1.089-1.689-1.089-2.855
		s0.379-2.123,1.139-2.871C402.142,640.773,403.082,640.399,404.204,640.399 M402.455,653.336c2.244,0,4.093-0.804,5.544-2.409
		h0.066v1.914h5.775v-16.929h-5.842v1.616c-1.451-1.407-3.3-2.111-5.544-2.111c-2.441,0-4.455,0.868-6.039,2.606
		s-2.376,3.861-2.376,6.369s0.792,4.626,2.376,6.354C398,652.473,400.014,653.336,402.455,653.336 M369.653,639.971
		c0.572-0.506,1.342-0.759,2.31-0.759c0.88,0,1.601,0.236,2.161,0.71c0.562,0.473,0.908,1.148,1.04,2.028h-6.435
		C368.773,641.137,369.081,640.477,369.653,639.971 M380.873,644.393c0-2.882-0.842-5.099-2.524-6.649
		c-1.684-1.551-3.866-2.326-6.55-2.326c-2.554,0-4.741,0.88-6.567,2.64c-1.827,1.76-2.739,3.872-2.739,6.336
		s0.912,4.571,2.739,6.319c1.826,1.75,4.014,2.624,6.567,2.624c4.092,0,7.018-1.475,8.777-4.422l-4.224-2.112
		c-0.705,0.748-1.331,1.249-1.881,1.501c-0.55,0.254-1.299,0.38-2.244,0.38c-0.903,0-1.738-0.286-2.508-0.858
		c-0.771-0.571-1.155-1.451-1.155-2.64h12.276C380.862,645.053,380.873,644.789,380.873,644.393 M348.798,640.399
		c1.1,0,2.028,0.374,2.787,1.122c0.76,0.748,1.14,1.705,1.14,2.871c0,1.145-0.369,2.09-1.106,2.838
		c-0.736,0.748-1.677,1.122-2.82,1.122c-1.188,0-2.146-0.368-2.871-1.104c-0.727-0.737-1.09-1.689-1.09-2.855
		s0.38-2.123,1.139-2.871S347.676,640.399,348.798,640.399 M347.049,653.336c2.243,0,4.092-0.804,5.544-2.409h0.065v1.914h5.775
		v-28.38h-5.841v13.067c-1.452-1.407-3.301-2.111-5.544-2.111c-2.442,0-4.455,0.868-6.039,2.606s-2.376,3.861-2.376,6.369
		s0.792,4.626,2.376,6.354C342.594,652.473,344.606,653.336,347.049,653.336 M314.609,640.399c1.1,0,2.03,0.374,2.789,1.122
		s1.138,1.705,1.138,2.871c0,1.145-0.369,2.09-1.104,2.838c-0.738,0.748-1.679,1.122-2.822,1.122c-1.188,0-2.145-0.368-2.871-1.104
		c-0.726-0.737-1.089-1.689-1.089-2.855s0.38-2.123,1.139-2.871C312.548,640.773,313.487,640.399,314.609,640.399 M312.86,653.336
		c2.244,0,4.092-0.804,5.544-2.409h0.066v1.914h5.774v-16.929h-5.841v1.616c-1.452-1.407-3.3-2.111-5.544-2.111
		c-2.442,0-4.455,0.868-6.039,2.606s-2.376,3.861-2.376,6.369s0.792,4.626,2.376,6.354
		C308.405,652.473,310.418,653.336,312.86,653.336 M294.018,652.841v-8.91c0-0.176,0.044-0.418,0.132-0.726
		c0.088-0.309,0.237-0.683,0.446-1.122c0.209-0.44,0.565-0.814,1.071-1.122c0.507-0.309,1.111-0.462,1.815-0.462
		c1.298,0,2.31,0.308,3.036,0.924l2.441-4.95l-0.462-0.264c-0.286-0.177-0.736-0.353-1.353-0.528s-1.243-0.264-1.881-0.264
		c-0.616,0-1.222,0.104-1.815,0.313s-1.078,0.445-1.452,0.709s-0.726,0.562-1.056,0.892c-0.33,0.329-0.544,0.561-0.643,0.692
		c-0.1,0.132-0.172,0.242-0.216,0.33h-0.065v-2.441h-5.841v16.929H294.018z M273.954,648.353c-1.144,0-2.084-0.374-2.821-1.122
		s-1.106-1.693-1.106-2.838c0-1.166,0.38-2.123,1.139-2.871c0.759-0.748,1.688-1.122,2.788-1.122c1.122,0,2.063,0.374,2.822,1.122
		s1.138,1.705,1.138,2.871s-0.363,2.118-1.089,2.855C276.099,647.984,275.142,648.353,273.954,648.353 M275.702,635.417
		c-2.244,0-4.092,0.704-5.544,2.111v-13.067h-5.841v28.38h5.775v-1.914h0.066c1.452,1.605,3.3,2.409,5.544,2.409
		c2.442,0,4.455-0.863,6.039-2.59c1.584-1.728,2.376-3.846,2.376-6.354s-0.792-4.631-2.376-6.369S278.145,635.417,275.702,635.417
		 M250.128,640.399c1.099,0,2.029,0.374,2.788,1.122c0.759,0.748,1.139,1.705,1.139,2.871c0,1.145-0.369,2.09-1.106,2.838
		c-0.737,0.748-1.678,1.122-2.821,1.122c-1.188,0-2.145-0.368-2.871-1.104c-0.726-0.737-1.089-1.689-1.089-2.855
		s0.379-2.123,1.138-2.871C248.065,640.773,249.006,640.399,250.128,640.399 M250.162,653.336c2.925,0,5.34-0.842,7.243-2.525
		c1.903-1.682,2.855-3.822,2.855-6.418s-0.974-4.741-2.921-6.435c-1.947-1.694-4.339-2.541-7.177-2.541
		c-2.883,0-5.303,0.842-7.26,2.524c-1.959,1.684-2.937,3.833-2.937,6.451s0.94,4.763,2.821,6.435
		C244.667,652.5,247.125,653.336,250.162,653.336 M215.94,640.399c1.1,0,2.029,0.374,2.788,1.122
		c0.759,0.748,1.139,1.705,1.139,2.871c0,1.145-0.369,2.09-1.106,2.838c-0.737,0.748-1.678,1.122-2.821,1.122
		c-1.188,0-2.145-0.368-2.871-1.104c-0.726-0.737-1.089-1.689-1.089-2.855s0.379-2.123,1.138-2.871
		C213.877,640.773,214.818,640.399,215.94,640.399 M214.191,653.336c2.244,0,4.092-0.804,5.544-2.409h0.066v1.914h5.775v-16.929
		h-5.841v1.616c-1.452-1.407-3.3-2.111-5.544-2.111c-2.442,0-4.455,0.868-6.039,2.606s-2.376,3.861-2.376,6.369
		s0.792,4.626,2.376,6.354C209.736,652.473,211.75,653.336,214.191,653.336 M192.082,640.399c1.1,0,2.029,0.374,2.788,1.122
		c0.759,0.748,1.139,1.705,1.139,2.871c0,1.145-0.369,2.09-1.106,2.838c-0.737,0.748-1.677,1.122-2.821,1.122
		c-1.188,0-2.145-0.368-2.871-1.104c-0.726-0.737-1.089-1.689-1.089-2.855s0.379-2.123,1.138-2.871
		C190.019,640.773,190.959,640.399,192.082,640.399 M190.333,653.336c2.244,0,4.092-0.804,5.544-2.409h0.066v1.914h5.775v-28.38
		h-5.841v13.067c-1.452-1.407-3.3-2.111-5.544-2.111c-2.442,0-4.455,0.868-6.039,2.606s-2.376,3.861-2.376,6.369
		s0.792,4.626,2.376,6.354C185.877,652.473,187.891,653.336,190.333,653.336 M157.894,640.399c1.1,0,2.03,0.374,2.789,1.122
		c0.759,0.748,1.138,1.705,1.138,2.871c0,1.145-0.369,2.09-1.105,2.838c-0.738,0.748-1.678,1.122-2.822,1.122
		c-1.188,0-2.145-0.368-2.871-1.104c-0.726-0.737-1.089-1.689-1.089-2.855s0.38-2.123,1.139-2.871
		C155.832,640.773,156.771,640.399,157.894,640.399 M156.145,653.336c2.244,0,4.092-0.804,5.544-2.409h0.066v1.914h5.775v-16.929
		h-5.841v1.616c-1.452-1.407-3.3-2.111-5.544-2.111c-2.442,0-4.455,0.868-6.039,2.606s-2.376,3.861-2.376,6.369
		s0.792,4.626,2.376,6.354C151.689,652.473,153.702,653.336,156.145,653.336 M137.301,652.841v-8.91
		c0-0.176,0.044-0.418,0.132-0.726c0.088-0.309,0.237-0.683,0.446-1.122c0.209-0.44,0.566-0.814,1.072-1.122
		c0.506-0.309,1.111-0.462,1.815-0.462c1.298,0,2.31,0.308,3.036,0.924l2.442-4.95l-0.462-0.264
		c-0.286-0.177-0.737-0.353-1.353-0.528c-0.616-0.176-1.243-0.264-1.881-0.264c-0.616,0-1.221,0.104-1.815,0.313
		c-0.594,0.209-1.078,0.445-1.452,0.709s-0.726,0.562-1.056,0.892c-0.33,0.329-0.544,0.561-0.643,0.692s-0.171,0.242-0.215,0.33
		h-0.066v-2.441h-5.841v16.929H137.301z M108.164,635.912v9.471c0,2.815,0.731,4.846,2.194,6.088c1.463,1.244,3.79,1.865,6.98,1.865
		c3.189,0,5.516-0.621,6.979-1.865c1.463-1.242,2.195-3.272,2.195-6.088v-9.471h-5.841v8.052c0,1.672-0.253,2.859-0.759,3.563
		c-0.507,0.704-1.365,1.057-2.574,1.057c-1.21,0-2.068-0.353-2.574-1.057c-0.507-0.704-0.759-1.892-0.759-3.563v-8.052H108.164z
		 M92.687,635.912v4.454h2.442v6.501c0,0.814,0.088,1.579,0.264,2.295c0.176,0.715,0.467,1.396,0.875,2.046
		c0.406,0.648,1.006,1.166,1.798,1.551c0.792,0.384,1.738,0.577,2.838,0.577c1.606,0,3.036-0.353,4.29-1.057l-1.452-4.719
		l-0.198,0.132c-0.132,0.088-0.319,0.176-0.561,0.265c-0.242,0.088-0.473,0.132-0.693,0.132c-0.88,0-1.32-0.781-1.32-2.343v-5.38
		h3.564v-4.454h-3.564v-6.304h-5.841v6.304H92.687z M88.694,652.841h-5.841v-16.929h5.841V652.841z M82.392,628.916
		c0,0.945,0.34,1.76,1.023,2.441c0.681,0.683,1.495,1.023,2.442,1.023c0.945,0,1.759-0.341,2.442-1.023
		c0.681-0.682,1.023-1.496,1.023-2.441c0-0.946-0.342-1.761-1.023-2.442c-0.683-0.682-1.497-1.023-2.442-1.023
		c-0.947,0-1.761,0.342-2.442,1.023C82.731,627.155,82.392,627.97,82.392,628.916 M67.641,639.971
		c0.571-0.506,1.341-0.759,2.31-0.759c0.879,0,1.6,0.236,2.161,0.71c0.561,0.473,0.908,1.148,1.04,2.028h-6.435
		C66.759,641.137,67.067,640.477,67.641,639.971 M78.86,644.393c0-2.882-0.842-5.099-2.525-6.649s-3.867-2.326-6.55-2.326
		c-2.553,0-4.742,0.88-6.567,2.64c-1.827,1.76-2.739,3.872-2.739,6.336s0.912,4.571,2.739,6.319c1.825,1.75,4.014,2.624,6.567,2.624
		c4.092,0,7.017-1.475,8.778-4.422l-4.224-2.112c-0.705,0.748-1.332,1.249-1.881,1.501c-0.551,0.254-1.299,0.38-2.244,0.38
		c-0.903,0-1.739-0.286-2.508-0.858c-0.771-0.571-1.155-1.451-1.155-2.64h12.276C78.849,645.053,78.86,644.789,78.86,644.393
		 M41.735,625.615v27.226h15.576v-5.445h-9.372v-21.78H41.735z"/>
</g>
<line fill="none" stroke="#0046F9" stroke-width="2" x1="26.5" y1="601.67" x2="539.5" y2="601.67"/>
<line fill="none" stroke="#0046F9" stroke-width="2" x1="26.5" y1="730.264" x2="539.5" y2="730.264"/>
<g>
	<defs>
		<rect id="SVGID_83_" width="564" height="1002"/>
	</defs>
	<clipPath id="SVGID_8_">
		<use xlink:href="#SVGID_83_"  overflow="visible"/>
	</clipPath>
	<path clip-path="url(#SVGID_8_)" fill="#231F20" d="M464.66,506.882h51.43v54.368h-51.43V506.882z M314.782,279.122v-33.798
		c22.041-4.407,35.266-15.672,44.571-25.469c4.898-5.877,8.817-12.246,11.757-18.612h31.837V561.25h-52.899V279.122H314.782z"/>
</g>
</svg>
