<?xml version="1.0" encoding="utf-8"?>
<!-- Generator: Adobe Illustrator 16.0.0, SVG Export Plug-In . SVG Version: 6.00 Build 0)  -->
<!DOCTYPE svg PUBLIC "-//W3C//DTD SVG 1.1//EN" "http://www.w3.org/Graphics/SVG/1.1/DTD/svg11.dtd">
<svg version="1.1" id="Layer_1" xmlns="http://www.w3.org/2000/svg" xmlns:xlink="http://www.w3.org/1999/xlink" x="0px" y="0px"
	 width="1170.09px" height="525.04px" viewBox="0 0 1170.09 525.04" enable-background="new 0 0 1170.09 525.04"
	 xml:space="preserve">
<g>
	<defs>
		<rect id="SVGID_33_" width="1170.088" height="525.039"/>
	</defs>
	<clipPath id="SVGID_2_">
		<use xlink:href="#SVGID_33_"  overflow="visible"/>
	</clipPath>
	<polygon clip-path="url(#SVGID_2_)" fill="none" stroke="#231F20" stroke-width="1.998" points="0.999,2.998 0.999,522.037 
		0.999,524.039 3,524.039 1167.087,524.039 1169.088,524.039 1169.088,522.037 1169.088,2.998 1169.088,0.996 1167.087,0.996 
		3,0.996 0.999,0.996 	"/>
</g>
<rect x="5.001" y="5" fill="none" stroke="#231F20" stroke-width="1.998" width="1160.085" height="515.035"/>
<g>
	<defs>
		<rect id="SVGID_35_" width="1170.088" height="525.039"/>
	</defs>
	<clipPath id="SVGID_4_">
		<use xlink:href="#SVGID_35_"  overflow="visible"/>
	</clipPath>
	<path clip-path="url(#SVGID_4_)" fill="#FF1419" d="M1116.748,126.882h-6.174l2.988-58.15L1116.748,126.882z M1106.791,179.457
		l2.19-29.872h9.161l2.191,29.872h16.131L1123.32,33.085h-19.316l-13.344,146.372H1106.791z M1055.611,54.394
		c0.996,0,3.188-0.199,4.581,1.991c1.593,2.39,1.792,8.962,1.792,19.716c0,10.555-0.199,17.922-1.991,20.512
		c-0.996,1.593-2.987,2.19-4.382,2.19V54.394z M1080.307,179.457l-10.157-70.896c5.178-6.174,7.568-19.317,7.568-33.258
		c0-27.682-6.373-42.219-21.906-42.219h-16.729v146.372h16.529v-63.728l8.564,63.728H1080.307z M1004.631,33.085v118.292
		c0,4.78-0.598,8.763-2.987,8.763c-2.589,0-3.187-3.187-3.187-8.763V33.085h-16.529v118.292c0,14.937,3.784,29.673,19.716,29.673
		c14.936,0,19.516-13.143,19.516-29.673V33.085H1004.631z M941.105,55.19v124.267h16.529V55.19h12.147V33.085h-40.825V55.19H941.105
		z M902.074,129.272v22.104c0,2.788-0.199,8.763-3.385,8.763c-2.39,0-2.788-5.975-2.788-8.763V60.368
		c0-3.188,0.199-7.967,2.788-7.967c3.186,0,3.385,6.174,3.385,8.763v22.104h16.131V61.164c0-10.354-3.783-29.673-19.715-29.673
		c-14.936,0-19.517,16.729-19.517,29.673v90.213c0,12.944,3.982,29.673,19.517,29.673c15.135,0,19.715-14.338,19.715-29.673v-22.104
		H902.074z M831.579,179.457h33.059v-22.104h-16.529v-40.229h11.949V93.625h-11.949V55.19h16.529V33.085h-33.059V179.457z
		 M784.385,179.457h33.655v-19.915h-17.127V33.085h-16.528V179.457z"/>
	<path clip-path="url(#SVGID_4_)" fill="#231F20" d="M606.611,468.196c0.228-0.342,0.531-0.627,0.912-0.854
		c0.38-0.229,0.816-0.399,1.311-0.514c0.494-0.113,1.007-0.171,1.539-0.171c1.368,0,2.475,0.342,3.325,1.026
		c0.848,0.684,1.335,1.634,1.463,2.85l2.812-0.684c-0.102-0.709-0.322-1.418-0.665-2.128c-0.342-0.709-0.83-1.336-1.463-1.881
		c-0.634-0.544-1.419-0.988-2.355-1.33c-0.938-0.342-2.027-0.514-3.269-0.514c-0.888,0-1.735,0.114-2.546,0.343
		c-0.812,0.228-1.539,0.569-2.185,1.025c-0.646,0.456-1.159,1.021-1.539,1.691c-0.38,0.672-0.57,1.451-0.57,2.337v0.228
		c0,1.647,0.582,2.901,1.748,3.763c1.164,0.861,2.836,1.368,5.016,1.52c1.874,0.127,3.23,0.418,4.066,0.874s1.254,1.216,1.254,2.28
		c0,0.988-0.425,1.755-1.272,2.299c-0.85,0.545-1.972,0.817-3.363,0.817c-1.648,0-2.964-0.438-3.952-1.312s-1.546-2.033-1.672-3.477
		l-2.812,0.684c0.051,0.836,0.252,1.666,0.608,2.489c0.354,0.824,0.879,1.558,1.577,2.204c0.696,0.646,1.57,1.166,2.622,1.558
		c1.051,0.393,2.311,0.589,3.78,0.589c1.089,0,2.097-0.133,3.021-0.398c0.924-0.267,1.71-0.652,2.356-1.159
		c0.646-0.506,1.151-1.121,1.52-1.843c0.366-0.723,0.551-1.539,0.551-2.451v-0.229c0-1.672-0.577-2.944-1.729-3.818
		c-1.154-0.874-2.831-1.399-5.035-1.577c-2.052-0.152-3.465-0.468-4.237-0.95c-0.772-0.48-1.159-1.178-1.159-2.09
		C606.269,468.938,606.383,468.538,606.611,468.196 M582.31,479.292c-1.128-1.202-1.691-2.881-1.691-5.034v-0.608
		c0-1.013,0.152-1.944,0.456-2.793c0.304-0.848,0.728-1.57,1.273-2.166c0.544-0.595,1.184-1.057,1.919-1.387
		c0.734-0.329,1.544-0.494,2.432-0.494c0.86,0,1.665,0.171,2.413,0.513c0.746,0.342,1.392,0.817,1.938,1.425
		c0.544,0.608,0.969,1.337,1.273,2.186c0.304,0.849,0.456,1.78,0.456,2.793v0.456c0,1.039-0.152,1.982-0.456,2.831
		c-0.305,0.849-0.723,1.577-1.254,2.185c-0.532,0.608-1.173,1.077-1.919,1.406c-0.748,0.33-1.565,0.494-2.451,0.494
		C584.9,481.098,583.436,480.496,582.31,479.292 M592.779,480.413c0,0.862,0.271,1.571,0.816,2.128
		c0.544,0.559,1.247,0.837,2.109,0.837h2.014v-2.736h-0.95c-0.684,0-1.025-0.38-1.025-1.14v-14.973h-2.964v2.964h-0.456
		c-0.608-1.189-1.439-2.07-2.489-2.641c-1.052-0.57-2.223-0.855-3.515-0.855c-1.191,0-2.318,0.217-3.382,0.646
		c-1.064,0.431-1.995,1.058-2.793,1.881c-0.798,0.824-1.425,1.831-1.881,3.021c-0.456,1.19-0.684,2.559-0.684,4.104v0.608
		c0,1.57,0.228,2.951,0.684,4.142c0.456,1.191,1.083,2.198,1.881,3.021c0.798,0.823,1.729,1.443,2.793,1.861
		s2.216,0.627,3.458,0.627c1.19,0,2.324-0.304,3.401-0.912c1.076-0.607,1.919-1.545,2.527-2.812h0.456V480.413z M556.299,483.378
		h15.732v-2.736h-6.156v-16.112h-8.892v2.736h5.928v13.376h-6.612V483.378z M562.474,460.786c0.519,0.521,1.146,0.779,1.881,0.779
		c0.734,0,1.361-0.259,1.881-0.779c0.519-0.519,0.779-1.146,0.779-1.881c0-0.733-0.26-1.36-0.779-1.881
		c-0.52-0.519-1.147-0.779-1.881-0.779c-0.735,0-1.362,0.261-1.881,0.779c-0.52,0.521-0.779,1.147-0.779,1.881
		C561.695,459.641,561.954,460.268,562.474,460.786 M547.255,476.006c-0.102,0.658-0.298,1.292-0.589,1.899
		c-0.292,0.608-0.684,1.147-1.178,1.615c-0.494,0.469-1.09,0.849-1.786,1.14c-0.697,0.292-1.514,0.438-2.451,0.438
		c-0.938,0-1.812-0.158-2.622-0.476c-0.811-0.315-1.52-0.766-2.128-1.349c-0.608-0.582-1.083-1.298-1.425-2.146
		c-0.342-0.849-0.513-1.806-0.513-2.869v-0.456c0-1.014,0.171-1.95,0.513-2.812c0.342-0.86,0.817-1.602,1.425-2.223
		c0.608-0.62,1.311-1.103,2.109-1.444c0.798-0.342,1.653-0.513,2.565-0.513c0.937,0,1.76,0.14,2.47,0.418
		c0.709,0.279,1.311,0.653,1.805,1.121c0.494,0.469,0.886,1.014,1.178,1.634c0.291,0.621,0.475,1.261,0.551,1.919l2.964-0.684
		c-0.178-1.038-0.513-2.001-1.007-2.889c-0.494-0.886-1.128-1.652-1.9-2.299c-0.773-0.646-1.666-1.146-2.679-1.501
		c-1.014-0.354-2.116-0.532-3.306-0.532c-1.318,0-2.565,0.229-3.743,0.685c-1.178,0.456-2.211,1.102-3.097,1.938
		c-0.887,0.836-1.59,1.862-2.109,3.078c-0.52,1.216-0.779,2.584-0.779,4.104v0.456c0,1.546,0.259,2.914,0.779,4.104
		c0.519,1.191,1.222,2.198,2.109,3.021c0.886,0.823,1.919,1.45,3.097,1.881c1.178,0.43,2.425,0.646,3.743,0.646
		c1.241,0,2.368-0.178,3.382-0.531c1.013-0.354,1.9-0.855,2.66-1.501c0.76-0.646,1.387-1.412,1.881-2.3
		c0.494-0.886,0.842-1.849,1.045-2.888L547.255,476.006z M512.295,473.573c0-2.052,0.513-3.691,1.539-4.921
		c1.026-1.228,2.438-1.843,4.237-1.843c1.52,0,2.723,0.494,3.61,1.481c0.886,0.988,1.33,2.471,1.33,4.446v10.641h2.964V472.13
		c0-2.71-0.646-4.743-1.938-6.1c-1.292-1.354-3.028-2.033-5.206-2.033c-2.888,0-4.915,1.242-6.08,3.725h-0.456v-3.192h-2.964v18.849
		h2.964V473.573z M496.696,467.189c0.696,0.254,1.317,0.608,1.862,1.064c0.544,0.455,0.988,1.014,1.33,1.672
		c0.342,0.658,0.538,1.394,0.589,2.204h-12.16c0.101-0.761,0.323-1.464,0.665-2.109c0.342-0.646,0.785-1.209,1.33-1.691
		c0.544-0.48,1.178-0.854,1.9-1.121c0.722-0.266,1.501-0.398,2.337-0.398C495.283,466.81,495.999,466.937,496.696,467.189
		 M503.441,474.865v-2.432c0-0.836-0.171-1.748-0.513-2.736c-0.342-0.988-0.874-1.899-1.596-2.735
		c-0.722-0.837-1.647-1.539-2.774-2.109c-1.128-0.57-2.464-0.855-4.009-0.855c-1.318,0-2.54,0.235-3.667,0.703
		c-1.128,0.47-2.109,1.115-2.945,1.938c-0.836,0.824-1.489,1.805-1.957,2.944c-0.469,1.141-0.703,2.369-0.703,3.687v0.912
		c0,1.443,0.228,2.762,0.684,3.952s1.089,2.217,1.9,3.078c0.81,0.861,1.779,1.526,2.907,1.994c1.127,0.469,2.362,0.703,3.705,0.703
		c2.432,0,4.363-0.551,5.795-1.652c1.431-1.103,2.413-2.527,2.945-4.275l-2.812-0.76c-0.178,0.532-0.412,1.033-0.703,1.501
		c-0.292,0.469-0.672,0.881-1.14,1.234c-0.469,0.355-1.033,0.635-1.691,0.837c-0.659,0.202-1.432,0.304-2.318,0.304
		c-1.951,0-3.471-0.57-4.56-1.71c-1.09-1.141-1.672-2.647-1.748-4.522H503.441z M476.271,474.333c0,2.053-0.513,3.693-1.539,4.922
		s-2.439,1.843-4.237,1.843c-1.672,0-2.914-0.456-3.724-1.368c-0.811-0.912-1.216-2.356-1.216-4.332v-10.868h-2.964v11.248
		c0,1.343,0.171,2.521,0.513,3.534c0.342,1.014,0.823,1.862,1.444,2.546c0.62,0.684,1.368,1.197,2.242,1.539s1.83,0.513,2.869,0.513
		c1.52,0,2.774-0.354,3.762-1.063c0.988-0.709,1.786-1.672,2.394-2.889h0.456v3.421h2.964v-18.849h-2.964V474.333z M454.231,476.006
		c-0.102,0.658-0.298,1.292-0.589,1.899c-0.292,0.608-0.684,1.147-1.178,1.615c-0.494,0.469-1.09,0.849-1.786,1.14
		c-0.697,0.292-1.514,0.438-2.451,0.438c-0.938,0-1.812-0.158-2.622-0.476c-0.811-0.315-1.52-0.766-2.128-1.349
		c-0.608-0.582-1.083-1.298-1.425-2.146c-0.342-0.849-0.513-1.806-0.513-2.869v-0.456c0-1.014,0.171-1.95,0.513-2.812
		c0.342-0.86,0.817-1.602,1.425-2.223c0.608-0.62,1.311-1.103,2.109-1.444s1.653-0.513,2.565-0.513c0.937,0,1.76,0.14,2.47,0.418
		c0.709,0.279,1.311,0.653,1.805,1.121c0.494,0.469,0.886,1.014,1.178,1.634c0.291,0.621,0.475,1.261,0.551,1.919l2.964-0.684
		c-0.178-1.038-0.513-2.001-1.007-2.889c-0.494-0.886-1.128-1.652-1.9-2.299c-0.773-0.646-1.666-1.146-2.679-1.501
		c-1.014-0.354-2.116-0.532-3.306-0.532c-1.318,0-2.565,0.229-3.743,0.685c-1.178,0.456-2.211,1.102-3.097,1.938
		c-0.887,0.836-1.59,1.862-2.109,3.078c-0.52,1.216-0.779,2.584-0.779,4.104v0.456c0,1.546,0.259,2.914,0.779,4.104
		c0.519,1.191,1.222,2.198,2.109,3.021c0.886,0.823,1.919,1.45,3.097,1.881c1.178,0.43,2.425,0.646,3.743,0.646
		c1.241,0,2.368-0.178,3.382-0.531c1.013-0.354,1.9-0.855,2.66-1.501c0.76-0.646,1.387-1.412,1.881-2.3
		c0.494-0.886,0.842-1.849,1.045-2.888L454.231,476.006z M426.928,467.189c0.696,0.254,1.317,0.608,1.862,1.064
		c0.544,0.455,0.988,1.014,1.33,1.672c0.342,0.658,0.538,1.394,0.589,2.204h-12.16c0.101-0.761,0.323-1.464,0.665-2.109
		c0.342-0.646,0.785-1.209,1.33-1.691c0.544-0.48,1.178-0.854,1.9-1.121c0.722-0.266,1.501-0.398,2.337-0.398
		C425.515,466.81,426.231,466.937,426.928,467.189 M433.673,474.865v-2.432c0-0.836-0.171-1.748-0.513-2.736
		c-0.342-0.988-0.874-1.899-1.596-2.735c-0.722-0.837-1.647-1.539-2.774-2.109c-1.128-0.57-2.464-0.855-4.009-0.855
		c-1.318,0-2.54,0.235-3.667,0.703c-1.128,0.47-2.109,1.115-2.945,1.938c-0.836,0.824-1.489,1.805-1.957,2.944
		c-0.469,1.141-0.703,2.369-0.703,3.687v0.912c0,1.443,0.228,2.762,0.684,3.952s1.089,2.217,1.9,3.078
		c0.81,0.861,1.779,1.526,2.907,1.994c1.127,0.469,2.362,0.703,3.705,0.703c2.432,0,4.363-0.551,5.795-1.652
		c1.431-1.103,2.413-2.527,2.945-4.275l-2.812-0.76c-0.178,0.532-0.412,1.033-0.703,1.501c-0.292,0.469-0.672,0.881-1.14,1.234
		c-0.469,0.355-1.033,0.635-1.691,0.837c-0.659,0.202-1.432,0.304-2.318,0.304c-1.951,0-3.471-0.57-4.56-1.71
		c-1.09-1.141-1.672-2.647-1.748-4.522H433.673z M397.307,468.196c0.228-0.342,0.532-0.627,0.912-0.854
		c0.38-0.229,0.817-0.399,1.311-0.514c0.494-0.113,1.007-0.171,1.539-0.171c1.368,0,2.476,0.342,3.325,1.026
		c0.848,0.684,1.336,1.634,1.463,2.85l2.812-0.684c-0.102-0.709-0.323-1.418-0.665-2.128c-0.342-0.709-0.83-1.336-1.463-1.881
		c-0.634-0.544-1.419-0.988-2.356-1.33c-0.938-0.342-2.027-0.514-3.268-0.514c-0.887,0-1.736,0.114-2.546,0.343
		c-0.811,0.228-1.539,0.569-2.185,1.025s-1.159,1.021-1.539,1.691c-0.38,0.672-0.57,1.451-0.57,2.337v0.228
		c0,1.647,0.582,2.901,1.748,3.763c1.165,0.861,2.837,1.368,5.016,1.52c1.874,0.127,3.23,0.418,4.066,0.874
		c0.836,0.456,1.254,1.216,1.254,2.28c0,0.988-0.425,1.755-1.273,2.299c-0.849,0.545-1.97,0.817-3.363,0.817
		c-1.647,0-2.964-0.438-3.952-1.312c-0.988-0.874-1.546-2.033-1.672-3.477l-2.812,0.684c0.05,0.836,0.253,1.666,0.608,2.489
		c0.354,0.824,0.88,1.558,1.577,2.204c0.696,0.646,1.57,1.166,2.622,1.558c1.051,0.393,2.311,0.589,3.781,0.589
		c1.089,0,2.096-0.133,3.021-0.398c0.924-0.267,1.71-0.652,2.356-1.159c0.646-0.506,1.152-1.121,1.52-1.843
		c0.367-0.723,0.551-1.539,0.551-2.451v-0.229c0-1.672-0.577-2.944-1.729-3.818c-1.153-0.874-2.831-1.399-5.035-1.577
		c-2.052-0.152-3.465-0.468-4.237-0.95c-0.773-0.48-1.159-1.178-1.159-2.09C396.965,468.938,397.079,468.538,397.307,468.196
		 M350.795,468.196c0.228-0.342,0.532-0.627,0.912-0.854c0.38-0.229,0.817-0.399,1.311-0.514c0.494-0.113,1.007-0.171,1.539-0.171
		c1.368,0,2.476,0.342,3.325,1.026c0.848,0.684,1.336,1.634,1.463,2.85l2.812-0.684c-0.102-0.709-0.323-1.418-0.665-2.128
		c-0.342-0.709-0.83-1.336-1.463-1.881c-0.634-0.544-1.419-0.988-2.356-1.33c-0.938-0.342-2.027-0.514-3.268-0.514
		c-0.887,0-1.736,0.114-2.546,0.343c-0.811,0.228-1.539,0.569-2.185,1.025s-1.159,1.021-1.539,1.691
		c-0.38,0.672-0.57,1.451-0.57,2.337v0.228c0,1.647,0.582,2.901,1.748,3.763c1.165,0.861,2.837,1.368,5.016,1.52
		c1.874,0.127,3.23,0.418,4.066,0.874s1.254,1.216,1.254,2.28c0,0.988-0.425,1.755-1.273,2.299c-0.849,0.545-1.97,0.817-3.363,0.817
		c-1.647,0-2.964-0.438-3.952-1.312s-1.546-2.033-1.672-3.477l-2.812,0.684c0.05,0.836,0.253,1.666,0.608,2.489
		c0.354,0.824,0.88,1.558,1.577,2.204c0.696,0.646,1.57,1.166,2.622,1.558c1.051,0.393,2.311,0.589,3.781,0.589
		c1.089,0,2.096-0.133,3.021-0.398c0.924-0.267,1.71-0.652,2.356-1.159c0.646-0.506,1.152-1.121,1.52-1.843
		c0.367-0.723,0.551-1.539,0.551-2.451v-0.229c0-1.672-0.577-2.944-1.729-3.818c-1.153-0.874-2.831-1.399-5.035-1.577
		c-2.052-0.152-3.465-0.468-4.237-0.95c-0.773-0.48-1.159-1.178-1.159-2.09C350.453,468.938,350.567,468.538,350.795,468.196
		 M333.904,467.189c0.696,0.254,1.317,0.608,1.862,1.064c0.544,0.455,0.988,1.014,1.33,1.672c0.342,0.658,0.538,1.394,0.589,2.204
		h-12.16c0.101-0.761,0.323-1.464,0.665-2.109c0.342-0.646,0.785-1.209,1.33-1.691c0.544-0.48,1.178-0.854,1.9-1.121
		c0.722-0.266,1.501-0.398,2.337-0.398C332.491,466.81,333.207,466.937,333.904,467.189 M340.649,474.865v-2.432
		c0-0.836-0.171-1.748-0.513-2.736c-0.342-0.988-0.874-1.899-1.596-2.735c-0.722-0.837-1.647-1.539-2.774-2.109
		c-1.128-0.57-2.464-0.855-4.009-0.855c-1.318,0-2.54,0.235-3.667,0.703c-1.128,0.47-2.109,1.115-2.945,1.938
		c-0.836,0.824-1.489,1.805-1.957,2.944c-0.469,1.141-0.703,2.369-0.703,3.687v0.912c0,1.443,0.228,2.762,0.684,3.952
		s1.089,2.217,1.9,3.078c0.81,0.861,1.779,1.526,2.907,1.994c1.127,0.469,2.362,0.703,3.705,0.703c2.432,0,4.363-0.551,5.795-1.652
		c1.431-1.103,2.413-2.527,2.945-4.275l-2.812-0.76c-0.178,0.532-0.412,1.033-0.703,1.501c-0.292,0.469-0.672,0.881-1.14,1.234
		c-0.469,0.355-1.033,0.635-1.691,0.837c-0.659,0.202-1.432,0.304-2.318,0.304c-1.951,0-3.471-0.57-4.56-1.71
		c-1.09-1.141-1.672-2.647-1.748-4.522H340.649z M299.381,467.266h5.928v13.147c0,0.862,0.272,1.571,0.817,2.128
		c0.544,0.559,1.247,0.837,2.109,0.837h6.422v-2.736h-5.358c-0.684,0-1.026-0.38-1.026-1.14v-12.236h7.296v-2.736h-7.296v-7.752
		h-2.964v7.752h-5.928V467.266z M279.735,473.573c0-2.052,0.513-3.691,1.539-4.921c1.026-1.228,2.438-1.843,4.237-1.843
		c1.52,0,2.723,0.494,3.61,1.481c0.886,0.988,1.33,2.471,1.33,4.446v10.641h2.964V472.13c0-2.71-0.646-4.743-1.938-6.1
		c-1.292-1.354-3.028-2.033-5.206-2.033c-2.888,0-4.915,1.242-6.08,3.725h-0.456v-3.192h-2.964v18.849h2.964V473.573z
		 M264.136,467.189c0.696,0.254,1.317,0.608,1.862,1.064c0.544,0.455,0.988,1.014,1.33,1.672c0.342,0.658,0.538,1.394,0.589,2.204
		h-12.16c0.101-0.761,0.323-1.464,0.665-2.109c0.342-0.646,0.785-1.209,1.33-1.691c0.544-0.48,1.178-0.854,1.9-1.121
		c0.722-0.266,1.501-0.398,2.337-0.398C262.723,466.81,263.439,466.937,264.136,467.189 M270.881,474.865v-2.432
		c0-0.836-0.171-1.748-0.513-2.736c-0.342-0.988-0.874-1.899-1.596-2.735c-0.722-0.837-1.647-1.539-2.774-2.109
		c-1.128-0.57-2.464-0.855-4.009-0.855c-1.318,0-2.54,0.235-3.667,0.703c-1.128,0.47-2.109,1.115-2.945,1.938
		c-0.836,0.824-1.489,1.805-1.957,2.944c-0.469,1.141-0.703,2.369-0.703,3.687v0.912c0,1.443,0.228,2.762,0.684,3.952
		s1.089,2.217,1.9,3.078c0.81,0.861,1.779,1.526,2.907,1.994c1.127,0.469,2.362,0.703,3.705,0.703c2.432,0,4.363-0.551,5.795-1.652
		c1.431-1.103,2.413-2.527,2.945-4.275l-2.812-0.76c-0.178,0.532-0.412,1.033-0.703,1.501c-0.292,0.469-0.672,0.881-1.14,1.234
		c-0.469,0.355-1.033,0.635-1.691,0.837c-0.659,0.202-1.432,0.304-2.318,0.304c-1.951,0-3.471-0.57-4.56-1.71
		c-1.09-1.141-1.672-2.647-1.748-4.522H270.881z M229.195,467.266h3.876v13.376h-4.332v2.736h12.084v-2.736h-4.788v-7.98
		c0-0.81,0.088-1.569,0.266-2.279c0.177-0.709,0.456-1.33,0.836-1.862c0.38-0.532,0.855-0.95,1.425-1.254s1.247-0.456,2.033-0.456
		c1.216,0,2.242,0.387,3.078,1.159s1.254,2.033,1.254,3.78l3.116-0.455c-0.076-2.382-0.697-4.192-1.862-5.435
		c-1.166-1.241-2.698-1.862-4.598-1.862c-1.14,0-2.154,0.247-3.04,0.741c-0.887,0.494-1.571,1.261-2.052,2.299h-0.456v-2.508h-6.84
		V467.266z M217.624,467.189c0.696,0.254,1.317,0.608,1.862,1.064c0.544,0.455,0.988,1.014,1.33,1.672
		c0.342,0.658,0.538,1.394,0.589,2.204h-12.16c0.101-0.761,0.323-1.464,0.665-2.109c0.342-0.646,0.785-1.209,1.33-1.691
		c0.544-0.48,1.178-0.854,1.9-1.121c0.722-0.266,1.501-0.398,2.337-0.398C216.211,466.81,216.927,466.937,217.624,467.189
		 M224.369,474.865v-2.432c0-0.836-0.171-1.748-0.513-2.736c-0.342-0.988-0.874-1.899-1.596-2.735
		c-0.722-0.837-1.647-1.539-2.774-2.109c-1.128-0.57-2.464-0.855-4.009-0.855c-1.318,0-2.54,0.235-3.667,0.703
		c-1.128,0.47-2.109,1.115-2.945,1.938c-0.836,0.824-1.489,1.805-1.957,2.944c-0.469,1.141-0.703,2.369-0.703,3.687v0.912
		c0,1.443,0.228,2.762,0.684,3.952s1.089,2.217,1.9,3.078c0.81,0.861,1.779,1.526,2.907,1.994c1.127,0.469,2.362,0.703,3.705,0.703
		c2.432,0,4.363-0.551,5.795-1.652c1.431-1.103,2.413-2.527,2.945-4.275l-2.812-0.76c-0.178,0.532-0.412,1.033-0.703,1.501
		c-0.292,0.469-0.672,0.881-1.14,1.234c-0.469,0.355-1.033,0.635-1.691,0.837c-0.659,0.202-1.432,0.304-2.318,0.304
		c-1.951,0-3.471-0.57-4.56-1.71c-1.09-1.141-1.672-2.647-1.748-4.522H224.369z M183.557,467.266h5.814v16.112h2.964v-16.112h7.866
		v-2.736h-7.866v-3.876c0-0.76,0.342-1.14,1.026-1.14h6.384v-2.736h-7.448c-0.862,0-1.565,0.279-2.109,0.836
		c-0.545,0.559-0.817,1.268-0.817,2.128v4.788h-5.814V467.266z M160.947,483.378h15.732v-2.736h-6.156v-16.112h-8.892v2.736h5.928
		v13.376h-6.612V483.378z M167.122,460.786c0.519,0.521,1.146,0.779,1.881,0.779c0.734,0,1.361-0.259,1.881-0.779
		c0.519-0.519,0.779-1.146,0.779-1.881c0-0.733-0.26-1.36-0.779-1.881c-0.52-0.519-1.147-0.779-1.881-0.779
		c-0.735,0-1.362,0.261-1.881,0.779c-0.52,0.521-0.779,1.147-0.779,1.881C166.343,459.641,166.602,460.268,167.122,460.786
		 M143.011,480.622c-0.76-0.315-1.425-0.771-1.995-1.367c-0.57-0.596-1.014-1.312-1.33-2.147c-0.317-0.836-0.475-1.786-0.475-2.85
		v-0.608c0-1.013,0.158-1.938,0.475-2.774c0.316-0.836,0.76-1.558,1.33-2.166c0.57-0.607,1.241-1.075,2.014-1.405
		c0.772-0.329,1.602-0.494,2.489-0.494c0.861,0,1.678,0.171,2.451,0.513c0.772,0.342,1.444,0.817,2.014,1.425
		c0.57,0.608,1.019,1.337,1.349,2.186c0.329,0.849,0.494,1.78,0.494,2.793v0.456c0,1.039-0.165,1.982-0.494,2.831
		c-0.33,0.849-0.779,1.577-1.349,2.185c-0.57,0.608-1.235,1.077-1.995,1.406c-0.76,0.33-1.584,0.494-2.47,0.494
		C144.607,481.098,143.771,480.939,143.011,480.622 M151.827,483.378h2.964v-26.601h-2.964v10.716h-0.456
		c-0.608-1.189-1.476-2.07-2.603-2.641c-1.128-0.57-2.337-0.855-3.629-0.855c-1.216,0-2.369,0.217-3.458,0.646
		c-1.09,0.431-2.04,1.058-2.85,1.881c-0.811,0.824-1.457,1.837-1.938,3.04c-0.482,1.204-0.722,2.565-0.722,4.085v0.608
		c0,1.546,0.234,2.92,0.703,4.123c0.468,1.203,1.114,2.211,1.938,3.021c0.823,0.812,1.779,1.432,2.869,1.862
		c1.089,0.43,2.267,0.646,3.534,0.646c0.557,0,1.14-0.069,1.748-0.209s1.184-0.348,1.729-0.627c0.544-0.277,1.051-0.633,1.52-1.063
		c0.468-0.431,0.855-0.938,1.159-1.521h0.456V483.378z M93.687,473.573c0-2.052,0.513-3.691,1.539-4.921
		c1.026-1.228,2.438-1.843,4.237-1.843c1.52,0,2.723,0.494,3.61,1.481c0.886,0.988,1.33,2.471,1.33,4.446v10.641h2.964V472.13
		c0-2.71-0.646-4.743-1.938-6.1c-1.292-1.354-3.028-2.033-5.206-2.033c-2.888,0-4.915,1.242-6.08,3.725h-0.456v-3.192h-2.964v18.849
		h2.964V473.573z M73.262,480.622c-0.773-0.315-1.451-0.778-2.033-1.387c-0.583-0.607-1.039-1.336-1.368-2.185
		c-0.33-0.849-0.494-1.806-0.494-2.869v-0.456c0-1.013,0.164-1.944,0.494-2.793c0.329-0.849,0.785-1.577,1.368-2.186
		c0.582-0.607,1.266-1.083,2.052-1.425c0.785-0.342,1.621-0.513,2.508-0.513c0.886,0,1.722,0.171,2.508,0.513
		c0.785,0.342,1.469,0.817,2.052,1.425c0.582,0.608,1.038,1.337,1.368,2.186c0.329,0.849,0.494,1.78,0.494,2.793v0.456
		c0,1.063-0.165,2.021-0.494,2.869c-0.33,0.849-0.786,1.577-1.368,2.185c-0.583,0.608-1.261,1.071-2.033,1.387
		c-0.773,0.317-1.615,0.476-2.527,0.476S74.034,480.939,73.262,480.622 M85.251,473.726c0-1.545-0.26-2.919-0.779-4.123
		c-0.52-1.203-1.216-2.223-2.09-3.059c-0.874-0.837-1.881-1.47-3.021-1.9c-1.14-0.43-2.331-0.646-3.572-0.646
		c-1.242,0-2.432,0.217-3.572,0.646c-1.14,0.431-2.147,1.063-3.021,1.9c-0.874,0.836-1.571,1.855-2.09,3.059
		c-0.52,1.204-0.779,2.578-0.779,4.123v0.456c0,1.571,0.259,2.958,0.779,4.161c0.519,1.204,1.209,2.217,2.071,3.04
		c0.861,0.823,1.862,1.45,3.002,1.881c1.14,0.43,2.343,0.646,3.61,0.646c1.241,0,2.438-0.216,3.591-0.646
		c1.152-0.431,2.159-1.058,3.021-1.881c0.861-0.823,1.551-1.836,2.071-3.04c0.519-1.203,0.779-2.59,0.779-4.161V473.726z
		 M58.879,476.006c-0.102,0.658-0.298,1.292-0.589,1.899c-0.292,0.608-0.684,1.147-1.178,1.615c-0.494,0.469-1.09,0.849-1.786,1.14
		c-0.697,0.292-1.514,0.438-2.451,0.438c-0.938,0-1.812-0.158-2.622-0.476c-0.811-0.315-1.52-0.766-2.128-1.349
		c-0.608-0.582-1.083-1.298-1.425-2.146c-0.342-0.849-0.513-1.806-0.513-2.869v-0.456c0-1.014,0.171-1.95,0.513-2.812
		c0.342-0.86,0.817-1.602,1.425-2.223c0.608-0.62,1.311-1.103,2.109-1.444c0.798-0.342,1.653-0.513,2.565-0.513
		c0.937,0,1.76,0.14,2.47,0.418c0.709,0.279,1.311,0.653,1.805,1.121c0.494,0.469,0.886,1.014,1.178,1.634
		c0.291,0.621,0.475,1.261,0.551,1.919l2.964-0.684c-0.178-1.038-0.513-2.001-1.007-2.889c-0.494-0.886-1.128-1.652-1.9-2.299
		c-0.773-0.646-1.666-1.146-2.679-1.501c-1.014-0.354-2.116-0.532-3.306-0.532c-1.318,0-2.565,0.229-3.743,0.685
		c-1.178,0.456-2.211,1.102-3.097,1.938c-0.887,0.836-1.59,1.862-2.109,3.078c-0.52,1.216-0.779,2.584-0.779,4.104v0.456
		c0,1.546,0.259,2.914,0.779,4.104c0.519,1.191,1.222,2.198,2.109,3.021c0.886,0.823,1.919,1.45,3.097,1.881
		c1.178,0.43,2.425,0.646,3.743,0.646c1.241,0,2.368-0.178,3.382-0.531c1.013-0.354,1.9-0.855,2.66-1.501
		c0.76-0.646,1.387-1.412,1.881-2.3c0.494-0.886,0.842-1.849,1.045-2.888L58.879,476.006z"/>
	<path clip-path="url(#SVGID_4_)" fill="#231F20" d="M701.174,421.871c-0.773-0.315-1.451-0.778-2.034-1.387
		c-0.583-0.607-1.039-1.336-1.366-2.185c-0.33-0.849-0.494-1.806-0.494-2.869v-0.456c0-1.013,0.164-1.944,0.494-2.793
		c0.327-0.849,0.783-1.577,1.366-2.186c0.583-0.607,1.268-1.083,2.053-1.425c0.784-0.342,1.62-0.513,2.509-0.513
		c0.886,0,1.722,0.171,2.507,0.513s1.469,0.817,2.052,1.425c0.583,0.608,1.039,1.337,1.368,2.186s0.494,1.78,0.494,2.793v0.456
		c0,1.063-0.165,2.021-0.494,2.869s-0.785,1.577-1.368,2.185c-0.583,0.608-1.26,1.071-2.033,1.387
		c-0.772,0.317-1.614,0.476-2.525,0.476C702.789,422.347,701.946,422.188,701.174,421.871 M713.163,414.975
		c0-1.545-0.261-2.919-0.78-4.123c-0.519-1.203-1.216-2.223-2.089-3.06c-0.875-0.836-1.881-1.469-3.021-1.899
		c-1.141-0.43-2.332-0.646-3.572-0.646c-1.242,0-2.434,0.217-3.573,0.646c-1.14,0.431-2.146,1.063-3.021,1.899
		c-0.874,0.837-1.571,1.856-2.09,3.06c-0.52,1.204-0.779,2.578-0.779,4.123v0.456c0,1.571,0.26,2.958,0.779,4.161
		c0.519,1.204,1.209,2.217,2.07,3.04s1.863,1.45,3.003,1.881c1.141,0.43,2.342,0.646,3.61,0.646c1.24,0,2.437-0.216,3.59-0.646
		c1.153-0.431,2.16-1.058,3.021-1.881c0.86-0.823,1.552-1.836,2.07-3.04c0.52-1.203,0.78-2.59,0.78-4.161V414.975z M677.898,421.871
		c-0.761-0.315-1.426-0.771-1.994-1.367c-0.57-0.596-1.015-1.312-1.33-2.147c-0.318-0.836-0.477-1.786-0.477-2.85v-0.608
		c0-1.013,0.158-1.938,0.477-2.774c0.315-0.836,0.76-1.558,1.33-2.166c0.568-0.607,1.239-1.075,2.014-1.405
		c0.772-0.329,1.601-0.494,2.489-0.494c0.859,0,1.677,0.171,2.45,0.513c0.772,0.342,1.443,0.817,2.015,1.425
		c0.569,0.608,1.019,1.337,1.349,2.186c0.328,0.849,0.494,1.78,0.494,2.793v0.456c0,1.039-0.166,1.982-0.494,2.831
		c-0.33,0.849-0.779,1.577-1.349,2.185c-0.571,0.608-1.235,1.077-1.995,1.406c-0.76,0.33-1.584,0.494-2.47,0.494
		C679.494,422.347,678.659,422.188,677.898,421.871 M686.715,424.627h2.964v-26.601h-2.964v10.716h-0.457
		c-0.607-1.189-1.476-2.07-2.603-2.641s-2.336-0.855-3.628-0.855c-1.218,0-2.37,0.217-3.458,0.646
		c-1.091,0.431-2.04,1.058-2.852,1.881c-0.811,0.824-1.457,1.837-1.938,3.04c-0.481,1.204-0.722,2.565-0.722,4.085v0.608
		c0,1.546,0.233,2.92,0.703,4.123c0.469,1.203,1.114,2.211,1.938,3.021c0.821,0.812,1.778,1.432,2.869,1.862
		c1.088,0.43,2.266,0.646,3.532,0.646c0.558,0,1.141-0.069,1.749-0.209s1.184-0.348,1.729-0.627c0.544-0.277,1.05-0.633,1.52-1.063
		c0.469-0.431,0.855-0.938,1.158-1.521h0.457V424.627z M647.803,408.515h3.876v13.376h-4.333v2.736h12.084v-2.736h-4.787v-7.98
		c0-0.81,0.089-1.569,0.267-2.279c0.177-0.709,0.456-1.33,0.836-1.862s0.854-0.95,1.424-1.254c0.571-0.304,1.248-0.456,2.034-0.456
		c1.216,0,2.242,0.387,3.077,1.159c0.837,0.772,1.254,2.032,1.254,3.78l3.117-0.456c-0.076-2.381-0.698-4.191-1.862-5.434
		c-1.166-1.241-2.698-1.862-4.599-1.862c-1.141,0-2.153,0.247-3.039,0.741c-0.889,0.494-1.572,1.261-2.053,2.299h-0.456v-2.508
		h-6.84V408.515z M636.232,408.438c0.695,0.254,1.316,0.608,1.861,1.064c0.544,0.455,0.987,1.014,1.33,1.672
		c0.342,0.658,0.537,1.394,0.589,2.204h-12.161c0.102-0.761,0.323-1.464,0.666-2.109c0.343-0.646,0.784-1.209,1.33-1.691
		c0.544-0.48,1.179-0.854,1.899-1.121c0.723-0.266,1.501-0.398,2.338-0.398C634.819,408.059,635.534,408.186,636.232,408.438
		 M642.977,416.114v-2.432c0-0.836-0.172-1.748-0.513-2.736c-0.342-0.988-0.874-1.899-1.597-2.735
		c-0.721-0.837-1.646-1.539-2.773-2.109c-1.128-0.57-2.465-0.855-4.009-0.855c-1.318,0-2.541,0.235-3.667,0.703
		c-1.128,0.47-2.109,1.115-2.945,1.938c-0.836,0.824-1.488,1.805-1.957,2.944c-0.47,1.141-0.703,2.369-0.703,3.687v0.912
		c0,1.443,0.229,2.762,0.685,3.952s1.089,2.217,1.899,3.078s1.779,1.526,2.907,1.994c1.126,0.469,2.361,0.703,3.704,0.703
		c2.433,0,4.364-0.551,5.796-1.652c1.431-1.103,2.412-2.527,2.944-4.275l-2.811-0.76c-0.179,0.532-0.413,1.033-0.703,1.501
		c-0.292,0.469-0.672,0.881-1.141,1.234c-0.47,0.355-1.033,0.635-1.69,0.836c-0.66,0.203-1.433,0.305-2.318,0.305
		c-1.952,0-3.472-0.57-4.561-1.71c-1.09-1.141-1.673-2.647-1.747-4.522H642.977z M615.807,415.582c0,2.053-0.513,3.693-1.539,4.922
		c-1.025,1.229-2.438,1.843-4.236,1.843c-1.672,0-2.914-0.456-3.725-1.368s-1.216-2.356-1.216-4.332v-10.868h-2.964v11.248
		c0,1.343,0.171,2.521,0.513,3.534c0.343,1.014,0.822,1.862,1.444,2.546c0.62,0.684,1.368,1.197,2.242,1.539
		s1.829,0.513,2.869,0.513c1.52,0,2.773-0.354,3.762-1.063s1.785-1.672,2.394-2.889h0.456v3.421h2.965v-18.849h-2.965V415.582z
		 M593.767,417.255c-0.102,0.658-0.298,1.292-0.589,1.899c-0.292,0.608-0.684,1.147-1.178,1.615c-0.494,0.469-1.09,0.849-1.786,1.14
		c-0.697,0.292-1.514,0.438-2.451,0.438s-1.812-0.158-2.622-0.476c-0.811-0.315-1.52-0.766-2.128-1.349
		c-0.608-0.582-1.083-1.298-1.425-2.147c-0.342-0.848-0.513-1.805-0.513-2.868v-0.456c0-1.014,0.171-1.95,0.513-2.812
		c0.342-0.86,0.817-1.602,1.425-2.223c0.608-0.62,1.311-1.103,2.109-1.444s1.653-0.513,2.565-0.513c0.936,0,1.76,0.14,2.47,0.418
		c0.709,0.279,1.311,0.653,1.805,1.121c0.494,0.469,0.886,1.014,1.178,1.634c0.29,0.621,0.476,1.261,0.552,1.919l2.964-0.684
		c-0.179-1.038-0.514-2.001-1.007-2.889c-0.494-0.886-1.129-1.652-1.9-2.299c-0.773-0.646-1.667-1.146-2.679-1.501
		c-1.015-0.354-2.116-0.532-3.307-0.532c-1.317,0-2.564,0.229-3.743,0.685s-2.211,1.102-3.097,1.938
		c-0.888,0.836-1.591,1.862-2.109,3.078c-0.52,1.216-0.779,2.584-0.779,4.104v0.456c0,1.546,0.259,2.914,0.779,4.104
		c0.518,1.191,1.221,2.198,2.109,3.021c0.886,0.823,1.919,1.45,3.097,1.881c1.178,0.43,2.425,0.646,3.743,0.646
		c1.24,0,2.368-0.178,3.382-0.531c1.014-0.354,1.9-0.855,2.66-1.502c0.761-0.646,1.388-1.411,1.881-2.299
		c0.494-0.886,0.843-1.849,1.046-2.888L593.767,417.255z M559.054,420.541c-1.128-1.202-1.691-2.881-1.691-5.034v-0.608
		c0-1.013,0.152-1.944,0.456-2.793c0.304-0.848,0.728-1.57,1.273-2.166c0.544-0.595,1.184-1.057,1.919-1.387
		c0.734-0.329,1.544-0.494,2.432-0.494c0.861,0,1.665,0.171,2.413,0.513c0.746,0.342,1.392,0.817,1.938,1.425
		c0.544,0.608,0.969,1.337,1.273,2.186c0.304,0.849,0.456,1.78,0.456,2.793v0.456c0,1.039-0.152,1.982-0.456,2.831
		c-0.304,0.849-0.722,1.577-1.254,2.185c-0.532,0.608-1.172,1.077-1.919,1.406c-0.748,0.33-1.565,0.494-2.451,0.494
		C561.643,422.347,560.18,421.745,559.054,420.541 M569.523,421.662c0,0.862,0.271,1.571,0.817,2.128
		c0.544,0.559,1.247,0.837,2.109,0.837h2.014v-2.736h-0.95c-0.684,0-1.026-0.38-1.026-1.141v-14.972h-2.964v2.964h-0.456
		c-0.608-1.189-1.439-2.07-2.489-2.641c-1.052-0.57-2.223-0.855-3.515-0.855c-1.191,0-2.318,0.217-3.382,0.646
		c-1.064,0.431-1.995,1.058-2.793,1.881c-0.798,0.824-1.425,1.831-1.881,3.021s-0.684,2.559-0.684,4.104v0.608
		c0,1.57,0.228,2.951,0.684,4.142c0.456,1.191,1.083,2.198,1.881,3.021c0.798,0.823,1.729,1.443,2.793,1.861
		s2.216,0.627,3.458,0.627c1.19,0,2.324-0.304,3.401-0.912c1.076-0.607,1.919-1.545,2.527-2.812h0.456V421.662z M519.952,408.438
		c0.696,0.254,1.317,0.608,1.862,1.064c0.544,0.455,0.988,1.014,1.33,1.672c0.342,0.658,0.538,1.394,0.589,2.204h-12.16
		c0.101-0.761,0.323-1.464,0.665-2.109c0.342-0.646,0.785-1.209,1.33-1.691c0.544-0.48,1.178-0.854,1.9-1.121
		c0.722-0.266,1.501-0.398,2.337-0.398C518.539,408.059,519.255,408.186,519.952,408.438 M526.697,416.114v-2.432
		c0-0.836-0.171-1.748-0.513-2.736c-0.342-0.988-0.874-1.899-1.596-2.735c-0.722-0.837-1.647-1.539-2.774-2.109
		c-1.128-0.57-2.464-0.855-4.009-0.855c-1.318,0-2.54,0.235-3.667,0.703c-1.128,0.47-2.109,1.115-2.945,1.938
		c-0.836,0.824-1.489,1.805-1.957,2.944c-0.469,1.141-0.703,2.369-0.703,3.687v0.912c0,1.443,0.228,2.762,0.684,3.952
		s1.089,2.217,1.9,3.078c0.81,0.861,1.779,1.526,2.907,1.994c1.127,0.469,2.362,0.703,3.705,0.703c2.432,0,4.363-0.551,5.795-1.652
		c1.431-1.103,2.413-2.527,2.945-4.275l-2.812-0.76c-0.178,0.532-0.412,1.033-0.703,1.501c-0.292,0.469-0.672,0.881-1.14,1.234
		c-0.469,0.355-1.033,0.635-1.691,0.836c-0.659,0.203-1.432,0.305-2.318,0.305c-1.951,0-3.471-0.57-4.56-1.71
		c-1.09-1.141-1.672-2.647-1.748-4.522H526.697z M491.851,421.871c-0.76-0.315-1.425-0.771-1.995-1.367s-1.014-1.312-1.33-2.147
		c-0.317-0.836-0.475-1.786-0.475-2.85v-0.608c0-1.013,0.158-1.938,0.475-2.774c0.316-0.836,0.76-1.558,1.33-2.166
		c0.57-0.607,1.241-1.075,2.014-1.405c0.772-0.329,1.602-0.494,2.489-0.494c0.861,0,1.678,0.171,2.451,0.513
		c0.772,0.342,1.444,0.817,2.014,1.425c0.57,0.608,1.019,1.337,1.349,2.186c0.329,0.849,0.494,1.78,0.494,2.793v0.456
		c0,1.039-0.165,1.982-0.494,2.831c-0.33,0.849-0.779,1.577-1.349,2.185c-0.57,0.608-1.235,1.077-1.995,1.406
		c-0.76,0.33-1.584,0.494-2.47,0.494C493.447,422.347,492.611,422.188,491.851,421.871 M500.667,424.627h2.964v-26.601h-2.964
		v10.716h-0.456c-0.608-1.189-1.476-2.07-2.603-2.641c-1.128-0.57-2.337-0.855-3.629-0.855c-1.216,0-2.369,0.217-3.458,0.646
		c-1.09,0.431-2.04,1.058-2.85,1.881c-0.811,0.824-1.457,1.837-1.938,3.04c-0.482,1.204-0.722,2.565-0.722,4.085v0.608
		c0,1.546,0.234,2.92,0.703,4.123c0.468,1.203,1.114,2.211,1.938,3.021c0.823,0.812,1.779,1.432,2.869,1.862
		c1.089,0.43,2.267,0.646,3.534,0.646c0.557,0,1.14-0.069,1.748-0.209c0.608-0.14,1.184-0.348,1.729-0.627
		c0.544-0.277,1.051-0.633,1.52-1.063c0.468-0.431,0.855-0.938,1.159-1.521h0.456V424.627z M442.774,420.541
		c-1.128-1.202-1.691-2.881-1.691-5.034v-0.608c0-1.013,0.152-1.944,0.456-2.793c0.304-0.848,0.728-1.57,1.273-2.166
		c0.544-0.595,1.184-1.057,1.919-1.387c0.734-0.329,1.545-0.494,2.432-0.494c0.861,0,1.665,0.171,2.413,0.513
		c0.747,0.342,1.393,0.817,1.938,1.425c0.544,0.608,0.969,1.337,1.273,2.186c0.304,0.849,0.456,1.78,0.456,2.793v0.456
		c0,1.039-0.152,1.982-0.456,2.831c-0.304,0.849-0.722,1.577-1.254,2.185c-0.532,0.608-1.172,1.077-1.919,1.406
		c-0.748,0.33-1.565,0.494-2.451,0.494C445.364,422.347,443.901,421.745,442.774,420.541 M453.243,421.662
		c0,0.862,0.272,1.571,0.817,2.128c0.544,0.559,1.247,0.837,2.109,0.837h2.014v-2.736h-0.95c-0.684,0-1.026-0.38-1.026-1.141
		v-14.972h-2.964v2.964h-0.456c-0.608-1.189-1.438-2.07-2.489-2.641c-1.052-0.57-2.223-0.855-3.515-0.855
		c-1.191,0-2.318,0.217-3.382,0.646c-1.064,0.431-1.995,1.058-2.793,1.881c-0.798,0.824-1.425,1.831-1.881,3.021
		s-0.684,2.559-0.684,4.104v0.608c0,1.57,0.228,2.951,0.684,4.142c0.456,1.191,1.083,2.198,1.881,3.021
		c0.798,0.823,1.729,1.443,2.793,1.861s2.216,0.627,3.458,0.627c1.19,0,2.324-0.304,3.401-0.912
		c1.076-0.607,1.919-1.545,2.527-2.812h0.456V421.662z M415.243,408.515h3.876v13.376h-4.332v2.736h12.084v-2.736h-4.788v-7.98
		c0-0.81,0.088-1.569,0.266-2.279c0.177-0.709,0.456-1.33,0.836-1.862s0.855-0.95,1.425-1.254c0.57-0.304,1.247-0.456,2.033-0.456
		c1.216,0,2.242,0.387,3.078,1.159c0.836,0.772,1.254,2.032,1.254,3.78l3.116-0.456c-0.076-2.381-0.697-4.191-1.862-5.434
		c-1.166-1.241-2.698-1.862-4.598-1.862c-1.14,0-2.154,0.247-3.04,0.741c-0.887,0.494-1.571,1.261-2.052,2.299h-0.456v-2.508h-6.84
		V408.515z M399.169,421.853c-0.76-0.329-1.425-0.798-1.995-1.406c-0.57-0.607-1.02-1.336-1.349-2.185
		c-0.33-0.849-0.494-1.792-0.494-2.831v-0.456c0-1.013,0.164-1.944,0.494-2.793c0.329-0.849,0.779-1.577,1.349-2.186
		c0.57-0.607,1.235-1.083,1.995-1.425c0.76-0.342,1.583-0.513,2.47-0.513c0.886,0,1.716,0.165,2.489,0.494
		c0.772,0.33,1.444,0.792,2.014,1.387c0.57,0.596,1.013,1.305,1.33,2.128c0.316,0.824,0.475,1.742,0.475,2.755v0.76
		c0,1.039-0.159,1.977-0.475,2.812c-0.317,0.836-0.76,1.546-1.33,2.128c-0.57,0.583-1.235,1.033-1.995,1.349
		c-0.76,0.317-1.596,0.476-2.508,0.476C400.752,422.347,399.929,422.183,399.169,421.853 M395.331,421.738h0.456
		c0.329,0.583,0.734,1.083,1.216,1.501c0.481,0.418,1.007,0.773,1.577,1.064c0.57,0.292,1.171,0.506,1.805,0.646
		c0.633,0.14,1.254,0.209,1.862,0.209c1.19,0,2.318-0.209,3.382-0.627s1.995-1.032,2.793-1.843c0.798-0.81,1.425-1.811,1.881-3.002
		c0.456-1.19,0.684-2.558,0.684-4.104v-0.76c0-1.52-0.235-2.875-0.703-4.065c-0.469-1.19-1.102-2.191-1.9-3.002
		c-0.798-0.811-1.717-1.432-2.755-1.862c-1.039-0.43-2.141-0.646-3.306-0.646c-1.368,0-2.635,0.299-3.8,0.894
		c-1.166,0.596-2.078,1.463-2.736,2.603h-0.456v-10.716h-2.964v26.601h2.964V421.738z M375.59,421.871
		c-0.773-0.315-1.451-0.778-2.033-1.387c-0.583-0.607-1.039-1.336-1.368-2.185c-0.33-0.849-0.494-1.806-0.494-2.869v-0.456
		c0-1.013,0.164-1.944,0.494-2.793c0.329-0.849,0.785-1.577,1.368-2.186c0.582-0.607,1.266-1.083,2.052-1.425
		c0.785-0.342,1.621-0.513,2.508-0.513c0.886,0,1.722,0.171,2.508,0.513c0.785,0.342,1.469,0.817,2.052,1.425
		c0.582,0.608,1.038,1.337,1.368,2.186c0.329,0.849,0.494,1.78,0.494,2.793v0.456c0,1.063-0.165,2.021-0.494,2.869
		c-0.33,0.849-0.786,1.577-1.368,2.185c-0.583,0.608-1.261,1.071-2.033,1.387c-0.773,0.317-1.615,0.476-2.527,0.476
		C377.205,422.347,376.362,422.188,375.59,421.871 M387.579,414.975c0-1.545-0.26-2.919-0.779-4.123
		c-0.52-1.203-1.216-2.223-2.09-3.06c-0.874-0.836-1.881-1.469-3.021-1.899c-1.14-0.43-2.331-0.646-3.572-0.646
		c-1.242,0-2.432,0.217-3.572,0.646c-1.14,0.431-2.147,1.063-3.021,1.899c-0.874,0.837-1.571,1.856-2.09,3.06
		c-0.52,1.204-0.779,2.578-0.779,4.123v0.456c0,1.571,0.259,2.958,0.779,4.161c0.519,1.204,1.209,2.217,2.071,3.04
		c0.861,0.823,1.862,1.45,3.002,1.881c1.14,0.43,2.343,0.646,3.61,0.646c1.241,0,2.438-0.216,3.591-0.646
		c1.152-0.431,2.159-1.058,3.021-1.881c0.861-0.823,1.551-1.836,2.071-3.04c0.519-1.203,0.779-2.59,0.779-4.161V414.975z
		 M326.494,420.541c-1.128-1.202-1.691-2.881-1.691-5.034v-0.608c0-1.013,0.152-1.944,0.456-2.793
		c0.304-0.848,0.728-1.57,1.273-2.166c0.544-0.595,1.184-1.057,1.919-1.387c0.734-0.329,1.545-0.494,2.432-0.494
		c0.861,0,1.665,0.171,2.413,0.513c0.747,0.342,1.393,0.817,1.938,1.425c0.544,0.608,0.969,1.337,1.273,2.186
		c0.304,0.849,0.456,1.78,0.456,2.793v0.456c0,1.039-0.152,1.982-0.456,2.831c-0.304,0.849-0.722,1.577-1.254,2.185
		c-0.532,0.608-1.172,1.077-1.919,1.406c-0.748,0.33-1.565,0.494-2.451,0.494C329.084,422.347,327.621,421.745,326.494,420.541
		 M336.963,421.662c0,0.862,0.272,1.571,0.817,2.128c0.544,0.559,1.247,0.837,2.109,0.837h2.014v-2.736h-0.95
		c-0.684,0-1.026-0.38-1.026-1.141v-14.972h-2.964v2.964h-0.456c-0.608-1.189-1.438-2.07-2.489-2.641
		c-1.052-0.57-2.223-0.855-3.515-0.855c-1.191,0-2.318,0.217-3.382,0.646c-1.064,0.431-1.995,1.058-2.793,1.881
		c-0.798,0.824-1.425,1.831-1.881,3.021c-0.456,1.19-0.684,2.559-0.684,4.104v0.608c0,1.57,0.228,2.951,0.684,4.142
		c0.456,1.191,1.083,2.198,1.881,3.021c0.798,0.823,1.729,1.443,2.793,1.861s2.216,0.627,3.458,0.627
		c1.19,0,2.324-0.304,3.401-0.912c1.076-0.607,1.919-1.545,2.527-2.812h0.456V421.662z M300.027,424.627h16.644v-2.736h-6.84
		v-23.864h-9.576v2.736h6.612v21.128h-6.84V424.627z M264.136,408.438c0.696,0.254,1.317,0.608,1.862,1.064
		c0.544,0.455,0.988,1.014,1.33,1.672c0.342,0.658,0.538,1.394,0.589,2.204h-12.16c0.101-0.761,0.323-1.464,0.665-2.109
		c0.342-0.646,0.785-1.209,1.33-1.691c0.544-0.48,1.178-0.854,1.9-1.121c0.722-0.266,1.501-0.398,2.337-0.398
		C262.723,408.059,263.439,408.186,264.136,408.438 M270.881,416.114v-2.432c0-0.836-0.171-1.748-0.513-2.736
		c-0.342-0.988-0.874-1.899-1.596-2.735c-0.722-0.837-1.647-1.539-2.774-2.109c-1.128-0.57-2.464-0.855-4.009-0.855
		c-1.318,0-2.54,0.235-3.667,0.703c-1.128,0.47-2.109,1.115-2.945,1.938c-0.836,0.824-1.489,1.805-1.957,2.944
		c-0.469,1.141-0.703,2.369-0.703,3.687v0.912c0,1.443,0.228,2.762,0.684,3.952s1.089,2.217,1.9,3.078
		c0.81,0.861,1.779,1.526,2.907,1.994c1.127,0.469,2.362,0.703,3.705,0.703c2.432,0,4.363-0.551,5.795-1.652
		c1.431-1.103,2.413-2.527,2.945-4.275l-2.812-0.76c-0.178,0.532-0.412,1.033-0.703,1.501c-0.292,0.469-0.672,0.881-1.14,1.234
		c-0.469,0.355-1.033,0.635-1.691,0.836c-0.659,0.203-1.432,0.305-2.318,0.305c-1.951,0-3.471-0.57-4.56-1.71
		c-1.09-1.141-1.672-2.647-1.748-4.522H270.881z M236.035,421.871c-0.76-0.315-1.425-0.771-1.995-1.367s-1.014-1.312-1.33-2.147
		c-0.317-0.836-0.475-1.786-0.475-2.85v-0.608c0-1.013,0.158-1.938,0.475-2.774c0.316-0.836,0.76-1.558,1.33-2.166
		c0.57-0.607,1.241-1.075,2.014-1.405c0.772-0.329,1.602-0.494,2.489-0.494c0.861,0,1.678,0.171,2.451,0.513
		c0.772,0.342,1.444,0.817,2.014,1.425c0.57,0.608,1.019,1.337,1.349,2.186c0.329,0.849,0.494,1.78,0.494,2.793v0.456
		c0,1.039-0.165,1.982-0.494,2.831c-0.33,0.849-0.779,1.577-1.349,2.185c-0.57,0.608-1.235,1.077-1.995,1.406
		c-0.76,0.33-1.584,0.494-2.47,0.494C237.631,422.347,236.795,422.188,236.035,421.871 M244.851,424.627h2.964v-26.601h-2.964
		v10.716h-0.456c-0.608-1.189-1.476-2.07-2.603-2.641c-1.128-0.57-2.337-0.855-3.629-0.855c-1.216,0-2.369,0.217-3.458,0.646
		c-1.09,0.431-2.04,1.058-2.85,1.881c-0.811,0.824-1.457,1.837-1.938,3.04c-0.482,1.204-0.722,2.565-0.722,4.085v0.608
		c0,1.546,0.234,2.92,0.703,4.123c0.468,1.203,1.114,2.211,1.938,3.021c0.823,0.812,1.779,1.432,2.869,1.862
		c1.089,0.43,2.267,0.646,3.534,0.646c0.557,0,1.14-0.069,1.748-0.209c0.608-0.14,1.184-0.348,1.729-0.627
		c0.544-0.277,1.051-0.633,1.52-1.063c0.468-0.431,0.855-0.938,1.159-1.521h0.456V424.627z M186.958,420.541
		c-1.128-1.202-1.691-2.881-1.691-5.034v-0.608c0-1.013,0.152-1.944,0.456-2.793c0.304-0.848,0.728-1.57,1.273-2.166
		c0.544-0.595,1.184-1.057,1.919-1.387c0.734-0.329,1.545-0.494,2.432-0.494c0.861,0,1.665,0.171,2.413,0.513
		c0.747,0.342,1.393,0.817,1.938,1.425c0.544,0.608,0.969,1.337,1.273,2.186c0.304,0.849,0.456,1.78,0.456,2.793v0.456
		c0,1.039-0.152,1.982-0.456,2.831c-0.304,0.849-0.722,1.577-1.254,2.185c-0.532,0.608-1.172,1.077-1.919,1.406
		c-0.748,0.33-1.565,0.494-2.451,0.494C189.548,422.347,188.085,421.745,186.958,420.541 M197.427,421.662
		c0,0.862,0.272,1.571,0.817,2.128c0.544,0.559,1.247,0.837,2.109,0.837h2.014v-2.736h-0.95c-0.684,0-1.026-0.38-1.026-1.141
		v-14.972h-2.964v2.964h-0.456c-0.608-1.189-1.438-2.07-2.489-2.641c-1.052-0.57-2.223-0.855-3.515-0.855
		c-1.191,0-2.318,0.217-3.382,0.646c-1.064,0.431-1.995,1.058-2.793,1.881c-0.798,0.824-1.425,1.831-1.881,3.021
		s-0.684,2.559-0.684,4.104v0.608c0,1.57,0.228,2.951,0.684,4.142c0.456,1.191,1.083,2.198,1.881,3.021s1.729,1.443,2.793,1.861
		s2.216,0.627,3.458,0.627c1.19,0,2.324-0.304,3.401-0.912c1.076-0.607,1.919-1.545,2.527-2.812h0.456V421.662z M159.427,408.515
		h3.876v13.376h-4.332v2.736h12.084v-2.736h-4.788v-7.98c0-0.81,0.088-1.569,0.266-2.279c0.177-0.709,0.456-1.33,0.836-1.862
		c0.38-0.532,0.855-0.95,1.425-1.254s1.247-0.456,2.033-0.456c1.216,0,2.242,0.387,3.078,1.159c0.836,0.772,1.254,2.032,1.254,3.78
		l3.116-0.456c-0.076-2.381-0.697-4.191-1.862-5.434c-1.166-1.241-2.698-1.862-4.598-1.862c-1.14,0-2.154,0.247-3.04,0.741
		c-0.887,0.494-1.571,1.261-2.052,2.299h-0.456v-2.508h-6.84V408.515z M150.687,415.582c0,2.053-0.513,3.693-1.539,4.922
		s-2.439,1.843-4.237,1.843c-1.672,0-2.914-0.456-3.724-1.368c-0.811-0.912-1.216-2.356-1.216-4.332v-10.868h-2.964v11.248
		c0,1.343,0.171,2.521,0.513,3.534c0.342,1.014,0.823,1.862,1.444,2.546c0.62,0.684,1.368,1.197,2.242,1.539s1.83,0.513,2.869,0.513
		c1.52,0,2.774-0.354,3.762-1.063c0.988-0.709,1.786-1.672,2.394-2.889h0.456v3.421h2.964v-18.849h-2.964V415.582z M113.333,408.515
		h5.928v13.147c0,0.862,0.272,1.571,0.817,2.128c0.544,0.559,1.247,0.837,2.109,0.837h6.422v-2.736h-5.358
		c-0.684,0-1.026-0.38-1.026-1.141v-12.235h7.296v-2.736h-7.296v-7.752h-2.964v7.752h-5.928V408.515z M105.391,417.255
		c-0.102,0.658-0.298,1.292-0.589,1.899c-0.292,0.608-0.684,1.147-1.178,1.615c-0.494,0.469-1.09,0.849-1.786,1.14
		c-0.697,0.292-1.514,0.438-2.451,0.438c-0.938,0-1.812-0.158-2.622-0.476c-0.811-0.315-1.52-0.766-2.128-1.349
		c-0.608-0.582-1.083-1.298-1.425-2.147c-0.342-0.848-0.513-1.805-0.513-2.868v-0.456c0-1.014,0.171-1.95,0.513-2.812
		c0.342-0.86,0.817-1.602,1.425-2.223c0.608-0.62,1.311-1.103,2.109-1.444s1.653-0.513,2.565-0.513c0.937,0,1.76,0.14,2.47,0.418
		c0.709,0.279,1.311,0.653,1.805,1.121c0.494,0.469,0.886,1.014,1.178,1.634c0.291,0.621,0.475,1.261,0.551,1.919l2.964-0.684
		c-0.178-1.038-0.513-2.001-1.007-2.889c-0.494-0.886-1.128-1.652-1.9-2.299c-0.773-0.646-1.666-1.146-2.679-1.501
		c-1.014-0.354-2.116-0.532-3.306-0.532c-1.318,0-2.565,0.229-3.743,0.685c-1.178,0.456-2.211,1.102-3.097,1.938
		c-0.887,0.836-1.59,1.862-2.109,3.078c-0.52,1.216-0.779,2.584-0.779,4.104v0.456c0,1.546,0.259,2.914,0.779,4.104
		c0.519,1.191,1.222,2.198,2.109,3.021c0.886,0.823,1.919,1.45,3.097,1.881c1.178,0.43,2.425,0.646,3.743,0.646
		c1.241,0,2.368-0.178,3.382-0.531c1.013-0.354,1.9-0.855,2.66-1.502c0.76-0.646,1.387-1.411,1.881-2.299
		c0.494-0.886,0.842-1.849,1.045-2.888L105.391,417.255z M78.088,408.438c0.696,0.254,1.317,0.608,1.862,1.064
		c0.544,0.455,0.988,1.014,1.33,1.672c0.342,0.658,0.538,1.394,0.589,2.204h-12.16c0.101-0.761,0.323-1.464,0.665-2.109
		c0.342-0.646,0.785-1.209,1.33-1.691c0.544-0.48,1.178-0.854,1.9-1.121c0.722-0.266,1.501-0.398,2.337-0.398
		C76.675,408.059,77.391,408.186,78.088,408.438 M84.833,416.114v-2.432c0-0.836-0.171-1.748-0.513-2.736
		c-0.342-0.988-0.874-1.899-1.596-2.735c-0.722-0.837-1.647-1.539-2.774-2.109c-1.128-0.57-2.464-0.855-4.009-0.855
		c-1.318,0-2.54,0.235-3.667,0.703c-1.128,0.47-2.109,1.115-2.945,1.938c-0.836,0.824-1.489,1.805-1.957,2.944
		c-0.469,1.141-0.703,2.369-0.703,3.687v0.912c0,1.443,0.228,2.762,0.684,3.952s1.089,2.217,1.9,3.078
		c0.81,0.861,1.779,1.526,2.907,1.994c1.127,0.469,2.362,0.703,3.705,0.703c2.432,0,4.363-0.551,5.795-1.652
		c1.431-1.103,2.413-2.527,2.945-4.275l-2.812-0.76c-0.178,0.532-0.412,1.033-0.703,1.501c-0.292,0.469-0.672,0.881-1.14,1.234
		c-0.469,0.355-1.033,0.635-1.691,0.836c-0.659,0.203-1.432,0.305-2.318,0.305c-1.951,0-3.471-0.57-4.56-1.71
		c-1.09-1.141-1.672-2.647-1.748-4.522H84.833z M44.211,424.627h17.1v-2.965H47.403v-23.636h-3.192V424.627z"/>
</g>
<path fill="#FF1419" d="M795.333,361.031v24.783l167.085-5.197l-71.949,108.725l0.399,0.4l235.038-115.92v-0.799L890.868,257.901
	l-0.8,0.4l72.35,108.726L795.333,361.031z M987.602,373.822h105.526l-161.487,79.545L987.602,373.822z"/>
<line fill="none" stroke="#231F20" stroke-width="1.991" x1="776.31" y1="210.658" x2="1151.549" y2="210.658"/>
<line fill="none" stroke="#231F20" stroke-width="1.991" x1="22.044" y1="364.824" x2="737.839" y2="364.824"/>
<line fill="none" stroke="#231F20" stroke-width="1.991" x1="757.84" y1="25.347" x2="757.84" y2="499.347"/>
<line fill="none" stroke="#231F20" stroke-width="2" x1="386.439" y1="26.402" x2="386.439" y2="344.291"/>
<polygon fill="#231F20" points="39.833,321.342 346.545,321.342 346.545,212.298 332.66,212.298 281.405,305.21 216.468,305.21 
	216.468,47.915 252,47.915 252,31.987 39.833,31.987 39.833,47.915 75.568,47.915 75.568,305.21 39.833,305.21 "/>
<g>
	<defs>
		<rect id="SVGID_37_" width="1170.088" height="525.039"/>
	</defs>
	<clipPath id="SVGID_6_">
		<use xlink:href="#SVGID_37_"  overflow="visible"/>
	</clipPath>
	<path clip-path="url(#SVGID_6_)" fill="#231F20" d="M698.779,284.569c-5.74,0-10.397,1.795-13.979,5.377
		c-3.589,3.59-5.377,8.246-5.377,13.979c0,5.739,1.788,10.396,5.377,13.979c3.582,3.582,8.239,5.377,13.979,5.377
		c5.731,0,10.39-1.795,13.979-5.377c3.582-3.582,5.376-8.239,5.376-13.979c0-5.733-1.794-10.39-5.376-13.979
		C709.169,286.364,704.511,284.569,698.779,284.569 M548.67,300.484V35.958h-18.925c-4.88,8.031-13.193,16.203-24.948,24.517
		c-11.761,8.321-24.302,15.633-37.636,21.937c-13.333,6.312-24.449,10.612-33.334,12.904l6.021,19.785
		c15.196-4.301,31.037-11.109,47.529-20.431c16.486-9.315,30.035-19.57,40.647-30.755c-0.578,13.765-0.86,23.947-0.86,30.539v206.03
		h-89.036v19.356h190.545v-19.356H548.67z"/>
</g>
</svg>
