<?xml version="1.0" encoding="utf-8"?>
<!-- Generator: Adobe Illustrator 16.0.0, SVG Export Plug-In . SVG Version: 6.00 Build 0)  -->
<!DOCTYPE svg PUBLIC "-//W3C//DTD SVG 1.1//EN" "http://www.w3.org/Graphics/SVG/1.1/DTD/svg11.dtd">
<svg version="1.1" id="Layer_1" xmlns="http://www.w3.org/2000/svg" xmlns:xlink="http://www.w3.org/1999/xlink" x="0px" y="0px"
	 width="1170.09px" height="492.17px" viewBox="0 0 1170.09 492.17" enable-background="new 0 0 1170.09 492.17"
	 xml:space="preserve">
<g>
	<defs>
		<rect id="SVGID_29_" x="0.002" y="0.001" width="1170.088" height="492.169"/>
	</defs>
	<clipPath id="SVGID_2_">
		<use xlink:href="#SVGID_29_"  overflow="visible"/>
	</clipPath>
	<path clip-path="url(#SVGID_2_)" fill="#0046FA" d="M1018.811,114.982l11.744-29.961l12.25,29.961H1018.811z M991.959,146.911
		h29.01v-5.015c-1.693,0-3.248-0.041-4.666-0.127c-1.418-0.084-2.645-0.243-3.682-0.476s-1.84-0.529-2.412-0.889
		c-0.57-0.359-0.855-0.835-0.855-1.43c0-0.211,0.02-0.379,0.062-0.506l7.428-18.473h27.93l8.758,21.899h-12.25v5.015h71.982v-5.015
		h-11.045l-38.275-84.931h-27.867l-32.689,81.693c-0.51,1.229-1.684,2.074-3.523,2.539c-1.842,0.467-4.475,0.698-7.904,0.698
		V146.911z M894.344,146.911h65.951v-5.015h-11.107V61.917h9.203l15.488,31.356h4.443V56.966H876.316v36.308h4.381l15.551-31.356
		h9.141v79.979h-11.045V146.911z M789.49,146.911h65.951v-5.015h-11.045V61.917h11.045v-4.951H789.49v4.951H800.6v79.979H789.49
		V146.911z M705.141,61.917c2.285,0,4.273,0.264,5.967,0.793c1.691,0.529,3.098,1.481,4.221,2.856
		c1.121,1.375,1.957,3.259,2.507,5.649s0.825,5.47,0.825,9.235c0,3.767-0.275,6.866-0.825,9.3s-1.386,4.348-2.507,5.744
		c-1.123,1.396-2.529,2.37-4.221,2.92c-1.693,0.551-3.682,0.825-5.967,0.825V61.917z M650.233,146.911h65.952v-5.015h-11.045
		v-37.642c2.072,0,3.859,0.297,5.363,0.889c1.5,0.594,2.717,1.683,3.65,3.269c0.93,1.587,1.617,3.757,2.062,6.507
		c0.443,2.752,0.666,6.284,0.666,10.601c0,3.937,0.402,7.405,1.205,10.411c0.805,3.005,2.191,5.521,4.159,7.553
		s4.603,3.564,7.903,4.602s7.445,1.555,12.439,1.555c5.205,0,9.5-0.391,12.887-1.174c3.385-0.783,6.084-2.062,8.094-3.84
		s3.406-4.104,4.189-6.982c0.781-2.877,1.174-6.411,1.174-10.6v-2.031h-5.332c0,5.119-0.316,9.035-0.951,11.742
		c-0.635,2.709-1.652,4.062-3.047,4.062c-0.848,0-1.45-0.338-1.811-1.016c-0.359-0.676-0.539-1.672-0.539-2.983v-2.253
		c0-0.656,0.041-1.598,0.127-2.825c0.041-1.185,0.074-2.211,0.096-3.079c0.021-0.865,0.031-1.914,0.031-3.142
		c0-4.443-0.783-8.114-2.348-11.013c-1.566-2.898-4.053-5.205-7.459-6.92c-3.408-1.713-7.799-2.92-13.172-3.617
		c-5.375-0.698-11.869-1.068-19.488-1.111c8.508-0.041,15.606-0.581,21.297-1.618c5.691-1.037,10.24-2.508,13.648-4.412
		c3.406-1.903,5.818-4.231,7.236-6.981c1.418-2.752,2.127-5.883,2.127-9.396c0-4.021-0.815-7.511-2.445-10.474
		c-1.629-2.961-3.998-5.405-7.109-7.331c-3.109-1.925-6.939-3.353-11.488-4.285c-4.551-0.931-9.723-1.396-15.52-1.396h-72.554v4.951
		h11.106v79.979h-11.106V146.911z M527.605,122.409c2.539,5.544,6.146,10.314,10.824,14.314c4.674,3.998,10.314,7.099,16.916,9.299
		c6.602,2.199,13.965,3.301,22.09,3.301c8.336,0,15.402-1.102,21.201-3.301c5.797-2.2,10.537-5.227,14.219-9.077
		s6.42-8.356,8.221-13.521c1.797-5.162,2.865-10.728,3.205-16.694h-5.586c-0.551,6.179-1.745,11.469-3.586,15.868
		c-1.841,4.402-4.18,8-7.014,10.791c-2.836,2.793-6.096,4.836-9.777,6.127c-3.68,1.291-7.639,1.936-11.869,1.936
		c-2.158,0-4.148-0.264-5.967-0.793c-1.82-0.529-3.459-1.429-4.92-2.697c-1.459-1.271-2.729-2.963-3.809-5.078
		c-1.078-2.117-1.988-4.783-2.729-7.998c-0.742-3.217-1.292-7.024-1.652-11.426c-0.359-4.402-0.538-9.5-0.538-15.299
		c0-5.543,0.243-10.283,0.729-14.219s1.143-7.246,1.969-9.934c0.824-2.688,1.809-4.813,2.951-6.379s2.369-2.762,3.682-3.588
		c1.311-0.824,2.676-1.353,4.094-1.586c1.418-0.232,2.846-0.35,4.285-0.35c3.004,0,6.189,0.54,9.553,1.619
		c3.363,1.078,6.603,2.941,9.713,5.586c3.109,2.645,5.967,6.189,8.568,10.632c2.604,4.444,4.666,10.03,6.189,16.758h4.951V55.505
		h-4.379l-7.809,11.68c-4.74-4.443-9.902-7.658-15.488-9.648c-5.586-1.988-11.639-2.982-18.154-2.982
		c-8.973,0-16.822,1.259-23.549,3.775c-6.73,2.52-12.348,5.989-16.854,10.411c-4.506,4.422-7.882,9.659-10.124,15.71
		c-2.244,6.053-3.363,12.59-3.363,19.614C523.799,110.751,525.066,116.866,527.605,122.409 M405.297,148.117h4.762l10.791-12.124
		c3.088,2.244,6.094,4.2,9.014,5.872c2.919,1.672,5.871,3.058,8.855,4.157c2.982,1.1,6.062,1.925,9.234,2.477
		c3.174,0.549,6.559,0.824,10.156,0.824c6.559,0,12.336-0.898,17.33-2.697c4.992-1.799,9.172-4.242,12.535-7.332
		c3.365-3.088,5.893-6.686,7.586-10.791c1.691-4.104,2.539-8.463,2.539-13.076c0-3.978-0.477-7.49-1.428-10.537
		c-0.953-3.047-2.297-5.754-4.031-8.125c-1.736-2.369-3.82-4.432-6.252-6.188c-2.435-1.756-5.142-3.321-8.125-4.698
		c-2.983-1.373-6.189-2.602-9.617-3.681s-6.982-2.104-10.664-3.079c-8.676-2.285-15.202-4.539-19.582-6.76
		c-4.381-2.223-6.57-4.539-6.57-6.951c0-1.48,0.529-2.634,1.587-3.459c1.058-0.826,2.317-1.429,3.776-1.809
		c1.461-0.381,2.953-0.604,4.475-0.668c1.525-0.062,2.771-0.094,3.746-0.094c5.12,0,9.965,0.613,14.536,1.84
		c4.571,1.229,8.737,2.899,12.505,5.015c3.766,2.116,7.109,4.612,10.03,7.491c2.919,2.877,5.31,5.988,7.171,9.33h4V55.441h-4.379
		l-9.586,9.269c-1.989-1.481-4.316-2.847-6.982-4.095s-5.502-2.317-8.506-3.206c-3.005-0.889-6.084-1.587-9.234-2.095
		c-3.154-0.507-6.17-0.761-9.047-0.761c-5.629,0-10.93,0.729-15.9,2.189c-4.973,1.46-9.311,3.576-13.012,6.348
		c-3.705,2.771-6.625,6.188-8.761,10.252c-2.138,4.062-3.206,8.695-3.206,13.9c0,8.338,2.992,15.393,8.982,21.169
		c5.988,5.777,15.203,10.274,27.643,13.489c5.586,1.482,10.443,2.814,14.569,3.999s7.543,2.36,10.251,3.522
		c2.707,1.166,4.73,2.371,6.062,3.619c1.334,1.248,2,2.676,2,4.284c0,1.522-0.52,2.74-1.557,3.649
		c-1.037,0.91-2.316,1.609-3.84,2.096s-3.152,0.805-4.887,0.952c-1.736,0.149-3.301,0.222-4.697,0.222
		c-4.783,0-9.184-0.496-13.204-1.492c-4.021-0.994-7.702-2.316-11.044-3.967c-3.344-1.65-6.371-3.564-9.078-5.744
		c-2.709-2.18-5.121-4.453-7.236-6.824c-2.117-2.369-3.957-4.75-5.521-7.141c-1.567-2.391-2.879-4.623-3.936-6.697h-4.254V148.117z
		 M271.943,146.911h101.371v-33.896h-4.379l-18.408,28.882H326.85v-37.261h9.586l8.379,21.074h4.125V78.737h-4.125l-8.379,20.947
		h-9.586V61.917h21.455l17.646,25.961h4.316V56.966h-98.324v4.951h11.107v79.979h-11.107V146.911z"/>
	<polygon clip-path="url(#SVGID_2_)" fill="none" stroke="#0046FA" stroke-width="1.998" points="1,3.001 1,489.17 1,491.172 
		3.002,491.172 1167.088,491.172 1169.09,491.172 1169.09,489.17 1169.09,3.001 1169.09,0.999 1167.088,0.999 3.002,0.999 1,0.999 	
		"/>
</g>
<rect x="5.003" y="5.003" fill="none" stroke="#0046FA" stroke-width="1.998" width="1160.085" height="482.165"/>
<line fill="none" stroke="#0046FA" stroke-width="2" x1="241.045" y1="199.001" x2="1144.088" y2="199.001"/>
<line fill="none" stroke="#0046FA" stroke-width="2" x1="220.045" y1="26" x2="220.045" y2="465.789"/>
<line fill="none" stroke="#0046FA" stroke-width="2" x1="528.045" y1="220" x2="528.045" y2="465.789"/>
<line fill="none" stroke="#0046FA" stroke-width="2" x1="842.111" y1="220" x2="842.111" y2="465.789"/>
<g>
	<defs>
		<rect id="SVGID_31_" x="0.002" y="0.001" width="1170.088" height="492.169"/>
	</defs>
	<clipPath id="SVGID_4_">
		<use xlink:href="#SVGID_31_"  overflow="visible"/>
	</clipPath>
	<path clip-path="url(#SVGID_4_)" fill="#231F20" d="M470.375,427.891c3.039,0,5.355-0.596,6.953-1.787s2.396-2.742,2.396-4.654
		c0-1.701-0.635-3.043-1.904-4.025c-1.271-0.982-3.346-1.721-6.227-2.219c-1.334-0.264-2.271-0.531-2.808-0.807
		c-0.537-0.273-0.806-0.607-0.806-1.002c0-0.418,0.262-0.771,0.785-1.059c0.523-0.289,1.258-0.434,2.201-0.434
		c1.203,0,2.238,0.211,3.103,0.629c0.864,0.42,1.61,1.088,2.239,2.004l3.455-3.379c-0.891-1.23-2.049-2.152-3.477-2.77
		c-1.428-0.615-3.266-0.922-5.518-0.922c-2.043,0-3.777,0.307-5.205,0.922c-1.428,0.617-2.494,1.422-3.2,2.416
		c-0.708,0.996-1.062,2.057-1.062,3.182c0,1.65,0.623,2.973,1.865,3.967c1.244,0.996,3.332,1.781,6.266,2.357
		c1.309,0.262,2.232,0.529,2.77,0.805c0.535,0.275,0.805,0.596,0.805,0.963c0,0.42-0.262,0.754-0.785,1.002
		c-0.524,0.248-1.244,0.373-2.16,0.373c-2.75,0-4.688-0.93-5.813-2.789l-3.456,3.77C462.678,426.74,465.871,427.891,470.375,427.891
		 M448.027,412.219c1.256,0,2.186,0.432,2.789,1.297c0.602,0.863,0.904,2.252,0.904,4.162c0,1.912-0.303,3.301-0.904,4.164
		c-0.604,0.865-1.533,1.297-2.789,1.297c-1.258,0-2.186-0.432-2.789-1.297c-0.602-0.863-0.903-2.252-0.903-4.164
		c0-1.91,0.302-3.299,0.903-4.162C445.842,412.65,446.77,412.219,448.027,412.219 M448.027,407.467c-3.273,0-5.82,0.896-7.639,2.691
		c-1.822,1.793-2.73,4.301-2.73,7.52c0,3.221,0.908,5.73,2.73,7.523c1.818,1.793,4.365,2.689,7.639,2.689s5.82-0.896,7.64-2.689
		s2.729-4.303,2.729-7.523c0-3.219-0.91-5.727-2.729-7.52C453.848,408.363,451.301,407.467,448.027,407.467 M435.105,422.273
		c-0.812,0.576-1.756,0.865-2.828,0.865c-1.729,0-2.594-0.877-2.594-2.633v-7.895h5.893v-4.752h-5.893v-6.246l-6.676,1.848v4.398
		h-3.379v4.752h3.379v8.994c0.025,2.201,0.652,3.797,1.885,4.793c1.23,0.996,3.01,1.492,5.342,1.492
		c1.021,0,2.035-0.137,3.043-0.412c1.009-0.275,1.841-0.635,2.496-1.08L435.105,422.273z M410.162,407.467
		c-1.545,0-2.893,0.346-4.045,1.041c-1.152,0.693-2.043,1.734-2.672,3.121l-0.195-3.77h-5.97v19.639h6.677v-10.369
		c0-1.545,0.326-2.691,0.982-3.438c0.654-0.746,1.504-1.119,2.553-1.119c0.891,0,1.577,0.281,2.062,0.846
		c0.482,0.562,0.727,1.512,0.727,2.846v11.234h6.676v-13.08c0-2.225-0.615-3.939-1.846-5.145S412.23,407.467,410.162,407.467
		 M383.689,412.141c2.094,0,3.299,1.283,3.613,3.85h-7.384C380.312,413.424,381.569,412.141,383.689,412.141 M393.549,417.402
		c0-3.141-0.846-5.582-2.533-7.324c-1.689-1.74-4.119-2.611-7.287-2.611c-3.273,0-5.799,0.889-7.58,2.67s-2.672,4.295-2.672,7.541
		c0,3.248,0.91,5.762,2.73,7.543s4.445,2.67,7.876,2.67c2.304,0,4.248-0.438,5.832-1.314s2.651-2.154,3.202-3.83l-5.422-1.729
		c-0.209,0.707-0.621,1.244-1.236,1.609c-0.615,0.367-1.408,0.551-2.376,0.551c-1.153,0-2.075-0.287-2.771-0.865
		c-0.693-0.574-1.145-1.479-1.355-2.709h13.395C393.483,419.027,393.549,418.295,393.549,417.402 M363.029,407.467
		c-1.439,0-2.743,0.34-3.908,1.021c-1.166,0.68-2.062,1.662-2.689,2.945c-0.473-1.283-1.252-2.266-2.338-2.945
		c-1.086-0.682-2.377-1.021-3.869-1.021c-1.52,0-2.842,0.352-3.967,1.059c-1.127,0.707-2.004,1.742-2.633,3.104l-0.195-3.77h-5.971
		v19.639h6.678v-10.369c0-1.52,0.328-2.658,0.981-3.418c0.655-0.758,1.479-1.139,2.476-1.139c1.779,0,2.67,1.127,2.67,3.379v11.547
		h6.678v-10.486c0-1.439,0.314-2.541,0.943-3.301c0.627-0.758,1.465-1.139,2.514-1.139c1.779,0,2.671,1.127,2.671,3.379v11.547
		h6.677v-13.08c0-2.225-0.623-3.939-1.865-5.145C366.637,408.068,365.02,407.467,363.029,407.467 M324.262,431.623
		c-3.641,0-5.459-0.604-5.459-1.809c0-0.471,0.229-0.816,0.686-1.039c0.459-0.223,1.225-0.334,2.299-0.334h5.381
		c0.865,0,1.479,0.104,1.846,0.314c0.367,0.209,0.551,0.521,0.551,0.943c0,0.574-0.451,1.039-1.355,1.393
		C327.307,431.447,325.99,431.623,324.262,431.623 M323.948,411.275c0.864,0,1.563,0.264,2.101,0.787
		c0.535,0.523,0.805,1.217,0.805,2.08c0,0.865-0.27,1.553-0.805,2.062c-0.537,0.512-1.236,0.766-2.101,0.766
		c-0.865,0-1.565-0.254-2.103-0.766c-0.537-0.51-0.805-1.197-0.805-2.062c0-0.863,0.268-1.557,0.805-2.08
		S323.083,411.275,323.948,411.275 M327.68,423.139h-6.678c-1.361,0-2.043-0.445-2.043-1.336c0-0.707,0.406-1.164,1.219-1.375
		c1.1,0.236,2.356,0.354,3.771,0.354c3.037,0,5.394-0.574,7.069-1.729c1.676-1.152,2.515-2.789,2.515-4.91
		c0-2.461-1.101-4.268-3.3-5.42c0.262-0.549,0.687-0.98,1.277-1.295c0.588-0.314,1.326-0.473,2.219-0.473
		c0.209,0,0.576,0.027,1.1,0.08l-0.747-4.439l-0.628-0.039c-1.625,0-2.895,0.498-3.811,1.492c-0.916,0.996-1.506,2.279-1.768,3.85
		c-1.204-0.289-2.514-0.432-3.927-0.432c-3.038,0-5.396,0.582-7.071,1.748c-1.676,1.164-2.513,2.807-2.513,4.928
		c0,2.438,1.073,4.23,3.22,5.381c-0.994,0.342-1.781,0.865-2.355,1.572c-0.578,0.707-0.864,1.52-0.864,2.436
		c0,1.859,1.007,3.221,3.024,4.086c-1.232,0.287-2.148,0.758-2.75,1.414c-0.604,0.652-0.904,1.412-0.904,2.277
		c0,1.465,0.818,2.605,2.455,3.416c1.637,0.812,4.17,1.219,7.6,1.219c3.404,0,6.096-0.596,8.072-1.787
		c1.979-1.191,2.967-2.9,2.967-5.125c0-1.939-0.623-3.404-1.867-4.4C331.719,423.637,329.957,423.139,327.68,423.139
		 M299.596,423.57c-0.604,0-1.074-0.143-1.414-0.432s-0.511-0.707-0.511-1.258c0-0.549,0.177-0.975,0.53-1.275
		s0.949-0.557,1.787-0.766l3.182-0.748v1.689c0,0.84-0.367,1.514-1.1,2.023C301.336,423.314,300.512,423.57,299.596,423.57
		 M311.184,423.688c-0.943,0-1.414-0.51-1.414-1.531v-7.148c0-2.514-0.799-4.4-2.396-5.656c-1.598-1.258-3.928-1.885-6.992-1.885
		c-2.619,0-4.699,0.529-6.244,1.59c-1.547,1.061-2.488,2.547-2.828,4.459l5.42,1.57c0.182-1.072,0.589-1.846,1.217-2.316
		c0.629-0.473,1.441-0.707,2.436-0.707c0.863,0,1.545,0.262,2.043,0.785c0.496,0.523,0.746,1.23,0.746,2.121v0.707l-4.439,0.863
		c-2.723,0.551-4.68,1.344-5.871,2.377c-1.192,1.035-1.787,2.391-1.787,4.064c0,1.6,0.523,2.816,1.57,3.654s2.553,1.256,4.518,1.256
		c3.482,0,5.812-1.008,6.992-3.023c0.55,2.016,2.238,3.023,5.066,3.023c1.021,0,1.912-0.209,2.672-0.629l0.51-3.73
		C312.086,423.637,311.68,423.688,311.184,423.688 M287.693,407.467c-1.491,0-2.742,0.4-3.75,1.197
		c-1.008,0.799-1.748,1.943-2.219,3.438l-0.275-4.242h-5.893v19.639h6.678V417.6c0-1.492,0.419-2.637,1.258-3.436
		c0.836-0.799,1.885-1.199,3.143-1.199c0.496,0,0.967,0.059,1.414,0.178c0.443,0.117,0.797,0.254,1.059,0.412l0.707-5.656
		C289.291,407.609,288.584,407.467,287.693,407.467 M266.877,406.484c0-1.885,1.086-2.828,3.26-2.828
		c0.916,0,1.664,0.211,2.238,0.629l0.668-4.164c-0.969-0.758-2.474-1.139-4.516-1.139c-2.357,0-4.27,0.59-5.736,1.768
		s-2.199,2.945-2.199,5.303v1.807h-3.142v4.752h3.142v14.887h6.678v-14.887h5.578v-4.752h-5.971V406.484z"/>
	<path clip-path="url(#SVGID_4_)" fill="#231F20" d="M469.16,376.902c3.037,0,5.354-0.598,6.951-1.787
		c1.598-1.193,2.396-2.744,2.396-4.656c0-1.701-0.635-3.043-1.906-4.025c-1.27-0.982-3.344-1.721-6.225-2.219
		c-1.336-0.262-2.273-0.531-2.809-0.805c-0.537-0.275-0.805-0.609-0.805-1.002c0-0.42,0.26-0.773,0.785-1.062
		c0.523-0.287,1.256-0.432,2.199-0.432c1.205,0,2.24,0.211,3.104,0.629c0.865,0.42,1.609,1.088,2.238,2.004l3.457-3.379
		c-0.891-1.23-2.049-2.152-3.477-2.77c-1.428-0.613-3.266-0.922-5.518-0.922c-2.043,0-3.779,0.309-5.205,0.922
		c-1.428,0.617-2.494,1.422-3.201,2.416c-0.707,0.996-1.061,2.057-1.061,3.182c0,1.65,0.621,2.973,1.865,3.967
		c1.244,0.996,3.332,1.781,6.266,2.357c1.309,0.262,2.232,0.529,2.77,0.805c0.535,0.275,0.805,0.596,0.805,0.963
		c0,0.42-0.262,0.754-0.785,1.002c-0.524,0.248-1.244,0.373-2.16,0.373c-2.75,0-4.688-0.93-5.814-2.789l-3.455,3.771
		C461.461,375.75,464.656,376.902,469.16,376.902 M446.811,361.229c1.258,0,2.186,0.434,2.788,1.297s0.903,2.252,0.903,4.162
		c0,1.912-0.301,3.301-0.903,4.164c-0.603,0.865-1.53,1.297-2.788,1.297c-1.256,0-2.188-0.432-2.789-1.297
		c-0.604-0.863-0.904-2.252-0.904-4.164c0-1.91,0.301-3.299,0.904-4.162C444.623,361.662,445.555,361.229,446.811,361.229
		 M446.811,356.477c-3.273,0-5.82,0.896-7.64,2.691c-1.82,1.793-2.731,4.301-2.731,7.52c0,3.223,0.911,5.73,2.731,7.523
		c1.819,1.793,4.366,2.691,7.64,2.691s5.818-0.898,7.639-2.691s2.73-4.301,2.73-7.523c0-3.219-0.91-5.727-2.73-7.52
		C452.629,357.373,450.084,356.477,446.811,356.477 M422.301,371.992c-1.178,0-2.088-0.434-2.73-1.297
		c-0.641-0.863-0.961-2.199-0.961-4.008c0-1.805,0.32-3.141,0.961-4.006c0.643-0.863,1.553-1.295,2.73-1.295
		c1.074,0,1.931,0.393,2.572,1.178s1.002,1.898,1.08,3.34v1.57c-0.078,1.467-0.438,2.586-1.08,3.357
		C424.231,371.605,423.375,371.992,422.301,371.992 M425.953,348.543v11.625c-0.576-1.152-1.361-2.055-2.356-2.709
		s-2.187-0.982-3.575-0.982c-2.539,0-4.529,0.902-5.969,2.709c-1.441,1.809-2.162,4.334-2.162,7.582
		c0,3.195,0.715,5.682,2.143,7.463c1.426,1.781,3.41,2.672,5.951,2.672c1.465,0,2.754-0.367,3.868-1.102
		c1.112-0.732,1.956-1.74,2.534-3.023l0.234,3.73h6.01v-27.965H425.953z M397.32,356.477c-1.492,0-2.744,0.4-3.752,1.197
		c-1.008,0.799-1.746,1.945-2.219,3.438l-0.275-4.242h-5.892v19.639h6.679v-9.896c0-1.494,0.418-2.639,1.256-3.438
		s1.885-1.199,3.143-1.199c0.496,0,0.967,0.061,1.414,0.178c0.445,0.117,0.797,0.256,1.061,0.412l0.707-5.656
		C398.916,356.621,398.209,356.477,397.32,356.477 M380.431,356.869h-6.677v19.639h6.677V356.869z M377.094,354.592
		c1.359,0,2.35-0.256,2.963-0.766c0.615-0.512,0.924-1.316,0.924-2.416c0-1.127-0.309-1.945-0.924-2.455
		c-0.613-0.51-1.604-0.768-2.963-0.768c-1.363,0-2.352,0.258-2.967,0.768s-0.924,1.328-0.924,2.455c0,1.1,0.309,1.904,0.924,2.416
		C374.742,354.336,375.73,354.592,377.094,354.592 M370.258,371.285c-0.812,0.576-1.754,0.863-2.828,0.863
		c-1.729,0-2.592-0.877-2.592-2.633v-7.895h5.891v-4.752h-5.891v-6.246l-6.678,1.848v4.398h-3.377v4.752h3.377v8.996
		c0.025,2.199,0.654,3.797,1.885,4.791c1.23,0.996,3.012,1.494,5.344,1.494c1.02,0,2.035-0.139,3.043-0.414s1.838-0.635,2.494-1.08
		L370.258,371.285z M352.387,356.477c-1.494,0-2.744,0.4-3.75,1.197c-1.01,0.799-1.748,1.945-2.221,3.438l-0.275-4.242h-5.891
		v19.639h6.678v-9.896c0-1.494,0.418-2.639,1.256-3.438s1.885-1.199,3.143-1.199c0.496,0,0.969,0.061,1.414,0.178
		c0.444,0.117,0.799,0.256,1.061,0.412l0.707-5.656C353.983,356.621,353.277,356.477,352.387,356.477 M324.812,372.58
		c-0.602,0-1.074-0.143-1.414-0.432c-0.34-0.287-0.51-0.707-0.51-1.258c0-0.549,0.176-0.975,0.529-1.275s0.949-0.557,1.787-0.766
		l3.184-0.748v1.689c0,0.84-0.368,1.514-1.102,2.023C326.555,372.326,325.729,372.58,324.812,372.58 M336.4,372.699
		c-0.943,0-1.414-0.512-1.414-1.533v-7.148c0-2.514-0.801-4.398-2.396-5.656c-1.598-1.258-3.928-1.885-6.991-1.885
		c-2.62,0-4.701,0.529-6.245,1.592c-1.547,1.059-2.488,2.547-2.828,4.457l5.42,1.57c0.184-1.072,0.59-1.846,1.219-2.316
		c0.627-0.473,1.438-0.707,2.435-0.707c0.864,0,1.544,0.262,2.042,0.785s0.748,1.23,0.748,2.121v0.707l-4.439,0.863
		c-2.725,0.551-4.682,1.344-5.873,2.377c-1.191,1.035-1.787,2.391-1.787,4.066c0,1.598,0.523,2.814,1.572,3.652
		c1.047,0.838,2.553,1.258,4.516,1.258c3.482,0,5.812-1.01,6.992-3.025c0.551,2.016,2.238,3.025,5.067,3.025
		c1.021,0,1.911-0.211,2.671-0.631l0.51-3.73C337.305,372.646,336.897,372.699,336.4,372.699 M303.248,371.992
		c-1.151,0-2.041-0.445-2.67-1.336s-0.941-2.146-0.941-3.771v-0.393c0-1.674,0.318-2.945,0.961-3.811
		c0.641-0.863,1.525-1.295,2.65-1.295c1.18,0,2.088,0.432,2.73,1.295c0.643,0.865,0.963,2.201,0.963,4.006
		c0,1.809-0.32,3.145-0.963,4.008S304.428,371.992,303.248,371.992 M305.566,356.477c-1.545,0-2.887,0.412-4.025,1.236
		c-1.139,0.826-1.984,1.932-2.535,3.32l-0.195-4.164h-5.854v27.889h6.68v-11.549c0.549,1.152,1.328,2.057,2.336,2.711
		s2.207,0.982,3.594,0.982c2.514,0,4.49-0.904,5.932-2.711c1.439-1.807,2.16-4.334,2.16-7.58c0-3.195-0.707-5.684-2.121-7.465
		C310.123,357.367,308.133,356.477,305.566,356.477 M266.641,372.58c-0.602,0-1.072-0.143-1.414-0.432
		c-0.34-0.287-0.51-0.707-0.51-1.258c0-0.549,0.176-0.975,0.529-1.275c0.354-0.301,0.949-0.557,1.789-0.766l3.182-0.748v1.689
		c0,0.84-0.368,1.514-1.102,2.023C268.383,372.326,267.557,372.58,266.641,372.58 M278.229,372.699
		c-0.943,0-1.414-0.512-1.414-1.533v-7.148c0-2.514-0.799-4.398-2.396-5.656s-3.928-1.885-6.99-1.885
		c-2.619,0-4.701,0.529-6.246,1.592c-1.545,1.059-2.488,2.547-2.828,4.457l5.42,1.57c0.184-1.072,0.59-1.846,1.219-2.316
		c0.629-0.473,1.439-0.707,2.436-0.707c0.863,0,1.543,0.262,2.043,0.785c0.496,0.523,0.746,1.23,0.746,2.121v0.707l-4.439,0.863
		c-2.723,0.551-4.681,1.344-5.871,2.377c-1.191,1.035-1.789,2.391-1.789,4.066c0,1.598,0.523,2.814,1.572,3.652
		c1.047,0.838,2.553,1.258,4.518,1.258c3.48,0,5.812-1.01,6.99-3.025c0.551,2.016,2.239,3.025,5.067,3.025
		c1.021,0,1.911-0.211,2.671-0.631l0.512-3.73C279.133,372.646,278.725,372.699,278.229,372.699"/>
	<path clip-path="url(#SVGID_4_)" fill="#231F20" d="M431.766,325.912c3.037,0,5.355-0.596,6.953-1.787
		c1.596-1.191,2.395-2.744,2.395-4.656c0-1.701-0.635-3.043-1.904-4.025c-1.271-0.982-3.346-1.721-6.226-2.219
		c-1.336-0.262-2.272-0.531-2.808-0.805c-0.537-0.275-0.807-0.609-0.807-1.002c0-0.418,0.264-0.773,0.787-1.061
		c0.523-0.289,1.256-0.432,2.197-0.432c1.205,0,2.24,0.209,3.104,0.627c0.865,0.42,1.611,1.088,2.24,2.004l3.457-3.379
		c-0.893-1.229-2.051-2.152-3.477-2.768c-1.428-0.615-3.268-0.924-5.52-0.924c-2.043,0-3.777,0.309-5.203,0.924
		c-1.428,0.615-2.496,1.42-3.203,2.416c-0.707,0.994-1.061,2.055-1.061,3.18c0,1.65,0.623,2.973,1.867,3.969
		c1.244,0.994,3.33,1.781,6.264,2.355c1.311,0.262,2.232,0.531,2.771,0.807c0.535,0.273,0.804,0.594,0.804,0.961
		c0,0.42-0.261,0.754-0.786,1.002c-0.523,0.25-1.244,0.373-2.16,0.373c-2.75,0-4.688-0.93-5.812-2.789l-3.457,3.771
		C424.066,324.76,427.262,325.912,431.766,325.912 M410.045,310.16c2.094,0,3.301,1.283,3.613,3.85h-7.385
		C406.668,311.443,407.926,310.16,410.045,310.16 M419.904,315.424c0-3.143-0.846-5.584-2.533-7.326
		c-1.689-1.74-4.119-2.611-7.287-2.611c-3.273,0-5.799,0.891-7.58,2.672c-1.781,1.779-2.672,4.295-2.672,7.541
		c0,3.248,0.91,5.762,2.73,7.541c1.82,1.781,4.445,2.672,7.875,2.672c2.305,0,4.248-0.439,5.832-1.316s2.652-2.154,3.203-3.83
		l-5.42-1.729c-0.211,0.707-0.623,1.244-1.238,1.611s-1.408,0.551-2.377,0.551c-1.152,0-2.074-0.289-2.77-0.865
		c-0.693-0.576-1.145-1.48-1.354-2.711h13.394C419.838,317.049,419.904,316.314,419.904,315.424 M394.334,297.316h-3.771
		c-0.079,0.734-0.235,1.283-0.47,1.65c-0.238,0.367-0.578,0.549-1.023,0.549c-0.287,0-0.529-0.059-0.725-0.176
		c-0.198-0.119-0.492-0.334-0.885-0.648c-0.576-0.445-1.107-0.793-1.592-1.041s-1.119-0.373-1.904-0.373
		c-3.299,0-5.027,2.082-5.186,6.244h3.771c0.078-0.732,0.236-1.281,0.471-1.648c0.236-0.367,0.562-0.549,0.982-0.549
		c0.287,0,0.557,0.07,0.805,0.215s0.544,0.359,0.883,0.648c0.551,0.445,1.068,0.785,1.553,1.021
		c0.484,0.234,1.119,0.354,1.905,0.354C392.449,303.562,394.178,301.48,394.334,297.316 M386.557,310.24
		c1.257,0,2.188,0.432,2.789,1.295s0.904,2.252,0.904,4.164c0,1.91-0.303,3.299-0.904,4.162c-0.602,0.865-1.532,1.297-2.789,1.297
		c-1.256,0-2.186-0.432-2.788-1.297c-0.603-0.863-0.903-2.252-0.903-4.162c0-1.912,0.301-3.301,0.903-4.164
		S385.301,310.24,386.557,310.24 M386.557,305.486c-3.273,0-5.818,0.896-7.639,2.691c-1.82,1.793-2.73,4.301-2.73,7.521
		s0.91,5.729,2.73,7.521s4.365,2.691,7.639,2.691s5.82-0.898,7.641-2.691c1.819-1.793,2.73-4.301,2.73-7.521
		s-0.911-5.729-2.73-7.521C392.377,306.383,389.83,305.486,386.557,305.486 M373.596,319.9l-6.01-1.924
		c-0.314,2.121-1.401,3.182-3.26,3.182c-2.593,0-3.89-1.793-3.89-5.381c0-3.691,1.297-5.537,3.89-5.537
		c1.754,0,2.762,1.125,3.023,3.377l6.205-2.043c-0.367-1.807-1.295-3.273-2.787-4.398c-1.494-1.125-3.719-1.689-6.678-1.689
		c-3.246,0-5.781,0.896-7.6,2.691c-1.82,1.793-2.73,4.301-2.73,7.521c0,2.984,0.766,5.355,2.297,7.109
		c1.533,1.754,3.752,2.762,6.66,3.023c1.045,0.34,1.771,0.721,2.178,1.141c0.406,0.418,0.609,0.916,0.609,1.492
		c0,0.602-0.197,1.074-0.59,1.414s-0.916,0.51-1.57,0.51c-1.154,0-2.096-0.367-2.828-1.1l-1.532,3.104
		c1.126,1.047,2.75,1.57,4.87,1.57c1.703,0,3.064-0.398,4.086-1.197s1.531-1.943,1.531-3.438c0-0.707-0.176-1.381-0.531-2.023
		c-0.352-0.641-0.883-1.197-1.59-1.668c1.781-0.393,3.215-1.094,4.301-2.102C372.738,322.527,373.387,321.314,373.596,319.9
		 M339.424,321.59c-0.604,0-1.074-0.143-1.414-0.432c-0.342-0.287-0.512-0.707-0.512-1.258c0-0.549,0.178-0.975,0.531-1.275
		s0.947-0.557,1.786-0.766l3.183-0.746v1.689c0,0.838-0.367,1.512-1.101,2.021C341.164,321.336,340.34,321.59,339.424,321.59
		 M351.012,321.709c-0.945,0-1.415-0.51-1.415-1.533v-7.148c0-2.514-0.798-4.398-2.396-5.654c-1.6-1.258-3.93-1.887-6.992-1.887
		c-2.619,0-4.699,0.529-6.244,1.592c-1.547,1.061-2.49,2.547-2.828,4.457l5.418,1.57c0.184-1.072,0.59-1.846,1.219-2.316
		c0.629-0.473,1.441-0.707,2.436-0.707c0.863,0,1.545,0.262,2.043,0.785c0.496,0.523,0.746,1.23,0.746,2.121v0.707l-4.439,0.865
		c-2.723,0.549-4.68,1.342-5.873,2.375c-1.191,1.035-1.786,2.391-1.786,4.066c0,1.598,0.524,2.814,1.571,3.652
		s2.553,1.258,4.518,1.258c3.482,0,5.814-1.01,6.99-3.025c0.551,2.016,2.24,3.025,5.068,3.025c1.02,0,1.91-0.211,2.672-0.629
		l0.508-3.732C351.914,321.656,351.508,321.709,351.012,321.709 M327.287,305.879h-6.678v19.639h6.678V305.879z M323.947,303.602
		c1.361,0,2.352-0.256,2.967-0.766c0.615-0.512,0.922-1.316,0.922-2.416c0-1.125-0.307-1.945-0.922-2.455s-1.605-0.766-2.967-0.766
		s-2.35,0.256-2.965,0.766s-0.924,1.33-0.924,2.455c0,1.1,0.309,1.904,0.924,2.416C321.598,303.346,322.586,303.602,323.947,303.602
		 M315.855,305.486c-1.49,0-2.742,0.4-3.75,1.197c-1.008,0.799-1.748,1.945-2.219,3.438l-0.275-4.242h-5.891v19.639h6.677v-9.896
		c0-1.494,0.418-2.639,1.257-3.438c0.838-0.799,1.885-1.199,3.143-1.199c0.496,0,0.968,0.061,1.414,0.178
		c0.445,0.119,0.799,0.256,1.059,0.412l0.707-5.656C317.453,305.631,316.746,305.486,315.855,305.486 M288.283,321.59
		c-0.603,0-1.074-0.143-1.414-0.432c-0.34-0.287-0.512-0.707-0.512-1.258c0-0.549,0.178-0.975,0.531-1.275s0.949-0.557,1.789-0.766
		l3.18-0.746v1.689c0,0.838-0.367,1.512-1.098,2.021C290.023,321.336,289.199,321.59,288.283,321.59 M299.871,321.709
		c-0.941,0-1.414-0.51-1.414-1.533v-7.148c0-2.514-0.799-4.398-2.396-5.654c-1.596-1.258-3.928-1.887-6.99-1.887
		c-2.619,0-4.701,0.529-6.246,1.592c-1.545,1.061-2.488,2.547-2.828,4.457l5.42,1.57c0.184-1.072,0.59-1.846,1.219-2.316
		c0.627-0.473,1.439-0.707,2.436-0.707c0.863,0,1.543,0.262,2.041,0.785c0.496,0.523,0.746,1.23,0.746,2.121v0.707l-4.438,0.865
		c-2.725,0.549-4.682,1.342-5.871,2.375c-1.193,1.035-1.787,2.391-1.787,4.066c0,1.598,0.521,2.814,1.57,3.652
		c1.047,0.838,2.553,1.258,4.517,1.258c3.481,0,5.813-1.01,6.991-3.025c0.549,2.016,2.238,3.025,5.066,3.025
		c1.023,0,1.911-0.211,2.672-0.629l0.51-3.732C300.773,321.656,300.367,321.709,299.871,321.709 M272.021,305.879l-4.123,15.396
		l-4.046-15.396h-7.03l7.068,19.639h7.975l7.07-19.639H272.021z"/>
	<path clip-path="url(#SVGID_4_)" fill="#231F20" d="M440.643,259.17c2.096,0,3.301,1.283,3.615,3.85h-7.385
		C437.266,260.453,438.521,259.17,440.643,259.17 M450.502,264.434c0-3.143-0.844-5.582-2.533-7.324
		c-1.688-1.742-4.117-2.613-7.287-2.613c-3.273,0-5.799,0.891-7.58,2.672s-2.67,4.295-2.67,7.541c0,3.248,0.908,5.76,2.729,7.541
		s4.445,2.672,7.875,2.672c2.305,0,4.248-0.438,5.834-1.316c1.584-0.877,2.651-2.154,3.201-3.83l-5.42-1.729
		c-0.211,0.707-0.623,1.244-1.238,1.611s-1.408,0.549-2.377,0.549c-1.152,0-2.074-0.287-2.768-0.863
		c-0.695-0.574-1.146-1.479-1.355-2.711h13.395C450.437,266.057,450.502,265.324,450.502,264.434 M416.291,270.012
		c-1.178,0-2.089-0.432-2.73-1.297c-0.641-0.863-0.961-2.199-0.961-4.006s0.32-3.143,0.961-4.006
		c0.642-0.865,1.553-1.297,2.73-1.297c1.073,0,1.932,0.393,2.573,1.178c0.642,0.787,1.001,1.9,1.079,3.34v1.57
		c-0.078,1.467-0.438,2.586-1.079,3.359C418.223,269.625,417.364,270.012,416.291,270.012 M419.943,246.563v11.626
		c-0.576-1.152-1.361-2.057-2.355-2.711c-0.996-0.654-2.188-0.982-3.574-0.982c-2.541,0-4.531,0.904-5.971,2.711
		c-1.441,1.807-2.16,4.334-2.16,7.58c0,3.195,0.713,5.682,2.141,7.463c1.427,1.781,3.41,2.672,5.949,2.672
		c1.467,0,2.756-0.367,3.869-1.1c1.113-0.734,1.959-1.742,2.535-3.025l0.234,3.732h6.01v-27.966H419.943z M380.391,270.602
		c-0.604,0-1.074-0.145-1.414-0.434c-0.34-0.287-0.51-0.707-0.51-1.256c0-0.551,0.176-0.975,0.529-1.277
		c0.354-0.301,0.949-0.555,1.787-0.766l3.182-0.746v1.689c0,0.838-0.367,1.512-1.1,2.021
		C382.131,270.346,381.307,270.602,380.391,270.602 M391.977,270.719c-0.941,0-1.413-0.512-1.413-1.531v-7.15
		c0-2.512-0.8-4.398-2.396-5.656c-1.598-1.256-3.928-1.885-6.992-1.885c-2.619,0-4.701,0.531-6.244,1.592
		c-1.547,1.061-2.488,2.547-2.828,4.457l5.42,1.572c0.184-1.074,0.588-1.846,1.217-2.318c0.629-0.471,1.439-0.707,2.436-0.707
		c0.865,0,1.545,0.264,2.043,0.785c0.496,0.525,0.746,1.232,0.746,2.121v0.707l-4.439,0.865c-2.723,0.549-4.68,1.342-5.871,2.377
		c-1.191,1.033-1.787,2.389-1.787,4.064c0,1.598,0.523,2.814,1.57,3.652c1.048,0.838,2.553,1.258,4.518,1.258
		c3.482,0,5.813-1.008,6.992-3.025c0.549,2.018,2.238,3.025,5.066,3.025c1.021,0,1.912-0.211,2.671-0.629l0.511-3.73
		C392.881,270.666,392.475,270.719,391.977,270.719 M369.195,269.305c-0.811,0.576-1.754,0.863-2.828,0.863
		c-1.727,0-2.592-0.877-2.592-2.631v-7.895h5.893v-4.754h-5.893v-6.244l-6.678,1.846v4.398h-3.377v4.754h3.377v8.994
		c0.027,2.199,0.656,3.797,1.887,4.791c1.23,0.996,3.01,1.494,5.342,1.494c1.021,0,2.035-0.139,3.044-0.414
		c1.007-0.273,1.839-0.633,2.494-1.08L369.195,269.305z M350.854,254.889h-6.676v19.641h6.676V254.889z M347.516,252.611
		c1.361,0,2.35-0.256,2.966-0.766c0.614-0.512,0.923-1.316,0.923-2.416c0-1.127-0.309-1.943-0.923-2.455
		c-0.616-0.511-1.604-0.767-2.966-0.767c-1.362,0-2.352,0.256-2.965,0.767c-0.617,0.512-0.924,1.328-0.924,2.455
		c0,1.1,0.307,1.904,0.924,2.416C345.164,252.355,346.153,252.611,347.516,252.611 M339.424,254.496c-1.492,0-2.742,0.4-3.75,1.199
		s-1.748,1.943-2.22,3.436l-0.274-4.242h-5.893v19.641h6.678v-9.898c0-1.494,0.418-2.639,1.256-3.438
		c0.838-0.797,1.887-1.197,3.143-1.197c0.498,0,0.969,0.059,1.414,0.176c0.445,0.119,0.799,0.256,1.061,0.412l0.707-5.656
		C341.021,254.641,340.314,254.496,339.424,254.496 M314.246,254.496c-3.246,0-5.779,0.898-7.6,2.691s-2.73,4.301-2.73,7.521
		c0,3.248,0.918,5.76,2.75,7.541s4.451,2.672,7.855,2.672c2.645,0,4.773-0.557,6.383-1.67c1.611-1.113,2.559-2.559,2.848-4.34
		l-6.01-1.924c-0.314,2.121-1.4,3.18-3.26,3.18c-2.592,0-3.889-1.793-3.889-5.381c0-3.691,1.297-5.537,3.889-5.537
		c1.754,0,2.762,1.125,3.025,3.377l6.205-2.043c-0.367-1.807-1.297-3.271-2.789-4.398
		C319.432,255.061,317.205,254.496,314.246,254.496 M292.172,274.922c3.037,0,5.355-0.596,6.953-1.787
		c1.596-1.191,2.396-2.742,2.396-4.654c0-1.703-0.636-3.045-1.905-4.027s-3.346-1.721-6.225-2.219
		c-1.336-0.262-2.272-0.529-2.809-0.805c-0.537-0.275-0.807-0.609-0.807-1.002c0-0.42,0.262-0.771,0.787-1.061
		c0.523-0.287,1.256-0.432,2.199-0.432c1.203,0,2.238,0.209,3.103,0.629c0.864,0.418,1.61,1.086,2.239,2.002l3.457-3.377
		c-0.891-1.23-2.051-2.154-3.477-2.77c-1.428-0.615-3.267-0.924-5.519-0.924c-2.044,0-3.778,0.309-5.206,0.924
		c-1.426,0.615-2.493,1.42-3.201,2.416c-0.707,0.994-1.059,2.057-1.059,3.182c0,1.648,0.621,2.973,1.865,3.967
		c1.244,0.996,3.332,1.779,6.264,2.355c1.309,0.264,2.232,0.531,2.77,0.807c0.537,0.273,0.807,0.596,0.807,0.963
		c0,0.418-0.262,0.752-0.787,1c-0.523,0.25-1.244,0.373-2.16,0.373c-2.75,0-4.688-0.93-5.812-2.787l-3.457,3.77
		C284.473,273.77,287.668,274.922,292.172,274.922 M266.484,269.305v-5.303h10.684v-4.91h-10.684v-5.264h13.434v-5.223h-20.189
		v25.924h20.699v-5.225H266.484z"/>
	<path clip-path="url(#SVGID_4_)" fill="#231F20" d="M1123.807,417.672c-1.574-3.672-3.73-6.822-6.457-9.451
		c-2.732-2.623-5.936-4.725-9.607-6.299c-3.677-1.576-7.512-2.363-11.498-2.363c-4.203,0-8.088,0.787-11.656,2.363
		c-3.572,1.574-6.723,3.676-9.449,6.299c-2.732,2.629-4.883,5.779-6.457,9.451c-1.576,3.676-2.363,7.615-2.363,11.812
		c0,4.203,0.787,8.141,2.363,11.812c1.574,3.678,3.725,6.828,6.457,9.451c2.727,2.627,5.877,4.725,9.449,6.299
		c3.568,1.576,7.453,2.363,11.656,2.363c3.986,0,7.821-0.787,11.498-2.363c3.672-1.574,6.875-3.672,9.607-6.299
		c2.727-2.623,4.883-5.773,6.457-9.451c1.574-3.672,2.363-7.609,2.363-11.812C1126.17,425.287,1125.381,421.348,1123.807,417.672
		 M940,410.111c-6.93-6.402-10.395-14.963-10.395-25.674c0-10.709,3.465-19.264,10.395-25.672c6.932-6.404,15.75-9.609,26.461-9.609
		c10.709,0,19.531,3.205,26.461,9.609c6.93,6.408,10.395,14.963,10.395,25.672c0,10.711-3.465,19.271-10.395,25.674
		c-6.93,6.408-15.752,9.607-26.461,9.607C955.75,419.719,946.932,416.52,940,410.111 M1041.117,296.865
		c0-10.285-1.943-19.578-5.828-27.877c-3.887-8.295-9.242-15.326-16.064-21.105c-6.826-5.774-14.805-10.183-23.941-13.231
		c-9.135-3.041-18.953-4.566-29.453-4.566c-10.502,0-20.426,1.787-29.768,5.355c-9.346,3.572-17.592,8.662-24.729,15.276
		c-7.141,6.617-12.811,14.648-17.01,24.098c-4.203,9.451-6.301,19.955-6.301,31.502v80.326c0,10.711,2.049,20.531,6.143,29.453
		c4.096,8.93,9.658,16.592,16.695,22.996c7.035,6.408,15.328,11.395,24.887,14.963c9.555,3.568,19.791,5.355,30.713,5.355
		c11.971,0,22.783-1.891,32.445-5.67c9.658-3.779,17.902-9.027,24.729-15.752c6.822-6.717,12.074-14.75,15.75-24.098
		c3.672-9.342,5.514-19.578,5.514-30.713v-3.779c0-10.918-1.684-20.682-5.041-29.297c-3.361-8.607-7.984-15.908-13.859-21.893
		c-5.883-5.984-12.812-10.602-20.791-13.859c-7.982-3.254-16.488-4.883-25.516-4.883c-10.08,0-19.113,2.258-27.09,6.771
		c-7.984,4.52-13.758,10.449-17.326,17.799h-5.67v-28.352c0-10.709,3.307-19.373,9.922-25.988
		c6.615-6.613,15.594-9.922,26.934-9.922s19.688,2.678,25.043,8.033s8.033,11.709,8.033,19.057H1041.117z"/>
	<path clip-path="url(#SVGID_4_)" fill="#0046FA" d="M556.422,342.166v18.754l178.471-4.064
		c-16.566,20.631-31.568,47.51-31.568,74.701l0.312,0.625c25.941-35.631,64.699-64.697,106.268-80.014v-0.938
		c-42.193-15.314-79.076-43.758-106.268-79.701l-0.312,0.312c0.625,25.629,13.127,57.51,31.568,74.387L556.422,342.166z"/>
</g>
<polygon fill="#231F20" points="40.437,34.726 181.326,34.726 181.326,98.04 102.041,98.04 102.041,208.128 159.08,208.128 
	159.08,275.436 102.041,275.436 102.041,390.658 181.326,390.658 181.326,453.971 40.437,453.971 "/>
</svg>
