<?xml version="1.0" encoding="utf-8"?>
<!-- Generator: Adobe Illustrator 16.0.0, SVG Export Plug-In . SVG Version: 6.00 Build 0)  -->
<!DOCTYPE svg PUBLIC "-//W3C//DTD SVG 1.1//EN" "http://www.w3.org/Graphics/SVG/1.1/DTD/svg11.dtd">
<svg version="1.1" id="Layer_1" xmlns="http://www.w3.org/2000/svg" xmlns:xlink="http://www.w3.org/1999/xlink" x="0px" y="0px"
	 width="564px" height="1002px" viewBox="0 0 564 1002" enable-background="new 0 0 564 1002" xml:space="preserve">
<polygon fill="#231F20" points="317.199,48.583 381.445,942 458.918,942 523.163,48.583 446.635,48.583 420.182,564.246 
	393.728,48.583 "/>
<g>
	<defs>
		<rect id="SVGID_47_" width="564" height="1002"/>
	</defs>
	<clipPath id="SVGID_2_">
		<use xlink:href="#SVGID_47_"  overflow="visible"/>
	</clipPath>
	<path clip-path="url(#SVGID_2_)" fill="#231F20" d="M194.508,686.354h44.1v46.62h-44.1V686.354z M118.91,586.814
		c0-13.021-4.62-22.68-14.28-22.68c-5.04,0-9.24,3.779-12.601,8.399c-3.359,5.04-5.039,10.92-5.039,14.28H48.77v-162.54h109.62
		v44.94H87.83v64.26c5.039-3.78,10.5-7.141,16.8-9.24c2.94-1.26,6.3-1.68,9.239-1.26c23.521,0,36.121,13.439,42.841,28.14
		s7.56,30.66,7.56,35.7v68.88c0,14.7-0.84,34.44-8.82,50.82c-7.98,16.8-23.1,29.819-50.4,29.819c-28.139,0-42.419-13.02-50.398-31.5
		c-7.98-18.06-8.82-41.159-8.82-61.739h45.359v12.18c0,15.54,0.84,26.46,2.94,32.34c2.101,6.3,5.46,9.24,10.919,9.24
		c4.621,0,8.4-2.94,10.5-8.82c2.102-5.88,3.361-16.8,3.361-32.34V586.814z"/>
	<path clip-path="url(#SVGID_2_)" fill="#231F20" d="M234.262,358.606c2.799,0,4.934-0.549,6.406-1.647
		c1.472-1.098,2.207-2.527,2.207-4.289c0-1.568-0.584-2.805-1.754-3.71c-1.172-0.905-3.084-1.586-5.738-2.045
		c-1.23-0.241-2.094-0.489-2.588-0.742s-0.741-0.561-0.741-0.923c0-0.386,0.241-0.712,0.724-0.977
		c0.482-0.266,1.158-0.399,2.027-0.399c1.109,0,2.062,0.194,2.859,0.58c0.797,0.386,1.483,1.001,2.062,1.846l3.186-3.113
		c-0.82-1.134-1.889-1.985-3.203-2.552c-1.315-0.567-3.011-0.851-5.086-0.851c-1.881,0-3.48,0.284-4.795,0.851
		c-1.315,0.567-2.299,1.309-2.951,2.226c-0.65,0.917-0.977,1.895-0.977,2.932c0,1.52,0.573,2.739,1.719,3.655
		c1.146,0.918,3.07,1.642,5.773,2.172c1.207,0.242,2.057,0.489,2.552,0.742c0.494,0.254,0.741,0.549,0.741,0.887
		c0,0.386-0.241,0.694-0.723,0.923c-0.483,0.23-1.146,0.344-1.991,0.344c-2.533,0-4.319-0.856-5.357-2.57l-3.185,3.475
		C227.168,357.544,230.11,358.606,234.262,358.606 M214.246,344.092c1.93,0,3.041,1.182,3.33,3.547h-6.805
		C211.133,345.274,212.291,344.092,214.246,344.092 M223.33,348.942c0-2.896-0.777-5.146-2.334-6.751
		c-1.556-1.604-3.795-2.407-6.713-2.407c-3.018,0-5.346,0.821-6.986,2.462c-1.642,1.641-2.461,3.957-2.461,6.949
		c0,2.993,0.838,5.309,2.514,6.95c1.678,1.641,4.097,2.461,7.258,2.461c2.123,0,3.915-0.404,5.375-1.213
		c1.46-0.808,2.443-1.984,2.95-3.529l-4.995-1.592c-0.193,0.651-0.573,1.146-1.141,1.484c-0.566,0.338-1.297,0.506-2.189,0.506
		c-1.062,0-1.912-0.265-2.551-0.796c-0.641-0.53-1.057-1.363-1.249-2.497h12.343C223.271,350.438,223.33,349.763,223.33,348.942
		 M201.324,340.146h-6.152v18.098h6.152V340.146z M198.248,338.047c1.254,0,2.166-0.235,2.733-0.706
		c0.565-0.47,0.851-1.212,0.851-2.226c0-1.037-0.285-1.791-0.851-2.262c-0.567-0.47-1.479-0.706-2.733-0.706
		s-2.166,0.236-2.732,0.706c-0.568,0.471-0.852,1.225-0.852,2.262c0,1.014,0.283,1.756,0.852,2.226
		C196.082,337.812,196.994,338.047,198.248,338.047 M184.676,339.784c-1.328,0-2.528,0.314-3.603,0.941
		c-1.073,0.628-1.899,1.533-2.479,2.715c-0.435-1.182-1.153-2.087-2.154-2.715c-1.001-0.627-2.188-0.941-3.565-0.941
		c-1.399,0-2.617,0.326-3.656,0.979c-1.037,0.651-1.844,1.604-2.424,2.859l-0.182-3.475h-5.501v18.098h6.153v-9.556
		c0-1.399,0.301-2.448,0.904-3.149c0.604-0.699,1.363-1.049,2.281-1.049c1.641,0,2.461,1.038,2.461,3.113v10.641h6.153v-9.664
		c0-1.327,0.289-2.34,0.868-3.041c0.579-0.699,1.352-1.049,2.316-1.049c1.641,0,2.461,1.038,2.461,3.113v10.641h6.153v-12.053
		c0-2.051-0.573-3.631-1.719-4.742C188,340.34,186.508,339.784,184.676,339.784 M148.011,344.165c1.157,0,2.014,0.398,2.569,1.194
		c0.555,0.797,0.832,2.076,0.832,3.837c0,1.762-0.277,3.041-0.832,3.837c-0.556,0.796-1.412,1.194-2.569,1.194
		c-1.159,0-2.017-0.398-2.57-1.194c-0.556-0.796-0.833-2.075-0.833-3.837c0-1.761,0.277-3.04,0.833-3.837
		C145.994,344.562,146.852,344.165,148.011,344.165 M148.011,339.784c-3.017,0-5.364,0.827-7.04,2.48
		c-1.678,1.653-2.516,3.963-2.516,6.931c0,2.968,0.838,5.279,2.516,6.932c1.676,1.653,4.023,2.479,7.04,2.479
		c3.016,0,5.362-0.826,7.038-2.479c1.678-1.653,2.517-3.964,2.517-6.932c0-2.968-0.839-5.278-2.517-6.931
		C153.373,340.611,151.026,339.784,148.011,339.784 M128.754,339.784c-1.424,0-2.666,0.32-3.728,0.96
		c-1.062,0.639-1.882,1.598-2.461,2.877l-0.181-3.475h-5.502v18.098h6.152v-9.556c0-1.423,0.301-2.479,0.905-3.167
		c0.603-0.687,1.388-1.031,2.353-1.031c0.82,0,1.453,0.259,1.9,0.778c0.446,0.519,0.669,1.394,0.669,2.624v10.352h6.154v-12.053
		c0-2.051-0.567-3.631-1.702-4.742C132.181,340.34,130.66,339.784,128.754,339.784 M103.78,344.165c1.158,0,2.015,0.398,2.569,1.194
		c0.555,0.797,0.832,2.076,0.832,3.837c0,1.762-0.277,3.041-0.832,3.837c-0.555,0.796-1.411,1.194-2.569,1.194
		c-1.159,0-2.015-0.398-2.569-1.194c-0.557-0.796-0.834-2.075-0.834-3.837c0-1.761,0.277-3.04,0.834-3.837
		C101.766,344.562,102.621,344.165,103.78,344.165 M103.78,339.784c-3.017,0-5.362,0.827-7.04,2.48
		c-1.678,1.653-2.516,3.963-2.516,6.931c0,2.968,0.838,5.279,2.516,6.932s4.023,2.479,7.04,2.479s5.362-0.826,7.04-2.479
		c1.676-1.653,2.516-3.964,2.516-6.932c0-2.968-0.84-5.278-2.516-6.931C109.143,340.611,106.797,339.784,103.78,339.784
		 M93.609,358.245l-6.443-9.121l6.299-8.977H86.66l-3.402,6.045l-3.33-6.045h-6.986l6.262,8.941l-6.515,9.157h6.806l3.618-6.298
		l3.548,6.298H93.609z M60.49,354.625c-0.555,0-0.988-0.132-1.303-0.398c-0.314-0.265-0.471-0.651-0.471-1.158
		s0.164-0.899,0.488-1.176c0.326-0.277,0.875-0.513,1.646-0.706l2.934-0.688v1.557c0,0.772-0.339,1.393-1.014,1.864
		C62.096,354.39,61.336,354.625,60.49,354.625 M71.168,354.733c-0.869,0-1.303-0.471-1.303-1.412v-6.587
		c0-2.317-0.736-4.054-2.207-5.212c-1.473-1.158-3.621-1.738-6.443-1.738c-2.414,0-4.332,0.489-5.756,1.466
		c-1.424,0.978-2.291,2.347-2.605,4.108l4.995,1.448c0.169-0.989,0.543-1.701,1.122-2.135c0.578-0.435,1.326-0.652,2.244-0.652
		c0.797,0,1.424,0.242,1.882,0.724c0.459,0.483,0.688,1.135,0.688,1.955v0.651l-4.091,0.797c-2.51,0.506-4.313,1.236-5.411,2.189
		c-1.098,0.954-1.646,2.203-1.646,3.746c0,1.473,0.482,2.595,1.447,3.367c0.965,0.772,2.354,1.158,4.162,1.158
		c3.209,0,5.357-0.929,6.443-2.787c0.507,1.858,2.062,2.787,4.669,2.787c0.94,0,1.761-0.194,2.46-0.579l0.473-3.439
		C72,354.686,71.627,354.733,71.168,354.733 M50.176,353.431c-0.748,0.531-1.617,0.796-2.607,0.796
		c-1.592,0-2.388-0.808-2.388-2.425v-7.275h5.429v-4.38h-5.429v-5.755l-6.153,1.702v4.053h-3.113v4.38h3.113v8.289
		c0.023,2.027,0.604,3.499,1.737,4.415c1.134,0.918,2.774,1.376,4.923,1.376c0.941,0,1.876-0.127,2.805-0.38
		c0.93-0.254,1.695-0.585,2.299-0.996L50.176,353.431z"/>
	<path clip-path="url(#SVGID_2_)" fill="#231F20" d="M195.314,299.111c-1.374,0-2.527,0.369-3.455,1.104
		c-0.93,0.737-1.611,1.792-2.045,3.167l-0.254-3.909h-5.43v18.098h6.152v-9.121c0-1.376,0.387-2.431,1.16-3.167
		c0.771-0.736,1.736-1.104,2.895-1.104c0.459,0,0.893,0.054,1.303,0.163c0.41,0.108,0.736,0.235,0.978,0.38l0.651-5.212
		C196.787,299.244,196.135,299.111,195.314,299.111 M179.752,299.473H173.6v18.098h6.152V299.473z M176.676,297.374
		c1.254,0,2.166-0.235,2.732-0.706c0.566-0.47,0.852-1.212,0.852-2.226c0-1.037-0.285-1.791-0.852-2.262s-1.479-0.706-2.732-0.706
		s-2.166,0.235-2.732,0.706c-0.568,0.471-0.852,1.225-0.852,2.262c0,1.014,0.283,1.756,0.852,2.226
		C174.51,297.139,175.422,297.374,176.676,297.374 M161.076,303.419c1.93,0,3.039,1.182,3.33,3.547h-6.805
		C157.963,304.601,159.121,303.419,161.076,303.419 M170.161,308.269c0-2.896-0.778-5.146-2.335-6.751
		c-1.557-1.604-3.795-2.407-6.714-2.407c-3.017,0-5.345,0.821-6.985,2.462c-1.642,1.641-2.462,3.957-2.462,6.949
		c0,2.992,0.839,5.309,2.517,6.95c1.677,1.641,4.095,2.461,7.256,2.461c2.123,0,3.916-0.404,5.375-1.213
		c1.461-0.808,2.443-1.984,2.951-3.529l-4.996-1.592c-0.193,0.651-0.573,1.146-1.139,1.484c-0.568,0.338-1.299,0.506-2.191,0.506
		c-1.061,0-1.912-0.265-2.551-0.796c-0.641-0.53-1.057-1.363-1.25-2.497h12.344C170.1,309.765,170.161,309.089,170.161,308.269
		 M141.965,299.111c-1.326,0-2.479,0.308-3.457,0.923c-0.977,0.616-1.73,1.527-2.262,2.733V291.8h-6.152v25.771h6.152v-9.519
		c0-1.448,0.303-2.522,0.904-3.222c0.604-0.699,1.388-1.049,2.354-1.049c1.713,0,2.57,1.146,2.57,3.438v10.352h6.152v-12.053
		c0-2.051-0.566-3.631-1.7-4.742C145.391,299.667,143.871,299.111,141.965,299.111 M126.438,312.757
		c-0.748,0.531-1.616,0.796-2.605,0.796c-1.593,0-2.389-0.808-2.389-2.425v-7.275h5.429v-4.38h-5.429v-5.755l-6.153,1.701v4.054
		h-3.112v4.38h3.112v8.289c0.022,2.027,0.603,3.499,1.737,4.415c1.134,0.918,2.773,1.376,4.922,1.376
		c0.941,0,1.876-0.127,2.807-0.38c0.928-0.254,1.694-0.585,2.297-0.996L126.438,312.757z M89.953,313.409
		c-1.086,0-1.924-0.399-2.516-1.195c-0.592-0.796-0.887-2.027-0.887-3.692c0-1.665,0.295-2.896,0.887-3.692
		c0.592-0.796,1.43-1.194,2.516-1.194c0.989,0,1.78,0.362,2.371,1.086s0.923,1.749,0.994,3.076v1.448
		c-0.071,1.352-0.403,2.383-0.994,3.095S90.942,313.409,89.953,313.409 M93.318,291.8v10.714c-0.53-1.062-1.254-1.894-2.17-2.498
		c-0.918-0.603-2.016-0.905-3.295-0.905c-2.34,0-4.174,0.833-5.502,2.498c-1.326,1.665-1.989,3.994-1.989,6.986
		c0,2.944,0.657,5.236,1.972,6.877c1.315,1.641,3.143,2.461,5.484,2.461c1.352,0,2.539-0.338,3.564-1.014
		c1.025-0.675,1.805-1.604,2.336-2.787l0.217,3.439h5.537V291.8H93.318z M70.553,299.111c-1.424,0-2.666,0.32-3.728,0.96
		c-1.062,0.639-1.882,1.598-2.461,2.877l-0.181-3.475h-5.502v18.098h6.152v-9.556c0-1.423,0.301-2.479,0.905-3.167
		c0.603-0.687,1.388-1.031,2.353-1.031c0.82,0,1.453,0.259,1.9,0.778c0.445,0.519,0.669,1.393,0.669,2.624v10.352h6.153v-12.053
		c0-2.051-0.567-3.631-1.701-4.742C73.979,299.667,72.459,299.111,70.553,299.111 M44.456,313.951c-0.555,0-0.989-0.132-1.304-0.398
		c-0.312-0.265-0.469-0.651-0.469-1.158c0-0.507,0.162-0.899,0.488-1.176c0.325-0.277,0.875-0.513,1.646-0.706l2.932-0.688v1.557
		c0,0.772-0.338,1.393-1.013,1.864C46.061,313.716,45.301,313.951,44.456,313.951 M55.135,314.06c-0.869,0-1.304-0.471-1.304-1.412
		v-6.587c0-2.317-0.735-4.054-2.208-5.212c-1.473-1.159-3.619-1.738-6.443-1.738c-2.412,0-4.33,0.489-5.754,1.466
		c-1.424,0.978-2.293,2.347-2.607,4.108l4.996,1.448c0.168-0.989,0.543-1.701,1.121-2.135c0.58-0.435,1.328-0.652,2.244-0.652
		c0.797,0,1.424,0.242,1.883,0.724c0.459,0.483,0.688,1.135,0.688,1.955v0.651l-4.09,0.796c-2.51,0.507-4.312,1.237-5.411,2.19
		c-1.099,0.954-1.647,2.203-1.647,3.747c0,1.472,0.482,2.594,1.449,3.366c0.965,0.772,2.352,1.158,4.162,1.158
		c3.209,0,5.355-0.929,6.442-2.787c0.507,1.858,2.063,2.787,4.669,2.787c0.941,0,1.762-0.194,2.461-0.579l0.471-3.439
		C55.967,314.012,55.592,314.06,55.135,314.06"/>
	<path clip-path="url(#SVGID_2_)" fill="#231F20" d="M169.979,277.26c2.799,0,4.935-0.549,6.406-1.647
		c1.473-1.098,2.208-2.527,2.208-4.289c0-1.568-0.585-2.805-1.755-3.71c-1.17-0.905-3.083-1.586-5.736-2.045
		c-1.232-0.241-2.095-0.489-2.588-0.742c-0.496-0.253-0.742-0.561-0.742-0.923c0-0.386,0.24-0.711,0.724-0.977
		c0.481-0.265,1.157-0.398,2.026-0.398c1.109,0,2.064,0.193,2.859,0.579c0.796,0.386,1.484,1.001,2.062,1.846l3.186-3.113
		c-0.82-1.134-1.888-1.985-3.203-2.552c-1.314-0.566-3.01-0.85-5.085-0.85c-1.882,0-3.481,0.284-4.796,0.85
		c-1.316,0.567-2.299,1.309-2.949,2.226c-0.652,0.917-0.978,1.895-0.978,2.932c0,1.52,0.573,2.739,1.719,3.656
		s3.07,1.641,5.772,2.171c1.207,0.242,2.059,0.489,2.553,0.742c0.494,0.254,0.742,0.55,0.742,0.887c0,0.386-0.242,0.694-0.725,0.923
		c-0.482,0.23-1.146,0.344-1.99,0.344c-2.533,0-4.32-0.856-5.357-2.57l-3.186,3.475C162.885,276.199,165.828,277.26,169.979,277.26
		 M151.918,258.439c-1.424,0-2.666,0.32-3.729,0.959s-1.883,1.599-2.461,2.877l-0.182-3.474h-5.501v18.097h6.153v-9.555
		c0-1.424,0.301-2.48,0.904-3.167c0.604-0.688,1.388-1.032,2.353-1.032c0.819,0,1.454,0.26,1.901,0.778
		c0.445,0.519,0.668,1.394,0.668,2.624v10.352h6.154v-12.053c0-2.051-0.568-3.631-1.701-4.741
		C155.344,258.994,153.823,258.439,151.918,258.439 M126.943,262.818c1.158,0,2.015,0.398,2.57,1.195
		c0.555,0.796,0.832,2.075,0.832,3.836c0,1.762-0.277,3.041-0.832,3.837c-0.556,0.796-1.412,1.194-2.57,1.194
		s-2.016-0.398-2.57-1.194c-0.555-0.796-0.832-2.075-0.832-3.837c0-1.761,0.277-3.04,0.832-3.836
		C124.928,263.216,125.785,262.818,126.943,262.818 M126.943,258.439c-3.017,0-5.363,0.826-7.041,2.479
		c-1.676,1.653-2.514,3.963-2.514,6.931c0,2.968,0.838,5.279,2.514,6.932c1.678,1.653,4.024,2.479,7.041,2.479
		c3.016,0,5.363-0.826,7.039-2.479c1.678-1.653,2.517-3.964,2.517-6.932c0-2.968-0.839-5.278-2.517-6.931
		C132.307,259.265,129.959,258.439,126.943,258.439 M113.877,258.801h-6.152v18.098h6.152V258.801z M110.801,256.701
		c1.254,0,2.164-0.235,2.733-0.706c0.565-0.47,0.85-1.212,0.85-2.226c0-1.037-0.284-1.791-0.85-2.262
		c-0.569-0.47-1.479-0.706-2.733-0.706c-1.255,0-2.166,0.236-2.732,0.706c-0.566,0.471-0.852,1.225-0.852,2.262
		c0,1.014,0.285,1.756,0.852,2.226C108.635,256.466,109.546,256.701,110.801,256.701 M104.502,272.084
		c-0.747,0.531-1.615,0.796-2.605,0.796c-1.592,0-2.389-0.808-2.389-2.425v-7.275h5.43v-4.379h-5.43v-5.755l-6.152,1.701v4.054
		h-3.113v4.379h3.113v8.289c0.023,2.027,0.603,3.499,1.736,4.416c1.135,0.917,2.775,1.375,4.924,1.375
		c0.94,0,1.875-0.127,2.805-0.38c0.929-0.253,1.695-0.585,2.298-0.995L104.502,272.084z M87.6,258.801h-6.152v18.098H87.6V258.801z
		 M84.523,256.701c1.254,0,2.166-0.235,2.733-0.706c0.566-0.47,0.851-1.212,0.851-2.226c0-1.037-0.284-1.791-0.851-2.262
		c-0.567-0.47-1.479-0.706-2.733-0.706s-2.166,0.236-2.732,0.706c-0.566,0.471-0.852,1.225-0.852,2.262
		c0,1.014,0.285,1.756,0.852,2.226C82.357,256.466,83.27,256.701,84.523,256.701 M67.549,272.736c-1.086,0-1.925-0.398-2.516-1.195
		c-0.592-0.796-0.887-2.027-0.887-3.692s0.295-2.895,0.887-3.692c0.591-0.796,1.43-1.194,2.516-1.194
		c0.989,0,1.779,0.362,2.369,1.086c0.592,0.724,0.924,1.75,0.997,3.076v1.448c-0.073,1.352-0.405,2.383-0.997,3.095
		C69.328,272.38,68.538,272.736,67.549,272.736 M70.915,251.127v10.714c-0.531-1.062-1.255-1.894-2.172-2.498
		c-0.917-0.602-2.015-0.904-3.294-0.904c-2.342,0-4.176,0.832-5.502,2.497c-1.327,1.665-1.99,3.994-1.99,6.986
		c0,2.944,0.656,5.236,1.973,6.877c1.314,1.641,3.143,2.461,5.483,2.461c1.351,0,2.538-0.338,3.565-1.013
		c1.025-0.676,1.804-1.605,2.334-2.787l0.217,3.438h5.539v-25.771H70.915z M46.193,262.746c1.931,0,3.041,1.182,3.33,3.547h-6.805
		C43.081,263.928,44.238,262.746,46.193,262.746 M55.279,267.596c0-2.896-0.777-5.145-2.336-6.75
		c-1.555-1.605-3.793-2.407-6.713-2.407c-3.017,0-5.346,0.82-6.985,2.461c-1.642,1.641-2.462,3.958-2.462,6.949
		c0,2.993,0.838,5.309,2.516,6.95s4.096,2.461,7.258,2.461c2.123,0,3.914-0.404,5.375-1.212c1.459-0.809,2.442-1.985,2.949-3.529
		l-4.994-1.593c-0.195,0.651-0.574,1.146-1.141,1.484c-0.566,0.338-1.299,0.507-2.189,0.507c-1.062,0-1.914-0.266-2.553-0.797
		c-0.639-0.53-1.057-1.363-1.249-2.497h12.343C55.217,269.092,55.279,268.417,55.279,267.596"/>
	<path clip-path="url(#SVGID_2_)" fill="#231F20" d="M148.914,210.454h-6.152v20.414c0,2.003,0.434,3.456,1.303,4.361
		c0.869,0.905,2.268,1.358,4.197,1.358c0.677,0,1.363-0.085,2.064-0.254c0.699-0.168,1.266-0.386,1.701-0.651l0.398-3.801
		c-0.652,0.217-1.268,0.326-1.846,0.326c-0.629,0-1.062-0.169-1.304-0.507c-0.242-0.337-0.362-0.917-0.362-1.737V210.454z
		 M128.609,232.605c-0.557,0-0.99-0.132-1.303-0.398c-0.314-0.265-0.471-0.652-0.471-1.158c0-0.507,0.162-0.899,0.488-1.177
		c0.326-0.277,0.874-0.512,1.646-0.706l2.932-0.687v1.556c0,0.773-0.338,1.394-1.014,1.864
		C130.213,232.37,129.453,232.605,128.609,232.605 M139.287,232.714c-0.869,0-1.305-0.471-1.305-1.412v-6.588
		c0-2.316-0.734-4.053-2.207-5.212c-1.473-1.158-3.619-1.737-6.441-1.737c-2.414,0-4.332,0.489-5.756,1.466
		s-2.293,2.347-2.605,4.108l4.994,1.448c0.168-0.989,0.543-1.701,1.123-2.136c0.578-0.434,1.326-0.651,2.244-0.651
		c0.795,0,1.422,0.241,1.881,0.724s0.688,1.134,0.688,1.954v0.652l-4.09,0.796c-2.51,0.507-4.312,1.237-5.411,2.19
		c-1.099,0.953-1.647,2.202-1.647,3.746c0,1.472,0.483,2.594,1.449,3.366c0.965,0.773,2.352,1.159,4.162,1.159
		c3.209,0,5.357-0.929,6.442-2.788c0.507,1.859,2.063,2.788,4.67,2.788c0.94,0,1.761-0.194,2.461-0.58l0.47-3.438
		C140.119,232.666,139.744,232.714,139.287,232.714 M111.234,218.127v9.592c0,1.399-0.301,2.443-0.904,3.131
		c-0.603,0.687-1.41,1.031-2.425,1.031c-0.845,0-1.472-0.241-1.882-0.724c-0.41-0.482-0.615-1.315-0.615-2.497v-10.533h-6.152
		v12.089c0,2.196,0.547,3.807,1.646,4.832c1.098,1.026,2.611,1.539,4.542,1.539c3.04,0,5.127-1.243,6.263-3.729l0.18,3.367h5.502
		v-18.098H111.234z M96.143,231.411c-0.748,0.531-1.617,0.796-2.605,0.796c-1.594,0-2.39-0.808-2.39-2.425v-7.275h5.429v-4.38
		h-5.429v-5.755l-6.153,1.701v4.054h-3.113v4.38h3.113v8.288c0.023,2.027,0.604,3.499,1.736,4.416
		c1.135,0.917,2.775,1.376,4.924,1.376c0.941,0,1.876-0.127,2.805-0.381c0.93-0.253,1.695-0.584,2.299-0.995L96.143,231.411z
		 M79.674,217.765c-1.375,0-2.528,0.368-3.457,1.104c-0.93,0.736-1.61,1.792-2.045,3.167l-0.254-3.909h-5.429v18.098h6.153v-9.122
		c0-1.375,0.386-2.43,1.158-3.167c0.771-0.735,1.738-1.104,2.896-1.104c0.458,0,0.892,0.055,1.304,0.163
		c0.409,0.109,0.734,0.236,0.977,0.38l0.652-5.212C81.146,217.898,80.493,217.765,79.674,217.765 M64.11,218.127h-6.153v18.098
		h6.153V218.127z M61.033,216.028c1.256,0,2.166-0.236,2.732-0.706c0.568-0.471,0.852-1.213,0.852-2.226
		c0-1.037-0.283-1.792-0.852-2.262c-0.566-0.471-1.477-0.706-2.732-0.706c-1.255,0-2.166,0.235-2.732,0.706
		c-0.567,0.47-0.851,1.225-0.851,2.262c0,1.013,0.283,1.755,0.851,2.226C58.867,215.792,59.778,216.028,61.033,216.028
		 M49.416,218.127l-3.801,14.188l-3.729-14.188h-6.479l6.517,18.098h7.347l6.515-18.098H49.416z"/>
	<path clip-path="url(#SVGID_2_)" fill="#231F20" d="M176.061,199.352c-3.354,0-5.031-0.555-5.031-1.665
		c0-0.434,0.211-0.754,0.635-0.959c0.422-0.205,1.127-0.307,2.116-0.307h4.959c0.796,0,1.362,0.096,1.701,0.289
		c0.338,0.193,0.507,0.483,0.507,0.869c0,0.53-0.417,0.959-1.249,1.285C178.865,199.189,177.652,199.352,176.061,199.352
		 M175.771,180.603c0.795,0,1.441,0.242,1.936,0.724c0.494,0.483,0.742,1.122,0.742,1.919c0,0.796-0.248,1.429-0.742,1.9
		c-0.494,0.47-1.141,0.706-1.936,0.706c-0.796,0-1.441-0.236-1.938-0.706c-0.494-0.471-0.742-1.104-0.742-1.9
		c0-0.797,0.248-1.436,0.742-1.919C174.33,180.845,174.976,180.603,175.771,180.603 M179.209,191.534h-6.152
		c-1.256,0-1.883-0.41-1.883-1.23c0-0.652,0.375-1.074,1.123-1.267c1.014,0.217,2.172,0.326,3.475,0.326
		c2.799,0,4.97-0.531,6.516-1.593c1.543-1.062,2.314-2.57,2.314-4.524c0-2.268-1.012-3.933-3.039-4.995
		c0.24-0.507,0.633-0.905,1.176-1.195c0.543-0.289,1.225-0.434,2.045-0.434c0.193,0,0.531,0.024,1.014,0.072l-0.688-4.09
		l-0.579-0.036c-1.496,0-2.667,0.459-3.511,1.375c-0.846,0.918-1.389,2.1-1.629,3.548c-1.11-0.266-2.316-0.399-3.619-0.399
		c-2.801,0-4.971,0.538-6.516,1.611c-1.545,1.074-2.316,2.588-2.316,4.543c0,2.244,0.988,3.897,2.968,4.958
		c-0.917,0.314-1.642,0.797-2.173,1.448c-0.529,0.652-0.795,1.4-0.795,2.244c0,1.714,0.928,2.968,2.787,3.765
		c-1.135,0.265-1.979,0.699-2.533,1.303c-0.557,0.602-0.833,1.303-0.833,2.099c0,1.351,0.754,2.401,2.263,3.149
		c1.508,0.747,3.842,1.122,7.004,1.122c3.137,0,5.615-0.549,7.438-1.647c1.822-1.098,2.732-2.673,2.732-4.723
		c0-1.786-0.573-3.137-1.719-4.054C182.932,191.993,181.31,191.534,179.209,191.534 M157.168,177.092
		c-1.425,0-2.668,0.32-3.729,0.96c-1.062,0.639-1.883,1.598-2.462,2.877l-0.181-3.475h-5.502v18.098h6.152v-9.556
		c0-1.423,0.303-2.479,0.906-3.167c0.604-0.687,1.387-1.031,2.352-1.031c0.82,0,1.454,0.259,1.901,0.778
		c0.446,0.519,0.669,1.393,0.669,2.624v10.352h6.152v-12.053c0-2.051-0.566-3.631-1.7-4.742
		C160.594,177.647,159.073,177.092,157.168,177.092 M140.916,177.454h-6.152v18.098h6.152V177.454z M137.84,175.354
		c1.254,0,2.166-0.235,2.732-0.706c0.566-0.47,0.85-1.212,0.85-2.226c0-1.037-0.283-1.791-0.85-2.262s-1.479-0.706-2.732-0.706
		c-1.256,0-2.166,0.235-2.733,0.706s-0.851,1.225-0.851,2.262c0,1.014,0.283,1.756,0.851,2.226
		C135.674,175.12,136.584,175.354,137.84,175.354 M131.541,190.738c-0.748,0.531-1.617,0.796-2.605,0.796
		c-1.592,0-2.389-0.808-2.389-2.425v-7.275h5.43v-4.38h-5.43v-5.755l-6.153,1.701v4.054h-3.113v4.38h3.113v8.289
		c0.024,2.027,0.603,3.499,1.737,4.415c1.133,0.918,2.774,1.376,4.922,1.376c0.941,0,1.877-0.127,2.806-0.38
		c0.929-0.254,1.694-0.585,2.298-0.996L131.541,190.738z M105.518,191.932c-0.557,0-0.99-0.132-1.303-0.398
		c-0.314-0.265-0.472-0.651-0.472-1.158c0-0.507,0.163-0.899,0.489-1.176s0.874-0.513,1.646-0.706l2.932-0.688v1.557
		c0,0.772-0.338,1.393-1.014,1.864C107.121,191.697,106.361,191.932,105.518,191.932 M116.194,192.041
		c-0.868,0-1.303-0.471-1.303-1.412v-6.587c0-2.317-0.736-4.054-2.208-5.212c-1.473-1.158-3.619-1.738-6.442-1.738
		c-2.413,0-4.332,0.489-5.755,1.466c-1.424,0.978-2.293,2.347-2.605,4.108l4.994,1.448c0.168-0.989,0.543-1.701,1.123-2.135
		c0.578-0.435,1.325-0.652,2.243-0.652c0.796,0,1.423,0.242,1.882,0.724c0.459,0.483,0.688,1.135,0.688,1.955v0.651l-4.09,0.796
		c-2.51,0.507-4.313,1.237-5.411,2.19c-1.099,0.954-1.647,2.203-1.647,3.746c0,1.473,0.483,2.595,1.448,3.367
		c0.965,0.771,2.353,1.158,4.163,1.158c3.209,0,5.355-0.929,6.441-2.787c0.508,1.858,2.063,2.787,4.67,2.787
		c0.941,0,1.762-0.194,2.461-0.579l0.471-3.439C117.027,191.993,116.652,192.041,116.194,192.041 M86.189,181.399
		c1.93,0,3.04,1.182,3.33,3.547h-6.805C83.076,182.582,84.234,181.399,86.189,181.399 M95.274,186.25
		c0-2.896-0.778-5.146-2.335-6.751c-1.557-1.604-3.794-2.407-6.714-2.407c-3.017,0-5.345,0.821-6.985,2.462
		c-1.643,1.641-2.462,3.957-2.462,6.949c0,2.992,0.837,5.309,2.517,6.95c1.676,1.641,4.096,2.461,7.256,2.461
		c2.123,0,3.916-0.404,5.375-1.213c1.461-0.808,2.443-1.984,2.951-3.529l-4.996-1.592c-0.192,0.651-0.573,1.146-1.14,1.484
		c-0.567,0.338-1.298,0.506-2.19,0.506c-1.062,0-1.912-0.265-2.551-0.796c-0.64-0.53-1.057-1.363-1.25-2.497h12.344
		C95.213,187.746,95.274,187.069,95.274,186.25 M73.485,177.092c-1.376,0-2.528,0.369-3.457,1.104
		c-0.929,0.737-1.61,1.792-2.046,3.167l-0.252-3.909h-5.43v18.098h6.154v-9.121c0-1.376,0.385-2.431,1.157-3.167
		c0.772-0.736,1.737-1.104,2.896-1.104c0.459,0,0.893,0.054,1.303,0.163c0.41,0.108,0.736,0.235,0.979,0.38l0.65-5.212
		C74.957,177.225,74.305,177.092,73.485,177.092 M59.26,188.71l-5.646-1.593c-0.29,1.352-0.821,2.341-1.593,2.968
		c-0.773,0.628-1.822,0.942-3.148,0.942c-1.763,0-3.107-0.634-4.037-1.901c-0.929-1.267-1.393-3.106-1.393-5.52
		c0-2.412,0.482-4.252,1.448-5.519c0.964-1.267,2.327-1.9,4.09-1.9c1.278,0,2.267,0.289,2.968,0.868
		c0.699,0.579,1.219,1.593,1.557,3.041l5.465-2.208c-0.579-2.196-1.773-3.843-3.584-4.941c-1.809-1.098-4.018-1.647-6.623-1.647
		c-2.389,0-4.465,0.489-6.225,1.466c-1.763,0.977-3.113,2.395-4.055,4.253s-1.412,4.054-1.412,6.587c0,2.558,0.471,4.76,1.412,6.606
		c0.941,1.846,2.292,3.258,4.055,4.235c1.76,0.977,3.848,1.466,6.262,1.466c2.629,0,4.861-0.597,6.695-1.792
		C57.33,192.928,58.584,191.124,59.26,188.71"/>
</g>
<line fill="none" stroke="#231F20" stroke-width="2" x1="280.443" y1="26" x2="280.443" y2="976"/>
<g>
	<defs>
		<rect id="SVGID_49_" width="564" height="1002"/>
	</defs>
	<clipPath id="SVGID_4_">
		<use xlink:href="#SVGID_49_"  overflow="visible"/>
	</clipPath>
	<polygon clip-path="url(#SVGID_4_)" fill="none" stroke="#231F20" stroke-width="1.998" points="0.999,3 0.999,999 0.999,1001.002 
		3,1001.002 561,1001.002 563.002,1001.002 563.002,999 563.002,3 563.002,0.998 561,0.998 3,0.998 0.999,0.998 	"/>
</g>
<rect x="5.002" y="5.002" fill="none" stroke="#231F20" stroke-width="1.998" width="553.996" height="991.996"/>
<path fill="#FF1419" d="M45.184,880.136v14.514l97.854-3.043L100.9,955.281l0.234,0.234l137.65-67.89v-0.468l-137.65-67.421
	l-0.469,0.234l42.372,63.675L45.184,880.136z M157.785,887.626h61.803l-94.576,46.586L157.785,887.626z"/>
<line fill="none" stroke="#231F20" stroke-width="2" x1="22.943" y1="143" x2="259.443" y2="143"/>
<line fill="none" stroke="#231F20" stroke-width="2" x1="22.943" y1="388.346" x2="259.443" y2="388.346"/>
<line fill="none" stroke="#231F20" stroke-width="2" x1="22.943" y1="771" x2="259.443" y2="771"/>
<g>
	<defs>
		<rect id="SVGID_51_" width="564" height="1002"/>
	</defs>
	<clipPath id="SVGID_6_">
		<use xlink:href="#SVGID_51_"  overflow="visible"/>
	</clipPath>
	<path clip-path="url(#SVGID_6_)" fill="#FF1419" d="M232.93,37.582h10.8v63.5h14.3v10h-25.1V37.582z M209.83,61.482l-0.301-1.9
		h-0.6l-0.3,1.9l-3.101,23.2h7.4L209.83,61.482z M191.529,111.082l11.101-73.5h13.2l11.1,73.5h-10.5l-2-15h-10.4l-2,15H191.529z
		 M185.631,37.582v58.4c-0.1,3-0.7,5.7-1.801,8c-0.899,2-2.299,3.9-4.299,5.4c-2,1.6-4.701,2.5-8.301,2.5s-6.4-0.9-8.4-2.5
		c-2-1.5-3.299-3.4-4.199-5.4c-1.1-2.3-1.7-5-1.801-8v-58.4h10.801v58.4c0,2.1,0.5,3.5,1.5,4.6c0.5,0.5,1.199,0.8,2.1,0.8
		c1.9,0,2.801-1.2,3.2-2.7c0.3-0.7,0.399-1.6,0.399-2.7v-58.4H185.631z M120.531,48.682v-11.1h31.199v11.1h-10.199v62.4H130.73
		v-62.4H120.531z M98.031,70.082c1.5,0,3.5-0.2,5.101-1.6c1.601-1.4,2.899-4.1,2.899-9.3c0-5.2-1.299-8-2.899-9.4
		s-3.601-1.5-5.101-1.5V70.082z M106.531,111.082l-5.6-31h-2.9v31H87.232v-73.5h10.799c12.9,0,18.4,7.3,18.4,21.2
		c0,7.3-1.9,13.9-6,16.7l6.9,35.6H106.531z M67.433,37.582h10.8v73.5h-10.8V37.582z M51.033,37.582h10.5l-11.199,73.5H39.533
		l-11.199-73.5h10.5l5.4,40.4l0.398,3.1h0.602l0.398-3.1L51.033,37.582z"/>
</g>
</svg>
