<?xml version="1.0" encoding="utf-8"?>
<!-- Generator: Adobe Illustrator 16.0.0, SVG Export Plug-In . SVG Version: 6.00 Build 0)  -->
<!DOCTYPE svg PUBLIC "-//W3C//DTD SVG 1.1//EN" "http://www.w3.org/Graphics/SVG/1.1/DTD/svg11.dtd">
<svg version="1.1" id="Layer_1" xmlns="http://www.w3.org/2000/svg" xmlns:xlink="http://www.w3.org/1999/xlink" x="0px" y="0px"
	 width="1170.09px" height="492.17px" viewBox="0 0 1170.09 492.17" enable-background="new 0 0 1170.09 492.17"
	 xml:space="preserve">
<line fill="none" stroke="#231F20" stroke-width="2" x1="25.877" y1="392" x2="1144.043" y2="392"/>
<line fill="none" stroke="#231F20" stroke-width="2" x1="25.877" y1="181" x2="799.043" y2="181"/>
<line fill="none" stroke="#231F20" stroke-width="2" x1="820.043" y1="25.499" x2="820.043" y2="370.999"/>
<line fill="none" stroke="#231F20" stroke-width="2" x1="412.459" y1="202.776" x2="412.459" y2="370.999"/>
<path fill="#FF1419" d="M505.102,283.078v16.331l110.102-3.424l-47.412,71.644l0.264,0.264l154.879-76.386v-0.527l-154.879-75.858
	l-0.526,0.264l47.675,71.645L505.102,283.078z M631.797,291.507h69.537L594.92,343.923L631.797,291.507z"/>
<g>
	<defs>
		<rect id="SVGID_69_" width="1170.088" height="492.17"/>
	</defs>
	<clipPath id="SVGID_2_">
		<use xlink:href="#SVGID_69_"  overflow="visible"/>
	</clipPath>
	<path clip-path="url(#SVGID_2_)" fill="#FF1419" d="M725.955,105.124l9.66-25.2h0.21l9.659,25.2H725.955z M726.585,53.149
		l-34.966,86.625h21.211l6.405-17.326h32.97l6.405,17.326h21.21l-34.965-86.625H726.585z M629.67,68.899h2.312
		c1.819,0,3.359,0.035,4.62,0.104c1.26,0.071,2.693,0.315,4.305,0.735c1.609,0.42,2.904,1.016,3.885,1.785
		c0.98,0.771,1.82,1.89,2.521,3.359c0.698,1.471,1.05,3.255,1.05,5.355c0,2.1-0.352,3.885-1.05,5.354
		c-0.7,1.47-1.54,2.591-2.521,3.36c-0.98,0.771-2.275,1.365-3.885,1.785c-1.611,0.42-3.045,0.666-4.305,0.734
		c-1.261,0.071-2.801,0.105-4.62,0.105h-2.312V68.899z M609.932,139.774h19.738v-34.23l26.461,34.23h25.096l-29.82-35.806
		c5.459-1.749,9.781-4.776,12.968-9.083c3.185-4.305,4.777-9.641,4.777-16.012c0-8.26-2.625-14.611-7.875-19.057
		s-12.04-6.668-20.37-6.668h-30.975V139.774z M562.893,53.149v50.084c0,7.002-1.103,11.865-3.308,14.596
		c-2.204,2.729-5.793,4.095-10.762,4.095c-4.972,0-8.558-1.365-10.763-4.095c-2.205-2.73-3.309-7.594-3.309-14.596V53.149h-19.738
		v55.859c0,10.641,2.869,18.689,8.609,24.15c5.738,5.459,14.139,8.189,25.2,8.189c11.06,0,19.458-2.73,25.2-8.189
		c5.738-5.461,8.609-13.51,8.609-24.15V53.149H562.893z M452.854,70.474v69.301h19.74V70.474h20.58V53.149h-60.9v17.324H452.854z
		 M394.682,139.774h19.74V53.149h-19.74V139.774z M323.494,68.899h2.311c1.818,0,3.359,0.035,4.619,0.104
		c1.26,0.071,2.693,0.315,4.305,0.735c1.609,0.42,2.904,1.016,3.886,1.785c0.979,0.771,1.819,1.89,2.521,3.359
		c0.697,1.471,1.049,3.255,1.049,5.355c0,2.1-0.352,3.885-1.049,5.354c-0.701,1.47-1.541,2.591-2.521,3.36
		c-0.981,0.771-2.276,1.365-3.886,1.785c-1.611,0.42-3.045,0.666-4.305,0.734c-1.26,0.071-2.801,0.105-4.619,0.105h-2.311V68.899z
		 M303.754,139.774h19.74v-34.23l26.459,34.23h25.096l-29.82-35.806c5.461-1.749,9.781-4.776,12.968-9.083
		c3.185-4.305,4.778-9.641,4.778-16.012c0-8.26-2.625-14.611-7.875-19.057s-12.041-6.668-20.371-6.668h-30.975V139.774z
		 M233.877,114.103c-4.935-5.215-7.402-11.113-7.402-17.693c0-3.01,0.578-5.967,1.732-8.873c1.155-2.903,2.835-5.617,5.04-8.137
		c2.205-2.521,5.198-4.55,8.978-6.091c3.781-1.538,8.049-2.31,12.811-2.31c3.008,0,5.984,0.49,8.925,1.47
		c2.94,0.981,4.898,1.769,5.88,2.362c0.979,0.596,1.715,1.103,2.205,1.523l8.4-16.801l-2.939-1.995
		c-1.962-1.329-5.305-2.659-10.029-3.989s-9.887-1.996-15.486-1.996c-6.021,0-11.902,1.191-17.641,3.57
		c-5.74,2.381-10.762,5.565-15.068,9.555c-4.305,3.99-7.753,8.787-10.341,14.386c-2.591,5.601-3.886,11.444-3.886,17.534
		c0,8.052,2.205,15.541,6.615,22.471s10.219,12.374,17.43,16.328c7.209,3.955,14.84,5.932,22.891,5.932
		c3.499,0,6.893-0.281,10.186-0.84c3.289-0.561,5.947-1.189,7.979-1.891c2.029-0.698,3.938-1.521,5.723-2.467
		s2.922-1.592,3.413-1.942c0.488-0.349,0.874-0.63,1.155-0.841l-8.4-16.799l-1.994,1.364c-1.332,0.841-3.414,1.716-6.248,2.625
		c-2.836,0.911-5.76,1.365-8.768,1.365C245.863,121.924,238.812,119.317,233.877,114.103 M138.275,58.978
		c-5.742,4.934-8.61,11.286-8.61,19.057c0,4.48,1.435,8.662,4.306,12.547c2.869,3.886,6.93,7.124,12.18,9.713
		c1.26,0.63,3.201,1.559,5.826,2.781c2.625,1.227,4.516,2.138,5.67,2.731c1.156,0.595,2.484,1.401,3.99,2.415
		c1.506,1.016,2.556,2.031,3.15,3.044c0.594,1.017,0.893,2.119,0.893,3.308c0,5.67-4.166,8.506-12.494,8.506
		c-2.871,0-6.18-0.909-9.924-2.73c-3.744-1.818-6.352-3.271-7.821-4.357c-1.47-1.084-2.625-1.977-3.466-2.678l-9.869,16.59
		l1.365,1.155c0.908,0.771,2.344,1.716,4.305,2.835c1.959,1.121,4.164,2.258,6.615,3.413c2.449,1.155,5.494,2.118,9.135,2.888
		c3.639,0.769,7.35,1.154,11.129,1.154c4.41,0,8.506-0.509,12.286-1.523c3.78-1.012,7.226-2.571,10.341-4.672
		c3.115-2.1,5.566-5.004,7.352-8.715c1.784-3.709,2.678-8.049,2.678-13.02c0-5.18-1.979-9.816-5.934-13.912
		c-3.955-4.096-8.732-7.332-14.332-9.713c-3.221-1.398-5.601-2.449-7.141-3.15c-1.54-0.699-3.325-1.628-5.354-2.783
		c-2.033-1.154-3.466-2.238-4.306-3.254c-0.841-1.014-1.261-2.117-1.261-3.308c0-2.379,0.893-4.269,2.678-5.67
		c1.785-1.399,4.322-2.101,7.613-2.101c2.658,0,5.529,0.562,8.609,1.681c3.08,1.121,5.18,2.013,6.301,2.677
		c1.119,0.667,1.994,1.208,2.625,1.628l7.979-15.75l-3.149-2.1c-2.172-1.329-5.496-2.679-9.976-4.042
		c-4.481-1.365-9.065-2.049-13.755-2.049C150.561,51.573,144.014,54.042,138.275,58.978 M49.342,53.149v86.625H98.9v-17.326H69.081
		v-17.43h28.56V87.694h-28.56V70.474H98.9V53.149H49.342z"/>
	<polygon clip-path="url(#SVGID_2_)" fill="none" stroke="#231F20" stroke-width="1.998" points="0.998,3 0.998,489.17 
		0.998,491.172 3,491.172 1167.086,491.172 1169.088,491.172 1169.088,489.17 1169.088,3 1169.088,0.998 1167.086,0.998 3,0.998 
		0.998,0.998 	"/>
</g>
<rect x="5.001" y="5.002" fill="none" stroke="#231F20" stroke-width="1.998" width="1160.085" height="482.166"/>
<g>
	<defs>
		<rect id="SVGID_71_" width="1170.088" height="492.17"/>
	</defs>
	<clipPath id="SVGID_4_">
		<use xlink:href="#SVGID_71_"  overflow="visible"/>
	</clipPath>
	<path clip-path="url(#SVGID_4_)" fill="#231F20" d="M1127.816,440.478c0.384-0.276,0.959-0.414,1.729-0.414
		c0.84,0,1.523,0.186,2.051,0.558s0.9,0.882,1.115,1.53l4.105-1.656c-0.192-0.504-0.469-1.026-0.828-1.565
		c-0.361-0.54-0.828-1.032-1.404-1.477s-1.278-0.804-2.107-1.08c-0.826-0.275-1.805-0.414-2.932-0.414
		c-0.865,0-1.705,0.12-2.521,0.36c-0.815,0.24-1.535,0.594-2.159,1.062c-0.624,0.469-1.128,1.038-1.513,1.71
		c-0.383,0.673-0.576,1.452-0.576,2.341v0.216c0,1.704,0.594,2.994,1.781,3.87c1.189,0.876,2.791,1.397,4.808,1.565
		c0.743,0.072,1.36,0.168,1.854,0.288c0.491,0.12,0.881,0.271,1.168,0.45c0.289,0.18,0.487,0.372,0.596,0.576
		c0.107,0.204,0.161,0.426,0.161,0.666c0,0.408-0.21,0.786-0.63,1.134s-1.193,0.521-2.322,0.521c-1.271,0-2.213-0.287-2.826-0.863
		c-0.611-0.576-1.014-1.248-1.205-2.017l-4.176,1.368c0.119,0.624,0.354,1.267,0.701,1.926c0.348,0.66,0.847,1.261,1.494,1.801
		c0.648,0.54,1.464,0.989,2.447,1.35c0.985,0.36,2.174,0.54,3.564,0.54c2.354,0,4.177-0.528,5.473-1.584s1.943-2.472,1.943-4.248
		v-0.216c0-1.608-0.575-2.862-1.729-3.762c-1.151-0.9-2.639-1.446-4.463-1.639c-1.584-0.168-2.676-0.378-3.277-0.63
		c-0.599-0.252-0.898-0.666-0.898-1.242C1127.24,441.096,1127.432,440.753,1127.816,440.478 M1106.252,450.18
		c-0.576-0.217-1.08-0.528-1.512-0.937c-0.433-0.408-0.773-0.906-1.026-1.494c-0.252-0.588-0.378-1.254-0.378-1.998v-0.72
		c0-0.744,0.126-1.41,0.378-1.998c0.253-0.588,0.594-1.086,1.026-1.494c0.432-0.408,0.936-0.72,1.512-0.936s1.188-0.324,1.836-0.324
		s1.26,0.108,1.836,0.324s1.08,0.527,1.512,0.936c0.433,0.408,0.774,0.906,1.026,1.494s0.378,1.254,0.378,1.998v0.72
		c0,0.744-0.126,1.41-0.378,1.998s-0.594,1.086-1.026,1.494c-0.432,0.408-0.936,0.72-1.512,0.937
		c-0.576,0.216-1.188,0.323-1.836,0.323S1106.828,450.396,1106.252,450.18 M1117.376,445.175c0-1.464-0.253-2.766-0.756-3.905
		c-0.504-1.141-1.188-2.106-2.052-2.898c-0.864-0.792-1.854-1.392-2.971-1.8c-1.115-0.408-2.286-0.612-3.51-0.612
		s-2.393,0.204-3.51,0.612c-1.116,0.408-2.107,1.008-2.971,1.8s-1.548,1.758-2.053,2.898c-0.502,1.14-0.754,2.441-0.754,3.905v0.433
		c0,1.488,0.252,2.802,0.754,3.941c0.505,1.141,1.189,2.101,2.053,2.881c0.863,0.779,1.854,1.373,2.971,1.781
		c1.117,0.408,2.286,0.612,3.51,0.612s2.395-0.204,3.51-0.612c1.116-0.408,2.106-1.002,2.971-1.781
		c0.863-0.78,1.548-1.74,2.052-2.881c0.503-1.14,0.756-2.453,0.756-3.941V445.175z M1077.704,440.783h5.292v10.728
		c0,0.816,0.258,1.488,0.773,2.017s1.183,0.792,1.998,0.792h7.561v-4.32h-4.824c-0.648,0-0.972-0.359-0.972-1.08v-8.136h6.443v-4.32
		h-6.443v-7.344h-4.536v7.344h-5.292V440.783z M1061.072,445.031c0-1.512,0.33-2.718,0.99-3.618c0.659-0.899,1.661-1.35,3.006-1.35
		c1.15,0,2.033,0.366,2.646,1.098c0.612,0.732,0.917,1.734,0.917,3.006v10.152h4.537v-11.304c0-1.225-0.162-2.28-0.486-3.168
		c-0.324-0.889-0.773-1.62-1.35-2.196s-1.242-1.002-1.998-1.278c-0.756-0.275-1.566-0.414-2.43-0.414
		c-1.225,0-2.292,0.276-3.204,0.828s-1.573,1.332-1.981,2.34h-0.646v-2.664h-4.536v17.856h4.536V445.031z M1046.006,440.892
		c0.756,0.552,1.205,1.248,1.35,2.088h-8.424c0.217-0.769,0.685-1.446,1.404-2.034c0.719-0.588,1.656-0.882,2.808-0.882
		S1045.25,440.339,1046.006,440.892 M1051.963,446.867v-2.412c0-0.936-0.168-1.902-0.504-2.897
		c-0.336-0.996-0.863-1.908-1.584-2.736c-0.719-0.828-1.631-1.512-2.735-2.052c-1.104-0.54-2.423-0.811-3.96-0.811
		c-1.248,0-2.418,0.223-3.51,0.666c-1.092,0.444-2.046,1.062-2.862,1.854c-0.815,0.792-1.458,1.752-1.926,2.88
		s-0.702,2.376-0.702,3.744v0.216c0,1.488,0.223,2.82,0.666,3.996c0.444,1.176,1.068,2.172,1.873,2.987
		c0.803,0.816,1.757,1.44,2.861,1.872c1.104,0.433,2.328,0.648,3.672,0.648c1.176,0,2.201-0.132,3.078-0.396
		c0.875-0.264,1.619-0.6,2.232-1.008c0.611-0.408,1.109-0.857,1.492-1.35c0.385-0.492,0.686-0.966,0.901-1.422l-3.888-2.16
		c-0.266,0.552-0.696,1.026-1.297,1.422c-0.6,0.396-1.464,0.594-2.592,0.594c-0.576,0-1.122-0.09-1.638-0.27
		c-0.517-0.181-0.972-0.433-1.368-0.756c-0.396-0.324-0.707-0.708-0.936-1.152s-0.354-0.93-0.378-1.458H1051.963z M1031.12,440.495
		c0-1.416-0.36-2.526-1.08-3.33s-1.68-1.206-2.88-1.206c-0.912,0-1.674,0.21-2.286,0.63s-1.014,0.954-1.206,1.603h-0.648
		c-0.191-0.648-0.563-1.183-1.115-1.603c-0.553-0.42-1.225-0.63-2.018-0.63c-0.84,0-1.518,0.21-2.033,0.63s-0.846,0.954-0.989,1.603
		h-0.647v-1.729h-4.537v17.856h4.537v-12.312c0-0.575,0.144-1.008,0.432-1.296c0.287-0.288,0.646-0.432,1.079-0.432
		c0.385,0,0.714,0.126,0.991,0.378c0.275,0.252,0.412,0.63,0.412,1.134v12.528h4.537v-12.312c0-0.575,0.138-1.008,0.414-1.296
		c0.275-0.288,0.654-0.432,1.135-0.432c0.407,0,0.736,0.126,0.988,0.378c0.253,0.252,0.379,0.63,0.379,1.134v12.528h4.536V440.495z
		 M996.074,449.189c-0.877-0.876-1.314-2.07-1.314-3.582v-0.433c0-1.512,0.438-2.706,1.314-3.582
		c0.875-0.876,2.021-1.313,3.438-1.313s2.562,0.45,3.438,1.35c0.877,0.9,1.314,2.082,1.314,3.546v0.433
		c0,1.464-0.438,2.646-1.314,3.546c-0.875,0.899-2.021,1.35-3.438,1.35S996.949,450.065,996.074,449.189 M1004.264,456.119
		c0,0.72-0.323,1.08-0.973,1.08h-9.287v4.32h12.024c0.815,0,1.481-0.265,1.997-0.792c0.517-0.528,0.775-1.2,0.775-2.017v-22.248
		h-4.537v2.593h-0.647c-0.479-0.984-1.141-1.746-1.979-2.286c-0.842-0.54-1.98-0.811-3.42-0.811c-1.08,0-2.105,0.204-3.079,0.612
		c-0.972,0.408-1.823,1.002-2.556,1.782c-0.732,0.779-1.309,1.733-1.729,2.861s-0.63,2.412-0.63,3.853v0.647
		c0,1.465,0.198,2.761,0.595,3.889c0.396,1.128,0.947,2.082,1.655,2.861c0.708,0.78,1.536,1.368,2.484,1.765
		c0.948,0.396,1.974,0.594,3.078,0.594c0.864,0,1.602-0.084,2.214-0.252c0.611-0.168,1.14-0.396,1.584-0.684
		c0.443-0.288,0.804-0.618,1.08-0.99s0.51-0.763,0.702-1.17h0.647V456.119z M974.204,449.189c-0.792-0.876-1.188-2.07-1.188-3.582
		v-0.433c0-1.512,0.396-2.706,1.188-3.582s1.849-1.313,3.168-1.313c1.32,0,2.376,0.438,3.168,1.313s1.188,2.07,1.188,3.582v0.433
		c0,1.512-0.396,2.706-1.188,3.582s-1.848,1.313-3.168,1.313C976.053,450.503,974.996,450.065,974.204,449.189 M982.053,451.728
		c0,0.768,0.256,1.392,0.773,1.872c0.516,0.479,1.182,0.72,1.998,0.72h3.096v-4.32h-0.684c-0.648,0-0.973-0.359-0.973-1.08v-12.456
		h-4.536v2.16h-0.647c-0.456-0.912-1.074-1.584-1.854-2.016c-0.78-0.433-1.806-0.648-3.077-0.648c-1.057,0-2.047,0.21-2.971,0.63
		s-1.733,1.026-2.43,1.818c-0.695,0.792-1.248,1.752-1.656,2.88s-0.611,2.4-0.611,3.816v0.576c0,1.439,0.209,2.724,0.631,3.852
		c0.418,1.128,0.988,2.088,1.709,2.88c0.72,0.792,1.554,1.392,2.502,1.8c0.947,0.408,1.962,0.612,3.042,0.612
		c1.151,0,2.16-0.234,3.022-0.702c0.865-0.468,1.537-1.266,2.018-2.394H982.053z M947.312,440.783h3.24v9.216h-3.674v4.32h12.313
		v-4.32h-4.104v-5.76c0-1.296,0.288-2.292,0.864-2.988c0.576-0.695,1.368-1.044,2.376-1.044s1.764,0.294,2.268,0.882
		s0.756,1.374,0.756,2.358v0.504l4.681-0.432v-0.792c0-2.28-0.54-3.979-1.62-5.095c-1.08-1.115-2.508-1.674-4.285-1.674
		c-1.127,0-2.094,0.271-2.896,0.811c-0.805,0.54-1.375,1.302-1.711,2.286h-0.647v-2.593h-7.56V440.783z M926.36,440.783h5.075
		v13.536h4.535v-13.536h7.021v-4.32h-7.021v-1.943c0-0.721,0.324-1.08,0.974-1.08h5.399v-4.32h-7.271
		c-1.032,0-1.896,0.354-2.592,1.062c-0.696,0.708-1.045,1.577-1.045,2.609v3.672h-5.075V440.783z M889.424,440.478
		c0.384-0.276,0.961-0.414,1.729-0.414c0.84,0,1.523,0.186,2.052,0.558s0.899,0.882,1.116,1.53l4.104-1.656
		c-0.191-0.504-0.468-1.026-0.828-1.565c-0.359-0.54-0.828-1.032-1.403-1.477c-0.576-0.444-1.278-0.804-2.106-1.08
		c-0.828-0.275-1.806-0.414-2.934-0.414c-0.864,0-1.704,0.12-2.521,0.36c-0.814,0.24-1.535,0.594-2.16,1.062
		c-0.623,0.469-1.127,1.038-1.51,1.71c-0.385,0.673-0.576,1.452-0.576,2.341v0.216c0,1.704,0.594,2.994,1.781,3.87
		s2.79,1.397,4.805,1.565c0.746,0.072,1.363,0.168,1.855,0.288s0.881,0.271,1.17,0.45c0.288,0.18,0.486,0.372,0.594,0.576
		s0.162,0.426,0.162,0.666c0,0.408-0.21,0.786-0.631,1.134c-0.42,0.348-1.193,0.521-2.32,0.521c-1.272,0-2.215-0.287-2.827-0.863
		s-1.013-1.248-1.206-2.017l-4.176,1.368c0.119,0.624,0.354,1.267,0.702,1.926c0.348,0.66,0.846,1.261,1.494,1.801
		c0.647,0.54,1.464,0.989,2.448,1.35c0.982,0.36,2.172,0.54,3.564,0.54c2.352,0,4.175-0.528,5.471-1.584
		c1.297-1.056,1.945-2.472,1.945-4.248v-0.216c0-1.608-0.577-2.862-1.729-3.762c-1.152-0.9-2.641-1.446-4.464-1.639
		c-1.584-0.168-2.677-0.378-3.276-0.63s-0.9-0.666-0.9-1.242C888.848,441.096,889.04,440.753,889.424,440.478 M867.86,450.18
		c-0.576-0.217-1.08-0.528-1.513-0.937c-0.432-0.408-0.773-0.906-1.025-1.494s-0.378-1.254-0.378-1.998v-0.72
		c0-0.744,0.126-1.41,0.378-1.998s0.594-1.086,1.025-1.494c0.433-0.408,0.937-0.72,1.513-0.936c0.575-0.216,1.187-0.324,1.836-0.324
		c0.647,0,1.26,0.108,1.836,0.324s1.08,0.527,1.511,0.936c0.433,0.408,0.775,0.906,1.027,1.494s0.378,1.254,0.378,1.998v0.72
		c0,0.744-0.126,1.41-0.378,1.998s-0.595,1.086-1.027,1.494c-0.431,0.408-0.935,0.72-1.511,0.937
		c-0.576,0.216-1.188,0.323-1.836,0.323C869.047,450.503,868.436,450.396,867.86,450.18 M878.984,445.175
		c0-1.464-0.252-2.766-0.757-3.905c-0.504-1.141-1.188-2.106-2.052-2.898c-0.863-0.792-1.854-1.392-2.971-1.8
		c-1.115-0.408-2.285-0.612-3.509-0.612c-1.226,0-2.394,0.204-3.511,0.612c-1.115,0.408-2.105,1.008-2.969,1.8
		c-0.865,0.792-1.549,1.758-2.053,2.898c-0.504,1.14-0.756,2.441-0.756,3.905v0.433c0,1.488,0.252,2.802,0.756,3.941
		c0.504,1.141,1.188,2.101,2.053,2.881c0.863,0.779,1.854,1.373,2.969,1.781c1.117,0.408,2.285,0.612,3.511,0.612
		c1.224,0,2.394-0.204,3.509-0.612c1.117-0.408,2.107-1.002,2.971-1.781c0.864-0.78,1.548-1.74,2.052-2.881
		c0.505-1.14,0.757-2.453,0.757-3.941V445.175z M839.707,454.319h16.633v-4.32h-5.832v-20.88h-10.584v4.32h6.047v16.56h-6.264
		V454.319z M807.613,440.892c0.756,0.552,1.207,1.248,1.35,2.088h-8.423c0.216-0.769,0.684-1.446,1.404-2.034
		c0.72-0.588,1.655-0.882,2.808-0.882S806.857,440.339,807.613,440.892 M813.572,446.867v-2.412c0-0.936-0.168-1.902-0.504-2.897
		c-0.336-0.996-0.864-1.908-1.584-2.736c-0.721-0.828-1.633-1.512-2.736-2.052c-1.104-0.54-2.424-0.811-3.96-0.811
		c-1.248,0-2.419,0.223-3.511,0.666c-1.092,0.444-2.045,1.062-2.861,1.854s-1.458,1.752-1.926,2.88
		c-0.469,1.128-0.702,2.376-0.702,3.744v0.216c0,1.488,0.222,2.82,0.665,3.996c0.445,1.176,1.068,2.172,1.873,2.987
		c0.804,0.816,1.758,1.44,2.861,1.872c1.104,0.433,2.328,0.648,3.673,0.648c1.176,0,2.202-0.132,3.077-0.396
		c0.877-0.264,1.619-0.6,2.232-1.008c0.611-0.408,1.11-0.857,1.494-1.35c0.383-0.492,0.684-0.966,0.9-1.422l-3.889-2.16
		c-0.264,0.552-0.695,1.026-1.297,1.422c-0.599,0.396-1.463,0.594-2.591,0.594c-0.577,0-1.122-0.09-1.638-0.27
		c-0.516-0.181-0.973-0.433-1.369-0.756c-0.395-0.324-0.707-0.708-0.936-1.152s-0.354-0.93-0.377-1.458H813.572z M779.426,449.189
		c-0.875-0.876-1.313-2.07-1.313-3.582v-0.433c0-1.512,0.438-2.706,1.313-3.582c0.877-0.876,2.022-1.313,3.438-1.313
		s2.562,0.45,3.438,1.35c0.875,0.9,1.313,2.082,1.313,3.546v0.433c0,1.464-0.438,2.646-1.313,3.546
		c-0.877,0.899-2.022,1.35-3.438,1.35S780.303,450.065,779.426,449.189 M787.616,454.319h4.536v-25.2h-4.536v9.937h-0.647
		c-0.48-0.984-1.141-1.746-1.98-2.286s-1.98-0.811-3.42-0.811c-1.08,0-2.106,0.204-3.078,0.612
		c-0.973,0.408-1.824,1.002-2.557,1.782c-0.732,0.779-1.308,1.733-1.728,2.861c-0.421,1.128-0.63,2.412-0.63,3.853v0.647
		c0,1.465,0.198,2.761,0.594,3.889c0.396,1.128,0.947,2.082,1.656,2.861c0.707,0.78,1.535,1.368,2.482,1.765
		c0.949,0.396,1.976,0.594,3.078,0.594c0.865,0,1.604-0.084,2.215-0.252c0.612-0.168,1.141-0.396,1.584-0.684
		c0.444-0.288,0.805-0.618,1.08-0.99c0.276-0.372,0.511-0.763,0.703-1.17h0.647V454.319z M730.592,440.783h3.24v9.216h-3.672v4.32
		h12.311v-4.32h-4.103v-5.76c0-1.296,0.288-2.292,0.864-2.988c0.575-0.695,1.367-1.044,2.376-1.044c1.008,0,1.763,0.294,2.268,0.882
		c0.504,0.588,0.756,1.374,0.756,2.358v0.504l4.681-0.432v-0.792c0-2.28-0.541-3.979-1.62-5.095
		c-1.08-1.115-2.509-1.674-4.284-1.674c-1.128,0-2.094,0.271-2.898,0.811c-0.804,0.54-1.373,1.302-1.709,2.286h-0.648v-2.593h-7.561
		V440.783z M721.537,429.821c-0.179-0.42-0.425-0.78-0.736-1.08c-0.312-0.3-0.68-0.54-1.1-0.72c-0.42-0.181-0.857-0.271-1.314-0.271
		c-0.479,0-0.923,0.09-1.332,0.271c-0.406,0.18-0.768,0.42-1.079,0.72s-0.558,0.66-0.737,1.08c-0.181,0.42-0.27,0.87-0.27,1.35
		c0,0.48,0.089,0.931,0.27,1.351c0.18,0.42,0.426,0.779,0.737,1.08c0.312,0.3,0.673,0.54,1.079,0.72
		c0.409,0.18,0.854,0.27,1.332,0.27c0.457,0,0.895-0.09,1.314-0.27s0.787-0.42,1.1-0.72c0.312-0.301,0.558-0.66,0.736-1.08
		c0.182-0.42,0.271-0.87,0.271-1.351C721.808,430.691,721.719,430.241,721.537,429.821 M710.108,454.319h15.768v-4.32h-5.184
		v-13.536H710.54v4.32h5.616v9.216h-6.048V454.319z M687.608,440.783h5.292v10.728c0,0.816,0.258,1.488,0.773,2.017
		c0.517,0.528,1.182,0.792,1.998,0.792h7.561v-4.32h-4.824c-0.648,0-0.973-0.359-0.973-1.08v-8.136h6.444v-4.32h-6.444v-7.344H692.9
		v7.344h-5.292V440.783z M665.576,440.783h3.24v9.216h-3.673v4.32h12.312v-4.32h-4.104v-5.76c0-1.296,0.288-2.292,0.865-2.988
		c0.575-0.695,1.367-1.044,2.375-1.044s1.764,0.294,2.269,0.882c0.504,0.588,0.756,1.374,0.756,2.358v0.504l4.68-0.432v-0.792
		c0-2.28-0.54-3.979-1.62-5.095c-1.08-1.115-2.508-1.674-4.284-1.674c-1.128,0-2.094,0.271-2.897,0.811s-1.375,1.302-1.71,2.286
		h-0.647v-2.593h-7.561V440.783z M649.124,449.189c-0.792-0.876-1.188-2.07-1.188-3.582v-0.433c0-1.512,0.396-2.706,1.188-3.582
		s1.847-1.313,3.168-1.313c1.32,0,2.376,0.438,3.168,1.313s1.188,2.07,1.188,3.582v0.433c0,1.512-0.396,2.706-1.188,3.582
		s-1.848,1.313-3.168,1.313C650.971,450.503,649.916,450.065,649.124,449.189 M656.971,451.728c0,0.768,0.26,1.392,0.775,1.872
		c0.516,0.479,1.182,0.72,1.998,0.72h3.096v-4.32h-0.684c-0.648,0-0.973-0.359-0.973-1.08v-12.456h-4.535v2.16H656
		c-0.456-0.912-1.074-1.584-1.854-2.016c-0.781-0.433-1.807-0.648-3.078-0.648c-1.057,0-2.047,0.21-2.971,0.63
		s-1.733,1.026-2.43,1.818c-0.697,0.792-1.248,1.752-1.656,2.88s-0.611,2.4-0.611,3.816v0.576c0,1.439,0.21,2.724,0.63,3.852
		c0.419,1.128,0.989,2.088,1.71,2.88c0.72,0.792,1.554,1.392,2.502,1.8s1.961,0.612,3.042,0.612c1.151,0,2.16-0.234,3.023-0.702
		c0.864-0.468,1.536-1.266,2.017-2.394H656.971z M628.011,449.153c-0.876-0.9-1.313-2.082-1.313-3.546v-0.433
		c0-1.464,0.438-2.646,1.313-3.546c0.876-0.899,2.021-1.35,3.438-1.35c1.415,0,2.561,0.438,3.438,1.313
		c0.875,0.876,1.314,2.07,1.314,3.582v0.433c0,1.512-0.439,2.706-1.314,3.582c-0.877,0.876-2.022,1.313-3.438,1.313
		C630.032,450.503,628.887,450.053,628.011,449.153 M626.697,451.728h0.647c0.216,0.407,0.474,0.798,0.774,1.17
		c0.299,0.372,0.671,0.702,1.116,0.99c0.442,0.287,0.965,0.516,1.565,0.684c0.6,0.168,1.308,0.252,2.125,0.252
		c1.103,0,2.127-0.198,3.076-0.594c0.947-0.396,1.77-0.984,2.467-1.765c0.695-0.779,1.248-1.733,1.656-2.861
		c0.407-1.128,0.611-2.424,0.611-3.889v-0.647c0-1.44-0.21-2.725-0.629-3.853c-0.422-1.128-0.986-2.082-1.692-2.861
		c-0.709-0.78-1.537-1.374-2.484-1.782c-0.948-0.408-1.95-0.612-3.005-0.612c-1.418,0-2.582,0.271-3.494,0.811
		s-1.607,1.302-2.087,2.286h-0.647v-2.593h-4.536v25.057h4.536V451.728z M584.109,449.189c-0.793-0.876-1.189-2.07-1.189-3.582
		v-0.433c0-1.512,0.396-2.706,1.189-3.582c0.791-0.876,1.847-1.313,3.168-1.313c1.318,0,2.375,0.438,3.168,1.313
		c0.791,0.876,1.188,2.07,1.188,3.582v0.433c0,1.512-0.396,2.706-1.188,3.582c-0.793,0.876-1.85,1.313-3.168,1.313
		C585.956,450.503,584.9,450.065,584.109,449.189 M591.957,451.728c0,0.768,0.257,1.392,0.773,1.872
		c0.516,0.479,1.182,0.72,1.998,0.72h3.097v-4.32h-0.685c-0.647,0-0.972-0.359-0.972-1.08v-12.456h-4.536v2.16h-0.648
		c-0.456-0.912-1.074-1.584-1.854-2.016c-0.781-0.433-1.807-0.648-3.078-0.648c-1.057,0-2.047,0.21-2.971,0.63
		s-1.734,1.026-2.43,1.818c-0.696,0.792-1.248,1.752-1.655,2.88c-0.409,1.128-0.612,2.4-0.612,3.816v0.576
		c0,1.439,0.209,2.724,0.631,3.852c0.418,1.128,0.988,2.088,1.709,2.88s1.553,1.392,2.502,1.8c0.947,0.408,1.963,0.612,3.041,0.612
		c1.152,0,2.161-0.234,3.025-0.702s1.535-1.266,2.016-2.394H591.957z M542.673,440.478c0.384-0.276,0.959-0.414,1.728-0.414
		c0.84,0,1.523,0.186,2.053,0.558c0.527,0.372,0.9,0.882,1.115,1.53l4.104-1.656c-0.192-0.504-0.468-1.026-0.828-1.565
		c-0.36-0.54-0.827-1.032-1.403-1.477s-1.278-0.804-2.107-1.08c-0.827-0.275-1.807-0.414-2.934-0.414c-0.863,0-1.705,0.12-2.52,0.36
		c-0.816,0.24-1.537,0.594-2.16,1.062c-0.625,0.469-1.129,1.038-1.512,1.71c-0.385,0.673-0.576,1.452-0.576,2.341v0.216
		c0,1.704,0.594,2.994,1.782,3.87s2.79,1.397,4.806,1.565c0.743,0.072,1.361,0.168,1.854,0.288c0.491,0.12,0.882,0.271,1.17,0.45
		s0.485,0.372,0.593,0.576c0.109,0.204,0.163,0.426,0.163,0.666c0,0.408-0.211,0.786-0.63,1.134
		c-0.422,0.348-1.195,0.521-2.322,0.521c-1.273,0-2.215-0.287-2.826-0.863s-1.015-1.248-1.205-2.017l-4.177,1.368
		c0.119,0.624,0.353,1.267,0.702,1.926c0.348,0.66,0.846,1.261,1.494,1.801s1.463,0.989,2.447,1.35s2.172,0.54,3.564,0.54
		c2.352,0,4.176-0.528,5.473-1.584c1.295-1.056,1.943-2.472,1.943-4.248v-0.216c0-1.608-0.576-2.862-1.729-3.762
		c-1.151-0.9-2.641-1.446-4.463-1.639c-1.584-0.168-2.678-0.378-3.276-0.63c-0.601-0.252-0.899-0.666-0.899-1.242
		C542.098,441.096,542.287,440.753,542.673,440.478 M525.879,440.892c0.756,0.552,1.206,1.248,1.35,2.088h-8.424
		c0.217-0.769,0.684-1.446,1.404-2.034c0.72-0.588,1.656-0.882,2.809-0.882C524.169,440.063,525.123,440.339,525.879,440.892
		 M531.836,446.867v-2.412c0-0.936-0.168-1.902-0.503-2.897c-0.337-0.996-0.864-1.908-1.584-2.736s-1.633-1.512-2.736-2.052
		c-1.104-0.54-2.425-0.811-3.96-0.811c-1.25,0-2.418,0.223-3.51,0.666c-1.094,0.444-2.047,1.062-2.861,1.854
		c-0.818,0.792-1.459,1.752-1.928,2.88c-0.467,1.128-0.701,2.376-0.701,3.744v0.216c0,1.488,0.221,2.82,0.666,3.996
		c0.443,1.176,1.066,2.172,1.872,2.987c0.804,0.816,1.757,1.44,2.862,1.872c1.104,0.433,2.326,0.648,3.672,0.648
		c1.176,0,2.201-0.132,3.078-0.396c0.875-0.264,1.62-0.6,2.232-1.008c0.611-0.408,1.108-0.857,1.493-1.35
		c0.384-0.492,0.685-0.966,0.9-1.422l-3.888-2.16c-0.266,0.552-0.697,1.026-1.297,1.422c-0.601,0.396-1.465,0.594-2.592,0.594
		c-0.576,0-1.123-0.09-1.638-0.27c-0.517-0.181-0.972-0.433-1.368-0.756c-0.396-0.324-0.709-0.708-0.936-1.152
		c-0.229-0.444-0.355-0.93-0.379-1.458H531.836z M497.602,445.031c0-1.512,0.328-2.718,0.989-3.618
		c0.659-0.899,1.661-1.35,3.007-1.35c1.151,0,2.033,0.366,2.646,1.098c0.612,0.732,0.918,1.734,0.918,3.006v10.152h4.536v-11.304
		c0-1.225-0.162-2.28-0.486-3.168c-0.324-0.889-0.773-1.62-1.35-2.196s-1.242-1.002-1.998-1.278
		c-0.756-0.275-1.566-0.414-2.43-0.414c-1.225,0-2.293,0.276-3.205,0.828s-1.572,1.332-1.979,2.34h-0.647v-2.664h-4.537v17.856
		h4.537V445.031z M477.766,450.18c-0.576-0.217-1.08-0.528-1.514-0.937c-0.432-0.408-0.773-0.906-1.025-1.494
		s-0.377-1.254-0.377-1.998v-0.72c0-0.744,0.125-1.41,0.377-1.998s0.594-1.086,1.025-1.494c0.434-0.408,0.938-0.72,1.514-0.936
		c0.575-0.216,1.188-0.324,1.836-0.324c0.647,0,1.26,0.108,1.836,0.324s1.08,0.527,1.512,0.936s0.773,0.906,1.025,1.494
		s0.379,1.254,0.379,1.998v0.72c0,0.744-0.127,1.41-0.379,1.998s-0.594,1.086-1.025,1.494s-0.936,0.72-1.512,0.937
		c-0.576,0.216-1.188,0.323-1.836,0.323C478.953,450.503,478.341,450.396,477.766,450.18 M488.889,445.175
		c0-1.464-0.252-2.766-0.756-3.905c-0.504-1.141-1.188-2.106-2.052-2.898s-1.854-1.392-2.97-1.8
		c-1.116-0.408-2.286-0.612-3.51-0.612c-1.225,0-2.395,0.204-3.511,0.612s-2.106,1.008-2.97,1.8
		c-0.864,0.792-1.548,1.758-2.053,2.898c-0.504,1.14-0.756,2.441-0.756,3.905v0.433c0,1.488,0.252,2.802,0.756,3.941
		c0.505,1.141,1.188,2.101,2.053,2.881c0.863,0.779,1.854,1.373,2.97,1.781s2.286,0.612,3.511,0.612c1.224,0,2.394-0.204,3.51-0.612
		c1.115-0.408,2.105-1.002,2.97-1.781c0.864-0.78,1.548-1.74,2.052-2.881c0.504-1.14,0.756-2.453,0.756-3.941V445.175z
		 M461.475,429.821c-0.18-0.42-0.427-0.78-0.738-1.08c-0.311-0.3-0.678-0.54-1.098-0.72c-0.42-0.181-0.859-0.271-1.313-0.271
		c-0.481,0-0.925,0.09-1.332,0.271c-0.409,0.18-0.769,0.42-1.08,0.72c-0.313,0.3-0.558,0.66-0.737,1.08
		c-0.181,0.42-0.271,0.87-0.271,1.35c0,0.48,0.091,0.931,0.271,1.351c0.18,0.42,0.424,0.779,0.737,1.08
		c0.312,0.3,0.671,0.54,1.08,0.72c0.407,0.18,0.851,0.27,1.332,0.27c0.454,0,0.894-0.09,1.313-0.27s0.787-0.42,1.098-0.72
		c0.312-0.301,0.559-0.66,0.738-1.08s0.271-0.87,0.271-1.351C461.745,430.691,461.654,430.241,461.475,429.821 M450.045,454.319
		h15.768v-4.32h-5.184v-13.536h-10.152v4.32h5.617v9.216h-6.049V454.319z M441.01,446.651c-0.217,1.176-0.691,2.112-1.424,2.808
		c-0.732,0.696-1.794,1.044-3.186,1.044c-0.648,0-1.26-0.102-1.836-0.306s-1.08-0.51-1.512-0.918s-0.773-0.918-1.025-1.53
		c-0.252-0.611-0.379-1.313-0.379-2.105v-0.217c0-0.792,0.127-1.506,0.379-2.142s0.594-1.176,1.025-1.62
		c0.432-0.443,0.936-0.786,1.512-1.025c0.576-0.24,1.188-0.36,1.836-0.36c1.392,0,2.471,0.384,3.24,1.152
		c0.769,0.768,1.225,1.68,1.369,2.735l4.463-1.151c-0.408-2.112-1.387-3.816-2.934-5.112c-1.548-1.296-3.57-1.944-6.066-1.944
		c-1.295,0-2.515,0.216-3.654,0.648c-1.141,0.432-2.137,1.056-2.987,1.872c-0.853,0.815-1.519,1.8-1.998,2.952
		c-0.481,1.151-0.72,2.447-0.72,3.888v0.432c0,1.44,0.238,2.725,0.72,3.853c0.479,1.128,1.14,2.076,1.979,2.844
		s1.83,1.355,2.971,1.764c1.139,0.408,2.369,0.612,3.689,0.612c2.543,0,4.578-0.648,6.103-1.944s2.489-3,2.897-5.111L441.01,446.651
		z M410.732,449.189c-0.791-0.876-1.188-2.07-1.188-3.582v-0.433c0-1.512,0.396-2.706,1.188-3.582
		c0.793-0.876,1.849-1.313,3.168-1.313c1.318,0,2.377,0.438,3.168,1.313c0.793,0.876,1.188,2.07,1.188,3.582v0.433
		c0,1.512-0.396,2.706-1.188,3.582c-0.791,0.876-1.85,1.313-3.168,1.313C412.581,450.503,411.525,450.065,410.732,449.189
		 M418.581,451.728c0,0.768,0.257,1.392,0.774,1.872c0.516,0.479,1.182,0.72,1.998,0.72h3.096v-4.32h-0.684
		c-0.648,0-0.973-0.359-0.973-1.08v-12.456h-4.536v2.16h-0.647c-0.457-0.912-1.076-1.584-1.855-2.016
		c-0.779-0.433-1.805-0.648-3.076-0.648c-1.059,0-2.048,0.21-2.971,0.63c-0.924,0.42-1.734,1.026-2.43,1.818
		c-0.697,0.792-1.248,1.752-1.656,2.88c-0.409,1.128-0.611,2.4-0.611,3.816v0.576c0,1.439,0.209,2.724,0.629,3.852
		s0.99,2.088,1.711,2.88c0.719,0.792,1.553,1.392,2.502,1.8c0.947,0.408,1.961,0.612,3.041,0.612c1.152,0,2.16-0.234,3.024-0.702
		s1.535-1.266,2.017-2.394H418.581z M396.459,429.821c-0.18-0.42-0.427-0.78-0.738-1.08s-0.679-0.54-1.098-0.72
		c-0.42-0.181-0.859-0.271-1.314-0.271c-0.48,0-0.924,0.09-1.332,0.271c-0.408,0.18-0.769,0.42-1.08,0.72s-0.559,0.66-0.737,1.08
		c-0.181,0.42-0.271,0.87-0.271,1.35c0,0.48,0.09,0.931,0.271,1.351c0.179,0.42,0.426,0.779,0.737,1.08
		c0.312,0.3,0.672,0.54,1.08,0.72s0.852,0.27,1.332,0.27c0.455,0,0.895-0.09,1.314-0.27c0.419-0.18,0.786-0.42,1.098-0.72
		c0.312-0.301,0.559-0.66,0.738-1.08s0.27-0.87,0.27-1.351C396.729,430.691,396.639,430.241,396.459,429.821 M385.029,454.319
		h15.768v-4.32h-5.184v-13.536h-10.152v4.32h5.616v9.216h-6.048V454.319z M362.169,440.783h3.24v9.216h-3.673v4.32h12.312v-4.32
		h-4.104v-5.76c0-1.296,0.287-2.292,0.863-2.988c0.576-0.695,1.369-1.044,2.377-1.044s1.764,0.294,2.268,0.882
		s0.756,1.374,0.756,2.358v0.504l4.68-0.432v-0.792c0-2.28-0.539-3.979-1.619-5.095c-1.08-1.115-2.509-1.674-4.285-1.674
		c-1.129,0-2.094,0.271-2.898,0.811s-1.373,1.302-1.709,2.286h-0.648v-2.593h-7.56V440.783z M345.717,449.189
		c-0.791-0.876-1.188-2.07-1.188-3.582v-0.433c0-1.512,0.396-2.706,1.188-3.582c0.793-0.876,1.848-1.313,3.168-1.313
		c1.318,0,2.376,0.438,3.168,1.313s1.188,2.07,1.188,3.582v0.433c0,1.512-0.396,2.706-1.188,3.582s-1.85,1.313-3.168,1.313
		C347.564,450.503,346.51,450.065,345.717,449.189 M353.564,451.728c0,0.768,0.258,1.392,0.773,1.872
		c0.518,0.479,1.184,0.72,1.998,0.72h3.098v-4.32h-0.685c-0.647,0-0.972-0.359-0.972-1.08v-12.456h-4.536v2.16h-0.647
		c-0.457-0.912-1.076-1.584-1.855-2.016c-0.779-0.433-1.805-0.648-3.077-0.648c-1.058,0-2.048,0.21-2.97,0.63
		c-0.924,0.42-1.734,1.026-2.431,1.818s-1.247,1.752-1.655,2.88c-0.41,1.128-0.612,2.4-0.612,3.816v0.576
		c0,1.439,0.21,2.724,0.63,3.852c0.419,1.128,0.99,2.088,1.71,2.88s1.554,1.392,2.501,1.8c0.949,0.408,1.963,0.612,3.043,0.612
		c1.152,0,2.16-0.234,3.023-0.702c0.865-0.468,1.535-1.266,2.017-2.394H353.564z M323.541,454.319h8.641l5.111-17.856h-4.896
		l-4.211,15.696h-0.648l-4.212-15.696h-4.896L323.541,454.319z M287.486,440.892c0.757,0.552,1.207,1.248,1.35,2.088h-8.423
		c0.216-0.769,0.685-1.446,1.403-2.034c0.721-0.588,1.656-0.882,2.809-0.882S286.73,440.339,287.486,440.892 M293.445,446.867
		v-2.412c0-0.936-0.168-1.902-0.504-2.897c-0.338-0.996-0.864-1.908-1.584-2.736c-0.721-0.828-1.633-1.512-2.736-2.052
		s-2.426-0.811-3.96-0.811c-1.248,0-2.418,0.223-3.511,0.666c-1.092,0.444-2.047,1.062-2.861,1.854
		c-0.816,0.792-1.458,1.752-1.926,2.88c-0.469,1.128-0.702,2.376-0.702,3.744v0.216c0,1.488,0.221,2.82,0.666,3.996
		c0.444,1.176,1.067,2.172,1.872,2.987c0.803,0.816,1.758,1.44,2.861,1.872c1.104,0.433,2.328,0.648,3.672,0.648
		c1.176,0,2.201-0.132,3.078-0.396c0.877-0.264,1.621-0.6,2.232-1.008s1.109-0.857,1.494-1.35c0.383-0.492,0.684-0.966,0.9-1.422
		l-3.889-2.16c-0.265,0.552-0.697,1.026-1.297,1.422c-0.6,0.396-1.463,0.594-2.591,0.594c-0.576,0-1.122-0.09-1.638-0.27
		c-0.518-0.181-0.973-0.433-1.369-0.756c-0.395-0.324-0.707-0.708-0.936-1.152s-0.355-0.93-0.378-1.458H293.445z M259.299,449.189
		c-0.877-0.876-1.314-2.07-1.314-3.582v-0.433c0-1.512,0.438-2.706,1.314-3.582s2.021-1.313,3.438-1.313s2.562,0.45,3.439,1.35
		c0.875,0.9,1.312,2.082,1.312,3.546v0.433c0,1.464-0.438,2.646-1.312,3.546c-0.878,0.899-2.023,1.35-3.439,1.35
		S260.176,450.065,259.299,449.189 M267.488,454.319h4.537v-25.2h-4.537v9.937h-0.647c-0.481-0.984-1.14-1.746-1.979-2.286
		c-0.842-0.54-1.98-0.811-3.42-0.811c-1.08,0-2.107,0.204-3.078,0.612c-0.973,0.408-1.824,1.002-2.557,1.782
		c-0.732,0.779-1.309,1.733-1.728,2.861c-0.42,1.128-0.63,2.412-0.63,3.853v0.647c0,1.465,0.197,2.761,0.594,3.889
		s0.948,2.082,1.656,2.861c0.707,0.78,1.535,1.368,2.484,1.765c0.947,0.396,1.974,0.594,3.077,0.594
		c0.864,0,1.603-0.084,2.214-0.252s1.139-0.396,1.584-0.684c0.443-0.288,0.805-0.618,1.08-0.99s0.51-0.763,0.702-1.17h0.647V454.319
		z M215.686,449.189c-0.793-0.876-1.188-2.07-1.188-3.582v-0.433c0-1.512,0.396-2.706,1.188-3.582
		c0.791-0.876,1.848-1.313,3.168-1.313c1.318,0,2.375,0.438,3.168,1.313c0.791,0.876,1.188,2.07,1.188,3.582v0.433
		c0,1.512-0.396,2.706-1.188,3.582c-0.793,0.876-1.85,1.313-3.168,1.313C217.533,450.503,216.477,450.065,215.686,449.189
		 M223.533,451.728c0,0.768,0.257,1.392,0.773,1.872c0.517,0.479,1.182,0.72,1.998,0.72h3.096v-4.32h-0.684
		c-0.648,0-0.972-0.359-0.972-1.08v-12.456h-4.536v2.16h-0.648c-0.455-0.912-1.074-1.584-1.854-2.016
		c-0.779-0.433-1.807-0.648-3.078-0.648c-1.057,0-2.047,0.21-2.97,0.63c-0.925,0.42-1.733,1.026-2.431,1.818
		c-0.696,0.792-1.248,1.752-1.655,2.88c-0.409,1.128-0.612,2.4-0.612,3.816v0.576c0,1.439,0.209,2.724,0.63,3.852
		c0.419,1.128,0.99,2.088,1.71,2.88c0.721,0.792,1.553,1.392,2.502,1.8c0.947,0.408,1.963,0.612,3.043,0.612
		c1.151,0,2.158-0.234,3.023-0.702c0.863-0.468,1.535-1.266,2.016-2.394H223.533z M188.793,440.783h3.24v9.216h-3.672v4.32h12.312
		v-4.32h-4.104v-5.76c0-1.296,0.289-2.292,0.865-2.988c0.576-0.695,1.367-1.044,2.375-1.044s1.765,0.294,2.269,0.882
		s0.756,1.374,0.756,2.358v0.504l4.681-0.432v-0.792c0-2.28-0.541-3.979-1.621-5.095c-1.08-1.115-2.508-1.674-4.283-1.674
		c-1.129,0-2.094,0.271-2.898,0.811c-0.804,0.54-1.375,1.302-1.71,2.286h-0.647v-2.593h-7.561V440.783z M180.081,445.823
		c0,1.512-0.317,2.706-0.954,3.582c-0.636,0.876-1.639,1.313-3.006,1.313c-1.201,0-2.1-0.354-2.701-1.062
		c-0.6-0.708-0.898-1.698-0.898-2.97v-10.225h-4.537v11.16c0,1.225,0.162,2.286,0.486,3.187c0.324,0.899,0.774,1.649,1.35,2.25
		c0.576,0.6,1.248,1.044,2.016,1.332c0.77,0.288,1.598,0.432,2.484,0.432c2.617,0,4.32-1.032,5.113-3.096h0.647v2.592h4.536v-17.856
		h-4.536V445.823z M145.809,440.783h5.293v10.728c0,0.816,0.258,1.488,0.773,2.017s1.182,0.792,1.998,0.792h7.561v-4.32h-4.824
		c-0.648,0-0.973-0.359-0.973-1.08v-8.136h6.444v-4.32h-6.444v-7.344h-4.535v7.344h-5.293V440.783z M136.395,429.821
		c-0.18-0.42-0.426-0.78-0.737-1.08s-0.679-0.54-1.099-0.72c-0.42-0.181-0.857-0.271-1.313-0.271c-0.479,0-0.925,0.09-1.332,0.271
		c-0.409,0.18-0.769,0.42-1.08,0.72s-0.558,0.66-0.737,1.08c-0.181,0.42-0.271,0.87-0.271,1.35c0,0.48,0.09,0.931,0.271,1.351
		c0.18,0.42,0.426,0.779,0.737,1.08c0.312,0.3,0.671,0.54,1.08,0.72c0.407,0.18,0.853,0.27,1.332,0.27
		c0.456,0,0.894-0.09,1.313-0.27s0.787-0.42,1.099-0.72c0.312-0.301,0.558-0.66,0.737-1.08c0.181-0.42,0.271-0.87,0.271-1.351
		C136.665,430.691,136.575,430.241,136.395,429.821 M124.965,454.319h15.768v-4.32h-5.184v-13.536h-10.152v4.32h5.617v9.216h-6.049
		V454.319z M102.105,440.783h3.24v9.216h-3.673v4.32h12.312v-4.32h-4.104v-5.76c0-1.296,0.288-2.292,0.864-2.988
		c0.575-0.695,1.368-1.044,2.376-1.044s1.764,0.294,2.268,0.882s0.756,1.374,0.756,2.358v0.504l4.681-0.432v-0.792
		c0-2.28-0.54-3.979-1.62-5.095c-1.08-1.115-2.508-1.674-4.285-1.674c-1.127,0-2.093,0.271-2.896,0.811
		c-0.805,0.54-1.375,1.302-1.711,2.286h-0.647v-2.593h-7.56V440.783z M94.257,446.651c-0.216,1.176-0.69,2.112-1.423,2.808
		c-0.73,0.696-1.793,1.044-3.186,1.044c-0.647,0-1.26-0.102-1.836-0.306s-1.08-0.51-1.512-0.918s-0.773-0.918-1.025-1.53
		c-0.252-0.611-0.379-1.313-0.379-2.105v-0.217c0-0.792,0.127-1.506,0.379-2.142s0.594-1.176,1.025-1.62
		c0.432-0.443,0.936-0.786,1.512-1.025c0.576-0.24,1.188-0.36,1.836-0.36c1.393,0,2.473,0.384,3.24,1.152
		c0.769,0.768,1.225,1.68,1.368,2.735l4.464-1.151c-0.408-2.112-1.387-3.816-2.934-5.112c-1.549-1.296-3.57-1.944-6.066-1.944
		c-1.295,0-2.514,0.216-3.654,0.648c-1.139,0.432-2.135,1.056-2.987,1.872c-0.853,0.815-1.519,1.8-1.998,2.952
		c-0.479,1.151-0.72,2.447-0.72,3.888v0.432c0,1.44,0.24,2.725,0.72,3.853s1.14,2.076,1.979,2.844s1.83,1.355,2.971,1.764
		c1.139,0.408,2.369,0.612,3.689,0.612c2.545,0,4.578-0.648,6.103-1.944s2.489-3,2.897-5.111L94.257,446.651z M65.889,440.478
		c0.385-0.276,0.961-0.414,1.729-0.414c0.84,0,1.523,0.186,2.052,0.558s0.899,0.882,1.116,1.53l4.104-1.656
		c-0.191-0.504-0.469-1.026-0.828-1.565c-0.359-0.54-0.828-1.032-1.403-1.477c-0.576-0.444-1.278-0.804-2.106-1.08
		c-0.828-0.275-1.806-0.414-2.934-0.414c-0.865,0-1.704,0.12-2.52,0.36c-0.816,0.24-1.537,0.594-2.16,1.062
		c-0.625,0.469-1.129,1.038-1.512,1.71c-0.385,0.673-0.576,1.452-0.576,2.341v0.216c0,1.704,0.594,2.994,1.781,3.87
		s2.789,1.397,4.807,1.565c0.744,0.072,1.361,0.168,1.854,0.288s0.882,0.271,1.17,0.45s0.486,0.372,0.594,0.576
		c0.108,0.204,0.162,0.426,0.162,0.666c0,0.408-0.21,0.786-0.631,1.134c-0.42,0.348-1.193,0.521-2.32,0.521
		c-1.272,0-2.215-0.287-2.826-0.863c-0.612-0.576-1.014-1.248-1.207-2.017l-4.176,1.368c0.121,0.624,0.354,1.267,0.703,1.926
		c0.348,0.66,0.846,1.261,1.492,1.801c0.648,0.54,1.465,0.989,2.449,1.35s2.172,0.54,3.564,0.54c2.352,0,4.176-0.528,5.471-1.584
		c1.297-1.056,1.945-2.472,1.945-4.248v-0.216c0-1.608-0.576-2.862-1.729-3.762c-1.152-0.9-2.641-1.446-4.465-1.639
		c-1.584-0.168-2.676-0.378-3.275-0.63s-0.9-0.666-0.9-1.242C65.312,441.096,65.504,440.753,65.889,440.478 M38.098,454.319h16.344
		v-4.536H42.85v-5.832h10.728v-4.536H42.85v-5.76h11.16v-4.536H38.098V454.319z"/>
</g>
<polygon fill="#231F20" points="865.41,344.008 1119.027,344.008 1119.027,297.767 982.123,297.767 982.123,217.4 1086.719,217.4 
	1086.719,171.159 982.123,171.159 982.325,90.188 1119.027,90.188 1119.027,43.946 865.41,43.946 "/>
<g>
	<defs>
		<rect id="SVGID_73_" width="1170.088" height="492.17"/>
	</defs>
	<clipPath id="SVGID_6_">
		<use xlink:href="#SVGID_73_"  overflow="visible"/>
	</clipPath>
	<path clip-path="url(#SVGID_6_)" fill="#231F20" d="M275.824,351.764c1.23,2.921,3.166,5.454,5.806,7.599
		c2.638,2.148,5.997,3.854,10.079,5.119c4.08,1.267,9.006,1.9,14.775,1.9c5.699,0,10.607-0.634,14.724-1.9
		c4.116-1.266,7.476-2.971,10.079-5.119c2.603-2.145,4.521-4.678,5.753-7.599c1.229-2.919,1.847-6.068,1.847-9.446
		c0-3.306-0.617-6.42-1.847-9.34c-1.231-2.919-3.15-5.452-5.753-7.6c-2.604-2.146-5.963-3.853-10.079-5.118
		c-4.116-1.268-9.024-1.9-14.724-1.9c-5.77,0-10.695,0.633-14.775,1.9c-4.082,1.266-7.441,2.973-10.079,5.118
		c-2.64,2.147-4.575,4.681-5.806,7.6c-1.23,2.92-1.846,6.034-1.846,9.34C273.979,345.695,274.594,348.845,275.824,351.764
		 M137.268,345.59c-2.359-1.196-4.416-3.377-6.174-6.544c-1.761-3.166-3.15-7.476-4.17-12.93
		c-1.021-5.452-1.529-12.436-1.529-20.949c0-2.322,0.033-4.592,0.104-6.809c0.07-2.216,0.176-4.344,0.318-6.385
		c2.391-2.603,5.029-4.555,7.916-5.858c2.883-1.301,6.121-1.952,9.709-1.952c3.236,0,6.19,0.564,8.865,1.688
		c2.674,1.127,4.961,2.903,6.861,5.33c1.898,2.428,3.377,5.578,4.432,9.446c1.057,3.87,1.584,8.586,1.584,14.143
		c0,10.696-1.865,18.805-5.594,24.328c-3.73,5.524-8.691,8.285-14.882,8.285C142.104,347.384,139.624,346.786,137.268,345.59
		 M68.664,317.146c1.23,5.383,3.148,10.521,5.752,15.409c2.602,4.892,5.945,9.43,10.027,13.615
		c4.08,4.188,9.006,7.811,14.775,10.871c5.768,3.061,12.4,5.472,19.895,7.229s15.953,2.639,25.384,2.639
		c12.101,0,23.007-1.442,32.718-4.328c9.711-2.884,17.996-6.823,24.855-11.819c6.86-4.996,12.138-10.854,15.832-17.573
		c3.694-6.719,5.541-13.949,5.541-21.69c0-6.543-1.355-12.718-4.063-18.521c-2.71-5.805-6.649-10.871-11.821-15.199
		c-5.172-4.327-11.557-7.739-19.156-10.236s-16.289-3.747-26.068-3.747c-6.615,0-12.596,0.598-17.943,1.794
		s-10.309,2.921-14.881,5.172c1.829-6.544,4.273-12.402,7.335-17.573c3.062-5.172,6.755-9.816,11.083-13.932
		c4.326-4.116,9.287-7.759,14.881-10.924c5.594-3.166,11.838-6.017,18.734-8.549l-9.605-14.248
		c-10.695,1.196-20.703,3.307-30.026,6.332c-9.325,3.026-17.89,6.807-25.7,11.346s-14.775,9.71-20.896,15.515
		c-6.123,5.805-11.293,12.032-15.516,18.681c-4.223,6.65-7.441,13.652-9.656,21.004c-2.217,7.354-3.326,14.828-3.326,22.429
		C66.816,306.327,67.432,311.763,68.664,317.146"/>
</g>
</svg>
