<?xml version="1.0" encoding="utf-8"?>
<!-- Generator: Adobe Illustrator 16.0.0, SVG Export Plug-In . SVG Version: 6.00 Build 0)  -->
<!DOCTYPE svg PUBLIC "-//W3C//DTD SVG 1.1//EN" "http://www.w3.org/Graphics/SVG/1.1/DTD/svg11.dtd">
<svg version="1.1" id="Layer_1" xmlns="http://www.w3.org/2000/svg" xmlns:xlink="http://www.w3.org/1999/xlink" x="0px" y="0px"
	 width="564px" height="1002px" viewBox="0 0 564 1002" enable-background="new 0 0 564 1002" xml:space="preserve">
<g>
	<defs>
		<rect id="SVGID_65_" width="564" height="1002"/>
	</defs>
	<clipPath id="SVGID_2_">
		<use xlink:href="#SVGID_65_"  overflow="visible"/>
	</clipPath>
	<path clip-path="url(#SVGID_2_)" fill="#231F20" d="M200.324,774.748c0.967,2.297,2.49,4.289,4.564,5.976
		c2.075,1.689,4.717,3.03,7.928,4.026c3.209,0.996,7.082,1.494,11.621,1.494c4.482,0,8.342-0.498,11.58-1.494
		c3.236-0.996,5.879-2.337,7.926-4.026c2.048-1.687,3.557-3.679,4.524-5.976c0.968-2.296,1.452-4.773,1.452-7.43
		c0-2.601-0.484-5.05-1.452-7.347c-0.968-2.296-2.477-4.288-4.524-5.976c-2.047-1.688-4.689-3.03-7.926-4.026
		c-3.238-0.996-7.098-1.494-11.58-1.494c-4.539,0-8.412,0.498-11.621,1.494c-3.211,0.996-5.853,2.338-7.928,4.026
		c-2.074,1.688-3.598,3.68-4.564,5.976c-0.969,2.297-1.453,4.746-1.453,7.347C198.871,769.975,199.355,772.452,200.324,774.748
		 M98.15,769.892c-1.854-0.94-3.473-2.656-4.855-5.146c-1.384-2.49-2.477-5.879-3.279-10.168c-0.803-4.288-1.203-9.781-1.203-16.478
		c0-1.826,0.027-3.61,0.084-5.354c0.054-1.744,0.137-3.417,0.248-5.022c1.881-2.047,3.957-3.583,6.226-4.606
		c2.269-1.024,4.815-1.536,7.636-1.536c2.546,0,4.871,0.444,6.975,1.328c2.102,0.886,3.9,2.283,5.395,4.191
		c1.494,1.909,2.656,4.388,3.486,7.43c0.83,3.044,1.246,6.752,1.246,11.123c0,8.413-1.467,14.79-4.4,19.134
		c-2.934,4.345-6.835,6.516-11.704,6.516C101.955,771.303,100.004,770.833,98.15,769.892 M44.195,747.521
		c0.969,4.232,2.477,8.273,4.525,12.118c2.047,3.848,4.676,7.416,7.885,10.708c3.209,3.293,7.084,6.144,11.621,8.551
		c4.537,2.406,9.754,4.303,15.648,5.686c5.893,1.383,12.545,2.075,19.961,2.075c9.518,0,18.098-1.135,25.734-3.403
		c7.636-2.269,14.152-5.367,19.548-9.297c5.396-3.929,9.546-8.536,12.45-13.821c2.906-5.284,4.357-10.97,4.357-17.058
		c0-5.146-1.064-10.002-3.195-14.568c-2.131-4.564-5.229-8.55-9.297-11.953c-4.066-3.402-9.088-6.087-15.066-8.052
		c-5.975-1.963-12.811-2.946-20.502-2.946c-5.202,0-9.906,0.471-14.111,1.411c-4.206,0.941-8.107,2.297-11.705,4.067
		c1.439-5.146,3.363-9.753,5.77-13.821c2.408-4.066,5.313-7.719,8.717-10.957c3.402-3.236,7.305-6.101,11.703-8.591
		c4.4-2.49,9.311-4.731,14.734-6.724l-7.554-11.206c-8.413,0.941-16.284,2.602-23.616,4.98c-7.332,2.38-14.068,5.354-20.213,8.923
		c-6.143,3.569-11.619,7.638-16.436,12.202c-4.813,4.566-8.881,9.463-12.201,14.693c-3.32,5.229-5.852,10.736-7.596,16.518
		c-1.742,5.783-2.614,11.663-2.614,17.64C42.743,739.013,43.227,743.288,44.195,747.521"/>
</g>
<line fill="none" stroke="#231F20" stroke-width="2" x1="282.207" y1="637" x2="282.207" y2="809"/>
<g>
	<defs>
		<rect id="SVGID_67_" width="564" height="1002"/>
	</defs>
	<clipPath id="SVGID_4_">
		<use xlink:href="#SVGID_67_"  overflow="visible"/>
	</clipPath>
	<path clip-path="url(#SVGID_4_)" fill="#231F20" d="M283.127,468.783v-74.044h82.012v-45.506h-82.012v-68.388h46.275
		c7.026,0,12.895,0.643,17.611,1.928c4.713,1.286,8.486,3.56,11.313,6.814c2.827,3.257,4.757,7.801,5.784,13.626
		c1.027,5.829,1.542,13.284,1.542,22.367h89.983V185.461H89.275v95.383c15.08,0,25.877,2.017,32.393,6.042
		c6.513,4.029,9.771,11.698,9.771,23.01v130.091c0,11.144-3.259,18.728-9.771,22.753c-6.516,4.029-17.312,6.042-32.393,6.042v95.383
		h366.361V424.048h-89.983c0,9.087-0.515,16.543-1.542,22.368c-1.027,5.828-2.957,10.412-5.784,13.754
		c-2.827,3.343-6.601,5.616-11.313,6.813c-4.717,1.201-10.585,1.8-17.611,1.8H283.127z"/>
	<path clip-path="url(#SVGID_4_)" fill="#231F20" d="M502.426,935.615c0.181-0.271,0.42-0.495,0.721-0.676
		c0.3-0.18,0.645-0.314,1.035-0.404c0.389-0.09,0.795-0.135,1.215-0.135c1.08,0,1.953,0.27,2.625,0.81
		c0.669,0.54,1.054,1.29,1.154,2.25l2.221-0.54c-0.082-0.56-0.255-1.12-0.525-1.68c-0.27-0.561-0.656-1.056-1.155-1.485
		c-0.501-0.43-1.122-0.78-1.86-1.05c-0.74-0.271-1.601-0.405-2.578-0.405c-0.702,0-1.372,0.09-2.012,0.271
		c-0.641,0.18-1.215,0.449-1.725,0.81s-0.914,0.805-1.215,1.335c-0.3,0.53-0.449,1.146-0.449,1.845v0.181
		c0,1.3,0.459,2.29,1.379,2.97c0.918,0.68,2.239,1.08,3.96,1.2c1.479,0.1,2.55,0.33,3.21,0.689c0.66,0.36,0.99,0.96,0.99,1.801
		c0,0.779-0.336,1.385-1.005,1.814c-0.671,0.43-1.556,0.646-2.655,0.646c-1.301,0-2.34-0.346-3.12-1.035
		c-0.78-0.69-1.22-1.605-1.319-2.745l-2.221,0.54c0.039,0.66,0.199,1.314,0.48,1.965c0.279,0.65,0.693,1.229,1.245,1.74
		c0.549,0.51,1.239,0.92,2.069,1.229c0.829,0.311,1.824,0.465,2.986,0.465c0.857,0,1.653-0.104,2.384-0.314
		c0.729-0.21,1.351-0.516,1.86-0.915c0.51-0.4,0.909-0.885,1.2-1.455c0.289-0.57,0.435-1.215,0.435-1.935v-0.181
		c0-1.319-0.456-2.325-1.364-3.015c-0.911-0.69-2.235-1.105-3.976-1.245c-1.62-0.12-2.736-0.37-3.346-0.75
		c-0.61-0.38-0.914-0.93-0.914-1.65C502.156,936.2,502.246,935.885,502.426,935.615 M485.58,945.425
		c-0.611-0.25-1.145-0.615-1.604-1.095c-0.461-0.48-0.822-1.055-1.08-1.726c-0.262-0.67-0.391-1.425-0.391-2.265v-0.36
		c0-0.8,0.129-1.534,0.391-2.204c0.258-0.671,0.619-1.245,1.08-1.726c0.459-0.479,0.999-0.854,1.619-1.125
		c0.619-0.27,1.279-0.405,1.98-0.405c0.699,0,1.359,0.136,1.98,0.405c0.617,0.271,1.158,0.646,1.619,1.125
		c0.459,0.48,0.819,1.055,1.08,1.726c0.26,0.67,0.391,1.404,0.391,2.204v0.36c0,0.84-0.131,1.595-0.391,2.265
		c-0.261,0.671-0.621,1.245-1.08,1.726c-0.461,0.479-0.996,0.845-1.605,1.095c-0.61,0.25-1.274,0.375-1.994,0.375
		C486.855,945.8,486.19,945.675,485.58,945.425 M495.045,939.979c0-1.22-0.205-2.305-0.613-3.255
		c-0.411-0.949-0.961-1.755-1.65-2.415c-0.69-0.659-1.485-1.159-2.385-1.5c-0.9-0.34-1.842-0.51-2.82-0.51
		c-0.982,0-1.92,0.17-2.82,0.51c-0.9,0.341-1.694,0.841-2.385,1.5c-0.689,0.66-1.242,1.466-1.65,2.415
		c-0.41,0.95-0.614,2.035-0.614,3.255v0.36c0,1.24,0.204,2.335,0.614,3.285c0.408,0.95,0.954,1.75,1.636,2.4
		c0.679,0.649,1.47,1.145,2.37,1.484s1.849,0.51,2.85,0.51c0.979,0,1.924-0.17,2.835-0.51c0.909-0.34,1.704-0.835,2.385-1.484
		c0.679-0.65,1.225-1.45,1.636-2.4c0.408-0.95,0.613-2.045,0.613-3.285V939.979z M462.437,934.88h4.679v10.38
		c0,0.68,0.215,1.24,0.646,1.68c0.431,0.44,0.985,0.66,1.665,0.66h5.07v-2.16h-4.23c-0.539,0-0.81-0.3-0.81-0.899v-9.66h5.76v-2.16
		h-5.76v-6.12h-2.341v6.12h-4.679V934.88z M447.227,939.86c0-1.62,0.404-2.915,1.215-3.886c0.811-0.97,1.924-1.455,3.345-1.455
		c1.2,0,2.149,0.391,2.85,1.17c0.7,0.78,1.05,1.95,1.05,3.511v8.399h2.341v-8.88c0-2.14-0.51-3.745-1.53-4.814
		c-1.02-1.07-2.39-1.605-4.111-1.605c-2.278,0-3.881,0.98-4.799,2.94h-0.359v-2.521h-2.342v14.88h2.342V939.86z M435.211,934.82
		c0.55,0.199,1.039,0.479,1.471,0.84c0.43,0.359,0.779,0.8,1.049,1.319c0.271,0.521,0.424,1.101,0.465,1.74h-9.6
		c0.079-0.6,0.256-1.155,0.525-1.665c0.271-0.51,0.619-0.955,1.05-1.335s0.931-0.675,1.5-0.885c0.57-0.21,1.185-0.315,1.846-0.315
		C434.096,934.52,434.66,934.62,435.211,934.82 M440.535,940.88v-1.92c0-0.66-0.134-1.38-0.404-2.16c-0.27-0.78-0.689-1.5-1.26-2.16
		s-1.301-1.215-2.189-1.665c-0.891-0.449-1.947-0.675-3.165-0.675c-1.04,0-2.007,0.186-2.896,0.555
		c-0.891,0.37-1.665,0.881-2.325,1.53c-0.66,0.65-1.175,1.425-1.544,2.325c-0.372,0.9-0.557,1.87-0.557,2.91v0.72
		c0,1.14,0.182,2.18,0.541,3.12s0.857,1.75,1.5,2.43c0.641,0.681,1.405,1.205,2.295,1.575c0.889,0.37,1.863,0.555,2.925,0.555
		c1.921,0,3.445-0.435,4.575-1.305c1.129-0.87,1.905-1.995,2.325-3.375l-2.221-0.6c-0.14,0.42-0.325,0.814-0.556,1.185
		c-0.229,0.37-0.529,0.695-0.898,0.976c-0.371,0.279-0.815,0.5-1.336,0.659c-0.521,0.16-1.13,0.24-1.829,0.24
		c-1.541,0-2.741-0.45-3.601-1.35c-0.859-0.9-1.32-2.09-1.381-3.57H440.535z M423.076,936.14c0-1.14-0.305-2.064-0.916-2.774
		s-1.475-1.065-2.594-1.065c-1.48,0-2.562,0.68-3.24,2.04h-0.361c-0.179-0.6-0.505-1.09-0.974-1.47
		c-0.47-0.38-1.065-0.57-1.785-0.57c-0.68,0-1.271,0.165-1.77,0.495c-0.5,0.33-0.882,0.845-1.141,1.545h-0.359v-1.62h-2.341v14.88
		h2.341v-10.26c0-0.84,0.194-1.52,0.585-2.04c0.39-0.52,0.943-0.78,1.664-0.78c0.601,0,1.08,0.216,1.441,0.646
		c0.359,0.43,0.539,0.975,0.539,1.635v10.8h2.34v-10.08c0-1.02,0.205-1.774,0.615-2.265c0.409-0.49,0.945-0.735,1.605-0.735
		c0.699,0,1.21,0.226,1.529,0.676c0.319,0.449,0.48,1.024,0.48,1.725v10.68h2.34V936.14z M395.057,945.425
		c-0.601-0.25-1.125-0.61-1.575-1.08s-0.8-1.035-1.05-1.694c-0.252-0.66-0.375-1.41-0.375-2.25v-0.48c0-0.8,0.123-1.53,0.375-2.19
		c0.25-0.659,0.6-1.229,1.05-1.71c0.45-0.479,0.979-0.85,1.589-1.109c0.611-0.26,1.266-0.391,1.965-0.391
		c0.68,0,1.324,0.136,1.936,0.405c0.609,0.271,1.141,0.646,1.591,1.125c0.448,0.48,0.805,1.055,1.065,1.726
		c0.258,0.67,0.39,1.404,0.39,2.204v0.36c0,0.82-0.132,1.565-0.39,2.235c-0.261,0.67-0.617,1.245-1.065,1.725
		c-0.45,0.48-0.976,0.851-1.575,1.11c-0.602,0.26-1.25,0.39-1.951,0.39C396.316,945.8,395.656,945.675,395.057,945.425
		 M402.017,950.54c0,0.6-0.271,0.899-0.811,0.899h-8.85v2.16h9.688c0.681,0,1.234-0.22,1.666-0.66c0.431-0.439,0.646-1,0.646-1.68
		v-18.54h-2.34v2.34h-0.36c-0.461-0.899-1.095-1.585-1.904-2.055c-0.811-0.47-1.756-0.705-2.836-0.705c-0.96,0-1.881,0.17-2.76,0.51
		c-0.881,0.341-1.65,0.835-2.311,1.485s-1.189,1.45-1.59,2.4c-0.4,0.949-0.6,2.024-0.6,3.225v0.48c0,1.22,0.195,2.305,0.585,3.255
		c0.39,0.949,0.919,1.745,1.59,2.385s1.444,1.13,2.325,1.47c0.879,0.34,1.819,0.51,2.82,0.51c0.979,0,1.885-0.225,2.715-0.675
		c0.829-0.45,1.484-1.125,1.965-2.024h0.36V950.54z M375.182,944.375c-0.891-0.95-1.336-2.275-1.336-3.975v-0.48
		c0-0.8,0.119-1.535,0.36-2.205c0.24-0.67,0.573-1.24,1.005-1.71c0.431-0.47,0.935-0.835,1.516-1.095
		c0.58-0.26,1.219-0.391,1.92-0.391c0.678,0,1.314,0.136,1.904,0.405c0.59,0.271,1.1,0.646,1.529,1.125
		c0.43,0.48,0.766,1.055,1.006,1.726c0.24,0.67,0.36,1.404,0.36,2.204v0.36c0,0.82-0.12,1.565-0.36,2.235s-0.569,1.245-0.99,1.725
		c-0.42,0.48-0.926,0.851-1.516,1.11c-0.589,0.26-1.234,0.39-1.934,0.39C377.226,945.8,376.07,945.325,375.182,944.375
		 M383.446,945.26c0,0.68,0.214,1.24,0.645,1.68c0.431,0.44,0.985,0.66,1.665,0.66h1.59v-2.16h-0.75c-0.539,0-0.81-0.3-0.81-0.899
		v-11.82h-2.34v2.34h-0.36c-0.479-0.939-1.136-1.635-1.965-2.085c-0.83-0.449-1.755-0.675-2.775-0.675c-0.94,0-1.829,0.17-2.67,0.51
		c-0.84,0.341-1.574,0.835-2.205,1.485c-0.63,0.65-1.125,1.445-1.484,2.385c-0.359,0.94-0.54,2.021-0.54,3.24v0.48
		c0,1.239,0.181,2.329,0.54,3.27s0.854,1.735,1.484,2.385c0.631,0.65,1.365,1.141,2.205,1.471c0.841,0.329,1.75,0.494,2.73,0.494
		c0.939,0,1.834-0.239,2.685-0.72c0.851-0.479,1.516-1.22,1.995-2.22h0.36V945.26z M353.746,934.88h3.061v10.56h-3.422v2.16h9.541
		v-2.16h-3.779v-6.3c0-0.64,0.069-1.239,0.21-1.8c0.139-0.56,0.359-1.05,0.66-1.47c0.3-0.42,0.675-0.75,1.125-0.99
		c0.448-0.24,0.985-0.36,1.604-0.36c0.96,0,1.771,0.306,2.43,0.915c0.66,0.61,0.99,1.605,0.99,2.985l2.461-0.36
		c-0.061-1.88-0.552-3.31-1.471-4.29c-0.92-0.979-2.13-1.47-3.63-1.47c-0.899,0-1.7,0.195-2.399,0.585
		c-0.702,0.391-1.242,0.995-1.621,1.815h-0.359v-1.98h-5.4V934.88z M336.377,934.88h4.588v12.72h2.342v-12.72h6.21v-2.16h-6.21
		v-3.06c0-0.601,0.27-0.9,0.809-0.9h5.041v-2.16h-5.879c-0.682,0-1.236,0.221-1.666,0.66c-0.432,0.44-0.646,1-0.646,1.68v3.78
		h-4.588V934.88z M303.766,935.615c0.181-0.271,0.42-0.495,0.721-0.676c0.3-0.18,0.645-0.314,1.035-0.404
		c0.39-0.09,0.795-0.135,1.215-0.135c1.08,0,1.954,0.27,2.625,0.81c0.67,0.54,1.055,1.29,1.155,2.25l2.22-0.54
		c-0.08-0.56-0.255-1.12-0.525-1.68c-0.27-0.561-0.656-1.056-1.154-1.485c-0.5-0.43-1.121-0.78-1.861-1.05
		c-0.739-0.271-1.602-0.405-2.58-0.405c-0.699,0-1.369,0.09-2.009,0.271c-0.642,0.18-1.215,0.449-1.726,0.81
		c-0.51,0.36-0.916,0.805-1.215,1.335c-0.3,0.53-0.45,1.146-0.45,1.845v0.181c0,1.3,0.46,2.29,1.38,2.97s2.24,1.08,3.961,1.2
		c1.479,0.1,2.55,0.33,3.209,0.689c0.66,0.36,0.99,0.96,0.99,1.801c0,0.779-0.336,1.385-1.004,1.814
		c-0.672,0.43-1.557,0.646-2.656,0.646c-1.301,0-2.34-0.346-3.119-1.035c-0.781-0.69-1.221-1.605-1.32-2.745l-2.22,0.54
		c0.04,0.66,0.199,1.314,0.479,1.965c0.279,0.65,0.694,1.229,1.244,1.74c0.551,0.51,1.241,0.92,2.07,1.229
		c0.83,0.311,1.826,0.465,2.985,0.465c0.859,0,1.654-0.104,2.386-0.314c0.729-0.21,1.35-0.516,1.859-0.915
		c0.51-0.4,0.91-0.885,1.199-1.455c0.29-0.57,0.436-1.215,0.436-1.935v-0.181c0-1.319-0.454-2.325-1.365-3.015
		c-0.91-0.69-2.234-1.105-3.975-1.245c-1.62-0.12-2.734-0.37-3.345-0.75c-0.611-0.38-0.915-0.93-0.915-1.65
		C303.496,936.2,303.586,935.885,303.766,935.615 M286.92,945.425c-0.609-0.25-1.145-0.615-1.604-1.095
		c-0.461-0.48-0.821-1.055-1.08-1.726c-0.26-0.67-0.391-1.425-0.391-2.265v-0.36c0-0.8,0.131-1.534,0.391-2.204
		c0.259-0.671,0.619-1.245,1.08-1.726c0.459-0.479,1-0.854,1.62-1.125c0.618-0.27,1.279-0.405,1.979-0.405
		c0.699,0,1.361,0.136,1.98,0.405c0.62,0.271,1.158,0.646,1.62,1.125c0.46,0.48,0.819,1.055,1.079,1.726
		c0.26,0.67,0.391,1.404,0.391,2.204v0.36c0,0.84-0.131,1.595-0.391,2.265c-0.26,0.671-0.619,1.245-1.079,1.726
		c-0.462,0.479-0.995,0.845-1.605,1.095c-0.611,0.25-1.275,0.375-1.995,0.375C288.195,945.8,287.531,945.675,286.92,945.425
		 M296.385,939.979c0-1.22-0.205-2.305-0.613-3.255c-0.41-0.949-0.961-1.755-1.65-2.415c-0.689-0.659-1.485-1.159-2.385-1.5
		c-0.9-0.34-1.84-0.51-2.82-0.51c-0.979,0-1.92,0.17-2.82,0.51c-0.9,0.341-1.694,0.841-2.385,1.5
		c-0.689,0.66-1.242,1.466-1.649,2.415c-0.411,0.95-0.615,2.035-0.615,3.255v0.36c0,1.24,0.204,2.335,0.615,3.285
		c0.407,0.95,0.955,1.75,1.634,2.4c0.68,0.649,1.471,1.145,2.371,1.484c0.898,0.34,1.85,0.51,2.85,0.51
		c0.98,0,1.925-0.17,2.836-0.51c0.908-0.34,1.704-0.835,2.384-1.484c0.679-0.65,1.226-1.45,1.636-2.4
		c0.408-0.95,0.613-2.045,0.613-3.285V939.979z M264.286,947.6h13.14v-2.16h-5.399V926.6h-7.56v2.16h5.219v16.68h-5.399V947.6z
		 M236.551,934.82c0.551,0.199,1.041,0.479,1.471,0.84c0.43,0.359,0.779,0.8,1.049,1.319c0.271,0.521,0.426,1.101,0.465,1.74h-9.6
		c0.08-0.6,0.256-1.155,0.525-1.665s0.619-0.955,1.051-1.335c0.43-0.38,0.93-0.675,1.5-0.885c0.568-0.21,1.184-0.315,1.844-0.315
		C235.436,934.52,236.002,934.62,236.551,934.82 M241.877,940.88v-1.92c0-0.66-0.137-1.38-0.406-2.16s-0.689-1.5-1.26-2.16
		s-1.3-1.215-2.189-1.665c-0.891-0.449-1.945-0.675-3.166-0.675c-1.039,0-2.004,0.186-2.895,0.555
		c-0.891,0.37-1.664,0.881-2.324,1.53c-0.66,0.65-1.176,1.425-1.545,2.325c-0.371,0.9-0.557,1.87-0.557,2.91v0.72
		c0,1.14,0.182,2.18,0.541,3.12s0.859,1.75,1.5,2.43c0.641,0.681,1.405,1.205,2.295,1.575c0.891,0.37,1.865,0.555,2.926,0.555
		c1.92,0,3.444-0.435,4.574-1.305c1.131-0.87,1.906-1.995,2.324-3.375l-2.219-0.6c-0.141,0.42-0.326,0.814-0.555,1.185
		c-0.23,0.37-0.531,0.695-0.9,0.976c-0.371,0.279-0.815,0.5-1.336,0.659c-0.52,0.16-1.129,0.24-1.83,0.24
		c-1.539,0-2.74-0.45-3.6-1.35c-0.859-0.9-1.32-2.09-1.379-3.57H241.877z M214.666,945.425c-0.6-0.25-1.125-0.61-1.574-1.08
		c-0.451-0.47-0.801-1.035-1.051-1.694c-0.25-0.66-0.375-1.41-0.375-2.25v-0.48c0-0.8,0.125-1.53,0.375-2.19
		c0.25-0.659,0.6-1.229,1.051-1.71c0.449-0.479,0.979-0.85,1.59-1.109c0.609-0.26,1.265-0.391,1.965-0.391
		c0.68,0,1.324,0.136,1.934,0.405c0.611,0.271,1.141,0.646,1.592,1.125c0.449,0.48,0.805,1.055,1.064,1.726
		c0.26,0.67,0.391,1.404,0.391,2.204v0.36c0,0.82-0.131,1.565-0.391,2.235s-0.615,1.245-1.064,1.725
		c-0.451,0.48-0.977,0.851-1.576,1.11s-1.25,0.39-1.949,0.39C215.926,945.8,215.266,945.675,214.666,945.425 M221.627,947.6h2.34
		v-21h-2.34v8.46h-0.361c-0.479-0.939-1.164-1.635-2.055-2.085c-0.89-0.449-1.845-0.675-2.865-0.675c-0.959,0-1.869,0.17-2.73,0.51
		c-0.859,0.341-1.609,0.835-2.249,1.485s-1.149,1.45-1.53,2.4c-0.38,0.949-0.57,2.024-0.57,3.225v0.48
		c0,1.22,0.186,2.305,0.556,3.255c0.37,0.949,0.88,1.745,1.53,2.385s1.404,1.13,2.264,1.47c0.861,0.34,1.791,0.51,2.791,0.51
		c0.439,0,0.9-0.055,1.38-0.165c0.479-0.109,0.935-0.274,1.364-0.494c0.43-0.221,0.831-0.5,1.201-0.841
		c0.369-0.34,0.675-0.739,0.914-1.199h0.361V947.6z M173.146,934.88h3.06v10.56h-3.42v2.16h9.54v-2.16h-3.779v-6.3
		c0-0.64,0.068-1.239,0.209-1.8c0.141-0.56,0.359-1.05,0.66-1.47s0.676-0.75,1.125-0.99c0.45-0.24,0.985-0.36,1.605-0.36
		c0.959,0,1.77,0.306,2.43,0.915c0.66,0.61,0.99,1.605,0.99,2.985l2.46-0.36c-0.06-1.88-0.55-3.31-1.47-4.29
		c-0.92-0.979-2.131-1.47-3.631-1.47c-0.899,0-1.699,0.195-2.399,0.585c-0.7,0.391-1.24,0.995-1.62,1.815h-0.359v-1.98h-5.4V934.88z
		 M156.286,947.6h12.42v-2.16h-4.86v-12.72h-7.02v2.16h4.68v10.56h-5.22V947.6z M161.16,929.765c0.41,0.41,0.906,0.615,1.486,0.615
		s1.074-0.205,1.484-0.615s0.615-0.904,0.615-1.484s-0.205-1.075-0.615-1.485s-0.904-0.615-1.484-0.615s-1.076,0.205-1.486,0.615
		c-0.408,0.41-0.613,0.905-0.613,1.485S160.752,929.354,161.16,929.765 M137.355,934.88h4.68v10.38c0,0.68,0.217,1.24,0.646,1.68
		c0.43,0.44,0.984,0.66,1.664,0.66h5.07v-2.16h-4.23c-0.539,0-0.809-0.3-0.809-0.899v-9.66h5.76v-2.16h-5.76v-6.12h-2.342v6.12
		h-4.68V934.88z M118.967,934.88h3.06v10.56h-3.42v2.16h9.54v-2.16h-3.78v-6.3c0-0.64,0.069-1.239,0.21-1.8
		c0.141-0.56,0.359-1.05,0.66-1.47c0.299-0.42,0.675-0.75,1.125-0.99c0.449-0.24,0.984-0.36,1.605-0.36
		c0.959,0,1.77,0.306,2.43,0.915c0.66,0.61,0.99,1.605,0.99,2.985l2.459-0.36c-0.06-1.88-0.549-3.31-1.469-4.29
		c-0.921-0.979-2.131-1.47-3.631-1.47c-0.9,0-1.699,0.195-2.4,0.585c-0.699,0.391-1.24,0.995-1.619,1.815h-0.36v-1.98h-5.399V934.88
		z M104.281,944.375c-0.891-0.95-1.335-2.275-1.335-3.975v-0.48c0-0.8,0.12-1.535,0.36-2.205s0.574-1.24,1.004-1.71
		s0.936-0.835,1.516-1.095s1.221-0.391,1.92-0.391c0.68,0,1.314,0.136,1.904,0.405c0.591,0.271,1.102,0.646,1.531,1.125
		c0.43,0.48,0.765,1.055,1.004,1.726c0.24,0.67,0.361,1.404,0.361,2.204v0.36c0,0.82-0.121,1.565-0.361,2.235
		c-0.239,0.67-0.57,1.245-0.99,1.725c-0.42,0.48-0.924,0.851-1.514,1.11s-1.235,0.39-1.936,0.39
		C106.326,945.8,105.172,945.325,104.281,944.375 M112.547,945.26c0,0.68,0.215,1.24,0.645,1.68c0.43,0.44,0.984,0.66,1.664,0.66
		h1.591v-2.16h-0.751c-0.539,0-0.809-0.3-0.809-0.899v-11.82h-2.34v2.34h-0.361c-0.479-0.939-1.135-1.635-1.965-2.085
		c-0.83-0.449-1.754-0.675-2.774-0.675c-0.94,0-1.831,0.17-2.671,0.51c-0.84,0.341-1.574,0.835-2.205,1.485
		c-0.629,0.65-1.124,1.445-1.484,2.385c-0.359,0.94-0.539,2.021-0.539,3.24v0.48c0,1.239,0.18,2.329,0.539,3.27
		c0.36,0.94,0.855,1.735,1.484,2.385c0.631,0.65,1.365,1.141,2.205,1.471c0.84,0.329,1.751,0.494,2.73,0.494
		c0.94,0,1.836-0.239,2.686-0.72c0.85-0.479,1.515-1.22,1.994-2.22h0.361V945.26z M88.516,945.41c-0.6-0.26-1.125-0.63-1.574-1.11
		c-0.45-0.479-0.805-1.055-1.064-1.725c-0.262-0.67-0.391-1.415-0.391-2.235v-0.36c0-0.8,0.129-1.534,0.391-2.204
		c0.26-0.671,0.614-1.245,1.064-1.726c0.449-0.479,0.975-0.854,1.574-1.125c0.6-0.27,1.25-0.405,1.951-0.405
		c0.699,0,1.354,0.131,1.965,0.391c0.609,0.26,1.139,0.625,1.59,1.095c0.449,0.47,0.8,1.03,1.049,1.68
		c0.251,0.65,0.376,1.375,0.376,2.176v0.6c0,0.82-0.125,1.56-0.376,2.22c-0.249,0.66-0.6,1.221-1.049,1.681
		c-0.451,0.46-0.975,0.814-1.575,1.064s-1.261,0.375-1.979,0.375C89.766,945.8,89.115,945.67,88.516,945.41 M85.486,945.32h0.359
		c0.26,0.46,0.58,0.854,0.961,1.185c0.379,0.33,0.795,0.61,1.244,0.84c0.451,0.23,0.926,0.4,1.426,0.51
		c0.5,0.11,0.99,0.165,1.47,0.165c0.94,0,1.829-0.165,2.669-0.494c0.841-0.33,1.576-0.815,2.206-1.455
		c0.63-0.641,1.125-1.431,1.485-2.37c0.359-0.94,0.539-2.021,0.539-3.24v-0.6c0-1.2-0.186-2.271-0.555-3.21
		c-0.369-0.94-0.869-1.73-1.5-2.37c-0.631-0.641-1.355-1.13-2.176-1.471c-0.818-0.34-1.689-0.51-2.609-0.51
		c-1.08,0-2.08,0.235-3,0.705s-1.64,1.155-2.16,2.055h-0.359v-2.34h-2.34v20.88h2.34V945.32z M50.102,944.375
		c-0.891-0.95-1.336-2.275-1.336-3.975v-0.48c0-0.8,0.121-1.535,0.361-2.205c0.239-0.67,0.574-1.24,1.004-1.71
		s0.936-0.835,1.516-1.095s1.22-0.391,1.92-0.391c0.68,0,1.314,0.136,1.904,0.405c0.59,0.271,1.1,0.646,1.531,1.125
		c0.43,0.48,0.764,1.055,1.004,1.726c0.24,0.67,0.36,1.404,0.36,2.204v0.36c0,0.82-0.12,1.565-0.36,2.235s-0.57,1.245-0.99,1.725
		c-0.42,0.48-0.924,0.851-1.514,1.11c-0.591,0.26-1.236,0.39-1.936,0.39C52.146,945.8,50.991,945.325,50.102,944.375 M58.366,945.26
		c0,0.68,0.214,1.24,0.646,1.68c0.43,0.44,0.984,0.66,1.664,0.66h1.59v-2.16h-0.75c-0.539,0-0.81-0.3-0.81-0.899v-11.82h-2.34v2.34
		h-0.36c-0.479-0.939-1.135-1.635-1.965-2.085c-0.83-0.449-1.755-0.675-2.775-0.675c-0.939,0-1.83,0.17-2.67,0.51
		c-0.84,0.341-1.574,0.835-2.205,1.485c-0.629,0.65-1.125,1.445-1.484,2.385c-0.359,0.94-0.54,2.021-0.54,3.24v0.48
		c0,1.239,0.181,2.329,0.54,3.27s0.855,1.735,1.484,2.385c0.631,0.65,1.365,1.141,2.205,1.471c0.84,0.329,1.75,0.494,2.73,0.494
		c0.939,0,1.834-0.239,2.686-0.72c0.85-0.479,1.515-1.22,1.994-2.22h0.36V945.26z"/>
	<path clip-path="url(#SVGID_4_)" fill="#231F20" d="M466.307,885.615c0.18-0.271,0.42-0.495,0.72-0.676
		c0.3-0.18,0.645-0.314,1.035-0.404c0.39-0.09,0.794-0.135,1.216-0.135c1.079,0,1.953,0.27,2.624,0.81
		c0.669,0.54,1.054,1.29,1.155,2.25l2.221-0.54c-0.082-0.56-0.256-1.12-0.525-1.68c-0.271-0.561-0.658-1.056-1.156-1.485
		c-0.5-0.43-1.121-0.78-1.859-1.05c-0.74-0.271-1.602-0.405-2.58-0.405c-0.701,0-1.371,0.09-2.01,0.271
		c-0.643,0.18-1.215,0.449-1.727,0.81c-0.509,0.36-0.914,0.805-1.214,1.335s-0.45,1.146-0.45,1.845v0.181c0,1.3,0.46,2.29,1.38,2.97
		c0.919,0.68,2.239,1.08,3.96,1.2c1.479,0.1,2.551,0.33,3.211,0.689c0.658,0.36,0.989,0.96,0.989,1.801
		c0,0.779-0.335,1.385-1.005,1.814c-0.672,0.43-1.557,0.646-2.655,0.646c-1.3,0-2.34-0.346-3.119-1.035
		c-0.78-0.69-1.221-1.605-1.321-2.745l-2.219,0.54c0.04,0.66,0.197,1.314,0.479,1.965c0.28,0.65,0.694,1.229,1.245,1.74
		c0.551,0.51,1.24,0.92,2.07,1.229c0.829,0.311,1.824,0.465,2.984,0.465c0.859,0,1.654-0.104,2.386-0.314
		c0.729-0.21,1.35-0.516,1.86-0.915c0.508-0.4,0.908-0.885,1.199-1.455c0.289-0.57,0.435-1.215,0.435-1.935v-0.181
		c0-1.319-0.454-2.325-1.364-3.015c-0.912-0.69-2.236-1.105-3.976-1.245c-1.62-0.12-2.734-0.37-3.345-0.75
		c-0.611-0.38-0.916-0.93-0.916-1.65C466.035,886.2,466.127,885.885,466.307,885.615 M453.271,884.82
		c0.549,0.199,1.039,0.479,1.469,0.84c0.431,0.359,0.781,0.8,1.051,1.319c0.271,0.521,0.424,1.101,0.465,1.74h-9.6
		c0.078-0.6,0.255-1.155,0.525-1.665c0.27-0.51,0.618-0.955,1.049-1.335c0.43-0.38,0.93-0.675,1.5-0.885s1.186-0.315,1.846-0.315
		C452.156,884.52,452.72,884.62,453.271,884.82 M458.596,890.88v-1.92c0-0.66-0.135-1.38-0.404-2.16
		c-0.271-0.78-0.689-1.5-1.26-2.16s-1.303-1.215-2.191-1.665c-0.891-0.449-1.945-0.675-3.164-0.675
		c-1.041,0-2.006,0.186-2.895,0.555c-0.892,0.37-1.665,0.881-2.325,1.53c-0.661,0.65-1.175,1.425-1.546,2.325
		s-0.555,1.87-0.555,2.91v0.72c0,1.14,0.181,2.18,0.54,3.12c0.36,0.94,0.858,1.75,1.5,2.43c0.641,0.681,1.403,1.205,2.294,1.575
		s1.865,0.555,2.927,0.555c1.92,0,3.444-0.435,4.574-1.305c1.129-0.87,1.905-1.995,2.325-3.375l-2.221-0.6
		c-0.139,0.42-0.325,0.814-0.554,1.185c-0.23,0.37-0.53,0.695-0.901,0.976c-0.37,0.279-0.814,0.5-1.334,0.659
		c-0.521,0.16-1.129,0.24-1.83,0.24c-1.541,0-2.74-0.45-3.6-1.35c-0.861-0.9-1.32-2.09-1.381-3.57H458.596z M429.166,889.86
		c0-1.62,0.404-2.915,1.215-3.886c0.811-0.97,1.924-1.455,3.346-1.455c1.199,0,2.148,0.391,2.85,1.17
		c0.701,0.78,1.051,1.95,1.051,3.511v8.399h2.338v-8.88c0-2.14-0.509-3.745-1.528-4.814c-1.021-1.07-2.392-1.605-4.11-1.605
		c-2.281,0-3.881,0.98-4.8,2.94h-0.36v-2.521h-2.34v14.88h2.34V889.86z M413.341,895.425c-0.61-0.25-1.146-0.615-1.604-1.095
		c-0.461-0.48-0.82-1.055-1.08-1.726c-0.26-0.67-0.391-1.425-0.391-2.265v-0.36c0-0.8,0.131-1.534,0.391-2.204
		c0.26-0.671,0.619-1.245,1.08-1.726c0.459-0.479,1-0.854,1.62-1.125c0.619-0.27,1.278-0.405,1.979-0.405
		c0.699,0,1.359,0.136,1.98,0.405c0.619,0.271,1.158,0.646,1.62,1.125c0.46,0.48,0.819,1.055,1.08,1.726
		c0.259,0.67,0.39,1.404,0.39,2.204v0.36c0,0.84-0.131,1.595-0.39,2.265c-0.261,0.671-0.62,1.245-1.08,1.726
		c-0.462,0.479-0.995,0.845-1.605,1.095c-0.611,0.25-1.274,0.375-1.995,0.375S413.951,895.675,413.341,895.425 M422.807,889.979
		c0-1.22-0.206-2.305-0.615-3.255c-0.41-0.949-0.961-1.755-1.65-2.415c-0.689-0.659-1.484-1.159-2.385-1.5
		c-0.9-0.34-1.842-0.51-2.82-0.51c-0.979,0-1.92,0.17-2.819,0.51c-0.901,0.341-1.695,0.841-2.386,1.5
		c-0.689,0.66-1.24,1.466-1.649,2.415c-0.411,0.95-0.615,2.035-0.615,3.255v0.36c0,1.24,0.204,2.335,0.615,3.285
		c0.409,0.95,0.955,1.75,1.634,2.4c0.68,0.649,1.471,1.145,2.371,1.484c0.898,0.34,1.85,0.51,2.85,0.51
		c0.979,0,1.924-0.17,2.835-0.51c0.909-0.34,1.706-0.835,2.386-1.484c0.678-0.65,1.225-1.45,1.635-2.4
		c0.409-0.95,0.615-2.045,0.615-3.285V889.979z M391.066,897.6h12.42v-2.16h-4.859v-12.72h-7.021v2.16h4.68v10.56h-5.22V897.6z
		 M395.941,879.765c0.408,0.41,0.903,0.615,1.484,0.615c0.58,0,1.076-0.205,1.485-0.615s0.615-0.904,0.615-1.484
		s-0.206-1.075-0.615-1.485s-0.905-0.615-1.485-0.615c-0.581,0-1.076,0.205-1.484,0.615c-0.41,0.41-0.615,0.905-0.615,1.485
		S395.531,879.354,395.941,879.765 M384.227,891.78c-0.08,0.52-0.236,1.02-0.466,1.5c-0.229,0.479-0.54,0.904-0.93,1.274
		s-0.86,0.67-1.411,0.9c-0.55,0.229-1.194,0.345-1.934,0.345c-0.74,0-1.43-0.125-2.07-0.375s-1.2-0.604-1.68-1.064
		c-0.48-0.46-0.855-1.025-1.125-1.695c-0.271-0.67-0.405-1.425-0.405-2.265v-0.36c0-0.8,0.135-1.54,0.405-2.22
		c0.27-0.681,0.645-1.266,1.125-1.756c0.479-0.489,1.035-0.869,1.665-1.14c0.63-0.27,1.305-0.405,2.024-0.405
		c0.74,0,1.391,0.11,1.951,0.33c0.559,0.221,1.034,0.516,1.424,0.886c0.391,0.369,0.701,0.8,0.93,1.29
		c0.229,0.489,0.376,0.994,0.436,1.515l2.34-0.54c-0.14-0.82-0.404-1.58-0.795-2.28c-0.39-0.7-0.89-1.305-1.5-1.814
		c-0.61-0.511-1.316-0.905-2.115-1.186c-0.8-0.28-1.67-0.42-2.609-0.42c-1.04,0-2.025,0.18-2.955,0.54s-1.745,0.87-2.445,1.53
		c-0.701,0.66-1.256,1.47-1.666,2.43s-0.613,2.04-0.613,3.24v0.36c0,1.22,0.203,2.3,0.613,3.239c0.41,0.94,0.965,1.735,1.666,2.386
		c0.7,0.649,1.516,1.145,2.445,1.484s1.915,0.51,2.955,0.51c0.979,0,1.87-0.14,2.67-0.42c0.799-0.279,1.5-0.675,2.1-1.185
		s1.096-1.115,1.484-1.815c0.391-0.699,0.665-1.46,0.826-2.279L384.227,891.78z M357.121,894.375
		c-0.891-0.95-1.335-2.275-1.335-3.975v-0.48c0-0.8,0.12-1.535,0.36-2.205c0.238-0.67,0.573-1.24,1.004-1.71
		c0.43-0.47,0.936-0.835,1.516-1.095s1.219-0.391,1.92-0.391c0.68,0,1.315,0.136,1.905,0.405c0.589,0.271,1.099,0.646,1.53,1.125
		c0.43,0.48,0.765,1.055,1.005,1.726c0.239,0.67,0.358,1.404,0.358,2.204v0.36c0,0.82-0.119,1.565-0.358,2.235
		c-0.24,0.67-0.57,1.245-0.991,1.725c-0.42,0.48-0.925,0.851-1.514,1.11c-0.59,0.26-1.235,0.39-1.936,0.39
		C359.166,895.8,358.01,895.325,357.121,894.375 M365.385,895.26c0,0.68,0.216,1.24,0.646,1.68c0.43,0.44,0.985,0.66,1.664,0.66
		h1.591v-2.16h-0.751c-0.539,0-0.809-0.3-0.809-0.899v-11.82h-2.342v2.34h-0.358c-0.481-0.939-1.136-1.635-1.965-2.085
		c-0.831-0.449-1.755-0.675-2.775-0.675c-0.941,0-1.83,0.17-2.671,0.51c-0.84,0.341-1.574,0.835-2.204,1.485
		s-1.125,1.445-1.485,2.385c-0.359,0.94-0.541,2.021-0.541,3.24v0.48c0,1.239,0.182,2.329,0.541,3.27
		c0.36,0.94,0.855,1.735,1.485,2.385c0.63,0.65,1.364,1.141,2.204,1.471c0.841,0.329,1.751,0.494,2.73,0.494
		c0.94,0,1.834-0.239,2.686-0.72c0.85-0.479,1.514-1.22,1.995-2.22h0.358V895.26z M336.885,897.6h12.422v-2.16h-4.86v-12.72h-7.021
		v2.16h4.681v10.56h-5.222V897.6z M341.761,879.765c0.409,0.41,0.905,0.615,1.485,0.615s1.075-0.205,1.484-0.615
		c0.41-0.41,0.615-0.904,0.615-1.484s-0.205-1.075-0.615-1.485c-0.409-0.41-0.904-0.615-1.484-0.615s-1.076,0.205-1.485,0.615
		s-0.614,0.905-0.614,1.485S341.352,879.354,341.761,879.765 M317.627,884.88h3.059v10.56h-3.42v2.16h9.541v-2.16h-3.78v-6.3
		c0-0.64,0.069-1.239,0.21-1.8c0.139-0.56,0.359-1.05,0.66-1.47c0.299-0.42,0.674-0.75,1.125-0.99c0.449-0.24,0.984-0.36,1.605-0.36
		c0.959,0,1.77,0.306,2.43,0.915c0.659,0.61,0.988,1.605,0.988,2.985l2.461-0.36c-0.06-1.88-0.551-3.31-1.471-4.29
		c-0.92-0.979-2.129-1.47-3.629-1.47c-0.9,0-1.7,0.195-2.4,0.585c-0.701,0.391-1.24,0.995-1.621,1.815h-0.358v-1.98h-5.399V884.88z
		 M302.941,894.375c-0.891-0.95-1.335-2.275-1.335-3.975v-0.48c0-0.8,0.12-1.535,0.358-2.205c0.241-0.67,0.575-1.24,1.006-1.71
		s0.935-0.835,1.516-1.095c0.58-0.26,1.219-0.391,1.92-0.391c0.68,0,1.314,0.136,1.904,0.405c0.59,0.271,1.1,0.646,1.53,1.125
		c0.431,0.48,0.766,1.055,1.005,1.726c0.24,0.67,0.36,1.404,0.36,2.204v0.36c0,0.82-0.12,1.565-0.36,2.235
		c-0.239,0.67-0.568,1.245-0.99,1.725c-0.419,0.48-0.926,0.851-1.515,1.11s-1.234,0.39-1.935,0.39
		C304.985,895.8,303.83,895.325,302.941,894.375 M311.206,895.26c0,0.68,0.214,1.24,0.646,1.68c0.43,0.44,0.984,0.66,1.665,0.66
		h1.59v-2.16h-0.75c-0.54,0-0.812-0.3-0.812-0.899v-11.82h-2.339v2.34h-0.36c-0.479-0.939-1.136-1.635-1.965-2.085
		c-0.83-0.449-1.754-0.675-2.774-0.675c-0.94,0-1.829,0.17-2.67,0.51c-0.841,0.341-1.575,0.835-2.206,1.485
		c-0.629,0.65-1.124,1.445-1.484,2.385c-0.361,0.94-0.54,2.021-0.54,3.24v0.48c0,1.239,0.179,2.329,0.54,3.27
		c0.36,0.94,0.855,1.735,1.484,2.385c0.631,0.65,1.365,1.141,2.206,1.471c0.841,0.329,1.749,0.494,2.729,0.494
		c0.94,0,1.834-0.239,2.686-0.72c0.85-0.479,1.515-1.22,1.994-2.22h0.36V895.26z M296.385,882.72h-2.758l-4.561,13.8h-0.36
		l-4.56-13.8h-2.76l5.189,14.88h4.619L296.385,882.72z M254.611,884.82c0.549,0.199,1.039,0.479,1.469,0.84
		c0.432,0.359,0.781,0.8,1.051,1.319c0.271,0.521,0.426,1.101,0.465,1.74h-9.6c0.08-0.6,0.256-1.155,0.525-1.665
		s0.619-0.955,1.049-1.335c0.432-0.38,0.932-0.675,1.5-0.885c0.57-0.21,1.186-0.315,1.846-0.315
		C253.496,884.52,254.061,884.62,254.611,884.82 M259.936,890.88v-1.92c0-0.66-0.135-1.38-0.404-2.16s-0.689-1.5-1.26-2.16
		s-1.301-1.215-2.191-1.665c-0.889-0.449-1.943-0.675-3.164-0.675c-1.039,0-2.005,0.186-2.895,0.555
		c-0.891,0.37-1.665,0.881-2.326,1.53c-0.66,0.65-1.174,1.425-1.545,2.325c-0.369,0.9-0.555,1.87-0.555,2.91v0.72
		c0,1.14,0.18,2.18,0.541,3.12c0.359,0.94,0.859,1.75,1.5,2.43c0.641,0.681,1.404,1.205,2.295,1.575
		c0.89,0.37,1.865,0.555,2.924,0.555c1.92,0,3.445-0.435,4.576-1.305c1.129-0.87,1.904-1.995,2.324-3.375l-2.221-0.6
		c-0.139,0.42-0.324,0.814-0.554,1.185s-0.53,0.695-0.901,0.976c-0.369,0.279-0.814,0.5-1.334,0.659
		c-0.52,0.16-1.131,0.24-1.83,0.24c-1.539,0-2.74-0.45-3.6-1.35c-0.86-0.9-1.32-2.09-1.381-3.57H259.936z M232.727,895.425
		c-0.6-0.25-1.125-0.61-1.576-1.08c-0.449-0.47-0.799-1.035-1.049-1.694c-0.25-0.66-0.375-1.41-0.375-2.25v-0.48
		c0-0.8,0.125-1.53,0.375-2.19c0.25-0.659,0.6-1.229,1.049-1.71c0.451-0.479,0.98-0.85,1.59-1.109
		c0.611-0.26,1.266-0.391,1.966-0.391c0.681,0,1.325,0.136,1.935,0.405c0.611,0.271,1.141,0.646,1.59,1.125
		c0.451,0.48,0.805,1.055,1.066,1.726c0.26,0.67,0.389,1.404,0.389,2.204v0.36c0,0.82-0.129,1.565-0.389,2.235
		c-0.262,0.67-0.615,1.245-1.066,1.725c-0.449,0.48-0.975,0.851-1.574,1.11s-1.25,0.39-1.95,0.39
		C233.986,895.8,233.326,895.675,232.727,895.425 M239.686,897.6h2.341v-21h-2.341v8.46h-0.359c-0.48-0.939-1.166-1.635-2.055-2.085
		c-0.891-0.449-1.846-0.675-2.865-0.675c-0.96,0-1.871,0.17-2.73,0.51c-0.859,0.341-1.609,0.835-2.25,1.485
		c-0.64,0.65-1.148,1.45-1.529,2.4c-0.381,0.949-0.57,2.024-0.57,3.225v0.48c0,1.22,0.186,2.305,0.555,3.255
		c0.371,0.949,0.881,1.745,1.53,2.385s1.405,1.13,2.265,1.47s1.791,0.51,2.791,0.51c0.439,0,0.899-0.055,1.379-0.165
		c0.48-0.109,0.936-0.274,1.365-0.494c0.43-0.221,0.83-0.5,1.2-0.841c0.37-0.34,0.675-0.739,0.915-1.199h0.359V897.6z
		 M194.58,894.375c-0.889-0.95-1.334-2.275-1.334-3.975v-0.48c0-0.8,0.12-1.535,0.36-2.205c0.239-0.67,0.575-1.24,1.005-1.71
		s0.936-0.835,1.516-1.095c0.579-0.26,1.219-0.391,1.92-0.391c0.68,0,1.314,0.136,1.904,0.405c0.59,0.271,1.1,0.646,1.53,1.125
		c0.43,0.48,0.765,1.055,1.005,1.726c0.24,0.67,0.359,1.404,0.359,2.204v0.36c0,0.82-0.119,1.565-0.359,2.235
		s-0.57,1.245-0.99,1.725c-0.42,0.48-0.926,0.851-1.515,1.11c-0.591,0.26-1.235,0.39-1.935,0.39
		C196.627,895.8,195.471,895.325,194.58,894.375 M202.846,895.26c0,0.68,0.215,1.24,0.646,1.68c0.431,0.44,0.985,0.66,1.665,0.66
		h1.59v-2.16h-0.75c-0.54,0-0.811-0.3-0.811-0.899v-11.82h-2.34v2.34h-0.359c-0.48-0.939-1.135-1.635-1.965-2.085
		c-0.83-0.449-1.756-0.675-2.775-0.675c-0.939,0-1.83,0.17-2.67,0.51c-0.84,0.341-1.574,0.835-2.205,1.485
		c-0.63,0.65-1.125,1.445-1.484,2.385c-0.36,0.94-0.541,2.021-0.541,3.24v0.48c0,1.239,0.181,2.329,0.541,3.27
		c0.359,0.94,0.854,1.735,1.484,2.385c0.631,0.65,1.365,1.141,2.205,1.471c0.84,0.329,1.75,0.494,2.73,0.494
		c0.939,0,1.834-0.239,2.685-0.72c0.851-0.479,1.515-1.22,1.995-2.22h0.359V895.26z M173.146,884.88h3.06v10.56h-3.42v2.16h9.54
		v-2.16h-3.779v-6.3c0-0.64,0.068-1.239,0.209-1.8c0.141-0.56,0.359-1.05,0.66-1.47s0.676-0.75,1.125-0.99
		c0.45-0.24,0.985-0.36,1.605-0.36c0.96,0,1.77,0.306,2.43,0.915c0.66,0.61,0.99,1.605,0.99,2.985l2.46-0.36
		c-0.06-1.88-0.55-3.31-1.47-4.29c-0.92-0.979-2.131-1.47-3.631-1.47c-0.899,0-1.699,0.195-2.399,0.585
		c-0.7,0.391-1.24,0.995-1.62,1.815h-0.359v-1.98h-5.4V884.88z M166.547,890.46c0,1.62-0.406,2.915-1.216,3.885
		s-1.925,1.455-3.345,1.455c-1.32,0-2.301-0.36-2.939-1.08c-0.641-0.72-0.961-1.859-0.961-3.42v-8.58h-2.34v8.88
		c0,1.061,0.135,1.99,0.404,2.79c0.271,0.8,0.65,1.471,1.141,2.011c0.49,0.539,1.08,0.944,1.77,1.215
		c0.691,0.27,1.445,0.404,2.266,0.404c1.2,0,2.189-0.279,2.971-0.84c0.779-0.56,1.409-1.319,1.889-2.279h0.361v2.699h2.34v-14.88
		h-2.34V890.46z M137.356,884.88h4.679v10.38c0,0.68,0.217,1.24,0.646,1.68c0.43,0.44,0.984,0.66,1.664,0.66h5.07v-2.16h-4.23
		c-0.539,0-0.809-0.3-0.809-0.899v-9.66h5.76v-2.16h-5.76v-6.12h-2.342v6.12h-4.679V884.88z M120.166,897.6h12.42v-2.16h-4.859
		v-12.72h-7.021v2.16h4.681v10.56h-5.221V897.6z M125.041,879.765c0.41,0.41,0.905,0.615,1.485,0.615s1.075-0.205,1.485-0.615
		s0.615-0.904,0.615-1.484s-0.205-1.075-0.615-1.485s-0.905-0.615-1.485-0.615s-1.075,0.205-1.485,0.615s-0.615,0.905-0.615,1.485
		S124.631,879.354,125.041,879.765 M100.906,884.88h3.061v10.56h-3.42v2.16h9.539v-2.16h-3.779v-6.3c0-0.64,0.07-1.239,0.209-1.8
		c0.141-0.56,0.361-1.05,0.66-1.47c0.301-0.42,0.676-0.75,1.125-0.99c0.451-0.24,0.985-0.36,1.605-0.36
		c0.96,0,1.77,0.306,2.43,0.915c0.66,0.61,0.99,1.605,0.99,2.985l2.46-0.36c-0.06-1.88-0.55-3.31-1.47-4.29
		c-0.92-0.979-2.131-1.47-3.631-1.47c-0.899,0-1.699,0.195-2.399,0.585c-0.7,0.391-1.239,0.995-1.62,1.815h-0.359v-1.98h-5.4V884.88
		z M95.266,891.78c-0.08,0.52-0.234,1.02-0.465,1.5c-0.23,0.479-0.539,0.904-0.93,1.274c-0.39,0.37-0.859,0.67-1.41,0.9
		c-0.55,0.229-1.195,0.345-1.935,0.345c-0.74,0-1.431-0.125-2.07-0.375s-1.2-0.604-1.681-1.064c-0.479-0.46-0.854-1.025-1.125-1.695
		c-0.27-0.67-0.404-1.425-0.404-2.265v-0.36c0-0.8,0.135-1.54,0.404-2.22c0.271-0.681,0.646-1.266,1.125-1.756
		c0.48-0.489,1.035-0.869,1.666-1.14c0.629-0.27,1.305-0.405,2.025-0.405c0.739,0,1.389,0.11,1.949,0.33
		c0.561,0.221,1.035,0.516,1.426,0.886c0.389,0.369,0.699,0.8,0.93,1.29c0.23,0.489,0.375,0.994,0.435,1.515l2.341-0.54
		c-0.141-0.82-0.406-1.58-0.795-2.28c-0.391-0.7-0.891-1.305-1.5-1.814c-0.611-0.511-1.316-0.905-2.115-1.186
		c-0.801-0.28-1.67-0.42-2.61-0.42c-1.04,0-2.024,0.18-2.956,0.54c-0.93,0.36-1.744,0.87-2.443,1.53
		c-0.701,0.66-1.256,1.47-1.666,2.43s-0.615,2.04-0.615,3.24v0.36c0,1.22,0.205,2.3,0.615,3.239c0.41,0.94,0.965,1.735,1.666,2.386
		c0.699,0.649,1.514,1.145,2.443,1.484c0.932,0.34,1.916,0.51,2.956,0.51c0.979,0,1.87-0.14,2.669-0.42
		c0.801-0.279,1.5-0.675,2.102-1.185c0.6-0.51,1.094-1.115,1.484-1.815c0.391-0.699,0.665-1.46,0.825-2.279L95.266,891.78z
		 M68.986,885.615c0.18-0.271,0.42-0.495,0.72-0.676c0.3-0.18,0.646-0.314,1.034-0.404c0.391-0.09,0.795-0.135,1.216-0.135
		c1.079,0,1.955,0.27,2.624,0.81c0.672,0.54,1.057,1.29,1.156,2.25l2.22-0.54c-0.079-0.56-0.255-1.12-0.524-1.68
		c-0.271-0.561-0.656-1.056-1.154-1.485c-0.502-0.43-1.121-0.78-1.861-1.05c-0.74-0.271-1.6-0.405-2.58-0.405
		c-0.699,0-1.369,0.09-2.01,0.271c-0.641,0.18-1.215,0.449-1.725,0.81s-0.916,0.805-1.215,1.335
		c-0.301,0.53-0.451,1.146-0.451,1.845v0.181c0,1.3,0.461,2.29,1.381,2.97s2.24,1.08,3.959,1.2c1.48,0.1,2.551,0.33,3.211,0.689
		c0.66,0.36,0.99,0.96,0.99,1.801c0,0.779-0.336,1.385-1.006,1.814s-1.555,0.646-2.654,0.646c-1.301,0-2.34-0.346-3.121-1.035
		c-0.779-0.69-1.219-1.605-1.318-2.745l-2.221,0.54c0.039,0.66,0.199,1.314,0.48,1.965c0.279,0.65,0.694,1.229,1.244,1.74
		c0.551,0.51,1.24,0.92,2.07,1.229c0.83,0.311,1.826,0.465,2.984,0.465c0.861,0,1.656-0.104,2.386-0.314s1.351-0.516,1.86-0.915
		c0.51-0.4,0.91-0.885,1.199-1.455c0.291-0.57,0.436-1.215,0.436-1.935v-0.181c0-1.319-0.455-2.325-1.365-3.015
		c-0.91-0.69-2.234-1.105-3.975-1.245c-1.621-0.12-2.735-0.37-3.346-0.75c-0.609-0.38-0.914-0.93-0.914-1.65
		C68.717,886.2,68.807,885.885,68.986,885.615 M47.775,897.6h12.9v-2.34H50.297v-7.02h10.02v-2.34h-10.02v-6.961h10.199v-2.34
		H47.775V897.6z"/>
	<polygon clip-path="url(#SVGID_4_)" fill="none" stroke="#231F20" stroke-width="1.998" points="1,3 1,999 1,1001.002 3,1001.002 
		561,1001.002 563.002,1001.002 563.002,999 563.002,3 563.002,0.998 561,0.998 3,0.998 1,0.998 	"/>
</g>
<rect x="5.002" y="5.002" fill="none" stroke="#231F20" stroke-width="1.998" width="553.998" height="991.996"/>
<g>
	<defs>
		<rect id="SVGID_69_" width="564" height="1002"/>
	</defs>
	<clipPath id="SVGID_6_">
		<use xlink:href="#SVGID_69_"  overflow="visible"/>
	</clipPath>
	<path clip-path="url(#SVGID_6_)" fill="#FF1419" d="M489.158,72.005l5.512-14.059l5.748,14.059H489.158z M476.561,86.987h13.611
		v-2.353c-0.795,0-1.525-0.021-2.189-0.06c-0.666-0.039-1.242-0.114-1.728-0.223c-0.486-0.109-0.863-0.248-1.132-0.417
		c-0.268-0.168-0.402-0.392-0.402-0.67c0-0.099,0.01-0.179,0.029-0.238l3.484-8.668h13.107l4.109,10.276h-5.749v2.353h33.776v-2.353
		h-5.182l-17.961-39.854h-13.075l-15.339,38.334c-0.24,0.576-0.79,0.973-1.653,1.191c-0.864,0.219-2.101,0.328-3.708,0.328V86.987z
		 M442.814,47.105c1.073,0,2.007,0.124,2.801,0.372c0.794,0.249,1.454,0.695,1.981,1.34c0.525,0.646,0.917,1.53,1.176,2.651
		c0.258,1.122,0.387,2.567,0.387,4.334c0,1.768-0.129,3.222-0.387,4.363c-0.259,1.143-0.65,2.041-1.176,2.696
		c-0.527,0.655-1.188,1.112-1.981,1.37s-1.728,0.387-2.801,0.387V47.105z M417.052,86.987h30.946v-2.353h-5.184V66.972
		c0.973,0,1.813,0.14,2.518,0.417c0.705,0.279,1.275,0.79,1.713,1.534c0.437,0.745,0.76,1.763,0.969,3.053
		c0.207,1.291,0.311,2.949,0.311,4.974c0,1.847,0.189,3.476,0.566,4.885c0.378,1.41,1.029,2.591,1.953,3.545
		c0.922,0.953,2.159,1.672,3.707,2.159c1.549,0.486,3.494,0.73,5.838,0.73c2.442,0,4.457-0.184,6.047-0.551
		c1.588-0.368,2.854-0.968,3.797-1.802s1.599-1.926,1.966-3.277c0.367-1.35,0.552-3.008,0.552-4.974v-0.953h-2.503
		c0,2.403-0.149,4.24-0.446,5.51c-0.297,1.271-0.774,1.907-1.43,1.907c-0.397,0-0.681-0.159-0.849-0.477
		c-0.169-0.317-0.253-0.784-0.253-1.4v-1.057c0-0.308,0.018-0.749,0.059-1.326c0.021-0.555,0.035-1.037,0.045-1.444
		c0.011-0.407,0.016-0.898,0.016-1.475c0-2.085-0.368-3.807-1.103-5.167c-0.734-1.36-1.901-2.443-3.5-3.247
		c-1.599-0.804-3.658-1.37-6.18-1.698c-2.521-0.327-5.571-0.501-9.144-0.521c3.99-0.019,7.32-0.273,9.992-0.759
		c2.67-0.487,4.806-1.177,6.403-2.07c1.599-0.894,2.729-1.986,3.396-3.277c0.665-1.29,0.997-2.76,0.997-4.408
		c0-1.886-0.383-3.524-1.146-4.915c-0.765-1.389-1.877-2.536-3.336-3.44c-1.459-0.903-3.257-1.573-5.391-2.01
		c-2.136-0.437-4.562-0.656-7.283-0.656h-34.044v2.324h5.212v37.529h-5.212V86.987z M362.875,68.7c0,1.727,0.152,3.406,0.461,5.034
		s0.8,3.162,1.475,4.601c0.675,1.44,1.559,2.761,2.65,3.962c1.092,1.201,2.433,2.234,4.021,3.097
		c1.588,0.864,3.436,1.534,5.54,2.011c2.105,0.477,4.507,0.715,7.208,0.715c3.892,0,7.143-0.392,9.755-1.177
		c2.611-0.784,4.706-2.01,6.284-3.678c1.579-1.668,2.701-3.798,3.366-6.389s0.997-5.694,0.997-9.308V48.862
		c0-0.576,0.438-1.013,1.311-1.311c0.874-0.297,2.165-0.446,3.873-0.446v-2.324h-12.957v2.324c1.729,0,3.033,0.149,3.916,0.446
		c0.884,0.298,1.326,0.735,1.326,1.311v19.539c0,2.244-0.139,4.185-0.417,5.823c-0.278,1.638-0.661,3.038-1.146,4.2
		c-0.486,1.161-1.053,2.11-1.697,2.844c-0.646,0.735-1.331,1.311-2.056,1.728s-1.475,0.7-2.25,0.849
		c-0.773,0.149-1.527,0.223-2.263,0.223c-1.927,0-3.47-0.377-4.631-1.132c-1.163-0.754-2.056-1.772-2.681-3.053
		c-0.625-1.281-1.038-2.765-1.236-4.453c-0.199-1.687-0.297-3.464-0.297-5.331V47.105h5.182v-2.324h-30.947v2.324h5.213V68.7z
		 M311.468,86.987h30.946v-2.353h-5.212V47.105h4.319l7.266,14.714h2.086V44.781h-47.864v17.038h2.056l7.297-14.714h4.289v37.529
		h-5.183V86.987z M264.707,86.987h30.947v-2.353h-5.183V47.105h5.183v-2.324h-30.947v2.324h5.213v37.529h-5.213V86.987z
		 M227.566,47.105c1.074,0,2.008,0.124,2.801,0.372c0.795,0.249,1.455,0.695,1.981,1.34c0.526,0.646,0.917,1.53,1.176,2.651
		c0.259,1.122,0.388,2.567,0.388,4.334c0,1.768-0.129,3.222-0.388,4.363c-0.259,1.143-0.649,2.041-1.176,2.696
		c-0.526,0.655-1.187,1.112-1.981,1.37c-0.793,0.258-1.727,0.387-2.801,0.387V47.105z M201.804,86.987h30.946v-2.353h-5.184V66.972
		c0.975,0,1.812,0.14,2.518,0.417c0.705,0.279,1.275,0.79,1.713,1.534c0.437,0.745,0.76,1.763,0.969,3.053
		c0.208,1.291,0.312,2.949,0.312,4.974c0,1.847,0.188,3.476,0.566,4.885c0.377,1.41,1.027,2.591,1.951,3.545
		c0.922,0.953,2.158,1.672,3.708,2.159c1.549,0.486,3.493,0.73,5.838,0.73c2.442,0,4.456-0.184,6.046-0.551
		c1.588-0.368,2.854-0.968,3.798-1.802c0.943-0.834,1.599-1.926,1.966-3.277c0.367-1.35,0.551-3.008,0.551-4.974v-0.953H255
		c0,2.403-0.148,4.24-0.447,5.51c-0.297,1.271-0.774,1.907-1.43,1.907c-0.396,0-0.68-0.159-0.849-0.477
		c-0.169-0.317-0.253-0.784-0.253-1.4v-1.057c0-0.308,0.02-0.749,0.061-1.326c0.019-0.555,0.033-1.037,0.043-1.444
		c0.011-0.407,0.016-0.898,0.016-1.475c0-2.085-0.368-3.807-1.102-5.167c-0.735-1.36-1.902-2.443-3.5-3.247
		c-1.599-0.804-3.66-1.37-6.181-1.698c-2.522-0.327-5.569-0.501-9.144-0.521c3.99-0.019,7.322-0.273,9.992-0.759
		c2.67-0.487,4.806-1.177,6.404-2.07c1.598-0.894,2.73-1.986,3.395-3.277c0.666-1.29,0.998-2.76,0.998-4.408
		c0-1.886-0.383-3.524-1.146-4.915c-0.764-1.389-1.876-2.536-3.336-3.44c-1.459-0.903-3.257-1.573-5.391-2.01
		c-2.135-0.437-4.562-0.656-7.282-0.656h-34.045v2.324h5.213v37.529h-5.213V86.987z M146.703,75.491
		c1.191,2.601,2.885,4.84,5.078,6.716c2.194,1.877,4.842,3.332,7.938,4.364c3.098,1.032,6.553,1.549,10.364,1.549
		c3.912,0,7.229-0.517,9.949-1.549c2.721-1.032,4.944-2.452,6.672-4.259s3.012-3.922,3.857-6.345
		c0.843-2.422,1.346-5.033,1.504-7.833h-2.621c-0.26,2.899-0.818,5.381-1.684,7.446c-0.863,2.066-1.961,3.753-3.29,5.064
		c-1.331,1.31-2.86,2.269-4.587,2.874c-1.729,0.606-3.586,0.908-5.57,0.908c-1.014,0-1.945-0.123-2.801-0.372
		c-0.854-0.248-1.623-0.67-2.307-1.266c-0.686-0.595-1.281-1.389-1.787-2.383c-0.508-0.992-0.935-2.243-1.281-3.752
		c-0.348-1.509-0.605-3.296-0.775-5.362c-0.168-2.065-0.253-4.457-0.253-7.178c0-2.601,0.114-4.825,0.343-6.672
		c0.229-1.847,0.536-3.4,0.924-4.661c0.387-1.261,0.849-2.259,1.385-2.994c0.535-0.734,1.111-1.295,1.728-1.683
		c0.615-0.387,1.255-0.635,1.921-0.744c0.666-0.109,1.336-0.164,2.01-0.164c1.41,0,2.904,0.253,4.482,0.76
		c1.58,0.506,3.1,1.38,4.559,2.621c1.459,1.241,2.8,2.904,4.021,4.989c1.222,2.085,2.188,4.706,2.903,7.863h2.324V44.097h-2.056
		l-3.663,5.481c-2.225-2.085-4.646-3.594-7.268-4.528c-2.621-0.933-5.461-1.399-8.518-1.399c-4.211,0-7.895,0.591-11.052,1.772
		c-3.157,1.181-5.794,2.81-7.907,4.885c-2.115,2.075-3.699,4.532-4.75,7.371c-1.054,2.84-1.58,5.908-1.58,9.204
		C144.916,70.021,145.513,72.89,146.703,75.491 M91.752,87.554h2.234l5.062-5.689c1.449,1.053,2.861,1.971,4.23,2.755
		c1.37,0.785,2.756,1.435,4.154,1.951c1.4,0.516,2.845,0.903,4.334,1.162c1.49,0.257,3.078,0.387,4.766,0.387
		c3.078,0,5.788-0.422,8.131-1.266c2.344-0.844,4.305-1.991,5.883-3.44c1.58-1.449,2.766-3.137,3.56-5.064
		c0.794-1.925,1.192-3.971,1.192-6.135c0-1.867-0.225-3.515-0.67-4.945c-0.447-1.429-1.078-2.7-1.893-3.812s-1.793-2.08-2.934-2.904
		c-1.143-0.824-2.412-1.559-3.812-2.204s-2.904-1.222-4.513-1.728s-3.276-0.988-5.003-1.445c-4.072-1.072-7.135-2.129-9.189-3.172
		c-2.055-1.042-3.082-2.129-3.082-3.261c0-0.695,0.248-1.236,0.744-1.623c0.496-0.388,1.088-0.671,1.772-0.849
		c0.685-0.179,1.385-0.283,2.099-0.313c0.717-0.03,1.301-0.045,1.758-0.045c2.402,0,4.676,0.288,6.821,0.864
		c2.144,0.576,4.101,1.36,5.868,2.353c1.768,0.993,3.335,2.165,4.706,3.515c1.37,1.35,2.491,2.81,3.364,4.378h1.877V44.067h-2.055
		l-4.498,4.348c-0.934-0.695-2.024-1.335-3.275-1.921c-1.252-0.585-2.582-1.087-3.992-1.504c-1.41-0.417-2.854-0.745-4.334-0.983
		c-1.479-0.238-2.895-0.357-4.244-0.357c-2.641,0-5.129,0.342-7.461,1.027c-2.333,0.685-4.368,1.678-6.105,2.979
		c-1.738,1.3-3.109,2.904-4.111,4.81c-1.002,1.906-1.504,4.081-1.504,6.523c0,3.912,1.404,7.223,4.215,9.933
		c2.811,2.711,7.134,4.821,12.971,6.33c2.621,0.695,4.9,1.32,6.836,1.876s3.54,1.107,4.811,1.653c1.27,0.547,2.22,1.112,2.845,1.698
		c0.626,0.586,0.938,1.256,0.938,2.01c0,0.715-0.244,1.286-0.73,1.713c-0.486,0.427-1.086,0.755-1.801,0.983
		c-0.715,0.229-1.48,0.377-2.295,0.447c-0.814,0.07-1.549,0.104-2.203,0.104c-2.244,0-4.309-0.233-6.195-0.7
		c-1.887-0.466-3.613-1.087-5.184-1.862c-1.568-0.774-2.988-1.672-4.258-2.695c-1.271-1.023-2.404-2.09-3.396-3.202
		c-0.994-1.112-1.855-2.229-2.592-3.351c-0.734-1.121-1.35-2.169-1.846-3.142h-1.996V87.554z M31.619,86.987h47.566V71.083h-2.055
		l-8.639,13.552H57.383V67.15h4.498l3.93,9.889h1.938V54.999h-1.938l-3.93,9.829h-4.498V47.105h10.068l8.279,12.182h2.025V44.781
		H31.619v2.324h5.211v37.529h-5.211V86.987z"/>
</g>
<line fill="none" stroke="#231F20" stroke-width="2" x1="23.479" y1="132" x2="536.479" y2="132"/>
<line fill="none" stroke="#231F20" stroke-width="2" x1="23.479" y1="616" x2="536.479" y2="616"/>
<line fill="none" stroke="#231F20" stroke-width="2" x1="23.479" y1="830" x2="536.479" y2="830"/>
<g>
	<defs>
		<rect id="SVGID_71_" width="564" height="1002"/>
	</defs>
	<clipPath id="SVGID_8_">
		<use xlink:href="#SVGID_71_"  overflow="visible"/>
	</clipPath>
	<path clip-path="url(#SVGID_8_)" fill="#FF1419" d="M443.438,781c11.916-13.619,22.982-24.116,32.629-31.493
		c11.065-8.512,20.995-14.186,29.508-17.022v-6.526c-11.916-5.107-22.131-11.065-30.358-18.725
		c-16.456-15.037-27.237-25.535-31.778-31.21h-19.575c4.54,9.646,9.362,18.441,14.186,26.386c3.972,5.959,8.228,11.633,13.62,17.307
		H315.956v17.308h135.995c-7.377,9.078-11.633,15.037-13.903,18.726c-5.958,9.646-10.782,18.158-13.618,25.251H443.438z"/>
</g>
</svg>
