<?xml version="1.0" encoding="utf-8"?>
<!-- Generator: Adobe Illustrator 16.0.0, SVG Export Plug-In . SVG Version: 6.00 Build 0)  -->
<!DOCTYPE svg PUBLIC "-//W3C//DTD SVG 1.1//EN" "http://www.w3.org/Graphics/SVG/1.1/DTD/svg11.dtd">
<svg version="1.1" id="Layer_1" xmlns="http://www.w3.org/2000/svg" xmlns:xlink="http://www.w3.org/1999/xlink" x="0px" y="0px"
	 width="564px" height="1002px" viewBox="0 0 564 1002" enable-background="new 0 0 564 1002" xml:space="preserve">
<g>
	<defs>
		<rect id="SVGID_153_" width="564" height="1002"/>
	</defs>
	<clipPath id="SVGID_2_">
		<use xlink:href="#SVGID_153_"  overflow="visible"/>
	</clipPath>
	<path clip-path="url(#SVGID_2_)" fill="#0046F9" d="M496.401,56.61c-4.96,0-9.227,0.747-12.8,2.239
		c-3.574,1.494-6.294,3.574-8.16,6.24c-1.867,2.668-2.8,5.734-2.8,9.2c0,3.681,0.96,6.628,2.88,8.84c1.92,2.214,4.333,3.88,7.24,5
		c2.906,1.12,6.493,2.08,10.76,2.88c3.146,0.588,5.426,1.174,6.84,1.76c1.413,0.588,2.12,1.388,2.12,2.4
		c0,2.348-2.427,3.52-7.28,3.52c-3.574,0-6.68-0.545-9.32-1.639c-2.64-1.094-5.026-2.894-7.16-5.4l-7.6,11.199
		c3.2,2.828,6.666,4.895,10.4,6.201c3.733,1.305,8.64,1.959,14.72,1.959c4.373,0,8.293-0.64,11.76-1.92
		c3.465-1.279,6.213-3.172,8.24-5.68c2.026-2.506,3.04-5.52,3.04-9.04c0-3.306-0.707-6.08-2.12-8.319
		c-1.414-2.24-3.654-4.094-6.72-5.561c-3.067-1.467-7.16-2.653-12.28-3.561c-3.094-0.586-5.307-1.146-6.64-1.68
		c-1.334-0.533-2-1.279-2-2.24c0-1.226,0.64-2.212,1.92-2.959c1.28-0.746,3.065-1.121,5.359-1.121c3.146,0,5.934,0.549,8.36,1.641
		c2.426,1.094,4.706,2.867,6.84,5.32l8-10.32c-3.36-3.253-6.867-5.561-10.52-6.92C505.827,57.29,501.467,56.61,496.401,56.61
		 M434.643,97.971v-8.4h20.96V78.21h-20.96v-8.56h26.24V57.41h-42.56v52.8h43.6V97.971H434.643z M402.563,57.41h-14.32v22.88
		l0.32,10.479h-0.08l-3.44-7.199l-14.4-26.16h-17.84v52.8h14.24V87.33l-0.32-10.48h0.159l3.36,7.201l14.4,26.159h17.92V57.41z
		 M312.645,69.09c3.252,0,5.666,1.2,7.24,3.6c1.572,2.4,2.36,6.108,2.36,11.121c0,5.014-0.788,8.72-2.36,11.119
		c-1.574,2.4-3.988,3.601-7.24,3.601c-3.254,0-5.68-1.213-7.28-3.64c-1.6-2.427-2.4-6.121-2.4-11.08c0-4.961,0.8-8.652,2.4-11.08
		C306.964,70.305,309.391,69.09,312.645,69.09 M312.645,56.61c-5.44,0-10.148,1.067-14.12,3.2c-3.974,2.134-7.028,5.254-9.16,9.359
		c-2.134,4.107-3.2,8.988-3.2,14.641c0,5.653,1.066,10.533,3.2,14.64c2.132,4.108,5.186,7.228,9.16,9.36
		c3.972,2.134,8.68,3.199,14.12,3.199c8.266,0,14.72-2.386,19.36-7.16c4.64-4.772,6.96-11.453,6.96-20.039s-2.32-15.267-6.96-20.041
		C327.364,58.997,320.91,56.61,312.645,56.61 M272.405,57.41h-16.32v52.8h16.32V57.41z M244.006,94.53l-14.56-3.92
		c-0.48,2.774-1.428,4.786-2.84,6.04c-1.414,1.254-3.454,1.88-6.12,1.88c-6.614,0-9.92-4.906-9.92-14.72
		c0-4.906,0.866-8.586,2.6-11.041c1.732-2.452,4.227-3.68,7.48-3.68c2.56,0,4.506,0.6,5.84,1.801c1.332,1.199,2.292,3.427,2.88,6.68
		l14.16-5.68c-1.174-5.121-3.868-8.946-8.08-11.48c-4.214-2.533-9.308-3.8-15.28-3.8c-5.439,0-10.134,1.079-14.08,3.239
		c-3.948,2.16-6.988,5.28-9.12,9.36c-2.134,4.08-3.2,8.948-3.2,14.601c0,5.653,1.065,10.533,3.2,14.64
		c2.132,4.108,5.186,7.228,9.16,9.36c3.973,2.134,8.681,3.199,14.121,3.199c6.132,0,11.266-1.332,15.4-4
		C239.778,104.344,242.566,100.184,244.006,94.53 M180.007,57.41h-16.319v52.8h16.319V57.41z M122.567,98.29h-5.92V69.33h5.92
		c3.84,0,6.56,1.16,8.16,3.48c1.6,2.319,2.4,5.987,2.4,11c0,5.014-0.8,8.68-2.4,11C129.127,97.13,126.407,98.29,122.567,98.29
		 M124.567,57.41h-24.24v52.8h24.24c8.213,0,14.493-2.28,18.84-6.84c4.346-4.56,6.52-11.08,6.52-19.56c0-8.48-2.174-15-6.52-19.561
		C139.061,59.689,132.78,57.41,124.567,57.41 M60.408,97.971v-8.4h20.96V78.21h-20.96v-8.56h26.24V57.41h-42.56v52.8h43.6V97.971
		H60.408z"/>
	<path clip-path="url(#SVGID_2_)" fill="#231F20" d="M272.887,652.739c0-0.533,0-1.189-0.164-1.723
		c-0.205-0.491-0.533-0.901-1.189-0.901c-0.532,0-0.86,0.41-1.024,0.901c-0.205,0.492-0.246,1.189-0.246,1.723
		c0,0.696,0.369,1.435,0.902,2.091c0.492,0.656,1.148,1.312,1.804,1.927c0.861,0.861,1.887,1.845,2.583,2.952
		c0.697,1.148,1.229,2.419,1.229,3.895c0,1.436-0.327,2.952-1.147,4.101c-0.861,1.188-2.173,2.05-4.141,2.05
		c-2.501,0-3.977-1.147-4.797-2.542c-0.82-1.394-0.984-3.116-0.984-4.305h3.854c0,0.615,0.041,1.476,0.328,2.132
		c0.287,0.697,0.738,1.271,1.599,1.271c1.189,0,1.435-1.394,1.435-2.706c0-1.353-1.312-2.705-2.583-3.977
		c-0.984-0.943-1.927-1.804-2.665-2.911c-0.738-1.106-1.271-2.337-1.271-3.977c0-1.312,0.246-2.829,1.025-4.019
		c0.779-1.147,2.05-2.009,4.018-2.05c2.42-0.041,3.772,0.861,4.47,2.05c0.696,1.189,0.82,2.747,0.82,4.019H272.887z
		 M257.102,655.732h2.993v-3.157c0-0.861-0.164-1.477-0.573-1.968c-0.206-0.205-0.534-0.328-0.903-0.328
		c-0.779,0-1.107,0.533-1.312,1.147c-0.123,0.328-0.164,0.697-0.205,1.148V655.732z M263.949,661.39v2.583
		c-0.124,2.174-0.779,3.69-2.255,4.879c-0.738,0.615-1.763,0.902-3.116,0.902c-2.665,0-4.019-1.476-4.674-2.952
		c-0.369-0.86-0.615-1.845-0.656-2.952v-11.274c0.123-2.173,0.82-3.772,2.296-5.002c0.697-0.615,1.722-0.902,3.075-0.902
		c2.665,0,4.018,1.477,4.674,2.911c0.369,0.861,0.614,1.804,0.656,2.87v6.519h-6.847v4.879c0.041,0.861,0.287,1.477,0.656,1.928
		c0.205,0.205,0.492,0.328,0.861,0.328c0.779,0,1.148-0.492,1.312-1.107c0.123-0.328,0.164-0.697,0.164-1.148v-2.46H263.949z
		 M243.9,669.426h-4.141v-22.427h4.141v1.886c0.082-0.041,0.247-0.205,0.492-0.451c0.451-0.45,1.066-1.065,1.804-1.476
		c0.369-0.205,0.697-0.287,1.066-0.287c1.107,0,1.886,0.656,2.378,1.477c0.492,0.86,0.738,1.968,0.738,2.91v18.368h-4.141v-17.753
		c0-0.86-0.492-0.983-0.984-0.983c-0.451,0-0.697,0.245-0.984,0.532c-0.123,0.164-0.247,0.328-0.369,0.533V669.426z
		 M233.035,652.575c0.041-0.861-0.123-1.477-0.533-1.968c-0.205-0.205-0.533-0.328-0.902-0.328c-0.779,0-1.107,0.533-1.271,1.147
		c-0.123,0.328-0.164,0.697-0.123,1.148v11.274c-0.041,0.861,0.164,1.477,0.533,1.928c0.205,0.205,0.493,0.328,0.861,0.328
		c0.779,0,1.148-0.492,1.312-1.107c0.123-0.328,0.163-0.697,0.123-1.148V652.575z M236.93,663.973
		c-0.123,2.174-0.779,3.69-2.214,4.879c-0.738,0.615-1.763,0.902-3.116,0.902c-2.665,0-3.977-1.476-4.633-2.952
		c-0.369-0.86-0.615-1.845-0.656-2.952v-11.274c0.123-2.173,0.779-3.772,2.213-5.002c0.697-0.615,1.723-0.902,3.075-0.902
		c2.665,0,4.018,1.477,4.674,2.911c0.369,0.861,0.615,1.804,0.656,2.87V663.973z M219.341,646.999h4.141v22.427h-4.141V646.999z
		 M219.341,639.291h4.141v4.141h-4.141V639.291z M210.322,664.26c0,0.82,0.041,1.805,1.148,1.805c0.943,0,1.189-0.451,1.189-1.805
		v-3.116h4.141v2.174c0,2.501-0.451,4.1-1.353,5.084c-0.902,0.983-2.214,1.353-3.977,1.353c-1.476,0-2.829-0.41-3.772-1.435
		c-0.943-1.025-1.517-2.706-1.517-5.207v-9.799c0-2.501,0.574-4.183,1.517-5.207c0.943-1.025,2.296-1.436,3.772-1.436
		c1.763,0,3.075,0.369,3.977,1.354c0.902,0.983,1.353,2.583,1.353,5.084v1.763h-4.141v-2.706c0-1.353-0.246-1.804-1.189-1.804
		c-1.107,0-1.148,0.983-1.148,1.804V664.26z M196.915,664.506c0,0.656,0.615,1.354,1.23,1.354c0.615,0,1.107-0.574,1.107-1.354
		v-12.587c0-0.779-0.492-1.353-1.107-1.353c-0.615,0-1.23,0.573-1.23,1.353V664.506z M192.774,646.999h4.141v1.476
		c0.697-0.655,1.312-1.147,2.132-1.517c0.369-0.205,0.778-0.287,1.148-0.287c1.148,0,1.927,0.656,2.46,1.477
		c0.493,0.86,0.738,1.968,0.738,2.91v14.31c0,0.942-0.246,2.05-0.738,2.87c-0.533,0.86-1.312,1.517-2.46,1.517
		c-0.779,0-1.599-0.451-2.213-0.902c-0.37-0.286-0.698-0.573-1.066-0.901v9.184h-4.141V646.999z M185.353,646.999h4.141v22.427
		h-4.141V646.999z M185.353,639.291h4.141v4.141h-4.141V639.291z M183.55,651.263c-0.369-0.123-0.778-0.164-1.148-0.164
		c-0.656,0-1.435,0.082-2.091,0.697c-0.78,0.656-0.902,1.354-0.902,2.05v15.58h-4.141v-22.427h4.141v2.501
		c0.041-0.287,0.328-0.984,0.984-1.64c0.656-0.615,1.64-1.189,3.157-1.189V651.263z M166.248,664.26c0,0.82,0.041,1.805,1.148,1.805
		c0.942,0,1.188-0.451,1.188-1.805v-3.116h4.141v2.174c0,2.501-0.451,4.1-1.353,5.084c-0.902,0.983-2.214,1.353-3.977,1.353
		c-1.477,0-2.83-0.41-3.772-1.435c-0.943-1.025-1.518-2.706-1.518-5.207v-9.799c0-2.501,0.574-4.183,1.518-5.207
		c0.942-1.025,2.296-1.436,3.772-1.436c1.762,0,3.074,0.369,3.977,1.354c0.901,0.983,1.353,2.583,1.353,5.084v1.763h-4.141v-2.706
		c0-1.353-0.246-1.804-1.188-1.804c-1.107,0-1.148,0.983-1.148,1.804V664.26z M156.08,652.739c0-0.533,0-1.189-0.164-1.723
		c-0.205-0.491-0.533-0.901-1.189-0.901c-0.533,0-0.862,0.41-1.026,0.901c-0.204,0.492-0.245,1.189-0.245,1.723
		c0,0.696,0.369,1.435,0.902,2.091c0.492,0.656,1.148,1.312,1.804,1.927c0.86,0.861,1.886,1.845,2.583,2.952
		c0.697,1.148,1.23,2.419,1.23,3.895c0,1.436-0.328,2.952-1.148,4.101c-0.861,1.188-2.173,2.05-4.141,2.05
		c-2.501,0-3.977-1.147-4.797-2.542c-0.82-1.394-0.984-3.116-0.984-4.305h3.854c0,0.615,0.041,1.476,0.328,2.132
		c0.287,0.697,0.738,1.271,1.599,1.271c1.189,0,1.435-1.394,1.435-2.706c0-1.353-1.312-2.705-2.583-3.977
		c-0.984-0.943-1.927-1.804-2.665-2.911c-0.738-1.106-1.271-2.337-1.271-3.977c0-1.312,0.246-2.829,1.025-4.019
		c0.779-1.147,2.05-2.009,4.018-2.05c2.419-0.041,3.772,0.861,4.469,2.05c0.697,1.189,0.82,2.747,0.82,4.019H156.08z
		 M140.336,669.426h-4.141v-22.427h4.141v1.886c0.082-0.041,0.246-0.205,0.492-0.451c0.451-0.45,1.066-1.065,1.804-1.476
		c0.369-0.205,0.697-0.287,1.066-0.287c1.107,0,1.886,0.656,2.377,1.477c0.493,0.86,0.739,1.968,0.739,2.91v18.368h-4.142v-17.753
		c0-0.86-0.492-0.983-0.983-0.983c-0.452,0-0.698,0.245-0.984,0.532c-0.123,0.164-0.246,0.328-0.369,0.533V669.426z
		 M129.348,658.602c-2.009,0.861-2.87,2.87-2.87,5.002c0,0.287,0.041,0.779,0.205,1.23c0.164,0.492,0.451,0.861,0.943,0.861
		c0.943,0,1.722-0.574,1.722-1.354V658.602z M129.348,652.329c0-0.369,0-0.943-0.123-1.354c-0.164-0.409-0.493-0.696-1.026-0.696
		c-0.696,0-0.983,0.533-1.106,1.188c-0.041,0.328-0.082,0.697-0.082,1.066v1.065h-4.141v-0.942c0-1.641,0.614-3.116,1.599-4.224
		c0.984-1.106,2.378-1.763,3.977-1.763c1.353,0,2.583,0.533,3.526,1.436c0.943,0.901,1.517,2.173,1.517,3.648v13.776
		c0,2.009,0.123,2.911,0.287,3.895h-4.059c-0.369-0.451-0.369-1.517-0.369-1.804h-0.287c-0.205,0.369-0.574,0.902-1.148,1.353
		c-0.574,0.451-1.354,0.779-2.174,0.779c-0.532,0-1.394-0.205-2.049-1.025c-0.697-0.778-1.271-2.173-1.271-4.51
		c0-2.501,0.738-4.305,1.722-5.535c0.984-1.229,2.214-2.009,3.239-2.542c1.025-0.532,1.804-0.901,1.968-1.353V652.329z
		 M121.599,651.263c-0.369-0.123-0.779-0.164-1.148-0.164c-0.656,0-1.435,0.082-2.091,0.697c-0.779,0.656-0.902,1.354-0.902,2.05
		v15.58h-4.142v-22.427h4.142v2.501c0.041-0.287,0.328-0.984,0.984-1.64c0.656-0.615,1.64-1.189,3.157-1.189V651.263z
		 M108.274,641.464v5.535h2.83v3.731h-2.83v11.151c0,0.697,0,1.6,0.165,2.337c0.164,0.738,0.491,1.354,1.147,1.354
		c0.328,0,0.738-0.041,1.025-0.082c0.164-0.041,0.328-0.041,0.492-0.082v4.059c-0.206,0.041-0.41,0.123-0.615,0.164
		c-0.41,0.082-0.943,0.123-1.599,0.123c-2.419,0-3.567-1.229-4.141-2.788c-0.574-1.558-0.615-3.443-0.615-4.756V650.73h-2.091
		v-3.731h2.091v-5.535H108.274z M90.604,652.739c0-0.533,0-1.189-0.164-1.723c-0.206-0.491-0.533-0.901-1.189-0.901
		c-0.533,0-0.861,0.41-1.025,0.901c-0.204,0.492-0.246,1.189-0.246,1.723c0,0.696,0.369,1.435,0.902,2.091
		c0.492,0.656,1.148,1.312,1.804,1.927c0.861,0.861,1.886,1.845,2.583,2.952c0.697,1.148,1.23,2.419,1.23,3.895
		c0,1.436-0.328,2.952-1.148,4.101c-0.862,1.188-2.173,2.05-4.141,2.05c-2.501,0-3.978-1.147-4.797-2.542
		c-0.82-1.394-0.984-3.116-0.984-4.305h3.854c0,0.615,0.041,1.476,0.328,2.132c0.287,0.697,0.738,1.271,1.599,1.271
		c1.188,0,1.435-1.394,1.435-2.706c0-1.353-1.312-2.705-2.583-3.977c-0.984-0.943-1.927-1.804-2.665-2.911
		c-0.739-1.106-1.271-2.337-1.271-3.977c0-1.312,0.246-2.829,1.024-4.019c0.779-1.147,2.05-2.009,4.019-2.05
		c2.419-0.041,3.771,0.861,4.469,2.05c0.697,1.189,0.82,2.747,0.82,4.019H90.604z M77.524,658.602
		c-2.009,0.861-2.87,2.87-2.87,5.002c0,0.287,0.041,0.779,0.205,1.23c0.164,0.492,0.451,0.861,0.943,0.861
		c0.943,0,1.722-0.574,1.722-1.354V658.602z M77.524,652.329c0-0.369,0-0.943-0.123-1.354c-0.164-0.409-0.493-0.696-1.025-0.696
		c-0.697,0-0.984,0.533-1.107,1.188c-0.041,0.328-0.082,0.697-0.082,1.066v1.065h-4.142v-0.942c0-1.641,0.615-3.116,1.6-4.224
		c0.983-1.106,2.377-1.763,3.977-1.763c1.353,0,2.583,0.533,3.525,1.436c0.943,0.901,1.518,2.173,1.518,3.648v13.776
		c0,2.009,0.123,2.911,0.287,3.895h-4.059c-0.37-0.451-0.37-1.517-0.37-1.804h-0.287c-0.205,0.369-0.574,0.902-1.148,1.353
		c-0.574,0.451-1.353,0.779-2.173,0.779c-0.533,0-1.395-0.205-2.05-1.025c-0.697-0.778-1.271-2.173-1.271-4.51
		c0-2.501,0.738-4.305,1.722-5.535c0.984-1.229,2.213-2.009,3.239-2.542c1.025-0.532,1.804-0.901,1.967-1.353V652.329z
		 M63.831,639.291h4.141v30.135h-4.141V639.291z M47.842,655.732h2.993v-3.157c0-0.861-0.164-1.477-0.574-1.968
		c-0.205-0.205-0.533-0.328-0.902-0.328c-0.778,0-1.106,0.533-1.312,1.147c-0.123,0.328-0.164,0.697-0.205,1.148V655.732z
		 M54.689,661.39v2.583c-0.124,2.174-0.78,3.69-2.256,4.879c-0.738,0.615-1.763,0.902-3.116,0.902c-2.665,0-4.018-1.476-4.674-2.952
		c-0.37-0.86-0.615-1.845-0.656-2.952v-11.274c0.123-2.173,0.82-3.772,2.295-5.002c0.698-0.615,1.723-0.902,3.075-0.902
		c2.666,0,4.019,1.477,4.674,2.911c0.369,0.861,0.615,1.804,0.657,2.87v6.519h-6.848v4.879c0.041,0.861,0.287,1.477,0.656,1.928
		c0.205,0.205,0.491,0.328,0.86,0.328c0.779,0,1.148-0.492,1.312-1.107c0.123-0.328,0.164-0.697,0.164-1.148v-2.46H54.689z
		 M36.895,651.919c0-0.656-0.615-1.353-1.23-1.353c-0.615,0-1.107,0.573-1.107,1.353v12.587c0,0.779,0.492,1.354,1.107,1.354
		c0.615,0,1.23-0.574,1.23-1.354V651.919z M41.036,669.426h-4.141v-1.476c-0.697,0.656-1.312,1.147-2.091,1.517
		c-0.41,0.205-0.82,0.287-1.189,0.287c-1.148,0-1.926-0.656-2.419-1.517c-0.533-0.82-0.779-1.928-0.779-2.87v-14.31
		c0-0.942,0.246-2.05,0.779-2.91c0.493-0.82,1.271-1.477,2.419-1.477c0.779,0,1.599,0.451,2.214,0.902
		c0.369,0.287,0.697,0.574,1.066,0.901v-9.184h4.141V669.426z"/>
	<path clip-path="url(#SVGID_2_)" fill="#231F20" d="M526.88,618.426h-4.141v-22.427h4.141v1.886
		c0.082-0.041,0.246-0.205,0.492-0.451c0.451-0.451,1.066-1.065,1.804-1.476c0.369-0.205,0.697-0.287,1.065-0.287
		c1.107,0,1.887,0.656,2.379,1.476c0.492,0.861,0.738,1.969,0.738,2.912v18.367h-4.141v-17.753c0-0.86-0.492-0.983-0.984-0.983
		c-0.451,0-0.696,0.246-0.983,0.533c-0.123,0.163-0.246,0.327-0.369,0.532V618.426z M516.015,601.575
		c0.041-0.861-0.123-1.476-0.533-1.968c-0.206-0.205-0.533-0.328-0.902-0.328c-0.779,0-1.107,0.533-1.271,1.147
		c-0.123,0.328-0.164,0.697-0.123,1.148v11.274c-0.041,0.861,0.164,1.477,0.533,1.928c0.205,0.205,0.492,0.328,0.861,0.328
		c0.778,0,1.148-0.492,1.312-1.107c0.123-0.328,0.164-0.697,0.123-1.148V601.575z M519.909,612.973
		c-0.122,2.174-0.778,3.69-2.213,4.879c-0.738,0.615-1.763,0.902-3.116,0.902c-2.665,0-3.977-1.476-4.633-2.952
		c-0.369-0.86-0.615-1.845-0.656-2.952v-11.274c0.123-2.173,0.779-3.772,2.214-5.002c0.696-0.615,1.722-0.902,3.075-0.902
		c2.665,0,4.018,1.476,4.674,2.911c0.369,0.861,0.615,1.804,0.655,2.87V612.973z M519.664,588.619l-3.239,3.689h-3.198l2.131-3.689
		H519.664z M502.321,595.999h4.141v22.427h-4.141V595.999z M502.321,588.291h4.141v4.141h-4.141V588.291z M493.301,613.26
		c0,0.82,0.041,1.805,1.148,1.805c0.943,0,1.189-0.451,1.189-1.805v-3.116h4.141v2.174c0,2.501-0.451,4.1-1.353,5.084
		c-0.902,0.983-2.214,1.353-3.977,1.353c-1.476,0-2.829-0.41-3.772-1.435c-0.943-1.025-1.518-2.706-1.518-5.207v-9.8
		c0-2.5,0.575-4.182,1.518-5.207c0.943-1.024,2.296-1.435,3.772-1.435c1.763,0,3.075,0.369,3.977,1.353
		c0.902,0.984,1.353,2.584,1.353,5.085v1.763h-4.141v-2.706c0-1.353-0.246-1.804-1.189-1.804c-1.107,0-1.148,0.984-1.148,1.804
		V613.26z M482.518,607.602c-2.009,0.861-2.87,2.87-2.87,5.002c0,0.287,0.042,0.779,0.205,1.23c0.164,0.492,0.451,0.861,0.943,0.861
		c0.943,0,1.722-0.574,1.722-1.354V607.602z M482.518,601.329c0-0.369,0-0.943-0.123-1.353c-0.164-0.41-0.492-0.697-1.025-0.697
		c-0.697,0-0.984,0.533-1.107,1.188c-0.041,0.328-0.082,0.697-0.082,1.066v1.065h-4.141v-0.942c0-1.64,0.615-3.116,1.599-4.224
		c0.984-1.106,2.378-1.763,3.977-1.763c1.354,0,2.583,0.533,3.526,1.435c0.943,0.902,1.517,2.174,1.517,3.649v13.776
		c0,2.009,0.123,2.911,0.287,3.895h-4.059c-0.369-0.451-0.369-1.517-0.369-1.804h-0.286c-0.206,0.369-0.575,0.902-1.148,1.353
		c-0.574,0.451-1.353,0.779-2.174,0.779c-0.532,0-1.394-0.205-2.049-1.025c-0.697-0.778-1.271-2.173-1.271-4.51
		c0-2.501,0.738-4.305,1.722-5.535c0.984-1.229,2.213-2.009,3.239-2.542c1.025-0.532,1.805-0.901,1.968-1.353V601.329z
		 M474.77,600.264c-0.37-0.123-0.779-0.164-1.148-0.164c-0.656,0-1.435,0.082-2.091,0.696c-0.779,0.656-0.902,1.354-0.902,2.05
		v15.58h-4.141v-22.427h4.141v2.501c0.04-0.287,0.328-0.984,0.984-1.641c0.655-0.614,1.639-1.188,3.157-1.188V600.264z
		 M459.64,607.602c-2.009,0.861-2.87,2.87-2.87,5.002c0,0.287,0.041,0.779,0.205,1.23c0.164,0.492,0.451,0.861,0.943,0.861
		c0.943,0,1.722-0.574,1.722-1.354V607.602z M459.64,601.329c0-0.369,0-0.943-0.123-1.353c-0.164-0.41-0.493-0.697-1.026-0.697
		c-0.696,0-0.983,0.533-1.106,1.188c-0.041,0.328-0.082,0.697-0.082,1.066v1.065h-4.141v-0.942c0-1.64,0.614-3.116,1.599-4.224
		c0.984-1.106,2.378-1.763,3.977-1.763c1.353,0,2.583,0.533,3.526,1.435c0.943,0.902,1.517,2.174,1.517,3.649v13.776
		c0,2.009,0.123,2.911,0.287,3.895h-4.059c-0.369-0.451-0.369-1.517-0.369-1.804h-0.287c-0.205,0.369-0.574,0.902-1.148,1.353
		c-0.574,0.451-1.354,0.779-2.174,0.779c-0.532,0-1.394-0.205-2.049-1.025c-0.697-0.778-1.271-2.173-1.271-4.51
		c0-2.501,0.738-4.305,1.722-5.535c0.984-1.229,2.214-2.009,3.239-2.542c1.025-0.532,1.804-0.901,1.968-1.353V601.329z
		 M444.019,613.506c0,0.656,0.615,1.354,1.23,1.354c0.615,0,1.107-0.574,1.107-1.354v-12.587c0-0.778-0.493-1.353-1.107-1.353
		c-0.615,0-1.23,0.574-1.23,1.353V613.506z M439.878,595.999h4.141v1.476c0.697-0.656,1.312-1.147,2.131-1.517
		c0.37-0.205,0.779-0.287,1.148-0.287c1.148,0,1.927,0.656,2.46,1.476c0.492,0.861,0.738,1.969,0.738,2.912v14.309
		c0,0.942-0.246,2.05-0.738,2.87c-0.533,0.86-1.312,1.517-2.46,1.517c-0.779,0-1.6-0.451-2.214-0.902
		c-0.369-0.286-0.697-0.573-1.066-0.901v9.184h-4.141V595.999z M430.121,618.426h-3.896v-17.753c0-0.86-0.656-0.983-1.106-0.983
		c-0.451,0-0.82,0.246-1.107,0.533c-0.164,0.163-0.328,0.327-0.451,0.532v17.671h-4.141v-22.427h4.141v1.886
		c0.082-0.041,0.246-0.205,0.492-0.451c0.451-0.451,1.148-1.065,1.887-1.476c0.368-0.205,0.696-0.287,1.065-0.287
		c1.477,0,2.337,1.188,2.788,2.501c0.164-0.123,0.369-0.328,0.656-0.615c0.533-0.574,1.23-1.106,2.009-1.558
		c0.369-0.205,0.738-0.328,1.106-0.328c1.107,0,1.886,0.656,2.378,1.476c0.493,0.861,0.738,1.969,0.738,2.912v18.367h-3.895v-17.753
		c0-0.86-0.656-0.983-1.107-0.983c-0.451,0-0.82,0.246-1.107,0.533c-0.165,0.163-0.328,0.327-0.451,0.532V618.426z M412.696,601.575
		c0.041-0.861-0.123-1.476-0.533-1.968c-0.205-0.205-0.533-0.328-0.902-0.328c-0.779,0-1.107,0.533-1.271,1.147
		c-0.123,0.328-0.164,0.697-0.123,1.148v11.274c-0.042,0.861,0.164,1.477,0.533,1.928c0.206,0.205,0.492,0.328,0.861,0.328
		c0.779,0,1.148-0.492,1.312-1.107c0.123-0.328,0.164-0.697,0.123-1.148V601.575z M416.591,612.973
		c-0.123,2.174-0.778,3.69-2.214,4.879c-0.738,0.615-1.763,0.902-3.116,0.902c-2.665,0-3.978-1.476-4.633-2.952
		c-0.369-0.86-0.615-1.845-0.656-2.952v-11.274c0.123-2.173,0.779-3.772,2.214-5.002c0.697-0.615,1.721-0.902,3.075-0.902
		c2.665,0,4.018,1.476,4.674,2.911c0.369,0.861,0.615,1.804,0.656,2.87V612.973z M397.239,613.26c0,0.82,0.041,1.805,1.148,1.805
		c0.943,0,1.188-0.451,1.188-1.805v-3.116h4.142v2.174c0,2.501-0.451,4.1-1.353,5.084c-0.902,0.983-2.214,1.353-3.977,1.353
		c-1.476,0-2.829-0.41-3.772-1.435c-0.943-1.025-1.517-2.706-1.517-5.207v-9.8c0-2.5,0.574-4.182,1.517-5.207
		c0.943-1.024,2.296-1.435,3.772-1.435c1.763,0,3.075,0.369,3.977,1.353c0.902,0.984,1.353,2.584,1.353,5.085v1.763h-4.142v-2.706
		c0-1.353-0.245-1.804-1.188-1.804c-1.107,0-1.148,0.984-1.148,1.804V613.26z M373.419,622.69c0.041,0.041,0.123,0.041,0.246,0.041
		c0.205,0.041,1.23,0.122,1.886-0.369c0.656-0.492,1.106-1.189,1.353-2.05c0.123-0.41,0.164-0.82,0.164-1.23l-3.813-23.083h4.06
		l1.64,13.776l0.082,1.147h0.163l0.082-1.147l1.641-13.776h4.06l-3.978,24.108c-0.205,1.599-0.82,3.156-1.805,4.346
		c-0.983,1.188-2.295,2.009-3.936,2.009h-0.491c-0.37,0-0.861-0.041-1.354-0.082V622.69z M361.734,601.739
		c0-0.533,0-1.189-0.164-1.722c-0.205-0.492-0.533-0.902-1.189-0.902c-0.533,0-0.861,0.41-1.024,0.902
		c-0.206,0.491-0.247,1.188-0.247,1.722c0,0.696,0.37,1.435,0.902,2.091c0.492,0.656,1.147,1.312,1.804,1.927
		c0.861,0.861,1.885,1.845,2.583,2.952c0.697,1.148,1.23,2.419,1.23,3.895c0,1.436-0.328,2.952-1.147,4.101
		c-0.861,1.188-2.174,2.05-4.142,2.05c-2.501,0-3.977-1.147-4.797-2.542c-0.82-1.394-0.984-3.116-0.984-4.305h3.854
		c0,0.615,0.041,1.476,0.328,2.132c0.287,0.697,0.739,1.271,1.599,1.271c1.189,0,1.435-1.394,1.435-2.706
		c0-1.353-1.312-2.705-2.583-3.977c-0.984-0.943-1.927-1.804-2.666-2.911c-0.737-1.106-1.271-2.337-1.271-3.977
		c0-1.312,0.246-2.829,1.025-4.019c0.779-1.147,2.05-2.009,4.018-2.05c2.419-0.041,3.772,0.861,4.469,2.05
		c0.697,1.189,0.82,2.747,0.82,4.019H361.734z M345.949,604.732h2.993v-3.157c0-0.861-0.164-1.476-0.575-1.968
		c-0.204-0.205-0.532-0.328-0.901-0.328c-0.779,0-1.107,0.533-1.312,1.147c-0.123,0.328-0.165,0.697-0.205,1.148V604.732z
		 M352.796,610.39v2.583c-0.123,2.174-0.779,3.69-2.255,4.879c-0.738,0.615-1.763,0.902-3.116,0.902
		c-2.665,0-4.018-1.476-4.674-2.952c-0.369-0.86-0.615-1.845-0.656-2.952v-11.274c0.123-2.173,0.82-3.772,2.296-5.002
		c0.697-0.615,1.722-0.902,3.075-0.902c2.665,0,4.018,1.476,4.674,2.911c0.369,0.861,0.615,1.804,0.656,2.87v6.519h-6.847v4.879
		c0.041,0.861,0.287,1.477,0.657,1.928c0.204,0.205,0.491,0.328,0.86,0.328c0.779,0,1.148-0.492,1.312-1.107
		c0.123-0.328,0.164-0.697,0.164-1.148v-2.46H352.796z M335.084,588.291h4.141v30.135h-4.141V588.291z M328.237,607.602
		c-2.009,0.861-2.87,2.87-2.87,5.002c0,0.287,0.041,0.779,0.205,1.23c0.164,0.492,0.451,0.861,0.943,0.861
		c0.943,0,1.722-0.574,1.722-1.354V607.602z M328.237,601.329c0-0.369,0-0.943-0.123-1.353c-0.165-0.41-0.492-0.697-1.025-0.697
		c-0.697,0-0.983,0.533-1.107,1.188c-0.042,0.328-0.082,0.697-0.082,1.066v1.065h-4.141v-0.942c0-1.64,0.615-3.116,1.599-4.224
		c0.984-1.106,2.378-1.763,3.977-1.763c1.354,0,2.583,0.533,3.526,1.435c0.943,0.902,1.517,2.174,1.517,3.649v13.776
		c0,2.009,0.123,2.911,0.287,3.895h-4.059c-0.37-0.451-0.37-1.517-0.37-1.804h-0.288c-0.204,0.369-0.573,0.902-1.147,1.353
		c-0.574,0.451-1.353,0.779-2.173,0.779c-0.533,0-1.395-0.205-2.05-1.025c-0.697-0.778-1.271-2.173-1.271-4.51
		c0-2.501,0.738-4.305,1.722-5.535c0.984-1.229,2.214-2.009,3.239-2.542c1.025-0.532,1.804-0.901,1.968-1.353V601.329z
		 M312.533,618.426h-4.14v-22.427h4.14v1.886c0.082-0.041,0.247-0.205,0.493-0.451c0.451-0.451,1.066-1.065,1.804-1.476
		c0.369-0.205,0.696-0.287,1.066-0.287c1.106,0,1.885,0.656,2.377,1.476c0.492,0.861,0.738,1.969,0.738,2.912v18.367h-4.141v-17.753
		c0-0.86-0.492-0.983-0.984-0.983c-0.451,0-0.697,0.246-0.984,0.533c-0.123,0.163-0.246,0.327-0.37,0.532V618.426z M300.972,595.999
		h4.141v22.427h-4.141V595.999z M300.972,588.291h4.141v4.141h-4.141V588.291z M291.092,619.451
		c-0.86,0.492-1.517,1.106-1.517,1.968s0.778,1.558,2.705,1.558c0.697,0,1.477-0.123,2.092-0.368
		c0.615-0.246,1.065-0.615,1.065-1.148c0-0.369-0.041-0.656-0.329-0.943c-0.328-0.286-0.86-0.491-1.886-0.655L291.092,619.451z
		 M293.019,601.534c0-0.779-0.164-1.271-0.493-1.722c-0.165-0.205-0.411-0.328-0.778-0.328c-0.656,0-0.985,0.533-1.108,1.024
		c-0.082,0.287-0.123,0.656-0.082,1.025v6.149c-0.041,0.779,0.082,1.271,0.452,1.682c0.164,0.205,0.41,0.328,0.738,0.328
		c0.696,0,0.983-0.492,1.147-0.984c0.082-0.287,0.124-0.656,0.124-1.025V601.534z M297.078,607.602
		c-0.123,2.092-0.862,3.567-2.297,4.675c-0.738,0.573-1.762,0.86-3.033,0.86h-0.37c-0.122,0-0.286,0-0.41-0.041
		c-0.369,0.328-0.573,0.656-0.573,1.025c0,0.492,0.409,0.779,1.025,0.943c0.613,0.204,1.353,0.327,2.131,0.45
		c1.313,0.164,2.707,0.492,3.855,1.271c1.107,0.779,1.885,1.968,1.885,3.936c0,2.173-0.942,3.649-2.255,4.511
		c-1.353,0.86-3.157,1.229-4.838,1.229c-1.966-0.041-3.648-0.328-4.796-0.984c-1.189-0.655-1.846-1.722-1.846-3.361
		c0-0.779,0.411-1.436,1.025-2.009c0.615-0.574,1.435-1.025,2.214-1.395c-1.353-0.369-2.5-1.229-2.5-2.993
		c0-0.655,0.368-1.312,0.86-1.927c0.493-0.615,1.107-1.107,1.722-1.435c-1.188-0.779-1.763-2.01-2.05-3.034
		c-0.164-0.615-0.286-1.23-0.328-1.846v-6.108c0.164-2.091,0.82-3.608,2.255-4.797c0.697-0.615,1.723-0.902,2.994-0.902
		c2.091,0,3.36,0.943,4.14,2.05c0.287-0.287,0.779-0.779,1.435-1.229c0.616-0.451,1.312-0.82,1.968-0.82v3.69
		c-1.106,0-1.927,0.205-2.419,0.492c0.042,0.205,0.083,0.41,0.123,0.532c0,0.164,0,0.328,0.041,0.451
		c0.042,0.123,0.042,0.287,0.042,0.41V607.602z M279.529,595.999h4.141v22.427h-4.141V595.999z M279.529,588.291h4.141v4.141h-4.141
		V588.291z M277.726,600.264c-0.369-0.123-0.779-0.164-1.147-0.164c-0.656,0-1.435,0.082-2.091,0.696
		c-0.779,0.656-0.902,1.354-0.902,2.05v15.58h-4.141v-22.427h4.141v2.501c0.041-0.287,0.328-0.984,0.984-1.641
		c0.656-0.614,1.64-1.188,3.157-1.188V600.264z M262.72,601.575c0.041-0.861-0.123-1.476-0.533-1.968
		c-0.205-0.205-0.533-0.328-0.902-0.328c-0.779,0-1.107,0.533-1.271,1.147c-0.123,0.328-0.164,0.697-0.123,1.148v11.274
		c-0.042,0.861,0.164,1.477,0.533,1.928c0.205,0.205,0.492,0.328,0.861,0.328c0.78,0,1.148-0.492,1.312-1.107
		c0.123-0.328,0.164-0.697,0.123-1.148V601.575z M266.615,612.973c-0.124,2.174-0.779,3.69-2.214,4.879
		c-0.737,0.615-1.763,0.902-3.116,0.902c-2.665,0-3.977-1.476-4.633-2.952c-0.369-0.86-0.615-1.845-0.656-2.952v-11.274
		c0.123-2.173,0.778-3.772,2.214-5.002c0.697-0.615,1.722-0.902,3.075-0.902c2.665,0,4.018,1.476,4.674,2.911
		c0.369,0.861,0.614,1.804,0.656,2.87V612.973z M243.696,601.739c0-0.533,0-1.189-0.165-1.722c-0.204-0.492-0.532-0.902-1.188-0.902
		c-0.533,0-0.861,0.41-1.025,0.902c-0.205,0.491-0.246,1.188-0.246,1.722c0,0.696,0.369,1.435,0.902,2.091
		c0.492,0.656,1.148,1.312,1.804,1.927c0.861,0.861,1.886,1.845,2.583,2.952c0.697,1.148,1.23,2.419,1.23,3.895
		c0,1.436-0.328,2.952-1.148,4.101c-0.86,1.188-2.172,2.05-4.141,2.05c-2.501,0-3.977-1.147-4.797-2.542
		c-0.82-1.394-0.983-3.116-0.983-4.305h3.854c0,0.615,0.041,1.476,0.328,2.132c0.286,0.697,0.737,1.271,1.599,1.271
		c1.189,0,1.435-1.394,1.435-2.706c0-1.353-1.312-2.705-2.583-3.977c-0.984-0.943-1.927-1.804-2.665-2.911
		c-0.738-1.106-1.271-2.337-1.271-3.977c0-1.312,0.246-2.829,1.025-4.019c0.78-1.147,2.05-2.009,4.018-2.05
		c2.419-0.041,3.772,0.861,4.469,2.05c0.697,1.189,0.82,2.747,0.82,4.019H243.696z M230.781,601.575
		c0.041-0.861-0.124-1.476-0.533-1.968c-0.205-0.205-0.533-0.328-0.902-0.328c-0.779,0-1.107,0.533-1.271,1.147
		c-0.123,0.328-0.164,0.697-0.123,1.148v11.274c-0.041,0.861,0.163,1.477,0.532,1.928c0.206,0.205,0.493,0.328,0.861,0.328
		c0.779,0,1.148-0.492,1.312-1.107c0.124-0.328,0.165-0.697,0.124-1.148V601.575z M234.676,612.973
		c-0.123,2.174-0.778,3.69-2.214,4.879c-0.738,0.615-1.763,0.902-3.116,0.902c-2.665,0-3.977-1.476-4.633-2.952
		c-0.369-0.86-0.615-1.845-0.656-2.952v-11.274c0.123-2.173,0.779-3.772,2.214-5.002c0.696-0.615,1.721-0.902,3.074-0.902
		c2.665,0,4.018,1.476,4.674,2.911c0.369,0.861,0.615,1.804,0.656,2.87V612.973z M217.087,588.291h4.141v30.135h-4.141V588.291z
		 M201.098,604.732h2.993v-3.157c0-0.861-0.164-1.476-0.574-1.968c-0.205-0.205-0.533-0.328-0.902-0.328
		c-0.779,0-1.107,0.533-1.312,1.147c-0.123,0.328-0.164,0.697-0.205,1.148V604.732z M207.945,610.39v2.583
		c-0.123,2.174-0.779,3.69-2.255,4.879c-0.738,0.615-1.763,0.902-3.117,0.902c-2.665,0-4.018-1.476-4.673-2.952
		c-0.369-0.86-0.615-1.845-0.656-2.952v-11.274c0.123-2.173,0.82-3.772,2.296-5.002c0.697-0.615,1.722-0.902,3.075-0.902
		c2.665,0,4.018,1.476,4.674,2.911c0.368,0.861,0.615,1.804,0.656,2.87v6.519h-6.847v4.879c0.041,0.861,0.287,1.477,0.656,1.928
		c0.205,0.205,0.492,0.328,0.861,0.328c0.779,0,1.148-0.492,1.312-1.107c0.123-0.328,0.164-0.697,0.164-1.148v-2.46H207.945z
		 M190.15,600.919c0-0.655-0.614-1.353-1.229-1.353s-1.106,0.574-1.106,1.353v12.587c0,0.779,0.491,1.354,1.106,1.354
		s1.229-0.574,1.229-1.354V600.919z M194.292,618.426h-4.142v-1.476c-0.696,0.656-1.312,1.147-2.091,1.517
		c-0.41,0.205-0.82,0.287-1.188,0.287c-1.148,0-1.927-0.656-2.419-1.517c-0.533-0.82-0.779-1.928-0.779-2.87v-14.309
		c0-0.943,0.246-2.051,0.779-2.912c0.492-0.819,1.271-1.476,2.419-1.476c0.779,0,1.599,0.451,2.214,0.902
		c0.369,0.286,0.696,0.573,1.065,0.901v-9.184h4.142V618.426z M167.848,618.426h-4.141v-22.427h4.141v1.886
		c0.082-0.041,0.246-0.205,0.492-0.451c0.451-0.451,1.066-1.065,1.804-1.476c0.369-0.205,0.697-0.287,1.066-0.287
		c1.106,0,1.886,0.656,2.378,1.476c0.492,0.861,0.737,1.969,0.737,2.912v18.367h-4.14v-17.753c0-0.86-0.493-0.983-0.984-0.983
		c-0.451,0-0.697,0.246-0.984,0.533c-0.123,0.163-0.246,0.327-0.369,0.532V618.426z M156.982,601.575
		c0.042-0.861-0.123-1.476-0.533-1.968c-0.204-0.205-0.532-0.328-0.901-0.328c-0.779,0-1.107,0.533-1.271,1.147
		c-0.123,0.328-0.164,0.697-0.123,1.148v11.274c-0.041,0.861,0.164,1.477,0.533,1.928c0.205,0.205,0.492,0.328,0.861,0.328
		c0.779,0,1.148-0.492,1.312-1.107c0.123-0.328,0.164-0.697,0.123-1.148V601.575z M160.878,612.973
		c-0.123,2.174-0.779,3.69-2.214,4.879c-0.738,0.615-1.764,0.902-3.116,0.902c-2.665,0-3.977-1.476-4.633-2.952
		c-0.369-0.86-0.615-1.845-0.656-2.952v-11.274c0.123-2.173,0.779-3.772,2.214-5.002c0.697-0.615,1.722-0.902,3.075-0.902
		c2.665,0,4.018,1.476,4.674,2.911c0.369,0.861,0.615,1.804,0.656,2.87V612.973z M160.632,588.619l-3.239,3.689h-3.198l2.132-3.689
		H160.632z M143.289,595.999h4.141v22.427h-4.141V595.999z M143.289,588.291h4.141v4.141h-4.141V588.291z M134.27,613.26
		c0,0.82,0.041,1.805,1.148,1.805c0.943,0,1.188-0.451,1.188-1.805v-3.116h4.142v2.174c0,2.501-0.451,4.1-1.353,5.084
		c-0.902,0.983-2.214,1.353-3.977,1.353c-1.476,0-2.829-0.41-3.771-1.435c-0.943-1.025-1.518-2.706-1.518-5.207v-9.8
		c0-2.5,0.574-4.182,1.518-5.207c0.942-1.024,2.295-1.435,3.771-1.435c1.763,0,3.075,0.369,3.977,1.353
		c0.902,0.984,1.353,2.584,1.353,5.085v1.763h-4.142v-2.706c0-1.353-0.246-1.804-1.188-1.804c-1.107,0-1.148,0.984-1.148,1.804
		V613.26z M123.487,607.602c-2.009,0.861-2.87,2.87-2.87,5.002c0,0.287,0.041,0.779,0.205,1.23c0.164,0.492,0.451,0.861,0.943,0.861
		c0.943,0,1.722-0.574,1.722-1.354V607.602z M123.487,601.329c0-0.369,0-0.943-0.123-1.353c-0.165-0.41-0.492-0.697-1.025-0.697
		c-0.697,0-0.983,0.533-1.107,1.188c-0.042,0.328-0.082,0.697-0.082,1.066v1.065h-4.141v-0.942c0-1.64,0.615-3.116,1.599-4.224
		c0.984-1.106,2.378-1.763,3.977-1.763c1.354,0,2.583,0.533,3.526,1.435c0.943,0.902,1.517,2.174,1.517,3.649v13.776
		c0,2.009,0.123,2.911,0.287,3.895h-4.059c-0.37-0.451-0.37-1.517-0.37-1.804h-0.288c-0.204,0.369-0.573,0.902-1.147,1.353
		c-0.574,0.451-1.353,0.779-2.173,0.779c-0.533,0-1.395-0.205-2.05-1.025c-0.697-0.778-1.271-2.173-1.271-4.51
		c0-2.501,0.738-4.305,1.722-5.535c0.984-1.229,2.214-2.009,3.239-2.542c1.025-0.532,1.804-0.901,1.968-1.353V601.329z
		 M105.159,615.064l5.699-15.293h-4.796v-3.772h9.184v3.362l-5.699,15.293h5.699v3.771h-10.087V615.064z M99.133,595.999h4.141
		v22.427h-4.141V595.999z M99.133,588.291h4.141v4.141h-4.141V588.291z M91.712,588.291h4.141v30.135h-4.141V588.291z
		 M84.865,607.602c-2.008,0.861-2.87,2.87-2.87,5.002c0,0.287,0.041,0.779,0.204,1.23c0.165,0.492,0.451,0.861,0.944,0.861
		c0.943,0,1.722-0.574,1.722-1.354V607.602z M84.865,601.329c0-0.369,0-0.943-0.124-1.353c-0.163-0.41-0.491-0.697-1.024-0.697
		c-0.697,0-0.984,0.533-1.107,1.188c-0.041,0.328-0.082,0.697-0.082,1.066v1.065h-4.141v-0.942c0-1.64,0.615-3.116,1.599-4.224
		c0.984-1.106,2.378-1.763,3.977-1.763c1.353,0,2.583,0.533,3.526,1.435c0.943,0.902,1.517,2.174,1.517,3.649v13.776
		c0,2.009,0.123,2.911,0.287,3.895h-4.059c-0.369-0.451-0.369-1.517-0.369-1.804h-0.287c-0.205,0.369-0.574,0.902-1.148,1.353
		c-0.573,0.451-1.353,0.779-2.173,0.779c-0.533,0-1.394-0.205-2.05-1.025c-0.697-0.778-1.271-2.173-1.271-4.51
		c0-2.501,0.738-4.305,1.721-5.535c0.984-1.229,2.215-2.009,3.24-2.542c1.024-0.532,1.803-0.901,1.967-1.353V601.329z
		 M71.171,595.999h4.141v22.427h-4.141v-1.886c-0.082,0.041-0.246,0.205-0.451,0.41c-0.492,0.492-1.066,1.065-1.804,1.476
		c-0.369,0.205-0.738,0.328-1.107,0.328c-1.108,0-1.886-0.656-2.378-1.517c-0.491-0.82-0.738-1.928-0.738-2.87v-18.368h4.142v17.753
		c0,0.861,0.491,0.984,0.984,0.984c0.451,0,0.697-0.246,0.984-0.533c0.123-0.123,0.246-0.328,0.369-0.533V595.999z M58.42,601.739
		c0-0.533,0-1.189-0.164-1.722c-0.205-0.492-0.533-0.902-1.189-0.902c-0.533,0-0.86,0.41-1.024,0.902
		c-0.205,0.491-0.246,1.188-0.246,1.722c0,0.696,0.369,1.435,0.902,2.091c0.492,0.656,1.148,1.312,1.804,1.927
		c0.861,0.861,1.886,1.845,2.583,2.952c0.696,1.148,1.229,2.419,1.229,3.895c0,1.436-0.328,2.952-1.147,4.101
		c-0.861,1.188-2.173,2.05-4.141,2.05c-2.501,0-3.977-1.147-4.797-2.542c-0.82-1.394-0.984-3.116-0.984-4.305h3.854
		c0,0.615,0.041,1.476,0.328,2.132c0.287,0.697,0.738,1.271,1.599,1.271c1.189,0,1.435-1.394,1.435-2.706
		c0-1.353-1.312-2.705-2.583-3.977c-0.984-0.943-1.927-1.804-2.665-2.911c-0.738-1.106-1.271-2.337-1.271-3.977
		c0-1.312,0.247-2.829,1.025-4.019c0.779-1.147,2.05-2.009,4.018-2.05c2.419-0.041,3.772,0.861,4.47,2.05
		c0.696,1.189,0.82,2.747,0.82,4.019H58.42z M44.931,595.999h4.141v22.427h-4.141V595.999z M44.931,588.291h4.141v4.141h-4.141
		V588.291z M38.617,588.291h4.305l-4.592,30.135h-4.428l-4.592-30.135h4.305l2.214,16.564l0.164,1.271h0.246l0.164-1.271
		L38.617,588.291z"/>
	<path clip-path="url(#SVGID_2_)" fill="#231F20" d="M147.313,907.167v-40.605h44.977v-24.956h-44.977v-37.504h25.379
		c3.853,0,7.072,0.352,9.657,1.057c2.584,0.705,4.654,1.952,6.205,3.736c1.551,1.787,2.608,4.279,3.171,7.473
		c0.564,3.197,0.847,7.285,0.847,12.267h49.348v-76.842H41.004v52.31c8.27,0,14.192,1.104,17.765,3.312
		c3.571,2.21,5.358,6.415,5.358,12.619v71.343c0,6.111-1.787,10.271-5.358,12.479c-3.573,2.209-9.495,3.312-17.765,3.312v52.31
		H241.92v-76.842h-49.348c0,4.982-0.282,9.071-0.847,12.267c-0.563,3.196-1.62,5.71-3.171,7.543
		c-1.551,1.833-3.621,3.08-6.205,3.736c-2.585,0.659-5.804,0.986-9.657,0.986H147.313z"/>
	<path clip-path="url(#SVGID_2_)" fill="#231F20" d="M488.093,462.698c-2.267-5.285-5.37-9.819-9.294-13.603
		c-3.932-3.776-8.544-6.801-13.829-9.068c-5.292-2.268-10.811-3.401-16.55-3.401c-6.05,0-11.64,1.134-16.776,3.401
		c-5.144,2.268-9.678,5.292-13.603,9.068c-3.932,3.783-7.028,8.317-9.295,13.603c-2.267,5.292-3.401,10.96-3.401,17.003
		c0,6.05,1.134,11.719,3.401,17.003c2.267,5.292,5.363,9.827,9.295,13.603c3.925,3.783,8.459,6.802,13.603,9.068
		c5.136,2.268,10.726,3.401,16.776,3.401c5.739,0,11.258-1.134,16.55-3.401c5.285-2.267,9.897-5.285,13.829-9.068
		c3.925-3.775,7.028-8.311,9.294-13.603c2.269-5.284,3.401-10.953,3.401-17.003C491.494,473.658,490.361,467.99,488.093,462.698
		 M184.529,380.402c14.205,0,25.916,3.252,35.14,9.749c9.217,6.503,13.829,16.854,13.829,31.06c0,13.305-4.307,24.03-12.922,32.192
		c-8.615,8.161-20.935,12.242-36.954,12.242c-18.746,0-32.802-5.285-42.168-15.87c-9.373-10.577-14.056-23.124-14.056-37.635
		v-16.322H67.547v19.044c0,14.509,2.72,28.269,8.161,41.261c5.441,13.001,13.22,24.485,23.351,34.46
		c10.124,9.976,22.445,17.839,36.954,23.578c14.509,5.738,30.677,8.615,48.516,8.615c17.528,0,33.1-2.572,46.702-7.708
		c13.603-5.137,25.009-12.165,34.233-21.084c9.217-8.913,16.168-19.419,20.858-31.514c4.683-12.086,7.027-25.235,7.027-39.447
		v-5.441c0-14.509-2.571-27.127-7.708-37.859c-5.144-10.727-11.866-19.725-20.177-26.979c-8.317-7.254-17.91-12.617-28.792-16.096
		c-10.882-3.472-21.92-5.214-33.099-5.214h-10.882v-8.162l84.336-24.485v-99.752H70.267v57.131h157.79v8.161l-78.895,21.766v94.311
		H184.529z"/>
</g>
<line fill="none" stroke="#0046F9" stroke-width="2" x1="279.443" y1="722" x2="279.443" y2="976"/>
<g>
	<defs>
		<rect id="SVGID_155_" width="564" height="1002"/>
	</defs>
	<clipPath id="SVGID_4_">
		<use xlink:href="#SVGID_155_"  overflow="visible"/>
	</clipPath>
	<polygon clip-path="url(#SVGID_4_)" fill="none" stroke="#0046F9" stroke-width="1.998" points="0.999,3 0.999,999 0.999,1001.002 
		3,1001.002 561,1001.002 563.001,1001.002 563.001,999 563.001,3 563.001,0.998 561,0.998 3,0.998 0.999,0.998 	"/>
</g>
<rect x="5.001" y="5.002" fill="none" stroke="#0046F9" stroke-width="1.998" width="553.997" height="991.996"/>
<polygon fill="#0046F9" points="318.531,843.163 318.887,864.182 412.22,864.182 412.22,949.676 412.22,950.39 519.089,853.494 
	519.089,853.137 412.22,757.312 412.22,757.667 412.22,843.163 "/>
<line fill="none" stroke="#0046F9" stroke-width="2" x1="23.944" y1="154" x2="536.944" y2="154"/>
<line fill="none" stroke="#0046F9" stroke-width="2" x1="23.944" y1="561" x2="536.944" y2="561"/>
<line fill="none" stroke="#0046F9" stroke-width="2" x1="23.944" y1="702" x2="536.944" y2="702"/>
</svg>
