<?xml version="1.0" encoding="utf-8"?>
<!-- Generator: Adobe Illustrator 16.0.0, SVG Export Plug-In . SVG Version: 6.00 Build 0)  -->
<!DOCTYPE svg PUBLIC "-//W3C//DTD SVG 1.1//EN" "http://www.w3.org/Graphics/SVG/1.1/DTD/svg11.dtd">
<svg version="1.1" id="Layer_1" xmlns="http://www.w3.org/2000/svg" xmlns:xlink="http://www.w3.org/1999/xlink" x="0px" y="0px"
	 width="564px" height="1002px" viewBox="0 0 564 1002" enable-background="new 0 0 564 1002" xml:space="preserve">
<g>
	<defs>
		<rect id="SVGID_137_" width="564" height="1002"/>
	</defs>
	<clipPath id="SVGID_2_">
		<use xlink:href="#SVGID_137_"  overflow="visible"/>
	</clipPath>
	<path clip-path="url(#SVGID_2_)" fill="#231F20" d="M200.324,774.748c0.967,2.297,2.49,4.289,4.564,5.976
		c2.075,1.689,4.717,3.03,7.928,4.026c3.209,0.996,7.082,1.494,11.621,1.494c4.482,0,8.342-0.498,11.58-1.494
		c3.236-0.996,5.879-2.337,7.926-4.026c2.048-1.687,3.557-3.679,4.524-5.976c0.968-2.296,1.452-4.773,1.452-7.43
		c0-2.601-0.484-5.05-1.452-7.347c-0.968-2.296-2.477-4.288-4.524-5.976c-2.047-1.688-4.689-3.03-7.926-4.026
		c-3.238-0.996-7.098-1.494-11.58-1.494c-4.539,0-8.412,0.498-11.621,1.494c-3.211,0.996-5.853,2.338-7.928,4.026
		c-2.074,1.688-3.598,3.68-4.564,5.976c-0.969,2.297-1.453,4.746-1.453,7.347C198.871,769.975,199.355,772.452,200.324,774.748
		 M98.15,769.892c-1.854-0.94-3.473-2.656-4.855-5.146c-1.384-2.49-2.477-5.879-3.279-10.168c-0.803-4.288-1.203-9.781-1.203-16.478
		c0-1.826,0.027-3.61,0.084-5.354c0.054-1.744,0.137-3.417,0.248-5.022c1.881-2.047,3.957-3.583,6.226-4.606
		c2.269-1.024,4.815-1.536,7.636-1.536c2.546,0,4.871,0.444,6.975,1.328c2.102,0.886,3.9,2.283,5.395,4.191
		c1.494,1.909,2.656,4.388,3.486,7.43c0.83,3.044,1.246,6.752,1.246,11.123c0,8.413-1.467,14.79-4.4,19.134
		c-2.934,4.345-6.835,6.516-11.704,6.516C101.955,771.303,100.004,770.833,98.15,769.892 M44.195,747.521
		c0.969,4.232,2.477,8.273,4.525,12.118c2.047,3.848,4.676,7.416,7.885,10.708c3.209,3.293,7.084,6.144,11.621,8.551
		c4.537,2.406,9.754,4.303,15.648,5.686c5.893,1.383,12.545,2.075,19.961,2.075c9.518,0,18.098-1.135,25.734-3.403
		c7.636-2.269,14.152-5.367,19.548-9.297c5.396-3.929,9.546-8.536,12.45-13.821c2.906-5.284,4.357-10.97,4.357-17.058
		c0-5.146-1.064-10.002-3.195-14.568c-2.131-4.564-5.229-8.55-9.297-11.953c-4.066-3.402-9.088-6.087-15.066-8.052
		c-5.975-1.963-12.811-2.946-20.502-2.946c-5.202,0-9.906,0.471-14.111,1.411c-4.206,0.941-8.107,2.297-11.705,4.067
		c1.439-5.146,3.363-9.753,5.77-13.821c2.408-4.066,5.313-7.719,8.717-10.957c3.402-3.236,7.305-6.101,11.703-8.591
		c4.4-2.49,9.311-4.731,14.734-6.724l-7.554-11.206c-8.413,0.941-16.284,2.602-23.616,4.98c-7.332,2.38-14.068,5.354-20.213,8.923
		c-6.143,3.569-11.619,7.638-16.436,12.202c-4.813,4.566-8.881,9.463-12.201,14.693c-3.32,5.229-5.852,10.736-7.596,16.518
		c-1.742,5.783-2.614,11.663-2.614,17.64C42.743,739.013,43.227,743.288,44.195,747.521"/>
</g>
<line fill="none" stroke="#0046F9" stroke-width="2" x1="282.207" y1="637" x2="282.207" y2="809"/>
<g>
	<defs>
		<rect id="SVGID_139_" width="564" height="1002"/>
	</defs>
	<clipPath id="SVGID_4_">
		<use xlink:href="#SVGID_139_"  overflow="visible"/>
	</clipPath>
	<path clip-path="url(#SVGID_4_)" fill="#231F20" d="M283.127,468.783v-74.045h82.012v-45.506h-82.012v-68.388h46.275
		c7.026,0,12.895,0.644,17.611,1.928c4.713,1.286,8.486,3.56,11.313,6.813c2.827,3.258,4.757,7.802,5.784,13.627
		c1.027,5.828,1.542,13.283,1.542,22.367h89.983V185.461H89.275v95.384c15.08,0,25.877,2.017,32.393,6.042
		c6.513,4.029,9.771,11.697,9.771,23.01v130.092c0,11.144-3.259,18.728-9.771,22.752c-6.516,4.029-17.312,6.043-32.393,6.043v95.383
		h366.361V424.048h-89.983c0,9.087-0.515,16.543-1.542,22.368c-1.027,5.828-2.957,10.412-5.784,13.754
		c-2.827,3.343-6.601,5.615-11.313,6.812c-4.717,1.201-10.585,1.801-17.611,1.801H283.127z"/>
	<path clip-path="url(#SVGID_4_)" fill="#231F20" d="M501.957,937.497c0.203-0.307,0.477-0.562,0.816-0.766s0.73-0.356,1.173-0.459
		c0.442-0.102,0.901-0.152,1.377-0.152c1.224,0,2.215,0.306,2.974,0.918c0.761,0.611,1.195,1.462,1.311,2.55l2.516-0.612
		c-0.092-0.634-0.289-1.269-0.596-1.903c-0.305-0.635-0.742-1.195-1.309-1.684c-0.566-0.487-1.27-0.884-2.107-1.189
		c-0.839-0.307-1.814-0.459-2.924-0.459c-0.794,0-1.555,0.102-2.279,0.306s-1.377,0.51-1.954,0.918s-1.036,0.913-1.378,1.513
		c-0.339,0.602-0.51,1.298-0.51,2.091v0.204c0,1.475,0.521,2.597,1.564,3.366c1.042,0.771,2.537,1.224,4.488,1.36
		c1.677,0.113,2.89,0.374,3.638,0.782c0.747,0.407,1.122,1.088,1.122,2.039c0,0.885-0.379,1.57-1.139,2.058
		c-0.76,0.488-1.763,0.73-3.01,0.73c-1.474,0-2.651-0.391-3.535-1.173c-0.885-0.782-1.383-1.818-1.496-3.11l-2.516,0.611
		c0.045,0.748,0.226,1.491,0.543,2.228s0.787,1.394,1.412,1.972c0.622,0.578,1.404,1.043,2.346,1.394
		c0.939,0.352,2.067,0.527,3.383,0.527c0.974,0,1.875-0.119,2.703-0.356c0.827-0.238,1.53-0.583,2.107-1.037
		c0.578-0.453,1.031-1.003,1.36-1.649c0.328-0.646,0.493-1.377,0.493-2.193v-0.203c0-1.496-0.516-2.636-1.547-3.417
		c-1.033-0.782-2.533-1.252-4.506-1.411c-1.836-0.137-3.1-0.419-3.79-0.851c-0.692-0.43-1.038-1.054-1.038-1.87
		C501.65,938.16,501.752,937.803,501.957,937.497 M482.866,948.615c-0.692-0.283-1.298-0.697-1.819-1.241s-0.93-1.195-1.224-1.955
		c-0.296-0.759-0.442-1.615-0.442-2.567v-0.408c0-0.905,0.146-1.738,0.442-2.499c0.294-0.759,0.702-1.41,1.224-1.954
		c0.521-0.545,1.134-0.97,1.836-1.275c0.703-0.306,1.451-0.459,2.244-0.459s1.541,0.153,2.244,0.459
		c0.702,0.306,1.314,0.73,1.836,1.275c0.521,0.544,0.929,1.195,1.225,1.954c0.294,0.761,0.441,1.594,0.441,2.499v0.408
		c0,0.952-0.147,1.809-0.441,2.567c-0.296,0.76-0.703,1.411-1.225,1.955s-1.128,0.958-1.818,1.241
		c-0.693,0.283-1.445,0.425-2.262,0.425S483.558,948.898,482.866,948.615 M493.593,942.443c0-1.382-0.233-2.611-0.696-3.688
		c-0.465-1.076-1.088-1.989-1.87-2.737s-1.685-1.313-2.703-1.7c-1.021-0.385-2.086-0.577-3.196-0.577s-2.176,0.192-3.195,0.577
		c-1.021,0.387-1.922,0.952-2.703,1.7c-0.782,0.748-1.406,1.661-1.87,2.737c-0.465,1.077-0.698,2.307-0.698,3.688v0.408
		c0,1.406,0.233,2.647,0.698,3.724c0.464,1.076,1.081,1.983,1.853,2.72c0.771,0.737,1.666,1.298,2.687,1.683
		c1.021,0.386,2.097,0.578,3.229,0.578c1.11,0,2.182-0.192,3.213-0.578c1.031-0.385,1.933-0.945,2.703-1.683
		c0.771-0.736,1.389-1.644,1.854-2.72c0.463-1.076,0.696-2.317,0.696-3.724V942.443z M456.635,936.664h5.305v11.764
		c0,0.771,0.242,1.406,0.73,1.904c0.486,0.499,1.116,0.748,1.888,0.748h5.745v-2.448h-4.794c-0.611,0-0.919-0.34-0.919-1.021
		v-10.947h6.529v-2.448h-6.529v-6.936h-2.65v6.936h-5.305V936.664z M439.397,942.308c0-1.836,0.458-3.303,1.377-4.402
		c0.918-1.1,2.181-1.649,3.791-1.649c1.359,0,2.437,0.442,3.229,1.326s1.19,2.21,1.19,3.978v9.521h2.651v-10.064
		c0-2.425-0.578-4.244-1.734-5.457c-1.155-1.212-2.708-1.818-4.658-1.818c-2.584,0-4.396,1.11-5.439,3.332h-0.407v-2.856h-2.653
		v16.864h2.653V942.308z M425.779,936.596c0.623,0.228,1.18,0.544,1.667,0.952s0.884,0.907,1.189,1.496
		c0.307,0.59,0.481,1.247,0.527,1.972h-10.88c0.09-0.68,0.289-1.309,0.594-1.887c0.308-0.578,0.703-1.082,1.191-1.513
		c0.487-0.431,1.054-0.766,1.7-1.003c0.646-0.238,1.343-0.357,2.091-0.357C424.517,936.256,425.156,936.37,425.779,936.596
		 M431.814,943.464v-2.176c0-0.748-0.152-1.564-0.458-2.448c-0.308-0.884-0.782-1.7-1.429-2.448
		c-0.646-0.748-1.474-1.377-2.481-1.887c-1.009-0.51-2.205-0.765-3.587-0.765c-1.179,0-2.273,0.21-3.281,0.629
		c-1.009,0.42-1.887,0.998-2.635,1.733c-0.748,0.737-1.332,1.615-1.752,2.636c-0.419,1.02-0.629,2.119-0.629,3.298v0.815
		c0,1.292,0.205,2.472,0.611,3.536c0.41,1.066,0.976,1.984,1.701,2.754c0.726,0.771,1.592,1.366,2.602,1.785
		c1.008,0.419,2.111,0.629,3.314,0.629c2.176,0,3.904-0.493,5.186-1.479c1.279-0.986,2.158-2.262,2.635-3.825l-2.516-0.68
		c-0.159,0.476-0.369,0.924-0.631,1.343c-0.26,0.42-0.6,0.788-1.019,1.104c-0.42,0.318-0.924,0.567-1.513,0.748
		c-0.592,0.183-1.281,0.272-2.074,0.272c-1.746,0-3.107-0.51-4.08-1.53c-0.975-1.02-1.496-2.368-1.564-4.046H431.814z
		 M412.027,938.092c0-1.292-0.346-2.34-1.037-3.145c-0.693-0.805-1.672-1.207-2.941-1.207c-1.678,0-2.902,0.771-3.672,2.312h-0.408
		c-0.203-0.68-0.572-1.235-1.105-1.666c-0.532-0.43-1.206-0.646-2.022-0.646c-0.771,0-1.439,0.187-2.005,0.561
		c-0.567,0.374-1,0.958-1.293,1.751h-0.408v-1.836h-2.652v16.864h2.652v-11.628c0-0.952,0.222-1.723,0.662-2.312
		c0.443-0.589,1.072-0.884,1.889-0.884c0.68,0,1.223,0.244,1.632,0.73c0.408,0.488,0.612,1.105,0.612,1.854v12.24h2.65v-11.424
		c0-1.156,0.233-2.012,0.698-2.567c0.464-0.555,1.071-0.833,1.819-0.833c0.793,0,1.37,0.255,1.733,0.765
		c0.362,0.511,0.544,1.162,0.544,1.955v12.104h2.652V938.092z M380.271,948.615c-0.682-0.283-1.275-0.691-1.785-1.225
		c-0.51-0.532-0.907-1.173-1.19-1.921c-0.284-0.748-0.425-1.598-0.425-2.55v-0.544c0-0.906,0.141-1.734,0.425-2.482
		c0.283-0.748,0.681-1.394,1.19-1.938s1.109-0.963,1.801-1.258s1.434-0.442,2.229-0.442c0.77,0,1.501,0.153,2.193,0.459
		c0.689,0.306,1.291,0.73,1.801,1.275c0.511,0.544,0.912,1.195,1.207,1.954c0.293,0.761,0.442,1.594,0.442,2.499v0.408
		c0,0.931-0.149,1.774-0.442,2.533c-0.295,0.76-0.696,1.411-1.207,1.955c-0.51,0.544-1.104,0.964-1.784,1.258
		c-0.681,0.295-1.417,0.442-2.21,0.442C381.699,949.04,380.951,948.898,380.271,948.615 M388.159,954.412
		c0,0.68-0.306,1.02-0.918,1.02h-10.03v2.448h10.982c0.77,0,1.398-0.25,1.887-0.748c0.486-0.499,0.73-1.134,0.73-1.904v-21.012
		h-2.651v2.652h-0.407c-0.522-1.021-1.242-1.796-2.16-2.329c-0.918-0.532-1.988-0.799-3.213-0.799c-1.088,0-2.131,0.192-3.127,0.577
		c-1,0.387-1.871,0.947-2.619,1.684c-0.748,0.737-1.35,1.644-1.802,2.72c-0.454,1.077-0.681,2.295-0.681,3.655v0.544
		c0,1.383,0.221,2.613,0.664,3.688c0.441,1.077,1.041,1.979,1.801,2.703c0.76,0.727,1.637,1.281,2.637,1.666
		c0.996,0.386,2.062,0.578,3.195,0.578c1.11,0,2.137-0.255,3.077-0.765c0.939-0.51,1.683-1.275,2.228-2.295h0.407V954.412z
		 M357.746,947.425c-1.009-1.076-1.513-2.578-1.513-4.505v-0.544c0-0.906,0.136-1.739,0.408-2.499
		c0.271-0.759,0.651-1.405,1.138-1.938c0.488-0.531,1.06-0.945,1.717-1.24c0.658-0.295,1.383-0.442,2.177-0.442
		c0.771,0,1.49,0.153,2.159,0.459c0.668,0.306,1.246,0.73,1.734,1.275c0.486,0.544,0.867,1.195,1.139,1.954
		c0.272,0.761,0.408,1.594,0.408,2.499v0.408c0,0.931-0.136,1.774-0.408,2.533c-0.271,0.76-0.646,1.411-1.121,1.955
		c-0.477,0.544-1.05,0.964-1.718,1.258c-0.669,0.295-1.401,0.442-2.193,0.442C360.062,949.04,358.754,948.502,357.746,947.425
		 M367.113,948.428c0,0.771,0.243,1.406,0.73,1.904c0.487,0.499,1.116,0.748,1.887,0.748h1.803v-2.448h-0.85
		c-0.613,0-0.918-0.34-0.918-1.021v-13.396h-2.652v2.652h-0.408c-0.545-1.065-1.287-1.854-2.227-2.363
		c-0.941-0.51-1.989-0.765-3.145-0.765c-1.066,0-2.075,0.192-3.027,0.577c-0.951,0.387-1.784,0.947-2.498,1.684
		c-0.715,0.737-1.275,1.638-1.684,2.703s-0.611,2.29-0.611,3.672v0.544c0,1.406,0.203,2.641,0.611,3.706s0.969,1.967,1.684,2.703
		c0.714,0.736,1.547,1.292,2.498,1.666c0.952,0.374,1.983,0.561,3.095,0.561c1.063,0,2.079-0.271,3.042-0.815
		c0.964-0.545,1.717-1.383,2.262-2.517h0.408V948.428z M333.453,936.664h3.467v11.968h-3.875v2.448h10.812v-2.448h-4.285v-7.14
		c0-0.726,0.08-1.405,0.238-2.04s0.408-1.19,0.75-1.666c0.338-0.477,0.764-0.851,1.273-1.122c0.51-0.272,1.116-0.408,1.819-0.408
		c1.087,0,2.006,0.346,2.754,1.037c0.747,0.691,1.122,1.818,1.122,3.383l2.788-0.408c-0.067-2.13-0.624-3.751-1.667-4.861
		s-2.413-1.666-4.113-1.666c-1.02,0-1.927,0.221-2.72,0.662c-0.794,0.442-1.406,1.129-1.836,2.058h-0.409v-2.244h-6.119V936.664z
		 M313.768,936.664h5.201v14.416h2.652v-14.416h7.038v-2.448h-7.038v-3.468c0-0.681,0.305-1.021,0.918-1.021h5.713v-2.447h-6.665
		c-0.771,0-1.399,0.25-1.888,0.747c-0.487,0.499-0.73,1.135-0.73,1.904v4.284h-5.201V936.664z M276.809,937.497
		c0.205-0.307,0.477-0.562,0.816-0.766s0.731-0.356,1.174-0.459c0.441-0.102,0.9-0.152,1.377-0.152c1.223,0,2.215,0.306,2.975,0.918
		c0.758,0.611,1.194,1.462,1.309,2.55l2.517-0.612c-0.092-0.634-0.29-1.269-0.596-1.903s-0.743-1.195-1.31-1.684
		c-0.566-0.487-1.27-0.884-2.107-1.189c-0.838-0.307-1.813-0.459-2.924-0.459c-0.795,0-1.553,0.102-2.277,0.306
		c-0.727,0.204-1.377,0.51-1.955,0.918s-1.037,0.913-1.377,1.513c-0.34,0.602-0.511,1.298-0.511,2.091v0.204
		c0,1.475,0.521,2.597,1.563,3.366c1.043,0.771,2.539,1.224,4.488,1.36c1.678,0.113,2.891,0.374,3.639,0.782
		c0.748,0.407,1.121,1.088,1.121,2.039c0,0.885-0.379,1.57-1.139,2.058c-0.76,0.488-1.764,0.73-3.008,0.73
		c-1.475,0-2.652-0.391-3.537-1.173c-0.884-0.782-1.383-1.818-1.496-3.11l-2.516,0.611c0.045,0.748,0.227,1.491,0.544,2.228
		s0.787,1.394,1.411,1.972c0.623,0.578,1.404,1.043,2.346,1.394c0.941,0.352,2.068,0.527,3.383,0.527
		c0.975,0,1.875-0.119,2.703-0.356c0.828-0.238,1.529-0.583,2.108-1.037c0.578-0.453,1.031-1.003,1.36-1.649
		c0.326-0.646,0.492-1.377,0.492-2.193v-0.203c0-1.496-0.516-2.636-1.547-3.417c-1.031-0.782-2.533-1.252-4.505-1.411
		c-1.836-0.137-3.101-0.419-3.791-0.851c-0.692-0.43-1.036-1.054-1.036-1.87C276.504,938.16,276.605,937.803,276.809,937.497
		 M257.719,948.615c-0.692-0.283-1.299-0.697-1.82-1.241s-0.93-1.195-1.223-1.955c-0.295-0.759-0.442-1.615-0.442-2.567v-0.408
		c0-0.905,0.147-1.738,0.442-2.499c0.293-0.759,0.701-1.41,1.223-1.954c0.521-0.545,1.133-0.97,1.836-1.275s1.451-0.459,2.244-0.459
		s1.541,0.153,2.244,0.459s1.314,0.73,1.836,1.275c0.521,0.544,0.93,1.195,1.225,1.954c0.293,0.761,0.441,1.594,0.441,2.499v0.408
		c0,0.952-0.148,1.809-0.441,2.567c-0.295,0.76-0.703,1.411-1.225,1.955s-1.127,0.958-1.818,1.241s-1.445,0.425-2.262,0.425
		C259.163,949.04,258.409,948.898,257.719,948.615 M268.445,942.443c0-1.382-0.232-2.611-0.697-3.688
		c-0.465-1.076-1.088-1.989-1.869-2.737c-0.783-0.748-1.684-1.313-2.703-1.7c-1.021-0.385-2.086-0.577-3.197-0.577
		s-2.176,0.192-3.195,0.577c-1.02,0.387-1.921,0.952-2.703,1.7c-0.781,0.748-1.406,1.661-1.87,2.737
		c-0.466,1.077-0.696,2.307-0.696,3.688v0.408c0,1.406,0.23,2.647,0.696,3.724c0.464,1.076,1.083,1.983,1.853,2.72
		c0.771,0.737,1.666,1.298,2.688,1.683c1.02,0.386,2.096,0.578,3.229,0.578c1.111,0,2.182-0.192,3.213-0.578
		c1.031-0.385,1.934-0.945,2.703-1.683c0.771-0.736,1.389-1.644,1.854-2.72s0.697-2.317,0.697-3.724V942.443z M237.233,948.615
		c-0.681-0.283-1.274-0.691-1.786-1.225c-0.51-0.532-0.906-1.173-1.189-1.921s-0.424-1.598-0.424-2.55v-0.544
		c0-0.906,0.141-1.734,0.424-2.482s0.68-1.394,1.189-1.938c0.512-0.544,1.111-0.963,1.803-1.258s1.434-0.442,2.227-0.442
		c0.771,0,1.502,0.153,2.193,0.459s1.293,0.73,1.803,1.275c0.51,0.544,0.912,1.195,1.207,1.954c0.293,0.761,0.441,1.594,0.441,2.499
		v0.408c0,0.931-0.148,1.774-0.441,2.533c-0.295,0.76-0.697,1.411-1.207,1.955s-1.105,0.964-1.785,1.258
		c-0.68,0.295-1.418,0.442-2.211,0.442C238.66,949.04,237.912,948.898,237.233,948.615 M245.121,951.08h2.652v-23.8h-2.652v9.588
		h-0.408c-0.543-1.065-1.32-1.854-2.328-2.363c-1.01-0.51-2.092-0.765-3.248-0.765c-1.088,0-2.119,0.192-3.094,0.577
		c-0.975,0.387-1.824,0.947-2.551,1.684c-0.725,0.737-1.303,1.644-1.732,2.72c-0.432,1.077-0.646,2.295-0.646,3.655v0.544
		c0,1.383,0.209,2.613,0.629,3.688c0.418,1.077,0.997,1.979,1.734,2.703c0.736,0.727,1.592,1.281,2.566,1.666
		c0.975,0.386,2.027,0.578,3.162,0.578c0.498,0,1.02-0.062,1.564-0.187c0.543-0.125,1.059-0.312,1.547-0.562
		c0.486-0.249,0.939-0.565,1.359-0.952c0.42-0.385,0.766-0.838,1.037-1.359h0.408V951.08z M190.178,936.664h3.467v11.968h-3.875
		v2.448h10.811v-2.448h-4.283v-7.14c0-0.726,0.08-1.405,0.238-2.04s0.408-1.19,0.748-1.666c0.34-0.477,0.766-0.851,1.275-1.122
		c0.51-0.272,1.115-0.408,1.818-0.408c1.088,0,2.006,0.346,2.754,1.037s1.123,1.818,1.123,3.383l2.787-0.408
		c-0.068-2.13-0.623-3.751-1.666-4.861s-2.414-1.666-4.113-1.666c-1.021,0-1.928,0.221-2.721,0.662
		c-0.794,0.442-1.406,1.129-1.836,2.058h-0.408v-2.244h-6.119V936.664z M171.069,951.08h14.075v-2.448h-5.508v-14.416h-7.955v2.448
		h5.304v11.968h-5.916V951.08z M176.594,930.867c0.465,0.465,1.025,0.696,1.684,0.696c0.656,0,1.218-0.231,1.683-0.696
		c0.464-0.465,0.697-1.025,0.697-1.684c0-0.657-0.233-1.218-0.697-1.683c-0.465-0.464-1.026-0.697-1.683-0.697
		c-0.658,0-1.219,0.233-1.684,0.697c-0.465,0.465-0.697,1.025-0.697,1.683C175.896,929.842,176.129,930.402,176.594,930.867
		 M149.615,936.664h5.304v11.764c0,0.771,0.243,1.406,0.731,1.904c0.486,0.499,1.115,0.748,1.887,0.748h5.746v-2.448h-4.794
		c-0.612,0-0.919-0.34-0.919-1.021v-10.947h6.529v-2.448h-6.529v-6.936h-2.651v6.936h-5.304V936.664z M128.773,936.664h3.468v11.968
		h-3.876v2.448h10.812v-2.448h-4.285v-7.14c0-0.726,0.08-1.405,0.238-2.04s0.408-1.19,0.748-1.666
		c0.34-0.477,0.766-0.851,1.275-1.122c0.51-0.272,1.115-0.408,1.818-0.408c1.088,0,2.006,0.346,2.754,1.037s1.123,1.818,1.123,3.383
		l2.787-0.408c-0.067-2.13-0.623-3.751-1.666-4.861s-2.414-1.666-4.113-1.666c-1.02,0-1.928,0.221-2.721,0.662
		c-0.793,0.442-1.406,1.129-1.836,2.058h-0.408v-2.244h-6.119V936.664z M112.131,947.425c-1.01-1.076-1.514-2.578-1.514-4.505
		v-0.544c0-0.906,0.137-1.739,0.408-2.499c0.271-0.759,0.65-1.405,1.139-1.938c0.486-0.531,1.059-0.945,1.717-1.24
		c0.657-0.295,1.383-0.442,2.176-0.442c0.771,0,1.49,0.153,2.16,0.459c0.668,0.306,1.246,0.73,1.733,1.275
		c0.487,0.544,0.867,1.195,1.14,1.954c0.271,0.761,0.406,1.594,0.406,2.499v0.408c0,0.931-0.135,1.774-0.406,2.533
		c-0.272,0.76-0.646,1.411-1.123,1.955c-0.476,0.544-1.049,0.964-1.717,1.258c-0.67,0.295-1.4,0.442-2.193,0.442
		C114.447,949.04,113.139,948.502,112.131,947.425 M121.496,948.428c0,0.771,0.244,1.406,0.732,1.904
		c0.486,0.499,1.115,0.748,1.887,0.748h1.803v-2.448h-0.852c-0.611,0-0.917-0.34-0.917-1.021v-13.396h-2.653v2.652h-0.406
		c-0.545-1.065-1.287-1.854-2.228-2.363s-1.989-0.765-3.146-0.765c-1.066,0-2.074,0.192-3.025,0.577
		c-0.952,0.387-1.785,0.947-2.5,1.684c-0.713,0.737-1.273,1.638-1.682,2.703s-0.613,2.29-0.613,3.672v0.544
		c0,1.406,0.205,2.641,0.613,3.706s0.969,1.967,1.682,2.703c0.715,0.736,1.548,1.292,2.5,1.666c0.951,0.374,1.982,0.561,3.094,0.561
		c1.064,0,2.078-0.271,3.043-0.815c0.963-0.545,1.717-1.383,2.262-2.517h0.406V948.428z M94.264,948.598
		c-0.68-0.294-1.275-0.714-1.785-1.258s-0.913-1.195-1.207-1.955c-0.295-0.759-0.443-1.603-0.443-2.533v-0.408
		c0-0.905,0.148-1.738,0.443-2.499c0.294-0.759,0.697-1.41,1.207-1.954c0.51-0.545,1.105-0.97,1.785-1.275s1.416-0.459,2.209-0.459
		s1.535,0.147,2.227,0.442s1.293,0.709,1.803,1.24c0.51,0.533,0.906,1.168,1.19,1.904c0.282,0.737,0.425,1.559,0.425,2.465v0.681
		c0,0.93-0.143,1.768-0.425,2.516c-0.284,0.748-0.681,1.383-1.19,1.904s-1.105,0.924-1.785,1.207s-1.428,0.425-2.244,0.425
		C95.68,949.04,94.943,948.893,94.264,948.598 M90.828,948.496h0.409c0.294,0.521,0.657,0.969,1.087,1.343
		c0.432,0.374,0.902,0.692,1.412,0.952c0.51,0.261,1.047,0.453,1.615,0.578c0.566,0.124,1.121,0.187,1.666,0.187
		c1.064,0,2.074-0.187,3.025-0.561c0.952-0.374,1.785-0.923,2.5-1.649c0.713-0.725,1.274-1.62,1.682-2.686
		c0.408-1.065,0.613-2.289,0.613-3.672v-0.681c0-1.359-0.211-2.572-0.629-3.638c-0.422-1.065-0.986-1.96-1.701-2.687
		c-0.713-0.725-1.535-1.279-2.465-1.666c-0.93-0.385-1.916-0.577-2.957-0.577c-1.225,0-2.359,0.267-3.4,0.799
		c-1.043,0.533-1.859,1.309-2.448,2.329h-0.409v-2.652h-2.65v23.664h2.65V948.496z M50.727,947.425
		c-1.01-1.076-1.514-2.578-1.514-4.505v-0.544c0-0.906,0.137-1.739,0.408-2.499c0.271-0.759,0.65-1.405,1.139-1.938
		c0.487-0.531,1.059-0.945,1.717-1.24s1.383-0.442,2.177-0.442c0.771,0,1.489,0.153,2.159,0.459c0.668,0.306,1.246,0.73,1.734,1.275
		c0.486,0.544,0.865,1.195,1.139,1.954c0.271,0.761,0.408,1.594,0.408,2.499v0.408c0,0.931-0.137,1.774-0.408,2.533
		c-0.273,0.76-0.646,1.411-1.123,1.955c-0.475,0.544-1.049,0.964-1.717,1.258c-0.668,0.295-1.399,0.442-2.192,0.442
		C53.043,949.04,51.734,948.502,50.727,947.425 M60.094,948.428c0,0.771,0.242,1.406,0.73,1.904
		c0.486,0.499,1.116,0.748,1.887,0.748h1.803v-2.448h-0.851c-0.612,0-0.919-0.34-0.919-1.021v-13.396h-2.65v2.652h-0.408
		c-0.545-1.065-1.287-1.854-2.227-2.363c-0.941-0.51-1.99-0.765-3.146-0.765c-1.065,0-2.073,0.192-3.025,0.577
		c-0.951,0.387-1.785,0.947-2.5,1.684c-0.713,0.737-1.273,1.638-1.682,2.703s-0.613,2.29-0.613,3.672v0.544
		c0,1.406,0.205,2.641,0.613,3.706s0.969,1.967,1.682,2.703c0.715,0.736,1.549,1.292,2.5,1.666c0.952,0.374,1.982,0.561,3.094,0.561
		c1.065,0,2.079-0.271,3.043-0.815c0.963-0.545,1.717-1.383,2.262-2.517h0.408V948.428z"/>
	<path clip-path="url(#SVGID_4_)" fill="#231F20" d="M440.553,885.497c0.204-0.307,0.477-0.562,0.816-0.766s0.731-0.356,1.174-0.459
		c0.441-0.102,0.9-0.152,1.376-0.152c1.226,0,2.214,0.306,2.976,0.918c0.759,0.611,1.193,1.462,1.309,2.55l2.516-0.612
		c-0.091-0.634-0.289-1.269-0.594-1.903c-0.307-0.635-0.744-1.195-1.311-1.684c-0.566-0.487-1.27-0.884-2.107-1.189
		c-0.84-0.307-1.813-0.459-2.924-0.459c-0.794,0-1.553,0.102-2.279,0.306c-0.725,0.204-1.376,0.51-1.955,0.918
		c-0.576,0.408-1.035,0.913-1.376,1.513c-0.339,0.602-0.51,1.298-0.51,2.091v0.204c0,1.475,0.521,2.597,1.563,3.366
		c1.043,0.771,2.539,1.224,4.488,1.36c1.678,0.113,2.891,0.374,3.639,0.782c0.748,0.407,1.121,1.088,1.121,2.039
		c0,0.885-0.381,1.57-1.139,2.058c-0.76,0.488-1.764,0.73-3.009,0.73c-1.474,0-2.652-0.391-3.536-1.173s-1.383-1.818-1.496-3.11
		l-2.516,0.611c0.045,0.748,0.225,1.491,0.544,2.228c0.317,0.736,0.787,1.394,1.411,1.972c0.623,0.578,1.404,1.043,2.346,1.395
		c0.94,0.351,2.068,0.526,3.383,0.526c0.975,0,1.875-0.119,2.703-0.356c0.828-0.238,1.529-0.583,2.108-1.037
		c0.578-0.453,1.03-1.003,1.358-1.649c0.328-0.646,0.494-1.377,0.494-2.193v-0.203c0-1.496-0.516-2.636-1.547-3.417
		c-1.032-0.782-2.533-1.252-4.505-1.411c-1.836-0.137-3.1-0.419-3.792-0.851c-0.691-0.43-1.036-1.054-1.036-1.87
		C440.247,886.16,440.35,885.803,440.553,885.497 M425.779,884.596c0.623,0.228,1.18,0.544,1.667,0.952s0.884,0.907,1.189,1.496
		c0.307,0.59,0.481,1.247,0.527,1.972h-10.88c0.09-0.68,0.289-1.309,0.594-1.887c0.308-0.578,0.703-1.082,1.191-1.513
		c0.486-0.431,1.054-0.766,1.7-1.003c0.646-0.238,1.343-0.357,2.091-0.357C424.517,884.256,425.156,884.37,425.779,884.596
		 M431.814,891.464v-2.176c0-0.748-0.152-1.564-0.458-2.448c-0.308-0.884-0.782-1.7-1.429-2.448
		c-0.646-0.748-1.474-1.377-2.481-1.887c-1.009-0.51-2.205-0.765-3.587-0.765c-1.18,0-2.273,0.21-3.281,0.629
		c-1.009,0.42-1.887,0.998-2.635,1.733c-0.748,0.737-1.332,1.615-1.752,2.636c-0.419,1.02-0.629,2.119-0.629,3.298v0.815
		c0,1.292,0.205,2.472,0.611,3.536c0.41,1.066,0.976,1.984,1.701,2.754c0.726,0.771,1.592,1.366,2.602,1.785
		c1.008,0.419,2.111,0.629,3.314,0.629c2.176,0,3.904-0.493,5.186-1.479c1.279-0.986,2.158-2.262,2.635-3.825l-2.518-0.68
		c-0.157,0.476-0.367,0.924-0.629,1.343c-0.26,0.42-0.6,0.788-1.019,1.104c-0.42,0.318-0.924,0.567-1.513,0.748
		c-0.592,0.183-1.281,0.272-2.074,0.272c-1.746,0-3.107-0.51-4.08-1.53c-0.975-1.02-1.496-2.368-1.564-4.046H431.814z
		 M403.119,875.772c-0.386-0.328-0.907-0.492-1.564-0.492c-0.611,0-1.135,0.142-1.563,0.425c-0.431,0.284-0.806,0.618-1.122,1.003
		l-1.395,1.666l1.667,1.428l1.563-1.802c0.249-0.272,0.498-0.408,0.748-0.408c0.18,0,0.322,0.057,0.424,0.17
		c0.104,0.114,0.233,0.306,0.393,0.578c0.385,0.703,0.765,1.213,1.139,1.53s0.912,0.476,1.615,0.476
		c0.588,0,1.099-0.141,1.529-0.425c0.43-0.283,0.805-0.617,1.122-1.003l1.395-1.666l-1.667-1.428l-1.631,1.869
		c-0.205,0.228-0.42,0.341-0.646,0.341c-0.205,0-0.363-0.057-0.476-0.17c-0.114-0.113-0.228-0.283-0.34-0.511
		C403.901,876.629,403.504,876.102,403.119,875.772 M400.994,896.615c-0.693-0.283-1.299-0.697-1.82-1.241
		c-0.521-0.544-0.93-1.195-1.223-1.955c-0.295-0.759-0.442-1.615-0.442-2.567v-0.408c0-0.905,0.147-1.738,0.442-2.499
		c0.293-0.759,0.702-1.41,1.223-1.954c0.521-0.544,1.135-0.97,1.836-1.275c0.703-0.306,1.451-0.459,2.245-0.459
		c0.793,0,1.541,0.153,2.245,0.459c0.701,0.306,1.313,0.731,1.836,1.275c0.52,0.544,0.929,1.195,1.225,1.954
		c0.293,0.761,0.441,1.594,0.441,2.499v0.408c0,0.952-0.148,1.809-0.441,2.567c-0.296,0.76-0.705,1.411-1.225,1.955
		c-0.522,0.544-1.129,0.958-1.819,1.241c-0.692,0.283-1.446,0.425-2.262,0.425S401.686,896.898,400.994,896.615 M411.721,890.443
		c0-1.382-0.232-2.611-0.697-3.688c-0.463-1.076-1.087-1.989-1.869-2.737c-0.783-0.748-1.684-1.313-2.703-1.7
		c-1.02-0.385-2.086-0.577-3.196-0.577s-2.176,0.192-3.196,0.577c-1.02,0.387-1.92,0.952-2.702,1.7s-1.406,1.661-1.87,2.737
		c-0.465,1.077-0.697,2.307-0.697,3.688v0.408c0,1.406,0.232,2.647,0.697,3.724c0.464,1.076,1.082,1.983,1.853,2.72
		c0.771,0.737,1.665,1.298,2.687,1.683c1.02,0.386,2.096,0.578,3.229,0.578c1.11,0,2.182-0.192,3.213-0.578
		c1.032-0.385,1.933-0.945,2.703-1.683c0.771-0.736,1.39-1.644,1.853-2.72c0.465-1.076,0.697-2.317,0.697-3.724V890.443z
		 M388.465,892.483c-0.09,0.591-0.267,1.156-0.527,1.7s-0.611,1.026-1.054,1.445c-0.441,0.42-0.976,0.76-1.598,1.02
		c-0.624,0.262-1.354,0.392-2.193,0.392s-1.62-0.142-2.346-0.425s-1.36-0.686-1.903-1.207c-0.545-0.521-0.969-1.161-1.275-1.922
		c-0.307-0.759-0.459-1.614-0.459-2.566v-0.408c0-0.906,0.152-1.745,0.459-2.516s0.73-1.434,1.275-1.989
		c0.543-0.555,1.173-0.986,1.887-1.292c0.713-0.306,1.479-0.459,2.295-0.459c0.838,0,1.575,0.125,2.209,0.374
		c0.635,0.25,1.174,0.584,1.615,1.003c0.443,0.42,0.793,0.907,1.055,1.462c0.26,0.556,0.424,1.128,0.493,1.717l2.651-0.611
		c-0.158-0.93-0.459-1.79-0.9-2.584c-0.442-0.793-1.01-1.479-1.701-2.058s-1.49-1.024-2.396-1.343
		c-0.906-0.317-1.893-0.476-2.958-0.476c-1.179,0-2.296,0.203-3.349,0.611c-1.054,0.408-1.979,0.986-2.771,1.734
		c-0.794,0.748-1.425,1.666-1.888,2.754c-0.465,1.088-0.696,2.312-0.696,3.672v0.408c0,1.202,0.175,2.284,0.526,3.247
		c0.352,0.964,0.834,1.802,1.445,2.516c0.612,0.714,1.331,1.298,2.159,1.751c0.827,0.454,1.717,0.771,2.669,0.952l-0.613,2.822
		v0.204h2.584c0.158-0.318,0.443-0.477,0.85-0.477c0.318,0,0.597,0.113,0.834,0.34c0.238,0.227,0.357,0.544,0.357,0.952
		c0,0.498-0.143,0.861-0.426,1.088s-0.594,0.341-0.935,0.341c-0.499,0-0.88-0.143-1.139-0.426c-0.261-0.283-0.425-0.595-0.493-0.935
		l-1.633,0.612c0.182,0.68,0.533,1.246,1.055,1.699s1.27,0.681,2.244,0.681c0.883,0,1.632-0.278,2.244-0.833
		c0.611-0.557,0.918-1.31,0.918-2.262c0-0.794-0.232-1.474-0.697-2.039c-0.465-0.567-1.094-0.851-1.887-0.851
		c-0.93,0-1.542,0.362-1.836,1.088h-0.205l0.409-1.836h0.271c1.11,0,2.119-0.159,3.026-0.476c0.906-0.317,1.699-0.766,2.381-1.344
		c0.68-0.577,1.24-1.263,1.682-2.057c0.443-0.793,0.754-1.654,0.936-2.584L388.465,892.483z M357.746,895.425
		c-1.009-1.076-1.513-2.578-1.513-4.505v-0.544c0-0.906,0.136-1.739,0.408-2.499c0.271-0.759,0.651-1.405,1.138-1.938
		c0.488-0.531,1.06-0.945,1.717-1.24c0.658-0.294,1.383-0.442,2.177-0.442c0.771,0,1.49,0.153,2.159,0.459
		c0.668,0.306,1.246,0.731,1.734,1.275c0.486,0.544,0.867,1.195,1.139,1.954c0.272,0.761,0.408,1.594,0.408,2.499v0.408
		c0,0.931-0.136,1.774-0.408,2.533c-0.271,0.76-0.646,1.411-1.121,1.955c-0.477,0.544-1.05,0.964-1.718,1.258
		c-0.669,0.295-1.401,0.442-2.193,0.442C360.062,897.04,358.754,896.502,357.746,895.425 M367.113,896.428
		c0,0.771,0.243,1.406,0.73,1.904c0.487,0.499,1.116,0.748,1.887,0.748h1.803v-2.448h-0.85c-0.613,0-0.918-0.34-0.918-1.021v-13.396
		h-2.652v2.652h-0.408c-0.545-1.065-1.287-1.854-2.227-2.363c-0.941-0.51-1.989-0.765-3.145-0.765c-1.066,0-2.075,0.192-3.027,0.577
		c-0.951,0.387-1.784,0.947-2.498,1.684c-0.715,0.737-1.275,1.638-1.684,2.703s-0.611,2.29-0.611,3.672v0.544
		c0,1.406,0.203,2.641,0.611,3.706s0.969,1.967,1.684,2.703c0.714,0.736,1.547,1.292,2.498,1.666
		c0.952,0.374,1.983,0.561,3.095,0.561c1.063,0,2.079-0.271,3.042-0.815c0.964-0.544,1.717-1.383,2.262-2.517h0.408V896.428z
		 M334.813,899.08h14.076v-2.448h-5.509v-14.416h-7.956v2.448h5.305v11.968h-5.916V899.08z M340.338,878.867
		c0.463,0.465,1.025,0.696,1.684,0.696c0.656,0,1.218-0.231,1.682-0.696c0.465-0.465,0.698-1.025,0.698-1.684
		c0-0.657-0.233-1.218-0.698-1.683c-0.464-0.464-1.025-0.697-1.682-0.697c-0.658,0-1.221,0.233-1.684,0.697
		c-0.465,0.465-0.696,1.025-0.696,1.683C339.642,877.842,339.873,878.402,340.338,878.867 M312.985,884.664h3.468v11.968h-3.877
		v2.448h10.813v-2.448h-4.284v-7.14c0-0.726,0.079-1.405,0.236-2.04c0.16-0.635,0.41-1.19,0.749-1.666
		c0.341-0.477,0.765-0.851,1.275-1.122c0.511-0.272,1.116-0.408,1.819-0.408c1.088,0,2.006,0.346,2.754,1.037
		s1.122,1.818,1.122,3.383l2.788-0.408c-0.068-2.13-0.624-3.751-1.666-4.861c-1.043-1.11-2.414-1.666-4.114-1.666
		c-1.021,0-1.927,0.221-2.72,0.662c-0.795,0.442-1.406,1.129-1.836,2.058h-0.408v-2.244h-6.12V884.664z M296.342,895.425
		c-1.008-1.076-1.514-2.578-1.514-4.505v-0.544c0-0.906,0.137-1.739,0.409-2.499c0.271-0.759,0.651-1.405,1.14-1.938
		c0.486-0.531,1.059-0.945,1.716-1.24c0.657-0.294,1.382-0.442,2.177-0.442c0.77,0,1.488,0.153,2.158,0.459
		c0.668,0.306,1.246,0.731,1.734,1.275c0.487,0.544,0.867,1.195,1.139,1.954c0.271,0.761,0.408,1.594,0.408,2.499v0.408
		c0,0.931-0.137,1.774-0.408,2.533c-0.271,0.76-0.646,1.411-1.121,1.955c-0.477,0.544-1.051,0.964-1.719,1.258
		c-0.668,0.295-1.398,0.442-2.191,0.442C298.659,897.04,297.35,896.502,296.342,895.425 M305.709,896.428
		c0,0.771,0.242,1.406,0.73,1.904c0.486,0.499,1.117,0.748,1.888,0.748h1.802v-2.448h-0.85c-0.611,0-0.918-0.34-0.918-1.021v-13.396
		h-2.652v2.652h-0.408c-0.544-1.065-1.287-1.854-2.227-2.363c-0.941-0.51-1.988-0.765-3.145-0.765c-1.066,0-2.074,0.192-3.027,0.577
		c-0.951,0.387-1.784,0.947-2.498,1.684c-0.714,0.737-1.275,1.638-1.684,2.703c-0.407,1.065-0.611,2.29-0.611,3.672v0.544
		c0,1.406,0.204,2.641,0.611,3.706c0.408,1.065,0.97,1.967,1.684,2.703s1.547,1.292,2.498,1.666
		c0.953,0.374,1.982,0.561,3.094,0.561c1.066,0,2.08-0.271,3.044-0.815c0.963-0.544,1.717-1.383,2.261-2.517h0.408V896.428z
		 M288.912,882.216h-3.127l-5.168,15.64h-0.408l-5.168-15.64h-3.129l5.883,16.864h5.236L288.912,882.216z M241.568,884.596
		c0.623,0.228,1.178,0.544,1.666,0.952c0.486,0.408,0.884,0.907,1.189,1.496c0.307,0.59,0.481,1.247,0.527,1.972H234.07
		c0.09-0.68,0.289-1.309,0.596-1.887s0.701-1.082,1.189-1.513s1.055-0.766,1.701-1.003c0.646-0.238,1.342-0.357,2.09-0.357
		C240.305,884.256,240.943,884.37,241.568,884.596 M247.604,891.464v-2.176c0-0.748-0.153-1.564-0.459-2.448
		c-0.307-0.884-0.782-1.7-1.428-2.448c-0.646-0.748-1.475-1.377-2.482-1.887c-1.01-0.51-2.205-0.765-3.588-0.765
		c-1.178,0-2.271,0.21-3.28,0.629c-1.009,0.42-1.888,0.998-2.636,1.733c-0.748,0.737-1.332,1.615-1.75,2.636
		c-0.42,1.02-0.629,2.119-0.629,3.298v0.815c0,1.292,0.203,2.472,0.611,3.536c0.408,1.066,0.975,1.984,1.7,2.754
		c0.726,0.771,1.593,1.366,2.601,1.785s2.113,0.629,3.315,0.629c2.177,0,3.903-0.493,5.185-1.479
		c1.281-0.986,2.16-2.262,2.635-3.825l-2.516-0.68c-0.158,0.476-0.369,0.924-0.629,1.343c-0.26,0.42-0.601,0.788-1.02,1.104
		c-0.42,0.318-0.924,0.567-1.514,0.748c-0.59,0.183-1.281,0.272-2.074,0.272c-1.745,0-3.105-0.51-4.08-1.53
		c-0.975-1.02-1.496-2.368-1.562-4.046H247.604z M216.766,896.615c-0.68-0.283-1.275-0.691-1.785-1.225
		c-0.51-0.532-0.907-1.173-1.19-1.921c-0.284-0.748-0.425-1.598-0.425-2.55v-0.544c0-0.906,0.141-1.734,0.425-2.482
		c0.283-0.748,0.681-1.394,1.19-1.938s1.109-0.963,1.802-1.258c0.69-0.294,1.433-0.442,2.228-0.442c0.77,0,1.5,0.153,2.192,0.459
		c0.69,0.306,1.292,0.731,1.802,1.275s0.912,1.195,1.207,1.954c0.295,0.761,0.442,1.594,0.442,2.499v0.408
		c0,0.931-0.147,1.774-0.442,2.533c-0.295,0.76-0.697,1.411-1.207,1.955s-1.105,0.964-1.785,1.258
		c-0.68,0.295-1.416,0.442-2.209,0.442C218.193,897.04,217.445,896.898,216.766,896.615 M224.653,899.08h2.651v-23.8h-2.651v9.588
		h-0.409c-0.543-1.065-1.32-1.854-2.328-2.363c-1.009-0.51-2.091-0.765-3.246-0.765c-1.09,0-2.121,0.192-3.095,0.577
		c-0.976,0.387-1.825,0.947-2.55,1.684c-0.727,0.737-1.305,1.644-1.734,2.72c-0.43,1.077-0.646,2.295-0.646,3.655v0.544
		c0,1.383,0.209,2.613,0.63,3.688c0.419,1.077,0.997,1.979,1.733,2.703c0.736,0.727,1.592,1.281,2.567,1.666
		c0.974,0.386,2.028,0.578,3.162,0.578c0.497,0,1.021-0.062,1.563-0.187c0.545-0.125,1.059-0.312,1.547-0.562
		c0.488-0.249,0.939-0.565,1.361-0.952c0.418-0.385,0.764-0.838,1.035-1.359h0.409V899.08z M173.534,895.425
		c-1.009-1.076-1.513-2.578-1.513-4.505v-0.544c0-0.906,0.135-1.739,0.408-2.499c0.271-0.759,0.65-1.405,1.139-1.938
		c0.486-0.531,1.059-0.945,1.717-1.24c0.657-0.294,1.383-0.442,2.176-0.442c0.77,0,1.49,0.153,2.158,0.459s1.247,0.731,1.734,1.275
		c0.488,0.544,0.867,1.195,1.139,1.954c0.273,0.761,0.409,1.594,0.409,2.499v0.408c0,0.931-0.136,1.774-0.409,2.533
		c-0.271,0.76-0.645,1.411-1.121,1.955s-1.049,0.964-1.717,1.258c-0.669,0.295-1.4,0.442-2.193,0.442
		C175.852,897.04,174.543,896.502,173.534,895.425 M182.901,896.428c0,0.771,0.243,1.406,0.731,1.904
		c0.486,0.499,1.115,0.748,1.887,0.748h1.802v-2.448h-0.851c-0.611,0-0.918-0.34-0.918-1.021v-13.396h-2.651v2.652h-0.409
		c-0.543-1.065-1.286-1.854-2.227-2.363c-0.941-0.51-1.988-0.765-3.145-0.765c-1.066,0-2.074,0.192-3.025,0.577
		c-0.953,0.387-1.785,0.947-2.5,1.684c-0.713,0.737-1.274,1.638-1.684,2.703c-0.406,1.065-0.611,2.29-0.611,3.672v0.544
		c0,1.406,0.205,2.641,0.611,3.706c0.409,1.065,0.971,1.967,1.684,2.703c0.715,0.736,1.547,1.292,2.5,1.666
		c0.951,0.374,1.982,0.561,3.094,0.561c1.064,0,2.078-0.271,3.043-0.815c0.963-0.544,1.717-1.383,2.26-2.517h0.409V896.428z
		 M149.615,884.664h5.305v11.764c0,0.771,0.242,1.406,0.73,1.904c0.486,0.499,1.115,0.748,1.887,0.748h5.746v-2.448h-4.794
		c-0.612,0-0.919-0.34-0.919-1.021v-10.947h6.529v-2.448h-6.529v-6.936h-2.65v6.936h-5.305V884.664z M130.133,899.08h14.076v-2.448
		h-5.508v-14.416h-7.957v2.448h5.305v11.968h-5.916V899.08z M135.658,878.867c0.464,0.465,1.025,0.696,1.684,0.696
		c0.656,0,1.217-0.231,1.682-0.696s0.697-1.025,0.697-1.684c0-0.657-0.232-1.218-0.697-1.683c-0.465-0.464-1.025-0.697-1.682-0.697
		c-0.658,0-1.22,0.233-1.684,0.697c-0.465,0.465-0.697,1.025-0.697,1.683C134.961,877.842,135.193,878.402,135.658,878.867
		 M108.305,884.664h3.469v11.968h-3.877v2.448h10.812v-2.448h-4.283v-7.14c0-0.726,0.078-1.405,0.237-2.04
		c0.158-0.635,0.407-1.19,0.748-1.666c0.341-0.477,0.765-0.851,1.274-1.122c0.51-0.272,1.117-0.408,1.82-0.408
		c1.088,0,2.006,0.346,2.754,1.037s1.121,1.818,1.121,3.383l2.789-0.408c-0.068-2.13-0.625-3.751-1.666-4.861
		c-1.044-1.11-2.414-1.666-4.115-1.666c-1.02,0-1.926,0.221-2.719,0.662c-0.795,0.442-1.406,1.129-1.836,2.058h-0.408v-2.244h-6.121
		V884.664z M101.912,892.483c-0.09,0.591-0.266,1.156-0.525,1.7c-0.262,0.544-0.612,1.026-1.055,1.445
		c-0.441,0.42-0.975,0.76-1.598,1.02c-0.624,0.262-1.355,0.392-2.193,0.392c-0.839,0-1.621-0.142-2.346-0.425
		c-0.727-0.283-1.359-0.686-1.904-1.207c-0.544-0.521-0.969-1.161-1.275-1.922c-0.306-0.759-0.459-1.614-0.459-2.566v-0.408
		c0-0.906,0.153-1.745,0.459-2.516c0.307-0.771,0.731-1.434,1.275-1.989c0.545-0.555,1.174-0.986,1.887-1.292
		c0.715-0.306,1.479-0.459,2.295-0.459c0.838,0,1.576,0.125,2.211,0.374c0.634,0.25,1.172,0.584,1.615,1.003
		c0.441,0.42,0.793,0.907,1.053,1.462c0.26,0.556,0.426,1.128,0.494,1.717l2.65-0.611c-0.158-0.93-0.458-1.79-0.9-2.584
		c-0.441-0.793-1.008-1.479-1.699-2.058c-0.693-0.578-1.491-1.024-2.396-1.343c-0.908-0.317-1.894-0.476-2.959-0.476
		c-1.179,0-2.295,0.203-3.35,0.611c-1.053,0.408-1.977,0.986-2.77,1.734c-0.795,0.748-1.424,1.666-1.888,2.754
		c-0.465,1.088-0.696,2.312-0.696,3.672v0.408c0,1.383,0.231,2.606,0.696,3.672c0.464,1.066,1.093,1.967,1.888,2.703
		c0.793,0.737,1.717,1.298,2.77,1.683c1.055,0.386,2.171,0.578,3.35,0.578c1.109,0,2.119-0.159,3.025-0.476
		c0.906-0.317,1.701-0.766,2.381-1.344c0.68-0.577,1.24-1.263,1.684-2.057c0.441-0.793,0.752-1.654,0.935-2.584L101.912,892.483z
		 M72.129,885.497c0.205-0.307,0.477-0.562,0.816-0.766s0.73-0.356,1.173-0.459c0.442-0.102,0.901-0.152,1.377-0.152
		c1.224,0,2.215,0.306,2.976,0.918c0.758,0.611,1.195,1.462,1.309,2.55l2.516-0.612c-0.092-0.634-0.289-1.269-0.596-1.903
		c-0.305-0.635-0.742-1.195-1.309-1.684c-0.566-0.487-1.27-0.884-2.107-1.189c-0.84-0.307-1.814-0.459-2.924-0.459
		c-0.794,0-1.553,0.102-2.279,0.306c-0.725,0.204-1.377,0.51-1.953,0.918c-0.578,0.408-1.037,0.913-1.377,1.513
		c-0.34,0.602-0.511,1.298-0.511,2.091v0.204c0,1.475,0.521,2.597,1.563,3.366c1.043,0.771,2.539,1.224,4.488,1.36
		c1.678,0.113,2.891,0.374,3.639,0.782c0.748,0.407,1.121,1.088,1.121,2.039c0,0.885-0.379,1.57-1.139,2.058
		c-0.76,0.488-1.763,0.73-3.01,0.73c-1.473,0-2.65-0.391-3.535-1.173s-1.383-1.818-1.496-3.11l-2.516,0.611
		c0.045,0.748,0.225,1.491,0.543,2.228s0.787,1.394,1.412,1.972c0.623,0.578,1.404,1.043,2.346,1.395
		c0.939,0.351,2.068,0.526,3.383,0.526c0.975,0,1.875-0.119,2.703-0.356c0.827-0.238,1.529-0.583,2.107-1.037
		c0.578-0.453,1.031-1.003,1.36-1.649c0.328-0.646,0.493-1.377,0.493-2.193v-0.203c0-1.496-0.516-2.636-1.547-3.417
		c-1.031-0.782-2.533-1.252-4.506-1.411c-1.836-0.137-3.1-0.419-3.789-0.851c-0.693-0.43-1.038-1.054-1.038-1.87
		C71.823,886.16,71.926,885.803,72.129,885.497 M48.092,899.08h14.619v-2.652H50.947v-7.956h11.355v-2.652H50.947v-7.888h11.561
		v-2.651H48.092V899.08z"/>
	<polygon clip-path="url(#SVGID_4_)" fill="none" stroke="#0046F9" stroke-width="1.998" points="1,3 1,999 1,1001.002 3,1001.002 
		561,1001.002 563.002,1001.002 563.002,999 563.002,3 563.002,0.998 561,0.998 3,0.998 1,0.998 	"/>
</g>
<rect x="5.002" y="5.002" fill="none" stroke="#0046F9" stroke-width="1.998" width="553.998" height="991.996"/>
<g>
	<defs>
		<rect id="SVGID_141_" width="564" height="1002"/>
	</defs>
	<clipPath id="SVGID_6_">
		<use xlink:href="#SVGID_141_"  overflow="visible"/>
	</clipPath>
	<path clip-path="url(#SVGID_6_)" fill="#0046F9" d="M469.375,78.311l7.226-18.438l7.54,18.438H469.375z M452.85,97.958h17.853
		v-3.086c-1.042,0-1.999-0.026-2.871-0.078s-1.628-0.149-2.266-0.293s-1.132-0.325-1.485-0.547c-0.351-0.222-0.525-0.515-0.525-0.88
		c0-0.129,0.012-0.233,0.039-0.312l4.569-11.366h17.187l5.391,13.476h-7.538v3.086H527.5v-3.086h-6.798l-23.556-52.267H480
		L459.881,92.88c-0.312,0.755-1.033,1.276-2.168,1.562c-1.133,0.287-2.753,0.431-4.863,0.431V97.958z M397.579,97.958h40.587v-3.086
		h-6.838v-49.22h5.666l9.53,19.297h2.733V42.605h-62.772v22.344h2.695l9.569-19.297h5.625v49.22h-6.796V97.958z M337.854,97.958
		h40.586v-3.086h-6.797v-49.22h6.797v-3.047h-40.586v3.047h6.837v49.22h-6.837V97.958z M290.746,45.652
		c1.406,0,2.631,0.164,3.672,0.489c1.041,0.326,1.906,0.911,2.598,1.757c0.689,0.848,1.205,2.006,1.543,3.478
		s0.508,3.366,0.508,5.685c0,2.317-0.17,4.225-0.508,5.721c-0.338,1.498-0.854,2.677-1.543,3.535
		c-0.691,0.86-1.557,1.459-2.598,1.797c-1.041,0.34-2.266,0.509-3.672,0.509V45.652z M256.957,97.958h40.586v-3.086h-6.797V71.708
		c1.275,0,2.376,0.182,3.301,0.547s1.674,1.035,2.246,2.012c0.572,0.976,0.996,2.312,1.27,4.005c0.273,1.692,0.41,3.866,0.41,6.522
		c0,2.422,0.248,4.557,0.742,6.405c0.494,1.851,1.348,3.399,2.559,4.649s2.832,2.193,4.863,2.832
		c2.031,0.638,4.584,0.957,7.656,0.957c3.203,0,5.847-0.241,7.93-0.723c2.083-0.482,3.744-1.269,4.98-2.363
		c1.236-1.094,2.096-2.526,2.578-4.297s0.723-3.944,0.723-6.524v-1.25h-3.281c0,3.152-0.195,5.562-0.586,7.228
		c-0.391,1.667-1.016,2.5-1.875,2.5c-0.521,0-0.893-0.208-1.113-0.625c-0.221-0.416-0.332-1.028-0.332-1.836v-1.388
		c0-0.402,0.025-0.981,0.078-1.737c0.025-0.729,0.045-1.36,0.059-1.894c0.014-0.535,0.02-1.179,0.02-1.935
		c0-2.733-0.482-4.993-1.445-6.777c-0.965-1.784-2.494-3.204-4.59-4.258c-2.096-1.055-4.799-1.797-8.105-2.228
		c-3.308-0.428-7.305-0.656-11.992-0.683c5.234-0.026,9.603-0.358,13.105-0.995c3.502-0.639,6.302-1.543,8.398-2.716
		c2.096-1.172,3.58-2.604,4.453-4.297c0.871-1.692,1.309-3.62,1.309-5.78c0-2.475-0.502-4.623-1.504-6.447
		c-1.004-1.821-2.461-3.325-4.375-4.51c-1.914-1.186-4.271-2.064-7.07-2.638c-2.8-0.573-5.983-0.86-9.551-0.86h-44.648v3.047h6.836
		v49.22h-6.836V97.958z M186.295,82.88c1.562,3.412,3.781,6.349,6.659,8.808c2.878,2.461,6.349,4.369,10.411,5.723
		c4.062,1.354,8.594,2.031,13.594,2.031c5.129,0,9.479-0.677,13.047-2.031c3.566-1.354,6.484-3.215,8.75-5.586
		c2.266-2.368,3.951-5.143,5.059-8.319c1.105-3.177,1.764-6.603,1.972-10.274h-3.437c-0.34,3.803-1.074,7.059-2.207,9.767
		c-1.133,2.709-2.572,4.922-4.317,6.641c-1.745,1.718-3.75,2.976-6.015,3.769c-2.266,0.795-4.701,1.192-7.305,1.192
		c-1.328,0-2.553-0.163-3.672-0.489c-1.121-0.324-2.131-0.879-3.027-1.66c-0.898-0.78-1.68-1.821-2.344-3.125
		c-0.664-1.301-1.225-2.941-1.68-4.922c-0.456-1.978-0.795-4.321-1.016-7.03c-0.223-2.708-0.332-5.847-0.332-9.414
		c0-3.411,0.148-6.328,0.449-8.75c0.299-2.423,0.703-4.459,1.211-6.113c0.508-1.653,1.113-2.962,1.815-3.926
		c0.704-0.963,1.459-1.699,2.267-2.207c0.807-0.508,1.646-0.833,2.52-0.978c0.872-0.142,1.75-0.215,2.637-0.215
		c1.848,0,3.809,0.334,5.879,0.997c2.07,0.664,4.062,1.81,5.977,3.438s3.672,3.809,5.273,6.543
		c1.602,2.733,2.871,6.172,3.809,10.313h3.047V41.708h-2.696l-4.804,7.187c-2.917-2.734-6.094-4.713-9.532-5.937
		c-3.437-1.224-7.161-1.836-11.171-1.836c-5.521,0-10.352,0.774-14.493,2.323c-4.14,1.551-7.597,3.687-10.37,6.408
		c-2.773,2.721-4.851,5.943-6.23,9.666c-1.381,3.726-2.071,7.748-2.071,12.071C183.95,75.706,184.732,79.469,186.295,82.88
		 M115.827,98.699h2.931l6.64-7.461c1.901,1.382,3.749,2.586,5.546,3.615c1.797,1.028,3.615,1.881,5.449,2.557
		c1.837,0.678,3.732,1.186,5.684,1.525c1.954,0.338,4.037,0.506,6.251,0.506c4.036,0,7.591-0.553,10.664-1.66
		c3.073-1.105,5.646-2.609,7.715-4.51c2.069-1.901,3.626-4.115,4.669-6.642c1.041-2.526,1.562-5.208,1.562-8.047
		c0-2.448-0.294-4.609-0.878-6.484c-0.586-1.875-1.413-3.542-2.482-5c-1.066-1.459-2.35-2.728-3.847-3.809
		c-1.497-1.08-3.164-2.044-5-2.892c-1.837-0.846-3.808-1.601-5.919-2.265c-2.108-0.664-4.295-1.295-6.561-1.896
		c-5.34-1.405-9.357-2.793-12.052-4.159c-2.694-1.367-4.044-2.794-4.044-4.277c0-0.912,0.326-1.621,0.979-2.129
		c0.649-0.508,1.426-0.879,2.323-1.112c0.897-0.236,1.816-0.373,2.755-0.412c0.936-0.039,1.705-0.058,2.305-0.058
		c3.15,0,6.131,0.378,8.945,1.133c2.812,0.755,5.377,1.784,7.693,3.087c2.318,1.301,4.376,2.838,6.173,4.608
		c1.798,1.771,3.269,3.685,4.413,5.741h2.462V41.669h-2.694l-5.9,5.703c-1.223-0.911-2.656-1.751-4.297-2.519
		c-1.639-0.769-3.385-1.427-5.234-1.974c-1.848-0.547-3.742-0.978-5.684-1.289c-1.939-0.313-3.795-0.469-5.565-0.469
		c-3.464,0-6.726,0.448-9.784,1.348c-3.061,0.897-5.729,2.201-8.009,3.906c-2.278,1.706-4.075,3.81-5.392,6.31
		c-1.314,2.5-1.971,5.35-1.971,8.553c0,5.132,1.842,9.474,5.526,13.028c3.685,3.554,9.356,6.322,17.013,8.3
		c3.436,0.912,6.426,1.733,8.965,2.461c2.539,0.73,4.641,1.453,6.307,2.168c1.668,0.718,2.91,1.459,3.732,2.228
		c0.819,0.769,1.229,1.647,1.229,2.638c0,0.937-0.318,1.686-0.957,2.245c-0.637,0.56-1.425,0.99-2.361,1.289
		c-0.939,0.3-1.941,0.495-3.01,0.586c-1.066,0.091-2.029,0.136-2.891,0.136c-2.942,0-5.65-0.305-8.125-0.918
		c-2.473-0.61-4.738-1.425-6.795-2.44c-2.059-1.017-3.92-2.194-5.586-3.535c-1.668-1.341-3.152-2.741-4.453-4.199
		c-1.303-1.459-2.438-2.923-3.399-4.395c-0.964-1.472-1.771-2.845-2.423-4.121h-2.616V98.699z M38.562,97.958h62.384V77.099h-2.694
		l-11.33,17.773H72.353V71.941h5.899l5.155,12.969h2.539V56.005h-2.539l-5.155,12.892h-5.899V45.652h13.202L96.416,61.63h2.654
		V42.605H38.562v3.047h6.836v49.22h-6.836V97.958z"/>
</g>
<line fill="none" stroke="#0046F9" stroke-width="2" x1="23.479" y1="132" x2="536.479" y2="132"/>
<line fill="none" stroke="#0046F9" stroke-width="2" x1="23.479" y1="616" x2="536.479" y2="616"/>
<line fill="none" stroke="#0046F9" stroke-width="2" x1="23.479" y1="830" x2="536.479" y2="830"/>
<g>
	<defs>
		<rect id="SVGID_143_" width="564" height="1002"/>
	</defs>
	<clipPath id="SVGID_8_">
		<use xlink:href="#SVGID_143_"  overflow="visible"/>
	</clipPath>
	<path clip-path="url(#SVGID_8_)" fill="#0046F9" d="M443.438,781c11.916-13.619,22.982-24.116,32.629-31.493
		c11.065-8.512,20.995-14.186,29.508-17.022v-6.526c-11.916-5.107-22.131-11.065-30.358-18.725
		c-16.456-15.037-27.237-25.535-31.778-31.21h-19.575c4.54,9.646,9.362,18.441,14.186,26.386c3.972,5.959,8.228,11.633,13.62,17.307
		H315.956v17.308h135.995c-7.377,9.078-11.633,15.037-13.903,18.726c-5.958,9.646-10.782,18.158-13.618,25.251H443.438z"/>
</g>
</svg>
