<?xml version="1.0" encoding="utf-8"?>
<!-- Generator: Adobe Illustrator 16.0.0, SVG Export Plug-In . SVG Version: 6.00 Build 0)  -->
<!DOCTYPE svg PUBLIC "-//W3C//DTD SVG 1.1//EN" "http://www.w3.org/Graphics/SVG/1.1/DTD/svg11.dtd">
<svg version="1.1" id="Layer_1" xmlns="http://www.w3.org/2000/svg" xmlns:xlink="http://www.w3.org/1999/xlink" x="0px" y="0px"
	 width="564px" height="1002px" viewBox="0 0 564 1002" enable-background="new 0 0 564 1002" xml:space="preserve">
<g>
	<defs>
		<rect id="SVGID_1_" width="564" height="1002"/>
	</defs>
	<clipPath id="SVGID_2_">
		<use xlink:href="#SVGID_1_"  overflow="visible"/>
	</clipPath>
	<path clip-path="url(#SVGID_2_)" fill="#FF1419" d="M499.602,64.354V77.21h16.845c0,4.256-1.582,7.669-4.743,10.24
		c-3.163,2.571-6.871,3.856-11.127,3.856c-5.142,0-9.53-2.201-13.165-6.604s-5.452-9.708-5.452-15.914
		c0-6.323,1.817-11.716,5.452-16.179c3.635-4.462,8.023-6.694,13.165-6.694c6.974,0,12.412,3.134,16.312,9.398l10.904-11.969
		c-6.915-8.333-16.312-12.5-28.191-12.5c-10.166,0-18.648,3.665-25.444,10.993c-6.797,7.329-10.195,16.313-10.195,26.951
		c0,10.461,3.472,19.387,10.417,26.774c6.944,7.389,15.352,11.082,25.223,11.082c7.859,0,14.982-2.23,21.365-6.694
		c6.383-4.461,10.52-11.037,12.412-19.725v-15.87H499.602z M397.117,59.923l29.079,45.391h16.667v-73.14h-16.667v45.391h-0.177
		L396.94,32.174h-16.667v73.14h16.667V59.923H397.117z M339.227,105.313h16.667v-73.14h-16.667V105.313z M276.725,47.068h2.571
		c6.146,0,11.155,2.069,15.027,6.206c3.87,4.137,5.807,9.308,5.807,15.514c-0.06,6.206-2.025,11.363-5.896,15.47
		c-3.872,4.109-8.853,6.162-14.938,6.162h-2.571V47.068z M260.058,105.313h21.188c10.225,0,18.928-3.471,26.109-10.417
		c7.181-6.944,10.771-15.677,10.771-26.197c0-10.462-3.605-19.164-10.815-26.109c-7.213-6.944-15.9-10.417-26.065-10.417h-21.188
		V105.313z M198,76.058l8.156-21.277h0.177l8.156,21.277H198z M198.532,32.174l-29.523,73.14h17.909l5.408-14.628h27.837
		l5.408,14.628h17.909l-29.523-73.14H198.532z M111.119,32.174v73.14h41.845V90.686h-25.178V75.969h24.115V61.341h-24.115V46.802
		h25.178V32.174H111.119z M50.569,45.472h1.951c1.536,0,2.836,0.03,3.9,0.089c1.064,0.059,2.275,0.266,3.635,0.62
		c1.359,0.355,2.452,0.858,3.28,1.507c0.827,0.651,1.537,1.596,2.128,2.837c0.59,1.241,0.887,2.749,0.887,4.522
		s-0.297,3.28-0.887,4.521c-0.591,1.241-1.301,2.187-2.128,2.837c-0.828,0.651-1.921,1.153-3.28,1.507
		c-1.36,0.355-2.571,0.563-3.635,0.621c-1.064,0.059-2.364,0.088-3.9,0.088h-1.951V45.472z M33.902,105.313h16.667V76.413
		l22.341,28.901h21.189l-25.178-30.23c4.61-1.477,8.258-4.034,10.949-7.669c2.688-3.635,4.033-8.141,4.033-13.52
		c0-6.973-2.216-12.337-6.649-16.091c-4.433-3.752-10.166-5.629-17.199-5.629H33.902V105.313z"/>
	<path clip-path="url(#SVGID_2_)" fill="#231F20" d="M420.77,531.549c2.707,0,4.771-0.53,6.194-1.592
		c1.423-1.062,2.136-2.444,2.136-4.148c0-1.516-0.566-2.712-1.697-3.587c-1.132-0.875-2.981-1.534-5.548-1.978
		c-1.19-0.233-2.024-0.473-2.502-0.718c-0.479-0.244-0.719-0.543-0.719-0.893c0-0.373,0.233-0.688,0.7-0.945
		c0.467-0.256,1.12-0.385,1.96-0.385c1.073,0,1.995,0.188,2.766,0.561c0.77,0.374,1.435,0.969,1.995,1.784l3.079-3.01
		c-0.793-1.096-1.825-1.919-3.097-2.467s-2.911-0.823-4.918-0.823c-1.82,0-3.366,0.275-4.637,0.823
		c-1.272,0.548-2.224,1.266-2.854,2.152s-0.944,1.832-0.944,2.835c0,1.47,0.554,2.648,1.663,3.534
		c1.107,0.888,2.969,1.588,5.582,2.101c1.166,0.233,1.988,0.473,2.468,0.718c0.478,0.245,0.717,0.531,0.717,0.857
		c0,0.374-0.233,0.671-0.7,0.893s-1.107,0.332-1.925,0.332c-2.45,0-4.177-0.828-5.18-2.485l-3.08,3.36
		C413.909,530.522,416.756,531.549,420.77,531.549 M401.415,517.514c1.866,0,2.94,1.145,3.22,3.43h-6.58
		C398.405,518.658,399.525,517.514,401.415,517.514 M410.2,522.204c0-2.8-0.753-4.976-2.258-6.527s-3.669-2.328-6.492-2.328
		c-2.917,0-5.169,0.794-6.755,2.38c-1.587,1.587-2.38,3.827-2.38,6.721s0.81,5.134,2.432,6.72c1.622,1.587,3.961,2.38,7.019,2.38
		c2.053,0,3.784-0.39,5.196-1.172s2.363-1.919,2.854-3.413l-4.83-1.54c-0.188,0.63-0.556,1.109-1.104,1.435
		c-0.548,0.327-1.254,0.49-2.116,0.49c-1.027,0-1.851-0.256-2.469-0.77c-0.617-0.514-1.021-1.318-1.207-2.415h11.936
		C410.142,523.65,410.2,522.998,410.2,522.204 M381.535,513.349c-2.894,0-5.151,0.8-6.771,2.398
		c-1.623,1.598-2.434,3.832-2.434,6.702c0,2.894,0.816,5.134,2.45,6.72c1.633,1.587,3.966,2.38,7,2.38
		c2.355,0,4.252-0.495,5.687-1.487c1.436-0.992,2.281-2.28,2.538-3.868l-5.354-1.715c-0.28,1.891-1.249,2.835-2.905,2.835
		c-2.31,0-3.465-1.598-3.465-4.795c0-3.29,1.155-4.935,3.465-4.935c1.563,0,2.461,1.004,2.695,3.01l5.529-1.82
		c-0.326-1.609-1.154-2.916-2.484-3.92C386.155,513.851,384.171,513.349,381.535,513.349 M362.95,513.349
		c-1.377,0-2.578,0.311-3.605,0.928c-1.026,0.618-1.819,1.547-2.38,2.782l-0.175-3.359h-5.32v17.5h5.95v-9.24
		c0-1.376,0.292-2.397,0.875-3.062c0.583-0.666,1.342-0.998,2.275-0.998c0.793,0,1.406,0.251,1.838,0.753
		c0.431,0.503,0.646,1.348,0.646,2.537v10.011h5.95v-11.655c0-1.983-0.548-3.511-1.645-4.585
		C366.264,513.886,364.793,513.349,362.95,513.349 M339.361,517.514c1.866,0,2.939,1.145,3.22,3.43h-6.58
		C336.352,518.658,337.471,517.514,339.361,517.514 M348.146,522.204c0-2.8-0.753-4.976-2.258-6.527
		c-1.506-1.552-3.67-2.328-6.492-2.328c-2.917,0-5.169,0.794-6.755,2.38c-1.587,1.587-2.381,3.827-2.381,6.721
		s0.811,5.134,2.433,6.72c1.622,1.587,3.961,2.38,7.018,2.38c2.054,0,3.785-0.39,5.197-1.172s2.363-1.919,2.853-3.413l-4.829-1.54
		c-0.188,0.63-0.556,1.109-1.104,1.435c-0.548,0.327-1.254,0.49-2.117,0.49c-1.026,0-1.85-0.256-2.468-0.77
		s-1.021-1.318-1.207-2.415h11.935C348.087,523.65,348.146,522.998,348.146,522.204 M320.881,513.699v9.274
		c0,1.354-0.292,2.363-0.875,3.028c-0.584,0.665-1.364,0.997-2.345,0.997c-0.817,0-1.424-0.233-1.82-0.7
		c-0.396-0.466-0.595-1.271-0.595-2.415v-10.185h-5.95v11.689c0,2.124,0.53,3.681,1.593,4.673c1.062,0.992,2.525,1.487,4.393,1.487
		c2.939,0,4.958-1.201,6.055-3.605l0.175,3.256h5.32v-17.5H320.881z M295.961,527.174c-2.193,0-3.29-1.575-3.29-4.725
		c0-3.15,1.097-4.726,3.29-4.726c1.003,0,1.79,0.392,2.362,1.173c0.572,0.782,0.858,1.907,0.858,3.377v0.351
		c0,1.446-0.28,2.566-0.841,3.359C297.781,526.777,296.987,527.174,295.961,527.174 M299.916,513.699l-0.21,3.675
		c-0.49-1.236-1.243-2.216-2.258-2.94c-1.015-0.723-2.211-1.085-3.587-1.085c-2.264,0-4.025,0.794-5.285,2.38
		c-1.26,1.587-1.89,3.805-1.89,6.65c0,2.894,0.635,5.145,1.906,6.755c1.272,1.61,3.039,2.415,5.304,2.415
		c1.213,0,2.269-0.286,3.167-0.857c0.897-0.571,1.604-1.371,2.118-2.397v10.255h5.949v-24.85H299.916z M275.276,517.514
		c1.867,0,2.94,1.145,3.22,3.43h-6.58C272.266,518.658,273.386,517.514,275.276,517.514 M284.062,522.204
		c0-2.8-0.752-4.976-2.257-6.527c-1.505-1.552-3.67-2.328-6.493-2.328c-2.917,0-5.168,0.794-6.755,2.38
		c-1.587,1.587-2.38,3.827-2.38,6.721s0.811,5.134,2.433,6.72c1.621,1.587,3.96,2.38,7.017,2.38c2.053,0,3.786-0.39,5.198-1.172
		c1.411-0.782,2.362-1.919,2.852-3.413l-4.83-1.54c-0.187,0.63-0.554,1.109-1.102,1.435c-0.549,0.327-1.255,0.49-2.118,0.49
		c-1.027,0-1.849-0.256-2.467-0.77c-0.619-0.514-1.021-1.318-1.208-2.415h11.935C284.003,523.65,284.062,522.998,284.062,522.204
		 M255.711,531.549c2.707,0,4.772-0.53,6.195-1.592c1.423-1.062,2.135-2.444,2.135-4.148c0-1.516-0.566-2.712-1.697-3.587
		c-1.132-0.875-2.981-1.534-5.548-1.978c-1.19-0.233-2.024-0.473-2.502-0.718c-0.479-0.244-0.718-0.543-0.718-0.893
		c0-0.373,0.233-0.688,0.7-0.945c0.467-0.256,1.12-0.385,1.96-0.385c1.073,0,1.995,0.188,2.765,0.561
		c0.77,0.374,1.435,0.969,1.995,1.784l3.08-3.01c-0.793-1.096-1.826-1.919-3.097-2.467c-1.272-0.548-2.911-0.823-4.918-0.823
		c-1.82,0-3.366,0.275-4.637,0.823c-1.272,0.548-2.223,1.266-2.853,2.152s-0.945,1.832-0.945,2.835c0,1.47,0.554,2.648,1.663,3.534
		c1.108,0.888,2.969,1.588,5.582,2.101c1.167,0.233,1.989,0.473,2.468,0.718c0.478,0.245,0.717,0.531,0.717,0.857
		c0,0.374-0.233,0.671-0.7,0.893c-0.467,0.222-1.108,0.332-1.925,0.332c-2.45,0-4.177-0.828-5.18-2.485l-3.08,3.36
		C248.851,530.522,251.698,531.549,255.711,531.549 M235.342,526.544c-0.724,0.514-1.564,0.77-2.52,0.77
		c-1.54,0-2.31-0.78-2.31-2.345v-7.035h5.25v-4.234h-5.25v-5.565l-5.95,1.646v3.92h-3.01v4.234h3.01v8.016
		c0.023,1.96,0.583,3.384,1.68,4.27c1.096,0.887,2.683,1.33,4.76,1.33c0.91,0,1.814-0.122,2.712-0.367s1.639-0.565,2.223-0.963
		L235.342,526.544z M213.117,513.349c-1.377,0-2.579,0.311-3.605,0.928c-1.027,0.618-1.82,1.547-2.38,2.782l-0.175-3.359h-5.32v17.5
		h5.95v-9.24c0-1.376,0.291-2.397,0.875-3.062c0.583-0.666,1.341-0.998,2.275-0.998c0.793,0,1.405,0.251,1.837,0.753
		c0.432,0.503,0.648,1.348,0.648,2.537v10.011h5.95v-11.655c0-1.983-0.549-3.511-1.645-4.585
		C216.43,513.886,214.96,513.349,213.117,513.349 M189.527,517.514c1.867,0,2.94,1.145,3.22,3.43h-6.58
		C186.517,518.658,187.637,517.514,189.527,517.514 M198.312,522.204c0-2.8-0.752-4.976-2.257-6.527s-3.67-2.328-6.493-2.328
		c-2.917,0-5.168,0.794-6.755,2.38c-1.587,1.587-2.38,3.827-2.38,6.721s0.811,5.134,2.433,6.72c1.621,1.587,3.96,2.38,7.017,2.38
		c2.053,0,3.786-0.39,5.198-1.172c1.411-0.782,2.362-1.919,2.852-3.413l-4.83-1.54c-0.187,0.63-0.554,1.109-1.102,1.435
		c-0.549,0.327-1.255,0.49-2.118,0.49c-1.027,0-1.849-0.256-2.467-0.77c-0.619-0.514-1.021-1.318-1.208-2.415h11.935
		C198.254,523.65,198.312,522.998,198.312,522.204 M177.242,513.349c-1.33,0-2.444,0.356-3.342,1.068
		c-0.899,0.712-1.558,1.731-1.978,3.062l-0.245-3.779h-5.25v17.5h5.95v-8.82c0-1.33,0.373-2.35,1.12-3.062
		c0.747-0.712,1.68-1.067,2.8-1.067c0.443,0,0.863,0.053,1.26,0.158c0.397,0.104,0.712,0.227,0.945,0.366l0.63-5.04
		C178.665,513.478,178.035,513.349,177.242,513.349 M154.318,517.514c1.866,0,2.94,1.145,3.22,3.43h-6.58
		C151.308,518.658,152.428,517.514,154.318,517.514 M163.103,522.204c0-2.8-0.753-4.976-2.258-6.527s-3.669-2.328-6.492-2.328
		c-2.917,0-5.169,0.794-6.755,2.38c-1.587,1.587-2.38,3.827-2.38,6.721s0.81,5.134,2.432,6.72c1.622,1.587,3.961,2.38,7.018,2.38
		c2.053,0,3.785-0.39,5.197-1.172s2.363-1.919,2.853-3.413l-4.83-1.54c-0.187,0.63-0.555,1.109-1.103,1.435
		c-0.548,0.327-1.254,0.49-2.117,0.49c-1.027,0-1.85-0.256-2.468-0.77s-1.021-1.318-1.207-2.415h11.935
		C163.044,523.65,163.103,522.998,163.103,522.204 M138.533,512.474c0-1.68,0.968-2.52,2.905-2.52c0.816,0,1.481,0.187,1.995,0.56
		l0.595-3.71c-0.864-0.676-2.205-1.015-4.025-1.015c-2.1,0-3.804,0.524-5.11,1.575c-1.307,1.05-1.96,2.625-1.96,4.725v1.61h-2.8
		v4.234h2.8v13.266h5.95v-13.266h4.97v-4.234h-5.32V512.474z M125.443,512.474c0-1.68,0.968-2.52,2.905-2.52
		c0.816,0,1.481,0.187,1.995,0.56l0.595-3.71c-0.864-0.676-2.205-1.015-4.025-1.015c-2.1,0-3.804,0.524-5.11,1.575
		c-1.307,1.05-1.96,2.625-1.96,4.725v1.61h-2.8v4.234h2.8v13.266h5.95v-13.266h4.97v-4.234h-5.32V512.474z M114.418,513.699h-5.95
		v17.5h5.95V513.699z M111.443,511.669c1.213,0,2.094-0.228,2.643-0.683c0.548-0.454,0.822-1.173,0.822-2.152
		c0-1.003-0.274-1.732-0.822-2.188c-0.549-0.455-1.43-0.683-2.643-0.683c-1.213,0-2.094,0.228-2.642,0.683
		c-0.549,0.455-0.823,1.185-0.823,2.188c0,0.979,0.274,1.698,0.823,2.152C109.349,511.441,110.23,511.669,111.443,511.669
		 M95.028,527.174c-1.05,0-1.861-0.385-2.432-1.155c-0.572-0.77-0.858-1.96-0.858-3.569c0-1.61,0.286-2.801,0.858-3.57
		c0.571-0.771,1.382-1.155,2.432-1.155c0.957,0,1.721,0.351,2.293,1.05c0.571,0.7,0.892,1.692,0.962,2.976v1.399
		c-0.07,1.308-0.391,2.306-0.962,2.993C96.749,526.83,95.985,527.174,95.028,527.174 M98.283,506.279v10.359
		c-0.513-1.025-1.213-1.831-2.1-2.415c-0.887-0.583-1.948-0.875-3.185-0.875c-2.263,0-4.037,0.806-5.32,2.415
		c-1.283,1.61-1.925,3.862-1.925,6.755c0,2.848,0.636,5.064,1.908,6.65c1.271,1.587,3.039,2.38,5.302,2.38
		c1.307,0,2.456-0.327,3.448-0.98c0.991-0.652,1.744-1.551,2.257-2.694l0.21,3.325h5.355v-24.92H98.283z M63.809,517.584
		c1.12,0,1.948,0.385,2.485,1.155c0.536,0.77,0.805,2.007,0.805,3.71s-0.269,2.939-0.805,3.71c-0.537,0.77-1.365,1.154-2.485,1.154
		s-1.949-0.385-2.485-1.154c-0.537-0.771-0.805-2.007-0.805-3.71s0.268-2.94,0.805-3.71
		C61.86,517.969,62.689,517.584,63.809,517.584 M63.809,513.349c-2.917,0-5.186,0.8-6.808,2.398
		c-1.622,1.598-2.432,3.832-2.432,6.702c0,2.869,0.81,5.104,2.432,6.702c1.622,1.599,3.891,2.397,6.808,2.397
		c2.916,0,5.185-0.799,6.807-2.397c1.622-1.598,2.433-3.833,2.433-6.702c0-2.87-0.811-5.104-2.433-6.702
		C68.994,514.148,66.725,513.349,63.809,513.349 M52.294,526.544c-0.724,0.514-1.564,0.77-2.52,0.77c-1.54,0-2.31-0.78-2.31-2.345
		v-7.035h5.25v-4.234h-5.25v-5.565l-5.95,1.646v3.92h-3.01v4.234h3.01v8.016c0.023,1.96,0.583,3.384,1.68,4.27
		c1.096,0.887,2.683,1.33,4.76,1.33c0.91,0,1.814-0.122,2.713-0.367c0.897-0.245,1.638-0.565,2.222-0.963L52.294,526.544z"/>
	<path clip-path="url(#SVGID_2_)" fill="#231F20" d="M511.77,484.201c-3.244,0-4.865-0.537-4.865-1.61
		c0-0.42,0.204-0.73,0.612-0.927c0.407-0.199,1.091-0.298,2.048-0.298h4.795c0.77,0,1.317,0.093,1.645,0.28
		c0.326,0.186,0.49,0.466,0.49,0.84c0,0.513-0.403,0.928-1.208,1.243S513.31,484.201,511.77,484.201 M511.489,466.071
		c0.77,0,1.394,0.234,1.872,0.7c0.478,0.467,0.718,1.085,0.718,1.855s-0.24,1.382-0.718,1.837c-0.479,0.456-1.103,0.683-1.872,0.683
		c-0.771,0-1.396-0.227-1.873-0.683c-0.478-0.455-0.717-1.067-0.717-1.837s0.239-1.388,0.717-1.855
		C510.094,466.305,510.719,466.071,511.489,466.071 M514.814,476.641h-5.95c-1.214,0-1.82-0.396-1.82-1.19
		c0-0.63,0.361-1.038,1.085-1.225c0.98,0.21,2.101,0.315,3.36,0.315c2.706,0,4.806-0.513,6.3-1.54
		c1.493-1.026,2.24-2.485,2.24-4.375c0-2.193-0.98-3.803-2.94-4.83c0.233-0.49,0.612-0.875,1.138-1.155
		c0.524-0.28,1.184-0.42,1.978-0.42c0.187,0,0.513,0.024,0.98,0.07l-0.665-3.955l-0.561-0.035c-1.447,0-2.579,0.444-3.395,1.33
		c-0.817,0.887-1.342,2.03-1.575,3.43c-1.074-0.256-2.24-0.385-3.5-0.385c-2.707,0-4.807,0.52-6.3,1.558
		c-1.494,1.038-2.24,2.502-2.24,4.392c0,2.17,0.956,3.769,2.87,4.795c-0.887,0.303-1.587,0.77-2.101,1.4
		c-0.514,0.63-0.77,1.353-0.77,2.17c0,1.657,0.898,2.87,2.695,3.64c-1.098,0.257-1.914,0.676-2.45,1.26
		c-0.537,0.583-0.806,1.26-0.806,2.03c0,1.306,0.729,2.321,2.188,3.045c1.458,0.723,3.716,1.085,6.773,1.085
		c3.032,0,5.43-0.531,7.191-1.593s2.644-2.584,2.644-4.567c0-1.727-0.556-3.033-1.663-3.92
		C518.413,477.084,516.844,476.641,514.814,476.641 M493.499,462.676c-1.377,0-2.579,0.31-3.604,0.928
		c-1.027,0.618-1.82,1.546-2.381,2.782l-0.175-3.36h-5.319v17.5h5.949v-9.24c0-1.377,0.291-2.398,0.875-3.062
		c0.583-0.665,1.342-0.998,2.275-0.998c0.793,0,1.405,0.251,1.837,0.753c0.433,0.502,0.648,1.347,0.648,2.537v10.01h5.949v-11.655
		c0-1.983-0.549-3.512-1.645-4.585C496.812,463.212,495.342,462.676,493.499,462.676 M477.784,463.025h-5.95v17.5h5.95V463.025z
		 M474.81,460.996c1.213,0,2.094-0.228,2.643-0.683c0.548-0.454,0.822-1.172,0.822-2.152c0-1.003-0.274-1.732-0.822-2.187
		c-0.549-0.456-1.43-0.683-2.643-0.683c-1.214,0-2.095,0.227-2.643,0.683c-0.549,0.455-0.823,1.184-0.823,2.187
		c0,0.98,0.274,1.698,0.823,2.152C472.715,460.768,473.596,460.996,474.81,460.996 M458.396,476.5c-1.051,0-1.861-0.385-2.434-1.155
		c-0.571-0.77-0.856-1.96-0.856-3.57c0-1.61,0.285-2.8,0.856-3.57c0.572-0.77,1.383-1.155,2.434-1.155c0.956,0,1.72,0.35,2.292,1.05
		c0.571,0.7,0.893,1.692,0.963,2.975v1.4c-0.07,1.307-0.392,2.305-0.963,2.993C460.115,476.157,459.352,476.5,458.396,476.5
		 M461.65,455.605v10.36c-0.515-1.026-1.214-1.831-2.101-2.415c-0.887-0.583-1.948-0.875-3.185-0.875
		c-2.264,0-4.037,0.805-5.32,2.415c-1.284,1.61-1.925,3.862-1.925,6.755c0,2.847,0.635,5.064,1.907,6.65
		c1.271,1.587,3.039,2.38,5.303,2.38c1.306,0,2.455-0.327,3.447-0.98c0.992-0.653,1.744-1.551,2.258-2.695l0.21,3.325h5.355v-24.92
		H461.65z M445.83,462.676c-1.33,0-2.445,0.356-3.343,1.068c-0.898,0.712-1.558,1.732-1.978,3.062l-0.244-3.78h-5.25v17.5h5.949
		v-8.82c0-1.33,0.373-2.35,1.12-3.063c0.746-0.711,1.681-1.067,2.8-1.067c0.443,0,0.863,0.052,1.261,0.158
		c0.396,0.104,0.711,0.227,0.944,0.367l0.63-5.04C447.253,462.805,446.623,462.676,445.83,462.676 M422.345,466.911
		c1.12,0,1.948,0.385,2.485,1.155s0.805,2.007,0.805,3.71c0,1.703-0.268,2.94-0.805,3.71c-0.537,0.771-1.365,1.155-2.485,1.155
		c-1.119,0-1.947-0.385-2.484-1.155c-0.537-0.77-0.806-2.007-0.806-3.71c0-1.703,0.269-2.94,0.806-3.71
		S421.226,466.911,422.345,466.911 M422.345,462.676c-2.917,0-5.186,0.8-6.807,2.397c-1.622,1.599-2.433,3.833-2.433,6.703
		c0,2.87,0.811,5.105,2.433,6.703c1.621,1.598,3.89,2.397,6.807,2.397s5.187-0.799,6.809-2.397c1.621-1.598,2.432-3.833,2.432-6.703
		c0-2.87-0.811-5.104-2.432-6.703C427.531,463.476,425.262,462.676,422.345,462.676 M402.325,462.676
		c-2.893,0-5.151,0.8-6.772,2.397c-1.621,1.599-2.433,3.833-2.433,6.703c0,2.893,0.817,5.134,2.45,6.72
		c1.633,1.587,3.967,2.38,7,2.38c2.356,0,4.253-0.495,5.688-1.488c1.436-0.991,2.28-2.28,2.537-3.867l-5.354-1.715
		c-0.28,1.89-1.248,2.835-2.905,2.835c-2.31,0-3.465-1.598-3.465-4.795c0-3.29,1.155-4.935,3.465-4.935
		c1.563,0,2.462,1.003,2.695,3.01l5.529-1.82c-0.326-1.61-1.154-2.916-2.484-3.92C406.945,463.178,404.962,462.676,402.325,462.676
		 M382.34,462.676c-2.893,0-5.15,0.8-6.771,2.397c-1.622,1.599-2.434,3.833-2.434,6.703c0,2.893,0.817,5.134,2.45,6.72
		c1.633,1.587,3.967,2.38,7,2.38c2.357,0,4.253-0.495,5.688-1.488c1.435-0.991,2.279-2.28,2.537-3.867l-5.355-1.715
		c-0.28,1.89-1.248,2.835-2.905,2.835c-2.31,0-3.465-1.598-3.465-4.795c0-3.29,1.155-4.935,3.465-4.935
		c1.563,0,2.462,1.003,2.695,3.01l5.53-1.82c-0.327-1.61-1.155-2.916-2.485-3.92C386.96,463.178,384.978,462.676,382.34,462.676
		 M360.36,477.025c-0.537,0-0.957-0.128-1.26-0.385c-0.304-0.256-0.455-0.63-0.455-1.12c0-0.49,0.157-0.869,0.473-1.138
		c0.315-0.267,0.845-0.495,1.592-0.682l2.835-0.665v1.505c0,0.747-0.327,1.347-0.979,1.803
		C361.912,476.799,361.177,477.025,360.36,477.025 M370.686,477.131c-0.841,0-1.261-0.455-1.261-1.365v-6.37
		c0-2.24-0.712-3.92-2.135-5.04s-3.5-1.68-6.229-1.68c-2.333,0-4.188,0.472-5.565,1.418c-1.377,0.945-2.217,2.269-2.52,3.972
		l4.829,1.4c0.163-0.956,0.525-1.645,1.086-2.065c0.56-0.42,1.282-0.63,2.17-0.63c0.77,0,1.377,0.234,1.819,0.7
		c0.443,0.467,0.665,1.097,0.665,1.89v0.63l-3.955,0.77c-2.427,0.49-4.171,1.196-5.231,2.117c-1.062,0.923-1.593,2.13-1.593,3.623
		c0,1.423,0.467,2.509,1.399,3.255c0.934,0.747,2.276,1.12,4.026,1.12c3.102,0,5.179-0.898,6.229-2.695
		c0.491,1.797,1.995,2.695,4.516,2.695c0.909,0,1.703-0.187,2.381-0.56l0.454-3.325C371.49,477.084,371.128,477.131,370.686,477.131
		 M335.546,480.525h6.58l-6.825-10.64l6.44-6.86h-6.58l-6.685,7.35v-14.77h-5.95v24.92h5.95V476.5l2.835-3.15L335.546,480.525z
		 M318.291,462.676c-1.33,0-2.443,0.356-3.342,1.068c-0.899,0.712-1.558,1.732-1.979,3.062l-0.244-3.78h-5.25v17.5h5.949v-8.82
		c0-1.33,0.373-2.35,1.12-3.063c0.747-0.711,1.681-1.067,2.8-1.067c0.443,0,0.863,0.052,1.261,0.158
		c0.396,0.104,0.712,0.227,0.944,0.367l0.631-5.04C319.714,462.805,319.084,462.676,318.291,462.676 M294.807,466.911
		c1.119,0,1.947,0.385,2.484,1.155s0.805,2.007,0.805,3.71c0,1.703-0.268,2.94-0.805,3.71c-0.537,0.771-1.365,1.155-2.484,1.155
		c-1.12,0-1.948-0.385-2.485-1.155c-0.537-0.77-0.805-2.007-0.805-3.71c0-1.703,0.268-2.94,0.805-3.71
		S293.687,466.911,294.807,466.911 M294.807,462.676c-2.917,0-5.187,0.8-6.808,2.397c-1.622,1.599-2.433,3.833-2.433,6.703
		c0,2.87,0.811,5.105,2.433,6.703c1.621,1.598,3.891,2.397,6.808,2.397s5.186-0.799,6.808-2.397
		c1.621-1.598,2.432-3.833,2.432-6.703c0-2.87-0.811-5.104-2.432-6.703C299.992,463.476,297.724,462.676,294.807,462.676
		 M278.076,463.025l-2.975,13.195l-3.395-13.195h-5.88l-3.43,13.195l-2.94-13.195h-6.265l5.32,17.5h7.105l3.115-11.235l3.15,11.235
		h7.14l5.286-17.5H278.076z M233.627,466.841c1.866,0,2.94,1.143,3.22,3.43h-6.58C230.617,467.983,231.737,466.841,233.627,466.841
		 M242.412,471.531c0-2.8-0.753-4.975-2.258-6.528c-1.505-1.551-3.669-2.327-6.492-2.327c-2.917,0-5.169,0.794-6.755,2.38
		c-1.587,1.587-2.38,3.827-2.38,6.72c0,2.893,0.81,5.134,2.432,6.72c1.622,1.587,3.961,2.38,7.018,2.38
		c2.053,0,3.785-0.39,5.197-1.173c1.412-0.781,2.363-1.918,2.853-3.412l-4.83-1.54c-0.187,0.63-0.555,1.108-1.103,1.435
		s-1.254,0.49-2.117,0.49c-1.027,0-1.85-0.257-2.468-0.77c-0.618-0.513-1.021-1.318-1.207-2.415h11.935
		C242.353,472.978,242.412,472.325,242.412,471.531 M215.147,462.676c-1.283,0-2.397,0.298-3.342,0.892
		c-0.945,0.596-1.675,1.476-2.188,2.643v-10.605h-5.95v24.92h5.95v-9.205c0-1.4,0.292-2.438,0.875-3.115
		c0.583-0.676,1.342-1.015,2.275-1.015c1.657,0,2.485,1.108,2.485,3.325v10.01h5.95v-11.655c0-1.983-0.548-3.512-1.645-4.585
		C218.46,463.212,216.99,462.676,215.147,462.676 M200.132,475.871c-0.723,0.514-1.563,0.77-2.52,0.77
		c-1.54,0-2.31-0.782-2.31-2.345v-7.035h5.25v-4.235h-5.25v-5.565l-5.95,1.645v3.92h-3.01v4.235h3.01v8.015
		c0.023,1.96,0.583,3.384,1.68,4.27c1.097,0.887,2.683,1.33,4.76,1.33c0.91,0,1.814-0.123,2.713-0.368
		c0.898-0.245,1.639-0.565,2.222-0.962L200.132,475.871z M166.533,484.201c-3.244,0-4.865-0.537-4.865-1.61
		c0-0.42,0.204-0.73,0.612-0.927c0.408-0.199,1.091-0.298,2.048-0.298h4.795c0.77,0,1.318,0.093,1.645,0.28
		c0.326,0.186,0.49,0.466,0.49,0.84c0,0.513-0.403,0.928-1.208,1.243C169.245,484.043,168.073,484.201,166.533,484.201
		 M166.253,466.071c0.77,0,1.394,0.234,1.872,0.7c0.478,0.467,0.718,1.085,0.718,1.855s-0.24,1.382-0.718,1.837
		c-0.478,0.456-1.102,0.683-1.872,0.683s-1.395-0.227-1.873-0.683c-0.478-0.455-0.717-1.067-0.717-1.837s0.239-1.388,0.717-1.855
		C164.858,466.305,165.483,466.071,166.253,466.071 M169.578,476.641h-5.95c-1.214,0-1.82-0.396-1.82-1.19
		c0-0.63,0.361-1.038,1.085-1.225c0.98,0.21,2.1,0.315,3.36,0.315c2.706,0,4.806-0.513,6.3-1.54c1.493-1.026,2.24-2.485,2.24-4.375
		c0-2.193-0.98-3.803-2.94-4.83c0.233-0.49,0.612-0.875,1.137-1.155c0.525-0.28,1.184-0.42,1.978-0.42
		c0.186,0,0.513,0.024,0.98,0.07l-0.665-3.955l-0.56-0.035c-1.447,0-2.579,0.444-3.395,1.33c-0.817,0.887-1.342,2.03-1.575,3.43
		c-1.074-0.256-2.24-0.385-3.5-0.385c-2.707,0-4.807,0.52-6.3,1.558c-1.494,1.038-2.24,2.502-2.24,4.392
		c0,2.17,0.956,3.769,2.87,4.795c-0.887,0.303-1.587,0.77-2.1,1.4c-0.514,0.63-0.77,1.353-0.77,2.17c0,1.657,0.898,2.87,2.695,3.64
		c-1.097,0.257-1.914,0.676-2.45,1.26c-0.537,0.583-0.805,1.26-0.805,2.03c0,1.306,0.729,2.321,2.187,3.045
		c1.458,0.723,3.716,1.085,6.773,1.085c3.033,0,5.43-0.531,7.192-1.593s2.643-2.584,2.643-4.567c0-1.727-0.555-3.033-1.663-3.92
		C173.177,477.084,171.608,476.641,169.578,476.641 M148.263,462.676c-1.377,0-2.579,0.31-3.605,0.928
		c-1.027,0.618-1.82,1.546-2.38,2.782l-0.175-3.36h-5.32v17.5h5.95v-9.24c0-1.377,0.291-2.398,0.875-3.062
		c0.583-0.665,1.341-0.998,2.275-0.998c0.793,0,1.405,0.251,1.837,0.753s0.648,1.347,0.648,2.537v10.01h5.95v-11.655
		c0-1.983-0.549-3.512-1.645-4.585C151.576,463.212,150.106,462.676,148.263,462.676 M132.548,463.025h-5.95v17.5h5.95V463.025z
		 M129.573,460.996c1.213,0,2.094-0.228,2.643-0.683c0.548-0.454,0.822-1.172,0.822-2.152c0-1.003-0.274-1.732-0.822-2.187
		c-0.549-0.456-1.43-0.683-2.643-0.683s-2.094,0.227-2.642,0.683c-0.549,0.455-0.823,1.184-0.823,2.187
		c0,0.98,0.274,1.698,0.823,2.152C127.479,460.768,128.36,460.996,129.573,460.996 M113.159,476.5c-1.05,0-1.861-0.385-2.433-1.155
		c-0.572-0.77-0.857-1.96-0.857-3.57c0-1.61,0.285-2.8,0.857-3.57c0.572-0.77,1.383-1.155,2.433-1.155c0.956,0,1.72,0.35,2.292,1.05
		c0.572,0.7,0.893,1.692,0.963,2.975v1.4c-0.07,1.307-0.391,2.305-0.963,2.993C114.879,476.157,114.115,476.5,113.159,476.5
		 M116.414,455.605v10.36c-0.514-1.026-1.214-1.831-2.1-2.415c-0.887-0.583-1.949-0.875-3.185-0.875
		c-2.264,0-4.037,0.805-5.32,2.415c-1.284,1.61-1.925,3.862-1.925,6.755c0,2.847,0.635,5.064,1.907,6.65
		c1.272,1.587,3.039,2.38,5.303,2.38c1.306,0,2.455-0.327,3.447-0.98c0.992-0.653,1.744-1.551,2.258-2.695l0.21,3.325h5.355v-24.92
		H116.414z M91.004,477.025c-0.537,0-0.957-0.128-1.26-0.385c-0.304-0.256-0.455-0.63-0.455-1.12c0-0.49,0.157-0.869,0.472-1.138
		c0.315-0.267,0.846-0.495,1.593-0.682l2.835-0.665v1.505c0,0.747-0.327,1.347-0.98,1.803
		C92.555,476.799,91.82,477.025,91.004,477.025 M101.329,477.131c-0.84,0-1.26-0.455-1.26-1.365v-6.37c0-2.24-0.712-3.92-2.135-5.04
		c-1.424-1.12-3.5-1.68-6.23-1.68c-2.334,0-4.189,0.472-5.565,1.418c-1.377,0.945-2.217,2.269-2.52,3.972l4.83,1.4
		c0.163-0.956,0.525-1.645,1.085-2.065c0.56-0.42,1.283-0.63,2.17-0.63c0.77,0,1.376,0.234,1.82,0.7
		c0.443,0.467,0.665,1.097,0.665,1.89v0.63l-3.955,0.77c-2.427,0.49-4.171,1.196-5.233,2.117c-1.062,0.923-1.592,2.13-1.592,3.623
		c0,1.423,0.466,2.509,1.4,3.255c0.933,0.747,2.275,1.12,4.025,1.12c3.103,0,5.18-0.898,6.23-2.695
		c0.49,1.797,1.995,2.695,4.515,2.695c0.91,0,1.703-0.187,2.38-0.56l0.455-3.325C102.134,477.084,101.772,477.131,101.329,477.131
		 M72.314,466.841c1.867,0,2.94,1.143,3.22,3.43h-6.58C69.304,467.983,70.424,466.841,72.314,466.841 M81.099,471.531
		c0-2.8-0.752-4.975-2.257-6.528c-1.505-1.551-3.67-2.327-6.493-2.327c-2.917,0-5.168,0.794-6.755,2.38
		c-1.587,1.587-2.38,3.827-2.38,6.72c0,2.893,0.811,5.134,2.433,6.72c1.621,1.587,3.96,2.38,7.017,2.38
		c2.053,0,3.786-0.39,5.198-1.173c1.411-0.781,2.362-1.918,2.852-3.412l-4.83-1.54c-0.187,0.63-0.554,1.108-1.102,1.435
		c-0.549,0.327-1.255,0.49-2.118,0.49c-1.027,0-1.849-0.257-2.467-0.77c-0.619-0.513-1.021-1.318-1.208-2.415h11.935
		C81.041,472.978,81.099,472.325,81.099,471.531 M46.519,461.976h4.095c1.283,0,2.216,0.234,2.8,0.7
		c0.583,0.467,0.875,1.202,0.875,2.205c0,1.027-0.292,1.774-0.875,2.24c-0.584,0.467-1.517,0.7-2.8,0.7h-4.095V461.976z
		 M55.059,480.525h6.65l-5.88-9.065c1.47-0.537,2.59-1.365,3.36-2.485c0.77-1.12,1.155-2.52,1.155-4.2c0-2.38-0.753-4.2-2.258-5.46
		c-1.505-1.26-3.657-1.89-6.457-1.89H40.604v23.1h5.915v-8.435h3.605L55.059,480.525z"/>
	<path clip-path="url(#SVGID_2_)" fill="#231F20" d="M214.772,377.567c3.881,3.881,8.569,5.826,14.066,5.826
		c5.493,0,10.182-1.945,14.067-5.826c3.88-3.881,5.825-8.569,5.825-14.066c0-5.493-1.945-10.182-5.825-14.067
		c-3.885-3.88-8.574-5.825-14.067-5.825c-5.497,0-10.185,1.945-14.066,5.825c-3.885,3.885-5.826,8.574-5.826,14.067
		C208.946,368.999,210.887,373.687,214.772,377.567 M50.664,357.25v22.165h136.402V357.25H130.8V180.495H84.48l-37.226,83.546v1.705
		H70.84l32.68-74.736h3.41V357.25H50.664z"/>
</g>
<line fill="none" stroke="#231F20" stroke-width="2" x1="24.794" y1="139.264" x2="537.794" y2="139.264"/>
<line fill="none" stroke="#231F20" stroke-width="2" x1="24.794" y1="430.416" x2="537.794" y2="430.416"/>
<line fill="none" stroke="#231F20" stroke-width="2" x1="24.794" y1="559.01" x2="537.794" y2="559.01"/>
<line fill="none" stroke="#231F20" stroke-width="2" x1="281.293" y1="160.263" x2="281.293" y2="409.414"/>
<g>
	<defs>
		<rect id="SVGID_3_" width="564" height="1002"/>
	</defs>
	<clipPath id="SVGID_4_">
		<use xlink:href="#SVGID_3_"  overflow="visible"/>
	</clipPath>
	<polygon clip-path="url(#SVGID_4_)" fill="none" stroke="#231F20" stroke-width="1.998" points="0.999,3 0.999,999 0.999,1001.002 
		3,1001.002 561,1001.002 563.001,1001.002 563.001,999 563.001,3 563.001,0.998 561,0.998 3,0.998 0.999,0.998 	"/>
</g>
<rect x="5.001" y="5.002" fill="none" stroke="#231F20" stroke-width="1.998" width="553.998" height="991.996"/>
<path fill="#FF1419" d="M307.486,282.717v15.95l107.532-3.345l-46.306,69.973l0.258,0.257l151.265-74.603v-0.514l-151.265-74.089
	l-0.515,0.257l46.562,69.973L307.486,282.717z M431.226,290.949h67.915l-103.93,51.193L431.226,290.949z"/>
<g>
	<defs>
		<rect id="SVGID_5_" width="564" height="1002"/>
	</defs>
	<clipPath id="SVGID_6_">
		<use xlink:href="#SVGID_5_"  overflow="visible"/>
	</clipPath>
	<path clip-path="url(#SVGID_6_)" fill="#231F20" d="M263.853,617.166c8.965,0,16.767,1.038,23.408,3.112
		c6.639,2.078,12.159,5.814,16.561,11.206c4.396,5.397,7.676,12.786,9.836,22.164c2.156,9.381,3.237,21.458,3.237,36.232
		c0,14.777-1.081,26.938-3.237,36.481c-2.16,9.549-5.44,17.06-9.836,22.537c-4.401,5.479-9.922,9.299-16.561,11.455
		c-6.642,2.16-14.443,3.237-23.408,3.237V617.166z M48.447,950.608h258.735v-19.673h-43.33V783.265
		c8.132,0,15.148,1.164,21.043,3.486c5.891,2.326,10.665,6.6,14.318,12.824c3.649,6.227,6.351,14.735,8.094,25.525
		c1.743,10.794,2.614,24.654,2.614,41.587c0,15.439,1.575,29.054,4.731,40.84c3.152,11.79,8.591,21.665,16.311,29.634
		c7.721,7.969,18.055,13.984,31.005,18.055c12.948,4.065,29.217,6.101,48.808,6.101c20.42,0,37.268-1.537,50.552-4.607
		c13.28-3.073,23.863-8.093,31.75-15.065c7.883-6.974,13.362-16.102,16.437-27.393c3.069-11.287,4.606-25.151,4.606-41.587v-7.969
		h-20.918c0,20.089-1.245,35.447-3.734,46.069c-2.491,10.627-6.476,15.938-11.954,15.938c-3.323,0-5.688-1.327-7.098-3.984
		c-1.412-2.653-2.115-6.557-2.115-11.704v-8.84c0-2.572,0.162-6.266,0.497-11.082c0.163-4.646,0.287-8.674,0.373-12.077
		c0.082-3.401,0.125-7.51,0.125-12.327c0-17.432-3.073-31.832-9.214-43.205c-6.144-11.37-15.898-20.42-29.261-27.144
		c-13.365-6.725-30.59-11.455-51.672-14.194c-21.085-2.74-46.567-4.191-76.45-4.358c33.369-0.164,61.217-2.279,83.547-6.35
		c22.327-4.066,40.175-9.837,53.54-17.308c13.362-7.471,22.825-16.599,28.39-27.393c5.56-10.79,8.342-23.074,8.342-36.855
		c0-15.771-3.198-29.467-9.587-41.089c-6.394-11.618-15.689-21.206-27.892-28.763c-12.202-7.552-27.229-13.155-45.073-16.809
		c-17.848-3.649-38.143-5.479-60.886-5.479H48.447v19.424h43.579v313.77H48.447V950.608z"/>
</g>
</svg>
