<?xml version="1.0" encoding="utf-8"?>
<!-- Generator: Adobe Illustrator 16.0.0, SVG Export Plug-In . SVG Version: 6.00 Build 0)  -->
<!DOCTYPE svg PUBLIC "-//W3C//DTD SVG 1.1//EN" "http://www.w3.org/Graphics/SVG/1.1/DTD/svg11.dtd">
<svg version="1.1" id="Layer_1" xmlns="http://www.w3.org/2000/svg" xmlns:xlink="http://www.w3.org/1999/xlink" x="0px" y="0px"
	 width="564px" height="1002px" viewBox="0 0 564 1002" enable-background="new 0 0 564 1002" xml:space="preserve">
<g>
	<defs>
		<rect id="SVGID_85_" width="564" height="1002"/>
	</defs>
	<clipPath id="SVGID_2_">
		<use xlink:href="#SVGID_85_"  overflow="visible"/>
	</clipPath>
	<path clip-path="url(#SVGID_2_)" fill="#0046F9" d="M502.623,71.466c1.471,0.727,2.943,1.36,4.415,1.901
		c1.471,0.539,2.966,0.986,4.485,1.34c1.518,0.354,3.073,0.619,4.666,0.797c1.593,0.177,3.246,0.266,4.96,0.266
		c3.577,0,6.721-0.35,9.431-1.048c2.711-0.699,4.978-1.677,6.804-2.935s3.2-2.752,4.122-4.484c0.922-1.733,1.383-3.623,1.383-5.674
		c0-3.018-0.959-5.588-2.878-7.711c-1.919-2.125-4.693-3.791-8.327-5.002l-3.353-1.119c-1.156-0.391-2.12-0.768-2.892-1.131
		c-0.774-0.363-1.398-0.727-1.873-1.09c-0.476-0.363-0.811-0.735-1.006-1.117c-0.195-0.381-0.294-0.777-0.294-1.188
		c0-0.466,0.116-0.938,0.35-1.412c0.232-0.475,0.577-0.902,1.034-1.285c0.456-0.382,1.02-0.688,1.69-0.922
		c0.67-0.232,1.453-0.349,2.348-0.349c0.521,0,1.099,0.046,1.731,0.139c0.634,0.095,1.281,0.233,1.943,0.419
		c0.661,0.188,1.322,0.42,1.983,0.699s1.289,0.605,1.887,0.979l3.018-5.449c-0.82-0.372-1.77-0.75-2.851-1.133
		c-1.08-0.381-2.269-0.721-3.562-1.02c-1.295-0.297-2.679-0.54-4.149-0.727c-1.473-0.186-3.01-0.279-4.611-0.279
		c-3.241,0-6.068,0.393-8.48,1.174c-2.413,0.782-4.41,1.83-5.993,3.145c-1.584,1.312-2.768,2.832-3.55,4.554
		c-0.782,1.724-1.174,3.517-1.174,5.38c0,2.887,0.904,5.379,2.711,7.475s4.499,3.758,8.075,4.987l5.002,1.705
		c0.969,0.335,1.756,0.675,2.361,1.021c0.605,0.345,1.081,0.688,1.426,1.033c0.344,0.346,0.577,0.694,0.698,1.049
		c0.121,0.354,0.182,0.697,0.182,1.032c0,1.062-0.499,1.901-1.495,2.515c-0.997,0.615-2.566,0.924-4.709,0.924
		c-1.863,0-3.875-0.252-6.035-0.756c-2.162-0.502-4.229-1.256-6.204-2.262L502.623,71.466z M467.445,69.398
		c-0.866-0.393-1.589-1.154-2.166-2.292c-0.578-1.136-1.016-2.729-1.313-4.778s-0.446-4.731-0.446-8.047
		c0-3.279,0.148-5.934,0.446-7.965c0.298-2.029,0.735-3.604,1.313-4.722c0.577-1.118,1.3-1.872,2.166-2.265
		c0.866-0.391,1.857-0.586,2.976-0.586c1.117,0,2.105,0.195,2.962,0.586c0.856,0.393,1.574,1.146,2.151,2.265
		c0.578,1.118,1.016,2.692,1.313,4.722c0.299,2.031,0.447,4.686,0.447,7.965c0,3.315-0.148,5.998-0.447,8.047
		c-0.298,2.049-0.735,3.643-1.313,4.778c-0.577,1.138-1.295,1.899-2.151,2.292c-0.856,0.391-1.845,0.586-2.962,0.586
		C469.303,69.984,468.312,69.789,467.445,69.398 M448.066,63.027c1.006,2.645,2.505,4.908,4.499,6.79
		c1.992,1.882,4.479,3.345,7.461,4.388c2.979,1.043,6.444,1.564,10.395,1.564c3.949,0,7.414-0.521,10.396-1.564
		c2.979-1.043,5.467-2.506,7.461-4.388c1.993-1.882,3.493-4.146,4.498-6.79c1.006-2.646,1.509-5.561,1.509-8.746
		c0-3.148-0.503-6.031-1.509-8.648c-1.005-2.617-2.505-4.867-4.498-6.749c-1.994-1.882-4.481-3.343-7.461-4.388
		c-2.981-1.043-6.446-1.564-10.396-1.564c-3.95,0-7.415,0.521-10.395,1.564c-2.981,1.045-5.469,2.506-7.461,4.388
		c-1.994,1.882-3.493,4.132-4.499,6.749s-1.51,5.5-1.51,8.648C446.557,57.467,447.061,60.381,448.066,63.027 M412.064,75.127h16.15
		V39.974h11.849v-6.399h-39.848v6.399h11.849V75.127z M348.649,75.127h6.146V53.08l26.379,22.047h10.116V33.603h-6.148
		l-0.027,22.131l-26.352-22.131h-10.114V75.127z M302.391,75.127h35.098v-6.399h-18.945V57.605h14.474v-6.398h-14.474l0.028-11.205
		h18.917v-6.399h-35.098V75.127z M235.735,75.127h6.148V53.918l15.424,21.74l15.481-21.74v21.209h16.123V33.603H277.79
		l-14.922,21.74l-15.704-21.74h-11.429V75.127z M186.18,59.115c0,2.57,0.391,4.881,1.174,6.93c0.782,2.05,2.012,3.796,3.688,5.24
		c1.677,1.443,3.819,2.551,6.427,3.324s5.729,1.16,9.361,1.16c2.664,0,5.077-0.391,7.238-1.174c2.161-0.782,4.005-1.904,5.533-3.367
		c1.527-1.462,2.705-3.229,3.534-5.295c0.829-2.068,1.244-4.389,1.244-6.958V33.603h-6.148v26.323c0,1.49-0.186,2.785-0.558,3.884
		c-0.373,1.099-0.904,2.012-1.593,2.737c-0.69,0.728-1.523,1.268-2.501,1.621c-0.978,0.354-2.082,0.531-3.311,0.531
		c-1.118,0-2.162-0.177-3.13-0.531c-0.969-0.354-1.812-0.889-2.529-1.606c-0.717-0.717-1.276-1.62-1.677-2.71
		c-0.4-1.09-0.6-2.38-0.6-3.87V33.603H186.18V59.115z M138.316,62.705c1.146,2.6,2.79,4.873,4.932,6.818
		c2.142,1.947,4.746,3.484,7.81,4.611s6.506,1.691,10.325,1.691c1.639,0,3.204-0.104,4.695-0.309
		c1.49-0.205,2.887-0.489,4.191-0.852c1.304-0.363,2.515-0.778,3.633-1.244c1.118-0.465,2.133-0.969,3.046-1.51l-2.403-4.693
		c-1.118,0.541-2.348,0.974-3.689,1.299c-1.341,0.327-2.682,0.488-4.024,0.488c-1.9,0-3.665-0.348-5.295-1.047
		c-1.63-0.698-3.037-1.686-4.219-2.963c-1.184-1.274-2.11-2.812-2.781-4.609c-0.67-1.799-1.006-3.805-1.006-6.021
		c0-2.236,0.34-4.253,1.02-6.051c0.68-1.797,1.616-3.329,2.808-4.596c1.192-1.268,2.608-2.245,4.248-2.934
		c1.639-0.689,3.418-1.035,5.337-1.035c1.434,0,2.818,0.172,4.15,0.518c1.331,0.345,2.519,0.768,3.562,1.271l2.404-4.694
		c-0.913-0.522-1.933-1.021-3.06-1.495c-1.128-0.477-2.352-0.895-3.675-1.258c-1.323-0.363-2.734-0.647-4.233-0.852
		c-1.5-0.205-3.07-0.309-4.709-0.309c-2.552,0-4.937,0.257-7.153,0.77c-2.217,0.512-4.243,1.233-6.078,2.166
		c-1.835,0.93-3.47,2.049-4.904,3.353c-1.435,1.304-2.645,2.748-3.633,4.331c-0.987,1.584-1.737,3.293-2.249,5.128
		c-0.513,1.835-0.769,3.739-0.769,5.714C136.597,57.336,137.17,60.106,138.316,62.705 M101.14,69.398
		c-0.866-0.393-1.588-1.154-2.166-2.292c-0.577-1.136-1.015-2.729-1.313-4.778s-0.447-4.731-0.447-8.047
		c0-3.279,0.149-5.934,0.447-7.965c0.298-2.029,0.736-3.604,1.313-4.722c0.578-1.118,1.3-1.872,2.166-2.265
		c0.866-0.391,1.858-0.586,2.976-0.586c1.118,0,2.105,0.195,2.962,0.586c0.857,0.393,1.574,1.146,2.152,2.265
		c0.577,1.118,1.015,2.692,1.313,4.722c0.298,2.031,0.447,4.686,0.447,7.965c0,3.315-0.149,5.998-0.447,8.047
		c-0.298,2.049-0.736,3.643-1.313,4.778c-0.578,1.138-1.295,1.899-2.152,2.292c-0.857,0.391-1.844,0.586-2.962,0.586
		C102.998,69.984,102.006,69.789,101.14,69.398 M81.761,63.027c1.006,2.645,2.506,4.908,4.499,6.79
		c1.993,1.882,4.48,3.345,7.461,4.388c2.98,1.043,6.445,1.564,10.395,1.564c3.949,0,7.414-0.521,10.395-1.564
		c2.98-1.043,5.467-2.506,7.461-4.388c1.993-1.882,3.493-4.146,4.499-6.79c1.006-2.646,1.509-5.561,1.509-8.746
		c0-3.148-0.503-6.031-1.509-8.648s-2.506-4.867-4.499-6.749c-1.994-1.882-4.481-3.343-7.461-4.388
		c-2.981-1.043-6.446-1.564-10.395-1.564c-3.95,0-7.415,0.521-10.395,1.564c-2.981,1.045-5.468,2.506-7.461,4.388
		c-1.993,1.882-3.493,4.132-4.499,6.749c-1.006,2.617-1.509,5.5-1.509,8.648C80.252,57.467,80.755,60.381,81.761,63.027
		 M42.685,39.694c1.826,0,3.479,0.265,4.96,0.796s2.743,1.379,3.787,2.543c1.043,1.164,1.844,2.659,2.403,4.485
		s0.838,4.033,0.838,6.623c0,2.608-0.275,4.849-0.824,6.72c-0.55,1.872-1.342,3.414-2.376,4.624
		c-1.033,1.212-2.296,2.106-3.786,2.683c-1.49,0.578-3.167,0.867-5.03,0.867L42.685,39.694z M26.506,75.127h17.073
		c4.807,0,8.97-0.541,12.491-1.621s6.436-2.566,8.746-4.457s4.024-4.107,5.142-6.65c1.118-2.543,1.677-5.286,1.677-8.23
		c0-3.297-0.559-6.221-1.677-8.773c-1.118-2.552-2.832-4.703-5.142-6.455c-2.31-1.751-5.225-3.078-8.746-3.982
		c-3.521-0.902-7.684-1.354-12.491-1.354H26.506V75.127z"/>
	<path clip-path="url(#SVGID_2_)" fill="#231F20" d="M274.826,501.329c0.309-0.223,0.773-0.333,1.392-0.333
		c0.676,0,1.227,0.149,1.653,0.45c0.425,0.299,0.725,0.71,0.899,1.231l3.306-1.334c-0.155-0.406-0.377-0.826-0.667-1.262
		c-0.29-0.436-0.667-0.831-1.131-1.188c-0.464-0.358-1.03-0.648-1.697-0.871s-1.455-0.334-2.363-0.334
		c-0.696,0-1.373,0.098-2.03,0.291c-0.658,0.192-1.238,0.479-1.74,0.854c-0.503,0.377-0.909,0.837-1.218,1.378
		c-0.31,0.541-0.464,1.17-0.464,1.885v0.174c0,1.373,0.478,2.412,1.435,3.117c0.957,0.706,2.248,1.127,3.872,1.263
		c0.599,0.058,1.097,0.135,1.493,0.231s0.711,0.217,0.943,0.363c0.232,0.145,0.391,0.299,0.478,0.463
		c0.087,0.165,0.131,0.344,0.131,0.537c0,0.329-0.17,0.633-0.508,0.914c-0.338,0.279-0.962,0.42-1.87,0.42
		c-1.025,0-1.784-0.232-2.277-0.696s-0.817-1.005-0.971-1.624l-3.364,1.103c0.096,0.503,0.285,1.02,0.565,1.552
		c0.28,0.531,0.682,1.014,1.204,1.449c0.522,0.435,1.179,0.798,1.972,1.088c0.792,0.29,1.749,0.435,2.871,0.435
		c1.894,0,3.364-0.425,4.408-1.275c1.043-0.852,1.566-1.991,1.566-3.423v-0.174c0-1.295-0.464-2.305-1.392-3.031
		c-0.928-0.724-2.127-1.163-3.596-1.318c-1.276-0.135-2.156-0.304-2.639-0.507c-0.484-0.203-0.725-0.537-0.725-1.001
		C274.362,501.827,274.516,501.552,274.826,501.329 M261.007,501.663c0.609,0.444,0.972,1.005,1.088,1.682h-6.786
		c0.174-0.619,0.551-1.165,1.131-1.638c0.58-0.475,1.334-0.711,2.262-0.711C259.63,500.996,260.398,501.218,261.007,501.663
		 M265.807,506.477v-1.942c0-0.754-0.136-1.532-0.406-2.335c-0.271-0.803-0.696-1.537-1.276-2.203
		c-0.58-0.667-1.315-1.219-2.204-1.654c-0.89-0.436-1.953-0.652-3.19-0.652c-1.006,0-1.948,0.18-2.828,0.537
		s-1.648,0.855-2.305,1.493c-0.658,0.638-1.175,1.411-1.552,2.32s-0.565,1.914-0.565,3.016v0.174c0,1.199,0.178,2.272,0.536,3.22
		c0.358,0.947,0.86,1.75,1.508,2.406c0.648,0.657,1.416,1.16,2.306,1.509c0.889,0.348,1.875,0.521,2.958,0.521
		c0.947,0,1.773-0.106,2.479-0.319c0.706-0.213,1.305-0.482,1.798-0.812s0.894-0.691,1.204-1.087
		c0.309-0.397,0.551-0.779,0.725-1.146l-3.132-1.739c-0.213,0.444-0.561,0.825-1.044,1.146c-0.484,0.318-1.18,0.479-2.088,0.479
		c-0.464,0-0.904-0.072-1.32-0.219c-0.416-0.144-0.783-0.347-1.102-0.608c-0.319-0.26-0.57-0.57-0.754-0.927
		c-0.184-0.358-0.285-0.75-0.304-1.176H265.807z M233.878,501.576h4.263v8.642c0,0.657,0.207,1.199,0.623,1.624
		s0.952,0.638,1.61,0.638h6.09V509h-3.886c-0.522,0-0.783-0.29-0.783-0.87v-6.554h5.191v-3.48h-5.191v-5.916h-3.654v5.916h-4.263
		V501.576z M220.19,504.998c0-1.218,0.265-2.19,0.797-2.914c0.532-0.727,1.339-1.088,2.422-1.088c0.928,0,1.638,0.295,2.131,0.885
		c0.493,0.589,0.74,1.396,0.74,2.421v8.178h3.654v-9.105c0-0.986-0.131-1.837-0.392-2.552c-0.261-0.715-0.623-1.305-1.087-1.77
		c-0.464-0.464-1.001-0.807-1.61-1.029c-0.609-0.223-1.261-0.334-1.957-0.334c-0.986,0-1.847,0.223-2.581,0.668
		c-0.735,0.444-1.267,1.072-1.595,1.885h-0.522v-2.146h-3.654v14.384h3.654V504.998z M207.763,501.663
		c0.609,0.444,0.972,1.005,1.088,1.682h-6.786c0.174-0.619,0.551-1.165,1.131-1.638c0.58-0.475,1.334-0.711,2.262-0.711
		C206.386,500.996,207.154,501.218,207.763,501.663 M212.563,506.477v-1.942c0-0.754-0.136-1.532-0.406-2.335
		c-0.271-0.803-0.696-1.537-1.276-2.203c-0.58-0.667-1.315-1.219-2.204-1.654c-0.89-0.436-1.953-0.652-3.19-0.652
		c-1.006,0-1.948,0.18-2.828,0.537c-0.88,0.357-1.648,0.855-2.305,1.493c-0.658,0.638-1.175,1.411-1.552,2.32
		s-0.565,1.914-0.565,3.016v0.174c0,1.199,0.178,2.272,0.536,3.22s0.86,1.75,1.508,2.406c0.648,0.657,1.416,1.16,2.306,1.509
		c0.889,0.348,1.875,0.521,2.958,0.521c0.947,0,1.773-0.106,2.479-0.319s1.305-0.482,1.798-0.812
		c0.493-0.329,0.894-0.691,1.204-1.087c0.309-0.397,0.551-0.779,0.725-1.146l-3.132-1.739c-0.213,0.444-0.561,0.825-1.044,1.146
		c-0.484,0.318-1.18,0.479-2.088,0.479c-0.464,0-0.904-0.072-1.32-0.219c-0.416-0.144-0.783-0.347-1.102-0.608
		c-0.319-0.26-0.57-0.57-0.754-0.927c-0.184-0.358-0.285-0.75-0.304-1.176H212.563z M190.784,505.636
		c0,1.218-0.257,2.181-0.769,2.886c-0.512,0.705-1.319,1.059-2.421,1.059c-0.967,0-1.692-0.285-2.175-0.855
		c-0.484-0.57-0.725-1.368-0.725-2.393v-8.236h-3.654v8.99c0,0.986,0.13,1.842,0.391,2.566c0.261,0.726,0.624,1.329,1.088,1.812
		c0.464,0.484,1.005,0.841,1.624,1.073c0.618,0.231,1.285,0.348,2.001,0.348c2.107,0,3.48-0.831,4.118-2.494h0.522v2.088h3.654
		v-14.384h-3.654V505.636z M163.176,501.576h4.089v10.903h3.654v-10.903h5.655v-3.48h-5.655v-1.566c0-0.58,0.261-0.869,0.783-0.869
		h4.35v-3.48h-5.858c-0.832,0-1.528,0.285-2.088,0.855c-0.561,0.57-0.841,1.271-0.841,2.103v2.958h-4.089V501.576z M132.842,501.329
		c0.309-0.223,0.773-0.333,1.392-0.333c0.676,0,1.227,0.149,1.653,0.45c0.425,0.299,0.725,0.71,0.899,1.231l3.306-1.334
		c-0.155-0.406-0.377-0.826-0.667-1.262s-0.667-0.831-1.131-1.188c-0.464-0.358-1.03-0.648-1.697-0.871s-1.455-0.334-2.363-0.334
		c-0.696,0-1.373,0.098-2.03,0.291c-0.658,0.192-1.238,0.479-1.74,0.854c-0.503,0.377-0.909,0.837-1.218,1.378
		c-0.31,0.541-0.464,1.17-0.464,1.885v0.174c0,1.373,0.478,2.412,1.435,3.117c0.957,0.706,2.248,1.127,3.872,1.263
		c0.599,0.058,1.097,0.135,1.493,0.231s0.711,0.217,0.943,0.363c0.232,0.145,0.391,0.299,0.478,0.463
		c0.087,0.165,0.131,0.344,0.131,0.537c0,0.329-0.17,0.633-0.508,0.914c-0.338,0.279-0.962,0.42-1.87,0.42
		c-1.025,0-1.784-0.232-2.277-0.696c-0.493-0.464-0.817-1.005-0.971-1.624l-3.364,1.103c0.096,0.503,0.285,1.02,0.565,1.552
		c0.28,0.531,0.682,1.014,1.204,1.449c0.522,0.435,1.179,0.798,1.972,1.088c0.792,0.29,1.749,0.435,2.871,0.435
		c1.894,0,3.364-0.425,4.408-1.275c1.044-0.852,1.566-1.991,1.566-3.423v-0.174c0-1.295-0.464-2.305-1.392-3.031
		c-0.928-0.724-2.127-1.163-3.596-1.318c-1.276-0.135-2.156-0.304-2.639-0.507c-0.484-0.203-0.725-0.537-0.725-1.001
		C132.378,501.827,132.532,501.552,132.842,501.329 M113.557,508.347c-0.638-0.705-0.957-1.667-0.957-2.885v-0.348
		c0-1.219,0.319-2.181,0.957-2.886c0.638-0.706,1.488-1.059,2.552-1.059c1.063,0,1.914,0.353,2.552,1.059
		c0.638,0.705,0.957,1.667,0.957,2.886v0.348c0,1.218-0.319,2.18-0.957,2.885c-0.638,0.706-1.489,1.06-2.552,1.06
		C115.045,509.406,114.195,509.053,113.557,508.347 M119.879,510.392c0,0.619,0.207,1.121,0.623,1.509
		c0.416,0.387,0.952,0.579,1.61,0.579h2.494V509h-0.551c-0.522,0-0.783-0.29-0.783-0.87v-10.034h-3.654v1.74h-0.522
		c-0.368-0.734-0.866-1.275-1.494-1.624s-1.455-0.522-2.479-0.522c-0.851,0-1.649,0.17-2.393,0.508
		c-0.744,0.339-1.397,0.826-1.957,1.465c-0.561,0.638-1.006,1.412-1.334,2.319c-0.329,0.909-0.493,1.934-0.493,3.074v0.464
		c0,1.16,0.169,2.194,0.507,3.104c0.338,0.909,0.798,1.682,1.378,2.32c0.58,0.638,1.251,1.12,2.015,1.449
		c0.764,0.329,1.581,0.493,2.451,0.493c0.928,0,1.74-0.188,2.436-0.564c0.696-0.377,1.237-1.021,1.624-1.93H119.879z
		 M92.213,512.479h13.398V509h-4.698v-16.82h-8.526v3.48h4.872V509h-5.046V512.479z M65.779,501.663
		c0.609,0.444,0.972,1.005,1.088,1.682h-6.786c0.174-0.619,0.551-1.165,1.131-1.638c0.58-0.475,1.334-0.711,2.262-0.711
		C64.402,500.996,65.17,501.218,65.779,501.663 M70.579,506.477v-1.942c0-0.754-0.135-1.532-0.406-2.335s-0.696-1.537-1.276-2.203
		c-0.58-0.667-1.315-1.219-2.204-1.654s-1.953-0.652-3.19-0.652c-1.005,0-1.948,0.18-2.828,0.537
		c-0.879,0.357-1.648,0.855-2.305,1.493c-0.657,0.638-1.175,1.411-1.552,2.32s-0.565,1.914-0.565,3.016v0.174
		c0,1.199,0.179,2.272,0.536,3.22c0.358,0.947,0.861,1.75,1.508,2.406c0.648,0.657,1.417,1.16,2.306,1.509
		c0.889,0.348,1.875,0.521,2.958,0.521c0.947,0,1.774-0.106,2.479-0.319c0.706-0.213,1.305-0.482,1.798-0.812
		s0.895-0.691,1.204-1.087c0.309-0.397,0.551-0.779,0.725-1.146l-3.132-1.739c-0.213,0.444-0.561,0.825-1.044,1.146
		c-0.483,0.318-1.179,0.479-2.088,0.479c-0.464,0-0.904-0.072-1.32-0.219c-0.415-0.144-0.783-0.347-1.102-0.608
		c-0.319-0.26-0.57-0.57-0.754-0.927c-0.183-0.358-0.285-0.75-0.304-1.176H70.579z M42.782,508.347
		c-0.705-0.705-1.058-1.667-1.058-2.885v-0.348c0-1.219,0.353-2.181,1.058-2.886c0.706-0.706,1.629-1.059,2.77-1.059
		c1.141,0,2.064,0.362,2.769,1.087c0.706,0.726,1.059,1.678,1.059,2.857v0.348c0,1.179-0.353,2.131-1.059,2.857
		c-0.705,0.725-1.628,1.087-2.769,1.087C44.411,509.406,43.488,509.053,42.782,508.347 M49.38,512.479h3.654v-20.3H49.38v8.004
		h-0.522c-0.387-0.793-0.918-1.406-1.595-1.842c-0.677-0.436-1.595-0.652-2.755-0.652c-0.87,0-1.696,0.164-2.48,0.494
		c-0.782,0.328-1.469,0.807-2.058,1.434c-0.59,0.63-1.054,1.397-1.392,2.307c-0.339,0.909-0.508,1.943-0.508,3.104v0.521
		c0,1.179,0.16,2.223,0.479,3.132s0.763,1.677,1.334,2.307c0.57,0.628,1.237,1.102,2.001,1.42c0.763,0.319,1.59,0.479,2.479,0.479
		c0.696,0,1.29-0.067,1.784-0.203c0.493-0.135,0.918-0.318,1.276-0.551c0.357-0.231,0.647-0.498,0.87-0.798
		c0.222-0.299,0.41-0.613,0.565-0.942h0.522V512.479z"/>
	<path clip-path="url(#SVGID_2_)" fill="#231F20" d="M344.281,461.347c-0.639-0.704-0.957-1.667-0.957-2.885v-0.349
		c0-1.217,0.318-2.18,0.957-2.885c0.638-0.705,1.487-1.059,2.552-1.059c1.062,0,1.914,0.354,2.552,1.059s0.957,1.668,0.957,2.885
		v0.349c0,1.218-0.319,2.181-0.957,2.885c-0.638,0.706-1.489,1.06-2.552,1.06C345.769,462.406,344.919,462.053,344.281,461.347
		 M350.603,463.393c0,0.618,0.207,1.121,0.623,1.508s0.952,0.58,1.61,0.58h2.494V462h-0.551c-0.522,0-0.783-0.29-0.783-0.87v-10.034
		h-3.654v1.74h-0.521c-0.368-0.734-0.866-1.275-1.494-1.624s-1.455-0.522-2.479-0.522c-0.851,0-1.648,0.17-2.393,0.508
		c-0.744,0.339-1.397,0.826-1.957,1.465c-0.562,0.638-1.006,1.412-1.334,2.32c-0.329,0.908-0.493,1.933-0.493,3.074v0.463
		c0,1.16,0.169,2.194,0.507,3.104c0.338,0.908,0.798,1.682,1.378,2.32c0.58,0.638,1.251,1.121,2.016,1.449
		c0.764,0.329,1.581,0.493,2.45,0.493c0.929,0,1.74-0.188,2.437-0.565s1.237-1.02,1.624-1.928H350.603z M333.464,459.303
		c-0.174,0.948-0.556,1.701-1.146,2.262c-0.591,0.562-1.445,0.842-2.566,0.842c-0.522,0-1.015-0.082-1.479-0.246
		c-0.464-0.164-0.869-0.411-1.218-0.74c-0.348-0.329-0.624-0.738-0.827-1.232c-0.202-0.494-0.304-1.059-0.304-1.696v-0.175
		c0-0.638,0.102-1.213,0.304-1.725c0.203-0.513,0.479-0.947,0.827-1.305c0.349-0.358,0.754-0.635,1.218-0.827
		c0.465-0.192,0.957-0.29,1.479-0.29c1.121,0,1.991,0.311,2.61,0.928c0.617,0.619,0.985,1.354,1.102,2.204l3.596-0.928
		c-0.329-1.701-1.116-3.074-2.363-4.118s-2.876-1.566-4.887-1.566c-1.044,0-2.025,0.174-2.943,0.522s-1.722,0.851-2.407,1.508
		c-0.687,0.657-1.223,1.45-1.609,2.378s-0.58,1.973-0.58,3.133v0.348c0,1.16,0.193,2.193,0.58,3.104
		c0.387,0.908,0.918,1.672,1.596,2.29c0.676,0.619,1.474,1.093,2.392,1.421c0.918,0.329,1.909,0.493,2.973,0.493
		c2.05,0,3.688-0.522,4.915-1.565c1.229-1.045,2.006-2.418,2.335-4.118L333.464,459.303z M304.58,454.576h2.609V462h-2.958v3.48
		h9.919V462h-3.307v-4.641c0-1.043,0.232-1.846,0.696-2.406s1.102-0.842,1.914-0.842c0.812,0,1.421,0.238,1.827,0.711
		c0.405,0.474,0.608,1.106,0.608,1.899v0.406l3.771-0.349v-0.637c0-1.836-0.436-3.205-1.306-4.104
		c-0.869-0.899-2.021-1.349-3.45-1.349c-0.909,0-1.688,0.217-2.335,0.652c-0.648,0.436-1.107,1.049-1.378,1.842h-0.521v-2.088h-6.09
		V454.576z M296.503,454.663c0.609,0.444,0.972,1.005,1.088,1.682h-6.786c0.174-0.618,0.551-1.165,1.131-1.638
		c0.58-0.475,1.334-0.711,2.263-0.711C295.126,453.996,295.894,454.218,296.503,454.663 M301.303,459.477v-1.942
		c0-0.755-0.136-1.532-0.406-2.335s-0.695-1.537-1.275-2.203c-0.58-0.667-1.315-1.219-2.204-1.654
		c-0.89-0.436-1.953-0.652-3.19-0.652c-1.006,0-1.947,0.18-2.828,0.537c-0.88,0.357-1.647,0.855-2.305,1.493
		c-0.658,0.638-1.175,1.411-1.552,2.32s-0.565,1.914-0.565,3.017v0.174c0,1.198,0.179,2.271,0.536,3.219
		c0.358,0.947,0.86,1.75,1.508,2.406c0.648,0.658,1.416,1.16,2.307,1.508c0.889,0.349,1.875,0.522,2.958,0.522
		c0.946,0,1.772-0.106,2.479-0.319c0.706-0.211,1.306-0.482,1.798-0.812c0.493-0.329,0.895-0.69,1.204-1.087
		s0.551-0.779,0.726-1.146l-3.132-1.74c-0.214,0.445-0.562,0.826-1.045,1.146c-0.483,0.318-1.18,0.479-2.088,0.479
		c-0.464,0-0.903-0.072-1.319-0.219c-0.416-0.145-0.783-0.348-1.103-0.608c-0.318-0.261-0.569-0.57-0.754-0.927
		c-0.184-0.358-0.285-0.75-0.304-1.176H301.303z M280.22,459.303c-0.174,0.948-0.556,1.701-1.146,2.262
		c-0.59,0.562-1.445,0.842-2.566,0.842c-0.522,0-1.015-0.082-1.479-0.246s-0.87-0.411-1.218-0.74
		c-0.348-0.329-0.624-0.738-0.827-1.232s-0.304-1.059-0.304-1.696v-0.175c0-0.638,0.101-1.213,0.304-1.725
		c0.203-0.513,0.479-0.947,0.827-1.305c0.348-0.358,0.754-0.635,1.218-0.827s0.957-0.29,1.479-0.29c1.121,0,1.991,0.311,2.61,0.928
		c0.618,0.619,0.986,1.354,1.102,2.204l3.596-0.928c-0.328-1.701-1.116-3.074-2.364-4.118c-1.247-1.044-2.876-1.566-4.886-1.566
		c-1.044,0-2.026,0.174-2.944,0.522s-1.721,0.851-2.407,1.508s-1.223,1.45-1.609,2.378c-0.387,0.928-0.58,1.973-0.58,3.133v0.348
		c0,1.16,0.193,2.193,0.58,3.104c0.386,0.908,0.918,1.672,1.595,2.29c0.676,0.619,1.474,1.093,2.392,1.421
		c0.918,0.329,1.909,0.493,2.973,0.493c2.049,0,3.687-0.522,4.915-1.565c1.228-1.045,2.006-2.418,2.334-4.118L280.22,459.303z
		 M255.541,461.347c-0.638-0.704-0.957-1.667-0.957-2.885v-0.349c0-1.217,0.319-2.18,0.957-2.885
		c0.638-0.705,1.488-1.059,2.552-1.059c1.063,0,1.914,0.354,2.552,1.059c0.638,0.705,0.957,1.668,0.957,2.885v0.349
		c0,1.218-0.319,2.181-0.957,2.885c-0.638,0.706-1.489,1.06-2.552,1.06C257.029,462.406,256.179,462.053,255.541,461.347
		 M261.863,463.393c0,0.618,0.207,1.121,0.623,1.508s0.952,0.58,1.61,0.58h2.494V462h-0.551c-0.522,0-0.783-0.29-0.783-0.87v-10.034
		h-3.654v1.74h-0.522c-0.368-0.734-0.866-1.275-1.494-1.624s-1.455-0.522-2.479-0.522c-0.851,0-1.649,0.17-2.393,0.508
		c-0.744,0.339-1.397,0.826-1.957,1.465c-0.561,0.638-1.006,1.412-1.334,2.32c-0.329,0.908-0.493,1.933-0.493,3.074v0.463
		c0,1.16,0.169,2.194,0.507,3.104c0.338,0.908,0.798,1.682,1.378,2.32c0.58,0.638,1.251,1.121,2.015,1.449
		c0.764,0.329,1.581,0.493,2.451,0.493c0.928,0,1.74-0.188,2.436-0.565c0.696-0.377,1.237-1.02,1.624-1.928H261.863z
		 M220.19,457.998c0-1.219,0.265-2.189,0.797-2.914c0.532-0.727,1.339-1.088,2.422-1.088c0.928,0,1.638,0.295,2.131,0.885
		c0.493,0.589,0.74,1.396,0.74,2.421v8.179h3.654v-9.106c0-0.986-0.131-1.837-0.392-2.552c-0.261-0.715-0.623-1.305-1.087-1.77
		c-0.464-0.464-1.001-0.807-1.61-1.029c-0.609-0.223-1.261-0.334-1.957-0.334c-0.986,0-1.847,0.223-2.581,0.668
		c-0.735,0.444-1.267,1.072-1.595,1.885h-0.522v-2.146h-3.654v14.385h3.654V457.998z M203.979,448.95h2.958l2.436-3.944h-3.886
		L203.979,448.95z M203.921,462.145c-0.464-0.174-0.87-0.425-1.218-0.754c-0.348-0.328-0.624-0.729-0.827-1.203
		s-0.304-1.01-0.304-1.609v-0.58c0-0.6,0.101-1.137,0.304-1.609c0.203-0.474,0.479-0.875,0.827-1.203
		c0.348-0.33,0.754-0.58,1.218-0.754c0.464-0.175,0.957-0.262,1.479-0.262s1.015,0.087,1.479,0.262
		c0.464,0.174,0.87,0.424,1.218,0.754c0.348,0.328,0.623,0.729,0.826,1.203c0.203,0.473,0.305,1.01,0.305,1.609v0.58
		c0,0.6-0.102,1.136-0.305,1.609s-0.478,0.875-0.826,1.203c-0.348,0.329-0.754,0.58-1.218,0.754s-0.957,0.262-1.479,0.262
		S204.385,462.318,203.921,462.145 M212.882,458.113c0-1.178-0.203-2.228-0.609-3.146c-0.406-0.918-0.957-1.695-1.653-2.334
		c-0.696-0.638-1.494-1.121-2.393-1.449s-1.841-0.494-2.827-0.494s-1.929,0.166-2.828,0.494s-1.696,0.812-2.392,1.449
		c-0.696,0.639-1.247,1.416-1.653,2.334c-0.406,0.919-0.609,1.969-0.609,3.146v0.349c0,1.199,0.203,2.258,0.609,3.175
		c0.406,0.92,0.957,1.692,1.653,2.32c0.696,0.629,1.493,1.107,2.392,1.436c0.899,0.329,1.842,0.493,2.828,0.493
		s1.928-0.164,2.827-0.493c0.899-0.328,1.697-0.807,2.393-1.436c0.696-0.628,1.247-1.4,1.653-2.32
		c0.406-0.917,0.609-1.976,0.609-3.175V458.113z M190.508,445.746c-0.145-0.34-0.343-0.629-0.594-0.87
		c-0.252-0.242-0.547-0.435-0.885-0.581c-0.338-0.145-0.691-0.217-1.058-0.217c-0.387,0-0.745,0.072-1.073,0.217
		c-0.329,0.146-0.619,0.339-0.87,0.581c-0.252,0.241-0.45,0.53-0.595,0.87c-0.145,0.338-0.217,0.699-0.217,1.087
		c0,0.387,0.072,0.749,0.217,1.087c0.145,0.339,0.343,0.629,0.595,0.87c0.251,0.241,0.541,0.435,0.87,0.581
		c0.328,0.145,0.686,0.217,1.073,0.217c0.367,0,0.72-0.072,1.058-0.217c0.338-0.146,0.633-0.34,0.885-0.581
		c0.251-0.241,0.449-0.531,0.594-0.87c0.145-0.338,0.218-0.7,0.218-1.087C190.726,446.445,190.653,446.084,190.508,445.746
		 M181.301,465.48h12.702V462h-4.176v-10.904h-8.178v3.48h4.524V462h-4.872V465.48z M173.732,459.303
		c-0.174,0.948-0.556,1.701-1.146,2.262c-0.59,0.562-1.445,0.842-2.566,0.842c-0.522,0-1.015-0.082-1.479-0.246
		c-0.464-0.164-0.87-0.411-1.218-0.74c-0.348-0.329-0.624-0.738-0.827-1.232c-0.203-0.494-0.304-1.059-0.304-1.696v-0.175
		c0-0.638,0.101-1.213,0.304-1.725c0.203-0.513,0.479-0.947,0.827-1.305c0.348-0.358,0.754-0.635,1.218-0.827
		c0.464-0.192,0.957-0.29,1.479-0.29c1.121,0,1.991,0.311,2.61,0.928c0.618,0.619,0.986,1.354,1.102,2.204l3.596-0.928
		c-0.329-1.701-1.117-3.074-2.364-4.118s-2.876-1.566-4.886-1.566c-1.044,0-2.026,0.174-2.944,0.522s-1.721,0.851-2.407,1.508
		s-1.223,1.45-1.609,2.378c-0.387,0.928-0.58,1.973-0.58,3.133v0.348c0,1.16,0.193,2.193,0.58,3.104
		c0.386,0.908,0.918,1.672,1.595,2.29c0.676,0.619,1.474,1.093,2.392,1.421c0.918,0.329,1.909,0.493,2.973,0.493
		c2.049,0,3.687-0.522,4.915-1.565c1.228-1.045,2.006-2.418,2.335-4.118L173.732,459.303z M149.053,461.347
		c-0.638-0.704-0.957-1.667-0.957-2.885v-0.349c0-1.217,0.319-2.18,0.957-2.885c0.638-0.705,1.488-1.059,2.552-1.059
		c1.063,0,1.914,0.354,2.552,1.059c0.638,0.705,0.957,1.668,0.957,2.885v0.349c0,1.218-0.319,2.181-0.957,2.885
		c-0.638,0.706-1.489,1.06-2.552,1.06C150.541,462.406,149.691,462.053,149.053,461.347 M155.375,463.393
		c0,0.618,0.207,1.121,0.623,1.508s0.952,0.58,1.61,0.58h2.494V462h-0.551c-0.522,0-0.783-0.29-0.783-0.87v-10.034h-3.654v1.74
		h-0.522c-0.368-0.734-0.866-1.275-1.494-1.624c-0.628-0.349-1.455-0.522-2.479-0.522c-0.851,0-1.649,0.17-2.393,0.508
		c-0.744,0.339-1.397,0.826-1.957,1.465c-0.561,0.638-1.006,1.412-1.334,2.32c-0.329,0.908-0.493,1.933-0.493,3.074v0.463
		c0,1.16,0.169,2.194,0.507,3.104c0.338,0.908,0.798,1.682,1.378,2.32c0.58,0.638,1.251,1.121,2.015,1.449
		c0.764,0.329,1.581,0.493,2.451,0.493c0.928,0,1.74-0.188,2.436-0.565c0.696-0.377,1.237-1.02,1.624-1.928H155.375z
		 M142.238,454.344c0-1.14-0.29-2.035-0.87-2.682c-0.58-0.648-1.354-0.973-2.32-0.973c-0.735,0-1.349,0.17-1.842,0.508
		c-0.493,0.339-0.817,0.769-0.971,1.291h-0.522c-0.155-0.522-0.455-0.952-0.899-1.291c-0.445-0.338-0.986-0.508-1.624-0.508
		c-0.677,0-1.223,0.17-1.639,0.508c-0.416,0.339-0.681,0.769-0.797,1.291h-0.522v-1.393h-3.654v14.385h3.654v-9.918
		c0-0.465,0.116-0.812,0.348-1.045c0.232-0.231,0.522-0.348,0.87-0.348c0.309,0,0.575,0.102,0.797,0.305
		c0.222,0.203,0.334,0.508,0.334,0.913v10.093h3.654v-9.918c0-0.465,0.111-0.812,0.333-1.045c0.222-0.231,0.527-0.348,0.914-0.348
		c0.328,0,0.594,0.102,0.797,0.305s0.305,0.508,0.305,0.913v10.093h3.654V454.344z M109.352,454.576h2.61V462h-2.958v3.48h9.918V462
		h-3.306v-4.641c0-1.043,0.232-1.846,0.696-2.406c0.464-0.561,1.102-0.842,1.914-0.842s1.421,0.238,1.827,0.711
		c0.406,0.474,0.609,1.106,0.609,1.899v0.406l3.77-0.349v-0.637c0-1.836-0.435-3.205-1.305-4.104s-2.021-1.349-3.451-1.349
		c-0.909,0-1.687,0.217-2.335,0.652s-1.107,1.049-1.377,1.842h-0.522v-2.088h-6.09V454.576z M97.433,462.145
		c-0.464-0.174-0.87-0.425-1.218-0.754c-0.348-0.328-0.624-0.729-0.827-1.203c-0.203-0.474-0.304-1.01-0.304-1.609v-0.58
		c0-0.6,0.101-1.137,0.304-1.609c0.203-0.474,0.479-0.875,0.827-1.203c0.348-0.33,0.754-0.58,1.218-0.754
		c0.464-0.175,0.957-0.262,1.479-0.262s1.015,0.087,1.479,0.262c0.464,0.174,0.87,0.424,1.218,0.754
		c0.348,0.328,0.623,0.729,0.826,1.203c0.203,0.473,0.305,1.01,0.305,1.609v0.58c0,0.6-0.102,1.136-0.305,1.609
		c-0.203,0.474-0.478,0.875-0.826,1.203c-0.348,0.329-0.754,0.58-1.218,0.754c-0.464,0.174-0.957,0.262-1.479,0.262
		S97.897,462.318,97.433,462.145 M106.394,458.113c0-1.178-0.203-2.228-0.609-3.146c-0.406-0.918-0.957-1.695-1.653-2.334
		c-0.696-0.638-1.494-1.121-2.393-1.449s-1.841-0.494-2.827-0.494c-0.986,0-1.929,0.166-2.828,0.494s-1.696,0.812-2.392,1.449
		c-0.696,0.639-1.247,1.416-1.653,2.334c-0.406,0.919-0.609,1.969-0.609,3.146v0.349c0,1.199,0.203,2.258,0.609,3.175
		c0.406,0.92,0.957,1.692,1.653,2.32c0.696,0.629,1.493,1.107,2.392,1.436c0.899,0.329,1.842,0.493,2.828,0.493
		c0.986,0,1.928-0.164,2.827-0.493c0.899-0.328,1.697-0.807,2.393-1.436c0.696-0.628,1.247-1.4,1.653-2.32
		c0.406-0.917,0.609-1.976,0.609-3.175V458.113z M74.436,454.576h4.089v10.904h3.654v-10.904h5.655v-3.48h-5.655v-1.566
		c0-0.579,0.261-0.869,0.783-0.869h4.35v-3.48h-5.858c-0.832,0-1.528,0.285-2.088,0.855c-0.561,0.57-0.841,1.271-0.841,2.103v2.958
		h-4.089V454.576z M60.458,457.998c0-1.219,0.266-2.189,0.797-2.914c0.532-0.727,1.339-1.088,2.422-1.088
		c0.928,0,1.638,0.295,2.131,0.885c0.493,0.589,0.74,1.396,0.74,2.421v8.179h3.654v-9.106c0-0.986-0.131-1.837-0.392-2.552
		c-0.261-0.715-0.623-1.305-1.087-1.77c-0.464-0.464-1.001-0.807-1.61-1.029s-1.261-0.334-1.957-0.334
		c-0.986,0-1.846,0.223-2.581,0.668c-0.735,0.444-1.266,1.072-1.595,1.885h-0.522v-2.146h-3.654v14.385h3.654V457.998z
		 M48.525,445.746c-0.145-0.34-0.344-0.629-0.595-0.87c-0.251-0.242-0.546-0.435-0.884-0.581c-0.339-0.145-0.692-0.217-1.059-0.217
		c-0.387,0-0.744,0.072-1.073,0.217c-0.329,0.146-0.619,0.339-0.87,0.581c-0.251,0.241-0.449,0.53-0.594,0.87
		c-0.145,0.338-0.218,0.699-0.218,1.087c0,0.387,0.073,0.749,0.218,1.087c0.145,0.339,0.343,0.629,0.594,0.87
		s0.541,0.435,0.87,0.581c0.329,0.145,0.686,0.217,1.073,0.217c0.367,0,0.72-0.072,1.059-0.217c0.338-0.146,0.633-0.34,0.884-0.581
		s0.45-0.531,0.595-0.87c0.145-0.338,0.217-0.7,0.217-1.087C48.742,446.445,48.67,446.084,48.525,445.746 M39.317,465.48h12.702V462
		h-4.176v-10.904h-8.178v3.48h4.524V462h-4.872V465.48z"/>
	<path clip-path="url(#SVGID_2_)" fill="#231F20" d="M314.251,407.663c0.608,0.444,0.972,1.005,1.088,1.682h-6.786
		c0.174-0.618,0.551-1.165,1.131-1.638c0.58-0.475,1.334-0.711,2.263-0.711C312.874,406.996,313.642,407.218,314.251,407.663
		 M319.051,412.477v-1.942c0-0.755-0.136-1.532-0.406-2.335s-0.695-1.537-1.275-2.203c-0.58-0.667-1.315-1.219-2.204-1.654
		c-0.891-0.436-1.953-0.652-3.19-0.652c-1.006,0-1.947,0.18-2.828,0.537c-0.88,0.357-1.647,0.855-2.305,1.493
		c-0.658,0.638-1.175,1.411-1.552,2.32s-0.565,1.914-0.565,3.017v0.174c0,1.198,0.179,2.271,0.536,3.219
		c0.358,0.947,0.86,1.75,1.508,2.406c0.648,0.658,1.416,1.16,2.307,1.508c0.889,0.349,1.875,0.522,2.958,0.522
		c0.946,0,1.772-0.106,2.479-0.319c0.706-0.211,1.305-0.482,1.798-0.812s0.895-0.69,1.204-1.087s0.551-0.779,0.726-1.146
		l-3.133-1.74c-0.213,0.445-0.561,0.826-1.044,1.146c-0.483,0.318-1.18,0.479-2.088,0.479c-0.464,0-0.903-0.072-1.319-0.219
		c-0.416-0.145-0.783-0.348-1.103-0.608c-0.318-0.261-0.57-0.57-0.754-0.927c-0.184-0.358-0.285-0.75-0.304-1.176H319.051z
		 M274.826,407.329c0.309-0.222,0.773-0.333,1.392-0.333c0.676,0,1.227,0.15,1.653,0.449c0.425,0.301,0.725,0.711,0.899,1.232
		l3.306-1.334c-0.155-0.406-0.377-0.826-0.667-1.262s-0.667-0.831-1.131-1.188c-0.464-0.358-1.03-0.648-1.697-0.871
		s-1.455-0.334-2.363-0.334c-0.696,0-1.373,0.098-2.03,0.291c-0.658,0.192-1.238,0.479-1.74,0.854
		c-0.503,0.377-0.909,0.837-1.218,1.378c-0.31,0.541-0.464,1.17-0.464,1.885v0.174c0,1.373,0.478,2.412,1.435,3.117
		c0.957,0.706,2.248,1.127,3.872,1.262c0.599,0.059,1.097,0.137,1.493,0.232c0.396,0.098,0.711,0.217,0.943,0.363
		c0.232,0.145,0.391,0.299,0.478,0.463c0.087,0.165,0.131,0.344,0.131,0.537c0,0.329-0.17,0.633-0.508,0.914
		c-0.338,0.279-0.962,0.42-1.87,0.42c-1.025,0-1.784-0.232-2.277-0.696s-0.817-1.005-0.971-1.624l-3.364,1.102
		c0.096,0.504,0.285,1.021,0.565,1.552c0.28,0.532,0.682,1.015,1.204,1.45c0.522,0.435,1.179,0.798,1.972,1.088
		c0.792,0.29,1.749,0.435,2.871,0.435c1.894,0,3.364-0.425,4.408-1.276c1.043-0.851,1.566-1.99,1.566-3.422v-0.174
		c0-1.295-0.464-2.305-1.392-3.031c-0.928-0.724-2.127-1.164-3.596-1.318c-1.276-0.135-2.156-0.305-2.639-0.508
		c-0.484-0.202-0.725-0.536-0.725-1C274.362,407.827,274.516,407.552,274.826,407.329 M257.165,415.145
		c-0.464-0.174-0.87-0.425-1.218-0.754c-0.348-0.328-0.624-0.729-0.827-1.203c-0.203-0.474-0.304-1.01-0.304-1.609v-0.58
		c0-0.6,0.101-1.137,0.304-1.609c0.203-0.474,0.479-0.875,0.827-1.203c0.348-0.33,0.754-0.58,1.218-0.754
		c0.464-0.175,0.957-0.262,1.479-0.262s1.015,0.087,1.479,0.262c0.464,0.174,0.87,0.424,1.218,0.754
		c0.348,0.328,0.623,0.729,0.826,1.203c0.203,0.473,0.305,1.01,0.305,1.609v0.58c0,0.6-0.102,1.136-0.305,1.609
		s-0.478,0.875-0.826,1.203c-0.348,0.329-0.754,0.58-1.218,0.754c-0.464,0.174-0.957,0.262-1.479,0.262
		S257.629,415.318,257.165,415.145 M266.126,411.113c0-1.178-0.203-2.228-0.609-3.146c-0.406-0.918-0.957-1.695-1.653-2.334
		c-0.696-0.638-1.494-1.121-2.393-1.449c-0.899-0.328-1.841-0.494-2.827-0.494c-0.986,0-1.929,0.166-2.828,0.494
		s-1.696,0.812-2.392,1.449c-0.696,0.639-1.247,1.416-1.653,2.334c-0.406,0.919-0.609,1.969-0.609,3.146v0.349
		c0,1.199,0.203,2.258,0.609,3.175c0.406,0.92,0.957,1.692,1.653,2.32c0.696,0.629,1.493,1.107,2.392,1.436
		c0.899,0.329,1.842,0.493,2.828,0.493c0.986,0,1.928-0.164,2.827-0.493c0.899-0.328,1.697-0.807,2.393-1.436
		c0.696-0.628,1.247-1.4,1.653-2.32c0.406-0.917,0.609-1.976,0.609-3.175V411.113z M233.878,407.576h4.263v8.642
		c0,0.658,0.207,1.199,0.623,1.624c0.416,0.426,0.952,0.639,1.61,0.639h6.09V415h-3.886c-0.522,0-0.783-0.29-0.783-0.87v-6.554
		h5.191v-3.48h-5.191v-5.916h-3.654v5.916h-4.263V407.576z M220.19,410.998c0-1.219,0.265-2.189,0.797-2.914
		c0.532-0.727,1.339-1.088,2.422-1.088c0.928,0,1.638,0.295,2.131,0.885c0.493,0.589,0.74,1.396,0.74,2.421v8.179h3.654v-9.106
		c0-0.986-0.131-1.837-0.392-2.552c-0.261-0.715-0.623-1.305-1.087-1.77c-0.464-0.464-1.001-0.807-1.61-1.029
		c-0.609-0.223-1.261-0.334-1.957-0.334c-0.986,0-1.847,0.223-2.581,0.668c-0.735,0.444-1.267,1.072-1.595,1.885h-0.522v-2.146
		h-3.654v14.385h3.654V410.998z M207.763,407.663c0.609,0.444,0.972,1.005,1.088,1.682h-6.786c0.174-0.618,0.551-1.165,1.131-1.638
		c0.58-0.475,1.334-0.711,2.262-0.711C206.386,406.996,207.154,407.218,207.763,407.663 M212.563,412.477v-1.942
		c0-0.755-0.136-1.532-0.406-2.335c-0.271-0.803-0.696-1.537-1.276-2.203c-0.58-0.667-1.315-1.219-2.204-1.654
		c-0.89-0.436-1.953-0.652-3.19-0.652c-1.006,0-1.948,0.18-2.828,0.537c-0.88,0.357-1.648,0.855-2.305,1.493
		c-0.658,0.638-1.175,1.411-1.552,2.32s-0.565,1.914-0.565,3.017v0.174c0,1.198,0.178,2.271,0.536,3.219s0.86,1.75,1.508,2.406
		c0.648,0.658,1.416,1.16,2.306,1.508c0.889,0.349,1.875,0.522,2.958,0.522c0.947,0,1.773-0.106,2.479-0.319
		c0.706-0.211,1.305-0.482,1.798-0.812c0.493-0.329,0.894-0.69,1.204-1.087c0.309-0.396,0.551-0.779,0.725-1.146l-3.132-1.74
		c-0.213,0.445-0.561,0.826-1.044,1.146c-0.484,0.318-1.18,0.479-2.088,0.479c-0.464,0-0.904-0.072-1.32-0.219
		c-0.416-0.145-0.783-0.348-1.102-0.608s-0.57-0.57-0.754-0.927c-0.184-0.358-0.285-0.75-0.304-1.176H212.563z M195.482,407.344
		c0-1.14-0.29-2.035-0.87-2.682c-0.58-0.648-1.354-0.973-2.32-0.973c-0.735,0-1.349,0.17-1.842,0.508
		c-0.493,0.339-0.817,0.769-0.971,1.291h-0.522c-0.155-0.522-0.455-0.952-0.899-1.291c-0.445-0.338-0.986-0.508-1.624-0.508
		c-0.677,0-1.223,0.17-1.639,0.508c-0.416,0.339-0.681,0.769-0.797,1.291h-0.522v-1.393h-3.654v14.385h3.654v-9.918
		c0-0.465,0.116-0.812,0.348-1.045c0.232-0.231,0.522-0.348,0.87-0.348c0.309,0,0.575,0.102,0.797,0.305
		c0.222,0.203,0.334,0.508,0.334,0.913v10.093h3.654v-9.918c0-0.465,0.111-0.812,0.333-1.045c0.222-0.231,0.527-0.348,0.914-0.348
		c0.328,0,0.594,0.102,0.797,0.305s0.305,0.508,0.305,0.913v10.093h3.654V407.344z M166.96,414.347
		c-0.706-0.704-1.058-1.667-1.058-2.885v-0.349c0-1.217,0.352-2.18,1.058-2.885s1.629-1.059,2.77-1.059
		c1.14,0,2.063,0.361,2.769,1.087s1.059,1.679,1.059,2.856v0.349c0,1.179-0.353,2.132-1.059,2.856s-1.629,1.088-2.769,1.088
		C168.589,415.406,167.666,415.053,166.96,414.347 M173.558,419.93c0,0.58-0.261,0.87-0.783,0.87h-7.482v3.479h9.686
		c0.657,0,1.193-0.213,1.609-0.637c0.416-0.426,0.624-0.968,0.624-1.625v-17.922h-3.654v2.088h-0.522
		c-0.387-0.793-0.919-1.406-1.595-1.842c-0.677-0.436-1.595-0.652-2.755-0.652c-0.87,0-1.697,0.166-2.48,0.494
		c-0.783,0.328-1.469,0.807-2.059,1.435c-0.59,0.629-1.054,1.397-1.392,2.306c-0.338,0.909-0.507,1.943-0.507,3.104v0.521
		c0,1.18,0.159,2.223,0.478,3.133c0.319,0.908,0.764,1.676,1.334,2.305c0.57,0.629,1.237,1.103,2.001,1.42
		c0.764,0.32,1.59,0.479,2.48,0.479c0.696,0,1.29-0.067,1.783-0.202c0.493-0.136,0.918-0.32,1.276-0.552
		c0.358-0.231,0.648-0.498,0.87-0.798c0.222-0.299,0.411-0.613,0.566-0.941h0.522V419.93z M149.053,414.347
		c-0.638-0.704-0.957-1.667-0.957-2.885v-0.349c0-1.217,0.319-2.18,0.957-2.885c0.638-0.705,1.488-1.059,2.552-1.059
		c1.063,0,1.914,0.354,2.552,1.059c0.638,0.705,0.957,1.668,0.957,2.885v0.349c0,1.218-0.319,2.181-0.957,2.885
		c-0.638,0.706-1.489,1.06-2.552,1.06C150.541,415.406,149.691,415.053,149.053,414.347 M155.375,416.393
		c0,0.618,0.207,1.121,0.623,1.508s0.952,0.58,1.61,0.58h2.494V415h-0.551c-0.522,0-0.783-0.29-0.783-0.87v-10.034h-3.654v1.74
		h-0.522c-0.368-0.734-0.866-1.275-1.494-1.624c-0.628-0.349-1.455-0.522-2.479-0.522c-0.851,0-1.649,0.17-2.393,0.508
		c-0.744,0.339-1.397,0.826-1.957,1.465c-0.561,0.638-1.006,1.412-1.334,2.32c-0.329,0.908-0.493,1.933-0.493,3.074v0.463
		c0,1.16,0.169,2.194,0.507,3.104c0.338,0.908,0.798,1.682,1.378,2.32c0.58,0.638,1.251,1.121,2.015,1.449
		c0.764,0.329,1.581,0.493,2.451,0.493c0.928,0,1.74-0.188,2.436-0.565c0.696-0.377,1.237-1.02,1.624-1.928H155.375z M127.1,407.576
		h2.61V415h-2.958v3.48h9.918V415h-3.306v-4.641c0-1.043,0.232-1.846,0.696-2.406c0.464-0.561,1.102-0.842,1.914-0.842
		s1.421,0.238,1.827,0.711c0.406,0.474,0.609,1.106,0.609,1.899v0.406l3.77-0.349v-0.637c0-1.836-0.435-3.205-1.305-4.104
		s-2.021-1.349-3.451-1.349c-0.909,0-1.687,0.217-2.335,0.652s-1.107,1.049-1.377,1.842h-0.522v-2.088h-6.09V407.576z
		 M109.932,407.576h4.089v10.904h3.654v-10.904h5.655v-3.48h-5.655v-1.566c0-0.579,0.261-0.869,0.783-0.869h4.35v-3.48h-5.858
		c-0.832,0-1.528,0.285-2.088,0.855c-0.561,0.57-0.841,1.271-0.841,2.103v2.958h-4.089V407.576z M79.598,407.329
		c0.309-0.222,0.773-0.333,1.392-0.333c0.676,0,1.227,0.15,1.653,0.449c0.425,0.301,0.725,0.711,0.899,1.232l3.306-1.334
		c-0.155-0.406-0.377-0.826-0.667-1.262c-0.29-0.436-0.667-0.831-1.131-1.188c-0.464-0.358-1.03-0.648-1.697-0.871
		s-1.455-0.334-2.363-0.334c-0.696,0-1.373,0.098-2.03,0.291c-0.658,0.192-1.238,0.479-1.74,0.854
		c-0.503,0.377-0.909,0.837-1.218,1.378c-0.31,0.541-0.464,1.17-0.464,1.885v0.174c0,1.373,0.478,2.412,1.435,3.117
		c0.957,0.706,2.248,1.127,3.872,1.262c0.599,0.059,1.097,0.137,1.493,0.232c0.397,0.098,0.711,0.217,0.943,0.363
		c0.232,0.145,0.391,0.299,0.478,0.463c0.087,0.165,0.131,0.344,0.131,0.537c0,0.329-0.17,0.633-0.508,0.914
		c-0.338,0.279-0.962,0.42-1.87,0.42c-1.025,0-1.784-0.232-2.277-0.696s-0.817-1.005-0.971-1.624l-3.364,1.102
		c0.096,0.504,0.285,1.021,0.565,1.552c0.281,0.532,0.682,1.015,1.204,1.45c0.522,0.435,1.179,0.798,1.972,1.088
		c0.792,0.29,1.749,0.435,2.871,0.435c1.894,0,3.364-0.425,4.408-1.276c1.044-0.851,1.566-1.99,1.566-3.422v-0.174
		c0-1.295-0.464-2.305-1.392-3.031c-0.928-0.724-2.127-1.164-3.596-1.318c-1.276-0.135-2.156-0.305-2.639-0.508
		c-0.484-0.202-0.725-0.536-0.725-1C79.134,407.827,79.288,407.552,79.598,407.329 M61.937,415.145
		c-0.464-0.174-0.87-0.425-1.218-0.754c-0.348-0.328-0.624-0.729-0.827-1.203c-0.203-0.474-0.304-1.01-0.304-1.609v-0.58
		c0-0.6,0.101-1.137,0.304-1.609c0.203-0.474,0.479-0.875,0.827-1.203c0.348-0.33,0.754-0.58,1.218-0.754
		c0.464-0.175,0.957-0.262,1.479-0.262s1.015,0.087,1.479,0.262c0.464,0.174,0.87,0.424,1.218,0.754
		c0.348,0.328,0.623,0.729,0.826,1.203c0.203,0.473,0.305,1.01,0.305,1.609v0.58c0,0.6-0.102,1.136-0.305,1.609
		s-0.478,0.875-0.826,1.203c-0.348,0.329-0.754,0.58-1.218,0.754c-0.464,0.174-0.957,0.262-1.479,0.262
		S62.401,415.318,61.937,415.145 M70.898,411.113c0-1.178-0.203-2.228-0.609-3.146c-0.406-0.918-0.957-1.695-1.653-2.334
		c-0.696-0.638-1.494-1.121-2.393-1.449c-0.899-0.328-1.841-0.494-2.827-0.494c-0.986,0-1.929,0.166-2.828,0.494
		s-1.696,0.812-2.392,1.449c-0.696,0.639-1.247,1.416-1.653,2.334c-0.406,0.919-0.609,1.969-0.609,3.146v0.349
		c0,1.199,0.203,2.258,0.609,3.175c0.406,0.92,0.957,1.692,1.653,2.32c0.696,0.629,1.493,1.107,2.392,1.436
		c0.899,0.329,1.842,0.493,2.828,0.493c0.986,0,1.928-0.164,2.827-0.493c0.899-0.328,1.697-0.807,2.393-1.436
		c0.696-0.628,1.247-1.4,1.653-2.32c0.406-0.917,0.609-1.976,0.609-3.175V411.113z M38.969,418.48h13.398V415h-4.698v-16.82h-8.526
		v3.48h4.872V415h-5.046V418.48z"/>
	<path clip-path="url(#SVGID_2_)" fill="#231F20" d="M274.826,360.329c0.309-0.222,0.773-0.333,1.392-0.333
		c0.676,0,1.227,0.15,1.653,0.449c0.425,0.3,0.725,0.711,0.899,1.232l3.306-1.334c-0.155-0.406-0.377-0.826-0.667-1.262
		s-0.667-0.831-1.131-1.188c-0.464-0.358-1.03-0.648-1.697-0.871s-1.455-0.334-2.363-0.334c-0.696,0-1.373,0.098-2.03,0.291
		c-0.658,0.192-1.238,0.479-1.74,0.854c-0.503,0.377-0.909,0.837-1.218,1.378c-0.31,0.541-0.464,1.17-0.464,1.885v0.174
		c0,1.373,0.478,2.412,1.435,3.117c0.957,0.706,2.248,1.127,3.872,1.262c0.599,0.059,1.097,0.136,1.493,0.232
		c0.396,0.098,0.711,0.217,0.943,0.363c0.232,0.145,0.391,0.299,0.478,0.463c0.087,0.165,0.131,0.344,0.131,0.537
		c0,0.329-0.17,0.633-0.508,0.914c-0.338,0.279-0.962,0.42-1.87,0.42c-1.025,0-1.784-0.232-2.277-0.696
		c-0.493-0.464-0.817-1.005-0.971-1.624l-3.364,1.102c0.096,0.504,0.285,1.021,0.565,1.552c0.28,0.532,0.682,1.015,1.204,1.45
		c0.522,0.435,1.179,0.798,1.972,1.088c0.792,0.29,1.749,0.435,2.871,0.435c1.894,0,3.364-0.425,4.408-1.276
		c1.044-0.851,1.566-1.99,1.566-3.422v-0.174c0-1.295-0.464-2.305-1.392-3.031c-0.928-0.724-2.127-1.164-3.596-1.318
		c-1.276-0.135-2.156-0.305-2.639-0.508c-0.484-0.202-0.725-0.536-0.725-1C274.362,360.827,274.516,360.552,274.826,360.329
		 M257.165,368.145c-0.464-0.174-0.87-0.425-1.218-0.754c-0.348-0.328-0.624-0.729-0.827-1.203s-0.304-1.01-0.304-1.609v-0.58
		c0-0.6,0.101-1.137,0.304-1.609c0.203-0.474,0.479-0.875,0.827-1.203c0.348-0.33,0.754-0.58,1.218-0.754
		c0.464-0.175,0.957-0.262,1.479-0.262s1.015,0.087,1.479,0.262c0.464,0.174,0.87,0.424,1.218,0.754
		c0.348,0.328,0.623,0.729,0.826,1.203c0.203,0.473,0.305,1.01,0.305,1.609v0.58c0,0.6-0.102,1.136-0.305,1.609
		s-0.478,0.875-0.826,1.203c-0.348,0.329-0.754,0.58-1.218,0.754s-0.957,0.262-1.479,0.262S257.629,368.318,257.165,368.145
		 M266.126,364.113c0-1.178-0.203-2.228-0.609-3.146c-0.406-0.918-0.957-1.695-1.653-2.334c-0.696-0.638-1.494-1.121-2.393-1.449
		c-0.899-0.328-1.841-0.494-2.827-0.494s-1.929,0.166-2.828,0.494s-1.696,0.812-2.392,1.449c-0.696,0.639-1.247,1.416-1.653,2.334
		c-0.406,0.919-0.609,1.969-0.609,3.146v0.349c0,1.199,0.203,2.257,0.609,3.175c0.406,0.92,0.957,1.692,1.653,2.32
		c0.696,0.629,1.493,1.107,2.392,1.436c0.899,0.329,1.842,0.493,2.828,0.493s1.928-0.164,2.827-0.493
		c0.899-0.328,1.697-0.807,2.393-1.436c0.696-0.628,1.247-1.4,1.653-2.32c0.406-0.918,0.609-1.976,0.609-3.175V364.113z
		 M238.01,367.347c-0.706-0.704-1.058-1.667-1.058-2.885v-0.349c0-1.217,0.352-2.18,1.058-2.885c0.706-0.705,1.629-1.059,2.77-1.059
		c1.14,0,2.063,0.361,2.769,1.088c0.706,0.725,1.059,1.678,1.059,2.855v0.349c0,1.179-0.353,2.132-1.059,2.856
		s-1.629,1.088-2.769,1.088C239.639,368.406,238.716,368.053,238.01,367.347 M244.608,371.48h3.654V351.18h-3.654v8.004h-0.522
		c-0.387-0.793-0.919-1.406-1.595-1.842c-0.677-0.436-1.595-0.652-2.755-0.652c-0.87,0-1.697,0.166-2.48,0.494
		c-0.783,0.328-1.469,0.807-2.059,1.435c-0.59,0.629-1.054,1.397-1.392,2.306c-0.338,0.909-0.507,1.943-0.507,3.104v0.521
		c0,1.18,0.159,2.223,0.478,3.133c0.319,0.908,0.764,1.676,1.334,2.305c0.57,0.629,1.237,1.103,2.001,1.42
		c0.764,0.32,1.59,0.479,2.48,0.479c0.696,0,1.29-0.067,1.783-0.202c0.493-0.136,0.918-0.32,1.276-0.552s0.648-0.498,0.87-0.798
		c0.222-0.299,0.411-0.613,0.566-0.941h0.522V371.48z M221.669,368.145c-0.464-0.174-0.87-0.425-1.218-0.754
		c-0.348-0.328-0.624-0.729-0.827-1.203s-0.304-1.01-0.304-1.609v-0.58c0-0.6,0.101-1.137,0.304-1.609
		c0.203-0.474,0.479-0.875,0.827-1.203c0.348-0.33,0.754-0.58,1.218-0.754c0.464-0.175,0.957-0.262,1.479-0.262
		s1.015,0.087,1.479,0.262c0.464,0.174,0.87,0.424,1.218,0.754c0.348,0.328,0.623,0.729,0.826,1.203
		c0.203,0.473,0.305,1.01,0.305,1.609v0.58c0,0.6-0.102,1.136-0.305,1.609s-0.478,0.875-0.826,1.203
		c-0.348,0.329-0.754,0.58-1.218,0.754s-0.957,0.262-1.479,0.262S222.133,368.318,221.669,368.145 M230.63,364.113
		c0-1.178-0.203-2.228-0.609-3.146c-0.406-0.918-0.957-1.695-1.653-2.334c-0.696-0.638-1.494-1.121-2.393-1.449
		s-1.841-0.494-2.827-0.494s-1.929,0.166-2.828,0.494s-1.696,0.812-2.392,1.449c-0.696,0.639-1.247,1.416-1.653,2.334
		c-0.406,0.919-0.609,1.969-0.609,3.146v0.349c0,1.199,0.203,2.257,0.609,3.175c0.406,0.92,0.957,1.692,1.653,2.32
		c0.696,0.629,1.493,1.107,2.392,1.436c0.899,0.329,1.842,0.493,2.828,0.493s1.928-0.164,2.827-0.493
		c0.899-0.328,1.697-0.807,2.393-1.436c0.696-0.628,1.247-1.4,1.653-2.32c0.406-0.918,0.609-1.976,0.609-3.175V364.113z
		 M198.382,360.576h4.263v8.642c0,0.658,0.207,1.199,0.623,1.624c0.416,0.426,0.952,0.639,1.61,0.639h6.09V368h-3.886
		c-0.522,0-0.783-0.29-0.783-0.87v-6.554h5.191v-3.48h-5.191v-5.916h-3.654v5.916h-4.263V360.576z M172.267,360.663
		c0.609,0.444,0.972,1.005,1.088,1.682h-6.786c0.174-0.618,0.551-1.165,1.131-1.638c0.58-0.475,1.334-0.711,2.262-0.711
		C170.89,359.996,171.658,360.218,172.267,360.663 M177.067,365.477v-1.942c0-0.755-0.136-1.532-0.406-2.335
		c-0.271-0.803-0.696-1.537-1.276-2.203c-0.58-0.667-1.315-1.219-2.204-1.654c-0.89-0.436-1.953-0.652-3.19-0.652
		c-1.006,0-1.948,0.18-2.828,0.537s-1.648,0.855-2.305,1.493c-0.658,0.638-1.175,1.411-1.552,2.32s-0.565,1.914-0.565,3.017v0.174
		c0,1.198,0.178,2.271,0.536,3.219s0.86,1.75,1.508,2.406c0.648,0.658,1.416,1.16,2.306,1.508c0.889,0.349,1.875,0.522,2.958,0.522
		c0.947,0,1.773-0.106,2.479-0.319c0.706-0.211,1.305-0.482,1.798-0.812c0.493-0.329,0.894-0.69,1.204-1.087
		c0.309-0.396,0.551-0.779,0.725-1.146l-3.132-1.74c-0.213,0.445-0.561,0.826-1.044,1.146c-0.484,0.318-1.18,0.479-2.088,0.479
		c-0.464,0-0.904-0.072-1.32-0.219c-0.416-0.145-0.783-0.348-1.102-0.608c-0.319-0.261-0.57-0.57-0.754-0.927
		c-0.184-0.358-0.285-0.75-0.304-1.176H177.067z M149.27,367.347c-0.706-0.704-1.058-1.667-1.058-2.885v-0.349
		c0-1.217,0.352-2.18,1.058-2.885s1.629-1.059,2.77-1.059c1.14,0,2.063,0.361,2.769,1.088c0.706,0.725,1.059,1.678,1.059,2.855
		v0.349c0,1.179-0.353,2.132-1.059,2.856s-1.629,1.088-2.769,1.088C150.899,368.406,149.976,368.053,149.27,367.347 M155.868,371.48
		h3.654V351.18h-3.654v8.004h-0.522c-0.387-0.793-0.919-1.406-1.595-1.842c-0.677-0.436-1.595-0.652-2.755-0.652
		c-0.87,0-1.697,0.166-2.48,0.494c-0.783,0.328-1.469,0.807-2.059,1.435c-0.59,0.629-1.054,1.397-1.392,2.306
		c-0.338,0.909-0.507,1.943-0.507,3.104v0.521c0,1.18,0.159,2.223,0.478,3.133c0.319,0.908,0.764,1.676,1.334,2.305
		c0.57,0.629,1.237,1.103,2.001,1.42c0.764,0.32,1.59,0.479,2.48,0.479c0.696,0,1.29-0.067,1.783-0.202
		c0.493-0.136,0.918-0.32,1.276-0.552c0.358-0.231,0.648-0.498,0.87-0.798c0.222-0.299,0.411-0.613,0.566-0.941h0.522V371.48z
		 M113.557,367.347c-0.638-0.704-0.957-1.667-0.957-2.885v-0.349c0-1.217,0.319-2.18,0.957-2.885
		c0.638-0.705,1.488-1.059,2.552-1.059c1.063,0,1.914,0.354,2.552,1.059c0.638,0.705,0.957,1.668,0.957,2.885v0.349
		c0,1.218-0.319,2.181-0.957,2.885c-0.638,0.706-1.489,1.06-2.552,1.06C115.045,368.406,114.195,368.053,113.557,367.347
		 M119.879,369.393c0,0.618,0.207,1.121,0.623,1.508s0.952,0.58,1.61,0.58h2.494V368h-0.551c-0.522,0-0.783-0.29-0.783-0.87v-10.034
		h-3.654v1.74h-0.522c-0.368-0.734-0.866-1.275-1.494-1.624s-1.455-0.522-2.479-0.522c-0.851,0-1.649,0.17-2.393,0.508
		c-0.744,0.339-1.397,0.826-1.957,1.465c-0.561,0.638-1.006,1.412-1.334,2.32c-0.329,0.908-0.493,1.933-0.493,3.074v0.463
		c0,1.16,0.169,2.194,0.507,3.104c0.338,0.908,0.798,1.682,1.378,2.32c0.58,0.638,1.251,1.121,2.015,1.449
		c0.764,0.329,1.581,0.493,2.451,0.493c0.928,0,1.74-0.188,2.436-0.565c0.696-0.377,1.237-1.02,1.624-1.928H119.879z
		 M91.894,360.576h4.263v8.642c0,0.658,0.207,1.199,0.623,1.624c0.416,0.426,0.952,0.639,1.61,0.639h6.09V368h-3.886
		c-0.522,0-0.783-0.29-0.783-0.87v-6.554h5.191v-3.48h-5.191v-5.916h-3.654v5.916h-4.263V360.576z M79.598,360.329
		c0.309-0.222,0.773-0.333,1.392-0.333c0.676,0,1.227,0.15,1.653,0.449c0.425,0.3,0.725,0.711,0.899,1.232l3.306-1.334
		c-0.155-0.406-0.377-0.826-0.667-1.262s-0.667-0.831-1.131-1.188c-0.464-0.358-1.03-0.648-1.697-0.871s-1.455-0.334-2.363-0.334
		c-0.696,0-1.373,0.098-2.03,0.291c-0.658,0.192-1.238,0.479-1.74,0.854c-0.503,0.377-0.909,0.837-1.218,1.378
		c-0.31,0.541-0.464,1.17-0.464,1.885v0.174c0,1.373,0.478,2.412,1.435,3.117c0.957,0.706,2.248,1.127,3.872,1.262
		c0.599,0.059,1.097,0.136,1.493,0.232c0.397,0.098,0.711,0.217,0.943,0.363c0.232,0.145,0.391,0.299,0.478,0.463
		c0.087,0.165,0.131,0.344,0.131,0.537c0,0.329-0.17,0.633-0.508,0.914c-0.338,0.279-0.962,0.42-1.87,0.42
		c-1.025,0-1.784-0.232-2.277-0.696c-0.493-0.464-0.817-1.005-0.971-1.624l-3.364,1.102c0.096,0.504,0.285,1.021,0.565,1.552
		c0.281,0.532,0.682,1.015,1.204,1.45c0.522,0.435,1.179,0.798,1.972,1.088c0.792,0.29,1.749,0.435,2.871,0.435
		c1.894,0,3.364-0.425,4.408-1.276c1.044-0.851,1.566-1.99,1.566-3.422v-0.174c0-1.295-0.464-2.305-1.392-3.031
		c-0.928-0.724-2.127-1.164-3.596-1.318c-1.276-0.135-2.156-0.305-2.639-0.508c-0.484-0.202-0.725-0.536-0.725-1
		C79.134,360.827,79.288,360.552,79.598,360.329 M66.272,351.746c-0.145-0.34-0.343-0.629-0.594-0.87
		c-0.251-0.242-0.546-0.435-0.885-0.581c-0.338-0.145-0.691-0.217-1.058-0.217c-0.387,0-0.745,0.072-1.073,0.217
		c-0.329,0.146-0.619,0.339-0.87,0.581c-0.252,0.241-0.45,0.53-0.595,0.87c-0.145,0.338-0.217,0.699-0.217,1.087
		c0,0.387,0.072,0.749,0.217,1.087c0.145,0.339,0.343,0.629,0.595,0.87c0.251,0.241,0.541,0.435,0.87,0.581
		c0.328,0.145,0.686,0.217,1.073,0.217c0.367,0,0.72-0.072,1.058-0.217c0.339-0.146,0.634-0.34,0.885-0.581
		c0.251-0.241,0.449-0.531,0.594-0.87c0.145-0.338,0.218-0.7,0.218-1.087C66.49,352.445,66.417,352.084,66.272,351.746
		 M57.065,371.48h12.702V368h-4.176v-10.904h-8.178v3.48h4.524V368h-4.872V371.48z M39.172,371.48h13.05v-3.654H43V351.18h-3.828
		V371.48z"/>
	<path clip-path="url(#SVGID_2_)" fill="#231F20" d="M406.993,926.573c3.19,7.168,7.397,13.4,12.618,18.695
		c5.219,5.299,11.452,9.541,18.696,12.736c7.245,3.192,14.993,4.791,23.253,4.791c7.946,0,15.578-1.599,22.902-4.791
		c7.322-3.195,13.632-7.438,18.93-12.736c5.295-5.295,9.541-11.527,12.736-18.695c3.191-7.164,4.791-14.876,4.791-23.137
		c0-7.945-1.6-15.577-4.791-22.902c-3.195-7.321-7.441-13.631-12.736-18.93c-5.298-5.295-11.607-9.542-18.93-12.736
		c-7.324-3.191-14.956-4.79-22.902-4.79c-8.26,0-16.008,1.599-23.253,4.79c-7.244,3.194-13.478,7.441-18.696,12.736
		c-5.221,5.299-9.428,11.608-12.618,18.93c-3.195,7.325-4.791,14.957-4.791,22.902C402.202,911.697,403.798,919.409,406.993,926.573
		 M124.569,890.116c6.076-12.773,14.292-23.253,24.655-31.433c10.359-8.18,21.851-15.033,34.471-20.565
		c12.619-5.528,25.94-10.125,39.962-13.788c14.022-3.659,27.887-7.361,41.598-11.102c13.708-3.738,26.795-8.062,39.261-12.97
		c12.463-4.907,23.487-11.177,33.068-18.812c9.582-7.633,17.177-17.294,22.786-28.979c5.608-11.685,8.413-26.251,8.413-43.701
		c0-14.489-3.353-28.081-10.05-40.78c-6.699-12.696-16.673-23.838-29.913-33.418c-13.243-9.582-29.603-17.098-49.077-22.553
		c-19.477-5.452-41.989-8.18-67.538-8.18c-23.995,0-46.039,2.454-66.137,7.362c-20.098,4.906-37.315,11.918-51.647,21.032
		c-14.336,9.114-25.473,19.904-33.419,32.367c-7.945,12.466-11.918,26.174-11.918,41.131c0,11.218,1.829,20.723,5.492,28.512
		c3.658,7.792,8.332,14.102,14.021,18.929c5.686,4.831,12.072,8.337,19.164,10.517c7.087,2.184,13.981,3.271,20.682,3.271
		c8.88,0,16.826-1.168,23.837-3.505c7.011-2.337,12.813-5.609,17.411-9.815c4.593-4.207,8.099-8.841,10.516-13.905
		c2.414-5.061,3.622-10.319,3.622-15.774c0-12.152-3.505-21.343-10.516-27.576c-7.011-6.229-15.271-10.75-24.772-13.555
		c7.632-3.893,15.658-6.62,24.071-8.18c8.413-1.556,17.914-2.337,28.511-2.337c14.956,0,27.77,3.353,38.443,10.05
		c10.67,6.699,16.008,16.905,16.008,30.613c0,9.195-2.61,17.141-7.828,23.837c-5.222,6.701-12.153,12.935-20.8,18.696
		c-8.646,5.766-18.542,11.375-29.679,16.826c-11.141,5.456-22.475,11.608-34.003,18.462c-11.532,6.858-22.866,14.84-34.003,23.955
		c-11.141,9.114-21.033,20.021-29.68,32.717c-8.647,12.7-15.581,27.577-20.799,44.636c-5.222,17.061-7.829,37.275-7.829,60.646
		h53.517c1.556-3.115,3.816-5.996,6.777-8.647c2.491-2.18,5.803-4.243,9.932-6.192c4.127-1.946,9.776-2.921,16.943-2.921
		c8.257,0,17.097,1.209,26.525,3.621c9.425,2.419,19.317,4.988,29.68,7.713c10.359,2.728,21.186,5.258,32.484,7.595
		c11.294,2.337,23.019,3.506,35.171,3.506c15.267,0,29.6-1.249,43-3.739c13.397-2.491,24.966-8.296,34.704-17.411
		c9.735-9.113,17.41-22.435,23.02-39.962c5.608-17.526,8.413-41.167,8.413-70.927h-46.038c0,14.022-3.353,23.604-10.049,28.745
		c-6.701,5.141-15.973,7.712-27.811,7.712c-6.234,0-11.919-0.545-17.06-1.636c-5.142-1.088-10.597-2.221-16.359-3.39
		c-5.766-1.168-12.152-2.297-19.163-3.389c-7.011-1.088-15.581-1.635-25.707-1.635c-9.972,0-19.163,1.365-27.576,4.089
		c-8.414,2.728-15.972,6.076-22.669,10.049c-6.701,3.974-12.62,8.26-17.761,12.854c-5.142,4.597-9.271,8.844-12.386,12.735
		L124.569,890.116z"/>
	<path clip-path="url(#SVGID_2_)" fill="#231F20" d="M457.228,194.809c6.182,0.515,13.908-1.03,15.454,12.363
		c2.576,23.184,1.546,59.761,1.546,137.553v88.609c0,30.396-10.304,28.85-17,28.85V194.809z M455.681,517.822
		c34.001,0,46.366-13.395,53.063-33.486c7.727-22.668,7.727-81.397,7.727-155.582c0-74.186-1.029-121.582-9.788-150.432
		c-9.272-28.849-22.667-39.152-56.669-39.152h-35.547v378.652H455.681z"/>
</g>
<line fill="none" stroke="#0046F9" stroke-width="2" x1="24.794" y1="106" x2="537.794" y2="106"/>
<line fill="none" stroke="#0046F9" stroke-width="2" x1="24.794" y1="551" x2="537.794" y2="551"/>
<line fill="none" stroke="#0046F9" stroke-width="2" x1="24.794" y1="322" x2="362.794" y2="322"/>
<line fill="none" stroke="#0046F9" stroke-width="2" x1="382.793" y1="127" x2="382.793" y2="530"/>
<g>
	<defs>
		<rect id="SVGID_87_" width="564" height="1002"/>
	</defs>
	<clipPath id="SVGID_4_">
		<use xlink:href="#SVGID_87_"  overflow="visible"/>
	</clipPath>
	<polygon clip-path="url(#SVGID_4_)" fill="none" stroke="#0046F9" stroke-width="1.998" points="0.999,3 0.999,999 0.999,1001.002 
		3,1001.002 561,1001.002 563.001,1001.002 563.001,999 563.001,3 563.001,0.998 561,0.998 3,0.998 0.999,0.998 	"/>
</g>
<rect x="5.001" y="5.002" fill="none" stroke="#0046F9" stroke-width="1.998" width="553.998" height="991.996"/>
<g>
	<defs>
		<rect id="SVGID_89_" width="564" height="1002"/>
	</defs>
	<clipPath id="SVGID_6_">
		<use xlink:href="#SVGID_89_"  overflow="visible"/>
	</clipPath>
	<path clip-path="url(#SVGID_6_)" fill="#0046F9" d="M273.215,130.125l-15.536,12.824c18.576,28.113,36.66,48.502,54.254,61.16
		c-14.797-1.314-29.019-1.974-42.664-1.974H41.624v19.729h227.645c13.646,0,27.867-0.655,42.664-1.974
		c-17.594,12.662-35.678,33.046-54.254,61.159l15.536,12.824c11.506-18.904,22.892-34.564,34.154-46.979
		c11.261-12.411,24.126-23.798,38.596-34.155v-1.479c-14.47-10.358-27.335-21.741-38.596-34.156
		C296.106,164.693,284.721,149.033,273.215,130.125"/>
</g>
</svg>
