<?xml version="1.0" encoding="utf-8"?>
<!-- Generator: Adobe Illustrator 16.0.0, SVG Export Plug-In . SVG Version: 6.00 Build 0)  -->
<!DOCTYPE svg PUBLIC "-//W3C//DTD SVG 1.1//EN" "http://www.w3.org/Graphics/SVG/1.1/DTD/svg11.dtd">
<svg version="1.1" id="Layer_1" xmlns="http://www.w3.org/2000/svg" xmlns:xlink="http://www.w3.org/1999/xlink" x="0px" y="0px"
	 width="564px" height="1002px" viewBox="0 0 564 1002" enable-background="new 0 0 564 1002" xml:space="preserve">
<polygon fill="#231F20" points="317.199,48.584 381.445,942 458.918,942 523.163,48.584 446.635,48.584 420.182,564.246 
	393.728,48.584 "/>
<g>
	<defs>
		<rect id="SVGID_117_" width="564" height="1002"/>
	</defs>
	<clipPath id="SVGID_2_">
		<use xlink:href="#SVGID_117_"  overflow="visible"/>
	</clipPath>
	<path clip-path="url(#SVGID_2_)" fill="#231F20" d="M194.508,686.354h44.1v46.62h-44.1V686.354z M118.91,586.814
		c0-13.021-4.62-22.68-14.28-22.68c-5.04,0-9.24,3.779-12.601,8.399c-3.359,5.04-5.039,10.92-5.039,14.28H48.77v-162.54h109.62
		v44.94H87.83v64.26c5.039-3.78,10.5-7.141,16.8-9.24c2.94-1.26,6.3-1.68,9.239-1.26c23.521,0,36.121,13.439,42.841,28.14
		s7.56,30.66,7.56,35.7v68.88c0,14.7-0.84,34.44-8.82,50.82c-7.98,16.8-23.1,29.819-50.4,29.819c-28.139,0-42.419-13.02-50.398-31.5
		c-7.98-18.06-8.82-41.159-8.82-61.739h45.359v12.18c0,15.54,0.84,26.46,2.94,32.34c2.101,6.3,5.46,9.24,10.919,9.24
		c4.621,0,8.4-2.94,10.5-8.82c2.102-5.88,3.361-16.8,3.361-32.34V586.814z"/>
	<path clip-path="url(#SVGID_2_)" fill="#231F20" d="M222.17,356.543c2.629,0,4.635-0.516,6.018-1.547s2.074-2.374,2.074-4.029
		c0-1.473-0.55-2.635-1.648-3.484c-1.1-0.851-2.896-1.49-5.389-1.922c-1.156-0.226-1.968-0.459-2.432-0.697
		c-0.465-0.237-0.697-0.526-0.697-0.866c0-0.362,0.227-0.669,0.68-0.919c0.453-0.248,1.088-0.373,1.904-0.373
		c1.043,0,1.938,0.182,2.687,0.544c0.747,0.362,1.394,0.94,1.938,1.733l2.991-2.924c-0.771-1.064-1.774-1.863-3.009-2.396
		c-1.236-0.532-2.828-0.799-4.777-0.799c-1.768,0-3.27,0.267-4.505,0.799c-1.235,0.533-2.159,1.229-2.771,2.091
		c-0.612,0.862-0.918,1.78-0.918,2.754c0,1.428,0.537,2.573,1.615,3.435c1.075,0.861,2.883,1.541,5.422,2.039
		c1.133,0.228,1.932,0.459,2.398,0.697c0.463,0.238,0.695,0.516,0.695,0.833c0,0.363-0.227,0.652-0.68,0.867
		c-0.453,0.216-1.076,0.323-1.869,0.323c-2.381,0-4.059-0.805-5.032-2.414l-2.992,3.264
		C215.506,355.546,218.271,356.543,222.17,356.543 M201.77,352.803c-0.521,0-0.93-0.124-1.224-0.374
		c-0.294-0.249-0.442-0.612-0.442-1.088s0.153-0.844,0.459-1.104c0.307-0.261,0.821-0.481,1.547-0.664l2.754-0.646v1.462
		c0,0.727-0.317,1.309-0.951,1.751C203.277,352.582,202.562,352.803,201.77,352.803 M211.8,352.904
		c-0.815,0-1.224-0.441-1.224-1.326v-6.188c0-2.176-0.692-3.808-2.074-4.896c-1.383-1.088-3.4-1.631-6.052-1.631
		c-2.267,0-4.069,0.459-5.406,1.377c-1.338,0.918-2.153,2.205-2.448,3.858l4.692,1.36c0.157-0.93,0.51-1.598,1.054-2.006
		c0.545-0.408,1.246-0.612,2.108-0.612c0.748,0,1.337,0.228,1.767,0.681c0.432,0.453,0.646,1.065,0.646,1.836v0.611l-3.842,0.748
		c-2.357,0.477-4.051,1.162-5.082,2.057c-1.032,0.896-1.547,2.069-1.547,3.52c0,1.383,0.453,2.438,1.359,3.162
		c0.906,0.726,2.21,1.088,3.91,1.088c3.014,0,5.031-0.872,6.052-2.618c0.476,1.746,1.938,2.618,4.386,2.618
		c0.885,0,1.654-0.182,2.312-0.544l0.441-3.23C212.582,352.859,212.23,352.904,211.8,352.904 M188.171,331.111l-2.278,5.881h4.217
		l3.434-5.881H188.171z M191.266,339.203h-5.781v17h5.781V339.203z M175.625,338.863c-1.247,0-2.375,0.295-3.383,0.884
		c-1.01,0.59-1.785,1.44-2.329,2.55c-0.408-1.109-1.083-1.96-2.022-2.55c-0.941-0.589-2.058-0.884-3.35-0.884
		c-1.314,0-2.46,0.306-3.434,0.918c-0.976,0.611-1.734,1.508-2.278,2.686l-0.17-3.264h-5.168v17h5.78v-8.977
		c0-1.313,0.283-2.3,0.85-2.958c0.566-0.657,1.279-0.985,2.143-0.985c1.541,0,2.312,0.975,2.312,2.924v9.996h5.78v-9.078
		c0-1.246,0.271-2.198,0.815-2.856c0.544-0.657,1.269-0.985,2.177-0.985c1.541,0,2.312,0.975,2.312,2.924v9.996h5.78v-11.322
		c0-1.926-0.539-3.411-1.615-4.454C178.747,339.385,177.348,338.863,175.625,338.863 M141.184,342.977
		c1.088,0,1.892,0.374,2.414,1.122c0.521,0.748,0.781,1.95,0.781,3.604s-0.261,2.855-0.781,3.604
		c-0.522,0.748-1.326,1.122-2.414,1.122s-1.894-0.374-2.414-1.122c-0.522-0.748-0.783-1.949-0.783-3.604s0.261-2.856,0.783-3.604
		C139.29,343.351,140.096,342.977,141.184,342.977 M141.184,338.863c-2.834,0-5.039,0.776-6.613,2.328
		c-1.576,1.553-2.363,3.724-2.363,6.512c0,2.787,0.787,4.959,2.363,6.511c1.574,1.553,3.779,2.329,6.613,2.329
		c2.832,0,5.037-0.776,6.612-2.329c1.575-1.552,2.363-3.724,2.363-6.511c0-2.788-0.788-4.959-2.363-6.512
		C146.221,339.64,144.016,338.863,141.184,338.863 M123.096,338.863c-1.338,0-2.506,0.301-3.503,0.9
		c-0.997,0.602-1.768,1.502-2.312,2.703l-0.17-3.264h-5.168v17h5.779v-8.977c0-1.337,0.283-2.328,0.851-2.975
		s1.304-0.969,2.21-0.969c0.771,0,1.365,0.244,1.785,0.73c0.418,0.488,0.629,1.309,0.629,2.465v9.725h5.779v-11.322
		c0-1.926-0.533-3.411-1.598-4.454C126.314,339.385,124.887,338.863,123.096,338.863 M99.637,342.977
		c1.088,0,1.891,0.374,2.412,1.122s0.783,1.95,0.783,3.604s-0.262,2.855-0.783,3.604s-1.324,1.122-2.412,1.122
		c-1.089,0-1.894-0.374-2.414-1.122c-0.523-0.748-0.783-1.949-0.783-3.604s0.26-2.856,0.783-3.604
		C97.743,343.351,98.548,342.977,99.637,342.977 M99.637,338.863c-2.836,0-5.039,0.776-6.613,2.328
		c-1.576,1.553-2.363,3.724-2.363,6.512c0,2.787,0.787,4.959,2.363,6.511c1.574,1.553,3.777,2.329,6.613,2.329
		c2.832,0,5.036-0.776,6.612-2.329c1.575-1.552,2.362-3.724,2.362-6.511c0-2.788-0.787-4.959-2.362-6.512
		C104.673,339.64,102.469,338.863,99.637,338.863 M90.082,356.203l-6.053-8.568l5.916-8.432h-6.391l-3.197,5.678l-3.127-5.678
		h-6.562l5.881,8.397l-6.119,8.603h6.393l3.4-5.916l3.332,5.916H90.082z M58.973,352.803c-0.522,0-0.931-0.124-1.225-0.374
		c-0.295-0.249-0.441-0.612-0.441-1.088s0.152-0.844,0.459-1.104c0.305-0.261,0.82-0.481,1.547-0.664l2.754-0.646v1.462
		c0,0.727-0.318,1.309-0.953,1.751S59.766,352.803,58.973,352.803 M69.002,352.904c-0.816,0-1.225-0.441-1.225-1.326v-6.188
		c0-2.176-0.691-3.808-2.073-4.896c-1.384-1.088-3.399-1.631-6.052-1.631c-2.268,0-4.069,0.459-5.406,1.377
		c-1.338,0.918-2.154,2.205-2.448,3.858l4.692,1.36c0.158-0.93,0.51-1.598,1.054-2.006s1.246-0.612,2.108-0.612
		c0.748,0,1.336,0.228,1.768,0.681c0.43,0.453,0.646,1.065,0.646,1.836v0.611l-3.842,0.748c-2.358,0.477-4.053,1.162-5.084,2.057
		c-1.031,0.896-1.547,2.069-1.547,3.52c0,1.383,0.453,2.438,1.36,3.162c0.905,0.726,2.21,1.088,3.909,1.088
		c3.015,0,5.033-0.872,6.053-2.618c0.477,1.746,1.938,2.618,4.385,2.618c0.885,0,1.655-0.182,2.312-0.544l0.443-3.23
		C69.783,352.859,69.432,352.904,69.002,352.904 M49.282,351.681c-0.703,0.499-1.519,0.748-2.448,0.748
		c-1.496,0-2.244-0.759-2.244-2.278v-6.834h5.1v-4.113h-5.1v-5.406l-5.779,1.598v3.809h-2.924v4.113h2.924v7.787
		c0.021,1.903,0.566,3.286,1.631,4.147c1.065,0.862,2.606,1.292,4.625,1.292c0.884,0,1.762-0.119,2.635-0.357
		c0.872-0.238,1.592-0.549,2.158-0.935L49.282,351.681z"/>
	<path clip-path="url(#SVGID_2_)" fill="#231F20" d="M112.113,315.869c2.63,0,4.636-0.515,6.018-1.547
		c1.383-1.03,2.074-2.373,2.074-4.028c0-1.474-0.549-2.636-1.648-3.485s-2.896-1.49-5.389-1.921
		c-1.156-0.226-1.967-0.459-2.432-0.696c-0.465-0.238-0.697-0.527-0.697-0.867c0-0.362,0.227-0.668,0.68-0.918
		c0.454-0.25,1.088-0.375,1.904-0.375c1.043,0,1.938,0.183,2.686,0.545c0.748,0.363,1.395,0.94,1.938,1.733l2.991-2.924
		c-0.77-1.065-1.773-1.864-3.008-2.397c-1.235-0.531-2.828-0.799-4.777-0.799c-1.768,0-3.27,0.268-4.506,0.799
		c-1.234,0.533-2.158,1.23-2.771,2.092s-0.918,1.779-0.918,2.754c0,1.428,0.539,2.572,1.615,3.434
		c1.077,0.862,2.885,1.542,5.423,2.04c1.135,0.228,1.934,0.459,2.396,0.697c0.466,0.237,0.697,0.516,0.697,0.833
		c0,0.363-0.226,0.652-0.68,0.867c-0.453,0.216-1.076,0.322-1.87,0.322c-2.38,0-4.058-0.804-5.032-2.414l-2.992,3.265
		C105.449,314.873,108.215,315.869,112.113,315.869 M95.148,298.529v9.01c0,1.315-0.285,2.296-0.851,2.941
		c-0.567,0.646-1.325,0.969-2.278,0.969c-0.793,0-1.383-0.226-1.768-0.68c-0.386-0.453-0.578-1.234-0.578-2.346v-9.895h-5.779
		v11.356c0,2.063,0.515,3.576,1.547,4.539c1.031,0.964,2.453,1.444,4.267,1.444c2.856,0,4.815-1.166,5.882-3.502l0.17,3.162h5.168
		v-17H95.148z M72.912,315.869c2.629,0,4.635-0.515,6.018-1.547c1.383-1.03,2.074-2.373,2.074-4.028c0-1.474-0.55-2.636-1.648-3.485
		c-1.101-0.85-2.896-1.49-5.391-1.921c-1.154-0.226-1.966-0.459-2.43-0.696c-0.465-0.238-0.697-0.527-0.697-0.867
		c0-0.362,0.227-0.668,0.68-0.918s1.088-0.375,1.904-0.375c1.042,0,1.938,0.183,2.686,0.545c0.748,0.363,1.395,0.94,1.938,1.733
		l2.992-2.924c-0.771-1.065-1.774-1.864-3.009-2.397c-1.236-0.531-2.828-0.799-4.777-0.799c-1.768,0-3.27,0.268-4.505,0.799
		c-1.235,0.533-2.159,1.23-2.771,2.092c-0.613,0.861-0.918,1.779-0.918,2.754c0,1.428,0.537,2.572,1.614,3.434
		c1.076,0.862,2.884,1.542,5.423,2.04c1.133,0.228,1.932,0.459,2.397,0.697c0.464,0.237,0.696,0.516,0.696,0.833
		c0,0.363-0.227,0.652-0.68,0.867c-0.453,0.216-1.076,0.322-1.869,0.322c-2.381,0-4.059-0.804-5.033-2.414l-2.992,3.265
		C66.248,314.873,69.014,315.869,72.912,315.869 M54.824,298.529h-5.78l-2.618,9.555l-0.918,3.74l-0.816-3.604l-2.617-9.69h-6.358
		l5.066,12.75l1.972,4.625l-0.408,1.054c-0.25,0.612-0.578,1.036-0.986,1.274s-0.963,0.357-1.666,0.357
		c-0.702,0-1.275-0.062-1.717-0.188s-0.845-0.356-1.207-0.697l-1.224,3.877c1.155,0.838,2.697,1.258,4.624,1.258
		c1.45,0,2.686-0.232,3.707-0.697c1.02-0.465,1.902-1.23,2.65-2.295c0.748-1.066,1.439-2.505,2.074-4.318L54.824,298.529z"/>
	<path clip-path="url(#SVGID_2_)" fill="#231F20" d="M174.264,275.196c2.629,0,4.635-0.515,6.019-1.547
		c1.382-1.031,2.073-2.374,2.073-4.028c0-1.474-0.549-2.636-1.648-3.486c-1.1-0.85-2.896-1.489-5.389-1.92
		c-1.156-0.227-1.967-0.459-2.432-0.697s-0.697-0.527-0.697-0.867c0-0.361,0.227-0.668,0.68-0.918
		c0.454-0.249,1.089-0.374,1.904-0.374c1.043,0,1.938,0.183,2.687,0.544c0.748,0.363,1.394,0.941,1.938,1.734l2.992-2.924
		c-0.771-1.065-1.775-1.864-3.01-2.397c-1.236-0.532-2.828-0.799-4.777-0.799c-1.768,0-3.27,0.267-4.504,0.799
		c-1.236,0.533-2.16,1.229-2.771,2.091c-0.612,0.862-0.918,1.78-0.918,2.754c0,1.428,0.537,2.573,1.615,3.434
		c1.076,0.863,2.884,1.543,5.422,2.041c1.134,0.227,1.933,0.459,2.398,0.697c0.463,0.237,0.697,0.516,0.697,0.832
		c0,0.363-0.229,0.652-0.682,0.867c-0.453,0.217-1.076,0.323-1.869,0.323c-2.381,0-4.059-0.804-5.032-2.414l-2.992,3.265
		C167.6,274.199,170.365,275.196,174.264,275.196 M155.462,261.562c1.813,0,2.856,1.111,3.128,3.332h-6.392
		C152.539,262.674,153.627,261.562,155.462,261.562 M163.996,266.118c0-2.72-0.73-4.833-2.193-6.341
		c-1.462-1.507-3.564-2.261-6.307-2.261c-2.833,0-5.02,0.771-6.561,2.312c-1.543,1.543-2.313,3.719-2.313,6.528
		c0,2.812,0.788,4.987,2.362,6.528c1.576,1.541,3.849,2.312,6.816,2.312c1.996,0,3.68-0.379,5.051-1.139
		c1.371-0.759,2.295-1.864,2.771-3.315l-4.69-1.496c-0.183,0.612-0.539,1.077-1.072,1.395c-0.532,0.318-1.219,0.476-2.059,0.476
		c-0.996,0-1.795-0.249-2.396-0.748c-0.6-0.497-0.99-1.28-1.172-2.346h11.594C163.939,267.524,163.996,266.89,163.996,266.118
		 M142.033,250.648h-5.781v19.176c0,1.883,0.409,3.247,1.225,4.098c0.816,0.85,2.131,1.274,3.944,1.274
		c0.634,0,1.28-0.08,1.938-0.237c0.656-0.158,1.189-0.362,1.598-0.612l0.374-3.57c-0.612,0.204-1.19,0.306-1.733,0.306
		c-0.591,0-0.998-0.158-1.225-0.476s-0.34-0.86-0.34-1.632V250.648z M122.959,271.457c-0.521,0-0.93-0.125-1.225-0.375
		c-0.295-0.248-0.441-0.611-0.441-1.088c0-0.476,0.152-0.844,0.459-1.104s0.821-0.481,1.547-0.663l2.754-0.646v1.463
		c0,0.726-0.318,1.309-0.951,1.75C124.465,271.235,123.752,271.457,122.959,271.457 M132.988,271.559
		c-0.815,0-1.223-0.442-1.223-1.326v-6.188c0-2.177-0.692-3.809-2.074-4.896c-1.383-1.088-3.4-1.632-6.053-1.632
		c-2.267,0-4.068,0.459-5.406,1.377s-2.153,2.205-2.447,3.858l4.691,1.36c0.158-0.929,0.51-1.598,1.055-2.006
		c0.544-0.408,1.246-0.612,2.107-0.612c0.748,0,1.338,0.228,1.769,0.68c0.43,0.455,0.646,1.066,0.646,1.836v0.613l-3.842,0.748
		c-2.357,0.476-4.052,1.161-5.083,2.057c-1.032,0.896-1.547,2.068-1.547,3.519c0,1.384,0.453,2.437,1.36,3.162
		c0.906,0.726,2.209,1.088,3.91,1.088c3.014,0,5.031-0.872,6.051-2.618c0.477,1.746,1.938,2.618,4.387,2.618
		c0.884,0,1.654-0.182,2.312-0.544l0.441-3.23C133.771,271.514,133.418,271.559,132.988,271.559 M106.639,257.856v9.01
		c0,1.315-0.283,2.296-0.85,2.941s-1.326,0.969-2.277,0.969c-0.795,0-1.384-0.226-1.769-0.68c-0.386-0.453-0.578-1.235-0.578-2.347
		v-9.894h-5.78v11.356c0,2.062,0.516,3.576,1.547,4.539s2.453,1.444,4.268,1.444c2.855,0,4.816-1.167,5.882-3.502l0.171,3.162h5.166
		v-17H106.639z M92.461,270.334c-0.703,0.5-1.52,0.748-2.447,0.748c-1.496,0-2.244-0.759-2.244-2.277v-6.834h5.1v-4.114h-5.1v-5.406
		l-5.781,1.599v3.808h-2.924v4.114h2.924v7.785c0.023,1.904,0.566,3.287,1.633,4.148c1.064,0.862,2.605,1.292,4.624,1.292
		c0.884,0,1.762-0.119,2.635-0.356c0.872-0.238,1.593-0.549,2.159-0.936L92.461,270.334z M76.991,257.517
		c-1.292,0-2.376,0.346-3.247,1.036c-0.873,0.693-1.514,1.684-1.921,2.976l-0.237-3.672h-5.102v17h5.781v-8.567
		c0-1.293,0.361-2.283,1.088-2.976c0.725-0.69,1.631-1.037,2.72-1.037c0.429,0,0.838,0.051,1.224,0.153
		c0.385,0.102,0.691,0.221,0.918,0.357l0.612-4.896C78.373,257.642,77.762,257.517,76.991,257.517 M62.372,257.856h-5.78v17h5.78
		V257.856z M59.482,255.885c1.178,0,2.033-0.221,2.566-0.663c0.532-0.442,0.799-1.14,0.799-2.091c0-0.975-0.267-1.684-0.799-2.125
		c-0.533-0.442-1.389-0.664-2.566-0.664c-1.18,0-2.035,0.222-2.567,0.664c-0.534,0.441-0.8,1.15-0.8,2.125
		c0,0.951,0.266,1.648,0.8,2.091C57.447,255.664,58.303,255.885,59.482,255.885 M48.568,257.856l-3.57,13.328l-3.502-13.328H35.41
		l6.119,17h6.902l6.12-17H48.568z"/>
	<path clip-path="url(#SVGID_2_)" fill="#231F20" d="M237.094,234.523c2.629,0,4.635-0.516,6.018-1.547s2.074-2.375,2.074-4.029
		c0-1.473-0.549-2.635-1.648-3.484c-1.1-0.851-2.896-1.49-5.389-1.922c-1.156-0.226-1.967-0.459-2.432-0.697
		c-0.465-0.237-0.697-0.526-0.697-0.867c0-0.361,0.227-0.668,0.68-0.918c0.453-0.248,1.089-0.373,1.904-0.373
		c1.043,0,1.939,0.182,2.687,0.544c0.748,0.362,1.394,0.94,1.938,1.733l2.992-2.924c-0.771-1.064-1.775-1.863-3.01-2.396
		c-1.236-0.532-2.828-0.799-4.777-0.799c-1.768,0-3.27,0.267-4.504,0.799c-1.236,0.533-2.16,1.229-2.771,2.091
		c-0.612,0.862-0.918,1.78-0.918,2.754c0,1.428,0.537,2.573,1.615,3.435c1.076,0.861,2.883,1.541,5.422,2.039
		c1.134,0.228,1.933,0.459,2.397,0.697c0.464,0.238,0.697,0.516,0.697,0.833c0,0.363-0.228,0.651-0.681,0.867
		s-1.076,0.323-1.869,0.323c-2.381,0-4.059-0.805-5.032-2.414l-2.992,3.264C230.43,233.526,233.195,234.523,237.094,234.523
		 M218.293,220.889c1.812,0,2.855,1.111,3.128,3.332h-6.392C215.369,222,216.457,220.889,218.293,220.889 M226.827,225.445
		c0-2.721-0.731-4.833-2.194-6.341c-1.461-1.507-3.564-2.261-6.306-2.261c-2.834,0-5.021,0.771-6.562,2.312
		c-1.543,1.542-2.312,3.718-2.312,6.528s0.787,4.986,2.363,6.527c1.574,1.543,3.847,2.312,6.816,2.312
		c1.994,0,3.678-0.379,5.049-1.139s2.295-1.864,2.771-3.315l-4.691-1.496c-0.183,0.612-0.539,1.077-1.072,1.394
		c-0.532,0.318-1.219,0.477-2.057,0.477c-0.998,0-1.797-0.249-2.396-0.748c-0.602-0.498-0.992-1.28-1.174-2.346h11.595
		C226.77,226.852,226.827,226.217,226.827,225.445 M200.341,216.844c-1.339,0-2.505,0.301-3.502,0.9
		c-0.998,0.602-1.769,1.502-2.312,2.703l-0.17-3.264h-5.168v17h5.779v-8.977c0-1.337,0.283-2.328,0.85-2.975
		s1.304-0.969,2.211-0.969c0.77,0,1.365,0.244,1.785,0.73c0.418,0.488,0.629,1.309,0.629,2.465v9.725h5.779v-11.322
		c0-1.926-0.533-3.411-1.598-4.454C203.559,217.365,202.131,216.844,200.341,216.844 M176.881,220.957
		c1.088,0,1.893,0.374,2.414,1.122s0.782,1.95,0.782,3.604s-0.261,2.855-0.782,3.604s-1.326,1.122-2.414,1.122
		s-1.893-0.374-2.414-1.122s-0.781-1.949-0.781-3.604s0.26-2.856,0.781-3.604S175.793,220.957,176.881,220.957 M176.881,216.844
		c-2.833,0-5.038,0.776-6.613,2.328c-1.574,1.553-2.363,3.724-2.363,6.512c0,2.787,0.789,4.959,2.363,6.511
		c1.575,1.553,3.78,2.329,6.613,2.329s5.037-0.776,6.613-2.329c1.574-1.552,2.363-3.724,2.363-6.511
		c0-2.788-0.789-4.959-2.363-6.512C181.918,217.62,179.714,216.844,176.881,216.844 M164.607,217.184h-5.779v17h5.779V217.184z
		 M161.717,215.211c1.18,0,2.035-0.221,2.568-0.662c0.531-0.442,0.799-1.14,0.799-2.092c0-0.974-0.268-1.683-0.799-2.125
		c-0.533-0.441-1.389-0.662-2.568-0.662c-1.178,0-2.033,0.221-2.566,0.662c-0.532,0.442-0.799,1.151-0.799,2.125
		c0,0.952,0.267,1.649,0.799,2.092C159.684,214.99,160.539,215.211,161.717,215.211 M147.54,216.844
		c-2.812,0-5.005,0.776-6.579,2.328c-1.576,1.553-2.363,3.724-2.363,6.512c0,2.811,0.793,4.986,2.381,6.527
		c1.586,1.543,3.853,2.312,6.799,2.312c2.289,0,4.132-0.481,5.525-1.445c1.395-0.963,2.215-2.215,2.465-3.757l-5.201-1.666
		c-0.272,1.836-1.213,2.754-2.822,2.754c-2.244,0-3.366-1.552-3.366-4.658c0-3.196,1.122-4.794,3.366-4.794
		c1.518,0,2.391,0.975,2.617,2.924l5.373-1.768c-0.318-1.564-1.123-2.833-2.414-3.809
		C152.027,217.331,150.102,216.844,147.54,216.844 M135.3,217.184h-5.78v17h5.78V217.184z M132.41,215.211
		c1.179,0,2.033-0.221,2.566-0.662c0.533-0.442,0.799-1.14,0.799-2.092c0-0.974-0.266-1.683-0.799-2.125
		c-0.533-0.441-1.388-0.662-2.566-0.662c-1.18,0-2.033,0.221-2.567,0.662c-0.532,0.442-0.799,1.151-0.799,2.125
		c0,0.952,0.267,1.649,0.799,2.092C130.377,214.99,131.23,215.211,132.41,215.211 M116.465,230.273c-1.02,0-1.808-0.374-2.363-1.122
		s-0.832-1.904-0.832-3.468c0-1.564,0.276-2.721,0.832-3.469s1.344-1.121,2.363-1.121c0.93,0,1.672,0.34,2.227,1.02
		c0.556,0.68,0.867,1.645,0.936,2.891v1.359c-0.068,1.27-0.38,2.238-0.936,2.907C118.137,229.939,117.395,230.273,116.465,230.273
		 M119.627,209.975v10.064c-0.499-0.997-1.18-1.779-2.04-2.346c-0.862-0.566-1.894-0.85-3.094-0.85
		c-2.199,0-3.923,0.781-5.168,2.346c-1.247,1.564-1.87,3.752-1.87,6.562c0,2.767,0.617,4.919,1.854,6.46
		c1.234,1.543,2.951,2.312,5.15,2.312c1.27,0,2.385-0.318,3.35-0.952c0.963-0.634,1.693-1.507,2.193-2.618l0.203,3.23h5.202v-24.209
		H119.627z M96.404,220.889c1.812,0,2.857,1.111,3.129,3.332h-6.393C93.48,222,94.568,220.889,96.404,220.889 M104.939,225.445
		c0-2.721-0.731-4.833-2.193-6.341c-1.463-1.507-3.564-2.261-6.307-2.261c-2.834,0-5.021,0.771-6.562,2.312
		c-1.541,1.542-2.312,3.718-2.312,6.528s0.787,4.986,2.363,6.527c1.574,1.543,3.848,2.312,6.817,2.312
		c1.993,0,3.677-0.379,5.049-1.139c1.371-0.76,2.295-1.864,2.771-3.315l-4.691-1.496c-0.182,0.612-0.539,1.077-1.072,1.394
		c-0.531,0.318-1.218,0.477-2.056,0.477c-0.998,0-1.798-0.249-2.397-0.748c-0.601-0.498-0.992-1.28-1.173-2.346h11.595
		C104.881,226.852,104.939,226.217,104.939,225.445 M66.895,220.889c1.812,0,2.855,1.111,3.127,3.332H63.63
		C63.971,222,65.059,220.889,66.895,220.889 M75.428,225.445c0-2.721-0.73-4.833-2.193-6.341c-1.461-1.507-3.564-2.261-6.307-2.261
		c-2.834,0-5.021,0.771-6.562,2.312c-1.542,1.542-2.312,3.718-2.312,6.528s0.786,4.986,2.362,6.527
		c1.575,1.543,3.847,2.312,6.817,2.312c1.994,0,3.677-0.379,5.049-1.139c1.371-0.76,2.295-1.864,2.771-3.315l-4.693-1.496
		c-0.182,0.612-0.538,1.077-1.07,1.394c-0.533,0.318-1.219,0.477-2.057,0.477c-0.998,0-1.797-0.249-2.397-0.748
		c-0.601-0.498-0.991-1.28-1.173-2.346h11.594C75.371,226.852,75.428,226.217,75.428,225.445 M45.814,230.273
		c-1.021,0-1.809-0.374-2.363-1.122c-0.557-0.748-0.833-1.904-0.833-3.468c0-1.564,0.276-2.721,0.833-3.469
		c0.555-0.748,1.343-1.121,2.363-1.121c0.929,0,1.67,0.34,2.227,1.02c0.555,0.68,0.867,1.645,0.936,2.891v1.359
		c-0.068,1.27-0.381,2.238-0.936,2.907C47.484,229.939,46.743,230.273,45.814,230.273 M48.977,209.975v10.064
		c-0.5-0.997-1.18-1.779-2.041-2.346s-1.893-0.85-3.094-0.85c-2.199,0-3.922,0.781-5.168,2.346
		c-1.247,1.564-1.869,3.752-1.869,6.562c0,2.767,0.616,4.919,1.853,6.46c1.235,1.543,2.952,2.312,5.151,2.312
		c1.269,0,2.385-0.318,3.349-0.952c0.963-0.634,1.694-1.507,2.192-2.618l0.205,3.23h5.201v-24.209H48.977z"/>
	<path clip-path="url(#SVGID_2_)" fill="#231F20" d="M175.42,176.17c-1.337,0-2.505,0.301-3.502,0.901s-1.768,1.502-2.312,2.702
		l-0.17-3.264h-5.168v17h5.78v-8.976c0-1.337,0.283-2.329,0.851-2.976c0.566-0.646,1.303-0.969,2.209-0.969
		c0.771,0,1.367,0.244,1.785,0.731c0.42,0.487,0.629,1.309,0.629,2.465v9.724h5.779v-11.322c0-1.926-0.531-3.41-1.597-4.453
		S177.211,176.17,175.42,176.17 M151.621,168.418l-2.278,5.882h4.216l3.435-5.882H151.621z M151.961,180.284
		c1.088,0,1.893,0.374,2.414,1.122s0.782,1.949,0.782,3.604c0,1.655-0.261,2.856-0.782,3.604c-0.521,0.747-1.326,1.122-2.414,1.122
		s-1.893-0.375-2.414-1.122c-0.521-0.748-0.781-1.949-0.781-3.604c0-1.654,0.26-2.855,0.781-3.604S150.873,180.284,151.961,180.284
		 M151.961,176.17c-2.834,0-5.038,0.777-6.613,2.329c-1.576,1.553-2.363,3.724-2.363,6.511c0,2.788,0.787,4.959,2.363,6.512
		c1.575,1.553,3.779,2.328,6.613,2.328c2.833,0,5.037-0.775,6.613-2.328c1.574-1.553,2.363-3.724,2.363-6.512
		c0-2.787-0.789-4.958-2.363-6.511C156.998,176.947,154.794,176.17,151.961,176.17 M139.688,176.51h-5.78v17h5.78V176.51z
		 M136.797,174.538c1.178,0,2.034-0.222,2.566-0.663c0.533-0.441,0.8-1.139,0.8-2.091c0-0.974-0.267-1.683-0.8-2.125
		c-0.532-0.442-1.389-0.663-2.566-0.663c-1.179,0-2.033,0.221-2.566,0.663s-0.799,1.151-0.799,2.125
		c0,0.952,0.266,1.649,0.799,2.091S135.618,174.538,136.797,174.538 M122.619,176.17c-2.811,0-5.004,0.777-6.579,2.329
		c-1.575,1.553-2.363,3.724-2.363,6.511c0,2.812,0.794,4.987,2.38,6.528c1.588,1.542,3.854,2.312,6.801,2.312
		c2.289,0,4.131-0.48,5.523-1.444c1.395-0.964,2.217-2.216,2.467-3.757l-5.203-1.666c-0.271,1.836-1.213,2.754-2.821,2.754
		c-2.244,0-3.366-1.553-3.366-4.658c0-3.196,1.122-4.794,3.366-4.794c1.519,0,2.391,0.975,2.618,2.924l5.371-1.769
		c-0.316-1.563-1.121-2.832-2.414-3.808C127.107,176.658,125.18,176.17,122.619,176.17 M101.268,190.109
		c-0.521,0-0.93-0.123-1.225-0.373c-0.294-0.25-0.441-0.612-0.441-1.088c0-0.477,0.152-0.844,0.459-1.105
		c0.306-0.26,0.82-0.48,1.547-0.663l2.754-0.646v1.462c0,0.726-0.317,1.309-0.952,1.751
		C102.775,189.889,102.061,190.109,101.268,190.109 M111.297,190.212c-0.816,0-1.224-0.442-1.224-1.326v-6.188
		c0-2.177-0.692-3.808-2.074-4.896c-1.382-1.088-3.399-1.632-6.052-1.632c-2.266,0-4.068,0.459-5.406,1.377
		c-1.337,0.918-2.152,2.205-2.448,3.859l4.692,1.359c0.158-0.929,0.51-1.598,1.054-2.006s1.247-0.611,2.108-0.611
		c0.748,0,1.338,0.227,1.768,0.68c0.432,0.454,0.646,1.066,0.646,1.836v0.611l-3.842,0.748c-2.357,0.477-4.052,1.162-5.084,2.058
		c-1.031,0.896-1.547,2.069-1.547,3.519c0,1.383,0.454,2.438,1.36,3.162c0.907,0.727,2.21,1.088,3.91,1.088
		c3.015,0,5.032-0.871,6.052-2.617c0.477,1.746,1.938,2.617,4.387,2.617c0.883,0,1.654-0.182,2.312-0.543l0.442-3.23
		C112.079,190.167,111.729,190.212,111.297,190.212 M83.111,180.216c1.813,0,2.856,1.111,3.129,3.332h-6.393
		C80.188,181.327,81.275,180.216,83.111,180.216 M91.646,184.771c0-2.72-0.731-4.832-2.193-6.34s-3.564-2.262-6.307-2.262
		c-2.834,0-5.021,0.771-6.562,2.312s-2.312,3.718-2.312,6.527c0,2.812,0.787,4.987,2.363,6.528c1.575,1.542,3.848,2.312,6.816,2.312
		c1.994,0,3.678-0.379,5.051-1.139c1.37-0.759,2.294-1.863,2.77-3.314L86.58,187.9c-0.182,0.611-0.539,1.076-1.071,1.394
		s-1.219,0.476-2.058,0.476c-0.997,0-1.797-0.248-2.396-0.748c-0.601-0.498-0.992-1.279-1.174-2.346h11.596
		C91.589,186.178,91.646,185.543,91.646,184.771 M71.178,176.17c-1.291,0-2.375,0.346-3.246,1.037
		c-0.873,0.691-1.514,1.684-1.922,2.975l-0.238-3.672h-5.1v17h5.779v-8.568c0-1.291,0.363-2.282,1.089-2.975
		c0.726-0.691,1.632-1.037,2.72-1.037c0.43,0,0.838,0.051,1.225,0.153c0.385,0.103,0.69,0.222,0.918,0.356l0.611-4.896
		C72.561,176.295,71.947,176.17,71.178,176.17 M57.816,187.084l-5.305-1.496c-0.271,1.27-0.771,2.199-1.496,2.788
		c-0.726,0.59-1.711,0.884-2.957,0.884c-1.656,0-2.92-0.595-3.791-1.785c-0.873-1.189-1.31-2.918-1.31-5.185s0.453-3.995,1.36-5.185
		c0.906-1.19,2.187-1.785,3.842-1.785c1.201,0,2.13,0.271,2.787,0.815c0.658,0.544,1.145,1.496,1.463,2.856l5.134-2.074
		c-0.544-2.062-1.666-3.609-3.366-4.641c-1.699-1.031-3.773-1.547-6.222-1.547c-2.244,0-4.194,0.459-5.849,1.377
		s-2.924,2.25-3.808,3.994c-0.884,1.746-1.325,3.809-1.325,6.188c0,2.403,0.441,4.471,1.325,6.205
		c0.884,1.733,2.153,3.06,3.808,3.978s3.615,1.377,5.883,1.377c2.47,0,4.566-0.561,6.289-1.683S57.182,189.352,57.816,187.084"/>
</g>
<line fill="none" stroke="#0046F9" stroke-width="2" x1="280.443" y1="26" x2="280.443" y2="976"/>
<g>
	<defs>
		<rect id="SVGID_119_" width="564" height="1002"/>
	</defs>
	<clipPath id="SVGID_4_">
		<use xlink:href="#SVGID_119_"  overflow="visible"/>
	</clipPath>
	<polygon clip-path="url(#SVGID_4_)" fill="none" stroke="#0046F9" stroke-width="1.998" points="0.999,3 0.999,999 0.999,1001.002 
		3,1001.002 561,1001.002 563.002,1001.002 563.002,999 563.002,3 563.002,0.998 561,0.998 3,0.998 0.999,0.998 	"/>
</g>
<rect x="5.002" y="5.002" fill="none" stroke="#0046F9" stroke-width="1.998" width="553.996" height="991.996"/>
<path fill="#0046F9" d="M45.184,880.136v14.514l97.854-3.043L100.9,955.281l0.234,0.234l137.65-67.89v-0.468l-137.65-67.421
	l-0.469,0.234l42.372,63.675L45.184,880.136z M157.785,887.626h61.803l-94.576,46.586L157.785,887.626z"/>
<line fill="none" stroke="#0046F9" stroke-width="2" x1="22.943" y1="143" x2="259.443" y2="143"/>
<line fill="none" stroke="#0046F9" stroke-width="2" x1="22.943" y1="388.346" x2="259.443" y2="388.346"/>
<line fill="none" stroke="#0046F9" stroke-width="2" x1="22.943" y1="771" x2="259.443" y2="771"/>
<g>
	<defs>
		<rect id="SVGID_121_" width="564" height="1002"/>
	</defs>
	<clipPath id="SVGID_6_">
		<use xlink:href="#SVGID_121_"  overflow="visible"/>
	</clipPath>
	<path clip-path="url(#SVGID_6_)" fill="#0046F9" d="M232.93,37.582h10.8v63.5h14.3v10h-25.1V37.582z M209.83,61.482l-0.301-1.9
		h-0.6l-0.3,1.9l-3.101,23.199h7.4L209.83,61.482z M191.529,111.082l11.101-73.5h13.2l11.1,73.5h-10.5l-2-15h-10.4l-2,15H191.529z
		 M185.631,37.582v58.4c-0.1,3-0.7,5.699-1.801,8c-0.899,2-2.299,3.9-4.299,5.4c-2,1.6-4.701,2.5-8.301,2.5s-6.4-0.9-8.4-2.5
		c-2-1.5-3.299-3.4-4.199-5.4c-1.1-2.301-1.7-5-1.801-8v-58.4h10.801v58.4c0,2.1,0.5,3.5,1.5,4.6c0.5,0.5,1.199,0.801,2.1,0.801
		c1.9,0,2.801-1.201,3.2-2.701c0.3-0.699,0.399-1.6,0.399-2.699v-58.4H185.631z M120.531,48.682v-11.1h31.199v11.1h-10.199v62.4
		H130.73v-62.4H120.531z M98.031,70.082c1.5,0,3.5-0.199,5.101-1.6s2.899-4.1,2.899-9.301c0-5.199-1.299-8-2.899-9.399
		s-3.601-1.5-5.101-1.5V70.082z M106.531,111.082l-5.6-31h-2.9v31H87.232v-73.5h10.799c12.9,0,18.4,7.301,18.4,21.2
		c0,7.3-1.9,13.899-6,16.7l6.9,35.6H106.531z M67.433,37.582h10.8v73.5h-10.8V37.582z M51.033,37.582h10.5l-11.199,73.5H39.533
		l-11.199-73.5h10.5l5.4,40.4l0.398,3.1h0.602l0.398-3.1L51.033,37.582z"/>
</g>
</svg>
