<?xml version="1.0" standalone="no"?>
<!DOCTYPE svg PUBLIC "-//W3C//DTD SVG 20010904//EN"
 "http://www.w3.org/TR/2001/REC-SVG-20010904/DTD/svg10.dtd">
<svg version="1.0" xmlns="http://www.w3.org/2000/svg"
 width="800.000000pt" height="800.000000pt" viewBox="0 0 800.000000 800.000000"
 preserveAspectRatio="xMidYMid meet">
<metadata>
Created by potrace 1.11, written by Peter Selinger 2001-2013
</metadata>
<g transform="translate(0.000000,800.000000) scale(0.100000,-0.100000)"
fill="#000000" stroke="none">
<path d="M3675 7994 c-659 -65 -1219 -246 -1748 -566 -966 -584 -1642 -1549
-1856 -2652 -58 -298 -66 -389 -66 -776 0 -387 8 -478 66 -776 308 -1583 1553
-2834 3134 -3149 312 -62 401 -70 795 -70 387 0 478 8 776 66 1590 309 2844
1563 3153 3153 58 298 66 389 66 776 0 387 -8 478 -66 776 -309 1590 -1564
2844 -3153 3153 -284 55 -375 64 -731 66 -181 2 -348 1 -370 -1z m606 -2407
c14 -3 68 -10 120 -17 612 -76 1199 -301 1687 -647 318 -226 669 -574 850
-844 l51 -76 -71 -104 c-253 -370 -553 -685 -900 -943 -362 -269 -677 -428
-1083 -546 -106 -31 -317 -75 -400 -84 -27 -3 -95 -10 -150 -16 -93 -10 -539
-15 -553 -6 -4 2 -40 7 -79 10 -244 21 -735 144 -928 231 -16 8 -82 37 -145
66 -117 53 -242 114 -295 146 -263 159 -458 293 -620 427 -221 182 -490 452
-632 633 l-64 82 27 53 c14 29 47 87 72 128 256 417 586 756 1014 1037 123 81
410 226 549 277 249 91 541 161 789 190 119 13 691 15 761 3z"/>
<path d="M3895 5013 c-72 -10 -157 -37 -241 -78 -190 -92 -362 -304 -413 -510
-66 -266 4 -550 183 -742 164 -176 323 -250 556 -260 199 -8 358 37 505 141
79 57 176 162 225 246 125 211 144 497 49 727 -79 189 -258 361 -450 433 -117
43 -285 61 -414 43z"/>
<path d="M5350 4713 c0 -4 11 -58 25 -118 81 -365 43 -740 -107 -1040 -78
-155 -263 -377 -399 -477 -27 -20 -39 -48 -21 -48 14 0 141 45 249 89 439 175
827 447 1070 746 26 33 56 69 66 80 37 41 33 61 -26 138 -147 191 -381 406
-554 509 -132 79 -303 147 -303 121z"/>
<path d="M2464 4548 c-146 -107 -334 -258 -477 -384 -98 -85 -237 -246 -237
-273 0 -36 287 -298 510 -467 268 -203 606 -372 835 -418 97 -20 157 -28 163
-22 4 5 -18 29 -48 54 -170 141 -323 325 -428 512 -76 137 -139 329 -168 515
-24 149 -17 494 12 568 13 36 -27 15 -162 -85z"/>
</g>
</svg>
