<?xml version="1.0" encoding="utf-8"?>
<!-- Generator: Adobe Illustrator 16.0.0, SVG Export Plug-In . SVG Version: 6.00 Build 0)  -->
<!DOCTYPE svg PUBLIC "-//W3C//DTD SVG 1.1//EN" "http://www.w3.org/Graphics/SVG/1.1/DTD/svg11.dtd">
<svg version="1.1" id="Layer_1" xmlns="http://www.w3.org/2000/svg" xmlns:xlink="http://www.w3.org/1999/xlink" x="0px" y="0px"
	 width="1170.09px" height="492.17px" viewBox="0 0 1170.09 492.17" enable-background="new 0 0 1170.09 492.17"
	 xml:space="preserve">
<polygon fill="#231F20" points="136.266,444.477 274.543,444.477 362.639,54.177 286.81,54.177 210.422,407.677 200.387,407.677 
	123.998,54.177 48.17,54.177 "/>
<line fill="none" stroke="#231F20" stroke-width="2" x1="425.954" y1="177" x2="1144.543" y2="177"/>
<line fill="none" stroke="#231F20" stroke-width="2" x1="664.965" y1="331" x2="1144.543" y2="331"/>
<line fill="none" stroke="#231F20" stroke-width="2" x1="404.953" y1="25.829" x2="404.953" y2="467"/>
<line fill="none" stroke="#231F20" stroke-width="2" x1="636.965" y1="198" x2="636.965" y2="467"/>
<g>
	<defs>
		<rect id="SVGID_61_" x="-0.09" y="-0.17" width="1170.088" height="492.17"/>
	</defs>
	<clipPath id="SVGID_2_">
		<use xlink:href="#SVGID_61_"  overflow="visible"/>
	</clipPath>
	<path clip-path="url(#SVGID_2_)" fill="#FF1419" d="M1045.42,125.182h73.341V99.108h-3.32l-12.256,22.217h-15.526V59.801h8.494
		v-3.808h-50.732v3.808h8.545v61.524h-8.545V125.182z M956.175,100.621l9.034-23.046l9.423,23.046H956.175z M935.52,125.182h22.316
		v-3.856c-1.303,0-2.5-0.032-3.59-0.098c-1.092-0.065-2.034-0.188-2.832-0.367c-0.799-0.179-1.416-0.406-1.855-0.684
		c-0.439-0.275-0.66-0.642-0.66-1.099c0-0.162,0.018-0.292,0.049-0.39l5.714-14.209h21.484l6.738,16.846h-9.424v3.856h55.371v-3.856
		h-8.495l-29.444-65.332h-21.436l-25.146,62.841c-0.392,0.944-1.294,1.596-2.71,1.953c-1.416,0.358-3.443,0.538-6.08,0.538V125.182z
		 M844.272,95.202c0,2.832,0.251,5.583,0.757,8.251c0.505,2.67,1.311,5.185,2.417,7.544c1.106,2.361,2.556,4.525,4.347,6.494
		c1.789,1.97,3.985,3.662,6.591,5.078c2.603,1.416,5.63,2.515,9.081,3.297c3.451,0.781,7.39,1.171,11.816,1.171
		c6.381,0,11.712-0.644,15.992-1.929c4.279-1.285,7.715-3.295,10.303-6.03c2.588-2.734,4.426-6.226,5.518-10.474
		c1.09-4.248,1.636-9.334,1.636-15.259V62.682c0-0.944,0.715-1.659,2.148-2.147c1.432-0.489,3.548-0.733,6.348-0.733v-3.808h-21.24
		v3.808c2.832,0,4.974,0.244,6.42,0.733c1.449,0.488,2.174,1.203,2.174,2.147v32.031c0,3.679-0.229,6.86-0.684,9.546
		c-0.457,2.686-1.083,4.98-1.88,6.885c-0.799,1.904-1.726,3.459-2.783,4.663c-1.059,1.205-2.182,2.148-3.369,2.832
		c-1.188,0.685-2.417,1.147-3.687,1.392c-1.271,0.244-2.507,0.367-3.712,0.367c-3.157,0-5.688-0.619-7.592-1.856
		c-1.904-1.236-3.369-2.905-4.395-5.005s-1.702-4.532-2.027-7.299c-0.324-2.768-0.487-5.681-0.487-8.741V59.801h8.496v-3.808
		h-50.732v3.808h8.545V95.202z M751.999,125.182h50.731v-3.856h-8.545V59.801h7.08l11.915,24.121h3.417V55.993h-78.466v27.929h3.37
		l11.962-24.121h7.031v61.524h-8.496V125.182z M670.858,59.801c1.757,0,3.287,0.204,4.589,0.61c1.303,0.408,2.387,1.14,3.248,2.197
		c0.862,1.059,1.506,2.508,1.929,4.346c0.423,1.84,0.635,4.208,0.635,7.105s-0.212,5.281-0.635,7.152
		c-0.423,1.873-1.066,3.345-1.929,4.419c-0.861,1.074-1.945,1.824-3.248,2.246c-1.302,0.424-2.832,0.635-4.589,0.635V59.801z
		 M628.622,125.182h50.732v-3.856h-8.496V92.369c1.595,0,2.971,0.229,4.126,0.684c1.155,0.456,2.092,1.294,2.809,2.515
		c0.715,1.221,1.244,2.89,1.586,5.006c0.342,2.115,0.513,4.834,0.513,8.154c0,3.026,0.31,5.696,0.927,8.008
		c0.619,2.311,1.686,4.248,3.199,5.81c1.513,1.563,3.54,2.742,6.079,3.54c2.538,0.798,5.729,1.197,9.571,1.197
		c4.003,0,7.307-0.303,9.911-0.904c2.603-0.602,4.679-1.587,6.226-2.954c1.545-1.367,2.62-3.157,3.223-5.371
		c0.603-2.213,0.903-4.932,0.903-8.153v-1.563h-4.102c0,3.938-0.243,6.951-0.732,9.034c-0.488,2.083-1.27,3.125-2.345,3.125
		c-0.65,0-1.114-0.262-1.391-0.782c-0.275-0.521-0.415-1.285-0.415-2.295v-1.733c0-0.504,0.032-1.228,0.098-2.173
		c0.032-0.911,0.057-1.7,0.073-2.368c0.016-0.666,0.024-1.473,0.024-2.416c0-3.418-0.603-6.242-1.806-8.473
		c-1.205-2.229-3.119-4.004-5.738-5.322c-2.621-1.318-5.998-2.246-10.133-2.783c-4.133-0.537-9.129-0.821-14.989-0.854
		c6.542-0.032,12.003-0.447,16.382-1.245c4.377-0.797,7.877-1.929,10.498-3.393c2.62-1.465,4.476-3.256,5.566-5.371
		c1.09-2.116,1.636-4.525,1.636-7.227c0-3.093-0.627-5.779-1.88-8.058c-1.254-2.278-3.076-4.158-5.469-5.64
		c-2.393-1.48-5.34-2.58-8.838-3.295c-3.499-0.717-7.479-1.074-11.938-1.074h-55.811v3.808h8.546v61.524h-8.546V125.182z
		 M556.222,125.182h50.732v-3.856h-8.495V59.801h8.495v-3.808h-50.732v3.808h8.544v61.524h-8.544V125.182z M487.093,125.182h20.946
		l23.096-62.354c0.424-1.106,1.311-1.888,2.662-2.343c1.351-0.457,3.458-0.685,6.322-0.685v-3.808h-22.754v3.808
		c1.303,0,2.498,0.041,3.59,0.122c1.091,0.082,2.033,0.212,2.832,0.391c0.799,0.18,1.416,0.407,1.855,0.684
		c0.439,0.277,0.658,0.628,0.658,1.05c0,0.228-0.049,0.489-0.145,0.781l-14.795,39.649l-16.504-42.677h8.592v-3.808h-52.148v3.808
		h7.179L487.093,125.182z"/>
	<path clip-path="url(#SVGID_2_)" fill="#231F20" d="M1039.23,289.96c2.629,0,4.635-0.516,6.018-1.547
		c1.384-1.031,2.074-2.374,2.074-4.029c0-1.473-0.55-2.635-1.648-3.485c-1.1-0.85-2.896-1.489-5.391-1.921
		c-1.154-0.226-1.965-0.459-2.43-0.697c-0.465-0.237-0.697-0.526-0.697-0.866c0-0.362,0.228-0.668,0.68-0.918
		c0.453-0.249,1.089-0.374,1.904-0.374c1.043,0,1.938,0.182,2.687,0.544s1.394,0.94,1.938,1.733l2.992-2.924
		c-0.771-1.064-1.774-1.864-3.009-2.396c-1.235-0.532-2.828-0.8-4.777-0.8c-1.768,0-3.27,0.268-4.505,0.8s-2.159,1.229-2.771,2.091
		c-0.613,0.861-0.918,1.779-0.918,2.754c0,1.428,0.537,2.573,1.614,3.434c1.077,0.862,2.884,1.542,5.423,2.04
		c1.134,0.228,1.933,0.459,2.397,0.697s0.697,0.516,0.697,0.833c0,0.363-0.228,0.652-0.681,0.867
		c-0.453,0.216-1.076,0.323-1.869,0.323c-2.381,0-4.058-0.805-5.032-2.414l-2.993,3.264
		C1032.566,288.963,1035.331,289.96,1039.23,289.96 M1019.75,276.326c1.812,0,2.855,1.11,3.128,3.332h-6.393
		C1016.825,277.437,1017.913,276.326,1019.75,276.326 M1028.283,280.882c0-2.72-0.73-4.833-2.192-6.341
		c-1.462-1.507-3.565-2.262-6.308-2.262c-2.834,0-5.021,0.771-6.562,2.312c-1.542,1.542-2.312,3.718-2.312,6.528
		s0.787,4.986,2.363,6.527c1.575,1.542,3.847,2.312,6.817,2.312c1.994,0,3.676-0.379,5.049-1.14
		c1.371-0.759,2.295-1.863,2.771-3.314l-4.692-1.496c-0.182,0.612-0.538,1.077-1.07,1.394c-0.533,0.318-1.219,0.477-2.057,0.477
		c-0.998,0-1.797-0.249-2.397-0.748c-0.601-0.498-0.993-1.28-1.173-2.346h11.594
		C1028.227,282.288,1028.283,281.652,1028.283,280.882 M1006.932,272.62h-5.781v17h5.781V272.62z M1004.041,270.647
		c1.18,0,2.034-0.221,2.567-0.663c0.533-0.441,0.799-1.139,0.799-2.091c0-0.974-0.266-1.683-0.799-2.125
		c-0.533-0.441-1.388-0.663-2.567-0.663c-1.179,0-2.033,0.222-2.566,0.663c-0.533,0.442-0.799,1.151-0.799,2.125
		c0,0.952,0.266,1.649,0.799,2.091C1002.008,270.427,1002.862,270.647,1004.041,270.647 M990.611,272.279
		c-1.246,0-2.375,0.295-3.383,0.885s-1.785,1.439-2.33,2.55c-0.407-1.11-1.081-1.96-2.021-2.55c-0.941-0.59-2.059-0.885-3.35-0.885
		c-1.313,0-2.459,0.307-3.434,0.918c-0.975,0.612-1.734,1.509-2.279,2.687l-0.169-3.264h-5.168v17h5.78v-8.977
		c0-1.313,0.283-2.3,0.85-2.958c0.567-0.657,1.281-0.986,2.143-0.986c1.541,0,2.312,0.976,2.312,2.925v9.996h5.78v-9.078
		c0-1.246,0.271-2.198,0.815-2.856c0.544-0.657,1.271-0.986,2.177-0.986c1.541,0,2.312,0.976,2.312,2.925v9.996h5.78v-11.322
		c0-1.926-0.538-3.411-1.615-4.454C993.734,272.802,992.336,272.279,990.611,272.279 M955.49,276.394
		c1.088,0,1.893,0.374,2.414,1.122s0.781,1.95,0.781,3.604s-0.26,2.855-0.781,3.604s-1.326,1.122-2.414,1.122
		s-1.893-0.374-2.414-1.122s-0.781-1.949-0.781-3.604s0.26-2.856,0.781-3.604S954.402,276.394,955.49,276.394 M955.49,272.279
		c-2.834,0-5.039,0.777-6.612,2.329c-1.577,1.554-2.364,3.724-2.364,6.512s0.787,4.959,2.364,6.511
		c1.573,1.553,3.778,2.329,6.612,2.329c2.833,0,5.037-0.776,6.613-2.329c1.575-1.552,2.363-3.723,2.363-6.511
		s-0.788-4.958-2.363-6.512C960.527,273.057,958.323,272.279,955.49,272.279 M936.723,272.279c-1.338,0-2.506,0.302-3.502,0.901
		c-0.998,0.601-1.77,1.502-2.312,2.703l-0.17-3.264h-5.168v17h5.779v-8.977c0-1.337,0.283-2.329,0.85-2.975
		c0.566-0.646,1.305-0.97,2.211-0.97c0.771,0,1.365,0.244,1.785,0.731c0.419,0.488,0.629,1.309,0.629,2.465v9.725h5.78v-11.322
		c0-1.926-0.533-3.411-1.598-4.454C939.94,272.802,938.513,272.279,936.723,272.279 M912.582,276.394
		c1.089,0,1.894,0.374,2.414,1.122c0.521,0.748,0.782,1.95,0.782,3.604s-0.261,2.855-0.782,3.604
		c-0.521,0.748-1.325,1.122-2.414,1.122c-1.088,0-1.893-0.374-2.414-1.122c-0.521-0.748-0.781-1.949-0.781-3.604
		s0.261-2.856,0.781-3.604C910.689,276.768,911.494,276.394,912.582,276.394 M912.582,272.279c-2.832,0-5.037,0.777-6.613,2.329
		c-1.574,1.554-2.362,3.724-2.362,6.512s0.788,4.959,2.362,6.511c1.576,1.553,3.781,2.329,6.613,2.329
		c2.834,0,5.037-0.776,6.613-2.329c1.574-1.552,2.363-3.723,2.363-6.511s-0.789-4.958-2.363-6.512
		C917.619,273.057,915.416,272.279,912.582,272.279 M902.349,289.62l-6.052-8.568l5.916-8.432h-6.393l-3.195,5.678l-3.129-5.678
		h-6.562l5.883,8.397l-6.12,8.603h6.393l3.399-5.916l3.332,5.916H902.349z M870.559,286.22c-0.521,0-0.929-0.124-1.223-0.374
		c-0.295-0.249-0.443-0.612-0.443-1.088c0-0.477,0.153-0.844,0.459-1.105c0.306-0.26,0.822-0.48,1.547-0.663l2.754-0.646v1.462
		c0,0.726-0.316,1.309-0.953,1.751C872.066,285.999,871.352,286.22,870.559,286.22 M880.589,286.321
		c-0.816,0-1.225-0.441-1.225-1.325v-6.188c0-2.176-0.69-3.808-2.073-4.896c-1.383-1.089-3.4-1.633-6.053-1.633
		c-2.266,0-4.067,0.459-5.406,1.377c-1.337,0.918-2.152,2.205-2.447,3.859l4.691,1.36c0.158-0.93,0.51-1.599,1.055-2.006
		c0.544-0.408,1.247-0.612,2.107-0.612c0.748,0,1.338,0.227,1.769,0.68c0.431,0.454,0.646,1.066,0.646,1.836v0.612l-3.842,0.748
		c-2.357,0.476-4.051,1.162-5.083,2.057c-1.031,0.896-1.547,2.069-1.547,3.52c0,1.383,0.454,2.437,1.36,3.162
		s2.209,1.088,3.909,1.088c3.015,0,5.032-0.872,6.052-2.618c0.477,1.746,1.938,2.618,4.387,2.618c0.884,0,1.655-0.183,2.311-0.544
		l0.443-3.23C881.369,286.276,881.02,286.321,880.589,286.321 M860.189,285.098c-0.703,0.499-1.519,0.748-2.448,0.748
		c-1.496,0-2.244-0.759-2.244-2.278v-6.834h5.101v-4.113h-5.101v-5.406l-5.78,1.598v3.809h-2.923v4.113h2.923v7.786
		c0.022,1.904,0.566,3.287,1.633,4.148c1.064,0.861,2.605,1.292,4.624,1.292c0.884,0,1.761-0.119,2.635-0.357
		c0.872-0.238,1.591-0.549,2.159-0.935L860.189,285.098z M834.01,272.279c-1.293,0-2.375,0.347-3.247,1.037
		c-0.873,0.692-1.513,1.684-1.921,2.976l-0.238-3.672h-5.1v17h5.779v-8.568c0-1.292,0.362-2.283,1.088-2.975
		s1.633-1.037,2.721-1.037c0.43,0,0.838,0.051,1.223,0.152c0.385,0.103,0.692,0.222,0.919,0.357l0.612-4.896
		C835.392,272.404,834.779,272.279,834.01,272.279 M818.709,272.62h-5.779v17h5.779V272.62z M815.818,270.647
		c1.18,0,2.035-0.221,2.568-0.663c0.533-0.441,0.799-1.139,0.799-2.091c0-0.974-0.266-1.683-0.799-2.125
		c-0.533-0.441-1.389-0.663-2.568-0.663c-1.177,0-2.033,0.222-2.566,0.663c-0.531,0.442-0.799,1.151-0.799,2.125
		c0,0.952,0.268,1.649,0.799,2.091C813.785,270.427,814.642,270.647,815.818,270.647 M800.486,276.326
		c1.813,0,2.856,1.11,3.128,3.332h-6.392C797.562,277.437,798.65,276.326,800.486,276.326 M809.02,280.882
		c0-2.72-0.73-4.833-2.192-6.341c-1.462-1.507-3.564-2.262-6.308-2.262c-2.834,0-5.02,0.771-6.561,2.312
		c-1.543,1.542-2.312,3.718-2.312,6.528s0.787,4.986,2.363,6.527c1.574,1.542,3.847,2.312,6.816,2.312
		c1.994,0,3.678-0.379,5.049-1.14c1.371-0.759,2.296-1.863,2.771-3.314l-4.692-1.496c-0.182,0.612-0.538,1.077-1.07,1.394
		c-0.534,0.318-1.22,0.477-2.058,0.477c-0.998,0-1.797-0.249-2.396-0.748c-0.602-0.498-0.992-1.28-1.173-2.346h11.593
		C808.964,282.288,809.02,281.652,809.02,280.882 M781.854,272.279c-1.247,0-2.329,0.289-3.247,0.867s-1.627,1.435-2.125,2.567
		v-10.302h-5.781v24.208h5.781v-8.942c0-1.36,0.283-2.368,0.85-3.026c0.566-0.656,1.303-0.985,2.211-0.985
		c1.607,0,2.413,1.077,2.413,3.229v9.725h5.78v-11.322c0-1.926-0.533-3.411-1.598-4.454
		C785.072,272.802,783.645,272.279,781.854,272.279 M766.589,285.098c-0.704,0.499-1.521,0.748-2.448,0.748
		c-1.496,0-2.244-0.759-2.244-2.278v-6.834h5.1v-4.113h-5.1v-5.406l-5.781,1.598v3.809h-2.923v4.113h2.923v7.786
		c0.024,1.904,0.568,3.287,1.633,4.148c1.065,0.861,2.607,1.292,4.624,1.292c0.885,0,1.763-0.119,2.636-0.357
		s1.593-0.549,2.158-0.935L766.589,285.098z M730.957,285.71c-1.02,0-1.808-0.374-2.362-1.122c-0.557-0.748-0.833-1.904-0.833-3.468
		c0-1.564,0.276-2.721,0.833-3.469c0.555-0.748,1.343-1.122,2.362-1.122c0.93,0,1.672,0.341,2.228,1.021
		c0.555,0.68,0.867,1.644,0.935,2.89v1.36c-0.067,1.27-0.38,2.239-0.935,2.907C732.629,285.376,731.887,285.71,730.957,285.71
		 M734.119,265.412v10.063c-0.5-0.997-1.179-1.779-2.04-2.346c-0.862-0.566-1.894-0.851-3.094-0.851c-2.2,0-3.922,0.782-5.168,2.347
		c-1.247,1.563-1.87,3.752-1.87,6.562c0,2.767,0.617,4.919,1.854,6.46c1.234,1.542,2.951,2.312,5.15,2.312
		c1.27,0,2.385-0.318,3.35-0.952c0.963-0.634,1.693-1.507,2.192-2.618l0.204,3.23h5.201v-24.208H734.119z M712.053,272.279
		c-1.337,0-2.504,0.302-3.501,0.901c-0.999,0.601-1.769,1.502-2.312,2.703l-0.171-3.264h-5.167v17h5.78v-8.977
		c0-1.337,0.283-2.329,0.85-2.975c0.566-0.646,1.303-0.97,2.21-0.97c0.771,0,1.365,0.244,1.785,0.731
		c0.419,0.488,0.629,1.309,0.629,2.465v9.725h5.78v-11.322c0-1.926-0.533-3.411-1.598-4.454
		C715.271,272.802,713.844,272.279,712.053,272.279 M686.859,286.22c-0.521,0-0.93-0.124-1.225-0.374
		c-0.294-0.249-0.441-0.612-0.441-1.088c0-0.477,0.153-0.844,0.459-1.105c0.307-0.26,0.821-0.48,1.547-0.663l2.754-0.646v1.462
		c0,0.726-0.318,1.309-0.951,1.751C688.366,285.999,687.652,286.22,686.859,286.22 M696.89,286.321
		c-0.816,0-1.225-0.441-1.225-1.325v-6.188c0-2.176-0.691-3.808-2.073-4.896c-1.383-1.089-3.4-1.633-6.053-1.633
		c-2.267,0-4.068,0.459-5.406,1.377c-1.337,0.918-2.153,2.205-2.447,3.859l4.692,1.36c0.157-0.93,0.51-1.599,1.054-2.006
		c0.544-0.408,1.246-0.612,2.107-0.612c0.748,0,1.338,0.227,1.769,0.68c0.43,0.454,0.646,1.066,0.646,1.836v0.612l-3.842,0.748
		c-2.357,0.476-4.052,1.162-5.083,2.057c-1.032,0.896-1.547,2.069-1.547,3.52c0,1.383,0.452,2.437,1.36,3.162
		c0.905,0.726,2.21,1.088,3.91,1.088c3.014,0,5.031-0.872,6.051-2.618c0.477,1.746,1.938,2.618,4.387,2.618
		c0.884,0,1.654-0.183,2.312-0.544l0.441-3.23C697.672,286.276,697.318,286.321,696.89,286.321"/>
	<path clip-path="url(#SVGID_2_)" fill="#231F20" d="M1090.673,245.96c2.628,0,4.635-0.516,6.018-1.547
		c1.382-1.031,2.074-2.374,2.074-4.029c0-1.473-0.55-2.635-1.649-3.485c-1.1-0.85-2.896-1.489-5.389-1.921
		c-1.156-0.226-1.967-0.459-2.431-0.696c-0.466-0.238-0.698-0.527-0.698-0.867c0-0.362,0.227-0.668,0.681-0.918
		c0.452-0.249,1.088-0.374,1.903-0.374c1.043,0,1.938,0.182,2.686,0.544c0.748,0.363,1.396,0.94,1.939,1.733l2.992-2.924
		c-0.771-1.064-1.774-1.863-3.01-2.396c-1.236-0.532-2.827-0.799-4.776-0.799c-1.769,0-3.271,0.267-4.505,0.799
		c-1.236,0.533-2.159,1.229-2.771,2.091c-0.611,0.862-0.918,1.78-0.918,2.754c0,1.428,0.538,2.573,1.615,3.434
		c1.076,0.862,2.884,1.542,5.423,2.04c1.133,0.228,1.933,0.459,2.397,0.697c0.463,0.238,0.696,0.516,0.696,0.833
		c0,0.363-0.227,0.652-0.681,0.867c-0.453,0.216-1.076,0.323-1.869,0.323c-2.381,0-4.058-0.805-5.033-2.414l-2.99,3.264
		C1084.009,244.963,1086.773,245.96,1090.673,245.96 M1073.026,228.28c-1.337,0-2.505,0.301-3.502,0.9
		c-0.997,0.602-1.768,1.502-2.312,2.703l-0.17-3.264h-5.168v17h5.779v-8.977c0-1.337,0.283-2.329,0.851-2.975
		c0.565-0.646,1.303-0.969,2.21-0.969c0.771,0,1.365,0.243,1.785,0.73c0.418,0.488,0.629,1.31,0.629,2.465v9.725h5.779v-11.322
		c0-1.926-0.533-3.411-1.598-4.454C1076.245,228.802,1074.817,228.28,1073.026,228.28 M1048.888,232.394
		c1.088,0,1.892,0.374,2.413,1.122s0.781,1.95,0.781,3.604s-0.26,2.855-0.781,3.604s-1.325,1.122-2.413,1.122
		s-1.894-0.374-2.414-1.122c-0.522-0.748-0.783-1.949-0.783-3.604s0.261-2.856,0.783-3.604
		C1046.994,232.768,1047.8,232.394,1048.888,232.394 M1048.888,228.28c-2.835,0-5.038,0.776-6.614,2.328
		c-1.575,1.554-2.362,3.724-2.362,6.512s0.787,4.959,2.362,6.511c1.576,1.553,3.779,2.329,6.614,2.329
		c2.833,0,5.037-0.776,6.612-2.329c1.575-1.552,2.362-3.723,2.362-6.511s-0.787-4.958-2.362-6.512
		C1053.925,229.057,1051.721,228.28,1048.888,228.28 M1035.934,228.62h-5.781v17h5.781V228.62z M1033.044,226.647
		c1.178,0,2.033-0.221,2.566-0.662c0.532-0.442,0.799-1.14,0.799-2.092c0-0.974-0.267-1.683-0.799-2.125
		c-0.533-0.441-1.389-0.662-2.566-0.662c-1.18,0-2.035,0.221-2.567,0.662c-0.533,0.442-0.799,1.151-0.799,2.125
		c0,0.952,0.266,1.649,0.799,2.092C1031.009,226.427,1031.864,226.647,1033.044,226.647 M1026.447,241.098
		c-0.703,0.499-1.519,0.748-2.447,0.748c-1.496,0-2.244-0.759-2.244-2.278v-6.834h5.1v-4.113h-5.1v-5.406l-5.78,1.598v3.809h-2.924
		v4.113h2.924v7.786c0.022,1.904,0.567,3.287,1.632,4.148c1.065,0.862,2.606,1.292,4.623,1.292c0.885,0,1.763-0.119,2.636-0.357
		c0.872-0.237,1.593-0.549,2.159-0.935L1026.447,241.098z M1009.891,228.62h-5.78v17h5.78V228.62z M1007.002,226.647
		c1.177,0,2.032-0.221,2.564-0.662c0.533-0.442,0.8-1.14,0.8-2.092c0-0.974-0.267-1.683-0.8-2.125
		c-0.532-0.441-1.388-0.662-2.564-0.662c-1.181,0-2.037,0.221-2.568,0.662c-0.533,0.442-0.799,1.151-0.799,2.125
		c0,0.952,0.266,1.649,0.799,2.092C1004.965,226.427,1005.821,226.647,1007.002,226.647 M990.375,241.71
		c-1.021,0-1.809-0.374-2.363-1.122c-0.557-0.748-0.833-1.904-0.833-3.468c0-1.564,0.276-2.721,0.833-3.469
		c0.555-0.747,1.343-1.121,2.363-1.121c0.928,0,1.671,0.34,2.227,1.02c0.555,0.68,0.867,1.644,0.934,2.89v1.36
		c-0.066,1.27-0.379,2.239-0.934,2.907C992.046,241.376,991.303,241.71,990.375,241.71 M993.535,221.411v10.064
		c-0.498-0.997-1.178-1.779-2.039-2.346s-1.893-0.85-3.094-0.85c-2.199,0-3.922,0.781-5.168,2.346
		c-1.248,1.563-1.87,3.752-1.87,6.562c0,2.767,0.617,4.919,1.853,6.46c1.234,1.542,2.953,2.312,5.15,2.312
		c1.271,0,2.387-0.318,3.35-0.952c0.964-0.634,1.694-1.507,2.193-2.618l0.204,3.23h5.202v-24.209H993.535z M969.635,232.326
		c1.812,0,2.855,1.11,3.128,3.332h-6.394C966.711,233.437,967.799,232.326,969.635,232.326 M978.168,236.882
		c0-2.72-0.73-4.833-2.192-6.341c-1.462-1.507-3.564-2.261-6.308-2.261c-2.832,0-5.02,0.771-6.562,2.312
		c-1.541,1.542-2.312,3.718-2.312,6.528s0.787,4.986,2.362,6.527c1.576,1.542,3.849,2.312,6.817,2.312
		c1.994,0,3.678-0.379,5.049-1.139c1.372-0.76,2.295-1.864,2.771-3.315l-4.693-1.496c-0.18,0.612-0.537,1.077-1.07,1.395
		c-0.531,0.317-1.218,0.476-2.057,0.476c-0.997,0-1.796-0.249-2.397-0.748c-0.6-0.498-0.991-1.28-1.173-2.346h11.594
		C978.112,238.288,978.168,237.652,978.168,236.882 M945.597,221.411h-5.78v19.177c0,1.882,0.408,3.247,1.225,4.097
		c0.815,0.851,2.131,1.275,3.943,1.275c0.635,0,1.281-0.08,1.938-0.238s1.189-0.362,1.597-0.612l0.375-3.569
		c-0.612,0.204-1.189,0.306-1.734,0.306c-0.589,0-0.997-0.158-1.225-0.476c-0.225-0.317-0.339-0.861-0.339-1.632V221.411z
		 M925.844,242.22c-0.522,0-0.931-0.124-1.225-0.374c-0.295-0.249-0.441-0.612-0.441-1.088s0.152-0.844,0.459-1.105
		c0.306-0.26,0.82-0.48,1.547-0.662l2.754-0.646v1.462c0,0.727-0.318,1.31-0.952,1.751
		C927.35,241.999,926.637,242.22,925.844,242.22 M935.873,242.322c-0.815,0-1.224-0.442-1.224-1.326v-6.188
		c0-2.176-0.692-3.808-2.074-4.896c-1.383-1.088-3.399-1.631-6.052-1.631c-2.267,0-4.07,0.459-5.406,1.377
		c-1.338,0.918-2.153,2.204-2.447,3.858l4.691,1.36c0.158-0.929,0.51-1.599,1.055-2.006c0.544-0.408,1.245-0.612,2.107-0.612
		c0.748,0,1.337,0.227,1.77,0.68c0.429,0.454,0.645,1.066,0.645,1.836v0.612l-3.842,0.748c-2.359,0.476-4.052,1.162-5.083,2.057
		c-1.032,0.896-1.548,2.069-1.548,3.52c0,1.383,0.453,2.437,1.36,3.162c0.905,0.726,2.21,1.088,3.909,1.088
		c3.016,0,5.033-0.872,6.053-2.618c0.477,1.746,1.938,2.618,4.387,2.618c0.884,0,1.653-0.183,2.312-0.544l0.442-3.23
		C936.655,242.276,936.303,242.322,935.873,242.322 M908.844,228.62v9.01c0,1.314-0.284,2.295-0.851,2.941
		c-0.566,0.646-1.325,0.969-2.277,0.969c-0.794,0-1.384-0.227-1.769-0.681c-0.386-0.452-0.578-1.234-0.578-2.346v-9.894h-5.779
		v11.355c0,2.063,0.515,3.576,1.547,4.539c1.031,0.964,2.453,1.445,4.266,1.445c2.857,0,4.816-1.167,5.883-3.502l0.17,3.162h5.168
		v-17H908.844z M893.985,241.098c-0.703,0.499-1.519,0.748-2.448,0.748c-1.494,0-2.243-0.759-2.243-2.278v-6.834h5.1v-4.113h-5.1
		v-5.406l-5.78,1.598v3.809h-2.924v4.113h2.924v7.786c0.021,1.904,0.565,3.287,1.632,4.148c1.065,0.862,2.606,1.292,4.624,1.292
		c0.883,0,1.762-0.119,2.635-0.357c0.872-0.237,1.592-0.549,2.159-0.935L893.985,241.098z M877.836,228.28
		c-1.292,0-2.375,0.346-3.247,1.037c-0.873,0.691-1.514,1.683-1.921,2.975l-0.238-3.672h-5.101v17h5.78v-8.568
		c0-1.292,0.362-2.283,1.088-2.975s1.632-1.037,2.721-1.037c0.43,0,0.838,0.051,1.224,0.152c0.385,0.103,0.69,0.222,0.918,0.357
		l0.612-4.896C879.217,228.405,878.605,228.28,877.836,228.28 M862.535,228.62h-5.779v17h5.779V228.62z M859.646,226.647
		c1.179,0,2.035-0.221,2.567-0.662c0.532-0.442,0.799-1.14,0.799-2.092c0-0.974-0.267-1.683-0.799-2.125
		c-0.532-0.441-1.389-0.662-2.567-0.662c-1.178,0-2.034,0.221-2.567,0.662c-0.531,0.442-0.799,1.151-0.799,2.125
		c0,0.952,0.268,1.649,0.799,2.092C857.611,226.427,858.468,226.647,859.646,226.647 M848.053,228.62l-3.57,13.328l-3.502-13.328
		h-6.086l6.119,17h6.904l6.117-17H848.053z M815.242,249.189c-3.15,0-4.726-0.521-4.726-1.563c0-0.408,0.198-0.709,0.595-0.901
		s1.06-0.289,1.989-0.289h4.658c0.748,0,1.279,0.09,1.598,0.272c0.317,0.181,0.476,0.453,0.476,0.815
		c0,0.498-0.391,0.901-1.173,1.207C817.878,249.037,816.738,249.189,815.242,249.189 M814.971,231.578
		c0.748,0,1.354,0.227,1.818,0.68c0.465,0.454,0.697,1.054,0.697,1.802s-0.232,1.343-0.697,1.785s-1.07,0.663-1.818,0.663
		s-1.355-0.221-1.82-0.663s-0.696-1.037-0.696-1.785s0.231-1.348,0.696-1.802C813.615,231.805,814.223,231.578,814.971,231.578
		 M818.199,241.846h-5.778c-1.18,0-1.769-0.385-1.769-1.156c0-0.611,0.352-1.008,1.055-1.189c0.951,0.204,2.039,0.306,3.264,0.306
		c2.629,0,4.669-0.498,6.12-1.496c1.45-0.997,2.175-2.414,2.175-4.25c0-2.13-0.951-3.693-2.855-4.691
		c0.227-0.477,0.596-0.851,1.105-1.123c0.51-0.271,1.15-0.407,1.92-0.407c0.182,0,0.498,0.022,0.953,0.067l-0.646-3.842
		l-0.544-0.033c-1.405,0-2.505,0.431-3.298,1.291c-0.794,0.862-1.304,1.973-1.531,3.332c-1.042-0.248-2.175-0.373-3.398-0.373
		c-2.63,0-4.67,0.504-6.121,1.513s-2.175,2.431-2.175,4.267c0,2.108,0.929,3.661,2.788,4.658c-0.862,0.295-1.542,0.748-2.04,1.36
		c-0.499,0.611-0.748,1.314-0.748,2.107c0,1.61,0.872,2.788,2.618,3.536c-1.066,0.249-1.859,0.657-2.381,1.225
		c-0.521,0.565-0.781,1.224-0.781,1.972c0,1.269,0.708,2.255,2.125,2.958c1.416,0.702,3.608,1.054,6.58,1.054
		c2.944,0,5.273-0.516,6.985-1.547c1.71-1.032,2.567-2.511,2.567-4.437c0-1.678-0.539-2.946-1.615-3.809
		C821.696,242.276,820.173,241.846,818.199,241.846 M796.814,228.28c-1.338,0-2.505,0.301-3.502,0.9
		c-0.998,0.602-1.768,1.502-2.311,2.703l-0.172-3.264h-5.168v17h5.78v-8.977c0-1.337,0.283-2.329,0.851-2.975
		c0.565-0.646,1.303-0.969,2.209-0.969c0.771,0,1.365,0.243,1.785,0.73c0.42,0.488,0.631,1.31,0.631,2.465v9.725h5.778v-11.322
		c0-1.926-0.533-3.411-1.599-4.454C800.031,228.802,798.604,228.28,796.814,228.28 M780.867,228.62h-5.778v17h5.778V228.62z
		 M777.979,226.647c1.179,0,2.035-0.221,2.567-0.662c0.532-0.442,0.799-1.14,0.799-2.092c0-0.974-0.267-1.683-0.799-2.125
		c-0.532-0.441-1.389-0.662-2.567-0.662c-1.178,0-2.034,0.221-2.567,0.662c-0.531,0.442-0.799,1.151-0.799,2.125
		c0,0.952,0.268,1.649,0.799,2.092C775.944,226.427,776.801,226.647,777.979,226.647 M771.383,241.098
		c-0.702,0.499-1.519,0.748-2.449,0.748c-1.494,0-2.242-0.759-2.242-2.278v-6.834h5.102v-4.113h-5.102v-5.406l-5.78,1.598v3.809
		h-2.925v4.113h2.925v7.786c0.022,1.904,0.566,3.287,1.633,4.148c1.064,0.862,2.605,1.292,4.624,1.292
		c0.884,0,1.762-0.119,2.633-0.357c0.874-0.237,1.594-0.549,2.16-0.935L771.383,241.098z M746.257,242.22
		c-0.522,0-0.93-0.124-1.226-0.374c-0.293-0.249-0.44-0.612-0.44-1.088s0.152-0.844,0.458-1.105c0.307-0.26,0.822-0.48,1.548-0.662
		l2.753-0.646v1.462c0,0.727-0.316,1.31-0.951,1.751C747.765,241.999,747.049,242.22,746.257,242.22 M756.285,242.322
		c-0.814,0-1.223-0.442-1.223-1.326v-6.188c0-2.176-0.691-3.808-2.074-4.896c-1.382-1.088-3.399-1.631-6.053-1.631
		c-2.266,0-4.068,0.459-5.405,1.377s-2.152,2.204-2.448,3.858l4.692,1.36c0.159-0.929,0.509-1.599,1.054-2.006
		c0.545-0.408,1.247-0.612,2.107-0.612c0.749,0,1.338,0.227,1.769,0.68c0.431,0.454,0.646,1.066,0.646,1.836v0.612l-3.841,0.748
		c-2.358,0.476-4.052,1.162-5.083,2.057c-1.031,0.896-1.547,2.069-1.547,3.52c0,1.383,0.453,2.437,1.359,3.162
		c0.907,0.726,2.209,1.088,3.91,1.088c3.015,0,5.032-0.872,6.051-2.618c0.478,1.746,1.939,2.618,4.387,2.618
		c0.885,0,1.655-0.183,2.312-0.544l0.442-3.23C757.068,242.276,756.717,242.322,756.285,242.322 M727.422,232.326
		c1.812,0,2.855,1.11,3.127,3.332h-6.392C724.498,233.437,725.586,232.326,727.422,232.326 M735.955,236.882
		c0-2.72-0.73-4.833-2.192-6.341c-1.462-1.507-3.565-2.261-6.308-2.261c-2.834,0-5.021,0.771-6.562,2.312
		c-1.542,1.542-2.312,3.718-2.312,6.528s0.785,4.986,2.362,6.527c1.575,1.542,3.847,2.312,6.817,2.312
		c1.994,0,3.677-0.379,5.049-1.139c1.371-0.76,2.295-1.864,2.771-3.315l-4.692-1.496c-0.183,0.612-0.54,1.077-1.071,1.395
		c-0.533,0.317-1.219,0.476-2.057,0.476c-0.998,0-1.797-0.249-2.397-0.748c-0.601-0.498-0.991-1.28-1.173-2.346h11.594
		C735.898,238.288,735.955,237.652,735.955,236.882 M714.808,228.28c-1.292,0-2.375,0.346-3.247,1.037
		c-0.873,0.691-1.513,1.683-1.921,2.975l-0.238-3.672h-5.101v17h5.781v-8.568c0-1.292,0.361-2.283,1.088-2.975
		c0.725-0.691,1.631-1.037,2.72-1.037c0.429,0,0.838,0.051,1.224,0.152c0.385,0.103,0.691,0.222,0.918,0.357l0.612-4.896
		C716.189,228.405,715.577,228.28,714.808,228.28 M700.766,239.193l-5.304-1.495c-0.272,1.27-0.771,2.198-1.497,2.787
		c-0.726,0.591-1.711,0.885-2.957,0.885c-1.656,0-2.919-0.596-3.791-1.785c-0.873-1.19-1.31-2.918-1.31-5.186
		c0-2.266,0.453-3.994,1.36-5.185c0.906-1.19,2.187-1.785,3.842-1.785c1.201,0,2.13,0.272,2.788,0.815
		c0.657,0.545,1.144,1.496,1.462,2.856l5.134-2.073c-0.544-2.062-1.666-3.609-3.365-4.642c-1.7-1.03-3.774-1.547-6.223-1.547
		c-2.244,0-4.193,0.459-5.848,1.377c-1.655,0.918-2.925,2.25-3.808,3.995c-0.885,1.746-1.326,3.808-1.326,6.188
		c0,2.403,0.441,4.472,1.326,6.205c0.883,1.734,2.152,3.061,3.808,3.979c1.654,0.918,3.615,1.377,5.882,1.377
		c2.47,0,4.567-0.562,6.29-1.684C698.951,243.155,700.131,241.461,700.766,239.193"/>
	<path clip-path="url(#SVGID_2_)" fill="#231F20" d="M564.832,407.5h32.896v34.777h-32.896V407.5z M514.703,333.246
		c0-9.713-3.445-16.919-10.651-16.919c-3.761,0-6.894,2.819-9.399,6.267c-2.507,3.759-3.76,8.146-3.76,10.652h-28.512v-121.25
		h81.773v33.523h-52.637v47.937c3.762-2.82,7.834-5.326,12.534-6.894c2.192-0.939,4.698-1.253,6.892-0.939
		c17.547,0,26.945,10.025,31.959,20.992c5.012,10.966,5.639,22.871,5.639,26.631v51.383c0,10.965-0.627,25.691-6.579,37.91
		c-5.953,12.532-17.232,22.245-37.597,22.245c-20.992,0-31.645-9.713-37.598-23.498c-5.953-13.474-6.58-30.705-6.58-46.058h33.838
		v9.086c0,11.594,0.627,19.739,2.193,24.125c1.566,4.7,4.072,6.894,8.146,6.894c3.445,0,6.266-2.193,7.832-6.58
		c1.566-4.386,2.506-12.532,2.506-24.124V333.246z"/>
	<polygon clip-path="url(#SVGID_2_)" fill="none" stroke="#231F20" stroke-width="1.998" points="0.909,2.83 0.909,489 
		0.909,491.002 2.91,491.002 1166.997,491.002 1168.998,491.002 1168.998,489 1168.998,2.83 1168.998,0.828 1166.997,0.828 
		2.91,0.828 0.909,0.828 	"/>
</g>
<rect x="4.911" y="4.832" fill="none" stroke="#231F20" stroke-width="1.998" width="1160.085" height="482.166"/>
<g>
	<defs>
		<rect id="SVGID_63_" x="-0.09" y="-0.17" width="1170.088" height="492.17"/>
	</defs>
	<clipPath id="SVGID_4_">
		<use xlink:href="#SVGID_63_"  overflow="visible"/>
	</clipPath>
	<path clip-path="url(#SVGID_4_)" fill="#FF1419" d="M1066.64,354.995l-13.406,10.299c10.898,16.349,22.397,28.937,34.495,37.765
		c-9.482-1.308-19.348-1.962-29.59-1.962H685.987v17.493h372.151c11.007,0,20.869-0.598,29.59-1.799
		c-12.098,8.829-23.597,21.417-34.495,37.765l13.406,10.299c7.626-12.641,15.204-23.157,22.724-31.552
		c7.521-8.391,16.021-16.021,25.503-22.887v-0.981c-9.374-6.757-17.847-14.358-25.421-22.806
		C1081.867,378.184,1074.266,367.639,1066.64,354.995"/>
</g>
</svg>
