<?xml version="1.0" encoding="utf-8"?>
<!-- Generator: Adobe Illustrator 16.0.0, SVG Export Plug-In . SVG Version: 6.00 Build 0)  -->
<!DOCTYPE svg PUBLIC "-//W3C//DTD SVG 1.1//EN" "http://www.w3.org/Graphics/SVG/1.1/DTD/svg11.dtd">
<svg version="1.1" id="Layer_1" xmlns="http://www.w3.org/2000/svg" xmlns:xlink="http://www.w3.org/1999/xlink" x="0px" y="0px"
	 width="1170.09px" height="505.192px" viewBox="0 0 1170.09 505.192" enable-background="new 0 0 1170.09 505.192"
	 xml:space="preserve">
<g>
	<defs>
		<rect id="SVGID_97_" x="0.002" width="1170.087" height="505.192"/>
	</defs>
	<clipPath id="SVGID_2_">
		<use xlink:href="#SVGID_97_"  overflow="visible"/>
	</clipPath>
	<path clip-path="url(#SVGID_2_)" fill="#0046F9" d="M1066.889,122.172c2.571,1.269,5.143,2.376,7.716,3.32
		c2.571,0.943,5.183,1.726,7.836,2.344c2.653,0.618,5.372,1.081,8.155,1.391c2.784,0.31,5.671,0.464,8.667,0.464
		c6.25,0,11.743-0.609,16.48-1.831c4.735-1.221,8.698-2.93,11.889-5.127c3.19-2.196,5.591-4.81,7.203-7.837
		c1.612-3.026,2.417-6.331,2.417-9.911c0-5.273-1.677-9.767-5.031-13.478c-3.352-3.71-8.203-6.623-14.549-8.74l-5.86-1.952
		c-2.019-0.685-3.704-1.344-5.054-1.978c-1.351-0.636-2.442-1.271-3.27-1.905c-0.831-0.635-1.416-1.285-1.759-1.953
		c-0.342-0.666-0.513-1.359-0.513-2.074c0-0.813,0.203-1.637,0.611-2.467c0.405-0.83,1.008-1.578,1.805-2.246
		c0.798-0.666,1.783-1.203,2.956-1.611c1.17-0.406,2.539-0.61,4.1-0.61c0.911,0,1.92,0.082,3.028,0.244
		c1.107,0.164,2.239,0.407,3.394,0.733c1.155,0.326,2.311,0.731,3.467,1.221c1.154,0.488,2.252,1.058,3.296,1.709l5.272-9.521
		c-1.433-0.652-3.093-1.311-4.98-1.978c-1.889-0.667-3.963-1.263-6.226-1.783s-4.68-0.942-7.251-1.269
		c-2.571-0.325-5.257-0.488-8.056-0.488c-5.664,0-10.604,0.684-14.819,2.05c-4.216,1.367-7.708,3.199-10.475,5.493
		c-2.767,2.295-4.833,4.949-6.201,7.959c-1.367,3.012-2.049,6.145-2.049,9.4c0,5.045,1.578,9.398,4.735,13.061
		c3.157,3.663,7.862,6.568,14.111,8.716l8.74,2.979c1.693,0.586,3.069,1.18,4.126,1.781c1.058,0.604,1.888,1.205,2.491,1.808
		c0.601,0.602,1.008,1.213,1.221,1.831c0.211,0.618,0.317,1.22,0.317,1.806c0,1.856-0.872,3.321-2.613,4.396
		c-1.742,1.073-4.484,1.61-8.228,1.61c-3.255,0-6.77-0.438-10.547-1.317c-3.776-0.879-7.389-2.197-10.84-3.955L1066.889,122.172z
		 M989.795,128.567h61.329v-11.182h-33.107V97.953h25.293V86.771h-25.293l0.049-19.58h33.058V56.009h-61.329V128.567z
		 M890.729,128.567h10.742V90.043l46.094,38.524h17.677V56.009h-10.743l-0.049,38.672l-46.044-38.672h-17.677V128.567z
		 M823.523,118.558c-1.514-0.683-2.776-2.018-3.783-4.004c-1.011-1.985-1.776-4.768-2.295-8.349
		c-0.521-3.581-0.781-8.268-0.781-14.063c0-5.729,0.26-10.366,0.781-13.916c0.52-3.547,1.285-6.299,2.295-8.252
		c1.007-1.952,2.27-3.271,3.783-3.955c1.515-0.683,3.247-1.024,5.2-1.024c1.954,0,3.678,0.342,5.176,1.024
		c1.497,0.685,2.75,2.003,3.761,3.955c1.008,1.953,1.773,4.705,2.295,8.252c0.52,3.55,0.781,8.187,0.781,13.916
		c0,5.796-0.261,10.482-0.781,14.063c-0.522,3.581-1.287,6.363-2.295,8.349c-1.011,1.986-2.264,3.321-3.761,4.004
		c-1.498,0.685-3.223,1.026-5.176,1.026C826.77,119.584,825.038,119.242,823.523,118.558 M789.662,107.425
		c1.758,4.623,4.377,8.578,7.86,11.866c3.484,3.288,7.83,5.843,13.038,7.666c5.208,1.821,11.263,2.733,18.164,2.733
		c6.902,0,12.957-0.912,18.165-2.733c5.208-1.823,9.554-4.378,13.037-7.666c3.484-3.288,6.104-7.243,7.863-11.866
		c1.758-4.621,2.635-9.716,2.635-15.283c0-5.501-0.877-10.538-2.635-15.112c-1.758-4.572-4.379-8.504-7.863-11.791
		c-3.483-3.289-7.829-5.844-13.037-7.666c-5.208-1.823-11.263-2.734-18.165-2.734c-6.9,0-12.956,0.911-18.164,2.734
		c-5.208,1.822-9.554,4.377-13.038,7.666c-3.483,3.287-6.102,7.219-7.86,11.791c-1.758,4.574-2.638,9.611-2.638,15.112
		C787.023,97.709,787.903,102.804,789.662,107.425 M738.446,128.567h28.223l0.048-72.559h-28.271V128.567z M653.515,106.864
		c2.002,4.541,4.875,8.513,8.619,11.913c3.743,3.402,8.293,6.088,13.648,8.058c5.354,1.969,11.367,2.954,18.042,2.954
		c2.863,0,5.598-0.181,8.202-0.537c2.604-0.359,5.046-0.855,7.324-1.49c2.278-0.634,4.396-1.358,6.348-2.173
		c1.953-0.813,3.727-1.692,5.322-2.636l-4.198-8.203c-1.953,0.943-4.103,1.701-6.445,2.27c-2.344,0.57-4.689,0.855-7.032,0.855
		c-3.321,0-6.405-0.611-9.253-1.831c-2.848-1.221-5.306-2.946-7.373-5.176c-2.067-2.23-3.686-4.915-4.858-8.058
		c-1.172-3.141-1.758-6.648-1.758-10.521c0-3.907,0.594-7.43,1.782-10.572c1.188-3.141,2.824-5.818,4.908-8.032
		c2.082-2.213,4.556-3.922,7.421-5.127c2.865-1.204,5.974-1.806,9.327-1.806c2.505,0,4.923,0.301,7.25,0.902
		c2.328,0.604,4.402,1.344,6.225,2.223l4.199-8.204c-1.595-0.91-3.377-1.782-5.346-2.612c-1.971-0.83-4.11-1.562-6.421-2.197
		c-2.312-0.635-4.778-1.131-7.398-1.488c-2.62-0.358-5.363-0.537-8.226-0.537c-4.46,0-8.627,0.447-12.5,1.342
		c-3.874,0.896-7.414,2.157-10.62,3.784c-3.207,1.629-6.063,3.582-8.57,5.86s-4.622,4.802-6.347,7.567
		c-1.727,2.767-3.036,5.755-3.932,8.96c-0.896,3.207-1.343,6.536-1.343,9.986C650.512,97.48,651.513,102.322,653.515,106.864
		 M601.934,128.567h28.223l0.049-72.559h-28.272V128.567z M531.042,66.654c3.189,0,6.079,0.463,8.667,1.392
		c2.586,0.927,4.792,2.409,6.616,4.442c1.822,2.035,3.222,4.647,4.199,7.838c0.977,3.189,1.465,7.048,1.465,11.572
		c0,4.557-0.481,8.471-1.441,11.742c-0.96,3.272-2.343,5.966-4.149,8.081c-1.807,2.117-4.012,3.679-6.616,4.688
		c-2.605,1.009-5.535,1.513-8.789,1.513L531.042,66.654z M502.771,128.567h29.834c8.399,0,15.674-0.943,21.826-2.832
		c6.153-1.888,11.247-4.483,15.283-7.787c4.036-3.305,7.032-7.179,8.985-11.621c1.953-4.444,2.929-9.236,2.929-14.38
		c0-5.763-0.976-10.873-2.929-15.332c-1.953-4.461-4.949-8.219-8.985-11.279c-4.036-3.061-9.13-5.379-15.283-6.958
		c-6.152-1.579-13.427-2.369-21.826-2.369h-29.834V128.567z M420.94,128.567h61.328v-11.182h-33.105V97.953h25.293V86.771h-25.293
		l0.048-19.58h33.057V56.009H420.94V128.567z"/>
	<path clip-path="url(#SVGID_2_)" fill="#231F20" d="M1081.063,316.226c1.055,2.369,2.444,4.428,4.17,6.178
		c1.724,1.751,3.784,3.153,6.178,4.209c2.395,1.056,4.955,1.584,7.685,1.584c2.626,0,5.148-0.528,7.569-1.584
		c2.419-1.056,4.504-2.458,6.255-4.209c1.751-1.75,3.154-3.809,4.21-6.178c1.054-2.368,1.583-4.917,1.583-7.646
		c0-2.626-0.529-5.147-1.583-7.568c-1.056-2.419-2.459-4.505-4.21-6.256c-1.75-1.749-3.836-3.153-6.255-4.209
		c-2.42-1.056-4.943-1.583-7.569-1.583c-2.73,0-5.29,0.527-7.685,1.583c-2.395,1.056-4.454,2.46-6.178,4.209
		c-1.726,1.751-3.115,3.837-4.17,6.256c-1.057,2.421-1.584,4.942-1.584,7.568C1079.479,311.309,1080.006,313.857,1081.063,316.226
		 M1009.125,232.66c2.213,0.413,4.131,1.146,5.754,2.201c1.621,1.057,2.934,2.485,3.939,4.286c1.003,1.803,1.505,4.017,1.505,6.642
		c0,3.399-1.264,6.36-3.785,8.883c-2.524,2.522-6.333,3.783-11.43,3.783h-5.484v16.761h5.484c2.11,0,4.22,0.258,6.333,0.771
		c2.111,0.516,3.989,1.326,5.638,2.434c1.646,1.107,2.973,2.562,3.977,4.362c1.004,1.804,1.507,3.966,1.507,6.488
		c0,5.097-1.688,9.011-5.059,11.739c-3.373,2.729-8.664,4.093-15.871,4.093c-8.754,0-15.705-1.57-20.853-4.711
		c3.14-0.978,6.011-2.626,8.61-4.943c2.601-2.316,3.901-5.638,3.901-9.962c0-1.596-0.323-3.256-0.965-4.981
		c-0.645-1.725-1.673-3.309-3.089-4.75c-1.417-1.441-3.31-2.626-5.678-3.553c-2.369-0.927-5.303-1.391-8.804-1.391
		c-2.729,0-5.329,0.464-7.801,1.391c-2.47,0.927-4.633,2.317-6.487,4.17c-1.854,1.854-3.309,4.159-4.364,6.912
		c-1.056,2.755-1.583,5.858-1.583,9.308c0,4.325,0.978,8.599,2.935,12.819c1.956,4.224,5.123,7.994,9.499,11.315
		s10.066,6.037,17.07,8.148c7.001,2.109,15.522,3.165,25.562,3.165c10.554,0,19.462-1.004,26.722-3.012
		c7.26-2.008,13.13-4.568,17.609-7.684c4.48-3.115,7.697-6.59,9.654-10.427c1.957-3.836,2.935-7.607,2.935-11.314
		c0-8.65-2.664-15.265-7.993-19.849c-5.329-4.582-12.318-7.388-20.969-8.418v-0.851c8.651-1.439,15.111-4.35,19.385-8.727
		c4.274-4.375,6.411-10.168,6.411-17.377c0-5.767-1.533-10.631-4.595-14.598c-3.065-3.964-7.093-7.155-12.087-9.575
		c-4.995-2.421-10.709-4.133-17.146-5.137c-6.436-1.004-12.974-1.506-19.616-1.506c-8.033,0-15.267,0.76-21.702,2.278
		c-6.438,1.519-11.92,3.707-16.451,6.564c-4.531,2.857-8.007,6.27-10.425,10.233c-2.422,3.965-3.632,8.368-3.632,13.207
		c0,3.45,0.553,6.448,1.661,8.997c1.107,2.549,2.613,4.686,4.518,6.41c1.904,1.726,4.094,3.012,6.564,3.861
		c2.473,0.85,5.072,1.274,7.801,1.274c5.715,0,10.052-1.235,13.015-3.707c2.959-2.471,4.439-5.766,4.439-9.886
		c0-2.213-0.373-4.055-1.119-5.522c-0.747-1.467-1.675-2.626-2.781-3.475c-1.107-0.851-2.317-1.493-3.629-1.932
		c-1.313-0.437-2.509-0.706-3.591-0.811c1.286-1.029,3.217-2.124,5.792-3.282c2.573-1.159,6.513-1.737,11.816-1.737
		C1004.593,232.043,1006.911,232.249,1009.125,232.66"/>
	<path clip-path="url(#SVGID_2_)" fill="#231F20" d="M743.869,448.381c-1.211,0.87-1.815,2.085-1.815,3.646
		c0,1.04,0.28,1.875,0.84,2.505c0.56,0.63,1.32,1.195,2.28,1.695c0.379,0.199,0.904,0.42,1.575,0.659
		c0.67,0.24,1.143,0.455,1.425,0.646c0.28,0.189,0.42,0.455,0.42,0.795c0,0.74-0.551,1.11-1.649,1.11
		c-0.5,0-1.092-0.165-1.771-0.495c-0.68-0.33-1.152-0.59-1.411-0.78c-0.259-0.19-0.469-0.355-0.629-0.495l-2.161,3.63l0.661,0.54
		c0.439,0.34,1.155,0.68,2.145,1.021c0.99,0.34,2.035,0.51,3.135,0.51c4.86,0,7.291-1.75,7.291-5.25c0-0.74-0.141-1.4-0.42-1.98
		c-0.281-0.58-0.676-1.06-1.185-1.439c-0.51-0.38-0.995-0.681-1.455-0.9c-0.461-0.22-1.001-0.42-1.62-0.6
		c-0.101-0.021-0.245-0.061-0.435-0.12c-0.191-0.061-0.326-0.105-0.405-0.135c-0.08-0.03-0.2-0.075-0.359-0.136
		c-0.161-0.06-0.276-0.104-0.346-0.135c-0.07-0.03-0.165-0.075-0.284-0.135c-0.121-0.06-0.207-0.115-0.257-0.165
		c-0.049-0.05-0.104-0.11-0.165-0.18c-0.06-0.07-0.101-0.146-0.12-0.226c-0.02-0.08-0.03-0.16-0.03-0.239
		c0-0.36,0.124-0.605,0.375-0.735c0.25-0.13,0.675-0.195,1.274-0.195c1.08,0,2.221,0.32,3.421,0.96l1.738-3.479l-0.629-0.3
		c-0.42-0.2-1.061-0.4-1.92-0.601c-0.86-0.2-1.73-0.3-2.61-0.3C746.713,447.076,745.079,447.511,743.869,448.381 M729.213,451.216
		c0.52-0.46,1.219-0.689,2.1-0.689c0.799,0,1.455,0.215,1.965,0.645c0.51,0.431,0.825,1.045,0.944,1.845h-5.85
		C728.413,452.276,728.691,451.676,729.213,451.216 M739.413,455.236c0-2.62-0.766-4.635-2.294-6.045
		c-1.531-1.41-3.516-2.115-5.956-2.115c-2.321,0-4.31,0.8-5.969,2.4c-1.662,1.6-2.491,3.52-2.491,5.76s0.829,4.154,2.491,5.745
		c1.659,1.59,3.648,2.385,5.969,2.385c3.72,0,6.379-1.34,7.98-4.021l-3.84-1.92c-0.641,0.681-1.211,1.136-1.71,1.365
		c-0.5,0.23-1.181,0.345-2.04,0.345c-0.822,0-1.581-0.26-2.28-0.779c-0.701-0.521-1.05-1.32-1.05-2.4h11.161
		C739.403,455.836,739.413,455.596,739.413,455.236 M708.994,462.916v-8.7c0-0.76,0.326-1.45,0.975-2.069
		c0.65-0.62,1.375-0.931,2.175-0.931c0.82,0,1.485,0.3,1.995,0.9c0.509,0.6,0.765,1.3,0.765,2.1v8.7h5.31v-10.14
		c0-1.021-0.215-1.915-0.644-2.686c-0.431-0.77-0.991-1.364-1.681-1.785c-0.69-0.42-1.41-0.729-2.16-0.93s-1.505-0.3-2.265-0.3
		c-1.56,0-3.031,0.689-4.41,2.07h-0.06v-1.62h-5.311v15.39H708.994z M691.744,451.606c1,0,1.844,0.34,2.535,1.02
		c0.69,0.68,1.035,1.55,1.035,2.61c0,1.04-0.335,1.899-1.005,2.58c-0.67,0.68-1.525,1.02-2.564,1.02c-1.081,0-1.95-0.335-2.61-1.005
		c-0.661-0.67-0.99-1.535-0.99-2.595c0-1.061,0.345-1.931,1.035-2.61C689.869,451.946,690.723,451.606,691.744,451.606
		 M691.773,463.366c2.66,0,4.855-0.765,6.584-2.295c1.73-1.53,2.596-3.476,2.596-5.835c0-2.36-0.884-4.311-2.656-5.851
		c-1.77-1.54-3.945-2.31-6.525-2.31c-2.62,0-4.819,0.765-6.6,2.295s-2.67,3.485-2.67,5.865s0.854,4.33,2.566,5.85
		C686.778,462.606,689.013,463.366,691.773,463.366 M679.563,462.916h-5.31v-15.39h5.31V462.916z M673.833,441.166
		c0,0.86,0.31,1.6,0.93,2.22c0.621,0.62,1.36,0.931,2.22,0.931c0.86,0,1.6-0.311,2.221-0.931c0.62-0.62,0.93-1.359,0.93-2.22
		s-0.31-1.6-0.93-2.22c-0.621-0.62-1.36-0.931-2.221-0.931c-0.86,0-1.6,0.311-2.22,0.931
		C674.143,439.566,673.833,440.306,673.833,441.166 M670.053,452.146l1.8-3.631l-0.51-0.359c-0.36-0.24-0.97-0.48-1.831-0.72
		c-0.859-0.24-1.799-0.36-2.818-0.36c-2.262,0-4.246,0.805-5.956,2.415s-2.565,3.535-2.565,5.774c0,2.221,0.855,4.125,2.565,5.716
		c1.71,1.59,3.694,2.385,5.956,2.385c1.019,0,1.974-0.13,2.864-0.39c0.89-0.261,1.46-0.466,1.71-0.615
		c0.25-0.15,0.445-0.275,0.585-0.375l-1.8-3.69l-0.27,0.181c-0.2,0.119-0.515,0.239-0.945,0.359c-0.43,0.12-0.884,0.18-1.365,0.18
		c-1,0-1.859-0.369-2.58-1.109c-0.72-0.74-1.08-1.641-1.08-2.7c0-1.04,0.36-1.93,1.08-2.67c0.721-0.74,1.58-1.11,2.58-1.11
		C668.533,451.426,669.393,451.666,670.053,452.146 M647.253,458.836c-1,0-1.845-0.34-2.535-1.02
		c-0.69-0.681-1.034-1.551-1.034-2.61c0-1.04,0.334-1.9,1.005-2.58c0.668-0.68,1.524-1.02,2.564-1.02c1.08,0,1.95,0.335,2.611,1.005
		c0.659,0.67,0.989,1.535,0.989,2.595s-0.345,1.93-1.034,2.61C649.128,458.496,648.273,458.836,647.253,458.836 M648.843,447.076
		c-2.039,0-3.72,0.729-5.039,2.189h-0.06v-1.739h-5.25v23.189h5.31v-9.27c1.319,1.28,3,1.92,5.039,1.92c2.22,0,4.05-0.79,5.49-2.37
		s2.162-3.51,2.162-5.79s-0.722-4.205-2.162-5.775C652.893,447.861,651.063,447.076,648.843,447.076 M634.444,462.916h-5.31v-15.39
		h5.31V462.916z M628.714,441.166c0,0.86,0.311,1.6,0.931,2.22c0.62,0.62,1.36,0.931,2.22,0.931s1.6-0.311,2.22-0.931
		c0.62-0.62,0.93-1.359,0.93-2.22s-0.31-1.6-0.93-2.22c-0.621-0.62-1.36-0.931-2.22-0.931s-1.6,0.311-2.22,0.931
		C629.024,439.566,628.714,440.306,628.714,441.166 M619.205,462.916v-8.1c0-0.16,0.04-0.38,0.12-0.66s0.215-0.62,0.405-1.021
		c0.19-0.399,0.515-0.739,0.975-1.02c0.46-0.28,1.009-0.42,1.65-0.42c1.18,0,2.1,0.28,2.76,0.84l2.22-4.5l-0.42-0.24
		c-0.26-0.16-0.67-0.319-1.23-0.479c-0.56-0.16-1.13-0.24-1.71-0.24c-0.56,0-1.11,0.095-1.65,0.285
		c-0.54,0.189-0.98,0.404-1.32,0.645s-0.66,0.51-0.96,0.811c-0.3,0.3-0.495,0.51-0.585,0.63c-0.09,0.12-0.155,0.22-0.195,0.3h-0.06
		v-2.22h-5.31v15.39H619.205z M609.694,452.146l1.8-3.631l-0.51-0.359c-0.36-0.24-0.97-0.48-1.83-0.72
		c-0.86-0.24-1.8-0.36-2.82-0.36c-2.26,0-4.245,0.805-5.955,2.415s-2.565,3.535-2.565,5.774c0,2.221,0.855,4.125,2.565,5.716
		c1.71,1.59,3.695,2.385,5.955,2.385c1.02,0,1.975-0.13,2.865-0.39c0.89-0.261,1.46-0.466,1.71-0.615
		c0.25-0.15,0.445-0.275,0.585-0.375l-1.8-3.69l-0.271,0.181c-0.2,0.119-0.515,0.239-0.944,0.359c-0.43,0.12-0.885,0.18-1.365,0.18
		c-1,0-1.86-0.369-2.58-1.109c-0.72-0.74-1.08-1.641-1.08-2.7c0-1.04,0.36-1.93,1.08-2.67c0.72-0.74,1.58-1.11,2.58-1.11
		C608.174,451.426,609.034,451.666,609.694,452.146 M585.65,448.381c-1.211,0.87-1.815,2.085-1.815,3.646
		c0,1.04,0.28,1.875,0.839,2.505s1.32,1.195,2.28,1.695c0.379,0.199,0.904,0.42,1.575,0.659c0.67,0.24,1.144,0.455,1.425,0.646
		c0.28,0.189,0.42,0.455,0.42,0.795c0,0.74-0.551,1.11-1.651,1.11c-0.5,0-1.09-0.165-1.77-0.495c-0.68-0.33-1.151-0.59-1.41-0.78
		c-0.26-0.19-0.47-0.355-0.63-0.495l-2.16,3.63l0.66,0.54c0.439,0.34,1.155,0.68,2.145,1.021c0.99,0.34,2.035,0.51,3.135,0.51
		c4.859,0,7.29-1.75,7.29-5.25c0-0.74-0.14-1.4-0.42-1.98c-0.281-0.58-0.675-1.06-1.186-1.439c-0.51-0.38-0.995-0.681-1.455-0.9
		c-0.461-0.22-1.001-0.42-1.62-0.6c-0.1-0.021-0.245-0.061-0.435-0.12c-0.191-0.061-0.326-0.105-0.405-0.135
		c-0.08-0.03-0.201-0.075-0.36-0.136c-0.161-0.06-0.275-0.104-0.345-0.135c-0.071-0.03-0.165-0.075-0.286-0.135
		c-0.119-0.06-0.205-0.115-0.254-0.165c-0.05-0.05-0.105-0.11-0.166-0.18c-0.06-0.07-0.1-0.146-0.12-0.226
		c-0.02-0.08-0.03-0.16-0.03-0.239c0-0.36,0.124-0.605,0.375-0.735c0.25-0.13,0.675-0.195,1.274-0.195c1.081,0,2.221,0.32,3.42,0.96
		l1.741-3.479l-0.63-0.3c-0.42-0.2-1.061-0.4-1.92-0.601c-0.86-0.2-1.73-0.3-2.61-0.3
		C588.495,447.076,586.86,447.511,585.65,448.381 M569.195,462.916v-8.7c0-0.76,0.324-1.45,0.975-2.069
		c0.649-0.62,1.374-0.931,2.175-0.931c0.819,0,1.485,0.3,1.995,0.9c0.51,0.6,0.766,1.3,0.766,2.1v8.7h5.31v-10.14
		c0-1.021-0.216-1.915-0.645-2.686c-0.431-0.77-0.99-1.364-1.681-1.785c-0.689-0.42-1.411-0.729-2.161-0.93s-1.505-0.3-2.264-0.3
		c-1.56,0-3.03,0.689-4.411,2.07h-0.059v-1.62h-5.31v15.39H569.195z M551.225,451.606c1,0,1.846,0.34,2.536,1.02
		s1.035,1.55,1.035,2.61c0,1.04-0.336,1.899-1.005,2.58c-0.671,0.68-1.526,1.02-2.566,1.02c-1.079,0-1.949-0.335-2.609-1.005
		s-0.99-1.535-0.99-2.595c0-1.061,0.345-1.931,1.035-2.61S550.205,451.606,551.225,451.606 M549.635,463.366
		c2.04,0,3.72-0.73,5.04-2.19h0.061v1.74h5.25v-15.39h-5.311v1.47c-1.319-1.28-3-1.92-5.04-1.92c-2.22,0-4.05,0.79-5.49,2.37
		c-1.44,1.58-2.16,3.51-2.16,5.79c0,2.279,0.72,4.205,2.16,5.774C545.585,462.581,547.415,463.366,549.635,463.366 M533.405,462.916
		v-8.1c0-0.16,0.04-0.38,0.12-0.66s0.215-0.62,0.405-1.021c0.19-0.399,0.515-0.739,0.975-1.02s1.01-0.42,1.649-0.42
		c1.181,0,2.101,0.28,2.761,0.84l2.22-4.5l-0.42-0.24c-0.26-0.16-0.67-0.319-1.23-0.479s-1.13-0.24-1.71-0.24
		c-0.56,0-1.109,0.095-1.649,0.285c-0.54,0.189-0.98,0.404-1.32,0.645c-0.34,0.24-0.66,0.51-0.96,0.811
		c-0.3,0.3-0.495,0.51-0.585,0.63c-0.09,0.12-0.155,0.22-0.195,0.3h-0.06v-2.22h-5.31v15.39H533.405z M514.625,447.526v4.05h2.22
		v5.91c0,0.74,0.08,1.435,0.24,2.085c0.16,0.649,0.425,1.27,0.794,1.859c0.371,0.591,0.916,1.061,1.635,1.41
		c0.721,0.351,1.581,0.525,2.581,0.525c1.459,0,2.76-0.32,3.9-0.96l-1.32-4.29l-0.18,0.12c-0.12,0.08-0.29,0.16-0.51,0.24
		c-0.221,0.079-0.431,0.119-0.63,0.119c-0.801,0-1.2-0.71-1.2-2.13v-4.89h3.24v-4.05h-3.24v-5.73h-5.31v5.73H514.625z
		 M494.181,448.381c-1.21,0.87-1.814,2.085-1.814,3.646c0,1.04,0.279,1.875,0.84,2.505c0.558,0.63,1.32,1.195,2.28,1.695
		c0.379,0.199,0.904,0.42,1.575,0.659c0.67,0.24,1.144,0.455,1.425,0.646c0.278,0.189,0.42,0.455,0.42,0.795
		c0,0.74-0.551,1.11-1.65,1.11c-0.5,0-1.091-0.165-1.77-0.495c-0.682-0.33-1.151-0.59-1.41-0.78c-0.26-0.19-0.47-0.355-0.63-0.495
		l-2.16,3.63l0.66,0.54c0.439,0.34,1.155,0.68,2.145,1.021c0.99,0.34,2.035,0.51,3.135,0.51c4.86,0,7.29-1.75,7.29-5.25
		c0-0.74-0.14-1.4-0.42-1.98c-0.281-0.58-0.675-1.06-1.185-1.439c-0.51-0.38-0.995-0.681-1.455-0.9c-0.461-0.22-1.001-0.42-1.62-0.6
		c-0.101-0.021-0.247-0.061-0.435-0.12c-0.191-0.061-0.326-0.105-0.405-0.135c-0.08-0.03-0.201-0.075-0.36-0.136
		c-0.162-0.06-0.275-0.104-0.345-0.135c-0.071-0.03-0.165-0.075-0.285-0.135c-0.12-0.06-0.206-0.115-0.254-0.165
		c-0.051-0.05-0.105-0.11-0.165-0.18c-0.06-0.07-0.101-0.146-0.121-0.226s-0.029-0.16-0.029-0.239c0-0.36,0.124-0.605,0.375-0.735
		c0.249-0.13,0.675-0.195,1.275-0.195c1.08,0,2.22,0.32,3.419,0.96l1.741-3.479l-0.63-0.3c-0.42-0.2-1.062-0.4-1.92-0.601
		c-0.861-0.2-1.731-0.3-2.61-0.3C497.025,447.076,495.39,447.511,494.181,448.381 M479.856,451.606c0.999,0,1.845,0.34,2.534,1.02
		c0.69,0.68,1.036,1.55,1.036,2.61c0,1.04-0.336,1.899-1.005,2.58c-0.671,0.68-1.526,1.02-2.565,1.02c-1.08,0-1.95-0.335-2.61-1.005
		c-0.66-0.67-0.991-1.535-0.991-2.595c0-1.061,0.346-1.931,1.035-2.61C477.981,451.946,478.836,451.606,479.856,451.606
		 M478.266,463.366c2.04,0,3.72-0.73,5.04-2.19h0.06v1.74h5.25v-15.39h-5.31v1.47c-1.32-1.28-3-1.92-5.04-1.92
		c-2.22,0-4.05,0.79-5.49,2.37c-1.44,1.58-2.16,3.51-2.16,5.79c0,2.279,0.72,4.205,2.16,5.774
		C474.216,462.581,476.046,463.366,478.266,463.366 M467.826,437.116h-5.31v25.8h5.31V437.116z M441.036,451.216
		c0.52-0.46,1.22-0.689,2.1-0.689c0.8,0,1.455,0.215,1.965,0.645c0.51,0.431,0.825,1.045,0.944,1.845h-5.85
		C440.236,452.276,440.516,451.676,441.036,451.216 M451.236,455.236c0-2.62-0.766-4.635-2.295-6.045
		c-1.53-1.41-3.515-2.115-5.955-2.115c-2.32,0-4.31,0.8-5.97,2.4c-1.66,1.6-2.49,3.52-2.49,5.76s0.83,4.154,2.49,5.745
		c1.66,1.59,3.65,2.385,5.97,2.385c3.72,0,6.38-1.34,7.979-4.021l-3.839-1.92c-0.64,0.681-1.21,1.136-1.71,1.365
		c-0.5,0.23-1.18,0.345-2.04,0.345c-0.82,0-1.581-0.26-2.28-0.779c-0.7-0.521-1.05-1.32-1.05-2.4h11.161
		C451.227,455.836,451.236,455.596,451.236,455.236 M422.977,451.606c1,0,1.845,0.34,2.535,1.02s1.035,1.55,1.035,2.61
		c0,1.04-0.334,1.899-1.005,2.58c-0.67,0.68-1.525,1.02-2.564,1.02c-1.08,0-1.95-0.335-2.61-1.005c-0.66-0.67-0.99-1.535-0.99-2.595
		c0-1.061,0.344-1.931,1.035-2.61S421.957,451.606,422.977,451.606 M421.386,463.366c2.04,0,3.72-0.73,5.04-2.19h0.06v1.74h5.25
		v-25.8h-5.31v11.88c-1.32-1.28-3-1.92-5.04-1.92c-2.22,0-4.05,0.79-5.49,2.37s-2.16,3.51-2.16,5.79c0,2.279,0.72,4.205,2.16,5.774
		C417.336,462.581,419.167,463.366,421.386,463.366"/>
	<path clip-path="url(#SVGID_2_)" fill="#231F20" d="M1120.198,415.912v-8.7c0-0.76,0.325-1.449,0.976-2.069
		c0.649-0.62,1.375-0.931,2.175-0.931c0.82,0,1.485,0.301,1.995,0.9c0.51,0.6,0.764,1.3,0.764,2.1v8.7h5.311v-10.14
		c0-1.021-0.215-1.915-0.646-2.686c-0.43-0.77-0.99-1.364-1.68-1.784c-0.689-0.42-1.41-0.73-2.16-0.931
		c-0.75-0.199-1.504-0.3-2.265-0.3c-1.561,0-3.03,0.69-4.41,2.07h-0.06v-1.62h-5.31v15.39H1120.198z M1102.948,411.832
		c1.041,0,1.896-0.34,2.565-1.02c0.67-0.68,1.005-1.54,1.005-2.58c0-1.06-0.344-1.93-1.033-2.61c-0.691-0.68-1.537-1.02-2.537-1.02
		c-1.02,0-1.875,0.34-2.564,1.02c-0.69,0.681-1.035,1.551-1.035,2.61s0.33,1.925,0.989,2.595
		C1100.999,411.497,1101.869,411.832,1102.948,411.832 M1102.978,400.072c2.581,0,4.757,0.771,6.526,2.311
		c1.77,1.54,2.655,3.489,2.655,5.85s-0.865,4.305-2.595,5.835c-1.73,1.53-3.925,2.295-6.585,2.295c-2.759,0-4.993-0.76-6.705-2.28
		c-1.71-1.52-2.564-3.47-2.564-5.85s0.89-4.335,2.67-5.865C1098.158,400.837,1100.357,400.072,1102.978,400.072 M1101.658,398.303
		l7.14-4.141l-2.729-3.45l-6.091,5.28L1101.658,398.303z M1090.769,415.912h-5.31v-15.39h5.31V415.912z M1085.039,394.162
		c0,0.86,0.31,1.601,0.93,2.221c0.619,0.619,1.36,0.93,2.22,0.93c0.859,0,1.6-0.311,2.221-0.93c0.619-0.62,0.93-1.36,0.93-2.221
		c0-0.859-0.311-1.6-0.93-2.22c-0.621-0.62-1.362-0.93-2.221-0.93c-0.86,0-1.601,0.31-2.22,0.93
		C1085.349,392.562,1085.039,393.303,1085.039,394.162 M1081.259,405.143l1.799-3.63l-0.509-0.36c-0.36-0.24-0.97-0.479-1.83-0.72
		c-0.86-0.24-1.8-0.36-2.82-0.36c-2.26,0-4.245,0.805-5.955,2.415c-1.71,1.61-2.565,3.535-2.565,5.775
		c0,2.22,0.854,4.125,2.565,5.715c1.71,1.59,3.694,2.385,5.955,2.385c1.021,0,1.976-0.13,2.865-0.39
		c0.89-0.261,1.46-0.465,1.71-0.615s0.445-0.275,0.584-0.375l-1.799-3.69l-0.271,0.181c-0.199,0.12-0.514,0.239-0.944,0.359
		s-0.885,0.181-1.364,0.181c-1,0-1.86-0.37-2.581-1.11c-0.719-0.74-1.08-1.64-1.08-2.7c0-1.04,0.36-1.93,1.08-2.67
		c0.721-0.74,1.581-1.109,2.581-1.109C1079.738,404.423,1080.599,404.662,1081.259,405.143 M1057.829,404.603
		c1,0,1.845,0.34,2.535,1.02c0.69,0.681,1.035,1.551,1.035,2.61c0,1.04-0.335,1.9-1.005,2.58c-0.669,0.68-1.523,1.02-2.564,1.02
		c-1.08,0-1.95-0.335-2.61-1.005c-0.661-0.67-0.99-1.535-0.99-2.595s0.345-1.93,1.035-2.61
		C1055.955,404.942,1056.809,404.603,1057.829,404.603 M1056.238,416.362c2.042,0,3.721-0.729,5.042-2.189h0.06v1.739h5.25v-15.39
		h-5.31v1.47c-1.32-1.28-3-1.92-5.042-1.92c-2.219,0-4.049,0.79-5.489,2.37c-1.44,1.58-2.16,3.51-2.16,5.79s0.719,4.205,2.16,5.775
		C1052.189,415.577,1054.019,416.362,1056.238,416.362 M1040.009,415.912v-8.1c0-0.16,0.041-0.38,0.121-0.66s0.215-0.62,0.405-1.02
		c0.189-0.4,0.515-0.74,0.974-1.021c0.46-0.28,1.01-0.42,1.65-0.42c1.18,0,2.1,0.28,2.76,0.84l2.219-4.5l-0.419-0.24
		c-0.26-0.159-0.67-0.319-1.231-0.479c-0.56-0.16-1.129-0.24-1.708-0.24c-0.561,0-1.11,0.095-1.65,0.285s-0.98,0.405-1.321,0.645
		c-0.34,0.24-0.66,0.511-0.96,0.811c-0.299,0.3-0.495,0.51-0.584,0.63c-0.09,0.12-0.155,0.22-0.195,0.3h-0.061v-2.22h-5.309v15.39
		H1040.009z M1022.039,404.603c1,0,1.845,0.34,2.535,1.02c0.69,0.681,1.035,1.551,1.035,2.61c0,1.04-0.335,1.9-1.004,2.58
		c-0.671,0.68-1.525,1.02-2.565,1.02c-1.08,0-1.95-0.335-2.61-1.005c-0.66-0.67-0.99-1.535-0.99-2.595s0.346-1.93,1.035-2.61
		C1020.165,404.942,1021.019,404.603,1022.039,404.603 M1020.45,416.362c2.04,0,3.72-0.729,5.039-2.189h0.061v1.739h5.25v-15.39
		h-5.311v1.47c-1.319-1.28-2.999-1.92-5.039-1.92c-2.221,0-4.051,0.79-5.49,2.37c-1.44,1.58-2.16,3.51-2.16,5.79
		s0.72,4.205,2.16,5.775C1016.399,415.577,1018.229,416.362,1020.45,416.362 M1001.879,411.832c-1,0-1.845-0.34-2.535-1.02
		c-0.69-0.68-1.036-1.55-1.036-2.61c0-1.04,0.335-1.899,1.005-2.58c0.67-0.68,1.526-1.02,2.566-1.02c1.08,0,1.95,0.335,2.61,1.005
		c0.659,0.67,0.989,1.535,0.989,2.595c0,1.061-0.345,1.931-1.035,2.61C1003.755,411.492,1002.899,411.832,1001.879,411.832
		 M1003.469,400.072c-2.04,0-3.72,0.73-5.04,2.19h-0.059v-1.74h-5.251v23.189h5.31v-9.27c1.32,1.28,3,1.92,5.04,1.92
		c2.22,0,4.05-0.79,5.491-2.37c1.439-1.58,2.16-3.51,2.16-5.79c0-2.279-0.72-4.205-2.16-5.774
		C1007.519,400.857,1005.689,400.072,1003.469,400.072 M968.581,415.912v-9c0-0.7,0.205-1.305,0.616-1.814
		c0.408-0.511,1.023-0.766,1.844-0.766c0.899,0,1.575,0.275,2.024,0.825c0.45,0.55,0.675,1.235,0.675,2.055v8.7h5.31v-9.18
		c0.04-0.66,0.265-1.225,0.675-1.695c0.41-0.47,1.005-0.705,1.786-0.705c0.9,0,1.575,0.275,2.025,0.825
		c0.45,0.55,0.675,1.235,0.675,2.055v8.7h5.31v-10.14c0-1.96-0.59-3.4-1.77-4.32c-1.181-0.92-2.591-1.38-4.23-1.38
		c-1.841,0-3.541,0.94-5.101,2.82c-0.5-0.96-1.24-1.67-2.22-2.13c-0.981-0.46-2.03-0.69-3.15-0.69c-1.56,0-3.03,0.69-4.41,2.07
		h-0.06v-1.62h-5.311v15.39H968.581z M951.331,404.603c1,0,1.844,0.34,2.535,1.02c0.689,0.681,1.034,1.551,1.034,2.61
		c0,1.04-0.334,1.9-1.004,2.58c-0.671,0.68-1.524,1.02-2.564,1.02c-1.081,0-1.951-0.335-2.61-1.005
		c-0.66-0.67-0.991-1.535-0.991-2.595s0.346-1.93,1.035-2.61C949.455,404.942,950.31,404.603,951.331,404.603 M951.36,416.362
		c2.66,0,4.855-0.765,6.586-2.295c1.728-1.53,2.594-3.475,2.594-5.835s-0.885-4.31-2.655-5.85c-1.77-1.54-3.946-2.311-6.525-2.311
		c-2.62,0-4.819,0.765-6.6,2.295c-1.781,1.53-2.67,3.485-2.67,5.865s0.856,4.33,2.566,5.85
		C946.366,415.603,948.6,416.362,951.36,416.362 M938.939,405.143l1.801-3.63l-0.511-0.36c-0.359-0.24-0.969-0.479-1.83-0.72
		c-0.859-0.24-1.799-0.36-2.819-0.36c-2.259,0-4.245,0.805-5.956,2.415c-1.71,1.61-2.565,3.535-2.565,5.775
		c0,2.22,0.855,4.125,2.565,5.715c1.71,1.59,3.696,2.385,5.956,2.385c1.02,0,1.974-0.13,2.866-0.39
		c0.889-0.261,1.459-0.465,1.709-0.615s0.444-0.275,0.584-0.375l-1.801-3.69l-0.269,0.181c-0.2,0.12-0.515,0.239-0.946,0.359
		c-0.429,0.12-0.885,0.181-1.365,0.181c-1,0-1.86-0.37-2.58-1.11c-0.72-0.74-1.08-1.64-1.08-2.7c0-1.04,0.36-1.93,1.08-2.67
		c0.72-0.74,1.58-1.109,2.58-1.109C937.42,404.423,938.28,404.662,938.939,405.143 M908.399,408.412l-4.29-7.89h-6.12l7.29,12.99
		l-5.31,10.199h6.12l12.09-23.189h-6.12L908.399,408.412z M878.806,401.377c-1.211,0.87-1.814,2.085-1.814,3.646
		c0,1.04,0.278,1.875,0.839,2.505c0.559,0.63,1.32,1.195,2.281,1.695c0.378,0.2,0.902,0.42,1.574,0.66
		c0.669,0.239,1.145,0.454,1.426,0.645c0.278,0.19,0.419,0.455,0.419,0.795c0,0.74-0.552,1.11-1.65,1.11
		c-0.501,0-1.091-0.165-1.769-0.495c-0.682-0.33-1.152-0.59-1.411-0.78c-0.262-0.189-0.472-0.354-0.63-0.495l-2.16,3.63l0.66,0.54
		c0.438,0.341,1.154,0.681,2.144,1.021c0.991,0.34,2.034,0.51,3.135,0.51c4.86,0,7.29-1.75,7.29-5.25c0-0.74-0.141-1.4-0.42-1.979
		c-0.281-0.58-0.675-1.061-1.184-1.44c-0.511-0.38-0.996-0.68-1.456-0.9c-0.46-0.22-1-0.42-1.62-0.6
		c-0.102-0.02-0.246-0.06-0.436-0.12c-0.19-0.06-0.326-0.104-0.405-0.135c-0.081-0.03-0.201-0.075-0.36-0.135
		c-0.161-0.061-0.276-0.105-0.345-0.136c-0.071-0.029-0.165-0.074-0.285-0.135c-0.12-0.06-0.207-0.115-0.255-0.165
		c-0.051-0.05-0.105-0.109-0.165-0.18c-0.061-0.07-0.102-0.146-0.12-0.226c-0.02-0.079-0.03-0.159-0.03-0.239
		c0-0.36,0.124-0.605,0.375-0.735c0.249-0.13,0.676-0.195,1.275-0.195c1.08,0,2.219,0.32,3.42,0.96l1.74-3.479l-0.629-0.3
		c-0.42-0.2-1.062-0.4-1.92-0.601c-0.861-0.199-1.732-0.3-2.61-0.3C881.649,400.072,880.015,400.508,878.806,401.377
		 M864.151,404.212c0.52-0.46,1.22-0.689,2.101-0.689c0.798,0,1.455,0.215,1.964,0.645c0.51,0.431,0.825,1.045,0.946,1.846h-5.851
		C863.35,405.272,863.63,404.673,864.151,404.212 M874.351,408.232c0-2.62-0.765-4.635-2.295-6.045s-3.516-2.115-5.955-2.115
		c-2.321,0-4.311,0.8-5.97,2.4c-1.661,1.6-2.491,3.52-2.491,5.76s0.83,4.155,2.491,5.745c1.659,1.59,3.649,2.385,5.97,2.385
		c3.721,0,6.378-1.34,7.98-4.02l-3.839-1.92c-0.642,0.68-1.211,1.135-1.71,1.364c-0.501,0.23-1.182,0.346-2.04,0.346
		c-0.821,0-1.581-0.261-2.28-0.78c-0.701-0.521-1.05-1.32-1.05-2.4h11.16C874.34,408.832,874.351,408.593,874.351,408.232
		 M854.851,390.112h-5.31v25.8h5.31V390.112z M836.881,404.603c1,0,1.845,0.34,2.535,1.02c0.689,0.681,1.035,1.551,1.035,2.61
		c0,1.04-0.335,1.9-1.005,2.58c-0.671,0.68-1.526,1.02-2.565,1.02c-1.08,0-1.951-0.335-2.61-1.005
		c-0.659-0.67-0.989-1.535-0.989-2.595s0.345-1.93,1.034-2.61C835.006,404.942,835.862,404.603,836.881,404.603 M835.291,416.362
		c2.04,0,3.72-0.729,5.04-2.189h0.06v1.739h5.25v-15.39h-5.31v1.47c-1.32-1.28-3-1.92-5.04-1.92c-2.219,0-4.049,0.79-5.49,2.37
		c-1.439,1.58-2.161,3.51-2.161,5.79s0.722,4.205,2.161,5.775C831.242,415.577,833.072,416.362,835.291,416.362 M813.931,415.912
		v-8.7c0-0.76,0.325-1.449,0.976-2.069c0.65-0.62,1.375-0.931,2.175-0.931c0.82,0,1.484,0.301,1.996,0.9
		c0.51,0.6,0.765,1.3,0.765,2.1v8.7h5.31v-10.14c0-1.021-0.215-1.915-0.645-2.686c-0.429-0.77-0.99-1.364-1.679-1.784
		c-0.69-0.42-1.41-0.73-2.16-0.931c-0.75-0.199-1.505-0.3-2.266-0.3c-1.56,0-3.03,0.69-4.409,2.07h-0.061v-1.62h-5.31v15.39H813.931
		z M804.572,415.912h-5.311v-15.39h5.311V415.912z M798.841,394.162c0,0.86,0.31,1.601,0.93,2.221c0.62,0.619,1.36,0.93,2.221,0.93
		c0.859,0,1.6-0.311,2.22-0.93c0.62-0.62,0.929-1.36,0.929-2.221c0-0.859-0.31-1.6-0.929-2.22c-0.62-0.62-1.36-0.93-2.22-0.93
		c-0.86,0-1.601,0.31-2.221,0.93C799.151,392.562,798.841,393.303,798.841,394.162 M786.601,404.603c1,0,1.845,0.34,2.535,1.02
		c0.69,0.681,1.035,1.551,1.035,2.61c0,1.04-0.335,1.9-1.005,2.58s-1.526,1.02-2.565,1.02c-1.08,0-1.95-0.335-2.609-1.005
		c-0.661-0.67-0.99-1.535-0.99-2.595s0.345-1.93,1.035-2.61C784.726,404.942,785.581,404.603,786.601,404.603 M786.301,424.162
		c2.72,0,4.91-0.68,6.57-2.04c1.661-1.359,2.491-3.29,2.491-5.79v-15.81h-5.311v1.38h-0.09c-1.321-1.22-2.97-1.83-4.95-1.83
		c-2.22,0-4.05,0.79-5.49,2.37c-1.44,1.58-2.159,3.51-2.159,5.79s0.719,4.205,2.159,5.775c1.44,1.569,3.27,2.354,5.49,2.354
		c2.419,0,4.101-0.52,5.04-1.56v1.14c0,1.22-0.395,2.125-1.185,2.715c-0.79,0.59-1.646,0.885-2.565,0.885
		c-1.979,0-3.371-0.659-4.17-1.979l-4.35,2.13C779.061,422.673,781.901,424.162,786.301,424.162 M774.422,415.912h-5.31v-15.39h5.31
		V415.912z M768.691,394.162c0,0.86,0.311,1.601,0.931,2.221c0.619,0.619,1.359,0.93,2.22,0.93c0.859,0,1.599-0.311,2.22-0.93
		c0.619-0.62,0.931-1.36,0.931-2.221c0-0.859-0.312-1.6-0.931-2.22c-0.621-0.62-1.36-0.93-2.22-0.93c-0.861,0-1.601,0.31-2.22,0.93
		C769.002,392.562,768.691,393.303,768.691,394.162 M759.182,415.912v-8.1c0-0.16,0.04-0.38,0.12-0.66
		c0.08-0.28,0.214-0.62,0.405-1.02c0.19-0.4,0.515-0.74,0.975-1.021c0.459-0.28,1.009-0.42,1.65-0.42c1.18,0,2.1,0.28,2.76,0.84
		l2.22-4.5l-0.42-0.24c-0.26-0.159-0.669-0.319-1.229-0.479c-0.561-0.16-1.13-0.24-1.71-0.24c-0.561,0-1.11,0.095-1.65,0.285
		s-0.98,0.405-1.321,0.645c-0.34,0.24-0.659,0.511-0.96,0.811c-0.299,0.3-0.493,0.51-0.584,0.63c-0.09,0.12-0.155,0.22-0.194,0.3
		h-0.061v-2.22h-5.31v15.39H759.182z M741.932,404.603c1,0,1.846,0.34,2.535,1.02c0.69,0.681,1.035,1.551,1.035,2.61
		c0,1.04-0.335,1.9-1.005,2.58c-0.669,0.68-1.525,1.02-2.565,1.02c-1.08,0-1.951-0.335-2.61-1.005c-0.66-0.67-0.99-1.535-0.99-2.595
		s0.345-1.93,1.035-2.61C740.057,404.942,740.913,404.603,741.932,404.603 M741.962,416.362c2.66,0,4.854-0.765,6.585-2.295
		c1.731-1.53,2.594-3.475,2.594-5.835s-0.884-4.31-2.654-5.85s-3.945-2.311-6.525-2.311c-2.62,0-4.821,0.765-6.6,2.295
		c-1.78,1.53-2.671,3.485-2.671,5.865s0.856,4.33,2.566,5.85C736.967,415.603,739.203,416.362,741.962,416.362 M712.039,401.377
		c-1.211,0.87-1.816,2.085-1.816,3.646c0,1.04,0.281,1.875,0.84,2.505s1.32,1.195,2.28,1.695c0.379,0.2,0.904,0.42,1.575,0.66
		c0.669,0.239,1.144,0.454,1.425,0.645c0.28,0.19,0.419,0.455,0.419,0.795c0,0.74-0.55,1.11-1.649,1.11
		c-0.5,0-1.092-0.165-1.771-0.495c-0.68-0.33-1.152-0.59-1.411-0.78c-0.259-0.189-0.469-0.354-0.629-0.495l-2.16,3.63l0.66,0.54
		c0.439,0.341,1.155,0.681,2.145,1.021c0.989,0.34,2.035,0.51,3.135,0.51c4.86,0,7.29-1.75,7.29-5.25c0-0.74-0.14-1.4-0.419-1.979
		c-0.282-0.58-0.675-1.061-1.186-1.44s-0.995-0.68-1.455-0.9c-0.461-0.22-1.001-0.42-1.62-0.6c-0.101-0.02-0.245-0.06-0.435-0.12
		c-0.191-0.06-0.326-0.104-0.405-0.135c-0.08-0.03-0.2-0.075-0.359-0.135c-0.161-0.061-0.275-0.105-0.346-0.136
		c-0.07-0.029-0.165-0.074-0.284-0.135c-0.12-0.06-0.206-0.115-0.256-0.165c-0.049-0.05-0.104-0.109-0.165-0.18
		c-0.06-0.07-0.101-0.146-0.119-0.226c-0.021-0.079-0.03-0.159-0.03-0.239c0-0.36,0.124-0.605,0.375-0.735
		c0.25-0.13,0.675-0.195,1.274-0.195c1.08,0,2.22,0.32,3.421,0.96l1.739-3.479l-0.63-0.3c-0.419-0.2-1.06-0.4-1.919-0.601
		c-0.86-0.199-1.729-0.3-2.61-0.3C714.883,400.072,713.249,400.508,712.039,401.377 M698.373,404.603c1,0,1.845,0.34,2.535,1.02
		c0.69,0.681,1.035,1.551,1.035,2.61c0,1.04-0.335,1.9-1.005,2.58c-0.671,0.68-1.524,1.02-2.564,1.02c-1.08,0-1.95-0.335-2.61-1.005
		c-0.66-0.67-0.99-1.535-0.99-2.595s0.346-1.93,1.035-2.61C696.499,404.942,697.353,404.603,698.373,404.603 M698.403,416.362
		c2.659,0,4.854-0.765,6.585-2.295c1.729-1.53,2.595-3.475,2.595-5.835s-0.885-4.31-2.655-5.85s-3.945-2.311-6.525-2.311
		c-2.62,0-4.82,0.765-6.6,2.295c-1.782,1.53-2.67,3.485-2.67,5.865s0.855,4.33,2.565,5.85
		C693.408,415.603,695.643,416.362,698.403,416.362 M686.343,390.112h-5.31v25.8h5.31V390.112z M659.553,404.212
		c0.521-0.46,1.22-0.689,2.1-0.689c0.8,0,1.454,0.215,1.965,0.645c0.51,0.431,0.824,1.045,0.944,1.846h-5.85
		C658.753,405.272,659.033,404.673,659.553,404.212 M669.753,408.232c0-2.62-0.765-4.635-2.295-6.045
		c-1.53-1.41-3.516-2.115-5.955-2.115c-2.321,0-4.311,0.8-5.97,2.4c-1.66,1.6-2.49,3.52-2.49,5.76s0.83,4.155,2.49,5.745
		c1.66,1.59,3.649,2.385,5.97,2.385c3.719,0,6.38-1.34,7.979-4.02l-3.84-1.92c-0.64,0.68-1.21,1.135-1.71,1.364
		c-0.5,0.23-1.179,0.346-2.04,0.346c-0.819,0-1.58-0.261-2.279-0.78c-0.701-0.521-1.051-1.32-1.051-2.4h11.16
		C669.744,408.832,669.753,408.593,669.753,408.232 M641.494,404.603c1,0,1.844,0.34,2.535,1.02c0.69,0.681,1.035,1.551,1.035,2.61
		c0,1.04-0.335,1.9-1.005,2.58s-1.525,1.02-2.564,1.02c-1.081,0-1.95-0.335-2.61-1.005c-0.661-0.67-0.99-1.535-0.99-2.595
		s0.345-1.93,1.035-2.61C639.618,404.942,640.473,404.603,641.494,404.603 M639.903,416.362c2.04,0,3.72-0.729,5.04-2.189h0.061
		v1.739h5.25v-25.8h-5.311v11.88c-1.32-1.28-3-1.92-5.04-1.92c-2.221,0-4.05,0.79-5.49,2.37s-2.16,3.51-2.16,5.79
		s0.719,4.205,2.16,5.775C635.854,415.577,637.683,416.362,639.903,416.362 M610.053,415.912v-8.7c0-0.76,0.325-1.449,0.975-2.069
		s1.375-0.931,2.175-0.931c0.82,0,1.485,0.301,1.995,0.9c0.51,0.6,0.765,1.3,0.765,2.1v8.7h5.31v-10.14
		c0-1.021-0.215-1.915-0.645-2.686c-0.43-0.77-0.99-1.364-1.68-1.784c-0.69-0.42-1.41-0.73-2.16-0.931
		c-0.75-0.199-1.505-0.3-2.265-0.3c-1.56,0-3.03,0.69-4.41,2.07h-0.06v-1.62h-5.31v15.39H610.053z M592.804,411.832
		c1.039,0,1.894-0.34,2.565-1.02c0.669-0.68,1.005-1.54,1.005-2.58c0-1.06-0.345-1.93-1.035-2.61c-0.69-0.68-1.536-1.02-2.535-1.02
		c-1.02,0-1.875,0.34-2.565,1.02c-0.69,0.681-1.035,1.551-1.035,2.61s0.33,1.925,0.99,2.595S591.724,411.832,592.804,411.832
		 M592.834,400.072c2.58,0,4.755,0.771,6.525,2.311s2.655,3.489,2.655,5.85s-0.866,4.305-2.595,5.835
		c-1.731,1.53-3.926,2.295-6.585,2.295c-2.76,0-4.995-0.76-6.705-2.28c-1.71-1.52-2.565-3.47-2.565-5.85s0.889-4.335,2.67-5.865
		C588.013,400.837,590.213,400.072,592.834,400.072 M591.514,398.303l7.14-4.141l-2.73-3.45l-6.089,5.28L591.514,398.303z
		 M580.625,415.912h-5.31v-15.39h5.31V415.912z M574.894,394.162c0,0.86,0.31,1.601,0.93,2.221c0.62,0.619,1.36,0.93,2.22,0.93
		c0.86,0,1.6-0.311,2.22-0.93c0.62-0.62,0.93-1.36,0.93-2.221c0-0.859-0.31-1.6-0.93-2.22s-1.36-0.93-2.22-0.93
		c-0.86,0-1.6,0.31-2.22,0.93S574.894,393.303,574.894,394.162 M571.114,405.143l1.8-3.63l-0.51-0.36
		c-0.36-0.24-0.97-0.479-1.83-0.72c-0.86-0.24-1.8-0.36-2.82-0.36c-2.26,0-4.245,0.805-5.955,2.415s-2.565,3.535-2.565,5.775
		c0,2.22,0.855,4.125,2.565,5.715s3.695,2.385,5.955,2.385c1.02,0,1.975-0.13,2.865-0.39c0.89-0.261,1.46-0.465,1.71-0.615
		s0.445-0.275,0.585-0.375l-1.8-3.69l-0.27,0.181c-0.2,0.12-0.515,0.239-0.945,0.359c-0.43,0.12-0.885,0.181-1.365,0.181
		c-1,0-1.86-0.37-2.58-1.11s-1.08-1.64-1.08-2.7c0-1.04,0.36-1.93,1.08-2.67s1.58-1.109,2.58-1.109
		C569.594,404.423,570.454,404.662,571.114,405.143 M547.684,404.603c1,0,1.845,0.34,2.535,1.02c0.69,0.681,1.035,1.551,1.035,2.61
		c0,1.04-0.335,1.9-1.005,2.58c-0.67,0.68-1.525,1.02-2.565,1.02c-1.08,0-1.95-0.335-2.61-1.005c-0.66-0.67-0.99-1.535-0.99-2.595
		s0.345-1.93,1.035-2.61C545.809,404.942,546.665,404.603,547.684,404.603 M546.094,416.362c2.04,0,3.72-0.729,5.04-2.189h0.06
		v1.739h5.25v-15.39h-5.31v1.47c-1.32-1.28-3-1.92-5.04-1.92c-2.22,0-4.05,0.79-5.49,2.37s-2.16,3.51-2.16,5.79
		s0.72,4.205,2.16,5.775C542.044,415.577,543.875,416.362,546.094,416.362 M522.034,400.522v4.05h6.36l-7.62,11.34h15.93v-4.05
		h-7.02l7.62-11.34H522.034z M518.375,415.912h-5.31v-15.39h5.31V415.912z M512.646,394.162c0,0.86,0.31,1.601,0.93,2.221
		c0.619,0.619,1.36,0.93,2.22,0.93c0.859,0,1.6-0.311,2.219-0.93c0.62-0.62,0.931-1.36,0.931-2.221c0-0.859-0.311-1.6-0.931-2.22
		c-0.619-0.62-1.36-0.93-2.219-0.93c-0.86,0-1.601,0.31-2.22,0.93C512.955,392.562,512.646,393.303,512.646,394.162
		 M509.165,390.112h-5.31v25.8h5.31V390.112z M491.195,404.603c1,0,1.845,0.34,2.535,1.02c0.69,0.681,1.034,1.551,1.034,2.61
		c0,1.04-0.334,1.9-1.004,2.58c-0.67,0.68-1.525,1.02-2.565,1.02c-1.08,0-1.95-0.335-2.61-1.005c-0.66-0.67-0.99-1.535-0.99-2.595
		s0.345-1.93,1.035-2.61C489.32,404.942,490.175,404.603,491.195,404.603 M489.605,416.362c2.04,0,3.72-0.729,5.04-2.189h0.06v1.739
		h5.25v-15.39h-5.31v1.47c-1.32-1.28-3-1.92-5.04-1.92c-2.22,0-4.051,0.79-5.49,2.37c-1.44,1.58-2.16,3.51-2.16,5.79
		s0.72,4.205,2.16,5.775C485.555,415.577,487.385,416.362,489.605,416.362 M462.785,400.522v8.61c0,2.56,0.665,4.404,1.995,5.534
		c1.33,1.131,3.444,1.695,6.345,1.695c2.9,0,5.015-0.564,6.345-1.695c1.33-1.13,1.995-2.975,1.995-5.534v-8.61h-5.31v7.32
		c0,1.52-0.23,2.6-0.69,3.239c-0.46,0.641-1.241,0.96-2.34,0.96c-1.1,0-1.88-0.319-2.34-0.96c-0.46-0.64-0.69-1.72-0.69-3.239v-7.32
		H462.785z M449.811,401.377c-1.21,0.87-1.815,2.085-1.815,3.646c0,1.04,0.28,1.875,0.84,2.505s1.32,1.195,2.28,1.695
		c0.38,0.2,0.905,0.42,1.575,0.66c0.67,0.239,1.145,0.454,1.425,0.645c0.28,0.19,0.42,0.455,0.42,0.795c0,0.74-0.55,1.11-1.65,1.11
		c-0.5,0-1.09-0.165-1.77-0.495c-0.68-0.33-1.15-0.59-1.41-0.78c-0.26-0.189-0.47-0.354-0.63-0.495l-2.16,3.63l0.66,0.54
		c0.439,0.341,1.155,0.681,2.145,1.021c0.99,0.34,2.035,0.51,3.135,0.51c4.86,0,7.29-1.75,7.29-5.25c0-0.74-0.14-1.4-0.421-1.979
		c-0.279-0.58-0.674-1.061-1.184-1.44c-0.51-0.38-0.995-0.68-1.455-0.9c-0.46-0.22-1-0.42-1.62-0.6c-0.1-0.02-0.245-0.06-0.435-0.12
		c-0.19-0.06-0.325-0.104-0.405-0.135c-0.08-0.03-0.2-0.075-0.361-0.135c-0.159-0.061-0.274-0.105-0.343-0.136
		c-0.071-0.029-0.166-0.074-0.286-0.135c-0.121-0.06-0.205-0.115-0.255-0.165c-0.049-0.05-0.104-0.109-0.165-0.18
		s-0.1-0.146-0.12-0.226c-0.02-0.079-0.03-0.159-0.03-0.239c0-0.36,0.125-0.605,0.375-0.735s0.675-0.195,1.275-0.195
		c1.081,0,2.22,0.32,3.42,0.96l1.74-3.479l-0.63-0.3c-0.42-0.2-1.06-0.4-1.92-0.601c-0.86-0.199-1.73-0.3-2.61-0.3
		C452.655,400.072,451.021,400.508,449.811,401.377 M443.976,415.912h-5.31v-15.39h5.31V415.912z M438.246,394.162
		c0,0.86,0.31,1.601,0.93,2.221c0.62,0.619,1.36,0.93,2.22,0.93c0.859,0,1.6-0.311,2.22-0.93c0.62-0.62,0.93-1.36,0.93-2.221
		c0-0.859-0.31-1.6-0.93-2.22s-1.36-0.93-2.22-0.93c-0.86,0-1.601,0.31-2.22,0.93C438.556,392.562,438.246,393.303,438.246,394.162
		 M427.026,415.912l10.38-24.75h-6.36l-6.24,16.261l-6.24-16.261h-6.36l10.38,24.75H427.026z"/>
	<polygon clip-path="url(#SVGID_2_)" fill="none" stroke="#0046F9" stroke-width="1.998" points="1.001,2.999 1.001,502.192 
		1.001,504.194 3.002,504.194 1167.09,504.194 1169.09,504.194 1169.09,502.192 1169.09,2.999 1169.09,0.997 1167.09,0.997 
		3.002,0.997 1.001,0.997 	"/>
</g>
<rect x="5.003" y="5.002" fill="none" stroke="#0046F9" stroke-width="1.998" width="1160.084" height="495.188"/>
<line fill="none" stroke="#0046F9" stroke-width="2" x1="403.032" y1="178.169" x2="1144.088" y2="178.169"/>
<line fill="none" stroke="#0046F9" stroke-width="2" x1="403.032" y1="357.413" x2="1144.088" y2="357.413"/>
<line fill="none" stroke="#0046F9" stroke-width="2" x1="382.03" y1="26.156" x2="382.03" y2="480.19"/>
<line fill="none" stroke="#0046F9" stroke-width="2" x1="920.045" y1="199.169" x2="920.045" y2="336.413"/>
<polygon fill="#231F20" points="55.937,467.056 329.758,467.056 329.758,391.062 135.55,391.062 135.55,293.354 315.283,293.354 
	315.283,217.359 135.55,217.359 135.55,120.859 322.52,120.859 322.52,44.864 55.937,44.864 "/>
<g>
	<defs>
		<rect id="SVGID_99_" x="0.002" width="1170.087" height="505.192"/>
	</defs>
	<clipPath id="SVGID_4_">
		<use xlink:href="#SVGID_99_"  overflow="visible"/>
	</clipPath>
	<path clip-path="url(#SVGID_4_)" fill="#0046F9" d="M823.712,320.278c11.916-13.618,22.982-24.115,32.627-31.492
		c11.066-8.513,20.996-14.187,29.507-17.023v-6.526c-11.915-5.106-22.13-11.064-30.357-18.725
		c-16.457-15.037-27.237-25.535-31.777-31.21h-19.577c4.54,9.647,9.363,18.442,14.187,26.386
		c3.972,5.959,8.228,11.633,13.619,17.308H426.229v17.307h405.995c-7.378,9.079-11.633,15.038-13.903,18.726
		c-5.958,9.646-10.781,18.158-13.618,25.251H823.712z"/>
</g>
</svg>
