<?xml version="1.0" encoding="utf-8"?>
<!-- Generator: Adobe Illustrator 16.0.0, SVG Export Plug-In . SVG Version: 6.00 Build 0)  -->
<!DOCTYPE svg PUBLIC "-//W3C//DTD SVG 1.1//EN" "http://www.w3.org/Graphics/SVG/1.1/DTD/svg11.dtd">
<svg version="1.1" id="Layer_1" xmlns="http://www.w3.org/2000/svg" xmlns:xlink="http://www.w3.org/1999/xlink" x="0px" y="0px"
	 width="1170.09px" height="492.17px" viewBox="0 0 1170.09 492.17" enable-background="new 0 0 1170.09 492.17"
	 xml:space="preserve">
<polygon fill="#231F20" points="136.355,444.646 274.633,444.646 362.729,54.347 286.899,54.347 210.512,407.847 200.477,407.847 
	124.088,54.347 48.26,54.347 "/>
<line fill="none" stroke="#0046FA" stroke-width="2" x1="426.044" y1="177.17" x2="1144.633" y2="177.17"/>
<line fill="none" stroke="#0046FA" stroke-width="2" x1="665.055" y1="331.17" x2="1144.633" y2="331.17"/>
<line fill="none" stroke="#0046FA" stroke-width="2" x1="405.043" y1="25.999" x2="405.043" y2="467.17"/>
<line fill="none" stroke="#0046FA" stroke-width="2" x1="637.055" y1="198.17" x2="637.055" y2="467.17"/>
<g>
	<defs>
		<rect id="SVGID_65_" width="1170.088" height="492.17"/>
	</defs>
	<clipPath id="SVGID_2_">
		<use xlink:href="#SVGID_65_"  overflow="visible"/>
	</clipPath>
	<path clip-path="url(#SVGID_2_)" fill="#0046FA" d="M1045.51,125.352h73.341V99.278h-3.32l-12.256,22.217h-15.526V59.971h8.494
		v-3.808h-50.732v3.808h8.545v61.524h-8.545V125.352z M956.265,100.791l9.034-23.046l9.423,23.046H956.265z M935.609,125.352h22.316
		v-3.856c-1.303,0-2.5-0.032-3.59-0.098c-1.092-0.065-2.034-0.188-2.832-0.367c-0.799-0.179-1.416-0.406-1.855-0.684
		c-0.439-0.275-0.66-0.642-0.66-1.099c0-0.162,0.018-0.292,0.049-0.39l5.714-14.209h21.484l6.738,16.846h-9.424v3.856h55.371v-3.856
		h-8.495l-29.444-65.332h-21.436l-25.146,62.841c-0.392,0.944-1.294,1.596-2.71,1.953c-1.416,0.358-3.443,0.538-6.08,0.538V125.352z
		 M844.362,95.372c0,2.832,0.251,5.583,0.757,8.251c0.505,2.67,1.311,5.185,2.417,7.544c1.106,2.361,2.556,4.525,4.347,6.494
		c1.789,1.97,3.985,3.662,6.591,5.078c2.603,1.416,5.63,2.515,9.081,3.297c3.451,0.781,7.39,1.171,11.816,1.171
		c6.381,0,11.712-0.644,15.992-1.929c4.279-1.285,7.715-3.295,10.303-6.03c2.588-2.734,4.426-6.226,5.518-10.474
		c1.09-4.248,1.636-9.334,1.636-15.259V62.852c0-0.944,0.715-1.659,2.148-2.147c1.432-0.489,3.548-0.733,6.348-0.733v-3.808h-21.24
		v3.808c2.832,0,4.974,0.244,6.42,0.733c1.449,0.488,2.174,1.203,2.174,2.147v32.031c0,3.679-0.229,6.86-0.684,9.546
		c-0.457,2.686-1.083,4.98-1.88,6.885c-0.799,1.904-1.726,3.459-2.783,4.663c-1.059,1.205-2.182,2.148-3.369,2.832
		c-1.188,0.685-2.417,1.147-3.687,1.392c-1.271,0.244-2.507,0.367-3.712,0.367c-3.157,0-5.688-0.619-7.592-1.856
		c-1.904-1.236-3.369-2.905-4.395-5.005s-1.702-4.532-2.027-7.299c-0.324-2.768-0.487-5.681-0.487-8.741V59.971h8.496v-3.808
		h-50.732v3.808h8.545V95.372z M752.089,125.352h50.731v-3.856h-8.545V59.971h7.08l11.915,24.121h3.417V56.163h-78.466v27.929h3.37
		l11.962-24.121h7.031v61.524h-8.496V125.352z M670.948,59.971c1.757,0,3.287,0.204,4.589,0.61c1.303,0.408,2.387,1.14,3.248,2.197
		c0.862,1.059,1.506,2.508,1.929,4.346c0.423,1.84,0.635,4.208,0.635,7.105s-0.212,5.281-0.635,7.152
		c-0.423,1.873-1.066,3.345-1.929,4.419c-0.861,1.074-1.945,1.824-3.248,2.246c-1.302,0.424-2.832,0.635-4.589,0.635V59.971z
		 M628.712,125.352h50.732v-3.856h-8.496V92.539c1.595,0,2.971,0.229,4.126,0.684c1.155,0.456,2.092,1.294,2.809,2.515
		c0.715,1.221,1.244,2.89,1.586,5.006c0.342,2.115,0.513,4.834,0.513,8.154c0,3.026,0.31,5.696,0.927,8.008
		c0.619,2.311,1.686,4.248,3.199,5.81c1.513,1.563,3.54,2.742,6.079,3.54c2.538,0.798,5.729,1.197,9.571,1.197
		c4.003,0,7.307-0.303,9.911-0.904c2.603-0.602,4.679-1.587,6.226-2.954c1.545-1.367,2.62-3.157,3.223-5.371
		c0.603-2.213,0.903-4.932,0.903-8.153v-1.563h-4.102c0,3.938-0.243,6.951-0.732,9.034c-0.488,2.083-1.27,3.125-2.345,3.125
		c-0.65,0-1.114-0.262-1.391-0.782c-0.275-0.521-0.415-1.285-0.415-2.295v-1.733c0-0.504,0.032-1.228,0.098-2.173
		c0.032-0.911,0.057-1.7,0.073-2.368c0.016-0.666,0.024-1.473,0.024-2.416c0-3.418-0.603-6.242-1.806-8.473
		c-1.205-2.229-3.119-4.004-5.738-5.322c-2.621-1.318-5.998-2.246-10.133-2.783c-4.133-0.537-9.129-0.821-14.989-0.854
		c6.542-0.032,12.003-0.447,16.382-1.245c4.377-0.797,7.877-1.929,10.498-3.393c2.62-1.465,4.476-3.256,5.566-5.371
		c1.09-2.116,1.636-4.525,1.636-7.227c0-3.093-0.627-5.779-1.88-8.058c-1.254-2.278-3.076-4.158-5.469-5.64
		c-2.393-1.48-5.34-2.58-8.838-3.295c-3.499-0.717-7.479-1.074-11.938-1.074h-55.811v3.808h8.546v61.524h-8.546V125.352z
		 M556.312,125.352h50.732v-3.856h-8.495V59.971h8.495v-3.808h-50.732v3.808h8.544v61.524h-8.544V125.352z M487.183,125.352h20.946
		l23.096-62.354c0.424-1.106,1.311-1.888,2.662-2.343c1.351-0.457,3.458-0.685,6.322-0.685v-3.808h-22.754v3.808
		c1.303,0,2.498,0.041,3.59,0.122c1.091,0.082,2.033,0.212,2.832,0.391c0.799,0.18,1.416,0.407,1.855,0.684
		c0.439,0.277,0.658,0.628,0.658,1.05c0,0.228-0.049,0.489-0.145,0.781l-14.795,39.649l-16.504-42.677h8.592v-3.808h-52.148v3.808
		h7.179L487.183,125.352z"/>
	<path clip-path="url(#SVGID_2_)" fill="#231F20" d="M978.249,290.13c2.63,0,4.636-0.516,6.019-1.547
		c1.382-1.031,2.074-2.374,2.074-4.029c0-1.473-0.551-2.635-1.65-3.485c-1.1-0.85-2.895-1.489-5.388-1.921
		c-1.156-0.226-1.968-0.459-2.432-0.697c-0.465-0.237-0.696-0.526-0.696-0.866c0-0.362,0.226-0.668,0.68-0.918
		c0.453-0.249,1.088-0.374,1.904-0.374c1.042,0,1.938,0.182,2.686,0.544s1.395,0.94,1.938,1.733l2.991-2.924
		c-0.771-1.064-1.773-1.864-3.009-2.396s-2.829-0.8-4.776-0.8c-1.77,0-3.271,0.268-4.506,0.8s-2.158,1.229-2.771,2.091
		s-0.918,1.779-0.918,2.754c0,1.428,0.538,2.573,1.615,3.434c1.075,0.862,2.884,1.542,5.423,2.04
		c1.133,0.228,1.932,0.459,2.396,0.697c0.463,0.238,0.697,0.516,0.697,0.833c0,0.363-0.227,0.652-0.68,0.867
		c-0.455,0.216-1.077,0.323-1.87,0.323c-2.38,0-4.059-0.805-5.032-2.414l-2.992,3.264
		C971.585,289.133,974.351,290.13,978.249,290.13 M957.85,286.39c-0.521,0-0.93-0.124-1.225-0.374
		c-0.294-0.249-0.441-0.612-0.441-1.088c0-0.477,0.152-0.844,0.459-1.105c0.306-0.26,0.822-0.48,1.547-0.663l2.754-0.646v1.462
		c0,0.726-0.318,1.309-0.952,1.751S958.643,286.39,957.85,286.39 M967.879,286.491c-0.815,0-1.224-0.441-1.224-1.325v-6.188
		c0-2.176-0.69-3.808-2.074-4.896c-1.383-1.089-3.399-1.633-6.052-1.633c-2.266,0-4.068,0.459-5.406,1.377
		c-1.337,0.918-2.152,2.205-2.447,3.859l4.691,1.36c0.158-0.93,0.51-1.599,1.055-2.006c0.545-0.408,1.246-0.612,2.107-0.612
		c0.748,0,1.338,0.227,1.77,0.68c0.43,0.454,0.645,1.066,0.645,1.836v0.612l-3.842,0.748c-2.357,0.476-4.051,1.162-5.083,2.057
		c-1.031,0.896-1.548,2.069-1.548,3.52c0,1.383,0.455,2.437,1.36,3.162c0.907,0.726,2.21,1.088,3.909,1.088
		c3.018,0,5.033-0.872,6.053-2.618c0.477,1.746,1.938,2.618,4.387,2.618c0.884,0,1.654-0.183,2.312-0.544l0.442-3.23
		C968.661,286.446,968.311,286.491,967.879,286.491 M947.345,272.79h-5.78v17h5.78V272.79z M944.454,270.817
		c1.179,0,2.034-0.221,2.567-0.663c0.532-0.441,0.799-1.139,0.799-2.091c0-0.974-0.267-1.683-0.799-2.125
		c-0.533-0.441-1.389-0.663-2.567-0.663s-2.035,0.222-2.566,0.663c-0.533,0.442-0.8,1.151-0.8,2.125c0,0.952,0.267,1.649,0.8,2.091
		C942.419,270.597,943.275,270.817,944.454,270.817 M931.704,272.449c-1.247,0-2.375,0.295-3.384,0.885
		c-1.008,0.59-1.784,1.439-2.328,2.55c-0.408-1.11-1.084-1.96-2.022-2.55c-0.941-0.59-2.058-0.885-3.35-0.885
		c-1.314,0-2.46,0.307-3.434,0.918c-0.976,0.612-1.734,1.509-2.278,2.687l-0.17-3.264h-5.168v17h5.78v-8.977
		c0-1.313,0.283-2.3,0.85-2.958c0.566-0.657,1.28-0.986,2.142-0.986c1.542,0,2.312,0.976,2.312,2.925v9.996h5.78v-9.078
		c0-1.246,0.271-2.198,0.815-2.856c0.543-0.657,1.27-0.986,2.176-0.986c1.542,0,2.312,0.976,2.312,2.925v9.996h5.78v-11.322
		c0-1.926-0.539-3.411-1.615-4.454C934.826,272.972,933.426,272.449,931.704,272.449 M897.263,276.563
		c1.088,0,1.893,0.374,2.413,1.122c0.522,0.748,0.781,1.95,0.781,3.604s-0.259,2.855-0.781,3.604
		c-0.521,0.748-1.325,1.122-2.413,1.122c-1.087,0-1.893-0.374-2.414-1.122c-0.522-0.748-0.782-1.949-0.782-3.604
		s0.26-2.856,0.782-3.604C895.37,276.938,896.176,276.563,897.263,276.563 M897.263,272.449c-2.833,0-5.038,0.777-6.613,2.329
		c-1.575,1.554-2.363,3.724-2.363,6.512c0,2.787,0.788,4.959,2.363,6.511c1.575,1.553,3.78,2.329,6.613,2.329
		c2.834,0,5.038-0.776,6.612-2.329c1.576-1.552,2.363-3.724,2.363-6.511c0-2.788-0.787-4.958-2.363-6.512
		C902.301,273.227,900.097,272.449,897.263,272.449 M879.176,272.449c-1.338,0-2.506,0.302-3.502,0.901
		c-0.998,0.601-1.77,1.502-2.312,2.703l-0.17-3.264h-5.168v17h5.78v-8.977c0-1.337,0.282-2.329,0.85-2.975
		c0.566-0.646,1.303-0.97,2.21-0.97c0.771,0,1.365,0.244,1.785,0.731c0.419,0.488,0.629,1.309,0.629,2.465v9.725h5.78v-11.322
		c0-1.926-0.534-3.411-1.599-4.454C882.393,272.972,880.967,272.449,879.176,272.449 M855.717,276.563
		c1.087,0,1.891,0.374,2.412,1.122s0.782,1.95,0.782,3.604s-0.261,2.855-0.782,3.604s-1.325,1.122-2.412,1.122
		c-1.09,0-1.895-0.374-2.415-1.122c-0.522-0.748-0.782-1.949-0.782-3.604s0.26-2.856,0.782-3.604
		C853.822,276.938,854.627,276.563,855.717,276.563 M855.717,272.449c-2.834,0-5.039,0.777-6.614,2.329
		c-1.577,1.554-2.363,3.724-2.363,6.512c0,2.787,0.786,4.959,2.363,6.511c1.575,1.553,3.78,2.329,6.614,2.329
		c2.832,0,5.035-0.776,6.611-2.329c1.575-1.552,2.363-3.724,2.363-6.511c0-2.788-0.788-4.958-2.363-6.512
		C860.752,273.227,858.549,272.449,855.717,272.449 M846.161,289.79l-6.052-8.568l5.916-8.432h-6.392l-3.196,5.678l-3.129-5.678
		h-6.562l5.882,8.397l-6.119,8.603h6.392l3.4-5.916l3.332,5.916H846.161z M815.052,286.39c-0.522,0-0.931-0.124-1.226-0.374
		c-0.294-0.249-0.44-0.612-0.44-1.088c0-0.477,0.151-0.844,0.459-1.105c0.306-0.26,0.82-0.48,1.546-0.663l2.755-0.646v1.462
		c0,0.726-0.319,1.309-0.952,1.751C816.559,286.169,815.845,286.39,815.052,286.39 M825.081,286.491
		c-0.815,0-1.224-0.441-1.224-1.325v-6.188c0-2.176-0.692-3.808-2.074-4.896c-1.383-1.089-3.399-1.633-6.052-1.633
		c-2.267,0-4.069,0.459-5.407,1.377c-1.337,0.918-2.152,2.205-2.447,3.859l4.692,1.36c0.158-0.93,0.51-1.599,1.054-2.006
		c0.544-0.408,1.246-0.612,2.108-0.612c0.748,0,1.337,0.227,1.768,0.68c0.431,0.454,0.646,1.066,0.646,1.836v0.612l-3.842,0.748
		c-2.358,0.476-4.053,1.162-5.083,2.057c-1.033,0.896-1.547,2.069-1.547,3.52c0,1.383,0.451,2.437,1.359,3.162
		c0.906,0.726,2.209,1.088,3.91,1.088c3.014,0,5.031-0.872,6.052-2.618c0.476,1.746,1.938,2.618,4.388,2.618
		c0.883,0,1.652-0.183,2.311-0.544l0.442-3.23C825.863,286.446,825.512,286.491,825.081,286.491 M805.361,285.268
		c-0.703,0.499-1.52,0.748-2.448,0.748c-1.496,0-2.244-0.759-2.244-2.278v-6.834h5.101v-4.113h-5.101v-5.406l-5.779,1.598v3.809
		h-2.923v4.113h2.923v7.786c0.022,1.904,0.566,3.287,1.632,4.148c1.064,0.861,2.607,1.292,4.624,1.292
		c0.884,0,1.762-0.119,2.635-0.357s1.592-0.549,2.159-0.935L805.361,285.268z M773.062,290.13c2.629,0,4.635-0.516,6.018-1.547
		s2.074-2.374,2.074-4.029c0-1.473-0.551-2.635-1.648-3.485c-1.102-0.85-2.896-1.489-5.39-1.921
		c-1.157-0.226-1.967-0.459-2.431-0.697c-0.465-0.237-0.697-0.526-0.697-0.866c0-0.362,0.227-0.668,0.68-0.918
		c0.453-0.249,1.09-0.374,1.904-0.374c1.042,0,1.938,0.182,2.686,0.544c0.75,0.362,1.395,0.94,1.938,1.733l2.991-2.924
		c-0.771-1.064-1.773-1.864-3.008-2.396c-1.236-0.532-2.828-0.8-4.777-0.8c-1.768,0-3.27,0.268-4.505,0.8
		c-1.236,0.532-2.159,1.229-2.772,2.091c-0.61,0.861-0.917,1.779-0.917,2.754c0,1.428,0.538,2.573,1.615,3.434
		c1.076,0.862,2.884,1.542,5.423,2.04c1.133,0.228,1.933,0.459,2.396,0.697c0.465,0.238,0.699,0.516,0.699,0.833
		c0,0.363-0.229,0.652-0.682,0.867c-0.455,0.216-1.077,0.323-1.871,0.323c-2.379,0-4.057-0.805-5.031-2.414l-2.991,3.264
		C766.398,289.133,769.163,290.13,773.062,290.13 M752.662,286.39c-0.521,0-0.93-0.124-1.224-0.374
		c-0.296-0.249-0.442-0.612-0.442-1.088c0-0.477,0.153-0.844,0.459-1.105c0.307-0.26,0.82-0.48,1.547-0.663l2.756-0.646v1.462
		c0,0.726-0.319,1.309-0.953,1.751C754.169,286.169,753.455,286.39,752.662,286.39 M762.691,286.491
		c-0.816,0-1.223-0.441-1.223-1.325v-6.188c0-2.176-0.693-3.808-2.074-4.896c-1.383-1.089-3.4-1.633-6.053-1.633
		c-2.267,0-4.068,0.459-5.405,1.377c-1.338,0.918-2.154,2.205-2.448,3.859l4.692,1.36c0.157-0.93,0.51-1.599,1.054-2.006
		c0.544-0.408,1.246-0.612,2.107-0.612c0.75,0,1.338,0.227,1.768,0.68c0.431,0.454,0.648,1.066,0.648,1.836v0.612l-3.844,0.748
		c-2.357,0.476-4.052,1.162-5.083,2.057c-1.031,0.896-1.547,2.069-1.547,3.52c0,1.383,0.453,2.437,1.36,3.162
		c0.906,0.726,2.21,1.088,3.91,1.088c3.014,0,5.031-0.872,6.052-2.618c0.476,1.746,1.938,2.618,4.386,2.618
		c0.883,0,1.654-0.183,2.312-0.544l0.441-3.23C763.475,286.446,763.121,286.491,762.691,286.491 M736.342,272.79v9.01
		c0,1.314-0.283,2.295-0.85,2.94c-0.566,0.646-1.326,0.97-2.277,0.97c-0.795,0-1.384-0.227-1.769-0.681
		c-0.386-0.453-0.578-1.234-0.578-2.346v-9.894h-5.78v11.355c0,2.063,0.516,3.576,1.548,4.539c1.03,0.964,2.452,1.445,4.267,1.445
		c2.855,0,4.816-1.167,5.882-3.502l0.17,3.162h5.167v-17H736.342z M714.106,290.13c2.629,0,4.634-0.516,6.018-1.547
		s2.074-2.374,2.074-4.029c0-1.473-0.549-2.635-1.648-3.485c-1.1-0.85-2.896-1.489-5.39-1.921c-1.156-0.226-1.966-0.459-2.431-0.697
		c-0.465-0.237-0.697-0.526-0.697-0.866c0-0.362,0.228-0.668,0.681-0.918c0.452-0.249,1.088-0.374,1.903-0.374
		c1.042,0,1.938,0.182,2.687,0.544s1.394,0.94,1.938,1.733l2.992-2.924c-0.771-1.064-1.773-1.864-3.01-2.396
		c-1.234-0.532-2.826-0.8-4.776-0.8c-1.768,0-3.271,0.268-4.505,0.8c-1.236,0.532-2.159,1.229-2.771,2.091
		c-0.611,0.861-0.918,1.779-0.918,2.754c0,1.428,0.537,2.573,1.615,3.434c1.077,0.862,2.884,1.542,5.422,2.04
		c1.135,0.228,1.934,0.459,2.398,0.697s0.697,0.516,0.697,0.833c0,0.363-0.229,0.652-0.681,0.867
		c-0.453,0.216-1.075,0.323-1.87,0.323c-2.38,0-4.057-0.805-5.031-2.414l-2.992,3.264
		C707.441,289.133,710.207,290.13,714.106,290.13 M685.581,276.496c1.813,0,2.856,1.11,3.128,3.331h-6.392
		C682.656,277.606,683.745,276.496,685.581,276.496 M694.115,281.052c0-2.72-0.73-4.833-2.193-6.341
		c-1.463-1.507-3.564-2.262-6.307-2.262c-2.834,0-5.021,0.771-6.562,2.312c-1.542,1.542-2.313,3.718-2.313,6.528
		s0.788,4.986,2.363,6.527c1.576,1.542,3.848,2.312,6.818,2.312c1.993,0,3.677-0.379,5.049-1.14c1.371-0.759,2.295-1.863,2.77-3.314
		l-4.69-1.496c-0.183,0.612-0.539,1.077-1.071,1.394c-0.533,0.318-1.219,0.477-2.057,0.477c-0.998,0-1.798-0.249-2.398-0.748
		c-0.6-0.498-0.991-1.28-1.172-2.346h11.594C694.059,282.458,694.115,281.822,694.115,281.052"/>
	<path clip-path="url(#SVGID_2_)" fill="#231F20" d="M1118.463,246.13c2.629,0,4.635-0.516,6.018-1.547s2.074-2.374,2.074-4.029
		c0-1.473-0.551-2.635-1.65-3.485c-1.098-0.85-2.895-1.489-5.388-1.921c-1.157-0.226-1.966-0.459-2.432-0.696
		c-0.465-0.238-0.696-0.527-0.696-0.867c0-0.362,0.227-0.668,0.68-0.918c0.453-0.249,1.088-0.374,1.904-0.374
		c1.043,0,1.938,0.182,2.686,0.544c0.748,0.363,1.395,0.94,1.938,1.733l2.991-2.924c-0.771-1.064-1.772-1.863-3.009-2.396
		c-1.234-0.532-2.828-0.799-4.776-0.799c-1.769,0-3.271,0.267-4.506,0.799c-1.234,0.533-2.158,1.229-2.771,2.091
		c-0.611,0.862-0.918,1.78-0.918,2.754c0,1.428,0.539,2.573,1.615,3.434c1.078,0.862,2.885,1.542,5.424,2.04
		c1.133,0.228,1.932,0.459,2.396,0.697s0.697,0.516,0.697,0.833c0,0.363-0.226,0.652-0.68,0.867
		c-0.453,0.216-1.077,0.323-1.87,0.323c-2.38,0-4.057-0.805-5.032-2.414l-2.992,3.264
		C1111.799,245.133,1114.563,246.13,1118.463,246.13 M1107.312,228.79h-5.78v17h5.78V228.79z M1104.422,226.817
		c1.178,0,2.033-0.221,2.566-0.662c0.532-0.442,0.799-1.14,0.799-2.092c0-0.974-0.267-1.683-0.799-2.125
		c-0.533-0.441-1.389-0.662-2.566-0.662c-1.18,0-2.035,0.221-2.567,0.662c-0.534,0.442-0.8,1.151-0.8,2.125
		c0,0.952,0.266,1.649,0.8,2.092C1102.387,226.597,1103.242,226.817,1104.422,226.817 M1088.169,242.39
		c-0.521,0-0.93-0.124-1.224-0.374c-0.295-0.249-0.441-0.612-0.441-1.088s0.152-0.844,0.459-1.105c0.306-0.26,0.82-0.48,1.547-0.662
		l2.754-0.646v1.462c0,0.727-0.318,1.31-0.952,1.751C1089.676,242.169,1088.963,242.39,1088.169,242.39 M1098.199,242.492
		c-0.815,0-1.225-0.442-1.225-1.326v-6.188c0-2.176-0.691-3.808-2.073-4.896c-1.383-1.088-3.4-1.631-6.052-1.631
		c-2.268,0-4.069,0.459-5.406,1.377c-1.338,0.918-2.154,2.204-2.448,3.858l4.692,1.36c0.158-0.929,0.51-1.599,1.053-2.006
		c0.545-0.408,1.247-0.612,2.109-0.612c0.748,0,1.337,0.227,1.768,0.68c0.43,0.454,0.646,1.066,0.646,1.836v0.612l-3.842,0.748
		c-2.358,0.476-4.053,1.162-5.084,2.057c-1.031,0.896-1.547,2.069-1.547,3.52c0,1.383,0.453,2.437,1.36,3.162
		c0.906,0.726,2.21,1.088,3.91,1.088c3.014,0,5.032-0.872,6.052-2.618c0.477,1.746,1.938,2.618,4.386,2.618
		c0.885,0,1.654-0.183,2.312-0.544l0.442-3.23C1098.981,242.446,1098.629,242.492,1098.199,242.492 M1071.85,228.79v9.01
		c0,1.314-0.283,2.295-0.851,2.941c-0.566,0.646-1.325,0.969-2.277,0.969c-0.793,0-1.384-0.227-1.769-0.681
		c-0.386-0.452-0.578-1.234-0.578-2.346v-9.894h-5.779v11.355c0,2.063,0.514,3.576,1.547,4.539c1.031,0.964,2.454,1.445,4.266,1.445
		c2.857,0,4.818-1.167,5.883-3.502l0.17,3.162h5.168v-17H1071.85z M1057.672,241.268c-0.703,0.499-1.52,0.748-2.449,0.748
		c-1.495,0-2.243-0.759-2.243-2.278v-6.834h5.1v-4.113h-5.1v-5.406l-5.78,1.598v3.809h-2.924v4.113h2.924v7.786
		c0.023,1.904,0.567,3.287,1.632,4.148c1.065,0.862,2.607,1.292,4.624,1.292c0.885,0,1.763-0.119,2.635-0.357
		c0.873-0.237,1.593-0.549,2.159-0.935L1057.672,241.268z M1042.201,228.45c-1.293,0-2.375,0.346-3.247,1.037
		c-0.873,0.691-1.513,1.683-1.921,2.975l-0.238-3.672h-5.1v17h5.779v-8.568c0-1.292,0.363-2.283,1.089-2.975
		c0.725-0.691,1.632-1.037,2.72-1.037c0.432,0,0.838,0.051,1.225,0.152c0.385,0.103,0.69,0.222,0.918,0.357l0.611-4.896
		C1043.584,228.575,1042.973,228.45,1042.201,228.45 M1027.582,228.79h-5.779v17h5.779V228.79z M1024.691,226.817
		c1.179,0,2.035-0.221,2.568-0.662c0.531-0.442,0.799-1.14,0.799-2.092c0-0.974-0.268-1.683-0.799-2.125
		c-0.533-0.441-1.39-0.662-2.568-0.662c-1.178,0-2.035,0.221-2.566,0.662c-0.533,0.442-0.799,1.151-0.799,2.125
		c0,0.952,0.266,1.649,0.799,2.092C1022.656,226.597,1023.514,226.817,1024.691,226.817 M1013.778,228.79l-3.57,13.328
		l-3.503-13.328h-6.085l6.12,17h6.902l6.12-17H1013.778z M982.668,246.13c2.629,0,4.636-0.516,6.019-1.547s2.074-2.374,2.074-4.029
		c0-1.473-0.552-2.635-1.649-3.485c-1.099-0.85-2.895-1.489-5.389-1.921c-1.156-0.226-1.965-0.459-2.432-0.696
		c-0.465-0.238-0.696-0.527-0.696-0.867c0-0.362,0.226-0.668,0.68-0.918c0.453-0.249,1.088-0.374,1.904-0.374
		c1.043,0,1.938,0.182,2.686,0.544c0.748,0.363,1.394,0.94,1.938,1.733l2.99-2.924c-0.77-1.064-1.772-1.863-3.008-2.396
		c-1.234-0.532-2.828-0.799-4.777-0.799c-1.768,0-3.27,0.267-4.504,0.799c-1.235,0.533-2.159,1.229-2.771,2.091
		c-0.612,0.862-0.918,1.78-0.918,2.754c0,1.428,0.538,2.573,1.615,3.434c1.078,0.862,2.884,1.542,5.423,2.04
		c1.133,0.228,1.932,0.459,2.396,0.697c0.466,0.238,0.697,0.516,0.697,0.833c0,0.363-0.227,0.652-0.68,0.867
		c-0.453,0.216-1.077,0.323-1.87,0.323c-2.38,0-4.057-0.805-5.032-2.414l-2.992,3.264C976.004,245.133,978.77,246.13,982.668,246.13
		 M963.867,232.496c1.813,0,2.855,1.11,3.128,3.332h-6.392C960.943,233.606,962.031,232.496,963.867,232.496 M972.401,237.052
		c0-2.72-0.731-4.833-2.193-6.341c-1.462-1.507-3.565-2.261-6.307-2.261c-2.834,0-5.021,0.771-6.562,2.312
		c-1.543,1.542-2.312,3.718-2.312,6.528s0.787,4.986,2.363,6.527c1.576,1.542,3.847,2.312,6.816,2.312
		c1.994,0,3.678-0.379,5.051-1.139c1.369-0.76,2.294-1.864,2.77-3.315l-4.692-1.496c-0.182,0.612-0.538,1.077-1.07,1.395
		c-0.533,0.317-1.22,0.476-2.058,0.476c-0.998,0-1.797-0.249-2.396-0.748c-0.602-0.498-0.992-1.28-1.173-2.346h11.594
		C972.345,238.458,972.401,237.822,972.401,237.052 M950.268,221.378h-3.265c-0.067,0.635-0.203,1.111-0.407,1.428
		c-0.205,0.318-0.499,0.477-0.885,0.477c-0.25,0-0.459-0.051-0.629-0.153s-0.426-0.289-0.765-0.562
		c-0.499-0.385-0.958-0.685-1.378-0.9c-0.419-0.215-0.969-0.323-1.648-0.323c-2.855,0-4.352,1.802-4.487,5.405h3.264
		c0.068-0.633,0.204-1.109,0.407-1.428c0.205-0.316,0.488-0.476,0.85-0.476c0.25,0,0.482,0.063,0.698,0.187
		c0.215,0.125,0.47,0.312,0.765,0.562c0.477,0.386,0.922,0.681,1.344,0.884c0.419,0.204,0.969,0.307,1.648,0.307
		C948.636,226.784,950.133,224.981,950.268,221.378 M943.535,232.563c1.088,0,1.893,0.374,2.414,1.122s0.782,1.95,0.782,3.604
		s-0.261,2.855-0.782,3.604s-1.326,1.122-2.414,1.122s-1.893-0.374-2.414-1.122s-0.781-1.949-0.781-3.604s0.26-2.856,0.781-3.604
		S942.447,232.563,943.535,232.563 M943.535,228.45c-2.834,0-5.038,0.776-6.613,2.328c-1.575,1.554-2.363,3.724-2.363,6.512
		s0.788,4.959,2.363,6.511c1.575,1.553,3.779,2.329,6.613,2.329c2.833,0,5.037-0.776,6.613-2.329
		c1.574-1.552,2.363-3.723,2.363-6.511s-0.789-4.958-2.363-6.512C948.572,229.227,946.368,228.45,943.535,228.45 M932.315,240.928
		l-5.202-1.666c-0.271,1.836-1.213,2.754-2.822,2.754c-2.244,0-3.365-1.552-3.365-4.658c0-3.195,1.121-4.794,3.365-4.794
		c1.518,0,2.392,0.976,2.617,2.924l5.373-1.768c-0.318-1.564-1.123-2.833-2.414-3.809c-1.292-0.974-3.219-1.461-5.779-1.461
		c-2.812,0-5.005,0.776-6.58,2.328c-1.575,1.554-2.362,3.724-2.362,6.512c0,2.584,0.663,4.636,1.989,6.153
		c1.324,1.52,3.248,2.392,5.763,2.618c0.906,0.294,1.535,0.623,1.887,0.986c0.352,0.362,0.527,0.793,0.527,1.292
		c0,0.521-0.17,0.929-0.51,1.224c-0.341,0.294-0.794,0.442-1.36,0.442c-0.998,0-1.814-0.318-2.449-0.952l-1.325,2.686
		c0.975,0.906,2.38,1.36,4.217,1.36c1.472,0,2.651-0.346,3.535-1.037c0.885-0.691,1.326-1.683,1.326-2.975
		c0-0.612-0.153-1.196-0.459-1.751c-0.306-0.557-0.765-1.037-1.378-1.445c1.542-0.34,2.783-0.946,3.725-1.819
		C931.572,243.201,932.134,242.151,932.315,240.928 M911.849,228.79h-5.78v17h5.78V228.79z M908.957,226.817
		c1.18,0,2.035-0.221,2.568-0.662c0.532-0.442,0.799-1.14,0.799-2.092c0-0.974-0.267-1.683-0.799-2.125
		c-0.533-0.441-1.389-0.662-2.568-0.662c-1.178,0-2.033,0.221-2.566,0.662c-0.532,0.442-0.799,1.151-0.799,2.125
		c0,0.952,0.267,1.649,0.799,2.092C906.924,226.597,907.779,226.817,908.957,226.817 M893.013,241.88
		c-1.021,0-1.809-0.374-2.363-1.122c-0.556-0.748-0.833-1.904-0.833-3.468c0-1.564,0.277-2.721,0.833-3.469
		c0.555-0.747,1.343-1.121,2.363-1.121c0.929,0,1.671,0.34,2.227,1.02c0.554,0.68,0.867,1.644,0.937,2.89v1.36
		c-0.069,1.27-0.383,2.239-0.937,2.907C894.684,241.546,893.941,241.88,893.013,241.88 M896.176,221.581v10.064
		c-0.5-0.997-1.181-1.779-2.041-2.346c-0.863-0.566-1.895-0.85-3.095-0.85c-2.198,0-3.922,0.781-5.168,2.346
		c-1.247,1.563-1.87,3.752-1.87,6.562c0,2.767,0.617,4.919,1.854,6.46c1.236,1.542,2.951,2.312,5.152,2.312
		c1.268,0,2.383-0.318,3.348-0.952c0.963-0.634,1.694-1.507,2.193-2.618l0.203,3.23h5.202v-24.209H896.176z M872.952,232.496
		c1.814,0,2.856,1.11,3.128,3.332h-6.393C870.028,233.606,871.116,232.496,872.952,232.496 M881.486,237.052
		c0-2.72-0.73-4.833-2.193-6.341c-1.462-1.507-3.563-2.261-6.307-2.261c-2.833,0-5.02,0.771-6.561,2.312
		c-1.542,1.542-2.313,3.718-2.313,6.528s0.788,4.986,2.362,6.527c1.577,1.542,3.849,2.312,6.816,2.312
		c1.996,0,3.68-0.379,5.051-1.139s2.295-1.864,2.771-3.315l-4.692-1.496c-0.181,0.612-0.537,1.077-1.07,1.395
		c-0.532,0.317-1.217,0.476-2.059,0.476c-0.996,0-1.795-0.249-2.396-0.748c-0.601-0.498-0.991-1.28-1.173-2.346h11.594
		C881.431,238.458,881.486,237.822,881.486,237.052 M843.441,232.496c1.812,0,2.855,1.11,3.128,3.332h-6.392
		C840.518,233.606,841.605,232.496,843.441,232.496 M851.975,237.052c0-2.72-0.73-4.833-2.192-6.341
		c-1.462-1.507-3.564-2.261-6.308-2.261c-2.833,0-5.021,0.771-6.562,2.312c-1.542,1.542-2.312,3.718-2.312,6.528
		s0.787,4.986,2.363,6.527c1.574,1.542,3.847,2.312,6.816,2.312c1.994,0,3.676-0.379,5.049-1.139
		c1.371-0.76,2.295-1.864,2.771-3.315l-4.693-1.496c-0.181,0.612-0.538,1.077-1.07,1.395s-1.219,0.476-2.057,0.476
		c-0.998,0-1.797-0.249-2.396-0.748c-0.602-0.498-0.992-1.28-1.174-2.346h11.595C851.918,238.458,851.975,237.822,851.975,237.052
		 M822.361,241.88c-1.02,0-1.807-0.374-2.363-1.122c-0.555-0.748-0.833-1.904-0.833-3.468c0-1.564,0.278-2.721,0.833-3.469
		c0.557-0.747,1.344-1.121,2.363-1.121c0.93,0,1.672,0.34,2.227,1.02c0.557,0.68,0.867,1.644,0.936,2.89v1.36
		c-0.068,1.27-0.379,2.239-0.936,2.907C824.033,241.546,823.291,241.88,822.361,241.88 M825.523,221.581v10.064
		c-0.498-0.997-1.178-1.779-2.04-2.346s-1.892-0.85-3.094-0.85c-2.198,0-3.921,0.781-5.168,2.346
		c-1.247,1.563-1.87,3.752-1.87,6.562c0,2.767,0.618,4.919,1.853,6.46c1.235,1.542,2.952,2.312,5.151,2.312
		c1.27,0,2.385-0.318,3.349-0.952s1.695-1.507,2.193-2.618l0.204,3.23h5.202v-24.209H825.523z M792.034,232.563
		c1.087,0,1.892,0.374,2.414,1.122c0.521,0.748,0.782,1.95,0.782,3.604s-0.261,2.855-0.782,3.604
		c-0.522,0.748-1.327,1.122-2.414,1.122c-1.088,0-1.893-0.374-2.414-1.122s-0.782-1.949-0.782-3.604s0.261-2.856,0.782-3.604
		S790.946,232.563,792.034,232.563 M792.034,228.45c-2.834,0-5.038,0.776-6.612,2.328c-1.576,1.554-2.363,3.724-2.363,6.512
		s0.787,4.959,2.363,6.511c1.574,1.553,3.778,2.329,6.612,2.329c2.833,0,5.037-0.776,6.613-2.329
		c1.575-1.552,2.363-3.723,2.363-6.511s-0.788-4.958-2.363-6.512C797.071,229.227,794.867,228.45,792.034,228.45 M778.299,221.378
		h-3.265c-0.067,0.635-0.204,1.111-0.409,1.428c-0.203,0.318-0.498,0.477-0.883,0.477c-0.25,0-0.459-0.051-0.629-0.153
		s-0.426-0.289-0.765-0.562c-0.499-0.385-0.958-0.685-1.378-0.9c-0.419-0.215-0.969-0.323-1.648-0.323
		c-2.855,0-4.352,1.802-4.488,5.405h3.265c0.067-0.633,0.204-1.109,0.409-1.428c0.201-0.316,0.484-0.476,0.848-0.476
		c0.25,0,0.482,0.063,0.698,0.187c0.215,0.125,0.47,0.312,0.765,0.562c0.476,0.386,0.922,0.681,1.343,0.884
		c0.419,0.204,0.97,0.307,1.649,0.307C776.666,226.784,778.162,224.981,778.299,221.378 M770.648,242.39
		c-0.523,0-0.93-0.124-1.223-0.374c-0.297-0.249-0.443-0.612-0.443-1.088s0.153-0.844,0.459-1.105
		c0.306-0.26,0.821-0.48,1.547-0.662l2.754-0.646v1.462c0,0.727-0.316,1.31-0.953,1.751
		C772.155,242.169,771.441,242.39,770.648,242.39 M780.679,242.492c-0.816,0-1.225-0.442-1.225-1.326v-6.188
		c0-2.176-0.691-3.808-2.073-4.896c-1.384-1.088-3.4-1.631-6.053-1.631c-2.267,0-4.068,0.459-5.406,1.377s-2.153,2.204-2.447,3.858
		l4.691,1.36c0.158-0.929,0.51-1.599,1.055-2.006c0.544-0.408,1.246-0.612,2.107-0.612c0.748,0,1.337,0.227,1.769,0.68
		c0.429,0.454,0.646,1.066,0.646,1.836v0.612l-3.842,0.748c-2.359,0.476-4.052,1.162-5.083,2.057
		c-1.032,0.896-1.547,2.069-1.547,3.52c0,1.383,0.452,2.437,1.36,3.162c0.905,0.726,2.211,1.088,3.909,1.088
		c3.015,0,5.032-0.872,6.052-2.618c0.477,1.746,1.938,2.618,4.387,2.618c0.884,0,1.654-0.183,2.311-0.544l0.443-3.23
		C781.459,242.446,781.107,242.492,780.679,242.492 M761.196,240.928l-5.202-1.666c-0.271,1.836-1.213,2.754-2.822,2.754
		c-2.243,0-3.365-1.552-3.365-4.658c0-3.195,1.122-4.794,3.365-4.794c1.519,0,2.392,0.976,2.617,2.924l5.373-1.768
		c-0.317-1.564-1.122-2.833-2.414-3.809c-1.292-0.974-3.219-1.461-5.779-1.461c-2.812,0-5.004,0.776-6.579,2.328
		c-1.576,1.554-2.364,3.724-2.364,6.512c0,2.584,0.664,4.636,1.99,6.153c1.326,1.52,3.247,2.392,5.763,2.618
		c0.906,0.294,1.535,0.623,1.887,0.986c0.352,0.362,0.526,0.793,0.526,1.292c0,0.521-0.169,0.929-0.509,1.224
		c-0.341,0.294-0.794,0.442-1.36,0.442c-0.998,0-1.814-0.318-2.449-0.952l-1.324,2.686c0.974,0.906,2.38,1.36,4.216,1.36
		c1.473,0,2.651-0.346,3.536-1.037c0.884-0.691,1.324-1.683,1.324-2.975c0-0.612-0.151-1.196-0.458-1.751
		c-0.306-0.557-0.765-1.037-1.378-1.445c1.542-0.34,2.783-0.946,3.725-1.819C760.453,243.201,761.015,242.151,761.196,240.928
		 M731.616,242.39c-0.521,0-0.929-0.124-1.224-0.374c-0.295-0.249-0.442-0.612-0.442-1.088s0.153-0.844,0.458-1.105
		c0.309-0.26,0.823-0.48,1.548-0.662l2.753-0.646v1.462c0,0.727-0.316,1.31-0.951,1.751
		C733.123,242.169,732.408,242.39,731.616,242.39 M741.646,242.492c-0.816,0-1.225-0.442-1.225-1.326v-6.188
		c0-2.176-0.69-3.808-2.073-4.896c-1.382-1.088-3.4-1.631-6.052-1.631c-2.268,0-4.069,0.459-5.406,1.377s-2.153,2.204-2.449,3.858
		l4.693,1.36c0.158-0.929,0.51-1.599,1.053-2.006c0.545-0.408,1.248-0.612,2.109-0.612c0.747,0,1.337,0.227,1.768,0.68
		c0.431,0.454,0.645,1.066,0.645,1.836v0.612l-3.841,0.748c-2.356,0.476-4.052,1.162-5.083,2.057
		c-1.031,0.896-1.547,2.069-1.547,3.52c0,1.383,0.453,2.437,1.36,3.162s2.21,1.088,3.909,1.088c3.016,0,5.032-0.872,6.053-2.618
		c0.476,1.746,1.938,2.618,4.386,2.618c0.884,0,1.655-0.183,2.312-0.544l0.442-3.23
		C742.429,242.446,742.077,242.492,741.646,242.492 M721.111,228.79h-5.78v17h5.78V228.79z M718.222,226.817
		c1.178,0,2.034-0.221,2.566-0.662c0.532-0.442,0.8-1.14,0.8-2.092c0-0.974-0.268-1.683-0.8-2.125
		c-0.532-0.441-1.389-0.662-2.566-0.662c-1.181,0-2.035,0.221-2.567,0.662c-0.533,0.442-0.799,1.151-0.799,2.125
		c0,0.952,0.266,1.649,0.799,2.092C716.187,226.597,717.041,226.817,718.222,226.817 M711.218,228.45
		c-1.292,0-2.376,0.346-3.247,1.037c-0.873,0.691-1.514,1.683-1.921,2.975l-0.238-3.672h-5.101v17h5.78v-8.568
		c0-1.292,0.362-2.283,1.088-2.975s1.632-1.037,2.721-1.037c0.43,0,0.838,0.051,1.224,0.152c0.385,0.103,0.691,0.222,0.918,0.357
		l0.612-4.896C712.6,228.575,711.987,228.45,711.218,228.45 M697.855,239.363l-5.304-1.495c-0.272,1.27-0.771,2.198-1.497,2.787
		c-0.726,0.591-1.711,0.885-2.957,0.885c-1.656,0-2.919-0.596-3.791-1.785c-0.873-1.19-1.31-2.918-1.31-5.186
		c0-2.266,0.453-3.994,1.36-5.185c0.906-1.19,2.187-1.785,3.842-1.785c1.201,0,2.13,0.272,2.788,0.815
		c0.657,0.545,1.144,1.496,1.462,2.856l5.134-2.073c-0.544-2.062-1.666-3.609-3.365-4.642c-1.7-1.03-3.774-1.547-6.223-1.547
		c-2.244,0-4.193,0.459-5.848,1.377c-1.655,0.918-2.925,2.25-3.808,3.995c-0.885,1.746-1.326,3.808-1.326,6.188
		c0,2.403,0.441,4.472,1.326,6.205c0.883,1.734,2.152,3.061,3.808,3.979c1.654,0.918,3.615,1.377,5.882,1.377
		c2.47,0,4.567-0.562,6.29-1.684C696.041,243.325,697.221,241.631,697.855,239.363"/>
	<path clip-path="url(#SVGID_2_)" fill="#231F20" d="M564.922,407.67h32.896v34.777h-32.896V407.67z M514.793,333.416
		c0-9.713-3.445-16.919-10.651-16.919c-3.761,0-6.894,2.819-9.399,6.267c-2.507,3.759-3.76,8.146-3.76,10.652h-28.512v-121.25
		h81.773v33.523h-52.637v47.937c3.762-2.82,7.834-5.326,12.534-6.894c2.192-0.939,4.698-1.253,6.892-0.939
		c17.547,0,26.945,10.025,31.959,20.992c5.012,10.966,5.639,22.871,5.639,26.631v51.383c0,10.965-0.627,25.691-6.579,37.91
		c-5.953,12.532-17.232,22.245-37.597,22.245c-20.992,0-31.645-9.713-37.598-23.498c-5.953-13.474-6.58-30.705-6.58-46.058h33.838
		v9.086c0,11.594,0.627,19.739,2.193,24.125c1.566,4.7,4.072,6.894,8.146,6.894c3.445,0,6.266-2.193,7.832-6.58
		c1.566-4.386,2.506-12.532,2.506-24.124V333.416z"/>
	<polygon clip-path="url(#SVGID_2_)" fill="none" stroke="#0046FA" stroke-width="1.998" points="0.999,3 0.999,489.17 
		0.999,491.172 3,491.172 1167.087,491.172 1169.088,491.172 1169.088,489.17 1169.088,3 1169.088,0.998 1167.087,0.998 3,0.998 
		0.999,0.998 	"/>
</g>
<rect x="5.001" y="5.002" fill="none" stroke="#0046FA" stroke-width="1.998" width="1160.085" height="482.166"/>
<g>
	<defs>
		<rect id="SVGID_67_" width="1170.088" height="492.17"/>
	</defs>
	<clipPath id="SVGID_4_">
		<use xlink:href="#SVGID_67_"  overflow="visible"/>
	</clipPath>
	<path clip-path="url(#SVGID_4_)" fill="#0046FA" d="M1066.729,355.165l-13.406,10.299c10.898,16.349,22.397,28.937,34.495,37.765
		c-9.482-1.308-19.348-1.962-29.59-1.962H686.077v17.493h372.151c11.007,0,20.869-0.598,29.59-1.799
		c-12.098,8.829-23.597,21.417-34.495,37.765l13.406,10.299c7.626-12.641,15.204-23.157,22.724-31.552
		c7.521-8.391,16.021-16.021,25.503-22.887v-0.981c-9.374-6.757-17.847-14.358-25.421-22.806
		C1081.957,378.354,1074.355,367.809,1066.729,355.165"/>
</g>
</svg>
