<?xml version="1.0" encoding="utf-8"?>
<!-- Generator: Adobe Illustrator 16.0.0, SVG Export Plug-In . SVG Version: 6.00 Build 0)  -->
<!DOCTYPE svg PUBLIC "-//W3C//DTD SVG 1.1//EN" "http://www.w3.org/Graphics/SVG/1.1/DTD/svg11.dtd">
<svg version="1.1" id="Layer_1" xmlns="http://www.w3.org/2000/svg" xmlns:xlink="http://www.w3.org/1999/xlink" x="0px" y="0px"
	 width="564px" height="1002px" viewBox="0 0 564 1002" enable-background="new 0 0 564 1002" xml:space="preserve">
<g>
	<defs>
		<rect id="SVGID_95_" width="564" height="1002"/>
	</defs>
	<clipPath id="SVGID_2_">
		<use xlink:href="#SVGID_95_"  overflow="visible"/>
	</clipPath>
	<path clip-path="url(#SVGID_2_)" fill="#231F20" d="M168.432,938.293c-1.412,1.015-2.118,2.432-2.118,4.253
		c0,1.213,0.327,2.187,0.98,2.922c0.653,0.734,1.54,1.395,2.66,1.977c0.443,0.234,1.056,0.491,1.838,0.771
		c0.781,0.278,1.335,0.53,1.662,0.752c0.327,0.222,0.49,0.53,0.49,0.927c0,0.864-0.642,1.296-1.925,1.296
		c-0.583,0-1.272-0.193-2.065-0.578s-1.342-0.688-1.645-0.91c-0.303-0.221-0.548-0.414-0.735-0.576l-2.52,4.234l0.77,0.629
		c0.513,0.398,1.348,0.794,2.503,1.19c1.155,0.396,2.374,0.595,3.657,0.595c5.67,0,8.505-2.041,8.505-6.125
		c0-0.862-0.163-1.632-0.49-2.309c-0.327-0.678-0.787-1.237-1.381-1.681c-0.595-0.442-1.161-0.793-1.698-1.05
		c-0.538-0.257-1.167-0.491-1.89-0.7c-0.117-0.022-0.286-0.069-0.507-0.141c-0.222-0.069-0.38-0.122-0.473-0.157
		c-0.093-0.035-0.233-0.088-0.42-0.157c-0.187-0.07-0.321-0.123-0.402-0.157c-0.082-0.035-0.193-0.088-0.333-0.157
		c-0.14-0.071-0.239-0.134-0.297-0.193c-0.059-0.058-0.123-0.128-0.193-0.21c-0.07-0.081-0.117-0.169-0.14-0.263
		c-0.023-0.092-0.035-0.187-0.035-0.28c0-0.42,0.146-0.705,0.438-0.856c0.291-0.151,0.787-0.228,1.487-0.228
		c1.26,0,2.59,0.373,3.99,1.12l2.029-4.06l-0.734-0.352c-0.49-0.231-1.237-0.466-2.24-0.7c-1.003-0.231-2.018-0.349-3.045-0.349
		C171.75,936.771,169.842,937.277,168.432,938.293 M150.284,941.6c0.607-0.536,1.422-0.804,2.45-0.804
		c0.933,0,1.698,0.251,2.293,0.752c0.595,0.502,0.962,1.22,1.102,2.152h-6.825C149.351,942.838,149.676,942.138,150.284,941.6
		 M162.184,946.289c0-3.056-0.892-5.406-2.677-7.052c-1.785-1.645-4.101-2.467-6.948-2.467c-2.707,0-5.028,0.933-6.965,2.799
		c-1.937,1.868-2.905,4.108-2.905,6.72c0,2.614,0.968,4.849,2.905,6.703c1.937,1.855,4.258,2.782,6.965,2.782
		c4.34,0,7.443-1.562,9.31-4.689l-4.48-2.239c-0.747,0.793-1.412,1.324-1.995,1.592c-0.583,0.269-1.377,0.403-2.38,0.403
		c-0.957,0-1.843-0.304-2.66-0.911c-0.817-0.606-1.225-1.539-1.225-2.8h13.02C162.171,946.989,162.184,946.71,162.184,946.289
		 M137.963,942.686l2.1-4.235l-0.595-0.42c-0.42-0.279-1.132-0.56-2.135-0.84s-2.1-0.42-3.29-0.42c-2.637,0-4.952,0.939-6.947,2.817
		c-1.995,1.879-2.993,4.125-2.993,6.737c0,2.589,0.998,4.812,2.993,6.667c1.995,1.855,4.31,2.782,6.947,2.782
		c1.19,0,2.304-0.152,3.343-0.454c1.038-0.303,1.703-0.543,1.994-0.718s0.52-0.32,0.683-0.438l-2.1-4.304l-0.315,0.209
		c-0.233,0.141-0.601,0.28-1.102,0.42c-0.502,0.141-1.033,0.211-1.593,0.211c-1.167,0-2.17-0.432-3.01-1.295
		c-0.84-0.862-1.26-1.913-1.26-3.15c0-1.212,0.42-2.251,1.26-3.114c0.84-0.863,1.843-1.295,3.01-1.295
		C136.19,941.846,137.193,942.126,137.963,942.686 M112.975,955.251v-9.45c0-0.188,0.046-0.443,0.14-0.771
		c0.093-0.327,0.25-0.723,0.472-1.189c0.222-0.468,0.601-0.863,1.138-1.191c0.536-0.326,1.178-0.489,1.925-0.489
		c1.376,0,2.45,0.327,3.22,0.98l2.59-5.25l-0.49-0.28c-0.304-0.187-0.782-0.373-1.435-0.56c-0.654-0.188-1.319-0.28-1.995-0.28
		c-0.654,0-1.295,0.111-1.925,0.332c-0.63,0.222-1.144,0.473-1.54,0.753c-0.397,0.279-0.77,0.595-1.12,0.945
		c-0.35,0.349-0.578,0.594-0.683,0.734s-0.181,0.258-0.227,0.35h-0.07v-2.589h-6.195v17.955H112.975z M82.069,937.296v10.045
		c0,2.986,0.775,5.139,2.327,6.457c1.552,1.318,4.019,1.977,7.403,1.977c3.383,0,5.85-0.658,7.402-1.977
		c1.552-1.318,2.328-3.471,2.328-6.457v-10.045h-6.195v8.539c0,1.773-0.269,3.033-0.805,3.779c-0.537,0.748-1.447,1.121-2.73,1.121
		c-1.284,0-2.194-0.373-2.73-1.121c-0.537-0.746-0.805-2.006-0.805-3.779v-8.539H82.069z M67.37,942.055
		c1.167,0,2.153,0.397,2.958,1.189c0.805,0.794,1.207,1.81,1.207,3.045c0,1.215-0.391,2.219-1.172,3.012
		c-0.782,0.793-1.78,1.188-2.993,1.188c-1.26,0-2.275-0.39-3.045-1.172c-0.77-0.781-1.155-1.79-1.155-3.028
		c0-1.235,0.403-2.251,1.208-3.045C65.183,942.452,66.18,942.055,67.37,942.055 M67.404,955.774c3.103,0,5.664-0.892,7.683-2.677
		c2.018-1.785,3.027-4.054,3.027-6.809c0-2.752-1.032-5.026-3.097-6.823s-4.603-2.695-7.613-2.695c-3.057,0-5.623,0.892-7.7,2.677
		c-2.077,1.785-3.115,4.066-3.115,6.842c0,2.778,0.998,5.054,2.993,6.825C61.578,954.889,64.185,955.774,67.404,955.774
		 M41.348,938.293c-1.412,1.015-2.117,2.432-2.117,4.253c0,1.213,0.326,2.187,0.98,2.922c0.652,0.734,1.539,1.395,2.66,1.977
		c0.442,0.234,1.055,0.491,1.837,0.771c0.781,0.278,1.335,0.53,1.663,0.752c0.326,0.222,0.489,0.53,0.489,0.927
		c0,0.864-0.642,1.296-1.924,1.296c-0.584,0-1.273-0.193-2.065-0.578c-0.794-0.385-1.343-0.688-1.645-0.91
		c-0.304-0.221-0.549-0.414-0.735-0.576l-2.521,4.234l0.771,0.629c0.512,0.398,1.347,0.794,2.502,1.19
		c1.155,0.396,2.374,0.595,3.658,0.595c5.67,0,8.505-2.041,8.505-6.125c0-0.862-0.164-1.632-0.49-2.309
		c-0.328-0.678-0.788-1.237-1.383-1.681c-0.595-0.442-1.161-0.793-1.697-1.05c-0.538-0.257-1.168-0.491-1.89-0.7
		c-0.118-0.022-0.287-0.069-0.508-0.141c-0.222-0.069-0.38-0.122-0.472-0.157c-0.094-0.035-0.234-0.088-0.42-0.157
		c-0.188-0.07-0.322-0.123-0.403-0.157c-0.082-0.035-0.192-0.088-0.332-0.157c-0.14-0.071-0.24-0.134-0.298-0.193
		c-0.059-0.058-0.122-0.128-0.192-0.21c-0.071-0.081-0.118-0.169-0.14-0.263c-0.024-0.092-0.035-0.187-0.035-0.28
		c0-0.42,0.145-0.705,0.437-0.856c0.291-0.151,0.788-0.228,1.488-0.228c1.259,0,2.59,0.373,3.99,1.12l2.03-4.06l-0.735-0.352
		c-0.49-0.231-1.238-0.466-2.24-0.7c-1.004-0.231-2.019-0.349-3.045-0.349C44.667,936.771,42.758,937.277,41.348,938.293"/>
	<path clip-path="url(#SVGID_2_)" fill="#231F20" d="M465.562,886.295v4.725h2.591v6.896c0,0.864,0.093,1.675,0.279,2.433
		c0.187,0.759,0.495,1.482,0.928,2.17c0.432,0.688,1.067,1.237,1.907,1.645c0.841,0.408,1.844,0.613,3.011,0.613
		c1.703,0,3.22-0.374,4.55-1.12l-1.54-5.005l-0.21,0.14c-0.141,0.094-0.339,0.187-0.595,0.28c-0.258,0.094-0.502,0.14-0.735,0.14
		c-0.935,0-1.4-0.828-1.4-2.485v-5.705h3.78v-4.725h-3.78v-6.685h-6.194v6.685H465.562z M442.567,886.295v10.045
		c0,2.987,0.774,5.141,2.326,6.458c1.553,1.318,4.02,1.978,7.403,1.978c3.383,0,5.851-0.659,7.402-1.978
		c1.552-1.317,2.328-3.471,2.328-6.458v-10.045h-6.195v8.54c0,1.774-0.27,3.034-0.805,3.78c-0.537,0.747-1.447,1.12-2.73,1.12
		c-1.284,0-2.194-0.373-2.729-1.12c-0.537-0.746-0.806-2.006-0.806-3.78v-8.54H442.567z M427.867,891.055
		c1.166,0,2.151,0.397,2.957,1.19c0.805,0.794,1.208,1.809,1.208,3.045c0,1.214-0.392,2.217-1.173,3.01
		c-0.782,0.794-1.779,1.19-2.992,1.19c-1.26,0-2.275-0.391-3.045-1.173c-0.771-0.781-1.155-1.79-1.155-3.027
		c0-1.236,0.402-2.251,1.207-3.045C425.679,891.452,426.677,891.055,427.867,891.055 M427.902,904.775
		c3.103,0,5.664-0.894,7.682-2.678s3.028-4.054,3.028-6.808c0-2.753-1.033-5.028-3.099-6.825c-2.064-1.796-4.602-2.695-7.611-2.695
		c-3.058,0-5.624,0.893-7.7,2.679c-2.077,1.785-3.115,4.065-3.115,6.842c0,2.777,0.997,5.052,2.992,6.825
		S424.682,904.775,427.902,904.775 M403.297,899.49c-1.214,0-2.211-0.396-2.993-1.19c-0.781-0.793-1.172-1.796-1.172-3.01
		c0-1.236,0.402-2.251,1.207-3.045c0.805-0.793,1.791-1.19,2.958-1.19c1.19,0,2.188,0.397,2.992,1.19
		c0.805,0.794,1.208,1.809,1.208,3.045c0,1.237-0.385,2.246-1.155,3.027C405.572,899.1,404.557,899.49,403.297,899.49
		 M405.152,885.77c-2.38,0-4.341,0.747-5.88,2.24V874.15h-6.195v30.1h6.125v-2.03h0.07c1.539,1.704,3.5,2.556,5.88,2.556
		c2.59,0,4.725-0.915,6.404-2.747c1.681-1.832,2.521-4.078,2.521-6.738s-0.84-4.911-2.521-6.755
		C409.877,886.692,407.742,885.77,405.152,885.77 M377.257,891.055c1.166,0,2.152,0.397,2.957,1.19
		c0.805,0.794,1.208,1.809,1.208,3.045c0,1.214-0.391,2.217-1.173,3.01c-0.782,0.794-1.779,1.19-2.992,1.19
		c-1.26,0-2.274-0.391-3.045-1.173c-0.77-0.781-1.155-1.79-1.155-3.027c0-1.236,0.402-2.251,1.207-3.045
		C375.069,891.452,376.067,891.055,377.257,891.055 M375.402,904.775c2.38,0,4.34-0.852,5.88-2.556h0.069v2.03h6.125v-17.955h-6.194
		v1.715c-1.54-1.493-3.5-2.24-5.88-2.24c-2.591,0-4.726,0.923-6.405,2.766c-1.68,1.844-2.521,4.095-2.521,6.755
		s0.841,4.906,2.521,6.738S372.812,904.775,375.402,904.775 M338.477,904.25V894.1c0-0.886,0.38-1.69,1.139-2.415
		c0.758-0.723,1.604-1.085,2.537-1.085c0.957,0,1.732,0.351,2.328,1.051c0.595,0.699,0.892,1.517,0.892,2.449v10.15h6.195v-11.83
		c0-1.189-0.251-2.234-0.752-3.133c-0.503-0.897-1.155-1.592-1.96-2.082c-0.806-0.49-1.646-0.852-2.521-1.085
		s-1.756-0.351-2.643-0.351c-1.82,0-3.535,0.806-5.146,2.415h-0.07v-1.89h-6.194v17.955H338.477z M317.302,891.055
		c1.167,0,2.153,0.397,2.958,1.19c0.806,0.794,1.207,1.809,1.207,3.045c0,1.214-0.391,2.217-1.172,3.01
		c-0.782,0.794-1.78,1.19-2.993,1.19c-1.26,0-2.274-0.391-3.045-1.173c-0.77-0.781-1.155-1.79-1.155-3.027
		c0-1.236,0.403-2.251,1.208-3.045C315.115,891.452,316.112,891.055,317.302,891.055 M317.337,904.775
		c3.104,0,5.664-0.894,7.683-2.678s3.027-4.054,3.027-6.808c0-2.753-1.032-5.028-3.097-6.825c-2.065-1.796-4.604-2.695-7.613-2.695
		c-3.057,0-5.623,0.893-7.7,2.679c-2.077,1.785-3.114,4.065-3.114,6.842c0,2.777,0.997,5.052,2.992,6.825
		S314.117,904.775,317.337,904.775 M302.043,904.25h-6.195v-17.955h6.195V904.25z M295.358,878.875c0,1.004,0.36,1.867,1.085,2.59
		c0.723,0.725,1.586,1.085,2.59,1.085c1.003,0,1.866-0.36,2.59-1.085c0.723-0.723,1.085-1.586,1.085-2.59
		c0-1.003-0.362-1.866-1.085-2.59c-0.724-0.724-1.587-1.085-2.59-1.085c-1.004,0-1.867,0.361-2.59,1.085
		C295.719,877.009,295.358,877.872,295.358,878.875 M279.083,886.295v4.725h2.59v6.896c0,0.864,0.093,1.675,0.28,2.433
		c0.187,0.759,0.496,1.482,0.928,2.17c0.431,0.688,1.067,1.237,1.907,1.645c0.84,0.408,1.843,0.613,3.01,0.613
		c1.703,0,3.22-0.374,4.55-1.12l-1.54-5.005l-0.21,0.14c-0.14,0.094-0.338,0.187-0.595,0.28s-0.502,0.14-0.735,0.14
		c-0.933,0-1.399-0.828-1.399-2.485v-5.705h3.78v-4.725h-3.78v-6.685h-6.195v6.685H279.083z M265.048,891.055
		c1.166,0,2.152,0.397,2.957,1.19c0.805,0.794,1.208,1.809,1.208,3.045c0,1.214-0.391,2.217-1.173,3.01
		c-0.782,0.794-1.779,1.19-2.992,1.19c-1.26,0-2.275-0.391-3.045-1.173c-0.771-0.781-1.155-1.79-1.155-3.027
		c0-1.236,0.402-2.251,1.208-3.045C262.86,891.452,263.858,891.055,265.048,891.055 M263.192,904.775c2.38,0,4.341-0.852,5.88-2.556
		h0.07v2.03h6.125v-17.955h-6.195v1.715c-1.54-1.493-3.5-2.24-5.88-2.24c-2.589,0-4.725,0.923-6.404,2.766
		c-1.68,1.844-2.52,4.095-2.52,6.755s0.84,4.906,2.52,6.738C258.468,903.86,260.603,904.775,263.192,904.775 M225.883,904.25v-10.5
		c0-0.816,0.239-1.523,0.718-2.118c0.478-0.595,1.195-0.892,2.152-0.892c1.05,0,1.838,0.32,2.363,0.963
		c0.525,0.642,0.787,1.44,0.787,2.396v10.15h6.195v-10.71c0.047-0.771,0.31-1.429,0.788-1.977c0.478-0.549,1.172-0.823,2.082-0.823
		c1.05,0,1.838,0.32,2.363,0.963c0.525,0.642,0.787,1.44,0.787,2.396v10.15h6.195v-11.83c0-2.286-0.688-3.966-2.065-5.04
		c-1.377-1.073-3.022-1.61-4.935-1.61c-2.147,0-4.13,1.098-5.95,3.29c-0.583-1.119-1.447-1.947-2.59-2.484
		c-1.143-0.536-2.368-0.806-3.675-0.806c-1.82,0-3.535,0.806-5.145,2.415h-0.07v-1.89h-6.195v17.955H225.883z M207.054,904.25v-9.45
		c0-0.186,0.045-0.442,0.14-0.77c0.093-0.326,0.25-0.724,0.472-1.19c0.222-0.466,0.601-0.863,1.138-1.189
		c0.536-0.326,1.178-0.49,1.925-0.49c1.376,0,2.45,0.327,3.22,0.979l2.59-5.25l-0.49-0.279c-0.304-0.187-0.782-0.373-1.435-0.561
		c-0.654-0.186-1.319-0.28-1.995-0.28c-0.654,0-1.295,0.111-1.925,0.332c-0.629,0.224-1.144,0.474-1.54,0.754
		c-0.397,0.279-0.77,0.595-1.12,0.944c-0.351,0.351-0.578,0.595-0.683,0.735c-0.105,0.14-0.181,0.257-0.227,0.35h-0.07v-2.59h-6.195
		v17.955H207.054z M185.879,891.055c1.166,0,2.152,0.397,2.957,1.19c0.805,0.794,1.208,1.809,1.208,3.045
		c0,1.214-0.391,2.217-1.173,3.01c-0.782,0.794-1.779,1.19-2.992,1.19c-1.26,0-2.275-0.391-3.045-1.173
		c-0.77-0.781-1.155-1.79-1.155-3.027c0-1.236,0.402-2.251,1.207-3.045C183.691,891.452,184.689,891.055,185.879,891.055
		 M185.914,904.775c3.103,0,5.664-0.894,7.682-2.678c2.018-1.784,3.028-4.054,3.028-6.808c0-2.753-1.033-5.028-3.098-6.825
		c-2.065-1.796-4.602-2.695-7.612-2.695c-3.058,0-5.624,0.893-7.7,2.679c-2.077,1.785-3.115,4.065-3.115,6.842
		c0,2.777,0.997,5.052,2.992,6.825C180.086,903.889,182.694,904.775,185.914,904.775 M160.329,886.295v4.725h2.59v13.23h6.195
		v-13.23h4.13v-4.725h-4.13v-3.64c0-1.307,0.128-2.223,0.385-2.747c0.256-0.526,0.77-0.788,1.54-0.788
		c0.676,0,1.295,0.164,1.855,0.49l2.17-4.375l-0.595-0.386c-0.374-0.279-0.986-0.554-1.838-0.821
		c-0.852-0.269-1.744-0.403-2.677-0.403c-2.194,0-3.909,0.805-5.145,2.415c-1.237,1.61-1.867,3.757-1.89,6.44v3.814H160.329z
		 M143.529,904.25V894.1c0-0.886,0.379-1.69,1.138-2.415c0.758-0.723,1.604-1.085,2.537-1.085c0.957,0,1.733,0.351,2.328,1.051
		c0.595,0.699,0.892,1.517,0.892,2.449v10.15h6.195v-11.83c0-1.189-0.251-2.234-0.752-3.133c-0.502-0.897-1.155-1.592-1.96-2.082
		c-0.805-0.49-1.645-0.852-2.52-1.085s-1.756-0.351-2.643-0.351c-1.82,0-3.535,0.806-5.145,2.415h-0.07v-1.89h-6.195v17.955H143.529
		z M131.56,904.25h-6.195v-17.955h6.195V904.25z M124.875,878.875c0,1.004,0.361,1.867,1.085,2.59
		c0.723,0.725,1.586,1.085,2.59,1.085c1.003,0,1.866-0.36,2.59-1.085c0.723-0.723,1.085-1.586,1.085-2.59
		c0-1.003-0.362-1.866-1.085-2.59c-0.724-0.724-1.586-1.085-2.59-1.085c-1.004,0-1.867,0.361-2.59,1.085
		C125.236,877.009,124.875,877.872,124.875,878.875 M98.59,891.055c1.166,0,2.152,0.397,2.957,1.19
		c0.805,0.794,1.208,1.809,1.208,3.045c0,1.214-0.391,2.217-1.173,3.01c-0.782,0.794-1.779,1.19-2.992,1.19
		c-1.26,0-2.275-0.391-3.045-1.173c-0.77-0.781-1.155-1.79-1.155-3.027c0-1.236,0.402-2.251,1.208-3.045
		C96.402,891.452,97.4,891.055,98.59,891.055 M96.735,904.775c2.38,0,4.34-0.852,5.88-2.556h0.07v2.03h6.125v-30.1h-6.195v13.859
		c-1.54-1.493-3.5-2.24-5.88-2.24c-2.59,0-4.725,0.923-6.405,2.766c-1.68,1.844-2.52,4.095-2.52,6.755s0.84,4.906,2.52,6.738
		C92.01,903.86,94.145,904.775,96.735,904.775 M70.765,904.25V894.1c0-0.886,0.379-1.69,1.137-2.415
		c0.758-0.723,1.604-1.085,2.538-1.085c0.956,0,1.732,0.351,2.327,1.051c0.595,0.699,0.893,1.517,0.893,2.449v10.15h6.195v-11.83
		c0-1.189-0.251-2.234-0.753-3.133c-0.502-0.897-1.155-1.592-1.96-2.082c-0.805-0.49-1.645-0.852-2.52-1.085
		s-1.756-0.351-2.642-0.351c-1.82,0-3.535,0.806-5.145,2.415h-0.07v-1.89H64.57v17.955H70.765z M48.75,891.055
		c1.166,0,2.153,0.397,2.957,1.19c0.806,0.794,1.208,1.809,1.208,3.045c0,1.214-0.391,2.217-1.172,3.01
		c-0.783,0.794-1.78,1.19-2.993,1.19c-1.26,0-2.275-0.391-3.045-1.173c-0.77-0.781-1.155-1.79-1.155-3.027
		c0-1.236,0.402-2.251,1.208-3.045C46.562,891.452,47.56,891.055,48.75,891.055 M46.895,904.775c2.38,0,4.34-0.852,5.88-2.556h0.07
		v2.03h6.125v-17.955h-6.195v1.715c-1.54-1.493-3.5-2.24-5.88-2.24c-2.59,0-4.725,0.923-6.405,2.766
		c-1.68,1.844-2.52,4.095-2.52,6.755s0.84,4.906,2.52,6.738C42.17,903.86,44.305,904.775,46.895,904.775"/>
	<path clip-path="url(#SVGID_2_)" fill="#231F20" d="M472.019,836.292c-1.411,1.015-2.117,2.433-2.117,4.253
		c0,1.214,0.326,2.188,0.979,2.922c0.653,0.735,1.54,1.396,2.66,1.979c0.443,0.233,1.056,0.489,1.838,0.77
		c0.781,0.28,1.335,0.531,1.662,0.752c0.327,0.224,0.49,0.532,0.49,0.928c0,0.864-0.643,1.296-1.925,1.296
		c-0.583,0-1.272-0.193-2.065-0.577c-0.793-0.386-1.342-0.688-1.645-0.911c-0.304-0.221-0.549-0.413-0.735-0.577l-2.521,4.235
		l0.771,0.63c0.513,0.396,1.348,0.794,2.503,1.189c1.155,0.396,2.374,0.596,3.657,0.596c5.67,0,8.505-2.041,8.505-6.125
		c0-0.863-0.163-1.634-0.49-2.311c-0.327-0.676-0.787-1.236-1.382-1.68s-1.161-0.793-1.698-1.05s-1.167-0.49-1.89-0.7
		c-0.117-0.023-0.286-0.07-0.507-0.141c-0.223-0.069-0.381-0.121-0.474-0.156c-0.093-0.036-0.232-0.088-0.42-0.158
		c-0.187-0.07-0.321-0.122-0.401-0.157c-0.082-0.036-0.193-0.088-0.333-0.158c-0.141-0.069-0.239-0.134-0.298-0.192
		c-0.059-0.058-0.123-0.127-0.192-0.209c-0.07-0.082-0.117-0.169-0.141-0.264c-0.022-0.093-0.034-0.186-0.034-0.279
		c0-0.42,0.146-0.705,0.438-0.858c0.291-0.151,0.787-0.227,1.487-0.227c1.26,0,2.59,0.374,3.99,1.12l2.029-4.061l-0.734-0.35
		c-0.49-0.233-1.237-0.467-2.24-0.7s-2.019-0.351-3.045-0.351C475.338,834.77,473.43,835.277,472.019,836.292 M453.171,835.295
		v4.725h2.59v6.896c0,0.864,0.093,1.675,0.28,2.433c0.187,0.759,0.496,1.482,0.928,2.17c0.432,0.688,1.067,1.237,1.907,1.646
		c0.84,0.407,1.843,0.612,3.01,0.612c1.703,0,3.221-0.374,4.55-1.12l-1.539-5.005l-0.211,0.14c-0.14,0.094-0.338,0.187-0.595,0.28
		s-0.502,0.14-0.734,0.14c-0.934,0-1.4-0.828-1.4-2.485v-5.705h3.78v-4.725h-3.78v-6.685h-6.195v6.685H453.171z M436.581,853.25
		V843.1c0-0.886,0.379-1.69,1.138-2.415c0.758-0.723,1.604-1.085,2.537-1.085c0.957,0,1.733,0.351,2.328,1.051
		c0.595,0.699,0.892,1.517,0.892,2.449v10.15h6.195v-11.83c0-1.189-0.251-2.234-0.752-3.132c-0.502-0.898-1.155-1.593-1.96-2.083
		s-1.645-0.852-2.52-1.085s-1.757-0.351-2.644-0.351c-1.82,0-3.535,0.806-5.145,2.415h-0.07v-1.89h-6.195v17.955H436.581z
		 M414.252,839.6c0.606-0.535,1.423-0.805,2.45-0.805c0.933,0,1.697,0.251,2.292,0.753s0.963,1.219,1.103,2.152h-6.825
		C413.318,840.837,413.645,840.137,414.252,839.6 M426.152,844.29c0-3.056-0.894-5.407-2.679-7.052
		c-1.784-1.646-4.101-2.469-6.946-2.469c-2.707,0-5.029,0.935-6.966,2.801c-1.937,1.867-2.904,4.106-2.904,6.72
		c0,2.614,0.968,4.847,2.904,6.702s4.259,2.783,6.966,2.783c4.34,0,7.442-1.563,9.31-4.69l-4.479-2.24
		c-0.747,0.794-1.412,1.325-1.995,1.593c-0.584,0.269-1.377,0.402-2.38,0.402c-0.957,0-1.845-0.303-2.66-0.91
		c-0.817-0.605-1.226-1.54-1.226-2.8h13.021C426.14,844.99,426.152,844.71,426.152,844.29 M378.271,853.25v-10.5
		c0-0.816,0.239-1.523,0.719-2.117c0.478-0.595,1.194-0.893,2.151-0.893c1.051,0,1.839,0.32,2.363,0.962
		c0.525,0.643,0.787,1.441,0.787,2.397v10.15h6.195v-10.71c0.047-0.771,0.309-1.429,0.788-1.978
		c0.478-0.548,1.172-0.822,2.082-0.822c1.05,0,1.838,0.32,2.362,0.962c0.525,0.643,0.787,1.441,0.787,2.397v10.15h6.195v-11.83
		c0-2.286-0.688-3.966-2.065-5.04c-1.377-1.073-3.021-1.61-4.935-1.61c-2.147,0-4.13,1.098-5.95,3.29
		c-0.583-1.119-1.447-1.947-2.59-2.484c-1.144-0.536-2.368-0.806-3.675-0.806c-1.82,0-3.535,0.806-5.146,2.415h-0.07v-1.89h-6.194
		v17.955H378.271z M356.257,840.055c1.167,0,2.153,0.397,2.958,1.19c0.805,0.794,1.207,1.809,1.207,3.045
		c0,1.214-0.391,2.217-1.172,3.01c-0.782,0.794-1.78,1.19-2.993,1.19c-1.26,0-2.274-0.391-3.045-1.172
		c-0.77-0.782-1.155-1.791-1.155-3.028c0-1.236,0.403-2.251,1.208-3.045C354.07,840.452,355.067,840.055,356.257,840.055
		 M355.907,862.875c3.173,0,5.728-0.794,7.665-2.38c1.937-1.587,2.904-3.839,2.904-6.755v-18.445h-6.194v1.61h-0.105
		c-1.54-1.423-3.465-2.136-5.774-2.136c-2.591,0-4.726,0.923-6.405,2.766c-1.68,1.844-2.521,4.095-2.521,6.755
		s0.841,4.906,2.521,6.737c1.68,1.833,3.814,2.748,6.405,2.748c2.822,0,4.782-0.606,5.88-1.82v1.33c0,1.423-0.461,2.479-1.382,3.167
		c-0.923,0.688-1.92,1.033-2.993,1.033c-2.311,0-3.933-0.771-4.865-2.311l-5.075,2.485
		C347.46,861.136,350.774,862.875,355.907,862.875 M330.952,840.055c1.167,0,2.153,0.397,2.958,1.19
		c0.805,0.794,1.207,1.809,1.207,3.045c0,1.214-0.392,2.217-1.172,3.01c-0.782,0.794-1.78,1.19-2.993,1.19
		c-1.26,0-2.275-0.391-3.045-1.172c-0.771-0.782-1.155-1.791-1.155-3.028c0-1.236,0.403-2.251,1.208-3.045
		C328.765,840.452,329.762,840.055,330.952,840.055 M329.097,853.775c2.38,0,4.34-0.852,5.88-2.556h0.07v2.03h6.125v-17.955h-6.195
		v1.715c-1.54-1.493-3.5-2.24-5.88-2.24c-2.59,0-4.725,0.923-6.404,2.766c-1.681,1.844-2.521,4.095-2.521,6.755
		s0.84,4.906,2.521,6.737C324.372,852.86,326.507,853.775,329.097,853.775 M309.113,853.25v-9.45c0-0.186,0.046-0.442,0.14-0.77
		c0.093-0.326,0.25-0.724,0.472-1.19c0.223-0.466,0.601-0.863,1.139-1.189c0.536-0.326,1.178-0.49,1.925-0.49
		c1.376,0,2.45,0.327,3.22,0.979l2.59-5.25l-0.489-0.279c-0.305-0.187-0.783-0.373-1.436-0.561c-0.654-0.186-1.319-0.28-1.995-0.28
		c-0.653,0-1.295,0.111-1.925,0.332c-0.63,0.224-1.144,0.474-1.54,0.754c-0.397,0.279-0.77,0.595-1.12,0.944
		c-0.35,0.351-0.578,0.595-0.683,0.735c-0.105,0.14-0.182,0.257-0.228,0.35h-0.069v-2.59h-6.195v17.955H309.113z M286.853,835.295
		v4.725h2.591v13.23h6.193v-13.23h4.131v-4.725h-4.131v-3.64c0-1.307,0.128-2.224,0.387-2.747c0.256-0.525,0.77-0.788,1.539-0.788
		c0.677,0,1.296,0.164,1.855,0.49l2.17-4.375l-0.595-0.386c-0.374-0.279-0.986-0.554-1.838-0.822
		c-0.853-0.268-1.744-0.402-2.678-0.402c-2.193,0-3.908,0.805-5.145,2.415c-1.238,1.61-1.868,3.757-1.89,6.44v3.814H286.853z
		 M271.838,823.15h-6.195v30.1h6.195V823.15z M260.043,823.15h-6.195v30.1h6.195V823.15z M238.028,840.055
		c1.166,0,2.152,0.397,2.957,1.19c0.805,0.794,1.208,1.809,1.208,3.045c0,1.214-0.391,2.217-1.172,3.01
		c-0.782,0.794-1.779,1.19-2.992,1.19c-1.26,0-2.275-0.391-3.045-1.172c-0.77-0.782-1.154-1.791-1.154-3.028
		c0-1.236,0.402-2.251,1.207-3.045C235.84,840.452,236.838,840.055,238.028,840.055 M236.173,853.775c2.38,0,4.34-0.852,5.88-2.556
		h0.07v2.03h6.125v-17.955h-6.195v1.715c-1.54-1.493-3.5-2.24-5.88-2.24c-2.59,0-4.725,0.923-6.405,2.766
		c-1.68,1.844-2.52,4.095-2.52,6.755s0.84,4.906,2.52,6.737C231.448,852.86,233.583,853.775,236.173,853.775 M201.522,835.295v4.725
		h2.59v13.23h6.195v-13.23h4.13v-4.725h-4.13v-3.64c0-1.307,0.128-2.224,0.385-2.747c0.258-0.525,0.771-0.788,1.54-0.788
		c0.678,0,1.295,0.164,1.855,0.49l2.17-4.375l-0.595-0.386c-0.373-0.279-0.986-0.554-1.837-0.822
		c-0.853-0.268-1.745-0.402-2.678-0.402c-2.193,0-3.908,0.805-5.145,2.415c-1.237,1.61-1.867,3.757-1.89,6.44v3.814H201.522z
		 M188.188,840.055c1.166,0,2.152,0.397,2.957,1.19c0.805,0.794,1.208,1.809,1.208,3.045c0,1.214-0.391,2.217-1.173,3.01
		c-0.782,0.794-1.779,1.19-2.992,1.19c-1.26,0-2.275-0.391-3.045-1.172c-0.77-0.782-1.155-1.791-1.155-3.028
		c0-1.236,0.402-2.251,1.207-3.045C186,840.452,186.998,840.055,188.188,840.055 M188.223,853.775c3.103,0,5.664-0.893,7.682-2.678
		c2.018-1.785,3.028-4.054,3.028-6.808c0-2.753-1.033-5.028-3.098-6.825c-2.065-1.796-4.602-2.695-7.612-2.695
		c-3.057,0-5.624,0.894-7.701,2.678c-2.077,1.785-3.114,4.066-3.114,6.843c0,2.777,0.997,5.052,2.992,6.825
		S185.003,853.775,188.223,853.775 M151.928,840.055c1.167,0,2.153,0.397,2.958,1.19c0.805,0.794,1.207,1.809,1.207,3.045
		c0,1.214-0.391,2.217-1.172,3.01c-0.782,0.794-1.78,1.19-2.993,1.19c-1.26,0-2.275-0.391-3.045-1.172
		c-0.77-0.782-1.155-1.791-1.155-3.028c0-1.236,0.403-2.251,1.208-3.045C149.741,840.452,150.738,840.055,151.928,840.055
		 M151.578,862.875c3.173,0,5.728-0.794,7.665-2.38c1.937-1.587,2.905-3.839,2.905-6.755v-18.445h-6.195v1.61h-0.105
		c-1.54-1.423-3.465-2.136-5.774-2.136c-2.59,0-4.726,0.923-6.405,2.766c-1.68,1.844-2.52,4.095-2.52,6.755s0.84,4.906,2.52,6.737
		c1.68,1.833,3.815,2.748,6.405,2.748c2.823,0,4.783-0.606,5.88-1.82v1.33c0,1.423-0.461,2.479-1.382,3.167
		c-0.922,0.688-1.92,1.033-2.993,1.033c-2.31,0-3.932-0.771-4.865-2.311l-5.075,2.485
		C143.131,861.136,146.445,862.875,151.578,862.875 M124.103,853.25V843.1c0-0.886,0.379-1.69,1.138-2.415
		c0.758-0.723,1.604-1.085,2.537-1.085c0.957,0,1.733,0.351,2.328,1.051c0.595,0.699,0.892,1.517,0.892,2.449v10.15h6.195v-11.83
		c0-1.189-0.251-2.234-0.752-3.132c-0.502-0.898-1.155-1.593-1.96-2.083s-1.645-0.852-2.52-1.085s-1.756-0.351-2.643-0.351
		c-1.82,0-3.535,0.806-5.145,2.415h-0.07v-1.89h-6.195v17.955H124.103z M112.134,853.25h-6.195v-17.955h6.195V853.25z
		 M105.449,827.875c0,1.004,0.361,1.867,1.085,2.59c0.723,0.725,1.586,1.085,2.59,1.085c1.003,0,1.866-0.36,2.59-1.085
		c0.723-0.723,1.085-1.586,1.085-2.59c0-1.003-0.362-1.866-1.085-2.59c-0.724-0.723-1.587-1.085-2.59-1.085
		c-1.004,0-1.867,0.362-2.59,1.085C105.81,826.009,105.449,826.872,105.449,827.875 M89.174,835.295v4.725h2.59v6.896
		c0,0.864,0.093,1.675,0.28,2.433c0.187,0.759,0.496,1.482,0.928,2.17c0.431,0.688,1.067,1.237,1.907,1.646
		c0.84,0.407,1.843,0.612,3.01,0.612c1.703,0,3.22-0.374,4.55-1.12l-1.54-5.005l-0.21,0.14c-0.14,0.094-0.338,0.187-0.595,0.28
		c-0.257,0.094-0.502,0.14-0.735,0.14c-0.933,0-1.4-0.828-1.4-2.485v-5.705h3.78v-4.725h-3.78v-6.685h-6.195v6.685H89.174z
		 M74.492,836.292c-1.412,1.015-2.118,2.433-2.118,4.253c0,1.214,0.327,2.188,0.98,2.922c0.653,0.735,1.54,1.396,2.66,1.979
		c0.443,0.233,1.056,0.489,1.838,0.77c0.781,0.28,1.335,0.531,1.662,0.752c0.327,0.224,0.49,0.532,0.49,0.928
		c0,0.864-0.642,1.296-1.925,1.296c-0.583,0-1.272-0.193-2.065-0.577c-0.793-0.386-1.342-0.688-1.645-0.911
		c-0.303-0.221-0.548-0.413-0.735-0.577l-2.52,4.235l0.77,0.63c0.513,0.396,1.348,0.794,2.503,1.189
		c1.155,0.396,2.374,0.596,3.657,0.596c5.67,0,8.505-2.041,8.505-6.125c0-0.863-0.163-1.634-0.49-2.311
		c-0.327-0.676-0.787-1.236-1.382-1.68c-0.595-0.443-1.161-0.793-1.698-1.05s-1.167-0.49-1.89-0.7
		c-0.117-0.023-0.286-0.07-0.507-0.141c-0.222-0.069-0.38-0.121-0.473-0.156c-0.093-0.036-0.233-0.088-0.42-0.158
		s-0.321-0.122-0.402-0.157c-0.082-0.036-0.193-0.088-0.333-0.158c-0.14-0.069-0.239-0.134-0.297-0.192
		c-0.06-0.058-0.123-0.127-0.193-0.209c-0.07-0.082-0.117-0.169-0.14-0.264c-0.023-0.093-0.035-0.186-0.035-0.279
		c0-0.42,0.146-0.705,0.438-0.858c0.291-0.151,0.787-0.227,1.487-0.227c1.26,0,2.59,0.374,3.99,1.12l2.03-4.061l-0.735-0.35
		c-0.49-0.233-1.237-0.467-2.24-0.7c-1.003-0.233-2.018-0.351-3.045-0.351C77.811,834.77,75.903,835.277,74.492,836.292
		 M66.635,853.25H60.44v-17.955h6.195V853.25z M59.95,827.875c0,1.004,0.361,1.867,1.085,2.59c0.723,0.725,1.586,1.085,2.59,1.085
		c1.003,0,1.866-0.36,2.59-1.085c0.723-0.723,1.085-1.586,1.085-2.59c0-1.003-0.362-1.866-1.085-2.59
		c-0.724-0.723-1.587-1.085-2.59-1.085c-1.004,0-1.867,0.362-2.59,1.085C60.311,826.009,59.95,826.872,59.95,827.875
		 M39.265,824.375v28.875h16.52v-5.775h-9.94v-23.1H39.265z"/>
	<path clip-path="url(#SVGID_2_)" fill="#231F20" d="M127.813,516.695V282.453h19.18c15.755,0,26.769,3.543,33.051,10.618
		c6.278,7.08,9.419,17.468,9.419,31.167v146.561c0,15.756-3.141,27.348-9.419,34.765c-6.282,7.423-17.296,11.132-33.051,11.132
		H127.813z M59.997,282.453h22.605v233.899H59.997v43.498h86.996c29.68,0,51.718-6.904,66.103-20.721
		c14.385-13.813,21.578-35.22,21.578-64.22V324.238c0-28.994-7.193-50.4-21.578-64.219c-14.385-13.812-36.423-20.721-66.103-20.721
		H59.997V282.453z"/>
</g>
<line fill="none" stroke="#0046F9" stroke-width="2" x1="282" y1="219" x2="282" y2="595.15"/>
<g>
	<defs>
		<rect id="SVGID_97_" width="564" height="1002"/>
	</defs>
	<clipPath id="SVGID_4_">
		<use xlink:href="#SVGID_97_"  overflow="visible"/>
	</clipPath>
	<polygon clip-path="url(#SVGID_4_)" fill="none" stroke="#0046F9" stroke-width="1.998" points="0.999,3 0.999,999 0.999,1001.002 
		3,1001.002 561,1001.002 563.001,1001.002 563.001,999 563.001,3 563.001,0.998 561,0.998 3,0.998 0.999,0.998 	"/>
</g>
<rect x="5.001" y="5.002" fill="none" stroke="#0046F9" stroke-width="1.998" width="553.998" height="991.996"/>
<g>
	<defs>
		<rect id="SVGID_99_" width="564" height="1002"/>
	</defs>
	<clipPath id="SVGID_6_">
		<use xlink:href="#SVGID_99_"  overflow="visible"/>
	</clipPath>
	<path clip-path="url(#SVGID_6_)" fill="#0046F9" d="M513.835,68.478c0-10.979-0.72-35.28-18-34.92
		c-14.399,0.36-16.739,19.44-16.739,30.96c0,10.26,4.14,23.4,8.1,34.02c7.74,18.541,11.88,28.44,11.88,39.601
		c0,8.46-0.359,12.78-3.06,12.78c-3.96,0-3.96-18.541-3.96-22.681l-14.58,2.16c0,12.06-0.36,38.34,18.54,38.34
		c15.479,0,17.819-18.899,17.819-31.5c0-13.319-4.859-25.92-11.34-41.58c-5.22-13.14-8.819-22.5-8.819-31.14
		c0-7.74,0.359-13.141,2.52-13.141c2.88,0,2.88,14.58,2.88,19.261L513.835,68.478z M438.058,54.978v112.319h14.939V54.978h10.98
		V34.998h-36.9v19.979H438.058z M398.817,167.297h12.6V34.998h-13.859v62.459l-10.8-62.459h-12.601v132.299h13.86v-64.26
		L398.817,167.297z M326.64,167.297h29.88v-19.979h-14.94v-36.36h10.8v-21.24h-10.8V54.978h14.94V34.998h-29.88V167.297z
		 M287.581,167.297l5.04-65.159v65.159h14.221V34.998h-16.561l-6.84,62.459l-6.84-62.459h-16.56v132.299h13.86v-65.159l5.58,65.159
		H287.581z M225.301,34.998v106.92c0,4.319-0.54,7.92-2.7,7.92c-2.34,0-2.88-2.881-2.88-7.92V34.998h-14.94v106.92
		c0,13.5,3.42,26.819,17.82,26.819c13.5,0,17.64-11.88,17.64-26.819V34.998H225.301z M174.002,121.938v19.98
		c0,2.52-0.18,7.92-3.06,7.92c-2.16,0-2.52-5.4-2.52-7.92V59.657c0-2.88,0.18-7.2,2.52-7.2c2.88,0,3.06,5.58,3.06,7.92v19.98h14.58
		v-19.98c0-9.359-3.42-26.819-17.82-26.819c-13.5,0-17.64,15.12-17.64,26.819v81.541c0,11.699,3.6,26.819,17.64,26.819
		c13.68,0,17.82-12.96,17.82-26.819v-19.98H174.002z M121.804,141.918c0,4.14-1.08,7.92-2.88,7.92c-1.62,0-3.06-3.061-3.06-7.92
		V60.377c0-4.319,1.08-7.92,3.06-7.92s2.88,3.78,2.88,7.92V141.918z M136.745,60.377c0-10.799-3.6-26.819-18-26.819
		c-13.5,0-18.18,13.14-18.18,26.819v81.541c0,12.6,4.14,26.819,18.18,26.819c13.68,0,18-13.14,18-26.819V60.377z M62.046,54.438
		c2.16,0.18,4.86-0.359,5.4,4.32c0.9,8.1,0.54,20.88,0.54,48.06v30.96c0,10.62-3.6,10.08-5.94,10.08V54.438z M61.506,167.297
		c11.88,0,16.2-4.68,18.54-11.699c2.7-7.92,2.7-28.44,2.7-54.36s-0.36-42.479-3.42-52.56c-3.24-10.08-7.92-13.68-19.8-13.68h-12.42
		v132.299H61.506z"/>
</g>
<line fill="none" stroke="#0046F9" stroke-width="2" x1="23.478" y1="197" x2="536.479" y2="197"/>
<line fill="none" stroke="#0046F9" stroke-width="2" x1="23.478" y1="616" x2="536.479" y2="616"/>
<line fill="none" stroke="#0046F9" stroke-width="2" x1="23.478" y1="790" x2="536.479" y2="790"/>
<g>
	<defs>
		<rect id="SVGID_101_" width="564" height="1002"/>
	</defs>
	<clipPath id="SVGID_8_">
		<use xlink:href="#SVGID_101_"  overflow="visible"/>
	</clipPath>
	<path clip-path="url(#SVGID_8_)" fill="#231F20" d="M477.478,513.447h45.298v47.887h-45.298V513.447z M325.191,344.766v-22.002
		c0-21.139,3.02-41.848,12.08-56.946c9.059-15.101,24.59-25.022,50.043-25.022c23.728,0,39.689,9.06,49.181,22.865
		c9.491,14.236,12.943,34.081,12.943,56.083c0,32.356-12.08,70.752-27.18,106.56c-15.53,36.238-33.65,68.594-45.729,88.871H450.3
		v46.16H323.897v-46.16c14.235-22.002,27.179-44.437,38.827-66.869c9.922-18.982,19.412-40.553,26.746-62.555
		s12.943-43.574,13.374-62.986c0-8.629-0.431-18.551-2.588-25.885c-2.156-7.334-6.04-12.942-12.942-12.942
		c-6.472,0-10.354,4.746-12.512,11.647c-2.156,7.334-3.02,16.825-3.02,27.18v22.002H325.191z"/>
	<path clip-path="url(#SVGID_8_)" fill="#0046F9" d="M447.652,758.977c11.916-13.619,22.98-24.116,32.628-31.493
		c11.064-8.512,20.995-14.186,29.507-17.022v-6.526c-11.916-5.107-22.13-11.065-30.358-18.725
		c-16.455-15.037-27.237-25.535-31.776-31.21h-19.577c4.54,9.646,9.363,18.441,14.186,26.386
		c3.973,5.959,8.229,11.633,13.619,17.307H50.169V715h405.995c-7.377,9.078-11.633,15.037-13.903,18.726
		c-5.958,9.646-10.78,18.158-13.617,25.251H447.652z"/>
</g>
</svg>
