<?xml version="1.0" encoding="utf-8"?>
<!-- Generator: Adobe Illustrator 16.0.0, SVG Export Plug-In . SVG Version: 6.00 Build 0)  -->
<!DOCTYPE svg PUBLIC "-//W3C//DTD SVG 1.1//EN" "http://www.w3.org/Graphics/SVG/1.1/DTD/svg11.dtd">
<svg version="1.1" id="Layer_1" xmlns="http://www.w3.org/2000/svg" xmlns:xlink="http://www.w3.org/1999/xlink" x="0px" y="0px"
	 width="1170.09px" height="492.17px" viewBox="0 0 1170.09 492.17" enable-background="new 0 0 1170.09 492.17"
	 xml:space="preserve">
<g>
	<defs>
		<rect id="SVGID_21_" width="1170.088" height="492.17"/>
	</defs>
	<clipPath id="SVGID_2_">
		<use xlink:href="#SVGID_21_"  overflow="visible"/>
	</clipPath>
	<path clip-path="url(#SVGID_2_)" fill="#0046FA" d="M673.769,44.109h30.923v181.824h40.947v28.635h-71.87V44.109z M599.035,112.545
		l-0.859-5.441h-1.717l-0.859,5.441l-8.875,66.43h21.188L599.035,112.545z M546.637,254.568L578.42,44.109h37.797l31.782,210.459
		h-30.065l-5.727-42.951h-29.779l-5.727,42.951H546.637z M521.152,44.109v167.223c-0.286,8.59-2.004,16.32-5.154,22.906
		c-2.576,5.727-6.586,11.166-12.312,15.463c-5.727,4.58-13.457,7.158-23.766,7.158s-18.326-2.578-24.053-7.158
		c-5.727-4.297-9.449-9.736-12.025-15.463c-3.15-6.586-4.868-14.316-5.154-22.906V44.109h30.924v167.223
		c0,6.012,1.432,10.02,4.295,13.17c1.432,1.432,3.436,2.291,6.014,2.291c5.439,0,8.018-3.436,9.162-7.73
		c0.859-2.006,1.146-4.582,1.146-7.73V44.109H521.152z M326.156,75.893V44.109h89.34v31.783h-29.207v178.676h-30.925V75.893H326.156
		z M253.143,137.17c4.296,0,10.023-0.574,14.605-4.582c4.58-4.008,8.303-11.74,8.303-26.629c0-14.891-3.723-22.908-8.303-26.916
		c-4.582-4.008-10.31-4.295-14.605-4.295V137.17z M277.482,254.568l-16.035-88.766h-8.305v88.766h-30.924V44.109h30.924
		c36.939,0,52.688,20.902,52.688,60.703c0,20.902-5.441,39.801-17.181,47.818l19.757,101.938H277.482z M156.938,44.109h30.925
		v210.459h-30.925V44.109z M101.391,44.109h30.066l-32.07,210.459H68.461L36.393,44.109h30.064L81.92,159.791l1.145,8.875h1.718
		l1.146-8.875L101.391,44.109z"/>
	<path clip-path="url(#SVGID_2_)" fill="#231F20" d="M957.676,254.568h63.701l70.237-189.625c1.286-3.363,3.983-5.74,8.093-7.127
		c4.107-1.385,10.518-2.078,19.229-2.078V44.156h-69.195v11.582c3.958,0,7.596,0.125,10.914,0.371
		c3.314,0.248,6.186,0.645,8.611,1.188c2.426,0.545,4.307,1.238,5.643,2.078c1.337,0.844,2.006,1.908,2.006,3.193
		c0,0.693-0.148,1.486-0.446,2.375l-44.993,120.576L981.285,55.738h26.135V44.156H848.831v11.582h21.827L957.676,254.568z"/>
	<path clip-path="url(#SVGID_2_)" fill="#231F20" d="M174.781,440.572c0.918,2.182,2.365,4.072,4.334,5.676
		c1.972,1.604,4.48,2.877,7.529,3.822c3.047,0.945,6.726,1.418,11.034,1.418c4.257,0,7.923-0.473,10.997-1.418
		c3.073-0.945,5.582-2.219,7.527-3.822c1.943-1.604,3.375-3.494,4.295-5.676c0.92-2.18,1.38-4.533,1.38-7.055
		c0-2.469-0.46-4.795-1.38-6.975c-0.92-2.182-2.352-4.072-4.295-5.678c-1.945-1.602-4.454-2.877-7.527-3.822
		c-3.074-0.945-6.74-1.418-10.997-1.418c-4.309,0-7.987,0.473-11.034,1.418c-3.049,0.945-5.558,2.221-7.529,3.822
		c-1.969,1.605-3.416,3.496-4.334,5.678c-0.92,2.18-1.381,4.506-1.381,6.975C173.4,436.039,173.861,438.393,174.781,440.572
		 M46.732,438.246c2.785,2.104,5.912,3.994,9.379,5.676c3.469,1.684,7.199,3.113,11.193,4.297c3.993,1.182,8.197,2.088,12.612,2.719
		c4.414,0.631,8.958,0.945,13.636,0.945c7.83,0,15.016-0.895,21.559-2.68s12.178-4.375,16.908-7.764
		c4.729-3.389,8.42-7.514,11.074-12.375c2.653-4.861,3.98-10.365,3.98-16.514c0-4.889-0.895-9.459-2.68-13.715
		c-1.787-4.258-4.521-7.947-8.197-11.074c-3.68-3.127-8.344-5.598-13.992-7.41c-5.65-1.814-12.309-2.719-19.98-2.719
		c-2.261,0-4.611,0.078-7.057,0.234c-2.441,0.158-4.887,0.408-7.33,0.75s-4.848,0.762-7.211,1.262c-2.366,0.5-4.6,1.062-6.701,1.693
		l1.812-19.311h64.006v-29.322H58.555l-4.887,63.295c1.734-0.631,3.561-1.182,5.479-1.656c1.918-0.473,3.889-0.893,5.912-1.26
		c2.022-0.367,4.033-0.643,6.029-0.828c1.998-0.184,3.914-0.275,5.754-0.275c4.678,0,8.697,0.59,12.061,1.773
		c3.363,1.182,6.135,2.719,8.314,4.611c2.182,1.891,3.785,4.059,4.811,6.502c1.023,2.443,1.537,4.926,1.537,7.449
		c0,2.68-0.553,5.203-1.656,7.566c-1.104,2.365-2.719,4.428-4.848,6.188c-2.127,1.762-4.717,3.154-7.764,4.178
		c-3.049,1.025-6.518,1.537-10.404,1.537c-1.684,0-3.482-0.105-5.4-0.314c-1.918-0.211-3.862-0.525-5.832-0.945
		c-1.971-0.42-3.93-0.947-5.873-1.578c-1.945-0.629-3.783-1.391-5.518-2.285L46.732,438.246z"/>
	<path clip-path="url(#SVGID_2_)" fill="#231F20" d="M865.722,421.531c0.145,1.98,0.612,3.672,1.261,5.148
		c0.432-0.072,1.008-0.145,1.223-0.145c0.289,0,0.793,0.029,1.08,0.109c0.666,0.18,2.539,0.432,4.572,0.432
		c4.826,0,8.605-1.459,8.605-5.58c0-2.736-1.365-4.137-7.021-5.041c-3.941-0.631-6.407-1.297-6.407-3.312
		c0-1.549,1.8-2.736,5.112-2.736c2.826,0,4.176,1.836,5.689,4.428c0.574,0.037,1.043-0.18,1.295-0.432
		c-0.216-1.691-0.432-3.061-0.721-4.211c-1.242-0.414-3.707-1.117-6.264-1.117c-3.925,0-7.812,1.764-7.812,4.645
		c0,3.186,1.729,4.521,6.516,5.328c5.132,0.865,6.66,1.621,6.66,3.35c0,1.979-2.123,3.348-5.725,3.348
		c-2.051,0-3.707-0.396-4.355-0.938c-1.045-0.898-1.908-2.699-2.16-3.707C866.766,421.027,866.046,421.207,865.722,421.531
		 M854.165,424.736c0.18,1.223,0.612,2.34,3.095,2.34c2.737,0,4.248-1.57,4.248-1.98c0-0.289-0.395-0.684-0.611-0.684
		c-0.287,0-0.432,0.648-1.404,0.648c-1.799,0-2.275-1.621-2.195-3.422l0.252-5.797c0.354-5.67-3.24-6.768-6.625-6.768
		c-3.781,0-7.705,2.268-7.705,4.428c0,0.973,0.686,1.404,1.621,1.404c1.115,0,1.98-0.648,1.98-1.152
		c0-0.287-0.072-0.611-0.145-0.756c-0.037-0.107-0.072-0.359-0.072-0.791c0-1.26,2.196-1.693,3.962-1.693
		c1.942,0,3.923,1.01,3.923,5.4c0,0.289-0.252,0.469-0.359,0.504l-4.682,0.793c-5.123,0.867-7.631,2.988-7.631,5.652
		c0,3.061,2.483,4.213,5.796,4.213c2.196,0,3.312-0.324,5.437-1.656l1.008-0.684H854.165z M854.418,417.715l-0.253,4.824
		c-0.03,0.545-0.36,0.865-0.72,1.117c-1.225,0.791-3.42,1.799-4.754,1.799c-2.411,0-3.312-1.547-3.312-2.771
		c0-2.016,1.663-3.557,4.717-4.141L854.418,417.715z M830.15,421.893v-8.57c0-2.441,0.504-3.041,0.504-3.887
		c0-0.234-0.258-0.469-0.504-0.469c-0.402,0-1.403,0.227-2.368,0.398c-1.644,0.297-4.696,0.58-6.272,0.682
		c-0.107,0.307-0.072,0.9,0.072,1.188c3.439,0.072,4.724,0.141,5.041,0.541c0.342,0.432,0.395,0.898,0.395,1.836v8.281
		c0,1.691-0.143,2.375-0.646,2.771c-0.396,0.287-4.572,0.719-6.337,0.791c-0.216,0.217-0.216,1.117,0,1.332
		c1.512-0.035,6.983-0.072,8.604-0.072c1.512,0,6.588,0.037,8.137,0.072c0.217-0.215,0.217-1.115,0-1.332
		c-1.944-0.072-5.58-0.504-5.977-0.791C830.258,424.303,830.15,423.619,830.15,421.893 M826.336,403.314
		c0,1.08,0.971,2.16,1.943,2.16c1.115,0,2.088-1.115,2.088-1.98c0-1.008-0.865-2.16-1.943-2.16
		C827.451,401.334,826.336,402.305,826.336,403.314 M798.829,421.963v-7.381c0-0.756,0.38-1.512,0.612-1.871
		c1.044-1.631,1.908-1.656,2.482-1.656c1.369,0,1.801,0.863,1.801,3.275v7.633c0,3.205-0.018,4.32-0.072,4.824
		c0.385-0.035,1.261-0.072,1.621-0.072c0.406,0,1.018,0.037,1.476,0.072c-0.028-0.611-0.073-1.768-0.073-4.824v-9.037
		c1.262-1.709,2.111-1.871,2.881-1.871c1.369,0,2.018,0.791,2.018,3.203v6.986c0,3.887,0.061,4.992,0.288,5.543
		c0.396-0.035,1.019-0.072,1.296-0.072c1.475,0,1.584,0.037,3.131,0.072c0.18-0.215,0.18-1.115,0-1.332
		c-1.752-0.119-1.764-0.24-1.764-4.211v-6.445c0-3.197-0.504-5.725-3.672-5.725c-1.234,0-2.477,0.219-4.068,2.232
		c-0.205,0.26-0.338,0.342-0.434-0.014c-0.377-1.445-1.402-2.219-3.275-2.219c-1.367,0-2.635,0.656-3.924,2.557
		c-0.227,0.338-0.323,0.35-0.323,0c0-1.439-0.12-2.006-0.288-2.377c-0.076-0.166-0.145-0.287-0.432-0.287
		c-1.009,0.396-1.98,0.721-4.467,1.043c-0.07,0.217,0,0.793,0.074,1.01c1.943,0.18,2.158,0.359,2.158,2.447v8.496
		c0,3.205-0.018,4.32-0.07,4.824c0.385-0.035,1.261-0.072,1.619-0.072c0.407,0,1.02,0.037,1.478,0.072
		C798.871,426.176,798.829,425.02,798.829,421.963 M781.223,410.551c4.105,0,6.59,2.951,6.59,8.857c0,5.146-3.024,6.191-5.295,6.191
		c-4.932,0-6.516-4.896-6.516-8.064C776.002,413.971,777.043,410.551,781.223,410.551 M772.547,418.436
		c0,4.104,3.024,8.641,9.324,8.641c2.846,0,5.004-0.9,6.517-2.232c2.017-1.764,2.88-4.32,2.88-6.768
		c0-4.178-2.556-9.002-9.324-9.002c-2.916,0-5.293,1.08-6.912,2.809C773.447,413.611,772.547,415.914,772.547,418.436
		 M754.977,412.711c-0.107,0.145-0.324,0.504-0.324,0c0-2.201-0.117-3.086-0.287-3.457c-0.076-0.166-0.145-0.287-0.432-0.287
		c-1.01,0.396-2.342,0.721-4.824,1.043c-0.072,0.217,0,0.793,0.071,1.01c1.944,0.18,2.341,0.359,2.341,2.447v8.713
		c0,2.951-0.361,3.057-2.881,3.275c-0.217,0.217-0.217,1.117,0,1.332c1.477-0.035,2.881-0.072,4.428-0.072
		c1.404,0,2.232,0.037,3.746,0.072c0.216-0.215,0.216-1.115,0-1.332c-1.838-0.18-2.162-0.324-2.162-3.275v-6.877
		c0-0.756,0.324-1.188,0.612-1.512c1.368-1.332,3.386-2.844,5.581-2.844c0.721,0,1.408,0.508,1.908,1.295
		c0.432,0.684,0.539,1.693,0.539,2.771v7.166c0,2.951-0.359,3.096-2.23,3.275c-0.182,0.217-0.182,1.117,0,1.332
		c1.512-0.035,2.34-0.072,3.779-0.072c1.477,0,2.809,0.037,4.357,0.072c0.18-0.215,0.18-1.115,0-1.332
		c-2.377-0.148-2.773-0.324-2.773-3.275v-7.057c0-1.98-0.144-3.781-1.08-4.824c-0.67-0.746-1.728-1.225-2.988-1.225
		C759.477,409.074,757.174,410.262,754.977,412.711 M735.139,410.551c4.105,0,6.588,2.951,6.588,8.857
		c0,5.146-3.022,6.191-5.291,6.191c-4.932,0-6.516-4.896-6.516-8.064C729.92,413.971,730.959,410.551,735.139,410.551
		 M726.463,418.436c0,4.104,3.025,8.641,9.325,8.641c2.845,0,5.003-0.9,6.517-2.232c2.016-1.764,2.88-4.32,2.88-6.768
		c0-4.178-2.556-9.002-9.325-9.002c-2.916,0-5.291,1.08-6.912,2.809C727.363,413.611,726.463,415.914,726.463,418.436
		 M709.362,411.99c-0.685-0.9-0.181-1.08,1.511-1.295c0.217-0.217,0.217-1.117,0-1.332c-1.055,0.035-3.131,0.072-4.283,0.072
		s-2.654-0.037-3.709-0.072c-0.215,0.215-0.215,1.115,0,1.332c1.333,0.107,2.412,0.576,3.492,2.051l4.176,5.51
		c0.109,0.145,0.217,0.324,0.037,0.539l-4.068,4.789c-1.473,1.732-2.447,1.799-3.816,1.871c-0.215,0.217-0.143,1.117,0.072,1.332
		c0.854-0.035,1.729-0.072,3.133-0.072c1.475,0,2.762,0.037,3.637,0.072c0.215-0.215,0.179-1.115-0.037-1.332
		c-1.044-0.143-1.973-0.283-1.188-1.295l3.24-4.176c0.287-0.361,0.396-0.469,0.684-0.072l3.061,3.779
		c1.228,1.52,0.422,1.656-0.937,1.764c-0.216,0.217-0.144,1.117,0.073,1.332c1.26-0.035,2.986-0.072,4.392-0.072
		c1.476,0,2.593,0.037,3.636,0.072c0.217-0.215,0.145-1.115-0.072-1.332c-1.248-0.061-2.336-0.234-3.815-2.123l-4.284-5.473
		c-0.174-0.221-0.156-0.354,0-0.541l4.031-4.787c1.274-1.512,2.377-1.729,3.781-1.836c0.215-0.217,0.215-1.117,0-1.332
		c-0.973,0.035-2.232,0.072-3.205,0.072c-0.791,0-2.422-0.037-3.635-0.072c-0.217,0.215-0.217,1.115,0,1.332
		c1.295,0.143,2.162,0.283,1.332,1.332l-3.35,4.211c-0.145,0.18-0.424,0.316-0.72-0.072L709.362,411.99z M692.873,424.736
		c0.18,1.223,0.612,2.34,3.096,2.34c2.736,0,4.248-1.57,4.248-1.98c0-0.289-0.396-0.684-0.611-0.684
		c-0.288,0-0.434,0.648-1.404,0.648c-1.8,0-2.275-1.621-2.196-3.422l0.251-5.797c0.354-5.67-3.238-6.768-6.623-6.768
		c-3.781,0-7.705,2.268-7.705,4.428c0,0.973,0.685,1.404,1.621,1.404c1.115,0,1.979-0.648,1.979-1.152
		c0-0.287-0.073-0.611-0.145-0.756c-0.036-0.107-0.071-0.359-0.071-0.791c0-1.26,2.195-1.693,3.961-1.693
		c1.943,0,3.924,1.01,3.924,5.4c0,0.289-0.252,0.469-0.361,0.504l-4.68,0.793c-5.123,0.867-7.633,2.988-7.633,5.652
		c0,3.061,2.484,4.213,5.797,4.213c2.197,0,3.312-0.324,5.436-1.656l1.009-0.684H692.873z M693.125,417.715l-0.252,4.824
		c-0.029,0.545-0.36,0.865-0.721,1.117c-1.224,0.791-3.419,1.799-4.752,1.799c-2.412,0-3.312-1.547-3.312-2.771
		c0-2.016,1.664-3.557,4.717-4.141L693.125,417.715z M658.381,410.875c-0.503,0-0.646,0.432-0.646,0.719v0.648
		c0,0.18,0.035,0.217,0.18,0.217h4.033v9.252c0,4.033,2.375,5.365,5.543,5.365c2.106,0,4.537-1.117,7.453-2.736
		c-0.072-0.371-0.287-0.973-0.647-1.008c-1.962,0.828-3.979,1.619-5.544,1.619c-1.837,0-3.673-0.719-3.673-4.967v-7.525h7.345
		c0.359,0,0.863-0.145,0.863-0.469v-0.9c0-0.143-0.108-0.215-0.288-0.215h-7.92v-3.205c0-2.34,0.144-3.781,0.144-3.781
		c0-0.229-0.107-0.314-0.276-0.314c-0.263,0-1.03,0.398-1.597,0.637c-0.611,0.256-1.511,0.328-1.511,0.688
		c0,0.418,0.108,1.98,0.108,5.973L658.381,410.875z M612.263,421.531c0.144,1.98,0.612,3.672,1.261,5.148
		c0.432-0.072,1.008-0.145,1.224-0.145c0.288,0,0.792,0.029,1.079,0.109c0.666,0.18,2.539,0.432,4.574,0.432
		c4.824,0,8.604-1.459,8.604-5.58c0-2.736-1.365-4.137-7.02-5.041c-3.943-0.631-6.41-1.297-6.41-3.312
		c0-1.549,1.801-2.736,5.113-2.736c2.826,0,4.177,1.836,5.688,4.428c0.576,0.037,1.045-0.18,1.297-0.432
		c-0.217-1.691-0.432-3.061-0.721-4.211c-1.242-0.414-3.707-1.117-6.264-1.117c-3.925,0-7.812,1.764-7.812,4.645
		c0,3.186,1.727,4.521,6.516,5.328c5.131,0.865,6.661,1.621,6.661,3.35c0,1.979-2.124,3.348-5.724,3.348
		c-2.053,0-3.709-0.396-4.357-0.938c-1.045-0.898-1.908-2.699-2.16-3.707C613.307,421.027,612.586,421.207,612.263,421.531
		 M600.705,424.736c0.18,1.223,0.613,2.34,3.096,2.34c2.738,0,4.25-1.57,4.25-1.98c0-0.289-0.396-0.684-0.611-0.684
		c-0.289,0-0.432,0.648-1.404,0.648c-1.801,0-2.277-1.621-2.197-3.422l0.252-5.797c0.354-5.67-3.24-6.768-6.625-6.768
		c-3.779,0-7.705,2.268-7.705,4.428c0,0.973,0.686,1.404,1.621,1.404c1.116,0,1.981-0.648,1.981-1.152
		c0-0.287-0.073-0.611-0.146-0.756c-0.036-0.107-0.072-0.359-0.072-0.791c0-1.26,2.197-1.693,3.961-1.693
		c1.943,0,3.925,1.01,3.925,5.4c0,0.289-0.252,0.469-0.36,0.504l-4.68,0.793c-5.123,0.867-7.633,2.988-7.633,5.652
		c0,3.061,2.482,4.213,5.797,4.213c2.195,0,3.311-0.324,5.436-1.656l1.008-0.684H600.705z M600.959,417.715l-0.254,4.824
		c-0.029,0.545-0.359,0.865-0.719,1.117c-1.225,0.791-3.42,1.799-4.752,1.799c-2.412,0-3.313-1.547-3.313-2.771
		c0-2.016,1.665-3.557,4.717-4.141L600.959,417.715z M571.885,427.076c1.404,0,4.088-0.688,6.518-2.521
		c0.184-0.139,0.432-0.215,0.432,0.037c0,1.588,0.396,2.484,0.396,2.484c0.289,0.107,0.396,0.072,0.685,0
		c0.792-0.648,2.556-1.189,4.753-1.441c0.215-0.215,0.215-0.756,0-0.971c-2.305-0.18-2.736-0.865-2.736-2.629v-8.605
		c0-1.078,0.143-3.852,0.143-3.852c0-0.107-0.107-0.215-0.287-0.215c-0.18,0.035-1.008,0.072-1.549,0.072
		c-1.152,0-2.521-0.037-3.854-0.072c-0.215,0.215-0.215,1.115,0,1.332c0.791,0.047,1.499,0.158,1.846,0.48
		c0.424,0.4,0.568,1.121,0.568,2.436v8.137c0,0.684-0.041,1.01-0.576,1.404c-2.107,1.547-4.285,2.23-5.186,2.23
		c-1.078,0-2.879-0.504-2.879-3.707v-8.246c0-1.078,0.143-3.852,0.143-3.852c0-0.107-0.107-0.215-0.287-0.215
		c-0.18,0.035-0.791,0.072-1.332,0.072c-1.152,0-2.916-0.037-4.248-0.072c-0.217,0.215-0.217,1.115,0,1.332
		c0.791,0.064,1.688,0.184,2.034,0.518c0.41,0.396,0.558,1.094,0.558,2.361v8.605C567.025,424.664,568.322,427.076,571.885,427.076
		 M543.139,421.531c0.144,1.98,0.611,3.672,1.26,5.148c0.432-0.072,1.008-0.145,1.223-0.145c0.289,0,0.793,0.029,1.08,0.109
		c0.666,0.18,2.539,0.432,4.572,0.432c4.826,0,8.605-1.459,8.605-5.58c0-2.736-1.363-4.137-7.02-5.041
		c-3.943-0.631-6.409-1.297-6.409-3.312c0-1.549,1.8-2.736,5.112-2.736c2.826,0,4.176,1.836,5.689,4.428
		c0.574,0.037,1.043-0.18,1.295-0.432c-0.216-1.691-0.432-3.061-0.721-4.211c-1.24-0.414-3.707-1.117-6.264-1.117
		c-3.924,0-7.812,1.764-7.812,4.645c0,3.186,1.729,4.521,6.516,5.328c5.131,0.865,6.66,1.621,6.66,3.35
		c0,1.979-2.123,3.348-5.725,3.348c-2.051,0-3.707-0.396-4.355-0.938c-1.045-0.898-1.908-2.699-2.16-3.707
		C544.182,421.027,543.462,421.207,543.139,421.531 M513.725,422.791c-1.693,1.549-3.566,2.484-6.266,2.484
		c-2.311,0-4.5-0.791-5.977-2.879c-0.899-1.369-1.332-2.484-1.332-4.861h13.502c0.504,0,0.863-0.613,0.863-1.045
		c0-3.383-2.016-7.416-8.137-7.416c-4.968,0-9.686,3.42-9.686,9.506c0,2.232,0.757,4.428,2.232,5.939
		c1.514,1.619,4.285,2.557,7.453,2.557c3.385,0,6.373-1.404,8.173-3.492C514.443,423.188,514.264,422.828,513.725,422.791
		 M500.331,416.059c0.827-4.32,3.671-5.545,5.976-5.545c1.729,0,4.608,1.01,4.608,4.465c0,0.359-0.216,0.93-0.72,0.936
		L500.331,416.059z M450.971,421.531c0.145,1.98,0.612,3.672,1.26,5.148c0.433-0.072,1.008-0.145,1.225-0.145
		c0.287,0,0.792,0.029,1.08,0.109c0.666,0.18,2.537,0.432,4.572,0.432c4.824,0,8.604-1.459,8.604-5.58
		c0-2.736-1.364-4.137-7.021-5.041c-3.942-0.631-6.408-1.297-6.408-3.312c0-1.549,1.8-2.736,5.113-2.736
		c2.826,0,4.176,1.836,5.688,4.428c0.576,0.037,1.044-0.18,1.296-0.432c-0.216-1.691-0.433-3.061-0.72-4.211
		c-1.242-0.414-3.709-1.117-6.264-1.117c-3.926,0-7.813,1.764-7.813,4.645c0,3.186,1.728,4.521,6.517,5.328
		c5.131,0.865,6.66,1.621,6.66,3.35c0,1.979-2.125,3.348-5.725,3.348c-2.053,0-3.709-0.396-4.355-0.938
		c-1.045-0.898-1.908-2.699-2.16-3.707C452.016,421.027,451.295,421.207,450.971,421.531 M438.441,421.893v-8.57
		c0-2.441,0.504-3.041,0.504-3.887c0-0.234-0.258-0.469-0.504-0.469c-0.402,0-1.404,0.227-2.369,0.398
		c-1.641,0.297-4.694,0.58-6.271,0.682c-0.107,0.307-0.072,0.9,0.072,1.188c3.439,0.072,4.725,0.141,5.041,0.541
		c0.342,0.432,0.396,0.898,0.396,1.836v8.281c0,1.691-0.145,2.375-0.648,2.771c-0.396,0.287-4.574,0.719-6.338,0.791
		c-0.215,0.217-0.215,1.117,0,1.332c1.512-0.035,6.986-0.072,8.605-0.072c1.512,0,6.588,0.037,8.137,0.072
		c0.217-0.215,0.217-1.115,0-1.332c-1.945-0.072-5.58-0.504-5.977-0.791C438.549,424.303,438.441,423.619,438.441,421.893
		 M434.627,403.314c0,1.08,0.971,2.16,1.943,2.16c1.115,0,2.088-1.115,2.088-1.98c0-1.008-0.865-2.16-1.944-2.16
		C435.742,401.334,434.627,402.305,434.627,403.314 M416.371,424.736c0.181,1.223,0.613,2.34,3.098,2.34
		c2.736,0,4.248-1.57,4.248-1.98c0-0.289-0.396-0.684-0.611-0.684c-0.289,0-0.434,0.648-1.404,0.648
		c-1.801,0-2.275-1.621-2.196-3.422l0.251-5.797c0.354-5.67-3.24-6.768-6.623-6.768c-3.781,0-7.705,2.268-7.705,4.428
		c0,0.973,0.684,1.404,1.62,1.404c1.116,0,1.979-0.648,1.979-1.152c0-0.287-0.072-0.611-0.144-0.756
		c-0.036-0.107-0.071-0.359-0.071-0.791c0-1.26,2.195-1.693,3.959-1.693c1.945,0,3.926,1.01,3.926,5.4
		c0,0.289-0.254,0.469-0.361,0.504l-4.68,0.793c-5.123,0.867-7.633,2.988-7.633,5.652c0,3.061,2.484,4.213,5.797,4.213
		c2.195,0,3.312-0.324,5.436-1.656l1.008-0.684H416.371z M416.623,417.715l-0.252,4.824c-0.027,0.545-0.359,0.865-0.719,1.117
		c-1.225,0.791-3.42,1.799-4.752,1.799c-2.412,0-3.312-1.547-3.312-2.771c0-2.016,1.664-3.557,4.717-4.141L416.623,417.715z
		 M387.552,427.076c1.403,0,4.087-0.688,6.517-2.521c0.184-0.139,0.434-0.215,0.434,0.037c0,1.588,0.395,2.484,0.395,2.484
		c0.289,0.107,0.396,0.072,0.685,0c0.792-0.648,2.556-1.189,4.752-1.441c0.216-0.215,0.216-0.756,0-0.971
		c-2.304-0.18-2.735-0.865-2.735-2.629v-8.605c0-1.078,0.143-3.852,0.143-3.852c0-0.107-0.107-0.215-0.287-0.215
		c-0.18,0.035-1.008,0.072-1.549,0.072c-1.152,0-2.52-0.037-3.852-0.072c-0.217,0.215-0.217,1.115,0,1.332
		c0.787,0.047,1.496,0.158,1.844,0.48c0.424,0.4,0.568,1.121,0.568,2.436v8.137c0,0.684-0.041,1.01-0.576,1.404
		c-2.105,1.547-4.285,2.23-5.185,2.23c-1.081,0-2.88-0.504-2.88-3.707v-8.246c0-1.078,0.144-3.852,0.144-3.852
		c0-0.107-0.108-0.215-0.288-0.215c-0.18,0.035-0.791,0.072-1.332,0.072c-1.152,0-2.916-0.037-4.248-0.072
		c-0.216,0.215-0.216,1.115,0,1.332c0.793,0.064,1.688,0.184,2.033,0.518c0.41,0.396,0.559,1.094,0.559,2.361v8.605
		C382.691,424.664,383.988,427.076,387.552,427.076 M358.84,410.875c-0.504,0-0.648,0.432-0.648,0.719v0.648
		c0,0.18,0.037,0.217,0.18,0.217h4.033v9.252c0,4.033,2.377,5.365,5.545,5.365c2.105,0,4.535-1.117,7.451-2.736
		c-0.071-0.371-0.287-0.973-0.648-1.008c-1.961,0.828-3.977,1.619-5.543,1.619c-1.836,0-3.672-0.719-3.672-4.967v-7.525h7.344
		c0.359,0,0.864-0.145,0.864-0.469v-0.9c0-0.143-0.108-0.215-0.288-0.215h-7.92v-3.205c0-2.34,0.145-3.781,0.145-3.781
		c0-0.229-0.109-0.314-0.277-0.314c-0.264,0-1.031,0.398-1.596,0.637c-0.611,0.256-1.513,0.328-1.513,0.688
		c0,0.418,0.108,1.98,0.108,5.973L358.84,410.875z M343.432,412.098c0-1.961-0.109-2.482-0.289-2.844
		c-0.072-0.18-0.144-0.287-0.432-0.287c-1.584,0.27-4.393,0.721-6.875,1.043c-0.072,0.217,0,0.793,0.07,1.01
		c0.846,0,3.457,0.287,3.816,0.504c0.469,0.287,0.576,0.756,0.576,1.943v8.713c0,1.729-0.148,2.404-0.684,2.771
		c-0.342,0.234-3.276,0.432-4.754,0.504c-0.215,0.217-0.215,1.117,0,1.332c1.514-0.035,6.014-0.072,7.453-0.072
		c1.477,0,5.869,0.037,7.418,0.072c0.215-0.215,0.215-1.115,0-1.332c-1.262-0.035-5.078-0.287-5.51-0.504
		c-0.648-0.359-0.791-1.008-0.791-2.771v-4.969c0-0.936,0.33-1.711,0.863-2.305c2.016-2.25,3.779-3.727,5.186-3.727
		c0.504,0,1.332,0.451,1.584,0.738c0.395,0.434,0.936,0.973,1.656,0.973c0.936,0,1.691-1.008,1.691-1.98
		c0-0.719-0.432-1.836-2.053-1.836c-4.357,0-6.156,1.639-8.568,4.176C343.48,413.578,343.432,413.287,343.432,412.098
		 M323.234,421.893v-8.57c0-2.441,0.504-3.041,0.504-3.887c0-0.234-0.26-0.469-0.504-0.469c-0.404,0-1.405,0.227-2.369,0.398
		c-1.643,0.297-4.695,0.58-6.273,0.682c-0.107,0.307-0.07,0.9,0.073,1.188c3.438,0.072,4.724,0.141,5.04,0.541
		c0.342,0.432,0.396,0.898,0.396,1.836v8.281c0,1.691-0.145,2.375-0.648,2.771c-0.396,0.287-4.572,0.719-6.336,0.791
		c-0.217,0.217-0.217,1.117,0,1.332c1.512-0.035,6.984-0.072,8.604-0.072c1.514,0,6.59,0.037,8.137,0.072
		c0.217-0.215,0.217-1.115,0-1.332c-1.943-0.072-5.58-0.504-5.977-0.791C323.342,424.303,323.234,423.619,323.234,421.893
		 M319.418,403.314c0,1.08,0.971,2.16,1.943,2.16c1.117,0,2.089-1.115,2.089-1.98c0-1.008-0.864-2.16-1.945-2.16
		C320.533,401.334,319.418,402.305,319.418,403.314 M301.775,410.695c2.125,0.143,2.772,0.432,1.943,2.268l-4.104,8.893
		c-0.647,1.404-0.863,1.404-1.475-0.107l-3.674-8.785c-0.738-1.764-0.828-2.125,1.045-2.268c0.252-0.217,0.252-1.117,0-1.332
		c-1.477,0.035-2.57,0.072-4.213,0.072c-1.367,0-2.232-0.037-3.707-0.072c-0.253,0.215-0.253,1.115,0,1.332
		c2.268,0.252,2.663,0.646,3.455,2.482l5.833,13.215c0.253,0.539,0.612,0.756,1.116,0.756c0.396,0,0.721-0.217,1.008-0.828
		l6.229-13.105c0.76-1.602,1.115-2.305,3.24-2.52c0.252-0.217,0.252-1.117,0-1.332c-0.865,0.035-1.873,0.072-2.916,0.072
		c-1.477,0-2.305-0.037-3.781-0.072C301.523,409.578,301.523,410.479,301.775,410.695"/>
	<path clip-path="url(#SVGID_2_)" fill="#231F20" d="M681.388,365.527c0.144,1.98,0.612,3.672,1.26,5.148
		c0.433-0.072,1.009-0.145,1.224-0.145c0.289,0,0.793,0.029,1.08,0.109c0.668,0.18,2.539,0.432,4.574,0.432
		c4.824,0,8.604-1.459,8.604-5.58c0-2.738-1.364-4.137-7.02-5.041c-3.941-0.631-6.41-1.297-6.41-3.312
		c0-1.549,1.803-2.736,5.113-2.736c2.826,0,4.176,1.836,5.689,4.428c0.574,0.037,1.043-0.18,1.295-0.432
		c-0.216-1.691-0.432-3.061-0.721-4.211c-1.24-0.414-3.707-1.117-6.264-1.117c-3.924,0-7.812,1.764-7.812,4.645
		c0,3.186,1.727,4.521,6.518,5.328c5.129,0.863,6.658,1.621,6.658,3.35c0,1.979-2.123,3.348-5.723,3.348
		c-2.053,0-3.708-0.396-4.357-0.938c-1.044-0.898-1.908-2.699-2.16-3.707C682.432,365.023,681.712,365.203,681.388,365.527
		 M675.016,366.787c-1.691,1.549-3.564,2.484-6.264,2.484c-2.312,0-4.5-0.791-5.977-2.879c-0.9-1.369-1.332-2.486-1.332-4.861h13.5
		c0.504,0,0.865-0.613,0.865-1.045c0-3.383-2.018-7.416-8.138-7.416c-4.968,0-9.685,3.42-9.685,9.504
		c0,2.234,0.756,4.43,2.232,5.941c1.512,1.619,4.283,2.557,7.452,2.557c3.384,0,6.372-1.404,8.173-3.492
		C675.736,367.184,675.555,366.824,675.016,366.787 M661.623,360.055c0.828-4.32,3.672-5.545,5.977-5.545
		c1.727,0,4.607,1.01,4.607,4.465c0,0.359-0.215,0.93-0.719,0.936L661.623,360.055z M642.973,354.547
		c4.105,0,6.589,2.951,6.589,8.855c0,5.148-3.024,6.193-5.293,6.193c-4.933,0-6.517-4.896-6.517-8.064
		C637.752,357.967,638.793,354.547,642.973,354.547 M634.297,362.432c0,4.104,3.023,8.641,9.324,8.641
		c2.844,0,5.006-0.9,6.517-2.232c2.017-1.764,2.88-4.32,2.88-6.77c0-4.176-2.556-9-9.324-9c-2.916,0-5.293,1.08-6.912,2.809
		C635.197,357.607,634.297,359.91,634.297,362.432 M646.322,347.598c-0.685,0-1.358-0.24-1.873-0.684
		c-0.666-0.572-1.514-1.225-2.594-1.225c-1.547,0-2.375,1.404-2.879,3.527c0.217,0.217,0.576,0.252,0.973,0.182
		c0.359-1.189,0.719-1.729,1.654-1.729c0.613,0,1.352,0.209,1.945,0.684c0.72,0.576,1.513,1.152,2.305,1.152
		c1.656,0,2.699-1.404,3.133-3.564c-0.217-0.145-0.576-0.252-0.973-0.215C647.51,347.238,647.114,347.598,646.322,347.598
		 M629.939,366.824c-0.144-0.361-0.648-0.865-1.044-0.9c-2.268,2.34-5.04,3.203-6.876,3.203c-4.031,0-6.914-3.311-6.914-7.668
		c0-4.213,2.162-6.912,5.834-6.912c2.52,0,4.572,1.439,4.824,3.275c0.148,1.076,0.936,1.729,1.8,1.729
		c1.079,0,1.692-0.697,1.692-2.053c0-0.77-0.442-1.623-1.26-2.303c-1.516-1.26-4.197-2.125-6.84-2.125
		c-5.077,0-9.325,3.889-9.325,9.252c0,4.318,2.644,7.871,7.398,8.609l-1.35,3.236l0.216,0.215c0.576-0.18,0.936-0.215,1.621-0.215
		c0.826,0,1.188,0.504,1.188,1.26c0,0.936-0.757,1.439-1.836,1.439c-0.721,0-1.117-0.143-2.09-0.504
		c-0.252,0.252-0.359,0.504-0.359,0.936c0.898,0.396,1.514,0.613,2.664,0.613c2.196,0,3.852-1.117,3.852-2.664
		c0-1.369-1.115-2.232-2.555-2.232c-0.324,0-0.648,0.035-0.938,0.107l0.775-2.07c0.229,0.012,0.463,0.02,0.701,0.02
		C623.676,371.072,626.699,370.496,629.939,366.824 M599.734,365.889v-8.57c0-2.441,0.504-3.041,0.504-3.887
		c0-0.234-0.26-0.469-0.504-0.469c-0.403,0-1.404,0.227-2.369,0.398c-1.643,0.295-4.695,0.58-6.271,0.682
		c-0.109,0.307-0.072,0.9,0.072,1.188c3.438,0.072,4.723,0.141,5.039,0.541c0.344,0.432,0.396,0.898,0.396,1.836v8.281
		c0,1.691-0.143,2.375-0.647,2.771c-0.396,0.287-4.573,0.719-6.337,0.791c-0.217,0.217-0.217,1.117,0,1.332
		c1.513-0.035,6.984-0.072,8.604-0.072c1.513,0,6.589,0.037,8.138,0.072c0.215-0.215,0.215-1.115,0-1.332
		c-1.944-0.072-5.581-0.504-5.979-0.791C599.842,368.299,599.734,367.615,599.734,365.889 M595.918,347.311
		c0,1.08,0.972,2.158,1.944,2.158c1.114,0,2.088-1.115,2.088-1.979c0-1.008-0.864-2.16-1.944-2.16
		C597.034,345.33,595.918,346.301,595.918,347.311 M578.492,368.695c0.18-0.145,0.469-0.252,0.469,0.037
		c0,0.971,0.396,2.34,0.396,2.34c0.287,0.107,0.395,0.072,0.684,0c0.793-0.648,2.304-1.229,5.004-1.441
		c0.215-0.215,0.215-0.756,0-0.971c-2.7-0.328-2.988-0.865-2.988-2.629v-16.309c0-2.342,0.145-3.781,0.145-3.781
		c0-0.252-0.145-0.359-0.469-0.359c-0.898,0.359-4.607,0.863-6.049,0.971c-0.072,0.289,0,0.865,0.217,1.08
		c2.592,0.105,3.023,0.285,3.023,2.953v2.809c0,0.289-0.07,0.359-0.359,0.359c-0.144,0-2.701-0.646-4.105-0.646
		c-2.807,0-4.643,0.863-6.371,2.375c-1.836,1.729-2.916,4.104-2.916,7.092c0,4.934,2.988,8.533,7.561,8.533
		C574.388,371.107,576.512,370.316,578.492,368.695 M578.924,365.744c0,0.756-0.07,1.043-0.646,1.547
		c-1.478,1.297-3.35,1.945-4.43,1.945c-2.305,0-5.436-2.377-5.436-7.381c0-2.881,0.576-4.5,1.223-5.328
		c1.333-1.873,3.564-1.98,4.393-1.98c1.512,0,3.422,0.469,4.213,1.404c0.576,0.648,0.684,0.9,0.684,2.16V365.744z M559.807,366.787
		c-1.691,1.549-3.564,2.484-6.264,2.484c-2.312,0-4.5-0.791-5.977-2.879c-0.9-1.369-1.332-2.486-1.332-4.861h13.5
		c0.504,0,0.865-0.613,0.865-1.045c0-3.383-2.016-7.416-8.137-7.416c-4.969,0-9.686,3.42-9.686,9.504
		c0,2.234,0.756,4.43,2.232,5.941c1.512,1.619,4.283,2.557,7.453,2.557c3.384,0,6.373-1.404,8.172-3.492
		C560.527,367.184,560.347,366.824,559.807,366.787 M546.414,360.055c0.828-4.32,3.672-5.545,5.977-5.545
		c1.729,0,4.608,1.01,4.608,4.465c0,0.359-0.216,0.93-0.72,0.936L546.414,360.055z M513.723,366.787
		c-1.691,1.549-3.562,2.484-6.264,2.484c-2.311,0-4.5-0.791-5.977-2.879c-0.899-1.369-1.332-2.486-1.332-4.861h13.502
		c0.504,0,0.863-0.613,0.863-1.045c0-3.383-2.016-7.416-8.137-7.416c-4.968,0-9.684,3.42-9.684,9.504c0,2.234,0.756,4.43,2.23,5.941
		c1.514,1.619,4.285,2.557,7.453,2.557c3.385,0,6.373-1.404,8.173-3.492C514.443,367.184,514.264,366.824,513.723,366.787
		 M500.331,360.055c0.827-4.32,3.671-5.545,5.976-5.545c1.729,0,4.609,1.01,4.609,4.465c0,0.359-0.217,0.93-0.721,0.936
		L500.331,360.055z M486.326,368.695c0.18-0.145,0.467-0.252,0.467,0.037c0,0.971,0.396,2.34,0.396,2.34
		c0.289,0.107,0.396,0.072,0.684,0c0.793-0.648,2.305-1.229,5.005-1.441c0.216-0.215,0.216-0.756,0-0.971
		c-2.7-0.328-2.988-0.865-2.988-2.629v-16.309c0-2.342,0.144-3.781,0.144-3.781c0-0.252-0.144-0.359-0.467-0.359
		c-0.9,0.359-4.609,0.863-6.049,0.971c-0.072,0.289,0,0.865,0.217,1.08c2.592,0.105,3.023,0.285,3.023,2.953v2.809
		c0,0.289-0.072,0.359-0.359,0.359c-0.145,0-2.701-0.646-4.105-0.646c-2.809,0-4.645,0.863-6.372,2.375
		c-1.835,1.729-2.916,4.104-2.916,7.092c0,4.934,2.987,8.533,7.56,8.533C482.222,371.107,484.346,370.316,486.326,368.695
		 M486.758,365.744c0,0.756-0.072,1.043-0.648,1.547c-1.477,1.297-3.348,1.945-4.429,1.945c-2.304,0-5.436-2.377-5.436-7.381
		c0-2.881,0.575-4.5,1.224-5.328c1.332-1.873,3.564-1.98,4.393-1.98c1.512,0,3.42,0.469,4.213,1.404
		c0.576,0.648,0.684,0.9,0.684,2.16V365.744z M435.598,354.547c4.104,0,6.59,2.951,6.59,8.855c0,5.148-3.025,6.193-5.293,6.193
		c-4.933,0-6.517-4.896-6.517-8.064C430.378,357.967,431.418,354.547,435.598,354.547 M426.921,362.432
		c0,4.104,3.024,8.641,9.325,8.641c2.844,0,5.006-0.9,6.517-2.232c2.017-1.764,2.88-4.32,2.88-6.77c0-4.176-2.557-9-9.324-9
		c-2.916,0-5.293,1.08-6.912,2.809C427.82,357.607,426.921,359.91,426.921,362.432 M416.373,368.732
		c0.18,1.223,0.611,2.34,3.096,2.34c2.736,0,4.248-1.57,4.248-1.98c0-0.289-0.396-0.684-0.611-0.684
		c-0.289,0-0.434,0.648-1.404,0.648c-1.801,0-2.275-1.621-2.196-3.422l0.251-5.797c0.354-5.67-3.238-6.768-6.623-6.768
		c-3.781,0-7.705,2.268-7.705,4.428c0,0.973,0.684,1.404,1.62,1.404c1.116,0,1.979-0.648,1.979-1.152
		c0-0.287-0.072-0.611-0.144-0.756c-0.036-0.107-0.071-0.359-0.071-0.791c0-1.26,2.195-1.693,3.959-1.693
		c1.945,0,3.926,1.01,3.926,5.4c0,0.289-0.252,0.469-0.361,0.504l-4.68,0.793c-5.123,0.867-7.633,2.988-7.633,5.652
		c0,3.061,2.484,4.213,5.797,4.213c2.195,0,3.312-0.324,5.436-1.656l1.009-0.684H416.373z M416.625,361.711l-0.252,4.824
		c-0.029,0.543-0.36,0.865-0.721,1.117c-1.225,0.791-3.42,1.799-4.752,1.799c-2.412,0-3.312-1.547-3.312-2.771
		c0-2.016,1.664-3.557,4.716-4.141L416.625,361.711z M415.256,347.598c-0.684,0-1.357-0.24-1.872-0.684
		c-0.667-0.572-1.513-1.225-2.593-1.225c-1.547,0-2.375,1.404-2.879,3.527c0.216,0.217,0.576,0.252,0.972,0.182
		c0.36-1.189,0.72-1.729,1.655-1.729c0.613,0,1.351,0.209,1.945,0.684c0.72,0.576,1.512,1.152,2.305,1.152
		c1.656,0,2.699-1.404,3.132-3.564c-0.216-0.145-0.576-0.252-0.972-0.215C416.445,347.238,416.049,347.598,415.256,347.598
		 M399.523,366.824c-0.145-0.361-0.648-0.865-1.045-0.9c-2.268,2.34-5.039,3.203-6.875,3.203c-4.033,0-6.914-3.311-6.914-7.668
		c0-4.213,2.16-6.912,5.834-6.912c2.52,0,4.571,1.439,4.823,3.275c0.148,1.076,0.937,1.729,1.8,1.729
		c1.08,0,1.692-0.697,1.692-2.053c0-0.77-0.442-1.623-1.26-2.303c-1.515-1.26-4.198-2.125-6.841-2.125
		c-5.076,0-9.324,3.889-9.324,9.252c0,4.318,2.643,7.871,7.398,8.609l-1.35,3.236l0.216,0.215c0.576-0.18,0.937-0.215,1.62-0.215
		c0.828,0,1.188,0.504,1.188,1.26c0,0.936-0.756,1.439-1.836,1.439c-0.72,0-1.115-0.143-2.088-0.504
		c-0.252,0.252-0.361,0.504-0.361,0.936c0.9,0.396,1.514,0.613,2.666,0.613c2.195,0,3.852-1.117,3.852-2.664
		c0-1.369-1.115-2.232-2.556-2.232c-0.324,0-0.649,0.035-0.937,0.107l0.775-2.07c0.229,0.012,0.463,0.02,0.701,0.02
		C393.258,371.072,396.283,370.496,399.523,366.824 M370.289,368.732c0.18,1.223,0.611,2.34,3.096,2.34
		c2.736,0,4.248-1.57,4.248-1.98c0-0.289-0.395-0.684-0.611-0.684c-0.287,0-0.432,0.648-1.404,0.648
		c-1.799,0-2.275-1.621-2.196-3.422l0.251-5.797c0.354-5.67-3.238-6.768-6.623-6.768c-3.779,0-7.705,2.268-7.705,4.428
		c0,0.973,0.684,1.404,1.621,1.404c1.116,0,1.98-0.648,1.98-1.152c0-0.287-0.072-0.611-0.145-0.756
		c-0.036-0.107-0.072-0.359-0.072-0.791c0-1.26,2.195-1.693,3.961-1.693c1.943,0,3.924,1.01,3.924,5.4
		c0,0.289-0.252,0.469-0.361,0.504l-4.68,0.793c-5.123,0.867-7.633,2.988-7.633,5.652c0,3.061,2.484,4.213,5.797,4.213
		c2.197,0,3.312-0.324,5.436-1.656l1.009-0.684H370.289z M370.541,361.711l-0.252,4.824c-0.029,0.543-0.36,0.865-0.721,1.117
		c-1.224,0.791-3.42,1.799-4.752,1.799c-2.412,0-3.312-1.547-3.312-2.771c0-2.016,1.663-3.557,4.716-4.141L370.541,361.711z
		 M346.275,365.889v-8.57c0-2.441,0.504-3.041,0.504-3.887c0-0.234-0.26-0.469-0.504-0.469c-0.404,0-1.404,0.227-2.369,0.398
		c-1.642,0.295-4.694,0.58-6.271,0.682c-0.107,0.307-0.072,0.9,0.072,1.188c3.438,0.072,4.723,0.141,5.04,0.541
		c0.341,0.432,0.396,0.898,0.396,1.836v8.281c0,1.691-0.144,2.375-0.647,2.771c-0.397,0.287-4.572,0.719-6.337,0.791
		c-0.215,0.217-0.215,1.117,0,1.332c1.513-0.035,6.984-0.072,8.604-0.072c1.513,0,6.589,0.037,8.138,0.072
		c0.215-0.215,0.215-1.115,0-1.332c-1.945-0.072-5.58-0.504-5.977-0.791C346.383,368.299,346.275,367.615,346.275,365.889
		 M342.459,347.311c0,1.08,0.972,2.158,1.943,2.158c1.117,0,2.088-1.115,2.088-1.979c0-1.008-0.863-2.16-1.943-2.16
		C343.574,345.33,342.459,346.301,342.459,347.311 M320.39,356.094c0-1.961-0.108-2.482-0.288-2.844
		c-0.072-0.18-0.145-0.287-0.432-0.287c-1.584,0.27-4.393,0.721-6.877,1.043c-0.072,0.217,0,0.793,0.072,1.01
		c0.846,0,3.455,0.287,3.815,0.504c0.468,0.287,0.575,0.756,0.575,1.943v8.713c0,1.729-0.146,2.404-0.684,2.771
		c-0.342,0.234-3.275,0.432-4.752,0.504c-0.215,0.217-0.215,1.117,0,1.332c1.513-0.035,6.013-0.072,7.453-0.072
		c1.477,0,5.869,0.037,7.416,0.072c0.217-0.215,0.217-1.115,0-1.332c-1.26-0.035-5.076-0.287-5.508-0.504
		c-0.648-0.359-0.792-1.008-0.792-2.771v-4.969c0-0.936,0.331-1.711,0.864-2.305c2.016-2.25,3.779-3.727,5.184-3.727
		c0.504,0,1.332,0.451,1.584,0.738c0.396,0.434,0.936,0.973,1.656,0.973c0.936,0,1.691-1.008,1.691-1.98
		c0-0.719-0.432-1.836-2.051-1.836c-4.356,0-6.156,1.639-8.568,4.176C320.439,357.574,320.39,357.283,320.39,356.094
		 M299.256,371.072c3.132,0,6.768-1.512,8.965-4.572c-0.145-0.324-0.611-0.684-0.972-0.684c-2.306,2.664-5.005,3.779-8.03,3.779
		c-4.895,0-7.956-4.969-7.956-9.973c0-6.336,3.853-10.045,7.921-10.045c4.465,0,6.625,2.701,7.453,5.652
		c0.396,0.145,0.792,0.037,1.152-0.18c-0.145-1.764-0.432-3.42-0.721-5.293c-1.656-0.18-3.529-1.549-7.525-1.549
		c-6.73,0-11.771,5.582-11.771,12.062C287.771,366.104,292.055,371.072,299.256,371.072"/>
	<polygon clip-path="url(#SVGID_2_)" fill="none" stroke="#0046FA" stroke-width="1.998" points="0.999,3 0.999,489.17 
		0.999,491.172 3,491.172 1167.086,491.172 1169.088,491.172 1169.088,489.17 1169.088,3 1169.088,0.998 1167.086,0.998 3,0.998 
		0.999,0.998 	"/>
</g>
<rect x="5.002" y="5.002" fill="none" stroke="#0046FA" stroke-width="1.998" width="1160.084" height="482.166"/>
<line fill="none" stroke="#0046FA" stroke-width="2" x1="25.49" y1="293.021" x2="1144.086" y2="293.021"/>
<line fill="none" stroke="#0046FA" stroke-width="2" x1="806.059" y1="27.002" x2="806.059" y2="274.021"/>
<line fill="none" stroke="#0046FA" stroke-width="2" x1="918.812" y1="314.023" x2="918.812" y2="466.035"/>
<line fill="none" stroke="#0046FA" stroke-width="2" x1="250.857" y1="314.023" x2="250.857" y2="466.035"/>
<g>
	<defs>
		<rect id="SVGID_23_" width="1170.088" height="492.17"/>
	</defs>
	<clipPath id="SVGID_4_">
		<use xlink:href="#SVGID_23_"  overflow="visible"/>
	</clipPath>
	<path clip-path="url(#SVGID_4_)" fill="#0046FA" d="M1051.398,314.584l-14.492,11.961c17.328,26.223,34.194,45.238,50.605,57.045
		c-13.803-1.227-27.068-1.84-39.793-1.84h-81.656v18.4h81.656c12.725,0,25.99-0.611,39.793-1.84
		c-16.411,11.811-33.277,30.822-50.605,57.045l14.492,11.959c10.731-17.631,21.352-32.236,31.856-43.816
		c10.501-11.576,22.501-22.197,35.997-31.857v-1.381c-13.496-9.66-25.496-20.277-35.997-31.857
		C1072.75,346.826,1062.13,332.221,1051.398,314.584"/>
</g>
</svg>
