<?xml version="1.0" encoding="utf-8"?>
<!-- Generator: Adobe Illustrator 16.0.0, SVG Export Plug-In . SVG Version: 6.00 Build 0)  -->
<!DOCTYPE svg PUBLIC "-//W3C//DTD SVG 1.1//EN" "http://www.w3.org/Graphics/SVG/1.1/DTD/svg11.dtd">
<svg version="1.1" id="Layer_1" xmlns="http://www.w3.org/2000/svg" xmlns:xlink="http://www.w3.org/1999/xlink" x="0px" y="0px"
	 width="1170.09px" height="525.04px" viewBox="0 0 1170.09 525.04" enable-background="new 0 0 1170.09 525.04"
	 xml:space="preserve">
<g>
	<defs>
		<rect id="SVGID_33_" x="-0.91" width="1170.088" height="525.039"/>
	</defs>
	<clipPath id="SVGID_2_">
		<use xlink:href="#SVGID_33_"  overflow="visible"/>
	</clipPath>
	<polygon clip-path="url(#SVGID_2_)" fill="none" stroke="#231F20" stroke-width="1.998" points="0.089,2.998 0.089,522.037 
		0.089,524.039 2.09,524.039 1166.177,524.039 1168.178,524.039 1168.178,522.037 1168.178,2.998 1168.178,0.996 1166.177,0.996 
		2.09,0.996 0.089,0.996 	"/>
</g>
<rect x="4.091" y="5" fill="none" stroke="#231F20" stroke-width="1.998" width="1160.085" height="515.035"/>
<g>
	<defs>
		<rect id="SVGID_35_" x="-0.91" width="1170.088" height="525.039"/>
	</defs>
	<clipPath id="SVGID_4_">
		<use xlink:href="#SVGID_35_"  overflow="visible"/>
	</clipPath>
	<path clip-path="url(#SVGID_4_)" fill="#FF1419" d="M1132.569,85.659V61.164c0-11.749-3.784-29.673-19.716-29.673
		c-14.936,0-19.715,16.529-19.715,29.673v90.213c0,10.356,3.385,29.673,18.122,29.673c3.585,0,9.161-3.385,10.953-6.97l1.792,5.377
		h8.563v-72.888h-18.919v18.123h3.584v28.478c0,3.584-0.397,8.763-3.982,8.763c-2.39,0-3.386-4.183-3.386-8.763V61.164
		c0-3.584,0.796-8.763,2.987-8.763c2.788,0,3.186,5.775,3.186,8.763v24.495H1132.569z M1062.47,179.457h13.94V33.085h-15.335v69.104
		l-11.947-69.104h-13.941v146.372h15.335v-71.095L1062.47,179.457z M1000.736,179.457h16.529V33.085h-16.529V179.457z
		 M960.909,54.592c2.39,0.2,5.378-0.397,5.975,4.78c0.996,8.961,0.598,23.102,0.598,53.172v34.253
		c0,11.75-3.982,11.152-6.572,11.152V54.592z M960.312,179.457c13.144,0,17.923-5.179,20.512-12.944
		c2.987-8.763,2.987-31.466,2.987-60.143c0-28.678-0.398-46.998-3.783-58.15c-3.585-11.152-8.763-15.135-21.906-15.135h-13.74
		v146.372H960.312z M910.326,126.882h-6.173l2.987-58.15L910.326,126.882z M900.369,179.457l2.19-29.872h9.161l2.19,29.872h16.131
		L916.898,33.085h-19.316l-13.344,146.372H900.369z M839.233,179.457h33.059v-22.104h-16.529v-40.229h11.949V93.625h-11.949V55.19
		h16.529V33.085h-33.059V179.457z M800.601,54.394c0.996,0,3.186-0.199,4.58,1.991c1.593,2.39,1.793,8.962,1.793,19.716
		c0,10.555-0.2,17.922-1.992,20.512c-0.996,1.593-2.987,2.19-4.381,2.19V54.394z M825.295,179.457l-10.156-70.896
		c5.177-6.174,7.566-19.317,7.566-33.258c0-27.682-6.372-42.219-21.905-42.219h-16.729v146.372h16.529v-63.728l8.563,63.728H825.295
		z"/>
	<path clip-path="url(#SVGID_4_)" fill="#231F20" d="M596.137,469.078c0.252-0.378,0.588-0.692,1.008-0.944s0.903-0.441,1.449-0.567
		s1.113-0.188,1.701-0.188c1.512,0,2.736,0.378,3.675,1.134c0.938,0.756,1.476,1.806,1.617,3.149l3.108-0.756
		c-0.113-0.784-0.357-1.567-0.735-2.352s-0.918-1.478-1.617-2.079c-0.701-0.603-1.569-1.092-2.604-1.47
		c-1.037-0.378-2.241-0.567-3.612-0.567c-0.981,0-1.919,0.126-2.814,0.378c-0.896,0.252-1.701,0.63-2.415,1.134
		s-1.28,1.127-1.7,1.869c-0.421,0.742-0.631,1.604-0.631,2.583v0.252c0,1.82,0.644,3.206,1.933,4.158
		c1.287,0.952,3.135,1.512,5.544,1.68c2.071,0.141,3.57,0.462,4.494,0.966c0.924,0.505,1.386,1.345,1.386,2.521
		c0,1.092-0.47,1.938-1.407,2.541c-0.938,0.602-2.178,0.903-3.717,0.903c-1.821,0-3.276-0.483-4.368-1.449s-1.709-2.247-1.848-3.843
		l-3.108,0.756c0.055,0.924,0.279,1.841,0.672,2.751c0.392,0.91,0.973,1.722,1.743,2.436c0.77,0.714,1.735,1.288,2.898,1.723
		c1.161,0.434,2.554,0.65,4.179,0.65c1.203,0,2.316-0.146,3.339-0.44c1.021-0.294,1.89-0.722,2.604-1.281
		c0.714-0.561,1.272-1.239,1.68-2.037c0.405-0.798,0.609-1.701,0.609-2.709v-0.252c0-1.848-0.639-3.255-1.911-4.221
		c-1.275-0.967-3.129-1.548-5.565-1.743c-2.268-0.168-3.83-0.519-4.683-1.05c-0.855-0.532-1.281-1.303-1.281-2.311
		C595.759,469.897,595.885,469.456,596.137,469.078 M577.468,467.966c0.769,0.279,1.455,0.672,2.058,1.176
		c0.601,0.504,1.092,1.12,1.47,1.848c0.378,0.729,0.594,1.54,0.651,2.437h-13.44c0.111-0.84,0.357-1.617,0.735-2.331
		s0.867-1.337,1.47-1.869c0.601-0.532,1.302-0.945,2.1-1.239s1.659-0.44,2.583-0.44
		C575.906,467.546,576.697,467.686,577.468,467.966 M584.923,476.449v-2.688c0-0.924-0.189-1.933-0.567-3.024
		s-0.966-2.1-1.764-3.023c-0.798-0.925-1.821-1.701-3.066-2.331c-1.247-0.63-2.724-0.945-4.431-0.945
		c-1.457,0-2.808,0.259-4.053,0.777c-1.247,0.518-2.331,1.231-3.255,2.142c-0.924,0.91-1.646,1.995-2.163,3.255
		c-0.519,1.26-0.777,2.618-0.777,4.074v1.008c0,1.596,0.252,3.052,0.756,4.368c0.504,1.316,1.203,2.45,2.1,3.402
		c0.895,0.951,1.966,1.687,3.213,2.205c1.245,0.518,2.61,0.776,4.095,0.776c2.688,0,4.822-0.608,6.405-1.827
		c1.581-1.218,2.667-2.793,3.255-4.725l-3.108-0.84c-0.197,0.588-0.456,1.141-0.777,1.659c-0.323,0.518-0.743,0.973-1.26,1.364
		c-0.519,0.393-1.142,0.7-1.869,0.924c-0.729,0.225-1.583,0.337-2.562,0.337c-2.157,0-3.837-0.631-5.04-1.891
		c-1.205-1.26-1.848-2.926-1.932-4.998H584.923z M556.237,477.709c-0.113,0.729-0.33,1.429-0.651,2.101
		c-0.323,0.672-0.756,1.267-1.302,1.785c-0.546,0.518-1.205,0.938-1.974,1.26c-0.771,0.322-1.674,0.483-2.709,0.483
		c-1.037,0-2.003-0.176-2.898-0.525c-0.897-0.35-1.68-0.847-2.352-1.491c-0.672-0.644-1.197-1.435-1.575-2.373
		c-0.378-0.938-0.567-1.995-0.567-3.171v-0.504c0-1.12,0.189-2.156,0.567-3.108c0.378-0.951,0.903-1.771,1.575-2.457
		c0.672-0.686,1.449-1.218,2.331-1.596c0.882-0.378,1.827-0.566,2.835-0.566c1.035,0,1.945,0.153,2.73,0.462
		c0.783,0.308,1.449,0.721,1.995,1.238c0.546,0.519,0.979,1.12,1.302,1.807c0.321,0.686,0.525,1.393,0.609,2.121l3.276-0.757
		c-0.197-1.147-0.567-2.212-1.113-3.191c-0.546-0.98-1.247-1.827-2.1-2.541c-0.855-0.714-1.842-1.268-2.961-1.659
		c-1.121-0.392-2.339-0.588-3.654-0.588c-1.457,0-2.835,0.252-4.137,0.756c-1.302,0.504-2.444,1.218-3.423,2.143
		c-0.981,0.924-1.758,2.058-2.331,3.401c-0.575,1.344-0.861,2.856-0.861,4.536v0.504c0,1.708,0.286,3.22,0.861,4.536
		c0.573,1.316,1.35,2.429,2.331,3.339c0.979,0.91,2.121,1.604,3.423,2.079c1.302,0.476,2.68,0.714,4.137,0.714
		c1.371,0,2.617-0.196,3.738-0.588c1.119-0.392,2.1-0.945,2.94-1.659s1.533-1.561,2.079-2.541c0.546-0.979,0.93-2.044,1.155-3.191
		L556.237,477.709z M517.597,475.021c0-2.268,0.567-4.081,1.701-5.439c1.134-1.357,2.694-2.036,4.683-2.036
		c1.68,0,3.009,0.546,3.99,1.638c0.979,1.092,1.47,2.729,1.47,4.914v11.76h3.276v-12.432c0-2.996-0.714-5.243-2.142-6.741
		c-1.428-1.498-3.347-2.247-5.754-2.247c-3.192,0-5.433,1.372-6.72,4.116h-0.504v-3.528h-3.276v20.832h3.276V475.021z
		 M500.356,467.966c0.769,0.279,1.455,0.672,2.058,1.176c0.601,0.504,1.092,1.12,1.47,1.848c0.378,0.729,0.594,1.54,0.651,2.437
		h-13.44c0.111-0.84,0.357-1.617,0.735-2.331c0.378-0.714,0.867-1.337,1.47-1.869c0.601-0.532,1.302-0.945,2.1-1.239
		s1.659-0.44,2.583-0.44C498.794,467.546,499.585,467.686,500.356,467.966 M507.811,476.449v-2.688c0-0.924-0.189-1.933-0.567-3.024
		c-0.378-1.092-0.966-2.1-1.764-3.023c-0.798-0.925-1.821-1.701-3.066-2.331c-1.247-0.63-2.724-0.945-4.431-0.945
		c-1.457,0-2.808,0.259-4.053,0.777c-1.247,0.518-2.331,1.231-3.255,2.142s-1.646,1.995-2.163,3.255
		c-0.519,1.26-0.777,2.618-0.777,4.074v1.008c0,1.596,0.252,3.052,0.756,4.368s1.203,2.45,2.1,3.402
		c0.895,0.951,1.966,1.687,3.213,2.205c1.245,0.518,2.61,0.776,4.095,0.776c2.688,0,4.822-0.608,6.405-1.827
		c1.581-1.218,2.667-2.793,3.255-4.725l-3.108-0.84c-0.197,0.588-0.456,1.141-0.777,1.659c-0.323,0.518-0.743,0.973-1.26,1.364
		c-0.519,0.393-1.142,0.7-1.869,0.924c-0.729,0.225-1.583,0.337-2.562,0.337c-2.157,0-3.837-0.631-5.04-1.891
		c-1.205-1.26-1.848-2.926-1.932-4.998H507.811z M477.781,475.861c0,2.269-0.567,4.081-1.701,5.439
		c-1.134,1.357-2.696,2.037-4.683,2.037c-1.848,0-3.221-0.505-4.116-1.513c-0.897-1.008-1.344-2.604-1.344-4.788v-12.012h-3.276
		v12.432c0,1.484,0.189,2.786,0.567,3.906c0.378,1.12,0.909,2.059,1.596,2.814c0.685,0.756,1.512,1.322,2.478,1.701
		c0.966,0.378,2.022,0.566,3.171,0.566c1.68,0,3.066-0.392,4.158-1.176s1.974-1.848,2.646-3.192h0.504v3.78h3.276v-20.832h-3.276
		V475.861z M443.425,482.812c-0.84-0.35-1.575-0.854-2.205-1.512c-0.63-0.658-1.121-1.449-1.47-2.373
		c-0.351-0.924-0.525-1.975-0.525-3.15v-0.672c0-1.12,0.174-2.142,0.525-3.066c0.349-0.924,0.84-1.722,1.47-2.394
		s1.371-1.19,2.226-1.554c0.853-0.364,1.77-0.546,2.751-0.546c0.951,0,1.854,0.188,2.709,0.566c0.853,0.378,1.596,0.903,2.226,1.575
		s1.126,1.477,1.491,2.415c0.363,0.938,0.546,1.967,0.546,3.087v0.504c0,1.148-0.183,2.191-0.546,3.129
		c-0.365,0.938-0.861,1.743-1.491,2.415s-1.365,1.19-2.205,1.554c-0.84,0.364-1.751,0.547-2.73,0.547
		C445.189,483.338,444.265,483.162,443.425,482.812 M453.169,494.258h3.276v-29.232h-3.276v3.276h-0.504
		c-0.729-1.261-1.701-2.22-2.919-2.877c-1.218-0.658-2.541-0.987-3.969-0.987c-1.344,0-2.619,0.238-3.822,0.714
		c-1.205,0.477-2.255,1.169-3.15,2.079c-0.897,0.91-1.611,2.03-2.142,3.36c-0.533,1.33-0.798,2.835-0.798,4.515v0.672
		c0,1.708,0.258,3.228,0.777,4.557c0.517,1.33,1.231,2.443,2.142,3.34c0.909,0.896,1.966,1.582,3.171,2.058
		c1.203,0.476,2.505,0.714,3.906,0.714c0.615,0,1.252-0.077,1.911-0.23c0.657-0.154,1.287-0.393,1.89-0.715
		c0.601-0.321,1.161-0.714,1.68-1.176c0.517-0.462,0.958-1.015,1.323-1.659h0.504V494.258z M423.244,467.966
		c0.769,0.279,1.455,0.672,2.058,1.176c0.602,0.504,1.092,1.12,1.47,1.848c0.378,0.729,0.594,1.54,0.651,2.437h-13.44
		c0.111-0.84,0.357-1.617,0.735-2.331s0.867-1.337,1.47-1.869c0.601-0.532,1.302-0.945,2.1-1.239c0.798-0.294,1.659-0.44,2.583-0.44
		C421.682,467.546,422.473,467.686,423.244,467.966 M430.699,476.449v-2.688c0-0.924-0.189-1.933-0.567-3.024
		s-0.966-2.1-1.764-3.023c-0.798-0.925-1.821-1.701-3.066-2.331c-1.247-0.63-2.724-0.945-4.431-0.945
		c-1.457,0-2.808,0.259-4.053,0.777c-1.246,0.518-2.331,1.231-3.255,2.142c-0.924,0.91-1.646,1.995-2.163,3.255
		c-0.519,1.26-0.777,2.618-0.777,4.074v1.008c0,1.596,0.252,3.052,0.756,4.368s1.203,2.45,2.1,3.402
		c0.895,0.951,1.966,1.687,3.213,2.205c1.245,0.518,2.61,0.776,4.095,0.776c2.688,0,4.822-0.608,6.405-1.827
		c1.581-1.218,2.667-2.793,3.255-4.725l-3.108-0.84c-0.197,0.588-0.456,1.141-0.777,1.659c-0.322,0.518-0.743,0.973-1.26,1.364
		c-0.519,0.393-1.142,0.7-1.869,0.924c-0.729,0.225-1.583,0.337-2.562,0.337c-2.157,0-3.837-0.631-5.04-1.891
		c-1.205-1.26-1.848-2.926-1.932-4.998H430.699z M390.505,469.078c0.252-0.378,0.588-0.692,1.008-0.944s0.903-0.441,1.449-0.567
		s1.113-0.188,1.701-0.188c1.512,0,2.736,0.378,3.675,1.134c0.938,0.756,1.476,1.806,1.617,3.149l3.108-0.756
		c-0.112-0.784-0.357-1.567-0.735-2.352c-0.378-0.784-0.918-1.478-1.617-2.079c-0.7-0.603-1.569-1.092-2.604-1.47
		c-1.037-0.378-2.241-0.567-3.612-0.567c-0.981,0-1.918,0.126-2.814,0.378c-0.897,0.252-1.701,0.63-2.415,1.134
		c-0.714,0.504-1.281,1.127-1.701,1.869s-0.63,1.604-0.63,2.583v0.252c0,1.82,0.644,3.206,1.932,4.158
		c1.287,0.952,3.135,1.512,5.544,1.68c2.072,0.141,3.57,0.462,4.494,0.966c0.924,0.505,1.386,1.345,1.386,2.521
		c0,1.092-0.469,1.938-1.407,2.541c-0.939,0.602-2.178,0.903-3.717,0.903c-1.821,0-3.276-0.483-4.368-1.449
		s-1.708-2.247-1.848-3.843l-3.108,0.756c0.056,0.924,0.279,1.841,0.672,2.751c0.392,0.91,0.972,1.722,1.743,2.436
		c0.769,0.714,1.736,1.288,2.898,1.723c1.161,0.434,2.555,0.65,4.179,0.65c1.203,0,2.316-0.146,3.339-0.44
		c1.021-0.294,1.89-0.722,2.604-1.281c0.714-0.561,1.274-1.239,1.68-2.037c0.405-0.798,0.609-1.701,0.609-2.709v-0.252
		c0-1.848-0.637-3.255-1.911-4.221c-1.275-0.967-3.129-1.548-5.565-1.743c-2.268-0.168-3.829-0.519-4.683-1.05
		c-0.855-0.532-1.281-1.303-1.281-2.311C390.127,469.897,390.253,469.456,390.505,469.078 M333.679,468.05h6.552v14.531
		c0,0.952,0.3,1.736,0.903,2.353c0.602,0.616,1.379,0.924,2.331,0.924h7.098v-3.024h-5.922c-0.756,0-1.134-0.42-1.134-1.26V468.05
		h8.064v-3.024h-8.064v-8.568h-3.276v8.568h-6.552V468.05z M311.965,475.021c0-2.268,0.567-4.081,1.701-5.439
		c1.134-1.357,2.694-2.036,4.683-2.036c1.68,0,3.009,0.546,3.99,1.638c0.98,1.092,1.47,2.729,1.47,4.914v11.76h3.276v-12.432
		c0-2.996-0.714-5.243-2.142-6.741s-3.346-2.247-5.754-2.247c-3.192,0-5.433,1.372-6.72,4.116h-0.504v-3.528h-3.276v20.832h3.276
		V475.021z M294.724,467.966c0.77,0.279,1.455,0.672,2.058,1.176c0.602,0.504,1.092,1.12,1.47,1.848
		c0.378,0.729,0.594,1.54,0.651,2.437h-13.44c0.111-0.84,0.357-1.617,0.735-2.331s0.867-1.337,1.47-1.869
		c0.602-0.532,1.302-0.945,2.1-1.239c0.798-0.294,1.659-0.44,2.583-0.44C293.163,467.546,293.953,467.686,294.724,467.966
		 M302.179,476.449v-2.688c0-0.924-0.189-1.933-0.567-3.024s-0.966-2.1-1.764-3.023c-0.798-0.925-1.821-1.701-3.066-2.331
		c-1.246-0.63-2.724-0.945-4.431-0.945c-1.456,0-2.808,0.259-4.053,0.777c-1.246,0.518-2.331,1.231-3.255,2.142
		c-0.924,0.91-1.645,1.995-2.163,3.255c-0.519,1.26-0.777,2.618-0.777,4.074v1.008c0,1.596,0.252,3.052,0.756,4.368
		s1.203,2.45,2.1,3.402c0.896,0.951,1.967,1.687,3.213,2.205c1.245,0.518,2.61,0.776,4.095,0.776c2.688,0,4.823-0.608,6.405-1.827
		c1.581-1.218,2.667-2.793,3.255-4.725l-3.108-0.84c-0.196,0.588-0.456,1.141-0.777,1.659c-0.322,0.518-0.742,0.973-1.26,1.364
		c-0.519,0.393-1.141,0.7-1.869,0.924c-0.729,0.225-1.582,0.337-2.562,0.337c-2.157,0-3.837-0.631-5.04-1.891
		c-1.204-1.26-1.848-2.926-1.932-4.998H302.179z M256.105,468.05h4.284v14.783h-4.788v3.024h13.356v-3.024h-5.292v-8.819
		c0-0.896,0.098-1.736,0.294-2.521c0.195-0.784,0.504-1.47,0.924-2.058s0.945-1.05,1.575-1.386c0.63-0.336,1.379-0.504,2.247-0.504
		c1.344,0,2.478,0.427,3.402,1.28c0.924,0.854,1.386,2.247,1.386,4.18l3.444-0.504c-0.084-2.633-0.771-4.635-2.058-6.007
		c-1.288-1.372-2.982-2.058-5.082-2.058c-1.26,0-2.38,0.273-3.36,0.819c-0.981,0.546-1.737,1.393-2.268,2.541h-0.504v-2.772h-7.56
		V468.05z M243.316,467.966c0.77,0.279,1.455,0.672,2.058,1.176c0.602,0.504,1.092,1.12,1.47,1.848
		c0.378,0.729,0.594,1.54,0.651,2.437h-13.44c0.111-0.84,0.357-1.617,0.735-2.331c0.378-0.714,0.867-1.337,1.47-1.869
		c0.602-0.532,1.302-0.945,2.1-1.239s1.659-0.44,2.583-0.44C241.755,467.546,242.545,467.686,243.316,467.966 M250.771,476.449
		v-2.688c0-0.924-0.189-1.933-0.567-3.024c-0.378-1.092-0.966-2.1-1.764-3.023c-0.798-0.925-1.821-1.701-3.066-2.331
		c-1.246-0.63-2.724-0.945-4.431-0.945c-1.456,0-2.808,0.259-4.053,0.777c-1.246,0.518-2.331,1.231-3.255,2.142
		s-1.645,1.995-2.163,3.255c-0.519,1.26-0.777,2.618-0.777,4.074v1.008c0,1.596,0.252,3.052,0.756,4.368
		c0.504,1.316,1.203,2.45,2.1,3.402c0.896,0.951,1.967,1.687,3.213,2.205c1.245,0.518,2.61,0.776,4.095,0.776
		c2.688,0,4.823-0.608,6.405-1.827c1.581-1.218,2.667-2.793,3.255-4.725l-3.108-0.84c-0.196,0.588-0.456,1.141-0.777,1.659
		c-0.322,0.518-0.742,0.973-1.26,1.364c-0.519,0.393-1.141,0.7-1.869,0.924c-0.729,0.225-1.582,0.337-2.562,0.337
		c-2.157,0-3.837-0.631-5.04-1.891c-1.204-1.26-1.848-2.926-1.932-4.998H250.771z M205.663,468.05h6.426v17.808h3.276V468.05h8.694
		v-3.024h-8.694v-4.284c0-0.84,0.378-1.26,1.134-1.26h7.056v-3.024h-8.232c-0.952,0-1.729,0.309-2.331,0.925
		c-0.603,0.615-0.903,1.399-0.903,2.352v5.292h-6.426V468.05z M179.959,468.05h6.426v17.808h3.276V468.05h8.694v-3.024h-8.694
		v-4.284c0-0.84,0.378-1.26,1.134-1.26h7.056v-3.024h-8.232c-0.952,0-1.729,0.309-2.331,0.925c-0.603,0.615-0.903,1.399-0.903,2.352
		v5.292h-6.426V468.05z M154.969,485.857h17.388v-3.024h-6.804v-17.808h-9.828v3.024h6.552v14.783h-7.308V485.857z M161.794,460.889
		c0.573,0.574,1.266,0.86,2.079,0.86c0.812,0,1.505-0.286,2.079-0.86c0.573-0.574,0.861-1.268,0.861-2.079
		c0-0.812-0.288-1.505-0.861-2.079c-0.574-0.574-1.267-0.861-2.079-0.861c-0.813,0-1.506,0.287-2.079,0.861
		c-0.574,0.574-0.861,1.267-0.861,2.079C160.933,459.621,161.22,460.314,161.794,460.889 M135.145,482.812
		c-0.84-0.35-1.575-0.854-2.205-1.512c-0.63-0.658-1.12-1.449-1.47-2.373s-0.525-1.975-0.525-3.15v-0.672
		c0-1.12,0.175-2.142,0.525-3.066c0.35-0.924,0.84-1.722,1.47-2.394s1.371-1.19,2.226-1.554c0.854-0.364,1.77-0.546,2.751-0.546
		c0.952,0,1.855,0.188,2.709,0.566s1.596,0.903,2.226,1.575c0.63,0.672,1.127,1.477,1.491,2.415
		c0.363,0.938,0.546,1.967,0.546,3.087v0.504c0,1.148-0.183,2.191-0.546,3.129c-0.364,0.938-0.861,1.743-1.491,2.415
		c-0.63,0.672-1.365,1.19-2.205,1.554c-0.84,0.364-1.75,0.547-2.73,0.547C136.909,483.338,135.985,483.162,135.145,482.812
		 M144.889,485.857h3.276v-29.4h-3.276v11.845h-0.504c-0.672-1.316-1.632-2.289-2.877-2.919c-1.246-0.63-2.583-0.945-4.011-0.945
		c-1.344,0-2.619,0.238-3.822,0.714c-1.204,0.477-2.254,1.169-3.15,2.079c-0.897,0.91-1.611,2.03-2.142,3.36
		c-0.532,1.33-0.798,2.835-0.798,4.515v0.672c0,1.708,0.259,3.228,0.777,4.557c0.518,1.33,1.232,2.443,2.142,3.34
		c0.91,0.896,1.967,1.582,3.171,2.058c1.203,0.476,2.505,0.714,3.906,0.714c0.616,0,1.26-0.077,1.932-0.23
		c0.672-0.154,1.309-0.386,1.911-0.693s1.161-0.7,1.68-1.176c0.518-0.477,0.945-1.036,1.281-1.681h0.504V485.857z M83.758,482.812
		c-0.854-0.35-1.603-0.861-2.247-1.533s-1.148-1.477-1.512-2.415c-0.364-0.938-0.546-1.995-0.546-3.171v-0.504
		c0-1.12,0.182-2.149,0.546-3.087c0.364-0.938,0.868-1.743,1.512-2.415s1.4-1.197,2.268-1.575s1.792-0.566,2.772-0.566
		s1.904,0.188,2.772,0.566c0.868,0.378,1.624,0.903,2.268,1.575s1.148,1.477,1.512,2.415c0.364,0.938,0.546,1.967,0.546,3.087v0.504
		c0,1.176-0.182,2.233-0.546,3.171c-0.364,0.938-0.868,1.743-1.512,2.415s-1.393,1.184-2.247,1.533s-1.785,0.525-2.793,0.525
		C85.543,483.338,84.612,483.162,83.758,482.812 M97.009,475.189c0-1.708-0.287-3.227-0.861-4.557
		c-0.574-1.33-1.344-2.457-2.31-3.381c-0.966-0.925-2.079-1.624-3.339-2.101c-1.26-0.476-2.576-0.714-3.948-0.714
		s-2.688,0.238-3.948,0.714c-1.26,0.477-2.373,1.176-3.339,2.101c-0.966,0.924-1.736,2.051-2.31,3.381
		c-0.574,1.33-0.861,2.849-0.861,4.557v0.504c0,1.736,0.287,3.27,0.861,4.599c0.574,1.33,1.337,2.45,2.289,3.36
		c0.952,0.91,2.058,1.604,3.318,2.079c1.26,0.476,2.59,0.714,3.99,0.714c1.372,0,2.695-0.238,3.969-0.714
		c1.274-0.476,2.387-1.169,3.339-2.079s1.715-2.03,2.289-3.36c0.574-1.329,0.861-2.862,0.861-4.599V475.189z M50.935,468.05h6.552
		v14.531c0,0.952,0.301,1.736,0.903,2.353c0.602,0.616,1.379,0.924,2.331,0.924h7.098v-3.024h-5.922c-0.756,0-1.134-0.42-1.134-1.26
		V468.05h8.064v-3.024h-8.064v-8.568h-3.276v8.568h-6.552V468.05z"/>
	<path clip-path="url(#SVGID_4_)" fill="#231F20" d="M700.339,424.062c-0.841-0.35-1.575-0.854-2.205-1.512
		c-0.631-0.658-1.121-1.449-1.471-2.373c-0.351-0.924-0.524-1.975-0.524-3.15v-0.672c0-1.12,0.174-2.142,0.524-3.066
		c0.35-0.924,0.84-1.722,1.471-2.394c0.63-0.672,1.371-1.19,2.226-1.554c0.854-0.364,1.771-0.546,2.75-0.546
		c0.952,0,1.855,0.188,2.709,0.566c0.854,0.378,1.597,0.903,2.227,1.575s1.127,1.477,1.492,2.415
		c0.362,0.938,0.545,1.967,0.545,3.087v0.504c0,1.148-0.183,2.191-0.545,3.129c-0.365,0.938-0.862,1.743-1.492,2.415
		s-1.365,1.19-2.205,1.554c-0.839,0.364-1.75,0.547-2.73,0.547C702.102,424.587,701.178,424.411,700.339,424.062 M710.082,431.223
		c0,0.84-0.378,1.26-1.133,1.26h-12.392v3.024h13.567c0.951,0,1.728-0.309,2.331-0.925c0.601-0.615,0.901-1.399,0.901-2.352v-25.956
		h-3.275v3.276h-0.503c-0.646-1.261-1.534-2.22-2.667-2.877c-1.136-0.658-2.458-0.987-3.97-0.987c-1.344,0-2.633,0.238-3.863,0.714
		c-1.233,0.477-2.311,1.169-3.235,2.079c-0.924,0.91-1.666,2.03-2.226,3.36c-0.561,1.33-0.839,2.835-0.839,4.515v0.672
		c0,1.708,0.271,3.228,0.817,4.557c0.547,1.33,1.288,2.443,2.228,3.34c0.937,0.896,2.021,1.582,3.255,2.058
		c1.23,0.476,2.547,0.714,3.947,0.714c1.371,0,2.639-0.314,3.801-0.945c1.161-0.63,2.08-1.574,2.752-2.835h0.503V431.223z
		 M671.82,416.271c0-2.268,0.567-4.081,1.701-5.439c1.135-1.357,2.694-2.036,4.684-2.036c1.68,0,3.009,0.546,3.99,1.638
		c0.979,1.092,1.47,2.729,1.47,4.914v11.76h3.275v-12.432c0-2.996-0.714-5.243-2.142-6.741s-3.347-2.247-5.754-2.247
		c-3.193,0-5.434,1.372-6.72,4.116h-0.505v-3.528h-3.275v20.832h3.275V416.271z M643.345,427.106h17.388v-3.024h-6.804v-17.808
		h-9.828v3.024h6.552v14.783h-7.308V427.106z M650.17,402.138c0.573,0.574,1.266,0.86,2.079,0.86c0.811,0,1.504-0.286,2.079-0.86
		c0.572-0.574,0.86-1.268,0.86-2.079c0-0.812-0.288-1.505-0.86-2.079c-0.575-0.574-1.269-0.861-2.079-0.861
		c-0.813,0-1.506,0.287-2.079,0.861c-0.575,0.574-0.861,1.267-0.861,2.079C649.309,400.87,649.595,401.563,650.17,402.138
		 M623.521,424.062c-0.84-0.35-1.575-0.854-2.205-1.512c-0.63-0.658-1.12-1.449-1.47-2.373c-0.351-0.924-0.525-1.975-0.525-3.15
		v-0.672c0-1.12,0.175-2.142,0.525-3.066c0.35-0.924,0.84-1.722,1.47-2.394s1.371-1.19,2.227-1.554
		c0.853-0.364,1.77-0.546,2.751-0.546c0.951,0,1.854,0.188,2.709,0.566c0.853,0.378,1.596,0.903,2.226,1.575
		s1.126,1.477,1.491,2.415c0.363,0.938,0.546,1.967,0.546,3.087v0.504c0,1.148-0.183,2.191-0.546,3.129
		c-0.365,0.938-0.861,1.743-1.491,2.415s-1.364,1.19-2.205,1.554c-0.84,0.364-1.751,0.547-2.729,0.547
		C625.285,424.587,624.36,424.411,623.521,424.062 M633.265,427.106h3.276v-29.4h-3.276v11.845h-0.504
		c-0.672-1.316-1.632-2.289-2.877-2.919c-1.247-0.63-2.583-0.945-4.011-0.945c-1.344,0-2.619,0.238-3.822,0.714
		c-1.205,0.477-2.255,1.169-3.15,2.079c-0.896,0.91-1.61,2.03-2.142,3.36c-0.533,1.33-0.798,2.835-0.798,4.515v0.672
		c0,1.708,0.258,3.228,0.777,4.557c0.517,1.33,1.23,2.443,2.142,3.34c0.909,0.896,1.966,1.582,3.171,2.058
		c1.203,0.476,2.505,0.714,3.906,0.714c0.615,0,1.26-0.077,1.932-0.23c0.672-0.154,1.309-0.386,1.911-0.693
		c0.601-0.308,1.161-0.7,1.68-1.176c0.518-0.477,0.945-1.036,1.281-1.681h0.504V427.106z M590.257,409.299h4.284v14.783h-4.788
		v3.024h13.355v-3.024h-5.292v-8.819c0-0.896,0.098-1.736,0.294-2.521c0.195-0.784,0.505-1.47,0.925-2.058s0.944-1.05,1.574-1.386
		c0.631-0.336,1.379-0.504,2.247-0.504c1.345,0,2.479,0.427,3.402,1.28c0.924,0.854,1.386,2.247,1.386,4.18l3.444-0.505
		c-0.084-2.632-0.771-4.634-2.058-6.006c-1.289-1.372-2.982-2.058-5.082-2.058c-1.261,0-2.382,0.272-3.36,0.819
		c-0.981,0.546-1.737,1.393-2.269,2.541h-0.504v-2.772h-7.56V409.299z M572.134,424.062c-0.855-0.35-1.604-0.861-2.247-1.533
		c-0.645-0.672-1.149-1.477-1.512-2.415c-0.365-0.938-0.546-1.995-0.546-3.171v-0.504c0-1.12,0.181-2.149,0.546-3.087
		c0.363-0.938,0.867-1.743,1.512-2.415c0.643-0.672,1.399-1.197,2.268-1.575c0.867-0.378,1.791-0.566,2.772-0.566
		c0.979,0,1.903,0.188,2.772,0.566c0.867,0.378,1.623,0.903,2.268,1.575c0.643,0.672,1.147,1.477,1.512,2.415
		c0.363,0.938,0.546,1.967,0.546,3.087v0.504c0,1.176-0.183,2.233-0.546,3.171c-0.365,0.938-0.869,1.743-1.512,2.415
		c-0.645,0.672-1.394,1.184-2.247,1.533c-0.855,0.35-1.785,0.525-2.793,0.525S572.987,424.411,572.134,424.062 M585.385,416.438
		c0-1.708-0.288-3.227-0.861-4.557c-0.575-1.33-1.344-2.457-2.31-3.382c-0.966-0.924-2.079-1.623-3.339-2.1
		c-1.26-0.476-2.577-0.714-3.948-0.714c-1.373,0-2.688,0.238-3.948,0.714c-1.26,0.477-2.373,1.176-3.339,2.1
		c-0.966,0.925-1.737,2.052-2.31,3.382c-0.575,1.33-0.861,2.849-0.861,4.557v0.504c0,1.736,0.286,3.27,0.861,4.599
		c0.573,1.33,1.336,2.45,2.289,3.36c0.951,0.91,2.058,1.604,3.318,2.079c1.26,0.476,2.589,0.714,3.99,0.714
		c1.371,0,2.694-0.238,3.969-0.714c1.273-0.476,2.386-1.169,3.339-2.079c0.951-0.91,1.714-2.03,2.289-3.36
		c0.573-1.329,0.861-2.862,0.861-4.599V416.438z M556.237,418.958c-0.113,0.729-0.33,1.429-0.651,2.101
		c-0.323,0.672-0.756,1.267-1.302,1.785c-0.546,0.518-1.205,0.938-1.974,1.26c-0.771,0.322-1.674,0.483-2.709,0.483
		c-1.037,0-2.003-0.176-2.898-0.525c-0.897-0.35-1.68-0.847-2.352-1.491c-0.672-0.644-1.197-1.435-1.575-2.373
		c-0.378-0.938-0.567-1.995-0.567-3.171v-0.504c0-1.12,0.189-2.156,0.567-3.108c0.378-0.951,0.903-1.771,1.575-2.457
		c0.672-0.686,1.449-1.218,2.331-1.596c0.882-0.378,1.827-0.566,2.835-0.566c1.035,0,1.945,0.153,2.73,0.462
		c0.783,0.308,1.449,0.721,1.995,1.238c0.546,0.519,0.979,1.12,1.302,1.807c0.321,0.686,0.525,1.393,0.609,2.121l3.276-0.757
		c-0.197-1.147-0.567-2.212-1.113-3.191c-0.546-0.98-1.247-1.827-2.1-2.541c-0.855-0.714-1.842-1.268-2.961-1.659
		c-1.121-0.392-2.339-0.588-3.654-0.588c-1.457,0-2.835,0.252-4.137,0.756c-1.302,0.504-2.444,1.218-3.423,2.142
		c-0.981,0.925-1.758,2.059-2.331,3.402c-0.575,1.344-0.861,2.856-0.861,4.536v0.504c0,1.708,0.286,3.22,0.861,4.536
		c0.573,1.316,1.35,2.429,2.331,3.339c0.979,0.91,2.121,1.604,3.423,2.079c1.302,0.476,2.68,0.714,4.137,0.714
		c1.371,0,2.617-0.196,3.738-0.588c1.119-0.392,2.1-0.945,2.94-1.659s1.533-1.561,2.079-2.541c0.546-0.979,0.93-2.044,1.155-3.191
		L556.237,418.958z M530.533,418.958c-0.113,0.729-0.33,1.429-0.651,2.101c-0.323,0.672-0.756,1.267-1.302,1.785
		c-0.546,0.518-1.205,0.938-1.974,1.26c-0.771,0.322-1.674,0.483-2.709,0.483c-1.037,0-2.003-0.176-2.898-0.525
		c-0.897-0.35-1.68-0.847-2.352-1.491c-0.672-0.644-1.197-1.435-1.575-2.373c-0.378-0.938-0.567-1.995-0.567-3.171v-0.504
		c0-1.12,0.189-2.156,0.567-3.108c0.378-0.951,0.903-1.771,1.575-2.457c0.672-0.686,1.449-1.218,2.331-1.596
		c0.882-0.378,1.827-0.566,2.835-0.566c1.035,0,1.945,0.153,2.73,0.462c0.783,0.308,1.449,0.721,1.995,1.238
		c0.546,0.519,0.979,1.12,1.302,1.807c0.321,0.686,0.525,1.393,0.609,2.121l3.276-0.757c-0.197-1.147-0.567-2.212-1.113-3.191
		c-0.546-0.98-1.247-1.827-2.1-2.541c-0.855-0.714-1.842-1.268-2.961-1.659c-1.121-0.392-2.339-0.588-3.654-0.588
		c-1.457,0-2.835,0.252-4.137,0.756c-1.302,0.504-2.444,1.218-3.423,2.142c-0.981,0.925-1.758,2.059-2.331,3.402
		c-0.575,1.344-0.861,2.856-0.861,4.536v0.504c0,1.708,0.286,3.22,0.861,4.536c0.573,1.316,1.35,2.429,2.331,3.339
		c0.979,0.91,2.121,1.604,3.423,2.079c1.302,0.476,2.68,0.714,4.137,0.714c1.371,0,2.617-0.196,3.738-0.588
		c1.119-0.392,2.1-0.945,2.94-1.659c0.84-0.714,1.533-1.561,2.079-2.541c0.546-0.979,0.93-2.044,1.155-3.191L530.533,418.958z
		 M492.166,422.592c-1.247-1.33-1.869-3.186-1.869-5.565v-0.672c0-1.12,0.168-2.149,0.504-3.087
		c0.336-0.938,0.804-1.736,1.407-2.395c0.601-0.657,1.308-1.169,2.121-1.532c0.811-0.364,1.707-0.546,2.688-0.546
		c0.951,0,1.84,0.188,2.667,0.566c0.825,0.378,1.539,0.903,2.142,1.575c0.601,0.672,1.071,1.477,1.407,2.415
		c0.336,0.938,0.504,1.967,0.504,3.087v0.504c0,1.148-0.168,2.191-0.504,3.129c-0.336,0.938-0.798,1.743-1.386,2.415
		c-0.588,0.672-1.296,1.19-2.121,1.554c-0.827,0.364-1.73,0.547-2.709,0.547C495.028,424.587,493.411,423.922,492.166,422.592
		 M503.737,423.83c0,0.952,0.3,1.736,0.903,2.353c0.601,0.616,1.378,0.924,2.331,0.924h2.226v-3.024h-1.05
		c-0.756,0-1.134-0.42-1.134-1.26v-16.548h-3.276v3.276h-0.504c-0.672-1.316-1.59-2.289-2.751-2.919
		c-1.163-0.63-2.457-0.945-3.885-0.945c-1.317,0-2.562,0.238-3.738,0.714c-1.176,0.477-2.205,1.169-3.087,2.079
		c-0.882,0.91-1.575,2.023-2.079,3.339c-0.504,1.316-0.756,2.828-0.756,4.536v0.672c0,1.736,0.252,3.262,0.756,4.578
		s1.197,2.429,2.079,3.339c0.882,0.91,1.911,1.596,3.087,2.059c1.176,0.462,2.449,0.692,3.822,0.692
		c1.315,0,2.568-0.336,3.759-1.008c1.189-0.672,2.121-1.708,2.793-3.108h0.504V423.83z M442.585,397.706h-3.276v29.4h3.276v-9.156
		h0.798l8.862,9.156h4.032v-0.252l-9.66-10.038v-0.756l8.652-9.534v-0.252h-4.032l-7.938,8.652h-0.714V397.706z M410.329,409.299
		h4.284v14.783h-4.788v3.024h13.356v-3.024h-5.292v-8.819c0-0.896,0.097-1.736,0.294-2.521c0.195-0.784,0.504-1.47,0.924-2.058
		s0.945-1.05,1.575-1.386c0.63-0.336,1.379-0.504,2.247-0.504c1.344,0,2.478,0.427,3.402,1.28c0.924,0.854,1.386,2.247,1.386,4.18
		l3.444-0.505c-0.084-2.632-0.771-4.634-2.058-6.006c-1.289-1.372-2.982-2.058-5.082-2.058c-1.26,0-2.38,0.272-3.36,0.819
		c-0.981,0.546-1.737,1.393-2.268,2.541h-0.504v-2.772h-7.56V409.299z M392.206,424.062c-0.855-0.35-1.604-0.861-2.247-1.533
		c-0.645-0.672-1.149-1.477-1.512-2.415c-0.364-0.938-0.546-1.995-0.546-3.171v-0.504c0-1.12,0.182-2.149,0.546-3.087
		c0.363-0.938,0.867-1.743,1.512-2.415c0.643-0.672,1.4-1.197,2.268-1.575c0.867-0.378,1.791-0.566,2.772-0.566
		c0.98,0,1.903,0.188,2.772,0.566c0.867,0.378,1.623,0.903,2.268,1.575c0.644,0.672,1.148,1.477,1.512,2.415
		c0.363,0.938,0.546,1.967,0.546,3.087v0.504c0,1.176-0.183,2.233-0.546,3.171c-0.364,0.938-0.868,1.743-1.512,2.415
		c-0.645,0.672-1.393,1.184-2.247,1.533c-0.855,0.35-1.785,0.525-2.793,0.525C393.991,424.587,393.06,424.411,392.206,424.062
		 M405.457,416.438c0-1.708-0.288-3.227-0.861-4.557c-0.574-1.33-1.344-2.457-2.31-3.382c-0.966-0.924-2.079-1.623-3.339-2.1
		c-1.26-0.476-2.577-0.714-3.948-0.714c-1.373,0-2.688,0.238-3.948,0.714c-1.26,0.477-2.373,1.176-3.339,2.1
		c-0.966,0.925-1.737,2.052-2.31,3.382c-0.574,1.33-0.861,2.849-0.861,4.557v0.504c0,1.736,0.287,3.27,0.861,4.599
		c0.573,1.33,1.336,2.45,2.289,3.36c0.951,0.91,2.058,1.604,3.318,2.079c1.26,0.476,2.589,0.714,3.99,0.714
		c1.371,0,2.694-0.238,3.969-0.714c1.274-0.476,2.387-1.169,3.339-2.079c0.951-0.91,1.715-2.03,2.289-3.36
		c0.573-1.329,0.861-2.862,0.861-4.599V416.438z M381.391,406.274h-3.36l-2.772,19.32h-0.504l-2.436-19.32h-6.048l-2.436,19.32
		h-0.504l-2.772-19.32h-3.36l3.276,20.832h6.048l2.52-19.32h0.504l2.52,19.32h6.048L381.391,406.274z M320.428,409.215
		c0.77,0.279,1.455,0.672,2.058,1.176c0.602,0.504,1.092,1.12,1.47,1.848c0.378,0.729,0.594,1.54,0.651,2.437h-13.44
		c0.111-0.841,0.357-1.617,0.735-2.331s0.867-1.337,1.47-1.869c0.602-0.532,1.302-0.945,2.1-1.239
		c0.798-0.294,1.659-0.44,2.583-0.44C318.867,408.795,319.657,408.935,320.428,409.215 M327.883,417.698v-2.688
		c0-0.924-0.189-1.933-0.567-3.024s-0.966-2.1-1.764-3.023c-0.798-0.925-1.821-1.701-3.066-2.331
		c-1.246-0.63-2.724-0.945-4.431-0.945c-1.456,0-2.808,0.259-4.053,0.777c-1.246,0.518-2.331,1.231-3.255,2.142
		c-0.924,0.91-1.645,1.995-2.163,3.255c-0.519,1.26-0.777,2.618-0.777,4.074v1.008c0,1.596,0.252,3.052,0.756,4.368
		c0.504,1.316,1.203,2.45,2.1,3.402c0.896,0.951,1.967,1.687,3.213,2.204c1.245,0.519,2.61,0.777,4.095,0.777
		c2.688,0,4.823-0.608,6.405-1.827c1.581-1.218,2.667-2.793,3.255-4.725l-3.108-0.84c-0.196,0.588-0.456,1.141-0.777,1.659
		c-0.322,0.518-0.742,0.973-1.26,1.364c-0.519,0.393-1.141,0.7-1.869,0.924c-0.729,0.225-1.582,0.337-2.562,0.337
		c-2.157,0-3.837-0.631-5.04-1.891c-1.204-1.26-1.848-2.926-1.932-4.998H327.883z M286.261,416.271c0-2.268,0.567-4.081,1.701-5.439
		c1.134-1.357,2.694-2.036,4.683-2.036c1.68,0,3.009,0.546,3.99,1.638c0.98,1.092,1.47,2.729,1.47,4.914v11.76h3.276v-12.432
		c0-2.996-0.708-5.243-2.121-6.741c-1.414-1.498-3.255-2.247-5.523-2.247c-1.68,0-3.102,0.392-4.263,1.176
		c-1.162,0.784-2.065,1.849-2.709,3.192h-0.504v-12.349h-3.276v29.4h3.276V416.271z M256.567,409.299h6.552v14.531
		c0,0.952,0.3,1.736,0.903,2.353c0.602,0.616,1.379,0.924,2.331,0.924h7.098v-3.024h-5.922c-0.756,0-1.134-0.42-1.134-1.26v-13.523
		h8.064v-3.024h-8.064v-8.568h-3.276v8.568h-6.552V409.299z M211.963,424.062c-0.84-0.35-1.575-0.854-2.205-1.512
		c-0.63-0.658-1.12-1.449-1.47-2.373c-0.351-0.924-0.525-1.975-0.525-3.15v-0.672c0-1.12,0.174-2.142,0.525-3.066
		c0.35-0.924,0.84-1.722,1.47-2.394s1.371-1.19,2.226-1.554c0.854-0.364,1.77-0.546,2.751-0.546c0.951,0,1.854,0.188,2.709,0.566
		c0.854,0.378,1.596,0.903,2.226,1.575s1.127,1.477,1.491,2.415c0.363,0.938,0.546,1.967,0.546,3.087v0.504
		c0,1.148-0.183,2.191-0.546,3.129c-0.364,0.938-0.861,1.743-1.491,2.415s-1.365,1.19-2.205,1.554
		c-0.84,0.364-1.75,0.547-2.73,0.547C213.727,424.587,212.803,424.411,211.963,424.062 M221.707,431.223
		c0,0.84-0.378,1.26-1.134,1.26h-12.39v3.024h13.566c0.951,0,1.728-0.309,2.331-0.925c0.602-0.615,0.903-1.399,0.903-2.352v-25.956
		h-3.276v3.276h-0.504c-0.645-1.261-1.533-2.22-2.667-2.877c-1.134-0.658-2.457-0.987-3.969-0.987c-1.344,0-2.632,0.238-3.864,0.714
		c-1.233,0.477-2.31,1.169-3.234,2.079c-0.924,0.91-1.666,2.03-2.226,3.36c-0.561,1.33-0.84,2.835-0.84,4.515v0.672
		c0,1.708,0.273,3.228,0.819,4.557c0.546,1.33,1.287,2.443,2.226,3.34c0.938,0.896,2.022,1.582,3.255,2.058
		c1.232,0.476,2.547,0.714,3.948,0.714c1.371,0,2.639-0.314,3.801-0.945c1.161-0.63,2.079-1.574,2.751-2.835h0.504V431.223z
		 M183.445,416.271c0-2.268,0.567-4.081,1.701-5.439c1.134-1.357,2.694-2.036,4.683-2.036c1.68,0,3.009,0.546,3.99,1.638
		c0.98,1.092,1.47,2.729,1.47,4.914v11.76h3.276v-12.432c0-2.996-0.714-5.243-2.142-6.741s-3.346-2.247-5.754-2.247
		c-3.192,0-5.433,1.372-6.72,4.116h-0.504v-3.528h-3.276v20.832h3.276V416.271z M154.969,427.106h17.388v-3.024h-6.804v-17.808
		h-9.828v3.024h6.552v14.783h-7.308V427.106z M161.794,402.138c0.573,0.574,1.266,0.86,2.079,0.86c0.812,0,1.505-0.286,2.079-0.86
		c0.573-0.574,0.861-1.268,0.861-2.079c0-0.812-0.288-1.505-0.861-2.079c-0.574-0.574-1.267-0.861-2.079-0.861
		c-0.813,0-1.506,0.287-2.079,0.861c-0.574,0.574-0.861,1.267-0.861,2.079C160.933,400.87,161.22,401.563,161.794,402.138
		 M135.145,424.062c-0.84-0.35-1.575-0.854-2.205-1.512c-0.63-0.658-1.12-1.449-1.47-2.373s-0.525-1.975-0.525-3.15v-0.672
		c0-1.12,0.175-2.142,0.525-3.066c0.35-0.924,0.84-1.722,1.47-2.394s1.371-1.19,2.226-1.554c0.854-0.364,1.77-0.546,2.751-0.546
		c0.952,0,1.855,0.188,2.709,0.566s1.596,0.903,2.226,1.575c0.63,0.672,1.127,1.477,1.491,2.415
		c0.363,0.938,0.546,1.967,0.546,3.087v0.504c0,1.148-0.183,2.191-0.546,3.129c-0.364,0.938-0.861,1.743-1.491,2.415
		c-0.63,0.672-1.365,1.19-2.205,1.554c-0.84,0.364-1.75,0.547-2.73,0.547C136.909,424.587,135.985,424.411,135.145,424.062
		 M144.889,427.106h3.276v-29.4h-3.276v11.845h-0.504c-0.672-1.316-1.632-2.289-2.877-2.919c-1.246-0.63-2.583-0.945-4.011-0.945
		c-1.344,0-2.619,0.238-3.822,0.714c-1.204,0.477-2.254,1.169-3.15,2.079c-0.897,0.91-1.611,2.03-2.142,3.36
		c-0.532,1.33-0.798,2.835-0.798,4.515v0.672c0,1.708,0.259,3.228,0.777,4.557c0.518,1.33,1.232,2.443,2.142,3.34
		c0.909,0.896,1.967,1.582,3.171,2.058c1.203,0.476,2.505,0.714,3.906,0.714c0.616,0,1.26-0.077,1.932-0.23
		c0.672-0.154,1.309-0.386,1.911-0.693s1.161-0.7,1.68-1.176c0.518-0.477,0.945-1.036,1.281-1.681h0.504V427.106z M106.606,422.592
		c-1.246-1.33-1.869-3.186-1.869-5.565v-0.672c0-1.12,0.168-2.149,0.504-3.087c0.336-0.938,0.805-1.736,1.407-2.395
		c0.602-0.657,1.309-1.169,2.121-1.532c0.812-0.364,1.708-0.546,2.688-0.546c0.952,0,1.841,0.188,2.667,0.566
		c0.826,0.378,1.54,0.903,2.142,1.575c0.602,0.672,1.071,1.477,1.407,2.415c0.336,0.938,0.504,1.967,0.504,3.087v0.504
		c0,1.148-0.168,2.191-0.504,3.129c-0.336,0.938-0.798,1.743-1.386,2.415c-0.588,0.672-1.295,1.19-2.121,1.554
		c-0.826,0.364-1.729,0.547-2.709,0.547C109.469,424.587,107.852,423.922,106.606,422.592 M118.177,423.83
		c0,0.952,0.301,1.736,0.903,2.353c0.602,0.616,1.379,0.924,2.331,0.924h2.226v-3.024h-1.05c-0.756,0-1.134-0.42-1.134-1.26v-16.548
		h-3.276v3.276h-0.504c-0.672-1.316-1.589-2.289-2.751-2.919s-2.457-0.945-3.885-0.945c-1.316,0-2.562,0.238-3.738,0.714
		c-1.176,0.477-2.205,1.169-3.087,2.079s-1.575,2.023-2.079,3.339c-0.504,1.316-0.756,2.828-0.756,4.536v0.672
		c0,1.736,0.252,3.262,0.756,4.578s1.197,2.429,2.079,3.339s1.911,1.596,3.087,2.059c1.176,0.462,2.45,0.692,3.822,0.692
		c1.316,0,2.569-0.336,3.759-1.008s2.121-1.708,2.793-3.108h0.504V423.83z M89.092,409.215c0.77,0.279,1.456,0.672,2.058,1.176
		s1.092,1.12,1.47,1.848c0.378,0.729,0.595,1.54,0.651,2.437h-13.44c0.112-0.841,0.357-1.617,0.735-2.331s0.868-1.337,1.47-1.869
		c0.602-0.532,1.302-0.945,2.1-1.239c0.798-0.294,1.659-0.44,2.583-0.44C87.531,408.795,88.322,408.935,89.092,409.215
		 M96.547,417.698v-2.688c0-0.924-0.189-1.933-0.567-3.024s-0.966-2.1-1.764-3.023c-0.798-0.925-1.82-1.701-3.066-2.331
		s-2.723-0.945-4.431-0.945c-1.456,0-2.807,0.259-4.053,0.777c-1.246,0.518-2.331,1.231-3.255,2.142
		c-0.924,0.91-1.645,1.995-2.163,3.255c-0.518,1.26-0.777,2.618-0.777,4.074v1.008c0,1.596,0.252,3.052,0.756,4.368
		c0.504,1.316,1.204,2.45,2.1,3.402c0.896,0.951,1.967,1.687,3.213,2.204c1.246,0.519,2.611,0.777,4.095,0.777
		c2.688,0,4.823-0.608,6.405-1.827c1.582-1.218,2.667-2.793,3.255-4.725l-3.108-0.84c-0.196,0.588-0.455,1.141-0.777,1.659
		c-0.322,0.518-0.742,0.973-1.26,1.364c-0.518,0.393-1.141,0.7-1.869,0.924c-0.728,0.225-1.582,0.337-2.562,0.337
		c-2.156,0-3.836-0.631-5.04-1.891s-1.848-2.926-1.932-4.998H96.547z M55.093,400.982h6.552c1.988,0,3.465,0.455,4.431,1.365
		c0.966,0.91,1.449,2.106,1.449,3.591v0.756c0,1.652-0.483,2.905-1.449,3.759c-0.966,0.854-2.443,1.281-4.431,1.281h-6.552V400.982z
		 M70.045,416.522c0-0.98-0.238-1.736-0.714-2.268c-0.476-0.532-1.134-0.868-1.974-1.009v-0.504c1.26-0.588,2.191-1.428,2.793-2.52
		s0.903-2.185,0.903-3.276v-1.26c0-1.064-0.189-2.079-0.567-3.045s-0.938-1.813-1.68-2.541c-0.742-0.729-1.673-1.31-2.793-1.743
		c-1.12-0.434-2.436-0.651-3.948-0.651h-10.5v29.4h3.528v-12.096h9.156c0.84,0,1.428,0.195,1.764,0.588
		c0.336,0.392,0.504,0.952,0.504,1.68v9.828h3.528V416.522z"/>
</g>
<path fill="#FF1419" d="M794.423,361.031v24.783l167.085-5.197l-71.949,108.725l0.399,0.4l235.038-115.92v-0.799L889.958,257.901
	l-0.8,0.4l72.35,108.726L794.423,361.031z M986.691,373.822h105.526L930.73,453.367L986.691,373.822z"/>
<line fill="none" stroke="#231F20" stroke-width="1.991" x1="768.399" y1="210.658" x2="1150.639" y2="210.658"/>
<line fill="none" stroke="#231F20" stroke-width="1.991" x1="21.134" y1="364.824" x2="736.929" y2="364.824"/>
<line fill="none" stroke="#231F20" stroke-width="1.991" x1="756.93" y1="25.347" x2="756.93" y2="499.347"/>
<line fill="none" stroke="#231F20" stroke-width="2" x1="470.529" y1="26.402" x2="470.529" y2="344.291"/>
<g>
	<defs>
		<rect id="SVGID_37_" x="-0.91" width="1170.088" height="525.039"/>
	</defs>
	<clipPath id="SVGID_6_">
		<use xlink:href="#SVGID_37_"  overflow="visible"/>
	</clipPath>
	<path clip-path="url(#SVGID_6_)" fill="#231F20" d="M209.558,47.915c7.352,0,13.749,0.852,19.195,2.553
		c5.444,1.703,9.971,4.767,13.58,9.188c3.605,4.426,6.295,10.485,8.066,18.174c1.767,7.693,2.654,17.597,2.654,29.712
		c0,12.118-0.887,22.09-2.654,29.916c-1.771,7.829-4.461,13.987-8.066,18.48c-3.609,4.492-8.136,7.626-13.58,9.393
		c-5.446,1.771-11.843,2.655-19.195,2.655V47.915z M32.923,321.342h212.166V305.21h-35.531V184.118
		c6.669,0,12.421,0.954,17.255,2.859c4.831,1.908,8.746,5.41,11.742,10.516c2.993,5.105,5.207,12.083,6.637,20.932
		c1.429,8.851,2.144,20.215,2.144,34.102c0,12.66,1.292,23.824,3.88,33.489c2.584,9.668,7.045,17.766,13.375,24.3
		c6.33,6.535,14.804,11.467,25.423,14.805c10.619,3.334,23.959,5.003,40.024,5.003c16.744,0,30.56-1.261,41.453-3.777
		c10.89-2.521,19.568-6.638,26.036-12.354c6.464-5.718,10.956-13.203,13.477-22.463c2.518-9.256,3.778-20.624,3.778-34.102v-6.535
		h-17.153c0,16.474-1.021,29.067-3.063,37.778c-2.042,8.713-5.31,13.069-9.802,13.069c-2.725,0-4.665-1.088-5.82-3.268
		c-1.158-2.177-1.735-5.376-1.735-9.598v-7.249c0-2.108,0.134-5.137,0.408-9.087c0.134-3.81,0.236-7.112,0.306-9.904
		c0.067-2.789,0.102-6.158,0.102-10.107c0-14.294-2.52-26.104-7.555-35.43c-5.038-9.323-13.037-16.744-23.994-22.258
		c-10.96-5.514-25.085-9.394-42.372-11.64c-17.29-2.246-38.186-3.437-62.69-3.573c27.363-0.135,50.199-1.869,68.51-5.207
		c18.308-3.334,32.943-8.066,43.903-14.193c10.957-6.125,18.717-13.61,23.279-22.461c4.56-8.848,6.841-18.922,6.841-30.223
		c0-12.932-2.623-24.162-7.862-33.693c-5.242-9.527-12.864-17.389-22.87-23.586c-10.006-6.192-22.329-10.787-36.961-13.783
		c-14.636-2.992-31.278-4.492-49.927-4.492H32.923v15.928h35.735V305.21H32.923V321.342z"/>
	<path clip-path="url(#SVGID_6_)" fill="#231F20" d="M669.443,278.367h41.442v43.81h-41.442V278.367z M523.175,94.837V67.604
		c17.761-3.553,28.418-12.631,35.917-20.524c3.946-4.737,7.104-9.866,9.472-14.998h25.655v290.095h-42.626V94.837H523.175z"/>
</g>
</svg>
