<?xml version="1.0" encoding="utf-8"?>
<!-- Generator: Adobe Illustrator 16.0.0, SVG Export Plug-In . SVG Version: 6.00 Build 0)  -->
<!DOCTYPE svg PUBLIC "-//W3C//DTD SVG 1.1//EN" "http://www.w3.org/Graphics/SVG/1.1/DTD/svg11.dtd">
<svg version="1.1" id="Layer_1" xmlns="http://www.w3.org/2000/svg" xmlns:xlink="http://www.w3.org/1999/xlink" x="0px" y="0px"
	 width="1170.09px" height="492.17px" viewBox="0 0 1170.09 492.17" enable-background="new 0 0 1170.09 492.17"
	 xml:space="preserve">
<g>
	<defs>
		<rect id="SVGID_25_" y="0" width="1170.088" height="492.17"/>
	</defs>
	<clipPath id="SVGID_2_">
		<use xlink:href="#SVGID_25_"  overflow="visible"/>
	</clipPath>
	<path clip-path="url(#SVGID_2_)" fill="#FF1419" d="M1053.77,119.979l9.936-25.352l10.367,25.352H1053.77z M1031.049,146.996
		h24.547v-4.243c-1.434,0-2.748-0.035-3.948-0.107c-1.2-0.071-2.238-0.205-3.115-0.402c-0.878-0.197-1.557-0.447-2.041-0.752
		c-0.483-0.304-0.725-0.707-0.725-1.209c0-0.179,0.018-0.322,0.054-0.43l6.283-15.629h23.633l7.412,18.529h-10.365v4.243h60.908
		v-4.243h-9.346l-32.388-71.865h-23.58l-27.661,69.127c-0.429,1.039-1.423,1.754-2.98,2.147c-1.557,0.394-3.787,0.591-6.688,0.591
		V146.996z M972.399,75.077c1.934,0,3.616,0.225,5.049,0.672c1.431,0.448,2.623,1.254,3.571,2.416
		c0.949,1.164,1.656,2.758,2.121,4.781c0.466,2.023,0.699,4.628,0.699,7.814c0,3.188-0.233,5.811-0.699,7.869
		c-0.465,2.06-1.172,3.678-2.121,4.86c-0.948,1.183-2.141,2.006-3.571,2.472c-1.433,0.465-3.115,0.697-5.049,0.697V75.077z
		 M925.939,146.996h55.806v-4.243h-9.346v-31.851c1.753,0,3.267,0.251,4.539,0.752c1.27,0.502,2.3,1.424,3.087,2.767
		c0.787,1.342,1.371,3.178,1.746,5.506c0.377,2.328,0.564,5.316,0.564,8.969c0,3.33,0.34,6.267,1.021,8.809
		c0.68,2.543,1.853,4.674,3.518,6.393c1.665,1.718,3.894,3.016,6.687,3.894c2.794,0.877,6.303,1.315,10.528,1.315
		c4.404,0,8.038-0.332,10.903-0.993c2.864-0.663,5.147-1.746,6.848-3.25c1.7-1.505,2.883-3.472,3.545-5.908
		c0.662-2.435,0.994-5.425,0.994-8.97v-1.719h-4.512c0,4.334-0.269,7.646-0.807,9.937c-0.536,2.292-1.396,3.438-2.577,3.438
		c-0.717,0-1.228-0.287-1.531-0.86c-0.304-0.572-0.456-1.414-0.456-2.524v-1.906c0-0.556,0.035-1.352,0.107-2.391
		c0.035-1.002,0.062-1.871,0.08-2.605c0.018-0.732,0.027-1.619,0.027-2.658c0-3.76-0.664-6.865-1.987-9.318
		c-1.325-2.453-3.43-4.404-6.312-5.855c-2.883-1.449-6.598-2.471-11.145-3.061c-4.547-0.591-10.044-0.904-16.49-0.939
		c7.198-0.037,13.205-0.492,18.021-1.371c4.815-0.877,8.665-2.121,11.549-3.732c2.882-1.611,4.923-3.58,6.123-5.908
		c1.198-2.326,1.798-4.977,1.798-7.949c0-3.401-0.689-6.355-2.067-8.862s-3.384-4.573-6.015-6.203
		c-2.632-1.629-5.873-2.838-9.723-3.626c-3.85-0.787-8.227-1.182-13.133-1.182h-61.391v4.189h9.398v67.676h-9.398V146.996z
		 M830.443,114.016c0,3.117,0.277,6.143,0.833,9.078c0.554,2.937,1.44,5.703,2.658,8.299c1.217,2.597,2.811,4.977,4.78,7.144
		c1.969,2.166,4.387,4.028,7.252,5.585c2.863,1.559,6.193,2.768,9.989,3.627c3.794,0.858,8.128,1.288,12.997,1.288
		c7.02,0,12.881-0.707,17.592-2.122c4.707-1.414,8.486-3.625,11.332-6.633c2.848-3.008,4.869-6.848,6.07-11.521
		c1.199-4.672,1.799-10.267,1.799-16.785V78.246c0-1.038,0.787-1.825,2.363-2.362c1.574-0.537,3.902-0.807,6.982-0.807v-4.189
		h-23.364v4.189c3.116,0,5.47,0.27,7.062,0.807s2.392,1.324,2.392,2.362v35.234c0,4.047-0.251,7.547-0.752,10.501
		c-0.502,2.953-1.191,5.479-2.068,7.572c-0.878,2.096-1.899,3.806-3.062,5.129c-1.164,1.326-2.398,2.365-3.705,3.117
		c-1.309,0.752-2.659,1.262-4.057,1.529c-1.395,0.27-2.757,0.403-4.081,0.403c-3.474,0-6.257-0.679-8.353-2.041
		c-2.094-1.36-3.705-3.195-4.833-5.505c-1.128-2.311-1.872-4.986-2.229-8.03c-0.357-3.043-0.537-6.248-0.537-9.614V75.077h9.347
		v-4.189h-55.808v4.189h9.4V114.016z M739.942,146.996h55.806v-4.243h-9.398V75.077h7.788l13.104,26.533h3.76V70.887h-86.312v30.723
		h3.706l13.159-26.533h7.732v67.676h-9.345V146.996z M657.82,146.996h55.806v-4.243h-9.345V75.077h9.345v-4.189H657.82v4.189h9.4
		v67.676h-9.4V146.996z M593.047,75.077c1.935,0,3.617,0.225,5.05,0.672c1.432,0.448,2.622,1.254,3.571,2.416
		c0.948,1.164,1.656,2.758,2.122,4.781c0.464,2.023,0.698,4.628,0.698,7.814c0,3.188-0.234,5.811-0.698,7.869
		c-0.466,2.06-1.174,3.678-2.122,4.86c-0.949,1.183-2.14,2.006-3.571,2.472c-1.433,0.465-3.115,0.697-5.05,0.697V75.077z
		 M546.588,146.996h55.806v-4.243h-9.347v-31.851c1.754,0,3.268,0.251,4.539,0.752c1.271,0.502,2.301,1.424,3.088,2.767
		c0.788,1.342,1.37,3.178,1.746,5.506s0.564,5.316,0.564,8.969c0,3.33,0.34,6.267,1.02,8.809c0.68,2.543,1.854,4.674,3.518,6.393
		c1.666,1.718,3.896,3.016,6.688,3.894c2.792,0.877,6.302,1.315,10.526,1.315c4.405,0,8.039-0.332,10.904-0.993
		c2.863-0.663,5.146-1.746,6.848-3.25c1.701-1.505,2.881-3.472,3.545-5.908c0.662-2.435,0.994-5.425,0.994-8.97v-1.719h-4.512
		c0,4.334-0.269,7.646-0.806,9.937c-0.538,2.292-1.396,3.438-2.579,3.438c-0.716,0-1.227-0.287-1.529-0.86
		c-0.306-0.572-0.457-1.414-0.457-2.524v-1.906c0-0.556,0.035-1.352,0.105-2.391c0.037-1.002,0.064-1.871,0.082-2.605
		c0.019-0.732,0.027-1.619,0.027-2.658c0-3.76-0.663-6.865-1.988-9.318s-3.429-4.404-6.31-5.855
		c-2.883-1.449-6.6-2.471-11.146-3.061c-4.548-0.591-10.045-0.904-16.49-0.939c7.198-0.037,13.204-0.492,18.021-1.371
		c4.816-0.877,8.665-2.121,11.548-3.732c2.882-1.611,4.923-3.58,6.123-5.908c1.199-2.326,1.8-4.977,1.8-7.949
		c0-3.401-0.689-6.355-2.067-8.862c-1.379-2.507-3.385-4.573-6.017-6.203c-2.632-1.629-5.873-2.838-9.722-3.626
		c-3.849-0.787-8.227-1.182-13.132-1.182h-61.392v4.189h9.398v67.676h-9.398V146.996z M449.426,126.264
		c2.149,4.69,5.201,8.728,9.158,12.111c3.957,3.383,8.729,6.008,14.314,7.868c5.586,1.861,11.816,2.793,18.691,2.793
		c7.054,0,13.033-0.932,17.939-2.793c4.904-1.86,8.916-4.422,12.031-7.681c3.115-3.258,5.433-7.071,6.955-11.439
		c1.521-4.369,2.426-9.078,2.713-14.127h-4.727c-0.466,5.229-1.477,9.704-3.035,13.428c-1.558,3.725-3.537,6.768-5.935,9.131
		c-2.399,2.363-5.155,4.092-8.272,5.184c-3.114,1.092-6.463,1.639-10.043,1.639c-1.826,0-3.51-0.224-5.049-0.673
		c-1.539-0.446-2.928-1.208-4.162-2.282c-1.236-1.074-2.31-2.506-3.225-4.297c-0.912-1.789-1.682-4.046-2.309-6.768
		c-0.627-2.721-1.092-5.943-1.396-9.668c-0.304-3.723-0.457-8.038-0.457-12.944c0-4.69,0.206-8.7,0.619-12.03
		c0.41-3.33,0.965-6.133,1.664-8.406c0.699-2.274,1.531-4.073,2.498-5.398c0.967-1.324,2.004-2.336,3.115-3.035
		c1.109-0.697,2.265-1.145,3.465-1.342c1.199-0.197,2.406-0.296,3.625-0.296c2.542,0,5.236,0.457,8.084,1.37
		c2.846,0.913,5.586,2.488,8.217,4.727s5.049,5.236,7.251,8.996c2.203,3.76,3.948,8.486,5.237,14.18h4.189V69.652h-3.705
		l-6.607,9.883c-4.01-3.76-8.379-6.479-13.105-8.164c-4.727-1.683-9.848-2.524-15.361-2.524c-7.592,0-14.234,1.065-19.926,3.195
		c-5.695,2.131-10.447,5.068-14.262,8.809c-3.812,3.742-6.669,8.174-8.566,13.293c-1.898,5.121-2.848,10.654-2.848,16.598
		C446.203,116.399,447.278,121.573,449.426,126.264 M352.533,148.016h4.029l9.131-10.258c2.613,1.897,5.156,3.554,7.627,4.967
		c2.471,1.416,4.967,2.588,7.493,3.519c2.524,0.931,5.129,1.63,7.815,2.095c2.685,0.465,5.549,0.698,8.594,0.698
		c5.549,0,10.437-0.761,14.662-2.282c4.225-1.521,7.762-3.59,10.608-6.203c2.847-2.614,4.985-5.658,6.418-9.131
		c1.433-3.474,2.147-7.162,2.147-11.065c0-3.365-0.401-6.339-1.207-8.916c-0.807-2.578-1.943-4.869-3.411-6.875
		c-1.468-2.005-3.231-3.75-5.29-5.236c-2.061-1.485-4.352-2.812-6.875-3.975c-2.525-1.163-5.238-2.202-8.137-3.115
		c-2.902-0.913-5.909-1.78-9.024-2.604c-7.341-1.935-12.864-3.842-16.569-5.721c-3.707-1.88-5.561-3.841-5.561-5.882
		c0-1.253,0.449-2.229,1.344-2.927c0.895-0.698,1.959-1.209,3.196-1.531c1.235-0.322,2.497-0.51,3.786-0.564
		c1.289-0.054,2.344-0.08,3.169-0.08c4.333,0,8.433,0.52,12.3,1.558c3.867,1.039,7.395,2.453,10.581,4.243
		c3.187,1.791,6.017,3.904,8.487,6.338c2.469,2.436,4.492,5.068,6.068,7.896h3.385V69.598h-3.707l-8.11,7.842
		c-1.683-1.253-3.652-2.407-5.908-3.465c-2.256-1.055-4.655-1.959-7.196-2.711c-2.543-0.752-5.148-1.344-7.815-1.773
		c-2.668-0.43-5.22-0.645-7.654-0.645c-4.763,0-9.247,0.617-13.456,1.854c-4.206,1.234-7.876,3.025-11.009,5.371
		c-3.134,2.346-5.604,5.236-7.412,8.674c-1.81,3.438-2.713,7.358-2.713,11.764c0,7.054,2.532,13.024,7.601,17.912
		c5.066,4.887,12.863,8.692,23.391,11.414c4.727,1.254,8.836,2.381,12.326,3.383c3.492,1.004,6.383,1.996,8.675,2.981
		s4.002,2.005,5.13,3.062c1.127,1.057,1.691,2.265,1.691,3.625c0,1.289-0.438,2.318-1.316,3.088
		c-0.877,0.771-1.96,1.361-3.249,1.772c-1.289,0.413-2.668,0.681-4.136,0.806c-1.469,0.127-2.793,0.188-3.975,0.188
		c-4.047,0-7.771-0.42-11.172-1.262c-3.402-0.841-6.518-1.962-9.346-3.357c-2.829-1.396-5.389-3.016-7.68-4.86
		c-2.293-1.844-4.334-3.769-6.123-5.774c-1.791-2.005-3.35-4.019-4.674-6.042s-2.436-3.912-3.33-5.667h-3.6V148.016z
		 M248.496,146.996h85.776v-28.682h-3.706l-15.576,24.438h-20.034v-31.527h8.11l7.09,17.832h3.491V89.309h-3.491l-7.09,17.726h-8.11
		V75.077h18.154l14.933,21.969h3.651V70.887h-83.198v4.189h9.399v67.676h-9.399V146.996z"/>
	<polygon clip-path="url(#SVGID_2_)" fill="none" stroke="#231F20" stroke-width="1.998" points="0.998,3 0.998,489.17 
		0.998,491.172 3,491.172 1167.086,491.172 1169.088,491.172 1169.088,489.17 1169.088,3 1169.088,0.999 1167.086,0.999 3,0.999 
		0.998,0.999 	"/>
</g>
<rect x="5.001" y="5.002" fill="none" stroke="#231F20" stroke-width="1.998" width="1160.085" height="482.166"/>
<line fill="none" stroke="#231F20" stroke-width="2" x1="241.044" y1="199" x2="1144.086" y2="199"/>
<line fill="none" stroke="#231F20" stroke-width="2" x1="220.043" y1="26" x2="220.043" y2="465.79"/>
<line fill="none" stroke="#231F20" stroke-width="2" x1="528.043" y1="220" x2="528.043" y2="465.79"/>
<line fill="none" stroke="#231F20" stroke-width="2" x1="842.109" y1="220" x2="842.109" y2="465.79"/>
<g>
	<defs>
		<rect id="SVGID_27_" y="0" width="1170.088" height="492.17"/>
	</defs>
	<clipPath id="SVGID_4_">
		<use xlink:href="#SVGID_27_"  overflow="visible"/>
	</clipPath>
	<path clip-path="url(#SVGID_4_)" fill="#231F20" d="M453.426,427.69c2.938,0,5.18-0.576,6.725-1.729s2.318-2.654,2.318-4.504
		c0-1.646-0.615-2.945-1.843-3.895c-1.229-0.949-3.237-1.666-6.022-2.146c-1.293-0.254-2.199-0.514-2.717-0.779
		c-0.521-0.266-0.779-0.59-0.779-0.969c0-0.406,0.252-0.748,0.76-1.027c0.506-0.277,1.215-0.418,2.128-0.418
		c1.165,0,2.166,0.203,3.002,0.609s1.558,1.051,2.166,1.938l3.344-3.268c-0.862-1.191-1.983-2.084-3.362-2.68
		c-1.381-0.596-3.162-0.893-5.34-0.893c-1.976,0-3.654,0.297-5.035,0.893s-2.412,1.375-3.097,2.338
		c-0.684,0.963-1.026,1.988-1.026,3.078c0,1.596,0.602,2.875,1.806,3.838c1.202,0.963,3.224,1.723,6.062,2.279
		c1.266,0.254,2.158,0.514,2.678,0.779s0.779,0.576,0.779,0.93c0,0.406-0.254,0.73-0.76,0.971c-0.508,0.24-1.204,0.359-2.09,0.359
		c-2.66,0-4.535-0.898-5.624-2.697l-3.345,3.648C445.977,426.577,449.066,427.69,453.426,427.69 M431.803,412.528
		c1.217,0,2.115,0.418,2.698,1.254s0.874,2.18,0.874,4.027c0,1.852-0.291,3.193-0.874,4.029s-1.481,1.254-2.698,1.254
		s-2.115-0.418-2.697-1.254c-0.584-0.836-0.875-2.178-0.875-4.029c0-1.848,0.291-3.191,0.875-4.027
		C429.688,412.946,430.586,412.528,431.803,412.528 M431.803,407.93c-3.166,0-5.63,0.867-7.391,2.604
		c-1.762,1.734-2.641,4.16-2.641,7.275c0,3.117,0.879,5.543,2.641,7.277c1.761,1.736,4.225,2.604,7.391,2.604
		c3.168,0,5.631-0.867,7.391-2.604c1.762-1.734,2.641-4.16,2.641-7.277c0-3.115-0.879-5.541-2.641-7.275
		C437.434,408.797,434.971,407.93,431.803,407.93 M419.301,422.256c-0.785,0.557-1.697,0.836-2.736,0.836
		c-1.672,0-2.508-0.848-2.508-2.547v-7.637h5.7v-4.6h-5.7v-6.041l-6.459,1.785v4.256h-3.269v4.6h3.269v8.701
		c0.023,2.129,0.633,3.674,1.822,4.637c1.191,0.963,2.914,1.443,5.168,1.443c0.989,0,1.971-0.133,2.945-0.398
		c0.977-0.268,1.781-0.615,2.414-1.045L419.301,422.256z M395.17,407.93c-1.494,0-2.799,0.336-3.913,1.006
		c-1.114,0.672-1.976,1.68-2.584,3.021l-0.19-3.648h-5.775v19h6.459v-10.031c0-1.494,0.316-2.604,0.951-3.324
		c0.633-0.723,1.456-1.084,2.469-1.084c0.862,0,1.527,0.273,1.996,0.816c0.469,0.545,0.703,1.463,0.703,2.756v10.867h6.46v-12.652
		c0-2.154-0.597-3.812-1.786-4.979C398.768,408.512,397.172,407.93,395.17,407.93 M369.559,412.452c2.027,0,3.193,1.242,3.498,3.725
		h-7.145C366.292,413.694,367.508,412.452,369.559,412.452 M379.098,417.543c0-3.039-0.816-5.402-2.451-7.086
		c-1.633-1.686-3.984-2.527-7.049-2.527c-3.168,0-5.611,0.861-7.334,2.584c-1.724,1.723-2.584,4.154-2.584,7.295
		c0,3.143,0.879,5.574,2.641,7.297c1.761,1.723,4.299,2.584,7.619,2.584c2.229,0,4.109-0.424,5.643-1.273
		c1.533-0.848,2.566-2.082,3.098-3.705l-5.244-1.672c-0.203,0.684-0.603,1.205-1.196,1.559c-0.597,0.355-1.363,0.531-2.3,0.531
		c-1.115,0-2.008-0.277-2.679-0.836c-0.673-0.557-1.108-1.43-1.312-2.621h12.959C379.033,419.116,379.098,418.407,379.098,417.543
		 M349.572,407.93c-1.395,0-2.654,0.33-3.781,0.988c-1.128,0.658-1.995,1.607-2.604,2.85c-0.455-1.242-1.209-2.191-2.26-2.85
		c-1.053-0.658-2.3-0.988-3.744-0.988c-1.47,0-2.748,0.342-3.838,1.025s-1.938,1.686-2.545,3.002l-0.191-3.648h-5.775v19h6.46
		v-10.031c0-1.469,0.315-2.57,0.95-3.307c0.633-0.732,1.432-1.102,2.395-1.102c1.721,0,2.584,1.09,2.584,3.268v11.172h6.459v-10.145
		c0-1.395,0.305-2.457,0.912-3.193c0.607-0.732,1.418-1.102,2.432-1.102c1.723,0,2.584,1.09,2.584,3.268v11.172h6.461v-12.652
		c0-2.154-0.602-3.812-1.805-4.979C353.061,408.512,351.497,407.93,349.572,407.93 M312.066,431.299
		c-3.522,0-5.282-0.582-5.282-1.748c0-0.455,0.22-0.791,0.665-1.006c0.443-0.217,1.184-0.324,2.223-0.324h5.206
		c0.836,0,1.431,0.102,1.786,0.305c0.354,0.201,0.531,0.506,0.531,0.912c0,0.557-0.436,1.006-1.311,1.35
		C315.011,431.129,313.738,431.299,312.066,431.299 M311.762,411.616c0.836,0,1.514,0.254,2.033,0.76
		c0.52,0.508,0.779,1.178,0.779,2.014s-0.26,1.502-0.779,1.996s-1.197,0.74-2.033,0.74s-1.514-0.246-2.033-0.74
		s-0.779-1.16-0.779-1.996s0.26-1.506,0.779-2.014C310.248,411.87,310.926,411.616,311.762,411.616 M315.371,423.092h-6.459
		c-1.318,0-1.977-0.43-1.977-1.293c0-0.684,0.393-1.127,1.178-1.33c1.064,0.229,2.281,0.342,3.648,0.342
		c2.938,0,5.219-0.557,6.84-1.672c1.621-1.113,2.432-2.697,2.432-4.75c0-2.381-1.062-4.129-3.191-5.244
		c0.254-0.531,0.665-0.949,1.235-1.254c0.569-0.303,1.284-0.455,2.147-0.455c0.201,0,0.557,0.025,1.062,0.076l-0.721-4.295
		l-0.608-0.037c-1.571,0-2.8,0.482-3.687,1.443c-0.887,0.963-1.457,2.205-1.709,3.725c-1.166-0.279-2.433-0.418-3.801-0.418
		c-2.938,0-5.219,0.564-6.84,1.691s-2.432,2.717-2.432,4.768c0,2.357,1.037,4.092,3.115,5.207c-0.963,0.33-1.723,0.836-2.279,1.52
		c-0.559,0.684-0.836,1.471-0.836,2.355c0,1.799,0.975,3.117,2.926,3.953c-1.191,0.277-2.078,0.734-2.66,1.367
		c-0.583,0.633-0.874,1.369-0.874,2.205c0,1.418,0.791,2.52,2.375,3.305c1.583,0.785,4.034,1.178,7.353,1.178
		c3.293,0,5.896-0.576,7.809-1.729c1.913-1.152,2.869-2.807,2.869-4.959c0-1.873-0.602-3.293-1.805-4.256
		C319.279,423.575,317.576,423.092,315.371,423.092 M288.203,423.51c-0.584,0-1.039-0.139-1.369-0.418s-0.493-0.684-0.493-1.217
		c0-0.531,0.171-0.943,0.513-1.234s0.918-0.539,1.729-0.742l3.079-0.721v1.633c0,0.812-0.354,1.463-1.063,1.957
		C289.887,423.262,289.089,423.51,288.203,423.51 M299.413,423.624c-0.912,0-1.368-0.494-1.368-1.482v-6.916
		c0-2.432-0.773-4.256-2.318-5.471c-1.545-1.217-3.799-1.824-6.764-1.824c-2.533,0-4.548,0.512-6.043,1.539
		c-1.494,1.025-2.406,2.463-2.734,4.312l5.244,1.52c0.176-1.037,0.568-1.785,1.178-2.242c0.607-0.455,1.393-0.684,2.355-0.684
		c0.836,0,1.494,0.254,1.977,0.76c0.48,0.508,0.722,1.191,0.722,2.053v0.684l-4.294,0.836c-2.635,0.533-4.529,1.299-5.682,2.299
		c-1.152,1.002-1.729,2.312-1.729,3.934c0,1.545,0.506,2.725,1.52,3.533c1.014,0.812,2.471,1.217,4.371,1.217
		c3.369,0,5.623-0.975,6.764-2.926c0.531,1.951,2.166,2.926,4.902,2.926c0.987,0,1.848-0.203,2.584-0.607l0.493-3.611
		C300.287,423.575,299.895,423.624,299.413,423.624 M276.689,407.93c-1.444,0-2.654,0.387-3.629,1.158
		c-0.977,0.773-1.691,1.881-2.147,3.326l-0.267-4.105h-5.699v19h6.46v-9.576c0-1.443,0.405-2.551,1.216-3.324
		c0.811-0.771,1.824-1.158,3.04-1.158c0.481,0,0.937,0.057,1.368,0.17c0.43,0.115,0.771,0.248,1.025,0.398l0.685-5.471
		C278.234,408.069,277.551,407.93,276.689,407.93 M256.549,406.979c0-1.822,1.051-2.734,3.154-2.734
		c0.886,0,1.607,0.203,2.166,0.607l0.646-4.027c-0.938-0.734-2.395-1.104-4.371-1.104c-2.279,0-4.129,0.57-5.547,1.711
		c-1.42,1.141-2.129,2.85-2.129,5.129v1.748h-3.039v4.6h3.039v14.4h6.461v-14.4h5.396v-4.6h-5.776V406.979z"/>
	<path clip-path="url(#SVGID_4_)" fill="#231F20" d="M497.656,378.7c2.939,0,5.18-0.576,6.726-1.729s2.318-2.652,2.318-4.504
		c0-1.645-0.614-2.945-1.843-3.895c-1.229-0.949-3.236-1.664-6.023-2.146c-1.292-0.254-2.197-0.514-2.717-0.779
		s-0.779-0.59-0.779-0.969c0-0.406,0.253-0.748,0.76-1.025c0.508-0.279,1.217-0.418,2.129-0.418c1.164,0,2.166,0.201,3.002,0.607
		s1.557,1.051,2.166,1.938l3.344-3.268c-0.861-1.189-1.982-2.084-3.363-2.68c-1.381-0.594-3.16-0.893-5.339-0.893
		c-1.976,0-3.654,0.299-5.035,0.893c-1.382,0.596-2.413,1.375-3.097,2.338s-1.026,1.988-1.026,3.078
		c0,1.596,0.603,2.875,1.806,3.838s3.224,1.723,6.061,2.279c1.267,0.254,2.16,0.514,2.679,0.779s0.778,0.576,0.778,0.932
		c0,0.404-0.252,0.729-0.76,0.969c-0.506,0.24-1.203,0.361-2.09,0.361c-2.66,0-4.535-0.9-5.623-2.699l-3.344,3.648
		C490.208,377.586,493.299,378.7,497.656,378.7 M476.035,363.538c1.215,0,2.113,0.418,2.697,1.254
		c0.582,0.836,0.875,2.18,0.875,4.029s-0.293,3.191-0.875,4.027c-0.584,0.836-1.482,1.254-2.697,1.254
		c-1.217,0-2.117-0.418-2.699-1.254c-0.584-0.836-0.873-2.178-0.873-4.027s0.289-3.193,0.873-4.029
		C473.918,363.956,474.818,363.538,476.035,363.538 M476.035,358.94c-3.168,0-5.631,0.867-7.391,2.604
		c-1.763,1.736-2.643,4.16-2.643,7.277c0,3.115,0.88,5.541,2.643,7.275c1.76,1.736,4.223,2.604,7.391,2.604
		c3.166,0,5.629-0.867,7.391-2.604c1.76-1.734,2.641-4.16,2.641-7.275c0-3.117-0.881-5.541-2.641-7.277
		C481.664,359.807,479.201,358.94,476.035,358.94 M460.873,351.264h-6.46v21.432c0,2.104,0.456,3.629,1.368,4.578
		c0.912,0.951,2.381,1.426,4.408,1.426c0.709,0,1.43-0.088,2.166-0.266c0.732-0.178,1.33-0.404,1.785-0.684l0.418-3.99
		c-0.684,0.229-1.33,0.342-1.938,0.342c-0.659,0-1.115-0.178-1.369-0.531c-0.254-0.355-0.379-0.963-0.379-1.824V351.264z
		 M430.473,363.461c2.027,0,3.192,1.242,3.496,3.725h-7.144C427.205,364.704,428.42,363.461,430.473,363.461 M440.011,368.553
		c0-3.039-0.817-5.4-2.45-7.086c-1.635-1.684-3.984-2.527-7.05-2.527c-3.167,0-5.61,0.861-7.333,2.584
		c-1.725,1.723-2.584,4.154-2.584,7.297c0,3.141,0.879,5.572,2.641,7.295c1.761,1.723,4.299,2.584,7.619,2.584
		c2.229,0,4.109-0.424,5.643-1.273c1.533-0.848,2.564-2.082,3.098-3.705l-5.244-1.672c-0.203,0.686-0.603,1.205-1.197,1.559
		c-0.596,0.355-1.362,0.531-2.299,0.531c-1.115,0-2.008-0.277-2.68-0.836c-0.672-0.557-1.107-1.43-1.311-2.621h12.957
		C439.948,370.125,440.011,369.417,440.011,368.553 M406.914,373.95c-1.141,0-2.021-0.418-2.641-1.254
		c-0.621-0.836-0.932-2.127-0.932-3.875s0.311-3.041,0.932-3.877c0.619-0.836,1.5-1.254,2.641-1.254
		c1.038,0,1.867,0.381,2.488,1.141s0.969,1.836,1.046,3.229v1.521c-0.077,1.418-0.425,2.502-1.046,3.248
		C408.781,373.577,407.952,373.95,406.914,373.95 M410.448,351.264v11.248c-0.558-1.115-1.318-1.988-2.28-2.623
		c-0.963-0.633-2.115-0.949-3.458-0.949c-2.458,0-4.383,0.873-5.776,2.621s-2.09,4.193-2.09,7.334c0,3.092,0.689,5.498,2.071,7.221
		c1.38,1.723,3.299,2.584,5.757,2.584c1.418,0,2.666-0.355,3.743-1.064c1.076-0.709,1.894-1.684,2.45-2.926l0.229,3.611h5.814
		v-27.057H410.448z M382.746,358.94c-1.443,0-2.654,0.387-3.629,1.158c-0.975,0.773-1.691,1.881-2.146,3.326l-0.268-4.104h-5.699v19
		h6.46v-9.576c0-1.445,0.405-2.553,1.216-3.326c0.812-0.771,1.824-1.158,3.041-1.158c0.48,0,0.937,0.057,1.367,0.17
		c0.432,0.115,0.773,0.248,1.025,0.4l0.685-5.473C384.291,359.081,383.607,358.94,382.746,358.94 M366.407,359.321h-6.46v19h6.46
		V359.321z M363.178,357.116c1.316,0,2.271-0.246,2.868-0.74c0.595-0.494,0.894-1.273,0.894-2.338c0-1.088-0.299-1.881-0.894-2.375
		c-0.597-0.494-1.552-0.74-2.868-0.74c-1.318,0-2.275,0.246-2.869,0.74c-0.597,0.494-0.894,1.287-0.894,2.375
		c0,1.064,0.297,1.844,0.894,2.338C360.902,356.87,361.859,357.116,363.178,357.116 M356.564,373.266
		c-0.785,0.559-1.697,0.836-2.735,0.836c-1.672,0-2.509-0.848-2.509-2.547v-7.637h5.701v-4.598h-5.701v-6.043l-6.459,1.785v4.258
		h-3.268v4.598h3.268v8.701c0.025,2.129,0.633,3.674,1.824,4.637c1.189,0.963,2.912,1.443,5.168,1.443
		c0.987,0,1.969-0.133,2.944-0.398s1.779-0.615,2.413-1.045L356.564,373.266z M339.275,358.94c-1.444,0-2.654,0.387-3.629,1.158
		c-0.977,0.773-1.691,1.881-2.148,3.326l-0.266-4.104h-5.699v19h6.46v-9.576c0-1.445,0.405-2.553,1.216-3.326
		c0.811-0.771,1.824-1.158,3.04-1.158c0.481,0,0.937,0.057,1.368,0.17c0.43,0.115,0.771,0.248,1.025,0.4l0.685-5.473
		C340.82,359.081,340.137,358.94,339.275,358.94 M312.6,374.52c-0.584,0-1.039-0.139-1.369-0.418
		c-0.328-0.277-0.494-0.684-0.494-1.217c0-0.531,0.172-0.941,0.514-1.234c0.342-0.291,0.918-0.537,1.729-0.74l3.078-0.723v1.635
		c0,0.811-0.355,1.463-1.063,1.957C314.284,374.272,313.486,374.52,312.6,374.52 M323.809,374.633c-0.912,0-1.367-0.494-1.367-1.48
		v-6.916c0-2.434-0.773-4.258-2.318-5.473c-1.545-1.217-3.8-1.824-6.764-1.824c-2.533,0-4.547,0.514-6.043,1.539
		c-1.494,1.025-2.406,2.465-2.735,4.312l5.244,1.52c0.177-1.037,0.569-1.785,1.177-2.24c0.609-0.457,1.395-0.686,2.357-0.686
		c0.836,0,1.494,0.254,1.975,0.76c0.482,0.508,0.723,1.191,0.723,2.053v0.684l-4.293,0.836c-2.636,0.533-4.529,1.299-5.682,2.299
		c-1.152,1.002-1.729,2.312-1.729,3.934c0,1.547,0.506,2.725,1.52,3.535s2.471,1.215,4.37,1.215c3.368,0,5.624-0.975,6.764-2.926
		c0.532,1.951,2.166,2.926,4.902,2.926c0.987,0,1.849-0.203,2.584-0.607l0.493-3.611
		C324.684,374.584,324.29,374.633,323.809,374.633 M291.736,373.95c-1.115,0-1.976-0.43-2.584-1.291
		c-0.607-0.861-0.911-2.078-0.911-3.648v-0.381c0-1.621,0.31-2.85,0.931-3.686s1.477-1.254,2.564-1.254
		c1.141,0,2.021,0.418,2.642,1.254c0.62,0.836,0.931,2.129,0.931,3.877s-0.311,3.039-0.931,3.875
		C293.757,373.532,292.877,373.95,291.736,373.95 M293.979,358.94c-1.494,0-2.793,0.398-3.895,1.197
		c-1.102,0.797-1.919,1.869-2.451,3.211l-0.189-4.027h-5.662v26.979h6.46v-11.172c0.532,1.115,1.286,1.99,2.261,2.623
		s2.135,0.949,3.477,0.949c2.433,0,4.346-0.873,5.738-2.621s2.09-4.193,2.09-7.334c0-3.09-0.684-5.498-2.053-7.221
		C298.387,359.801,296.462,358.94,293.979,358.94 M256.32,374.52c-0.582,0-1.039-0.139-1.367-0.418
		c-0.33-0.277-0.494-0.684-0.494-1.217c0-0.531,0.171-0.941,0.514-1.234c0.342-0.291,0.918-0.537,1.729-0.74l3.078-0.723v1.635
		c0,0.811-0.355,1.463-1.064,1.957C258.004,374.272,257.207,374.52,256.32,374.52 M267.531,374.633c-0.912,0-1.368-0.494-1.368-1.48
		v-6.916c0-2.434-0.772-4.258-2.317-5.473c-1.547-1.217-3.801-1.824-6.765-1.824c-2.534,0-4.548,0.514-6.042,1.539
		c-1.495,1.025-2.407,2.465-2.736,4.312l5.244,1.52c0.178-1.037,0.57-1.785,1.178-2.24c0.608-0.457,1.393-0.686,2.356-0.686
		c0.836,0,1.494,0.254,1.976,0.76c0.48,0.508,0.723,1.191,0.723,2.053v0.684l-4.295,0.836c-2.635,0.533-4.528,1.299-5.68,2.299
		c-1.154,1.002-1.729,2.312-1.729,3.934c0,1.547,0.506,2.725,1.521,3.535c1.012,0.811,2.469,1.215,4.369,1.215
		c3.369,0,5.624-0.975,6.764-2.926c0.532,1.951,2.166,2.926,4.902,2.926c0.988,0,1.85-0.203,2.584-0.607l0.494-3.611
		C268.404,374.584,268.012,374.633,267.531,374.633"/>
	<path clip-path="url(#SVGID_4_)" fill="#231F20" d="M450.688,329.709c2.938,0,5.181-0.576,6.727-1.729
		c1.545-1.152,2.318-2.652,2.318-4.504c0-1.645-0.615-2.943-1.844-3.895c-1.229-0.949-3.236-1.664-6.023-2.146
		c-1.291-0.254-2.197-0.514-2.717-0.779s-0.779-0.588-0.779-0.969c0-0.404,0.254-0.746,0.761-1.025s1.216-0.418,2.128-0.418
		c1.165,0,2.166,0.203,3.002,0.607c0.836,0.406,1.559,1.053,2.166,1.938l3.344-3.268c-0.861-1.189-1.982-2.082-3.362-2.68
		c-1.382-0.594-3.161-0.893-5.339-0.893c-1.977,0-3.655,0.299-5.035,0.893c-1.381,0.598-2.414,1.375-3.098,2.338
		s-1.025,1.988-1.025,3.078c0,1.596,0.601,2.875,1.805,3.838c1.203,0.963,3.223,1.723,6.061,2.279
		c1.267,0.254,2.16,0.514,2.68,0.779s0.779,0.578,0.779,0.932c0,0.406-0.254,0.729-0.76,0.969c-0.508,0.24-1.205,0.361-2.09,0.361
		c-2.66,0-4.535-0.9-5.625-2.699l-3.344,3.648C443.24,328.596,446.33,329.709,450.688,329.709 M429.674,314.471
		c2.027,0,3.191,1.242,3.496,3.725h-7.145C426.406,315.713,427.621,314.471,429.674,314.471 M439.212,319.565
		c0-3.041-0.817-5.402-2.451-7.088c-1.634-1.684-3.983-2.527-7.049-2.527c-3.167,0-5.61,0.861-7.334,2.584s-2.584,4.156-2.584,7.297
		s0.88,5.574,2.642,7.295c1.76,1.723,4.299,2.584,7.619,2.584c2.229,0,4.109-0.424,5.643-1.273c1.533-0.848,2.564-2.082,3.097-3.703
		l-5.243-1.674c-0.203,0.686-0.603,1.205-1.197,1.559c-0.596,0.355-1.362,0.533-2.299,0.533c-1.115,0-2.009-0.279-2.68-0.836
		c-0.672-0.559-1.107-1.432-1.311-2.623h12.957C439.148,321.135,439.212,320.426,439.212,319.565 M409.611,309.95
		c-1.495,0-2.801,0.336-3.914,1.008c-1.115,0.672-1.977,1.678-2.584,3.02l-0.19-3.646h-5.776v19h6.461v-10.033
		c0-1.494,0.315-2.602,0.949-3.324c0.633-0.723,1.457-1.084,2.471-1.084c0.861,0,1.525,0.273,1.994,0.818s0.703,1.463,0.703,2.754
		v10.869h6.461v-12.654c0-2.152-0.598-3.812-1.787-4.979C413.208,310.534,411.611,309.95,409.611,309.95 M383.391,314.547
		c1.217,0,2.115,0.418,2.697,1.254s0.875,2.18,0.875,4.029s-0.293,3.191-0.875,4.027s-1.48,1.254-2.697,1.254
		c-1.215,0-2.115-0.418-2.697-1.254c-0.584-0.836-0.875-2.178-0.875-4.027s0.291-3.193,0.875-4.029
		C381.275,314.965,382.176,314.547,383.391,314.547 M383.391,309.95c-3.166,0-5.631,0.869-7.391,2.604
		c-1.762,1.736-2.641,4.16-2.641,7.277c0,3.115,0.879,5.541,2.641,7.277c1.76,1.734,4.225,2.602,7.391,2.602
		s5.631-0.867,7.391-2.602c1.761-1.736,2.642-4.162,2.642-7.277c0-3.117-0.881-5.541-2.642-7.277
		C389.021,310.819,386.557,309.95,383.391,309.95 M369.674,310.331h-6.46v19h6.46V310.331z M366.443,308.125
		c1.316,0,2.273-0.246,2.869-0.74c0.595-0.494,0.894-1.273,0.894-2.338c0-1.088-0.299-1.881-0.894-2.375
		c-0.596-0.494-1.553-0.74-2.869-0.74c-1.317,0-2.274,0.246-2.868,0.74c-0.597,0.494-0.894,1.287-0.894,2.375
		c0,1.064,0.297,1.844,0.894,2.338C364.169,307.879,365.126,308.125,366.443,308.125 M350.598,309.95
		c-3.142,0-5.594,0.869-7.353,2.604c-1.761,1.736-2.642,4.16-2.642,7.277c0,3.141,0.887,5.574,2.66,7.295
		c1.772,1.723,4.307,2.584,7.6,2.584c2.559,0,4.617-0.537,6.176-1.615c1.559-1.076,2.477-2.475,2.755-4.197l-5.813-1.863
		c-0.305,2.053-1.356,3.078-3.154,3.078c-2.508,0-3.762-1.734-3.762-5.205c0-3.572,1.254-5.359,3.762-5.359
		c1.697,0,2.672,1.09,2.926,3.27l6.004-1.977c-0.355-1.748-1.254-3.166-2.697-4.256C355.613,310.495,353.46,309.95,350.598,309.95
		 M326.734,325.53c-0.584,0-1.039-0.139-1.369-0.418c-0.329-0.277-0.494-0.684-0.494-1.215c0-0.533,0.172-0.943,0.514-1.236
		c0.342-0.291,0.918-0.537,1.729-0.74l3.078-0.723v1.635c0,0.811-0.355,1.463-1.063,1.957
		C328.418,325.284,327.619,325.53,326.734,325.53 M337.943,325.643c-0.911,0-1.367-0.492-1.367-1.48v-6.916
		c0-2.432-0.773-4.256-2.318-5.473c-1.546-1.217-3.8-1.824-6.764-1.824c-2.534,0-4.549,0.514-6.042,1.539
		c-1.495,1.025-2.407,2.465-2.735,4.312l5.243,1.521c0.177-1.039,0.569-1.787,1.179-2.242c0.607-0.457,1.393-0.684,2.355-0.684
		c0.836,0,1.494,0.254,1.977,0.76c0.48,0.506,0.721,1.189,0.721,2.051v0.684l-4.293,0.836c-2.635,0.533-4.529,1.301-5.682,2.301
		s-1.729,2.311-1.729,3.932c0,1.547,0.506,2.725,1.52,3.535s2.471,1.215,4.37,1.215c3.369,0,5.624-0.975,6.765-2.926
		c0.531,1.951,2.166,2.926,4.901,2.926c0.988,0,1.849-0.203,2.584-0.607l0.493-3.609
		C338.818,325.594,338.426,325.643,337.943,325.643 M314.992,310.331h-6.46v19h6.46V310.331z M311.762,308.125
		c1.317,0,2.274-0.246,2.869-0.74c0.596-0.494,0.893-1.273,0.893-2.338c0-1.088-0.297-1.881-0.893-2.375
		c-0.595-0.494-1.552-0.74-2.869-0.74c-1.316,0-2.273,0.246-2.869,0.74c-0.595,0.494-0.893,1.287-0.893,2.375
		c0,1.064,0.298,1.844,0.893,2.338C309.488,307.879,310.445,308.125,311.762,308.125 M303.936,309.95
		c-1.444,0-2.654,0.387-3.629,1.16c-0.977,0.771-1.691,1.881-2.147,3.324l-0.267-4.104h-5.699v19h6.459v-9.576
		c0-1.445,0.404-2.553,1.217-3.326c0.811-0.771,1.824-1.158,3.04-1.158c0.481,0,0.937,0.057,1.368,0.172
		c0.43,0.113,0.771,0.246,1.025,0.398l0.684-5.473C305.479,310.09,304.795,309.95,303.936,309.95 M277.26,325.53
		c-0.584,0-1.039-0.139-1.369-0.418c-0.33-0.277-0.494-0.684-0.494-1.215c0-0.533,0.172-0.943,0.514-1.236
		c0.342-0.291,0.918-0.537,1.729-0.74l3.078-0.723v1.635c0,0.811-0.355,1.463-1.064,1.957S278.145,325.53,277.26,325.53
		 M288.469,325.643c-0.912,0-1.367-0.492-1.367-1.48v-6.916c0-2.432-0.773-4.256-2.318-5.473c-1.547-1.217-3.801-1.824-6.764-1.824
		c-2.535,0-4.549,0.514-6.043,1.539s-2.406,2.465-2.735,4.312l5.243,1.521c0.178-1.039,0.57-1.787,1.179-2.242
		c0.608-0.457,1.394-0.684,2.356-0.684c0.836,0,1.494,0.254,1.976,0.76s0.722,1.189,0.722,2.051v0.684l-4.294,0.836
		c-2.636,0.533-4.528,1.301-5.681,2.301c-1.153,1-1.729,2.311-1.729,3.932c0,1.547,0.506,2.725,1.52,3.535
		c1.013,0.811,2.469,1.215,4.369,1.215c3.369,0,5.625-0.975,6.764-2.926c0.533,1.951,2.167,2.926,4.902,2.926
		c0.988,0,1.85-0.203,2.584-0.607l0.494-3.609C289.344,325.594,288.949,325.643,288.469,325.643 M261.527,310.331l-3.99,14.895
		l-3.914-14.895h-6.803l6.841,19h7.714l6.84-19H261.527z"/>
	<path clip-path="url(#SVGID_4_)" fill="#231F20" d="M464.027,265.483c2.027,0,3.191,1.24,3.496,3.723h-7.145
		C460.76,266.723,461.975,265.483,464.027,265.483 M473.564,270.575c0-3.041-0.816-5.402-2.45-7.088
		c-1.634-1.684-3.984-2.527-7.05-2.527c-3.166,0-5.611,0.863-7.334,2.584c-1.723,1.725-2.584,4.156-2.584,7.297
		c0,3.143,0.881,5.574,2.641,7.295c1.762,1.725,4.301,2.584,7.62,2.584c2.229,0,4.11-0.424,5.644-1.271
		c1.531-0.85,2.564-2.084,3.096-3.705l-5.244-1.672c-0.202,0.684-0.602,1.203-1.196,1.557c-0.595,0.355-1.362,0.533-2.299,0.533
		c-1.115,0-2.009-0.279-2.679-0.836c-0.672-0.557-1.109-1.432-1.312-2.623h12.958C473.502,272.145,473.564,271.436,473.564,270.575
		 M440.469,275.969c-1.141,0-2.021-0.418-2.642-1.254c-0.621-0.836-0.931-2.127-0.931-3.875s0.31-3.041,0.931-3.877
		c0.62-0.836,1.501-1.254,2.642-1.254c1.037,0,1.867,0.381,2.488,1.141c0.62,0.76,0.969,1.838,1.045,3.23v1.52
		c-0.076,1.42-0.425,2.502-1.045,3.248C442.336,275.596,441.506,275.969,440.469,275.969 M444.002,253.284v11.248
		c-0.559-1.113-1.318-1.988-2.279-2.621c-0.963-0.633-2.117-0.951-3.459-0.951c-2.457,0-4.383,0.875-5.775,2.623
		c-1.395,1.748-2.09,4.193-2.09,7.334c0,3.09,0.689,5.498,2.07,7.219c1.381,1.725,3.299,2.584,5.758,2.584
		c1.418,0,2.666-0.354,3.742-1.062s1.893-1.686,2.451-2.926l0.229,3.609h5.813v-27.057H444.002z M405.736,276.54
		c-0.584,0-1.041-0.139-1.368-0.418c-0.331-0.277-0.494-0.684-0.494-1.215c0-0.533,0.171-0.943,0.513-1.236
		c0.342-0.291,0.918-0.537,1.729-0.74l3.077-0.723v1.635c0,0.811-0.355,1.463-1.063,1.957
		C407.42,276.293,406.621,276.54,405.736,276.54 M416.945,276.655c-0.912,0-1.367-0.494-1.367-1.482v-6.916
		c0-2.432-0.773-4.256-2.318-5.473c-1.546-1.215-3.8-1.824-6.764-1.824c-2.534,0-4.548,0.514-6.043,1.539
		c-1.495,1.027-2.407,2.465-2.734,4.314l5.243,1.52c0.177-1.039,0.57-1.787,1.179-2.242c0.607-0.457,1.392-0.684,2.355-0.684
		c0.836,0,1.494,0.254,1.977,0.76c0.479,0.506,0.721,1.191,0.721,2.051v0.686l-4.293,0.836c-2.637,0.531-4.529,1.299-5.682,2.299
		c-1.154,1-1.729,2.311-1.729,3.932c0,1.547,0.506,2.725,1.52,3.535c1.012,0.811,2.471,1.215,4.37,1.215
		c3.368,0,5.624-0.975,6.765-2.926c0.531,1.951,2.166,2.926,4.901,2.926c0.987,0,1.849-0.201,2.584-0.607l0.494-3.609
		C417.82,276.604,417.426,276.655,416.945,276.655 M394.223,260.959c-1.445,0-2.654,0.387-3.629,1.16
		c-0.977,0.773-1.691,1.881-2.148,3.324l-0.266-4.104h-5.699v19h6.459v-9.576c0-1.443,0.406-2.553,1.217-3.324
		c0.811-0.773,1.824-1.16,3.039-1.16c0.482,0,0.938,0.057,1.369,0.172c0.43,0.113,0.771,0.246,1.025,0.398l0.684-5.473
		C395.768,261.1,395.082,260.959,394.223,260.959 M371.385,261.34v10.07c0,1.469-0.318,2.564-0.951,3.287
		c-0.633,0.721-1.481,1.082-2.545,1.082c-0.888,0-1.547-0.252-1.977-0.76c-0.432-0.506-0.646-1.381-0.646-2.621V261.34h-6.459
		v12.691c0,2.307,0.575,3.998,1.729,5.074c1.152,1.076,2.742,1.613,4.77,1.613c3.191,0,5.383-1.303,6.573-3.914l0.19,3.535h5.775
		v-19H371.385z M355.537,275.286c-0.785,0.559-1.697,0.836-2.734,0.836c-1.673,0-2.509-0.848-2.509-2.545v-7.639h5.7v-4.598h-5.7
		v-6.043l-6.46,1.787v4.256h-3.268v4.598h3.268v8.701c0.025,2.129,0.633,3.676,1.824,4.637c1.189,0.963,2.912,1.443,5.168,1.443
		c0.988,0,1.969-0.133,2.945-0.398c0.975-0.266,1.779-0.613,2.412-1.045L355.537,275.286z M337.793,261.34h-6.46v19h6.46V261.34z
		 M334.562,259.135c1.316,0,2.273-0.246,2.869-0.74c0.594-0.494,0.894-1.273,0.894-2.338c0-1.088-0.3-1.881-0.894-2.375
		c-0.596-0.492-1.553-0.74-2.869-0.74c-1.317,0-2.275,0.248-2.869,0.74c-0.596,0.494-0.893,1.287-0.893,2.375
		c0,1.064,0.297,1.844,0.893,2.338C332.287,258.889,333.245,259.135,334.562,259.135 M326.734,260.959
		c-1.443,0-2.653,0.387-3.629,1.16s-1.69,1.881-2.146,3.324l-0.266-4.104h-5.7v19h6.46v-9.576c0-1.443,0.404-2.553,1.216-3.324
		c0.81-0.773,1.824-1.16,3.04-1.16c0.48,0,0.938,0.057,1.368,0.172c0.43,0.113,0.772,0.246,1.026,0.398l0.684-5.473
		C328.279,261.1,327.596,260.959,326.734,260.959 M302.377,260.959c-3.143,0-5.593,0.869-7.354,2.604
		c-1.76,1.736-2.641,4.16-2.641,7.277c0,3.143,0.887,5.574,2.66,7.295c1.773,1.725,4.307,2.584,7.6,2.584
		c2.559,0,4.617-0.537,6.176-1.613c1.558-1.076,2.476-2.477,2.755-4.199l-5.813-1.863c-0.305,2.053-1.357,3.078-3.154,3.078
		c-2.508,0-3.762-1.734-3.762-5.205c0-3.572,1.254-5.359,3.762-5.359c1.697,0,2.672,1.092,2.926,3.27l6.004-1.977
		c-0.355-1.748-1.254-3.166-2.699-4.256C307.393,261.504,305.238,260.959,302.377,260.959 M281.021,280.719
		c2.938,0,5.18-0.574,6.726-1.729c1.545-1.152,2.317-2.652,2.317-4.502c0-1.646-0.615-2.945-1.842-3.896
		c-1.229-0.949-3.238-1.664-6.023-2.146c-1.292-0.252-2.198-0.514-2.717-0.779c-0.521-0.266-0.779-0.588-0.779-0.969
		c0-0.404,0.253-0.746,0.76-1.025c0.506-0.277,1.217-0.418,2.128-0.418c1.165,0,2.166,0.203,3.003,0.607
		c0.836,0.406,1.557,1.053,2.166,1.938l3.344-3.268c-0.862-1.189-1.984-2.082-3.363-2.678c-1.381-0.596-3.161-0.895-5.34-0.895
		c-1.975,0-3.654,0.299-5.035,0.895s-2.412,1.375-3.096,2.336c-0.685,0.963-1.026,1.988-1.026,3.078
		c0,1.596,0.601,2.877,1.805,3.838c1.202,0.963,3.224,1.723,6.062,2.279c1.266,0.254,2.158,0.514,2.678,0.779
		s0.779,0.578,0.779,0.932c0,0.406-0.254,0.729-0.76,0.969s-1.203,0.361-2.09,0.361c-2.66,0-4.535-0.898-5.623-2.697l-3.345,3.646
		C273.573,279.606,276.663,280.719,281.021,280.719 M256.169,275.286v-5.129h10.335v-4.75h-10.335v-5.092h12.996v-5.055h-19.532
		v25.08h20.026v-5.055H256.169z"/>
	<path clip-path="url(#SVGID_4_)" fill="#231F20" d="M1123.805,417.672c-1.574-3.672-3.73-6.822-6.457-9.451
		c-2.731-2.623-5.936-4.725-9.607-6.299c-3.677-1.576-7.512-2.363-11.498-2.363c-4.203,0-8.087,0.787-11.656,2.363
		c-3.572,1.574-6.723,3.676-9.449,6.299c-2.732,2.629-4.883,5.779-6.457,9.451c-1.576,3.676-2.363,7.615-2.363,11.812
		c0,4.203,0.787,8.141,2.363,11.812c1.574,3.678,3.725,6.828,6.457,9.451c2.727,2.627,5.877,4.725,9.449,6.299
		c3.569,1.576,7.453,2.363,11.656,2.363c3.986,0,7.821-0.787,11.498-2.363c3.672-1.574,6.876-3.672,9.607-6.299
		c2.727-2.623,4.883-5.773,6.457-9.451c1.574-3.672,2.363-7.609,2.363-11.812C1126.168,425.288,1125.379,421.348,1123.805,417.672
		 M939.998,410.112c-6.93-6.402-10.395-14.963-10.395-25.674c0-10.709,3.465-19.264,10.395-25.672
		c6.932-6.404,15.751-9.609,26.461-9.609s19.531,3.205,26.461,9.609c6.931,6.408,10.396,14.963,10.396,25.672
		c0,10.711-3.465,19.271-10.396,25.674c-6.93,6.408-15.751,9.607-26.461,9.607S946.93,416.52,939.998,410.112 M1041.116,296.866
		c0-10.285-1.944-19.578-5.828-27.877c-3.888-8.295-9.243-15.326-16.064-21.105c-6.827-5.774-14.806-10.183-23.942-13.231
		c-9.134-3.041-18.953-4.566-29.452-4.566c-10.503,0-20.426,1.787-29.769,5.355c-9.347,3.572-17.591,8.662-24.728,15.276
		c-7.142,6.617-12.812,14.648-17.01,24.098c-4.204,9.451-6.301,19.955-6.301,31.502v80.326c0,10.711,2.048,20.531,6.143,29.453
		c4.095,8.93,9.657,16.592,16.695,22.996c7.034,6.408,15.327,11.395,24.886,14.963c9.555,3.568,19.791,5.355,30.713,5.355
		c11.971,0,22.784-1.891,32.445-5.67c9.658-3.779,17.902-9.027,24.729-15.752c6.822-6.717,12.074-14.75,15.75-24.098
		c3.672-9.342,5.514-19.578,5.514-30.713v-3.779c0-10.918-1.684-20.682-5.04-29.297c-3.362-8.607-7.984-15.908-13.86-21.893
		c-5.883-5.984-12.812-10.602-20.791-13.859c-7.982-3.254-16.488-4.883-25.516-4.883c-10.08,0-19.112,2.258-27.09,6.771
		c-7.984,4.52-13.758,10.449-17.326,17.799h-5.67v-28.352c0-10.709,3.307-19.373,9.923-25.988
		c6.614-6.613,15.593-9.922,26.933-9.922s19.688,2.678,25.043,8.033c5.355,5.355,8.033,11.709,8.033,19.057H1041.116z"/>
	<path clip-path="url(#SVGID_4_)" fill="#FF1419" d="M556.42,342.167v18.754l178.471-4.064
		c-16.566,20.631-31.568,47.51-31.568,74.701l0.312,0.625c25.941-35.631,64.699-64.697,106.269-80.014v-0.938
		c-42.194-15.314-79.076-43.758-106.269-79.701l-0.312,0.312c0.625,25.629,13.127,57.51,31.568,74.387L556.42,342.167z"/>
</g>
<polygon fill="#231F20" points="40.435,34.726 181.324,34.726 181.324,98.042 102.039,98.042 102.039,208.129 159.078,208.129 
	159.078,275.436 102.039,275.436 102.039,390.659 181.324,390.659 181.324,453.971 40.435,453.971 "/>
</svg>
