<?xml version="1.0" encoding="utf-8"?>
<!-- Generator: Adobe Illustrator 16.0.0, SVG Export Plug-In . SVG Version: 6.00 Build 0)  -->
<!DOCTYPE svg PUBLIC "-//W3C//DTD SVG 1.1//EN" "http://www.w3.org/Graphics/SVG/1.1/DTD/svg11.dtd">
<svg version="1.1" id="Layer_1" xmlns="http://www.w3.org/2000/svg" xmlns:xlink="http://www.w3.org/1999/xlink" x="0px" y="0px"
	 width="1170.09px" height="505.192px" viewBox="0 0 1170.09 505.192" enable-background="new 0 0 1170.09 505.192"
	 xml:space="preserve">
<g>
	<defs>
		<rect id="SVGID_81_" x="0.023" width="1170.087" height="505.191"/>
	</defs>
	<clipPath id="SVGID_2_">
		<use xlink:href="#SVGID_81_"  overflow="visible"/>
	</clipPath>
	<path clip-path="url(#SVGID_2_)" fill="#FF1419" d="M1101.517,63.886c-6.199,0-11.57,0.969-16.112,2.905
		c-4.542,1.938-7.994,4.633-10.353,8.082c-2.362,3.453-3.541,7.361-3.541,11.728c0,4.368,1.073,7.96,3.223,10.777
		c2.148,2.817,5.177,5.054,9.086,6.709c3.91,1.655,8.857,3.082,14.843,4.277c4.861,0.917,8.328,1.887,10.408,2.906
		c2.076,1.022,3.115,2.342,3.115,3.962c0,2.043-0.969,3.61-2.904,4.701c-1.938,1.093-4.844,1.638-8.717,1.638
		c-4.859,0-9.016-0.773-12.467-2.323c-3.452-1.55-6.55-4.228-9.297-8.03l-9.298,12.678c3.592,4.016,7.853,6.991,12.785,8.928
		c4.929,1.937,11.339,2.905,19.228,2.905c5.635,0,10.688-0.845,15.16-2.535s7.977-4.155,10.514-7.396
		c2.535-3.239,3.803-7.079,3.803-11.517c0-6.128-2.061-10.881-6.182-14.263c-4.119-3.381-11.004-5.95-20.654-7.713
		c-5.002-0.914-8.541-1.918-10.617-3.011c-2.078-1.092-3.117-2.518-3.117-4.279c0-2.113,0.986-3.803,2.959-5.07
		c1.971-1.269,4.789-1.902,8.451-1.902c4.367,0,8.117,0.828,11.252,2.482c3.133,1.656,5.863,4.244,8.188,7.766l10.248-11.832
		c-4.014-4.438-8.363-7.643-13.047-9.615C1113.788,64.873,1108.136,63.886,1101.517,63.886 M1016.783,120.621v-14.264h28.738V93.152
		h-28.738V78.994h36.134V64.943h-54.306v69.729h55.679v-14.052H1016.783z M963.853,41.91H953.71
		c-0.21,1.973-0.634,3.451-1.267,4.438c-0.634,0.987-1.551,1.479-2.747,1.479c-0.776,0-1.427-0.157-1.955-0.475
		c-0.527-0.316-1.321-0.898-2.377-1.744c-1.55-1.195-2.977-2.129-4.278-2.799c-1.305-0.669-3.012-1.004-5.124-1.004
		c-8.875,0-13.524,5.6-13.946,16.799h10.142c0.212-1.971,0.635-3.451,1.269-4.438c0.633-0.985,1.513-1.479,2.641-1.479
		c0.775,0,1.495,0.195,2.165,0.581c0.669,0.389,1.461,0.969,2.378,1.743c1.479,1.199,2.869,2.112,4.173,2.747
		c1.303,0.634,3.011,0.951,5.124,0.951C958.782,58.709,963.43,53.109,963.853,41.91 M943.041,78.148
		c5.07,0,8.927,1.834,11.567,5.494c2.643,3.663,3.962,9.051,3.962,16.165c0,7.115-1.319,12.503-3.962,16.164
		c-2.64,3.663-6.498,5.494-11.567,5.494c-5.072,0-8.946-1.831-11.623-5.494c-2.678-3.661-4.016-9.049-4.016-16.164
		c0-7.114,1.337-12.502,4.016-16.165C934.094,79.982,937.968,78.148,943.041,78.148 M943.041,63.886
		c-7.045,0-13.139,1.426-18.278,4.278c-5.143,2.854-9.085,6.974-11.833,12.361c-2.747,5.389-4.121,11.817-4.121,19.282
		c0,7.466,1.374,13.894,4.121,19.281c2.748,5.388,6.69,9.509,11.833,12.36c5.14,2.854,11.233,4.279,18.278,4.279
		c7.041,0,13.116-1.426,18.223-4.279c5.105-2.852,9.035-6.973,11.782-12.36c2.746-5.388,4.12-11.815,4.12-19.281
		c0-7.465-1.374-13.894-4.12-19.282c-2.747-5.388-6.676-9.508-11.782-12.361C956.157,65.312,950.082,63.886,943.041,63.886
		 M892.644,114.705l-16.482-4.649c-0.844,3.945-2.394,6.833-4.647,8.663c-2.254,1.833-5.319,2.747-9.192,2.747
		c-5.142,0-9.07-1.849-11.779-5.546c-2.714-3.698-4.068-9.068-4.068-16.112c0-7.043,1.409-12.414,4.226-16.112
		c2.816-3.697,6.797-5.547,11.939-5.547c3.732,0,6.621,0.846,8.664,2.536c2.042,1.69,3.556,4.647,4.542,8.874l15.955-6.443
		c-1.692-6.41-5.178-11.217-10.46-14.422c-5.282-3.205-11.728-4.808-19.334-4.808c-6.974,0-13.032,1.426-18.172,4.278
		c-5.143,2.854-9.086,6.992-11.833,12.414c-2.747,5.426-4.121,11.834-4.121,19.229c0,10.424,2.624,18.771,7.871,25.039
		c5.247,6.271,12.554,9.826,21.923,10.671c2.814,0.914,4.77,1.937,5.863,3.064c1.091,1.126,1.638,2.464,1.638,4.015
		c0,1.619-0.529,2.887-1.584,3.803c-1.058,0.915-2.468,1.373-4.227,1.373c-3.101,0-5.636-0.986-7.606-2.958l-4.122,8.348
		c3.027,2.815,7.396,4.226,13.1,4.226c4.579,0,8.241-1.075,10.989-3.223c2.747-2.149,4.12-5.229,4.12-9.244
		c0-3.946-1.867-7.255-5.6-9.932c5.635-1.057,10.371-3.257,14.211-6.604C888.294,125.042,891.023,120.48,892.644,114.705
		 M806.433,64.943h-18.172v69.729h18.172V64.943z M731.21,120.938h-9.614V78.677h9.614c5.846,0,10.143,1.762,12.89,5.283
		c2.747,3.522,4.12,8.805,4.12,15.848c0,7.044-1.374,12.326-4.12,15.847C741.353,119.178,737.056,120.938,731.21,120.938
		 M733.008,64.943h-29.583v69.729h29.583c10.916,0,19.279-3.011,25.091-9.034c5.811-6.021,8.716-14.632,8.716-25.831
		c0-11.198-2.905-19.81-8.716-25.832C752.287,67.953,743.923,64.943,733.008,64.943 M645.95,120.621v-14.264h28.737V93.152H645.95
		V78.994h36.134V64.943h-54.306v69.729h55.679v-14.052H645.95z"/>
	<path clip-path="url(#SVGID_2_)" fill="#231F20" d="M271.999,397.236h59.245v62.631h-59.245V397.236z M120.222,272.537v-50.781
		c25.391-1.692,37.24-6.771,42.318-18.619c2.821-5.643,3.95-12.978,3.95-22.006V147.84c0-11.849,0-24.825-2.257-35.547
		c-2.257-10.72-7.335-18.056-16.927-18.056c-7.336,0-11.849,3.386-14.106,14.106c-2.822,11.284-3.95,28.776-3.95,56.425H69.44
		c0-23.134,0.563-54.732,10.721-80.123c10.156-24.826,28.776-44.011,67.145-44.011c38.368,0,58.117,19.748,68.273,40.625
		c10.156,20.877,10.721,43.447,10.721,48.525c0,61.502-10.721,90.843-29.341,109.463l-0.564,0.564
		c29.34,23.133,34.982,66.016,34.982,113.977c0,1.693,0,5.643-0.564,11.85c-0.564,11.848-3.949,29.34-10.156,47.395
		c-6.771,18.057-18.056,34.42-35.547,44.012c-9.028,5.078-19.749,7.334-32.726,7.334c-38.37,0-58.117-19.184-68.839-44.574
		c-10.72-24.826-11.849-56.424-11.849-79.559h59.81c0,27.648,1.693,45.141,5.078,55.861c3.385,11.285,8.464,14.67,15.799,14.67
		c9.592,0,14.669-7.336,16.927-17.492c2.257-10.156,2.257-23.133,2.257-34.982c0-12.979,0-24.826,0.564-35.547
		c0-20.312-3.949-34.42-16.927-42.883c-6.771-3.951-16.927-6.771-29.905-7.336H120.222z"/>
	<path clip-path="url(#SVGID_2_)" fill="#231F20" d="M768.478,430.6c0.35,2.6,0.6,4.801,0.6,7.201c2.6-0.051,4.75,0.6,7.15,0.6
		c3.85,0,8.65-1.701,8.65-6.451c0-3.898-3.545-6.074-7.85-7.648c-2.05-0.75-2.75-1.9-2.75-3.65c0-2,1.45-2.85,2.799-2.85
		c2.25,0,3.85,1.148,4.85,4.648l1.951-0.25c-0.15-1.799-0.35-3.6-0.55-5.1c-1.95-0.949-3.65-1.4-6.4-1.4
		c-4.549,0-7.799,2.701-7.799,6.15c0,4,4.4,6.551,6.9,7.451c2.75,0.949,3.299,1.949,3.299,3.898c0,2.301-1.6,3.25-2.95,3.25
		c-3.75,0-5-1.648-5.9-5.949L768.478,430.6z M762.927,432.449c-1.85,2.25-3.698,3.15-5.6,3.15c-3.9,0-6.799-3.75-6.799-8.65v-1.299
		h12.149c1.201,0,1.951-0.35,1.951-1.051c0-4.25-1.75-8.9-9.1-8.9c-5.25,0-10.75,4.65-10.75,12.301c0,5.5,3,10.4,10.6,10.4
		c3.45,0,6.95-1.15,8.799-4.9L762.927,432.449z M750.778,423.65c0.701-5.1,3.649-5.85,4.701-5.85c1.348,0,3.398,1.299,3.398,5.299
		c0,0.301,0,0.451-0.1,0.551H750.778z M717.979,427.551c0,5.148,3.899,10.85,11.25,10.85c7.75,0,11.299-6.25,11.299-11.301
		c0-5.25-3.1-11.4-11.25-11.4C722.028,415.699,717.979,420.699,717.979,427.551 M728.778,417.75c3.4,0,5.701,3.801,5.701,10.949
		c0,6.352-2.65,7.551-4.451,7.551c-4.1,0-5.95-6.1-5.95-9.801C724.079,422.199,725.579,417.75,728.778,417.75 M732.229,409.199
		c-1,0-1.851-0.549-2.75-1.25c-1-0.799-2.15-1.6-3.701-1.6c-2.25,0-3.45,1.9-4.15,5.301l1.3,0.4c0.551-1.9,1.1-2.65,2.45-2.65
		c0.9,0,1.9,0.65,2.9,1.299c1,0.75,2.1,1.5,3.25,1.5c2.4,0,3.9-2,4.55-5.398l-1.4-0.5
		C733.979,408.75,733.329,409.199,732.229,409.199 M704.028,441.949c0.946,0,2.1,0.801,2.1,1.75c0,1.352-1,2.051-2.5,2.051
		c-1,0-1.549-0.199-2.899-0.699l-0.58,1.324c1.25,0.551,2,0.85,3.6,0.85c3.05,0,6.03-1.475,6.03-4.125c0-1.9-1.629-2.9-3.629-2.9
		c-0.45,0-1.2,0-1.601,0.102l0.735-1.941c0.384,0.025,0.785,0.041,1.195,0.041c3.549,0,6.35-1.801,7.85-4.85l-1-0.951
		c-2.15,2.4-3.701,3.25-5.55,3.25c-3.299,0-6.2-3.85-6.2-9.25c0-5.549,2.25-8.799,4.9-8.799c1.899,0,2.6,1.949,2.75,3.549
		c0.149,1.35,1.25,2.35,2.85,2.35s2.5-1.25,2.5-2.799c0-2.701-2.451-5.201-7.9-5.201c-5.9,0-10.8,5-10.8,12.15
		c0,5.535,2.535,9.291,7.675,10.285l-2.074,3.814l0.299,0.301C702.579,442,703.079,441.949,704.028,441.949 M683.979,409.35
		c0,1.65,1.35,3,3,3c1.65,0,3-1.35,3-3s-1.35-3-3-3C685.329,406.35,683.979,407.699,683.979,409.35 M689.78,421.834
		c0-2.5,0.149-6.135,0.149-6.135c0-0.119-0.229-0.148-0.35-0.148c-1.575,0.5-5.075,1.023-8.549,1.5l0.1,1.5l2.049,0.199
		c0.701,0.051,1.101,0.6,1.101,3.1v12.201c0,1.398-0.8,1.889-2.351,2.148l-0.6,0.102c-0.194,0.033-0.35,0.148-0.35,0.449v1.15
		l0.1,0.1c0,0,4.05-0.1,5.85-0.1c1.951,0,6,0.1,6,0.1l0.101-0.1v-1.15c0-0.301-0.205-0.404-0.4-0.449l-0.5-0.102
		c-1.479-0.295-2.35-0.75-2.35-2.148V421.834z M669.03,418.85h-0.101l0.101-3.15c0-0.1-0.25-0.148-0.351-0.148
		c-1.6,0.5-4.899,1.049-8.399,1.5l0.1,1.699l2.049,0.199c0.701,0.051,1.101,0.4,1.101,2.9v12.201c0,1.35-0.825,1.834-2.4,2.148
		l-0.5,0.102c-0.194,0.039-0.35,0.148-0.35,0.449v1.15l0.1,0.1c0,0,4-0.1,5.799-0.1c1.951,0,5.951,0.1,5.951,0.1l0.1-0.1v-1.15
		c0-0.301-0.205-0.4-0.4-0.449l-0.4-0.102c-1.529-0.385-2.399-0.75-2.399-2.148V423.5c0-1.775,0.549-2.975,1.299-3.5
		c0.611-0.426,1.036-0.65,1.835-0.65c0.895,0,1.7,2,3.665,2c1.451,0,2.5-1.25,2.5-2.85c0-1.301-1.1-2.801-2.9-2.801
		C673.679,415.699,671.53,416.275,669.03,418.85 M656.729,433.551l-1-0.951c-2.15,2.4-3.7,3.25-5.551,3.25
		c-3.299,0-6.199-3.85-6.199-9.25c0-5.549,2.25-8.799,4.9-8.799c1.9,0,2.6,1.949,2.75,3.549c0.15,1.35,1.25,2.35,2.85,2.35
		c1.6,0,2.5-1.25,2.5-2.799c0-2.701-2.45-5.201-7.9-5.201c-5.9,0-10.799,5-10.799,12.15c0,6.5,3.5,10.551,10.6,10.551
		C652.429,438.4,655.229,436.6,656.729,433.551 M617.73,430.6c0.35,2.6,0.6,4.801,0.6,7.201c2.6-0.051,4.75,0.6,7.15,0.6
		c3.85,0,8.649-1.701,8.649-6.451c0-3.898-3.544-6.074-7.85-7.648c-2.05-0.75-2.75-1.9-2.75-3.65c0-2,1.45-2.85,2.8-2.85
		c2.25,0,3.85,1.148,4.85,4.648l1.949-0.25c-0.149-1.799-0.35-3.6-0.549-5.1c-1.951-0.949-3.65-1.4-6.4-1.4
		c-4.551,0-7.801,2.701-7.801,6.15c0,4,4.4,6.551,6.9,7.451c2.75,0.949,3.3,1.949,3.3,3.898c0,2.301-1.6,3.25-2.951,3.25
		c-3.75,0-5-1.648-5.899-5.949L617.73,430.6z M597.632,418.85h-0.1l0.1-3.15c0-0.1-0.25-0.148-0.35-0.148
		c-1.6,0.5-4.9,1.049-8.4,1.5l0.1,1.699l2.05,0.199c0.7,0.051,1.1,0.4,1.1,2.9v12.25c0,1.4-0.79,1.74-2.4,2.1l-0.45,0.102
		c-0.245,0.055-0.4,0.148-0.4,0.449v1.15l0.1,0.1c0,0,4.05-0.1,5.8-0.1c1.95,0,5.75,0.1,5.75,0.1l0.1-0.1v-1.15
		c0-0.301-0.205-0.4-0.4-0.449l-0.2-0.051c-1.51-0.375-2.4-0.801-2.4-2.15v-13.25c2.475-1.549,4.55-2.35,6.05-2.35
		c1.8,0,2.1,1.5,2.1,4.9V434.1c0,1.4-0.84,1.76-2.4,2.15l-0.2,0.051c-0.245,0.059-0.4,0.148-0.4,0.449v1.15l0.1,0.1
		c0,0,3.8-0.1,5.6-0.1c1.95,0,5.95,0.1,5.95,0.1l0.1-0.1v-1.15c0-0.301-0.205-0.4-0.4-0.449l-0.4-0.102
		c-1.535-0.385-2.45-0.699-2.45-2.1v-10.35c0-4.551-0.75-8.051-6.1-8.051C602.782,415.699,600.182,416.9,597.632,418.85
		 M577.032,433.65c-1.25,1-3,2-3.9,2c-2.4,0-3.15-1.5-3.15-3.25c0-2.051,0.685-3.551,4.2-4.6l2.85-0.852V433.65z M576.981,435.5h0.1
		c0.6,1.926,1.9,2.9,4.9,2.9c2.75,0,4.65-2.15,4.65-2.4c0-0.35-0.45-1-0.65-1c-0.29,0-0.34,0.801-1.55,0.801c-1.95,0-2-1.9-2-4.201
		v-7.25c0-7.199-4.1-8.65-8.2-8.65c-3.65,0-8.9,2.602-8.9,5.602c0,1.299,0.55,2.1,2.35,2.1c1.4,0,2.6-1.201,2.6-1.9
		c0-0.6-0.3-1.15-0.3-2.15c0-1.1,1.65-1.75,3.55-1.75c2.1,0,3.5,1.1,3.5,7.451l-3.6,1.049c-5.155,1.506-8.7,3.1-8.7,7.051
		c0,3.449,1.65,5.25,6,5.25C572.832,438.4,575.057,437.176,576.981,435.5 M552.731,418.85h-0.1l0.1-3.15
		c0-0.1-0.25-0.148-0.35-0.148c-1.599,0.5-4.9,1.049-8.4,1.5l0.101,1.699l2.049,0.199c0.701,0.051,1.1,0.4,1.1,2.9v12.201
		c0,1.35-0.824,1.834-2.399,2.148l-0.5,0.102c-0.196,0.039-0.351,0.148-0.351,0.449v1.15l0.101,0.1c0,0,4-0.1,5.799-0.1
		c1.951,0,5.951,0.1,5.951,0.1l0.099-0.1v-1.15c0-0.301-0.204-0.4-0.399-0.449l-0.401-0.102c-1.529-0.385-2.4-0.75-2.4-2.148V423.5
		c0-1.775,0.551-2.975,1.301-3.5c0.61-0.426,1.034-0.65,1.834-0.65c0.895,0,1.7,2,3.666,2c1.449,0,2.5-1.25,2.5-2.85
		c0-1.301-1.101-2.801-2.901-2.801C557.381,415.699,555.231,416.275,552.731,418.85 M535.283,418.551h4c0.95,0,1.85-0.25,1.85-0.852
		v-1c0-0.299-0.15-0.5-1.1-0.5h-4.75v-8.049l-4.05,1.549c0,4.051-0.5,6.5-3,6.5c-1,0-1.9,0.102-1.9,0.4v1.551
		c0,0.299,0.1,0.4,0.9,0.4h2.55v14.75c0,3.648,1.8,5.1,4.3,5.1c2.75,0,5.2-1.25,7.05-3.701l-1.15-1.148
		c-1.475,1.174-2.4,1.25-3.4,1.25c-0.65,0-1.3-0.352-1.3-3.65V418.551z M493.634,430.6c0.35,2.6,0.6,4.801,0.6,7.201
		c2.6-0.051,4.75,0.6,7.15,0.6c3.85,0,8.65-1.701,8.65-6.451c0-3.898-3.545-6.074-7.85-7.648c-2.05-0.75-2.75-1.9-2.75-3.65
		c0-2,1.45-2.85,2.8-2.85c2.25,0,3.85,1.148,4.85,4.648l1.95-0.25c-0.15-1.799-0.35-3.6-0.55-5.1c-1.95-0.949-3.65-1.4-6.4-1.4
		c-4.55,0-7.8,2.701-7.8,6.15c0,4,4.4,6.551,6.9,7.451c2.75,0.949,3.3,1.949,3.3,3.898c0,2.301-1.6,3.25-2.95,3.25
		c-3.75,0-5-1.648-5.9-5.949L493.634,430.6z M481.583,433.65c-1.25,1-3,2-3.9,2c-2.4,0-3.15-1.5-3.15-3.25
		c0-2.051,0.685-3.551,4.2-4.6l2.85-0.852V433.65z M481.534,435.5h0.1c0.6,1.926,1.9,2.9,4.9,2.9c2.75,0,4.65-2.15,4.65-2.4
		c0-0.35-0.45-1-0.65-1c-0.291,0-0.34,0.801-1.55,0.801c-1.95,0-2-1.9-2-4.201v-7.25c0-7.199-4.1-8.65-8.2-8.65
		c-3.65,0-8.9,2.602-8.9,5.602c0,1.299,0.55,2.1,2.35,2.1c1.4,0,2.6-1.201,2.6-1.9c0-0.6-0.3-1.15-0.3-2.15
		c0-1.1,1.65-1.75,3.55-1.75c2.1,0,3.5,1.1,3.5,7.451l-3.6,1.049c-5.155,1.506-8.7,3.1-8.7,7.051c0,3.449,1.65,5.25,6,5.25
		C477.384,438.4,479.609,437.176,481.534,435.5 M462.833,408.75c0-3.25,0.15-5.25,0.15-5.25c0-0.35-0.35-0.5-0.8-0.5
		c-1.255,0.5-6.375,1.15-8.4,1.301l0.15,1.449c0.015,0.15,0.14,0.24,0.3,0.25l1.6,0.1c1,0,1.5,0.4,1.5,3.65v7.199
		c-0.7-0.699-2.45-1.25-3.25-1.25c-3.85,0-6.15,1.102-8.2,3c-2.3,2.301-3.4,5.4-3.4,8.951c0,6.199,4.4,10.75,9.7,10.75
		c2.1,0,3.35-0.6,5.25-2.25l-0.1,2.35h1.7c1.65-0.85,3.8-1.65,7.1-2l-0.1-1.551c-2.65-0.25-3.2-1.299-3.2-2.799V408.75z
		 M457.333,420.75v12.949c-1.8,1.701-2.9,2.201-3.9,2.201c-2.85,0-5.2-2.801-5.2-9.1c0-7.25,3.1-9,5.15-9
		C454.934,417.801,456.234,419.1,457.333,420.75"/>
	<path clip-path="url(#SVGID_2_)" fill="#231F20" d="M710.73,374.551c0,5.148,3.899,10.85,11.25,10.85c7.75,0,11.3-6.25,11.3-11.301
		c0-5.25-3.099-11.4-11.25-11.4C714.78,362.699,710.73,367.699,710.73,374.551 M721.53,364.75c3.401,0,5.7,3.801,5.7,10.949
		c0,6.352-2.65,7.551-4.45,7.551c-4.099,0-5.95-6.1-5.95-9.801C716.831,369.199,718.331,364.75,721.53,364.75 M698.832,380.65
		c-1.25,1-3,2-3.9,2c-2.399,0-3.149-1.5-3.149-3.25c0-2.051,0.685-3.551,4.2-4.6l2.85-0.852V380.65z M698.782,382.5h0.1
		c0.601,1.926,1.9,2.9,4.9,2.9c2.75,0,4.649-2.15,4.649-2.4c0-0.35-0.449-1-0.649-1c-0.29,0-0.34,0.801-1.55,0.801
		c-1.95,0-2-1.9-2-4.201v-7.25c0-7.199-4.101-8.65-8.2-8.65c-3.65,0-8.9,2.602-8.9,5.602c0,1.299,0.55,2.1,2.351,2.1
		c1.399,0,2.6-1.201,2.6-1.9c0-0.6-0.3-1.15-0.3-2.15c0-1.1,1.649-1.75,3.55-1.75c2.1,0,3.5,1.1,3.5,7.451l-3.6,1.049
		c-5.155,1.506-8.7,3.1-8.7,7.051c0,3.449,1.649,5.25,6,5.25C694.631,385.4,696.857,384.176,698.782,382.5 M699.631,356.199
		c-1,0-1.85-0.549-2.75-1.25c-1-0.799-2.149-1.6-3.7-1.6c-2.25,0-3.449,1.9-4.149,5.301l1.3,0.4c0.55-1.9,1.1-2.65,2.45-2.65
		c0.899,0,1.899,0.65,2.899,1.299c1,0.75,2.101,1.5,3.25,1.5c2.4,0,3.9-2,4.551-5.398l-1.4-0.5
		C701.381,355.75,700.732,356.199,699.631,356.199 M672.482,388.949c0.945,0,2.1,0.801,2.1,1.75c0,1.352-1,2.051-2.5,2.051
		c-1,0-1.55-0.199-2.9-0.699l-0.58,1.324c1.25,0.551,2,0.85,3.6,0.85c3.05,0,6.031-1.475,6.031-4.125c0-1.9-1.63-2.9-3.63-2.9
		c-0.45,0-1.2,0-1.6,0.102l0.735-1.941c0.385,0.025,0.785,0.041,1.195,0.041c3.551,0,6.351-1.801,7.851-4.85l-1-0.951
		c-2.15,2.4-3.7,3.25-5.55,3.25c-3.301,0-6.2-3.85-6.2-9.25c0-5.549,2.25-8.799,4.899-8.799c1.9,0,2.601,1.949,2.75,3.549
		c0.15,1.35,1.25,2.35,2.851,2.35c1.6,0,2.5-1.25,2.5-2.799c0-2.701-2.45-5.201-7.9-5.201c-5.899,0-10.8,5-10.8,12.15
		c0,5.535,2.535,9.291,7.675,10.285l-2.075,3.814l0.301,0.301C671.032,389,671.532,388.949,672.482,388.949 M652.282,380.65
		c-1.25,1-3,2-3.9,2c-2.399,0-3.149-1.5-3.149-3.25c0-2.051,0.685-3.551,4.199-4.6l2.851-0.852V380.65z M652.232,382.5h0.1
		c0.6,1.926,1.9,2.9,4.9,2.9c2.75,0,4.649-2.15,4.649-2.4c0-0.35-0.45-1-0.649-1c-0.29,0-0.34,0.801-1.551,0.801
		c-1.949,0-2-1.9-2-4.201v-7.25c0-7.199-4.1-8.65-8.199-8.65c-3.65,0-8.9,2.602-8.9,5.602c0,1.299,0.55,2.1,2.35,2.1
		c1.4,0,2.601-1.201,2.601-1.9c0-0.6-0.3-1.15-0.3-2.15c0-1.1,1.649-1.75,3.55-1.75c2.1,0,3.5,1.1,3.5,7.451l-3.601,1.049
		c-5.155,1.506-8.7,3.1-8.7,7.051c0,3.449,1.65,5.25,6,5.25C648.082,385.4,650.306,384.176,652.232,382.5 M627.982,365.85h-0.1
		l0.1-3.15c0-0.1-0.25-0.148-0.35-0.148c-1.6,0.5-4.9,1.049-8.4,1.5l0.1,1.699l2.05,0.199c0.7,0.051,1.1,0.4,1.1,2.9v12.201
		c0,1.35-0.825,1.834-2.4,2.148l-0.5,0.102c-0.195,0.039-0.35,0.148-0.35,0.449v1.15l0.1,0.1c0,0,4-0.1,5.8-0.1
		c1.95,0,5.95,0.1,5.95,0.1l0.1-0.1v-1.15c0-0.301-0.205-0.4-0.4-0.449l-0.4-0.102c-1.53-0.385-2.4-0.75-2.4-2.148V370.5
		c0-1.775,0.55-2.975,1.3-3.5c0.61-0.426,1.034-0.65,1.835-0.65c0.895,0,1.699,2,3.665,2c1.45,0,2.5-1.25,2.5-2.85
		c0-1.301-1.1-2.801-2.9-2.801C632.633,362.699,630.482,363.275,627.982,365.85 M607.433,380.65c-1.25,1-3,2-3.9,2
		c-2.4,0-3.15-1.5-3.15-3.25c0-2.051,0.685-3.551,4.2-4.6l2.85-0.852V380.65z M607.383,382.5h0.1c0.6,1.926,1.9,2.9,4.9,2.9
		c2.75,0,4.65-2.15,4.65-2.4c0-0.35-0.45-1-0.65-1c-0.29,0-0.34,0.801-1.55,0.801c-1.95,0-2-1.9-2-4.201v-7.25
		c0-7.199-4.1-8.65-8.2-8.65c-3.65,0-8.9,2.602-8.9,5.602c0,1.299,0.55,2.1,2.35,2.1c1.4,0,2.6-1.201,2.6-1.9
		c0-0.6-0.3-1.15-0.3-2.15c0-1.1,1.65-1.75,3.55-1.75c2.1,0,3.5,1.1,3.5,7.451l-3.6,1.049c-5.155,1.506-8.7,3.1-8.7,7.051
		c0,3.449,1.65,5.25,6,5.25C603.232,385.4,605.458,384.176,607.383,382.5 M576.183,365.85h-0.1l0.1-3.15
		c0-0.1-0.25-0.148-0.35-0.148c-1.6,0.5-4.9,1.049-8.4,1.5l0.1,1.699l2.05,0.199c0.7,0.051,1.1,0.4,1.1,2.9v23.75
		c0,1.4-0.745,1.83-2.4,2.201l-0.45,0.1c-0.245,0.055-0.4,0.15-0.4,0.4v1.199l0.1,0.1c0,0,4-0.1,5.8-0.1c1.95,0,6,0.1,6,0.1
		l0.05-0.1v-1.199c0-0.25-0.155-0.342-0.4-0.4l-0.4-0.1c-1.555-0.391-2.4-0.801-2.4-2.201v-8.049c1.075,0.549,2.15,0.85,3.35,0.85
		c3.05,0,5.5-0.9,7.45-2.85c2.45-2.451,3.85-5.602,3.85-9.5c0-5.301-3.15-10.352-8.6-10.352
		C580.058,362.699,577.808,363.975,576.183,365.85 M576.183,367.85c1.45-1.6,3.25-2.549,4.45-2.549c2.95,0,4.45,3.25,4.45,9.1
		c0,4.199-1.5,8.9-5.85,8.9c-0.55,0-1.8-0.301-3.05-1.65V367.85z M536.134,365.85l0.1-3.15c0-0.1-0.25-0.148-0.35-0.148
		c-1.6,0.5-4.9,1.049-8.4,1.5l0.1,1.699l2.05,0.199c0.7,0.051,1.1,0.4,1.1,2.9v12.301c0,1.4-0.75,1.699-2.4,2.049l-0.45,0.102
		c-0.25,0.049-0.4,0.148-0.4,0.449v1.15l0.1,0.1c0,0,4.05-0.1,5.8-0.1c2,0,5.6,0.1,5.6,0.1l0.1-0.1v-1.15
		c0-0.301-0.2-0.4-0.45-0.449c-1.15-0.15-2.4-0.4-2.4-2.15V367.85c2.1-1.75,3.75-2.4,5.2-2.4c1.25,0,2.05,1.25,2.05,4.4v11.25
		c0,1.4-0.7,2.051-2.35,2.201c-0.3,0.049-0.45,0.199-0.45,0.449v1.15l0.1,0.1c0,0,3.6-0.1,5.4-0.1c1.95,0,5.55,0.1,5.55,0.1l0.1-0.1
		v-1.15c0-0.301-0.2-0.449-0.4-0.449c-1.2-0.15-2.45-0.451-2.45-2.201v-10.299c0-0.701-0.05-2.25-0.1-2.9
		c1.95-1.65,3.75-2.451,5.45-2.451c1.2,0,2,1.301,2,4.301v11.35c0,1.4-0.7,2.051-2.4,2.201c-0.3,0.049-0.4,0.199-0.4,0.449v1.15
		l0.1,0.1c0,0,3.6-0.1,5.35-0.1c1.95,0,6,0.1,6,0.1l0.1-0.1v-1.15c0-0.301-0.2-0.4-0.4-0.449l-0.4-0.102
		c-1.55-0.398-2.45-0.699-2.45-2.1v-10.25c0-4.5-0.5-8.15-5.75-8.15c-2.65,0-5.4,1.301-7.7,3.301c-0.75-1.949-2.5-3.301-5.15-3.301
		c-2.75,0-5.25,1.602-7,3.15H536.134z M501.134,374.551c0,5.148,3.9,10.85,11.25,10.85c7.75,0,11.3-6.25,11.3-11.301
		c0-5.25-3.1-11.4-11.25-11.4C505.184,362.699,501.134,367.699,501.134,374.551 M511.934,364.75c3.4,0,5.7,3.801,5.7,10.949
		c0,6.352-2.65,7.551-4.45,7.551c-4.1,0-5.95-6.1-5.95-9.801C507.234,369.199,508.734,364.75,511.934,364.75 M497.484,380.551
		l-1-0.951c-2.15,2.4-3.7,3.25-5.55,3.25c-3.3,0-6.2-3.85-6.2-9.25c0-5.549,2.25-8.799,4.9-8.799c1.9,0,2.6,1.949,2.75,3.549
		c0.15,1.35,1.25,2.35,2.85,2.35c1.6,0,2.5-1.25,2.5-2.799c0-2.701-2.45-5.201-7.9-5.201c-5.9,0-10.8,5-10.8,12.15
		c0,6.5,3.5,10.551,10.6,10.551C493.184,385.4,495.984,383.6,497.484,380.551 M460.484,379.449c-1.85,2.25-3.7,3.15-5.6,3.15
		c-3.9,0-6.8-3.75-6.8-8.65v-1.299h12.15c1.2,0,1.95-0.35,1.95-1.051c0-4.25-1.75-8.9-9.1-8.9c-5.25,0-10.75,4.65-10.75,12.301
		c0,5.5,3,10.4,10.6,10.4c3.45,0,6.95-1.15,8.8-4.9L460.484,379.449z M448.333,370.65c0.7-5.1,3.65-5.85,4.7-5.85
		c1.35,0,3.4,1.299,3.4,5.299c0,0.301,0,0.451-0.1,0.551H448.333z"/>
	<path clip-path="url(#SVGID_2_)" fill="#231F20" d="M699.579,324.6c0.35,2.6,0.6,4.801,0.6,7.201c2.601-0.051,4.75,0.6,7.15,0.6
		c3.85,0,8.65-1.701,8.65-6.451c0-3.898-3.544-6.074-7.85-7.648c-2.05-0.75-2.75-1.9-2.75-3.65c0-2,1.45-2.85,2.799-2.85
		c2.25,0,3.851,1.148,4.851,4.648l1.95-0.25c-0.15-1.799-0.35-3.6-0.551-5.1c-1.949-0.949-3.649-1.4-6.399-1.4
		c-4.55,0-7.8,2.701-7.8,6.15c0,4,4.4,6.551,6.9,7.451c2.75,0.949,3.299,1.949,3.299,3.898c0,2.301-1.6,3.25-2.949,3.25
		c-3.75,0-5-1.648-5.9-5.949L699.579,324.6z M687.68,303.35c0,1.65,1.35,3,3,3c1.65,0,3-1.35,3-3s-1.35-3-3-3
		C689.03,300.35,687.68,301.699,687.68,303.35 M693.48,315.834c0-2.5,0.149-6.135,0.149-6.135c0-0.119-0.229-0.148-0.35-0.148
		c-1.575,0.5-5.075,1.023-8.549,1.5l0.1,1.5l2.049,0.199c0.701,0.051,1.101,0.6,1.101,3.1v12.201c0,1.398-0.801,1.889-2.351,2.148
		l-0.6,0.102c-0.195,0.033-0.35,0.148-0.35,0.449v1.15l0.1,0.1c0,0,4.05-0.1,5.85-0.1c1.951,0,6,0.1,6,0.1l0.101-0.1v-1.15
		c0-0.301-0.205-0.404-0.4-0.449l-0.5-0.102c-1.479-0.295-2.35-0.75-2.35-2.148V315.834z M672.731,327.65c-1.25,1-3,2-3.9,2
		c-2.4,0-3.15-1.5-3.15-3.25c0-2.051,0.686-3.551,4.2-4.6l2.851-0.852V327.65z M672.68,329.5h0.1c0.6,1.926,1.9,2.9,4.9,2.9
		c2.75,0,4.65-2.15,4.65-2.4c0-0.35-0.451-1-0.65-1c-0.29,0-0.34,0.801-1.55,0.801c-1.95,0-2-1.9-2-4.201v-7.25
		c0-7.199-4.1-8.65-8.2-8.65c-3.65,0-8.9,2.602-8.9,5.602c0,1.299,0.55,2.1,2.35,2.1c1.4,0,2.601-1.201,2.601-1.9
		c0-0.6-0.301-1.15-0.301-2.15c0-1.1,1.65-1.75,3.551-1.75c2.1,0,3.5,1.1,3.5,7.451l-3.601,1.049c-5.154,1.506-8.7,3.1-8.7,7.051
		c0,3.449,1.65,5.25,6,5.25C668.53,332.4,670.755,331.176,672.68,329.5 M640.38,312.85h-0.1l0.1-3.15c0-0.1-0.25-0.148-0.35-0.148
		c-1.6,0.5-4.9,1.049-8.4,1.5l0.101,1.699l2.05,0.199c0.7,0.051,1.1,0.4,1.1,2.9v12.25c0,1.4-0.789,1.74-2.399,2.1l-0.45,0.102
		c-0.245,0.055-0.4,0.148-0.4,0.449v1.15l0.101,0.1c0,0,4.05-0.1,5.8-0.1c1.95,0,5.75,0.1,5.75,0.1l0.1-0.1v-1.15
		c0-0.301-0.204-0.4-0.399-0.449l-0.201-0.051c-1.509-0.375-2.4-0.801-2.4-2.15v-13.25c2.476-1.549,4.55-2.35,6.05-2.35
		c1.801,0,2.1,1.5,2.1,4.9V328.1c0,1.4-0.839,1.76-2.4,2.15l-0.2,0.051c-0.245,0.059-0.4,0.148-0.4,0.449v1.15l0.1,0.1
		c0,0,3.8-0.1,5.601-0.1c1.949,0,5.949,0.1,5.949,0.1l0.1-0.1v-1.15c0-0.301-0.205-0.4-0.4-0.449l-0.399-0.102
		c-1.535-0.385-2.451-0.699-2.451-2.1v-10.35c0-4.551-0.75-8.051-6.1-8.051C645.53,309.699,642.93,310.9,640.38,312.85
		 M619.932,303.35c0,1.65,1.349,3,3,3c1.649,0,3-1.35,3-3s-1.351-3-3-3C621.28,300.35,619.932,301.699,619.932,303.35
		 M625.73,315.834c0-2.5,0.149-6.135,0.149-6.135c0-0.119-0.229-0.148-0.35-0.148c-1.575,0.5-5.075,1.023-8.55,1.5l0.1,1.5
		l2.049,0.199c0.701,0.051,1.101,0.6,1.101,3.1v12.201c0,1.398-0.799,1.889-2.351,2.148l-0.6,0.102
		c-0.195,0.033-0.349,0.148-0.349,0.449v1.15l0.099,0.1c0,0,4.05-0.1,5.85-0.1c1.951,0,6,0.1,6,0.1l0.101-0.1v-1.15
		c0-0.301-0.205-0.404-0.4-0.449l-0.5-0.102c-1.48-0.295-2.35-0.75-2.35-2.148V315.834z M611.632,312.75c1.4,0,2.2-0.801,2.2-2
		c0-0.949-0.8-2.199-2.7-2.199c-1.35,0-3.6,0.799-5.05,2.1c-0.9-0.5-2.45-0.951-4.7-0.951c-4.8,0-9.2,2.951-9.2,7.602
		c0,2.449,1.2,5,3.05,6.273c-1.5,1.4-2.6,3.076-2.6,4.625c0,1.602,1,2.801,2.4,3.65c-2.6,1.75-4.05,3.9-4.05,5.85
		c0,4.451,4.35,6.102,8.45,6.102c6.95,0,14.5-3.65,14.5-9.15c0-1.9-2-5.551-10.15-5.551c-1.9,0-4.25,0.35-4.7,0.35
		c-0.9,0-2.25-0.6-2.25-2.6c0-0.799,0.075-1.85,0.325-2.449c1.05,0.5,2.625,0.75,4.175,0.75c4.7,0,8.95-2.701,8.95-7.6
		c0-2.801-1-4.551-2.7-5.951c0.4-0.5,0.95-0.9,1.45-0.9c0.45,0,0.6,0.301,0.75,0.602C609.981,311.949,610.382,312.75,611.632,312.75
		 M598.432,332.65c0.55,0,1.35,0,2.1-0.051c0.65-0.049,1.1-0.1,1.55-0.1c2.25,0,7.3,0.15,7.3,3.449c0,3.75-4.8,5.75-8.55,5.75
		c-1.4,0-5.15-1.449-5.15-5c0-1.699,0.05-3.148,1.1-4.25C597.282,332.65,597.832,332.65,598.432,332.65 M604.882,317.699
		c0,4.801-2,5.602-3.3,5.602c-3.1,0-4.1-3.9-4.1-6.451c0-3.699,1.5-5.4,3.45-5.4C603.282,311.449,604.882,313.75,604.882,317.699
		 M579.231,303.35c0,1.65,1.35,3,3,3s3-1.35,3-3s-1.35-3-3-3S579.231,301.699,579.231,303.35 M585.032,315.834
		c0-2.5,0.15-6.135,0.15-6.135c0-0.119-0.23-0.148-0.35-0.148c-1.575,0.5-5.075,1.023-8.55,1.5l0.1,1.5l2.05,0.199
		c0.7,0.051,1.1,0.6,1.1,3.1v12.201c0,1.398-0.8,1.889-2.35,2.148l-0.6,0.102c-0.195,0.033-0.35,0.148-0.35,0.449v1.15l0.1,0.1
		c0,0,4.05-0.1,5.85-0.1c1.95,0,6,0.1,6,0.1l0.1-0.1v-1.15c0-0.301-0.205-0.404-0.4-0.449l-0.5-0.102
		c-1.48-0.295-2.35-0.75-2.35-2.148V315.834z M564.283,312.85h-0.1l0.1-3.15c0-0.1-0.25-0.148-0.35-0.148
		c-1.6,0.5-4.9,1.049-8.4,1.5l0.1,1.699l2.05,0.199c0.7,0.051,1.1,0.4,1.1,2.9v12.201c0,1.35-0.825,1.834-2.4,2.148l-0.5,0.102
		c-0.195,0.039-0.35,0.148-0.35,0.449v1.15l0.1,0.1c0,0,4-0.1,5.8-0.1c1.95,0,5.95,0.1,5.95,0.1l0.1-0.1v-1.15
		c0-0.301-0.205-0.4-0.4-0.449l-0.4-0.102c-1.53-0.385-2.4-0.75-2.4-2.148V317.5c0-1.775,0.55-2.975,1.3-3.5
		c0.61-0.426,1.035-0.65,1.835-0.65c0.895,0,1.7,2,3.665,2c1.45,0,2.5-1.25,2.5-2.85c0-1.301-1.1-2.801-2.9-2.801
		C568.933,309.699,566.783,310.275,564.283,312.85 M529.183,321.551c0,5.148,3.9,10.85,11.25,10.85c7.75,0,11.3-6.25,11.3-11.301
		c0-5.25-3.1-11.4-11.25-11.4C533.232,309.699,529.183,314.699,529.183,321.551 M539.982,311.75c3.4,0,5.7,3.801,5.7,10.949
		c0,6.352-2.65,7.551-4.45,7.551c-4.1,0-5.95-6.1-5.95-9.801C535.283,316.199,536.783,311.75,539.982,311.75 M495.783,324.6
		c0.35,2.6,0.6,4.801,0.6,7.201c2.6-0.051,4.75,0.6,7.15,0.6c3.85,0,8.65-1.701,8.65-6.451c0-3.898-3.545-6.074-7.85-7.648
		c-2.05-0.75-2.75-1.9-2.75-3.65c0-2,1.45-2.85,2.8-2.85c2.25,0,3.851,1.148,4.851,4.648l1.949-0.25c-0.15-1.799-0.35-3.6-0.55-5.1
		c-1.95-0.949-3.649-1.4-6.4-1.4c-4.55,0-7.8,2.701-7.8,6.15c0,4,4.4,6.551,6.9,7.451c2.75,0.949,3.3,1.949,3.3,3.898
		c0,2.301-1.6,3.25-2.95,3.25c-3.75,0-5-1.648-5.9-5.949L495.783,324.6z M469.184,321.551c0,5.148,3.9,10.85,11.25,10.85
		c7.75,0,11.3-6.25,11.3-11.301c0-5.25-3.1-11.4-11.25-11.4C473.234,309.699,469.184,314.699,469.184,321.551 M479.984,311.75
		c3.4,0,5.7,3.801,5.7,10.949c0,6.352-2.65,7.551-4.45,7.551c-4.1,0-5.95-6.1-5.95-9.801
		C475.284,316.199,476.784,311.75,479.984,311.75 M462.833,302.75c0-3.25,0.15-5.25,0.15-5.25c0-0.35-0.35-0.5-0.8-0.5
		c-1.255,0.5-6.375,1.15-8.4,1.301l0.15,1.449c0.015,0.15,0.14,0.24,0.3,0.25l1.6,0.1c1,0,1.5,0.4,1.5,3.65v7.199
		c-0.7-0.699-2.45-1.25-3.25-1.25c-3.85,0-6.15,1.102-8.2,3c-2.3,2.301-3.4,5.4-3.4,8.951c0,6.199,4.4,10.75,9.7,10.75
		c2.1,0,3.35-0.6,5.25-2.25l-0.1,2.35h1.7c1.65-0.85,3.8-1.65,7.1-2l-0.1-1.551c-2.65-0.25-3.2-1.299-3.2-2.799V302.75z
		 M457.333,314.75v12.949c-1.8,1.701-2.9,2.201-3.9,2.201c-2.85,0-5.2-2.801-5.2-9.1c0-7.25,3.1-9,5.15-9
		C454.934,311.801,456.234,313.1,457.333,314.75"/>
	<path clip-path="url(#SVGID_2_)" fill="#231F20" d="M684.979,268.551c0,5.148,3.9,10.85,11.25,10.85c7.75,0,11.3-6.25,11.3-11.301
		c0-5.25-3.101-11.4-11.25-11.4C689.03,256.699,684.979,261.699,684.979,268.551 M695.78,258.75c3.399,0,5.7,3.801,5.7,10.949
		c0,6.352-2.65,7.551-4.45,7.551c-4.101,0-5.951-6.1-5.951-9.801C691.079,263.199,692.579,258.75,695.78,258.75 M673.079,274.65
		c-1.25,1-3,2-3.9,2c-2.399,0-3.149-1.5-3.149-3.25c0-2.051,0.685-3.551,4.2-4.6l2.85-0.852V274.65z M673.03,276.5h0.1
		c0.6,1.926,1.9,2.9,4.9,2.9c2.75,0,4.649-2.15,4.649-2.4c0-0.35-0.449-1-0.649-1c-0.29,0-0.34,0.801-1.55,0.801
		c-1.95,0-2-1.9-2-4.201v-7.25c0-7.199-4.1-8.65-8.2-8.65c-3.65,0-8.9,2.602-8.9,5.602c0,1.299,0.549,2.1,2.35,2.1
		c1.4,0,2.6-1.201,2.6-1.9c0-0.6-0.299-1.15-0.299-2.15c0-1.1,1.649-1.75,3.549-1.75c2.1,0,3.5,1.1,3.5,7.451l-3.6,1.049
		c-5.155,1.506-8.7,3.1-8.7,7.051c0,3.449,1.649,5.25,6,5.25C668.879,279.4,671.105,278.176,673.03,276.5 M673.879,250.199
		c-1,0-1.85-0.549-2.75-1.249c-1-0.8-2.15-1.6-3.701-1.6c-2.25,0-3.449,1.899-4.149,5.3l1.299,0.4c0.55-1.9,1.1-2.65,2.451-2.65
		c0.899,0,1.899,0.65,2.899,1.299c1,0.75,2.101,1.5,3.25,1.5c2.4,0,3.9-2,4.551-5.398l-1.4-0.5
		C675.629,249.75,674.979,250.199,673.879,250.199 M646.729,282.949c0.945,0,2.1,0.801,2.1,1.75c0,1.352-1,2.051-2.5,2.051
		c-1,0-1.549-0.199-2.9-0.699l-0.58,1.324c1.25,0.551,2,0.85,3.601,0.85c3.05,0,6.03-1.475,6.03-4.125c0-1.9-1.63-2.9-3.63-2.9
		c-0.449,0-1.199,0-1.6,0.102l0.735-1.941c0.384,0.025,0.785,0.041,1.194,0.041c3.551,0,6.351-1.801,7.851-4.85l-1-0.951
		c-2.15,2.4-3.701,3.25-5.55,3.25c-3.301,0-6.2-3.85-6.2-9.25c0-5.549,2.25-8.799,4.899-8.799c1.9,0,2.601,1.949,2.75,3.549
		c0.15,1.35,1.25,2.35,2.851,2.35c1.6,0,2.5-1.25,2.5-2.799c0-2.701-2.451-5.201-7.9-5.201c-5.9,0-10.8,5-10.8,12.15
		c0,5.535,2.536,9.291,7.675,10.285l-2.075,3.814l0.301,0.301C645.28,283,645.78,282.949,646.729,282.949 M626.53,274.65
		c-1.25,1-3,2-3.9,2c-2.4,0-3.15-1.5-3.15-3.25c0-2.051,0.685-3.551,4.2-4.6l2.85-0.852V274.65z M626.479,276.5h0.1
		c0.601,1.926,1.9,2.9,4.9,2.9c2.75,0,4.65-2.15,4.65-2.4c0-0.35-0.45-1-0.65-1c-0.29,0-0.34,0.801-1.55,0.801
		c-1.95,0-2-1.9-2-4.201v-7.25c0-7.199-4.101-8.65-8.2-8.65c-3.65,0-8.9,2.602-8.9,5.602c0,1.299,0.55,2.1,2.351,2.1
		c1.399,0,2.6-1.201,2.6-1.9c0-0.6-0.3-1.15-0.3-2.15c0-1.1,1.65-1.75,3.55-1.75c2.1,0,3.5,1.1,3.5,7.451l-3.6,1.049
		c-5.155,1.506-8.7,3.1-8.7,7.051c0,3.449,1.65,5.25,6,5.25C622.329,279.4,624.555,278.176,626.479,276.5 M595.23,256.6h-1.65
		c-0.1,2.15-0.3,3.9-1.1,7.201l2.149,0.299c0.851-3.699,2.051-4.799,3.551-4.799h5.8c-3.9,5.898-7.601,11.85-11.5,17.699
		c-0.4,0.65-0.55,1-0.55,1.1c0,0.5,0.6,0.801,2.75,0.801h14.9c0.2-2.051,0.549-4.25,1.299-6.951l-2.1-0.449
		c-0.85,3.25-2.3,5.301-4.5,5.301h-5.8l11.149-17.15c0.551-0.85,1-1.65,1-1.801c0-0.5-0.799-0.799-1.799-0.799
		c-0.15,0-1.345,0.148-2.55,0.148h-10.2C595.78,257.199,595.431,257.15,595.23,256.6 M580.28,250.35c0,1.65,1.35,3,3,3s3-1.35,3-3
		c0-1.649-1.35-2.999-3-2.999S580.28,248.7,580.28,250.35 M586.081,262.834c0-2.5,0.15-6.135,0.15-6.135
		c0-0.119-0.23-0.148-0.351-0.148c-1.574,0.5-5.074,1.023-8.549,1.5l0.1,1.5l2.05,0.199c0.7,0.051,1.1,0.6,1.1,3.1v12.201
		c0,1.398-0.8,1.889-2.35,2.148l-0.601,0.102c-0.194,0.033-0.35,0.148-0.35,0.449v1.15l0.1,0.1c0,0,4.051-0.1,5.851-0.1
		c1.95,0,6,0.1,6,0.1l0.1-0.1v-1.15c0-0.301-0.205-0.404-0.4-0.449l-0.5-0.102c-1.48-0.295-2.35-0.75-2.35-2.148V262.834z
		 M565.332,250.75v24.301c0,1.398-0.82,1.885-2.4,2.148l-0.6,0.102c-0.246,0.039-0.4,0.148-0.4,0.449v1.15l0.1,0.1
		c0,0,4.2-0.1,5.95-0.1c1.95,0,6.15,0.1,6.15,0.1l0.1-0.1v-1.15c0-0.301-0.205-0.416-0.4-0.449l-0.55-0.102
		c-1.63-0.295-2.45-0.75-2.45-2.148V249.75c0-3.25,0.15-5.25,0.15-5.25c0-0.35-0.35-0.5-0.8-0.5c-1.255,0.5-6.375,1.15-8.4,1.301
		l0.15,1.449c0.015,0.15,0.14,0.24,0.3,0.25l1.6,0.101C564.832,247.101,565.332,247.5,565.332,250.75 M550.381,274.65
		c-1.25,1-3,2-3.9,2c-2.4,0-3.15-1.5-3.15-3.25c0-2.051,0.685-3.551,4.2-4.6l2.85-0.852V274.65z M550.332,276.5h0.1
		c0.6,1.926,1.9,2.9,4.9,2.9c2.75,0,4.65-2.15,4.65-2.4c0-0.35-0.45-1-0.65-1c-0.29,0-0.34,0.801-1.55,0.801c-1.95,0-2-1.9-2-4.201
		v-7.25c0-7.199-4.1-8.65-8.2-8.65c-3.65,0-8.9,2.602-8.9,5.602c0,1.299,0.55,2.1,2.35,2.1c1.4,0,2.6-1.201,2.6-1.9
		c0-0.6-0.3-1.15-0.3-2.15c0-1.1,1.65-1.75,3.55-1.75c2.1,0,3.5,1.1,3.5,7.451l-3.6,1.049c-5.155,1.506-8.7,3.1-8.7,7.051
		c0,3.449,1.65,5.25,6,5.25C546.182,279.4,548.407,278.176,550.332,276.5 M531.381,273.15v-11.951c0-2.023,0.1-4.1,0.1-4.1
		s-1.95,0.1-3,0.1c-1.35,0-5.55-0.1-5.55-0.1l-0.2,0.1v1.5l0.2,0.102l1.55,0.1c0.9,0,1.4,0.799,1.4,2.4v13.75
		c-1.85,1.6-3.95,1.85-5.05,1.85c-1.05,0-2.7-0.9-2.7-5.1v-10.602c0-1.85,0.05-4.1,0.05-4.1s-2.2,0.1-2.9,0.1
		c-1.6,0-5.55-0.1-5.55-0.1l-0.25,0.1v1.5l0.15,0.102l1.55,0.1c1.17,0.074,1.45,0.9,1.45,2.4V272.5c0,3.5,1.15,6.9,6.95,6.9
		c1.85,0,4.1-0.75,6.45-2.25l-0.15,2.35h1.7c1.3-0.75,2.5-1.4,7.05-2l-0.05-1.551C531.881,275.801,531.381,274.65,531.381,273.15
		 M489.583,271.6c0.35,2.6,0.6,4.801,0.6,7.201c2.6-0.051,4.75,0.6,7.15,0.6c3.85,0,8.65-1.701,8.65-6.451
		c0-3.898-3.545-6.074-7.85-7.648c-2.05-0.75-2.75-1.9-2.75-3.65c0-2,1.45-2.85,2.8-2.85c2.25,0,3.85,1.148,4.85,4.648l1.95-0.25
		c-0.15-1.799-0.35-3.6-0.55-5.1c-1.95-0.949-3.65-1.4-6.4-1.4c-4.55,0-7.8,2.701-7.8,6.15c0,4,4.4,6.551,6.9,7.451
		c2.75,0.949,3.3,1.949,3.3,3.898c0,2.301-1.6,3.25-2.95,3.25c-3.75,0-5-1.648-5.9-5.949L489.583,271.6z M477.683,250.35
		c0,1.65,1.35,3,3,3s3-1.35,3-3c0-1.649-1.35-2.999-3-2.999S477.683,248.7,477.683,250.35 M483.482,262.834
		c0-2.5,0.15-6.135,0.15-6.135c0-0.119-0.23-0.148-0.35-0.148c-1.575,0.5-5.075,1.023-8.55,1.5l0.1,1.5l2.05,0.199
		c0.7,0.051,1.1,0.6,1.1,3.1v12.201c0,1.398-0.8,1.889-2.35,2.148l-0.6,0.102c-0.195,0.033-0.35,0.148-0.35,0.449v1.15l0.1,0.1
		c0,0,4.05-0.1,5.85-0.1c1.95,0,6,0.1,6,0.1l0.1-0.1v-1.15c0-0.301-0.205-0.404-0.4-0.449l-0.5-0.102
		c-1.48-0.295-2.35-0.75-2.35-2.148V262.834z M461.984,248.25c3.25,0,3.6,0.45,2.8,2.551l-6.5,17.449l-0.6,1.4l-0.55-1.551
		l-6.25-17.799c-0.55-1.551,0.4-2.051,3.55-2.051c0.25,0,0.4-0.149,0.4-0.399v-1.2l-0.1-0.05c0,0-5.4,0.05-7.2,0.05
		c-1.95,0-6.8-0.05-6.8-0.05l-0.1,0.05v1.2c0,0.25,0.2,0.399,0.4,0.399c2.55,0,3.15,0.65,4,2.949l9.5,27.15
		c0.25,0.75,1.1,1.15,1.65,1.15c0.5,0,1.4-0.4,1.7-1.15l10.05-26.9c1-2.648,1.35-3.199,4.15-3.199c0.25,0,0.4-0.149,0.4-0.399v-1.2
		l-0.1-0.05c0,0-2.6,0.05-4.4,0.05c-1.95,0-6.3-0.05-6.3-0.05l-0.1,0.05v1.2C461.583,248.101,461.784,248.25,461.984,248.25"/>
</g>
<polygon fill="#FF1419" points="428.194,100.033 428.404,112.424 483.429,112.424 483.429,162.828 483.429,163.248 546.434,106.123 
	546.434,105.913 483.429,49.419 483.429,49.629 483.429,100.033 "/>
<g>
	<defs>
		<rect id="SVGID_83_" x="0.023" width="1170.087" height="505.191"/>
	</defs>
	<clipPath id="SVGID_4_">
		<use xlink:href="#SVGID_83_"  overflow="visible"/>
	</clipPath>
	<polygon clip-path="url(#SVGID_4_)" fill="none" stroke="#231F20" stroke-width="1.998" points="1.022,3 1.022,502.193 
		1.022,504.195 3.023,504.195 1167.11,504.195 1169.11,504.195 1169.11,502.193 1169.11,3 1169.11,0.998 1167.11,0.998 3.023,0.998 
		1.022,0.998 	"/>
</g>
<rect x="5.024" y="5.002" fill="none" stroke="#231F20" stroke-width="1.998" width="1160.084" height="495.189"/>
<line fill="none" stroke="#231F20" stroke-width="2" x1="403.053" y1="189.168" x2="1144.108" y2="189.168"/>
<line fill="none" stroke="#231F20" stroke-width="2" x1="382.05" y1="26.155" x2="382.05" y2="480.189"/>
<line fill="none" stroke="#231F20" stroke-width="2" x1="582.066" y1="26.155" x2="582.066" y2="178.167"/>
<line fill="none" stroke="#231F20" stroke-width="2" x1="868.087" y1="210.169" x2="868.087" y2="479.053"/>
<g>
	<defs>
		<rect id="SVGID_85_" x="0.023" width="1170.087" height="505.191"/>
	</defs>
	<clipPath id="SVGID_6_">
		<use xlink:href="#SVGID_85_"  overflow="visible"/>
	</clipPath>
	<path clip-path="url(#SVGID_6_)" fill="#231F20" d="M1020.077,403.279v-45.117h49.975v-27.729h-49.975v-41.672h28.199
		c4.281,0,7.858,0.391,10.732,1.176c2.87,0.781,5.169,2.168,6.892,4.15c1.724,1.984,2.899,4.754,3.526,8.303
		c0.626,3.553,0.939,8.096,0.939,13.631h54.832v-85.381h-223.24v58.121c9.188,0,15.768,1.229,19.738,3.682
		c3.969,2.455,5.954,7.127,5.954,14.02v79.271c0,6.789-1.985,11.412-5.954,13.863c-3.97,2.455-10.549,3.682-19.738,3.682V461.4
		h223.24v-85.379h-54.832c0,5.537-0.313,10.08-0.939,13.629c-0.627,3.551-1.802,6.344-3.526,8.381
		c-1.723,2.037-4.022,3.422-6.892,4.152c-2.874,0.73-6.451,1.096-10.732,1.096H1020.077z"/>
</g>
</svg>
