<?xml version="1.0" encoding="utf-8"?>
<!-- Generator: Adobe Illustrator 16.0.0, SVG Export Plug-In . SVG Version: 6.00 Build 0)  -->
<!DOCTYPE svg PUBLIC "-//W3C//DTD SVG 1.1//EN" "http://www.w3.org/Graphics/SVG/1.1/DTD/svg11.dtd">
<svg version="1.1" id="Layer_1" xmlns="http://www.w3.org/2000/svg" xmlns:xlink="http://www.w3.org/1999/xlink" x="0px" y="0px"
	 width="1170.09px" height="492.17px" viewBox="0 0 1170.09 492.17" enable-background="new 0 0 1170.09 492.17"
	 xml:space="preserve">
<g>
	<defs>
		<rect id="SVGID_29_" y="0.002" width="1170.088" height="492.168"/>
	</defs>
	<clipPath id="SVGID_2_">
		<use xlink:href="#SVGID_29_"  overflow="visible"/>
	</clipPath>
	<path clip-path="url(#SVGID_2_)" fill="#0046FA" d="M1027.424,96.516c1.952,4.793,4.734,8.976,8.347,12.551
		c3.612,3.574,7.961,6.394,13.048,8.457c5.086,2.064,10.78,3.097,17.082,3.097c3.574,0,6.847-0.286,9.814-0.856
		c2.965-0.572,5.758-1.17,8.375-1.797c2.322-0.59,4.496-1.105,6.524-1.549c2.024-0.441,4.034-0.663,6.024-0.663
		c2.064,0,4.018,0.351,5.861,1.05c1.842,0.701,3.648,1.955,5.418,3.76h3.427V83.469h8.901v-4.367h-52.631v4.367h10.282V99.17
		c0,3.021-0.047,5.575-0.138,7.656c-0.094,2.083-0.342,3.779-0.747,5.087c-0.406,1.308-1.032,2.258-1.879,2.847
		c-0.849,0.59-2.01,0.885-3.483,0.885c-1.844,0-3.383-0.699-4.615-2.101c-1.236-1.401-2.232-3.657-2.986-6.772
		c-0.756-3.114-1.291-7.195-1.604-12.246c-0.312-5.049-0.471-11.223-0.471-18.521c0-4.827,0.213-8.956,0.637-12.384
		c0.424-3.427,0.995-6.311,1.715-8.652c0.718-2.34,1.574-4.191,2.569-5.556c0.995-1.362,2.064-2.405,3.207-3.124
		c1.142-0.718,2.329-1.179,3.566-1.382c1.233-0.202,2.478-0.304,3.731-0.304c2.615,0,5.391,0.47,8.32,1.41
		c2.93,0.939,5.749,2.562,8.457,4.864c2.709,2.304,5.198,5.39,7.465,9.261c2.268,3.869,4.062,8.734,5.391,14.596h4.312V38.854
		h-3.813l-6.801,10.172c-4.46-4.016-9.261-6.854-14.401-8.514c-5.143-1.658-10.458-2.488-15.95-2.488
		c-7.703,0-14.422,1.106-20.152,3.318c-5.73,2.211-10.504,5.252-14.318,9.121c-3.814,3.87-6.67,8.432-8.568,13.684
		c-1.9,5.252-2.848,10.918-2.848,17C1024.492,86.602,1025.469,91.725,1027.424,96.516 M908.292,118.464h28.749v-4.368
		c-1.623,0-3.152-0.045-4.589-0.138c-1.438-0.091-2.682-0.257-3.733-0.497c-1.049-0.24-1.879-0.581-2.487-1.023
		c-0.607-0.441-0.911-1.03-0.911-1.769V59.475l42.514,58.989h28.03V47.699c0-1.363,0.901-2.248,2.708-2.654
		c1.805-0.404,4.293-0.607,7.464-0.607v-4.312h-25.044v4.312c1.584,0,3.004,0.047,4.257,0.139s2.322,0.258,3.207,0.497
		c0.884,0.239,1.556,0.571,2.018,0.995c0.46,0.424,0.691,0.968,0.691,1.631v39.253l-35.549-46.827h-48.319v4.312h6.579l6.745,8.846
		v57.662c0,0.664-0.341,1.197-1.023,1.604c-0.682,0.405-1.596,0.719-2.736,0.939c-1.143,0.221-2.461,0.379-3.953,0.47
		c-1.492,0.093-3.031,0.138-4.616,0.138V118.464z M833.777,118.464h57.44v-4.368h-9.619V44.438h9.619v-4.312h-57.44v4.312h9.675
		v69.658h-9.675V118.464z M742.455,118.464h57.44v-4.368h-9.675V44.438h8.016l13.49,27.311h3.87V40.125h-88.843v31.623h3.815
		l13.544-27.311h7.961v69.658h-9.619V118.464z M651.133,118.464h57.441v-4.368h-9.62V44.438h9.62v-4.312h-57.441v4.312h9.674v69.658
		h-9.674V118.464z M577.668,44.438c1.99,0,3.722,0.23,5.197,0.69c1.473,0.462,2.699,1.291,3.676,2.488
		c0.976,1.198,1.704,2.839,2.184,4.921c0.479,2.082,0.719,4.764,0.719,8.044s-0.24,5.979-0.719,8.099
		c-0.479,2.121-1.208,3.787-2.184,5.004c-0.977,1.215-2.203,2.064-3.676,2.543c-1.476,0.479-3.207,0.719-5.197,0.719V44.438z
		 M529.846,118.464h57.441v-4.368h-9.619V81.312c1.805,0,3.363,0.259,4.672,0.773c1.307,0.518,2.367,1.465,3.178,2.848
		c0.812,1.383,1.41,3.271,1.797,5.666c0.388,2.397,0.581,5.475,0.581,9.233c0,3.429,0.35,6.45,1.051,9.067
		c0.699,2.617,1.906,4.809,3.62,6.578c1.715,1.77,4.009,3.104,6.884,4.009c2.874,0.901,6.486,1.354,10.836,1.354
		c4.533,0,8.272-0.342,11.222-1.023s5.299-1.797,7.05-3.344c1.749-1.549,2.966-3.576,3.649-6.082
		c0.681-2.506,1.021-5.584,1.021-9.232v-1.77h-4.644c0,4.461-0.276,7.869-0.829,10.228s-1.437,3.539-2.654,3.539
		c-0.736,0-1.262-0.295-1.574-0.886c-0.314-0.588-0.471-1.455-0.471-2.598v-1.963c0-0.57,0.035-1.391,0.11-2.46
		c0.037-1.032,0.063-1.926,0.083-2.681c0.018-0.756,0.028-1.668,0.028-2.737c0-3.87-0.683-7.067-2.047-9.592
		c-1.363-2.524-3.528-4.533-6.495-6.026c-2.968-1.492-6.791-2.543-11.472-3.15c-4.681-0.608-10.339-0.932-16.974-0.969
		c7.409-0.035,13.592-0.506,18.549-1.41c4.957-0.901,8.918-2.183,11.887-3.842c2.967-1.658,5.066-3.685,6.303-6.08
		c1.234-2.396,1.852-5.123,1.852-8.183c0-3.502-0.71-6.542-2.128-9.122c-1.419-2.58-3.483-4.708-6.192-6.386
		c-2.709-1.677-6.045-2.921-10.007-3.731s-8.468-1.217-13.517-1.217h-63.191v4.312h9.676v69.658h-9.676V118.464z M405.906,118.464
		h23.717l14.209-47.987l17.414,47.987h23.773l20.897-70.599c0.405-1.29,1.39-2.184,2.956-2.682c1.568-0.498,3.99-0.746,7.271-0.746
		v-4.312h-26.315v4.312c1.473,0,2.827,0.047,4.063,0.139c1.234,0.092,2.303,0.24,3.207,0.441c0.901,0.203,1.603,0.461,2.1,0.774
		c0.498,0.313,0.746,0.71,0.746,1.188c0,0.259-0.055,0.553-0.166,0.885l-12.105,41.63l-15.205-45.058h9.952v-4.312h-51.747v4.312
		h3.648l6.357,17.47l-8.292,27.864l-15.313-45.334h9.951v-4.312h-55.893v4.312h7.793L405.906,118.464z"/>
	<polygon clip-path="url(#SVGID_2_)" fill="none" stroke="#0046FA" stroke-width="1.998" points="0.999,3.002 0.999,489.17 
		0.999,491.172 3,491.172 1167.086,491.172 1169.088,491.172 1169.088,489.17 1169.088,3.002 1169.088,1 1167.086,1 3,1 0.999,1 	
		"/>
</g>
<rect x="5.001" y="5.004" fill="none" stroke="#0046FA" stroke-width="1.998" width="1160.085" height="482.164"/>
<line fill="none" stroke="#0046FA" stroke-width="2" x1="361.8" y1="159.002" x2="1144.086" y2="159.002"/>
<line fill="none" stroke="#0046FA" stroke-width="2" x1="361.8" y1="319" x2="883.044" y2="319"/>
<line fill="none" stroke="#0046FA" stroke-width="2" x1="341.799" y1="26.002" x2="341.799" y2="465.789"/>
<line fill="none" stroke="#0046FA" stroke-width="2" x1="914.043" y1="180.002" x2="914.043" y2="465.789"/>
<g>
	<defs>
		<rect id="SVGID_31_" y="0.002" width="1170.088" height="492.168"/>
	</defs>
	<clipPath id="SVGID_4_">
		<use xlink:href="#SVGID_31_"  overflow="visible"/>
	</clipPath>
	<path clip-path="url(#SVGID_4_)" fill="#231F20" d="M727.001,281.584c3.052,0,5.411-0.594,7.077-1.785
		c1.666-1.189,2.498-2.764,2.498-4.725c0-1.764-0.637-3.143-1.91-4.137c-1.275-0.994-3.438-1.799-6.49-2.414
		c-1.707-0.338-2.896-0.701-3.569-1.094c-0.672-0.391-1.008-0.881-1.008-1.469c0-0.561,0.343-1.037,1.028-1.428
		c0.687-0.393,1.604-0.588,2.752-0.588c1.372,0,2.512,0.266,3.423,0.797c0.91,0.533,1.673,1.357,2.29,2.479l3.568-3.023
		c-0.979-1.541-2.197-2.668-3.652-3.381c-1.457-0.715-3.361-1.072-5.713-1.072c-1.988,0-3.696,0.314-5.124,0.945
		c-1.429,0.631-2.506,1.463-3.234,2.5c-0.728,1.035-1.093,2.141-1.093,3.316c0,1.793,0.652,3.213,1.955,4.264
		c1.301,1.051,3.561,1.896,6.782,2.541c1.54,0.309,2.624,0.631,3.255,0.967s0.945,0.74,0.945,1.217c0,0.588-0.338,1.051-1.01,1.387
		c-0.671,0.336-1.623,0.504-2.854,0.504c-1.54,0-2.835-0.246-3.885-0.734c-1.051-0.49-1.856-1.338-2.415-2.541l-3.359,3.443
		C719.076,280.24,722.324,281.584,727.001,281.584 M714.359,276.041c-0.924,0.783-2.002,1.176-3.234,1.176
		c-1.932,0-2.898-0.967-2.898-2.898v-9.869h6.806v-4.285h-6.806v-6.426l-5.753,1.596v4.83h-3.822v4.285h3.822v10.793
		c0,4.229,2.337,6.342,7.015,6.342c1.118,0,2.189-0.154,3.213-0.461c1.021-0.309,1.868-0.729,2.541-1.26L714.359,276.041z
		 M687.521,259.744c-1.624,0-3.052,0.35-4.283,1.051c-1.232,0.699-2.198,1.736-2.898,3.107l-0.168-3.738h-5.166v21h5.754v-11.088
		c0-1.959,0.469-3.416,1.407-4.367c0.937-0.953,2.079-1.428,3.423-1.428c2.492,0,3.738,1.596,3.738,4.787v12.096h5.754v-13.775
		c0-2.465-0.693-4.354-2.079-5.67S689.789,259.744,687.521,259.744 M660.013,263.986c1.343,0,2.437,0.414,3.276,1.238
		c0.84,0.826,1.371,2.023,1.596,3.592h-9.786c0.224-1.596,0.748-2.801,1.575-3.611C657.499,264.393,658.611,263.986,660.013,263.986
		 M670.176,270.58c0-3.471-0.875-6.146-2.624-8.021c-1.751-1.877-4.249-2.814-7.497-2.814c-3.361,0-5.963,0.959-7.812,2.877
		c-1.848,1.918-2.771,4.6-2.771,8.043c0,3.445,0.951,6.125,2.855,8.043c1.903,1.918,4.593,2.877,8.064,2.877
		c2.379,0,4.36-0.441,5.943-1.322c1.581-0.883,2.709-2.164,3.381-3.844l-4.705-1.721c-0.308,0.84-0.854,1.482-1.637,1.932
		c-0.785,0.447-1.779,0.672-2.982,0.672c-2.914,0-4.662-1.484-5.25-4.453h14.867C670.12,272.121,670.176,271.365,670.176,270.58
		 M637.165,259.744c-1.513,0-2.912,0.365-4.2,1.092c-1.289,0.729-2.268,1.779-2.941,3.15c-0.559-1.371-1.447-2.422-2.666-3.15
		c-1.219-0.727-2.61-1.092-4.179-1.092c-1.512,0-2.877,0.35-4.095,1.051c-1.218,0.699-2.177,1.736-2.877,3.107l-0.168-3.738h-5.166
		v21h5.754v-11.129c0-1.904,0.455-3.34,1.365-4.305c0.909-0.967,1.994-1.449,3.255-1.449c1.147,0,2.044,0.342,2.688,1.027
		c0.645,0.688,0.966,1.758,0.966,3.215v12.641h5.754v-11.297c0-1.766,0.436-3.137,1.303-4.117s1.974-1.469,3.317-1.469
		c1.12,0,2.001,0.342,2.646,1.027c0.644,0.688,0.966,1.758,0.966,3.215v12.641h5.754v-13.775c0-2.465-0.707-4.354-2.121-5.67
		S639.32,259.744,637.165,259.744 M596.467,286.246c-2.072,0-3.625-0.217-4.662-0.65c-1.036-0.434-1.554-1.043-1.554-1.828
		c0-1.26,1.162-1.889,3.485-1.889h5.713c1.119,0,1.924,0.146,2.414,0.441c0.49,0.293,0.735,0.734,0.735,1.322
		c0,0.756-0.532,1.379-1.596,1.869C599.938,286.002,598.426,286.246,596.467,286.246 M596.047,263.357
		c1.146,0,2.078,0.32,2.793,0.965c0.714,0.645,1.07,1.484,1.07,2.52c0,1.064-0.356,1.918-1.07,2.562
		c-0.715,0.645-1.646,0.967-2.793,0.967c-1.121,0-2.037-0.322-2.751-0.967s-1.071-1.498-1.071-2.562c0-1.035,0.357-1.875,1.071-2.52
		S594.926,263.357,596.047,263.357 M600.121,277.217h-7.099c-0.756,0-1.344-0.146-1.765-0.441c-0.418-0.293-0.629-0.721-0.629-1.281
		c0-0.98,0.547-1.609,1.638-1.889c1.148,0.252,2.409,0.377,3.78,0.377c2.996,0,5.354-0.637,7.077-1.91
		c1.722-1.275,2.583-3.004,2.583-5.188c0-1.232-0.273-2.324-0.819-3.275c-0.546-0.953-1.337-1.736-2.373-2.354
		c0.28-0.615,0.763-1.105,1.45-1.469c0.685-0.365,1.545-0.547,2.582-0.547c0.392,0,0.686,0.014,0.882,0.043l-0.755-4.117
		c-1.793-0.111-3.215,0.301-4.264,1.24c-1.051,0.938-1.758,2.232-2.121,3.885c-1.316-0.365-2.73-0.547-4.242-0.547
		c-2.968,0-5.313,0.637-7.035,1.912c-1.723,1.273-2.583,3.016-2.583,5.229c0,1.26,0.28,2.373,0.84,3.338
		c0.561,0.967,1.372,1.758,2.437,2.373c-1.036,0.365-1.85,0.91-2.437,1.639c-0.588,0.729-0.882,1.596-0.882,2.604
		c0,0.98,0.28,1.828,0.84,2.541c0.561,0.715,1.316,1.268,2.269,1.66c-1.261,0.307-2.212,0.811-2.856,1.512
		c-0.645,0.699-0.965,1.525-0.965,2.479c0,1.596,0.846,2.855,2.541,3.779c1.693,0.924,4.291,1.387,7.791,1.387
		c3.387,0,6.117-0.631,8.188-1.891c2.073-1.26,3.109-3.01,3.109-5.25c0-1.877-0.623-3.318-1.869-4.326
		S602.417,277.217,600.121,277.217 M570.134,277.678c-0.757,0-1.345-0.174-1.765-0.523c-0.42-0.352-0.629-0.861-0.629-1.533
		s0.23-1.197,0.692-1.576c0.462-0.377,1.169-0.678,2.121-0.902l4.495-1.008v2.184c0,1.037-0.512,1.855-1.534,2.457
		S571.365,277.678,570.134,277.678 M582.314,277.678c-0.533,0-0.925-0.125-1.177-0.377s-0.378-0.658-0.378-1.219v-8.609
		c0-2.549-0.84-4.473-2.52-5.775c-1.682-1.303-4.019-1.953-7.016-1.953c-2.52,0-4.562,0.518-6.131,1.555
		c-1.568,1.035-2.576,2.463-3.023,4.283l4.578,1.932c0.307-1.26,0.867-2.17,1.68-2.729c0.811-0.561,1.861-0.84,3.148-0.84
		c1.12,0,1.996,0.328,2.626,0.986s0.946,1.547,0.946,2.666v1.01l-5.041,0.965c-5.459,1.008-8.189,3.221-8.189,6.637
		c0,1.736,0.572,3.066,1.722,3.99c1.147,0.924,2.743,1.385,4.788,1.385c1.764,0,3.289-0.266,4.578-0.797
		c1.287-0.533,2.239-1.316,2.855-2.354c0.531,2.102,2.143,3.15,4.83,3.15c1.035,0,1.945-0.195,2.73-0.588l0.42-3.486
		C583.377,277.623,582.902,277.678,582.314,277.678 M557.66,259.744c-3.192,0-5.363,1.512-6.51,4.537l-0.379-4.117h-4.998v21h5.754
		v-10.877c0-1.793,0.496-3.186,1.491-4.18c0.993-0.994,2.177-1.49,3.55-1.49c1.118,0,2,0.209,2.646,0.629l0.713-5.039
		C559.395,259.898,558.639,259.744,557.66,259.744 M535.693,258.064c0-2.156,1.203-3.234,3.612-3.234
		c0.952,0,1.749,0.211,2.394,0.631l0.799-3.822c-0.449-0.336-1.059-0.602-1.827-0.799c-0.771-0.195-1.617-0.293-2.541-0.293
		c-2.437,0-4.368,0.609-5.796,1.826c-1.428,1.219-2.143,2.975-2.143,5.271v2.52h-3.654v4.285h3.654v16.715h5.754v-16.715h6.385
		v-4.285h-6.637V258.064z M501.338,263.986c1.344,0,2.436,0.414,3.275,1.238c0.84,0.826,1.373,2.023,1.596,3.592h-9.785
		c0.225-1.596,0.75-2.801,1.575-3.611C498.824,264.393,499.938,263.986,501.338,263.986 M511.502,270.58
		c0-3.471-0.875-6.146-2.625-8.021c-1.75-1.877-4.25-2.814-7.497-2.814c-3.36,0-5.964,0.959-7.812,2.877
		c-1.849,1.918-2.772,4.6-2.772,8.043c0,3.445,0.952,6.125,2.856,8.043c1.902,1.918,4.592,2.877,8.064,2.877
		c2.379,0,4.359-0.441,5.941-1.322c1.582-0.883,2.709-2.164,3.382-3.844l-4.704-1.721c-0.309,0.84-0.854,1.482-1.639,1.932
		c-0.783,0.447-1.777,0.672-2.98,0.672c-2.913,0-4.663-1.484-5.25-4.453h14.867C511.445,272.121,511.502,271.365,511.502,270.58
		 M478.406,259.744c-1.541,0-2.892,0.33-4.053,0.988c-1.162,0.656-2.066,1.658-2.711,3.002v-12.768h-5.752v30.197h5.752v-11.088
		c0-1.959,0.471-3.416,1.409-4.367c0.937-0.953,2.079-1.428,3.423-1.428c2.492,0,3.738,1.596,3.738,4.787v12.096h5.754v-13.775
		c0-2.465-0.693-4.354-2.079-5.67S480.676,259.744,478.406,259.744 M461.061,276.041c-0.924,0.783-2.002,1.176-3.234,1.176
		c-1.932,0-2.897-0.967-2.897-2.898v-9.869h6.804v-4.285h-6.804v-6.426l-5.753,1.596v4.83h-3.823v4.285h3.823v10.793
		c0,4.229,2.337,6.342,7.014,6.342c1.119,0,2.19-0.154,3.213-0.461c1.021-0.309,1.869-0.729,2.541-1.26L461.061,276.041z
		 M421.708,259.744c-1.625,0-3.054,0.35-4.284,1.051c-1.232,0.699-2.199,1.736-2.898,3.107l-0.168-3.738h-5.166v21h5.754v-11.088
		c0-1.959,0.469-3.416,1.407-4.367c0.937-0.953,2.079-1.428,3.423-1.428c2.491,0,3.738,1.596,3.738,4.787v12.096h5.754v-13.775
		c0-2.465-0.693-4.354-2.078-5.67C425.803,260.402,423.975,259.744,421.708,259.744 M393.484,264.029
		c1.623,0,2.862,0.553,3.717,1.658c0.854,1.105,1.281,2.766,1.281,4.977c0,2.213-0.428,3.871-1.281,4.977
		c-0.854,1.107-2.094,1.66-3.717,1.66c-1.625,0-2.863-0.553-3.718-1.66c-0.854-1.105-1.28-2.764-1.28-4.977
		c0-2.211,0.426-3.871,1.28-4.977S391.859,264.029,393.484,264.029 M393.484,259.744c-3.389,0-6.027,0.967-7.918,2.898
		s-2.834,4.605-2.834,8.021s0.943,6.09,2.834,8.021c1.891,1.934,4.529,2.898,7.918,2.898c3.387,0,6.025-0.965,7.916-2.898
		c1.891-1.932,2.836-4.605,2.836-8.021s-0.945-6.09-2.836-8.021S396.871,259.744,393.484,259.744"/>
	<path clip-path="url(#SVGID_4_)" fill="#231F20" d="M867.575,221.176c-1.54,0-2.745-0.56-3.612-1.68
		c-0.869-1.12-1.303-2.73-1.303-4.83s0.434-3.71,1.303-4.83c0.867-1.12,2.072-1.68,3.612-1.68c1.511,0,2.7,0.553,3.569,1.658
		c0.868,1.106,1.303,2.653,1.303,4.642v0.42c0,2.017-0.435,3.569-1.303,4.662C870.275,220.63,869.086,221.176,867.575,221.176
		 M872.447,194.968v12.642c-0.617-1.203-1.484-2.148-2.605-2.834c-1.119-0.687-2.435-1.029-3.947-1.029
		c-2.801,0-4.998,0.966-6.594,2.898c-1.596,1.932-2.394,4.619-2.394,8.063c0,3.416,0.798,6.083,2.394,8.001s3.793,2.877,6.594,2.877
		c1.568,0,2.961-0.393,4.18-1.176c1.218-0.784,2.135-1.834,2.75-3.15l0.252,3.906h5.125v-30.198H872.447z M842.88,207.988
		c1.343,0,2.436,0.412,3.276,1.238c0.84,0.826,1.37,2.023,1.596,3.592h-9.785c0.221-1.596,0.748-2.801,1.574-3.612
		S841.479,207.988,842.88,207.988 M853.044,214.582c0-3.473-0.876-6.146-2.626-8.021c-1.75-1.877-4.249-2.814-7.496-2.814
		c-3.36,0-5.965,0.959-7.812,2.877s-2.771,4.6-2.771,8.043s0.951,6.125,2.855,8.043c1.902,1.918,4.592,2.877,8.064,2.877
		c2.379,0,4.359-0.441,5.943-1.322c1.582-0.883,2.709-2.164,3.381-3.844l-4.705-1.722c-0.309,0.84-0.854,1.483-1.637,1.932
		c-0.785,0.448-1.779,0.672-2.982,0.672c-2.913,0-4.662-1.483-5.25-4.452h14.868C852.986,216.122,853.044,215.366,853.044,214.582
		 M819.359,225.586c3.053,0,5.411-0.595,7.076-1.785c1.666-1.189,2.5-2.765,2.5-4.725c0-1.764-0.637-3.143-1.912-4.137
		c-1.273-0.994-3.438-1.799-6.487-2.416c-1.708-0.336-2.898-0.699-3.569-1.092c-0.674-0.392-1.01-0.882-1.01-1.47
		c0-0.56,0.343-1.036,1.029-1.428c0.688-0.392,1.604-0.589,2.752-0.589c1.371,0,2.512,0.267,3.422,0.799
		c0.91,0.531,1.674,1.357,2.289,2.479l3.57-3.024c-0.979-1.54-2.199-2.667-3.652-3.382c-1.457-0.713-3.361-1.07-5.713-1.07
		c-1.989,0-3.697,0.314-5.125,0.945c-1.428,0.629-2.506,1.463-3.233,2.498c-0.729,1.037-1.092,2.143-1.092,3.318
		c0,1.792,0.65,3.213,1.952,4.264c1.303,1.049,3.562,1.896,6.783,2.541c1.54,0.308,2.625,0.629,3.255,0.965
		c0.63,0.337,0.944,0.742,0.944,1.219c0,0.588-0.336,1.05-1.006,1.386c-0.673,0.336-1.625,0.505-2.857,0.505
		c-1.54,0-2.836-0.246-3.885-0.736c-1.049-0.489-1.854-1.336-2.416-2.541l-3.358,3.445
		C811.436,224.242,814.684,225.586,819.359,225.586 M794.117,221.68c-0.756,0-1.344-0.175-1.764-0.525
		c-0.42-0.35-0.631-0.86-0.631-1.532s0.232-1.197,0.694-1.575s1.169-0.679,2.12-0.902l4.495-1.008v2.184
		c0,1.035-0.513,1.854-1.532,2.457C796.477,221.379,795.35,221.68,794.117,221.68 M806.299,221.68c-0.533,0-0.926-0.125-1.178-0.378
		c-0.252-0.252-0.377-0.657-0.377-1.218v-8.609c0-2.549-0.84-4.474-2.521-5.775c-1.679-1.303-4.018-1.953-7.014-1.953
		c-2.52,0-4.563,0.518-6.131,1.554c-1.568,1.036-2.576,2.464-3.024,4.284l4.579,1.932c0.307-1.26,0.867-2.17,1.678-2.729
		c0.813-0.56,1.863-0.841,3.151-0.841c1.12,0,1.995,0.33,2.624,0.988c0.631,0.657,0.946,1.547,0.946,2.666v1.008l-5.04,0.967
		c-5.46,1.008-8.19,3.22-8.19,6.636c0,1.735,0.574,3.065,1.722,3.99c1.148,0.924,2.744,1.386,4.787,1.386
		c1.766,0,3.291-0.266,4.579-0.798s2.24-1.315,2.856-2.353c0.531,2.101,2.141,3.15,4.83,3.15c1.035,0,1.945-0.195,2.729-0.588
		l0.42-3.486C807.361,221.624,806.886,221.68,806.299,221.68 M771.438,221.176c-1.4,0-2.533-0.482-3.401-1.449
		c-0.868-0.965-1.358-2.345-1.472-4.137v-1.848c0.113-1.764,0.604-3.137,1.472-4.116s2.001-1.47,3.401-1.47
		c1.568,0,2.785,0.56,3.654,1.68c0.868,1.12,1.302,2.73,1.302,4.83s-0.434,3.71-1.302,4.83
		C774.223,220.616,773.006,221.176,771.438,221.176 M773.16,203.746c-1.513,0-2.828,0.343-3.948,1.029
		c-1.12,0.686-2.003,1.631-2.647,2.834v-12.642h-5.754v30.198h5.083l0.21-4.158c0.615,1.4,1.533,2.514,2.751,3.34
		c1.218,0.825,2.653,1.238,4.306,1.238c2.8,0,4.998-0.959,6.594-2.877s2.394-4.585,2.394-8.001c0-3.444-0.798-6.132-2.394-8.063
		C778.158,204.712,775.96,203.746,773.16,203.746 M733.806,225.586c3.052,0,5.411-0.595,7.077-1.785
		c1.666-1.189,2.5-2.765,2.5-4.725c0-1.764-0.638-3.143-1.912-4.137c-1.273-0.994-3.437-1.799-6.489-2.416
		c-1.708-0.336-2.897-0.699-3.569-1.092c-0.672-0.392-1.008-0.882-1.008-1.47c0-0.56,0.343-1.036,1.028-1.428
		c0.687-0.392,1.604-0.589,2.751-0.589c1.371,0,2.514,0.267,3.423,0.799c0.91,0.531,1.673,1.357,2.289,2.479l3.571-3.024
		c-0.981-1.54-2.199-2.667-3.656-3.382c-1.455-0.713-3.358-1.07-5.711-1.07c-1.988,0-3.695,0.314-5.123,0.945
		c-1.428,0.629-2.507,1.463-3.234,2.498c-0.729,1.037-1.093,2.143-1.093,3.318c0,1.792,0.651,3.213,1.953,4.264
		c1.302,1.049,3.563,1.896,6.783,2.541c1.54,0.308,2.624,0.629,3.255,0.965c0.63,0.337,0.945,0.742,0.945,1.219
		c0,0.588-0.336,1.05-1.008,1.386s-1.624,0.505-2.856,0.505c-1.54,0-2.835-0.246-3.885-0.736c-1.05-0.489-1.855-1.336-2.415-2.541
		l-3.361,3.445C725.883,224.242,729.13,225.586,733.806,225.586 M712.176,203.746c-1.623,0-3.051,0.35-4.283,1.05
		s-2.199,1.736-2.897,3.108l-0.169-3.738h-5.166v21h5.755v-11.088c0-1.96,0.468-3.416,1.407-4.368
		c0.938-0.952,2.078-1.428,3.423-1.428c2.491,0,3.737,1.596,3.737,4.788v12.096h5.754v-13.775c0-2.465-0.693-4.354-2.078-5.67
		C716.271,204.404,714.443,203.746,712.176,203.746 M683.953,208.029c1.623,0,2.862,0.554,3.717,1.66
		c0.854,1.105,1.281,2.765,1.281,4.977s-0.428,3.871-1.281,4.977c-0.854,1.106-2.094,1.659-3.717,1.659
		c-1.624,0-2.863-0.553-3.718-1.659c-0.853-1.105-1.28-2.765-1.28-4.977s0.428-3.871,1.28-4.977
		C681.09,208.583,682.329,208.029,683.953,208.029 M683.953,203.746c-3.389,0-6.027,0.966-7.917,2.898
		c-1.891,1.932-2.835,4.605-2.835,8.021s0.944,6.09,2.835,8.021c1.89,1.933,4.528,2.898,7.917,2.898s6.026-0.966,7.917-2.898
		c1.89-1.932,2.835-4.605,2.835-8.021s-0.945-6.09-2.835-8.021C689.979,204.712,687.342,203.746,683.953,203.746 M668.204,204.166
		h-5.754v21h5.754V204.166z M665.348,201.143c2.379,0,3.57-1.022,3.57-3.066c0-2.072-1.191-3.108-3.57-3.108
		c-2.381,0-3.57,1.036-3.57,3.108C661.777,200.12,662.967,201.143,665.348,201.143 M657.956,220.042
		c-0.924,0.784-2.002,1.176-3.234,1.176c-1.933,0-2.897-0.966-2.897-2.897v-9.87h6.803v-4.284h-6.803v-6.426l-5.755,1.596v4.83
		h-3.821v4.284h3.821v10.794c0,4.229,2.339,6.342,7.015,6.342c1.12,0,2.19-0.154,3.213-0.462c1.021-0.308,1.869-0.728,2.541-1.26
		L657.956,220.042z M628.178,221.68c-0.756,0-1.344-0.175-1.764-0.525c-0.42-0.35-0.63-0.86-0.63-1.532s0.23-1.197,0.692-1.575
		s1.169-0.679,2.121-0.902l4.494-1.008v2.184c0,1.035-0.511,1.854-1.533,2.457C630.537,221.379,629.41,221.68,628.178,221.68
		 M640.357,221.68c-0.531,0-0.924-0.125-1.176-0.378c-0.252-0.252-0.378-0.657-0.378-1.218v-8.609c0-2.549-0.839-4.474-2.52-5.775
		c-1.681-1.303-4.019-1.953-7.015-1.953c-2.52,0-4.564,0.518-6.132,1.554c-1.568,1.036-2.577,2.464-3.024,4.284l4.578,1.932
		c0.309-1.26,0.867-2.17,1.681-2.729c0.812-0.56,1.861-0.841,3.149-0.841c1.12,0,1.995,0.33,2.625,0.988
		c0.629,0.657,0.945,1.547,0.945,2.666v1.008l-5.04,0.967c-5.46,1.008-8.19,3.22-8.19,6.636c0,1.735,0.574,3.065,1.723,3.99
		c1.147,0.924,2.744,1.386,4.788,1.386c1.764,0,3.29-0.266,4.578-0.798s2.239-1.315,2.855-2.353c0.532,2.101,2.142,3.15,4.83,3.15
		c1.036,0,1.946-0.195,2.73-0.588l0.42-3.486C641.422,221.624,640.945,221.68,640.357,221.68 M615.074,204.166h-5.755v21h5.755
		V204.166z M612.218,201.143c2.38,0,3.57-1.022,3.57-3.066c0-2.072-1.19-3.108-3.57-3.108s-3.57,1.036-3.57,3.108
		C608.647,200.12,609.838,201.143,612.218,201.143 M603.481,203.746c-3.192,0-5.361,1.512-6.511,4.536l-0.377-4.116h-4.998v21h5.754
		v-10.878c0-1.792,0.497-3.185,1.492-4.179c0.993-0.994,2.176-1.491,3.548-1.491c1.12,0,2.001,0.21,2.646,0.63l0.714-5.04
		C605.218,203.9,604.462,203.746,603.481,203.746 M574.503,221.68c-0.757,0-1.345-0.175-1.765-0.525
		c-0.42-0.35-0.629-0.86-0.629-1.532s0.23-1.197,0.692-1.575s1.169-0.679,2.122-0.902l4.493-1.008v2.184
		c0,1.035-0.511,1.854-1.533,2.457C576.861,221.379,575.734,221.68,574.503,221.68 M586.683,221.68
		c-0.532,0-0.925-0.125-1.175-0.378c-0.252-0.252-0.379-0.657-0.379-1.218v-8.609c0-2.549-0.84-4.474-2.52-5.775
		c-1.681-1.303-4.018-1.953-7.016-1.953c-2.52,0-4.562,0.518-6.131,1.554c-1.57,1.036-2.577,2.464-3.023,4.284l4.577,1.932
		c0.308-1.26,0.867-2.17,1.681-2.729c0.811-0.56,1.861-0.841,3.149-0.841c1.12,0,1.995,0.33,2.624,0.988
		c0.631,0.657,0.946,1.547,0.946,2.666v1.008l-5.04,0.967c-5.46,1.008-8.19,3.22-8.19,6.636c0,1.735,0.573,3.065,1.722,3.99
		c1.148,0.924,2.744,1.386,4.789,1.386c1.764,0,3.289-0.266,4.578-0.798c1.285-0.532,2.239-1.315,2.855-2.353
		c0.531,2.101,2.143,3.15,4.83,3.15c1.035,0,1.946-0.195,2.729-0.588l0.419-3.486C587.747,221.624,587.271,221.68,586.683,221.68
		 M558.795,204.166l-5.292,16.968l-5.166-16.968h-6.175l7.98,21h6.637l7.979-21H558.795z M518.727,230.248
		c-2.072,0-3.627-0.217-4.662-0.65c-1.037-0.435-1.555-1.043-1.555-1.828c0-1.26,1.162-1.89,3.486-1.89h5.713
		c1.119,0,1.924,0.147,2.414,0.44c0.49,0.295,0.736,0.736,0.736,1.324c0,0.756-0.533,1.379-1.597,1.869
		C522.197,230.003,520.686,230.248,518.727,230.248 M518.307,207.357c1.146,0,2.079,0.322,2.793,0.967
		c0.715,0.644,1.07,1.484,1.07,2.52c0,1.064-0.355,1.918-1.07,2.562c-0.714,0.644-1.646,0.966-2.793,0.966
		c-1.121,0-2.038-0.322-2.752-0.966c-0.713-0.645-1.07-1.498-1.07-2.562c0-1.035,0.357-1.876,1.07-2.52
		C516.269,207.68,517.186,207.357,518.307,207.357 M522.381,221.218h-7.098c-0.756,0-1.344-0.147-1.765-0.44
		c-0.42-0.295-0.63-0.721-0.63-1.281c0-0.98,0.546-1.609,1.639-1.891c1.146,0.252,2.406,0.379,3.779,0.379
		c2.995,0,5.355-0.637,7.076-1.911c1.723-1.274,2.584-3.003,2.584-5.187c0-1.232-0.273-2.324-0.818-3.277
		c-0.547-0.951-1.34-1.735-2.375-2.352c0.28-0.615,0.764-1.105,1.449-1.47s1.547-0.546,2.584-0.546c0.391,0,0.686,0.014,0.883,0.042
		l-0.757-4.116c-1.794-0.111-3.214,0.301-4.263,1.239c-1.051,0.938-1.758,2.233-2.121,3.885c-1.316-0.364-2.73-0.546-4.242-0.546
		c-2.969,0-5.314,0.637-7.035,1.911c-1.722,1.274-2.582,3.017-2.582,5.229c0,1.26,0.278,2.372,0.84,3.338
		c0.559,0.967,1.371,1.758,2.436,2.373c-1.037,0.364-1.848,0.91-2.436,1.639c-0.588,0.728-0.883,1.596-0.883,2.604
		c0,0.98,0.279,1.827,0.84,2.541c0.56,0.715,1.315,1.268,2.27,1.659c-1.262,0.308-2.215,0.812-2.857,1.512
		c-0.645,0.7-0.966,1.526-0.966,2.478c0,1.597,0.847,2.856,2.541,3.78c1.693,0.925,4.29,1.387,7.79,1.387
		c3.389,0,6.119-0.63,8.191-1.891c2.07-1.26,3.107-3.01,3.107-5.249c0-1.877-0.623-3.318-1.869-4.326
		S524.676,221.218,522.381,221.218 M496.131,203.746c-1.623,0-3.053,0.35-4.284,1.05s-2.198,1.736-2.897,3.108l-0.168-3.738h-5.166
		v21h5.754v-11.088c0-1.96,0.469-3.416,1.406-4.368c0.939-0.952,2.08-1.428,3.424-1.428c2.492,0,3.738,1.596,3.738,4.788v12.096
		h5.754v-13.775c0-2.465-0.693-4.354-2.08-5.67C500.225,204.404,498.398,203.746,496.131,203.746 M477.525,204.166h-5.754v21h5.754
		V204.166z M474.669,201.143c2.38,0,3.569-1.022,3.569-3.066c0-2.072-1.189-3.108-3.569-3.108s-3.57,1.036-3.57,3.108
		C471.099,200.12,472.289,201.143,474.669,201.143 M467.277,220.042c-0.924,0.784-2.002,1.176-3.234,1.176
		c-1.932,0-2.896-0.966-2.896-2.897v-9.87h6.803v-4.284h-6.803v-6.426l-5.756,1.596v4.83h-3.82v4.284h3.82v10.794
		c0,4.229,2.338,6.342,7.016,6.342c1.119,0,2.189-0.154,3.213-0.462c1.021-0.308,1.869-0.728,2.541-1.26L467.277,220.042z
		 M447.664,204.166h-5.754v21h5.754V204.166z M444.807,201.143c2.381,0,3.57-1.022,3.57-3.066c0-2.072-1.189-3.108-3.57-3.108
		c-2.379,0-3.568,1.036-3.568,3.108C441.238,200.12,442.428,201.143,444.807,201.143 M436.072,203.746
		c-3.192,0-5.363,1.512-6.51,4.536l-0.379-4.116h-4.998v21h5.754v-10.878c0-1.792,0.498-3.185,1.491-4.179
		c0.995-0.994,2.177-1.491,3.55-1.491c1.119,0,2,0.21,2.645,0.63l0.715-5.04C437.807,203.9,437.052,203.746,436.072,203.746
		 M400.162,210.046l1.303-6.552h0.084l1.301,6.552l3.865,15.12h6.508l8.064-27.721h-5.963l-5.377,23.143l-5.627-23.143h-5.545
		l-5.543,23.143l-5.377-23.143h-6.258l8.064,27.721h6.678L400.162,210.046z"/>
	<path clip-path="url(#SVGID_4_)" fill="#231F20" d="M1084.863,416.57h38.244V457h-38.244V416.57z M1001.819,413.656
		c0,3.279,2.913,12.02,12.021,12.02c8.377,0,12.019-8.74,12.019-12.02v-80.131c0-3.279-3.642-12.02-12.019-12.02
		c-8.379,0-11.656,6.92-12.021,10.928V413.656z M1065.195,402c0,6.193-0.729,20.762-7.648,33.51
		c-6.92,13.113-20.033,24.404-43.707,24.404c-24.404,0-36.789-11.291-43.709-24.404c-6.92-12.748-7.649-27.316-7.649-33.51V249.752
		c0-9.104,0.365-25.494,7.285-38.972c6.921-13.112,19.304-24.403,44.073-24.403c24.767,0,37.15,11.291,44.071,24.403
		c6.921,13.478,7.284,29.867,7.284,38.972v16.754h-39.337c0-17.848-0.363-29.501-1.821-36.422c-1.456-6.92-4.371-9.47-10.197-9.47
		c-4.736,0-8.014,2.187-9.471,6.921c-1.82,4.735-2.55,12.02-2.55,22.217v47.713c6.921-4.006,12.748-6.555,19.669-6.555
		c20.396,0,31.322,10.562,37.15,22.582s6.557,26.588,6.557,33.873V402z"/>
	<path clip-path="url(#SVGID_4_)" fill="#0046FA" d="M385.288,395.76v15.646l406.093-3.391
		c-13.822,17.213-26.338,39.639-26.338,62.326l0.26,0.521c21.646-29.729,53.981-53.98,88.664-66.758v-0.783
		c-35.204-12.777-65.976-36.508-88.664-66.498l-0.26,0.262c0.521,21.383,10.953,47.982,26.338,62.064L385.288,395.76z"/>
</g>
<polygon fill="#231F20" points="136.847,456.973 88.934,456.973 32.463,37.728 89.504,37.728 114.031,255.619 115.172,269.309 
	119.734,269.309 121.445,255.619 147.686,37.728 192.176,37.728 218.415,255.619 220.125,269.309 224.689,269.309 225.83,255.619 
	250.357,37.728 307.398,37.728 250.928,456.973 203.014,456.973 174.494,258.473 171.07,233.945 168.789,233.945 165.367,258.473 
	"/>
</svg>
