<?xml version="1.0" encoding="utf-8"?>
<!-- Generator: Adobe Illustrator 16.0.0, SVG Export Plug-In . SVG Version: 6.00 Build 0)  -->
<!DOCTYPE svg PUBLIC "-//W3C//DTD SVG 1.1//EN" "http://www.w3.org/Graphics/SVG/1.1/DTD/svg11.dtd">
<svg version="1.1" id="Layer_1" xmlns="http://www.w3.org/2000/svg" xmlns:xlink="http://www.w3.org/1999/xlink" x="0px" y="0px"
	 width="1170.09px" height="492.17px" viewBox="0 0 1170.09 492.17" enable-background="new 0 0 1170.09 492.17"
	 xml:space="preserve">
<g>
	<defs>
		<rect id="SVGID_17_" y="0" width="1170.088" height="492.17"/>
	</defs>
	<clipPath id="SVGID_2_">
		<use xlink:href="#SVGID_17_"  overflow="visible"/>
	</clipPath>
	<path clip-path="url(#SVGID_2_)" fill="#FF1419" d="M673.769,44.11h30.924v181.824h40.947v28.635h-71.871V44.11z M599.036,112.544
		l-0.86-5.44h-1.718l-0.858,5.44l-8.875,66.431h21.188L599.036,112.544z M546.637,254.569L578.42,44.11h37.797l31.782,210.459
		h-30.064l-5.728-42.951h-29.779l-5.727,42.951H546.637z M521.152,44.11v167.222c-0.286,8.59-2.004,16.321-5.154,22.907
		c-2.576,5.727-6.586,11.166-12.312,15.463c-5.728,4.58-13.458,7.158-23.767,7.158s-18.326-2.578-24.053-7.158
		c-5.727-4.297-9.449-9.736-12.025-15.463c-3.15-6.586-4.868-14.317-5.154-22.907V44.11h30.924v167.222
		c0,6.013,1.432,10.021,4.295,13.171c1.432,1.432,3.436,2.291,6.014,2.291c5.439,0,8.018-3.436,9.162-7.73
		c0.859-2.006,1.146-4.582,1.146-7.731V44.11H521.152z M326.157,75.893V44.11h89.339v31.783h-29.207v178.676h-30.925V75.893H326.157
		z M253.143,137.169c4.296,0,10.023-0.573,14.605-4.581c4.58-4.009,8.303-11.74,8.303-26.63s-3.723-22.907-8.303-26.916
		c-4.582-4.008-10.31-4.295-14.605-4.295V137.169z M277.482,254.569l-16.035-88.766h-8.305v88.766h-30.924V44.11h30.924
		c36.939,0,52.688,20.902,52.688,60.703c0,20.902-5.441,39.801-17.181,47.818l19.757,101.938H277.482z M156.938,44.11h30.925
		v210.459h-30.925V44.11z M101.391,44.11h30.066l-32.07,210.459H68.461L36.393,44.11h30.064L81.92,159.791l1.145,8.876h1.718
		l1.146-8.876L101.391,44.11z"/>
	<path clip-path="url(#SVGID_2_)" fill="#231F20" d="M957.675,254.569h63.702l70.237-189.625c1.286-3.363,3.983-5.74,8.093-7.127
		c4.107-1.385,10.518-2.078,19.229-2.078V44.157h-69.196v11.582c3.958,0,7.596,0.125,10.914,0.371
		c3.314,0.248,6.185,0.645,8.611,1.188c2.426,0.545,4.308,1.238,5.644,2.078c1.336,0.843,2.005,1.908,2.005,3.193
		c0,0.693-0.148,1.485-0.446,2.375l-44.993,120.576L981.285,55.739h26.135V44.157H848.831v11.582h21.827L957.675,254.569z"/>
	<path clip-path="url(#SVGID_2_)" fill="#231F20" d="M174.781,440.573c0.918,2.182,2.365,4.072,4.334,5.676
		c1.972,1.604,4.48,2.877,7.529,3.822c3.047,0.945,6.726,1.418,11.034,1.418c4.257,0,7.923-0.473,10.996-1.418
		c3.074-0.945,5.583-2.219,7.528-3.822c1.943-1.604,3.375-3.494,4.295-5.676c0.919-2.18,1.38-4.533,1.38-7.055
		c0-2.469-0.461-4.795-1.38-6.975c-0.92-2.182-2.352-4.072-4.295-5.678c-1.945-1.602-4.454-2.877-7.528-3.822
		c-3.073-0.945-6.739-1.418-10.996-1.418c-4.309,0-7.987,0.473-11.034,1.418c-3.049,0.945-5.558,2.221-7.529,3.822
		c-1.969,1.605-3.416,3.496-4.334,5.678c-0.92,2.18-1.381,4.506-1.381,6.975C173.4,436.04,173.861,438.393,174.781,440.573
		 M46.732,438.247c2.785,2.104,5.912,3.994,9.379,5.676c3.469,1.684,7.199,3.113,11.193,4.297c3.993,1.182,8.198,2.088,12.612,2.719
		s8.958,0.945,13.636,0.945c7.83,0,15.016-0.895,21.559-2.68s12.179-4.375,16.908-7.764c4.729-3.389,8.42-7.514,11.074-12.375
		c2.653-4.861,3.98-10.365,3.98-16.514c0-4.889-0.895-9.459-2.68-13.715c-1.787-4.258-4.521-7.947-8.197-11.074
		c-3.68-3.127-8.344-5.598-13.991-7.41c-5.65-1.814-12.31-2.719-19.981-2.719c-2.261,0-4.611,0.078-7.056,0.234
		c-2.442,0.158-4.888,0.408-7.331,0.75s-4.848,0.762-7.212,1.262c-2.365,0.5-4.599,1.062-6.7,1.693l1.812-19.311h64.006V332.94
		H58.556l-4.888,63.295c1.734-0.631,3.561-1.182,5.479-1.656c1.918-0.473,3.889-0.893,5.912-1.26
		c2.022-0.367,4.032-0.643,6.029-0.828c1.997-0.184,3.915-0.275,5.754-0.275c4.678,0,8.697,0.59,12.061,1.773
		c3.363,1.182,6.135,2.719,8.315,4.611c2.181,1.891,3.784,4.059,4.81,6.502c1.023,2.443,1.537,4.926,1.537,7.449
		c0,2.68-0.553,5.203-1.656,7.566c-1.104,2.365-2.719,4.428-4.848,6.188c-2.127,1.762-4.717,3.154-7.764,4.178
		c-3.049,1.025-6.518,1.537-10.404,1.537c-1.684,0-3.482-0.105-5.4-0.314c-1.918-0.211-3.862-0.525-5.832-0.945
		c-1.971-0.42-3.93-0.947-5.873-1.578c-1.945-0.629-3.783-1.391-5.518-2.285L46.732,438.247z"/>
	<path clip-path="url(#SVGID_2_)" fill="#231F20" d="M729.471,421.532c0.145,1.98,0.612,3.674,1.262,5.148
		c0.432-0.072,1.008-0.143,1.223-0.143c0.289,0,0.793,0.027,1.081,0.107c0.666,0.18,2.538,0.432,4.572,0.432
		c4.823,0,8.604-1.457,8.604-5.58c0-2.736-1.365-4.137-7.021-5.041c-3.942-0.629-6.408-1.295-6.408-3.312
		c0-1.547,1.8-2.736,5.112-2.736c2.825,0,4.176,1.838,5.688,4.43c0.575,0.035,1.044-0.182,1.296-0.434
		c-0.216-1.691-0.432-3.059-0.721-4.213c-1.242-0.414-3.708-1.115-6.264-1.115c-3.925,0-7.813,1.764-7.813,4.645
		c0,3.186,1.729,4.521,6.517,5.328c5.131,0.865,6.66,1.621,6.66,3.348c0,1.98-2.124,3.35-5.724,3.35
		c-2.052,0-3.708-0.396-4.356-0.936c-1.044-0.902-1.908-2.701-2.16-3.709C730.516,421.028,729.796,421.208,729.471,421.532
		 M723.1,422.792c-1.693,1.549-3.564,2.484-6.265,2.484c-2.312,0-4.501-0.791-5.978-2.881c-0.899-1.367-1.332-2.482-1.332-4.859
		h13.502c0.504,0,0.863-0.611,0.863-1.045c0-3.383-2.016-7.416-8.136-7.416c-4.969,0-9.685,3.422-9.685,9.506
		c0,2.23,0.756,4.428,2.231,5.939c1.513,1.621,4.284,2.557,7.453,2.557c3.384,0,6.372-1.404,8.171-3.492
		C723.819,423.188,723.639,422.829,723.1,422.792 M709.706,416.059c0.828-4.32,3.672-5.545,5.976-5.545
		c1.729,0,4.609,1.01,4.609,4.465c0,0.361-0.217,0.93-0.72,0.938L709.706,416.059z M693.901,421.891v-8.568
		c0-2.439,0.504-3.043,0.504-3.889c0-0.232-0.259-0.467-0.504-0.467c-0.403,0-1.404,0.227-2.369,0.398
		c-1.643,0.297-4.695,0.58-6.272,0.682c-0.107,0.305-0.072,0.898,0.072,1.188c3.438,0.072,4.724,0.141,5.041,0.541
		c0.342,0.432,0.396,0.9,0.396,1.836v8.279c0,1.693-0.144,2.377-0.647,2.773c-0.396,0.289-4.573,0.721-6.337,0.793
		c-0.216,0.215-0.216,1.115,0,1.332c1.512-0.037,6.984-0.072,8.604-0.072c1.513,0,6.588,0.035,8.137,0.072
		c0.216-0.217,0.216-1.117,0-1.332c-1.944-0.072-5.58-0.504-5.977-0.793C694.008,424.305,693.901,423.62,693.901,421.891
		 M690.085,403.315c0,1.08,0.972,2.16,1.944,2.16c1.115,0,2.088-1.117,2.088-1.98c0-1.008-0.864-2.16-1.945-2.16
		C691.201,401.334,690.085,402.307,690.085,403.315 M662.578,421.963v-7.379c0-0.756,0.381-1.514,0.613-1.873
		c1.044-1.631,1.908-1.656,2.483-1.656c1.368,0,1.8,0.865,1.8,3.277v7.631c0,3.205-0.018,4.322-0.071,4.826
		c0.385-0.037,1.26-0.072,1.62-0.072c0.406,0,1.019,0.035,1.476,0.072c-0.029-0.613-0.073-1.77-0.073-4.826v-9.035
		c1.261-1.711,2.111-1.873,2.881-1.873c1.368,0,2.016,0.793,2.016,3.205v6.984c0,3.889,0.062,4.992,0.289,5.545
		c0.396-0.037,1.019-0.072,1.297-0.072c1.476,0,1.584,0.035,3.131,0.072c0.181-0.217,0.181-1.117,0-1.332
		c-1.753-0.119-1.764-0.242-1.764-4.213v-6.445c0-3.197-0.504-5.725-3.673-5.725c-1.233,0-2.477,0.221-4.067,2.232
		c-0.205,0.26-0.338,0.342-0.433-0.014c-0.378-1.445-1.403-2.219-3.276-2.219c-1.367,0-2.635,0.656-3.923,2.557
		c-0.228,0.338-0.325,0.35-0.325,0c0-1.441-0.119-2.006-0.287-2.377c-0.076-0.164-0.145-0.287-0.432-0.287
		c-1.01,0.395-1.981,0.719-4.467,1.043c-0.07,0.217,0,0.793,0.073,1.008c1.944,0.182,2.16,0.361,2.16,2.449v8.496
		c0,3.205-0.018,4.322-0.072,4.826c0.386-0.037,1.261-0.072,1.62-0.072c0.407,0,1.02,0.035,1.477,0.072
		C662.622,426.176,662.578,425.02,662.578,421.963 M644.973,410.551c4.105,0,6.589,2.953,6.589,8.855
		c0,5.15-3.023,6.193-5.293,6.193c-4.932,0-6.516-4.896-6.516-8.064C639.753,413.971,640.793,410.551,644.973,410.551
		 M636.297,418.436c0,4.104,3.024,8.641,9.324,8.641c2.844,0,5.005-0.9,6.517-2.232c2.017-1.764,2.88-4.32,2.88-6.768
		c0-4.178-2.556-9.002-9.324-9.002c-2.916,0-5.292,1.08-6.912,2.809C637.197,413.612,636.297,415.917,636.297,418.436
		 M618.727,412.711c-0.107,0.145-0.323,0.504-0.323,0c0-2.199-0.119-3.086-0.288-3.457c-0.076-0.164-0.145-0.287-0.432-0.287
		c-1.009,0.395-2.342,0.719-4.824,1.043c-0.072,0.217,0,0.793,0.071,1.008c1.944,0.182,2.341,0.361,2.341,2.449v8.713
		c0,2.953-0.36,3.057-2.881,3.277c-0.216,0.215-0.216,1.115,0,1.332c1.477-0.037,2.881-0.072,4.429-0.072
		c1.403,0,2.231,0.035,3.743,0.072c0.217-0.217,0.217-1.117,0-1.332c-1.836-0.182-2.159-0.324-2.159-3.277v-6.877
		c0-0.756,0.323-1.188,0.611-1.512c1.368-1.332,3.386-2.846,5.581-2.846c0.721,0,1.407,0.51,1.908,1.299
		c0.432,0.684,0.539,1.691,0.539,2.771v7.164c0,2.953-0.359,3.096-2.231,3.277c-0.18,0.215-0.18,1.115,0,1.332
		c1.513-0.037,2.341-0.072,3.78-0.072c1.477,0,2.809,0.035,4.356,0.072c0.18-0.217,0.18-1.117,0-1.332
		c-2.376-0.148-2.772-0.324-2.772-3.277v-7.057c0-1.98-0.144-3.779-1.08-4.824c-0.67-0.746-1.728-1.225-2.987-1.225
		C623.227,409.075,620.923,410.262,618.727,412.711 M598.89,410.551c4.104,0,6.587,2.953,6.587,8.855
		c0,5.15-3.022,6.193-5.291,6.193c-4.932,0-6.517-4.896-6.517-8.064C593.669,413.971,594.709,410.551,598.89,410.551
		 M590.213,418.436c0,4.104,3.024,8.641,9.325,8.641c2.844,0,5.004-0.9,6.516-2.232c2.017-1.764,2.881-4.32,2.881-6.768
		c0-4.178-2.557-9.002-9.325-9.002c-2.916,0-5.292,1.08-6.912,2.809C591.113,413.612,590.213,415.917,590.213,418.436
		 M573.111,411.991c-0.684-0.898-0.18-1.08,1.512-1.297c0.217-0.215,0.217-1.115,0-1.332c-1.055,0.037-3.131,0.072-4.283,0.072
		s-2.654-0.035-3.709-0.072c-0.216,0.217-0.216,1.117,0,1.332c1.332,0.109,2.412,0.578,3.492,2.055l4.177,5.508
		c0.108,0.143,0.216,0.324,0.036,0.539l-4.068,4.789c-1.473,1.73-2.447,1.801-3.816,1.873c-0.217,0.215-0.145,1.115,0.072,1.332
		c0.854-0.037,1.729-0.072,3.133-0.072c1.476,0,2.761,0.035,3.635,0.072c0.217-0.217,0.182-1.117-0.035-1.332
		c-1.044-0.145-1.973-0.285-1.188-1.297l3.24-4.178c0.287-0.359,0.396-0.467,0.684-0.07l3.06,3.779
		c1.228,1.52,0.423,1.656-0.936,1.766c-0.216,0.215-0.144,1.115,0.071,1.332c1.261-0.037,2.988-0.072,4.394-0.072
		c1.476,0,2.591,0.035,3.636,0.072c0.217-0.217,0.145-1.117-0.072-1.332c-1.248-0.062-2.336-0.234-3.815-2.125l-4.286-5.473
		c-0.172-0.221-0.152-0.354,0-0.541l4.033-4.787c1.275-1.514,2.377-1.729,3.781-1.838c0.216-0.215,0.216-1.115,0-1.332
		c-0.973,0.037-2.232,0.072-3.205,0.072c-0.791,0-2.422-0.035-3.637-0.072c-0.216,0.217-0.216,1.117,0,1.332
		c1.297,0.145,2.164,0.285,1.332,1.334L577,416.239c-0.145,0.182-0.426,0.318-0.721-0.07L573.111,411.991z M556.623,424.737
		c0.18,1.225,0.611,2.34,3.096,2.34c2.736,0,4.248-1.57,4.248-1.98c0-0.287-0.396-0.684-0.611-0.684
		c-0.289,0-0.433,0.648-1.404,0.648c-1.801,0-2.275-1.621-2.196-3.422l0.252-5.795c0.353-5.672-3.239-6.77-6.625-6.77
		c-3.78,0-7.704,2.27-7.704,4.43c0,0.971,0.684,1.402,1.62,1.402c1.116,0,1.979-0.646,1.979-1.15c0-0.289-0.071-0.613-0.144-0.756
		c-0.036-0.109-0.071-0.361-0.071-0.793c0-1.262,2.195-1.693,3.959-1.693c1.945,0,3.926,1.01,3.926,5.402
		c0,0.287-0.252,0.467-0.36,0.504l-4.681,0.791c-5.123,0.869-7.633,2.988-7.633,5.652c0,3.061,2.484,4.213,5.797,4.213
		c2.195,0,3.312-0.324,5.437-1.656l1.009-0.684H556.623z M556.875,417.715l-0.252,4.824c-0.029,0.545-0.36,0.863-0.721,1.115
		c-1.224,0.793-3.42,1.803-4.752,1.803c-2.412,0-3.312-1.551-3.312-2.773c0-2.016,1.663-3.557,4.716-4.141L556.875,417.715z
		 M522.132,410.875c-0.504,0-0.647,0.432-0.647,0.721v0.648c0,0.18,0.035,0.215,0.18,0.215h4.031v9.252
		c0,4.033,2.377,5.365,5.546,5.365c2.106,0,4.536-1.115,7.452-2.736c-0.072-0.371-0.289-0.973-0.648-1.008
		c-1.962,0.828-3.979,1.621-5.544,1.621c-1.836,0-3.672-0.723-3.672-4.971v-7.523h7.343c0.361,0,0.865-0.145,0.865-0.469v-0.898
		c0-0.146-0.108-0.217-0.288-0.217h-7.92v-3.205c0-2.34,0.144-3.779,0.144-3.779c0-0.23-0.107-0.318-0.277-0.318
		c-0.262,0-1.029,0.4-1.594,0.639c-0.613,0.256-1.514,0.328-1.514,0.688c0,0.418,0.107,1.98,0.107,5.973L522.132,410.875z
		 M483.682,412.1c0-1.963-0.109-2.486-0.289-2.846c-0.072-0.18-0.144-0.287-0.432-0.287c-1.584,0.27-4.393,0.719-6.876,1.043
		c-0.071,0.217,0,0.793,0.072,1.008c0.846,0,3.456,0.289,3.815,0.506c0.469,0.287,0.576,0.756,0.576,1.943v8.713
		c0,1.727-0.148,2.404-0.684,2.773c-0.342,0.232-3.277,0.432-4.752,0.504c-0.217,0.215-0.217,1.115,0,1.332
		c1.512-0.037,6.012-0.072,7.451-0.072c1.477,0,5.869,0.035,7.418,0.072c0.215-0.217,0.215-1.117,0-1.332
		c-1.26-0.037-5.078-0.289-5.51-0.504c-0.647-0.361-0.791-1.01-0.791-2.773v-4.969c0-0.936,0.332-1.709,0.863-2.305
		c2.018-2.25,3.781-3.725,5.186-3.725c0.504,0,1.332,0.449,1.584,0.738c0.395,0.432,0.936,0.971,1.655,0.971
		c0.937,0,1.692-1.008,1.692-1.98c0-0.721-0.432-1.836-2.053-1.836c-4.355,0-6.155,1.639-8.568,4.178
		C483.732,413.579,483.682,413.288,483.682,412.1 M463.484,421.891v-8.568c0-2.439,0.504-3.043,0.504-3.889
		c0-0.232-0.26-0.467-0.504-0.467c-0.403,0-1.404,0.227-2.369,0.398c-1.643,0.297-4.695,0.58-6.273,0.682
		c-0.107,0.305-0.07,0.898,0.073,1.188c3.438,0.072,4.724,0.141,5.04,0.541c0.343,0.432,0.396,0.9,0.396,1.836v8.279
		c0,1.693-0.145,2.377-0.647,2.773c-0.396,0.289-4.573,0.721-6.337,0.793c-0.217,0.215-0.217,1.115,0,1.332
		c1.512-0.037,6.984-0.072,8.605-0.072c1.512,0,6.588,0.035,8.135,0.072c0.217-0.217,0.217-1.117,0-1.332
		c-1.943-0.072-5.58-0.504-5.976-0.793C463.592,424.305,463.484,423.62,463.484,421.891 M459.668,403.315
		c0,1.08,0.973,2.16,1.943,2.16c1.117,0,2.089-1.117,2.089-1.98c0-1.008-0.864-2.16-1.944-2.16
		C460.784,401.334,459.668,402.307,459.668,403.315 M446.6,422.792c-1.693,1.549-3.565,2.484-6.266,2.484
		c-2.311,0-4.5-0.791-5.977-2.881c-0.899-1.367-1.332-2.482-1.332-4.859h13.502c0.504,0,0.863-0.611,0.863-1.045
		c0-3.383-2.017-7.416-8.137-7.416c-4.968,0-9.686,3.422-9.686,9.506c0,2.23,0.757,4.428,2.232,5.939
		c1.514,1.621,4.285,2.557,7.453,2.557c3.385,0,6.373-1.404,8.172-3.492C447.318,423.188,447.139,422.829,446.6,422.792
		 M433.206,416.059c0.828-4.32,3.672-5.545,5.976-5.545c1.729,0,4.608,1.01,4.608,4.465c0,0.361-0.216,0.93-0.72,0.938
		L433.206,416.059z M410.955,415.307c0-0.76,0.324-1.203,0.613-1.516c1.367-1.344,3.672-2.699,5.867-2.699
		c0.735,0,1.49,0.471,1.909,1.295c0.36,0.713,0.433,1.693,0.433,2.773v7.162c0,2.918-0.36,2.953-2.234,3.135
		c-0.18,0.215-0.18,1.115,0,1.332c1.271-0.037,2.594-0.072,3.818-0.072c1.152,0,2.771,0.035,4.32,0.072
		c0.18-0.217,0.18-1.117,0-1.332c-2.125-0.182-2.772-0.252-2.772-3.135v-7.199c0-1.98-0.134-3.727-0.972-4.824
		c-0.605-0.793-1.873-1.225-3.133-1.225c-2.593,0-5.328,1.045-7.525,3.492c-0.121,0.137-0.354,0.252-0.354-0.252l0.029-6.588
		c0.012-2.34,0.145-3.781,0.145-3.781c0-0.252-0.145-0.359-0.468-0.359c-0.899,0.359-4.392,0.865-5.833,0.973
		c-0.072,0.287,0,0.863,0.217,1.08c2.557,0.072,2.809,0.252,2.809,2.951v15.732c0,2.99-0.469,3.062-2.873,3.135
		c-0.217,0.215-0.217,1.115,0,1.332c1.406-0.037,2.908-0.072,4.457-0.072c1.404,0,2.617,0.035,3.701,0.072
		c0.216-0.217,0.216-1.117,0-1.332c-1.83-0.145-2.154-0.182-2.154-3.135V415.307z M383.882,410.875
		c-0.504,0-0.647,0.432-0.647,0.721v0.648c0,0.18,0.035,0.215,0.18,0.215h4.031v9.252c0,4.033,2.377,5.365,5.545,5.365
		c2.107,0,4.537-1.115,7.453-2.736c-0.072-0.371-0.289-0.973-0.648-1.008c-1.962,0.828-3.979,1.621-5.544,1.621
		c-1.836,0-3.673-0.723-3.673-4.971v-7.523h7.345c0.36,0,0.864-0.145,0.864-0.469v-0.898c0-0.146-0.107-0.217-0.288-0.217h-7.921
		v-3.205c0-2.34,0.145-3.779,0.145-3.779c0-0.23-0.109-0.318-0.277-0.318c-0.264,0-1.029,0.4-1.596,0.639
		c-0.611,0.256-1.512,0.328-1.512,0.688c0,0.418,0.107,1.98,0.107,5.973L383.882,410.875z M350.074,424.702
		c0.181-0.145,0.469-0.254,0.469,0.035c0,0.973,0.396,2.34,0.396,2.34c0.289,0.107,0.396,0.072,0.684,0
		c0.793-0.648,2.305-1.229,5.005-1.439c0.216-0.217,0.216-0.756,0-0.973c-2.7-0.328-2.987-0.865-2.987-2.629v-16.309
		c0-2.34,0.144-3.781,0.144-3.781c0-0.252-0.144-0.359-0.468-0.359c-0.9,0.359-4.609,0.865-6.049,0.973
		c-0.072,0.287,0,0.863,0.215,1.08c2.592,0.104,3.024,0.283,3.024,2.951v2.809c0,0.287-0.071,0.359-0.36,0.359
		c-0.144,0-2.699-0.648-4.104-0.648c-2.809,0-4.645,0.865-6.372,2.377c-1.836,1.729-2.917,4.105-2.917,7.094
		c0,4.932,2.988,8.531,7.561,8.531C345.971,427.112,348.095,426.321,350.074,424.702 M350.507,421.749
		c0,0.756-0.071,1.043-0.647,1.547c-1.477,1.297-3.35,1.945-4.428,1.945c-2.305,0-5.437-2.377-5.437-7.381
		c0-2.881,0.575-4.5,1.224-5.328c1.332-1.873,3.564-1.98,4.393-1.98c1.512,0,3.42,0.467,4.211,1.404
		c0.576,0.648,0.685,0.9,0.685,2.16V421.749z M319.186,412.711c-0.109,0.145-0.324,0.504-0.324,0c0-2.199-0.119-3.086-0.289-3.457
		c-0.074-0.164-0.144-0.287-0.432-0.287c-1.008,0.395-2.34,0.719-4.824,1.043c-0.071,0.217,0,0.793,0.072,1.008
		c1.944,0.182,2.34,0.361,2.34,2.449v8.713c0,2.953-0.359,3.057-2.879,3.277c-0.217,0.215-0.217,1.115,0,1.332
		c1.476-0.037,2.879-0.072,4.428-0.072c1.404,0,2.23,0.035,3.744,0.072c0.215-0.217,0.215-1.117,0-1.332
		c-1.836-0.182-2.16-0.324-2.16-3.277v-6.877c0-0.756,0.324-1.188,0.611-1.512c1.367-1.332,3.385-2.846,5.582-2.846
		c0.719,0,1.406,0.51,1.907,1.299c0.433,0.684,0.54,1.691,0.54,2.771v7.164c0,2.953-0.359,3.096-2.232,3.277
		c-0.18,0.215-0.18,1.115,0,1.332c1.513-0.037,2.34-0.072,3.78-0.072c1.476,0,2.808,0.035,4.356,0.072
		c0.18-0.217,0.18-1.117,0-1.332c-2.377-0.148-2.772-0.324-2.772-3.277v-7.057c0-1.98-0.144-3.779-1.079-4.824
		c-0.671-0.746-1.729-1.225-2.988-1.225C323.686,409.075,321.381,410.262,319.186,412.711 M303.164,424.737
		c0.18,1.225,0.611,2.34,3.096,2.34c2.736,0,4.248-1.57,4.248-1.98c0-0.287-0.395-0.684-0.611-0.684
		c-0.289,0-0.433,0.648-1.404,0.648c-1.801,0-2.275-1.621-2.196-3.422l0.252-5.795c0.353-5.672-3.239-6.77-6.624-6.77
		c-3.781,0-7.705,2.27-7.705,4.43c0,0.971,0.684,1.402,1.62,1.402c1.116,0,1.979-0.646,1.979-1.15c0-0.289-0.071-0.613-0.144-0.756
		c-0.036-0.109-0.071-0.361-0.071-0.793c0-1.262,2.196-1.693,3.961-1.693c1.943,0,3.924,1.01,3.924,5.402
		c0,0.287-0.252,0.467-0.36,0.504l-4.681,0.791c-5.123,0.869-7.633,2.988-7.633,5.652c0,3.061,2.484,4.213,5.797,4.213
		c2.197,0,3.312-0.324,5.437-1.656l1.009-0.684H303.164z M303.416,417.715l-0.252,4.824c-0.029,0.545-0.36,0.863-0.721,1.115
		c-1.224,0.793-3.42,1.803-4.752,1.803c-2.412,0-3.312-1.551-3.312-2.773c0-2.016,1.664-3.557,4.717-4.141L303.416,417.715z"/>
	<path clip-path="url(#SVGID_2_)" fill="#231F20" d="M844.68,365.528c0.145,1.98,0.611,3.672,1.26,5.148
		c0.432-0.072,1.009-0.145,1.225-0.145c0.288,0,0.791,0.029,1.08,0.109c0.666,0.18,2.539,0.432,4.572,0.432
		c4.824,0,8.604-1.459,8.604-5.58c0-2.738-1.364-4.137-7.021-5.041c-3.941-0.631-6.408-1.297-6.408-3.312
		c0-1.549,1.799-2.736,5.112-2.736c2.826,0,4.177,1.836,5.688,4.428c0.576,0.037,1.044-0.18,1.295-0.432
		c-0.215-1.691-0.431-3.061-0.719-4.211c-1.242-0.414-3.709-1.117-6.265-1.117c-3.925,0-7.813,1.764-7.813,4.645
		c0,3.186,1.729,4.521,6.518,5.328c5.13,0.863,6.66,1.621,6.66,3.35c0,1.979-2.124,3.348-5.724,3.348
		c-2.052,0-3.709-0.396-4.357-0.938c-1.044-0.898-1.908-2.699-2.161-3.707C845.725,365.024,845.004,365.204,844.68,365.528
		 M826.103,356.708c-0.107,0.145-0.323,0.504-0.323,0c0-2.201-0.119-3.086-0.289-3.457c-0.075-0.166-0.144-0.287-0.432-0.287
		c-1.008,0.396-2.34,0.721-4.824,1.043c-0.072,0.217,0,0.793,0.071,1.01c1.945,0.18,2.341,0.359,2.341,2.447v8.713
		c0,2.951-0.359,3.057-2.881,3.275c-0.216,0.217-0.216,1.117,0,1.332c1.477-0.035,2.881-0.072,4.43-0.072
		c1.404,0,2.23,0.037,3.743,0.072c0.216-0.215,0.216-1.115,0-1.332c-1.836-0.18-2.159-0.324-2.159-3.275v-6.877
		c0-0.756,0.323-1.188,0.611-1.512c1.368-1.332,3.383-2.844,5.58-2.844c0.719,0,1.408,0.506,1.908,1.295
		c0.432,0.684,0.54,1.693,0.54,2.771v7.166c0,2.951-0.36,3.096-2.232,3.275c-0.18,0.217-0.18,1.117,0,1.332
		c1.513-0.035,2.341-0.072,3.781-0.072c1.476,0,2.808,0.037,4.356,0.072c0.18-0.215,0.18-1.115,0-1.332
		c-2.376-0.148-2.772-0.324-2.772-3.275v-7.057c0-1.98-0.144-3.781-1.08-4.824c-0.67-0.746-1.729-1.225-2.989-1.225
		C830.603,353.071,828.299,354.258,826.103,356.708 M806.265,354.547c4.105,0,6.589,2.951,6.589,8.855
		c0,5.148-3.023,6.193-5.293,6.193c-4.932,0-6.516-4.896-6.516-8.064C801.045,357.967,802.085,354.547,806.265,354.547
		 M797.588,362.432c0,4.104,3.025,8.641,9.325,8.641c2.845,0,5.005-0.9,6.517-2.232c2.017-1.764,2.879-4.32,2.879-6.77
		c0-4.176-2.555-9-9.324-9c-2.916,0-5.291,1.08-6.911,2.809C798.489,357.608,797.588,359.911,797.588,362.432 M786.068,365.889
		v-8.57c0-2.441,0.504-3.041,0.504-3.887c0-0.234-0.26-0.469-0.504-0.469c-0.403,0-1.404,0.227-2.369,0.398
		c-1.643,0.295-4.695,0.58-6.273,0.682c-0.107,0.307-0.071,0.9,0.073,1.188c3.438,0.072,4.724,0.141,5.04,0.541
		c0.343,0.432,0.396,0.898,0.396,1.836v8.281c0,1.691-0.145,2.375-0.648,2.771c-0.396,0.287-4.572,0.719-6.336,0.791
		c-0.217,0.217-0.217,1.117,0,1.332c1.512-0.035,6.984-0.072,8.604-0.072c1.513,0,6.587,0.037,8.136,0.072
		c0.217-0.215,0.217-1.115,0-1.332c-1.943-0.072-5.579-0.504-5.976-0.791C786.176,368.299,786.068,367.616,786.068,365.889
		 M782.251,347.311c0,1.08,0.974,2.158,1.945,2.158c1.115,0,2.088-1.115,2.088-1.979c0-1.008-0.864-2.16-1.944-2.16
		C783.368,345.331,782.251,346.301,782.251,347.311 M752.549,354.872c-0.504,0-0.648,0.432-0.648,0.719v0.648
		c0,0.18,0.036,0.217,0.181,0.217h4.033v9.252c0,4.033,2.376,5.365,5.544,5.365c2.105,0,4.535-1.117,7.453-2.736
		c-0.072-0.371-0.289-0.973-0.648-1.008c-1.963,0.828-3.979,1.619-5.545,1.619c-1.836,0-3.672-0.719-3.672-4.969v-7.523h7.344
		c0.36,0,0.864-0.145,0.864-0.469v-0.9c0-0.143-0.108-0.215-0.288-0.215h-7.92v-3.205c0-2.34,0.144-3.781,0.144-3.781
		c0-0.229-0.107-0.316-0.276-0.316c-0.264,0-1.03,0.4-1.596,0.639c-0.611,0.254-1.512,0.326-1.512,0.688
		c0,0.418,0.108,1.979,0.108,5.973L752.549,354.872z M739.984,365.889v-8.57c0-2.441,0.504-3.041,0.504-3.887
		c0-0.234-0.26-0.469-0.504-0.469c-0.403,0-1.404,0.227-2.369,0.398c-1.641,0.295-4.694,0.58-6.271,0.682
		c-0.107,0.307-0.072,0.9,0.072,1.188c3.438,0.072,4.723,0.141,5.039,0.541c0.343,0.432,0.396,0.898,0.396,1.836v8.281
		c0,1.691-0.145,2.375-0.647,2.771c-0.396,0.287-4.572,0.719-6.336,0.791c-0.216,0.217-0.216,1.117,0,1.332
		c1.512-0.035,6.983-0.072,8.604-0.072c1.513,0,6.589,0.037,8.138,0.072c0.216-0.215,0.216-1.115,0-1.332
		c-1.944-0.072-5.581-0.504-5.978-0.791C740.092,368.299,739.984,367.616,739.984,365.889 M736.168,347.311
		c0,1.08,0.972,2.158,1.944,2.158c1.114,0,2.088-1.115,2.088-1.979c0-1.008-0.864-2.16-1.944-2.16
		C737.284,345.331,736.168,346.301,736.168,347.311 M718.742,368.696c0.181-0.145,0.469-0.252,0.469,0.037
		c0,0.971,0.395,2.34,0.395,2.34c0.289,0.107,0.397,0.072,0.686,0c0.792-0.648,2.304-1.229,5.004-1.441
		c0.215-0.215,0.215-0.756,0-0.971c-2.7-0.328-2.988-0.865-2.988-2.629v-16.309c0-2.342,0.145-3.781,0.145-3.781
		c0-0.252-0.145-0.359-0.469-0.359c-0.899,0.359-4.607,0.863-6.048,0.971c-0.071,0.289,0,0.865,0.216,1.08
		c2.592,0.105,3.024,0.285,3.024,2.953v2.809c0,0.289-0.072,0.359-0.36,0.359c-0.144,0-2.699-0.646-4.104-0.646
		c-2.809,0-4.646,0.863-6.373,2.375c-1.836,1.729-2.916,4.104-2.916,7.092c0,4.934,2.988,8.533,7.56,8.533
		C714.639,371.108,716.763,370.317,718.742,368.696 M719.175,365.745c0,0.756-0.072,1.043-0.647,1.547
		c-1.477,1.297-3.349,1.945-4.428,1.945c-2.307,0-5.438-2.377-5.438-7.381c0-2.881,0.576-4.5,1.224-5.328
		c1.332-1.873,3.564-1.98,4.393-1.98c1.513,0,3.421,0.469,4.212,1.404c0.576,0.648,0.685,0.9,0.685,2.16V365.745z M700.057,366.788
		c-1.691,1.549-3.564,2.484-6.264,2.484c-2.312,0-4.5-0.791-5.977-2.879c-0.9-1.369-1.332-2.486-1.332-4.861h13.5
		c0.506,0,0.865-0.613,0.865-1.045c0-3.383-2.017-7.416-8.137-7.416c-4.968,0-9.685,3.42-9.685,9.504
		c0,2.234,0.756,4.43,2.231,5.941c1.512,1.619,4.285,2.557,7.453,2.557c3.384,0,6.372-1.404,8.173-3.492
		C700.777,367.184,700.597,366.825,700.057,366.788 M686.664,360.055c0.828-4.32,3.673-5.545,5.977-5.545
		c1.729,0,4.608,1.01,4.608,4.465c0,0.359-0.216,0.93-0.72,0.936L686.664,360.055z M644.451,366.069c0,1.703-0.126,2.375-0.63,2.771
		c-0.397,0.287-5.483,0.564-6.427,0.611c-0.216,0.217-0.216,1.117,0,1.332c1.512-0.035,5.271-0.072,8.641-0.072
		c3.244,0,6.769,0.037,8.316,0.072c0.217-0.215,0.217-1.115,0-1.332c-0.899-0.043-5.67-0.359-6.065-0.611
		c-0.577-0.359-0.702-1.008-0.702-2.771v-16.346c0-2.342,0.143-3.781,0.143-3.781c0-0.252-0.143-0.359-0.467-0.359
		c-1.332,0.359-5.617,0.863-7.057,0.971c-0.072,0.289-0.072,0.973,0.144,1.189c1.458,0,2.801,0.025,3.618,0.701
		c0.375,0.311,0.486,1.396,0.486,2.898V366.069z M625.748,368.733c0.18,1.223,0.611,2.34,3.096,2.34c2.736,0,4.248-1.57,4.248-1.98
		c0-0.289-0.396-0.684-0.612-0.684c-0.288,0-0.432,0.648-1.403,0.648c-1.801,0-2.275-1.621-2.196-3.422l0.252-5.797
		c0.353-5.67-3.239-6.768-6.624-6.768c-3.781,0-7.705,2.268-7.705,4.428c0,0.973,0.685,1.404,1.62,1.404
		c1.116,0,1.98-0.648,1.98-1.152c0-0.287-0.072-0.611-0.145-0.756c-0.036-0.107-0.072-0.359-0.072-0.791
		c0-1.26,2.197-1.693,3.961-1.693c1.944,0,3.925,1.01,3.925,5.4c0,0.289-0.252,0.469-0.36,0.504l-4.68,0.793
		c-5.124,0.867-7.634,2.988-7.634,5.652c0,3.061,2.484,4.213,5.797,4.213c2.197,0,3.312-0.324,5.437-1.656l1.008-0.684H625.748z
		 M626,361.711l-0.252,4.824c-0.029,0.543-0.36,0.865-0.72,1.117c-1.225,0.791-3.421,1.799-4.753,1.799
		c-2.412,0-3.312-1.547-3.312-2.771c0-2.016,1.664-3.557,4.717-4.141L626,361.711z M596.928,371.073
		c1.404,0,4.086-0.689,6.516-2.521c0.185-0.141,0.432-0.215,0.432,0.037c0,1.588,0.396,2.484,0.396,2.484
		c0.287,0.107,0.396,0.072,0.684,0c0.793-0.648,2.558-1.189,4.754-1.441c0.215-0.215,0.215-0.756,0-0.971
		c-2.304-0.18-2.736-0.865-2.736-2.629v-8.605c0-1.078,0.145-3.852,0.145-3.852c0-0.107-0.109-0.215-0.288-0.215
		c-0.181,0.035-1.009,0.072-1.549,0.072c-1.152,0-2.521-0.037-3.853-0.072c-0.216,0.215-0.216,1.115,0,1.332
		c0.789,0.047,1.498,0.158,1.844,0.48c0.425,0.4,0.568,1.121,0.568,2.436v8.137c0,0.684-0.039,1.01-0.576,1.404
		c-2.105,1.547-4.284,2.23-5.184,2.23c-1.08,0-2.88-0.504-2.88-3.707v-8.246c0-1.078,0.144-3.852,0.144-3.852
		c0-0.107-0.107-0.215-0.288-0.215c-0.181,0.035-0.792,0.072-1.331,0.072c-1.153,0-2.918-0.037-4.25-0.072
		c-0.216,0.215-0.216,1.115,0,1.332c0.793,0.064,1.689,0.182,2.033,0.518c0.412,0.396,0.559,1.094,0.559,2.361v8.605
		C592.066,368.661,593.364,371.073,596.928,371.073 M568.216,354.872c-0.504,0-0.647,0.432-0.647,0.719v0.648
		c0,0.18,0.035,0.217,0.18,0.217h4.031v9.252c0,4.033,2.377,5.365,5.545,5.365c2.106,0,4.537-1.117,7.453-2.736
		c-0.072-0.371-0.289-0.973-0.648-1.008c-1.962,0.828-3.979,1.619-5.545,1.619c-1.836,0-3.672-0.719-3.672-4.969v-7.523h7.344
		c0.361,0,0.865-0.145,0.865-0.469v-0.9c0-0.143-0.108-0.215-0.288-0.215h-7.921v-3.205c0-2.34,0.144-3.781,0.144-3.781
		c0-0.229-0.108-0.316-0.276-0.316c-0.264,0-1.03,0.4-1.596,0.639c-0.611,0.254-1.512,0.326-1.512,0.688
		c0,0.418,0.107,1.979,0.107,5.973L568.216,354.872z M552.807,356.094c0-1.961-0.107-2.482-0.287-2.844
		c-0.072-0.18-0.145-0.287-0.433-0.287c-1.585,0.27-4.394,0.721-6.878,1.043c-0.071,0.217,0,0.793,0.072,1.01
		c0.847,0,3.457,0.287,3.816,0.504c0.469,0.287,0.576,0.756,0.576,1.943v8.713c0,1.729-0.146,2.404-0.684,2.771
		c-0.342,0.234-3.276,0.432-4.752,0.504c-0.217,0.217-0.217,1.117,0,1.332c1.512-0.035,6.012-0.072,7.451-0.072
		c1.478,0,5.869,0.037,7.418,0.072c0.215-0.215,0.215-1.115,0-1.332c-1.261-0.035-5.076-0.287-5.508-0.504
		c-0.648-0.359-0.793-1.008-0.793-2.771v-4.969c0-0.936,0.331-1.711,0.864-2.305c2.017-2.25,3.78-3.727,5.185-3.727
		c0.504,0,1.332,0.451,1.584,0.738c0.396,0.434,0.936,0.973,1.655,0.973c0.937,0,1.692-1.008,1.692-1.98
		c0-0.719-0.432-1.836-2.053-1.836c-4.355,0-6.155,1.639-8.567,4.176C552.857,357.575,552.807,357.284,552.807,356.094
		 M532.609,365.889v-8.57c0-2.441,0.504-3.041,0.504-3.887c0-0.234-0.26-0.469-0.504-0.469c-0.403,0-1.404,0.227-2.369,0.398
		c-1.643,0.295-4.695,0.58-6.272,0.682c-0.108,0.307-0.071,0.9,0.071,1.188c3.439,0.072,4.725,0.141,5.042,0.541
		c0.342,0.432,0.396,0.898,0.396,1.836v8.281c0,1.691-0.144,2.375-0.647,2.771c-0.396,0.287-4.573,0.719-6.337,0.791
		c-0.217,0.217-0.217,1.117,0,1.332c1.512-0.035,6.984-0.072,8.604-0.072c1.513,0,6.589,0.037,8.138,0.072
		c0.215-0.215,0.215-1.115,0-1.332c-1.945-0.072-5.582-0.504-5.979-0.791C532.717,368.299,532.609,367.616,532.609,365.889
		 M528.793,347.311c0,1.08,0.972,2.158,1.943,2.158c1.117,0,2.088-1.115,2.088-1.979c0-1.008-0.863-2.16-1.943-2.16
		C529.908,345.331,528.793,346.301,528.793,347.311 M511.152,354.692c2.123,0.143,2.771,0.432,1.943,2.268l-4.105,8.893
		c-0.648,1.404-0.863,1.404-1.476-0.107l-3.673-8.785c-0.736-1.764-0.827-2.125,1.045-2.268c0.252-0.217,0.252-1.117,0-1.332
		c-1.476,0.035-2.57,0.072-4.212,0.072c-1.368,0-2.231-0.037-3.709-0.072c-0.252,0.215-0.252,1.115,0,1.332
		c2.269,0.252,2.665,0.646,3.457,2.482l5.832,13.215c0.252,0.539,0.612,0.756,1.116,0.756c0.396,0,0.72-0.217,1.008-0.828
		l6.229-13.105c0.76-1.602,1.116-2.305,3.24-2.52c0.252-0.217,0.252-1.117,0-1.332c-0.863,0.035-1.871,0.072-2.916,0.072
		c-1.477,0-2.304-0.037-3.779-0.072C510.898,353.575,510.898,354.475,511.152,354.692 M469.279,355.124
		c0.757,0,1.477-0.721,1.477-1.512c0-0.828-0.756-1.477-1.836-1.477c-1.045,0-2.988,0.684-4.032,2.053
		c-0.468-0.324-1.8-1.117-4.536-1.117c-3.926,0-7.201,2.377-7.201,6.084c0,2.16,1.152,3.42,2.269,4.5
		c-1.116,0.973-1.584,2.666-1.584,4.033c0,1.439,0.792,2.592,1.836,3.096c-2.161,1.297-3.563,2.809-3.563,4.357
		c0,3.133,3.6,4.104,6.84,4.104c5.725,0,11.809-2.34,11.809-6.229c0-1.152-0.684-2.016-1.908-2.988
		c-1.619-1.295-4.607-1.332-6.156-1.332c-0.756,0-1.799,0.107-2.808,0.217c-0.647,0.035-1.08,0.072-1.296,0.072
		c-1.225,0-2.629-0.541-2.629-2.27c0-0.791,0.072-1.654,0.54-2.34c0.973,0.576,2.269,0.828,3.817,0.828
		c3.888,0,7.164-2.197,7.164-6.121c0-1.871-0.576-2.988-1.729-4.176c0.287-0.396,1.08-0.971,1.584-0.971
		c0.287,0,0.576,0.107,0.828,0.467C468.309,354.727,468.848,355.124,469.279,355.124 M456.391,371.073
		c0.432,0.107,1.152,0.215,1.693,0.215c1.332,0,2.447-0.143,3.061-0.143c2.123,0,4.031-0.109,5.256,0.539
		c1.619,0.9,2.051,1.332,2.051,2.268c0,2.592-4.5,3.961-8.279,3.961c-2.268,0-5.293-1.045-5.293-3.492
		C454.879,373.196,455.238,372.477,456.391,371.073 M464.275,359.479c0,3.744-1.943,4.393-3.744,4.393
		c-3.385,0-4.105-2.771-4.105-5.328c0-2.809,1.046-4.141,3.566-4.141C462.908,354.403,464.275,356.131,464.275,359.479
		 M434.395,356.708c-0.108,0.145-0.324,0.504-0.324,0c0-2.201-0.119-3.086-0.289-3.457c-0.075-0.166-0.144-0.287-0.432-0.287
		c-1.008,0.396-2.34,0.721-4.824,1.043c-0.072,0.217,0,0.793,0.071,1.01c1.945,0.18,2.341,0.359,2.341,2.447v8.713
		c0,2.951-0.359,3.057-2.881,3.275c-0.217,0.217-0.217,1.117,0,1.332c1.477-0.035,2.881-0.072,4.43-0.072
		c1.403,0,2.231,0.037,3.744,0.072c0.215-0.215,0.215-1.115,0-1.332c-1.836-0.18-2.16-0.324-2.16-3.275v-6.877
		c0-0.756,0.324-1.188,0.611-1.512c1.368-1.332,3.385-2.844,5.58-2.844c0.721,0,1.408,0.506,1.908,1.295
		c0.432,0.684,0.539,1.693,0.539,2.771v7.166c0,2.951-0.359,3.096-2.23,3.275c-0.181,0.217-0.181,1.117,0,1.332
		c1.512-0.035,2.34-0.072,3.78-0.072c1.476,0,2.808,0.037,4.356,0.072c0.18-0.215,0.18-1.115,0-1.332
		c-2.377-0.148-2.773-0.324-2.773-3.275v-7.057c0-1.98-0.143-3.781-1.079-4.824c-0.671-0.746-1.729-1.225-2.989-1.225
		C438.895,353.071,436.59,354.258,434.395,356.708 M417.4,365.889v-8.57c0-2.441,0.504-3.041,0.504-3.887
		c0-0.234-0.26-0.469-0.504-0.469c-0.403,0-1.404,0.227-2.369,0.398c-1.642,0.295-4.694,0.58-6.271,0.682
		c-0.107,0.307-0.072,0.9,0.072,1.188c3.438,0.072,4.723,0.141,5.039,0.541c0.343,0.432,0.396,0.898,0.396,1.836v8.281
		c0,1.691-0.145,2.375-0.647,2.771c-0.396,0.287-4.572,0.719-6.337,0.791c-0.215,0.217-0.215,1.117,0,1.332
		c1.513-0.035,6.984-0.072,8.604-0.072c1.513,0,6.589,0.037,8.138,0.072c0.215-0.215,0.215-1.115,0-1.332
		c-1.944-0.072-5.58-0.504-5.977-0.791C417.508,368.299,417.4,367.616,417.4,365.889 M413.584,347.311
		c0,1.08,0.972,2.158,1.943,2.158c1.117,0,2.09-1.115,2.09-1.979c0-1.008-0.864-2.16-1.945-2.16
		C414.699,345.331,413.584,346.301,413.584,347.311 M383.882,354.872c-0.504,0-0.647,0.432-0.647,0.719v0.648
		c0,0.18,0.035,0.217,0.18,0.217h4.031v9.252c0,4.033,2.377,5.365,5.545,5.365c2.106,0,4.537-1.117,7.453-2.736
		c-0.072-0.371-0.289-0.973-0.648-1.008c-1.962,0.828-3.979,1.619-5.544,1.619c-1.836,0-3.672-0.719-3.672-4.969v-7.523h7.344
		c0.36,0,0.864-0.145,0.864-0.469v-0.9c0-0.143-0.108-0.215-0.288-0.215h-7.92v-3.205c0-2.34,0.144-3.781,0.144-3.781
		c0-0.229-0.107-0.316-0.277-0.316c-0.262,0-1.029,0.4-1.596,0.639c-0.611,0.254-1.512,0.326-1.512,0.688
		c0,0.418,0.107,1.979,0.107,5.973L383.882,354.872z M372.289,368.733c0.18,1.223,0.611,2.34,3.096,2.34
		c2.737,0,4.249-1.57,4.249-1.98c0-0.289-0.396-0.684-0.612-0.684c-0.287,0-0.432,0.648-1.404,0.648
		c-1.799,0-2.275-1.621-2.196-3.422l0.251-5.797c0.354-5.67-3.238-6.768-6.623-6.768c-3.779,0-7.705,2.268-7.705,4.428
		c0,0.973,0.684,1.404,1.621,1.404c1.116,0,1.98-0.648,1.98-1.152c0-0.287-0.072-0.611-0.145-0.756
		c-0.036-0.107-0.072-0.359-0.072-0.791c0-1.26,2.195-1.693,3.961-1.693c1.943,0,3.924,1.01,3.924,5.4
		c0,0.289-0.252,0.469-0.36,0.504l-4.681,0.793c-5.123,0.867-7.633,2.988-7.633,5.652c0,3.061,2.484,4.213,5.797,4.213
		c2.197,0,3.312-0.324,5.436-1.656l1.009-0.684H372.289z M372.541,361.711l-0.252,4.824c-0.029,0.543-0.36,0.865-0.721,1.117
		c-1.224,0.791-3.42,1.799-4.752,1.799c-2.412,0-3.312-1.547-3.312-2.771c0-2.016,1.663-3.557,4.716-4.141L372.541,361.711z
		 M354.432,366.788c-1.691,1.549-3.564,2.484-6.265,2.484c-2.312,0-4.5-0.791-5.976-2.879c-0.9-1.369-1.332-2.486-1.332-4.861h13.5
		c0.504,0,0.864-0.613,0.864-1.045c0-3.383-2.017-7.416-8.137-7.416c-4.968,0-9.685,3.42-9.685,9.504
		c0,2.234,0.756,4.43,2.232,5.941c1.512,1.619,4.284,2.557,7.452,2.557c3.385,0,6.372-1.404,8.173-3.492
		C355.152,367.184,354.972,366.825,354.432,366.788 M341.039,360.055c0.828-4.32,3.672-5.545,5.976-5.545
		c1.728,0,4.608,1.01,4.608,4.465c0,0.359-0.215,0.93-0.719,0.936L341.039,360.055z M322.39,356.094
		c0-1.961-0.108-2.482-0.288-2.844c-0.072-0.18-0.144-0.287-0.432-0.287c-1.585,0.27-4.393,0.721-6.877,1.043
		c-0.072,0.217,0,0.793,0.072,1.01c0.846,0,3.455,0.287,3.815,0.504c0.468,0.287,0.575,0.756,0.575,1.943v8.713
		c0,1.729-0.146,2.404-0.684,2.771c-0.342,0.234-3.275,0.432-4.752,0.504c-0.215,0.217-0.215,1.117,0,1.332
		c1.513-0.035,6.013-0.072,7.453-0.072c1.477,0,5.869,0.037,7.416,0.072c0.217-0.215,0.217-1.115,0-1.332
		c-1.26-0.035-5.076-0.287-5.508-0.504c-0.648-0.359-0.792-1.008-0.792-2.771v-4.969c0-0.936,0.331-1.711,0.864-2.305
		c2.016-2.25,3.779-3.727,5.184-3.727c0.504,0,1.332,0.451,1.584,0.738c0.396,0.434,0.937,0.973,1.656,0.973
		c0.936,0,1.692-1.008,1.692-1.98c0-0.719-0.433-1.836-2.052-1.836c-4.356,0-6.156,1.639-8.568,4.176
		C322.439,357.575,322.39,357.284,322.39,356.094 M301.256,371.073c3.132,0,6.768-1.512,8.965-4.572
		c-0.145-0.324-0.611-0.684-0.972-0.684c-2.306,2.664-5.005,3.779-8.029,3.779c-4.896,0-7.957-4.969-7.957-9.973
		c0-6.336,3.853-10.045,7.921-10.045c4.465,0,6.625,2.701,7.453,5.652c0.396,0.145,0.792,0.037,1.152-0.18
		c-0.145-1.764-0.432-3.42-0.721-5.293c-1.656-0.18-3.529-1.549-7.525-1.549c-6.73,0-11.771,5.582-11.771,12.062
		C289.771,366.104,294.055,371.073,301.256,371.073"/>
	<polygon clip-path="url(#SVGID_2_)" fill="none" stroke="#231F20" stroke-width="1.998" points="0.999,3 0.999,489.17 
		0.999,491.172 3,491.172 1167.087,491.172 1169.088,491.172 1169.088,489.17 1169.088,3 1169.088,0.999 1167.087,0.999 3,0.999 
		0.999,0.999 	"/>
</g>
<rect x="5.001" y="5.002" fill="none" stroke="#231F20" stroke-width="1.998" width="1160.085" height="482.166"/>
<line fill="none" stroke="#231F20" stroke-width="2" x1="25.49" y1="293.022" x2="1144.085" y2="293.022"/>
<line fill="none" stroke="#231F20" stroke-width="2" x1="806.059" y1="27.001" x2="806.059" y2="274.022"/>
<line fill="none" stroke="#231F20" stroke-width="2" x1="918.812" y1="314.024" x2="918.812" y2="466.036"/>
<line fill="none" stroke="#231F20" stroke-width="2" x1="250.857" y1="314.024" x2="250.857" y2="466.036"/>
<g>
	<defs>
		<rect id="SVGID_19_" y="0" width="1170.088" height="492.17"/>
	</defs>
	<clipPath id="SVGID_4_">
		<use xlink:href="#SVGID_19_"  overflow="visible"/>
	</clipPath>
	<path clip-path="url(#SVGID_4_)" fill="#FF1419" d="M1051.398,314.584l-14.492,11.961c17.328,26.223,34.194,45.238,50.605,57.045
		c-13.803-1.227-27.068-1.84-39.793-1.84h-81.656v18.4h81.656c12.725,0,25.99-0.611,39.793-1.84
		c-16.411,11.811-33.277,30.822-50.605,57.045l14.492,11.959c10.731-17.631,21.352-32.236,31.856-43.816
		c10.501-11.576,22.501-22.197,35.998-31.857v-1.381c-13.497-9.66-25.497-20.277-35.998-31.857
		C1072.75,346.827,1062.13,332.221,1051.398,314.584"/>
</g>
</svg>
