<?xml version="1.0" encoding="utf-8"?>
<!-- Generator: Adobe Illustrator 16.0.0, SVG Export Plug-In . SVG Version: 6.00 Build 0)  -->
<!DOCTYPE svg PUBLIC "-//W3C//DTD SVG 1.1//EN" "http://www.w3.org/Graphics/SVG/1.1/DTD/svg11.dtd">
<svg version="1.1" id="Layer_1" xmlns="http://www.w3.org/2000/svg" xmlns:xlink="http://www.w3.org/1999/xlink" x="0px" y="0px"
	 width="1170.09px" height="505.192px" viewBox="0 0 1170.09 505.192" enable-background="new 0 0 1170.09 505.192"
	 xml:space="preserve">
<g>
	<defs>
		<rect id="SVGID_77_" x="0.002" y="0.001" width="1170.088" height="505.191"/>
	</defs>
	<clipPath id="SVGID_2_">
		<use xlink:href="#SVGID_77_"  overflow="visible"/>
	</clipPath>
	<path clip-path="url(#SVGID_2_)" fill="#FF1419" d="M1102.325,63.887c-6.199,0-11.569,0.969-16.113,2.906
		c-4.542,1.938-7.994,4.632-10.352,8.082c-2.361,3.452-3.54,7.361-3.54,11.727c0,4.368,1.073,7.96,3.223,10.777
		c2.147,2.818,5.176,5.054,9.085,6.709s8.857,3.082,14.844,4.277c4.86,0.917,8.328,1.887,10.406,2.906
		c2.077,1.022,3.117,2.342,3.117,3.962c0,2.043-0.969,3.61-2.905,4.701c-1.938,1.093-4.844,1.638-8.717,1.638
		c-4.861,0-9.016-0.773-12.466-2.323c-3.452-1.55-6.552-4.228-9.297-8.03l-9.297,12.678c3.591,4.016,7.853,6.991,12.783,8.928
		c4.93,1.937,11.339,2.905,19.229,2.905c5.634,0,10.688-0.845,15.161-2.535c4.472-1.69,7.976-4.155,10.513-7.396
		c2.536-3.239,3.803-7.079,3.803-11.517c0-6.128-2.06-10.881-6.181-14.263c-4.121-3.381-11.006-5.951-20.654-7.713
		c-5.002-0.914-8.542-1.918-10.619-3.011c-2.079-1.091-3.118-2.517-3.118-4.279c0-2.113,0.986-3.803,2.959-5.071
		c1.971-1.268,4.789-1.902,8.451-1.902c4.368,0,8.118,0.829,11.252,2.483c3.133,1.656,5.865,4.244,8.188,7.766l10.248-11.833
		c-4.015-4.438-8.363-7.642-13.047-9.615C1114.596,64.874,1108.944,63.887,1102.325,63.887 M1054.887,64.944h-16.058v35.182
		l0.423,13.1h-0.106l-5.281-10.565l-21.659-37.717h-20.179v69.73h16.058V99.492l-0.422-13.101h0.106l5.283,10.565l21.658,37.718
		h20.179V64.944z M940.678,78.15c5.071,0,8.927,1.833,11.569,5.494c2.641,3.663,3.962,9.051,3.962,16.165
		c0,7.115-1.321,12.503-3.962,16.164c-2.642,3.663-6.498,5.494-11.569,5.494c-5.07,0-8.945-1.831-11.623-5.494
		c-2.676-3.661-4.014-9.049-4.014-16.164c0-7.114,1.338-12.502,4.014-16.165C931.733,79.983,935.608,78.15,940.678,78.15
		 M940.678,63.887c-7.043,0-13.137,1.426-18.277,4.279c-5.142,2.853-9.086,6.973-11.833,12.361
		c-2.748,5.388-4.121,11.817-4.121,19.282c0,7.466,1.373,13.894,4.121,19.281c2.747,5.388,6.691,9.509,11.833,12.36
		c5.141,2.854,11.234,4.279,18.277,4.279c7.042,0,13.117-1.426,18.226-4.279c5.106-2.852,9.032-6.973,11.779-12.36
		c2.747-5.388,4.12-11.815,4.12-19.281c0-7.465-1.373-13.894-4.12-19.282c-2.748-5.388-6.673-9.508-11.779-12.361
		C953.795,65.313,947.72,63.887,940.678,63.887 M889.226,64.944h-18.172v69.73h18.172V64.944z M855.946,64.944h-63.708v14.051
		h22.821v55.679h18.173V78.995h22.714V64.944z M777.131,64.944h-18.172v69.73h18.172V64.944z M706.135,120.939h-9.615V78.678h9.615
		c5.846,0,10.143,1.762,12.89,5.283c2.747,3.523,4.119,8.805,4.119,15.848c0,7.044-1.372,12.326-4.119,15.847
		C716.278,119.179,711.98,120.939,706.135,120.939 M707.93,64.944h-29.582v69.73h29.582c10.917,0,19.282-3.011,25.094-9.034
		c5.811-6.021,8.716-14.632,8.716-25.831c0-11.199-2.905-19.81-8.716-25.832C727.212,67.955,718.847,64.944,707.93,64.944
		 M625.101,120.623v-14.264h28.737V93.153h-28.737V78.995h36.133V64.944h-54.306v69.73h55.679v-14.052H625.101z"/>
	<path clip-path="url(#SVGID_2_)" fill="#231F20" d="M271.978,397.237h59.245v62.631h-59.245V397.237z M120.201,272.54v-50.783
		c25.392-1.692,37.241-6.771,42.318-18.619c2.821-5.643,3.95-12.978,3.95-22.006v-33.291c0-11.849,0-24.825-2.257-35.547
		c-2.257-10.72-7.335-18.056-16.928-18.056c-7.335,0-11.848,3.386-14.105,14.106c-2.822,11.284-3.95,28.776-3.95,56.425H69.42
		c0-23.134,0.564-54.732,10.721-80.123c10.156-24.826,28.776-44.011,67.145-44.011c38.369,0,58.117,19.749,68.274,40.626
		c10.156,20.877,10.721,43.447,10.721,48.525c0,61.502-10.721,90.843-29.341,109.463l-0.564,0.564
		c29.34,23.134,34.983,66.015,34.983,113.976c0,1.693,0,5.643-0.565,11.85c-0.564,11.85-3.949,29.342-10.156,47.396
		c-6.771,18.055-18.056,34.418-35.547,44.01c-9.028,5.078-19.749,7.336-32.726,7.336c-38.369,0-58.117-19.184-68.838-44.574
		c-10.72-24.826-11.849-56.426-11.849-79.559h59.81c0,27.648,1.693,45.139,5.079,55.859c3.385,11.285,8.463,14.67,15.799,14.67
		c9.592,0,14.67-7.334,16.927-17.49c2.257-10.158,2.257-23.135,2.257-34.982c0-12.979,0-24.828,0.564-35.549
		c0-20.312-3.949-34.418-16.927-42.883c-6.771-3.949-16.927-6.77-29.905-7.334H120.201z"/>
</g>
<polygon fill="#FF1419" points="423.175,100.035 423.385,112.425 478.409,112.425 478.409,162.83 478.409,163.25 541.413,106.125 
	541.413,105.915 478.409,49.42 478.409,49.63 478.409,100.035 "/>
<g>
	<defs>
		<rect id="SVGID_79_" x="0.002" y="0.001" width="1170.088" height="505.191"/>
	</defs>
	<clipPath id="SVGID_4_">
		<use xlink:href="#SVGID_79_"  overflow="visible"/>
	</clipPath>
	<polygon clip-path="url(#SVGID_4_)" fill="none" stroke="#231F20" stroke-width="1.998" points="1.001,3.001 1.001,502.194 
		1.001,504.196 3.002,504.196 1167.09,504.196 1169.09,504.196 1169.09,502.194 1169.09,3.001 1169.09,1 1167.09,1 3.002,1 1.001,1 
			"/>
</g>
<rect x="5.003" y="5.004" fill="none" stroke="#231F20" stroke-width="1.998" width="1160.084" height="495.188"/>
<line fill="none" stroke="#231F20" stroke-width="2" x1="403.033" y1="189.169" x2="1144.088" y2="189.169"/>
<line fill="none" stroke="#231F20" stroke-width="2" x1="382.03" y1="26.157" x2="382.03" y2="480.19"/>
<line fill="none" stroke="#231F20" stroke-width="2" x1="572.045" y1="26.157" x2="572.045" y2="178.168"/>
<line fill="none" stroke="#231F20" stroke-width="2" x1="868.067" y1="210.17" x2="868.067" y2="479.056"/>
<g>
	<defs>
		<rect id="SVGID_81_" x="0.002" y="0.001" width="1170.088" height="505.191"/>
	</defs>
	<clipPath id="SVGID_6_">
		<use xlink:href="#SVGID_81_"  overflow="visible"/>
	</clipPath>
	<path clip-path="url(#SVGID_6_)" fill="#231F20" d="M1020.057,403.282v-45.119h49.973v-27.729h-49.973v-41.672h28.198
		c4.281,0,7.857,0.393,10.731,1.176c2.872,0.783,5.17,2.168,6.893,4.15c1.724,1.986,2.898,4.754,3.525,8.303
		c0.626,3.553,0.94,8.096,0.94,13.631h54.833v-85.38H901.936v58.121c9.189,0,15.768,1.23,19.739,3.682
		c3.968,2.455,5.953,7.129,5.953,14.021v79.27c0,6.791-1.984,11.412-5.953,13.863c-3.972,2.457-10.55,3.684-19.739,3.684v58.121
		h223.241v-85.381h-54.833c0,5.537-0.314,10.08-0.94,13.631c-0.626,3.551-1.801,6.344-3.525,8.381
		c-1.723,2.035-4.021,3.422-6.893,4.15c-2.874,0.732-6.45,1.098-10.731,1.098H1020.057z"/>
	<path clip-path="url(#SVGID_6_)" fill="#231F20" d="M724.759,430.603c0.349,2.6,0.599,4.799,0.599,7.199
		c2.601-0.051,4.75,0.6,7.151,0.6c3.849,0,8.649-1.699,8.649-6.449c0-3.9-3.545-6.076-7.85-7.65c-2.049-0.75-2.75-1.9-2.75-3.65
		c0-2,1.451-2.85,2.8-2.85c2.25,0,3.851,1.15,4.851,4.65l1.949-0.25c-0.149-1.801-0.35-3.6-0.55-5.1
		c-1.95-0.951-3.649-1.4-6.399-1.4c-4.551,0-7.801,2.699-7.801,6.15c0,4,4.4,6.549,6.9,7.449c2.75,0.949,3.3,1.949,3.3,3.9
		c0,2.299-1.599,3.25-2.95,3.25c-3.75,0-5-1.65-5.899-5.951L724.759,430.603z M704.659,418.853h-0.1l0.1-3.15
		c0-0.1-0.25-0.15-0.35-0.15c-1.6,0.5-4.9,1.051-8.4,1.5l0.101,1.699l2.049,0.201c0.701,0.049,1.1,0.4,1.1,2.9v12.25
		c0,1.398-0.79,1.738-2.399,2.1l-0.451,0.1c-0.246,0.055-0.4,0.15-0.4,0.449v1.15l0.101,0.1c0,0,4.049-0.1,5.799-0.1
		c1.951,0,5.75,0.1,5.75,0.1l0.1-0.1v-1.15c0-0.299-0.206-0.398-0.399-0.449l-0.201-0.051c-1.509-0.375-2.4-0.799-2.4-2.148v-13.25
		c2.476-1.551,4.551-2.352,6.051-2.352c1.8,0,2.1,1.5,2.1,4.9v10.701c0,1.398-0.84,1.76-2.4,2.148l-0.199,0.051
		c-0.245,0.061-0.4,0.15-0.4,0.449v1.15l0.1,0.1c0,0,3.801-0.1,5.601-0.1c1.95,0,5.95,0.1,5.95,0.1l0.1-0.1v-1.15
		c0-0.299-0.206-0.398-0.4-0.449l-0.399-0.1c-1.536-0.385-2.451-0.701-2.451-2.1v-10.352c0-4.549-0.75-8.049-6.1-8.049
		C709.809,415.702,707.209,416.901,704.659,418.853 M669.51,427.552c0,5.15,3.899,10.85,11.25,10.85
		c7.75,0,11.299-6.25,11.299-11.299c0-5.25-3.1-11.4-11.25-11.4C673.559,415.702,669.51,420.702,669.51,427.552 M680.309,417.751
		c3.4,0,5.701,3.801,5.701,10.951c0,6.35-2.651,7.549-4.451,7.549c-4.1,0-5.95-6.1-5.95-9.799
		C675.609,422.202,677.109,417.751,680.309,417.751 M657.76,409.353c0,1.648,1.349,3,3,3c1.649,0,3-1.352,3-3c0-1.65-1.351-3-3-3
		C659.109,406.353,657.76,407.702,657.76,409.353 M663.559,421.837c0-2.5,0.15-6.135,0.15-6.135c0-0.121-0.23-0.15-0.351-0.15
		c-1.575,0.5-5.075,1.025-8.55,1.5l0.1,1.5l2.051,0.199c0.699,0.051,1.1,0.602,1.1,3.102v12.199c0,1.4-0.799,1.891-2.35,2.15
		l-0.601,0.1c-0.194,0.035-0.349,0.15-0.349,0.449v1.15l0.099,0.1c0,0,4.05-0.1,5.851-0.1c1.949,0,6,0.1,6,0.1l0.1-0.1v-1.15
		c0-0.299-0.206-0.404-0.4-0.449l-0.5-0.1c-1.48-0.295-2.35-0.75-2.35-2.15V421.837z M645.909,418.552h4
		c0.95,0,1.851-0.25,1.851-0.85v-1c0-0.301-0.151-0.5-1.101-0.5h-4.75v-8.051l-4.05,1.551c0,4.049-0.5,6.5-3,6.5
		c-1,0-1.9,0.1-1.9,0.4v1.549c0,0.301,0.1,0.4,0.9,0.4h2.55v14.75c0,3.65,1.801,5.1,4.301,5.1c2.75,0,5.199-1.25,7.05-3.699
		l-1.151-1.15c-1.474,1.176-2.399,1.25-3.399,1.25c-0.65,0-1.301-0.35-1.301-3.65V418.552z M619.059,418.853h-0.1l0.1-3.15
		c0-0.1-0.25-0.15-0.35-0.15c-1.6,0.5-4.9,1.051-8.4,1.5l0.101,1.699l2.049,0.201c0.701,0.049,1.1,0.4,1.1,2.9v23.75
		c0,1.398-0.746,1.83-2.399,2.199l-0.451,0.1c-0.245,0.055-0.4,0.15-0.4,0.4v1.199l0.101,0.102c0,0,4-0.102,5.799-0.102
		c1.951,0,6,0.102,6,0.102l0.051-0.102v-1.199c0-0.25-0.157-0.34-0.401-0.4l-0.4-0.1c-1.554-0.391-2.4-0.801-2.4-2.199v-8.051
		c1.076,0.551,2.15,0.85,3.351,0.85c3.049,0,5.5-0.9,7.449-2.85c2.45-2.449,3.85-5.6,3.85-9.5c0-5.301-3.15-10.35-8.6-10.35
		C622.934,415.702,620.684,416.978,619.059,418.853 M619.059,420.853c1.451-1.602,3.25-2.551,4.451-2.551
		c2.949,0,4.449,3.25,4.449,9.1c0,4.201-1.5,8.9-5.85,8.9c-0.55,0-1.8-0.301-3.05-1.65V420.853z M599.26,409.353c0,1.648,1.35,3,3,3
		c1.65,0,3-1.352,3-3c0-1.65-1.35-3-3-3C600.61,406.353,599.26,407.702,599.26,409.353 M605.06,421.837c0-2.5,0.15-6.135,0.15-6.135
		c0-0.121-0.23-0.15-0.35-0.15c-1.575,0.5-5.075,1.025-8.55,1.5l0.101,1.5l2.05,0.199c0.7,0.051,1.1,0.602,1.1,3.102v12.199
		c0,1.4-0.799,1.891-2.35,2.15l-0.6,0.1c-0.195,0.035-0.35,0.15-0.35,0.449v1.15l0.1,0.1c0,0,4.05-0.1,5.85-0.1c1.95,0,6,0.1,6,0.1
		l0.1-0.1v-1.15c0-0.299-0.205-0.404-0.399-0.449l-0.5-0.1c-1.48-0.295-2.351-0.75-2.351-2.15V421.837z M584.31,418.853h-0.1
		l0.1-3.15c0-0.1-0.25-0.15-0.35-0.15c-1.6,0.5-4.9,1.051-8.4,1.5l0.101,1.699l2.05,0.201c0.7,0.049,1.1,0.4,1.1,2.9v12.199
		c0,1.35-0.825,1.836-2.399,2.15l-0.5,0.1c-0.195,0.039-0.351,0.15-0.351,0.449v1.15l0.101,0.1c0,0,4-0.1,5.8-0.1
		c1.95,0,5.95,0.1,5.95,0.1l0.1-0.1v-1.15c0-0.299-0.206-0.398-0.4-0.449l-0.4-0.1c-1.53-0.385-2.4-0.75-2.4-2.15v-10.551
		c0-1.773,0.55-2.975,1.3-3.5c0.61-0.424,1.035-0.648,1.835-0.648c0.895,0,1.7,2,3.665,2c1.45,0,2.5-1.25,2.5-2.852
		c0-1.299-1.1-2.799-2.9-2.799C588.96,415.702,586.81,416.276,584.31,418.853 M572.011,433.552l-1-0.949
		c-2.15,2.398-3.7,3.25-5.55,3.25c-3.3,0-6.2-3.852-6.2-9.25c0-5.551,2.25-8.801,4.9-8.801c1.9,0,2.6,1.949,2.75,3.551
		c0.15,1.35,1.25,2.35,2.85,2.35s2.5-1.25,2.5-2.801c0-2.699-2.45-5.199-7.9-5.199c-5.899,0-10.799,5-10.799,12.15
		c0,6.5,3.5,10.549,10.6,10.549C567.711,438.401,570.511,436.603,572.011,433.552 M533.011,430.603c0.35,2.6,0.6,4.799,0.6,7.199
		c2.601-0.051,4.75,0.6,7.15,0.6c3.85,0,8.65-1.699,8.65-6.449c0-3.9-3.545-6.076-7.85-7.65c-2.05-0.75-2.75-1.9-2.75-3.65
		c0-2,1.45-2.85,2.799-2.85c2.25,0,3.851,1.15,4.851,4.65l1.95-0.25c-0.15-1.801-0.35-3.6-0.551-5.1
		c-1.949-0.951-3.649-1.4-6.399-1.4c-4.55,0-7.8,2.699-7.8,6.15c0,4,4.4,6.549,6.9,7.449c2.75,0.949,3.299,1.949,3.299,3.9
		c0,2.299-1.6,3.25-2.949,3.25c-3.75,0-5-1.65-5.9-5.951L533.011,430.603z M512.912,418.853h-0.101l0.101-3.15
		c0-0.1-0.25-0.15-0.351-0.15c-1.6,0.5-4.899,1.051-8.399,1.5l0.1,1.699l2.049,0.201c0.701,0.049,1.101,0.4,1.101,2.9v12.25
		c0,1.398-0.79,1.738-2.4,2.1l-0.451,0.1c-0.245,0.055-0.399,0.15-0.399,0.449v1.15l0.1,0.1c0,0,4.049-0.1,5.799-0.1
		c1.951,0,5.75,0.1,5.75,0.1l0.101-0.1v-1.15c0-0.299-0.205-0.398-0.4-0.449l-0.201-0.051c-1.509-0.375-2.399-0.799-2.399-2.148
		v-13.25c2.475-1.551,4.55-2.352,6.05-2.352c1.8,0,2.1,1.5,2.1,4.9v10.701c0,1.398-0.839,1.76-2.399,2.148l-0.2,0.051
		c-0.244,0.061-0.4,0.15-0.4,0.449v1.15l0.101,0.1c0,0,3.8-0.1,5.6-0.1c1.95,0,5.95,0.1,5.95,0.1l0.1-0.1v-1.15
		c0-0.299-0.205-0.398-0.399-0.449l-0.4-0.1c-1.535-0.385-2.451-0.701-2.451-2.1v-10.352c0-4.549-0.75-8.049-6.1-8.049
		C518.062,415.702,515.462,416.901,512.912,418.853 M492.312,433.651c-1.25,1-3,2-3.899,2c-2.4,0-3.15-1.5-3.15-3.25
		c0-2.049,0.685-3.549,4.2-4.6l2.85-0.85V433.651z M492.262,435.501h0.1c0.6,1.926,1.9,2.9,4.9,2.9c2.75,0,4.65-2.15,4.65-2.4
		c0-0.35-0.45-1-0.65-1c-0.29,0-0.34,0.801-1.55,0.801c-1.95,0-2-1.9-2-4.199v-7.25c0-7.201-4.1-8.65-8.2-8.65
		c-3.65,0-8.9,2.6-8.9,5.6c0,1.301,0.55,2.1,2.35,2.1c1.4,0,2.6-1.199,2.6-1.9c0-0.6-0.299-1.148-0.299-2.148
		c0-1.102,1.65-1.75,3.549-1.75c2.101,0,3.5,1.1,3.5,7.449l-3.6,1.051c-5.155,1.504-8.7,3.1-8.7,7.049c0,3.451,1.65,5.25,6,5.25
		C488.112,438.401,490.337,437.177,492.262,435.501 M468.013,418.853h-0.1l0.1-3.15c0-0.1-0.25-0.15-0.35-0.15
		c-1.6,0.5-4.9,1.051-8.4,1.5l0.101,1.699l2.05,0.201c0.7,0.049,1.1,0.4,1.1,2.9v12.199c0,1.35-0.825,1.836-2.399,2.15l-0.5,0.1
		c-0.195,0.039-0.351,0.15-0.351,0.449v1.15l0.101,0.1c0,0,4-0.1,5.8-0.1c1.95,0,5.95,0.1,5.95,0.1l0.1-0.1v-1.15
		c0-0.299-0.205-0.398-0.4-0.449l-0.4-0.1c-1.529-0.385-2.4-0.75-2.4-2.15v-10.551c0-1.773,0.55-2.975,1.3-3.5
		c0.61-0.424,1.035-0.648,1.835-0.648c0.895,0,1.7,2,3.665,2c1.45,0,2.5-1.25,2.5-2.852c0-1.299-1.1-2.799-2.9-2.799
		C472.663,415.702,470.513,416.276,468.013,418.853 M450.563,418.552h4c0.95,0,1.85-0.25,1.85-0.85v-1c0-0.301-0.15-0.5-1.1-0.5
		h-4.75v-8.051l-4.05,1.551c0,4.049-0.5,6.5-3,6.5c-1,0-1.899,0.1-1.899,0.4v1.549c0,0.301,0.1,0.4,0.899,0.4h2.55v14.75
		c0,3.65,1.8,5.1,4.3,5.1c2.75,0,5.2-1.25,7.05-3.699l-1.15-1.15c-1.475,1.176-2.399,1.25-3.399,1.25c-0.65,0-1.3-0.35-1.3-3.65
		V418.552z"/>
	<path clip-path="url(#SVGID_6_)" fill="#231F20" d="M760.209,365.751c1.399,0,2.199-0.799,2.199-2c0-0.949-0.8-2.199-2.699-2.199
		c-1.351,0-3.601,0.801-5.051,2.1c-0.899-0.5-2.449-0.949-4.699-0.949c-4.801,0-9.2,2.949-9.2,7.6c0,2.449,1.2,5,3.049,6.275
		c-1.5,1.4-2.6,3.074-2.6,4.625c0,1.6,1,2.799,2.399,3.65c-2.599,1.75-4.05,3.898-4.05,5.85c0,4.449,4.35,6.1,8.451,6.1
		c6.95,0,14.5-3.65,14.5-9.15c0-1.9-2-5.549-10.151-5.549c-1.899,0-4.25,0.35-4.7,0.35c-0.899,0-2.25-0.6-2.25-2.6
		c0-0.801,0.075-1.852,0.325-2.451c1.05,0.5,2.625,0.75,4.175,0.75c4.7,0,8.95-2.699,8.95-7.6c0-2.801-1-4.551-2.7-5.949
		c0.4-0.5,0.95-0.9,1.45-0.9c0.45,0,0.601,0.299,0.75,0.6C758.559,364.952,758.959,365.751,760.209,365.751 M747.01,385.651
		c0.549,0,1.349,0,2.099-0.049c0.651-0.051,1.101-0.102,1.55-0.102c2.25,0,7.301,0.15,7.301,3.451c0,3.75-4.801,5.75-8.551,5.75
		c-1.399,0-5.149-1.451-5.149-5c0-1.701,0.049-3.15,1.099-4.25C745.859,385.651,746.409,385.651,747.01,385.651 M753.459,370.702
		c0,4.799-2,5.6-3.301,5.6c-3.1,0-4.1-3.9-4.1-6.449c0-3.701,1.5-5.4,3.451-5.4C751.859,364.452,753.459,366.751,753.459,370.702
		 M719.61,365.853h-0.1l0.1-3.15c0-0.1-0.25-0.15-0.35-0.15c-1.6,0.5-4.9,1.051-8.4,1.5l0.1,1.699l2.05,0.201
		c0.7,0.049,1.1,0.4,1.1,2.9v12.25c0,1.398-0.79,1.738-2.4,2.1l-0.45,0.1c-0.245,0.055-0.4,0.15-0.4,0.449v1.15l0.1,0.1
		c0,0,4.05-0.1,5.8-0.1c1.95,0,5.75,0.1,5.75,0.1l0.1-0.1v-1.15c0-0.299-0.206-0.398-0.4-0.449l-0.2-0.051
		c-1.51-0.375-2.4-0.799-2.4-2.148v-13.25c2.476-1.551,4.551-2.352,6.051-2.352c1.799,0,2.1,1.5,2.1,4.9v10.701
		c0,1.398-0.84,1.76-2.4,2.148l-0.199,0.051c-0.245,0.061-0.4,0.15-0.4,0.449v1.15l0.1,0.1c0,0,3.801-0.1,5.6-0.1
		c1.951,0,5.951,0.1,5.951,0.1l0.1-0.1v-1.15c0-0.299-0.206-0.398-0.4-0.449l-0.4-0.1c-1.534-0.385-2.45-0.701-2.45-2.1v-10.352
		c0-4.549-0.75-8.049-6.1-8.049C724.76,362.702,722.161,363.901,719.61,365.853 M699.16,356.353c0,1.648,1.351,3,3,3
		c1.65,0,3-1.352,3-3c0-1.65-1.35-3-3-3C700.51,353.353,699.16,354.702,699.16,356.353 M704.96,368.837c0-2.5,0.15-6.135,0.15-6.135
		c0-0.121-0.23-0.15-0.35-0.15c-1.575,0.5-5.075,1.025-8.55,1.5l0.1,1.5l2.05,0.199c0.7,0.051,1.1,0.602,1.1,3.102v12.199
		c0,1.4-0.8,1.891-2.35,2.15l-0.6,0.1c-0.195,0.035-0.351,0.15-0.351,0.449v1.15l0.101,0.1c0,0,4.049-0.1,5.85-0.1
		c1.95,0,6,0.1,6,0.1l0.1-0.1v-1.15c0-0.299-0.205-0.404-0.4-0.449l-0.5-0.1c-1.479-0.295-2.35-0.75-2.35-2.15V368.837z
		 M684.211,365.853h-0.101l0.101-3.15c0-0.1-0.25-0.15-0.351-0.15c-1.6,0.5-4.899,1.051-8.399,1.5l0.1,1.699l2.049,0.201
		c0.701,0.049,1.101,0.4,1.101,2.9v12.199c0,1.35-0.825,1.836-2.4,2.15l-0.5,0.1c-0.195,0.039-0.35,0.15-0.35,0.449v1.15l0.1,0.1
		c0,0,4-0.1,5.799-0.1c1.951,0,5.951,0.1,5.951,0.1l0.1-0.1v-1.15c0-0.299-0.204-0.398-0.4-0.449l-0.4-0.1
		c-1.529-0.385-2.399-0.75-2.399-2.15v-10.551c0-1.773,0.549-2.975,1.299-3.5c0.61-0.424,1.035-0.648,1.835-0.648
		c0.895,0,1.7,2,3.665,2c1.451,0,2.5-1.25,2.5-2.852c0-1.299-1.1-2.799-2.9-2.799C688.86,362.702,686.711,363.276,684.211,365.853
		 M663.661,380.651c-1.25,1-3,2-3.9,2c-2.4,0-3.15-1.5-3.15-3.25c0-2.049,0.686-3.549,4.201-4.6l2.85-0.85V380.651z M663.61,382.501
		h0.101c0.6,1.926,1.899,2.9,4.899,2.9c2.75,0,4.65-2.15,4.65-2.4c0-0.35-0.45-1-0.65-1c-0.29,0-0.339,0.801-1.549,0.801
		c-1.951,0-2-1.9-2-4.199v-7.25c0-7.201-4.1-8.65-8.201-8.65c-3.649,0-8.899,2.6-8.899,5.6c0,1.301,0.549,2.1,2.35,2.1
		c1.4,0,2.6-1.199,2.6-1.9c0-0.6-0.3-1.148-0.3-2.148c0-1.102,1.65-1.75,3.55-1.75c2.1,0,3.5,1.1,3.5,7.449l-3.6,1.051
		c-5.156,1.504-8.701,3.1-8.701,7.049c0,3.451,1.65,5.25,6,5.25C659.461,385.401,661.686,384.177,663.61,382.501 M632.411,365.853
		h-0.1l0.1-3.15c0-0.1-0.25-0.15-0.35-0.15c-1.6,0.5-4.9,1.051-8.4,1.5l0.1,1.699l2.05,0.201c0.7,0.049,1.1,0.4,1.1,2.9v23.75
		c0,1.398-0.745,1.83-2.4,2.199l-0.45,0.1c-0.245,0.055-0.4,0.15-0.4,0.4v1.199l0.1,0.102c0,0,4-0.102,5.8-0.102
		c1.95,0,6,0.102,6,0.102l0.05-0.102v-1.199c0-0.25-0.155-0.34-0.4-0.4l-0.4-0.1c-1.555-0.391-2.4-0.801-2.4-2.199v-8.051
		c1.075,0.551,2.15,0.85,3.35,0.85c3.05,0,5.5-0.9,7.451-2.85c2.449-2.449,3.85-5.6,3.85-9.5c0-5.301-3.15-10.35-8.6-10.35
		C636.286,362.702,634.036,363.978,632.411,365.853 M632.411,367.853c1.45-1.602,3.25-2.551,4.45-2.551c2.95,0,4.45,3.25,4.45,9.1
		c0,4.201-1.5,8.9-5.85,8.9c-0.55,0-1.8-0.301-3.05-1.65V367.853z M592.362,365.853l0.1-3.15c0-0.1-0.25-0.15-0.35-0.15
		c-1.6,0.5-4.9,1.051-8.4,1.5l0.1,1.699l2.051,0.201c0.699,0.049,1.1,0.4,1.1,2.9v12.299c0,1.4-0.75,1.701-2.4,2.051l-0.449,0.1
		c-0.25,0.051-0.4,0.15-0.4,0.449v1.15l0.1,0.1c0,0,4.051-0.1,5.801-0.1c2,0,5.6,0.1,5.6,0.1l0.1-0.1v-1.15
		c0-0.299-0.199-0.398-0.449-0.449c-1.15-0.15-2.4-0.4-2.4-2.15v-13.299c2.1-1.75,3.75-2.4,5.2-2.4c1.25,0,2.05,1.25,2.05,4.4v11.25
		c0,1.398-0.7,2.049-2.35,2.199c-0.301,0.051-0.45,0.199-0.45,0.449v1.15l0.1,0.1c0,0,3.6-0.1,5.4-0.1c1.95,0,5.55,0.1,5.55,0.1
		l0.1-0.1v-1.15c0-0.299-0.199-0.449-0.399-0.449c-1.2-0.15-2.45-0.449-2.45-2.199v-10.301c0-0.699-0.05-2.25-0.1-2.9
		c1.949-1.65,3.75-2.449,5.449-2.449c1.201,0,2,1.299,2,4.299v11.352c0,1.398-0.699,2.049-2.399,2.199
		c-0.3,0.051-0.4,0.199-0.4,0.449v1.15l0.1,0.1c0,0,3.6-0.1,5.35-0.1c1.95,0,6,0.1,6,0.1l0.1-0.1v-1.15
		c0-0.299-0.199-0.398-0.399-0.449l-0.4-0.1c-1.55-0.4-2.451-0.701-2.451-2.1v-10.25c0-4.5-0.5-8.15-5.75-8.15
		c-2.649,0-5.399,1.299-7.699,3.299c-0.75-1.949-2.5-3.299-5.15-3.299c-2.75,0-5.25,1.6-7,3.15H592.362z M557.362,374.552
		c0,5.15,3.9,10.85,11.25,10.85c7.75,0,11.3-6.25,11.3-11.299c0-5.25-3.101-11.4-11.25-11.4
		C561.412,362.702,557.362,367.702,557.362,374.552 M568.162,364.751c3.399,0,5.7,3.801,5.7,10.951c0,6.35-2.65,7.549-4.45,7.549
		c-4.101,0-5.95-6.1-5.95-9.799C563.462,369.202,564.962,364.751,568.162,364.751 M553.712,380.552l-1-0.949
		c-2.15,2.398-3.7,3.25-5.55,3.25c-3.3,0-6.2-3.852-6.2-9.25c0-5.551,2.25-8.801,4.9-8.801c1.9,0,2.6,1.949,2.75,3.551
		c0.15,1.35,1.25,2.35,2.85,2.35s2.5-1.25,2.5-2.801c0-2.699-2.45-5.199-7.9-5.199c-5.899,0-10.799,5-10.799,12.15
		c0,6.5,3.5,10.549,10.6,10.549C549.412,385.401,552.212,383.603,553.712,380.552 M515.762,355.751c0-3.25,0.15-5.25,0.15-5.25
		c0-0.35-0.351-0.5-0.8-0.5c-1.255,0.5-6.375,1.15-8.4,1.301l0.15,1.449c0.015,0.15,0.14,0.24,0.3,0.25l1.6,0.102
		c1,0,1.5,0.398,1.5,3.648v7.201c-0.701-0.701-2.451-1.25-3.25-1.25c-3.85,0-6.15,1.1-8.201,3c-2.299,2.299-3.399,5.4-3.399,8.949
		c0,6.201,4.399,10.75,9.7,10.75c2.1,0,3.35-0.6,5.25-2.25l-0.1,2.35h1.7c1.65-0.85,3.8-1.648,7.1-2l-0.1-1.549
		c-2.65-0.25-3.2-1.301-3.2-2.801V355.751z M510.262,367.751v12.951c-1.8,1.699-2.9,2.199-3.9,2.199c-2.85,0-5.2-2.799-5.2-9.1
		c0-7.25,3.1-9,5.149-9C507.862,364.802,509.162,366.103,510.262,367.751 M475.313,365.853h-0.1l0.1-3.15c0-0.1-0.25-0.15-0.35-0.15
		c-1.6,0.5-4.9,1.051-8.4,1.5l0.1,1.699l2.05,0.201c0.7,0.049,1.1,0.4,1.1,2.9v12.25c0,1.398-0.79,1.738-2.4,2.1l-0.45,0.1
		c-0.245,0.055-0.4,0.15-0.4,0.449v1.15l0.1,0.1c0,0,4.05-0.1,5.8-0.1c1.95,0,5.75,0.1,5.75,0.1l0.1-0.1v-1.15
		c0-0.299-0.205-0.398-0.4-0.449l-0.2-0.051c-1.51-0.375-2.4-0.799-2.4-2.148v-13.25c2.475-1.551,4.55-2.352,6.05-2.352
		c1.8,0,2.1,1.5,2.1,4.9v10.701c0,1.398-0.84,1.76-2.4,2.148l-0.2,0.051c-0.245,0.061-0.4,0.15-0.4,0.449v1.15l0.1,0.1
		c0,0,3.8-0.1,5.6-0.1c1.95,0,5.95,0.1,5.95,0.1l0.1-0.1v-1.15c0-0.299-0.205-0.398-0.4-0.449l-0.4-0.1
		c-1.535-0.385-2.45-0.701-2.45-2.1v-10.352c0-4.549-0.75-8.049-6.1-8.049C480.463,362.702,477.863,363.901,475.313,365.853
		 M454.713,380.651c-1.25,1-3,2-3.9,2c-2.4,0-3.15-1.5-3.15-3.25c0-2.049,0.685-3.549,4.2-4.6l2.85-0.85V380.651z M454.663,382.501
		h0.1c0.601,1.926,1.9,2.9,4.9,2.9c2.75,0,4.65-2.15,4.65-2.4c0-0.35-0.45-1-0.65-1c-0.29,0-0.34,0.801-1.55,0.801
		c-1.95,0-2-1.9-2-4.199v-7.25c0-7.201-4.101-8.65-8.2-8.65c-3.65,0-8.9,2.6-8.9,5.6c0,1.301,0.55,2.1,2.351,2.1
		c1.399,0,2.6-1.199,2.6-1.9c0-0.6-0.3-1.148-0.3-2.148c0-1.102,1.65-1.75,3.55-1.75c2.1,0,3.5,1.1,3.5,7.449l-3.6,1.051
		c-5.155,1.504-8.7,3.1-8.7,7.049c0,3.451,1.65,5.25,6,5.25C450.513,385.401,452.738,384.177,454.663,382.501"/>
	<path clip-path="url(#SVGID_6_)" fill="#231F20" d="M663.66,324.603c0.351,2.6,0.601,4.799,0.601,7.199
		c2.6-0.051,4.75,0.6,7.149,0.6c3.851,0,8.65-1.699,8.65-6.449c0-3.9-3.544-6.076-7.85-7.65c-2.05-0.75-2.75-1.9-2.75-3.65
		c0-2,1.45-2.85,2.8-2.85c2.25,0,3.85,1.15,4.85,4.65l1.95-0.25c-0.15-1.801-0.35-3.6-0.549-5.1c-1.951-0.951-3.65-1.4-6.4-1.4
		c-4.55,0-7.8,2.699-7.8,6.15c0,4,4.4,6.549,6.9,7.449c2.75,0.949,3.3,1.949,3.3,3.9c0,2.299-1.601,3.25-2.951,3.25
		c-3.75,0-5-1.65-5.9-5.951L663.66,324.603z M657.211,328.052v-10.35c0-5.25-1.601-8.051-5.9-8.051c-1.85,0-5,1.15-7.75,3.201
		v-10.102c0-3.25,0.15-5.25,0.15-5.25c0-0.35-0.351-0.5-0.801-0.5c-1.255,0.5-6.375,1.15-8.4,1.301l0.15,1.449
		c0.016,0.15,0.141,0.24,0.3,0.25l1.6,0.102c1,0,1.5,0.398,1.5,3.648v24.301c0,1.4-0.82,1.885-2.4,2.15l-0.6,0.1
		c-0.245,0.039-0.4,0.15-0.4,0.449v1.15l0.1,0.1c0,0,4.2-0.1,5.951-0.1c1.949,0,5.949,0.1,5.949,0.1l0.1-0.1v-1.15
		c0-0.299-0.205-0.414-0.4-0.449l-0.35-0.1c-1.594-0.455-2.45-0.75-2.45-2.15v-13.199c2.299-1.65,4.75-2.451,5.65-2.451
		c2,0,2.5,0.85,2.5,4.75v10.9c0,1.4-0.86,1.711-2.4,2.15l-0.35,0.1c-0.245,0.039-0.4,0.15-0.4,0.449v1.15l0.1,0.1
		c0,0,3.95-0.1,5.7-0.1c1.951,0,6.15,0.1,6.15,0.1l0.1-0.1v-1.15c0-0.299-0.205-0.414-0.399-0.449l-0.551-0.1
		C658.03,329.907,657.211,329.452,657.211,328.052 M616.911,312.853h-0.1l0.1-3.15c0-0.1-0.25-0.15-0.35-0.15
		c-1.6,0.5-4.9,1.051-8.4,1.5l0.1,1.699l2.05,0.201c0.7,0.049,1.1,0.4,1.1,2.9v23.75c0,1.398-0.745,1.83-2.4,2.199l-0.45,0.1
		c-0.245,0.055-0.4,0.15-0.4,0.4v1.199l0.1,0.102c0,0,4-0.102,5.8-0.102c1.95,0,6,0.102,6,0.102l0.05-0.102v-1.199
		c0-0.25-0.155-0.34-0.4-0.4l-0.4-0.1c-1.555-0.391-2.4-0.801-2.4-2.199v-8.051c1.075,0.551,2.15,0.85,3.35,0.85
		c3.05,0,5.5-0.9,7.45-2.85c2.45-2.449,3.85-5.6,3.85-9.5c0-5.301-3.15-10.35-8.6-10.35
		C620.786,309.702,618.536,310.978,616.911,312.853 M616.911,314.853c1.45-1.602,3.25-2.551,4.45-2.551c2.95,0,4.45,3.25,4.45,9.1
		c0,4.201-1.5,8.9-5.85,8.9c-0.55,0-1.8-0.301-3.05-1.65V314.853z M596.961,327.651c-1.25,1-3,2-3.9,2c-2.4,0-3.15-1.5-3.15-3.25
		c0-2.049,0.685-3.549,4.2-4.6l2.85-0.85V327.651z M596.911,329.501h0.1c0.601,1.926,1.9,2.9,4.9,2.9c2.75,0,4.65-2.15,4.65-2.4
		c0-0.35-0.45-1-0.65-1c-0.29,0-0.34,0.801-1.55,0.801c-1.95,0-2-1.9-2-4.199v-7.25c0-7.201-4.101-8.65-8.2-8.65
		c-3.65,0-8.9,2.6-8.9,5.6c0,1.301,0.55,2.1,2.351,2.1c1.399,0,2.6-1.199,2.6-1.9c0-0.6-0.3-1.148-0.3-2.148
		c0-1.102,1.65-1.75,3.55-1.75c2.1,0,3.5,1.1,3.5,7.449l-3.6,1.051c-5.155,1.504-8.7,3.1-8.7,7.049c0,3.451,1.65,5.25,6,5.25
		C592.761,332.401,594.986,331.177,596.911,329.501 M572.662,312.853h-0.101l0.101-3.15c0-0.1-0.25-0.15-0.351-0.15
		c-1.6,0.5-4.899,1.051-8.399,1.5l0.1,1.699l2.049,0.201c0.701,0.049,1.101,0.4,1.101,2.9v12.199c0,1.35-0.825,1.836-2.4,2.15
		l-0.5,0.1c-0.195,0.039-0.35,0.15-0.35,0.449v1.15l0.1,0.1c0,0,4-0.1,5.799-0.1c1.951,0,5.951,0.1,5.951,0.1l0.1-0.1v-1.15
		c0-0.299-0.205-0.398-0.4-0.449l-0.4-0.1c-1.529-0.385-2.399-0.75-2.399-2.15v-10.551c0-1.773,0.55-2.975,1.3-3.5
		c0.61-0.424,1.035-0.648,1.835-0.648c0.895,0,1.7,2,3.665,2c1.45,0,2.5-1.25,2.5-2.852c0-1.299-1.1-2.799-2.9-2.799
		C577.312,309.702,575.162,310.276,572.662,312.853 M558.762,312.751c1.4,0,2.2-0.799,2.2-2c0-0.949-0.8-2.199-2.7-2.199
		c-1.35,0-3.6,0.801-5.05,2.1c-0.9-0.5-2.45-0.949-4.7-0.949c-4.8,0-9.201,2.949-9.201,7.6c0,2.449,1.201,5,3.051,6.275
		c-1.5,1.4-2.6,3.074-2.6,4.625c0,1.6,1,2.799,2.4,3.65c-2.601,1.75-4.05,3.898-4.05,5.85c0,4.449,4.35,6.1,8.449,6.1
		c6.951,0,14.5-3.65,14.5-9.15c0-1.9-2-5.549-10.149-5.549c-1.9,0-4.25,0.35-4.7,0.35c-0.9,0-2.25-0.6-2.25-2.6
		c0-0.801,0.075-1.852,0.325-2.451c1.05,0.5,2.625,0.75,4.175,0.75c4.7,0,8.95-2.699,8.95-7.6c0-2.801-1-4.551-2.7-5.949
		c0.4-0.5,0.95-0.9,1.45-0.9c0.45,0,0.6,0.299,0.75,0.6C557.112,311.952,557.512,312.751,558.762,312.751 M545.562,332.651
		c0.551,0,1.351,0,2.101-0.049c0.649-0.051,1.1-0.102,1.55-0.102c2.25,0,7.3,0.15,7.3,3.451c0,3.75-4.8,5.75-8.55,5.75
		c-1.4,0-5.15-1.451-5.15-5c0-1.701,0.051-3.15,1.101-4.25C544.412,332.651,544.962,332.651,545.562,332.651 M552.012,317.702
		c0,4.799-2,5.6-3.3,5.6c-3.1,0-4.1-3.9-4.1-6.449c0-3.701,1.5-5.4,3.449-5.4C550.412,311.452,552.012,313.751,552.012,317.702
		 M511.662,321.552c0,5.15,3.899,10.85,11.25,10.85c7.75,0,11.3-6.25,11.3-11.299c0-5.25-3.1-11.4-11.25-11.4
		C515.712,309.702,511.662,314.702,511.662,321.552 M522.462,311.751c3.4,0,5.7,3.801,5.7,10.951c0,6.35-2.65,7.549-4.45,7.549
		c-4.1,0-5.95-6.1-5.95-9.799C517.762,316.202,519.262,311.751,522.462,311.751 M502.862,312.552h4c0.949,0,1.85-0.25,1.85-0.85v-1
		c0-0.301-0.15-0.5-1.1-0.5h-4.75v-8.051l-4.051,1.551c0,4.049-0.5,6.5-3,6.5c-1,0-1.899,0.1-1.899,0.4v1.549
		c0,0.301,0.1,0.4,0.899,0.4h2.551v14.75c0,3.65,1.8,5.1,4.3,5.1c2.75,0,5.2-1.25,7.05-3.699l-1.15-1.15
		c-1.475,1.176-2.399,1.25-3.399,1.25c-0.65,0-1.3-0.35-1.3-3.65V312.552z M488.013,326.151v-11.949c0-2.025,0.101-4.1,0.101-4.1
		s-1.95,0.1-3,0.1c-1.351,0-5.55-0.1-5.55-0.1l-0.2,0.1v1.5l0.2,0.1l1.55,0.1c0.899,0,1.399,0.801,1.399,2.4v13.75
		c-1.85,1.6-3.95,1.85-5.049,1.85c-1.05,0-2.701-0.9-2.701-5.1v-10.6c0-1.85,0.05-4.1,0.05-4.1s-2.2,0.1-2.9,0.1
		c-1.6,0-5.55-0.1-5.55-0.1l-0.25,0.1v1.5l0.149,0.1l1.55,0.1c1.17,0.076,1.45,0.9,1.45,2.4v11.199c0,3.5,1.15,6.9,6.951,6.9
		c1.85,0,4.1-0.75,6.45-2.25l-0.15,2.35h1.701c1.299-0.75,2.5-1.398,7.049-2l-0.049-1.549
		C488.513,328.802,488.013,327.651,488.013,326.151 M454.713,327.651c-1.25,1-3,2-3.9,2c-2.4,0-3.15-1.5-3.15-3.25
		c0-2.049,0.685-3.549,4.2-4.6l2.85-0.85V327.651z M454.663,329.501h0.1c0.601,1.926,1.9,2.9,4.9,2.9c2.75,0,4.65-2.15,4.65-2.4
		c0-0.35-0.45-1-0.65-1c-0.29,0-0.34,0.801-1.55,0.801c-1.95,0-2-1.9-2-4.199v-7.25c0-7.201-4.101-8.65-8.2-8.65
		c-3.65,0-8.9,2.6-8.9,5.6c0,1.301,0.55,2.1,2.351,2.1c1.399,0,2.6-1.199,2.6-1.9c0-0.6-0.3-1.148-0.3-2.148
		c0-1.102,1.65-1.75,3.55-1.75c2.1,0,3.5,1.1,3.5,7.449l-3.6,1.051c-5.155,1.504-8.7,3.1-8.7,7.049c0,3.451,1.65,5.25,6,5.25
		C450.513,332.401,452.738,331.177,454.663,329.501"/>
	<path clip-path="url(#SVGID_6_)" fill="#231F20" d="M678.208,259.751c1.4,0,2.199-0.799,2.199-2c0-0.949-0.799-2.199-2.699-2.199
		c-1.35,0-3.6,0.801-5.051,2.1c-0.898-0.5-2.449-0.949-4.699-0.949c-4.801,0-9.199,2.949-9.199,7.6c0,2.449,1.199,5,3.049,6.275
		c-1.5,1.4-2.601,3.074-2.601,4.625c0,1.6,1,2.799,2.4,3.65c-2.599,1.75-4.05,3.898-4.05,5.85c0,4.449,4.349,6.1,8.451,6.1
		c6.949,0,14.5-3.65,14.5-9.15c0-1.9-2-5.549-10.151-5.549c-1.9,0-4.25,0.35-4.701,0.35c-0.898,0-2.25-0.6-2.25-2.6
		c0-0.801,0.076-1.852,0.326-2.451c1.049,0.5,2.625,0.75,4.174,0.75c4.701,0,8.951-2.699,8.951-7.6c0-2.801-1-4.551-2.701-5.949
		c0.401-0.5,0.951-0.9,1.451-0.9c0.45,0,0.6,0.299,0.75,0.6C676.559,258.952,676.958,259.751,678.208,259.751 M665.01,279.651
		c0.549,0,1.349,0,2.099-0.049c0.651-0.051,1.1-0.102,1.549-0.102c2.25,0,7.301,0.15,7.301,3.451c0,3.75-4.801,5.75-8.551,5.75
		c-1.398,0-5.148-1.451-5.148-5c0-1.701,0.049-3.15,1.099-4.25C663.859,279.651,664.408,279.651,665.01,279.651 M671.458,264.702
		c0,4.799-2,5.6-3.301,5.6c-3.099,0-4.099-3.9-4.099-6.449c0-3.701,1.5-5.4,3.451-5.4
		C669.859,258.452,671.458,260.751,671.458,264.702 M637.609,259.853h-0.099l0.099-3.15c0-0.1-0.25-0.15-0.349-0.15
		c-1.601,0.5-4.901,1.051-8.401,1.5l0.1,1.699l2.051,0.201c0.699,0.049,1.099,0.4,1.099,2.9v12.25c0,1.398-0.791,1.738-2.4,2.1
		l-0.449,0.1c-0.246,0.055-0.401,0.15-0.401,0.449v1.15l0.1,0.1c0,0,4.051-0.1,5.801-0.1c1.949,0,5.75,0.1,5.75,0.1l0.099-0.1v-1.15
		c0-0.299-0.205-0.398-0.399-0.449l-0.2-0.051c-1.511-0.375-2.401-0.799-2.401-2.148v-13.25c2.476-1.551,4.55-2.352,6.05-2.352
		c1.801,0,2.101,1.5,2.101,4.9v10.701c0,1.398-0.84,1.76-2.401,2.148l-0.2,0.051c-0.244,0.061-0.399,0.15-0.399,0.449v1.15
		l0.099,0.1c0,0,3.8-0.1,5.601-0.1c1.949,0,5.949,0.1,5.949,0.1l0.101-0.1v-1.15c0-0.299-0.206-0.398-0.401-0.449l-0.399-0.1
		c-1.535-0.385-2.45-0.701-2.45-2.1v-10.352c0-4.549-0.75-8.049-6.101-8.049C642.76,256.702,640.159,257.901,637.609,259.853
		 M617.159,250.353c0,1.648,1.351,3,3,3c1.65,0,3-1.352,3-3c0-1.65-1.35-3-3-3C618.51,247.352,617.159,248.702,617.159,250.353
		 M622.959,262.837c0-2.5,0.15-6.135,0.15-6.135c0-0.121-0.23-0.15-0.349-0.15c-1.576,0.5-5.076,1.025-8.551,1.5l0.1,1.5l2.05,0.199
		c0.7,0.051,1.1,0.602,1.1,3.102v12.199c0,1.4-0.8,1.891-2.35,2.15l-0.599,0.1c-0.196,0.035-0.351,0.15-0.351,0.449v1.15l0.101,0.1
		c0,0,4.049-0.1,5.849-0.1c1.95,0,6,0.1,6,0.1l0.1-0.1v-1.15c0-0.299-0.205-0.404-0.4-0.449l-0.5-0.1
		c-1.48-0.295-2.35-0.75-2.35-2.15V262.837z M595.21,256.603h-1.65c-0.1,2.148-0.299,3.898-1.1,7.199l2.15,0.301
		c0.85-3.701,2.05-4.801,3.55-4.801h5.8c-3.9,5.9-7.6,11.85-11.5,17.699c-0.4,0.65-0.55,1-0.55,1.102c0,0.5,0.6,0.799,2.75,0.799
		h14.899c0.201-2.049,0.55-4.25,1.3-6.949l-2.1-0.451c-0.85,3.25-2.3,5.301-4.5,5.301h-5.8l11.15-17.15c0.55-0.85,1-1.65,1-1.799
		c0-0.5-0.8-0.801-1.8-0.801c-0.149,0-1.344,0.15-2.549,0.15H596.06C595.76,257.202,595.41,257.151,595.21,256.603 M580.26,250.353
		c0,1.648,1.35,3,3,3c1.65,0,3-1.352,3-3c0-1.65-1.35-3-3-3C581.61,247.352,580.26,248.702,580.26,250.353 M586.06,262.837
		c0-2.5,0.15-6.135,0.15-6.135c0-0.121-0.23-0.15-0.35-0.15c-1.575,0.5-5.075,1.025-8.55,1.5l0.101,1.5l2.05,0.199
		c0.7,0.051,1.1,0.602,1.1,3.102v12.199c0,1.4-0.799,1.891-2.35,2.15l-0.6,0.1c-0.195,0.035-0.35,0.15-0.35,0.449v1.15l0.1,0.1
		c0,0,4.05-0.1,5.85-0.1c1.95,0,6,0.1,6,0.1l0.1-0.1v-1.15c0-0.299-0.205-0.404-0.399-0.449l-0.5-0.1
		c-1.48-0.295-2.351-0.75-2.351-2.15V262.837z M565.311,250.751v24.301c0,1.4-0.82,1.885-2.4,2.15l-0.6,0.1
		c-0.245,0.039-0.4,0.15-0.4,0.449v1.15l0.1,0.1c0,0,4.2-0.1,5.95-0.1c1.95,0,6.149,0.1,6.149,0.1l0.101-0.1v-1.15
		c0-0.299-0.205-0.414-0.4-0.449l-0.55-0.1c-1.629-0.295-2.45-0.75-2.45-2.15v-25.301c0-3.25,0.15-5.25,0.15-5.25
		c0-0.35-0.351-0.5-0.8-0.5c-1.255,0.5-6.375,1.15-8.4,1.301l0.15,1.449c0.016,0.15,0.141,0.24,0.3,0.25l1.6,0.101
		C564.811,247.102,565.311,247.501,565.311,250.751 M550.36,274.651c-1.25,1-3,2-3.899,2c-2.4,0-3.15-1.5-3.15-3.25
		c0-2.049,0.685-3.549,4.2-4.6l2.85-0.85V274.651z M550.311,276.501h0.1c0.6,1.926,1.9,2.9,4.9,2.9c2.75,0,4.65-2.15,4.65-2.4
		c0-0.35-0.45-1-0.65-1c-0.29,0-0.34,0.801-1.55,0.801c-1.95,0-2-1.9-2-4.199v-7.25c0-7.201-4.1-8.65-8.2-8.65
		c-3.65,0-8.9,2.6-8.9,5.6c0,1.301,0.55,2.1,2.35,2.1c1.4,0,2.6-1.199,2.6-1.9c0-0.6-0.299-1.148-0.299-2.148
		c0-1.102,1.65-1.75,3.549-1.75c2.101,0,3.5,1.1,3.5,7.449l-3.6,1.051c-5.155,1.504-8.7,3.1-8.7,7.049c0,3.451,1.65,5.25,6,5.25
		C546.161,279.401,548.386,278.177,550.311,276.501 M531.36,273.151v-11.949c0-2.025,0.101-4.1,0.101-4.1s-1.95,0.1-3,0.1
		c-1.351,0-5.55-0.1-5.55-0.1l-0.2,0.1v1.5l0.2,0.1l1.55,0.1c0.899,0,1.399,0.801,1.399,2.4v13.75c-1.85,1.6-3.949,1.85-5.049,1.85
		c-1.05,0-2.701-0.9-2.701-5.1v-10.6c0-1.85,0.051-4.1,0.051-4.1s-2.2,0.1-2.9,0.1c-1.6,0-5.55-0.1-5.55-0.1l-0.25,0.1v1.5l0.15,0.1
		l1.55,0.1c1.17,0.076,1.449,0.9,1.449,2.4v11.199c0,3.5,1.15,6.9,6.951,6.9c1.85,0,4.1-0.75,6.45-2.25l-0.15,2.35h1.701
		c1.299-0.75,2.5-1.398,7.049-2l-0.049-1.549C531.86,275.802,531.36,274.651,531.36,273.151 M489.562,271.603
		c0.351,2.6,0.601,4.799,0.601,7.199c2.6-0.051,4.75,0.6,7.149,0.6c3.851,0,8.65-1.699,8.65-6.449c0-3.9-3.545-6.076-7.85-7.65
		c-2.051-0.75-2.75-1.9-2.75-3.65c0-2,1.449-2.85,2.8-2.85c2.25,0,3.85,1.15,4.85,4.65l1.95-0.25c-0.15-1.801-0.35-3.6-0.55-5.1
		c-1.95-0.951-3.65-1.4-6.4-1.4c-4.55,0-7.8,2.699-7.8,6.15c0,4,4.4,6.549,6.9,7.449c2.75,0.949,3.3,1.949,3.3,3.9
		c0,2.299-1.601,3.25-2.95,3.25c-3.75,0-5-1.65-5.9-5.951L489.562,271.603z M477.662,250.353c0,1.648,1.35,3,3,3
		c1.649,0,3-1.352,3-3c0-1.65-1.351-3-3-3C479.012,247.352,477.662,248.702,477.662,250.353 M483.462,262.837
		c0-2.5,0.15-6.135,0.15-6.135c0-0.121-0.229-0.15-0.35-0.15c-1.575,0.5-5.075,1.025-8.55,1.5l0.1,1.5l2.051,0.199
		c0.699,0.051,1.1,0.602,1.1,3.102v12.199c0,1.4-0.8,1.891-2.35,2.15l-0.6,0.1c-0.195,0.035-0.35,0.15-0.35,0.449v1.15l0.1,0.1
		c0,0,4.049-0.1,5.85-0.1c1.949,0,6,0.1,6,0.1l0.1-0.1v-1.15c0-0.299-0.204-0.404-0.4-0.449l-0.5-0.1
		c-1.479-0.295-2.35-0.75-2.35-2.15V262.837z M461.963,248.251c3.25,0,3.6,0.451,2.799,2.551l-6.5,17.449l-0.6,1.4l-0.55-1.549
		l-6.25-17.801c-0.55-1.551,0.399-2.051,3.55-2.051c0.25,0,0.4-0.148,0.4-0.399v-1.2l-0.1-0.05c0,0-5.4,0.05-7.201,0.05
		c-1.95,0-6.799-0.05-6.799-0.05l-0.1,0.05v1.2c0,0.25,0.2,0.399,0.399,0.399c2.55,0,3.15,0.65,4,2.951l9.5,27.15
		c0.25,0.75,1.101,1.148,1.65,1.148c0.5,0,1.4-0.398,1.7-1.148l10.05-26.9c1-2.65,1.35-3.201,4.15-3.201c0.25,0,0.4-0.148,0.4-0.399
		v-1.2l-0.1-0.05c0,0-2.601,0.05-4.4,0.05c-1.951,0-6.3-0.05-6.3-0.05l-0.1,0.05v1.2
		C461.563,248.103,461.763,248.251,461.963,248.251"/>
</g>
</svg>
