<?xml version="1.0" encoding="utf-8"?>
<!-- Generator: Adobe Illustrator 16.0.0, SVG Export Plug-In . SVG Version: 6.00 Build 0)  -->
<!DOCTYPE svg PUBLIC "-//W3C//DTD SVG 1.1//EN" "http://www.w3.org/Graphics/SVG/1.1/DTD/svg11.dtd">
<svg version="1.1" id="Layer_1" xmlns="http://www.w3.org/2000/svg" xmlns:xlink="http://www.w3.org/1999/xlink" x="0px" y="0px"
	 width="1170.09px" height="505.192px" viewBox="0 0 1170.09 505.192" enable-background="new 0 0 1170.09 505.192"
	 xml:space="preserve">
<g>
	<defs>
		<rect id="SVGID_93_" x="0.002" width="1170.088" height="505.192"/>
	</defs>
	<clipPath id="SVGID_2_">
		<use xlink:href="#SVGID_93_"  overflow="visible"/>
	</clipPath>
	<path clip-path="url(#SVGID_2_)" fill="#0046F9" d="M1046.397,129.507c2.828,1.396,5.657,2.614,8.486,3.652
		c2.829,1.039,5.702,1.899,8.621,2.578c2.918,0.681,5.908,1.189,8.97,1.531c3.061,0.34,6.239,0.51,9.533,0.51
		c6.875,0,12.918-0.671,18.128-2.014c5.21-1.344,9.569-3.223,13.078-5.64s6.149-5.291,7.923-8.621
		c1.771-3.33,2.659-6.964,2.659-10.902c0-5.801-1.845-10.743-5.533-14.825s-9.022-7.286-16.006-9.614l-6.445-2.148
		c-2.22-0.752-4.073-1.477-5.559-2.176c-1.486-0.697-2.686-1.396-3.6-2.094c-0.913-0.699-1.557-1.414-1.933-2.148
		c-0.376-0.733-0.564-1.494-0.564-2.283c0-0.895,0.224-1.799,0.672-2.713c0.447-0.912,1.109-1.735,1.987-2.471
		c0.877-0.732,1.96-1.324,3.249-1.771s2.793-0.672,4.512-0.672c1.003,0,2.112,0.09,3.33,0.269c1.218,0.181,2.461,0.448,3.733,0.806
		c1.271,0.358,2.542,0.806,3.813,1.344c1.271,0.537,2.479,1.164,3.626,1.879l5.801-10.473c-1.577-0.717-3.403-1.441-5.479-2.176
		s-4.359-1.388-6.848-1.961c-2.489-0.572-5.148-1.038-7.977-1.396c-2.828-0.357-5.782-0.537-8.862-0.537
		c-6.23,0-11.664,0.752-16.301,2.256c-4.638,1.504-8.479,3.518-11.521,6.043c-3.044,2.523-5.317,5.443-6.821,8.755
		s-2.256,6.759-2.256,10.339c0,5.551,1.737,10.34,5.21,14.368c3.474,4.028,8.648,7.224,15.523,9.587l9.614,3.277
		c1.86,0.644,3.373,1.298,4.537,1.96c1.164,0.663,2.077,1.325,2.74,1.986c0.662,0.663,1.109,1.336,1.342,2.015
		c0.233,0.681,0.35,1.343,0.35,1.987c0,2.041-0.958,3.652-2.873,4.835c-1.916,1.181-4.934,1.771-9.05,1.771
		c-3.581,0-7.448-0.483-11.603-1.45s-8.129-2.417-11.924-4.351L1046.397,129.507z M942.635,136.543h11.816V94.165l50.703,42.378
		h19.443V56.729h-11.816l-0.054,42.539l-50.649-42.539h-19.443V136.543z M868.708,125.532c-1.665-0.752-3.054-2.22-4.162-4.404
		c-1.11-2.184-1.952-5.245-2.525-9.185c-0.573-3.938-0.858-9.094-0.858-15.469c0-6.301,0.285-11.404,0.858-15.308
		c0.573-3.901,1.415-6.929,2.525-9.077c1.108-2.148,2.497-3.599,4.162-4.351s3.571-1.128,5.721-1.128
		c2.148,0,4.046,0.376,5.693,1.128c1.646,0.752,3.024,2.202,4.136,4.351c1.109,2.148,1.951,5.176,2.523,9.077
		c0.573,3.903,0.859,9.007,0.859,15.308c0,6.375-0.286,11.53-0.859,15.469c-0.572,3.939-1.414,7.001-2.523,9.185
		c-1.111,2.185-2.489,3.652-4.136,4.404c-1.647,0.752-3.545,1.128-5.693,1.128C872.279,126.66,870.373,126.284,868.708,125.532
		 M831.46,113.286c1.933,5.085,4.814,9.437,8.646,13.052c3.831,3.617,8.612,6.429,14.341,8.434
		c5.729,2.004,12.39,3.007,19.981,3.007c7.59,0,14.251-1.003,19.98-3.007c5.729-2.005,10.509-4.816,14.341-8.434
		c3.831-3.615,6.714-7.967,8.646-13.052c1.935-5.084,2.901-10.688,2.901-16.812c0-6.051-0.967-11.592-2.901-16.623
		c-1.933-5.03-4.815-9.354-8.646-12.971c-3.832-3.617-8.612-6.428-14.341-8.434c-5.729-2.005-12.391-3.008-19.98-3.008
		c-7.592,0-14.252,1.003-19.981,3.008c-5.729,2.006-10.51,4.816-14.341,8.434c-3.832,3.616-6.714,7.94-8.646,12.971
		c-1.935,5.031-2.901,10.572-2.901,16.623C828.559,102.598,829.525,108.202,831.46,113.286 M775.124,136.543h31.044l0.054-79.814
		h-31.098V136.543z M703.05,136.543h31.045V68.975h22.773V56.676h-76.593v12.299h22.774V136.543z M630.923,136.543h31.044
		l0.054-79.814h-31.098V136.543z M552.941,68.438c3.509,0,6.687,0.511,9.533,1.531c2.848,1.021,5.272,2.65,7.278,4.888
		c2.005,2.237,3.545,5.112,4.619,8.62c1.076,3.51,1.612,7.752,1.612,12.729c0,5.015-0.529,9.319-1.585,12.918
		c-1.056,3.599-2.578,6.562-4.564,8.889c-1.988,2.328-4.414,4.048-7.278,5.156c-2.865,1.11-6.088,1.665-9.668,1.665L552.941,68.438z
		 M521.842,136.543h32.817c9.239,0,17.242-1.038,24.009-3.115c6.768-2.075,12.371-4.932,16.812-8.566
		c4.439-3.634,7.734-7.896,9.883-12.783c2.148-4.888,3.223-10.16,3.223-15.818c0-6.338-1.074-11.959-3.223-16.865
		c-2.148-4.905-5.443-9.041-9.883-12.407c-4.441-3.365-10.044-5.916-16.812-7.653c-6.767-1.736-14.771-2.605-24.009-2.605h-32.817
		V136.543z M431.829,136.543h67.46v-12.3h-36.416v-21.377h27.823v-12.3h-27.823l0.055-21.538h36.361v-12.3h-67.46V136.543z"/>
	<path clip-path="url(#SVGID_2_)" fill="#231F20" d="M1088.062,319.226c1.055,2.369,2.444,4.428,4.17,6.178
		c1.725,1.751,3.784,3.153,6.179,4.209s4.955,1.584,7.685,1.584c2.626,0,5.148-0.528,7.569-1.584
		c2.419-1.056,4.504-2.458,6.255-4.209c1.75-1.75,3.154-3.809,4.21-6.178c1.054-2.368,1.583-4.917,1.583-7.646
		c0-2.626-0.529-5.147-1.583-7.568c-1.056-2.419-2.46-4.505-4.21-6.256c-1.751-1.749-3.836-3.153-6.255-4.209
		c-2.421-1.056-4.943-1.583-7.569-1.583c-2.729,0-5.29,0.527-7.685,1.583s-4.454,2.46-6.179,4.209
		c-1.726,1.751-3.115,3.837-4.17,6.256c-1.057,2.421-1.584,4.942-1.584,7.568C1086.479,314.309,1087.006,316.857,1088.062,319.226
		 M1016.124,235.66c2.213,0.413,4.132,1.146,5.754,2.201c1.622,1.057,2.935,2.485,3.939,4.286c1.004,1.803,1.506,4.017,1.506,6.642
		c0,3.399-1.264,6.36-3.785,8.883c-2.523,2.522-6.333,3.783-11.43,3.783h-5.484v16.761h5.484c2.11,0,4.221,0.258,6.333,0.771
		c2.11,0.516,3.988,1.326,5.638,2.434c1.646,1.107,2.973,2.562,3.977,4.362c1.004,1.804,1.507,3.966,1.507,6.488
		c0,5.097-1.688,9.011-5.059,11.739c-3.373,2.729-8.664,4.093-15.871,4.093c-8.754,0-15.705-1.57-20.853-4.711
		c3.14-0.978,6.011-2.626,8.61-4.943c2.601-2.316,3.901-5.638,3.901-9.962c0-1.596-0.323-3.256-0.966-4.981
		c-0.645-1.725-1.674-3.309-3.089-4.75c-1.417-1.441-3.31-2.626-5.678-3.553s-5.303-1.391-8.804-1.391
		c-2.729,0-5.329,0.464-7.801,1.391c-2.471,0.927-4.633,2.317-6.487,4.17c-1.854,1.854-3.309,4.159-4.364,6.912
		c-1.056,2.755-1.582,5.858-1.582,9.308c0,4.325,0.978,8.599,2.935,12.819c1.956,4.224,5.123,7.994,9.499,11.315
		s10.066,6.037,17.069,8.148c7.001,2.109,15.522,3.165,25.562,3.165c10.555,0,19.463-1.004,26.723-3.012s13.13-4.568,17.608-7.684
		c4.48-3.115,7.697-6.59,9.654-10.427c1.956-3.836,2.935-7.607,2.935-11.314c0-8.65-2.664-15.265-7.993-19.849
		c-5.329-4.582-12.318-7.388-20.969-8.418v-0.851c8.65-1.439,15.111-4.35,19.385-8.727c4.274-4.375,6.411-10.168,6.411-17.377
		c0-5.767-1.533-10.631-4.596-14.598c-3.064-3.964-7.093-7.155-12.086-9.575c-4.995-2.421-10.71-4.133-17.146-5.137
		s-12.975-1.506-19.616-1.506c-8.032,0-15.267,0.76-21.702,2.278c-6.438,1.519-11.92,3.707-16.45,6.564
		c-4.531,2.857-8.007,6.27-10.426,10.233c-2.422,3.965-3.631,8.368-3.631,13.207c0,3.45,0.553,6.448,1.66,8.997
		s2.613,4.686,4.519,6.41c1.903,1.726,4.094,3.012,6.564,3.861c2.472,0.85,5.071,1.274,7.801,1.274
		c5.715,0,10.052-1.235,13.014-3.707c2.96-2.471,4.44-5.766,4.44-9.886c0-2.213-0.373-4.055-1.119-5.522
		c-0.747-1.467-1.675-2.626-2.781-3.475c-1.107-0.851-2.316-1.493-3.629-1.932c-1.313-0.437-2.51-0.706-3.592-0.811
		c1.286-1.029,3.218-2.124,5.793-3.282c2.573-1.159,6.513-1.737,11.815-1.737C1011.593,235.043,1013.91,235.249,1016.124,235.66"/>
	<path clip-path="url(#SVGID_2_)" fill="#231F20" d="M656.056,448.443c-1.37,0.985-2.057,2.363-2.057,4.131
		c0,1.179,0.318,2.125,0.952,2.839c0.635,0.714,1.496,1.355,2.584,1.921c0.431,0.228,1.025,0.477,1.785,0.748
		c0.76,0.272,1.298,0.517,1.615,0.731c0.317,0.216,0.476,0.516,0.476,0.9c0,0.839-0.623,1.259-1.87,1.259
		c-0.566,0-1.235-0.188-2.006-0.562s-1.303-0.668-1.598-0.884c-0.295-0.215-0.532-0.402-0.715-0.562l-2.447,4.114l0.748,0.612
		c0.499,0.386,1.309,0.771,2.431,1.156c1.122,0.385,2.307,0.577,3.553,0.577c5.508,0,8.263-1.982,8.263-5.949
		c0-0.839-0.158-1.586-0.477-2.244c-0.317-0.657-0.765-1.201-1.343-1.632s-1.127-0.771-1.649-1.021
		c-0.521-0.249-1.133-0.476-1.836-0.68c-0.113-0.022-0.276-0.068-0.493-0.136c-0.215-0.068-0.367-0.119-0.459-0.153
		c-0.09-0.034-0.226-0.085-0.407-0.153c-0.182-0.067-0.312-0.119-0.392-0.152c-0.079-0.034-0.187-0.086-0.323-0.153
		c-0.136-0.068-0.231-0.13-0.289-0.188c-0.056-0.056-0.118-0.124-0.187-0.204c-0.068-0.078-0.113-0.163-0.136-0.255
		c-0.022-0.09-0.034-0.181-0.034-0.271c0-0.408,0.142-0.686,0.425-0.833c0.284-0.147,0.766-0.221,1.445-0.221
		c1.224,0,2.516,0.362,3.876,1.088l1.972-3.944l-0.714-0.34c-0.476-0.227-1.201-0.453-2.176-0.681
		c-0.975-0.226-1.96-0.34-2.958-0.34C659.281,446.964,657.428,447.457,656.056,448.443 M637.067,464.916v-9.859
		c0-0.861,0.368-1.644,1.105-2.347c0.737-0.702,1.558-1.054,2.465-1.054c0.93,0,1.684,0.34,2.262,1.02
		c0.577,0.681,0.866,1.475,0.866,2.381v9.859h6.019v-11.492c0-1.155-0.244-2.17-0.731-3.043c-0.486-0.872-1.122-1.547-1.903-2.022
		c-0.782-0.477-1.599-0.827-2.448-1.055c-0.851-0.226-1.706-0.34-2.567-0.34c-1.768,0-3.434,0.782-4.998,2.347h-0.068v-1.836h-6.018
		v17.441H637.067z M617.177,452.099c1.133,0,2.091,0.386,2.873,1.155c0.782,0.771,1.173,1.757,1.173,2.958
		c0,1.18-0.38,2.154-1.139,2.924c-0.759,0.771-1.729,1.156-2.907,1.156c-1.224,0-2.21-0.379-2.958-1.139
		c-0.749-0.759-1.123-1.739-1.123-2.941c0-1.201,0.392-2.187,1.173-2.958C615.052,452.484,616.021,452.099,617.177,452.099
		 M617.211,465.426c3.015,0,5.502-0.866,7.463-2.601c1.961-1.734,2.941-3.938,2.941-6.613c0-2.674-1.003-4.884-3.01-6.63
		c-2.005-1.745-4.47-2.618-7.395-2.618c-2.969,0-5.463,0.867-7.48,2.602c-2.017,1.733-3.026,3.95-3.026,6.646
		c0,2.698,0.969,4.908,2.907,6.63C611.55,464.565,614.083,465.426,617.211,465.426 M603.034,464.916h-6.018v-17.441h6.018V464.916z
		 M596.54,440.267c0,0.975,0.351,1.813,1.054,2.516c0.702,0.703,1.541,1.054,2.516,1.054c0.974,0,1.813-0.351,2.516-1.054
		c0.702-0.702,1.054-1.541,1.054-2.516s-0.352-1.813-1.054-2.517c-0.703-0.702-1.542-1.054-2.516-1.054
		c-0.975,0-1.814,0.352-2.516,1.054C596.891,438.453,596.54,439.292,596.54,440.267 M581.41,447.475v4.59h2.516v6.697
		c0,0.84,0.09,1.628,0.272,2.363c0.181,0.737,0.481,1.44,0.9,2.108c0.419,0.669,1.038,1.202,1.854,1.598
		c0.816,0.396,1.79,0.595,2.924,0.595c1.654,0,3.128-0.362,4.42-1.088l-1.496-4.861l-0.204,0.136
		c-0.136,0.091-0.329,0.182-0.578,0.271c-0.25,0.092-0.488,0.137-0.714,0.137c-0.907,0-1.36-0.805-1.36-2.414v-5.542h3.672v-4.59
		h-3.672v-6.494h-6.019v6.494H581.41z M569.136,460.292c-1.134,0-2.091-0.385-2.874-1.156c-0.782-0.77-1.173-1.756-1.173-2.958
		c0-1.178,0.379-2.152,1.139-2.924c0.759-0.77,1.728-1.155,2.907-1.155c1.224,0,2.21,0.38,2.958,1.139
		c0.748,0.76,1.122,1.74,1.122,2.94c0,1.202-0.391,2.188-1.173,2.958C571.261,459.907,570.292,460.292,569.136,460.292
		 M570.938,446.964c-2.312,0-4.215,0.828-5.711,2.482h-0.068v-1.972h-5.95v26.281h6.018V463.25c1.496,1.451,3.4,2.176,5.711,2.176
		c2.517,0,4.591-0.895,6.223-2.686c1.632-1.79,2.447-3.979,2.447-6.562s-0.815-4.765-2.447-6.545
		C575.528,447.854,573.454,446.964,570.938,446.964 M554.278,464.916h-6.019v-17.441h6.019V464.916z M547.785,440.267
		c0,0.975,0.351,1.813,1.054,2.516c0.702,0.703,1.541,1.054,2.516,1.054c0.974,0,1.813-0.351,2.516-1.054
		c0.702-0.702,1.053-1.541,1.053-2.516s-0.351-1.813-1.053-2.517c-0.703-0.702-1.542-1.054-2.516-1.054
		c-0.975,0-1.814,0.352-2.516,1.054C548.136,438.453,547.785,439.292,547.785,440.267 M536.667,464.916v-9.18
		c0-0.181,0.045-0.43,0.136-0.748c0.09-0.317,0.243-0.702,0.459-1.156c0.215-0.453,0.583-0.838,1.105-1.156
		c0.521-0.316,1.144-0.476,1.87-0.476c1.337,0,2.38,0.318,3.128,0.952l2.516-5.101l-0.476-0.271
		c-0.295-0.181-0.76-0.362-1.394-0.544c-0.635-0.181-1.282-0.272-1.938-0.272c-0.636,0-1.258,0.108-1.87,0.323
		c-0.612,0.216-1.111,0.459-1.496,0.731c-0.386,0.271-0.748,0.577-1.088,0.918c-0.34,0.34-0.561,0.578-0.663,0.714
		s-0.176,0.25-0.221,0.34h-0.068v-2.516h-6.018v17.441H536.667z M525.549,452.71l2.04-4.114l-0.578-0.407
		c-0.408-0.272-1.1-0.544-2.074-0.816c-0.975-0.271-2.04-0.408-3.196-0.408c-2.562,0-4.811,0.913-6.749,2.737
		c-1.938,1.825-2.907,4.007-2.907,6.545c0,2.516,0.969,4.675,2.907,6.478c1.938,1.802,4.187,2.702,6.749,2.702
		c1.156,0,2.238-0.147,3.247-0.441c1.008-0.294,1.654-0.527,1.938-0.697c0.283-0.17,0.504-0.311,0.663-0.425l-2.04-4.182
		l-0.306,0.203c-0.227,0.137-0.584,0.272-1.071,0.408c-0.488,0.136-1.003,0.204-1.547,0.204c-1.134,0-2.108-0.419-2.924-1.258
		c-0.816-0.838-1.224-1.858-1.224-3.061c0-1.178,0.408-2.187,1.224-3.025c0.816-0.838,1.79-1.258,2.924-1.258
		C523.826,451.895,524.801,452.166,525.549,452.71 M497.958,448.443c-1.371,0.985-2.057,2.363-2.057,4.131
		c0,1.179,0.318,2.125,0.952,2.839c0.635,0.714,1.496,1.355,2.584,1.921c0.431,0.228,1.026,0.477,1.785,0.748
		c0.759,0.272,1.298,0.517,1.615,0.731c0.318,0.216,0.476,0.516,0.476,0.9c0,0.839-0.624,1.259-1.87,1.259
		c-0.566,0-1.235-0.188-2.006-0.562c-0.77-0.374-1.303-0.668-1.598-0.884c-0.294-0.215-0.532-0.402-0.714-0.562l-2.448,4.114
		l0.748,0.612c0.499,0.386,1.309,0.771,2.431,1.156c1.123,0.385,2.308,0.577,3.554,0.577c5.508,0,8.262-1.982,8.262-5.949
		c0-0.839-0.158-1.586-0.476-2.244c-0.317-0.657-0.765-1.201-1.343-1.632c-0.579-0.431-1.127-0.771-1.649-1.021
		c-0.521-0.249-1.133-0.476-1.836-0.68c-0.113-0.022-0.277-0.068-0.493-0.136c-0.215-0.068-0.368-0.119-0.459-0.153
		c-0.09-0.034-0.226-0.085-0.408-0.153c-0.181-0.067-0.311-0.119-0.391-0.152c-0.079-0.034-0.187-0.086-0.323-0.153
		c-0.136-0.068-0.232-0.13-0.289-0.188c-0.056-0.056-0.119-0.124-0.187-0.204c-0.068-0.078-0.113-0.163-0.136-0.255
		c-0.021-0.09-0.034-0.181-0.034-0.271c0-0.408,0.142-0.686,0.425-0.833s0.765-0.221,1.445-0.221c1.224,0,2.516,0.362,3.876,1.088
		l1.972-3.944l-0.714-0.34c-0.476-0.227-1.201-0.453-2.176-0.681c-0.974-0.226-1.96-0.34-2.958-0.34
		C501.183,446.964,499.33,447.457,497.958,448.443 M478.969,464.916v-9.859c0-0.861,0.368-1.644,1.105-2.347
		c0.737-0.702,1.558-1.054,2.465-1.054c0.929,0,1.683,0.34,2.261,1.02c0.578,0.681,0.867,1.475,0.867,2.381v9.859h6.018v-11.492
		c0-1.155-0.244-2.17-0.731-3.043c-0.487-0.872-1.122-1.547-1.904-2.022c-0.782-0.477-1.598-0.827-2.448-1.055
		c-0.85-0.226-1.706-0.34-2.567-0.34c-1.768,0-3.434,0.782-4.998,2.347h-0.068v-1.836h-6.018v17.441H478.969z M458.263,452.099
		c1.133,0,2.091,0.386,2.874,1.155c0.782,0.771,1.173,1.757,1.173,2.958c0,1.18-0.38,2.154-1.139,2.924
		c-0.759,0.771-1.729,1.156-2.907,1.156c-1.224,0-2.209-0.379-2.958-1.139c-0.748-0.759-1.122-1.739-1.122-2.941
		c0-1.201,0.392-2.187,1.173-2.958C456.138,452.484,457.107,452.099,458.263,452.099 M456.461,465.426
		c2.312,0,4.216-0.826,5.712-2.481h0.068v1.972h5.95v-17.441h-6.018v1.666c-1.496-1.45-3.4-2.177-5.712-2.177
		c-2.516,0-4.59,0.896-6.222,2.687c-1.632,1.791-2.448,3.978-2.448,6.562s0.816,4.767,2.448,6.545
		C451.871,464.537,453.945,465.426,456.461,465.426 M437.728,464.916v-9.18c0-0.181,0.045-0.43,0.136-0.748
		c0.09-0.317,0.243-0.702,0.459-1.156c0.215-0.453,0.583-0.838,1.105-1.156c0.521-0.316,1.144-0.476,1.87-0.476
		c1.337,0,2.38,0.318,3.128,0.952l2.515-5.101l-0.476-0.271c-0.295-0.181-0.76-0.362-1.394-0.544
		c-0.635-0.181-1.281-0.272-1.938-0.272c-0.635,0-1.258,0.108-1.87,0.323c-0.612,0.216-1.111,0.459-1.496,0.731
		c-0.386,0.271-0.748,0.577-1.088,0.918c-0.34,0.34-0.561,0.578-0.663,0.714s-0.176,0.25-0.221,0.34h-0.068v-2.516h-6.018v17.441
		H437.728z M416.104,447.475v4.59h2.516v6.697c0,0.84,0.09,1.628,0.272,2.363c0.181,0.737,0.481,1.44,0.901,2.108
		c0.419,0.669,1.037,1.202,1.853,1.598c0.816,0.396,1.79,0.595,2.924,0.595c1.654,0,3.128-0.362,4.42-1.088l-1.496-4.861
		l-0.204,0.136c-0.136,0.091-0.329,0.182-0.578,0.271c-0.25,0.092-0.488,0.137-0.714,0.137c-0.907,0-1.36-0.805-1.36-2.414v-5.542
		h3.672v-4.59h-3.672v-6.494h-6.018v6.494H416.104z"/>
	<path clip-path="url(#SVGID_2_)" fill="#231F20" d="M1117.279,403.095c1.134,0,2.091,0.386,2.873,1.156
		c0.781,0.771,1.173,1.757,1.173,2.957c0,1.18-0.379,2.154-1.14,2.925c-0.759,0.771-1.728,1.155-2.906,1.155
		c-1.225,0-2.21-0.379-2.958-1.139c-0.748-0.759-1.122-1.739-1.122-2.941c0-1.2,0.391-2.187,1.173-2.957
		S1116.123,403.095,1117.279,403.095 M1116.939,425.263c3.082,0,5.564-0.771,7.445-2.312c1.882-1.542,2.822-3.729,2.822-6.562
		v-17.918h-6.018v1.563h-0.103c-1.496-1.382-3.366-2.073-5.61-2.073c-2.516,0-4.59,0.896-6.222,2.686
		c-1.632,1.791-2.448,3.978-2.448,6.562c0,2.585,0.816,4.767,2.448,6.546s3.706,2.669,6.222,2.669c2.743,0,4.647-0.59,5.713-1.769
		v1.292c0,1.382-0.447,2.408-1.344,3.077c-0.895,0.668-1.863,1.003-2.906,1.003c-2.244,0-3.819-0.748-4.727-2.244l-4.93,2.414
		C1108.734,423.573,1111.953,425.263,1116.939,425.263 M1090.93,415.912v-9.859c0-0.861,0.368-1.644,1.105-2.347
		c0.736-0.701,1.558-1.054,2.464-1.054c0.93,0,1.684,0.34,2.261,1.021c0.579,0.68,0.868,1.474,0.868,2.38v9.859h6.017v-11.491
		c0-1.156-0.242-2.17-0.73-3.043c-0.487-0.872-1.121-1.548-1.904-2.023c-0.781-0.476-1.597-0.827-2.447-1.054
		c-0.85-0.227-1.705-0.34-2.566-0.34c-1.77,0-3.436,0.781-4.998,2.346h-0.068v-1.836h-6.018v17.441H1090.93z M1079.982,415.912
		h-6.019v-17.441h6.019V415.912z M1073.488,391.263c0,0.975,0.351,1.813,1.054,2.516c0.702,0.703,1.541,1.054,2.516,1.054
		s1.813-0.351,2.517-1.054c0.702-0.702,1.054-1.541,1.054-2.516s-0.352-1.813-1.054-2.517c-0.703-0.701-1.542-1.054-2.517-1.054
		s-1.813,0.353-2.516,1.054C1073.839,389.449,1073.488,390.288,1073.488,391.263 M1062.37,415.912v-9.18
		c0-0.181,0.046-0.43,0.136-0.748c0.091-0.316,0.244-0.702,0.46-1.156c0.215-0.452,0.583-0.838,1.105-1.155
		c0.521-0.317,1.144-0.477,1.869-0.477c1.338,0,2.381,0.318,3.128,0.952l2.516-5.1l-0.476-0.272
		c-0.294-0.181-0.76-0.362-1.395-0.544c-0.634-0.181-1.28-0.271-1.938-0.271c-0.635,0-1.257,0.107-1.87,0.322
		c-0.612,0.216-1.11,0.459-1.496,0.731c-0.385,0.271-0.748,0.578-1.088,0.918s-0.562,0.578-0.663,0.714
		c-0.103,0.136-0.175,0.25-0.222,0.34h-0.067v-2.516h-6.019v17.441H1062.37z M1041.664,403.095c1.134,0,2.091,0.386,2.874,1.156
		c0.782,0.771,1.172,1.757,1.172,2.957c0,1.18-0.379,2.154-1.139,2.925c-0.759,0.771-1.729,1.155-2.907,1.155
		c-1.224,0-2.209-0.379-2.958-1.139c-0.748-0.759-1.122-1.739-1.122-2.941c0-1.2,0.393-2.187,1.174-2.957
		S1040.508,403.095,1041.664,403.095 M1039.862,416.423c2.312,0,4.217-0.827,5.712-2.482h0.068v1.972h5.949v-17.441h-6.018v1.666
		c-1.495-1.45-3.399-2.176-5.712-2.176c-2.517,0-4.591,0.896-6.223,2.686c-1.632,1.791-2.447,3.978-2.447,6.562
		c0,2.585,0.815,4.767,2.447,6.546S1037.346,416.423,1039.862,416.423 M1018.477,411.288c-1.134,0-2.091-0.385-2.873-1.155
		s-1.174-1.756-1.174-2.958c0-1.179,0.381-2.153,1.14-2.924c0.76-0.771,1.729-1.156,2.907-1.156c1.225,0,2.209,0.38,2.959,1.139
		c0.747,0.76,1.12,1.74,1.12,2.941c0,1.202-0.391,2.188-1.173,2.958C1020.602,410.903,1019.633,411.288,1018.477,411.288
		 M1020.279,397.961c-2.313,0-4.216,0.827-5.713,2.481h-0.068v-1.972h-5.95v26.282h6.019v-10.507
		c1.497,1.451,3.399,2.177,5.713,2.177c2.516,0,4.589-0.896,6.221-2.687c1.633-1.79,2.448-3.978,2.448-6.562
		s-0.815-4.766-2.448-6.545C1024.868,398.851,1022.795,397.961,1020.279,397.961 M980.397,415.912v-10.199
		c0-0.793,0.231-1.479,0.696-2.058c0.464-0.578,1.161-0.867,2.092-0.867c1.02,0,1.784,0.312,2.295,0.936
		c0.51,0.624,0.765,1.399,0.765,2.329v9.859h6.018v-10.403c0.045-0.748,0.301-1.389,0.766-1.921c0.464-0.532,1.139-0.8,2.022-0.8
		c1.021,0,1.785,0.312,2.295,0.936c0.511,0.624,0.766,1.399,0.766,2.329v9.859h6.018v-11.491c0-2.222-0.669-3.854-2.006-4.896
		c-1.338-1.042-2.936-1.563-4.794-1.563c-2.086,0-4.012,1.065-5.78,3.195c-0.566-1.088-1.406-1.892-2.516-2.414
		c-1.111-0.521-2.301-0.781-3.57-0.781c-1.768,0-3.434,0.781-4.998,2.346h-0.067v-1.836h-6.019v17.441H980.397z M960.507,403.095
		c1.133,0,2.091,0.386,2.873,1.156s1.173,1.757,1.173,2.957c0,1.18-0.38,2.154-1.139,2.925c-0.76,0.771-1.729,1.155-2.907,1.155
		c-1.224,0-2.21-0.379-2.958-1.139c-0.748-0.759-1.122-1.739-1.122-2.941c0-1.2,0.392-2.187,1.173-2.957
		C958.382,403.48,959.352,403.095,960.507,403.095 M960.541,416.423c3.014,0,5.502-0.867,7.463-2.602
		c1.96-1.733,2.941-3.938,2.941-6.613c0-2.674-1.003-4.884-3.01-6.63c-2.006-1.745-4.471-2.617-7.395-2.617
		c-2.97,0-5.463,0.866-7.48,2.601s-3.025,3.95-3.025,6.646c0,2.698,0.969,4.908,2.907,6.631
		C954.88,415.562,957.413,416.423,960.541,416.423 M946.125,403.706l2.04-4.113l-0.578-0.408c-0.408-0.272-1.099-0.544-2.074-0.816
		c-0.975-0.271-2.04-0.407-3.195-0.407c-2.562,0-4.812,0.912-6.749,2.736c-1.938,1.825-2.907,4.007-2.907,6.545
		c0,2.517,0.969,4.676,2.907,6.478c1.938,1.802,4.188,2.703,6.749,2.703c1.155,0,2.237-0.148,3.247-0.442
		c1.009-0.294,1.654-0.527,1.938-0.697s0.504-0.311,0.663-0.425l-2.04-4.182l-0.306,0.204c-0.228,0.136-0.584,0.271-1.071,0.407
		c-0.487,0.137-1.003,0.204-1.547,0.204c-1.133,0-2.108-0.419-2.924-1.258c-0.816-0.838-1.225-1.857-1.225-3.06
		c0-1.179,0.408-2.188,1.225-3.026c0.815-0.838,1.791-1.258,2.924-1.258C944.402,402.891,945.377,403.162,946.125,403.706
		 M909.27,403.095c1.134,0,2.091,0.386,2.872,1.156c0.782,0.771,1.174,1.757,1.174,2.957c0,1.18-0.38,2.154-1.14,2.925
		c-0.759,0.771-1.728,1.155-2.906,1.155c-1.225,0-2.211-0.379-2.959-1.139c-0.747-0.759-1.121-1.739-1.121-2.941
		c0-1.2,0.391-2.187,1.173-2.957S908.113,403.095,909.27,403.095 M907.467,416.423c2.312,0,4.216-0.827,5.712-2.482h0.068v1.972
		h5.95v-29.239h-6.019v13.464c-1.496-1.45-3.399-2.176-5.712-2.176c-2.516,0-4.59,0.896-6.222,2.686
		c-1.632,1.791-2.448,3.978-2.448,6.562c0,2.585,0.816,4.767,2.448,6.546S904.951,416.423,907.467,416.423 M882.92,415.912v-9.859
		c0-0.861,0.368-1.644,1.105-2.347c0.735-0.701,1.558-1.054,2.465-1.054c0.929,0,1.683,0.34,2.261,1.021
		c0.578,0.68,0.867,1.474,0.867,2.38v9.859h6.018v-11.491c0-1.156-0.244-2.17-0.73-3.043c-0.488-0.872-1.122-1.548-1.904-2.023
		s-1.598-0.827-2.448-1.054c-0.85-0.227-1.706-0.34-2.566-0.34c-1.769,0-3.435,0.781-4.998,2.346h-0.068v-1.836h-6.018v17.441
		H882.92z M862.214,403.095c1.133,0,2.091,0.386,2.873,1.156s1.173,1.757,1.173,2.957c0,1.18-0.38,2.154-1.139,2.925
		c-0.76,0.771-1.729,1.155-2.907,1.155c-1.224,0-2.21-0.379-2.958-1.139c-0.748-0.759-1.122-1.739-1.122-2.941
		c0-1.2,0.392-2.187,1.173-2.957C860.089,403.48,861.058,403.095,862.214,403.095 M860.412,416.423c2.312,0,4.216-0.827,5.712-2.482
		h0.068v1.972h5.949v-17.441h-6.018v1.666c-1.496-1.45-3.4-2.176-5.712-2.176c-2.516,0-4.59,0.896-6.222,2.686
		c-1.633,1.791-2.448,3.978-2.448,6.562c0,2.585,0.815,4.767,2.448,6.546C855.822,415.533,857.896,416.423,860.412,416.423
		 M827.653,399.439c-1.372,0.986-2.058,2.363-2.058,4.131c0,1.179,0.317,2.125,0.952,2.839c0.634,0.714,1.496,1.355,2.584,1.921
		c0.431,0.228,1.025,0.477,1.785,0.748c0.759,0.272,1.297,0.517,1.615,0.731c0.316,0.216,0.476,0.516,0.476,0.901
		c0,0.839-0.624,1.258-1.87,1.258c-0.566,0-1.235-0.188-2.006-0.562s-1.304-0.668-1.598-0.884c-0.295-0.215-0.533-0.402-0.714-0.561
		l-2.448,4.113l0.748,0.612c0.498,0.386,1.309,0.771,2.431,1.156s2.307,0.578,3.554,0.578c5.508,0,8.262-1.983,8.262-5.95
		c0-0.838-0.159-1.586-0.477-2.244c-0.317-0.657-0.765-1.201-1.343-1.632s-1.128-0.771-1.648-1.021
		c-0.522-0.249-1.135-0.476-1.836-0.68c-0.114-0.022-0.278-0.068-0.493-0.136c-0.216-0.068-0.368-0.119-0.459-0.153
		s-0.228-0.085-0.408-0.153c-0.183-0.067-0.312-0.118-0.392-0.152c-0.078-0.034-0.187-0.085-0.322-0.153
		c-0.137-0.068-0.233-0.13-0.289-0.187c-0.058-0.057-0.119-0.124-0.188-0.204c-0.067-0.079-0.112-0.164-0.136-0.255
		c-0.022-0.091-0.034-0.182-0.034-0.272c0-0.408,0.142-0.685,0.425-0.833c0.283-0.146,0.766-0.221,1.445-0.221
		c1.224,0,2.517,0.362,3.876,1.088l1.973-3.944l-0.715-0.34c-0.476-0.226-1.201-0.453-2.176-0.68s-1.961-0.34-2.958-0.34
		C830.877,397.961,829.024,398.453,827.653,399.439 M808.664,415.912v-9.859c0-0.861,0.368-1.644,1.105-2.347
		c0.735-0.701,1.558-1.054,2.465-1.054c0.929,0,1.683,0.34,2.261,1.021c0.578,0.68,0.867,1.474,0.867,2.38v9.859h6.018v-11.491
		c0-1.156-0.244-2.17-0.73-3.043c-0.488-0.872-1.122-1.548-1.904-2.023s-1.598-0.827-2.448-1.054c-0.85-0.227-1.706-0.34-2.566-0.34
		c-1.769,0-3.435,0.781-4.998,2.346h-0.068v-13.634h-6.018v29.239H808.664z M788.672,411.288c-1.134,0-2.091-0.385-2.873-1.155
		s-1.173-1.756-1.173-2.958c0-1.179,0.379-2.153,1.139-2.924s1.729-1.156,2.907-1.156c1.225,0,2.21,0.38,2.958,1.139
		c0.748,0.76,1.122,1.74,1.122,2.941c0,1.202-0.391,2.188-1.173,2.958S789.828,411.288,788.672,411.288 M790.474,397.961
		c-2.312,0-4.216,0.827-5.712,2.481h-0.067v-1.972h-5.95v26.282h6.018v-10.507c1.496,1.451,3.4,2.177,5.712,2.177
		c2.517,0,4.591-0.896,6.223-2.687c1.632-1.79,2.448-3.978,2.448-6.562s-0.816-4.766-2.448-6.545S792.99,397.961,790.474,397.961
		 M764.056,403.095c1.134,0,2.092,0.386,2.873,1.156c0.782,0.771,1.173,1.757,1.173,2.957c0,1.18-0.38,2.154-1.139,2.925
		c-0.76,0.771-1.729,1.155-2.907,1.155c-1.224,0-2.21-0.379-2.958-1.139c-0.748-0.759-1.122-1.739-1.122-2.941
		c0-1.2,0.392-2.187,1.174-2.957C761.931,403.48,762.9,403.095,764.056,403.095 M762.254,416.423c2.312,0,4.216-0.827,5.712-2.482
		h0.068v1.972h5.95v-17.441h-6.019v1.666c-1.496-1.45-3.399-2.176-5.712-2.176c-2.516,0-4.59,0.896-6.222,2.686
		c-1.632,1.791-2.448,3.978-2.448,6.562c0,2.585,0.816,4.767,2.448,6.546S759.738,416.423,762.254,416.423 M743.52,415.912v-9.18
		c0-0.181,0.046-0.43,0.137-0.748c0.091-0.316,0.244-0.702,0.459-1.156c0.216-0.452,0.584-0.838,1.104-1.155
		c0.522-0.317,1.146-0.477,1.87-0.477c1.338,0,2.38,0.318,3.128,0.952l2.517-5.1l-0.477-0.272c-0.294-0.181-0.759-0.362-1.394-0.544
		c-0.634-0.181-1.28-0.271-1.938-0.271c-0.634,0-1.258,0.107-1.87,0.322c-0.611,0.216-1.109,0.459-1.495,0.731
		c-0.386,0.271-0.748,0.578-1.089,0.918c-0.34,0.34-0.561,0.578-0.663,0.714c-0.102,0.136-0.176,0.25-0.221,0.34h-0.068v-2.516
		h-6.018v17.441H743.52z M722.814,403.095c1.134,0,2.091,0.386,2.873,1.156c0.781,0.771,1.173,1.757,1.173,2.957
		c0,1.18-0.379,2.154-1.14,2.925c-0.759,0.771-1.728,1.155-2.906,1.155c-1.225,0-2.21-0.379-2.958-1.139
		c-0.748-0.759-1.122-1.739-1.122-2.941c0-1.2,0.391-2.187,1.173-2.957S721.658,403.095,722.814,403.095 M722.474,425.263
		c3.083,0,5.565-0.771,7.446-2.312c1.882-1.542,2.822-3.729,2.822-6.562v-17.918h-6.019v1.563h-0.102
		c-1.496-1.382-3.366-2.073-5.61-2.073c-2.516,0-4.59,0.896-6.222,2.686c-1.632,1.791-2.448,3.978-2.448,6.562
		c0,2.585,0.816,4.767,2.448,6.546s3.706,2.669,6.222,2.669c2.743,0,4.647-0.59,5.712-1.769v1.292c0,1.382-0.446,2.408-1.343,3.077
		c-0.895,0.668-1.864,1.003-2.907,1.003c-2.243,0-3.818-0.748-4.726-2.244l-4.93,2.414
		C714.27,423.573,717.488,425.263,722.474,425.263 M699.661,403.095c1.133,0,2.091,0.386,2.873,1.156s1.173,1.757,1.173,2.957
		c0,1.18-0.38,2.154-1.139,2.925c-0.761,0.771-1.729,1.155-2.907,1.155c-1.224,0-2.21-0.379-2.958-1.139
		c-0.748-0.759-1.122-1.739-1.122-2.941c0-1.2,0.391-2.187,1.173-2.957S698.505,403.095,699.661,403.095 M699.695,416.423
		c3.014,0,5.502-0.867,7.463-2.602c1.96-1.733,2.94-3.938,2.94-6.613c0-2.674-1.003-4.884-3.009-6.63
		c-2.006-1.745-4.471-2.617-7.395-2.617c-2.971,0-5.463,0.866-7.48,2.601s-3.025,3.95-3.025,6.646c0,2.698,0.969,4.908,2.906,6.631
		C694.034,415.562,696.567,416.423,699.695,416.423 M674.841,398.471v4.59h2.517v6.698c0,0.839,0.09,1.627,0.271,2.362
		c0.182,0.737,0.481,1.44,0.901,2.108c0.419,0.669,1.037,1.202,1.853,1.598c0.816,0.396,1.79,0.596,2.924,0.596
		c1.654,0,3.129-0.363,4.42-1.088l-1.495-4.862l-0.204,0.136c-0.137,0.091-0.329,0.182-0.578,0.272
		c-0.25,0.091-0.488,0.136-0.714,0.136c-0.907,0-1.36-0.804-1.36-2.414v-5.542h3.672v-4.59h-3.672v-6.494h-6.018v6.494H674.841z
		 M653.183,398.471v9.758c0,2.902,0.753,4.993,2.262,6.273c1.507,1.28,3.903,1.921,7.19,1.921c3.286,0,5.684-0.641,7.191-1.921
		c1.507-1.28,2.261-3.371,2.261-6.273v-9.758h-6.018v8.296c0,1.723-0.262,2.947-0.782,3.672c-0.522,0.726-1.406,1.088-2.652,1.088
		c-1.247,0-2.131-0.362-2.651-1.088c-0.522-0.725-0.782-1.949-0.782-3.672v-8.296H653.183z M638.835,403.095
		c1.133,0,2.091,0.386,2.873,1.156s1.173,1.757,1.173,2.957c0,1.18-0.38,2.154-1.139,2.925c-0.76,0.771-1.729,1.155-2.907,1.155
		c-1.224,0-2.21-0.379-2.958-1.139c-0.748-0.759-1.122-1.739-1.122-2.941c0-1.2,0.391-2.187,1.173-2.957
		C636.71,403.48,637.679,403.095,638.835,403.095 M637.033,416.423c2.312,0,4.216-0.827,5.712-2.482h0.068v1.972h5.949v-17.441
		h-6.018v1.666c-1.496-1.45-3.4-2.176-5.712-2.176c-2.517,0-4.59,0.896-6.222,2.686c-1.632,1.791-2.448,3.978-2.448,6.562
		c0,2.585,0.816,4.767,2.448,6.546S634.517,416.423,637.033,416.423 M604.971,403.095c1.133,0,2.091,0.386,2.874,1.156
		c0.782,0.771,1.173,1.757,1.173,2.957c0,1.18-0.38,2.154-1.139,2.925c-0.76,0.771-1.729,1.155-2.907,1.155
		c-1.224,0-2.209-0.379-2.958-1.139c-0.748-0.759-1.122-1.739-1.122-2.941c0-1.2,0.392-2.187,1.173-2.957
		C602.846,403.48,603.815,403.095,604.971,403.095 M604.631,425.263c3.083,0,5.565-0.771,7.446-2.312
		c1.881-1.542,2.822-3.729,2.822-6.562v-17.918h-6.018v1.563h-0.102c-1.496-1.382-3.366-2.073-5.61-2.073
		c-2.516,0-4.59,0.896-6.222,2.686c-1.632,1.791-2.448,3.978-2.448,6.562c0,2.585,0.816,4.767,2.448,6.546
		c1.632,1.779,3.706,2.669,6.222,2.669c2.743,0,4.646-0.59,5.712-1.769v1.292c0,1.382-0.448,2.408-1.343,3.077
		c-0.895,0.668-1.864,1.003-2.907,1.003c-2.244,0-3.82-0.748-4.726-2.244l-4.931,2.414
		C596.425,423.573,599.644,425.263,604.631,425.263 M578.621,415.912v-9.859c0-0.861,0.369-1.644,1.105-2.347
		c0.737-0.701,1.558-1.054,2.465-1.054c0.929,0,1.683,0.34,2.261,1.021c0.578,0.68,0.867,1.474,0.867,2.38v9.859h6.018v-11.491
		c0-1.156-0.244-2.17-0.731-3.043c-0.486-0.872-1.122-1.548-1.903-2.023c-0.782-0.476-1.598-0.827-2.448-1.054
		c-0.85-0.227-1.706-0.34-2.567-0.34c-1.768,0-3.434,0.781-4.998,2.346h-0.068v-1.836h-6.018v17.441H578.621z M567.674,415.912
		h-6.018v-17.441h6.018V415.912z M561.18,391.263c0,0.975,0.351,1.813,1.054,2.516c0.702,0.703,1.541,1.054,2.516,1.054
		c0.974,0,1.813-0.351,2.516-1.054c0.702-0.702,1.054-1.541,1.054-2.516s-0.352-1.813-1.054-2.517
		c-0.703-0.701-1.542-1.054-2.516-1.054c-0.975,0-1.814,0.353-2.516,1.054C561.531,389.449,561.18,390.288,561.18,391.263
		 M541.46,398.471v4.59h7.208l-8.636,12.852h18.054v-4.59h-7.956l8.636-12.852H541.46z M536.973,415.912h-6.018v-17.441h6.018
		V415.912z M530.479,391.263c0,0.975,0.351,1.813,1.054,2.516c0.702,0.703,1.541,1.054,2.516,1.054c0.974,0,1.813-0.351,2.516-1.054
		c0.702-0.702,1.054-1.541,1.054-2.516s-0.352-1.813-1.054-2.517c-0.703-0.701-1.542-1.054-2.516-1.054
		c-0.975,0-1.814,0.353-2.516,1.054C530.83,389.449,530.479,390.288,530.479,391.263 M526.195,386.673h-6.019v29.239h6.019V386.673z
		 M505.489,403.095c1.133,0,2.091,0.386,2.873,1.156c0.782,0.771,1.173,1.757,1.173,2.957c0,1.18-0.38,2.154-1.139,2.925
		c-0.76,0.771-1.729,1.155-2.907,1.155c-1.225,0-2.21-0.379-2.958-1.139c-0.748-0.759-1.122-1.739-1.122-2.941
		c0-1.2,0.391-2.187,1.173-2.957S504.333,403.095,505.489,403.095 M503.687,416.423c2.312,0,4.216-0.827,5.712-2.482h0.068v1.972
		h5.95v-17.441h-6.018v1.666c-1.496-1.45-3.4-2.176-5.712-2.176c-2.516,0-4.59,0.896-6.222,2.686
		c-1.632,1.791-2.448,3.978-2.448,6.562c0,2.585,0.816,4.767,2.448,6.546S501.171,416.423,503.687,416.423 M472.951,398.471v9.758
		c0,2.902,0.753,4.993,2.261,6.273c1.507,1.28,3.904,1.921,7.191,1.921c3.286,0,5.683-0.641,7.191-1.921
		c1.507-1.28,2.261-3.371,2.261-6.273v-9.758h-6.018v8.296c0,1.723-0.261,2.947-0.782,3.672c-0.521,0.726-1.406,1.088-2.651,1.088
		c-1.247,0-2.132-0.362-2.652-1.088c-0.522-0.725-0.782-1.949-0.782-3.672v-8.296H472.951z M457.906,399.439
		c-1.371,0.986-2.058,2.363-2.058,4.131c0,1.179,0.318,2.125,0.952,2.839c0.635,0.714,1.496,1.355,2.584,1.921
		c0.43,0.228,1.026,0.477,1.785,0.748c0.76,0.272,1.298,0.517,1.615,0.731c0.318,0.216,0.476,0.516,0.476,0.901
		c0,0.839-0.623,1.258-1.871,1.258c-0.565,0-1.234-0.188-2.005-0.562c-0.77-0.374-1.303-0.668-1.598-0.884
		c-0.294-0.215-0.532-0.402-0.714-0.561l-2.448,4.113l0.748,0.612c0.499,0.386,1.309,0.771,2.431,1.156
		c1.122,0.385,2.307,0.578,3.553,0.578c5.508,0,8.262-1.983,8.262-5.95c0-0.838-0.158-1.586-0.476-2.244
		c-0.317-0.657-0.765-1.201-1.343-1.632c-0.578-0.431-1.127-0.771-1.649-1.021c-0.521-0.249-1.133-0.476-1.836-0.68
		c-0.113-0.022-0.277-0.068-0.493-0.136c-0.215-0.068-0.368-0.119-0.459-0.153c-0.09-0.034-0.226-0.085-0.408-0.153
		c-0.182-0.067-0.311-0.118-0.392-0.152c-0.079-0.034-0.187-0.085-0.322-0.153c-0.136-0.068-0.232-0.13-0.289-0.187
		c-0.056-0.057-0.119-0.124-0.188-0.204c-0.067-0.079-0.112-0.164-0.136-0.255c-0.022-0.091-0.034-0.182-0.034-0.272
		c0-0.408,0.142-0.685,0.425-0.833c0.284-0.146,0.765-0.221,1.445-0.221c1.224,0,2.516,0.362,3.876,1.088l1.972-3.944l-0.714-0.34
		c-0.476-0.226-1.201-0.453-2.176-0.68c-0.974-0.227-1.96-0.34-2.958-0.34C461.131,397.961,459.278,398.453,457.906,399.439
		 M450.954,415.912h-6.018v-17.441h6.018V415.912z M444.46,391.263c0,0.975,0.351,1.813,1.054,2.516
		c0.702,0.703,1.541,1.054,2.516,1.054c0.974,0,1.813-0.351,2.516-1.054c0.702-0.702,1.054-1.541,1.054-2.516
		s-0.352-1.813-1.054-2.517c-0.703-0.701-1.542-1.054-2.516-1.054c-0.976,0-1.814,0.353-2.516,1.054
		C444.811,389.449,444.46,390.288,444.46,391.263 M431.404,415.912l11.764-28.05h-7.208l-7.072,18.428l-7.073-18.428h-7.208
		l11.765,28.05H431.404z"/>
	<polygon clip-path="url(#SVGID_2_)" fill="none" stroke="#0046F9" stroke-width="1.998" points="1.001,3.001 1.001,502.194 
		1.001,504.196 3.002,504.196 1167.089,504.196 1169.09,504.196 1169.09,502.194 1169.09,3.001 1169.09,0.999 1167.089,0.999 
		3.002,0.999 1.001,0.999 	"/>
</g>
<rect x="5.003" y="5.004" fill="none" stroke="#0046F9" stroke-width="1.998" width="1160.085" height="495.188"/>
<line fill="none" stroke="#0046F9" stroke-width="2" x1="403.032" y1="188.169" x2="1144.088" y2="188.169"/>
<line fill="none" stroke="#0046F9" stroke-width="2" x1="403.032" y1="357.413" x2="1144.088" y2="357.413"/>
<line fill="none" stroke="#0046F9" stroke-width="2" x1="382.029" y1="26.156" x2="382.029" y2="480.19"/>
<line fill="none" stroke="#0046F9" stroke-width="2" x1="920.045" y1="209.169" x2="920.045" y2="336.413"/>
<polygon fill="#231F20" points="55.937,467.056 329.758,467.056 329.758,391.062 135.549,391.062 135.549,293.354 315.282,293.354 
	315.282,217.359 135.549,217.359 135.549,120.859 322.52,120.859 322.52,44.864 55.937,44.864 "/>
<g>
	<defs>
		<rect id="SVGID_95_" x="0.002" width="1170.088" height="505.192"/>
	</defs>
	<clipPath id="SVGID_4_">
		<use xlink:href="#SVGID_95_"  overflow="visible"/>
	</clipPath>
	<path clip-path="url(#SVGID_4_)" fill="#0046F9" d="M823.712,323.389c11.916-13.619,22.981-24.115,32.628-31.493
		c11.065-8.512,20.995-14.186,29.507-17.022v-6.526c-11.915-5.106-22.13-11.064-30.357-18.725
		c-16.456-15.037-27.237-25.535-31.777-31.21h-19.577c4.54,9.646,9.363,18.441,14.187,26.386
		c3.972,5.959,8.228,11.633,13.619,17.307H426.229v17.308h405.996c-7.378,9.079-11.634,15.038-13.903,18.726
		c-5.958,9.646-10.781,18.158-13.618,25.251H823.712z"/>
</g>
</svg>
