<?xml version="1.0" encoding="utf-8"?>
<!-- Generator: Adobe Illustrator 16.0.0, SVG Export Plug-In . SVG Version: 6.00 Build 0)  -->
<!DOCTYPE svg PUBLIC "-//W3C//DTD SVG 1.1//EN" "http://www.w3.org/Graphics/SVG/1.1/DTD/svg11.dtd">
<svg version="1.1" id="Layer_1" xmlns="http://www.w3.org/2000/svg" xmlns:xlink="http://www.w3.org/1999/xlink" x="0px" y="0px"
	 width="1170.09px" height="505.192px" viewBox="0 0 1170.09 505.192" enable-background="new 0 0 1170.09 505.192"
	 xml:space="preserve">
<g>
	<defs>
		<rect id="SVGID_87_" x="0.001" y="0.001" width="1170.088" height="505.191"/>
	</defs>
	<clipPath id="SVGID_2_">
		<use xlink:href="#SVGID_87_"  overflow="visible"/>
	</clipPath>
	<path clip-path="url(#SVGID_2_)" fill="#FF1419" d="M1066.888,122.172c2.571,1.269,5.142,2.376,7.715,3.32
		c2.572,0.943,5.184,1.726,7.837,2.344c2.653,0.618,5.371,1.081,8.154,1.391c2.784,0.31,5.671,0.464,8.667,0.464
		c6.25,0,11.743-0.609,16.481-1.831c4.735-1.221,8.698-2.93,11.888-5.127c3.19-2.196,5.591-4.81,7.204-7.837
		c1.611-3.026,2.417-6.331,2.417-9.912c0-5.272-1.677-9.766-5.031-13.477c-3.353-3.71-8.203-6.623-14.55-8.74l-5.86-1.953
		c-2.018-0.684-3.703-1.343-5.053-1.977c-1.351-0.635-2.442-1.27-3.271-1.905c-0.831-0.635-1.416-1.284-1.759-1.952
		c-0.342-0.668-0.512-1.359-0.512-2.076c0-0.812,0.203-1.636,0.611-2.465c0.404-0.83,1.007-1.578,1.806-2.246
		c0.797-0.668,1.783-1.205,2.954-1.611c1.172-0.407,2.54-0.611,4.101-0.611c0.911,0,1.919,0.082,3.028,0.244
		c1.107,0.164,2.238,0.408,3.393,0.732c1.155,0.326,2.312,0.732,3.467,1.222c1.154,0.487,2.253,1.058,3.296,1.709l5.272-9.522
		c-1.432-0.65-3.092-1.31-4.979-1.977c-1.89-0.667-3.963-1.262-6.227-1.783c-2.262-0.52-4.679-0.943-7.25-1.27
		c-2.572-0.324-5.257-0.487-8.057-0.487c-5.663,0-10.604,0.683-14.819,2.05c-4.216,1.367-7.708,3.199-10.474,5.493
		c-2.768,2.295-4.833,4.948-6.201,7.959c-1.367,3.012-2.05,6.146-2.05,9.399c0,5.047,1.578,9.399,4.736,13.062
		c3.157,3.663,7.861,6.567,14.111,8.716l8.741,2.979c1.693,0.587,3.068,1.181,4.126,1.782c1.057,0.604,1.887,1.205,2.491,1.808
		c0.601,0.602,1.008,1.213,1.22,1.831c0.212,0.618,0.318,1.22,0.318,1.806c0,1.856-0.873,3.321-2.613,4.396
		c-1.743,1.073-4.485,1.61-8.228,1.61c-3.256,0-6.77-0.438-10.547-1.317s-7.389-2.197-10.84-3.955L1066.888,122.172z
		 M989.794,128.567h61.33v-11.182h-33.106V97.952h25.292V86.771h-25.292l0.049-19.58h33.058V56.009h-61.33V128.567z
		 M890.728,128.567h10.743V90.043l46.093,38.524h17.677V56.009h-10.742l-0.049,38.672l-46.045-38.672h-17.677V128.567z
		 M823.521,118.558c-1.513-0.683-2.775-2.018-3.783-4.004c-1.011-1.985-1.775-4.768-2.295-8.349
		c-0.521-3.581-0.78-8.269-0.78-14.063c0-5.729,0.259-10.367,0.78-13.916c0.521-3.547,1.285-6.299,2.295-8.252
		c1.008-1.953,2.271-3.271,3.783-3.955c1.515-0.683,3.248-1.025,5.201-1.025c1.954,0,3.678,0.343,5.176,1.025
		c1.497,0.684,2.75,2.002,3.761,3.955c1.008,1.953,1.773,4.705,2.294,8.252c0.52,3.549,0.781,8.188,0.781,13.916
		c0,5.795-0.261,10.482-0.781,14.063c-0.521,3.581-1.287,6.363-2.294,8.349c-1.011,1.986-2.264,3.321-3.761,4.004
		c-1.498,0.685-3.222,1.026-5.176,1.026C826.769,119.584,825.037,119.242,823.521,118.558 M789.661,107.425
		c1.757,4.623,4.376,8.578,7.86,11.866c3.483,3.288,7.829,5.843,13.037,7.666c5.208,1.821,11.264,2.733,18.164,2.733
		c6.901,0,12.956-0.912,18.164-2.733c5.208-1.823,9.554-4.378,13.038-7.666c3.483-3.288,6.103-7.243,7.861-11.866
		c1.758-4.621,2.636-9.716,2.636-15.283c0-5.501-0.878-10.537-2.636-15.111c-1.759-4.573-4.378-8.504-7.861-11.793
		c-3.484-3.287-7.83-5.842-13.038-7.666c-5.208-1.822-11.263-2.733-18.164-2.733c-6.9,0-12.956,0.911-18.164,2.733
		c-5.208,1.824-9.554,4.379-13.037,7.666c-3.484,3.289-6.103,7.22-7.86,11.793c-1.759,4.574-2.638,9.61-2.638,15.111
		C787.023,97.709,787.902,102.804,789.661,107.425 M738.446,128.567h28.222l0.049-72.559h-28.271V128.567z M653.514,106.864
		c2.002,4.541,4.875,8.513,8.619,11.913c3.743,3.402,8.293,6.088,13.647,8.058c5.354,1.969,11.368,2.954,18.042,2.954
		c2.863,0,5.597-0.181,8.202-0.537c2.604-0.359,5.045-0.855,7.324-1.49c2.278-0.634,4.396-1.358,6.349-2.173
		c1.952-0.813,3.727-1.692,5.321-2.636l-4.199-8.203c-1.953,0.943-4.102,1.701-6.445,2.27c-2.344,0.57-4.688,0.855-7.033,0.855
		c-3.32,0-6.405-0.611-9.252-1.831c-2.848-1.221-5.306-2.946-7.373-5.176c-2.068-2.23-3.686-4.915-4.859-8.058
		c-1.172-3.141-1.758-6.647-1.758-10.522c0-3.906,0.595-7.43,1.783-10.571s2.824-5.817,4.908-8.032
		c2.082-2.213,4.557-3.922,7.42-5.127c2.865-1.203,5.974-1.806,9.328-1.806c2.506,0,4.922,0.301,7.251,0.903
		c2.327,0.603,4.401,1.343,6.225,2.222l4.199-8.204c-1.595-0.91-3.377-1.782-5.346-2.612c-1.971-0.829-4.11-1.562-6.421-2.196
		c-2.313-0.635-4.778-1.131-7.398-1.489c-2.621-0.358-5.364-0.537-8.227-0.537c-4.46,0-8.627,0.446-12.5,1.342
		c-3.874,0.896-7.414,2.157-10.62,3.784c-3.208,1.629-6.064,3.582-8.57,5.859c-2.507,2.279-4.623,4.803-6.348,7.568
		c-1.726,2.768-3.036,5.754-3.932,8.96c-0.895,3.207-1.343,6.536-1.343,9.986C650.511,97.481,651.512,102.323,653.514,106.864
		 M601.933,128.567h28.223l0.049-72.559h-28.272V128.567z M531.042,66.653c3.189,0,6.079,0.465,8.667,1.393
		c2.587,0.927,4.792,2.408,6.616,4.443c1.822,2.035,3.222,4.646,4.199,7.836c0.977,3.19,1.465,7.049,1.465,11.572
		c0,4.559-0.48,8.473-1.441,11.743c-0.96,3.272-2.343,5.966-4.15,8.081c-1.807,2.117-4.013,3.679-6.616,4.688
		c-2.604,1.009-5.535,1.513-8.789,1.513L531.042,66.653z M502.77,128.567h29.834c8.398,0,15.674-0.943,21.825-2.832
		c6.154-1.888,11.248-4.483,15.283-7.787c4.037-3.305,7.032-7.179,8.985-11.621c1.953-4.444,2.929-9.236,2.929-14.381
		c0-5.762-0.976-10.871-2.929-15.332c-1.953-4.459-4.949-8.219-8.985-11.278c-4.035-3.06-9.129-5.379-15.283-6.958
		c-6.151-1.579-13.427-2.369-21.825-2.369H502.77V128.567z M420.939,128.567h61.328v-11.182h-33.104V97.952h25.292V86.771h-25.292
		l0.047-19.58h33.057V56.009h-61.328V128.567z"/>
	<path clip-path="url(#SVGID_2_)" fill="#231F20" d="M1081.062,316.226c1.055,2.369,2.445,4.428,4.17,6.178
		c1.724,1.751,3.784,3.153,6.179,4.209c2.394,1.056,4.955,1.584,7.684,1.584c2.626,0,5.148-0.528,7.569-1.584
		c2.419-1.056,4.504-2.458,6.255-4.209c1.75-1.75,3.154-3.809,4.21-6.178c1.054-2.368,1.583-4.917,1.583-7.646
		c0-2.626-0.529-5.147-1.583-7.568c-1.056-2.419-2.46-4.505-4.21-6.256c-1.751-1.749-3.836-3.153-6.255-4.209
		c-2.421-1.056-4.943-1.583-7.569-1.583c-2.729,0-5.29,0.527-7.684,1.583c-2.395,1.056-4.455,2.46-6.179,4.209
		c-1.725,1.751-3.115,3.837-4.17,6.256c-1.056,2.421-1.584,4.942-1.584,7.568C1079.478,311.309,1080.005,313.857,1081.062,316.226
		 M1009.124,232.66c2.212,0.413,4.132,1.146,5.754,2.201c1.622,1.057,2.934,2.485,3.94,4.286c1.003,1.803,1.505,4.018,1.505,6.643
		c0,3.398-1.263,6.359-3.785,8.882c-2.523,2.522-6.333,3.784-11.429,3.784h-5.484v16.76h5.484c2.11,0,4.221,0.258,6.333,0.771
		c2.111,0.516,3.988,1.326,5.638,2.434c1.646,1.107,2.973,2.562,3.976,4.362c1.004,1.804,1.507,3.967,1.507,6.488
		c0,5.097-1.687,9.011-5.058,11.739c-3.374,2.729-8.664,4.093-15.871,4.093c-8.755,0-15.706-1.57-20.853-4.711
		c3.14-0.977,6.011-2.626,8.61-4.943c2.601-2.316,3.902-5.638,3.902-9.962c0-1.596-0.323-3.256-0.965-4.981
		c-0.646-1.725-1.674-3.309-3.09-4.75c-1.417-1.441-3.31-2.626-5.677-3.553c-2.369-0.927-5.302-1.391-8.804-1.391
		c-2.729,0-5.329,0.464-7.801,1.391c-2.471,0.927-4.633,2.317-6.487,4.171s-3.309,4.158-4.365,6.911
		c-1.056,2.756-1.582,5.858-1.582,9.308c0,4.325,0.978,8.599,2.934,12.819c1.956,4.224,5.124,7.994,9.5,11.315
		s10.066,6.037,17.069,8.148c7.001,2.109,15.522,3.166,25.562,3.166c10.555,0,19.464-1.005,26.723-3.013s13.13-4.568,17.608-7.684
		c4.48-3.115,7.697-6.59,9.654-10.427c1.956-3.835,2.935-7.607,2.935-11.314c0-8.65-2.664-15.265-7.994-19.849
		c-5.328-4.582-12.318-7.388-20.969-8.418v-0.851c8.65-1.439,15.111-4.35,19.385-8.727c4.274-4.375,6.412-10.168,6.412-17.377
		c0-5.767-1.533-10.631-4.596-14.598c-3.064-3.964-7.093-7.155-12.086-9.575c-4.996-2.42-10.71-4.133-17.146-5.137
		c-6.437-1.004-12.975-1.506-19.617-1.506c-8.032,0-15.266,0.76-21.702,2.278c-6.437,1.519-11.92,3.707-16.451,6.564
		c-4.531,2.857-8.007,6.27-10.425,10.233c-2.422,3.965-3.631,8.368-3.631,13.207c0,3.45,0.553,6.448,1.66,8.997
		c1.108,2.549,2.613,4.686,4.519,6.41c1.903,1.726,4.094,3.012,6.564,3.861c2.472,0.85,5.071,1.274,7.8,1.274
		c5.715,0,10.052-1.235,13.014-3.707c2.96-2.471,4.44-5.766,4.44-9.886c0-2.213-0.374-4.054-1.119-5.522
		c-0.748-1.467-1.675-2.626-2.781-3.475c-1.108-0.851-2.316-1.493-3.629-1.931c-1.312-0.438-2.51-0.707-3.592-0.812
		c1.286-1.029,3.218-2.124,5.793-3.282c2.573-1.158,6.512-1.737,11.815-1.737C1004.593,232.043,1006.91,232.25,1009.124,232.66"/>
	<path clip-path="url(#SVGID_2_)" fill="#231F20" d="M743.868,448.381c-1.211,0.87-1.815,2.085-1.815,3.646
		c0,1.04,0.28,1.875,0.84,2.505c0.559,0.63,1.32,1.195,2.28,1.695c0.38,0.199,0.905,0.42,1.575,0.659
		c0.67,0.24,1.144,0.455,1.425,0.646c0.281,0.189,0.421,0.455,0.421,0.795c0,0.74-0.551,1.11-1.65,1.11
		c-0.5,0-1.092-0.165-1.771-0.495s-1.151-0.59-1.41-0.78c-0.26-0.19-0.47-0.355-0.629-0.495l-2.161,3.63l0.661,0.54
		c0.439,0.34,1.154,0.68,2.144,1.021c0.991,0.34,2.035,0.51,3.136,0.51c4.859,0,7.29-1.75,7.29-5.25c0-0.74-0.141-1.4-0.42-1.98
		c-0.281-0.58-0.676-1.06-1.186-1.439c-0.509-0.38-0.995-0.681-1.455-0.9c-0.461-0.22-1.001-0.42-1.621-0.6
		c-0.1-0.021-0.245-0.061-0.434-0.12c-0.192-0.061-0.327-0.105-0.405-0.135c-0.081-0.03-0.2-0.075-0.359-0.136
		c-0.162-0.06-0.275-0.104-0.346-0.135s-0.166-0.075-0.284-0.135c-0.12-0.06-0.207-0.115-0.256-0.165
		c-0.05-0.05-0.104-0.11-0.166-0.18c-0.06-0.07-0.1-0.146-0.12-0.226c-0.019-0.08-0.03-0.16-0.03-0.239
		c0-0.36,0.125-0.605,0.375-0.735c0.25-0.13,0.675-0.195,1.274-0.195c1.08,0,2.221,0.32,3.421,0.96l1.739-3.479l-0.63-0.3
		c-0.419-0.2-1.061-0.4-1.919-0.601c-0.861-0.2-1.731-0.3-2.611-0.3C746.712,447.076,745.077,447.511,743.868,448.381
		 M729.212,451.216c0.52-0.46,1.219-0.689,2.1-0.689c0.8,0,1.456,0.215,1.965,0.645c0.511,0.431,0.825,1.045,0.946,1.845h-5.85
		C728.413,452.276,728.691,451.676,729.212,451.216 M739.413,455.236c0-2.62-0.766-4.635-2.295-6.045
		c-1.53-1.41-3.516-2.115-5.955-2.115c-2.321,0-4.311,0.8-5.97,2.4c-1.661,1.6-2.49,3.52-2.49,5.76s0.829,4.154,2.49,5.745
		c1.659,1.59,3.649,2.385,5.97,2.385c3.72,0,6.379-1.34,7.979-4.021l-3.84-1.92c-0.641,0.681-1.21,1.136-1.709,1.365
		c-0.5,0.23-1.182,0.345-2.041,0.345c-0.822,0-1.58-0.26-2.281-0.779c-0.7-0.521-1.049-1.32-1.049-2.4h11.161
		C739.402,455.836,739.413,455.596,739.413,455.236 M708.993,462.916v-8.7c0-0.76,0.325-1.45,0.975-2.069
		c0.65-0.62,1.375-0.931,2.174-0.931c0.82,0,1.485,0.3,1.995,0.9c0.51,0.6,0.765,1.3,0.765,2.1v8.7h5.31v-10.14
		c0-1.021-0.215-1.915-0.644-2.686c-0.431-0.77-0.991-1.364-1.681-1.785c-0.689-0.42-1.41-0.729-2.16-0.93s-1.505-0.3-2.265-0.3
		c-1.56,0-3.03,0.689-4.41,2.07h-0.06v-1.62h-5.311v15.39H708.993z M691.743,451.606c1,0,1.845,0.34,2.534,1.02
		c0.691,0.68,1.035,1.55,1.035,2.61c0,1.04-0.334,1.899-1.004,2.58c-0.67,0.68-1.524,1.02-2.564,1.02c-1.08,0-1.95-0.335-2.61-1.005
		c-0.661-0.67-0.991-1.535-0.991-2.595c0-1.061,0.346-1.931,1.035-2.61C689.868,451.946,690.722,451.606,691.743,451.606
		 M691.771,463.366c2.661,0,4.856-0.765,6.585-2.295c1.73-1.53,2.596-3.476,2.596-5.835c0-2.36-0.885-4.311-2.655-5.851
		c-1.771-1.54-3.946-2.31-6.526-2.31c-2.62,0-4.819,0.765-6.6,2.295c-1.78,1.53-2.67,3.485-2.67,5.865s0.855,4.33,2.566,5.85
		C686.776,462.606,689.012,463.366,691.771,463.366 M679.562,462.916h-5.31v-15.39h5.31V462.916z M673.833,441.166
		c0,0.86,0.31,1.6,0.93,2.22c0.621,0.62,1.36,0.931,2.22,0.931c0.861,0,1.601-0.311,2.221-0.931s0.93-1.359,0.93-2.22
		s-0.31-1.6-0.93-2.22s-1.36-0.931-2.221-0.931c-0.86,0-1.599,0.311-2.22,0.931C674.142,439.566,673.833,440.306,673.833,441.166
		 M670.052,452.146l1.799-3.631l-0.509-0.359c-0.361-0.24-0.971-0.48-1.831-0.72c-0.86-0.24-1.8-0.36-2.819-0.36
		c-2.261,0-4.245,0.805-5.955,2.415c-1.711,1.61-2.566,3.535-2.566,5.774c0,2.221,0.854,4.125,2.566,5.716
		c1.71,1.59,3.694,2.385,5.955,2.385c1.019,0,1.975-0.13,2.864-0.39c0.891-0.261,1.46-0.466,1.71-0.615
		c0.25-0.15,0.445-0.275,0.584-0.375l-1.799-3.69l-0.27,0.181c-0.2,0.119-0.516,0.239-0.945,0.359s-0.885,0.18-1.365,0.18
		c-1,0-1.86-0.369-2.58-1.109s-1.081-1.641-1.081-2.7c0-1.04,0.36-1.93,1.081-2.67s1.58-1.11,2.58-1.11
		C668.533,451.426,669.392,451.666,670.052,452.146 M647.252,458.836c-1,0-1.844-0.34-2.534-1.02
		c-0.691-0.681-1.035-1.551-1.035-2.61c0-1.04,0.334-1.9,1.004-2.58c0.669-0.68,1.524-1.02,2.564-1.02
		c1.081,0,1.951,0.335,2.612,1.005c0.658,0.67,0.988,1.535,0.988,2.595s-0.344,1.93-1.034,2.61
		C649.127,458.496,648.271,458.836,647.252,458.836 M648.843,447.076c-2.04,0-3.721,0.729-5.04,2.189h-0.06v-1.739h-5.25v23.189
		h5.31v-9.27c1.319,1.28,3,1.92,5.04,1.92c2.22,0,4.049-0.79,5.49-2.37c1.439-1.58,2.161-3.51,2.161-5.79s-0.722-4.205-2.161-5.775
		C652.892,447.861,651.063,447.076,648.843,447.076 M634.443,462.916h-5.31v-15.39h5.31V462.916z M628.713,441.166
		c0,0.86,0.31,1.6,0.93,2.22c0.619,0.62,1.36,0.931,2.22,0.931s1.6-0.311,2.22-0.931c0.62-0.62,0.929-1.359,0.929-2.22
		s-0.31-1.6-0.929-2.22c-0.62-0.62-1.36-0.931-2.22-0.931s-1.601,0.311-2.22,0.931C629.023,439.566,628.713,440.306,628.713,441.166
		 M619.203,462.916v-8.1c0-0.16,0.04-0.38,0.12-0.66s0.215-0.62,0.405-1.021c0.189-0.399,0.515-0.739,0.975-1.02
		s1.01-0.42,1.65-0.42c1.18,0,2.1,0.28,2.76,0.84l2.22-4.5l-0.42-0.24c-0.26-0.16-0.67-0.319-1.23-0.479
		c-0.56-0.16-1.13-0.24-1.71-0.24c-0.56,0-1.11,0.095-1.65,0.285c-0.54,0.189-0.98,0.404-1.32,0.645
		c-0.34,0.24-0.661,0.51-0.96,0.811c-0.3,0.3-0.495,0.51-0.585,0.63c-0.09,0.12-0.156,0.22-0.196,0.3h-0.06v-2.22h-5.31v15.39
		H619.203z M609.693,452.146l1.8-3.631l-0.51-0.359c-0.36-0.24-0.971-0.48-1.83-0.72c-0.86-0.24-1.8-0.36-2.82-0.36
		c-2.26,0-4.246,0.805-5.956,2.415s-2.564,3.535-2.564,5.774c0,2.221,0.854,4.125,2.564,5.716c1.71,1.59,3.695,2.385,5.956,2.385
		c1.02,0,1.975-0.13,2.865-0.39c0.89-0.261,1.46-0.466,1.71-0.615c0.25-0.15,0.445-0.275,0.585-0.375l-1.8-3.69l-0.27,0.181
		c-0.2,0.119-0.515,0.239-0.945,0.359c-0.43,0.12-0.886,0.18-1.365,0.18c-1,0-1.86-0.369-2.58-1.109c-0.72-0.74-1.08-1.641-1.08-2.7
		c0-1.04,0.36-1.93,1.08-2.67c0.72-0.74,1.58-1.11,2.58-1.11C608.173,451.426,609.033,451.666,609.693,452.146 M585.649,448.381
		c-1.211,0.87-1.815,2.085-1.815,3.646c0,1.04,0.28,1.875,0.84,2.505c0.559,0.63,1.319,1.195,2.28,1.695
		c0.379,0.199,0.904,0.42,1.575,0.659c0.67,0.24,1.144,0.455,1.425,0.646c0.28,0.189,0.42,0.455,0.42,0.795
		c0,0.74-0.551,1.11-1.65,1.11c-0.5,0-1.09-0.165-1.77-0.495c-0.68-0.33-1.152-0.59-1.411-0.78c-0.26-0.19-0.47-0.355-0.629-0.495
		l-2.161,3.63l0.661,0.54c0.439,0.34,1.155,0.68,2.145,1.021c0.991,0.34,2.035,0.51,3.135,0.51c4.86,0,7.29-1.75,7.29-5.25
		c0-0.74-0.14-1.4-0.42-1.98c-0.281-0.58-0.676-1.06-1.185-1.439c-0.51-0.38-0.995-0.681-1.455-0.9
		c-0.461-0.22-1.001-0.42-1.621-0.6c-0.101-0.021-0.245-0.061-0.435-0.12c-0.191-0.061-0.326-0.105-0.405-0.135
		c-0.08-0.03-0.201-0.075-0.36-0.136c-0.161-0.06-0.275-0.104-0.345-0.135c-0.071-0.03-0.166-0.075-0.286-0.135
		c-0.12-0.06-0.206-0.115-0.255-0.165c-0.049-0.05-0.104-0.11-0.165-0.18c-0.06-0.07-0.101-0.146-0.12-0.226
		c-0.02-0.08-0.03-0.16-0.03-0.239c0-0.36,0.124-0.605,0.375-0.735c0.25-0.13,0.675-0.195,1.275-0.195c1.081,0,2.22,0.32,3.42,0.96
		l1.74-3.479l-0.63-0.3c-0.42-0.2-1.061-0.4-1.92-0.601c-0.86-0.2-1.73-0.3-2.61-0.3
		C588.494,447.076,586.859,447.511,585.649,448.381 M569.194,462.916v-8.7c0-0.76,0.324-1.45,0.975-2.069
		c0.649-0.62,1.374-0.931,2.175-0.931c0.819,0,1.485,0.3,1.995,0.9c0.51,0.6,0.765,1.3,0.765,2.1v8.7h5.31v-10.14
		c0-1.021-0.216-1.915-0.645-2.686c-0.432-0.77-0.99-1.364-1.68-1.785c-0.69-0.42-1.411-0.729-2.161-0.93s-1.505-0.3-2.264-0.3
		c-1.56,0-3.03,0.689-4.411,2.07h-0.059v-1.62h-5.31v15.39H569.194z M551.224,451.606c0.999,0,1.845,0.34,2.536,1.02
		c0.689,0.68,1.034,1.55,1.034,2.61c0,1.04-0.335,1.899-1.004,2.58c-0.671,0.68-1.527,1.02-2.565,1.02
		c-1.08,0-1.95-0.335-2.61-1.005c-0.66-0.67-0.99-1.535-0.99-2.595c0-1.061,0.344-1.931,1.035-2.61
		C549.349,451.946,550.205,451.606,551.224,451.606 M549.635,463.366c2.04,0,3.72-0.73,5.04-2.19h0.06v1.74h5.25v-15.39h-5.31v1.47
		c-1.32-1.28-3-1.92-5.04-1.92c-2.22,0-4.05,0.79-5.49,2.37s-2.16,3.51-2.16,5.79c0,2.279,0.72,4.205,2.16,5.774
		C545.584,462.581,547.415,463.366,549.635,463.366 M533.404,462.916v-8.1c0-0.16,0.04-0.38,0.12-0.66s0.215-0.62,0.404-1.021
		c0.19-0.399,0.516-0.739,0.976-1.02s1.01-0.42,1.65-0.42c1.18,0,2.1,0.28,2.76,0.84l2.22-4.5l-0.42-0.24
		c-0.26-0.16-0.67-0.319-1.229-0.479c-0.561-0.16-1.131-0.24-1.71-0.24c-0.561,0-1.11,0.095-1.65,0.285
		c-0.54,0.189-0.98,0.404-1.32,0.645c-0.34,0.24-0.661,0.51-0.96,0.811c-0.3,0.3-0.495,0.51-0.585,0.63
		c-0.09,0.12-0.155,0.22-0.195,0.3h-0.06v-2.22h-5.31v15.39H533.404z M514.625,447.526v4.05h2.22v5.91
		c0,0.74,0.081,1.435,0.24,2.085c0.16,0.649,0.425,1.27,0.795,1.859c0.37,0.591,0.915,1.061,1.635,1.41
		c0.72,0.351,1.58,0.525,2.58,0.525c1.46,0,2.76-0.32,3.9-0.96l-1.319-4.29l-0.181,0.12c-0.12,0.08-0.29,0.16-0.51,0.24
		c-0.22,0.079-0.43,0.119-0.63,0.119c-0.8,0-1.2-0.71-1.2-2.13v-4.89h3.24v-4.05h-3.24v-5.73h-5.31v5.73H514.625z M494.18,448.381
		c-1.211,0.87-1.815,2.085-1.815,3.646c0,1.04,0.279,1.875,0.84,2.505c0.559,0.63,1.32,1.195,2.28,1.695
		c0.379,0.199,0.904,0.42,1.575,0.659c0.67,0.24,1.144,0.455,1.425,0.646c0.279,0.189,0.42,0.455,0.42,0.795
		c0,0.74-0.551,1.11-1.65,1.11c-0.5,0-1.091-0.165-1.77-0.495c-0.681-0.33-1.151-0.59-1.41-0.78c-0.26-0.19-0.47-0.355-0.63-0.495
		l-2.16,3.63l0.66,0.54c0.439,0.34,1.155,0.68,2.145,1.021c0.99,0.34,2.035,0.51,3.135,0.51c4.86,0,7.29-1.75,7.29-5.25
		c0-0.74-0.14-1.4-0.42-1.98c-0.28-0.58-0.675-1.06-1.185-1.439s-0.995-0.681-1.455-0.9c-0.461-0.22-1-0.42-1.62-0.6
		c-0.101-0.021-0.246-0.061-0.435-0.12c-0.191-0.061-0.326-0.105-0.405-0.135c-0.08-0.03-0.2-0.075-0.36-0.136
		c-0.161-0.06-0.274-0.104-0.344-0.135c-0.072-0.03-0.165-0.075-0.285-0.135c-0.121-0.06-0.206-0.115-0.255-0.165
		c-0.051-0.05-0.105-0.11-0.165-0.18c-0.06-0.07-0.101-0.146-0.12-0.226c-0.02-0.08-0.03-0.16-0.03-0.239
		c0-0.36,0.124-0.605,0.375-0.735c0.249-0.13,0.675-0.195,1.275-0.195c1.08,0,2.219,0.32,3.42,0.96l1.74-3.479l-0.63-0.3
		c-0.42-0.2-1.061-0.4-1.92-0.601c-0.861-0.2-1.731-0.3-2.61-0.3C497.024,447.076,495.389,447.511,494.18,448.381 M479.855,451.606
		c0.999,0,1.845,0.34,2.535,1.02c0.69,0.68,1.036,1.55,1.036,2.61c0,1.04-0.336,1.899-1.006,2.58c-0.67,0.68-1.525,1.02-2.564,1.02
		c-1.08,0-1.95-0.335-2.61-1.005c-0.66-0.67-0.99-1.535-0.99-2.595c0-1.061,0.345-1.931,1.035-2.61S478.835,451.606,479.855,451.606
		 M478.265,463.366c2.04,0,3.72-0.73,5.04-2.19h0.061v1.74h5.25v-15.39h-5.311v1.47c-1.319-1.28-3-1.92-5.04-1.92
		c-2.22,0-4.05,0.79-5.49,2.37s-2.16,3.51-2.16,5.79c0,2.279,0.72,4.205,2.16,5.774
		C474.215,462.581,476.045,463.366,478.265,463.366 M467.825,437.116h-5.31v25.8h5.31V437.116z M441.035,451.216
		c0.52-0.46,1.22-0.689,2.1-0.689c0.801,0,1.456,0.215,1.966,0.645c0.51,0.431,0.825,1.045,0.945,1.845h-5.85
		C440.235,452.276,440.515,451.676,441.035,451.216 M451.235,455.236c0-2.62-0.765-4.635-2.295-6.045
		c-1.53-1.41-3.515-2.115-5.955-2.115c-2.32,0-4.31,0.8-5.97,2.4c-1.66,1.6-2.49,3.52-2.49,5.76s0.83,4.154,2.49,5.745
		c1.661,1.59,3.65,2.385,5.97,2.385c3.72,0,6.38-1.34,7.98-4.021l-3.84-1.92c-0.64,0.681-1.21,1.136-1.71,1.365
		c-0.5,0.23-1.18,0.345-2.04,0.345c-0.821,0-1.58-0.26-2.281-0.779c-0.699-0.521-1.049-1.32-1.049-2.4h11.16
		C451.226,455.836,451.235,455.596,451.235,455.236 M422.976,451.606c1,0,1.845,0.34,2.535,1.02s1.035,1.55,1.035,2.61
		c0,1.04-0.335,1.899-1.005,2.58c-0.67,0.68-1.525,1.02-2.565,1.02c-1.08,0-1.95-0.335-2.61-1.005s-0.99-1.535-0.99-2.595
		c0-1.061,0.345-1.931,1.035-2.61C421.101,451.946,421.955,451.606,422.976,451.606 M421.385,463.366c2.041,0,3.721-0.73,5.041-2.19
		h0.06v1.74h5.25v-25.8h-5.31v11.88c-1.32-1.28-3-1.92-5.041-1.92c-2.219,0-4.049,0.79-5.489,2.37c-1.44,1.58-2.16,3.51-2.16,5.79
		c0,2.279,0.72,4.205,2.16,5.774C417.335,462.581,419.166,463.366,421.385,463.366"/>
	<path clip-path="url(#SVGID_2_)" fill="#231F20" d="M1120.196,415.912v-8.699c0-0.761,0.325-1.45,0.976-2.07
		c0.65-0.62,1.375-0.93,2.175-0.93c0.821,0,1.485,0.3,1.996,0.899c0.509,0.601,0.764,1.3,0.764,2.101v8.699h5.311v-10.14
		c0-1.02-0.215-1.915-0.646-2.685c-0.429-0.771-0.989-1.365-1.679-1.785c-0.691-0.42-1.411-0.73-2.161-0.931
		c-0.75-0.199-1.505-0.3-2.265-0.3c-1.561,0-3.031,0.69-4.41,2.07h-0.062v-1.62h-5.31v15.39H1120.196z M1102.946,411.832
		c1.042,0,1.896-0.34,2.566-1.02s1.005-1.54,1.005-2.58c0-1.06-0.345-1.93-1.035-2.61c-0.69-0.68-1.536-1.02-2.536-1.02
		c-1.02,0-1.875,0.34-2.563,1.02c-0.691,0.681-1.035,1.551-1.035,2.61c0,1.061,0.329,1.925,0.989,2.595
		C1100.997,411.497,1101.867,411.832,1102.946,411.832 M1102.977,400.072c2.58,0,4.756,0.771,6.525,2.311
		c1.77,1.54,2.656,3.489,2.656,5.85s-0.866,4.305-2.596,5.835c-1.729,1.53-3.925,2.295-6.584,2.295c-2.759,0-4.995-0.76-6.706-2.28
		c-1.71-1.52-2.564-3.47-2.564-5.85s0.889-4.335,2.67-5.865C1098.158,400.838,1100.357,400.072,1102.977,400.072 M1101.658,398.303
		l7.14-4.141l-2.731-3.449l-6.089,5.279L1101.658,398.303z M1090.769,415.912h-5.31v-15.39h5.31V415.912z M1085.039,394.162
		c0,0.86,0.31,1.601,0.93,2.221c0.619,0.62,1.36,0.93,2.219,0.93c0.86,0,1.601-0.31,2.221-0.93c0.618-0.62,0.929-1.36,0.929-2.221
		c0-0.859-0.312-1.6-0.929-2.22c-0.62-0.62-1.361-0.93-2.221-0.93c-0.859,0-1.6,0.31-2.219,0.93
		C1085.348,392.562,1085.039,393.303,1085.039,394.162 M1081.259,405.143l1.799-3.63l-0.509-0.36c-0.361-0.24-0.97-0.479-1.831-0.72
		s-1.8-0.36-2.821-0.36c-2.259,0-4.244,0.806-5.955,2.415c-1.709,1.61-2.564,3.535-2.564,5.775c0,2.22,0.855,4.125,2.564,5.715
		c1.711,1.59,3.696,2.385,5.955,2.385c1.021,0,1.976-0.13,2.865-0.39c0.891-0.26,1.46-0.465,1.71-0.615s0.445-0.275,0.584-0.375
		l-1.799-3.689l-0.271,0.18c-0.199,0.12-0.515,0.24-0.944,0.359c-0.431,0.12-0.885,0.181-1.365,0.181c-1,0-1.86-0.37-2.581-1.11
		c-0.72-0.74-1.08-1.64-1.08-2.7c0-1.04,0.36-1.93,1.08-2.67c0.72-0.739,1.581-1.109,2.581-1.109
		C1079.738,404.423,1080.598,404.662,1081.259,405.143 M1057.829,404.603c1,0,1.845,0.34,2.534,1.02
		c0.69,0.681,1.035,1.551,1.035,2.61c0,1.04-0.334,1.9-1.004,2.58s-1.524,1.02-2.564,1.02c-1.081,0-1.951-0.335-2.61-1.005
		c-0.661-0.67-0.991-1.534-0.991-2.595c0-1.06,0.346-1.93,1.035-2.61C1055.953,404.942,1056.808,404.603,1057.829,404.603
		 M1056.238,416.362c2.041,0,3.721-0.729,5.041-2.189h0.06v1.739h5.25v-15.39h-5.31v1.47c-1.319-1.279-3-1.92-5.041-1.92
		c-2.22,0-4.05,0.79-5.49,2.37c-1.44,1.58-2.16,3.51-2.16,5.79s0.72,4.205,2.16,5.775
		C1052.188,415.577,1054.018,416.362,1056.238,416.362 M1040.009,415.912v-8.1c0-0.16,0.04-0.38,0.119-0.66
		c0.08-0.28,0.215-0.62,0.406-1.02c0.189-0.4,0.515-0.74,0.975-1.021c0.459-0.28,1.009-0.42,1.65-0.42c1.179,0,2.1,0.28,2.759,0.84
		l2.22-4.5l-0.42-0.239c-0.259-0.16-0.669-0.32-1.23-0.48c-0.56-0.16-1.13-0.24-1.709-0.24c-0.56,0-1.11,0.096-1.65,0.285
		c-0.54,0.19-0.98,0.405-1.32,0.646c-0.34,0.239-0.661,0.51-0.96,0.81s-0.495,0.51-0.585,0.63c-0.089,0.12-0.155,0.22-0.195,0.3
		h-0.059v-2.22h-5.31v15.39H1040.009z M1022.039,404.603c1,0,1.845,0.34,2.535,1.02c0.689,0.681,1.034,1.551,1.034,2.61
		c0,1.04-0.335,1.9-1.005,2.58s-1.524,1.02-2.564,1.02c-1.08,0-1.951-0.335-2.61-1.005s-0.991-1.534-0.991-2.595
		c0-1.06,0.346-1.93,1.036-2.61C1020.163,404.942,1021.018,404.603,1022.039,404.603 M1020.449,416.362
		c2.04,0,3.719-0.729,5.039-2.189h0.061v1.739h5.25v-15.39h-5.311v1.47c-1.32-1.279-3-1.92-5.039-1.92
		c-2.221,0-4.051,0.79-5.49,2.37c-1.441,1.58-2.16,3.51-2.16,5.79s0.719,4.205,2.16,5.775
		C1016.397,415.577,1018.228,416.362,1020.449,416.362 M1001.878,411.832c-1,0-1.844-0.34-2.535-1.02
		c-0.689-0.68-1.035-1.55-1.035-2.61c0-1.04,0.335-1.899,1.005-2.58c0.669-0.68,1.525-1.02,2.565-1.02
		c1.081,0,1.951,0.335,2.61,1.005c0.659,0.67,0.989,1.535,0.989,2.595c0,1.061-0.344,1.931-1.035,2.61
		C1003.753,411.492,1002.897,411.832,1001.878,411.832 M1003.468,400.072c-2.04,0-3.72,0.73-5.04,2.19h-0.06v-1.74h-5.25v23.19h5.31
		v-9.271c1.32,1.28,3,1.92,5.04,1.92c2.219,0,4.049-0.79,5.491-2.37c1.438-1.58,2.16-3.51,2.16-5.79c0-2.279-0.721-4.205-2.16-5.774
		C1007.518,400.857,1005.688,400.072,1003.468,400.072 M968.579,415.912v-9c0-0.699,0.206-1.305,0.615-1.814
		c0.409-0.51,1.024-0.766,1.845-0.766c0.9,0,1.576,0.275,2.024,0.825c0.45,0.55,0.676,1.235,0.676,2.056v8.699h5.31v-9.18
		c0.04-0.66,0.264-1.225,0.674-1.695c0.41-0.47,1.005-0.705,1.786-0.705c0.9,0,1.574,0.275,2.025,0.825
		c0.449,0.55,0.675,1.235,0.675,2.056v8.699h5.31v-10.14c0-1.96-0.59-3.4-1.77-4.32c-1.182-0.92-2.591-1.38-4.23-1.38
		c-1.841,0-3.54,0.94-5.1,2.82c-0.5-0.96-1.241-1.67-2.22-2.13c-0.981-0.46-2.03-0.69-3.149-0.69c-1.56,0-3.031,0.69-4.411,2.07
		h-0.06v-1.62h-5.31v15.39H968.579z M951.329,404.603c1,0,1.846,0.34,2.536,1.02c0.689,0.681,1.034,1.551,1.034,2.61
		c0,1.04-0.335,1.9-1.005,2.58c-0.67,0.68-1.524,1.02-2.564,1.02c-1.08,0-1.95-0.335-2.61-1.005c-0.66-0.67-0.99-1.534-0.99-2.595
		c0-1.06,0.346-1.93,1.035-2.61C949.455,404.942,950.309,404.603,951.329,404.603 M951.359,416.362c2.66,0,4.855-0.765,6.585-2.295
		c1.729-1.53,2.595-3.475,2.595-5.835s-0.885-4.31-2.654-5.85c-1.77-1.54-3.946-2.311-6.526-2.311c-2.619,0-4.82,0.766-6.599,2.295
		c-1.782,1.53-2.67,3.485-2.67,5.865s0.855,4.33,2.565,5.85C946.365,415.603,948.599,416.362,951.359,416.362 M938.939,405.143
		l1.801-3.63l-0.511-0.36c-0.36-0.24-0.969-0.479-1.83-0.72c-0.86-0.24-1.8-0.36-2.82-0.36c-2.259,0-4.245,0.806-5.955,2.415
		c-1.71,1.61-2.565,3.535-2.565,5.775c0,2.22,0.855,4.125,2.565,5.715s3.695,2.385,5.955,2.385c1.02,0,1.975-0.13,2.865-0.39
		s1.46-0.465,1.71-0.615s0.445-0.275,0.585-0.375l-1.801-3.689l-0.27,0.18c-0.201,0.12-0.515,0.24-0.945,0.359
		c-0.43,0.12-0.885,0.181-1.365,0.181c-1,0-1.859-0.37-2.579-1.11c-0.721-0.74-1.08-1.64-1.08-2.7c0-1.04,0.359-1.93,1.08-2.67
		c0.72-0.739,1.579-1.109,2.579-1.109C937.419,404.423,938.28,404.662,938.939,405.143 M908.399,408.412l-4.29-7.89h-6.119
		l7.29,12.99l-5.311,10.2h6.121l12.089-23.19h-6.12L908.399,408.412z M878.805,401.378c-1.21,0.869-1.814,2.085-1.814,3.645
		c0,1.04,0.278,1.875,0.84,2.505c0.558,0.63,1.319,1.195,2.28,1.695c0.379,0.2,0.903,0.42,1.575,0.66
		c0.668,0.239,1.144,0.455,1.425,0.645c0.278,0.19,0.42,0.455,0.42,0.795c0,0.74-0.551,1.11-1.65,1.11c-0.5,0-1.09-0.165-1.77-0.495
		c-0.682-0.33-1.151-0.59-1.41-0.78c-0.262-0.189-0.472-0.354-0.63-0.495l-2.16,3.631l0.66,0.539
		c0.439,0.341,1.155,0.681,2.146,1.021c0.989,0.34,2.034,0.51,3.134,0.51c4.86,0,7.29-1.75,7.29-5.25c0-0.74-0.141-1.399-0.42-1.979
		c-0.281-0.58-0.675-1.061-1.185-1.44s-0.996-0.68-1.455-0.899c-0.461-0.221-1.001-0.421-1.621-0.601
		c-0.101-0.02-0.246-0.06-0.435-0.12c-0.19-0.06-0.325-0.104-0.404-0.135c-0.081-0.03-0.201-0.075-0.36-0.135
		c-0.161-0.061-0.276-0.105-0.345-0.135c-0.071-0.03-0.165-0.075-0.286-0.136c-0.12-0.06-0.205-0.114-0.254-0.165
		c-0.051-0.05-0.106-0.109-0.166-0.18c-0.06-0.07-0.101-0.145-0.12-0.225c-0.021-0.08-0.031-0.16-0.031-0.24
		c0-0.36,0.125-0.605,0.375-0.735c0.249-0.13,0.675-0.194,1.275-0.194c1.081,0,2.22,0.319,3.42,0.96l1.741-3.48l-0.63-0.3
		c-0.42-0.2-1.062-0.4-1.92-0.601c-0.861-0.199-1.731-0.3-2.61-0.3C881.649,400.072,880.014,400.508,878.805,401.378
		 M864.15,404.213c0.52-0.46,1.219-0.69,2.101-0.69c0.799,0,1.455,0.215,1.965,0.646c0.509,0.43,0.825,1.045,0.945,1.845h-5.851
		C863.349,405.272,863.629,404.673,864.15,404.213 M874.35,408.232c0-2.62-0.765-4.635-2.295-6.045
		c-1.53-1.41-3.515-2.115-5.955-2.115c-2.32,0-4.311,0.8-5.97,2.4c-1.661,1.6-2.49,3.52-2.49,5.76s0.829,4.155,2.49,5.745
		c1.66,1.59,3.65,2.385,5.97,2.385c3.72,0,6.379-1.34,7.98-4.02l-3.84-1.92c-0.642,0.68-1.211,1.135-1.71,1.364
		c-0.5,0.23-1.181,0.346-2.04,0.346c-0.821,0-1.581-0.261-2.281-0.78c-0.7-0.521-1.049-1.32-1.049-2.4h11.16
		C874.339,408.832,874.35,408.593,874.35,408.232 M854.85,390.112h-5.31v25.8h5.31V390.112z M836.88,404.603
		c1,0,1.845,0.34,2.536,1.02c0.689,0.681,1.035,1.551,1.035,2.61c0,1.04-0.335,1.9-1.005,2.58c-0.672,0.68-1.526,1.02-2.566,1.02
		c-1.08,0-1.95-0.335-2.61-1.005c-0.659-0.67-0.989-1.534-0.989-2.595c0-1.06,0.345-1.93,1.035-2.61
		C835.005,404.942,835.86,404.603,836.88,404.603 M835.291,416.362c2.04,0,3.72-0.729,5.04-2.189h0.06v1.739h5.25v-15.39h-5.31v1.47
		c-1.32-1.279-3-1.92-5.04-1.92c-2.22,0-4.05,0.79-5.49,2.37c-1.44,1.58-2.16,3.51-2.16,5.79s0.72,4.205,2.16,5.775
		C831.241,415.577,833.07,416.362,835.291,416.362 M813.93,415.912v-8.699c0-0.761,0.325-1.45,0.975-2.07
		c0.649-0.62,1.375-0.93,2.175-0.93c0.819,0,1.484,0.3,1.995,0.899c0.51,0.601,0.765,1.3,0.765,2.101v8.699h5.31v-10.14
		c0-1.02-0.215-1.915-0.645-2.685c-0.43-0.771-0.99-1.365-1.68-1.785c-0.691-0.42-1.41-0.73-2.16-0.931
		c-0.75-0.199-1.505-0.3-2.266-0.3c-1.56,0-3.029,0.69-4.409,2.07h-0.061v-1.62h-5.31v15.39H813.93z M804.57,415.912h-5.31v-15.39
		h5.31V415.912z M798.84,394.162c0,0.86,0.31,1.601,0.929,2.221c0.621,0.62,1.36,0.93,2.221,0.93c0.859,0,1.6-0.31,2.219-0.93
		c0.621-0.62,0.93-1.36,0.93-2.221c0-0.859-0.31-1.6-0.93-2.22c-0.62-0.62-1.36-0.93-2.219-0.93c-0.861,0-1.601,0.31-2.221,0.93
		C799.15,392.562,798.84,393.303,798.84,394.162 M786.6,404.603c1,0,1.846,0.34,2.535,1.02c0.691,0.681,1.035,1.551,1.035,2.61
		c0,1.04-0.334,1.9-1.004,2.58c-0.67,0.68-1.525,1.02-2.565,1.02c-1.081,0-1.95-0.335-2.609-1.005c-0.66-0.67-0.99-1.534-0.99-2.595
		c0-1.06,0.344-1.93,1.035-2.61C784.725,404.942,785.581,404.603,786.6,404.603 M786.3,424.162c2.719,0,4.91-0.68,6.57-2.04
		c1.66-1.359,2.49-3.29,2.49-5.79v-15.81h-5.31v1.38h-0.09c-1.32-1.22-2.969-1.83-4.95-1.83c-2.22,0-4.05,0.79-5.491,2.37
		c-1.439,1.58-2.159,3.51-2.159,5.79s0.72,4.205,2.159,5.775c1.44,1.569,3.271,2.354,5.491,2.354c2.42,0,4.1-0.52,5.04-1.56v1.14
		c0,1.22-0.395,2.125-1.185,2.715c-0.79,0.59-1.646,0.886-2.565,0.886c-1.98,0-3.37-0.66-4.17-1.98l-4.35,2.13
		C779.06,422.673,781.9,424.162,786.3,424.162 M774.421,415.912h-5.311v-15.39h5.311V415.912z M768.691,394.162
		c0,0.86,0.311,1.601,0.93,2.221s1.359,0.93,2.221,0.93c0.859,0,1.599-0.31,2.219-0.93c0.619-0.62,0.931-1.36,0.931-2.221
		c0-0.859-0.312-1.6-0.931-2.22c-0.62-0.62-1.36-0.93-2.219-0.93c-0.861,0-1.601,0.31-2.221,0.93S768.691,393.303,768.691,394.162
		 M759.181,415.912v-8.1c0-0.16,0.04-0.38,0.121-0.66c0.08-0.28,0.214-0.62,0.405-1.02c0.189-0.4,0.514-0.74,0.975-1.021
		c0.46-0.28,1.01-0.42,1.65-0.42c1.179,0,2.1,0.28,2.76,0.84l2.219-4.5l-0.42-0.239c-0.26-0.16-0.67-0.32-1.23-0.48
		c-0.56-0.16-1.129-0.24-1.71-0.24c-0.56,0-1.109,0.096-1.649,0.285c-0.541,0.19-0.98,0.405-1.321,0.646
		c-0.339,0.239-0.659,0.51-0.959,0.81c-0.3,0.3-0.495,0.51-0.585,0.63c-0.089,0.12-0.154,0.22-0.194,0.3h-0.061v-2.22h-5.31v15.39
		H759.181z M741.931,404.603c1,0,1.845,0.34,2.536,1.02c0.69,0.681,1.035,1.551,1.035,2.61c0,1.04-0.335,1.9-1.005,2.58
		s-1.526,1.02-2.565,1.02c-1.08,0-1.951-0.335-2.609-1.005c-0.661-0.67-0.99-1.534-0.99-2.595c0-1.06,0.345-1.93,1.035-2.61
		C740.056,404.942,740.911,404.603,741.931,404.603 M741.961,416.362c2.66,0,4.854-0.765,6.584-2.295
		c1.73-1.53,2.595-3.475,2.595-5.835s-0.885-4.31-2.655-5.85c-1.769-1.54-3.944-2.311-6.524-2.311c-2.62,0-4.82,0.766-6.601,2.295
		c-1.779,1.53-2.669,3.485-2.669,5.865s0.855,4.33,2.565,5.85C736.967,415.603,739.201,416.362,741.961,416.362 M712.037,401.378
		c-1.21,0.869-1.815,2.085-1.815,3.645c0,1.04,0.28,1.875,0.839,2.505s1.321,1.195,2.281,1.695c0.378,0.2,0.904,0.42,1.575,0.66
		c0.67,0.239,1.144,0.455,1.425,0.645c0.279,0.19,0.419,0.455,0.419,0.795c0,0.74-0.551,1.11-1.65,1.11
		c-0.5,0-1.091-0.165-1.77-0.495c-0.68-0.33-1.152-0.59-1.411-0.78c-0.26-0.189-0.47-0.354-0.63-0.495l-2.16,3.631l0.66,0.539
		c0.439,0.341,1.155,0.681,2.146,1.021c0.989,0.34,2.034,0.51,3.135,0.51c4.859,0,7.29-1.75,7.29-5.25
		c0-0.74-0.14-1.399-0.419-1.979c-0.281-0.58-0.676-1.061-1.186-1.44s-0.996-0.68-1.456-0.899c-0.46-0.221-1-0.421-1.62-0.601
		c-0.1-0.02-0.244-0.06-0.434-0.12c-0.192-0.06-0.327-0.104-0.406-0.135c-0.08-0.03-0.2-0.075-0.359-0.135
		c-0.161-0.061-0.275-0.105-0.346-0.135c-0.07-0.03-0.165-0.075-0.285-0.136c-0.12-0.06-0.206-0.114-0.255-0.165
		c-0.05-0.05-0.105-0.109-0.165-0.18c-0.059-0.07-0.1-0.145-0.119-0.225c-0.021-0.08-0.03-0.16-0.03-0.24
		c0-0.36,0.124-0.605,0.375-0.735c0.25-0.13,0.675-0.194,1.274-0.194c1.08,0,2.221,0.319,3.42,0.96l1.739-3.48l-0.629-0.3
		c-0.42-0.2-1.061-0.4-1.92-0.601c-0.86-0.199-1.729-0.3-2.61-0.3C714.883,400.072,713.247,400.508,712.037,401.378
		 M698.372,404.603c1,0,1.846,0.34,2.536,1.02c0.689,0.681,1.034,1.551,1.034,2.61c0,1.04-0.335,1.9-1.005,2.58
		c-0.671,0.68-1.524,1.02-2.565,1.02c-1.08,0-1.95-0.335-2.61-1.005c-0.661-0.67-0.991-1.534-0.991-2.595
		c0-1.06,0.346-1.93,1.036-2.61C696.497,404.942,697.352,404.603,698.372,404.603 M698.402,416.362c2.659,0,4.856-0.765,6.586-2.295
		c1.729-1.53,2.595-3.475,2.595-5.835s-0.885-4.31-2.656-5.85c-1.769-1.54-3.945-2.311-6.525-2.311c-2.619,0-4.819,0.766-6.6,2.295
		c-1.781,1.53-2.669,3.485-2.669,5.865s0.855,4.33,2.565,5.85C693.408,415.603,695.642,416.362,698.402,416.362 M686.343,390.112
		h-5.31v25.8h5.31V390.112z M659.552,404.213c0.521-0.46,1.219-0.69,2.1-0.69c0.801,0,1.455,0.215,1.966,0.646
		c0.51,0.43,0.824,1.045,0.944,1.845h-5.85C658.752,405.272,659.033,404.673,659.552,404.213 M669.752,408.232
		c0-2.62-0.764-4.635-2.294-6.045c-1.531-1.41-3.516-2.115-5.956-2.115c-2.32,0-4.31,0.8-5.969,2.4c-1.661,1.6-2.49,3.52-2.49,5.76
		s0.83,4.155,2.49,5.745c1.659,1.59,3.649,2.385,5.969,2.385c3.72,0,6.381-1.34,7.98-4.02l-3.84-1.92
		c-0.64,0.68-1.21,1.135-1.71,1.364c-0.5,0.23-1.18,0.346-2.04,0.346c-0.819,0-1.581-0.261-2.28-0.78
		c-0.7-0.521-1.051-1.32-1.051-2.4h11.161C669.743,408.832,669.752,408.593,669.752,408.232 M641.493,404.603
		c1,0,1.845,0.34,2.534,1.02c0.691,0.681,1.035,1.551,1.035,2.61c0,1.04-0.334,1.9-1.004,2.58c-0.67,0.68-1.524,1.02-2.564,1.02
		c-1.08,0-1.95-0.335-2.61-1.005c-0.661-0.67-0.991-1.534-0.991-2.595c0-1.06,0.345-1.93,1.035-2.61
		C639.617,404.942,640.472,404.603,641.493,404.603 M639.902,416.362c2.04,0,3.72-0.729,5.04-2.189h0.06v1.739h5.25v-25.8h-5.31
		v11.88c-1.32-1.279-3-1.92-5.04-1.92c-2.22,0-4.05,0.79-5.49,2.37c-1.44,1.58-2.161,3.51-2.161,5.79s0.72,4.205,2.161,5.775
		C635.853,415.577,637.682,416.362,639.902,416.362 M610.052,415.912v-8.699c0-0.761,0.325-1.45,0.975-2.07
		c0.649-0.62,1.375-0.93,2.175-0.93c0.82,0,1.485,0.3,1.995,0.899c0.51,0.601,0.765,1.3,0.765,2.101v8.699h5.311v-10.14
		c0-1.02-0.215-1.915-0.645-2.685c-0.43-0.771-0.991-1.365-1.68-1.785s-1.41-0.73-2.16-0.931c-0.75-0.199-1.505-0.3-2.265-0.3
		c-1.561,0-3.03,0.69-4.41,2.07h-0.06v-1.62h-5.31v15.39H610.052z M592.803,411.832c1.04,0,1.895-0.34,2.565-1.02
		c0.669-0.68,1.005-1.54,1.005-2.58c0-1.06-0.345-1.93-1.036-2.61c-0.689-0.68-1.536-1.02-2.535-1.02c-1.02,0-1.875,0.34-2.564,1.02
		c-0.69,0.681-1.035,1.551-1.035,2.61c0,1.061,0.33,1.925,0.99,2.595S591.723,411.832,592.803,411.832 M592.833,400.072
		c2.58,0,4.754,0.771,6.525,2.311c1.77,1.54,2.654,3.489,2.654,5.85s-0.865,4.305-2.595,5.835c-1.73,1.53-3.926,2.295-6.584,2.295
		c-2.76,0-4.996-0.76-6.706-2.28c-1.71-1.52-2.564-3.47-2.564-5.85s0.889-4.335,2.67-5.865
		C588.012,400.838,590.212,400.072,592.833,400.072 M591.513,398.303l7.141-4.141l-2.73-3.449l-6.09,5.279L591.513,398.303z
		 M580.624,415.912h-5.31v-15.39h5.31V415.912z M574.893,394.162c0,0.86,0.31,1.601,0.93,2.221s1.36,0.93,2.22,0.93
		c0.86,0,1.6-0.31,2.219-0.93c0.621-0.62,0.931-1.36,0.931-2.221c0-0.859-0.31-1.6-0.931-2.22c-0.62-0.62-1.359-0.93-2.219-0.93
		c-0.86,0-1.6,0.31-2.22,0.93S574.893,393.303,574.893,394.162 M571.113,405.143l1.8-3.63l-0.51-0.36
		c-0.36-0.24-0.97-0.479-1.83-0.72s-1.8-0.36-2.82-0.36c-2.26,0-4.245,0.806-5.955,2.415c-1.71,1.61-2.565,3.535-2.565,5.775
		c0,2.22,0.854,4.125,2.565,5.715s3.695,2.385,5.955,2.385c1.02,0,1.975-0.13,2.865-0.39c0.891-0.26,1.46-0.465,1.71-0.615
		s0.445-0.275,0.585-0.375l-1.8-3.689l-0.271,0.18c-0.2,0.12-0.515,0.24-0.944,0.359c-0.43,0.12-0.886,0.181-1.365,0.181
		c-1,0-1.86-0.37-2.58-1.11c-0.72-0.74-1.08-1.64-1.08-2.7c0-1.04,0.36-1.93,1.08-2.67c0.72-0.739,1.58-1.109,2.58-1.109
		C569.593,404.423,570.453,404.662,571.113,405.143 M547.683,404.603c1,0,1.845,0.34,2.535,1.02c0.69,0.681,1.035,1.551,1.035,2.61
		c0,1.04-0.335,1.9-1.005,2.58c-0.67,0.68-1.525,1.02-2.565,1.02c-1.08,0-1.95-0.335-2.61-1.005s-0.99-1.534-0.99-2.595
		c0-1.06,0.345-1.93,1.035-2.61C545.808,404.942,546.663,404.603,547.683,404.603 M546.093,416.362c2.041,0,3.721-0.729,5.041-2.189
		h0.06v1.739h5.25v-15.39h-5.31v1.47c-1.32-1.279-3-1.92-5.041-1.92c-2.219,0-4.049,0.79-5.489,2.37c-1.44,1.58-2.16,3.51-2.16,5.79
		s0.72,4.205,2.16,5.775C542.043,415.577,543.874,416.362,546.093,416.362 M522.033,400.522v4.05h6.36l-7.62,11.34h15.93v-4.05
		h-7.02l7.62-11.34H522.033z M518.375,415.912h-5.31v-15.39h5.31V415.912z M512.645,394.162c0,0.86,0.31,1.601,0.93,2.221
		c0.619,0.62,1.36,0.93,2.22,0.93c0.859,0,1.601-0.31,2.22-0.93s0.93-1.36,0.93-2.221c0-0.859-0.311-1.6-0.93-2.22
		s-1.361-0.93-2.22-0.93c-0.86,0-1.601,0.31-2.22,0.93C512.955,392.562,512.645,393.303,512.645,394.162 M509.165,390.112h-5.31
		v25.8h5.31V390.112z M491.194,404.603c1,0,1.845,0.34,2.535,1.02c0.69,0.681,1.035,1.551,1.035,2.61c0,1.04-0.335,1.9-1.004,2.58
		c-0.67,0.68-1.525,1.02-2.565,1.02c-1.08,0-1.95-0.335-2.61-1.005s-0.99-1.534-0.99-2.595c0-1.06,0.345-1.93,1.035-2.61
		C489.319,404.942,490.175,404.603,491.194,404.603 M489.604,416.362c2.04,0,3.72-0.729,5.04-2.189h0.06v1.739h5.25v-15.39h-5.31
		v1.47c-1.32-1.279-3-1.92-5.04-1.92c-2.22,0-4.05,0.79-5.49,2.37c-1.439,1.58-2.16,3.51-2.16,5.79s0.72,4.205,2.16,5.775
		C485.554,415.577,487.385,416.362,489.604,416.362 M462.784,400.522v8.61c0,2.56,0.665,4.404,1.995,5.535
		c1.33,1.13,3.445,1.694,6.345,1.694c2.9,0,5.015-0.564,6.344-1.694c1.331-1.131,1.996-2.976,1.996-5.535v-8.61h-5.31v7.32
		c0,1.52-0.229,2.6-0.69,3.239c-0.46,0.641-1.24,0.961-2.34,0.961c-1.1,0-1.88-0.32-2.34-0.961c-0.46-0.64-0.69-1.72-0.69-3.239
		v-7.32H462.784z M449.81,401.378c-1.21,0.869-1.815,2.085-1.815,3.645c0,1.04,0.28,1.875,0.84,2.505s1.32,1.195,2.28,1.695
		c0.38,0.2,0.905,0.42,1.575,0.66c0.67,0.239,1.145,0.455,1.425,0.645c0.28,0.19,0.42,0.455,0.42,0.795c0,0.74-0.55,1.11-1.649,1.11
		c-0.5,0-1.091-0.165-1.771-0.495s-1.15-0.59-1.41-0.78c-0.26-0.189-0.47-0.354-0.63-0.495l-2.16,3.631l0.66,0.539
		c0.44,0.341,1.155,0.681,2.145,1.021c0.991,0.34,2.035,0.51,3.136,0.51c4.86,0,7.29-1.75,7.29-5.25c0-0.74-0.141-1.399-0.42-1.979
		s-0.674-1.061-1.185-1.44s-0.996-0.68-1.455-0.899c-0.46-0.221-1-0.421-1.62-0.601c-0.1-0.02-0.246-0.06-0.435-0.12
		c-0.19-0.06-0.325-0.104-0.405-0.135c-0.081-0.03-0.2-0.075-0.36-0.135c-0.16-0.061-0.275-0.105-0.344-0.135
		c-0.071-0.03-0.166-0.075-0.285-0.136c-0.121-0.06-0.206-0.114-0.255-0.165c-0.05-0.05-0.105-0.109-0.165-0.18
		s-0.1-0.145-0.12-0.225s-0.03-0.16-0.03-0.24c0-0.36,0.125-0.605,0.375-0.735s0.675-0.194,1.275-0.194
		c1.081,0,2.22,0.319,3.42,0.96l1.74-3.48l-0.63-0.3c-0.42-0.2-1.06-0.4-1.92-0.601c-0.86-0.199-1.73-0.3-2.61-0.3
		C452.654,400.072,451.02,400.508,449.81,401.378 M443.975,415.912h-5.31v-15.39h5.31V415.912z M438.245,394.162
		c0,0.86,0.31,1.601,0.931,2.221c0.62,0.62,1.359,0.93,2.22,0.93c0.86,0,1.6-0.31,2.22-0.93s0.93-1.36,0.93-2.221
		c0-0.859-0.31-1.6-0.93-2.22s-1.36-0.93-2.22-0.93c-0.86,0-1.6,0.31-2.22,0.93C438.555,392.562,438.245,393.303,438.245,394.162
		 M427.025,415.912l10.38-24.75h-6.36l-6.241,16.261l-6.239-16.261h-6.36l10.38,24.75H427.025z"/>
	<polygon clip-path="url(#SVGID_2_)" fill="none" stroke="#231F20" stroke-width="1.998" points="1,3.001 1,502.194 1,504.196 
		3.001,504.196 1167.088,504.196 1169.09,504.196 1169.09,502.194 1169.09,3.001 1169.09,0.999 1167.088,0.999 3.001,0.999 1,0.999 
			"/>
</g>
<rect x="5.002" y="5.003" fill="none" stroke="#231F20" stroke-width="1.998" width="1160.085" height="495.189"/>
<line fill="none" stroke="#231F20" stroke-width="2" x1="403.032" y1="178.169" x2="1144.087" y2="178.169"/>
<line fill="none" stroke="#231F20" stroke-width="2" x1="403.032" y1="357.413" x2="1144.087" y2="357.413"/>
<line fill="none" stroke="#231F20" stroke-width="2" x1="382.028" y1="26.156" x2="382.028" y2="480.19"/>
<line fill="none" stroke="#231F20" stroke-width="2" x1="920.044" y1="199.169" x2="920.044" y2="336.413"/>
<polygon fill="#231F20" points="55.936,467.056 329.757,467.056 329.757,391.062 135.549,391.062 135.549,293.354 315.282,293.354 
	315.282,217.359 135.549,217.359 135.549,120.859 322.519,120.859 322.519,44.864 55.936,44.864 "/>
<g>
	<defs>
		<rect id="SVGID_89_" x="0.001" y="0.001" width="1170.088" height="505.191"/>
	</defs>
	<clipPath id="SVGID_4_">
		<use xlink:href="#SVGID_89_"  overflow="visible"/>
	</clipPath>
	<path clip-path="url(#SVGID_4_)" fill="#FF1419" d="M823.711,320.278c11.916-13.618,22.981-24.115,32.628-31.492
		c11.065-8.513,20.995-14.187,29.507-17.023v-6.526c-11.915-5.106-22.129-11.064-30.358-18.725
		c-16.456-15.037-27.237-25.535-31.777-31.21h-19.577c4.54,9.647,9.362,18.442,14.186,26.386c3.972,5.959,8.229,11.633,13.62,17.308
		H426.229v17.307h405.996c-7.378,9.079-11.634,15.038-13.904,18.726c-5.958,9.646-10.781,18.158-13.618,25.251H823.711z"/>
</g>
</svg>
