<?xml version="1.0" encoding="utf-8"?>
<!-- Generator: Adobe Illustrator 16.0.0, SVG Export Plug-In . SVG Version: 6.00 Build 0)  -->
<!DOCTYPE svg PUBLIC "-//W3C//DTD SVG 1.1//EN" "http://www.w3.org/Graphics/SVG/1.1/DTD/svg11.dtd">
<svg version="1.1" id="Layer_1" xmlns="http://www.w3.org/2000/svg" xmlns:xlink="http://www.w3.org/1999/xlink" x="0px" y="0px"
	 width="1170.09px" height="505.192px" viewBox="0 0 1170.09 505.192" enable-background="new 0 0 1170.09 505.192"
	 xml:space="preserve">
<g>
	<defs>
		<rect id="SVGID_81_" x="0.002" y="0.001" width="1170.088" height="505.191"/>
	</defs>
	<clipPath id="SVGID_2_">
		<use xlink:href="#SVGID_81_"  overflow="visible"/>
	</clipPath>
	<path clip-path="url(#SVGID_2_)" fill="#FF1419" d="M1099.963,71.966c0-3.6-0.15-7.65-1.199-10.8c-1.051-3-2.701-5.101-5.25-5.101
		c-4.2,0.15-5.55,4.5-5.55,10.951c0,3.75,1.65,7.649,4.05,11.85c2.399,4.199,5.55,8.55,8.7,13.199
		c3.75,5.551,7.5,11.25,10.35,16.801c2.85,5.55,4.8,11.25,4.8,17.25c0,7.35-1.201,14.25-4.65,19.35c-3.449,5.101-9,8.4-17.85,8.4
		c-10.35,0-16.201-3.9-19.5-9.9c-3.3-6-4.05-13.95-4.05-22.2l15.9-1.5c0,4.65,0.15,9.301,1.35,12.75c1.05,3.601,2.85,6,6.3,6
		c4.799,0,6.6-5.1,6.6-12.149c0-3.601-1.8-7.8-4.199-12.15c-1.351-2.1-2.701-4.35-4.201-6.6c-3.15-4.5-6.6-9.6-10.2-15.15
		c-3.6-5.55-6.3-11.25-7.951-17.1c-0.899-2.85-1.35-5.85-1.35-8.85c0-6,1.35-12.451,4.8-17.4c3.45-4.801,8.7-8.25,16.35-8.4
		c9.75-0.15,15.45,3.9,18.6,9.75c3.15,6,4.05,13.35,4.05,19.5L1099.963,71.966z M1017.314,42.416h37.05v16.649h-20.85v28.951h15
		v17.699h-15v30.3h20.85v16.65h-37.05V42.416z M965.417,95.216l-1.35-5.1h-0.9v62.55h-14.85V42.416h14.401l15.75,57.45l1.35,5.1h0.9
		v-62.55h14.849v110.25h-14.399L965.417,95.216z M911.417,65.065c0-3-0.6-5.1-2.1-6.899c-0.75-0.75-1.95-1.2-3.3-1.2
		c-2.851,0-4.2,2.1-4.8,4.051c-0.45,1.199-0.601,2.549-0.601,4.049v64.95c0,3.15,0.75,5.25,2.25,6.9c0.75,0.75,1.8,1.2,3.15,1.2
		c2.85,0,4.2-1.8,4.8-4.05c0.45-1.051,0.6-2.4,0.6-4.051V65.065z M927.618,130.016c-0.149,4.5-1.05,8.551-2.7,12
		c-1.35,3-3.449,5.851-6.449,8.101c-3,2.399-7.051,3.75-12.45,3.75c-5.4,0-9.601-1.351-12.601-3.75c-3-2.25-4.949-5.101-6.3-8.101
		c-1.649-3.449-2.55-7.5-2.7-12v-64.95c0.15-4.35,1.051-8.399,2.7-11.85c1.351-3,3.3-6,6.3-8.25s7.2-3.75,12.601-3.75
		c5.399,0,9.45,1.5,12.45,3.75s5.1,5.25,6.449,8.25c1.65,3.45,2.551,7.5,2.7,11.85V130.016z M847.52,42.416h16.201v110.25H847.52
		V42.416z M828.021,114.866v15.149c-0.15,4.5-1.05,8.551-2.701,12c-1.35,3-3.45,5.851-6.45,8.101c-3,2.399-7.05,3.75-12.451,3.75
		c-5.399,0-9.6-1.351-12.6-3.75c-3-2.25-4.95-5.101-6.299-8.101c-1.65-3.449-2.55-7.5-2.701-12v-64.95
		c0.15-4.35,1.05-8.399,2.701-11.85c1.35-3,3.299-6,6.299-8.25s7.201-3.75,12.6-3.75c5.4,0,9.451,1.5,12.451,3.75
		s5.1,5.25,6.45,8.25c1.65,3.45,2.55,7.5,2.701,11.85v15.15h-15.15v-15.15c0-3-0.75-5.1-2.4-6.899c-0.75-0.75-2.1-1.2-3.75-1.2
		c-2.85,0-4.2,2.1-4.95,4.051c-0.451,1.199-0.601,2.549-0.75,4.049v64.95c0.149,3.15,1.049,5.25,2.549,6.9
		c0.75,0.75,1.8,1.2,3.15,1.2c3.449,0,4.8-1.8,5.55-4.05c0.45-1.051,0.6-2.4,0.6-4.051v-15.149H828.021z M747.922,42.416h16.2
		v110.25h-16.2V42.416z M698.574,136.466c5.55,0,8.7-0.6,10.351-6c0.75-2.55,1.349-6.45,1.5-11.7c0.149-5.25,0.149-12.3,0.149-21.3
		s0-16.05-0.149-21.3c-0.151-5.101-0.75-9-1.5-11.7c-1.651-5.25-4.801-5.85-10.351-5.85V136.466z M682.374,152.666V42.416h12.75
		c15,0,23.101,3,27.45,11.399c4.2,8.4,4.8,22.201,4.8,43.801s-0.6,35.25-4.8,43.649c-4.35,8.4-12.45,11.4-27.45,11.4H682.374z
		 M626.575,42.416h37.05v16.649h-20.85v28.951h15v17.699h-15v30.3h20.85v16.65h-37.05V42.416z"/>
	<path clip-path="url(#SVGID_2_)" fill="#231F20" d="M271.978,397.237h59.245v62.631h-59.245V397.237z M120.201,272.539v-50.782
		c25.392-1.692,37.241-6.771,42.318-18.619c2.821-5.643,3.95-12.978,3.95-22.006v-33.291c0-11.849,0-24.825-2.257-35.547
		c-2.257-10.72-7.335-18.056-16.928-18.056c-7.335,0-11.848,3.386-14.105,14.106c-2.822,11.284-3.95,28.776-3.95,56.425H69.42
		c0-23.134,0.564-54.732,10.721-80.123c10.156-24.826,28.776-44.011,67.145-44.011c38.369,0,58.117,19.748,68.274,40.625
		c10.156,20.877,10.721,43.447,10.721,48.525c0,61.502-10.721,90.843-29.341,109.463l-0.564,0.564
		c29.34,23.134,34.983,66.016,34.983,113.977c0,1.693,0,5.643-0.565,11.85c-0.564,11.849-3.949,29.341-10.156,47.396
		c-6.771,18.056-18.056,34.419-35.547,44.011c-9.028,5.078-19.749,7.335-32.726,7.335c-38.369,0-58.117-19.184-68.838-44.574
		c-10.72-24.826-11.849-56.425-11.849-79.559h59.81c0,27.648,1.693,45.14,5.079,55.86c3.385,11.285,8.463,14.67,15.799,14.67
		c9.592,0,14.67-7.335,16.927-17.491c2.257-10.157,2.257-23.134,2.257-34.982c0-12.979,0-24.827,0.564-35.548
		c0-20.312-3.949-34.419-16.927-42.883c-6.771-3.95-16.927-6.771-29.905-7.335H120.201z"/>
</g>
<polygon fill="#FF1419" points="428.175,96.034 428.385,108.425 483.409,108.425 483.409,158.829 483.409,159.249 546.413,102.124 
	546.413,101.914 483.409,45.42 483.409,45.63 483.409,96.034 "/>
<g>
	<defs>
		<rect id="SVGID_83_" x="0.002" y="0.001" width="1170.088" height="505.191"/>
	</defs>
	<clipPath id="SVGID_4_">
		<use xlink:href="#SVGID_83_"  overflow="visible"/>
	</clipPath>
	<polygon clip-path="url(#SVGID_4_)" fill="none" stroke="#231F20" stroke-width="1.998" points="1.001,3.001 1.001,502.194 
		1.001,504.196 3.002,504.196 1167.09,504.196 1169.09,504.196 1169.09,502.194 1169.09,3.001 1169.09,0.999 1167.09,0.999 
		3.002,0.999 1.001,0.999 	"/>
</g>
<rect x="5.003" y="5.003" fill="none" stroke="#231F20" stroke-width="1.998" width="1160.084" height="495.189"/>
<line fill="none" stroke="#231F20" stroke-width="2" x1="403.033" y1="189.169" x2="1144.088" y2="189.169"/>
<line fill="none" stroke="#231F20" stroke-width="2" x1="382.03" y1="26.156" x2="382.03" y2="480.19"/>
<line fill="none" stroke="#231F20" stroke-width="2" x1="582.045" y1="26.156" x2="582.045" y2="178.168"/>
<line fill="none" stroke="#231F20" stroke-width="2" x1="868.067" y1="210.17" x2="868.067" y2="479.055"/>
<g>
	<defs>
		<rect id="SVGID_85_" x="0.002" y="0.001" width="1170.088" height="505.191"/>
	</defs>
	<clipPath id="SVGID_6_">
		<use xlink:href="#SVGID_85_"  overflow="visible"/>
	</clipPath>
	<path clip-path="url(#SVGID_6_)" fill="#231F20" d="M1020.057,403.281v-45.118h49.973v-27.729h-49.973v-41.672h28.198
		c4.281,0,7.857,0.392,10.731,1.176c2.872,0.782,5.17,2.168,6.893,4.15c1.724,1.985,2.898,4.754,3.525,8.303
		c0.626,3.553,0.94,8.096,0.94,13.631h54.833v-85.381H901.936v58.121c9.189,0,15.768,1.229,19.739,3.682
		c3.968,2.455,5.953,7.128,5.953,14.021v79.271c0,6.79-1.984,11.412-5.953,13.863c-3.972,2.456-10.55,3.683-19.739,3.683v58.121
		h223.241v-85.38h-54.833c0,5.537-0.314,10.08-0.94,13.63c-0.626,3.551-1.801,6.344-3.525,8.381
		c-1.723,2.036-4.021,3.422-6.893,4.151c-2.874,0.731-6.45,1.097-10.731,1.097H1020.057z"/>
	<path clip-path="url(#SVGID_6_)" fill="#231F20" d="M816.655,430.602c0.351,2.6,0.601,4.8,0.601,7.2
		c2.599-0.051,4.75,0.6,7.149,0.6c3.851,0,8.651-1.7,8.651-6.45c0-3.899-3.545-6.075-7.85-7.649c-2.051-0.75-2.75-1.9-2.75-3.65
		c0-2,1.449-2.85,2.8-2.85c2.25,0,3.849,1.149,4.849,4.649l1.951-0.25c-0.151-1.8-0.35-3.6-0.55-5.1c-1.95-0.95-3.651-1.4-6.401-1.4
		c-4.549,0-7.799,2.7-7.799,6.15c0,4,4.4,6.55,6.9,7.45c2.75,0.949,3.3,1.949,3.3,3.899c0,2.3-1.601,3.25-2.95,3.25
		c-3.75,0-5-1.649-5.901-5.95L816.655,430.602z M811.105,432.451c-1.849,2.25-3.7,3.15-5.599,3.15c-3.901,0-6.8-3.75-6.8-8.65v-1.3
		h12.149c1.201,0,1.951-0.35,1.951-1.05c0-4.25-1.75-8.9-9.1-8.9c-5.25,0-10.75,4.65-10.75,12.3c0,5.5,3,10.4,10.6,10.4
		c3.45,0,6.95-1.15,8.799-4.9L811.105,432.451z M798.957,423.651c0.699-5.1,3.649-5.85,4.699-5.85c1.351,0,3.401,1.3,3.401,5.3
		c0,0.3,0,0.45-0.1,0.55H798.957z M773.008,418.852h-0.101l0.101-3.15c0-0.1-0.25-0.149-0.351-0.149c-1.6,0.5-4.899,1.05-8.399,1.5
		l0.099,1.699l2.05,0.2c0.7,0.05,1.101,0.4,1.101,2.9v12.25c0,1.399-0.79,1.739-2.401,2.1l-0.45,0.101
		c-0.244,0.055-0.399,0.149-0.399,0.449v1.15l0.099,0.1c0,0,4.05-0.1,5.8-0.1c1.95,0,5.75,0.1,5.75,0.1l0.101-0.1v-1.15
		c0-0.3-0.206-0.399-0.401-0.449l-0.2-0.051c-1.51-0.375-2.399-0.8-2.399-2.149v-13.25c2.474-1.55,4.549-2.351,6.049-2.351
		c1.8,0,2.1,1.5,2.1,4.9v10.7c0,1.399-0.84,1.76-2.399,2.149l-0.201,0.051c-0.246,0.06-0.4,0.149-0.4,0.449v1.15l0.101,0.1
		c0,0,3.799-0.1,5.599-0.1c1.95,0,5.95,0.1,5.95,0.1l0.1-0.1v-1.15c0-0.3-0.206-0.399-0.399-0.449l-0.401-0.101
		c-1.535-0.385-2.45-0.7-2.45-2.1v-10.351c0-4.55-0.75-8.05-6.1-8.05C778.157,415.701,775.557,416.901,773.008,418.852
		 M737.857,427.552c0,5.149,3.901,10.85,11.25,10.85c7.75,0,11.3-6.25,11.3-11.3c0-5.25-3.1-11.4-11.25-11.4
		C741.907,415.701,737.857,420.701,737.857,427.552 M748.657,417.751c3.4,0,5.7,3.801,5.7,10.95c0,6.351-2.649,7.55-4.45,7.55
		c-4.1,0-5.949-6.1-5.949-9.8C743.958,422.201,745.458,417.751,748.657,417.751 M726.107,409.352c0,1.649,1.351,3,3,3
		c1.651,0,3-1.351,3-3c0-1.65-1.349-3-3-3C727.458,406.352,726.107,407.701,726.107,409.352 M731.907,421.836
		c0-2.5,0.15-6.135,0.15-6.135c0-0.12-0.23-0.149-0.35-0.149c-1.575,0.5-5.075,1.024-8.551,1.5l0.101,1.5l2.049,0.199
		c0.701,0.051,1.1,0.601,1.1,3.101v12.2c0,1.399-0.8,1.89-2.35,2.149l-0.6,0.101c-0.195,0.034-0.351,0.149-0.351,0.449v1.15
		l0.101,0.1c0,0,4.05-0.1,5.85-0.1c1.951,0,6,0.1,6,0.1l0.1-0.1v-1.15c0-0.3-0.206-0.404-0.399-0.449l-0.5-0.101
		c-1.481-0.295-2.351-0.75-2.351-2.149V421.836z M719.407,433.552l-1-0.95c-2.149,2.399-3.699,3.25-5.55,3.25
		c-3.3,0-6.2-3.851-6.2-9.25c0-5.55,2.25-8.8,4.9-8.8c1.9,0,2.6,1.949,2.75,3.55c0.15,1.35,1.25,2.35,2.85,2.35
		c1.601,0,2.5-1.25,2.5-2.8c0-2.7-2.449-5.2-7.899-5.2c-5.901,0-10.8,5-10.8,12.15c0,6.5,3.5,10.55,10.6,10.55
		C715.107,438.401,717.907,436.602,719.407,433.552 M681.858,418.852h-0.099l0.099-3.15c0-0.1-0.25-0.149-0.349-0.149
		c-1.601,0.5-4.901,1.05-8.401,1.5l0.101,1.699l2.05,0.2c0.7,0.05,1.099,0.4,1.099,2.9v23.75c0,1.399-0.746,1.83-2.399,2.2
		l-0.45,0.1c-0.246,0.055-0.401,0.15-0.401,0.4v1.199l0.101,0.101c0,0,4-0.101,5.8-0.101c1.95,0,6,0.101,6,0.101l0.049-0.101v-1.199
		c0-0.25-0.156-0.341-0.4-0.4l-0.399-0.1c-1.556-0.391-2.401-0.801-2.401-2.2v-8.05c1.075,0.55,2.151,0.85,3.351,0.85
		c3.05,0,5.5-0.9,7.449-2.85c2.45-2.45,3.851-5.601,3.851-9.5c0-5.301-3.151-10.351-8.601-10.351
		C685.733,415.701,683.483,416.977,681.858,418.852 M681.858,420.852c1.45-1.601,3.25-2.55,4.45-2.55c2.951,0,4.451,3.25,4.451,9.1
		c0,4.2-1.5,8.9-5.851,8.9c-0.55,0-1.8-0.301-3.05-1.65V420.852z M662.058,409.352c0,1.649,1.35,3,3,3s3-1.351,3-3
		c0-1.65-1.35-3-3-3S662.058,407.701,662.058,409.352 M667.858,421.836c0-2.5,0.151-6.135,0.151-6.135
		c0-0.12-0.231-0.149-0.351-0.149c-1.574,0.5-5.074,1.024-8.55,1.5l0.101,1.5l2.05,0.199c0.7,0.051,1.099,0.601,1.099,3.101v12.2
		c0,1.399-0.8,1.89-2.349,2.149l-0.601,0.101c-0.194,0.034-0.35,0.149-0.35,0.449v1.15l0.1,0.1c0,0,4.051-0.1,5.851-0.1
		c1.95,0,6,0.1,6,0.1l0.099-0.1v-1.15c0-0.3-0.206-0.404-0.399-0.449l-0.5-0.101c-1.481-0.295-2.351-0.75-2.351-2.149V421.836z
		 M647.109,418.852h-0.099l0.099-3.15c0-0.1-0.25-0.149-0.349-0.149c-1.601,0.5-4.901,1.05-8.401,1.5l0.1,1.699l2.051,0.2
		c0.7,0.05,1.099,0.4,1.099,2.9v12.2c0,1.35-0.825,1.835-2.4,2.149l-0.5,0.101c-0.195,0.039-0.35,0.149-0.35,0.449v1.15l0.1,0.1
		c0,0,4-0.1,5.801-0.1c1.95,0,5.95,0.1,5.95,0.1l0.1-0.1v-1.15c0-0.3-0.206-0.399-0.4-0.449l-0.399-0.101
		c-1.531-0.385-2.401-0.75-2.401-2.149v-10.551c0-1.774,0.55-2.975,1.3-3.5c0.61-0.425,1.035-0.649,1.834-0.649
		c0.896,0,1.701,2,3.666,2c1.45,0,2.5-1.25,2.5-2.851c0-1.3-1.1-2.8-2.899-2.8C651.76,415.701,649.609,416.276,647.109,418.852
		 M634.809,433.552l-1-0.95c-2.15,2.399-3.7,3.25-5.549,3.25c-3.301,0-6.201-3.851-6.201-9.25c0-5.55,2.25-8.8,4.9-8.8
		c1.9,0,2.6,1.949,2.75,3.55c0.15,1.35,1.25,2.35,2.85,2.35s2.5-1.25,2.5-2.8c0-2.7-2.45-5.2-7.9-5.2c-5.899,0-10.8,5-10.8,12.15
		c0,6.5,3.5,10.55,10.6,10.55C630.51,438.401,633.309,436.602,634.809,433.552 M595.81,430.602c0.351,2.6,0.601,4.8,0.601,7.2
		c2.6-0.051,4.75,0.6,7.149,0.6c3.851,0,8.65-1.7,8.65-6.45c0-3.899-3.545-6.075-7.85-7.649c-2.05-0.75-2.75-1.9-2.75-3.65
		c0-2,1.45-2.85,2.8-2.85c2.25,0,3.85,1.149,4.85,4.649l1.95-0.25c-0.15-1.8-0.35-3.6-0.55-5.1c-1.95-0.95-3.65-1.4-6.4-1.4
		c-4.55,0-7.8,2.7-7.8,6.15c0,4,4.4,6.55,6.9,7.45c2.75,0.949,3.3,1.949,3.3,3.899c0,2.3-1.601,3.25-2.95,3.25
		c-3.75,0-5-1.649-5.9-5.95L595.81,430.602z M575.71,418.852h-0.1l0.1-3.15c0-0.1-0.25-0.149-0.35-0.149c-1.6,0.5-4.9,1.05-8.4,1.5
		l0.1,1.699l2.05,0.2c0.7,0.05,1.1,0.4,1.1,2.9v12.25c0,1.399-0.79,1.739-2.4,2.1l-0.45,0.101c-0.245,0.055-0.4,0.149-0.4,0.449
		v1.15l0.1,0.1c0,0,4.05-0.1,5.8-0.1c1.95,0,5.75,0.1,5.75,0.1l0.1-0.1v-1.15c0-0.3-0.205-0.399-0.4-0.449l-0.2-0.051
		c-1.51-0.375-2.4-0.8-2.4-2.149v-13.25c2.475-1.55,4.55-2.351,6.05-2.351c1.799,0,2.1,1.5,2.1,4.9v10.7
		c0,1.399-0.84,1.76-2.4,2.149l-0.2,0.051c-0.245,0.06-0.4,0.149-0.4,0.449v1.15l0.1,0.1c0,0,3.8-0.1,5.6-0.1
		c1.951,0,5.951,0.1,5.951,0.1l0.1-0.1v-1.15c0-0.3-0.205-0.399-0.4-0.449l-0.4-0.101c-1.535-0.385-2.45-0.7-2.45-2.1v-10.351
		c0-4.55-0.75-8.05-6.1-8.05C580.86,415.701,578.26,416.901,575.71,418.852 M555.11,433.651c-1.25,1-3,2-3.9,2
		c-2.4,0-3.15-1.5-3.15-3.25c0-2.05,0.686-3.55,4.201-4.6l2.85-0.851V433.651z M555.06,435.501h0.101c0.6,1.926,1.899,2.9,4.899,2.9
		c2.75,0,4.65-2.15,4.65-2.4c0-0.35-0.45-1-0.65-1c-0.29,0-0.339,0.801-1.549,0.801c-1.951,0-2-1.9-2-4.2v-7.25
		c0-7.2-4.1-8.65-8.201-8.65c-3.649,0-8.899,2.601-8.899,5.601c0,1.3,0.55,2.1,2.35,2.1c1.4,0,2.6-1.2,2.6-1.9
		c0-0.6-0.3-1.149-0.3-2.149c0-1.101,1.65-1.75,3.55-1.75c2.1,0,3.5,1.1,3.5,7.45l-3.6,1.05c-5.155,1.505-8.701,3.1-8.701,7.05
		c0,3.45,1.65,5.25,6,5.25C550.91,438.401,553.135,437.177,555.06,435.501 M530.811,418.852h-0.1l0.1-3.15
		c0-0.1-0.25-0.149-0.35-0.149c-1.601,0.5-4.9,1.05-8.4,1.5l0.1,1.699l2.05,0.2c0.7,0.05,1.1,0.4,1.1,2.9v12.2
		c0,1.35-0.825,1.835-2.4,2.149l-0.5,0.101c-0.194,0.039-0.35,0.149-0.35,0.449v1.15l0.1,0.1c0,0,4-0.1,5.8-0.1
		c1.95,0,5.95,0.1,5.95,0.1l0.1-0.1v-1.15c0-0.3-0.205-0.399-0.4-0.449l-0.399-0.101c-1.53-0.385-2.4-0.75-2.4-2.149v-10.551
		c0-1.774,0.549-2.975,1.299-3.5c0.61-0.425,1.035-0.649,1.836-0.649c0.896,0,1.699,2,3.664,2c1.451,0,2.5-1.25,2.5-2.851
		c0-1.3-1.1-2.8-2.899-2.8C535.461,415.701,533.311,416.276,530.811,418.852 M513.362,418.552h4c0.949,0,1.849-0.25,1.849-0.851v-1
		c0-0.3-0.149-0.5-1.099-0.5h-4.75v-8.05l-4.051,1.55c0,4.05-0.5,6.5-3,6.5c-1,0-1.9,0.101-1.9,0.4v1.55c0,0.3,0.1,0.4,0.9,0.4
		h2.551v14.75c0,3.649,1.799,5.1,4.299,5.1c2.75,0,5.201-1.25,7.05-3.7l-1.149-1.149c-1.476,1.175-2.4,1.25-3.4,1.25
		c-0.65,0-1.299-0.351-1.299-3.65V418.552z M471.712,430.602c0.35,2.6,0.6,4.8,0.6,7.2c2.601-0.051,4.75,0.6,7.15,0.6
		c3.85,0,8.65-1.7,8.65-6.45c0-3.899-3.545-6.075-7.85-7.649c-2.05-0.75-2.75-1.9-2.75-3.65c0-2,1.45-2.85,2.799-2.85
		c2.25,0,3.851,1.149,4.851,4.649l1.95-0.25c-0.15-1.8-0.35-3.6-0.551-5.1c-1.949-0.95-3.649-1.4-6.399-1.4
		c-4.55,0-7.8,2.7-7.8,6.15c0,4,4.4,6.55,6.9,7.45c2.75,0.949,3.299,1.949,3.299,3.899c0,2.3-1.6,3.25-2.949,3.25
		c-3.75,0-5-1.649-5.9-5.95L471.712,430.602z M459.662,433.651c-1.25,1-3,2-3.9,2c-2.4,0-3.15-1.5-3.15-3.25
		c0-2.05,0.685-3.55,4.199-4.6l2.851-0.851V433.651z M459.612,435.501h0.1c0.6,1.926,1.9,2.9,4.9,2.9c2.75,0,4.65-2.15,4.65-2.4
		c0-0.35-0.451-1-0.65-1c-0.29,0-0.341,0.801-1.551,0.801c-1.949,0-2-1.9-2-4.2v-7.25c0-7.2-4.1-8.65-8.199-8.65
		c-3.65,0-8.9,2.601-8.9,5.601c0,1.3,0.55,2.1,2.35,2.1c1.4,0,2.601-1.2,2.601-1.9c0-0.6-0.3-1.149-0.3-2.149
		c0-1.101,1.65-1.75,3.55-1.75c2.1,0,3.5,1.1,3.5,7.45l-3.601,1.05c-5.154,1.505-8.699,3.1-8.699,7.05c0,3.45,1.65,5.25,6,5.25
		C455.462,438.401,457.687,437.177,459.612,435.501 M435.363,409.751v24.301c0,1.399-0.82,1.885-2.4,2.149l-0.6,0.101
		c-0.245,0.039-0.4,0.149-0.4,0.449v1.15l0.1,0.1c0,0,4.2-0.1,5.95-0.1c1.95,0,6.15,0.1,6.15,0.1l0.1-0.1v-1.15
		c0-0.3-0.205-0.415-0.399-0.449l-0.55-0.101c-1.63-0.295-2.45-0.75-2.45-2.149v-25.301c0-3.25,0.149-5.25,0.149-5.25
		c0-0.35-0.35-0.5-0.8-0.5c-1.255,0.5-6.375,1.15-8.4,1.301l0.15,1.449c0.015,0.15,0.14,0.24,0.3,0.25l1.601,0.101
		C434.863,406.102,435.363,406.501,435.363,409.751"/>
	<path clip-path="url(#SVGID_6_)" fill="#231F20" d="M807.909,379.451c-1.85,2.25-3.699,3.15-5.6,3.15c-3.9,0-6.799-3.75-6.799-8.65
		v-1.3h12.149c1.2,0,1.95-0.35,1.95-1.05c0-4.25-1.75-8.9-9.099-8.9c-5.25,0-10.75,4.65-10.75,12.3c0,5.5,3,10.4,10.599,10.4
		c3.45,0,6.95-1.15,8.8-4.9L807.909,379.451z M795.76,370.651c0.7-5.1,3.649-5.85,4.7-5.85c1.35,0,3.399,1.3,3.399,5.3
		c0,0.3,0,0.45-0.099,0.55H795.76z M783.409,355.751c0-3.25,0.15-5.25,0.15-5.25c0-0.35-0.35-0.5-0.799-0.5
		c-1.256,0.5-6.375,1.15-8.401,1.301l0.151,1.449c0.014,0.15,0.139,0.24,0.299,0.25l1.6,0.101c1,0,1.5,0.399,1.5,3.649v7.2
		c-0.699-0.7-2.449-1.25-3.25-1.25c-3.85,0-6.149,1.101-8.199,3c-2.301,2.3-3.4,5.4-3.4,8.95c0,6.2,4.4,10.75,9.701,10.75
		c2.099,0,3.349-0.6,5.25-2.25l-0.101,2.35h1.7c1.651-0.85,3.8-1.649,7.101-2l-0.101-1.55c-2.649-0.25-3.2-1.3-3.2-2.8V355.751z
		 M777.909,367.751v12.95c-1.8,1.7-2.899,2.2-3.899,2.2c-2.851,0-5.201-2.8-5.201-9.1c0-7.25,3.1-9,5.15-9
		C775.51,364.802,776.809,366.102,777.909,367.751 M729.96,365.852h-0.1l0.1-3.15c0-0.1-0.25-0.149-0.35-0.149
		c-1.6,0.5-4.9,1.05-8.4,1.5l0.1,1.699l2.05,0.2c0.7,0.05,1.1,0.4,1.1,2.9v12.25c0,1.399-0.79,1.739-2.4,2.1l-0.45,0.101
		c-0.245,0.055-0.4,0.149-0.4,0.449v1.15l0.1,0.1c0,0,4.05-0.1,5.8-0.1c1.95,0,5.75,0.1,5.75,0.1l0.1-0.1v-1.15
		c0-0.3-0.205-0.399-0.4-0.449l-0.2-0.051c-1.51-0.375-2.4-0.8-2.4-2.149v-13.25c2.475-1.55,4.55-2.351,6.05-2.351
		c1.799,0,2.1,1.5,2.1,4.9v10.7c0,1.399-0.84,1.76-2.4,2.149l-0.2,0.051c-0.245,0.06-0.4,0.149-0.4,0.449v1.15l0.1,0.1
		c0,0,3.8-0.1,5.6-0.1c1.951,0,5.951,0.1,5.951,0.1l0.1-0.1v-1.15c0-0.3-0.206-0.399-0.4-0.449l-0.4-0.101
		c-1.535-0.385-2.45-0.7-2.45-2.1v-10.351c0-4.55-0.75-8.05-6.1-8.05C735.11,362.701,732.51,363.901,729.96,365.852 M694.81,374.552
		c0,5.149,3.9,10.85,11.25,10.85c7.75,0,11.3-6.25,11.3-11.3c0-5.25-3.1-11.4-11.25-11.4
		C698.86,362.701,694.81,367.701,694.81,374.552 M705.61,364.751c3.4,0,5.7,3.801,5.7,10.95c0,6.351-2.65,7.55-4.45,7.55
		c-4.1,0-5.95-6.1-5.95-9.8C700.91,369.201,702.41,364.751,705.61,364.751 M707.21,351.201l-4.15,6.55c-0.299,0.45-0.4,0.9-0.4,1.2
		s0.4,0.7,0.8,0.7c0.5,0,1.2-0.2,1.9-0.8l6-5.4l-0.5-1.149c-0.4-0.5-1.35-1.2-2.85-1.2
		C707.76,351.102,707.36,351.151,707.21,351.201 M683.06,356.352c0,1.649,1.35,3,3,3c1.65,0,3-1.351,3-3c0-1.65-1.35-3-3-3
		C684.41,353.352,683.06,354.701,683.06,356.352 M688.86,368.836c0-2.5,0.15-6.135,0.15-6.135c0-0.12-0.23-0.149-0.351-0.149
		c-1.574,0.5-5.074,1.024-8.55,1.5l0.1,1.5l2.05,0.199c0.7,0.051,1.1,0.601,1.1,3.101v12.2c0,1.399-0.8,1.89-2.35,2.149
		l-0.601,0.101c-0.194,0.034-0.35,0.149-0.35,0.449v1.15l0.1,0.1c0,0,4.05-0.1,5.851-0.1c1.95,0,6,0.1,6,0.1l0.1-0.1v-1.15
		c0-0.3-0.206-0.404-0.4-0.449l-0.5-0.101c-1.48-0.295-2.35-0.75-2.35-2.149V368.836z M676.36,380.552l-1-0.95
		c-2.15,2.399-3.7,3.25-5.55,3.25c-3.299,0-6.2-3.851-6.2-9.25c0-5.55,2.25-8.8,4.9-8.8c1.899,0,2.6,1.949,2.75,3.55
		c0.149,1.35,1.25,2.35,2.85,2.35c1.6,0,2.5-1.25,2.5-2.8c0-2.7-2.45-5.2-7.9-5.2c-5.9,0-10.8,5-10.8,12.15
		c0,6.5,3.5,10.55,10.601,10.55C672.06,385.401,674.86,383.602,676.36,380.552 M645.86,380.651c-1.25,1-3,2-3.9,2
		c-2.4,0-3.15-1.5-3.15-3.25c0-2.05,0.686-3.55,4.201-4.6l2.85-0.851V380.651z M645.81,382.501h0.1c0.601,1.926,1.9,2.9,4.9,2.9
		c2.75,0,4.65-2.15,4.65-2.4c0-0.35-0.45-1-0.65-1c-0.29,0-0.339,0.801-1.549,0.801c-1.951,0-2-1.9-2-4.2v-7.25
		c0-7.2-4.101-8.65-8.201-8.65c-3.649,0-8.899,2.601-8.899,5.601c0,1.3,0.55,2.1,2.35,2.1c1.4,0,2.6-1.2,2.6-1.9
		c0-0.6-0.3-1.149-0.3-2.149c0-1.101,1.65-1.75,3.55-1.75c2.1,0,3.5,1.1,3.5,7.45l-3.6,1.05c-5.155,1.505-8.701,3.1-8.701,7.05
		c0,3.45,1.65,5.25,6,5.25C641.66,385.401,643.885,384.177,645.81,382.501 M621.561,365.852h-0.1l0.1-3.15
		c0-0.1-0.25-0.149-0.35-0.149c-1.601,0.5-4.9,1.05-8.4,1.5l0.1,1.699l2.05,0.2c0.7,0.05,1.1,0.4,1.1,2.9v12.2
		c0,1.35-0.825,1.835-2.4,2.149l-0.5,0.101c-0.194,0.039-0.35,0.149-0.35,0.449v1.15l0.1,0.1c0,0,4-0.1,5.8-0.1
		c1.95,0,5.95,0.1,5.95,0.1l0.1-0.1v-1.15c0-0.3-0.205-0.399-0.4-0.449l-0.399-0.101c-1.53-0.385-2.4-0.75-2.4-2.149v-10.551
		c0-1.774,0.549-2.975,1.299-3.5c0.61-0.425,1.035-0.649,1.836-0.649c0.896,0,1.699,2,3.664,2c1.451,0,2.5-1.25,2.5-2.851
		c0-1.3-1.1-2.8-2.899-2.8C626.211,362.701,624.061,363.276,621.561,365.852 M601.011,380.651c-1.25,1-3,2-3.9,2
		c-2.399,0-3.149-1.5-3.149-3.25c0-2.05,0.685-3.55,4.2-4.6l2.85-0.851V380.651z M600.961,382.501h0.1c0.6,1.926,1.9,2.9,4.9,2.9
		c2.75,0,4.649-2.15,4.649-2.4c0-0.35-0.449-1-0.649-1c-0.29,0-0.34,0.801-1.55,0.801c-1.95,0-2-1.9-2-4.2v-7.25
		c0-7.2-4.1-8.65-8.2-8.65c-3.65,0-8.9,2.601-8.9,5.601c0,1.3,0.549,2.1,2.35,2.1c1.4,0,2.6-1.2,2.6-1.9c0-0.6-0.3-1.149-0.3-2.149
		c0-1.101,1.649-1.75,3.55-1.75c2.1,0,3.5,1.1,3.5,7.45l-3.6,1.05c-5.155,1.505-8.7,3.1-8.7,7.05c0,3.45,1.649,5.25,6,5.25
		C596.811,385.401,599.036,384.177,600.961,382.501 M569.762,365.852h-0.1l0.1-3.15c0-0.1-0.25-0.149-0.35-0.149
		c-1.601,0.5-4.9,1.05-8.4,1.5l0.1,1.699l2.05,0.2c0.7,0.05,1.1,0.4,1.1,2.9v23.75c0,1.399-0.745,1.83-2.4,2.2l-0.45,0.1
		c-0.245,0.055-0.4,0.15-0.4,0.4v1.199l0.1,0.101c0,0,4-0.101,5.8-0.101c1.95,0,6,0.101,6,0.101l0.05-0.101v-1.199
		c0-0.25-0.155-0.341-0.4-0.4l-0.399-0.1c-1.555-0.391-2.4-0.801-2.4-2.2v-8.05c1.075,0.55,2.15,0.85,3.35,0.85
		c3.05,0,5.5-0.9,7.449-2.85c2.451-2.45,3.851-5.601,3.851-9.5c0-5.301-3.15-10.351-8.601-10.351
		C573.637,362.701,571.387,363.977,569.762,365.852 M569.762,367.852c1.45-1.601,3.25-2.55,4.45-2.55c2.95,0,4.45,3.25,4.45,9.1
		c0,4.2-1.5,8.9-5.851,8.9c-0.549,0-1.799-0.301-3.049-1.65V367.852z M529.712,365.852l0.1-3.15c0-0.1-0.25-0.149-0.35-0.149
		c-1.6,0.5-4.9,1.05-8.4,1.5l0.101,1.699l2.05,0.2c0.7,0.05,1.1,0.4,1.1,2.9v12.3c0,1.4-0.75,1.7-2.399,2.05l-0.45,0.101
		c-0.25,0.05-0.4,0.149-0.4,0.449v1.15l0.101,0.1c0,0,4.05-0.1,5.8-0.1c2,0,5.6,0.1,5.6,0.1l0.101-0.1v-1.15
		c0-0.3-0.2-0.399-0.45-0.449c-1.15-0.15-2.4-0.4-2.4-2.15v-13.3c2.101-1.75,3.75-2.4,5.201-2.4c1.25,0,2.049,1.25,2.049,4.4v11.25
		c0,1.399-0.699,2.05-2.35,2.2c-0.3,0.05-0.45,0.199-0.45,0.449v1.15l0.1,0.1c0,0,3.6-0.1,5.4-0.1c1.95,0,5.549,0.1,5.549,0.1
		l0.101-0.1v-1.15c0-0.3-0.2-0.449-0.4-0.449c-1.201-0.15-2.451-0.45-2.451-2.2v-10.3c0-0.7-0.049-2.25-0.1-2.9
		c1.95-1.65,3.75-2.45,5.45-2.45c1.2,0,2,1.3,2,4.3v11.351c0,1.399-0.7,2.05-2.4,2.2c-0.3,0.05-0.4,0.199-0.4,0.449v1.15l0.1,0.1
		c0,0,3.6-0.1,5.35-0.1c1.951,0,6,0.1,6,0.1l0.101-0.1v-1.15c0-0.3-0.2-0.399-0.4-0.449l-0.4-0.101c-1.551-0.399-2.45-0.7-2.45-2.1
		v-10.25c0-4.5-0.5-8.15-5.75-8.15c-2.65,0-5.4,1.3-7.7,3.3c-0.75-1.949-2.5-3.3-5.15-3.3c-2.75,0-5.25,1.601-7,3.15H529.712z
		 M494.712,374.552c0,5.149,3.9,10.85,11.25,10.85c7.75,0,11.3-6.25,11.3-11.3c0-5.25-3.1-11.4-11.25-11.4
		C498.762,362.701,494.712,367.701,494.712,374.552 M505.512,364.751c3.4,0,5.7,3.801,5.7,10.95c0,6.351-2.65,7.55-4.45,7.55
		c-4.1,0-5.951-6.1-5.951-9.8C500.812,369.201,502.312,364.751,505.512,364.751 M491.062,380.552l-1-0.95
		c-2.149,2.399-3.699,3.25-5.549,3.25c-3.3,0-6.201-3.851-6.201-9.25c0-5.55,2.25-8.8,4.9-8.8c1.9,0,2.6,1.949,2.75,3.55
		c0.15,1.35,1.25,2.35,2.85,2.35c1.601,0,2.5-1.25,2.5-2.8c0-2.7-2.449-5.2-7.899-5.2c-5.9,0-10.8,5-10.8,12.15
		c0,6.5,3.5,10.55,10.6,10.55C486.762,385.401,489.562,383.602,491.062,380.552 M452.213,367.852c0.85-2.101,2.299-3.05,3.75-3.05
		c0.299,0,0.549-0.2,0.549-0.45v-1.15l-0.1-0.1c0,0-1.95,0.1-3.2,0.1c-2.185,0-5.6-0.1-5.6-0.1l-0.2,0.149v1.2
		c0,0.15,0.15,0.351,0.4,0.351c1.55,0,2.6,0.55,2,2.35c-0.9,2.9-2.9,8.35-4.6,12.5l-4.65-12.6c-0.55-1.551-0.15-2.25,1.85-2.25
		c0.1,0,0.4-0.051,0.4-0.4v-1.2l-0.2-0.1c0,0-3.69,0.1-6.05,0.1c-2.065,0-5.3-0.1-5.3-0.1l-0.149,0.1v1.25
		c0,0.25,0.2,0.351,0.5,0.351c2,0,2.6,0.8,3.6,3.3l7.049,17.399l-0.899,2.45c-1.45,3.851-2.725,5.295-3.101,5.295
		c-0.375,0-0.64-0.375-0.96-0.854c-0.32-0.48-1.285-1.176-2.089-1.176c-1.445,0-2.94,0.86-2.94,2.57
		c0,2.085,2.725,2.726,3.795,2.726c4.01,0,6.146-3.86,7.845-8.061L452.213,367.852z"/>
	<path clip-path="url(#SVGID_6_)" fill="#231F20" d="M764.759,324.602c0.349,2.6,0.599,4.8,0.599,7.2
		c2.601-0.051,4.75,0.6,7.151,0.6c3.849,0,8.649-1.7,8.649-6.45c0-3.899-3.545-6.075-7.85-7.649c-2.049-0.75-2.75-1.9-2.75-3.65
		c0-2,1.451-2.85,2.8-2.85c2.25,0,3.851,1.149,4.851,4.649l1.949-0.25c-0.149-1.8-0.35-3.6-0.55-5.1c-1.95-0.95-3.649-1.4-6.399-1.4
		c-4.551,0-7.801,2.7-7.801,6.15c0,4,4.4,6.55,6.9,7.45c2.75,0.949,3.3,1.949,3.3,3.899c0,2.3-1.599,3.25-2.95,3.25
		c-3.75,0-5-1.649-5.899-5.95L764.759,324.602z M759.208,326.451c-1.851,2.25-3.7,3.15-5.601,3.15c-3.899,0-6.8-3.75-6.8-8.65v-1.3
		h12.15c1.199,0,1.949-0.35,1.949-1.05c0-4.25-1.75-8.9-9.1-8.9c-5.25,0-10.75,4.65-10.75,12.3c0,5.5,3,10.4,10.6,10.4
		c3.45,0,6.95-1.15,8.801-4.9L759.208,326.451z M747.058,317.651c0.701-5.1,3.65-5.85,4.701-5.85c1.349,0,3.399,1.3,3.399,5.3
		c0,0.3,0,0.45-0.1,0.55H747.058z M729.159,303.751v24.301c0,1.399-0.819,1.885-2.399,2.149l-0.601,0.101
		c-0.244,0.039-0.399,0.149-0.399,0.449v1.15l0.099,0.1c0,0,4.2-0.1,5.95-0.1c1.951,0,6.15,0.1,6.15,0.1l0.1-0.1v-1.15
		c0-0.3-0.206-0.415-0.4-0.449l-0.55-0.101c-1.63-0.295-2.45-0.75-2.45-2.149v-25.301c0-3.25,0.15-5.25,0.15-5.25
		c0-0.35-0.35-0.5-0.799-0.5c-1.256,0.5-6.375,1.15-8.401,1.301l0.151,1.449c0.014,0.15,0.139,0.24,0.299,0.25l1.6,0.101
		C728.659,300.102,729.159,300.501,729.159,303.751 M714.209,327.651c-1.25,1-3,2-3.9,2c-2.4,0-3.15-1.5-3.15-3.25
		c0-2.05,0.686-3.55,4.2-4.6l2.851-0.851V327.651z M714.159,329.501h0.101c0.599,1.926,1.899,2.9,4.899,2.9
		c2.75,0,4.65-2.15,4.65-2.4c0-0.35-0.45-1-0.65-1c-0.29,0-0.34,0.801-1.55,0.801c-1.95,0-2-1.9-2-4.2v-7.25
		c0-7.2-4.099-8.65-8.2-8.65c-3.649,0-8.899,2.601-8.899,5.601c0,1.3,0.549,2.1,2.349,2.1c1.401,0,2.601-1.2,2.601-1.9
		c0-0.6-0.301-1.149-0.301-2.149c0-1.101,1.65-1.75,3.551-1.75c2.1,0,3.5,1.1,3.5,7.45l-3.601,1.05c-5.156,1.505-8.7,3.1-8.7,7.05
		c0,3.45,1.65,5.25,6,5.25C710.01,332.401,712.234,331.177,714.159,329.501 M681.859,312.852h-0.099l0.099-3.15
		c0-0.1-0.25-0.149-0.349-0.149c-1.602,0.5-4.901,1.05-8.401,1.5l0.101,1.699l2.051,0.2c0.699,0.05,1.099,0.4,1.099,2.9v12.25
		c0,1.399-0.789,1.739-2.399,2.1l-0.449,0.101c-0.245,0.055-0.401,0.149-0.401,0.449v1.15l0.101,0.1c0,0,4.051-0.1,5.801-0.1
		c1.949,0,5.75,0.1,5.75,0.1l0.099-0.1v-1.15c0-0.3-0.205-0.399-0.399-0.449l-0.199-0.051c-1.511-0.375-2.401-0.8-2.401-2.149
		v-13.25c2.476-1.55,4.55-2.351,6.051-2.351c1.8,0,2.101,1.5,2.101,4.9v10.7c0,1.399-0.841,1.76-2.401,2.149l-0.199,0.051
		c-0.245,0.06-0.399,0.149-0.399,0.449v1.15l0.099,0.1c0,0,3.801-0.1,5.601-0.1c1.95,0,5.95,0.1,5.95,0.1l0.101-0.1v-1.15
		c0-0.3-0.206-0.399-0.401-0.449l-0.399-0.101c-1.535-0.385-2.449-0.7-2.449-2.1v-10.351c0-4.55-0.75-8.05-6.101-8.05
		C687.01,309.701,684.409,310.901,681.859,312.852 M661.41,303.352c0,1.649,1.351,3,3,3c1.65,0,3-1.351,3-3c0-1.65-1.35-3-3-3
		C662.76,300.352,661.41,301.701,661.41,303.352 M667.21,315.836c0-2.5,0.15-6.135,0.15-6.135c0-0.12-0.23-0.149-0.35-0.149
		c-1.575,0.5-5.075,1.024-8.55,1.5l0.1,1.5l2.05,0.199c0.7,0.051,1.1,0.601,1.1,3.101v12.2c0,1.399-0.8,1.89-2.35,2.149l-0.6,0.101
		c-0.195,0.034-0.351,0.149-0.351,0.449v1.15l0.101,0.1c0,0,4.049-0.1,5.85-0.1c1.95,0,6,0.1,6,0.1l0.1-0.1v-1.15
		c0-0.3-0.205-0.404-0.4-0.449l-0.5-0.101c-1.479-0.295-2.35-0.75-2.35-2.149V315.836z M653.11,312.751c1.4,0,2.2-0.8,2.2-2
		c0-0.949-0.799-2.199-2.7-2.199c-1.35,0-3.6,0.8-5.05,2.1c-0.9-0.5-2.45-0.95-4.7-0.95c-4.8,0-9.2,2.95-9.2,7.601
		c0,2.449,1.2,5,3.05,6.274c-1.5,1.4-2.6,3.075-2.6,4.625c0,1.601,1,2.8,2.4,3.65c-2.6,1.75-4.05,3.899-4.05,5.85
		c0,4.45,4.35,6.101,8.45,6.101c6.95,0,14.5-3.65,14.5-9.15c0-1.9-2-5.55-10.149-5.55c-1.9,0-4.25,0.35-4.701,0.35
		c-0.899,0-2.25-0.6-2.25-2.6c0-0.8,0.075-1.851,0.325-2.45c1.05,0.5,2.625,0.75,4.175,0.75c4.701,0,8.951-2.7,8.951-7.6
		c0-2.801-1-4.551-2.701-5.95c0.4-0.5,0.951-0.9,1.451-0.9c0.45,0,0.6,0.3,0.75,0.601C651.46,311.951,651.86,312.751,653.11,312.751
		 M639.91,332.651c0.55,0,1.35,0,2.1-0.05c0.649-0.05,1.1-0.101,1.549-0.101c2.25,0,7.3,0.15,7.3,3.45c0,3.75-4.8,5.75-8.55,5.75
		c-1.4,0-5.149-1.45-5.149-5c0-1.7,0.05-3.149,1.1-4.25C638.76,332.651,639.31,332.651,639.91,332.651 M646.36,317.701
		c0,4.8-2,5.601-3.3,5.601c-3.1,0-4.1-3.9-4.1-6.45c0-3.7,1.5-5.4,3.45-5.4C644.76,311.451,646.36,313.751,646.36,317.701
		 M620.71,303.352c0,1.649,1.35,3,3,3c1.65,0,3-1.351,3-3c0-1.65-1.35-3-3-3C622.06,300.352,620.71,301.701,620.71,303.352
		 M626.51,315.836c0-2.5,0.15-6.135,0.15-6.135c0-0.12-0.23-0.149-0.351-0.149c-1.575,0.5-5.075,1.024-8.549,1.5l0.1,1.5l2.05,0.199
		c0.7,0.051,1.1,0.601,1.1,3.101v12.2c0,1.399-0.8,1.89-2.35,2.149l-0.601,0.101c-0.194,0.034-0.35,0.149-0.35,0.449v1.15l0.1,0.1
		c0,0,4.05-0.1,5.851-0.1c1.95,0,6,0.1,6,0.1l0.1-0.1v-1.15c0-0.3-0.206-0.404-0.4-0.449l-0.5-0.101
		c-1.48-0.295-2.35-0.75-2.35-2.149V315.836z M605.761,312.852h-0.1l0.1-3.15c0-0.1-0.25-0.149-0.35-0.149
		c-1.6,0.5-4.9,1.05-8.4,1.5l0.101,1.699l2.05,0.2c0.7,0.05,1.1,0.4,1.1,2.9v12.2c0,1.35-0.825,1.835-2.399,2.149l-0.5,0.101
		c-0.195,0.039-0.351,0.149-0.351,0.449v1.15l0.101,0.1c0,0,4-0.1,5.8-0.1c1.95,0,5.95,0.1,5.95,0.1l0.1-0.1v-1.15
		c0-0.3-0.205-0.399-0.4-0.449l-0.4-0.101c-1.53-0.385-2.4-0.75-2.4-2.149v-10.551c0-1.774,0.55-2.975,1.3-3.5
		c0.61-0.425,1.035-0.649,1.834-0.649c0.896,0,1.701,2,3.666,2c1.45,0,2.5-1.25,2.5-2.851c0-1.3-1.1-2.8-2.9-2.8
		C610.411,309.701,608.261,310.276,605.761,312.852 M570.661,321.552c0,5.149,3.9,10.85,11.25,10.85c7.75,0,11.3-6.25,11.3-11.3
		c0-5.25-3.1-11.4-11.25-11.4C574.711,309.701,570.661,314.701,570.661,321.552 M581.461,311.751c3.4,0,5.7,3.801,5.7,10.95
		c0,6.351-2.65,7.55-4.45,7.55c-4.1,0-5.95-6.1-5.95-9.8C576.761,316.201,578.261,311.751,581.461,311.751 M537.262,324.602
		c0.35,2.6,0.6,4.8,0.6,7.2c2.6-0.051,4.75,0.6,7.15,0.6c3.85,0,8.65-1.7,8.65-6.45c0-3.899-3.545-6.075-7.851-7.649
		c-2.049-0.75-2.75-1.9-2.75-3.65c0-2,1.451-2.85,2.801-2.85c2.25,0,3.85,1.149,4.85,4.649l1.95-0.25c-0.15-1.8-0.351-3.6-0.55-5.1
		c-1.95-0.95-3.65-1.4-6.4-1.4c-4.55,0-7.8,2.7-7.8,6.15c0,4,4.399,6.55,6.899,7.45c2.75,0.949,3.301,1.949,3.301,3.899
		c0,2.3-1.6,3.25-2.95,3.25c-3.75,0-5-1.649-5.9-5.95L537.262,324.602z M510.662,321.552c0,5.149,3.899,10.85,11.25,10.85
		c7.75,0,11.3-6.25,11.3-11.3c0-5.25-3.1-11.4-11.25-11.4C514.712,309.701,510.662,314.701,510.662,321.552 M521.462,311.751
		c3.4,0,5.7,3.801,5.7,10.95c0,6.351-2.65,7.55-4.45,7.55c-4.1,0-5.95-6.1-5.95-9.8
		C516.762,316.201,518.262,311.751,521.462,311.751 M498.763,303.751v24.301c0,1.399-0.82,1.885-2.399,2.149l-0.601,0.101
		c-0.245,0.039-0.399,0.149-0.399,0.449v1.15l0.1,0.1c0,0,4.2-0.1,5.95-0.1c1.95,0,6.15,0.1,6.15,0.1l0.1-0.1v-1.15
		c0-0.3-0.205-0.415-0.4-0.449l-0.549-0.101c-1.63-0.295-2.451-0.75-2.451-2.149v-25.301c0-3.25,0.15-5.25,0.15-5.25
		c0-0.35-0.35-0.5-0.8-0.5c-1.255,0.5-6.375,1.15-8.4,1.301l0.15,1.449c0.015,0.15,0.14,0.24,0.3,0.25l1.6,0.101
		C498.263,300.102,498.763,300.501,498.763,303.751 M477.313,326.451c-1.85,2.25-3.7,3.15-5.6,3.15c-3.9,0-6.8-3.75-6.8-8.65v-1.3
		h12.15c1.2,0,1.95-0.35,1.95-1.05c0-4.25-1.75-8.9-9.1-8.9c-5.25,0-10.75,4.65-10.75,12.3c0,5.5,3,10.4,10.6,10.4
		c3.451,0,6.951-1.15,8.8-4.9L477.313,326.451z M465.163,317.651c0.7-5.1,3.65-5.85,4.7-5.85c1.35,0,3.399,1.3,3.399,5.3
		c0,0.3,0,0.45-0.1,0.55H465.163z M452.813,302.751c0-3.25,0.15-5.25,0.15-5.25c0-0.35-0.35-0.5-0.8-0.5
		c-1.255,0.5-6.375,1.15-8.4,1.301l0.15,1.449c0.015,0.15,0.14,0.24,0.3,0.25l1.6,0.101c1,0,1.5,0.399,1.5,3.649v7.2
		c-0.7-0.7-2.45-1.25-3.25-1.25c-3.85,0-6.15,1.101-8.2,3c-2.3,2.3-3.4,5.4-3.4,8.95c0,6.2,4.4,10.75,9.7,10.75
		c2.1,0,3.35-0.6,5.25-2.25l-0.1,2.35h1.7c1.65-0.85,3.8-1.649,7.101-2l-0.101-1.55c-2.649-0.25-3.2-1.3-3.2-2.8V302.751z
		 M447.313,314.751v12.95c-1.8,1.7-2.9,2.2-3.9,2.2c-2.85,0-5.2-2.8-5.2-9.1c0-7.25,3.1-9,5.15-9
		C444.913,311.802,446.213,313.102,447.313,314.751"/>
	<path clip-path="url(#SVGID_6_)" fill="#231F20" d="M700.609,259.852h-0.099l0.099-3.15c0-0.1-0.25-0.149-0.349-0.149
		c-1.601,0.5-4.901,1.05-8.401,1.5l0.101,1.699l2.05,0.2c0.7,0.05,1.099,0.4,1.099,2.9v12.25c0,1.399-0.791,1.739-2.399,2.1
		l-0.45,0.101c-0.246,0.055-0.401,0.149-0.401,0.449v1.15l0.101,0.1c0,0,4.05-0.1,5.8-0.1c1.95,0,5.75,0.1,5.75,0.1l0.099-0.1v-1.15
		c0-0.3-0.205-0.399-0.399-0.449l-0.2-0.051c-1.51-0.375-2.401-0.8-2.401-2.149v-13.25c2.476-1.55,4.55-2.351,6.05-2.351
		c1.801,0,2.101,1.5,2.101,4.9v10.7c0,1.399-0.84,1.76-2.401,2.149l-0.2,0.051c-0.244,0.06-0.399,0.149-0.399,0.449v1.15l0.099,0.1
		c0,0,3.8-0.1,5.601-0.1c1.949,0,5.949,0.1,5.949,0.1l0.101-0.1v-1.15c0-0.3-0.206-0.399-0.401-0.449l-0.399-0.101
		c-1.535-0.385-2.45-0.7-2.45-2.1v-10.351c0-4.55-0.75-8.05-6.101-8.05C705.76,256.701,703.159,257.901,700.609,259.852
		 M665.459,268.552c0,5.149,3.899,10.85,11.25,10.85c7.75,0,11.3-6.25,11.3-11.3c0-5.25-3.101-11.4-11.25-11.4
		C669.51,256.701,665.459,261.701,665.459,268.552 M676.26,258.751c3.399,0,5.7,3.801,5.7,10.95c0,6.351-2.65,7.55-4.45,7.55
		c-4.101,0-5.951-6.1-5.951-9.8C671.559,263.201,673.059,258.751,676.26,258.751 M677.859,245.201l-4.149,6.55
		c-0.301,0.45-0.4,0.9-0.4,1.2s0.4,0.7,0.8,0.7c0.5,0,1.2-0.2,1.901-0.8l6-5.4l-0.5-1.149c-0.401-0.5-1.351-1.2-2.851-1.2
		C678.409,245.102,678.01,245.151,677.859,245.201 M653.709,250.352c0,1.649,1.35,3,3,3c1.649,0,3-1.351,3-3c0-1.65-1.351-3-3-3
		C655.059,247.352,653.709,248.701,653.709,250.352 M659.51,262.836c0-2.5,0.149-6.135,0.149-6.135c0-0.12-0.23-0.149-0.35-0.149
		c-1.575,0.5-5.075,1.024-8.549,1.5l0.099,1.5l2.05,0.199c0.7,0.051,1.101,0.601,1.101,3.101v12.2c0,1.399-0.8,1.89-2.351,2.149
		l-0.6,0.101c-0.195,0.034-0.35,0.149-0.35,0.449v1.15l0.1,0.1c0,0,4.05-0.1,5.85-0.1c1.95,0,6,0.1,6,0.1l0.101-0.1v-1.15
		c0-0.3-0.206-0.404-0.401-0.449l-0.5-0.101c-1.479-0.295-2.349-0.75-2.349-2.149V262.836z M647.01,274.552l-1-0.95
		c-2.151,2.399-3.701,3.25-5.55,3.25c-3.3,0-6.2-3.851-6.2-9.25c0-5.55,2.25-8.8,4.899-8.8c1.9,0,2.601,1.949,2.75,3.55
		c0.15,1.35,1.25,2.35,2.851,2.35c1.599,0,2.5-1.25,2.5-2.8c0-2.7-2.451-5.2-7.901-5.2c-5.9,0-10.8,5-10.8,12.15
		c0,6.5,3.5,10.55,10.6,10.55C642.709,279.401,645.51,277.602,647.01,274.552 M616.51,274.651c-1.25,1-3,2-3.901,2
		c-2.4,0-3.15-1.5-3.15-3.25c0-2.05,0.685-3.55,4.2-4.6l2.851-0.851V274.651z M616.459,276.501h0.1c0.6,1.926,1.9,2.9,4.9,2.9
		c2.75,0,4.65-2.15,4.65-2.4c0-0.35-0.45-1-0.65-1c-0.29,0-0.34,0.801-1.55,0.801c-1.95,0-2-1.9-2-4.2v-7.25
		c0-7.2-4.1-8.65-8.2-8.65c-3.65,0-8.9,2.601-8.9,5.601c0,1.3,0.55,2.1,2.35,2.1c1.4,0,2.601-1.2,2.601-1.9
		c0-0.6-0.301-1.149-0.301-2.149c0-1.101,1.65-1.75,3.551-1.75c2.099,0,3.5,1.1,3.5,7.45l-3.601,1.05c-5.155,1.505-8.7,3.1-8.7,7.05
		c0,3.45,1.65,5.25,6,5.25C612.309,279.401,614.534,278.177,616.459,276.501 M585.21,256.602h-1.65c-0.1,2.149-0.299,3.899-1.1,7.2
		l2.15,0.3c0.85-3.7,2.05-4.8,3.55-4.8h5.8c-3.9,5.899-7.6,11.85-11.5,17.699c-0.4,0.65-0.55,1-0.55,1.101c0,0.5,0.6,0.8,2.75,0.8
		h14.899c0.201-2.05,0.55-4.25,1.3-6.95l-2.1-0.45c-0.85,3.25-2.3,5.301-4.5,5.301h-5.8l11.15-17.15c0.55-0.85,1-1.65,1-1.8
		c0-0.5-0.8-0.8-1.8-0.8c-0.149,0-1.344,0.149-2.549,0.149H586.06C585.76,257.201,585.41,257.151,585.21,256.602 M570.26,250.352
		c0,1.649,1.35,3,3,3c1.65,0,3-1.351,3-3c0-1.65-1.35-3-3-3C571.61,247.352,570.26,248.701,570.26,250.352 M576.06,262.836
		c0-2.5,0.15-6.135,0.15-6.135c0-0.12-0.23-0.149-0.35-0.149c-1.575,0.5-5.075,1.024-8.55,1.5l0.101,1.5l2.05,0.199
		c0.7,0.051,1.1,0.601,1.1,3.101v12.2c0,1.399-0.799,1.89-2.35,2.149l-0.6,0.101c-0.195,0.034-0.35,0.149-0.35,0.449v1.15l0.1,0.1
		c0,0,4.05-0.1,5.85-0.1c1.95,0,6,0.1,6,0.1l0.1-0.1v-1.15c0-0.3-0.205-0.404-0.399-0.449l-0.5-0.101
		c-1.48-0.295-2.351-0.75-2.351-2.149V262.836z M555.311,250.751v24.301c0,1.399-0.82,1.885-2.4,2.149l-0.6,0.101
		c-0.245,0.039-0.4,0.149-0.4,0.449v1.15l0.1,0.1c0,0,4.2-0.1,5.95-0.1c1.95,0,6.149,0.1,6.149,0.1l0.101-0.1v-1.15
		c0-0.3-0.205-0.415-0.4-0.449l-0.55-0.101c-1.629-0.295-2.45-0.75-2.45-2.149v-25.301c0-3.25,0.15-5.25,0.15-5.25
		c0-0.35-0.351-0.5-0.8-0.5c-1.255,0.5-6.375,1.15-8.4,1.301l0.15,1.449c0.016,0.15,0.141,0.24,0.3,0.25l1.6,0.101
		C554.811,247.102,555.311,247.501,555.311,250.751 M540.36,274.651c-1.25,1-3,2-3.899,2c-2.4,0-3.15-1.5-3.15-3.25
		c0-2.05,0.685-3.55,4.2-4.6l2.85-0.851V274.651z M540.311,276.501h0.1c0.6,1.926,1.9,2.9,4.9,2.9c2.75,0,4.65-2.15,4.65-2.4
		c0-0.35-0.45-1-0.65-1c-0.29,0-0.34,0.801-1.55,0.801c-1.95,0-2-1.9-2-4.2v-7.25c0-7.2-4.1-8.65-8.2-8.65
		c-3.65,0-8.9,2.601-8.9,5.601c0,1.3,0.55,2.1,2.35,2.1c1.4,0,2.6-1.2,2.6-1.9c0-0.6-0.299-1.149-0.299-2.149
		c0-1.101,1.65-1.75,3.549-1.75c2.101,0,3.5,1.1,3.5,7.45l-3.6,1.05c-5.155,1.505-8.7,3.1-8.7,7.05c0,3.45,1.65,5.25,6,5.25
		C536.161,279.401,538.386,278.177,540.311,276.501 M521.36,273.151v-11.95c0-2.024,0.101-4.1,0.101-4.1s-1.95,0.1-3,0.1
		c-1.351,0-5.55-0.1-5.55-0.1l-0.2,0.1v1.5l0.2,0.101l1.55,0.1c0.899,0,1.399,0.8,1.399,2.4v13.75c-1.85,1.6-3.949,1.85-5.049,1.85
		c-1.05,0-2.7-0.9-2.7-5.1v-10.601c0-1.85,0.05-4.1,0.05-4.1s-2.2,0.1-2.9,0.1c-1.6,0-5.55-0.1-5.55-0.1l-0.25,0.1v1.5l0.15,0.101
		l1.55,0.1c1.17,0.075,1.45,0.9,1.45,2.4v11.199c0,3.5,1.149,6.9,6.95,6.9c1.85,0,4.1-0.75,6.45-2.25l-0.15,2.35h1.701
		c1.299-0.75,2.5-1.399,7.049-2l-0.049-1.55C521.86,275.802,521.36,274.651,521.36,273.151 M479.562,271.602
		c0.351,2.6,0.601,4.8,0.601,7.2c2.6-0.051,4.75,0.6,7.149,0.6c3.851,0,8.65-1.7,8.65-6.45c0-3.899-3.545-6.075-7.85-7.649
		c-2.051-0.75-2.75-1.9-2.75-3.65c0-2,1.449-2.85,2.8-2.85c2.25,0,3.85,1.149,4.85,4.649l1.95-0.25c-0.15-1.8-0.35-3.6-0.55-5.1
		c-1.95-0.95-3.65-1.4-6.4-1.4c-4.55,0-7.8,2.7-7.8,6.15c0,4,4.4,6.55,6.9,7.45c2.75,0.949,3.3,1.949,3.3,3.899
		c0,2.3-1.601,3.25-2.95,3.25c-3.75,0-5-1.649-5.9-5.95L479.562,271.602z M467.662,250.352c0,1.649,1.35,3,3,3c1.649,0,3-1.351,3-3
		c0-1.65-1.351-3-3-3C469.012,247.352,467.662,248.701,467.662,250.352 M473.462,262.836c0-2.5,0.15-6.135,0.15-6.135
		c0-0.12-0.229-0.149-0.35-0.149c-1.575,0.5-5.075,1.024-8.55,1.5l0.1,1.5l2.051,0.199c0.699,0.051,1.1,0.601,1.1,3.101v12.2
		c0,1.399-0.8,1.89-2.35,2.149l-0.6,0.101c-0.195,0.034-0.35,0.149-0.35,0.449v1.15l0.1,0.1c0,0,4.049-0.1,5.85-0.1
		c1.949,0,6,0.1,6,0.1l0.1-0.1v-1.15c0-0.3-0.204-0.404-0.4-0.449l-0.5-0.101c-1.479-0.295-2.35-0.75-2.35-2.149V262.836z
		 M451.963,248.251c3.25,0,3.6,0.45,2.799,2.551l-6.5,17.449l-0.6,1.4l-0.55-1.55l-6.25-17.8c-0.55-1.551,0.399-2.051,3.55-2.051
		c0.25,0,0.4-0.149,0.4-0.399v-1.2l-0.1-0.05c0,0-5.4,0.05-7.201,0.05c-1.95,0-6.799-0.05-6.799-0.05l-0.1,0.05v1.2
		c0,0.25,0.2,0.399,0.399,0.399c2.55,0,3.15,0.65,4,2.95l9.5,27.15c0.25,0.75,1.101,1.149,1.65,1.149c0.5,0,1.4-0.399,1.7-1.149
		l10.05-26.9c1-2.649,1.35-3.2,4.15-3.2c0.25,0,0.4-0.149,0.4-0.399v-1.2l-0.1-0.05c0,0-2.601,0.05-4.4,0.05
		c-1.951,0-6.3-0.05-6.3-0.05l-0.1,0.05v1.2C451.563,248.102,451.763,248.251,451.963,248.251"/>
</g>
</svg>
