<?xml version="1.0" encoding="utf-8"?>
<!-- Generator: Adobe Illustrator 16.0.0, SVG Export Plug-In . SVG Version: 6.00 Build 0)  -->
<!DOCTYPE svg PUBLIC "-//W3C//DTD SVG 1.1//EN" "http://www.w3.org/Graphics/SVG/1.1/DTD/svg11.dtd">
<svg version="1.1" id="Layer_1" xmlns="http://www.w3.org/2000/svg" xmlns:xlink="http://www.w3.org/1999/xlink" x="0px" y="0px"
	 width="1170.09px" height="574.889px" viewBox="0 0 1170.09 574.889" enable-background="new 0 0 1170.09 574.889"
	 xml:space="preserve">
<polygon fill="#FF1419" points="391.854,274.469 392.21,295.486 485.543,295.486 485.543,380.981 485.543,381.694 592.412,284.799 
	592.412,284.442 485.543,188.616 485.543,188.973 485.543,274.469 "/>
<line fill="none" stroke="#231F20" stroke-width="1.991" x1="342.098" y1="407.302" x2="1144.045" y2="407.302"/>
<line fill="none" stroke="#231F20" stroke-width="1.991" x1="26.044" y1="157.302" x2="656.639" y2="157.302"/>
<g>
	<defs>
		<rect id="SVGID_45_" width="1170.088" height="574.89"/>
	</defs>
	<clipPath id="SVGID_2_">
		<use xlink:href="#SVGID_45_"  overflow="visible"/>
	</clipPath>
	<path clip-path="url(#SVGID_2_)" fill="#FF1419" d="M620.961,69.574h11.88v-3.24c0-2.579-0.495-5.04-1.484-7.38
		c-0.99-2.34-2.461-4.41-4.41-6.21c-1.951-1.801-4.365-3.225-7.245-4.275c-2.88-1.049-6.181-1.574-9.9-1.574
		c-3.301,0-6.285,0.449-8.955,1.35c-2.671,0.9-4.949,2.16-6.84,3.779c-1.889,1.621-3.36,3.525-4.41,5.716
		c-1.051,2.19-1.574,4.575-1.574,7.155v0.539c0,3.121,0.54,5.76,1.62,7.92c1.079,2.16,2.594,3.961,4.545,5.4
		c1.948,1.439,4.243,2.596,6.885,3.465c2.639,0.87,5.549,1.575,8.729,2.115c2.399,0.42,4.379,0.932,5.94,1.53
		c1.559,0.6,2.79,1.274,3.69,2.024c0.899,0.752,1.529,1.59,1.89,2.521s0.54,1.905,0.54,2.925c0,2.16-0.871,4.02-2.61,5.58
		c-1.741,1.561-4.41,2.34-8.01,2.34c-4.621,0-8.026-1.125-10.215-3.375c-2.191-2.25-3.285-5.265-3.285-9.045v-2.16h-11.88v2.7
		c0,3.3,0.54,6.345,1.62,9.135s2.669,5.22,4.77,7.29c2.1,2.07,4.726,3.69,7.875,4.86c3.15,1.17,6.795,1.755,10.936,1.755
		c3.539,0,6.719-0.45,9.54-1.35c2.818-0.9,5.22-2.19,7.199-3.871c1.98-1.678,3.494-3.703,4.545-6.074
		c1.05-2.37,1.575-5.025,1.575-7.965v-1.08c0-5.52-1.741-9.689-5.22-12.51c-3.481-2.82-8.521-4.83-15.12-6.03
		c-2.641-0.479-4.814-0.99-6.524-1.53c-1.711-0.54-3.092-1.154-4.141-1.845c-1.051-0.688-1.786-1.47-2.205-2.341
		c-0.421-0.868-0.63-1.844-0.63-2.924c0-2.101,0.869-3.766,2.61-4.996c1.738-1.229,4.108-1.844,7.109-1.844
		c3.539,0,6.284,0.93,8.235,2.789c1.949,1.86,2.925,4.051,2.925,6.57V69.574z M544.281,100.579c-1.44-0.688-2.61-1.665-3.51-2.925
		c-0.9-1.26-1.53-2.76-1.89-4.5c-0.36-1.74-0.54-3.659-0.54-5.76v-15.48c0-1.98,0.209-3.839,0.629-5.58
		c0.419-1.74,1.081-3.24,1.98-4.5s2.07-2.264,3.51-3.016c1.44-0.75,3.179-1.125,5.22-1.125c2.039,0,3.78,0.375,5.22,1.125
		c1.44,0.752,2.61,1.756,3.51,3.016s1.559,2.76,1.98,4.5c0.419,1.741,0.63,3.6,0.63,5.58v15.48c0,2.101-0.18,4.02-0.54,5.76
		c-0.36,1.74-0.99,3.24-1.89,4.5s-2.07,2.236-3.51,2.925c-1.44,0.69-3.24,1.035-5.4,1.035S545.721,101.27,544.281,100.579
		 M526.461,86.674c0,8.401,2.054,14.791,6.165,19.17c4.109,4.381,9.794,6.57,17.055,6.57c7.259,0,12.944-2.189,17.055-6.57
		c4.109-4.379,6.165-10.769,6.165-19.17v-14.04c0-8.159-2.056-14.489-6.165-18.989c-4.111-4.5-9.796-6.75-17.055-6.75
		c-7.261,0-12.946,2.25-17.055,6.75c-4.111,4.5-6.165,10.83-6.165,18.989V86.674z M466.521,59.494h16.74v51.66h11.88v-51.66h16.74
		v-11.34h-45.36V59.494z M429.891,48.154h-23.22v63h11.88V54.094h1.62l7.38,57.061h23.22v-63h-11.88v57.06h-1.62L429.891,48.154z
		 M348.081,111.154h40.86v-11.34h-28.98v-14.58h26.82v-11.34h-26.82v-14.4h27.9v-11.34h-39.78V111.154z M282.201,111.154h10.8
		v-42.12l-1.08-14.4h2.16l4.86,56.521h17.82l4.68-56.521h2.16l-1.08,14.4v42.12h10.8v-63h-20.88l-3.6,47.34v9.18h-2.16v-9.18
		l-3.6-47.34h-20.88V111.154z M258.081,48.154v41.22c0,3.722-0.871,6.63-2.61,8.729c-1.741,2.102-4.471,3.15-8.19,3.15
		c-3.721,0-6.451-1.049-8.19-3.15c-1.741-2.1-2.61-5.008-2.61-8.729v-41.22h-11.88v41.22c0,7.2,1.904,12.84,5.715,16.92
		c3.809,4.081,9.464,6.12,16.965,6.12c7.499,0,13.154-2.039,16.965-6.12c3.809-4.08,5.715-9.72,5.715-16.92v-41.22H258.081z
		 M181.626,100.579c-1.471-0.688-2.655-1.665-3.555-2.925s-1.561-2.745-1.98-4.455c-0.421-1.71-0.63-3.585-0.63-5.625v-15.84
		c0-1.859,0.225-3.646,0.675-5.355s1.154-3.209,2.115-4.5c0.959-1.29,2.16-2.309,3.6-3.061c1.44-0.75,3.15-1.125,5.13-1.125
		c2.16,0,3.96,0.375,5.4,1.125c1.44,0.752,2.579,1.726,3.42,2.926c0.839,1.201,1.44,2.551,1.8,4.05c0.36,1.5,0.54,3.001,0.54,4.5
		v1.62h11.88v-1.62c0-3.601-0.495-6.84-1.485-9.72c-0.99-2.881-2.461-5.34-4.41-7.381c-1.951-2.038-4.365-3.6-7.245-4.68
		c-2.88-1.08-6.181-1.619-9.9-1.619c-3.6,0-6.84,0.584-9.72,1.754s-5.341,2.851-7.38,5.041c-2.041,2.19-3.6,4.891-4.68,8.1
		c-1.08,3.21-1.62,6.826-1.62,10.845v14.04c0,8.401,2.099,14.791,6.3,19.17c4.199,4.381,9.9,6.57,17.1,6.57
		c7.499,0,13.214-2.025,17.145-6.075c3.929-4.05,5.895-9.823,5.895-17.325v-1.619h-11.88v1.619c0,1.62-0.151,3.195-0.45,4.726
		c-0.301,1.53-0.855,2.88-1.665,4.05s-1.951,2.102-3.42,2.79c-1.471,0.69-3.346,1.035-5.625,1.035
		C184.88,101.614,183.095,101.27,181.626,100.579 M120.921,100.579c-1.44-0.688-2.61-1.665-3.51-2.925s-1.53-2.76-1.89-4.5
		c-0.36-1.74-0.54-3.659-0.54-5.76v-15.48c0-1.98,0.209-3.839,0.63-5.58c0.419-1.74,1.08-3.24,1.98-4.5s2.07-2.264,3.51-3.016
		c1.44-0.75,3.179-1.125,5.22-1.125c2.039,0,3.78,0.375,5.22,1.125c1.44,0.752,2.61,1.756,3.51,3.016s1.559,2.76,1.98,4.5
		c0.419,1.741,0.63,3.6,0.63,5.58v15.48c0,2.101-0.18,4.02-0.54,5.76c-0.36,1.74-0.99,3.24-1.89,4.5
		c-0.9,1.26-2.07,2.236-3.51,2.925c-1.44,0.69-3.24,1.035-5.4,1.035S122.361,101.27,120.921,100.579 M103.101,86.674
		c0,8.401,2.054,14.791,6.165,19.17c4.109,4.381,9.794,6.57,17.055,6.57c7.259,0,12.944-2.189,17.055-6.57
		c4.109-4.379,6.165-10.769,6.165-19.17v-14.04c0-8.159-2.056-14.489-6.165-18.989c-4.111-4.5-9.796-6.75-17.055-6.75
		c-7.261,0-12.946,2.25-17.055,6.75c-4.111,4.5-6.165,10.83-6.165,18.989V86.674z M60.261,99.814v-40.32h5.04
		c4.14,0,7.034,0.931,8.685,2.79c1.65,1.86,2.475,4.59,2.475,8.19v17.279c0,4.141-0.825,7.186-2.475,9.135
		c-1.651,1.95-4.545,2.926-8.685,2.926H60.261z M42.441,59.494h5.94v40.23h-5.94v11.43h22.86c7.799,0,13.59-1.814,17.37-5.445
		c3.78-3.63,5.67-9.255,5.67-16.875V70.475c0-7.619-1.89-13.244-5.67-16.875c-3.78-3.631-9.571-5.445-17.37-5.445h-22.86V59.494z"/>
	<path clip-path="url(#SVGID_2_)" fill="#231F20" d="M1033.101,532.115c3.071,0,5.416-0.602,7.03-1.808
		c1.616-1.205,2.425-2.774,2.425-4.707c0-1.722-0.644-3.079-1.928-4.072s-3.384-1.741-6.296-2.245
		c-1.351-0.264-2.298-0.536-2.841-0.813c-0.543-0.278-0.813-0.616-0.813-1.014c0-0.423,0.263-0.78,0.793-1.072
		c0.53-0.291,1.271-0.438,2.226-0.438c1.218,0,2.264,0.213,3.138,0.636c0.874,0.425,1.629,1.1,2.264,2.026l3.496-3.416
		c-0.899-1.245-2.071-2.178-3.515-2.801c-1.444-0.622-3.304-0.935-5.583-0.935c-2.065,0-3.819,0.312-5.262,0.935
		c-1.444,0.623-2.523,1.437-3.238,2.442c-0.715,1.008-1.074,2.08-1.074,3.219c0,1.668,0.63,3.006,1.888,4.012
		c1.258,1.007,3.37,1.801,6.336,2.384c1.324,0.266,2.258,0.536,2.801,0.814c0.542,0.277,0.814,0.603,0.814,0.973
		c0,0.424-0.265,0.762-0.795,1.013c-0.529,0.252-1.258,0.378-2.185,0.378c-2.781,0-4.741-0.939-5.878-2.82l-3.496,3.813
		C1025.314,530.95,1028.545,532.115,1033.101,532.115 M1009.543,516.186c2.119,0,3.337,1.298,3.655,3.893h-7.467
		C1006.127,517.483,1007.398,516.186,1009.543,516.186 M1019.516,521.509c0-3.179-0.855-5.647-2.563-7.409
		c-1.708-1.761-4.165-2.643-7.37-2.643c-3.31,0-5.866,0.901-7.667,2.702c-1.801,1.802-2.701,4.345-2.701,7.627
		c0,3.284,0.92,5.827,2.762,7.627c1.84,1.803,4.495,2.702,7.964,2.702c2.331,0,4.296-0.442,5.898-1.331
		c1.603-0.887,2.682-2.178,3.239-3.873l-5.482-1.748c-0.213,0.716-0.63,1.259-1.252,1.628c-0.622,0.372-1.424,0.558-2.403,0.558
		c-1.166,0-2.1-0.291-2.801-0.874c-0.702-0.583-1.159-1.496-1.37-2.741h13.546C1019.448,523.15,1019.516,522.409,1019.516,521.509
		 M995.044,526.435c-0.822,0.583-1.774,0.874-2.86,0.874c-1.747,0-2.621-0.887-2.621-2.662v-7.984h5.958v-4.807h-5.958v-6.317
		l-6.754,1.867v4.45h-3.416v4.807h3.416v9.098c0.026,2.224,0.663,3.84,1.907,4.846c1.245,1.007,3.045,1.51,5.403,1.51
		c1.033,0,2.06-0.139,3.078-0.417c1.019-0.278,1.861-0.642,2.522-1.093L995.044,526.435z M968.229,511.457
		c-1.563,0-2.927,0.353-4.092,1.054c-1.166,0.702-2.066,1.755-2.701,3.157l-0.199-3.812h-6.038v19.862h6.753V521.23
		c0-1.562,0.331-2.721,0.993-3.476c0.662-0.756,1.523-1.133,2.583-1.133c0.9,0,1.594,0.285,2.085,0.854
		c0.49,0.57,0.735,1.529,0.735,2.88v11.361h6.753v-13.229c0-2.251-0.622-3.985-1.867-5.204
		C971.989,512.067,970.321,511.457,968.229,511.457 M939.23,516.265c1.271,0,2.21,0.437,2.82,1.311
		c0.608,0.874,0.913,2.278,0.913,4.211c0,1.935-0.304,3.337-0.913,4.211c-0.61,0.874-1.55,1.312-2.82,1.312
		c-1.271,0-2.212-0.438-2.821-1.312c-0.608-0.874-0.913-2.276-0.913-4.211c0-1.933,0.304-3.337,0.913-4.211
		C937.019,516.701,937.959,516.265,939.23,516.265 M939.23,511.457c-3.312,0-5.887,0.908-7.728,2.723
		c-1.841,1.813-2.761,4.35-2.761,7.606c0,3.259,0.92,5.794,2.761,7.607c1.841,1.814,4.416,2.722,7.728,2.722
		c3.31,0,5.885-0.907,7.726-2.722c1.841-1.813,2.761-4.349,2.761-7.607c0-3.257-0.92-5.793-2.761-7.606
		C945.115,512.365,942.54,511.457,939.23,511.457 M919.566,510.465c0-1.906,1.098-2.86,3.297-2.86c0.927,0,1.682,0.212,2.264,0.636
		l0.677-4.211c-0.98-0.768-2.503-1.151-4.569-1.151c-2.383,0-4.318,0.596-5.8,1.786c-1.483,1.192-2.225,2.98-2.225,5.363v1.828
		h-3.178v4.807h3.178v15.056h6.753v-15.056h5.642v-4.807h-6.038V510.465z M884.688,532.115c3.072,0,5.416-0.602,7.032-1.808
		c1.614-1.205,2.423-2.774,2.423-4.707c0-1.722-0.643-3.079-1.928-4.072c-1.285-0.993-3.383-1.741-6.296-2.245
		c-1.351-0.264-2.298-0.536-2.841-0.813c-0.543-0.278-0.814-0.616-0.814-1.014c0-0.423,0.265-0.78,0.795-1.072
		c0.528-0.291,1.271-0.438,2.224-0.438c1.218,0,2.264,0.213,3.139,0.636c0.874,0.425,1.629,1.1,2.265,2.026l3.496-3.416
		c-0.901-1.245-2.073-2.178-3.516-2.801c-1.444-0.622-3.304-0.935-5.581-0.935c-2.065,0-3.821,0.312-5.264,0.935
		c-1.444,0.623-2.524,1.437-3.239,2.442c-0.714,1.008-1.071,2.08-1.071,3.219c0,1.668,0.628,3.006,1.887,4.012
		c1.257,1.007,3.37,1.801,6.336,2.384c1.324,0.266,2.257,0.536,2.801,0.814c0.542,0.277,0.814,0.603,0.814,0.973
		c0,0.424-0.266,0.762-0.795,1.013c-0.53,0.252-1.259,0.378-2.185,0.378c-2.781,0-4.741-0.939-5.88-2.82l-3.496,3.813
		C876.901,530.95,880.131,532.115,884.688,532.115 M859.264,527.745c-0.609,0-1.086-0.145-1.431-0.437
		c-0.343-0.291-0.515-0.715-0.515-1.271c0-0.556,0.179-0.986,0.536-1.291s0.96-0.562,1.808-0.774l3.217-0.755v1.708
		c0,0.848-0.371,1.529-1.112,2.046C861.024,527.487,860.19,527.745,859.264,527.745 M870.982,527.864
		c-0.953,0-1.43-0.516-1.43-1.549v-7.229c0-2.544-0.809-4.449-2.424-5.722c-1.615-1.271-3.973-1.907-7.071-1.907
		c-2.649,0-4.753,0.537-6.317,1.609c-1.562,1.073-2.516,2.576-2.86,4.509l5.482,1.589c0.185-1.085,0.596-1.866,1.232-2.344
		c0.635-0.476,1.455-0.715,2.462-0.715c0.874,0,1.562,0.265,2.066,0.795c0.502,0.53,0.754,1.245,0.754,2.146v0.715l-4.488,0.874
		c-2.755,0.556-4.734,1.357-5.939,2.402c-1.205,1.047-1.807,2.417-1.807,4.112c0,1.616,0.528,2.847,1.589,3.694
		c1.059,0.848,2.582,1.271,4.568,1.271c3.521,0,5.879-1.02,7.07-3.059c0.558,2.039,2.266,3.059,5.125,3.059
		c1.033,0,1.933-0.213,2.701-0.636l0.516-3.774C871.896,527.812,871.485,527.864,870.982,527.864 M834.952,527.149
		c-1.192,0-2.113-0.437-2.761-1.311c-0.649-0.874-0.973-2.226-0.973-4.053s0.323-3.178,0.973-4.052
		c0.647-0.874,1.568-1.311,2.761-1.311c1.085,0,1.953,0.396,2.603,1.191c0.647,0.794,1.013,1.92,1.092,3.377v1.589
		c-0.079,1.483-0.444,2.615-1.092,3.396C836.905,526.76,836.037,527.149,834.952,527.149 M838.646,503.434v11.759
		c-0.583-1.165-1.377-2.079-2.383-2.741c-1.008-0.662-2.213-0.994-3.615-0.994c-2.569,0-4.582,0.914-6.039,2.742
		c-1.456,1.827-2.184,4.383-2.184,7.667c0,3.231,0.721,5.747,2.164,7.547c1.443,1.803,3.449,2.702,6.019,2.702
		c1.483,0,2.787-0.371,3.913-1.112c1.125-0.741,1.979-1.762,2.562-3.059l0.239,3.773h6.079v-28.284H838.646z M795.465,527.745
		c-0.61,0-1.087-0.145-1.43-0.437c-0.345-0.291-0.517-0.715-0.517-1.271c0-0.556,0.179-0.986,0.536-1.291s0.96-0.562,1.808-0.774
		l3.218-0.755v1.708c0,0.848-0.372,1.529-1.113,2.046C797.227,527.487,796.392,527.745,795.465,527.745 M807.185,527.864
		c-0.954,0-1.431-0.516-1.431-1.549v-7.229c0-2.544-0.809-4.449-2.424-5.722c-1.615-1.271-3.972-1.907-7.07-1.907
		c-2.648,0-4.755,0.537-6.316,1.609c-1.563,1.073-2.518,2.576-2.861,4.509l5.483,1.589c0.185-1.085,0.595-1.866,1.23-2.344
		c0.637-0.476,1.456-0.715,2.464-0.715c0.873,0,1.562,0.265,2.065,0.795c0.503,0.53,0.755,1.245,0.755,2.146v0.715l-4.488,0.874
		c-2.756,0.556-4.735,1.357-5.939,2.402c-1.206,1.047-1.808,2.417-1.808,4.112c0,1.616,0.529,2.847,1.589,3.694
		c1.059,0.848,2.582,1.271,4.568,1.271c3.522,0,5.879-1.02,7.071-3.059c0.556,2.039,2.264,3.059,5.124,3.059
		c1.033,0,1.933-0.213,2.702-0.636l0.516-3.774C808.098,527.812,807.687,527.864,807.185,527.864 M773.219,511.457
		c-3.284,0-5.847,0.908-7.687,2.723c-1.841,1.813-2.761,4.35-2.761,7.606c0,3.284,0.926,5.827,2.779,7.627
		c1.854,1.803,4.503,2.702,7.945,2.702c2.675,0,4.827-0.562,6.456-1.688c1.628-1.125,2.588-2.588,2.88-4.39l-6.078-1.946
		c-0.317,2.145-1.417,3.218-3.297,3.218c-2.622,0-3.933-1.814-3.933-5.442c0-3.734,1.311-5.602,3.933-5.602
		c1.774,0,2.794,1.139,3.06,3.417l6.275-2.066c-0.371-1.827-1.311-3.31-2.82-4.449C778.462,512.027,776.211,511.457,773.219,511.457
		 M757.567,511.457c-1.51,0-2.775,0.405-3.794,1.213c-1.021,0.808-1.769,1.967-2.244,3.476l-0.279-4.29h-5.958v19.862h6.753v-10.011
		c0-1.51,0.424-2.668,1.271-3.476c0.847-0.808,1.907-1.212,3.178-1.212c0.502,0,0.98,0.06,1.43,0.179
		c0.45,0.119,0.809,0.258,1.073,0.417l0.715-5.721C759.183,511.604,758.467,511.457,757.567,511.457 M729.958,516.186
		c2.119,0,3.337,1.298,3.655,3.893h-7.468C726.542,517.483,727.813,516.186,729.958,516.186 M739.93,521.509
		c0-3.179-0.854-5.647-2.562-7.409c-1.708-1.761-4.165-2.643-7.369-2.643c-3.311,0-5.866,0.901-7.667,2.702
		c-1.801,1.802-2.701,4.345-2.701,7.627c0,3.284,0.921,5.827,2.761,7.627c1.841,1.803,4.496,2.702,7.964,2.702
		c2.332,0,4.297-0.442,5.9-1.331c1.603-0.887,2.682-2.178,3.237-3.873l-5.482-1.748c-0.212,0.716-0.629,1.259-1.25,1.628
		c-0.623,0.372-1.425,0.558-2.405,0.558c-1.165,0-2.1-0.291-2.799-0.874c-0.702-0.583-1.159-1.496-1.371-2.741h13.547
		C739.863,523.15,739.93,522.409,739.93,521.509 M705.806,511.457c-3.284,0-5.847,0.908-7.688,2.723
		c-1.841,1.813-2.761,4.35-2.761,7.606c0,3.284,0.927,5.827,2.781,7.627c1.854,1.803,4.502,2.702,7.944,2.702
		c2.675,0,4.827-0.562,6.456-1.688c1.628-1.125,2.588-2.588,2.88-4.39l-6.077-1.946c-0.318,2.145-1.418,3.218-3.298,3.218
		c-2.622,0-3.933-1.814-3.933-5.442c0-3.734,1.311-5.602,3.933-5.602c1.774,0,2.793,1.139,3.059,3.417l6.276-2.066
		c-0.371-1.827-1.311-3.31-2.819-4.449C711.049,512.027,708.798,511.457,705.806,511.457 M679.27,527.745
		c-0.61,0-1.086-0.145-1.431-0.437c-0.345-0.291-0.517-0.715-0.517-1.271c0-0.556,0.179-0.986,0.538-1.291
		c0.357-0.305,0.959-0.562,1.807-0.774l3.219-0.755v1.708c0,0.848-0.371,1.529-1.112,2.046
		C681.03,527.487,680.196,527.745,679.27,527.745 M690.988,527.864c-0.954,0-1.43-0.516-1.43-1.549v-7.229
		c0-2.544-0.809-4.449-2.424-5.722c-1.615-1.271-3.973-1.907-7.071-1.907c-2.648,0-4.754,0.537-6.317,1.609
		c-1.562,1.073-2.515,2.576-2.859,4.509l5.481,1.589c0.186-1.085,0.596-1.866,1.231-2.344c0.636-0.476,1.457-0.715,2.463-0.715
		c0.874,0,1.562,0.265,2.065,0.795s0.756,1.245,0.756,2.146v0.715l-4.489,0.874c-2.755,0.556-4.734,1.357-5.939,2.402
		c-1.206,1.047-1.808,2.417-1.808,4.112c0,1.616,0.53,2.847,1.589,3.694s2.583,1.271,4.569,1.271c3.521,0,5.879-1.02,7.07-3.059
		c0.557,2.039,2.265,3.059,5.125,3.059c1.032,0,1.933-0.213,2.701-0.636l0.517-3.774
		C691.902,527.812,691.491,527.864,690.988,527.864 M642.881,516.265c1.271,0,2.211,0.437,2.82,1.311s0.914,2.278,0.914,4.211
		c0,1.935-0.305,3.337-0.914,4.211s-1.549,1.312-2.82,1.312c-1.271,0-2.212-0.438-2.82-1.312c-0.609-0.874-0.914-2.276-0.914-4.211
		c0-1.933,0.304-3.337,0.914-4.211C640.669,516.701,641.61,516.265,642.881,516.265 M642.881,511.457
		c-3.311,0-5.886,0.908-7.727,2.723c-1.841,1.813-2.761,4.35-2.761,7.606c0,3.259,0.92,5.794,2.761,7.607
		c1.841,1.814,4.416,2.722,7.727,2.722s5.886-0.907,7.728-2.722c1.84-1.813,2.76-4.349,2.76-7.607c0-3.257-0.92-5.793-2.76-7.606
		C648.767,512.365,646.191,511.457,642.881,511.457 M625.243,503.195h-3.813c-0.079,0.741-0.238,1.297-0.477,1.668
		c-0.24,0.371-0.583,0.557-1.033,0.557c-0.292,0-0.535-0.06-0.734-0.18c-0.199-0.119-0.497-0.337-0.895-0.655
		c-0.583-0.449-1.119-0.801-1.608-1.053c-0.49-0.251-1.132-0.377-1.928-0.377c-3.336,0-5.084,2.105-5.242,6.316h3.812
		c0.08-0.741,0.239-1.297,0.478-1.668c0.237-0.371,0.568-0.557,0.992-0.557c0.291,0,0.563,0.073,0.815,0.219
		c0.251,0.146,0.549,0.363,0.893,0.655c0.558,0.45,1.079,0.794,1.57,1.032c0.489,0.239,1.132,0.358,1.926,0.358
		C623.336,509.512,625.084,507.405,625.243,503.195 M616.306,527.745c-0.61,0-1.086-0.145-1.431-0.437
		c-0.345-0.291-0.517-0.715-0.517-1.271c0-0.556,0.179-0.986,0.537-1.291c0.356-0.305,0.959-0.562,1.807-0.774l3.218-0.755v1.708
		c0,0.848-0.371,1.529-1.112,2.046S617.232,527.745,616.306,527.745 M628.024,527.864c-0.954,0-1.43-0.516-1.43-1.549v-7.229
		c0-2.544-0.81-4.449-2.425-5.722c-1.614-1.271-3.972-1.907-7.07-1.907c-2.648,0-4.754,0.537-6.316,1.609
		c-1.562,1.073-2.516,2.576-2.86,4.509l5.482,1.589c0.185-1.085,0.596-1.866,1.231-2.344c0.636-0.476,1.457-0.715,2.463-0.715
		c0.874,0,1.562,0.265,2.065,0.795s0.755,1.245,0.755,2.146v0.715l-4.488,0.874c-2.756,0.556-4.734,1.357-5.939,2.402
		c-1.206,1.047-1.808,2.417-1.808,4.112c0,1.616,0.529,2.847,1.589,3.694c1.059,0.848,2.583,1.271,4.568,1.271
		c3.522,0,5.88-1.02,7.071-3.059c0.557,2.039,2.265,3.059,5.125,3.059c1.032,0,1.933-0.213,2.701-0.636l0.516-3.774
		C628.938,527.812,628.527,527.864,628.024,527.864 M603.672,526.037l-6.077-1.946c-0.318,2.145-1.417,3.218-3.298,3.218
		c-2.621,0-3.933-1.814-3.933-5.442c0-3.734,1.312-5.602,3.933-5.602c1.774,0,2.794,1.139,3.06,3.417l6.275-2.066
		c-0.37-1.827-1.31-3.31-2.819-4.449c-1.51-1.139-3.762-1.709-6.753-1.709c-3.285,0-5.848,0.908-7.688,2.723
		c-1.841,1.813-2.761,4.35-2.761,7.606c0,3.02,0.774,5.416,2.324,7.19c1.549,1.774,3.794,2.794,6.732,3.059
		c1.06,0.345,1.794,0.729,2.205,1.152c0.41,0.424,0.616,0.927,0.616,1.51c0,0.609-0.199,1.085-0.596,1.431
		c-0.397,0.344-0.929,0.516-1.589,0.516c-1.166,0-2.119-0.371-2.86-1.112l-1.55,3.139c1.139,1.059,2.781,1.589,4.926,1.589
		c1.721,0,3.099-0.404,4.132-1.211c1.033-0.809,1.549-1.968,1.549-3.477c0-0.715-0.179-1.396-0.536-2.046
		c-0.357-0.649-0.894-1.212-1.608-1.688c1.8-0.398,3.25-1.106,4.35-2.126C602.805,528.692,603.46,527.468,603.672,526.037
		 M567.522,527.745c-0.609,0-1.086-0.145-1.43-0.437c-0.344-0.291-0.516-0.715-0.516-1.271c0-0.556,0.178-0.986,0.536-1.291
		c0.357-0.305,0.959-0.562,1.807-0.774l3.218-0.755v1.708c0,0.848-0.371,1.529-1.112,2.046
		C569.283,527.487,568.449,527.745,567.522,527.745 M579.241,527.864c-0.953,0-1.43-0.516-1.43-1.549v-7.229
		c0-2.544-0.808-4.449-2.423-5.722c-1.616-1.271-3.973-1.907-7.071-1.907c-2.649,0-4.754,0.537-6.317,1.609
		c-1.563,1.073-2.516,2.576-2.86,4.509l5.482,1.589c0.185-1.085,0.596-1.866,1.232-2.344c0.635-0.476,1.456-0.715,2.463-0.715
		c0.874,0,1.562,0.265,2.065,0.795s0.755,1.245,0.755,2.146v0.715l-4.489,0.874c-2.754,0.556-4.734,1.357-5.939,2.402
		c-1.205,1.047-1.807,2.417-1.807,4.112c0,1.616,0.529,2.847,1.589,3.694c1.059,0.848,2.582,1.271,4.568,1.271
		c3.522,0,5.88-1.02,7.071-3.059c0.556,2.039,2.265,3.059,5.125,3.059c1.033,0,1.933-0.213,2.701-0.636l0.517-3.774
		C580.155,527.812,579.744,527.864,579.241,527.864 M546.945,511.457c-1.457,0-2.775,0.346-3.953,1.033
		c-1.179,0.689-2.086,1.683-2.721,2.98c-0.477-1.298-1.265-2.291-2.364-2.98c-1.099-0.688-2.403-1.033-3.913-1.033
		c-1.536,0-2.874,0.358-4.012,1.073c-1.139,0.715-2.026,1.762-2.662,3.138l-0.198-3.812h-6.039v19.862h6.754V521.23
		c0-1.536,0.331-2.688,0.993-3.456c0.662-0.768,1.496-1.152,2.503-1.152c1.8,0,2.701,1.14,2.701,3.416v11.68h6.753v-10.606
		c0-1.456,0.318-2.569,0.954-3.337c0.635-0.768,1.483-1.152,2.542-1.152c1.801,0,2.701,1.14,2.701,3.416v11.68h6.754v-13.229
		c0-2.251-0.63-3.985-1.887-5.204C550.593,512.067,548.957,511.457,546.945,511.457 M514.688,511.457
		c-1.51,0-2.775,0.405-3.794,1.213c-1.02,0.808-1.768,1.967-2.244,3.476l-0.278-4.29h-5.959v19.862h6.753v-10.011
		c0-1.51,0.423-2.668,1.271-3.476c0.848-0.808,1.907-1.212,3.178-1.212c0.503,0,0.98,0.06,1.431,0.179
		c0.449,0.119,0.808,0.258,1.072,0.417l0.715-5.721C516.303,511.604,515.588,511.457,514.688,511.457 M486.444,516.265
		c1.271,0,2.211,0.437,2.82,1.311s0.914,2.278,0.914,4.211c0,1.935-0.305,3.337-0.914,4.211s-1.549,1.312-2.82,1.312
		c-1.272,0-2.212-0.438-2.821-1.312c-0.609-0.874-0.914-2.276-0.914-4.211c0-1.933,0.305-3.337,0.914-4.211
		C484.232,516.701,485.172,516.265,486.444,516.265 M486.444,511.457c-3.311,0-5.887,0.908-7.727,2.723
		c-1.841,1.813-2.761,4.35-2.761,7.606c0,3.259,0.92,5.794,2.761,7.607c1.84,1.814,4.416,2.722,7.727,2.722
		c3.31,0,5.885-0.907,7.726-2.722c1.841-1.813,2.761-4.349,2.761-7.607c0-3.257-0.92-5.793-2.761-7.606
		C492.329,512.365,489.754,511.457,486.444,511.457 M466.78,510.465c0-1.906,1.098-2.86,3.297-2.86c0.927,0,1.681,0.212,2.264,0.636
		l0.676-4.211c-0.981-0.768-2.503-1.151-4.569-1.151c-2.383,0-4.317,0.596-5.8,1.786c-1.483,1.192-2.224,2.98-2.224,5.363v1.828
		h-3.178v4.807h3.178v15.056h6.753v-15.056h5.641v-4.807h-6.038V510.465z M446.003,511.457c-1.563,0-2.927,0.353-4.092,1.054
		c-1.165,0.702-2.065,1.755-2.701,3.157l-0.199-3.812h-6.038v19.862h6.753V521.23c0-1.562,0.331-2.721,0.994-3.476
		c0.661-0.756,1.522-1.133,2.582-1.133c0.9,0,1.595,0.285,2.085,0.854c0.49,0.57,0.735,1.529,0.735,2.88v11.361h6.754v-13.229
		c0-2.251-0.623-3.985-1.867-5.204C449.763,512.067,448.095,511.457,446.003,511.457 M426.578,511.855h-6.753v19.863h6.753V511.855z
		 M423.201,509.552c1.377,0,2.377-0.26,3-0.775c0.622-0.516,0.933-1.331,0.933-2.443c0-1.138-0.311-1.967-0.933-2.482
		c-0.623-0.517-1.623-0.775-3-0.775s-2.377,0.259-2.999,0.775c-0.623,0.516-0.933,1.345-0.933,2.482c0,1.112,0.31,1.928,0.933,2.443
		C420.824,509.292,421.824,509.552,423.201,509.552 M391.542,516.186c2.118,0,3.337,1.298,3.655,3.893h-7.469
		C388.125,517.483,389.396,516.186,391.542,516.186 M401.512,521.509c0-3.179-0.854-5.647-2.562-7.409
		c-1.708-1.761-4.165-2.643-7.369-2.643c-3.311,0-5.867,0.901-7.667,2.702c-1.802,1.802-2.702,4.345-2.702,7.627
		c0,3.284,0.92,5.827,2.761,7.627c1.841,1.803,4.495,2.702,7.965,2.702c2.33,0,4.297-0.442,5.899-1.331
		c1.602-0.887,2.682-2.178,3.238-3.873l-5.482-1.748c-0.212,0.716-0.629,1.259-1.251,1.628c-0.623,0.372-1.424,0.558-2.404,0.558
		c-1.166,0-2.099-0.291-2.8-0.874c-0.702-0.583-1.159-1.496-1.371-2.741h13.546C401.446,523.15,401.512,522.409,401.512,521.509"/>
	<path clip-path="url(#SVGID_2_)" fill="#231F20" d="M1073.061,478.766c3.072,0,5.416-0.602,7.031-1.808
		c1.615-1.205,2.424-2.774,2.424-4.707c0-1.721-0.644-3.079-1.928-4.072c-1.284-0.992-3.383-1.74-6.295-2.245
		c-1.352-0.264-2.299-0.535-2.842-0.813c-0.543-0.278-0.813-0.616-0.813-1.013c0-0.424,0.264-0.781,0.794-1.073
		c0.529-0.291,1.271-0.438,2.224-0.438c1.218,0,2.264,0.213,3.139,0.637c0.873,0.424,1.628,1.099,2.265,2.025l3.495-3.416
		c-0.9-1.245-2.072-2.178-3.516-2.801c-1.443-0.622-3.303-0.933-5.582-0.933c-2.064,0-3.819,0.311-5.262,0.933
		c-1.444,0.623-2.522,1.438-3.238,2.443c-0.715,1.007-1.071,2.08-1.071,3.218c0,1.668,0.628,3.006,1.887,4.012
		c1.257,1.007,3.369,1.802,6.335,2.384c1.325,0.266,2.257,0.536,2.8,0.814c0.542,0.278,0.815,0.603,0.815,0.973
		c0,0.424-0.266,0.763-0.794,1.014c-0.531,0.252-1.258,0.378-2.186,0.378c-2.781,0-4.74-0.94-5.878-2.821l-3.496,3.814
		C1065.274,477.601,1068.505,478.766,1073.061,478.766 M1048.868,462.915c1.271,0,2.211,0.438,2.82,1.311
		c0.609,0.874,0.914,2.278,0.914,4.212s-0.305,3.337-0.914,4.211c-0.609,0.874-1.549,1.311-2.82,1.311s-2.212-0.437-2.821-1.311
		c-0.609-0.874-0.913-2.277-0.913-4.211s0.304-3.338,0.913-4.212C1046.656,463.353,1047.597,462.915,1048.868,462.915
		 M1048.868,458.109c-3.311,0-5.887,0.906-7.727,2.721c-1.841,1.814-2.761,4.35-2.761,7.607s0.92,5.794,2.761,7.607
		c1.839,1.814,4.416,2.721,7.727,2.721s5.886-0.906,7.727-2.721c1.841-1.813,2.76-4.35,2.76-7.607s-0.919-5.793-2.76-7.607
		S1052.179,458.109,1048.868,458.109 M1034.209,473.085c-0.82,0.583-1.774,0.874-2.859,0.874c-1.748,0-2.622-0.887-2.622-2.662
		v-7.983h5.959v-4.808h-5.959v-6.316l-6.753,1.867v4.449h-3.417v4.808h3.417v9.097c0.026,2.224,0.662,3.84,1.907,4.846
		c1.243,1.007,3.045,1.51,5.402,1.51c1.033,0,2.06-0.139,3.079-0.417c1.019-0.277,1.86-0.642,2.522-1.093L1034.209,473.085z
		 M1007.395,458.109c-1.564,0-2.926,0.351-4.091,1.052c-1.166,0.702-2.066,1.755-2.702,3.158l-0.198-3.813h-6.04v19.862h6.754
		v-10.487c0-1.562,0.33-2.721,0.993-3.476c0.661-0.755,1.522-1.132,2.582-1.132c0.9,0,1.595,0.284,2.086,0.854
		c0.489,0.57,0.734,1.529,0.734,2.88v11.361h6.754V465.14c0-2.251-0.623-3.985-1.867-5.203
		C1011.155,458.718,1009.486,458.109,1007.395,458.109 M979.031,462.836c2.118,0,3.337,1.298,3.655,3.894h-7.469
		C975.615,464.134,976.887,462.836,979.031,462.836 M989.002,468.159c0-3.178-0.854-5.647-2.562-7.409
		c-1.708-1.761-4.166-2.641-7.369-2.641c-3.311,0-5.867,0.899-7.667,2.7c-1.802,1.802-2.702,4.345-2.702,7.628
		s0.92,5.826,2.761,7.627c1.841,1.802,4.495,2.701,7.965,2.701c2.33,0,4.297-0.442,5.898-1.331c1.603-0.887,2.683-2.178,3.238-3.872
		l-5.482-1.748c-0.211,0.715-0.628,1.258-1.25,1.629c-0.623,0.371-1.424,0.556-2.403,0.556c-1.165,0-2.1-0.291-2.8-0.874
		c-0.702-0.583-1.159-1.496-1.372-2.741h13.546C988.937,469.801,989.002,469.06,989.002,468.159 M956.547,458.109
		c-1.457,0-2.775,0.344-3.953,1.031c-1.18,0.689-2.086,1.683-2.722,2.98c-0.476-1.298-1.264-2.291-2.363-2.98
		c-1.1-0.688-2.403-1.031-3.913-1.031c-1.536,0-2.875,0.356-4.013,1.071c-1.139,0.716-2.026,1.763-2.661,3.139l-0.199-3.813h-6.039
		v19.862h6.753v-10.487c0-1.536,0.331-2.688,0.993-3.456c0.662-0.768,1.497-1.151,2.502-1.151c1.801,0,2.702,1.139,2.702,3.416
		v11.679h6.753v-10.606c0-1.456,0.317-2.568,0.953-3.337c0.636-0.768,1.482-1.151,2.543-1.151c1.801,0,2.701,1.139,2.701,3.416
		v11.679h6.754V465.14c0-2.251-0.63-3.985-1.888-5.203C960.194,458.718,958.56,458.109,956.547,458.109 M915.749,482.54
		c-3.681,0-5.521-0.61-5.521-1.828c0-0.476,0.231-0.828,0.695-1.052c0.463-0.227,1.237-0.338,2.324-0.338h5.442
		c0.874,0,1.496,0.104,1.867,0.317c0.371,0.211,0.556,0.529,0.556,0.953c0,0.582-0.457,1.054-1.371,1.41
		C918.828,482.361,917.497,482.54,915.749,482.54 M915.432,461.962c0.874,0,1.582,0.266,2.125,0.794
		c0.543,0.53,0.815,1.232,0.815,2.106s-0.271,1.568-0.815,2.085c-0.542,0.517-1.25,0.774-2.125,0.774s-1.583-0.258-2.125-0.774
		c-0.542-0.517-0.815-1.211-0.815-2.085s0.272-1.576,0.815-2.106C913.848,462.228,914.558,461.962,915.432,461.962 M919.205,473.959
		h-6.753c-1.378,0-2.065-0.45-2.065-1.351c0-0.716,0.41-1.179,1.23-1.391c1.113,0.238,2.385,0.357,3.814,0.357
		c3.072,0,5.455-0.582,7.15-1.747c1.694-1.166,2.542-2.821,2.542-4.966c0-2.489-1.111-4.317-3.337-5.482
		c0.266-0.556,0.695-0.993,1.291-1.311c0.597-0.318,1.345-0.478,2.245-0.478c0.211,0,0.582,0.027,1.112,0.08l-0.755-4.489
		l-0.634-0.04c-1.644,0-2.928,0.504-3.855,1.51c-0.927,1.007-1.523,2.304-1.787,3.893c-1.219-0.291-2.543-0.436-3.973-0.436
		c-3.072,0-5.456,0.589-7.151,1.767c-1.694,1.179-2.542,2.841-2.542,4.986c0,2.463,1.085,4.276,3.258,5.441
		c-1.007,0.346-1.802,0.874-2.384,1.589c-0.583,0.716-0.874,1.536-0.874,2.464c0,1.881,1.019,3.258,3.059,4.132
		c-1.245,0.291-2.173,0.767-2.781,1.43c-0.609,0.661-0.914,1.43-0.914,2.304c0,1.483,0.828,2.636,2.483,3.456
		c1.654,0.821,4.217,1.231,7.687,1.231c3.443,0,6.164-0.603,8.164-1.807c1.999-1.205,2.999-2.935,2.999-5.185
		c0-1.96-0.629-3.443-1.887-4.449C923.29,474.462,921.51,473.959,919.205,473.959 M889.213,474.396c-0.61,0-1.085-0.146-1.43-0.438
		c-0.345-0.291-0.517-0.715-0.517-1.271c0-0.557,0.179-0.987,0.538-1.291c0.356-0.305,0.959-0.563,1.807-0.775l3.218-0.755v1.708
		c0,0.848-0.372,1.53-1.111,2.046C890.974,474.138,890.14,474.396,889.213,474.396 M900.932,474.515
		c-0.953,0-1.429-0.516-1.429-1.549v-7.229c0-2.543-0.809-4.449-2.424-5.722c-1.616-1.271-3.973-1.905-7.072-1.905
		c-2.648,0-4.753,0.536-6.316,1.607c-1.562,1.073-2.515,2.576-2.86,4.509l5.483,1.59c0.185-1.085,0.596-1.867,1.231-2.345
		c0.635-0.476,1.457-0.715,2.462-0.715c0.874,0,1.563,0.266,2.066,0.795c0.503,0.53,0.755,1.245,0.755,2.146v0.715l-4.489,0.874
		c-2.755,0.556-4.734,1.357-5.939,2.403c-1.205,1.047-1.807,2.418-1.807,4.111c0,1.616,0.528,2.848,1.588,3.695
		c1.059,0.847,2.582,1.271,4.568,1.271c3.522,0,5.88-1.019,7.071-3.059c0.557,2.04,2.265,3.059,5.125,3.059
		c1.033,0,1.934-0.213,2.701-0.636l0.516-3.773C901.847,474.462,901.436,474.515,900.932,474.515 M875.588,458.109
		c-1.51,0-2.774,0.403-3.795,1.211c-1.019,0.808-1.767,1.967-2.244,3.476l-0.278-4.29h-5.959v19.862h6.752v-10.01
		c0-1.511,0.424-2.668,1.273-3.477c0.847-0.808,1.905-1.212,3.178-1.212c0.502,0,0.979,0.061,1.43,0.179
		c0.45,0.119,0.808,0.259,1.072,0.417l0.715-5.721C877.202,458.254,876.487,458.109,875.588,458.109 M852.944,457.115
		c0-1.906,1.099-2.86,3.297-2.86c0.927,0,1.682,0.212,2.266,0.636l0.675-4.211c-0.98-0.768-2.503-1.151-4.568-1.151
		c-2.384,0-4.317,0.596-5.8,1.787c-1.484,1.191-2.225,2.979-2.225,5.362v1.828h-3.179v4.808h3.179v15.055h6.753v-15.055h5.641
		v-4.808h-6.038V457.115z M818.066,478.766c3.071,0,5.415-0.602,7.031-1.808c1.615-1.205,2.423-2.774,2.423-4.707
		c0-1.721-0.642-3.079-1.926-4.072c-1.285-0.992-3.384-1.74-6.297-2.245c-1.352-0.264-2.299-0.535-2.841-0.813
		c-0.543-0.278-0.814-0.616-0.814-1.013c0-0.424,0.265-0.781,0.795-1.073c0.529-0.291,1.271-0.438,2.225-0.438
		c1.218,0,2.265,0.213,3.139,0.637s1.629,1.099,2.264,2.025l3.496-3.416c-0.901-1.245-2.073-2.178-3.516-2.801
		c-1.444-0.622-3.305-0.933-5.582-0.933c-2.066,0-3.821,0.311-5.264,0.933c-1.442,0.623-2.521,1.438-3.236,2.443
		c-0.716,1.007-1.073,2.08-1.073,3.218c0,1.668,0.629,3.006,1.887,4.012c1.258,1.007,3.37,1.802,6.336,2.384
		c1.324,0.266,2.258,0.536,2.801,0.814c0.542,0.278,0.814,0.603,0.814,0.973c0,0.424-0.265,0.763-0.794,1.014
		c-0.53,0.252-1.258,0.378-2.186,0.378c-2.78,0-4.74-0.94-5.88-2.821l-3.495,3.814C810.279,477.601,813.511,478.766,818.066,478.766
		 M793.873,462.915c1.271,0,2.211,0.438,2.821,1.311c0.609,0.874,0.913,2.278,0.913,4.212s-0.304,3.337-0.913,4.211
		c-0.61,0.874-1.55,1.311-2.821,1.311c-1.271,0-2.211-0.437-2.819-1.311c-0.61-0.874-0.914-2.277-0.914-4.211
		s0.304-3.338,0.914-4.212C791.662,463.353,792.603,462.915,793.873,462.915 M793.873,458.109c-3.311,0-5.886,0.906-7.726,2.721
		s-2.76,4.35-2.76,7.607s0.92,5.794,2.76,7.607c1.84,1.814,4.416,2.721,7.726,2.721s5.887-0.906,7.728-2.721
		c1.84-1.813,2.761-4.35,2.761-7.607s-0.921-5.793-2.761-7.607C799.76,459.016,797.184,458.109,793.873,458.109 M756.851,478.766
		c3.072,0,5.415-0.602,7.031-1.808c1.614-1.205,2.423-2.774,2.423-4.707c0-1.721-0.643-3.079-1.926-4.072
		c-1.285-0.992-3.385-1.74-6.298-2.245c-1.35-0.264-2.298-0.535-2.84-0.813c-0.543-0.278-0.813-0.616-0.813-1.013
		c0-0.424,0.264-0.781,0.794-1.073c0.53-0.291,1.271-0.438,2.225-0.438c1.217,0,2.265,0.213,3.138,0.637
		c0.875,0.424,1.629,1.099,2.265,2.025l3.496-3.416c-0.9-1.245-2.072-2.178-3.517-2.801c-1.442-0.622-3.304-0.933-5.582-0.933
		c-2.065,0-3.819,0.311-5.263,0.933c-1.443,0.623-2.521,1.438-3.237,2.443c-0.715,1.007-1.072,2.08-1.072,3.218
		c0,1.668,0.629,3.006,1.887,4.012c1.258,1.007,3.37,1.802,6.336,2.384c1.324,0.266,2.258,0.536,2.801,0.814
		c0.542,0.278,0.814,0.603,0.814,0.973c0,0.424-0.266,0.763-0.794,1.014c-0.53,0.252-1.259,0.378-2.186,0.378
		c-2.78,0-4.741-0.94-5.879-2.821l-3.496,3.814C749.064,477.601,752.295,478.766,756.851,478.766 M732.657,462.915
		c1.272,0,2.211,0.438,2.821,1.311c0.609,0.874,0.914,2.278,0.914,4.212s-0.305,3.337-0.914,4.211
		c-0.61,0.874-1.549,1.311-2.821,1.311c-1.271,0-2.211-0.437-2.819-1.311c-0.61-0.874-0.914-2.277-0.914-4.211
		s0.304-3.338,0.914-4.212C730.446,463.353,731.387,462.915,732.657,462.915 M732.657,458.109c-3.31,0-5.886,0.906-7.726,2.721
		c-1.841,1.814-2.761,4.35-2.761,7.607s0.92,5.794,2.761,7.607c1.84,1.814,4.416,2.721,7.726,2.721c3.312,0,5.886-0.906,7.728-2.721
		c1.84-1.813,2.761-4.35,2.761-7.607s-0.921-5.793-2.761-7.607C738.543,459.016,735.969,458.109,732.657,458.109 M706.28,473.8
		c-1.191,0-2.112-0.437-2.761-1.311c-0.649-0.874-0.973-2.226-0.973-4.052c0-1.827,0.323-3.179,0.973-4.053
		c0.648-0.874,1.569-1.311,2.761-1.311c1.086,0,1.953,0.396,2.603,1.191c0.648,0.794,1.013,1.921,1.093,3.377v1.59
		c-0.08,1.482-0.444,2.614-1.093,3.396C708.233,473.41,707.366,473.8,706.28,473.8 M709.976,450.084v11.759
		c-0.583-1.165-1.378-2.079-2.384-2.74c-1.008-0.662-2.212-0.993-3.615-0.993c-2.569,0-4.582,0.913-6.038,2.74
		c-1.457,1.827-2.185,4.384-2.185,7.667c0,3.231,0.721,5.747,2.164,7.548c1.443,1.802,3.449,2.701,6.019,2.701
		c1.483,0,2.787-0.37,3.913-1.112c1.126-0.741,1.979-1.762,2.562-3.059l0.238,3.773h6.078v-28.284H709.976z M680.618,462.915
		c1.271,0,2.211,0.438,2.82,1.311c0.609,0.874,0.914,2.278,0.914,4.212s-0.305,3.337-0.914,4.211s-1.549,1.311-2.82,1.311
		c-1.271,0-2.212-0.437-2.82-1.311c-0.609-0.874-0.913-2.277-0.913-4.211s0.304-3.338,0.913-4.212
		C678.406,463.353,679.348,462.915,680.618,462.915 M680.618,458.109c-3.311,0-5.886,0.906-7.727,2.721s-2.761,4.35-2.761,7.607
		s0.92,5.794,2.761,7.607c1.841,1.814,4.416,2.721,7.727,2.721s5.886-0.906,7.728-2.721c1.84-1.813,2.759-4.35,2.759-7.607
		s-0.919-5.793-2.759-7.607C686.504,459.016,683.929,458.109,680.618,458.109 M665.959,473.085c-0.82,0.583-1.773,0.874-2.859,0.874
		c-1.748,0-2.622-0.887-2.622-2.662v-7.983h5.959v-4.808h-5.959v-6.316l-6.753,1.867v4.449h-3.417v4.808h3.417v9.097
		c0.025,2.224,0.662,3.84,1.907,4.846c1.243,1.007,3.045,1.51,5.401,1.51c1.033,0,2.06-0.139,3.079-0.417
		c1.02-0.277,1.86-0.642,2.523-1.093L665.959,473.085z M624.248,462.836c2.119,0,3.338,1.298,3.655,3.894h-7.468
		C620.832,464.134,622.104,462.836,624.248,462.836 M634.22,468.159c0-3.178-0.854-5.647-2.562-7.409
		c-1.708-1.761-4.165-2.641-7.369-2.641c-3.311,0-5.865,0.899-7.667,2.7c-1.801,1.802-2.7,4.345-2.7,7.628s0.92,5.826,2.761,7.627
		c1.84,1.802,4.495,2.701,7.964,2.701c2.331,0,4.297-0.442,5.9-1.331c1.601-0.887,2.681-2.178,3.236-3.872l-5.481-1.748
		c-0.212,0.715-0.629,1.258-1.251,1.629c-0.623,0.371-1.425,0.556-2.404,0.556c-1.165,0-2.099-0.291-2.8-0.874
		c-0.702-0.583-1.159-1.496-1.371-2.741h13.547C634.153,469.801,634.22,469.06,634.22,468.159 M598.03,473.8
		c-1.191,0-2.112-0.437-2.761-1.311c-0.649-0.874-0.973-2.226-0.973-4.052c0-1.827,0.323-3.179,0.973-4.053
		c0.648-0.874,1.569-1.311,2.761-1.311c1.085,0,1.953,0.396,2.603,1.191c0.647,0.794,1.013,1.921,1.092,3.377v1.59
		c-0.079,1.482-0.444,2.614-1.092,3.396C599.983,473.41,599.115,473.8,598.03,473.8 M601.725,450.084v11.759
		c-0.583-1.165-1.377-2.079-2.383-2.74c-1.008-0.662-2.212-0.993-3.615-0.993c-2.569,0-4.582,0.913-6.039,2.74
		c-1.456,1.827-2.184,4.384-2.184,7.667c0,3.231,0.721,5.747,2.164,7.548c1.443,1.802,3.449,2.701,6.019,2.701
		c1.483,0,2.787-0.37,3.913-1.112c1.125-0.741,1.979-1.762,2.562-3.059l0.239,3.773h6.078v-28.284H601.725z M562.277,458.109
		c-1.456,0-2.774,0.344-3.952,1.031c-1.179,0.689-2.086,1.683-2.722,2.98c-0.476-1.298-1.264-2.291-2.363-2.98
		c-1.099-0.688-2.404-1.031-3.913-1.031c-1.536,0-2.874,0.356-4.012,1.071c-1.139,0.716-2.026,1.763-2.662,3.139l-0.199-3.813
		h-6.038v19.862h6.753v-10.487c0-1.536,0.331-2.688,0.994-3.456c0.661-0.768,1.495-1.151,2.502-1.151
		c1.801,0,2.702,1.139,2.702,3.416v11.679h6.753v-10.606c0-1.456,0.318-2.568,0.953-3.337c0.636-0.768,1.483-1.151,2.543-1.151
		c1.8,0,2.701,1.139,2.701,3.416v11.679h6.753V465.14c0-2.251-0.629-3.985-1.887-5.203
		C565.925,458.718,564.291,458.109,562.277,458.109 M521.083,462.836c2.118,0,3.337,1.298,3.654,3.894h-7.468
		C517.667,464.134,518.938,462.836,521.083,462.836 M531.055,468.159c0-3.178-0.854-5.647-2.563-7.409
		c-1.708-1.761-4.164-2.641-7.369-2.641c-3.31,0-5.866,0.899-7.667,2.7c-1.801,1.802-2.701,4.345-2.701,7.628
		s0.92,5.826,2.761,7.627c1.839,1.802,4.495,2.701,7.965,2.701c2.33,0,4.297-0.442,5.899-1.331c1.602-0.887,2.682-2.178,3.238-3.872
		l-5.482-1.748c-0.213,0.715-0.63,1.258-1.252,1.629c-0.622,0.371-1.424,0.556-2.403,0.556c-1.166,0-2.099-0.291-2.801-0.874
		c-0.702-0.583-1.159-1.496-1.37-2.741h13.545C530.987,469.801,531.055,469.06,531.055,468.159 M496.771,482.54
		c-3.681,0-5.522-0.61-5.522-1.828c0-0.476,0.232-0.828,0.695-1.052c0.463-0.227,1.238-0.338,2.324-0.338h5.443
		c0.874,0,1.496,0.104,1.867,0.317c0.37,0.211,0.556,0.529,0.556,0.953c0,0.582-0.457,1.054-1.371,1.41
		C499.851,482.361,498.52,482.54,496.771,482.54 M496.454,461.962c0.874,0,1.582,0.266,2.125,0.794
		c0.543,0.53,0.815,1.232,0.815,2.106s-0.272,1.568-0.815,2.085s-1.251,0.774-2.125,0.774c-0.875,0-1.583-0.258-2.125-0.774
		c-0.543-0.517-0.815-1.211-0.815-2.085s0.272-1.576,0.815-2.106C494.871,462.228,495.579,461.962,496.454,461.962 M500.228,473.959
		h-6.753c-1.378,0-2.066-0.45-2.066-1.351c0-0.716,0.41-1.179,1.232-1.391c1.112,0.238,2.383,0.357,3.813,0.357
		c3.072,0,5.456-0.582,7.151-1.747c1.694-1.166,2.542-2.821,2.542-4.966c0-2.489-1.112-4.317-3.337-5.482
		c0.265-0.556,0.695-0.993,1.291-1.311c0.596-0.318,1.344-0.478,2.245-0.478c0.211,0,0.582,0.027,1.112,0.08l-0.755-4.489
		l-0.635-0.04c-1.643,0-2.927,0.504-3.854,1.51c-0.927,1.007-1.523,2.304-1.787,3.893c-1.219-0.291-2.543-0.436-3.973-0.436
		c-3.072,0-5.456,0.589-7.15,1.767c-1.696,1.179-2.543,2.841-2.543,4.986c0,2.463,1.086,4.276,3.258,5.441
		c-1.007,0.346-1.802,0.874-2.384,1.589c-0.583,0.716-0.874,1.536-0.874,2.464c0,1.881,1.019,3.258,3.059,4.132
		c-1.245,0.291-2.172,0.767-2.781,1.43c-0.609,0.661-0.913,1.43-0.913,2.304c0,1.483,0.827,2.636,2.482,3.456
		c1.655,0.821,4.217,1.231,7.687,1.231c3.443,0,6.164-0.603,8.164-1.807c1.999-1.205,2.999-2.935,2.999-5.185
		c0-1.96-0.629-3.443-1.887-4.449C504.312,474.462,502.531,473.959,500.228,473.959 M470.235,474.396
		c-0.609,0-1.086-0.146-1.43-0.438c-0.345-0.291-0.516-0.715-0.516-1.271c0-0.557,0.178-0.987,0.536-1.291
		c0.357-0.305,0.959-0.563,1.807-0.775l3.218-0.755v1.708c0,0.848-0.371,1.53-1.112,2.046
		C471.997,474.138,471.163,474.396,470.235,474.396 M481.955,474.515c-0.953,0-1.43-0.516-1.43-1.549v-7.229
		c0-2.543-0.808-4.449-2.423-5.722c-1.616-1.271-3.973-1.905-7.071-1.905c-2.649,0-4.754,0.536-6.317,1.607
		c-1.563,1.073-2.516,2.576-2.86,4.509l5.482,1.59c0.185-1.085,0.596-1.867,1.232-2.345c0.635-0.476,1.456-0.715,2.463-0.715
		c0.874,0,1.562,0.266,2.065,0.795c0.503,0.53,0.755,1.245,0.755,2.146v0.715l-4.489,0.874c-2.755,0.556-4.734,1.357-5.939,2.403
		c-1.205,1.047-1.807,2.418-1.807,4.111c0,1.616,0.529,2.848,1.589,3.695c1.059,0.847,2.582,1.271,4.568,1.271
		c3.522,0,5.879-1.019,7.071-3.059c0.556,2.04,2.265,3.059,5.125,3.059c1.033,0,1.933-0.213,2.701-0.636l0.517-3.773
		C482.869,474.462,482.458,474.515,481.955,474.515 M457.326,473.085c-0.822,0.583-1.775,0.874-2.861,0.874
		c-1.748,0-2.622-0.887-2.622-2.662v-7.983h5.959v-4.808h-5.959v-6.316l-6.753,1.867v4.449h-3.416v4.808h3.416v9.097
		c0.026,2.224,0.662,3.84,1.907,4.846c1.245,1.007,3.045,1.51,5.403,1.51c1.032,0,2.059-0.139,3.078-0.417
		c1.02-0.277,1.861-0.642,2.523-1.093L457.326,473.085z M429.041,478.766c3.072,0,5.416-0.602,7.032-1.808
		c1.615-1.205,2.423-2.774,2.423-4.707c0-1.721-0.642-3.079-1.927-4.072c-1.284-0.992-3.383-1.74-6.296-2.245
		c-1.351-0.264-2.298-0.535-2.84-0.813c-0.543-0.278-0.815-0.616-0.815-1.013c0-0.424,0.265-0.781,0.795-1.073
		c0.529-0.291,1.271-0.438,2.224-0.438c1.218,0,2.265,0.213,3.139,0.637s1.628,1.099,2.264,2.025l3.496-3.416
		c-0.901-1.245-2.073-2.178-3.516-2.801c-1.444-0.622-3.304-0.933-5.581-0.933c-2.066,0-3.821,0.311-5.264,0.933
		c-1.444,0.623-2.522,1.438-3.237,2.443c-0.716,1.007-1.073,2.08-1.073,3.218c0,1.668,0.629,3.006,1.887,4.012
		c1.257,1.007,3.37,1.802,6.336,2.384c1.324,0.266,2.258,0.536,2.801,0.814c0.542,0.278,0.814,0.603,0.814,0.973
		c0,0.424-0.265,0.763-0.794,1.014c-0.53,0.252-1.259,0.378-2.185,0.378c-2.781,0-4.741-0.94-5.88-2.821l-3.496,3.814
		C421.254,477.601,424.485,478.766,429.041,478.766 M414.422,458.506h-6.753v19.863h6.753V458.506z M411.045,456.202
		c1.377,0,2.377-0.259,3-0.775c0.622-0.516,0.933-1.331,0.933-2.442c0-1.139-0.311-1.967-0.933-2.483
		c-0.623-0.516-1.623-0.775-3-0.775s-2.377,0.26-2.999,0.775c-0.622,0.517-0.933,1.345-0.933,2.483c0,1.111,0.311,1.927,0.933,2.442
		C408.668,455.943,409.668,456.202,411.045,456.202 M389.476,473.085V452.15h-6.833v26.218h19.982v-5.283H389.476z"/>
	<path clip-path="url(#SVGID_2_)" fill="#231F20" d="M223.152,484.816h49.652v52.489h-49.652V484.816z M56.23,299.922v-24.116
		c0-23.171,3.31-45.868,13.24-62.419c9.931-16.551,26.954-27.428,54.854-27.428c26.008,0,43.504,9.932,53.907,25.063
		c10.404,15.604,14.187,37.356,14.187,61.474c0,35.465-13.241,77.552-29.791,116.8c-17.024,39.722-36.885,75.187-50.125,97.411
		h80.861v50.599H54.811v-50.599c15.605-24.115,29.791-48.706,42.559-73.295c10.876-20.807,21.279-44.449,29.318-68.566
		s14.186-47.76,14.659-69.04c0-9.457-0.473-20.333-2.837-28.372c-2.364-8.039-6.62-14.186-14.186-14.186
		c-7.093,0-11.349,5.2-13.714,12.767c-2.364,8.039-3.31,18.442-3.31,29.791v24.116H56.23z"/>
	<path clip-path="url(#SVGID_2_)" fill="#231F20" d="M915.611,60.555c7.048,0,13.46,0.752,19.236,2.249
		c5.771,1.501,10.834,4.162,15.186,7.987c4.348,3.824,8.098,9.111,11.248,15.861c3.15,6.748,5.737,15.375,7.762,25.871
		c2.025,10.502,3.522,23.1,4.5,37.797c0.975,14.701,1.462,32.024,1.462,51.971c0,19.949-0.487,37.311-1.462,52.082
		c-0.978,14.775-2.475,27.412-4.5,37.908c-2.024,10.5-4.611,19.089-7.762,25.761c-3.15,6.675-6.9,11.962-11.248,15.861
		c-4.352,3.901-9.414,6.562-15.186,7.985c-5.776,1.428-12.188,2.138-19.236,2.138V60.555z M721.005,361.8h250.85
		c23.848,0,45.369-3.561,64.568-10.686c19.198-7.122,35.547-17.472,49.045-31.048c13.499-13.572,23.884-30.26,31.16-50.058
		c7.273-19.798,10.911-42.37,10.911-67.718c0-25.198-3.638-47.657-10.911-67.381c-7.276-19.721-17.661-36.408-31.16-50.059
		c-13.498-13.646-29.848-24.033-49.045-31.158c-19.199-7.123-40.72-10.688-64.568-10.688h-250.85v17.549h39.371v283.472h-39.371
		V361.8z"/>
	<polygon clip-path="url(#SVGID_2_)" fill="none" stroke="#231F20" stroke-width="1.998" points="0.999,3.001 0.999,571.89 
		0.999,573.892 3,573.892 1167.087,573.892 1169.088,573.892 1169.088,571.89 1169.088,3.001 1169.088,0.999 1167.087,0.999 
		3,0.999 0.999,0.999 	"/>
</g>
<rect x="5.001" y="5.002" fill="none" stroke="#231F20" stroke-width="1.998" width="1160.085" height="564.886"/>
<line fill="none" stroke="#231F20" stroke-width="2" x1="677.637" y1="26.288" x2="677.637" y2="386.305"/>
<line fill="none" stroke="#231F20" stroke-width="2" x1="322.096" y1="178.297" x2="322.096" y2="548.306"/>
</svg>
