<?xml version="1.0" encoding="utf-8"?>
<!-- Generator: Adobe Illustrator 16.0.0, SVG Export Plug-In . SVG Version: 6.00 Build 0)  -->
<!DOCTYPE svg PUBLIC "-//W3C//DTD SVG 1.1//EN" "http://www.w3.org/Graphics/SVG/1.1/DTD/svg11.dtd">
<svg version="1.1" id="Layer_1" xmlns="http://www.w3.org/2000/svg" xmlns:xlink="http://www.w3.org/1999/xlink" x="0px" y="0px"
	 width="564px" height="1002px" viewBox="0 0 564 1002" enable-background="new 0 0 564 1002" xml:space="preserve">
<g>
	<defs>
		<rect id="SVGID_157_" width="564" height="1002"/>
	</defs>
	<clipPath id="SVGID_2_">
		<use xlink:href="#SVGID_157_"  overflow="visible"/>
	</clipPath>
	<path clip-path="url(#SVGID_2_)" fill="#0046F9" d="M511.062,78.529h11.22v-3.06c0-2.437-0.468-4.761-1.402-6.97
		c-0.936-2.211-2.324-4.166-4.166-5.865c-1.842-1.7-4.121-3.045-6.842-4.038c-2.72-0.99-5.837-1.487-9.35-1.487
		c-3.117,0-5.938,0.426-8.458,1.275c-2.522,0.85-4.675,2.04-6.46,3.57c-1.785,1.529-3.174,3.33-4.165,5.396
		c-0.992,2.07-1.487,4.322-1.487,6.758v0.51c0,2.947,0.51,5.44,1.53,7.48s2.45,3.74,4.292,5.1c1.841,1.36,4.008,2.453,6.503,3.272
		c2.493,0.823,5.24,1.487,8.245,1.998c2.265,0.397,4.135,0.879,5.609,1.444c1.474,0.567,2.636,1.205,3.485,1.912
		c0.851,0.711,1.445,1.504,1.785,2.381c0.34,0.88,0.51,1.8,0.51,2.763c0,2.04-0.821,3.797-2.465,5.271
		c-1.646,1.474-4.165,2.209-7.565,2.209c-4.364,0-7.58-1.062-9.647-3.187c-2.069-2.125-3.103-4.974-3.103-8.543v-2.04h-11.22v2.55
		c0,3.117,0.511,5.992,1.53,8.627c1.02,2.636,2.52,4.931,4.505,6.886c1.983,1.955,4.462,3.484,7.437,4.59
		c2.976,1.105,6.418,1.658,10.328,1.658c3.344,0,6.346-0.426,9.01-1.275s4.931-2.068,6.801-3.655c1.87-1.586,3.3-3.498,4.292-5.737
		c0.991-2.238,1.487-4.746,1.487-7.522v-1.021c0-5.213-1.645-9.15-4.93-11.814c-3.287-2.663-8.047-4.561-14.279-5.695
		c-2.496-0.453-4.549-0.936-6.164-1.445c-1.614-0.51-2.918-1.09-3.909-1.742c-0.992-0.65-1.687-1.387-2.082-2.209
		c-0.397-0.821-0.595-1.743-0.595-2.764c0-1.982,0.819-3.555,2.465-4.717c1.643-1.161,3.88-1.743,6.715-1.743
		c3.343,0,5.936,0.88,7.777,2.636c1.84,1.756,2.763,3.824,2.763,6.205V78.529z M427.251,117.8h38.589v-10.71h-27.37V93.32h25.33
		V82.609h-25.33v-13.6h26.35V58.3h-37.57V117.8z M392.826,58.3h-21.93v59.5h11.22V63.91h1.53l6.97,53.89h21.93V58.3h-11.22v53.89
		h-1.53L392.826,58.3z M332.051,107.812c-1.359-0.65-2.464-1.572-3.314-2.763s-1.445-2.606-1.785-4.25
		c-0.34-1.644-0.51-3.456-0.51-5.44V80.74c0-1.871,0.198-3.627,0.595-5.271c0.396-1.644,1.021-3.06,1.87-4.25
		c0.85-1.19,1.955-2.138,3.315-2.847c1.36-0.709,3.003-1.063,4.93-1.063c1.926,0,3.57,0.354,4.93,1.063
		c1.36,0.709,2.465,1.656,3.315,2.847c0.85,1.19,1.473,2.606,1.87,4.25c0.396,1.644,0.595,3.399,0.595,5.271v14.619
		c0,1.984-0.17,3.797-0.51,5.44c-0.34,1.644-0.936,3.06-1.785,4.25c-0.85,1.19-1.955,2.112-3.315,2.763
		c-1.36,0.652-3.06,0.977-5.1,0.977S333.411,108.465,332.051,107.812 M315.221,94.68c0,7.934,1.94,13.969,5.822,18.105
		c3.881,4.137,9.251,6.205,16.108,6.205c6.855,0,12.225-2.068,16.107-6.205c3.881-4.137,5.823-10.172,5.823-18.105V81.42
		c0-7.706-1.942-13.686-5.823-17.936c-3.882-4.25-9.251-6.375-16.107-6.375c-6.857,0-12.227,2.125-16.108,6.375
		c-3.882,4.25-5.822,10.229-5.822,17.936V94.68z M262.691,69.01h14.28v38.08h-14.28v10.71h39.78v-10.71h-14.28V69.01h14.28V58.3
		h-39.78V69.01z M223.124,107.812c-1.389-0.65-2.507-1.572-3.357-2.763c-0.851-1.19-1.475-2.593-1.87-4.208
		c-0.397-1.615-0.596-3.385-0.596-5.312V80.57c0-1.757,0.212-3.443,0.638-5.058c0.425-1.616,1.091-3.031,1.998-4.25
		c0.906-1.218,2.04-2.181,3.4-2.89s2.975-1.063,4.845-1.063c2.04,0,3.74,0.354,5.1,1.063c1.36,0.709,2.436,1.629,3.23,2.762
		c0.793,1.134,1.36,2.408,1.7,3.824c0.339,1.418,0.51,2.834,0.51,4.25v1.531h11.22v-1.531c0-3.399-0.468-6.459-1.403-9.18
		c-0.935-2.72-2.324-5.043-4.165-6.97c-1.842-1.926-4.122-3.399-6.842-4.42c-2.72-1.021-5.837-1.53-9.35-1.53
		c-3.4,0-6.46,0.553-9.18,1.658c-2.72,1.105-5.044,2.691-6.97,4.76c-1.927,2.069-3.4,4.619-4.42,7.65
		c-1.021,3.031-1.53,6.445-1.53,10.242v13.26c0,7.934,1.983,13.969,5.95,18.105c3.966,4.137,9.35,6.205,16.15,6.205
		c7.083,0,12.48-1.914,16.192-5.738c3.71-3.824,5.568-9.278,5.568-16.362v-1.53h-11.22v1.53c0,1.53-0.142,3.017-0.425,4.462
		c-0.284,1.445-0.808,2.721-1.573,3.826c-0.766,1.104-1.843,1.984-3.23,2.635c-1.389,0.652-3.159,0.977-5.312,0.977
		C226.197,108.789,224.511,108.465,223.124,107.812 M153.551,69.01h14.281v38.08h-14.281v10.71h39.781v-10.71h-14.281V69.01h14.281
		V58.3h-39.781V69.01z M113.602,107.09V69.01h4.76c3.91,0,6.643,0.879,8.202,2.635c1.558,1.758,2.338,4.335,2.338,7.735v16.319
		c0,3.91-0.78,6.787-2.338,8.627c-1.559,1.844-4.292,2.764-8.202,2.764H113.602z M96.771,69.01h5.609v37.995h-5.609V117.8h21.59
		c7.366,0,12.835-1.713,16.405-5.144c3.57-3.427,5.355-8.74,5.355-15.937V79.38c0-7.196-1.785-12.509-5.355-15.938
		c-3.57-3.428-9.039-5.143-16.405-5.143h-21.59V69.01z M45.261,117.8h38.59v-10.71h-27.37V93.32h25.33V82.609h-25.33v-13.6h26.35
		V58.3h-37.57V117.8z"/>
	<path clip-path="url(#SVGID_2_)" fill="#231F20" d="M269.521,262.557c0-0.533,0-1.189-0.164-1.723
		c-0.205-0.492-0.533-0.902-1.189-0.902c-0.533,0-0.861,0.41-1.025,0.902c-0.205,0.492-0.246,1.189-0.246,1.723
		c0,0.696,0.369,1.435,0.902,2.09c0.492,0.656,1.148,1.312,1.804,1.928c0.861,0.861,1.886,1.845,2.583,2.951
		c0.697,1.148,1.229,2.42,1.229,3.896c0,1.435-0.327,2.952-1.147,4.101c-0.861,1.188-2.173,2.049-4.141,2.049
		c-2.502,0-3.978-1.147-4.797-2.541c-0.82-1.395-0.984-3.116-0.984-4.305h3.854c0,0.614,0.041,1.476,0.328,2.131
		c0.287,0.697,0.738,1.271,1.599,1.271c1.188,0,1.435-1.395,1.435-2.706c0-1.353-1.312-2.706-2.583-3.978
		c-0.984-0.942-1.927-1.803-2.665-2.91c-0.738-1.107-1.271-2.338-1.271-3.977c0-1.312,0.246-2.83,1.024-4.019
		c0.779-1.147,2.05-2.009,4.019-2.05c2.419-0.041,3.771,0.861,4.469,2.05s0.82,2.747,0.82,4.019H269.521z M253.737,265.549h2.993
		v-3.156c0-0.861-0.164-1.477-0.574-1.969c-0.205-0.205-0.533-0.328-0.902-0.328c-0.779,0-1.107,0.533-1.312,1.148
		c-0.124,0.328-0.164,0.697-0.205,1.148V265.549z M260.583,271.207v2.583c-0.123,2.173-0.779,3.69-2.255,4.879
		c-0.738,0.615-1.763,0.901-3.116,0.901c-2.665,0-4.018-1.475-4.674-2.951c-0.369-0.861-0.615-1.846-0.656-2.952v-11.274
		c0.123-2.174,0.82-3.772,2.296-5.002c0.697-0.615,1.722-0.902,3.075-0.902c2.665,0,4.018,1.476,4.674,2.91
		c0.369,0.861,0.614,1.805,0.656,2.871v6.519h-6.847v4.879c0.041,0.86,0.287,1.476,0.656,1.927c0.205,0.205,0.492,0.328,0.861,0.328
		c0.779,0,1.148-0.492,1.312-1.107c0.123-0.328,0.164-0.696,0.164-1.147v-2.46H260.583z M240.535,279.243h-4.141v-22.427h4.141
		v1.886c0.082-0.041,0.246-0.205,0.492-0.451c0.451-0.451,1.066-1.065,1.804-1.476c0.369-0.205,0.697-0.287,1.066-0.287
		c1.107,0,1.886,0.656,2.378,1.476c0.492,0.861,0.738,1.968,0.738,2.911v18.368h-4.141V261.49c0-0.861-0.492-0.984-0.984-0.984
		c-0.451,0-0.697,0.246-0.984,0.533c-0.123,0.164-0.247,0.328-0.369,0.533V279.243z M229.67,262.393
		c0.041-0.861-0.123-1.477-0.533-1.969c-0.205-0.205-0.533-0.328-0.902-0.328c-0.779,0-1.106,0.533-1.271,1.148
		c-0.123,0.328-0.164,0.697-0.123,1.148v11.274c-0.041,0.86,0.164,1.476,0.533,1.927c0.205,0.205,0.492,0.328,0.861,0.328
		c0.779,0,1.148-0.492,1.312-1.107c0.123-0.328,0.164-0.696,0.123-1.147V262.393z M233.564,273.79
		c-0.123,2.173-0.779,3.69-2.214,4.879c-0.738,0.615-1.763,0.901-3.116,0.901c-2.665,0-3.977-1.475-4.633-2.951
		c-0.369-0.861-0.615-1.846-0.656-2.952v-11.274c0.123-2.174,0.779-3.772,2.213-5.002c0.697-0.615,1.723-0.902,3.075-0.902
		c2.666,0,4.019,1.476,4.674,2.91c0.369,0.861,0.615,1.805,0.656,2.871V273.79z M215.976,256.816h4.141v22.427h-4.141V256.816z
		 M215.976,249.107h4.141v4.142h-4.141V249.107z M206.956,274.077c0,0.819,0.042,1.804,1.148,1.804c0.943,0,1.189-0.451,1.189-1.804
		v-3.116h4.141v2.173c0,2.501-0.451,4.101-1.353,5.084c-0.902,0.984-2.214,1.353-3.977,1.353c-1.476,0-2.829-0.409-3.772-1.435
		c-0.942-1.024-1.516-2.706-1.516-5.206v-9.8c0-2.501,0.574-4.182,1.516-5.207c0.944-1.024,2.297-1.435,3.772-1.435
		c1.763,0,3.075,0.369,3.977,1.353c0.902,0.984,1.353,2.583,1.353,5.084v1.763h-4.141v-2.705c0-1.354-0.246-1.805-1.189-1.805
		c-1.107,0-1.148,0.984-1.148,1.805V274.077z M193.55,274.323c0,0.655,0.615,1.353,1.23,1.353c0.615,0,1.107-0.574,1.107-1.353
		v-12.587c0-0.779-0.492-1.354-1.107-1.354c-0.615,0-1.23,0.574-1.23,1.354V274.323z M189.409,256.816h4.141v1.476
		c0.697-0.656,1.312-1.147,2.132-1.517c0.369-0.205,0.779-0.287,1.148-0.287c1.148,0,1.927,0.656,2.46,1.476
		c0.492,0.861,0.738,1.968,0.738,2.911v14.309c0,0.943-0.247,2.051-0.738,2.871c-0.533,0.86-1.312,1.516-2.46,1.516
		c-0.779,0-1.599-0.45-2.214-0.901c-0.369-0.287-0.696-0.573-1.065-0.901v9.184h-4.141V256.816z M181.988,256.816h4.141v22.427
		h-4.141V256.816z M181.988,249.107h4.141v4.142h-4.141V249.107z M180.185,261.08c-0.369-0.123-0.779-0.164-1.148-0.164
		c-0.656,0-1.435,0.082-2.091,0.697c-0.78,0.656-0.902,1.353-0.902,2.05v15.58h-4.141v-22.427h4.141v2.5
		c0.04-0.286,0.328-0.983,0.984-1.64c0.656-0.614,1.64-1.188,3.157-1.188V261.08z M162.883,274.077c0,0.819,0.041,1.804,1.148,1.804
		c0.943,0,1.189-0.451,1.189-1.804v-3.116h4.141v2.173c0,2.501-0.452,4.101-1.353,5.084c-0.902,0.984-2.214,1.353-3.977,1.353
		c-1.476,0-2.83-0.409-3.772-1.435c-0.943-1.024-1.518-2.706-1.518-5.206v-9.8c0-2.501,0.575-4.182,1.518-5.207
		c0.942-1.024,2.296-1.435,3.772-1.435c1.763,0,3.075,0.369,3.977,1.353c0.901,0.984,1.353,2.583,1.353,5.084v1.763h-4.141v-2.705
		c0-1.354-0.246-1.805-1.189-1.805c-1.107,0-1.148,0.984-1.148,1.805V274.077z M152.715,262.557c0-0.533,0-1.189-0.164-1.723
		c-0.205-0.492-0.533-0.902-1.189-0.902c-0.533,0-0.862,0.41-1.025,0.902c-0.205,0.492-0.246,1.189-0.246,1.723
		c0,0.696,0.369,1.435,0.902,2.09c0.492,0.656,1.148,1.312,1.804,1.928c0.86,0.861,1.886,1.845,2.583,2.951
		c0.697,1.148,1.23,2.42,1.23,3.896c0,1.435-0.329,2.952-1.148,4.101c-0.861,1.188-2.173,2.049-4.141,2.049
		c-2.501,0-3.977-1.147-4.797-2.541c-0.82-1.395-0.984-3.116-0.984-4.305h3.854c0,0.614,0.041,1.476,0.328,2.131
		c0.287,0.697,0.738,1.271,1.599,1.271c1.189,0,1.435-1.395,1.435-2.706c0-1.353-1.312-2.706-2.583-3.978
		c-0.984-0.942-1.927-1.803-2.665-2.91c-0.738-1.107-1.271-2.338-1.271-3.977c0-1.312,0.246-2.83,1.025-4.019
		c0.778-1.147,2.05-2.009,4.018-2.05c2.419-0.041,3.772,0.861,4.468,2.05c0.698,1.188,0.82,2.747,0.82,4.019H152.715z
		 M136.971,279.243h-4.141v-22.427h4.141v1.886c0.082-0.041,0.246-0.205,0.492-0.451c0.451-0.451,1.066-1.065,1.804-1.476
		c0.369-0.205,0.697-0.287,1.065-0.287c1.107,0,1.887,0.656,2.379,1.476c0.492,0.861,0.738,1.968,0.738,2.911v18.368h-4.141V261.49
		c0-0.861-0.492-0.984-0.984-0.984c-0.451,0-0.697,0.246-0.983,0.533c-0.123,0.164-0.246,0.328-0.369,0.533V279.243z
		 M125.982,268.419c-2.009,0.861-2.87,2.87-2.87,5.002c0,0.287,0.041,0.779,0.205,1.229c0.164,0.492,0.451,0.861,0.943,0.861
		c0.943,0,1.722-0.574,1.722-1.353V268.419z M125.982,262.146c0-0.369,0-0.943-0.123-1.354c-0.164-0.41-0.493-0.697-1.026-0.697
		c-0.696,0-0.983,0.533-1.106,1.189c-0.041,0.328-0.082,0.697-0.082,1.066v1.065h-4.141v-0.942c0-1.641,0.615-3.117,1.599-4.224
		c0.984-1.106,2.378-1.763,3.977-1.763c1.353,0,2.583,0.533,3.526,1.435c0.943,0.902,1.517,2.173,1.517,3.649v13.775
		c0,2.01,0.123,2.911,0.287,3.896h-4.059c-0.369-0.451-0.369-1.517-0.369-1.804h-0.287c-0.205,0.369-0.574,0.901-1.148,1.353
		c-0.574,0.451-1.353,0.778-2.174,0.778c-0.532,0-1.394-0.204-2.049-1.024c-0.697-0.778-1.271-2.173-1.271-4.51
		c0-2.501,0.738-4.306,1.722-5.535c0.984-1.229,2.213-2.009,3.239-2.542c1.025-0.533,1.804-0.902,1.968-1.354V262.146z
		 M118.234,261.08c-0.369-0.123-0.779-0.164-1.148-0.164c-0.656,0-1.436,0.082-2.091,0.697c-0.779,0.656-0.902,1.353-0.902,2.05
		v15.58h-4.142v-22.427h4.142v2.5c0.041-0.286,0.328-0.983,0.984-1.64c0.656-0.614,1.64-1.188,3.157-1.188V261.08z M104.909,251.281
		v5.535h2.83v3.73h-2.83v11.152c0,0.697,0,1.599,0.164,2.337c0.165,0.737,0.493,1.353,1.148,1.353c0.328,0,0.738-0.041,1.025-0.082
		c0.164-0.041,0.328-0.041,0.492-0.082v4.06c-0.206,0.041-0.41,0.123-0.615,0.164c-0.41,0.082-0.943,0.122-1.599,0.122
		c-2.419,0-3.567-1.229-4.141-2.787c-0.574-1.559-0.615-3.444-0.615-4.756v-11.48h-2.091v-3.73h2.091v-5.535H104.909z
		 M87.239,262.557c0-0.533,0-1.189-0.164-1.723c-0.205-0.492-0.533-0.902-1.189-0.902c-0.533,0-0.861,0.41-1.025,0.902
		c-0.205,0.492-0.246,1.189-0.246,1.723c0,0.696,0.369,1.435,0.902,2.09c0.492,0.656,1.148,1.312,1.804,1.928
		c0.861,0.861,1.885,1.845,2.583,2.951c0.697,1.148,1.23,2.42,1.23,3.896c0,1.435-0.328,2.952-1.148,4.101
		c-0.862,1.188-2.173,2.049-4.141,2.049c-2.501,0-3.978-1.147-4.797-2.541c-0.82-1.395-0.984-3.116-0.984-4.305h3.854
		c0,0.614,0.041,1.476,0.328,2.131c0.287,0.697,0.738,1.271,1.599,1.271c1.188,0,1.435-1.395,1.435-2.706
		c0-1.353-1.312-2.706-2.583-3.978c-0.984-0.942-1.927-1.803-2.666-2.91c-0.737-1.107-1.271-2.338-1.271-3.977
		c0-1.312,0.246-2.83,1.024-4.019c0.779-1.147,2.051-2.009,4.019-2.05c2.419-0.041,3.771,0.861,4.469,2.05s0.82,2.747,0.82,4.019
		H87.239z M74.159,268.419c-2.009,0.861-2.87,2.87-2.87,5.002c0,0.287,0.041,0.779,0.205,1.229c0.164,0.492,0.451,0.861,0.943,0.861
		c0.943,0,1.722-0.574,1.722-1.353V268.419z M74.159,262.146c0-0.369,0-0.943-0.123-1.354c-0.164-0.41-0.492-0.697-1.025-0.697
		c-0.697,0-0.984,0.533-1.107,1.189c-0.041,0.328-0.082,0.697-0.082,1.066v1.065h-4.141v-0.942c0-1.641,0.615-3.117,1.599-4.224
		s2.378-1.763,3.977-1.763c1.353,0,2.583,0.533,3.525,1.435c0.943,0.902,1.518,2.173,1.518,3.649v13.775
		c0,2.01,0.123,2.911,0.287,3.896h-4.059c-0.37-0.451-0.37-1.517-0.37-1.804h-0.287c-0.205,0.369-0.574,0.901-1.148,1.353
		s-1.353,0.778-2.173,0.778c-0.533,0-1.395-0.204-2.05-1.024c-0.697-0.778-1.271-2.173-1.271-4.51c0-2.501,0.738-4.306,1.722-5.535
		s2.213-2.009,3.239-2.542c1.025-0.533,1.804-0.902,1.967-1.354V262.146z M60.466,249.107h4.141v30.136h-4.141V249.107z
		 M44.477,265.549h2.993v-3.156c0-0.861-0.164-1.477-0.574-1.969c-0.205-0.205-0.533-0.328-0.902-0.328
		c-0.778,0-1.106,0.533-1.312,1.148c-0.123,0.328-0.164,0.697-0.205,1.148V265.549z M51.323,271.207v2.583
		c-0.123,2.173-0.778,3.69-2.255,4.879c-0.738,0.615-1.763,0.901-3.116,0.901c-2.665,0-4.018-1.475-4.674-2.951
		c-0.37-0.861-0.615-1.846-0.656-2.952v-11.274c0.123-2.174,0.82-3.772,2.295-5.002c0.697-0.615,1.723-0.902,3.075-0.902
		c2.666,0,4.019,1.476,4.674,2.91c0.369,0.861,0.615,1.805,0.656,2.871v6.519h-6.847v4.879c0.041,0.86,0.287,1.476,0.656,1.927
		c0.205,0.205,0.491,0.328,0.86,0.328c0.779,0,1.148-0.492,1.312-1.107c0.123-0.328,0.164-0.696,0.164-1.147v-2.46H51.323z
		 M33.53,261.736c0-0.656-0.615-1.354-1.23-1.354c-0.615,0-1.107,0.574-1.107,1.354v12.587c0,0.778,0.492,1.353,1.107,1.353
		c0.615,0,1.23-0.574,1.23-1.353V261.736z M37.671,279.243H33.53v-1.476c-0.698,0.655-1.312,1.147-2.091,1.517
		c-0.41,0.205-0.82,0.286-1.189,0.286c-1.148,0-1.927-0.655-2.419-1.516c-0.533-0.82-0.779-1.928-0.779-2.871v-14.309
		c0-0.943,0.246-2.05,0.779-2.911c0.492-0.819,1.271-1.476,2.419-1.476c0.779,0,1.599,0.451,2.214,0.902
		c0.368,0.286,0.696,0.573,1.066,0.901v-9.185h4.141V279.243z"/>
	<path clip-path="url(#SVGID_2_)" fill="#231F20" d="M523.515,228.243h-4.142v-22.427h4.142v1.886
		c0.082-0.041,0.246-0.205,0.492-0.451c0.45-0.451,1.065-1.065,1.804-1.476c0.369-0.205,0.697-0.287,1.066-0.287
		c1.106,0,1.886,0.656,2.377,1.476c0.492,0.861,0.738,1.968,0.738,2.911v18.368h-4.141V210.49c0-0.861-0.492-0.984-0.984-0.984
		c-0.451,0-0.697,0.246-0.983,0.533c-0.123,0.164-0.246,0.328-0.369,0.533V228.243z M512.649,211.393
		c0.041-0.861-0.123-1.477-0.532-1.969c-0.205-0.205-0.533-0.328-0.902-0.328c-0.779,0-1.107,0.533-1.271,1.148
		c-0.123,0.328-0.164,0.697-0.123,1.148v11.274c-0.041,0.86,0.164,1.476,0.533,1.927c0.205,0.205,0.492,0.328,0.861,0.328
		c0.779,0,1.147-0.492,1.312-1.107c0.123-0.328,0.164-0.696,0.123-1.147V211.393z M516.545,222.79
		c-0.123,2.173-0.779,3.69-2.215,4.879c-0.737,0.615-1.763,0.901-3.115,0.901c-2.665,0-3.977-1.476-4.633-2.951
		c-0.369-0.861-0.615-1.846-0.656-2.952v-11.274c0.123-2.174,0.779-3.772,2.214-5.002c0.696-0.615,1.722-0.902,3.075-0.902
		c2.664,0,4.018,1.476,4.674,2.91c0.369,0.861,0.615,1.805,0.656,2.871V222.79z M516.299,198.436l-3.239,3.69h-3.198l2.133-3.69
		H516.299z M498.955,205.816h4.142v22.427h-4.142V205.816z M498.955,198.107h4.142v4.142h-4.142V198.107z M489.936,223.077
		c0,0.819,0.041,1.804,1.148,1.804c0.942,0,1.188-0.451,1.188-1.804v-3.116h4.142v2.173c0,2.501-0.451,4.101-1.354,5.084
		c-0.902,0.984-2.214,1.353-3.977,1.353c-1.477,0-2.83-0.409-3.772-1.435c-0.942-1.024-1.517-2.706-1.517-5.206v-9.8
		c0-2.501,0.574-4.182,1.517-5.207c0.942-1.024,2.296-1.435,3.772-1.435c1.763,0,3.074,0.369,3.977,1.353
		c0.902,0.984,1.354,2.583,1.354,5.084v1.763h-4.142v-2.705c0-1.354-0.246-1.805-1.188-1.805c-1.107,0-1.148,0.984-1.148,1.805
		V223.077z M479.152,217.419c-2.009,0.861-2.869,2.87-2.869,5.002c0,0.287,0.041,0.779,0.205,1.229
		c0.163,0.492,0.45,0.861,0.942,0.861c0.942,0,1.722-0.574,1.722-1.353V217.419z M479.152,211.146c0-0.369,0-0.943-0.123-1.354
		c-0.164-0.41-0.492-0.697-1.025-0.697c-0.696,0-0.983,0.533-1.106,1.189c-0.041,0.328-0.082,0.697-0.082,1.066v1.065h-4.141v-0.942
		c0-1.641,0.614-3.117,1.599-4.224s2.378-1.763,3.977-1.763c1.354,0,2.584,0.533,3.526,1.435c0.943,0.902,1.517,2.173,1.517,3.649
		v13.775c0,2.01,0.123,2.911,0.287,3.896h-4.059c-0.369-0.451-0.369-1.517-0.369-1.804h-0.287c-0.205,0.369-0.574,0.901-1.147,1.353
		c-0.574,0.451-1.353,0.778-2.173,0.778c-0.533,0-1.395-0.204-2.051-1.024c-0.697-0.778-1.271-2.173-1.271-4.51
		c0-2.501,0.737-4.306,1.722-5.535s2.215-2.009,3.239-2.542s1.804-0.902,1.968-1.354V211.146z M471.404,210.08
		c-0.369-0.123-0.779-0.164-1.147-0.164c-0.656,0-1.436,0.082-2.091,0.697c-0.779,0.656-0.902,1.353-0.902,2.05v15.58h-4.142
		v-22.427h4.142v2.5c0.041-0.286,0.328-0.983,0.984-1.64c0.656-0.614,1.64-1.188,3.157-1.188V210.08z M456.274,217.419
		c-2.009,0.861-2.87,2.87-2.87,5.002c0,0.287,0.041,0.779,0.205,1.229c0.164,0.492,0.451,0.861,0.943,0.861
		c0.943,0,1.722-0.574,1.722-1.353V217.419z M456.274,211.146c0-0.369,0-0.943-0.123-1.354c-0.164-0.41-0.492-0.697-1.025-0.697
		c-0.696,0-0.983,0.533-1.106,1.189c-0.041,0.328-0.082,0.697-0.082,1.066v1.065h-4.141v-0.942c0-1.641,0.615-3.117,1.599-4.224
		c0.983-1.106,2.378-1.763,3.978-1.763c1.353,0,2.583,0.533,3.525,1.435c0.943,0.902,1.517,2.173,1.517,3.649v13.775
		c0,2.01,0.123,2.911,0.287,3.896h-4.059c-0.369-0.451-0.369-1.517-0.369-1.804h-0.287c-0.205,0.369-0.574,0.901-1.148,1.353
		c-0.574,0.451-1.354,0.778-2.174,0.778c-0.532,0-1.394-0.204-2.049-1.024c-0.698-0.778-1.271-2.173-1.271-4.51
		c0-2.501,0.738-4.306,1.722-5.535c0.984-1.229,2.214-2.009,3.239-2.542c1.025-0.533,1.804-0.902,1.968-1.354V211.146z
		 M440.653,223.323c0,0.655,0.615,1.353,1.23,1.353c0.614,0,1.107-0.574,1.107-1.353v-12.587c0-0.779-0.493-1.354-1.107-1.354
		c-0.615,0-1.23,0.574-1.23,1.354V223.323z M436.513,205.816h4.141v1.476c0.697-0.656,1.312-1.147,2.132-1.517
		c0.37-0.205,0.779-0.287,1.148-0.287c1.148,0,1.927,0.656,2.46,1.476c0.492,0.861,0.738,1.968,0.738,2.911v14.309
		c0,0.943-0.246,2.051-0.738,2.871c-0.533,0.86-1.312,1.516-2.46,1.516c-0.779,0-1.6-0.45-2.214-0.901
		c-0.369-0.287-0.697-0.574-1.066-0.901v9.184h-4.141V205.816z M426.755,228.243h-3.895V210.49c0-0.861-0.656-0.984-1.107-0.984
		c-0.451,0-0.82,0.246-1.107,0.533c-0.164,0.164-0.328,0.328-0.451,0.533v17.671h-4.141v-22.427h4.141v1.886
		c0.082-0.041,0.246-0.205,0.492-0.451c0.451-0.451,1.147-1.065,1.886-1.476c0.369-0.205,0.697-0.287,1.066-0.287
		c1.476,0,2.337,1.188,2.788,2.501c0.164-0.123,0.369-0.328,0.656-0.615c0.533-0.574,1.23-1.106,2.009-1.558
		c0.369-0.205,0.737-0.328,1.106-0.328c1.107,0,1.886,0.656,2.378,1.476c0.492,0.861,0.738,1.968,0.738,2.911v18.368h-3.895V210.49
		c0-0.861-0.656-0.984-1.107-0.984c-0.451,0-0.82,0.246-1.107,0.533c-0.164,0.164-0.328,0.328-0.451,0.533V228.243z M409.33,211.393
		c0.042-0.861-0.123-1.477-0.532-1.969c-0.205-0.205-0.533-0.328-0.902-0.328c-0.779,0-1.106,0.533-1.271,1.148
		c-0.123,0.328-0.164,0.697-0.123,1.148v11.274c-0.042,0.86,0.164,1.476,0.533,1.927c0.205,0.205,0.492,0.328,0.861,0.328
		c0.779,0,1.148-0.492,1.312-1.107c0.123-0.328,0.164-0.696,0.123-1.147V211.393z M413.226,222.79
		c-0.123,2.173-0.779,3.69-2.214,4.879c-0.738,0.615-1.764,0.901-3.116,0.901c-2.665,0-3.978-1.476-4.633-2.951
		c-0.369-0.861-0.615-1.846-0.656-2.952v-11.274c0.123-2.174,0.779-3.772,2.214-5.002c0.697-0.615,1.721-0.902,3.075-0.902
		c2.665,0,4.018,1.476,4.674,2.91c0.369,0.861,0.615,1.805,0.656,2.871V222.79z M393.874,223.077c0,0.819,0.041,1.804,1.148,1.804
		c0.943,0,1.188-0.451,1.188-1.804v-3.116h4.142v2.173c0,2.501-0.451,4.101-1.354,5.084c-0.901,0.984-2.213,1.353-3.977,1.353
		c-1.476,0-2.829-0.409-3.772-1.435c-0.943-1.024-1.517-2.706-1.517-5.206v-9.8c0-2.501,0.574-4.182,1.517-5.207
		c0.943-1.024,2.296-1.435,3.772-1.435c1.763,0,3.075,0.369,3.977,1.353c0.902,0.984,1.354,2.583,1.354,5.084v1.763h-4.142v-2.705
		c0-1.354-0.245-1.805-1.188-1.805c-1.107,0-1.148,0.984-1.148,1.805V223.077z M370.054,232.507
		c0.041,0.041,0.123,0.041,0.246,0.041c0.205,0.041,1.229,0.123,1.886-0.368c0.656-0.492,1.106-1.189,1.353-2.051
		c0.124-0.41,0.164-0.82,0.164-1.23l-3.812-23.082h4.059l1.64,13.775l0.082,1.148h0.164l0.082-1.148l1.641-13.775h4.059
		l-3.977,24.107c-0.205,1.6-0.82,3.157-1.805,4.346c-0.983,1.189-2.296,2.01-3.936,2.01h-0.492c-0.369,0-0.861-0.041-1.353-0.082
		V232.507z M358.369,211.557c0-0.533,0-1.189-0.164-1.723c-0.206-0.492-0.534-0.902-1.189-0.902c-0.533,0-0.861,0.41-1.025,0.902
		c-0.206,0.492-0.246,1.189-0.246,1.723c0,0.696,0.369,1.435,0.902,2.09c0.492,0.656,1.148,1.312,1.804,1.928
		c0.861,0.861,1.886,1.845,2.583,2.951c0.697,1.148,1.23,2.42,1.23,3.896c0,1.435-0.328,2.952-1.148,4.101
		c-0.861,1.188-2.173,2.049-4.141,2.049c-2.501,0-3.977-1.147-4.797-2.541c-0.82-1.395-0.984-3.116-0.984-4.305h3.854
		c0,0.614,0.042,1.476,0.329,2.131c0.287,0.697,0.738,1.271,1.599,1.271c1.189,0,1.435-1.395,1.435-2.706
		c0-1.353-1.312-2.706-2.583-3.978c-0.984-0.942-1.927-1.803-2.665-2.91s-1.271-2.338-1.271-3.977c0-1.312,0.246-2.83,1.025-4.019
		c0.779-1.147,2.05-2.009,4.018-2.05c2.419-0.041,3.772,0.861,4.469,2.05c0.697,1.188,0.82,2.747,0.82,4.019H358.369z
		 M342.583,214.549h2.993v-3.156c0-0.861-0.164-1.477-0.575-1.969c-0.204-0.205-0.532-0.328-0.901-0.328
		c-0.779,0-1.107,0.533-1.312,1.148c-0.124,0.328-0.165,0.697-0.206,1.148V214.549z M349.431,220.207v2.583
		c-0.123,2.173-0.779,3.69-2.255,4.879c-0.738,0.615-1.763,0.901-3.116,0.901c-2.665,0-4.018-1.476-4.674-2.951
		c-0.369-0.861-0.615-1.846-0.656-2.952v-11.274c0.123-2.174,0.82-3.772,2.296-5.002c0.697-0.615,1.722-0.902,3.075-0.902
		c2.665,0,4.018,1.476,4.674,2.91c0.369,0.861,0.615,1.805,0.656,2.871v6.519h-6.847v4.879c0.041,0.86,0.287,1.476,0.656,1.927
		c0.205,0.205,0.492,0.328,0.861,0.328c0.778,0,1.147-0.492,1.312-1.107c0.123-0.328,0.164-0.696,0.164-1.147v-2.46H349.431z
		 M331.719,198.107h4.141v30.136h-4.141V198.107z M324.872,217.419c-2.009,0.861-2.87,2.87-2.87,5.002
		c0,0.287,0.041,0.779,0.205,1.229c0.164,0.492,0.451,0.861,0.943,0.861c0.943,0,1.722-0.574,1.722-1.353V217.419z M324.872,211.146
		c0-0.369,0-0.943-0.124-1.354c-0.164-0.41-0.491-0.697-1.024-0.697c-0.697,0-0.984,0.533-1.107,1.189
		c-0.042,0.328-0.082,0.697-0.082,1.066v1.065h-4.141v-0.942c0-1.641,0.615-3.117,1.599-4.224s2.377-1.763,3.977-1.763
		c1.353,0,2.583,0.533,3.526,1.435c0.943,0.902,1.517,2.173,1.517,3.649v13.775c0,2.01,0.123,2.911,0.287,3.896h-4.059
		c-0.369-0.451-0.369-1.517-0.369-1.804h-0.288c-0.205,0.369-0.573,0.901-1.147,1.353c-0.574,0.451-1.353,0.778-2.173,0.778
		c-0.533,0-1.394-0.204-2.05-1.024c-0.697-0.778-1.271-2.173-1.271-4.51c0-2.501,0.738-4.306,1.723-5.535
		c0.983-1.229,2.213-2.009,3.239-2.542c1.025-0.533,1.804-0.902,1.968-1.354V211.146z M309.168,228.243h-4.141v-22.427h4.141v1.886
		c0.082-0.041,0.246-0.205,0.493-0.451c0.451-0.451,1.066-1.065,1.804-1.476c0.369-0.205,0.697-0.287,1.066-0.287
		c1.107,0,1.885,0.656,2.378,1.476c0.492,0.861,0.738,1.968,0.738,2.911v18.368h-4.141V210.49c0-0.861-0.492-0.984-0.984-0.984
		c-0.451,0-0.697,0.246-0.984,0.533c-0.124,0.164-0.246,0.328-0.37,0.533V228.243z M297.606,205.816h4.141v22.427h-4.141V205.816z
		 M297.606,198.107h4.141v4.142h-4.141V198.107z M287.727,229.268c-0.861,0.492-1.517,1.107-1.517,1.969s0.779,1.558,2.706,1.558
		c0.697,0,1.476-0.123,2.091-0.369c0.615-0.245,1.066-0.614,1.066-1.147c0-0.369-0.042-0.656-0.328-0.943
		c-0.329-0.287-0.861-0.492-1.886-0.656L287.727,229.268z M289.653,211.352c0-0.779-0.164-1.271-0.492-1.723
		c-0.164-0.205-0.41-0.328-0.779-0.328c-0.656,0-0.984,0.533-1.108,1.025c-0.082,0.287-0.122,0.656-0.082,1.025v6.149
		c-0.04,0.779,0.082,1.271,0.452,1.681c0.164,0.205,0.41,0.328,0.738,0.328c0.697,0,0.984-0.492,1.148-0.984
		c0.082-0.286,0.123-0.655,0.123-1.024V211.352z M293.712,217.419c-0.123,2.091-0.861,3.567-2.296,4.674
		c-0.737,0.574-1.763,0.861-3.033,0.861h-0.369c-0.123,0-0.287,0-0.41-0.041c-0.369,0.328-0.574,0.655-0.574,1.024
		c0,0.492,0.409,0.779,1.025,0.943c0.615,0.205,1.353,0.328,2.132,0.451c1.312,0.164,2.706,0.492,3.854,1.271
		c1.107,0.778,1.886,1.967,1.886,3.936c0,2.173-0.942,3.648-2.255,4.51c-1.354,0.861-3.156,1.23-4.837,1.23
		c-1.968-0.041-3.649-0.328-4.797-0.984c-1.189-0.656-1.845-1.722-1.845-3.361c0-0.779,0.41-1.436,1.025-2.01
		c0.614-0.574,1.435-1.025,2.213-1.394c-1.352-0.369-2.5-1.23-2.5-2.993c0-0.656,0.369-1.312,0.86-1.928
		c0.493-0.614,1.107-1.106,1.722-1.435c-1.188-0.778-1.764-2.009-2.049-3.034c-0.164-0.615-0.287-1.229-0.328-1.845v-6.108
		c0.164-2.092,0.82-3.608,2.255-4.797c0.697-0.615,1.722-0.902,2.993-0.902c2.091,0,3.362,0.943,4.141,2.05
		c0.287-0.287,0.779-0.779,1.435-1.229c0.615-0.451,1.312-0.82,1.968-0.82v3.689c-1.106,0-1.928,0.205-2.418,0.492
		c0.041,0.205,0.082,0.41,0.123,0.533c0,0.164,0,0.328,0.041,0.451c0.042,0.123,0.042,0.287,0.042,0.41V217.419z M276.165,205.816
		h4.141v22.427h-4.141V205.816z M276.165,198.107h4.141v4.142h-4.141V198.107z M274.36,210.08c-0.369-0.123-0.779-0.164-1.148-0.164
		c-0.656,0-1.435,0.082-2.091,0.697c-0.779,0.656-0.902,1.353-0.902,2.05v15.58h-4.141v-22.427h4.141v2.5
		c0.041-0.286,0.328-0.983,0.984-1.64c0.656-0.614,1.64-1.188,3.157-1.188V210.08z M259.354,211.393
		c0.041-0.861-0.123-1.477-0.533-1.969c-0.205-0.205-0.533-0.328-0.902-0.328c-0.779,0-1.107,0.533-1.271,1.148
		c-0.123,0.328-0.164,0.697-0.123,1.148v11.274c-0.041,0.86,0.164,1.476,0.533,1.927c0.205,0.205,0.492,0.328,0.861,0.328
		c0.779,0,1.148-0.492,1.312-1.107c0.123-0.328,0.164-0.696,0.123-1.147V211.393z M263.25,222.79
		c-0.124,2.173-0.779,3.69-2.214,4.879c-0.738,0.615-1.763,0.901-3.116,0.901c-2.665,0-3.977-1.476-4.633-2.951
		c-0.369-0.861-0.615-1.846-0.656-2.952v-11.274c0.123-2.174,0.779-3.772,2.214-5.002c0.697-0.615,1.722-0.902,3.075-0.902
		c2.665,0,4.018,1.476,4.674,2.91c0.369,0.861,0.614,1.805,0.656,2.871V222.79z M240.331,211.557c0-0.533,0-1.189-0.165-1.723
		c-0.205-0.492-0.532-0.902-1.188-0.902c-0.533,0-0.861,0.41-1.025,0.902c-0.205,0.492-0.247,1.189-0.247,1.723
		c0,0.696,0.369,1.435,0.902,2.09c0.492,0.656,1.148,1.312,1.804,1.928c0.861,0.861,1.886,1.845,2.583,2.951
		c0.697,1.148,1.23,2.42,1.23,3.896c0,1.435-0.328,2.952-1.148,4.101c-0.861,1.188-2.173,2.049-4.141,2.049
		c-2.501,0-3.977-1.147-4.797-2.541c-0.82-1.395-0.984-3.116-0.984-4.305h3.854c0,0.614,0.041,1.476,0.328,2.131
		c0.287,0.697,0.738,1.271,1.599,1.271c1.189,0,1.435-1.395,1.435-2.706c0-1.353-1.312-2.706-2.583-3.978
		c-0.984-0.942-1.927-1.803-2.665-2.91c-0.738-1.107-1.271-2.338-1.271-3.977c0-1.312,0.246-2.83,1.024-4.019
		c0.78-1.147,2.051-2.009,4.019-2.05c2.419-0.041,3.772,0.861,4.469,2.05c0.697,1.188,0.82,2.747,0.82,4.019H240.331z
		 M227.416,211.393c0.041-0.861-0.124-1.477-0.533-1.969c-0.205-0.205-0.533-0.328-0.902-0.328c-0.779,0-1.107,0.533-1.271,1.148
		c-0.123,0.328-0.164,0.697-0.123,1.148v11.274c-0.041,0.86,0.164,1.476,0.533,1.927c0.205,0.205,0.492,0.328,0.861,0.328
		c0.779,0,1.148-0.492,1.312-1.107c0.124-0.328,0.164-0.696,0.124-1.147V211.393z M231.311,222.79
		c-0.123,2.173-0.779,3.69-2.214,4.879c-0.738,0.615-1.763,0.901-3.116,0.901c-2.665,0-3.977-1.476-4.633-2.951
		c-0.369-0.861-0.615-1.846-0.656-2.952v-11.274c0.123-2.174,0.779-3.772,2.214-5.002c0.697-0.615,1.721-0.902,3.075-0.902
		c2.665,0,4.018,1.476,4.674,2.91c0.369,0.861,0.615,1.805,0.656,2.871V222.79z M213.722,198.107h4.141v30.136h-4.141V198.107z
		 M197.732,214.549h2.993v-3.156c0-0.861-0.164-1.477-0.574-1.969c-0.205-0.205-0.533-0.328-0.902-0.328
		c-0.779,0-1.107,0.533-1.312,1.148c-0.123,0.328-0.164,0.697-0.205,1.148V214.549z M204.58,220.207v2.583
		c-0.124,2.173-0.779,3.69-2.255,4.879c-0.738,0.615-1.763,0.901-3.117,0.901c-2.665,0-4.018-1.476-4.673-2.951
		c-0.369-0.861-0.615-1.846-0.656-2.952v-11.274c0.123-2.174,0.82-3.772,2.296-5.002c0.697-0.615,1.722-0.902,3.075-0.902
		c2.665,0,4.018,1.476,4.674,2.91c0.368,0.861,0.615,1.805,0.656,2.871v6.519h-6.847v4.879c0.041,0.86,0.287,1.476,0.656,1.927
		c0.205,0.205,0.492,0.328,0.861,0.328c0.779,0,1.148-0.492,1.312-1.107c0.123-0.328,0.164-0.696,0.164-1.147v-2.46H204.58z
		 M186.785,210.736c0-0.656-0.615-1.354-1.229-1.354c-0.615,0-1.107,0.574-1.107,1.354v12.587c0,0.778,0.492,1.353,1.107,1.353
		c0.615,0,1.229-0.574,1.229-1.353V210.736z M190.927,228.243h-4.142v-1.476c-0.697,0.655-1.312,1.147-2.091,1.517
		c-0.41,0.205-0.82,0.286-1.189,0.286c-1.148,0-1.927-0.655-2.419-1.516c-0.533-0.82-0.779-1.928-0.779-2.871v-14.309
		c0-0.943,0.246-2.05,0.779-2.911c0.492-0.819,1.271-1.476,2.419-1.476c0.779,0,1.599,0.451,2.214,0.902
		c0.369,0.286,0.696,0.573,1.065,0.901v-9.185h4.142V228.243z M164.482,228.243h-4.141v-22.427h4.141v1.886
		c0.082-0.041,0.246-0.205,0.492-0.451c0.451-0.451,1.065-1.065,1.804-1.476c0.369-0.205,0.697-0.287,1.066-0.287
		c1.106,0,1.886,0.656,2.378,1.476c0.492,0.861,0.737,1.968,0.737,2.911v18.368h-4.141V210.49c0-0.861-0.492-0.984-0.984-0.984
		c-0.45,0-0.696,0.246-0.983,0.533c-0.123,0.164-0.246,0.328-0.369,0.533V228.243z M153.617,211.393
		c0.042-0.861-0.123-1.477-0.533-1.969c-0.205-0.205-0.532-0.328-0.901-0.328c-0.779,0-1.107,0.533-1.271,1.148
		c-0.123,0.328-0.164,0.697-0.123,1.148v11.274c-0.041,0.86,0.164,1.476,0.533,1.927c0.205,0.205,0.492,0.328,0.861,0.328
		c0.779,0,1.148-0.492,1.312-1.107c0.123-0.328,0.164-0.696,0.123-1.147V211.393z M157.513,222.79
		c-0.123,2.173-0.779,3.69-2.214,4.879c-0.738,0.615-1.764,0.901-3.116,0.901c-2.665,0-3.977-1.476-4.633-2.951
		c-0.369-0.861-0.615-1.846-0.656-2.952v-11.274c0.123-2.174,0.779-3.772,2.214-5.002c0.697-0.615,1.722-0.902,3.075-0.902
		c2.665,0,4.018,1.476,4.674,2.91c0.369,0.861,0.615,1.805,0.656,2.871V222.79z M157.267,198.436l-3.239,3.69h-3.198l2.132-3.69
		H157.267z M139.924,205.816h4.141v22.427h-4.141V205.816z M139.924,198.107h4.141v4.142h-4.141V198.107z M130.905,223.077
		c0,0.819,0.041,1.804,1.148,1.804c0.943,0,1.188-0.451,1.188-1.804v-3.116h4.142v2.173c0,2.501-0.451,4.101-1.353,5.084
		c-0.903,0.984-2.214,1.353-3.977,1.353c-1.476,0-2.829-0.409-3.772-1.435c-0.943-1.024-1.517-2.706-1.517-5.206v-9.8
		c0-2.501,0.574-4.182,1.517-5.207c0.943-1.024,2.296-1.435,3.772-1.435c1.763,0,3.074,0.369,3.977,1.353
		c0.902,0.984,1.353,2.583,1.353,5.084v1.763h-4.142v-2.705c0-1.354-0.246-1.805-1.188-1.805c-1.107,0-1.148,0.984-1.148,1.805
		V223.077z M120.122,217.419c-2.009,0.861-2.87,2.87-2.87,5.002c0,0.287,0.041,0.779,0.205,1.229
		c0.165,0.492,0.451,0.861,0.943,0.861c0.943,0,1.722-0.574,1.722-1.353V217.419z M120.122,211.146c0-0.369,0-0.943-0.124-1.354
		c-0.164-0.41-0.491-0.697-1.024-0.697c-0.697,0-0.984,0.533-1.107,1.189c-0.042,0.328-0.082,0.697-0.082,1.066v1.065h-4.141v-0.942
		c0-1.641,0.615-3.117,1.599-4.224s2.378-1.763,3.977-1.763c1.353,0,2.583,0.533,3.526,1.435c0.943,0.902,1.517,2.173,1.517,3.649
		v13.775c0,2.01,0.123,2.911,0.287,3.896h-4.059c-0.369-0.451-0.369-1.517-0.369-1.804h-0.288c-0.205,0.369-0.573,0.901-1.147,1.353
		c-0.574,0.451-1.353,0.778-2.173,0.778c-0.533,0-1.394-0.204-2.05-1.024c-0.697-0.778-1.271-2.173-1.271-4.51
		c0-2.501,0.738-4.306,1.722-5.535s2.214-2.009,3.239-2.542c1.025-0.533,1.804-0.902,1.968-1.354V211.146z M101.794,224.881
		l5.699-15.293h-4.796v-3.771h9.184v3.361l-5.699,15.293h5.699v3.772h-10.086V224.881z M95.768,205.816h4.141v22.427h-4.141V205.816
		z M95.768,198.107h4.141v4.142h-4.141V198.107z M88.347,198.107h4.141v30.136h-4.141V198.107z M81.5,217.419
		c-2.009,0.861-2.87,2.87-2.87,5.002c0,0.287,0.041,0.779,0.205,1.229c0.164,0.492,0.451,0.861,0.944,0.861
		c0.943,0,1.722-0.574,1.722-1.353V217.419z M81.5,211.146c0-0.369,0-0.943-0.124-1.354c-0.164-0.41-0.491-0.697-1.024-0.697
		c-0.697,0-0.984,0.533-1.107,1.189c-0.041,0.328-0.082,0.697-0.082,1.066v1.065h-4.141v-0.942c0-1.641,0.615-3.117,1.599-4.224
		s2.377-1.763,3.977-1.763c1.353,0,2.583,0.533,3.526,1.435c0.943,0.902,1.517,2.173,1.517,3.649v13.775
		c0,2.01,0.123,2.911,0.287,3.896h-4.059c-0.369-0.451-0.369-1.517-0.369-1.804h-0.287c-0.205,0.369-0.574,0.901-1.148,1.353
		c-0.574,0.451-1.353,0.778-2.173,0.778c-0.533,0-1.394-0.204-2.05-1.024c-0.697-0.778-1.271-2.173-1.271-4.51
		c0-2.501,0.738-4.306,1.721-5.535c0.984-1.229,2.215-2.009,3.239-2.542c1.025-0.533,1.804-0.902,1.968-1.354V211.146z
		 M67.806,205.816h4.141v22.427h-4.141v-1.886c-0.082,0.041-0.246,0.205-0.451,0.41c-0.492,0.491-1.066,1.065-1.804,1.476
		c-0.369,0.205-0.738,0.327-1.107,0.327c-1.107,0-1.886-0.655-2.378-1.516c-0.492-0.82-0.738-1.928-0.738-2.871v-18.367h4.141
		v17.752c0,0.861,0.491,0.984,0.984,0.984c0.451,0,0.697-0.246,0.984-0.533c0.123-0.123,0.246-0.328,0.369-0.533V205.816z
		 M55.055,211.557c0-0.533,0-1.189-0.164-1.723c-0.205-0.492-0.533-0.902-1.189-0.902c-0.533,0-0.86,0.41-1.024,0.902
		c-0.205,0.492-0.246,1.189-0.246,1.723c0,0.696,0.369,1.435,0.901,2.09c0.493,0.656,1.148,1.312,1.805,1.928
		c0.861,0.861,1.886,1.845,2.583,2.951c0.696,1.148,1.229,2.42,1.229,3.896c0,1.435-0.328,2.952-1.147,4.101
		c-0.861,1.188-2.173,2.049-4.142,2.049c-2.501,0-3.977-1.147-4.796-2.541c-0.82-1.395-0.984-3.116-0.984-4.305h3.854
		c0,0.614,0.041,1.476,0.328,2.131c0.287,0.697,0.738,1.271,1.599,1.271c1.189,0,1.436-1.395,1.436-2.706
		c0-1.353-1.312-2.706-2.583-3.978c-0.984-0.942-1.928-1.803-2.665-2.91c-0.738-1.107-1.271-2.338-1.271-3.977
		c0-1.312,0.246-2.83,1.025-4.019c0.779-1.147,2.05-2.009,4.018-2.05c2.419-0.041,3.772,0.861,4.469,2.05s0.82,2.747,0.82,4.019
		H55.055z M41.565,205.816h4.141v22.427h-4.141V205.816z M41.565,198.107h4.141v4.142h-4.141V198.107z M35.251,198.107h4.305
		l-4.592,30.136h-4.428l-4.592-30.136h4.305l2.214,16.564l0.164,1.271h0.246l0.164-1.271L35.251,198.107z"/>
	<path clip-path="url(#SVGID_2_)" fill="#0046F9" d="M305.083,412.895v15.283l145.454-3.311
		c-13.501,16.812-25.728,38.719-25.728,60.881l0.254,0.51c21.143-29.039,52.731-52.729,86.611-65.211v-0.766
		c-34.39-12.482-64.449-35.663-86.611-64.957l-0.254,0.255c0.509,20.888,10.699,46.871,25.728,60.627L305.083,412.895z"/>
	<path clip-path="url(#SVGID_2_)" fill="#231F20" d="M206.887,449.278c-8.655,0-15.328,2.056-20.02,6.16
		c-4.695,4.108-7.04,9.899-7.04,17.38s2.345,13.275,7.04,17.38c4.692,4.108,11.365,6.16,20.02,6.16c8.653,0,15.325-2.052,20.02-6.16
		c4.692-4.104,7.04-9.899,7.04-17.38s-2.347-13.271-7.04-17.38C222.212,451.334,215.54,449.278,206.887,449.278 M108.77,347.198
		c-17.6,0-31.79,3.19-42.57,9.57c-10.78,6.38-16.978,17.198-18.59,32.45l43.56,13.64c-0.44-6.601,0.622-11.254,3.19-13.97
		c2.564-2.713,5.902-4.07,10.01-4.07c2.932,0,5.39,1.066,7.37,3.189c1.98,2.129,2.97,4.951,2.97,8.471
		c0,7.92-4.18,11.88-12.54,11.88h-7.04v29.04h9.68c8.505,0,12.76,3.448,12.76,10.34c0,3.668-1.21,6.49-3.63,8.471
		c-2.42,1.979-5.318,2.97-8.69,2.97c-4.696,0-8.36-1.21-11-3.63c-2.64-2.42-3.816-7.223-3.52-14.41l-45.1,18.699
		c3.664,13.349,10.484,22.847,20.46,28.49c9.973,5.648,23.832,8.471,41.58,8.471c11,0,20.972-1.727,29.92-5.17
		c8.944-3.444,15.984-8.36,21.12-14.74c5.132-6.381,7.7-13.822,7.7-22.33c0-12.904-3.448-21.484-10.34-25.74
		c-6.896-4.252-13.42-6.38-19.58-6.38v-0.88c2.344,0,5.682-0.914,10.01-2.75c4.324-1.832,8.284-5.094,11.88-9.79
		c3.592-4.692,5.39-11.072,5.39-19.14c0-13.784-4.806-24.344-14.41-31.681C139.752,350.866,126.222,347.198,108.77,347.198"/>
</g>
<polygon fill="#231F20" points="81.449,934.063 463.533,934.063 463.533,806.304 447.023,806.304 377.642,915.163 288.4,915.163 
	288.4,774.723 324.527,774.723 356.108,854.153 371.661,854.153 371.661,677.108 356.108,677.108 324.527,756.062 288.4,756.062 
	288.4,613.708 369.268,613.708 435.78,711.561 452.049,711.561 452.049,595.046 81.449,595.046 81.449,613.708 123.318,613.708 
	123.318,915.163 81.449,915.163 "/>
<line fill="none" stroke="#0046F9" stroke-width="2" x1="273.342" y1="338" x2="273.342" y2="512"/>
<g>
	<defs>
		<rect id="SVGID_159_" width="564" height="1002"/>
	</defs>
	<clipPath id="SVGID_4_">
		<use xlink:href="#SVGID_159_"  overflow="visible"/>
	</clipPath>
	<polygon clip-path="url(#SVGID_4_)" fill="none" stroke="#0046F9" stroke-width="1.998" points="0.999,3 0.999,999 0.999,1001.002 
		3,1001.002 561,1001.002 563.001,1001.002 563.001,999 563.001,3 563.001,0.998 561,0.998 3,0.998 0.999,0.998 	"/>
</g>
<rect x="5.001" y="5.002" fill="none" stroke="#0046F9" stroke-width="1.998" width="553.997" height="991.996"/>
<line fill="none" stroke="#0046F9" stroke-width="2" x1="23.103" y1="169" x2="536.104" y2="169"/>
<line fill="none" stroke="#0046F9" stroke-width="2" x1="23.103" y1="529" x2="536.104" y2="529"/>
<line fill="none" stroke="#0046F9" stroke-width="2" x1="17.841" y1="318" x2="530.841" y2="318"/>
</svg>
