<?xml version="1.0" encoding="utf-8"?>
<!-- Generator: Adobe Illustrator 16.0.0, SVG Export Plug-In . SVG Version: 6.00 Build 0)  -->
<!DOCTYPE svg PUBLIC "-//W3C//DTD SVG 1.1//EN" "http://www.w3.org/Graphics/SVG/1.1/DTD/svg11.dtd">
<svg version="1.1" id="Layer_1" xmlns="http://www.w3.org/2000/svg" xmlns:xlink="http://www.w3.org/1999/xlink" x="0px" y="0px"
	 width="564px" height="1002px" viewBox="0 0 564 1002" enable-background="new 0 0 564 1002" xml:space="preserve">
<g>
	<defs>
		<rect id="SVGID_35_" width="564" height="1002"/>
	</defs>
	<clipPath id="SVGID_2_">
		<use xlink:href="#SVGID_35_"  overflow="visible"/>
	</clipPath>
	<path clip-path="url(#SVGID_2_)" fill="#231F20" d="M394.469,470.31c6.03,0,20.1,1.34,32.161-7.37
		c12.06-8.71,21.438-28.14,21.438-68.34c0-40.2-9.379-59.63-21.438-68.34c-12.062-8.71-26.131-7.37-32.161-7.37V470.31z
		 M394.469,252.56c6.03,0,20.1,0.67,32.161-7.37c12.06-8.04,21.438-24.12,21.438-58.29s-9.379-50.25-21.438-58.29
		c-12.062-8.04-26.131-7.37-32.161-7.37V252.56z M322.109,542V49.55h63.65c42.88,0,76.38,8.04,98.489,28.81
		c22.11,20.77,33.5,52.93,33.5,101.84c0,23.45-2.01,40.87-9.38,56.95s-18.76,29.48-35.51,44.89c18.09,10.05,31.49,28.81,42.209,60.3
		c5.361,15.41,8.041,35.51,8.041,60.3c0,36.85-6.7,69.68-23.45,95.14c-16.75,25.46-45.56,42.21-88.44,44.22H322.109z"/>
</g>
<line fill="none" stroke="#231F20" stroke-width="2" x1="281.625" y1="26" x2="281.625" y2="561"/>
<g>
	<defs>
		<rect id="SVGID_37_" width="564" height="1002"/>
	</defs>
	<clipPath id="SVGID_4_">
		<use xlink:href="#SVGID_37_"  overflow="visible"/>
	</clipPath>
	<polygon clip-path="url(#SVGID_4_)" fill="none" stroke="#231F20" stroke-width="1.998" points="0.999,3 0.999,999 0.999,1001.002 
		3,1001.002 561,1001.002 563.002,1001.002 563.002,999 563.002,3 563.002,0.998 561,0.998 3,0.998 0.999,0.998 	"/>
</g>
<rect x="5.001" y="5.002" fill="none" stroke="#231F20" stroke-width="1.998" width="553.997" height="991.996"/>
<g>
	<defs>
		<rect id="SVGID_39_" width="564" height="1002"/>
	</defs>
	<clipPath id="SVGID_6_">
		<use xlink:href="#SVGID_39_"  overflow="visible"/>
	</clipPath>
	<path clip-path="url(#SVGID_6_)" fill="#231F20" d="M416.504,736.807c0.133,1.814,0.562,3.366,1.155,4.719
		c0.396-0.066,0.924-0.132,1.122-0.132c0.264,0,0.727,0.025,0.99,0.099c0.609,0.165,2.326,0.396,4.19,0.396
		c4.423,0,7.888-1.336,7.888-5.115c0-2.508-1.252-3.792-6.436-4.62c-3.613-0.577-5.874-1.188-5.874-3.036
		c0-1.419,1.65-2.508,4.687-2.508c2.59,0,3.828,1.683,5.214,4.059c0.528,0.033,0.957-0.164,1.188-0.396
		c-0.197-1.551-0.396-2.805-0.659-3.861c-1.14-0.38-3.4-1.022-5.742-1.022c-3.598,0-7.161,1.617-7.161,4.257
		c0,2.92,1.584,4.145,5.973,4.884c4.702,0.792,6.105,1.485,6.105,3.069c0,1.814-1.947,3.068-5.247,3.068
		c-1.881,0-3.399-0.362-3.993-0.857c-0.957-0.825-1.749-2.476-1.979-3.399C417.461,736.345,416.801,736.51,416.504,736.807
		 M402.743,726.741c3.763,0,6.039,2.706,6.039,8.118c0,4.719-2.771,5.676-4.851,5.676c-4.521,0-5.974-4.487-5.974-7.392
		C397.958,729.876,398.911,726.741,402.743,726.741 M394.79,733.969c0,3.762,2.772,7.92,8.547,7.92c2.607,0,4.588-0.825,5.974-2.046
		c1.848-1.617,2.64-3.96,2.64-6.204c0-3.828-2.343-8.25-8.547-8.25c-2.673,0-4.851,0.99-6.337,2.574
		C395.615,729.547,394.79,731.658,394.79,733.969 M384.561,737.137v-7.854c0-2.237,0.462-2.788,0.462-3.563
		c0-0.215-0.239-0.43-0.462-0.43c-0.37,0-1.287,0.208-2.172,0.366c-1.505,0.271-4.303,0.532-5.748,0.624
		c-0.1,0.281-0.066,0.825,0.065,1.089c3.151,0.066,4.329,0.129,4.62,0.495c0.313,0.396,0.363,0.825,0.363,1.684v7.59
		c0,1.551-0.132,2.178-0.594,2.541c-0.363,0.264-4.191,0.66-5.809,0.726c-0.197,0.198-0.197,1.023,0,1.221
		c1.387-0.032,6.402-0.065,7.888-0.065c1.386,0,6.038,0.033,7.458,0.065c0.197-0.197,0.197-1.022,0-1.221
		c-1.783-0.065-5.115-0.462-5.479-0.726C384.659,739.348,384.561,738.721,384.561,737.137 M381.062,720.108
		c0,0.99,0.891,1.98,1.782,1.98c1.022,0,1.914-1.023,1.914-1.815c0-0.924-0.792-1.98-1.782-1.98
		C382.086,718.293,381.062,719.185,381.062,720.108 M361.163,728.16c0-1.798-0.099-2.276-0.265-2.606
		c-0.065-0.165-0.131-0.265-0.396-0.265c-1.45,0.248-4.024,0.66-6.303,0.957c-0.064,0.198,0,0.727,0.066,0.924
		c0.775,0,3.168,0.265,3.499,0.463c0.429,0.264,0.527,0.692,0.527,1.781v7.986c0,1.584-0.136,2.204-0.627,2.541
		c-0.313,0.215-3.003,0.396-4.355,0.462c-0.198,0.198-0.198,1.023,0,1.221c1.386-0.032,5.511-0.065,6.831-0.065
		c1.353,0,5.379,0.033,6.798,0.065c0.198-0.197,0.198-1.022,0-1.221c-1.155-0.033-4.653-0.264-5.049-0.462
		c-0.595-0.33-0.727-0.924-0.727-2.541v-4.554c0-0.858,0.304-1.567,0.792-2.112c1.849-2.062,3.465-3.416,4.752-3.416
		c0.461,0,1.222,0.413,1.452,0.677c0.363,0.396,0.858,0.892,1.519,0.892c0.857,0,1.551-0.924,1.551-1.815
		c0-0.66-0.396-1.683-1.881-1.683c-3.993,0-5.644,1.501-7.854,3.828C361.209,729.517,361.163,729.249,361.163,728.16
		 M348.623,737.961c-1.551,1.42-3.267,2.277-5.742,2.277c-2.118,0-4.124-0.726-5.478-2.64c-0.825-1.254-1.222-2.277-1.222-4.455
		h12.376c0.462,0,0.792-0.562,0.792-0.957c0-3.103-1.849-6.798-7.458-6.798c-4.555,0-8.878,3.135-8.878,8.712
		c0,2.046,0.693,4.059,2.047,5.444c1.386,1.485,3.927,2.344,6.831,2.344c3.102,0,5.841-1.287,7.491-3.201
		C349.283,738.324,349.118,737.994,348.623,737.961 M336.348,731.79c0.759-3.96,3.365-5.082,5.478-5.082
		c1.584,0,4.224,0.925,4.224,4.093c0,0.33-0.197,0.851-0.659,0.857L336.348,731.79z M312.587,727.038
		c-0.462,0-0.594,0.396-0.594,0.66v0.594c0,0.165,0.033,0.198,0.165,0.198h3.696v8.481c0,3.695,2.177,4.917,5.082,4.917
		c1.93,0,4.158-1.023,6.831-2.508c-0.066-0.341-0.266-0.892-0.594-0.925c-1.8,0.76-3.647,1.485-5.082,1.485
		c-1.684,0-3.366-0.66-3.366-4.554v-6.897h6.731c0.33,0,0.792-0.132,0.792-0.429v-0.825c0-0.132-0.099-0.198-0.264-0.198h-7.26
		v-2.937c0-2.146,0.132-3.465,0.132-3.465c0-0.211-0.099-0.29-0.254-0.29c-0.241,0-0.944,0.366-1.462,0.584
		c-0.562,0.233-1.386,0.3-1.386,0.63c0,0.383,0.099,1.814,0.099,5.475L312.587,727.038z M301.4,737.137v-7.854
		c0-2.237,0.462-2.788,0.462-3.563c0-0.215-0.238-0.43-0.462-0.43c-0.37,0-1.287,0.208-2.172,0.366
		c-1.504,0.271-4.303,0.532-5.748,0.624c-0.1,0.281-0.066,0.825,0.066,1.089c3.15,0.066,4.328,0.129,4.619,0.495
		c0.313,0.396,0.363,0.825,0.363,1.684v7.59c0,1.551-0.132,2.178-0.594,2.541c-0.363,0.264-4.191,0.66-5.809,0.726
		c-0.197,0.198-0.197,1.023,0,1.221c1.387-0.032,6.402-0.065,7.887-0.065c1.387,0,6.04,0.033,7.459,0.065
		c0.197-0.197,0.197-1.022,0-1.221c-1.782-0.065-5.115-0.462-5.479-0.726C301.499,739.348,301.4,738.721,301.4,737.137
		 M297.902,720.108c0,0.99,0.891,1.98,1.782,1.98c1.022,0,1.913-1.023,1.913-1.815c0-0.924-0.791-1.98-1.781-1.98
		C298.926,718.293,297.902,719.185,297.902,720.108 M278.004,728.16c0-1.798-0.1-2.276-0.265-2.606
		c-0.065-0.165-0.132-0.265-0.396-0.265c-1.452,0.248-4.026,0.66-6.303,0.957c-0.066,0.198,0,0.727,0.065,0.924
		c0.774,0,3.168,0.265,3.498,0.463c0.429,0.264,0.528,0.692,0.528,1.781v7.986c0,1.584-0.137,2.204-0.627,2.541
		c-0.314,0.215-3.004,0.396-4.356,0.462c-0.198,0.198-0.198,1.023,0,1.221c1.386-0.032,5.511-0.065,6.831-0.065
		c1.354,0,5.379,0.033,6.798,0.065c0.198-0.197,0.198-1.022,0-1.221c-1.155-0.033-4.653-0.264-5.049-0.462
		c-0.595-0.33-0.726-0.924-0.726-2.541v-4.554c0-0.858,0.303-1.567,0.791-2.112c1.849-2.062,3.466-3.416,4.753-3.416
		c0.462,0,1.221,0.413,1.451,0.677c0.363,0.396,0.858,0.892,1.519,0.892c0.857,0,1.551-0.924,1.551-1.815
		c0-0.66-0.396-1.683-1.881-1.683c-3.993,0-5.643,1.501-7.854,3.828C278.049,729.517,278.004,729.249,278.004,728.16
		 M266.387,737.994c-0.131-0.33-0.594-0.792-0.957-0.825c-2.078,2.146-4.619,2.938-6.303,2.938c-3.695,0-6.336-3.036-6.336-7.029
		c0-3.86,1.98-6.336,5.346-6.336c2.311,0,4.191,1.32,4.423,3.003c0.135,0.987,0.858,1.584,1.649,1.584
		c0.99,0,1.551-0.64,1.551-1.881c0-0.706-0.405-1.488-1.154-2.112c-1.389-1.154-3.848-1.946-6.27-1.946
		c-4.654,0-8.547,3.563-8.547,8.48c0,4.455,3.068,8.02,8.514,8.02C260.646,741.889,263.418,741.36,266.387,737.994 M208.604,736.807
		c0.132,1.814,0.562,3.366,1.155,4.719c0.396-0.066,0.924-0.132,1.121-0.132c0.265,0,0.727,0.025,0.99,0.099
		c0.61,0.165,2.326,0.396,4.191,0.396c4.422,0,7.887-1.336,7.887-5.115c0-2.508-1.251-3.792-6.436-4.62
		c-3.613-0.577-5.873-1.188-5.873-3.036c0-1.419,1.65-2.508,4.686-2.508c2.59,0,3.828,1.683,5.215,4.059
		c0.527,0.033,0.957-0.164,1.188-0.396c-0.198-1.551-0.396-2.805-0.66-3.861c-1.139-0.38-3.398-1.022-5.742-1.022
		c-3.597,0-7.16,1.617-7.16,4.257c0,2.92,1.584,4.145,5.973,4.884c4.701,0.792,6.104,1.485,6.104,3.069
		c0,1.814-1.946,3.068-5.247,3.068c-1.881,0-3.398-0.362-3.992-0.857c-0.957-0.825-1.75-2.476-1.98-3.399
		C209.562,736.345,208.901,736.51,208.604,736.807 M203.094,737.961c-1.551,1.42-3.268,2.277-5.742,2.277
		c-2.119,0-4.125-0.726-5.479-2.64c-0.824-1.254-1.221-2.277-1.221-4.455h12.375c0.462,0,0.791-0.562,0.791-0.957
		c0-3.103-1.848-6.798-7.457-6.798c-4.554,0-8.877,3.135-8.877,8.712c0,2.046,0.693,4.059,2.046,5.444
		c1.386,1.485,3.927,2.344,6.831,2.344c3.102,0,5.84-1.287,7.49-3.201C203.754,738.324,203.588,737.994,203.094,737.961
		 M190.817,731.79c0.759-3.96,3.366-5.082,5.478-5.082c1.584,0,4.225,0.925,4.225,4.093c0,0.33-0.198,0.851-0.66,0.857
		L190.817,731.79z M173.574,737.302c0,1.561-0.115,2.178-0.576,2.541c-0.363,0.264-5.027,0.518-5.892,0.561
		c-0.198,0.198-0.198,1.023,0,1.221c1.386-0.032,4.832-0.065,7.92-0.065c2.974,0,6.204,0.033,7.623,0.065
		c0.198-0.197,0.198-1.022,0-1.221c-0.825-0.04-5.198-0.33-5.56-0.561c-0.528-0.33-0.645-0.925-0.645-2.541v-14.982
		c0-2.145,0.132-3.465,0.132-3.465c0-0.231-0.132-0.33-0.429-0.33c-1.221,0.33-5.148,0.792-6.469,0.891
		c-0.065,0.265-0.065,0.892,0.133,1.089c1.337,0,2.568,0.023,3.316,0.644c0.344,0.284,0.445,1.281,0.445,2.657V737.302z
		 M149.766,728.325c0-1.089-0.033-2.376-0.199-2.771c-0.064-0.165-0.131-0.297-0.428-0.297c-1.023,0.396-2.508,0.759-5.049,1.089
		c-0.066,0.23,0.033,0.792,0.099,1.022c1.979,0.198,2.706,0.363,2.706,2.508v15.181c0,2.738-0.693,2.903-2.706,3.003
		c-0.198,0.198-0.198,1.022,0,1.221c1.386-0.033,2.538-0.065,4.157-0.065c1.869,0,3.367,0.032,4.785,0.065
		c0.199-0.198,0.199-1.022,0-1.221c-3.002-0.132-3.365-0.277-3.365-3.003v-5.082c1.056,1.154,2.508,1.914,4.455,1.914
		c2.045,0,3.959-0.627,5.478-2.046c1.716-1.684,2.772-3.993,2.772-6.964c0-4.504-2.356-7.49-6.93-7.49
		c-2.521,0-4.043,1.205-5.479,3.068C149.961,728.59,149.766,728.59,149.766,728.325 M150.59,729.612
		c0.94-1.303,2.344-2.541,3.828-2.541c3.617,0,4.885,2.64,4.885,6.798c0,4.191-2.014,6.633-5.313,6.633
		c-1.528,0-3.944-1.683-4.224-3.597v-5.214C149.766,730.933,150.191,730.163,150.59,729.612 M135.08,737.137v-7.854
		c0-2.237,0.463-2.788,0.463-3.563c0-0.215-0.238-0.43-0.463-0.43c-0.369,0-1.287,0.208-2.171,0.366
		c-1.505,0.271-4.304,0.532-5.749,0.624c-0.099,0.281-0.066,0.825,0.066,1.089c3.15,0.066,4.33,0.129,4.619,0.495
		c0.313,0.396,0.363,0.825,0.363,1.684v7.59c0,1.551-0.132,2.178-0.594,2.541c-0.363,0.264-4.191,0.66-5.808,0.726
		c-0.198,0.198-0.198,1.023,0,1.221c1.386-0.032,6.401-0.065,7.887-0.065c1.386,0,6.039,0.033,7.458,0.065
		c0.197-0.197,0.197-1.022,0-1.221c-1.781-0.065-5.115-0.462-5.479-0.726C135.18,739.348,135.08,738.721,135.08,737.137
		 M131.582,720.108c0,0.99,0.892,1.98,1.782,1.98c1.022,0,1.914-1.023,1.914-1.815c0-0.924-0.792-1.98-1.782-1.98
		C132.605,718.293,131.582,719.185,131.582,720.108 M104.688,727.038c-0.462,0-0.594,0.396-0.594,0.66v0.594
		c0,0.165,0.033,0.198,0.164,0.198h3.697v8.481c0,3.695,2.178,4.917,5.082,4.917c1.93,0,4.157-1.023,6.83-2.508
		c-0.066-0.341-0.264-0.892-0.594-0.925c-1.799,0.76-3.646,1.485-5.082,1.485c-1.684,0-3.366-0.66-3.366-4.554v-6.897h6.732
		c0.329,0,0.792-0.132,0.792-0.429v-0.825c0-0.132-0.1-0.198-0.264-0.198h-7.261v-2.937c0-2.146,0.132-3.465,0.132-3.465
		c0-0.211-0.099-0.29-0.254-0.29c-0.24,0-0.943,0.366-1.462,0.584c-0.562,0.233-1.386,0.3-1.386,0.63c0,0.383,0.1,1.814,0.1,5.475
		L104.688,727.038z M90.414,737.302c0,1.561-0.115,2.178-0.576,2.541c-0.363,0.264-5.026,0.518-5.892,0.561
		c-0.198,0.198-0.198,1.023,0,1.221c1.386-0.032,4.832-0.065,7.92-0.065c2.974,0,6.204,0.033,7.623,0.065
		c0.198-0.197,0.198-1.022,0-1.221c-0.825-0.04-5.196-0.33-5.56-0.561c-0.528-0.33-0.645-0.925-0.645-2.541v-14.982
		c0-2.145,0.133-3.465,0.133-3.465c0-0.231-0.133-0.33-0.43-0.33c-1.221,0.33-5.148,0.792-6.468,0.891
		c-0.065,0.265-0.065,0.892,0.132,1.089c1.337,0,2.568,0.023,3.316,0.644c0.344,0.284,0.445,1.281,0.445,2.657V737.302z
		 M68.305,741.889c1.287,0,3.746-0.63,5.973-2.311c0.169-0.129,0.396-0.197,0.396,0.033c0,1.455,0.363,2.277,0.363,2.277
		c0.264,0.099,0.361,0.065,0.627,0c0.725-0.595,2.342-1.089,4.355-1.32c0.197-0.198,0.197-0.693,0-0.891
		c-2.112-0.165-2.508-0.792-2.508-2.409v-7.887c0-0.99,0.132-3.531,0.132-3.531c0-0.1-0.099-0.198-0.265-0.198
		c-0.164,0.033-0.924,0.066-1.418,0.066c-1.057,0-2.311-0.033-3.531-0.066c-0.199,0.198-0.199,1.023,0,1.221
		c0.723,0.043,1.373,0.146,1.689,0.442c0.389,0.366,0.521,1.026,0.521,2.231v7.457c0,0.628-0.036,0.928-0.528,1.287
		c-1.931,1.419-3.927,2.047-4.752,2.047c-0.989,0-2.64-0.463-2.64-3.399v-7.557c0-0.99,0.131-3.531,0.131-3.531
		c0-0.1-0.098-0.198-0.264-0.198c-0.164,0.033-0.726,0.066-1.221,0.066c-1.056,0-2.673-0.033-3.894-0.066
		c-0.198,0.198-0.198,1.023,0,1.221c0.726,0.06,1.548,0.168,1.864,0.476c0.377,0.362,0.512,1.003,0.512,2.165v7.887
		C63.85,739.678,65.037,741.889,68.305,741.889 M71.654,717.501l-2.495,3.928c-0.267,0.422-0.376,0.554-0.376,0.924
		c0,0.23,0.23,0.429,0.463,0.429c0.23,0,0.494-0.132,0.988-0.627l3.796-3.597l-0.099-0.363c-0.76-0.726-1.604-0.759-1.816-0.759
		C71.951,717.436,71.754,717.469,71.654,717.501 M44.33,737.202v-6.765c0-0.693,0.35-1.386,0.562-1.716
		c0.957-1.495,1.749-1.519,2.276-1.519c1.254,0,1.65,0.792,1.65,3.003v6.996c0,2.938-0.016,3.96-0.066,4.422
		c0.354-0.032,1.155-0.065,1.485-0.065c0.373,0,0.935,0.033,1.353,0.065c-0.025-0.561-0.065-1.62-0.065-4.422v-8.283
		c1.155-1.566,1.935-1.716,2.64-1.716c1.254,0,1.848,0.727,1.848,2.938v6.401c0,3.564,0.057,4.577,0.265,5.082
		c0.362-0.032,0.935-0.065,1.188-0.065c1.353,0,1.451,0.033,2.871,0.065c0.164-0.197,0.164-1.022,0-1.221
		c-1.607-0.109-1.617-0.221-1.617-3.861v-5.906c0-2.931-0.463-5.247-3.367-5.247c-1.131,0-2.27,0.201-3.729,2.046
		c-0.188,0.238-0.31,0.313-0.396-0.013c-0.347-1.323-1.287-2.033-3.003-2.033c-1.254,0-2.416,0.601-3.598,2.343
		c-0.207,0.31-0.297,0.32-0.297,0c0-1.32-0.109-1.838-0.264-2.178c-0.068-0.152-0.133-0.265-0.396-0.265
		c-0.924,0.363-1.814,0.66-4.092,0.957c-0.066,0.198,0,0.727,0.066,0.924c1.781,0.165,1.98,0.33,1.98,2.244v7.788
		c0,2.938-0.017,3.96-0.066,4.422c0.354-0.032,1.154-0.065,1.484-0.065c0.373,0,0.935,0.033,1.354,0.065
		C44.371,741.063,44.33,740.004,44.33,737.202"/>
	<path clip-path="url(#SVGID_6_)" fill="#231F20" d="M316.646,678.722c-0.099,0.132-0.297,0.462-0.297,0
		c0-2.017-0.109-2.828-0.264-3.168c-0.07-0.152-0.133-0.265-0.396-0.265c-0.924,0.363-2.146,0.66-4.422,0.957
		c-0.066,0.198,0,0.727,0.065,0.924c1.782,0.165,2.146,0.33,2.146,2.244v7.986c0,2.706-0.33,2.802-2.64,3.003
		c-0.198,0.198-0.198,1.023,0,1.221c1.353-0.032,2.64-0.065,4.059-0.065c1.287,0,2.046,0.033,3.432,0.065
		c0.198-0.197,0.198-1.022,0-1.221c-1.683-0.165-1.979-0.297-1.979-3.003v-6.303c0-0.693,0.297-1.089,0.561-1.387
		c1.254-1.221,3.103-2.606,5.115-2.606c0.66,0,1.289,0.465,1.749,1.188c0.396,0.627,0.495,1.552,0.495,2.541v6.567
		c0,2.706-0.33,2.838-2.046,3.003c-0.165,0.198-0.165,1.023,0,1.221c1.386-0.032,2.144-0.065,3.465-0.065
		c1.353,0,2.574,0.033,3.993,0.065c0.165-0.197,0.165-1.022,0-1.221c-2.18-0.135-2.541-0.297-2.541-3.003v-6.468
		c0-1.815-0.132-3.465-0.99-4.422c-0.615-0.684-1.584-1.122-2.739-1.122C320.771,675.389,318.659,676.478,316.646,678.722
		 M298.793,676.741c3.763,0,6.039,2.706,6.039,8.118c0,4.719-2.771,5.676-4.851,5.676c-4.521,0-5.973-4.487-5.973-7.392
		C294.009,679.876,294.961,676.741,298.793,676.741 M290.841,683.969c0,3.762,2.771,7.92,8.547,7.92
		c2.606,0,4.587-0.825,5.973-2.046c1.848-1.617,2.64-3.96,2.64-6.204c0-3.828-2.343-8.25-8.547-8.25
		c-2.673,0-4.852,0.99-6.336,2.574C291.665,679.547,290.841,681.658,290.841,683.969 M287.178,687.994
		c-0.133-0.33-0.595-0.792-0.957-0.825c-2.079,2.146-4.62,2.938-6.303,2.938c-3.697,0-6.336-3.036-6.336-7.029
		c0-3.86,1.979-6.336,5.346-6.336c2.31,0,4.19,1.32,4.422,3.003c0.135,0.987,0.857,1.584,1.649,1.584c0.99,0,1.552-0.64,1.552-1.881
		c0-0.706-0.406-1.488-1.155-2.112c-1.39-1.154-3.849-1.946-6.271-1.946c-4.652,0-8.547,3.563-8.547,8.48
		c0,4.455,3.069,8.02,8.514,8.02C281.436,691.889,284.207,691.36,287.178,687.994 M236.424,676.741c3.762,0,6.039,2.706,6.039,8.118
		c0,4.719-2.772,5.676-4.852,5.676c-4.521,0-5.973-4.487-5.973-7.392C231.639,679.876,232.592,676.741,236.424,676.741
		 M228.471,683.969c0,3.762,2.771,7.92,8.547,7.92c2.607,0,4.587-0.825,5.973-2.046c1.848-1.617,2.641-3.96,2.641-6.204
		c0-3.828-2.344-8.25-8.547-8.25c-2.674,0-4.852,0.99-6.336,2.574C229.295,679.547,228.471,681.658,228.471,683.969 M219.891,689.71
		c0.164-0.132,0.428-0.23,0.428,0.033c0,0.892,0.363,2.146,0.363,2.146c0.265,0.099,0.363,0.065,0.628,0
		c0.726-0.595,2.112-1.125,4.587-1.32c0.197-0.198,0.197-0.693,0-0.891c-2.475-0.301-2.739-0.792-2.739-2.409v-14.949
		c0-2.145,0.132-3.465,0.132-3.465c0-0.231-0.132-0.33-0.429-0.33c-0.825,0.33-4.224,0.792-5.544,0.891
		c-0.066,0.265,0,0.792,0.197,0.99c2.377,0.096,2.773,0.261,2.773,2.706v2.574c0,0.264-0.066,0.33-0.33,0.33
		c-0.133,0-2.476-0.594-3.763-0.594c-2.573,0-4.257,0.792-5.841,2.178c-1.684,1.584-2.674,3.762-2.674,6.501
		c0,4.521,2.74,7.821,6.931,7.821C216.129,691.922,218.075,691.195,219.891,689.71 M220.287,687.004c0,0.693-0.066,0.957-0.595,1.42
		c-1.353,1.188-3.069,1.781-4.06,1.781c-2.111,0-4.982-2.178-4.982-6.765c0-2.64,0.527-4.125,1.122-4.884
		c1.221-1.716,3.267-1.815,4.026-1.815c1.386,0,3.135,0.429,3.86,1.287c0.528,0.594,0.628,0.825,0.628,1.98V687.004z
		 M194.844,678.16c0-1.798-0.1-2.276-0.264-2.606c-0.066-0.165-0.133-0.265-0.396-0.265c-1.453,0.248-4.026,0.66-6.303,0.957
		c-0.066,0.198,0,0.727,0.065,0.924c0.774,0,3.168,0.265,3.498,0.463c0.429,0.264,0.528,0.692,0.528,1.781v7.986
		c0,1.584-0.135,2.204-0.627,2.541c-0.314,0.215-3.004,0.396-4.356,0.462c-0.198,0.198-0.198,1.023,0,1.221
		c1.386-0.032,5.511-0.065,6.831-0.065c1.354,0,5.379,0.033,6.798,0.065c0.198-0.197,0.198-1.022,0-1.221
		c-1.155-0.033-4.653-0.264-5.05-0.462c-0.593-0.33-0.725-0.924-0.725-2.541v-4.554c0-0.858,0.303-1.567,0.791-2.112
		c1.848-2.062,3.466-3.416,4.752-3.416c0.463,0,1.222,0.413,1.453,0.677c0.361,0.396,0.857,0.892,1.518,0.892
		c0.857,0,1.551-0.924,1.551-1.815c0-0.66-0.396-1.683-1.881-1.683c-3.993,0-5.643,1.501-7.854,3.828
		C194.89,679.517,194.844,679.249,194.844,678.16 M182.303,687.961c-1.551,1.42-3.266,2.277-5.741,2.277
		c-2.119,0-4.125-0.726-5.478-2.64c-0.826-1.254-1.222-2.277-1.222-4.455h12.375c0.462,0,0.792-0.562,0.792-0.957
		c0-3.103-1.848-6.798-7.458-6.798c-4.554,0-8.877,3.135-8.877,8.712c0,2.046,0.692,4.059,2.046,5.444
		c1.387,1.485,3.928,2.344,6.831,2.344c3.103,0,5.841-1.287,7.491-3.201C182.963,688.324,182.799,687.994,182.303,687.961
		 M170.027,681.79c0.76-3.96,3.366-5.082,5.479-5.082c1.584,0,4.224,0.925,4.224,4.093c0,0.33-0.198,0.851-0.661,0.857
		L170.027,681.79z M151.465,691.889c1.287,0,3.746-0.63,5.973-2.311c0.169-0.129,0.396-0.197,0.396,0.033
		c0,1.455,0.362,2.277,0.362,2.277c0.265,0.099,0.363,0.065,0.627,0c0.726-0.595,2.343-1.089,4.356-1.32
		c0.197-0.198,0.197-0.693,0-0.891c-2.113-0.165-2.508-0.792-2.508-2.409v-7.887c0-0.99,0.131-3.531,0.131-3.531
		c0-0.1-0.098-0.198-0.264-0.198c-0.164,0.033-0.924,0.066-1.418,0.066c-1.057,0-2.311-0.033-3.531-0.066
		c-0.198,0.198-0.198,1.023,0,1.221c0.723,0.043,1.373,0.146,1.689,0.442c0.389,0.366,0.521,1.026,0.521,2.231v7.457
		c0,0.628-0.037,0.928-0.528,1.287c-1.931,1.419-3.927,2.047-4.752,2.047c-0.99,0-2.64-0.463-2.64-3.399v-7.557
		c0-0.99,0.131-3.531,0.131-3.531c0-0.1-0.098-0.198-0.264-0.198c-0.164,0.033-0.726,0.066-1.221,0.066
		c-1.057,0-2.673-0.033-3.895-0.066c-0.197,0.198-0.197,1.023,0,1.221c0.727,0.06,1.549,0.168,1.865,0.476
		c0.377,0.362,0.512,1.003,0.512,2.165v7.887C147.01,689.678,148.197,691.889,151.465,691.889 M141.647,687.994
		c-0.132-0.33-0.595-0.792-0.957-0.825c-2.079,2.146-4.62,2.938-6.304,2.938c-3.695,0-6.336-3.036-6.336-7.029
		c0-3.86,1.98-6.336,5.347-6.336c2.31,0,4.19,1.32,4.421,3.003c0.137,0.987,0.859,1.584,1.65,1.584c0.99,0,1.552-0.64,1.552-1.881
		c0-0.706-0.406-1.488-1.155-2.112c-1.389-1.154-3.848-1.946-6.27-1.946c-4.653,0-8.547,3.563-8.547,8.48
		c0,4.455,3.068,8.02,8.514,8.02C135.905,691.889,138.678,691.36,141.647,687.994 M115.182,689.743
		c0.164,1.122,0.561,2.146,2.838,2.146c2.508,0,3.895-1.439,3.895-1.815c0-0.264-0.363-0.627-0.562-0.627
		c-0.264,0-0.395,0.594-1.286,0.594c-1.649,0-2.086-1.484-2.013-3.135l0.23-5.312c0.323-5.197-2.97-6.204-6.072-6.204
		c-3.465,0-7.062,2.079-7.062,4.059c0,0.892,0.627,1.287,1.485,1.287c1.022,0,1.814-0.594,1.814-1.056
		c0-0.265-0.066-0.562-0.132-0.693c-0.034-0.099-0.065-0.33-0.065-0.726c0-1.155,2.012-1.552,3.629-1.552
		c1.783,0,3.598,0.925,3.598,4.95c0,0.265-0.23,0.43-0.33,0.462l-4.29,0.727c-4.696,0.795-6.996,2.738-6.996,5.181
		c0,2.805,2.276,3.861,5.313,3.861c2.013,0,3.035-0.297,4.982-1.519l0.924-0.627H115.182z M115.412,683.309l-0.23,4.422
		c-0.026,0.498-0.33,0.792-0.66,1.023c-1.123,0.726-3.135,1.649-4.355,1.649c-2.211,0-3.037-1.419-3.037-2.541
		c0-1.848,1.525-3.26,4.324-3.795L115.412,683.309z M78.354,687.961c-1.551,1.42-3.268,2.277-5.742,2.277
		c-2.119,0-4.125-0.726-5.479-2.64c-0.824-1.254-1.221-2.277-1.221-4.455h12.375c0.463,0,0.793-0.562,0.793-0.957
		c0-3.103-1.85-6.798-7.459-6.798c-4.555,0-8.877,3.135-8.877,8.712c0,2.046,0.693,4.059,2.047,5.444
		c1.385,1.485,3.926,2.344,6.83,2.344c3.103,0,5.842-1.287,7.491-3.201C79.014,688.324,78.849,687.994,78.354,687.961
		 M66.078,681.79c0.758-3.96,3.365-5.082,5.477-5.082c1.584,0,4.225,0.925,4.225,4.093c0,0.33-0.197,0.851-0.66,0.857L66.078,681.79
		z M53.57,689.71c0.164-0.132,0.43-0.23,0.43,0.033c0,0.892,0.362,2.146,0.362,2.146c0.265,0.099,0.363,0.065,0.627,0
		c0.726-0.595,2.112-1.125,4.587-1.32c0.198-0.198,0.198-0.693,0-0.891c-2.475-0.301-2.738-0.792-2.738-2.409v-14.949
		c0-2.145,0.131-3.465,0.131-3.465c0-0.231-0.131-0.33-0.428-0.33c-0.826,0.33-4.225,0.792-5.545,0.891
		c-0.066,0.265,0,0.792,0.198,0.99c2.376,0.096,2.772,0.261,2.772,2.706v2.574c0,0.264-0.066,0.33-0.33,0.33
		c-0.133,0-2.475-0.594-3.762-0.594c-2.574,0-4.258,0.792-5.842,2.178c-1.684,1.584-2.673,3.762-2.673,6.501
		c0,4.521,2.739,7.821,6.931,7.821C49.809,691.922,51.756,691.195,53.57,689.71 M53.967,687.004c0,0.693-0.066,0.957-0.594,1.42
		c-1.354,1.188-3.07,1.781-4.06,1.781c-2.112,0-4.983-2.178-4.983-6.765c0-2.64,0.528-4.125,1.123-4.884
		c1.221-1.716,3.266-1.815,4.025-1.815c1.386,0,3.135,0.429,3.861,1.287c0.527,0.594,0.627,0.825,0.627,1.98V687.004z"/>
	<path clip-path="url(#SVGID_6_)" fill="#231F20" d="M499.664,636.807c0.133,1.814,0.562,3.366,1.154,4.719
		c0.397-0.066,0.925-0.132,1.123-0.132c0.264,0,0.726,0.026,0.99,0.099c0.609,0.165,2.326,0.396,4.19,0.396
		c4.422,0,7.888-1.336,7.888-5.115c0-2.508-1.251-3.792-6.436-4.62c-3.614-0.577-5.875-1.188-5.875-3.036
		c0-1.419,1.65-2.508,4.688-2.508c2.59,0,3.828,1.683,5.214,4.059c0.527,0.033,0.957-0.164,1.188-0.396
		c-0.198-1.551-0.396-2.805-0.66-3.861c-1.139-0.379-3.398-1.022-5.741-1.022c-3.598,0-7.161,1.617-7.161,4.257
		c0,2.921,1.584,4.145,5.973,4.884c4.702,0.792,6.105,1.485,6.105,3.069c0,1.814-1.947,3.068-5.247,3.068
		c-1.881,0-3.399-0.362-3.993-0.857c-0.957-0.825-1.749-2.476-1.98-3.399C500.621,636.345,499.961,636.51,499.664,636.807
		 M485.903,626.741c3.762,0,6.039,2.706,6.039,8.118c0,4.719-2.772,5.676-4.851,5.676c-4.521,0-5.974-4.487-5.974-7.392
		C481.118,629.876,482.071,626.741,485.903,626.741 M477.95,633.969c0,3.762,2.772,7.92,8.547,7.92c2.607,0,4.587-0.825,5.974-2.046
		c1.848-1.617,2.64-3.96,2.64-6.204c0-3.828-2.343-8.25-8.547-8.25c-2.673,0-4.852,0.99-6.336,2.574
		C478.775,629.547,477.95,631.658,477.95,633.969 M458.117,627.038c-0.462,0-0.594,0.396-0.594,0.66v0.594
		c0,0.165,0.033,0.198,0.165,0.198h3.696v8.481c0,3.695,2.178,4.917,5.082,4.917c1.93,0,4.157-1.023,6.83-2.508
		c-0.066-0.341-0.264-0.892-0.594-0.925c-1.799,0.76-3.646,1.485-5.082,1.485c-1.683,0-3.365-0.66-3.365-4.554v-6.897h6.731
		c0.33,0,0.792-0.132,0.792-0.429v-0.825c0-0.132-0.099-0.198-0.264-0.198h-7.26v-2.937c0-2.146,0.132-3.465,0.132-3.465
		c0-0.211-0.1-0.29-0.255-0.29c-0.24,0-0.943,0.366-1.461,0.584c-0.562,0.233-1.387,0.3-1.387,0.63c0,0.383,0.1,1.814,0.1,5.475
		L458.117,627.038z M441.387,628.722c-0.1,0.132-0.297,0.462-0.297,0c0-2.017-0.109-2.828-0.265-3.168
		c-0.069-0.152-0.132-0.265-0.396-0.265c-0.924,0.363-2.146,0.66-4.422,0.957c-0.066,0.198,0,0.727,0.065,0.925
		c1.782,0.164,2.146,0.329,2.146,2.243v7.986c0,2.706-0.33,2.802-2.641,3.003c-0.197,0.198-0.197,1.023,0,1.221
		c1.354-0.032,2.641-0.065,4.06-0.065c1.287,0,2.046,0.033,3.431,0.065c0.199-0.197,0.199-1.022,0-1.221
		c-1.682-0.165-1.979-0.297-1.979-3.003v-6.303c0-0.693,0.297-1.089,0.561-1.387c1.254-1.221,3.102-2.606,5.115-2.606
		c0.66,0,1.29,0.465,1.748,1.188c0.396,0.628,0.496,1.552,0.496,2.541v6.567c0,2.706-0.33,2.838-2.047,3.003
		c-0.164,0.198-0.164,1.023,0,1.221c1.387-0.032,2.146-0.065,3.466-0.065c1.353,0,2.573,0.033,3.993,0.065
		c0.164-0.197,0.164-1.022,0-1.221c-2.179-0.135-2.541-0.297-2.541-3.003v-6.468c0-1.815-0.133-3.465-0.99-4.422
		c-0.614-0.684-1.584-1.122-2.74-1.122C445.512,625.389,443.398,626.478,441.387,628.722 M431.783,637.961
		c-1.551,1.42-3.267,2.277-5.742,2.277c-2.119,0-4.125-0.726-5.478-2.64c-0.825-1.254-1.221-2.277-1.221-4.455h12.374
		c0.463,0,0.793-0.562,0.793-0.957c0-3.103-1.849-6.798-7.458-6.798c-4.555,0-8.877,3.135-8.877,8.712
		c0,2.046,0.692,4.059,2.046,5.445c1.386,1.484,3.927,2.343,6.831,2.343c3.102,0,5.841-1.287,7.49-3.201
		C432.443,638.324,432.278,637.994,431.783,637.961 M419.508,631.79c0.758-3.96,3.365-5.082,5.478-5.082
		c1.583,0,4.224,0.925,4.224,4.093c0,0.33-0.197,0.851-0.66,0.857L419.508,631.79z M397.761,637.202v-6.765
		c0-0.693,0.349-1.386,0.561-1.716c0.957-1.495,1.749-1.519,2.276-1.519c1.254,0,1.65,0.792,1.65,3.003v6.996
		c0,2.938-0.018,3.96-0.066,4.422c0.354-0.032,1.155-0.065,1.485-0.065c0.373,0,0.935,0.033,1.354,0.065
		c-0.027-0.561-0.066-1.619-0.066-4.422v-8.282c1.155-1.567,1.934-1.717,2.641-1.717c1.254,0,1.848,0.727,1.848,2.938v6.401
		c0,3.564,0.056,4.577,0.264,5.082c0.362-0.032,0.935-0.065,1.188-0.065c1.353,0,1.452,0.033,2.871,0.065
		c0.165-0.197,0.165-1.022,0-1.221c-1.607-0.108-1.617-0.221-1.617-3.861v-5.906c0-2.931-0.462-5.247-3.366-5.247
		c-1.132,0-2.271,0.201-3.729,2.046c-0.188,0.238-0.312,0.313-0.396-0.013c-0.347-1.323-1.287-2.033-3.003-2.033
		c-1.254,0-2.416,0.601-3.597,2.343c-0.208,0.31-0.297,0.32-0.297,0c0-1.32-0.11-1.838-0.265-2.178
		c-0.069-0.152-0.132-0.265-0.396-0.265c-0.924,0.363-1.815,0.66-4.092,0.957c-0.066,0.198,0,0.727,0.065,0.925
		c1.782,0.164,1.98,0.329,1.98,2.243v7.788c0,2.938-0.018,3.96-0.066,4.422c0.354-0.032,1.155-0.065,1.485-0.065
		c0.373,0,0.934,0.033,1.353,0.065C397.8,641.063,397.761,640.005,397.761,637.202 M389.873,627.27c0.693,0,1.354-0.66,1.354-1.386
		c0-0.76-0.693-1.354-1.684-1.354c-0.957,0-2.738,0.627-3.695,1.881c-0.43-0.297-1.65-1.022-4.158-1.022
		c-3.597,0-6.6,2.178-6.6,5.577c0,1.979,1.056,3.135,2.078,4.125c-1.022,0.891-1.451,2.441-1.451,3.695
		c0,1.32,0.726,2.376,1.682,2.838c-1.98,1.188-3.266,2.574-3.266,3.993c0,2.871,3.3,3.763,6.27,3.763
		c5.247,0,10.824-2.146,10.824-5.709c0-1.057-0.627-1.849-1.749-2.739c-1.485-1.188-4.226-1.222-5.644-1.222
		c-0.692,0-1.649,0.1-2.573,0.198c-0.595,0.033-0.99,0.066-1.188,0.066c-1.122,0-2.409-0.495-2.409-2.079
		c0-0.726,0.066-1.519,0.495-2.146c0.891,0.528,2.079,0.76,3.498,0.76c3.564,0,6.567-2.014,6.567-5.61
		c0-1.716-0.528-2.739-1.584-3.828c0.264-0.363,0.989-0.891,1.452-0.891c0.264,0,0.527,0.099,0.758,0.429
		C388.982,626.906,389.478,627.27,389.873,627.27 M378.06,641.889c0.396,0.099,1.056,0.197,1.551,0.197
		c1.221,0,2.244-0.132,2.805-0.132c1.947,0,3.696-0.099,4.818,0.495c1.485,0.825,1.881,1.222,1.881,2.079
		c0,2.376-4.125,3.63-7.59,3.63c-2.079,0-4.851-0.957-4.851-3.201C376.674,643.835,377.002,643.176,378.06,641.889 M385.285,631.263
		c0,3.432-1.781,4.025-3.431,4.025c-3.103,0-3.762-2.541-3.762-4.884c0-2.574,0.956-3.795,3.267-3.795
		C384.031,626.609,385.285,628.193,385.285,631.263 M364.661,639.743c0.165,1.122,0.562,2.146,2.838,2.146
		c2.509,0,3.895-1.439,3.895-1.815c0-0.264-0.363-0.627-0.562-0.627c-0.264,0-0.396,0.594-1.287,0.594
		c-1.649,0-2.086-1.484-2.014-3.135l0.232-5.312c0.322-5.197-2.971-6.204-6.072-6.204c-3.465,0-7.062,2.079-7.062,4.059
		c0,0.892,0.628,1.287,1.485,1.287c1.023,0,1.815-0.594,1.815-1.056c0-0.265-0.066-0.562-0.133-0.693
		c-0.032-0.099-0.066-0.33-0.066-0.726c0-1.155,2.014-1.552,3.631-1.552c1.782,0,3.597,0.925,3.597,4.95
		c0,0.265-0.23,0.43-0.33,0.462l-4.29,0.727c-4.695,0.795-6.995,2.738-6.995,5.181c0,2.805,2.276,3.861,5.312,3.861
		c2.013,0,3.036-0.297,4.983-1.519l0.924-0.627H364.661z M364.893,633.309l-0.231,4.422c-0.026,0.498-0.33,0.792-0.659,1.023
		c-1.123,0.726-3.136,1.649-4.356,1.649c-2.212,0-3.036-1.419-3.036-2.541c0-1.848,1.523-3.26,4.323-3.795L364.893,633.309z
		 M340.373,628.16c0-1.798-0.099-2.276-0.264-2.606c-0.066-0.165-0.132-0.265-0.396-0.265c-1.451,0.248-4.025,0.66-6.303,0.957
		c-0.065,0.198,0,0.727,0.066,0.925c0.774,0,3.168,0.264,3.498,0.462c0.429,0.264,0.527,0.692,0.527,1.781v7.986
		c0,1.584-0.136,2.204-0.627,2.541c-0.313,0.215-3.003,0.396-4.355,0.462c-0.198,0.198-0.198,1.023,0,1.221
		c1.386-0.032,5.511-0.065,6.83-0.065c1.354,0,5.38,0.033,6.799,0.065c0.198-0.197,0.198-1.022,0-1.221
		c-1.155-0.033-4.653-0.264-5.049-0.462c-0.594-0.33-0.727-0.924-0.727-2.541v-4.554c0-0.858,0.304-1.567,0.792-2.112
		c1.849-2.062,3.466-3.415,4.752-3.415c0.462,0,1.222,0.412,1.452,0.676c0.363,0.396,0.858,0.892,1.519,0.892
		c0.857,0,1.551-0.924,1.551-1.815c0-0.66-0.396-1.683-1.881-1.683c-3.993,0-5.644,1.502-7.854,3.828
		C340.418,629.517,340.373,629.249,340.373,628.16 M319.221,637.4v-8.91h6.039c0.297,0,0.792-0.132,0.792-0.429v-0.825
		c0-0.132-0.101-0.198-0.265-0.198h-6.566v-2.31c0-4.191,2.838-4.95,3.927-4.95c1.386,0,2.112,0.792,2.804,2.508
		c0.281,0.7,0.893,0.924,1.65,0.924c0.628,0,1.453-0.494,1.453-1.484c0-0.66-0.462-1.519-1.122-1.947
		c-1.287-0.838-2.871-1.254-4.455-1.254c-2.97,0-7.128,1.32-7.128,6.765v1.749h-2.971c-0.594,0-0.792,0.396-0.792,0.66v0.594
		c0,0.165,0.066,0.198,0.198,0.198h3.564v8.91c0,1.584-0.1,2.211-0.562,2.541c-0.33,0.264-1.353,0.396-3.86,0.462
		c-0.198,0.198-0.198,1.023,0,1.221c1.386-0.032,3.584-0.065,5.873-0.065c3.115,0,6.566,0.033,7.986,0.065
		c0.198-0.197,0.198-1.022,0-1.221c-3.498-0.132-5.511-0.23-5.906-0.462C319.318,639.611,319.221,638.984,319.221,637.4
		 M286.252,637.961c-1.551,1.42-3.266,2.277-5.74,2.277c-2.119,0-4.125-0.726-5.479-2.64c-0.824-1.254-1.221-2.277-1.221-4.455
		h12.375c0.462,0,0.792-0.562,0.792-0.957c0-3.103-1.848-6.798-7.458-6.798c-4.555,0-8.877,3.135-8.877,8.712
		c0,2.046,0.693,4.059,2.046,5.445c1.386,1.484,3.927,2.343,6.831,2.343c3.102,0,5.841-1.287,7.491-3.201
		C286.913,638.324,286.748,637.994,286.252,637.961 M273.978,631.79c0.759-3.96,3.366-5.082,5.478-5.082
		c1.584,0,4.225,0.925,4.225,4.093c0,0.33-0.198,0.851-0.66,0.857L273.978,631.79z M261.471,639.71
		c0.164-0.132,0.428-0.23,0.428,0.033c0,0.892,0.363,2.146,0.363,2.146c0.265,0.099,0.363,0.065,0.627,0
		c0.727-0.594,2.113-1.125,4.588-1.32c0.197-0.198,0.197-0.693,0-0.891c-2.475-0.301-2.739-0.792-2.739-2.409v-14.949
		c0-2.145,0.132-3.465,0.132-3.465c0-0.231-0.132-0.33-0.429-0.33c-0.825,0.33-4.224,0.792-5.544,0.891
		c-0.066,0.265,0,0.792,0.197,0.99c2.377,0.096,2.772,0.261,2.772,2.706v2.574c0,0.264-0.065,0.33-0.331,0.33
		c-0.131,0-2.474-0.594-3.761-0.594c-2.575,0-4.257,0.792-5.841,2.178c-1.684,1.584-2.674,3.762-2.674,6.501
		c0,4.521,2.74,7.821,6.931,7.821C257.709,641.922,259.655,641.195,261.471,639.71 M261.866,637.005
		c0,0.692-0.065,0.956-0.594,1.419c-1.353,1.188-3.069,1.781-4.06,1.781c-2.111,0-4.982-2.178-4.982-6.765
		c0-2.64,0.527-4.125,1.121-4.884c1.222-1.716,3.268-1.815,4.027-1.815c1.385,0,3.135,0.43,3.86,1.287
		c0.528,0.594,0.627,0.825,0.627,1.98V637.005z M212.696,628.722c-0.099,0.132-0.298,0.462-0.298,0c0-2.017-0.107-2.828-0.264-3.168
		c-0.068-0.152-0.131-0.265-0.396-0.265c-0.925,0.363-2.146,0.66-4.422,0.957c-0.065,0.198,0,0.727,0.065,0.925
		c1.783,0.164,2.146,0.329,2.146,2.243v7.986c0,2.706-0.33,2.802-2.64,3.003c-0.198,0.198-0.198,1.023,0,1.221
		c1.353-0.032,2.64-0.065,4.059-0.065c1.287,0,2.046,0.033,3.432,0.065c0.198-0.197,0.198-1.022,0-1.221
		c-1.683-0.165-1.98-0.297-1.98-3.003v-6.303c0-0.693,0.298-1.089,0.562-1.387c1.254-1.221,3.102-2.606,5.114-2.606
		c0.659,0,1.29,0.465,1.749,1.188c0.396,0.628,0.494,1.552,0.494,2.541v6.567c0,2.706-0.329,2.838-2.045,3.003
		c-0.165,0.198-0.165,1.023,0,1.221c1.386-0.032,2.145-0.065,3.465-0.065c1.354,0,2.574,0.033,3.992,0.065
		c0.166-0.197,0.166-1.022,0-1.221c-2.178-0.135-2.54-0.297-2.54-3.003v-6.468c0-1.815-0.132-3.465-0.991-4.422
		c-0.613-0.684-1.584-1.122-2.738-1.122C216.821,625.389,214.709,626.478,212.696,628.722 M194.844,626.741
		c3.762,0,6.039,2.706,6.039,8.118c0,4.719-2.772,5.676-4.852,5.676c-4.521,0-5.973-4.487-5.973-7.392
		C190.059,629.876,191.012,626.741,194.844,626.741 M186.891,633.969c0,3.762,2.771,7.92,8.547,7.92
		c2.607,0,4.587-0.825,5.973-2.046c1.848-1.617,2.641-3.96,2.641-6.204c0-3.828-2.344-8.25-8.547-8.25
		c-2.674,0-4.852,0.99-6.336,2.574C187.715,629.547,186.891,631.658,186.891,633.969 M196.395,617.501l-2.496,3.928
		c-0.266,0.422-0.375,0.554-0.375,0.924c0,0.23,0.23,0.429,0.462,0.429s0.495-0.132,0.99-0.627l3.795-3.597l-0.099-0.363
		c-0.76-0.726-1.605-0.759-1.815-0.759C196.691,617.436,196.493,617.469,196.395,617.501 M176.66,637.137v-7.854
		c0-2.236,0.463-2.788,0.463-3.563c0-0.214-0.238-0.43-0.463-0.43c-0.369,0-1.287,0.208-2.172,0.366
		c-1.504,0.271-4.303,0.532-5.748,0.624c-0.099,0.281-0.066,0.825,0.066,1.089c3.15,0.066,4.328,0.129,4.619,0.495
		c0.313,0.396,0.363,0.825,0.363,1.684v7.59c0,1.551-0.132,2.178-0.594,2.541c-0.363,0.264-4.191,0.66-5.809,0.726
		c-0.197,0.198-0.197,1.023,0,1.221c1.387-0.032,6.402-0.065,7.888-0.065c1.386,0,6.039,0.033,7.458,0.065
		c0.197-0.197,0.197-1.022,0-1.221c-1.782-0.065-5.115-0.462-5.479-0.726C176.76,639.348,176.66,638.721,176.66,637.137
		 M173.162,620.108c0,0.99,0.891,1.98,1.782,1.98c1.022,0,1.914-1.023,1.914-1.815c0-0.924-0.792-1.98-1.782-1.98
		C174.186,618.293,173.162,619.185,173.162,620.108 M162.438,637.994c-0.133-0.33-0.594-0.792-0.957-0.824
		c-2.079,2.145-4.62,2.937-6.303,2.937c-3.696,0-6.336-3.036-6.336-7.029c0-3.86,1.979-6.336,5.346-6.336
		c2.311,0,4.191,1.32,4.422,3.003c0.135,0.987,0.857,1.584,1.65,1.584c0.99,0,1.551-0.64,1.551-1.881
		c0-0.706-0.406-1.488-1.155-2.112c-1.39-1.154-3.848-1.946-6.271-1.946c-4.652,0-8.547,3.563-8.547,8.48
		c0,4.455,3.069,8.02,8.514,8.02C156.695,641.889,159.467,641.36,162.438,637.994 M141.647,637.994
		c-0.132-0.33-0.595-0.792-0.957-0.824c-2.079,2.145-4.62,2.937-6.304,2.937c-3.695,0-6.336-3.036-6.336-7.029
		c0-3.86,1.98-6.336,5.347-6.336c2.31,0,4.19,1.32,4.421,3.003c0.137,0.987,0.859,1.584,1.65,1.584c0.99,0,1.552-0.64,1.552-1.881
		c0-0.706-0.406-1.488-1.155-2.112c-1.389-1.154-3.848-1.946-6.27-1.946c-4.653,0-8.547,3.563-8.547,8.48
		c0,4.455,3.068,8.02,8.514,8.02C135.905,641.889,138.678,641.36,141.647,637.994 M119.934,637.961
		c-1.551,1.42-3.268,2.277-5.742,2.277c-2.119,0-4.125-0.726-5.479-2.64c-0.824-1.254-1.221-2.277-1.221-4.455h12.375
		c0.463,0,0.792-0.562,0.792-0.957c0-3.103-1.848-6.798-7.458-6.798c-4.554,0-8.877,3.135-8.877,8.712
		c0,2.046,0.693,4.059,2.047,5.445c1.385,1.484,3.926,2.343,6.83,2.343c3.102,0,5.842-1.287,7.491-3.201
		C120.594,638.324,120.428,637.994,119.934,637.961 M107.657,631.79c0.759-3.96,3.366-5.082,5.478-5.082
		c1.584,0,4.225,0.925,4.225,4.093c0,0.33-0.197,0.851-0.66,0.857L107.657,631.79z M90.414,637.302c0,1.561-0.115,2.178-0.576,2.541
		c-0.363,0.264-5.026,0.518-5.892,0.561c-0.198,0.198-0.198,1.023,0,1.221c1.386-0.032,4.832-0.065,7.92-0.065
		c2.974,0,6.204,0.033,7.623,0.065c0.198-0.197,0.198-1.022,0-1.221c-0.825-0.04-5.196-0.33-5.56-0.561
		c-0.528-0.33-0.645-0.925-0.645-2.541v-14.982c0-2.145,0.133-3.465,0.133-3.465c0-0.231-0.133-0.33-0.43-0.33
		c-1.221,0.33-5.148,0.792-6.468,0.891c-0.065,0.265-0.065,0.892,0.132,1.09c1.337,0,2.568,0.022,3.316,0.644
		c0.344,0.283,0.445,1.28,0.445,2.656V637.302z M78.354,637.961c-1.551,1.42-3.268,2.277-5.742,2.277
		c-2.119,0-4.125-0.726-5.479-2.64c-0.824-1.254-1.221-2.277-1.221-4.455h12.375c0.463,0,0.793-0.562,0.793-0.957
		c0-3.103-1.85-6.798-7.459-6.798c-4.555,0-8.877,3.135-8.877,8.712c0,2.046,0.693,4.059,2.047,5.445
		c1.385,1.484,3.926,2.343,6.83,2.343c3.103,0,5.842-1.287,7.491-3.201C79.014,638.324,78.849,637.994,78.354,637.961
		 M66.078,631.79c0.758-3.96,3.365-5.082,5.477-5.082c1.584,0,4.225,0.925,4.225,4.093c0,0.33-0.197,0.851-0.66,0.857L66.078,631.79
		z M56.243,621.791c-2.31-0.264-2.31-0.857-6.204-0.857c-4.059,0-7.689,1.551-7.689,5.742c0,3.333,3.502,5.312,7.096,5.676
		c3.268,0.33,5.479,1.188,5.479,4.521c0,2.541-1.947,3.763-5.148,3.763c-3.729,0-6.171-1.222-7.062-4.356
		c-0.494-0.132-0.957-0.065-1.319,0.099c0.165,2.409,0.33,3.234,0.792,4.785c2.508,0,3.695,0.727,7.26,0.727
		c1.814,0,3.63-0.363,5.016-1.057c2.277-1.122,3.763-2.838,3.763-5.049c0-3.762-2.839-5.444-6.634-5.841
		c-2.524-0.264-6.467-1.452-6.467-4.092c0-2.311,2.211-3.696,4.553-3.696c3.895,0,5.182,1.782,5.974,3.861
		c0.462,0,0.957,0.033,1.319-0.198C56.838,624.3,56.639,623.441,56.243,621.791"/>
</g>
<line fill="none" stroke="#231F20" stroke-width="2" x1="26.125" y1="581.42" x2="539.125" y2="581.42"/>
<line fill="none" stroke="#231F20" stroke-width="2" x1="26.125" y1="784.119" x2="539.125" y2="784.119"/>
<g>
	<defs>
		<rect id="SVGID_41_" width="564" height="1002"/>
	</defs>
	<clipPath id="SVGID_8_">
		<use xlink:href="#SVGID_41_"  overflow="visible"/>
	</clipPath>
	<path clip-path="url(#SVGID_8_)" fill="#FF1419" d="M444.063,944.488c11.916-13.619,22.981-24.116,32.628-31.493
		c11.065-8.512,20.994-14.186,29.508-17.022v-6.526c-11.916-5.107-22.131-11.065-30.358-18.725
		c-16.456-15.037-27.237-25.535-31.777-31.21h-19.576c4.54,9.646,9.362,18.441,14.186,26.386
		c3.972,5.959,8.228,11.633,13.619,17.307H46.581v17.308h405.995c-7.377,9.078-11.633,15.037-13.903,18.726
		c-5.958,9.646-10.781,18.158-13.618,25.251H444.063z"/>
</g>
<line fill="none" stroke="#231F20" stroke-width="2" x1="22.698" y1="160.594" x2="259.198" y2="160.594"/>
<g>
	<defs>
		<rect id="SVGID_43_" width="564" height="1002"/>
	</defs>
	<clipPath id="SVGID_10_">
		<use xlink:href="#SVGID_43_"  overflow="visible"/>
	</clipPath>
	<path clip-path="url(#SVGID_10_)" fill="#FF1419" d="M238.539,92.445h-3.41l1.649-32.12L238.539,92.445z M233.039,121.485
		l1.209-16.5h5.061l1.209,16.5h8.91l-7.26-80.85h-10.67l-7.369,80.85H233.039z M206.31,52.515c1.319,0.11,2.97-0.22,3.3,2.64
		c0.55,4.95,0.33,12.76,0.33,29.37v18.92c0,6.49-2.2,6.16-3.63,6.16V52.515z M205.979,121.485c7.26,0,9.899-2.86,11.33-7.15
		c1.649-4.84,1.649-17.38,1.649-33.22s-0.22-25.96-2.09-32.12c-1.98-6.16-4.84-8.36-12.1-8.36h-7.59v80.85H205.979z
		 M172.541,121.485h18.26v-12.21h-9.131v-22.22h6.601v-12.98h-6.601v-21.23h9.131v-12.21h-18.26V121.485z M155.711,40.635v65.34
		c0,2.64-0.33,4.84-1.65,4.84c-1.43,0-1.76-1.76-1.76-4.84v-65.34h-9.131v65.34c0,8.25,2.09,16.39,10.891,16.39
		c8.25,0,10.779-7.26,10.779-16.39v-65.34H155.711z M127.662,105.975c0,2.2-0.439,4.84-1.539,4.84c-0.99,0-1.431-2.31-1.431-4.84
		v-49.83c0-2.64,0.22-4.84,1.431-4.84c1.209,0,1.539,2.31,1.539,4.84V105.975z M137.012,56.146c0-6.6-2.199-16.39-11-16.39
		c-8.25,0-10.67,8.03-10.67,16.39v49.83c0,7.04,1.871,15.73,9.9,16.28c0.109,0,0.221,0.11,0.439,0.11h0.881l1.32-0.22
		c0.33,0,0.66-0.11,0.99-0.22h0.109c1.21,3.08,3.74,5.72,8.91,5.72v-9.9c-1.1-0.33-1.87-0.99-2.53-1.98v-0.11c0.11,0.11,0,0,0-0.11
		c0.989-2.86,1.649-6.27,1.649-9.57V56.146z M109.732,61.095c0-6.71-0.439-21.56-11-21.34c-8.8,0.22-10.23,11.88-10.23,18.92
		c0,6.27,2.529,14.3,4.951,20.79c4.729,11.33,7.26,17.38,7.26,24.2c0,5.17-0.221,7.81-1.871,7.81c-2.42,0-2.42-11.33-2.42-13.86
		l-8.91,1.32c0,7.37-0.219,23.43,11.33,23.43c9.461,0,10.891-11.55,10.891-19.25c0-8.14-2.971-15.84-6.93-25.41
		c-3.19-8.03-5.391-13.75-5.391-19.03c0-4.73,0.221-8.03,1.541-8.03c1.76,0,1.76,8.91,1.76,11.77L109.732,61.095z M72.112,40.635
		v65.34c0,2.64-0.33,4.84-1.649,4.84c-1.432,0-1.762-1.76-1.762-4.84v-65.34h-9.129v65.34c0,8.25,2.09,16.39,10.891,16.39
		c8.25,0,10.779-7.26,10.779-16.39v-65.34H72.112z M71.012,23.585l-3.41,9.9h7.041l5.17-9.9H71.012z M41.094,84.855
		c0.551,0,1.541-0.11,2.201,0.55c1.1,1.1,1.209,5.06,1.209,11.88c0,6.93-0.33,10.67-1.209,11.88c-0.551,0.66-1.761,0.55-2.201,0.55
		V84.855z M41.094,52.405c0.66,0,1.541,0,2.201,0.66c0.879,1.21,1.209,4.29,1.209,10.12c0,5.83-0.33,8.91-1.209,10.12
		c-0.44,0.66-1.65,0.66-2.201,0.66V52.405z M43.955,121.485c4.729,0,7.039-4.29,8.029-6.93s1.76-9.9,1.76-15.95
		c0-3.96-0.22-9.35-0.77-11.88c-0.99-4.51-2.641-6.16-4.51-7.92c2.09-1.54,3.08-3.85,3.85-6.27c0.66-2.64,0.88-6.6,0.88-10.45
		c0-7.81-1.431-13.2-3.739-16.72c-2.201-3.19-4.841-4.73-9.461-4.73h-8.029v80.85H43.955z"/>
</g>
<path fill="#231F20" d="M194.803,493.16h46.199V542h-46.199V493.16z M73.362,429.8h33V318.92h-2.64l-2.641,9.68L73.362,429.8z
	 M106.362,471.6H32.883v-41.8l69.52-211.2h47.52v211.2h22v41.8h-22V542h-43.56V471.6z"/>
</svg>
