<?xml version="1.0" encoding="utf-8"?>
<!-- Generator: Adobe Illustrator 16.0.0, SVG Export Plug-In . SVG Version: 6.00 Build 0)  -->
<!DOCTYPE svg PUBLIC "-//W3C//DTD SVG 1.1//EN" "http://www.w3.org/Graphics/SVG/1.1/DTD/svg11.dtd">
<svg version="1.1" id="Layer_1" xmlns="http://www.w3.org/2000/svg" xmlns:xlink="http://www.w3.org/1999/xlink" x="0px" y="0px"
	 width="564px" height="1002px" viewBox="0 0 564 1002" enable-background="new 0 0 564 1002" xml:space="preserve">
<g>
	<defs>
		<rect id="SVGID_85_" width="564" height="1002"/>
	</defs>
	<clipPath id="SVGID_2_">
		<use xlink:href="#SVGID_85_"  overflow="visible"/>
	</clipPath>
	<path clip-path="url(#SVGID_2_)" fill="#0046F9" d="M494.896,71.466c1.473,0.727,2.943,1.36,4.415,1.901
		c1.473,0.539,2.968,0.986,4.485,1.34c1.518,0.354,3.074,0.619,4.667,0.797c1.592,0.177,3.245,0.266,4.96,0.266
		c3.576,0,6.72-0.35,9.43-1.048c2.711-0.699,4.979-1.677,6.806-2.935c1.825-1.258,3.198-2.752,4.121-4.484
		c0.923-1.733,1.384-3.623,1.384-5.674c0-3.018-0.96-5.588-2.879-7.711c-1.919-2.125-4.694-3.791-8.327-5.002l-3.354-1.119
		c-1.154-0.391-2.118-0.768-2.892-1.131s-1.397-0.727-1.872-1.09s-0.811-0.735-1.006-1.117c-0.196-0.381-0.294-0.777-0.294-1.188
		c0-0.466,0.116-0.938,0.35-1.412c0.232-0.475,0.577-0.902,1.034-1.285c0.456-0.382,1.019-0.688,1.69-0.922
		c0.671-0.232,1.453-0.349,2.347-0.349c0.522,0,1.099,0.046,1.733,0.139c0.633,0.095,1.279,0.233,1.941,0.419
		c0.661,0.188,1.322,0.42,1.984,0.699c0.661,0.279,1.29,0.605,1.886,0.979l3.018-5.449c-0.819-0.372-1.77-0.75-2.85-1.133
		c-1.081-0.381-2.269-0.721-3.562-1.02c-1.296-0.297-2.679-0.54-4.15-0.727c-1.471-0.186-3.008-0.279-4.61-0.279
		c-3.242,0-6.068,0.393-8.48,1.174c-2.413,0.782-4.411,1.83-5.994,3.145c-1.584,1.312-2.766,2.832-3.549,4.554
		c-0.782,1.724-1.173,3.517-1.173,5.38c0,2.887,0.902,5.379,2.71,7.475c1.807,2.096,4.499,3.758,8.075,4.987l5.003,1.705
		c0.968,0.335,1.755,0.675,2.36,1.021c0.605,0.345,1.08,0.688,1.425,1.033c0.345,0.346,0.577,0.694,0.698,1.049
		c0.121,0.354,0.183,0.697,0.183,1.032c0,1.062-0.498,1.901-1.495,2.515c-0.997,0.615-2.566,0.924-4.708,0.924
		c-1.863,0-3.875-0.252-6.036-0.756c-2.161-0.502-4.229-1.256-6.203-2.262L494.896,71.466z M461.436,69.398
		c-0.865-0.393-1.588-1.154-2.166-2.292c-0.576-1.136-1.015-2.729-1.312-4.778s-0.447-4.731-0.447-8.047
		c0-3.279,0.149-5.934,0.447-7.965c0.298-2.029,0.736-3.604,1.312-4.722c0.578-1.118,1.301-1.872,2.166-2.265
		c0.866-0.391,1.858-0.586,2.977-0.586s2.104,0.195,2.962,0.586c0.856,0.393,1.574,1.146,2.151,2.265s1.016,2.692,1.313,4.722
		c0.298,2.031,0.447,4.686,0.447,7.965c0,3.315-0.149,5.998-0.447,8.047s-0.736,3.643-1.313,4.778
		c-0.577,1.138-1.295,1.899-2.151,2.292c-0.857,0.391-1.844,0.586-2.962,0.586S462.302,69.789,461.436,69.398 M442.057,63.027
		c1.006,2.645,2.506,4.908,4.499,6.79s4.48,3.345,7.461,4.388s6.445,1.564,10.396,1.564c3.949,0,7.414-0.521,10.395-1.564
		s5.467-2.506,7.461-4.388c1.993-1.882,3.493-4.146,4.499-6.79c1.006-2.646,1.509-5.561,1.509-8.746
		c0-3.148-0.503-6.031-1.509-8.648s-2.506-4.867-4.499-6.749c-1.994-1.882-4.48-3.343-7.461-4.388
		c-2.98-1.043-6.445-1.564-10.395-1.564c-3.95,0-7.415,0.521-10.396,1.564c-2.98,1.045-5.468,2.506-7.461,4.388
		s-3.493,4.132-4.499,6.749s-1.509,5.5-1.509,8.648C440.548,57.467,441.051,60.381,442.057,63.027 M407.771,75.127h16.151V39.974
		h11.848v-6.399h-39.847v6.399h11.848V75.127z M346.074,75.127h6.146V53.08L378.6,75.127h10.116V33.603h-6.147l-0.028,22.131
		l-26.352-22.131h-10.114V75.127z M301.533,75.127h35.097v-6.399h-18.946V57.605h14.476v-6.398h-14.476l0.028-11.205h18.918v-6.399
		h-35.097V75.127z M236.594,75.127h6.147V53.918l15.425,21.74l15.481-21.74v21.209h16.123V33.603h-11.121l-14.922,21.74
		l-15.704-21.74h-11.429V75.127z M188.756,59.115c0,2.57,0.391,4.881,1.173,6.93c0.783,2.05,2.012,3.796,3.689,5.24
		c1.677,1.443,3.819,2.551,6.427,3.324s5.728,1.16,9.361,1.16c2.664,0,5.076-0.391,7.237-1.174c2.161-0.782,4.005-1.904,5.533-3.367
		c1.527-1.462,2.706-3.229,3.535-5.295c0.829-2.068,1.243-4.389,1.243-6.958V33.603h-6.147v26.323c0,1.49-0.187,2.785-0.559,3.884
		c-0.373,1.099-0.904,2.012-1.593,2.737c-0.689,0.728-1.523,1.268-2.501,1.621c-0.978,0.354-2.082,0.531-3.311,0.531
		c-1.118,0-2.161-0.177-3.13-0.531c-0.969-0.354-1.812-0.889-2.529-1.606c-0.717-0.717-1.276-1.62-1.676-2.71
		c-0.401-1.09-0.601-2.38-0.601-3.87V33.603h-16.151V59.115z M142.608,62.705c1.146,2.6,2.79,4.873,4.932,6.818
		c2.142,1.947,4.746,3.484,7.811,4.611c3.064,1.127,6.506,1.691,10.325,1.691c1.639,0,3.203-0.104,4.694-0.309
		c1.49-0.205,2.887-0.489,4.192-0.852c1.303-0.363,2.515-0.778,3.632-1.244c1.118-0.465,2.133-0.969,3.046-1.51l-2.403-4.693
		c-1.118,0.541-2.347,0.974-3.689,1.299c-1.341,0.327-2.682,0.488-4.023,0.488c-1.901,0-3.666-0.348-5.296-1.047
		c-1.63-0.698-3.036-1.686-4.219-2.963c-1.183-1.274-2.11-2.812-2.781-4.609c-0.67-1.799-1.005-3.805-1.005-6.021
		c0-2.236,0.339-4.253,1.019-6.051c0.68-1.797,1.616-3.329,2.809-4.596c1.192-1.268,2.608-2.245,4.247-2.934
		c1.639-0.689,3.418-1.035,5.337-1.035c1.435,0,2.818,0.172,4.15,0.518c1.332,0.345,2.519,0.768,3.563,1.271l2.403-4.694
		c-0.913-0.522-1.933-1.021-3.06-1.495c-1.127-0.477-2.352-0.895-3.674-1.258c-1.323-0.363-2.735-0.647-4.234-0.852
		c-1.5-0.205-3.069-0.309-4.708-0.309c-2.553,0-4.937,0.257-7.154,0.77c-2.217,0.512-4.243,1.233-6.078,2.166
		c-1.835,0.93-3.469,2.049-4.904,3.353c-1.434,1.304-2.645,2.748-3.632,4.331c-0.988,1.584-1.738,3.293-2.25,5.128
		c-0.512,1.835-0.768,3.739-0.768,5.714C140.89,57.336,141.463,60.106,142.608,62.705 M107.149,69.398
		c-0.866-0.393-1.588-1.154-2.165-2.292c-0.578-1.136-1.016-2.729-1.314-4.778s-0.447-4.731-0.447-8.047
		c0-3.279,0.149-5.934,0.447-7.965c0.298-2.029,0.736-3.604,1.314-4.722c0.577-1.118,1.299-1.872,2.165-2.265
		c0.866-0.391,1.858-0.586,2.976-0.586c1.118,0,2.105,0.195,2.962,0.586c0.857,0.393,1.574,1.146,2.152,2.265
		c0.577,1.118,1.015,2.692,1.313,4.722c0.298,2.031,0.447,4.686,0.447,7.965c0,3.315-0.149,5.998-0.447,8.047
		c-0.298,2.049-0.736,3.643-1.313,4.778c-0.578,1.138-1.295,1.899-2.152,2.292c-0.857,0.391-1.844,0.586-2.962,0.586
		C109.007,69.984,108.015,69.789,107.149,69.398 M87.77,63.027c1.006,2.645,2.506,4.908,4.499,6.79
		c1.994,1.882,4.48,3.345,7.461,4.388s6.446,1.564,10.395,1.564c3.949,0,7.414-0.521,10.395-1.564s5.467-2.506,7.461-4.388
		c1.993-1.882,3.493-4.146,4.499-6.79c1.006-2.646,1.509-5.561,1.509-8.746c0-3.148-0.503-6.031-1.509-8.648
		s-2.506-4.867-4.499-6.749c-1.994-1.882-4.48-3.343-7.461-4.388c-2.981-1.043-6.446-1.564-10.395-1.564
		c-3.949,0-7.414,0.521-10.395,1.564c-2.981,1.045-5.467,2.506-7.461,4.388c-1.993,1.882-3.493,4.132-4.499,6.749
		c-1.005,2.617-1.508,5.5-1.508,8.648C86.262,57.467,86.765,60.381,87.77,63.027 M50.411,39.694c1.826,0,3.479,0.265,4.96,0.796
		s2.743,1.379,3.787,2.543c1.043,1.164,1.844,2.659,2.403,4.485s0.838,4.033,0.838,6.623c0,2.608-0.275,4.849-0.824,6.72
		c-0.55,1.872-1.342,3.414-2.376,4.624c-1.033,1.212-2.296,2.106-3.786,2.683c-1.49,0.578-3.167,0.867-5.03,0.867L50.411,39.694z
		 M34.232,75.127h17.073c4.807,0,8.97-0.541,12.491-1.621s6.436-2.566,8.746-4.457s4.024-4.107,5.142-6.65
		c1.118-2.543,1.677-5.286,1.677-8.23c0-3.297-0.559-6.221-1.677-8.773c-1.118-2.552-2.832-4.703-5.142-6.455
		c-2.31-1.751-5.225-3.078-8.746-3.982c-3.521-0.902-7.684-1.354-12.491-1.354H34.232V75.127z"/>
	<path clip-path="url(#SVGID_2_)" fill="#231F20" d="M338.114,502.064c0.318-0.229,0.799-0.345,1.439-0.345
		c0.7,0,1.271,0.155,1.71,0.465c0.439,0.311,0.75,0.735,0.931,1.275l3.42-1.38c-0.161-0.42-0.391-0.855-0.69-1.305
		c-0.3-0.451-0.689-0.86-1.17-1.23s-1.065-0.67-1.755-0.9c-0.69-0.229-1.505-0.345-2.445-0.345c-0.72,0-1.421,0.101-2.1,0.3
		c-0.681,0.2-1.28,0.495-1.8,0.885c-0.521,0.391-0.941,0.865-1.261,1.426c-0.319,0.56-0.479,1.21-0.479,1.949v0.181
		c0,1.42,0.495,2.495,1.484,3.225c0.99,0.73,2.325,1.165,4.006,1.305c0.618,0.061,1.135,0.141,1.545,0.24
		c0.408,0.101,0.734,0.226,0.975,0.375c0.24,0.15,0.405,0.311,0.495,0.48s0.135,0.354,0.135,0.555c0,0.34-0.176,0.655-0.524,0.945
		c-0.351,0.29-0.995,0.435-1.936,0.435c-1.061,0-1.845-0.24-2.354-0.72c-0.511-0.48-0.846-1.04-1.005-1.68l-3.48,1.14
		c0.1,0.52,0.295,1.055,0.585,1.604c0.289,0.551,0.705,1.051,1.245,1.5c0.54,0.45,1.219,0.825,2.04,1.125
		c0.82,0.301,1.81,0.45,2.97,0.45c1.96,0,3.48-0.439,4.561-1.319c1.08-0.881,1.619-2.061,1.619-3.54v-0.181
		c0-1.34-0.479-2.385-1.439-3.135s-2.201-1.205-3.72-1.365c-1.32-0.14-2.231-0.314-2.73-0.524c-0.5-0.21-0.75-0.556-0.75-1.035
		C337.634,502.58,337.794,502.295,338.114,502.064 M323.819,502.41c0.63,0.46,1.005,1.04,1.125,1.739h-7.021
		c0.18-0.64,0.57-1.205,1.17-1.694c0.601-0.49,1.38-0.735,2.34-0.735S323.188,501.95,323.819,502.41 M328.784,507.39v-2.01
		c0-0.78-0.141-1.585-0.42-2.415c-0.281-0.83-0.721-1.59-1.32-2.28s-1.361-1.26-2.28-1.71c-0.92-0.449-2.021-0.675-3.3-0.675
		c-1.04,0-2.015,0.185-2.925,0.556c-0.911,0.369-1.706,0.885-2.385,1.545c-0.681,0.659-1.216,1.459-1.605,2.399
		s-0.585,1.98-0.585,3.12v0.18c0,1.24,0.184,2.351,0.555,3.33c0.37,0.98,0.89,1.811,1.561,2.49c0.67,0.68,1.465,1.2,2.385,1.56
		c0.919,0.36,1.939,0.54,3.06,0.54c0.979,0,1.834-0.109,2.565-0.33c0.73-0.22,1.35-0.5,1.86-0.84c0.51-0.34,0.925-0.715,1.245-1.125
		c0.318-0.41,0.569-0.805,0.75-1.185l-3.24-1.8c-0.222,0.46-0.581,0.854-1.08,1.185c-0.5,0.33-1.22,0.495-2.16,0.495
		c-0.479,0-0.935-0.075-1.365-0.226c-0.43-0.149-0.81-0.359-1.14-0.63c-0.33-0.27-0.59-0.59-0.78-0.96s-0.296-0.774-0.314-1.215
		H328.784z M295.754,502.319h4.41v8.94c0,0.68,0.214,1.24,0.645,1.68c0.431,0.44,0.985,0.66,1.665,0.66h6.3V510h-4.02
		c-0.54,0-0.81-0.3-0.81-0.9v-6.78h5.369v-3.6h-5.369v-6.12h-3.78v6.12h-4.41V502.319z M281.594,505.859
		c0-1.26,0.274-2.265,0.825-3.015c0.55-0.75,1.384-1.125,2.505-1.125c0.96,0,1.695,0.305,2.205,0.915s0.765,1.445,0.765,2.505v8.46
		h3.78v-9.42c0-1.02-0.135-1.899-0.405-2.64c-0.27-0.74-0.645-1.351-1.125-1.83c-0.479-0.479-1.034-0.835-1.665-1.065
		c-0.63-0.229-1.305-0.345-2.024-0.345c-1.021,0-1.91,0.229-2.67,0.69c-0.762,0.459-1.311,1.109-1.65,1.949h-0.54v-2.22h-3.78v14.88
		h3.78V505.859z M264.764,510.149c-0.48-0.18-0.9-0.439-1.26-0.779s-0.645-0.755-0.855-1.245s-0.315-1.045-0.315-1.665v-0.601
		c0-0.619,0.105-1.175,0.315-1.665c0.21-0.489,0.495-0.904,0.855-1.244c0.36-0.341,0.78-0.601,1.26-0.78
		c0.48-0.18,0.99-0.271,1.53-0.271s1.05,0.091,1.53,0.271s0.9,0.439,1.26,0.78c0.36,0.34,0.645,0.755,0.855,1.244
		c0.21,0.49,0.315,1.046,0.315,1.665v0.601c0,0.62-0.105,1.175-0.315,1.665s-0.495,0.905-0.855,1.245
		c-0.36,0.34-0.78,0.6-1.26,0.779c-0.48,0.181-0.99,0.271-1.53,0.271S265.244,510.33,264.764,510.149 M274.034,505.979
		c0-1.22-0.21-2.305-0.63-3.255s-0.99-1.755-1.71-2.415c-0.72-0.659-1.545-1.159-2.475-1.5c-0.93-0.34-1.905-0.51-2.925-0.51
		s-1.995,0.17-2.925,0.51c-0.93,0.341-1.755,0.841-2.475,1.5c-0.72,0.66-1.29,1.465-1.71,2.415c-0.42,0.95-0.63,2.035-0.63,3.255
		v0.36c0,1.24,0.21,2.335,0.63,3.285c0.42,0.95,0.99,1.75,1.71,2.399c0.72,0.65,1.545,1.146,2.475,1.485
		c0.93,0.34,1.905,0.51,2.925,0.51s1.995-0.17,2.925-0.51c0.93-0.34,1.755-0.835,2.475-1.485c0.72-0.649,1.29-1.449,1.71-2.399
		s0.63-2.045,0.63-3.285V505.979z M240.974,502.319h4.23v11.28h3.78v-11.28h5.85v-3.6h-5.85v-1.62c0-0.6,0.27-0.9,0.81-0.9h4.5v-3.6
		h-6.06c-0.86,0-1.58,0.295-2.16,0.885c-0.58,0.59-0.87,1.315-0.87,2.176v3.06h-4.23V502.319z M209.594,502.064
		c0.32-0.229,0.8-0.345,1.44-0.345c0.7,0,1.27,0.155,1.71,0.465c0.44,0.311,0.75,0.735,0.93,1.275l3.42-1.38
		c-0.16-0.42-0.39-0.855-0.69-1.305c-0.3-0.451-0.69-0.86-1.17-1.23s-1.065-0.67-1.755-0.9c-0.69-0.229-1.505-0.345-2.445-0.345
		c-0.72,0-1.42,0.101-2.1,0.3c-0.68,0.2-1.28,0.495-1.8,0.885c-0.52,0.391-0.94,0.865-1.26,1.426c-0.32,0.56-0.48,1.21-0.48,1.949
		v0.181c0,1.42,0.495,2.495,1.485,3.225c0.99,0.73,2.325,1.165,4.005,1.305c0.62,0.061,1.135,0.141,1.545,0.24
		c0.41,0.101,0.735,0.226,0.975,0.375c0.24,0.15,0.405,0.311,0.495,0.48s0.135,0.354,0.135,0.555c0,0.34-0.175,0.655-0.525,0.945
		s-0.995,0.435-1.935,0.435c-1.06,0-1.845-0.24-2.355-0.72c-0.51-0.48-0.845-1.04-1.005-1.68l-3.48,1.14
		c0.1,0.52,0.295,1.055,0.585,1.604c0.29,0.551,0.705,1.051,1.245,1.5c0.54,0.45,1.22,0.825,2.04,1.125
		c0.82,0.301,1.81,0.45,2.97,0.45c1.96,0,3.48-0.439,4.56-1.319c1.08-0.881,1.62-2.061,1.62-3.54v-0.181
		c0-1.34-0.48-2.385-1.44-3.135s-2.2-1.205-3.72-1.365c-1.32-0.14-2.23-0.314-2.73-0.524s-0.75-0.556-0.75-1.035
		C209.114,502.58,209.274,502.295,209.594,502.064 M189.644,509.325c-0.66-0.73-0.99-1.726-0.99-2.985v-0.36
		c0-1.26,0.33-2.255,0.99-2.984c0.66-0.73,1.54-1.096,2.64-1.096c1.1,0,1.98,0.365,2.64,1.096c0.66,0.729,0.99,1.725,0.99,2.984
		v0.36c0,1.26-0.33,2.255-0.99,2.985c-0.66,0.729-1.54,1.095-2.64,1.095C191.184,510.42,190.304,510.055,189.644,509.325
		 M196.184,511.439c0,0.641,0.215,1.16,0.645,1.561c0.43,0.399,0.985,0.6,1.665,0.6h2.58V510h-0.57c-0.54,0-0.81-0.3-0.81-0.9
		v-10.38h-3.78v1.8h-0.54c-0.38-0.76-0.895-1.32-1.545-1.68c-0.65-0.359-1.505-0.54-2.565-0.54c-0.88,0-1.705,0.175-2.475,0.524
		c-0.77,0.351-1.445,0.855-2.025,1.516c-0.58,0.66-1.04,1.46-1.38,2.4c-0.34,0.939-0.51,2-0.51,3.18v0.479
		c0,1.2,0.175,2.271,0.525,3.21c0.35,0.94,0.825,1.74,1.425,2.4c0.6,0.66,1.295,1.16,2.085,1.5c0.79,0.34,1.635,0.51,2.535,0.51
		c0.96,0,1.8-0.194,2.52-0.585c0.72-0.39,1.28-1.055,1.68-1.995H196.184z M171.509,509.325c-0.73-0.73-1.095-1.726-1.095-2.985
		v-0.36c0-1.26,0.365-2.255,1.095-2.984c0.73-0.73,1.685-1.096,2.865-1.096c1.18,0,2.135,0.375,2.865,1.125s1.095,1.735,1.095,2.955
		v0.36c0,1.22-0.365,2.205-1.095,2.955s-1.685,1.125-2.865,1.125C173.194,510.42,172.239,510.055,171.509,509.325 M178.334,513.6
		h3.78v-21h-3.78v8.28h-0.54c-0.4-0.82-0.95-1.455-1.65-1.905c-0.7-0.449-1.65-0.675-2.85-0.675c-0.9,0-1.755,0.17-2.565,0.51
		c-0.81,0.341-1.52,0.835-2.13,1.485c-0.61,0.65-1.09,1.445-1.44,2.385c-0.35,0.94-0.525,2.01-0.525,3.21v0.54
		c0,1.22,0.165,2.3,0.495,3.24c0.33,0.939,0.79,1.735,1.38,2.385c0.59,0.65,1.28,1.14,2.07,1.47s1.645,0.495,2.565,0.495
		c0.72,0,1.335-0.069,1.845-0.21c0.51-0.14,0.95-0.33,1.32-0.569c0.37-0.24,0.67-0.516,0.9-0.825
		c0.23-0.311,0.425-0.635,0.585-0.976h0.54V513.6z M134.564,509.325c-0.66-0.73-0.99-1.726-0.99-2.985v-0.36
		c0-1.26,0.33-2.255,0.99-2.984c0.66-0.73,1.54-1.096,2.64-1.096c1.1,0,1.98,0.365,2.64,1.096c0.66,0.729,0.99,1.725,0.99,2.984
		v0.36c0,1.26-0.33,2.255-0.99,2.985c-0.66,0.729-1.54,1.095-2.64,1.095C136.104,510.42,135.224,510.055,134.564,509.325
		 M141.104,511.439c0,0.641,0.215,1.16,0.645,1.561c0.43,0.399,0.985,0.6,1.665,0.6h2.58V510h-0.57c-0.54,0-0.81-0.3-0.81-0.9
		v-10.38h-3.78v1.8h-0.54c-0.38-0.76-0.895-1.32-1.545-1.68s-1.505-0.54-2.565-0.54c-0.88,0-1.705,0.175-2.475,0.524
		c-0.77,0.351-1.445,0.855-2.025,1.516c-0.58,0.66-1.04,1.46-1.38,2.4c-0.34,0.939-0.51,2-0.51,3.18v0.479
		c0,1.2,0.175,2.271,0.525,3.21c0.35,0.94,0.825,1.74,1.425,2.4c0.6,0.66,1.295,1.16,2.085,1.5s1.635,0.51,2.535,0.51
		c0.96,0,1.8-0.194,2.52-0.585c0.72-0.39,1.28-1.055,1.68-1.995H141.104z M123.374,507.21c-0.18,0.979-0.575,1.76-1.185,2.34
		s-1.495,0.87-2.655,0.87c-0.54,0-1.05-0.085-1.53-0.255s-0.9-0.425-1.26-0.766c-0.36-0.34-0.645-0.765-0.855-1.274
		c-0.21-0.51-0.315-1.095-0.315-1.755v-0.181c0-0.659,0.105-1.255,0.315-1.784c0.21-0.53,0.495-0.98,0.855-1.351
		c0.36-0.37,0.78-0.655,1.26-0.854c0.48-0.2,0.99-0.301,1.53-0.301c1.16,0,2.06,0.32,2.7,0.96c0.64,0.641,1.02,1.4,1.14,2.28
		l3.72-0.96c-0.34-1.76-1.155-3.18-2.445-4.26s-2.975-1.62-5.055-1.62c-1.08,0-2.095,0.181-3.045,0.54
		c-0.95,0.359-1.78,0.88-2.49,1.561c-0.71,0.68-1.265,1.499-1.665,2.459s-0.6,2.04-0.6,3.24v0.36c0,1.2,0.2,2.27,0.6,3.21
		c0.4,0.939,0.95,1.729,1.65,2.37c0.7,0.64,1.525,1.13,2.475,1.47c0.95,0.34,1.975,0.51,3.075,0.51c2.12,0,3.815-0.54,5.085-1.62
		s2.075-2.5,2.415-4.26L123.374,507.21z M93.494,502.319h2.7V510h-3.06v3.6h10.26V510h-3.42v-4.8c0-1.08,0.24-1.91,0.72-2.49
		s1.14-0.87,1.98-0.87s1.47,0.245,1.89,0.735c0.42,0.489,0.63,1.145,0.63,1.965v0.42l3.9-0.36v-0.66c0-1.899-0.45-3.314-1.35-4.244
		c-0.9-0.931-2.09-1.396-3.57-1.396c-0.94,0-1.745,0.226-2.415,0.675c-0.67,0.45-1.145,1.085-1.425,1.905h-0.54v-2.16h-6.3V502.319z
		 M85.139,502.41c0.63,0.46,1.005,1.04,1.125,1.739h-7.02c0.18-0.64,0.57-1.205,1.17-1.694c0.6-0.49,1.38-0.735,2.34-0.735
		S84.509,501.95,85.139,502.41 M90.104,507.39v-2.01c0-0.78-0.14-1.585-0.42-2.415c-0.28-0.83-0.72-1.59-1.32-2.28
		s-1.36-1.26-2.28-1.71c-0.92-0.449-2.02-0.675-3.3-0.675c-1.04,0-2.015,0.185-2.925,0.556c-0.91,0.369-1.705,0.885-2.385,1.545
		c-0.68,0.659-1.215,1.459-1.605,2.399c-0.39,0.94-0.585,1.98-0.585,3.12v0.18c0,1.24,0.185,2.351,0.555,3.33
		c0.37,0.98,0.89,1.811,1.56,2.49s1.465,1.2,2.385,1.56c0.92,0.36,1.94,0.54,3.06,0.54c0.98,0,1.835-0.109,2.565-0.33
		c0.73-0.22,1.35-0.5,1.86-0.84c0.51-0.34,0.925-0.715,1.245-1.125c0.32-0.41,0.57-0.805,0.75-1.185l-3.24-1.8
		c-0.22,0.46-0.58,0.854-1.08,1.185s-1.22,0.495-2.16,0.495c-0.48,0-0.935-0.075-1.365-0.226c-0.43-0.149-0.81-0.359-1.14-0.63
		c-0.33-0.27-0.59-0.59-0.78-0.96s-0.295-0.774-0.315-1.215H90.104z M68.294,507.21c-0.18,0.979-0.575,1.76-1.185,2.34
		s-1.495,0.87-2.655,0.87c-0.54,0-1.05-0.085-1.53-0.255s-0.9-0.425-1.26-0.766c-0.36-0.34-0.645-0.765-0.855-1.274
		s-0.315-1.095-0.315-1.755v-0.181c0-0.659,0.105-1.255,0.315-1.784c0.21-0.53,0.495-0.98,0.855-1.351
		c0.36-0.37,0.78-0.655,1.26-0.854c0.48-0.2,0.99-0.301,1.53-0.301c1.16,0,2.06,0.32,2.7,0.96c0.64,0.641,1.02,1.4,1.14,2.28
		l3.72-0.96c-0.34-1.76-1.155-3.18-2.445-4.26s-2.975-1.62-5.055-1.62c-1.08,0-2.095,0.181-3.045,0.54
		c-0.95,0.359-1.78,0.88-2.49,1.561c-0.71,0.68-1.265,1.499-1.665,2.459s-0.6,2.04-0.6,3.24v0.36c0,1.2,0.2,2.27,0.6,3.21
		c0.4,0.939,0.95,1.729,1.65,2.37c0.7,0.64,1.525,1.13,2.475,1.47c0.95,0.34,1.975,0.51,3.075,0.51c2.12,0,3.815-0.54,5.085-1.62
		s2.075-2.5,2.415-4.26L68.294,507.21z M42.764,509.325c-0.66-0.73-0.99-1.726-0.99-2.985v-0.36c0-1.26,0.33-2.255,0.99-2.984
		c0.66-0.73,1.54-1.096,2.64-1.096s1.98,0.365,2.64,1.096c0.66,0.729,0.99,1.725,0.99,2.984v0.36c0,1.26-0.33,2.255-0.99,2.985
		c-0.66,0.729-1.54,1.095-2.64,1.095S43.424,510.055,42.764,509.325 M49.304,511.439c0,0.641,0.215,1.16,0.645,1.561
		c0.43,0.399,0.985,0.6,1.665,0.6h2.58V510h-0.57c-0.54,0-0.81-0.3-0.81-0.9v-10.38h-3.78v1.8h-0.54
		c-0.38-0.76-0.895-1.32-1.545-1.68c-0.65-0.359-1.505-0.54-2.565-0.54c-0.88,0-1.705,0.175-2.475,0.524
		c-0.77,0.351-1.445,0.855-2.025,1.516s-1.04,1.46-1.38,2.4c-0.34,0.939-0.51,2-0.51,3.18v0.479c0,1.2,0.175,2.271,0.525,3.21
		c0.35,0.94,0.825,1.74,1.425,2.4s1.295,1.16,2.085,1.5s1.635,0.51,2.535,0.51c0.96,0,1.8-0.194,2.52-0.585
		c0.72-0.39,1.28-1.055,1.68-1.995H49.304z"/>
	<path clip-path="url(#SVGID_2_)" fill="#231F20" d="M246.404,463.15c-0.48-0.181-0.9-0.44-1.26-0.781
		c-0.36-0.34-0.645-0.754-0.855-1.244s-0.315-1.045-0.315-1.665v-0.601c0-0.619,0.105-1.175,0.315-1.664
		c0.21-0.49,0.495-0.905,0.855-1.246c0.36-0.34,0.78-0.6,1.26-0.779s0.99-0.27,1.53-0.27s1.05,0.09,1.53,0.27s0.9,0.439,1.26,0.779
		c0.36,0.341,0.645,0.756,0.855,1.246c0.21,0.489,0.315,1.045,0.315,1.664v0.601c0,0.62-0.105,1.175-0.315,1.665
		s-0.495,0.904-0.855,1.244c-0.36,0.341-0.78,0.601-1.26,0.781c-0.48,0.18-0.99,0.27-1.53,0.27S246.884,463.33,246.404,463.15
		 M255.674,458.98c0-1.221-0.21-2.306-0.63-3.256c-0.42-0.949-0.99-1.755-1.71-2.415c-0.72-0.659-1.545-1.159-2.475-1.5
		c-0.93-0.34-1.905-0.51-2.925-0.51s-1.995,0.17-2.925,0.51c-0.93,0.341-1.755,0.841-2.475,1.5c-0.72,0.66-1.29,1.466-1.71,2.415
		c-0.42,0.95-0.63,2.035-0.63,3.256v0.359c0,1.24,0.21,2.335,0.63,3.285c0.42,0.949,0.99,1.75,1.71,2.4
		c0.72,0.649,1.545,1.145,2.475,1.484c0.93,0.34,1.905,0.51,2.925,0.51s1.995-0.17,2.925-0.51s1.755-0.835,2.475-1.484
		c0.72-0.65,1.29-1.451,1.71-2.4c0.42-0.95,0.63-2.045,0.63-3.285V458.98z M229.049,445.029c-0.37-0.18-0.755-0.27-1.155-0.27
		c-0.5,0-0.96,0.1-1.38,0.3c-0.42,0.2-0.82,0.54-1.2,1.021l-1.68,2.16l2.31,1.83l0.9-1.141c0.16-0.22,0.325-0.395,0.495-0.525
		c0.17-0.129,0.395-0.194,0.675-0.194c0.28,0,0.5,0.075,0.66,0.225c0.16,0.15,0.32,0.315,0.48,0.495
		c0.34,0.4,0.695,0.689,1.065,0.87c0.37,0.181,0.755,0.271,1.155,0.271c0.52,0,0.99-0.105,1.41-0.315
		c0.42-0.21,0.81-0.545,1.17-1.005l1.68-2.16l-2.31-1.83l-0.9,1.141c-0.16,0.219-0.325,0.395-0.495,0.524
		c-0.17,0.13-0.395,0.194-0.675,0.194s-0.5-0.074-0.66-0.225c-0.16-0.15-0.32-0.314-0.48-0.494
		C229.774,445.5,229.419,445.21,229.049,445.029 M226.364,462.324c-0.66-0.729-0.99-1.725-0.99-2.984v-0.359
		c0-1.261,0.33-2.256,0.99-2.986c0.66-0.729,1.54-1.094,2.64-1.094s1.98,0.364,2.64,1.094c0.66,0.73,0.99,1.726,0.99,2.986v0.359
		c0,1.26-0.33,2.255-0.99,2.984c-0.66,0.73-1.54,1.096-2.64,1.096S227.024,463.055,226.364,462.324 M232.904,464.439
		c0,0.641,0.215,1.16,0.645,1.561c0.43,0.4,0.985,0.6,1.665,0.6h2.58V463h-0.57c-0.54,0-0.81-0.301-0.81-0.9v-10.38h-3.78v1.8h-0.54
		c-0.38-0.76-0.895-1.32-1.545-1.68s-1.505-0.54-2.565-0.54c-0.88,0-1.705,0.175-2.475,0.524c-0.77,0.351-1.445,0.855-2.025,1.516
		s-1.04,1.46-1.38,2.4c-0.34,0.939-0.51,2-0.51,3.18v0.48c0,1.199,0.175,2.27,0.525,3.209c0.35,0.94,0.825,1.74,1.425,2.4
		s1.295,1.16,2.085,1.5s1.635,0.51,2.535,0.51c0.96,0,1.8-0.195,2.52-0.585c0.72-0.39,1.28-1.055,1.68-1.995H232.904z
		 M215.174,460.21c-0.18,0.979-0.575,1.76-1.185,2.34c-0.61,0.58-1.495,0.87-2.655,0.87c-0.54,0-1.05-0.085-1.53-0.255
		c-0.48-0.171-0.9-0.425-1.26-0.765c-0.36-0.341-0.645-0.766-0.855-1.275s-0.315-1.096-0.315-1.756v-0.18
		c0-0.66,0.105-1.255,0.315-1.785c0.21-0.529,0.495-0.979,0.855-1.35s0.78-0.654,1.26-0.855c0.48-0.199,0.99-0.299,1.53-0.299
		c1.16,0,2.06,0.319,2.7,0.959c0.64,0.641,1.02,1.4,1.14,2.28l3.72-0.96c-0.34-1.76-1.155-3.18-2.445-4.26s-2.975-1.62-5.055-1.62
		c-1.08,0-2.095,0.181-3.045,0.54c-0.95,0.359-1.78,0.88-2.49,1.561c-0.71,0.68-1.265,1.5-1.665,2.459
		c-0.4,0.961-0.6,2.041-0.6,3.24v0.36c0,1.08,0.165,2.06,0.495,2.94c0.33,0.879,0.785,1.635,1.365,2.265
		c0.58,0.63,1.275,1.135,2.085,1.515s1.685,0.63,2.625,0.75l-0.51,2.43v0.36h2.91c0.06-0.28,0.26-0.42,0.6-0.42
		c0.2,0,0.35,0.065,0.45,0.194c0.1,0.131,0.15,0.285,0.15,0.466c0,0.239-0.095,0.43-0.285,0.569
		c-0.19,0.141-0.435,0.211-0.735,0.211c-0.54,0-1.04-0.141-1.5-0.42l-0.78,2.039c0.34,0.181,0.7,0.325,1.08,0.436
		c0.38,0.109,0.86,0.165,1.44,0.165c0.94,0,1.725-0.265,2.355-0.795s0.945-1.265,0.945-2.205c0-0.72-0.205-1.341-0.615-1.86
		s-1.035-0.779-1.875-0.779c-0.38,0-0.68,0.064-0.9,0.194c-0.22,0.13-0.38,0.285-0.48,0.466h-0.36l0.21-1.021
		c1.88-0.16,3.375-0.761,4.485-1.8c1.11-1.041,1.825-2.381,2.145-4.021L215.174,460.21z M189.644,462.324
		c-0.66-0.729-0.99-1.725-0.99-2.984v-0.359c0-1.261,0.33-2.256,0.99-2.986c0.66-0.729,1.54-1.094,2.64-1.094
		c1.1,0,1.98,0.364,2.64,1.094c0.66,0.73,0.99,1.726,0.99,2.986v0.359c0,1.26-0.33,2.255-0.99,2.984
		c-0.66,0.73-1.54,1.096-2.64,1.096C191.184,463.42,190.304,463.055,189.644,462.324 M196.184,464.439
		c0,0.641,0.215,1.16,0.645,1.561c0.43,0.4,0.985,0.6,1.665,0.6h2.58V463h-0.57c-0.54,0-0.81-0.301-0.81-0.9v-10.38h-3.78v1.8h-0.54
		c-0.38-0.76-0.895-1.32-1.545-1.68c-0.65-0.359-1.505-0.54-2.565-0.54c-0.88,0-1.705,0.175-2.475,0.524
		c-0.77,0.351-1.445,0.855-2.025,1.516c-0.58,0.66-1.04,1.46-1.38,2.4c-0.34,0.939-0.51,2-0.51,3.18v0.48
		c0,1.199,0.175,2.27,0.525,3.209c0.35,0.94,0.825,1.74,1.425,2.4c0.6,0.66,1.295,1.16,2.085,1.5c0.79,0.34,1.635,0.51,2.535,0.51
		c0.96,0,1.8-0.195,2.52-0.585c0.72-0.39,1.28-1.055,1.68-1.995H196.184z M182.594,455.08c0-1.18-0.3-2.105-0.9-2.775
		s-1.4-1.005-2.4-1.005c-0.76,0-1.395,0.175-1.905,0.524c-0.51,0.351-0.845,0.795-1.005,1.336h-0.54
		c-0.16-0.541-0.47-0.985-0.93-1.336c-0.46-0.35-1.02-0.524-1.68-0.524c-0.7,0-1.265,0.175-1.695,0.524
		c-0.43,0.351-0.705,0.795-0.825,1.336h-0.54v-1.44h-3.78v14.88h3.78v-10.26c0-0.48,0.12-0.84,0.36-1.08
		c0.24-0.24,0.54-0.359,0.9-0.359c0.32,0,0.595,0.104,0.825,0.314s0.345,0.525,0.345,0.945V466.6h3.78v-10.26
		c0-0.48,0.115-0.84,0.345-1.08s0.545-0.359,0.945-0.359c0.34,0,0.615,0.104,0.825,0.314s0.315,0.525,0.315,0.945V466.6h3.78V455.08
		z M148.574,455.32h2.7V463h-3.06v3.6h10.26V463h-3.42v-4.801c0-1.08,0.24-1.909,0.72-2.489s1.14-0.87,1.98-0.87
		s1.47,0.245,1.89,0.734c0.42,0.49,0.63,1.146,0.63,1.966v0.42l3.9-0.36v-0.66c0-1.899-0.45-3.314-1.35-4.244
		c-0.9-0.931-2.09-1.396-3.57-1.396c-0.94,0-1.745,0.226-2.415,0.675c-0.67,0.45-1.145,1.085-1.425,1.905h-0.54v-2.16h-6.3V455.32z
		 M136.244,463.15c-0.48-0.181-0.9-0.44-1.26-0.781c-0.36-0.34-0.645-0.754-0.855-1.244s-0.315-1.045-0.315-1.665v-0.601
		c0-0.619,0.105-1.175,0.315-1.664c0.21-0.49,0.495-0.905,0.855-1.246c0.36-0.34,0.78-0.6,1.26-0.779c0.48-0.18,0.99-0.27,1.53-0.27
		s1.05,0.09,1.53,0.27s0.9,0.439,1.26,0.779c0.36,0.341,0.645,0.756,0.855,1.246c0.21,0.489,0.315,1.045,0.315,1.664v0.601
		c0,0.62-0.105,1.175-0.315,1.665s-0.495,0.904-0.855,1.244c-0.36,0.341-0.78,0.601-1.26,0.781c-0.48,0.18-0.99,0.27-1.53,0.27
		S136.724,463.33,136.244,463.15 M145.514,458.98c0-1.221-0.21-2.306-0.63-3.256c-0.42-0.949-0.99-1.755-1.71-2.415
		c-0.72-0.659-1.545-1.159-2.475-1.5c-0.93-0.34-1.905-0.51-2.925-0.51s-1.995,0.17-2.925,0.51c-0.93,0.341-1.755,0.841-2.475,1.5
		c-0.72,0.66-1.29,1.466-1.71,2.415c-0.42,0.95-0.63,2.035-0.63,3.256v0.359c0,1.24,0.21,2.335,0.63,3.285
		c0.42,0.949,0.99,1.75,1.71,2.4c0.72,0.649,1.545,1.145,2.475,1.484c0.93,0.34,1.905,0.51,2.925,0.51s1.995-0.17,2.925-0.51
		c0.93-0.34,1.755-0.835,2.475-1.484c0.72-0.65,1.29-1.451,1.71-2.4c0.42-0.95,0.63-2.045,0.63-3.285V458.98z M112.454,455.32h4.23
		V466.6h3.78V455.32h5.85v-3.601h-5.85v-1.62c0-0.6,0.27-0.9,0.81-0.9h4.5v-3.6h-6.06c-0.86,0-1.58,0.295-2.16,0.885
		c-0.58,0.59-0.87,1.315-0.87,2.176v3.06h-4.23V455.32z M97.994,458.859c0-1.26,0.275-2.265,0.825-3.015
		c0.55-0.75,1.385-1.125,2.505-1.125c0.96,0,1.695,0.306,2.205,0.915c0.51,0.609,0.765,1.445,0.765,2.505v8.46h3.78v-9.42
		c0-1.02-0.135-1.9-0.405-2.64c-0.27-0.74-0.645-1.351-1.125-1.83s-1.035-0.835-1.665-1.065c-0.63-0.229-1.305-0.345-2.025-0.345
		c-1.02,0-1.91,0.229-2.67,0.69c-0.76,0.459-1.31,1.109-1.65,1.949h-0.54v-2.22h-3.78v14.88h3.78V458.859z M85.649,446.185
		c-0.15-0.35-0.355-0.649-0.615-0.899c-0.26-0.25-0.565-0.45-0.915-0.601c-0.35-0.149-0.715-0.225-1.095-0.225
		c-0.4,0-0.77,0.075-1.11,0.225c-0.34,0.15-0.64,0.351-0.9,0.601c-0.26,0.25-0.465,0.55-0.615,0.899
		c-0.15,0.351-0.225,0.726-0.225,1.125c0,0.4,0.075,0.775,0.225,1.125c0.15,0.351,0.355,0.65,0.615,0.9c0.26,0.25,0.56,0.45,0.9,0.6
		c0.34,0.15,0.71,0.226,1.11,0.226c0.38,0,0.745-0.075,1.095-0.226c0.35-0.149,0.655-0.35,0.915-0.6c0.26-0.25,0.465-0.55,0.615-0.9
		c0.15-0.35,0.225-0.725,0.225-1.125C85.874,446.91,85.799,446.535,85.649,446.185 M76.124,466.6h13.14V463h-4.32v-11.28h-8.46
		v3.601h4.68V463h-5.04V466.6z M48.419,455.41c0.63,0.459,1.005,1.039,1.125,1.74h-7.02c0.18-0.641,0.57-1.205,1.17-1.695
		s1.38-0.735,2.34-0.735C46.994,454.72,47.789,454.949,48.419,455.41 M53.384,460.39v-2.01c0-0.78-0.14-1.585-0.42-2.415
		c-0.28-0.83-0.72-1.59-1.32-2.28s-1.36-1.26-2.28-1.71c-0.92-0.449-2.02-0.675-3.3-0.675c-1.04,0-2.015,0.185-2.925,0.556
		c-0.91,0.369-1.705,0.885-2.385,1.545c-0.68,0.659-1.215,1.459-1.605,2.399s-0.585,1.979-0.585,3.12v0.18
		c0,1.24,0.185,2.35,0.555,3.33c0.37,0.98,0.89,1.811,1.56,2.49c0.67,0.68,1.465,1.199,2.385,1.561
		c0.92,0.359,1.94,0.539,3.06,0.539c0.98,0,1.835-0.109,2.565-0.33c0.73-0.22,1.35-0.5,1.86-0.84c0.51-0.34,0.925-0.715,1.245-1.125
		s0.57-0.805,0.75-1.185l-3.24-1.8c-0.22,0.459-0.58,0.854-1.08,1.185s-1.22,0.495-2.16,0.495c-0.48,0-0.935-0.075-1.365-0.225
		c-0.43-0.15-0.81-0.36-1.14-0.631c-0.33-0.27-0.59-0.59-0.78-0.959c-0.19-0.371-0.295-0.775-0.315-1.216H53.384z"/>
	<path clip-path="url(#SVGID_2_)" fill="#231F20" d="M264.674,408.064c0.32-0.229,0.8-0.345,1.44-0.345c0.7,0,1.27,0.155,1.71,0.466
		c0.44,0.31,0.75,0.734,0.93,1.274l3.42-1.38c-0.16-0.42-0.39-0.855-0.69-1.305c-0.3-0.45-0.69-0.86-1.17-1.23
		s-1.065-0.67-1.755-0.9c-0.69-0.229-1.505-0.345-2.445-0.345c-0.72,0-1.42,0.101-2.1,0.3c-0.68,0.2-1.28,0.495-1.8,0.885
		c-0.52,0.391-0.941,0.865-1.26,1.426c-0.32,0.56-0.48,1.21-0.48,1.949v0.181c0,1.42,0.495,2.495,1.485,3.226
		c0.99,0.729,2.325,1.164,4.005,1.305c0.619,0.06,1.135,0.14,1.545,0.24c0.41,0.1,0.735,0.225,0.975,0.375
		c0.24,0.149,0.405,0.31,0.495,0.479c0.09,0.17,0.135,0.354,0.135,0.555c0,0.341-0.175,0.655-0.525,0.945s-0.995,0.435-1.935,0.435
		c-1.06,0-1.845-0.24-2.355-0.72c-0.51-0.479-0.845-1.04-1.005-1.68l-3.48,1.14c0.1,0.52,0.295,1.055,0.585,1.605
		c0.29,0.55,0.705,1.05,1.245,1.5c0.54,0.449,1.22,0.824,2.04,1.125c0.82,0.3,1.81,0.449,2.97,0.449c1.96,0,3.48-0.439,4.56-1.319
		s1.62-2.06,1.62-3.54v-0.18c0-1.34-0.48-2.386-1.44-3.136s-2.2-1.204-3.72-1.364c-1.32-0.141-2.23-0.315-2.73-0.525
		s-0.75-0.555-0.75-1.035C264.194,408.58,264.354,408.295,264.674,408.064 M246.404,416.15c-0.48-0.181-0.9-0.44-1.26-0.78
		c-0.36-0.341-0.645-0.755-0.855-1.245s-0.315-1.045-0.315-1.665v-0.601c0-0.619,0.105-1.174,0.315-1.664s0.495-0.905,0.855-1.245
		c0.36-0.341,0.78-0.601,1.26-0.78s0.99-0.27,1.53-0.27s1.05,0.09,1.53,0.27s0.9,0.439,1.26,0.78c0.36,0.34,0.645,0.755,0.855,1.245
		s0.315,1.045,0.315,1.664v0.601c0,0.62-0.105,1.175-0.315,1.665s-0.495,0.904-0.855,1.245c-0.36,0.34-0.78,0.6-1.26,0.78
		c-0.48,0.18-0.99,0.27-1.53,0.27S246.884,416.33,246.404,416.15 M255.674,411.98c0-1.221-0.21-2.306-0.63-3.256
		c-0.42-0.949-0.99-1.755-1.71-2.414c-0.72-0.66-1.545-1.16-2.475-1.5c-0.93-0.341-1.905-0.511-2.925-0.511s-1.995,0.17-2.925,0.511
		c-0.93,0.34-1.755,0.84-2.475,1.5c-0.72,0.659-1.29,1.465-1.71,2.414c-0.42,0.95-0.63,2.035-0.63,3.256v0.359
		c0,1.24,0.21,2.335,0.63,3.285c0.42,0.95,0.99,1.75,1.71,2.4c0.72,0.649,1.545,1.145,2.475,1.484c0.93,0.34,1.905,0.51,2.925,0.51
		s1.995-0.17,2.925-0.51s1.755-0.835,2.475-1.484c0.72-0.65,1.29-1.45,1.71-2.4s0.63-2.045,0.63-3.285V411.98z M222.314,408.32h4.41
		v8.939c0,0.68,0.215,1.24,0.645,1.68c0.43,0.44,0.985,0.66,1.665,0.66h6.3V416h-4.02c-0.54,0-0.81-0.3-0.81-0.9v-6.779h5.37v-3.601
		h-5.37v-6.12h-3.78v6.12h-4.41V408.32z M208.154,411.859c0-1.26,0.275-2.265,0.825-3.015c0.55-0.75,1.385-1.125,2.505-1.125
		c0.96,0,1.695,0.306,2.205,0.915c0.51,0.61,0.765,1.445,0.765,2.506v8.459h3.78v-9.42c0-1.02-0.135-1.9-0.405-2.64
		c-0.27-0.74-0.645-1.351-1.125-1.83s-1.035-0.835-1.665-1.065c-0.63-0.229-1.305-0.345-2.025-0.345c-1.02,0-1.91,0.229-2.67,0.69
		c-0.76,0.46-1.31,1.109-1.65,1.949h-0.54v-2.22h-3.78v14.88h3.78V411.859z M195.299,408.41c0.63,0.46,1.005,1.04,1.125,1.74h-7.02
		c0.18-0.641,0.57-1.205,1.17-1.695c0.6-0.49,1.38-0.735,2.34-0.735S194.669,407.95,195.299,408.41 M200.264,413.391v-2.011
		c0-0.78-0.14-1.585-0.42-2.415c-0.28-0.83-0.72-1.59-1.32-2.279c-0.6-0.69-1.36-1.261-2.28-1.711c-0.92-0.449-2.02-0.675-3.3-0.675
		c-1.04,0-2.015,0.185-2.925,0.556c-0.91,0.369-1.705,0.885-2.385,1.545c-0.68,0.66-1.215,1.459-1.605,2.399
		s-0.585,1.979-0.585,3.12v0.18c0,1.24,0.185,2.351,0.555,3.33c0.37,0.98,0.89,1.811,1.56,2.49c0.67,0.68,1.465,1.2,2.385,1.561
		c0.92,0.359,1.94,0.539,3.06,0.539c0.98,0,1.835-0.109,2.565-0.33c0.73-0.22,1.35-0.5,1.86-0.84c0.51-0.34,0.925-0.715,1.245-1.125
		c0.32-0.41,0.57-0.805,0.75-1.185l-3.24-1.8c-0.22,0.46-0.58,0.854-1.08,1.185s-1.22,0.495-2.16,0.495
		c-0.48,0-0.935-0.075-1.365-0.225c-0.43-0.15-0.81-0.36-1.14-0.631c-0.33-0.27-0.59-0.59-0.78-0.959
		c-0.19-0.371-0.295-0.775-0.315-1.215H200.264z M182.594,408.08c0-1.18-0.3-2.105-0.9-2.775s-1.4-1.005-2.4-1.005
		c-0.76,0-1.395,0.175-1.905,0.525c-0.51,0.35-0.845,0.795-1.005,1.335h-0.54c-0.16-0.54-0.47-0.985-0.93-1.335
		c-0.46-0.351-1.02-0.525-1.68-0.525c-0.7,0-1.265,0.175-1.695,0.525c-0.43,0.35-0.705,0.795-0.825,1.335h-0.54v-1.44h-3.78v14.88
		h3.78v-10.26c0-0.48,0.12-0.84,0.36-1.08c0.24-0.24,0.54-0.359,0.9-0.359c0.32,0,0.595,0.104,0.825,0.314s0.345,0.525,0.345,0.945
		V419.6h3.78v-10.26c0-0.48,0.115-0.84,0.345-1.08s0.545-0.359,0.945-0.359c0.34,0,0.615,0.104,0.825,0.314s0.315,0.525,0.315,0.945
		V419.6h3.78V408.08z M153.089,415.325c-0.73-0.73-1.095-1.726-1.095-2.985v-0.359c0-1.261,0.365-2.256,1.095-2.985
		s1.685-1.095,2.865-1.095c1.18,0,2.135,0.375,2.865,1.125s1.095,1.734,1.095,2.955v0.359c0,1.221-0.365,2.205-1.095,2.955
		s-1.685,1.125-2.865,1.125C154.774,416.42,153.819,416.055,153.089,415.325 M159.914,421.1c0,0.601-0.27,0.9-0.81,0.9h-7.74v3.6
		h10.02c0.68,0,1.235-0.22,1.665-0.66c0.43-0.439,0.645-1,0.645-1.68v-18.54h-3.78v2.16h-0.54c-0.4-0.819-0.95-1.455-1.65-1.905
		c-0.7-0.449-1.65-0.675-2.85-0.675c-0.9,0-1.755,0.17-2.565,0.511c-0.81,0.34-1.52,0.834-2.13,1.484
		c-0.61,0.65-1.09,1.445-1.44,2.385c-0.35,0.94-0.525,2.01-0.525,3.211v0.539c0,1.221,0.165,2.301,0.495,3.24s0.79,1.734,1.38,2.385
		s1.28,1.141,2.07,1.471c0.79,0.33,1.645,0.494,2.565,0.494c0.72,0,1.335-0.069,1.845-0.209c0.51-0.141,0.95-0.33,1.32-0.57
		c0.37-0.24,0.67-0.516,0.9-0.825s0.425-0.636,0.585-0.976h0.54V421.1z M134.564,415.325c-0.66-0.73-0.99-1.726-0.99-2.985v-0.359
		c0-1.261,0.33-2.256,0.99-2.985s1.54-1.095,2.64-1.095c1.1,0,1.98,0.365,2.64,1.095c0.66,0.729,0.99,1.725,0.99,2.985v0.359
		c0,1.26-0.33,2.255-0.99,2.985c-0.66,0.729-1.54,1.095-2.64,1.095C136.104,416.42,135.224,416.055,134.564,415.325
		 M141.104,417.439c0,0.641,0.215,1.16,0.645,1.561c0.43,0.4,0.985,0.6,1.665,0.6h2.58V416h-0.57c-0.54,0-0.81-0.3-0.81-0.9v-10.38
		h-3.78v1.8h-0.54c-0.38-0.76-0.895-1.319-1.545-1.68c-0.65-0.359-1.505-0.54-2.565-0.54c-0.88,0-1.705,0.175-2.475,0.525
		c-0.77,0.35-1.445,0.854-2.025,1.515c-0.58,0.66-1.04,1.46-1.38,2.4c-0.34,0.939-0.51,2-0.51,3.18v0.48
		c0,1.199,0.175,2.27,0.525,3.209c0.35,0.94,0.825,1.74,1.425,2.4c0.6,0.66,1.295,1.16,2.085,1.5s1.635,0.51,2.535,0.51
		c0.96,0,1.8-0.194,2.52-0.584c0.72-0.391,1.28-1.056,1.68-1.996H141.104z M111.854,408.32h2.7V416h-3.06v3.6h10.26V416h-3.42v-4.8
		c0-1.08,0.24-1.91,0.72-2.49s1.14-0.87,1.98-0.87c0.84,0,1.47,0.245,1.89,0.735c0.42,0.489,0.63,1.145,0.63,1.965v0.42l3.9-0.36
		v-0.66c0-1.899-0.45-3.314-1.35-4.244s-2.09-1.396-3.57-1.396c-0.94,0-1.745,0.226-2.415,0.675c-0.67,0.45-1.145,1.086-1.425,1.905
		h-0.54v-2.16h-6.3V408.32z M94.094,408.32h4.23V419.6h3.78V408.32h5.85v-3.601h-5.85v-1.62c0-0.6,0.27-0.899,0.81-0.899h4.5V398.6
		h-6.06c-0.86,0-1.58,0.295-2.16,0.885c-0.58,0.591-0.87,1.315-0.87,2.176v3.06h-4.23V408.32z M62.714,408.064
		c0.32-0.229,0.8-0.345,1.44-0.345c0.7,0,1.27,0.155,1.71,0.466c0.44,0.31,0.75,0.734,0.93,1.274l3.42-1.38
		c-0.16-0.42-0.39-0.855-0.69-1.305c-0.3-0.45-0.69-0.86-1.17-1.23s-1.065-0.67-1.755-0.9c-0.69-0.229-1.505-0.345-2.445-0.345
		c-0.72,0-1.42,0.101-2.1,0.3c-0.68,0.2-1.28,0.495-1.8,0.885c-0.52,0.391-0.94,0.865-1.26,1.426c-0.32,0.56-0.48,1.21-0.48,1.949
		v0.181c0,1.42,0.495,2.495,1.485,3.226c0.99,0.729,2.325,1.164,4.005,1.305c0.62,0.06,1.135,0.14,1.545,0.24
		c0.41,0.1,0.735,0.225,0.975,0.375c0.24,0.149,0.405,0.31,0.495,0.479c0.09,0.17,0.135,0.354,0.135,0.555
		c0,0.341-0.175,0.655-0.525,0.945s-0.995,0.435-1.935,0.435c-1.06,0-1.845-0.24-2.355-0.72c-0.51-0.479-0.845-1.04-1.005-1.68
		l-3.48,1.14c0.1,0.52,0.295,1.055,0.585,1.605c0.29,0.55,0.705,1.05,1.245,1.5c0.54,0.449,1.22,0.824,2.04,1.125
		c0.82,0.3,1.81,0.449,2.97,0.449c1.96,0,3.48-0.439,4.56-1.319s1.62-2.06,1.62-3.54v-0.18c0-1.34-0.48-2.386-1.44-3.136
		s-2.2-1.204-3.72-1.364c-1.32-0.141-2.23-0.315-2.73-0.525s-0.75-0.555-0.75-1.035C62.234,408.58,62.394,408.295,62.714,408.064
		 M44.444,416.15c-0.48-0.181-0.9-0.44-1.26-0.78c-0.36-0.341-0.645-0.755-0.855-1.245s-0.315-1.045-0.315-1.665v-0.601
		c0-0.619,0.105-1.174,0.315-1.664s0.495-0.905,0.855-1.245c0.36-0.341,0.78-0.601,1.26-0.78s0.99-0.27,1.53-0.27
		c0.54,0,1.05,0.09,1.53,0.27s0.9,0.439,1.26,0.78c0.36,0.34,0.645,0.755,0.855,1.245c0.21,0.49,0.315,1.045,0.315,1.664v0.601
		c0,0.62-0.105,1.175-0.315,1.665c-0.21,0.49-0.495,0.904-0.855,1.245c-0.36,0.34-0.78,0.6-1.26,0.78
		c-0.48,0.18-0.99,0.27-1.53,0.27C45.434,416.42,44.924,416.33,44.444,416.15 M53.714,411.98c0-1.221-0.21-2.306-0.63-3.256
		c-0.42-0.949-0.99-1.755-1.71-2.414c-0.72-0.66-1.545-1.16-2.475-1.5c-0.93-0.341-1.905-0.511-2.925-0.511s-1.995,0.17-2.925,0.511
		c-0.93,0.34-1.755,0.84-2.475,1.5c-0.72,0.659-1.29,1.465-1.71,2.414c-0.42,0.95-0.63,2.035-0.63,3.256v0.359
		c0,1.24,0.21,2.335,0.63,3.285s0.99,1.75,1.71,2.4c0.72,0.649,1.545,1.145,2.475,1.484c0.93,0.34,1.905,0.51,2.925,0.51
		s1.995-0.17,2.925-0.51s1.755-0.835,2.475-1.484c0.72-0.65,1.29-1.45,1.71-2.4s0.63-2.045,0.63-3.285V411.98z"/>
	<path clip-path="url(#SVGID_2_)" fill="#231F20" d="M338.114,361.064c0.318-0.229,0.799-0.345,1.439-0.345
		c0.7,0,1.271,0.155,1.71,0.466c0.439,0.31,0.75,0.734,0.931,1.274l3.42-1.38c-0.161-0.42-0.391-0.855-0.69-1.305
		c-0.3-0.45-0.689-0.86-1.17-1.23c-0.479-0.37-1.064-0.67-1.755-0.9c-0.69-0.229-1.505-0.345-2.445-0.345
		c-0.72,0-1.421,0.101-2.1,0.3c-0.68,0.2-1.28,0.495-1.8,0.885c-0.521,0.391-0.941,0.865-1.261,1.426
		c-0.319,0.56-0.479,1.21-0.479,1.949v0.181c0,1.42,0.495,2.495,1.485,3.226c0.989,0.729,2.324,1.164,4.005,1.305
		c0.619,0.06,1.135,0.14,1.545,0.24c0.409,0.1,0.734,0.225,0.975,0.375c0.24,0.149,0.405,0.31,0.495,0.479s0.135,0.354,0.135,0.555
		c0,0.341-0.176,0.655-0.524,0.945c-0.351,0.29-0.995,0.435-1.936,0.435c-1.061,0-1.845-0.24-2.354-0.72
		c-0.511-0.479-0.846-1.04-1.005-1.68l-3.48,1.14c0.1,0.52,0.295,1.055,0.585,1.605c0.289,0.55,0.705,1.05,1.245,1.5
		c0.54,0.449,1.219,0.824,2.04,1.125c0.82,0.3,1.81,0.449,2.97,0.449c1.96,0,3.48-0.439,4.561-1.319s1.62-2.06,1.62-3.54v-0.18
		c0-1.34-0.48-2.386-1.44-3.136s-2.201-1.204-3.72-1.364c-1.32-0.141-2.231-0.315-2.73-0.525c-0.5-0.21-0.75-0.555-0.75-1.035
		C337.634,361.58,337.794,361.295,338.114,361.064 M319.844,369.15c-0.479-0.181-0.899-0.44-1.26-0.78
		c-0.36-0.341-0.645-0.755-0.855-1.245c-0.21-0.49-0.314-1.045-0.314-1.665v-0.601c0-0.619,0.104-1.174,0.314-1.664
		c0.211-0.49,0.495-0.905,0.855-1.245c0.36-0.341,0.78-0.601,1.26-0.78c0.48-0.18,0.99-0.27,1.53-0.27s1.05,0.09,1.53,0.27
		c0.479,0.18,0.899,0.439,1.26,0.78c0.36,0.34,0.645,0.755,0.854,1.245s0.315,1.045,0.315,1.664v0.601
		c0,0.62-0.105,1.175-0.315,1.665s-0.494,0.904-0.854,1.245c-0.36,0.34-0.78,0.6-1.26,0.78c-0.48,0.18-0.99,0.27-1.53,0.27
		S320.324,369.33,319.844,369.15 M329.114,364.98c0-1.221-0.21-2.306-0.63-3.256c-0.42-0.949-0.99-1.755-1.71-2.414
		c-0.721-0.66-1.546-1.16-2.476-1.5c-0.93-0.341-1.905-0.511-2.925-0.511c-1.021,0-1.995,0.17-2.925,0.511
		c-0.931,0.34-1.755,0.84-2.476,1.5c-0.72,0.659-1.29,1.465-1.71,2.414c-0.42,0.95-0.63,2.035-0.63,3.256v0.359
		c0,1.24,0.21,2.335,0.63,3.285s0.99,1.75,1.71,2.4c0.721,0.649,1.545,1.145,2.476,1.484c0.93,0.34,1.904,0.51,2.925,0.51
		c1.02,0,1.995-0.17,2.925-0.51s1.755-0.835,2.476-1.484c0.72-0.65,1.29-1.45,1.71-2.4s0.63-2.045,0.63-3.285V364.98z
		 M300.029,368.325c-0.731-0.73-1.096-1.726-1.096-2.985v-0.359c0-1.261,0.364-2.256,1.096-2.985
		c0.729-0.729,1.684-1.095,2.864-1.095s2.135,0.375,2.865,1.125s1.095,1.734,1.095,2.955v0.359c0,1.221-0.364,2.205-1.095,2.955
		s-1.685,1.125-2.865,1.125S300.759,369.055,300.029,368.325 M306.854,372.6h3.78v-21h-3.78v8.28h-0.539
		c-0.401-0.819-0.95-1.455-1.65-1.905c-0.701-0.449-1.65-0.675-2.85-0.675c-0.9,0-1.756,0.17-2.565,0.511
		c-0.81,0.34-1.521,0.834-2.13,1.484c-0.611,0.65-1.091,1.445-1.44,2.385c-0.35,0.94-0.524,2.01-0.524,3.211v0.539
		c0,1.221,0.165,2.301,0.495,3.24c0.329,0.939,0.79,1.734,1.38,2.385s1.279,1.141,2.069,1.471s1.646,0.494,2.565,0.494
		c0.72,0,1.335-0.069,1.845-0.209c0.51-0.141,0.949-0.33,1.32-0.57c0.37-0.24,0.67-0.516,0.899-0.825s0.425-0.636,0.586-0.976h0.539
		V372.6z M283.124,369.15c-0.48-0.181-0.9-0.44-1.26-0.78c-0.36-0.341-0.645-0.755-0.855-1.245s-0.315-1.045-0.315-1.665v-0.601
		c0-0.619,0.105-1.174,0.315-1.664s0.495-0.905,0.855-1.245c0.36-0.341,0.78-0.601,1.26-0.78c0.479-0.18,0.99-0.27,1.53-0.27
		s1.05,0.09,1.529,0.27c0.48,0.18,0.9,0.439,1.261,0.78c0.359,0.34,0.645,0.755,0.854,1.245s0.315,1.045,0.315,1.664v0.601
		c0,0.62-0.105,1.175-0.315,1.665s-0.495,0.904-0.854,1.245c-0.36,0.34-0.78,0.6-1.261,0.78c-0.479,0.18-0.989,0.27-1.529,0.27
		S283.604,369.33,283.124,369.15 M292.394,364.98c0-1.221-0.21-2.306-0.63-3.256c-0.42-0.949-0.989-1.755-1.71-2.414
		c-0.72-0.66-1.545-1.16-2.475-1.5c-0.93-0.341-1.905-0.511-2.925-0.511c-1.021,0-1.995,0.17-2.925,0.511
		c-0.93,0.34-1.755,0.84-2.475,1.5c-0.72,0.659-1.29,1.465-1.71,2.414c-0.42,0.95-0.63,2.035-0.63,3.256v0.359
		c0,1.24,0.21,2.335,0.63,3.285s0.99,1.75,1.71,2.4c0.72,0.649,1.545,1.145,2.475,1.484s1.905,0.51,2.925,0.51
		c1.02,0,1.995-0.17,2.925-0.51s1.755-0.835,2.475-1.484c0.721-0.65,1.29-1.45,1.71-2.4s0.63-2.045,0.63-3.285V364.98z
		 M259.034,361.32h4.41v8.939c0,0.68,0.214,1.24,0.645,1.68c0.43,0.44,0.985,0.66,1.665,0.66h6.3V369h-4.02
		c-0.54,0-0.81-0.3-0.81-0.9v-6.779h5.37v-3.601h-5.37v-6.12h-3.78v6.12h-4.41V361.32z M232.019,361.41
		c0.63,0.46,1.005,1.04,1.125,1.74h-7.02c0.18-0.641,0.57-1.205,1.17-1.695s1.38-0.735,2.34-0.735S231.389,360.95,232.019,361.41
		 M236.984,366.391v-2.011c0-0.78-0.14-1.585-0.42-2.415s-0.72-1.59-1.32-2.279c-0.6-0.69-1.36-1.261-2.28-1.711
		c-0.92-0.449-2.02-0.675-3.3-0.675c-1.04,0-2.015,0.185-2.925,0.556c-0.91,0.369-1.705,0.885-2.385,1.545s-1.215,1.459-1.605,2.399
		s-0.585,1.979-0.585,3.12v0.18c0,1.24,0.185,2.351,0.555,3.33c0.37,0.98,0.89,1.811,1.56,2.49c0.67,0.68,1.465,1.2,2.385,1.561
		c0.92,0.359,1.94,0.539,3.06,0.539c0.98,0,1.835-0.109,2.565-0.33c0.73-0.22,1.35-0.5,1.86-0.84c0.51-0.34,0.925-0.715,1.245-1.125
		s0.57-0.805,0.75-1.185l-3.24-1.8c-0.22,0.46-0.58,0.854-1.08,1.185s-1.22,0.495-2.16,0.495c-0.48,0-0.935-0.075-1.365-0.225
		c-0.43-0.15-0.81-0.36-1.14-0.631c-0.33-0.27-0.59-0.59-0.78-0.959c-0.19-0.371-0.295-0.775-0.315-1.215H236.984z M208.229,368.325
		c-0.73-0.73-1.095-1.726-1.095-2.985v-0.359c0-1.261,0.365-2.256,1.095-2.985s1.685-1.095,2.865-1.095
		c1.18,0,2.135,0.375,2.865,1.125s1.095,1.734,1.095,2.955v0.359c0,1.221-0.365,2.205-1.095,2.955s-1.685,1.125-2.865,1.125
		C209.914,369.42,208.959,369.055,208.229,368.325 M215.054,372.6h3.78v-21h-3.78v8.28h-0.54c-0.4-0.819-0.95-1.455-1.65-1.905
		c-0.7-0.449-1.65-0.675-2.85-0.675c-0.9,0-1.755,0.17-2.565,0.511c-0.81,0.34-1.52,0.834-2.13,1.484
		c-0.61,0.65-1.09,1.445-1.44,2.385c-0.35,0.94-0.525,2.01-0.525,3.211v0.539c0,1.221,0.165,2.301,0.495,3.24s0.79,1.734,1.38,2.385
		s1.28,1.141,2.07,1.471s1.645,0.494,2.565,0.494c0.72,0,1.335-0.069,1.845-0.209c0.51-0.141,0.95-0.33,1.32-0.57
		c0.37-0.24,0.67-0.516,0.9-0.825s0.425-0.636,0.585-0.976h0.54V372.6z M182.594,361.08c0-1.18-0.3-2.105-0.9-2.775
		s-1.4-1.005-2.4-1.005c-0.76,0-1.395,0.175-1.905,0.525c-0.51,0.35-0.845,0.795-1.005,1.335h-0.54
		c-0.16-0.54-0.47-0.985-0.93-1.335c-0.46-0.351-1.02-0.525-1.68-0.525c-0.7,0-1.265,0.175-1.695,0.525
		c-0.43,0.35-0.705,0.795-0.825,1.335h-0.54v-1.44h-3.78v14.88h3.78v-10.26c0-0.48,0.12-0.84,0.36-1.08
		c0.24-0.24,0.54-0.359,0.9-0.359c0.32,0,0.595,0.104,0.825,0.314s0.345,0.525,0.345,0.945V372.6h3.78v-10.26
		c0-0.48,0.115-0.84,0.345-1.08s0.545-0.359,0.945-0.359c0.34,0,0.615,0.104,0.825,0.314s0.315,0.525,0.315,0.945V372.6h3.78V361.08
		z M158.579,361.41c0.63,0.46,1.005,1.04,1.125,1.74h-7.02c0.18-0.641,0.57-1.205,1.17-1.695s1.38-0.735,2.34-0.735
		S157.949,360.95,158.579,361.41 M163.544,366.391v-2.011c0-0.78-0.14-1.585-0.42-2.415c-0.28-0.83-0.72-1.59-1.32-2.279
		c-0.6-0.69-1.36-1.261-2.28-1.711c-0.92-0.449-2.02-0.675-3.3-0.675c-1.04,0-2.015,0.185-2.925,0.556
		c-0.91,0.369-1.705,0.885-2.385,1.545c-0.68,0.66-1.215,1.459-1.605,2.399s-0.585,1.979-0.585,3.12v0.18
		c0,1.24,0.185,2.351,0.555,3.33c0.37,0.98,0.89,1.811,1.56,2.49s1.465,1.2,2.385,1.561c0.92,0.359,1.94,0.539,3.06,0.539
		c0.98,0,1.835-0.109,2.565-0.33c0.73-0.22,1.35-0.5,1.86-0.84s0.925-0.715,1.245-1.125c0.32-0.41,0.57-0.805,0.75-1.185l-3.24-1.8
		c-0.22,0.46-0.58,0.854-1.08,1.185s-1.22,0.495-2.16,0.495c-0.48,0-0.935-0.075-1.365-0.225c-0.43-0.15-0.81-0.36-1.14-0.631
		c-0.33-0.27-0.59-0.59-0.78-0.959c-0.19-0.371-0.295-0.775-0.315-1.215H163.544z M134.729,368.325
		c-0.73-0.73-1.095-1.726-1.095-2.985v-0.359c0-1.261,0.365-2.256,1.095-2.985s1.685-1.095,2.865-1.095
		c1.18,0,2.135,0.375,2.865,1.125s1.095,1.734,1.095,2.955v0.359c0,1.221-0.365,2.205-1.095,2.955s-1.685,1.125-2.865,1.125
		C136.414,369.42,135.459,369.055,134.729,368.325 M141.554,374.1c0,0.601-0.27,0.9-0.81,0.9h-7.74v3.6h10.02
		c0.68,0,1.235-0.22,1.665-0.66c0.43-0.439,0.645-1,0.645-1.68v-18.54h-3.78v2.16h-0.54c-0.4-0.819-0.95-1.455-1.65-1.905
		c-0.7-0.449-1.65-0.675-2.85-0.675c-0.9,0-1.755,0.17-2.565,0.511c-0.81,0.34-1.52,0.834-2.13,1.484
		c-0.61,0.65-1.09,1.445-1.44,2.385c-0.35,0.94-0.525,2.01-0.525,3.211v0.539c0,1.221,0.165,2.301,0.495,3.24s0.79,1.734,1.38,2.385
		s1.28,1.141,2.07,1.471s1.645,0.494,2.565,0.494c0.72,0,1.335-0.069,1.845-0.209c0.51-0.141,0.95-0.33,1.32-0.57
		c0.37-0.24,0.67-0.516,0.9-0.825s0.425-0.636,0.585-0.976h0.54V374.1z M116.204,368.325c-0.66-0.73-0.99-1.726-0.99-2.985v-0.359
		c0-1.261,0.33-2.256,0.99-2.985c0.66-0.729,1.54-1.095,2.64-1.095c1.1,0,1.98,0.365,2.64,1.095c0.66,0.729,0.99,1.725,0.99,2.985
		v0.359c0,1.26-0.33,2.255-0.99,2.985c-0.66,0.729-1.54,1.095-2.64,1.095C117.744,369.42,116.864,369.055,116.204,368.325
		 M122.744,370.439c0,0.641,0.215,1.16,0.645,1.561c0.43,0.4,0.985,0.6,1.665,0.6h2.58V369h-0.57c-0.54,0-0.81-0.3-0.81-0.9v-10.38
		h-3.78v1.8h-0.54c-0.38-0.76-0.895-1.319-1.545-1.68c-0.65-0.359-1.505-0.54-2.565-0.54c-0.88,0-1.705,0.175-2.475,0.525
		c-0.77,0.35-1.445,0.854-2.025,1.515c-0.58,0.66-1.04,1.46-1.38,2.4c-0.34,0.939-0.51,2-0.51,3.18v0.48
		c0,1.199,0.175,2.27,0.525,3.209c0.35,0.94,0.825,1.74,1.425,2.4c0.6,0.66,1.295,1.16,2.085,1.5c0.79,0.34,1.635,0.51,2.535,0.51
		c0.96,0,1.8-0.194,2.52-0.584c0.72-0.391,1.28-1.056,1.68-1.996H122.744z M93.794,361.32h4.41v8.939c0,0.68,0.215,1.24,0.645,1.68
		c0.43,0.44,0.985,0.66,1.665,0.66h6.3V369h-4.02c-0.54,0-0.81-0.3-0.81-0.9v-6.779h5.37v-3.601h-5.37v-6.12h-3.78v6.12h-4.41
		V361.32z M81.074,361.064c0.32-0.229,0.8-0.345,1.44-0.345c0.7,0,1.27,0.155,1.71,0.466c0.44,0.31,0.75,0.734,0.93,1.274l3.42-1.38
		c-0.16-0.42-0.39-0.855-0.69-1.305c-0.3-0.45-0.69-0.86-1.17-1.23s-1.065-0.67-1.755-0.9c-0.69-0.229-1.505-0.345-2.445-0.345
		c-0.72,0-1.42,0.101-2.1,0.3c-0.68,0.2-1.28,0.495-1.8,0.885c-0.52,0.391-0.94,0.865-1.26,1.426c-0.32,0.56-0.48,1.21-0.48,1.949
		v0.181c0,1.42,0.495,2.495,1.485,3.226c0.99,0.729,2.325,1.164,4.005,1.305c0.62,0.06,1.135,0.14,1.545,0.24
		c0.41,0.1,0.735,0.225,0.975,0.375c0.24,0.149,0.405,0.31,0.495,0.479c0.09,0.17,0.135,0.354,0.135,0.555
		c0,0.341-0.175,0.655-0.525,0.945c-0.35,0.29-0.995,0.435-1.935,0.435c-1.06,0-1.845-0.24-2.355-0.72
		c-0.51-0.479-0.845-1.04-1.005-1.68l-3.48,1.14c0.1,0.52,0.295,1.055,0.585,1.605c0.29,0.55,0.705,1.05,1.245,1.5
		c0.54,0.449,1.22,0.824,2.04,1.125c0.82,0.3,1.81,0.449,2.97,0.449c1.96,0,3.48-0.439,4.56-1.319c1.08-0.88,1.62-2.06,1.62-3.54
		v-0.18c0-1.34-0.48-2.386-1.44-3.136s-2.2-1.204-3.72-1.364c-1.32-0.141-2.23-0.315-2.73-0.525s-0.75-0.555-0.75-1.035
		C80.594,361.58,80.754,361.295,81.074,361.064 M67.289,352.186c-0.15-0.351-0.355-0.65-0.615-0.9c-0.26-0.25-0.565-0.45-0.915-0.6
		c-0.35-0.15-0.715-0.226-1.095-0.226c-0.4,0-0.77,0.075-1.11,0.226c-0.34,0.149-0.64,0.35-0.9,0.6c-0.26,0.25-0.465,0.55-0.615,0.9
		c-0.15,0.35-0.225,0.725-0.225,1.125c0,0.399,0.075,0.774,0.225,1.125c0.15,0.35,0.355,0.649,0.615,0.899
		c0.26,0.25,0.56,0.45,0.9,0.601c0.34,0.149,0.71,0.225,1.11,0.225c0.38,0,0.745-0.075,1.095-0.225
		c0.35-0.15,0.655-0.351,0.915-0.601c0.26-0.25,0.465-0.55,0.615-0.899c0.15-0.351,0.225-0.726,0.225-1.125
		C67.514,352.91,67.439,352.535,67.289,352.186 M57.764,372.6h13.14V369h-4.32v-11.28h-8.46v3.601h4.68V369h-5.04V372.6z
		 M39.254,372.6h13.5v-3.779h-9.54V351.6h-3.96V372.6z"/>
	<path clip-path="url(#SVGID_2_)" fill="#231F20" d="M406.993,926.573c3.19,7.168,7.397,13.4,12.618,18.695
		c5.219,5.299,11.452,9.541,18.696,12.736c7.245,3.192,14.993,4.791,23.253,4.791c7.946,0,15.578-1.599,22.902-4.791
		c7.322-3.195,13.632-7.438,18.93-12.736c5.295-5.295,9.541-11.527,12.736-18.695c3.191-7.164,4.791-14.876,4.791-23.137
		c0-7.945-1.6-15.577-4.791-22.902c-3.195-7.321-7.441-13.631-12.736-18.93c-5.298-5.295-11.607-9.542-18.93-12.736
		c-7.324-3.191-14.956-4.79-22.902-4.79c-8.26,0-16.008,1.599-23.253,4.79c-7.244,3.194-13.478,7.441-18.696,12.736
		c-5.221,5.299-9.428,11.608-12.618,18.93c-3.195,7.325-4.791,14.957-4.791,22.902C402.202,911.697,403.798,919.409,406.993,926.573
		 M124.569,890.116c6.076-12.773,14.292-23.253,24.655-31.433c10.359-8.18,21.851-15.033,34.471-20.565
		c12.619-5.528,25.94-10.125,39.962-13.788c14.022-3.659,27.887-7.361,41.598-11.102c13.708-3.738,26.795-8.062,39.261-12.97
		c12.463-4.907,23.487-11.177,33.068-18.812c9.582-7.633,17.177-17.294,22.786-28.979c5.608-11.685,8.413-26.251,8.413-43.701
		c0-14.489-3.353-28.081-10.05-40.78c-6.699-12.696-16.673-23.838-29.913-33.418c-13.243-9.582-29.603-17.098-49.077-22.553
		c-19.477-5.452-41.989-8.18-67.538-8.18c-23.995,0-46.039,2.454-66.137,7.362c-20.098,4.906-37.315,11.918-51.647,21.032
		c-14.336,9.114-25.473,19.904-33.419,32.367c-7.945,12.466-11.918,26.174-11.918,41.131c0,11.218,1.829,20.723,5.492,28.512
		c3.658,7.792,8.332,14.102,14.021,18.929c5.686,4.831,12.072,8.337,19.164,10.517c7.087,2.184,13.981,3.271,20.682,3.271
		c8.88,0,16.826-1.168,23.837-3.505c7.011-2.337,12.813-5.609,17.411-9.815c4.593-4.207,8.099-8.841,10.516-13.905
		c2.414-5.061,3.622-10.319,3.622-15.774c0-12.152-3.505-21.343-10.516-27.576c-7.011-6.229-15.271-10.75-24.772-13.555
		c7.632-3.893,15.658-6.62,24.071-8.18c8.413-1.556,17.914-2.337,28.511-2.337c14.956,0,27.77,3.353,38.443,10.05
		c10.67,6.699,16.008,16.905,16.008,30.613c0,9.195-2.61,17.141-7.828,23.837c-5.222,6.701-12.153,12.935-20.8,18.696
		c-8.646,5.766-18.542,11.375-29.679,16.826c-11.141,5.456-22.475,11.608-34.003,18.462c-11.532,6.858-22.866,14.84-34.003,23.955
		c-11.141,9.114-21.033,20.021-29.68,32.717c-8.647,12.7-15.581,27.577-20.799,44.636c-5.222,17.061-7.829,37.275-7.829,60.646
		h53.517c1.556-3.115,3.816-5.996,6.777-8.647c2.491-2.18,5.803-4.243,9.932-6.192c4.127-1.946,9.776-2.921,16.943-2.921
		c8.257,0,17.097,1.209,26.525,3.621c9.425,2.419,19.317,4.988,29.68,7.713c10.359,2.728,21.186,5.258,32.484,7.595
		c11.294,2.337,23.019,3.506,35.171,3.506c15.267,0,29.6-1.249,43-3.739c13.397-2.491,24.966-8.296,34.704-17.411
		c9.735-9.113,17.41-22.435,23.02-39.962c5.608-17.526,8.413-41.167,8.413-70.927h-46.038c0,14.022-3.353,23.604-10.049,28.745
		c-6.701,5.141-15.973,7.712-27.811,7.712c-6.234,0-11.919-0.545-17.06-1.636c-5.142-1.088-10.597-2.221-16.359-3.39
		c-5.766-1.168-12.152-2.297-19.163-3.389c-7.011-1.088-15.581-1.635-25.707-1.635c-9.972,0-19.163,1.365-27.576,4.089
		c-8.414,2.728-15.972,6.076-22.669,10.049c-6.701,3.974-12.62,8.26-17.761,12.854c-5.142,4.597-9.271,8.844-12.386,12.735
		L124.569,890.116z"/>
	<path clip-path="url(#SVGID_2_)" fill="#231F20" d="M457.228,194.809c6.182,0.515,13.908-1.03,15.454,12.363
		c2.576,23.184,1.546,59.761,1.546,137.553v88.609c0,30.396-10.304,28.85-17,28.85V194.809z M455.681,517.822
		c34.001,0,46.366-13.395,53.063-33.486c7.727-22.668,7.727-81.397,7.727-155.582c0-74.186-1.029-121.582-9.788-150.432
		c-9.272-28.849-22.667-39.152-56.669-39.152h-35.547v378.652H455.681z"/>
</g>
<line fill="none" stroke="#0046F9" stroke-width="2" x1="24.794" y1="106" x2="537.794" y2="106"/>
<line fill="none" stroke="#0046F9" stroke-width="2" x1="24.794" y1="551" x2="537.794" y2="551"/>
<line fill="none" stroke="#0046F9" stroke-width="2" x1="24.794" y1="322" x2="362.794" y2="322"/>
<line fill="none" stroke="#0046F9" stroke-width="2" x1="382.793" y1="127" x2="382.793" y2="530"/>
<g>
	<defs>
		<rect id="SVGID_87_" width="564" height="1002"/>
	</defs>
	<clipPath id="SVGID_4_">
		<use xlink:href="#SVGID_87_"  overflow="visible"/>
	</clipPath>
	<polygon clip-path="url(#SVGID_4_)" fill="none" stroke="#0046F9" stroke-width="1.998" points="0.999,3 0.999,999 0.999,1001.002 
		3,1001.002 561,1001.002 563.001,1001.002 563.001,999 563.001,3 563.001,0.998 561,0.998 3,0.998 0.999,0.998 	"/>
</g>
<rect x="5.001" y="5.002" fill="none" stroke="#0046F9" stroke-width="1.998" width="553.998" height="991.996"/>
<g>
	<defs>
		<rect id="SVGID_89_" width="564" height="1002"/>
	</defs>
	<clipPath id="SVGID_6_">
		<use xlink:href="#SVGID_89_"  overflow="visible"/>
	</clipPath>
	<path clip-path="url(#SVGID_6_)" fill="#0046F9" d="M273.215,130.125l-15.536,12.824c18.576,28.113,36.66,48.502,54.254,61.16
		c-14.797-1.314-29.019-1.974-42.664-1.974H41.624v19.729h227.645c13.646,0,27.867-0.655,42.664-1.974
		c-17.594,12.662-35.678,33.046-54.254,61.159l15.536,12.824c11.506-18.904,22.892-34.564,34.154-46.979
		c11.261-12.411,24.126-23.798,38.596-34.155v-1.479c-14.47-10.358-27.335-21.741-38.596-34.156
		C296.106,164.693,284.721,149.033,273.215,130.125"/>
</g>
</svg>
