<?xml version="1.0" encoding="utf-8"?>
<!-- Generator: Adobe Illustrator 16.0.0, SVG Export Plug-In . SVG Version: 6.00 Build 0)  -->
<!DOCTYPE svg PUBLIC "-//W3C//DTD SVG 1.1//EN" "http://www.w3.org/Graphics/SVG/1.1/DTD/svg11.dtd">
<svg version="1.1" id="Layer_1" xmlns="http://www.w3.org/2000/svg" xmlns:xlink="http://www.w3.org/1999/xlink" x="0px" y="0px"
	 width="564px" height="1002px" viewBox="0 0 564 1002" enable-background="new 0 0 564 1002" xml:space="preserve">
<g>
	<defs>
		<rect id="SVGID_91_" width="564" height="1002"/>
	</defs>
	<clipPath id="SVGID_2_">
		<use xlink:href="#SVGID_91_"  overflow="visible"/>
	</clipPath>
	<path clip-path="url(#SVGID_2_)" fill="#231F20" d="M361.911,938.293c-1.412,1.015-2.118,2.432-2.118,4.252
		c0,1.214,0.327,2.188,0.98,2.923c0.652,0.735,1.539,1.395,2.659,1.978c0.443,0.233,1.057,0.489,1.839,0.77
		c0.78,0.28,1.335,0.531,1.661,0.753c0.327,0.223,0.49,0.531,0.49,0.927c0,0.864-0.642,1.296-1.925,1.296
		c-0.583,0-1.272-0.192-2.065-0.577c-0.793-0.387-1.342-0.688-1.645-0.91s-0.548-0.414-0.735-0.578l-2.52,4.235l0.77,0.63
		c0.514,0.396,1.349,0.794,2.503,1.189c1.155,0.396,2.374,0.596,3.657,0.596c5.67,0,8.505-2.041,8.505-6.125
		c0-0.863-0.163-1.634-0.49-2.311c-0.326-0.676-0.786-1.236-1.382-1.68c-0.595-0.443-1.161-0.793-1.697-1.05
		c-0.537-0.257-1.167-0.49-1.891-0.7c-0.117-0.023-0.286-0.07-0.507-0.141c-0.222-0.069-0.38-0.122-0.473-0.156
		c-0.094-0.035-0.233-0.088-0.42-0.158c-0.188-0.07-0.321-0.123-0.402-0.157c-0.082-0.035-0.193-0.088-0.333-0.158
		c-0.14-0.069-0.239-0.134-0.297-0.191c-0.06-0.059-0.123-0.128-0.193-0.21s-0.117-0.169-0.14-0.264
		c-0.023-0.093-0.035-0.186-0.035-0.279c0-0.42,0.146-0.705,0.438-0.858c0.29-0.151,0.786-0.227,1.486-0.227
		c1.26,0,2.59,0.374,3.99,1.12l2.03-4.061l-0.735-0.35c-0.49-0.233-1.237-0.467-2.24-0.7s-2.018-0.351-3.045-0.351
		C365.23,936.77,363.322,937.278,361.911,938.293 M343.763,941.6c0.607-0.535,1.423-0.805,2.45-0.805
		c0.934,0,1.698,0.251,2.293,0.753s0.962,1.219,1.103,2.152h-6.825C342.83,942.837,343.156,942.137,343.763,941.6 M355.663,946.29
		c0-3.056-0.892-5.408-2.677-7.052c-1.785-1.646-4.102-2.469-6.948-2.469c-2.707,0-5.028,0.935-6.965,2.801
		c-1.938,1.866-2.905,4.106-2.905,6.72c0,2.614,0.968,4.848,2.905,6.702c1.937,1.855,4.258,2.783,6.965,2.783
		c4.34,0,7.443-1.563,9.31-4.69l-4.479-2.24c-0.747,0.794-1.412,1.325-1.995,1.594c-0.583,0.268-1.377,0.401-2.38,0.401
		c-0.957,0-1.843-0.303-2.66-0.91c-0.817-0.605-1.225-1.54-1.225-2.8h13.02C355.651,946.99,355.663,946.71,355.663,946.29
		 M320.699,937.295v4.725h2.59v6.896c0,0.864,0.093,1.675,0.28,2.433c0.186,0.759,0.495,1.482,0.927,2.17
		c0.432,0.688,1.068,1.237,1.908,1.646c0.84,0.407,1.843,0.612,3.01,0.612c1.703,0,3.22-0.374,4.55-1.12l-1.54-5.005l-0.21,0.14
		c-0.14,0.094-0.339,0.187-0.595,0.28c-0.257,0.094-0.502,0.14-0.735,0.14c-0.934,0-1.399-0.828-1.399-2.485v-5.705h3.779v-4.725
		h-3.779v-6.685h-6.195v6.685H320.699z M304.109,955.25V945.1c0-0.886,0.379-1.69,1.137-2.415c0.758-0.723,1.604-1.085,2.538-1.085
		c0.956,0,1.731,0.351,2.327,1.051c0.595,0.699,0.893,1.517,0.893,2.449v10.15h6.195v-11.83c0-1.189-0.251-2.234-0.753-3.133
		c-0.502-0.897-1.155-1.592-1.96-2.082c-0.806-0.49-1.646-0.852-2.521-1.085s-1.756-0.351-2.642-0.351
		c-1.82,0-3.535,0.806-5.146,2.415h-0.069v-1.89h-6.195v17.955H304.109z M282.934,942.055c1.166,0,2.152,0.397,2.957,1.19
		c0.806,0.794,1.208,1.809,1.208,3.045c0,1.214-0.391,2.217-1.173,3.01c-0.782,0.794-1.779,1.19-2.992,1.19
		c-1.26,0-2.274-0.391-3.044-1.173c-0.77-0.781-1.155-1.79-1.155-3.027c0-1.236,0.402-2.251,1.207-3.045
		C280.746,942.452,281.744,942.055,282.934,942.055 M282.969,955.775c3.104,0,5.664-0.894,7.683-2.678
		c2.018-1.784,3.027-4.054,3.027-6.808c0-2.753-1.032-5.028-3.098-6.825c-2.065-1.796-4.603-2.695-7.612-2.695
		c-3.057,0-5.624,0.893-7.7,2.679c-2.077,1.785-3.115,4.065-3.115,6.842c0,2.777,0.997,5.052,2.992,6.825
		C277.141,954.889,279.749,955.775,282.969,955.775 M257.384,937.295v4.725h2.59v13.23h6.195v-13.23h4.13v-4.725h-4.13v-3.64
		c0-1.307,0.128-2.223,0.385-2.747c0.256-0.526,0.77-0.788,1.54-0.788c0.676,0,1.295,0.164,1.855,0.49l2.17-4.375l-0.595-0.386
		c-0.374-0.279-0.986-0.554-1.838-0.821c-0.852-0.269-1.744-0.403-2.677-0.403c-2.194,0-3.909,0.805-5.145,2.415
		c-1.237,1.61-1.867,3.757-1.89,6.44v3.814H257.384z M231.432,938.293c-1.412,1.015-2.117,2.432-2.117,4.252
		c0,1.214,0.327,2.188,0.979,2.923c0.653,0.735,1.54,1.395,2.66,1.978c0.443,0.233,1.056,0.489,1.838,0.77
		c0.781,0.28,1.335,0.531,1.662,0.753c0.327,0.223,0.49,0.531,0.49,0.927c0,0.864-0.642,1.296-1.925,1.296
		c-0.583,0-1.272-0.192-2.065-0.577c-0.793-0.387-1.342-0.688-1.645-0.91c-0.303-0.222-0.548-0.414-0.735-0.578l-2.52,4.235
		l0.77,0.63c0.513,0.396,1.348,0.794,2.503,1.189c1.155,0.396,2.374,0.596,3.657,0.596c5.67,0,8.505-2.041,8.505-6.125
		c0-0.863-0.163-1.634-0.49-2.311c-0.327-0.676-0.787-1.236-1.382-1.68s-1.161-0.793-1.698-1.05s-1.167-0.49-1.89-0.7
		c-0.117-0.023-0.286-0.07-0.506-0.141c-0.223-0.069-0.381-0.122-0.474-0.156c-0.093-0.035-0.233-0.088-0.42-0.158
		s-0.321-0.123-0.402-0.157c-0.082-0.035-0.193-0.088-0.333-0.158c-0.14-0.069-0.239-0.134-0.297-0.191
		c-0.059-0.059-0.124-0.128-0.193-0.21s-0.117-0.169-0.14-0.264c-0.023-0.093-0.035-0.186-0.035-0.279
		c0-0.42,0.146-0.705,0.438-0.858c0.291-0.151,0.787-0.227,1.487-0.227c1.26,0,2.59,0.374,3.99,1.12l2.03-4.061l-0.734-0.35
		c-0.49-0.233-1.237-0.467-2.24-0.7c-1.003-0.233-2.018-0.351-3.045-0.351C234.751,936.77,232.843,937.278,231.432,938.293
		 M213.669,942.055c1.167,0,2.153,0.397,2.958,1.19c0.805,0.794,1.207,1.809,1.207,3.045c0,1.214-0.392,2.217-1.172,3.01
		c-0.782,0.794-1.78,1.19-2.993,1.19c-1.26,0-2.275-0.391-3.045-1.173c-0.77-0.781-1.155-1.79-1.155-3.027
		c0-1.236,0.403-2.251,1.208-3.045C211.482,942.452,212.479,942.055,213.669,942.055 M211.814,955.775
		c2.379,0,4.339-0.852,5.879-2.556h0.07v2.03h6.125v-17.955h-6.195v1.715c-1.54-1.493-3.5-2.24-5.879-2.24
		c-2.591,0-4.726,0.923-6.405,2.766c-1.68,1.844-2.52,4.095-2.52,6.755s0.84,4.906,2.52,6.738
		C207.089,954.86,209.224,955.775,211.814,955.775 M188.364,942.055c1.167,0,2.153,0.397,2.958,1.19
		c0.805,0.794,1.207,1.809,1.207,3.045c0,1.214-0.391,2.217-1.172,3.01c-0.781,0.794-1.779,1.19-2.993,1.19
		c-1.26,0-2.275-0.391-3.045-1.173c-0.77-0.781-1.155-1.79-1.155-3.027c0-1.236,0.403-2.251,1.208-3.045
		C186.177,942.452,187.174,942.055,188.364,942.055 M186.509,955.775c2.38,0,4.34-0.852,5.88-2.556h0.07v2.03h6.125v-30.1h-6.195
		v13.859c-1.54-1.493-3.5-2.24-5.88-2.24c-2.59,0-4.725,0.923-6.405,2.766c-1.68,1.844-2.52,4.095-2.52,6.755s0.84,4.906,2.52,6.738
		S183.919,955.775,186.509,955.775 M152.105,942.055c1.166,0,2.152,0.397,2.957,1.19c0.805,0.794,1.208,1.809,1.208,3.045
		c0,1.214-0.391,2.217-1.173,3.01c-0.783,0.794-1.779,1.19-2.992,1.19c-1.26,0-2.275-0.391-3.045-1.173
		c-0.77-0.781-1.155-1.79-1.155-3.027c0-1.236,0.402-2.251,1.207-3.045C149.917,942.452,150.915,942.055,152.105,942.055
		 M150.25,955.775c2.38,0,4.34-0.852,5.88-2.556h0.07v2.03h6.125v-17.955h-6.195v1.715c-1.54-1.493-3.5-2.24-5.88-2.24
		c-2.59,0-4.725,0.923-6.405,2.766c-1.68,1.844-2.52,4.095-2.52,6.755s0.84,4.906,2.52,6.738
		C145.525,954.86,147.66,955.775,150.25,955.775 M136.774,942.685l2.1-4.234l-0.595-0.42c-0.42-0.28-1.132-0.561-2.135-0.84
		c-1.003-0.28-2.1-0.421-3.29-0.421c-2.637,0-4.952,0.94-6.947,2.818c-1.995,1.878-2.993,4.124-2.993,6.737
		c0,2.59,0.998,4.812,2.993,6.667c1.995,1.855,4.31,2.783,6.947,2.783c1.19,0,2.304-0.152,3.343-0.455
		c1.038-0.304,1.703-0.542,1.995-0.719c0.291-0.175,0.519-0.319,0.682-0.437l-2.1-4.305l-0.315,0.21
		c-0.233,0.14-0.601,0.279-1.103,0.42c-0.501,0.14-1.032,0.21-1.592,0.21c-1.167,0-2.17-0.432-3.01-1.295s-1.26-1.913-1.26-3.15
		c0-1.213,0.42-2.251,1.26-3.115c0.84-0.862,1.843-1.295,3.01-1.295C135.001,941.845,136.004,942.125,136.774,942.685
		 M111.785,955.25v-9.45c0-0.186,0.046-0.442,0.14-0.77c0.093-0.326,0.25-0.724,0.472-1.19c0.222-0.466,0.601-0.863,1.138-1.189
		c0.536-0.326,1.178-0.49,1.925-0.49c1.376,0,2.45,0.327,3.22,0.979l2.59-5.25l-0.49-0.279c-0.304-0.187-0.782-0.373-1.435-0.561
		c-0.654-0.186-1.319-0.28-1.995-0.28c-0.654,0-1.295,0.111-1.925,0.332c-0.63,0.224-1.144,0.474-1.54,0.754
		c-0.397,0.279-0.77,0.595-1.12,0.944c-0.35,0.351-0.578,0.595-0.683,0.735c-0.105,0.14-0.181,0.257-0.227,0.35h-0.07v-2.59h-6.195
		v17.955H111.785z M89.455,941.6c0.606-0.535,1.423-0.805,2.45-0.805c0.933,0,1.697,0.251,2.292,0.753
		c0.595,0.502,0.963,1.219,1.103,2.152h-6.825C88.521,942.837,88.848,942.137,89.455,941.6 M101.355,946.29
		c0-3.056-0.893-5.408-2.678-7.052c-1.785-1.646-4.101-2.469-6.947-2.469c-2.708,0-5.029,0.935-6.965,2.801
		c-1.937,1.866-2.905,4.106-2.905,6.72c0,2.614,0.968,4.848,2.905,6.702c1.936,1.855,4.257,2.783,6.965,2.783
		c4.34,0,7.443-1.563,9.31-4.69l-4.48-2.24c-0.747,0.794-1.412,1.325-1.996,1.594c-0.583,0.268-1.376,0.401-2.379,0.401
		c-0.957,0-1.844-0.303-2.66-0.91c-0.817-0.605-1.225-1.54-1.225-2.8h13.02C101.343,946.99,101.355,946.71,101.355,946.29
		 M77.135,942.685l2.1-4.234l-0.595-0.42c-0.419-0.28-1.132-0.561-2.135-0.84c-1.004-0.28-2.1-0.421-3.29-0.421
		c-2.637,0-4.953,0.94-6.948,2.818s-2.992,4.124-2.992,6.737c0,2.59,0.997,4.812,2.992,6.667c1.995,1.855,4.311,2.783,6.948,2.783
		c1.19,0,2.304-0.152,3.342-0.455c1.038-0.304,1.703-0.542,1.995-0.719c0.292-0.175,0.519-0.319,0.683-0.437l-2.1-4.305l-0.315,0.21
		c-0.234,0.14-0.601,0.279-1.103,0.42c-0.502,0.14-1.032,0.21-1.592,0.21c-1.167,0-2.17-0.432-3.01-1.295
		c-0.84-0.863-1.26-1.913-1.26-3.15c0-1.213,0.42-2.251,1.26-3.115c0.84-0.862,1.843-1.295,3.01-1.295
		C75.361,941.845,76.365,942.125,77.135,942.685 M48.75,942.055c1.166,0,2.153,0.397,2.957,1.19
		c0.806,0.794,1.208,1.809,1.208,3.045c0,1.214-0.391,2.217-1.172,3.01c-0.783,0.794-1.78,1.19-2.993,1.19
		c-1.26,0-2.275-0.391-3.045-1.173c-0.77-0.781-1.155-1.79-1.155-3.027c0-1.236,0.402-2.251,1.208-3.045
		C46.562,942.452,47.56,942.055,48.75,942.055 M46.895,955.775c2.38,0,4.34-0.852,5.88-2.556h0.07v2.03h6.125v-17.955h-6.195v1.715
		c-1.54-1.493-3.5-2.24-5.88-2.24c-2.59,0-4.725,0.923-6.405,2.766c-1.68,1.844-2.52,4.095-2.52,6.755s0.84,4.906,2.52,6.738
		C42.17,954.86,44.305,955.775,46.895,955.775"/>
	<path clip-path="url(#SVGID_2_)" fill="#231F20" d="M516.941,891.055c1.167,0,2.152,0.397,2.958,1.19
		c0.805,0.794,1.206,1.809,1.206,3.045c0,1.214-0.391,2.217-1.172,3.01c-0.781,0.794-1.779,1.19-2.992,1.19
		c-1.261,0-2.275-0.391-3.046-1.173c-0.77-0.781-1.154-1.79-1.154-3.027c0-1.236,0.402-2.251,1.208-3.045
		C514.754,891.452,515.751,891.055,516.941,891.055 M516.976,904.775c3.104,0,5.664-0.894,7.684-2.678
		c2.017-1.784,3.026-4.054,3.026-6.808c0-2.753-1.031-5.028-3.097-6.825c-2.064-1.796-4.603-2.695-7.613-2.695
		c-3.057,0-5.623,0.893-7.699,2.678c-2.077,1.786-3.115,4.066-3.115,6.843c0,2.777,0.998,5.052,2.993,6.825
		S513.756,904.775,516.976,904.775 M491.636,899.49c1.213,0,2.211-0.396,2.993-1.19c0.781-0.793,1.172-1.796,1.172-3.01
		c0-1.236-0.401-2.251-1.207-3.045c-0.805-0.793-1.791-1.19-2.958-1.19c-1.189,0-2.187,0.397-2.992,1.19
		c-0.805,0.794-1.208,1.809-1.208,3.045c0,1.237,0.386,2.246,1.155,3.027C489.361,899.1,490.376,899.49,491.636,899.49
		 M489.781,885.77c2.38,0,4.34,0.747,5.88,2.24v-1.715h6.195v17.955h-6.125v-2.03h-0.07c-1.54,1.704-3.5,2.556-5.88,2.556
		c-2.59,0-4.726-0.915-6.405-2.748c-1.68-1.831-2.52-4.077-2.52-6.737s0.84-4.911,2.52-6.755
		C485.056,886.692,487.191,885.77,489.781,885.77 M492.301,882.025c0.397,0.164,0.898,0.32,1.505,0.472
		c0.607,0.153,1.108,0.228,1.505,0.228c0.724,0,1.384-0.215,1.979-0.646s1.05-0.916,1.365-1.453c0.314-0.536,0.595-1.149,0.84-1.838
		c0.245-0.688,0.396-1.166,0.455-1.436c0.058-0.267,0.099-0.482,0.122-0.646h-3.535l-0.141,0.385
		c-0.093,0.28-0.273,0.555-0.542,0.822c-0.269,0.269-0.565,0.403-0.893,0.403c-0.84,0-1.727-0.222-2.66-0.665l-0.63-0.245
		c-0.396-0.163-0.897-0.32-1.505-0.474c-0.607-0.15-1.108-0.227-1.505-0.227c-0.724,0-1.382,0.216-1.978,0.646
		c-0.595,0.434-1.05,0.917-1.364,1.453c-0.315,0.537-0.596,1.15-0.841,1.838c-0.244,0.688-0.396,1.167-0.454,1.436
		c-0.06,0.268-0.101,0.483-0.123,0.646h3.534l0.141-0.385c0.093-0.28,0.273-0.554,0.543-0.822c0.268-0.268,0.564-0.402,0.892-0.402
		c0.84,0,1.728,0.222,2.66,0.665L492.301,882.025z M468.186,908.765l0.176-0.104c0.093-0.047,0.291-0.094,0.595-0.141
		c0.303-0.047,0.641-0.069,1.015-0.069c0.561,0,1.062,0.134,1.505,0.401c0.443,0.269,0.665,0.659,0.665,1.174
		c0,0.373-0.14,0.693-0.42,0.963c-0.279,0.267-0.724,0.401-1.33,0.401c-0.467,0-0.95-0.151-1.453-0.455
		c-0.502-0.304-0.84-0.549-1.015-0.734c-0.175-0.188-0.309-0.339-0.402-0.455l-2.52,1.89l0.63,0.735
		c0.443,0.466,1.114,0.945,2.012,1.435c0.898,0.49,1.814,0.735,2.748,0.735c1.796,0,3.133-0.444,4.008-1.33
		c0.875-0.887,1.312-1.949,1.312-3.185c0-1.12-0.479-1.995-1.435-2.625c-0.957-0.631-1.984-0.945-3.08-0.945l0.56-1.715
		c0.14,0.022,0.351,0.035,0.63,0.035c1.19,0,2.305-0.152,3.342-0.455c1.038-0.304,1.703-0.543,1.995-0.719
		c0.292-0.175,0.52-0.319,0.684-0.437l-2.101-4.305l-0.314,0.21c-0.234,0.14-0.602,0.279-1.104,0.42
		c-0.502,0.14-1.031,0.21-1.592,0.21c-1.167,0-2.17-0.432-3.01-1.295s-1.26-1.913-1.26-3.15c0-1.213,0.42-2.251,1.26-3.115
		c0.84-0.862,1.843-1.295,3.01-1.295c1.236,0,2.24,0.28,3.01,0.84l2.101-4.234l-0.596-0.42c-0.42-0.28-1.132-0.561-2.135-0.84
		c-1.004-0.28-2.1-0.421-3.29-0.421c-2.637,0-4.953,0.94-6.948,2.817c-1.994,1.879-2.991,4.125-2.991,6.738
		c0,2.03,0.641,3.861,1.925,5.495c1.283,1.634,2.893,2.776,4.83,3.43l-1.365,4.235L468.186,908.765z M447.921,891.055
		c1.166,0,2.152,0.397,2.957,1.19c0.805,0.794,1.208,1.809,1.208,3.045c0,1.214-0.391,2.217-1.173,3.01
		c-0.782,0.794-1.779,1.19-2.992,1.19c-1.26,0-2.275-0.391-3.045-1.173c-0.77-0.781-1.155-1.79-1.155-3.027
		c0-1.236,0.402-2.251,1.207-3.045C445.733,891.452,446.731,891.055,447.921,891.055 M446.066,904.775c2.38,0,4.34-0.852,5.88-2.556
		h0.069v2.03h6.125v-17.955h-6.194v1.715c-1.54-1.493-3.5-2.24-5.88-2.24c-2.591,0-4.726,0.923-6.405,2.766
		c-1.68,1.844-2.521,4.095-2.521,6.755s0.841,4.906,2.521,6.737C441.341,903.86,443.476,904.775,446.066,904.775 M408.756,904.25
		v-10.5c0-0.816,0.239-1.523,0.718-2.118s1.195-0.892,2.152-0.892c1.05,0,1.838,0.32,2.363,0.963
		c0.524,0.642,0.787,1.44,0.787,2.396v10.15h6.194v-10.71c0.047-0.771,0.31-1.429,0.788-1.977c0.479-0.549,1.172-0.823,2.082-0.823
		c1.05,0,1.838,0.32,2.363,0.963c0.524,0.642,0.787,1.44,0.787,2.396v10.15h6.194v-11.83c0-2.286-0.688-3.966-2.064-5.04
		c-1.377-1.073-3.022-1.61-4.936-1.61c-2.146,0-4.13,1.098-5.949,3.29c-0.583-1.119-1.447-1.947-2.591-2.484
		c-1.143-0.536-2.367-0.806-3.675-0.806c-1.819,0-3.535,0.806-5.145,2.415h-0.07v-1.89h-6.195v17.955H408.756z M389.927,904.25
		v-9.45c0-0.186,0.046-0.442,0.141-0.77c0.093-0.326,0.25-0.724,0.472-1.19c0.222-0.466,0.601-0.863,1.138-1.189
		c0.536-0.326,1.179-0.49,1.925-0.49c1.376,0,2.45,0.327,3.221,0.979l2.59-5.25l-0.49-0.279c-0.304-0.187-0.782-0.373-1.435-0.561
		c-0.654-0.186-1.319-0.28-1.995-0.28c-0.654,0-1.295,0.111-1.925,0.332c-0.631,0.224-1.145,0.474-1.54,0.754
		c-0.397,0.279-0.771,0.595-1.12,0.944c-0.351,0.351-0.578,0.595-0.684,0.735c-0.104,0.14-0.181,0.257-0.227,0.35h-0.07v-2.59
		h-6.194v17.955H389.927z M368.752,891.055c1.167,0,2.153,0.397,2.958,1.19c0.805,0.794,1.207,1.809,1.207,3.045
		c0,1.214-0.391,2.217-1.172,3.01c-0.783,0.794-1.78,1.19-2.993,1.19c-1.26,0-2.275-0.391-3.045-1.173
		c-0.771-0.781-1.155-1.79-1.155-3.027c0-1.236,0.403-2.251,1.208-3.045C366.565,891.452,367.562,891.055,368.752,891.055
		 M368.787,904.775c3.103,0,5.664-0.894,7.683-2.678c2.018-1.784,3.027-4.054,3.027-6.808c0-2.753-1.032-5.028-3.097-6.825
		c-2.065-1.796-4.604-2.695-7.613-2.695c-3.057,0-5.623,0.893-7.7,2.678c-2.077,1.786-3.115,4.066-3.115,6.843
		c0,2.777,0.998,5.052,2.993,6.825S365.567,904.775,368.787,904.775 M343.202,886.295v4.725h2.59v13.23h6.195v-13.23h4.13v-4.725
		h-4.13v-3.64c0-1.307,0.128-2.224,0.385-2.747c0.257-0.526,0.77-0.788,1.54-0.788c0.676,0,1.295,0.164,1.854,0.49l2.17-4.375
		l-0.595-0.386c-0.374-0.279-0.985-0.554-1.837-0.822c-0.853-0.268-1.745-0.402-2.678-0.402c-2.193,0-3.908,0.805-5.146,2.415
		c-1.236,1.61-1.866,3.757-1.89,6.44v3.814H343.202z M326.402,904.25V894.1c0-0.886,0.379-1.69,1.138-2.415
		c0.758-0.723,1.604-1.085,2.537-1.085c0.957,0,1.732,0.351,2.328,1.051c0.595,0.699,0.892,1.517,0.892,2.449v10.15h6.195v-11.83
		c0-1.189-0.251-2.234-0.752-3.133c-0.502-0.897-1.155-1.592-1.96-2.082c-0.806-0.49-1.646-0.852-2.521-1.085
		s-1.756-0.351-2.643-0.351c-1.82,0-3.535,0.806-5.146,2.415h-0.069v-1.89h-6.195v17.955H326.402z M314.433,904.25h-6.194v-17.955
		h6.194V904.25z M307.748,878.875c0,1.004,0.361,1.867,1.085,2.59c0.723,0.725,1.586,1.085,2.59,1.085
		c1.003,0,1.866-0.36,2.59-1.085c0.724-0.723,1.085-1.586,1.085-2.59c0-1.003-0.361-1.866-1.085-2.59s-1.587-1.085-2.59-1.085
		c-1.004,0-1.867,0.361-2.59,1.085C308.109,877.009,307.748,877.872,307.748,878.875 M281.078,890.6
		c0.605-0.535,1.423-0.805,2.45-0.805c0.933,0,1.696,0.251,2.292,0.753c0.595,0.502,0.963,1.219,1.103,2.152h-6.825
		C280.144,891.837,280.471,891.137,281.078,890.6 M292.978,895.29c0-3.056-0.893-5.408-2.678-7.052
		c-1.785-1.646-4.101-2.469-6.947-2.469c-2.707,0-5.028,0.935-6.964,2.801c-1.937,1.866-2.906,4.106-2.906,6.72
		c0,2.614,0.969,4.847,2.906,6.702c1.936,1.855,4.258,2.783,6.964,2.783c4.341,0,7.443-1.563,9.311-4.69l-4.48-2.24
		c-0.747,0.794-1.411,1.325-1.995,1.594c-0.584,0.268-1.377,0.401-2.38,0.401c-0.957,0-1.844-0.303-2.66-0.91
		c-0.817-0.605-1.225-1.54-1.225-2.8h13.021C292.966,895.99,292.978,895.71,292.978,895.29 M247.286,887.292
		c-1.412,1.015-2.118,2.433-2.118,4.253c0,1.214,0.327,2.188,0.98,2.923s1.54,1.395,2.66,1.978c0.443,0.233,1.056,0.489,1.838,0.77
		c0.781,0.28,1.335,0.531,1.662,0.753c0.327,0.223,0.49,0.531,0.49,0.927c0,0.864-0.642,1.296-1.925,1.296
		c-0.583,0-1.272-0.193-2.065-0.577c-0.792-0.387-1.342-0.688-1.645-0.91c-0.303-0.222-0.548-0.414-0.735-0.578l-2.52,4.235
		l0.77,0.63c0.512,0.396,1.348,0.794,2.503,1.189c1.155,0.396,2.374,0.596,3.657,0.596c5.67,0,8.505-2.041,8.505-6.125
		c0-0.863-0.163-1.634-0.49-2.311c-0.327-0.676-0.787-1.236-1.382-1.68c-0.595-0.443-1.161-0.793-1.699-1.05
		c-0.537-0.257-1.166-0.49-1.89-0.7c-0.117-0.023-0.286-0.07-0.507-0.141c-0.222-0.069-0.38-0.122-0.473-0.156
		c-0.093-0.035-0.233-0.088-0.42-0.158c-0.187-0.07-0.32-0.123-0.401-0.157c-0.082-0.036-0.193-0.088-0.333-0.158
		c-0.14-0.069-0.239-0.134-0.297-0.192c-0.06-0.058-0.123-0.127-0.193-0.209c-0.07-0.082-0.117-0.169-0.14-0.264
		c-0.023-0.093-0.035-0.186-0.035-0.279c0-0.42,0.146-0.705,0.438-0.858c0.291-0.151,0.787-0.227,1.487-0.227
		c1.26,0,2.59,0.374,3.99,1.12l2.03-4.061l-0.735-0.35c-0.49-0.233-1.237-0.467-2.24-0.7c-1.003-0.233-2.018-0.351-3.045-0.351
		C250.605,885.77,248.697,886.277,247.286,887.292 M230.294,891.055c1.166,0,2.152,0.397,2.957,1.19
		c0.805,0.794,1.208,1.809,1.208,3.045c0,1.214-0.391,2.217-1.173,3.01c-0.782,0.794-1.779,1.19-2.992,1.19
		c-1.26,0-2.275-0.391-3.045-1.173c-0.77-0.781-1.155-1.79-1.155-3.027c0-1.236,0.402-2.251,1.207-3.045
		C228.106,891.452,229.104,891.055,230.294,891.055 M230.329,904.775c3.103,0,5.664-0.894,7.682-2.678
		c2.018-1.784,3.028-4.054,3.028-6.808c0-2.753-1.033-5.028-3.099-6.825c-2.064-1.796-4.602-2.695-7.611-2.695
		c-3.057,0-5.624,0.893-7.7,2.678c-2.077,1.786-3.115,4.066-3.115,6.843c0,2.777,0.997,5.052,2.992,6.825
		S227.108,904.775,230.329,904.775 M204.044,886.295v4.725h2.59v6.896c0,0.864,0.093,1.675,0.28,2.433
		c0.186,0.759,0.495,1.482,0.927,2.17c0.432,0.688,1.068,1.237,1.908,1.645c0.84,0.408,1.843,0.613,3.01,0.613
		c1.703,0,3.22-0.374,4.55-1.12l-1.54-5.005l-0.21,0.14c-0.14,0.094-0.339,0.187-0.595,0.28c-0.257,0.094-0.502,0.14-0.735,0.14
		c-0.934,0-1.4-0.828-1.4-2.485v-5.705h3.779v-4.725h-3.779v-6.685h-6.195v6.685H204.044z M187.454,904.25V894.1
		c0-0.886,0.379-1.69,1.137-2.415c0.758-0.723,1.604-1.085,2.538-1.085c0.956,0,1.732,0.351,2.327,1.051
		c0.595,0.699,0.893,1.517,0.893,2.449v10.15h6.195v-11.83c0-1.189-0.251-2.234-0.753-3.133c-0.502-0.897-1.155-1.592-1.96-2.082
		c-0.805-0.49-1.645-0.852-2.52-1.085s-1.756-0.351-2.642-0.351c-1.82,0-3.535,0.806-5.145,2.415h-0.07v-1.89h-6.195v17.955H187.454
		z M165.124,890.6c0.607-0.535,1.423-0.805,2.45-0.805c0.933,0,1.698,0.251,2.293,0.753c0.595,0.502,0.962,1.219,1.102,2.152h-6.825
		C164.191,891.837,164.517,891.137,165.124,890.6 M177.024,895.29c0-3.056-0.892-5.408-2.677-7.052
		c-1.785-1.646-4.101-2.469-6.948-2.469c-2.707,0-5.028,0.935-6.965,2.801s-2.905,4.106-2.905,6.72c0,2.614,0.968,4.847,2.905,6.702
		s4.258,2.783,6.965,2.783c4.34,0,7.443-1.563,9.31-4.69l-4.48-2.24c-0.747,0.794-1.412,1.325-1.995,1.594
		c-0.583,0.268-1.377,0.401-2.38,0.401c-0.957,0-1.843-0.303-2.66-0.91c-0.817-0.605-1.225-1.54-1.225-2.8h13.02
		C177.012,895.99,177.024,895.71,177.024,895.29 M129.145,904.25v-10.5c0-0.816,0.239-1.523,0.717-2.118s1.196-0.892,2.153-0.892
		c1.049,0,1.837,0.32,2.362,0.963c0.525,0.642,0.788,1.44,0.788,2.396v10.15h6.195v-10.71c0.046-0.771,0.309-1.429,0.787-1.977
		c0.478-0.549,1.173-0.823,2.083-0.823c1.05,0,1.837,0.32,2.362,0.963c0.525,0.642,0.788,1.44,0.788,2.396v10.15h6.195v-11.83
		c0-2.286-0.689-3.966-2.065-5.04c-1.377-1.073-3.022-1.61-4.935-1.61c-2.147,0-4.13,1.098-5.95,3.29
		c-0.584-1.119-1.447-1.947-2.59-2.484c-1.144-0.536-2.369-0.806-3.675-0.806c-1.82,0-3.535,0.806-5.145,2.415h-0.07v-1.89h-6.195
		v17.955H129.145z M107.13,891.055c1.166,0,2.152,0.397,2.957,1.19c0.805,0.794,1.208,1.809,1.208,3.045
		c0,1.214-0.391,2.217-1.173,3.01c-0.782,0.794-1.779,1.19-2.992,1.19c-1.26,0-2.275-0.391-3.045-1.173
		c-0.771-0.781-1.155-1.79-1.155-3.027c0-1.236,0.402-2.251,1.207-3.045C104.942,891.452,105.94,891.055,107.13,891.055
		 M106.78,913.875c3.173,0,5.728-0.794,7.665-2.38c1.936-1.587,2.905-3.839,2.905-6.755v-18.445h-6.195v1.61h-0.105
		c-1.54-1.423-3.465-2.136-5.775-2.136c-2.59,0-4.725,0.923-6.405,2.766c-1.68,1.844-2.52,4.095-2.52,6.755s0.84,4.906,2.52,6.737
		c1.68,1.833,3.815,2.748,6.405,2.748c2.823,0,4.783-0.606,5.88-1.82v1.33c0,1.423-0.461,2.479-1.383,3.168
		c-0.922,0.687-1.919,1.032-2.992,1.032c-2.31,0-3.932-0.771-4.865-2.311l-5.075,2.485
		C98.333,912.136,101.646,913.875,106.78,913.875 M81.825,891.055c1.166,0,2.152,0.397,2.957,1.19
		c0.805,0.794,1.208,1.809,1.208,3.045c0,1.214-0.391,2.217-1.173,3.01c-0.782,0.794-1.779,1.19-2.992,1.19
		c-1.261,0-2.275-0.391-3.045-1.173c-0.77-0.781-1.155-1.79-1.155-3.027c0-1.236,0.402-2.251,1.207-3.045
		C79.637,891.452,80.635,891.055,81.825,891.055 M79.97,904.775c2.38,0,4.34-0.852,5.88-2.556h0.07v2.03h6.125v-17.955H85.85v1.715
		c-1.54-1.493-3.5-2.24-5.88-2.24c-2.59,0-4.725,0.923-6.406,2.766c-1.68,1.844-2.52,4.095-2.52,6.755s0.84,4.906,2.52,6.737
		C75.245,903.86,77.38,904.775,79.97,904.775 M59.985,904.25v-9.45c0-0.186,0.046-0.442,0.14-0.77
		c0.093-0.326,0.25-0.724,0.472-1.19c0.222-0.466,0.601-0.863,1.138-1.189c0.536-0.326,1.178-0.49,1.925-0.49
		c1.376,0,2.45,0.327,3.22,0.979l2.59-5.25l-0.49-0.279c-0.304-0.187-0.782-0.373-1.435-0.561c-0.654-0.186-1.319-0.28-1.995-0.28
		c-0.654,0-1.295,0.111-1.925,0.332c-0.63,0.224-1.144,0.474-1.54,0.754c-0.397,0.279-0.771,0.595-1.12,0.944
		c-0.35,0.351-0.577,0.595-0.683,0.735c-0.105,0.14-0.181,0.257-0.227,0.35h-0.07v-2.59H53.79v17.955H59.985z M37.725,886.295v4.725
		h2.589v13.23h6.195v-13.23h4.13v-4.725h-4.13v-3.64c0-1.307,0.128-2.224,0.385-2.747c0.256-0.526,0.77-0.788,1.54-0.788
		c0.676,0,1.295,0.164,1.855,0.49l2.17-4.375l-0.595-0.386c-0.374-0.279-0.986-0.554-1.837-0.822
		c-0.853-0.268-1.745-0.402-2.678-0.402c-2.194,0-3.909,0.805-5.145,2.415c-1.237,1.61-1.867,3.757-1.891,6.44v3.814H37.725z"/>
	<path clip-path="url(#SVGID_2_)" fill="#231F20" d="M429.844,836.292c-1.412,1.015-2.117,2.433-2.117,4.253
		c0,1.214,0.326,2.188,0.98,2.922c0.653,0.735,1.54,1.396,2.66,1.979c0.442,0.233,1.055,0.489,1.837,0.77s1.336,0.531,1.663,0.752
		c0.326,0.224,0.49,0.532,0.49,0.928c0,0.864-0.643,1.296-1.926,1.296c-0.584,0-1.271-0.193-2.064-0.577
		c-0.794-0.386-1.342-0.688-1.646-0.911c-0.304-0.221-0.549-0.413-0.734-0.577l-2.521,4.235l0.771,0.63
		c0.513,0.396,1.347,0.794,2.502,1.189c1.154,0.396,2.374,0.596,3.657,0.596c5.671,0,8.506-2.041,8.506-6.125
		c0-0.863-0.164-1.634-0.49-2.311c-0.327-0.676-0.788-1.236-1.383-1.68c-0.596-0.443-1.161-0.793-1.697-1.05
		c-0.537-0.257-1.167-0.49-1.89-0.7c-0.117-0.023-0.286-0.07-0.509-0.141c-0.222-0.069-0.379-0.121-0.472-0.156
		c-0.094-0.036-0.234-0.088-0.42-0.158c-0.187-0.07-0.321-0.122-0.403-0.157c-0.082-0.036-0.191-0.088-0.332-0.158
		c-0.14-0.069-0.239-0.134-0.298-0.192c-0.058-0.058-0.122-0.127-0.191-0.209c-0.07-0.082-0.117-0.169-0.141-0.264
		c-0.023-0.093-0.035-0.186-0.035-0.279c0-0.42,0.146-0.705,0.438-0.858c0.292-0.151,0.788-0.227,1.488-0.227
		c1.26,0,2.59,0.374,3.989,1.12l2.03-4.061l-0.735-0.35c-0.489-0.233-1.236-0.467-2.239-0.7c-1.004-0.233-2.02-0.351-3.045-0.351
		C433.163,834.77,431.256,835.277,429.844,836.292 M412.852,840.055c1.166,0,2.152,0.397,2.957,1.19
		c0.806,0.794,1.208,1.809,1.208,3.045c0,1.214-0.391,2.217-1.173,3.01c-0.782,0.794-1.778,1.19-2.992,1.19
		c-1.26,0-2.274-0.391-3.045-1.172c-0.77-0.782-1.154-1.791-1.154-3.028c0-1.236,0.401-2.251,1.207-3.045
		C410.664,840.452,411.662,840.055,412.852,840.055 M412.887,853.775c3.104,0,5.664-0.893,7.683-2.678
		c2.018-1.785,3.027-4.054,3.027-6.808c0-2.753-1.032-5.028-3.098-6.825c-2.065-1.796-4.603-2.695-7.612-2.695
		c-3.057,0-5.624,0.894-7.7,2.678c-2.076,1.785-3.114,4.066-3.114,6.843c0,2.777,0.997,5.052,2.992,6.825
		C407.059,852.889,409.667,853.775,412.887,853.775 M375.875,836.292c-1.412,1.015-2.118,2.433-2.118,4.253
		c0,1.214,0.327,2.188,0.98,2.922c0.652,0.735,1.54,1.396,2.659,1.979c0.443,0.233,1.057,0.489,1.839,0.77
		c0.78,0.28,1.335,0.531,1.661,0.752c0.327,0.224,0.49,0.532,0.49,0.928c0,0.864-0.642,1.296-1.925,1.296
		c-0.583,0-1.271-0.193-2.065-0.577c-0.793-0.386-1.342-0.688-1.645-0.911c-0.303-0.221-0.548-0.413-0.735-0.577l-2.52,4.235
		l0.77,0.63c0.514,0.396,1.349,0.794,2.503,1.189c1.155,0.396,2.374,0.596,3.657,0.596c5.67,0,8.505-2.041,8.505-6.125
		c0-0.863-0.163-1.634-0.489-2.311c-0.327-0.676-0.787-1.236-1.383-1.68c-0.595-0.443-1.16-0.793-1.697-1.05s-1.167-0.49-1.891-0.7
		c-0.116-0.023-0.286-0.07-0.507-0.141c-0.222-0.069-0.38-0.121-0.473-0.156c-0.093-0.036-0.233-0.088-0.42-0.158
		c-0.188-0.07-0.321-0.122-0.402-0.157c-0.082-0.036-0.193-0.088-0.333-0.158c-0.14-0.069-0.239-0.134-0.297-0.192
		c-0.059-0.058-0.123-0.127-0.193-0.209c-0.069-0.082-0.116-0.169-0.14-0.264c-0.023-0.093-0.035-0.186-0.035-0.279
		c0-0.42,0.146-0.705,0.438-0.858c0.291-0.151,0.786-0.227,1.486-0.227c1.261,0,2.59,0.374,3.99,1.12l2.03-4.061l-0.735-0.35
		c-0.49-0.233-1.237-0.467-2.24-0.7s-2.018-0.351-3.045-0.351C379.194,834.77,377.286,835.277,375.875,836.292 M358.882,840.055
		c1.167,0,2.153,0.397,2.958,1.19c0.805,0.794,1.207,1.809,1.207,3.045c0,1.214-0.391,2.217-1.172,3.01
		c-0.782,0.794-1.78,1.19-2.993,1.19c-1.26,0-2.274-0.391-3.045-1.172c-0.77-0.782-1.155-1.791-1.155-3.028
		c0-1.236,0.403-2.251,1.208-3.045C356.695,840.452,357.692,840.055,358.882,840.055 M358.917,853.775
		c3.103,0,5.664-0.893,7.683-2.678s3.027-4.054,3.027-6.808c0-2.753-1.032-5.028-3.097-6.825c-2.065-1.796-4.604-2.695-7.613-2.695
		c-3.057,0-5.623,0.894-7.7,2.678c-2.077,1.785-3.115,4.066-3.115,6.843c0,2.777,0.998,5.052,2.993,6.825
		S355.697,853.775,358.917,853.775 M333.577,840.055c1.167,0,2.153,0.397,2.958,1.19c0.805,0.794,1.207,1.809,1.207,3.045
		c0,1.214-0.392,2.217-1.172,3.01c-0.782,0.794-1.78,1.19-2.993,1.19c-1.26,0-2.275-0.391-3.045-1.172
		c-0.771-0.782-1.155-1.791-1.155-3.028c0-1.236,0.403-2.251,1.208-3.045C331.39,840.452,332.387,840.055,333.577,840.055
		 M331.722,853.775c2.38,0,4.34-0.852,5.88-2.556h0.07v2.03h6.125v-30.1h-6.195v13.859c-1.54-1.493-3.5-2.24-5.88-2.24
		c-2.59,0-4.725,0.923-6.404,2.766c-1.681,1.844-2.521,4.095-2.521,6.755s0.84,4.906,2.521,6.737
		C326.997,852.86,329.132,853.775,331.722,853.775 M309.043,840.055c1.166,0,2.152,0.397,2.957,1.19
		c0.805,0.794,1.208,1.809,1.208,3.045c0,1.214-0.391,2.217-1.173,3.01c-0.782,0.794-1.779,1.19-2.992,1.19
		c-1.26,0-2.275-0.391-3.045-1.172c-0.771-0.782-1.155-1.791-1.155-3.028c0-1.236,0.402-2.251,1.207-3.045
		C306.855,840.452,307.853,840.055,309.043,840.055 M309.078,853.775c3.103,0,5.664-0.893,7.682-2.678
		c2.019-1.785,3.028-4.054,3.028-6.808c0-2.753-1.033-5.028-3.098-6.825c-2.065-1.796-4.603-2.695-7.612-2.695
		c-3.057,0-5.624,0.894-7.7,2.678c-2.077,1.785-3.115,4.066-3.115,6.843c0,2.777,0.997,5.052,2.992,6.825
		S305.858,853.775,309.078,853.775 M282.793,835.295v4.725h2.59v6.896c0,0.864,0.093,1.675,0.28,2.433
		c0.186,0.759,0.495,1.482,0.927,2.17c0.433,0.688,1.068,1.237,1.908,1.646c0.84,0.407,1.843,0.612,3.01,0.612
		c1.703,0,3.22-0.374,4.55-1.12l-1.54-5.005l-0.21,0.14c-0.14,0.094-0.339,0.187-0.595,0.28c-0.257,0.094-0.502,0.14-0.735,0.14
		c-0.934,0-1.399-0.828-1.399-2.485v-5.705h3.78v-4.725h-3.78v-6.685h-6.195v6.685H282.793z M257.173,839.6
		c0.607-0.535,1.423-0.805,2.45-0.805c0.933,0,1.698,0.251,2.293,0.753c0.595,0.502,0.962,1.219,1.102,2.152h-6.826
		C256.24,840.837,256.566,840.137,257.173,839.6 M269.073,844.29c0-3.056-0.892-5.407-2.677-7.052
		c-1.785-1.646-4.101-2.469-6.948-2.469c-2.707,0-5.028,0.935-6.966,2.801c-1.937,1.867-2.904,4.106-2.904,6.72
		c0,2.614,0.968,4.847,2.904,6.702c1.938,1.855,4.259,2.783,6.966,2.783c4.34,0,7.443-1.563,9.31-4.69l-4.48-2.24
		c-0.747,0.794-1.412,1.325-1.995,1.593c-0.583,0.269-1.377,0.402-2.38,0.402c-0.957,0-1.843-0.303-2.66-0.91
		c-0.817-0.605-1.225-1.54-1.225-2.8h13.02C269.061,844.99,269.073,844.71,269.073,844.29 M235.053,840.055
		c1.167,0,2.153,0.397,2.958,1.19c0.805,0.794,1.207,1.809,1.207,3.045c0,1.214-0.391,2.217-1.172,3.01
		c-0.782,0.794-1.78,1.19-2.993,1.19c-1.26,0-2.275-0.391-3.045-1.172c-0.77-0.782-1.155-1.791-1.155-3.028
		c0-1.236,0.403-2.251,1.208-3.045C232.866,840.452,233.863,840.055,235.053,840.055 M233.198,853.775c2.38,0,4.34-0.852,5.88-2.556
		h0.07v2.03h6.125v-30.1h-6.194v13.859c-1.54-1.493-3.5-2.24-5.88-2.24c-2.59,0-4.725,0.923-6.405,2.766
		c-1.68,1.844-2.521,4.095-2.521,6.755s0.84,4.906,2.521,6.737C228.473,852.86,230.608,853.775,233.198,853.775 M184.934,853.25
		v-10.5c0-0.816,0.239-1.523,0.718-2.117c0.477-0.595,1.195-0.893,2.152-0.893c1.05,0,1.838,0.32,2.363,0.962
		c0.525,0.643,0.787,1.441,0.787,2.397v10.15h6.195v-10.71c0.046-0.771,0.309-1.429,0.788-1.978
		c0.477-0.548,1.172-0.822,2.082-0.822c1.05,0,1.837,0.32,2.363,0.962c0.525,0.643,0.787,1.441,0.787,2.397v10.15h6.195v-11.83
		c0-2.286-0.689-3.966-2.065-5.04c-1.377-1.073-3.022-1.61-4.935-1.61c-2.147,0-4.13,1.098-5.95,3.29
		c-0.584-1.119-1.447-1.947-2.59-2.484c-1.144-0.536-2.369-0.806-3.675-0.806c-1.82,0-3.535,0.806-5.145,2.415h-0.07v-1.89h-6.195
		v17.955H184.934z M162.604,839.6c0.607-0.535,1.423-0.805,2.45-0.805c0.933,0,1.698,0.251,2.293,0.753
		c0.595,0.502,0.962,1.219,1.102,2.152h-6.825C161.671,840.837,161.997,840.137,162.604,839.6 M174.504,844.29
		c0-3.056-0.892-5.407-2.677-7.052c-1.785-1.646-4.101-2.469-6.948-2.469c-2.707,0-5.028,0.935-6.965,2.801
		c-1.937,1.867-2.905,4.106-2.905,6.72c0,2.614,0.968,4.847,2.905,6.702s4.258,2.783,6.965,2.783c4.34,0,7.443-1.563,9.31-4.69
		l-4.48-2.24c-0.747,0.794-1.412,1.325-1.995,1.593c-0.583,0.269-1.377,0.402-2.38,0.402c-0.957,0-1.843-0.303-2.66-0.91
		c-0.817-0.605-1.225-1.54-1.225-2.8h13.02C174.492,844.99,174.504,844.71,174.504,844.29 M140.659,840.055
		c1.166,0,2.152,0.397,2.957,1.19c0.805,0.794,1.208,1.809,1.208,3.045c0,1.214-0.391,2.217-1.173,3.01
		c-0.782,0.794-1.779,1.19-2.992,1.19c-1.26,0-2.275-0.391-3.045-1.172c-0.77-0.782-1.155-1.791-1.155-3.028
		c0-1.236,0.402-2.251,1.207-3.045C138.471,840.452,139.469,840.055,140.659,840.055 M140.309,862.875
		c3.173,0,5.728-0.794,7.665-2.38c1.936-1.587,2.905-3.839,2.905-6.755v-18.445h-6.195v1.61h-0.105
		c-1.54-1.423-3.465-2.136-5.775-2.136c-2.59,0-4.725,0.923-6.405,2.766c-1.68,1.844-2.52,4.095-2.52,6.755s0.84,4.906,2.52,6.737
		c1.68,1.833,3.815,2.748,6.405,2.748c2.823,0,4.783-0.606,5.88-1.82v1.33c0,1.423-0.461,2.479-1.383,3.167
		c-0.922,0.688-1.919,1.033-2.992,1.033c-2.31,0-3.932-0.771-4.865-2.311l-5.075,2.485
		C131.862,861.136,135.175,862.875,140.309,862.875 M115.354,840.055c1.166,0,2.152,0.397,2.957,1.19
		c0.805,0.794,1.208,1.809,1.208,3.045c0,1.214-0.391,2.217-1.173,3.01c-0.782,0.794-1.779,1.19-2.992,1.19
		c-1.26,0-2.275-0.391-3.045-1.172c-0.77-0.782-1.155-1.791-1.155-3.028c0-1.236,0.402-2.251,1.207-3.045
		C113.166,840.452,114.164,840.055,115.354,840.055 M113.499,853.775c2.38,0,4.34-0.852,5.88-2.556h0.07v2.03h6.125v-17.955h-6.195
		v1.715c-1.54-1.493-3.5-2.24-5.88-2.24c-2.59,0-4.725,0.923-6.405,2.766c-1.68,1.844-2.52,4.095-2.52,6.755s0.84,4.906,2.52,6.737
		C108.774,852.86,110.909,853.775,113.499,853.775 M89.174,835.295v4.725h2.59v6.896c0,0.864,0.093,1.675,0.28,2.433
		c0.187,0.759,0.496,1.482,0.928,2.17c0.431,0.688,1.067,1.237,1.907,1.646c0.84,0.407,1.843,0.612,3.01,0.612
		c1.703,0,3.22-0.374,4.55-1.12l-1.54-5.005l-0.21,0.14c-0.14,0.094-0.338,0.187-0.595,0.28c-0.257,0.094-0.502,0.14-0.735,0.14
		c-0.933,0-1.4-0.828-1.4-2.485v-5.705h3.78v-4.725h-3.78v-6.685h-6.195v6.685H89.174z M74.492,836.292
		c-1.412,1.015-2.118,2.433-2.118,4.253c0,1.214,0.327,2.188,0.98,2.922c0.653,0.735,1.54,1.396,2.66,1.979
		c0.443,0.233,1.056,0.489,1.838,0.77c0.781,0.28,1.335,0.531,1.662,0.752c0.327,0.224,0.49,0.532,0.49,0.928
		c0,0.864-0.642,1.296-1.925,1.296c-0.583,0-1.272-0.193-2.065-0.577c-0.793-0.386-1.342-0.688-1.645-0.911
		c-0.303-0.221-0.548-0.413-0.735-0.577l-2.52,4.235l0.77,0.63c0.513,0.396,1.348,0.794,2.503,1.189
		c1.155,0.396,2.374,0.596,3.657,0.596c5.67,0,8.505-2.041,8.505-6.125c0-0.863-0.163-1.634-0.49-2.311
		c-0.327-0.676-0.787-1.236-1.382-1.68c-0.595-0.443-1.161-0.793-1.698-1.05s-1.167-0.49-1.89-0.7
		c-0.117-0.023-0.286-0.07-0.507-0.141c-0.222-0.069-0.38-0.121-0.473-0.156c-0.093-0.036-0.233-0.088-0.42-0.158
		s-0.321-0.122-0.402-0.157c-0.082-0.036-0.193-0.088-0.333-0.158c-0.14-0.069-0.239-0.134-0.297-0.192
		c-0.06-0.058-0.123-0.127-0.193-0.209c-0.07-0.082-0.117-0.169-0.14-0.264c-0.023-0.093-0.035-0.186-0.035-0.279
		c0-0.42,0.146-0.705,0.438-0.858c0.291-0.151,0.787-0.227,1.487-0.227c1.26,0,2.59,0.374,3.99,1.12l2.03-4.061l-0.735-0.35
		c-0.49-0.233-1.237-0.467-2.24-0.7c-1.003-0.233-2.018-0.351-3.045-0.351C77.811,834.77,75.903,835.277,74.492,836.292
		 M66.635,853.25H60.44v-17.955h6.195V853.25z M59.95,827.875c0,1.004,0.361,1.867,1.085,2.59c0.723,0.725,1.586,1.085,2.59,1.085
		c1.003,0,1.866-0.36,2.59-1.085c0.723-0.723,1.085-1.586,1.085-2.59c0-1.003-0.362-1.866-1.085-2.59
		c-0.724-0.723-1.587-1.085-2.59-1.085c-1.004,0-1.867,0.362-2.59,1.085C60.311,826.009,59.95,826.872,59.95,827.875
		 M39.265,824.375v28.875h16.52v-5.775h-9.94v-23.1H39.265z"/>
	<path clip-path="url(#SVGID_2_)" fill="#231F20" d="M127.813,516.695V282.453h19.18c15.755,0,26.769,3.543,33.051,10.618
		c6.278,7.08,9.419,17.468,9.419,31.167v146.561c0,15.756-3.141,27.348-9.419,34.765c-6.282,7.423-17.296,11.132-33.051,11.132
		H127.813z M59.997,282.453h22.605v233.899H59.997v43.498h86.996c29.68,0,51.718-6.904,66.103-20.721
		c14.385-13.813,21.578-35.22,21.578-64.22V324.238c0-28.994-7.193-50.4-21.578-64.219c-14.385-13.812-36.423-20.721-66.103-20.721
		H59.997V282.453z"/>
</g>
<line fill="none" stroke="#0046F9" stroke-width="2" x1="282" y1="219" x2="282" y2="595.15"/>
<g>
	<defs>
		<rect id="SVGID_93_" width="564" height="1002"/>
	</defs>
	<clipPath id="SVGID_4_">
		<use xlink:href="#SVGID_93_"  overflow="visible"/>
	</clipPath>
	<polygon clip-path="url(#SVGID_4_)" fill="none" stroke="#0046F9" stroke-width="1.998" points="0.999,3 0.999,999 0.999,1001.002 
		3,1001.002 561,1001.002 563.001,1001.002 563.001,999 563.001,3 563.001,0.998 561,0.998 3,0.998 0.999,0.998 	"/>
</g>
<rect x="5.001" y="5.002" fill="none" stroke="#0046F9" stroke-width="1.998" width="553.998" height="991.996"/>
<g>
	<defs>
		<rect id="SVGID_95_" width="564" height="1002"/>
	</defs>
	<clipPath id="SVGID_6_">
		<use xlink:href="#SVGID_95_"  overflow="visible"/>
	</clipPath>
	<path clip-path="url(#SVGID_6_)" fill="#0046F9" d="M521.322,66.046c0-10.511-0.688-33.771-17.229-33.427
		c-13.785,0.345-16.025,18.609-16.025,29.636c0,9.821,3.964,22.399,7.755,32.565c7.408,17.748,11.371,27.224,11.371,37.906
		c0,8.099-0.345,12.233-2.929,12.233c-3.791,0-3.791-17.747-3.791-21.71l-13.956,2.068c0,11.543-0.345,36.699,17.747,36.699
		c14.818,0,17.058-18.091,17.058-30.152c0-12.75-4.651-24.812-10.854-39.801c-4.997-12.58-8.443-21.539-8.443-29.81
		c0-7.409,0.346-12.578,2.412-12.578c2.757,0,2.757,13.957,2.757,18.437L521.322,66.046z M459.468,136.345
		c0,3.964-1.034,7.582-2.757,7.582c-1.551,0-2.929-2.929-2.929-7.582V58.292c0-4.136,1.033-7.581,2.929-7.581
		s2.757,3.618,2.757,7.581V136.345z M473.769,58.292c0-10.338-3.445-25.673-17.229-25.673c-12.923,0-17.403,12.578-17.403,25.673
		v78.053c0,12.062,3.963,25.673,17.403,25.673c13.095,0,17.229-12.578,17.229-25.673V58.292z M401.921,53.123V160.64h14.302V53.123
		h10.51V33.998h-35.321v19.125H401.921z M366.083,160.64h12.061V33.998h-13.267v59.789l-10.339-59.789h-12.062V160.64h13.269V99.128
		L366.083,160.64z M298.714,160.64h28.603v-19.126h-14.302v-34.805h10.339V86.378h-10.339V53.123h14.302V33.998h-28.603V160.64z
		 M263.049,160.64l4.824-62.374v62.374h13.612V33.998h-15.851l-6.548,59.789l-6.547-59.789h-15.852V160.64h13.267V98.266
		l5.341,62.374H263.049z M205.155,33.998v102.347c0,4.136-0.517,7.582-2.584,7.582c-2.24,0-2.757-2.757-2.757-7.582V33.998h-14.301
		v102.347c0,12.923,3.274,25.673,17.058,25.673c12.922,0,16.885-11.371,16.885-25.673V33.998H205.155z M157.774,117.22v19.125
		c0,2.413-0.173,7.582-2.93,7.582c-2.067,0-2.412-5.169-2.412-7.582V57.604c0-2.758,0.173-6.893,2.412-6.893
		c2.757,0,2.93,5.341,2.93,7.581v19.126h13.956V58.292c0-8.959-3.274-25.673-17.058-25.673c-12.923,0-16.886,14.474-16.886,25.673
		v78.053c0,11.2,3.447,25.673,16.886,25.673c13.095,0,17.058-12.404,17.058-25.673V117.22H157.774z M109.531,136.345
		c0,3.964-1.034,7.582-2.757,7.582c-1.551,0-2.929-2.929-2.929-7.582V58.292c0-4.136,1.034-7.581,2.929-7.581
		s2.757,3.618,2.757,7.581V136.345z M123.832,58.292c0-10.338-3.446-25.673-17.23-25.673c-12.923,0-17.403,12.578-17.403,25.673
		v78.053c0,12.062,3.963,25.673,17.403,25.673c13.095,0,17.23-12.578,17.23-25.673V58.292z M54.051,52.605
		c2.068,0.174,4.652-0.344,5.169,4.137c0.862,7.753,0.517,19.986,0.517,46.004v29.636c0,10.166-3.446,9.649-5.686,9.649V52.605z
		 M53.534,160.64c11.372,0,15.507-4.479,17.747-11.2c2.585-7.58,2.585-27.223,2.585-52.035c0-24.812-0.345-40.662-3.274-50.312
		c-3.101-9.649-7.581-13.095-18.953-13.095H39.75V160.64H53.534z"/>
</g>
<line fill="none" stroke="#0046F9" stroke-width="2" x1="23.478" y1="197" x2="536.479" y2="197"/>
<line fill="none" stroke="#0046F9" stroke-width="2" x1="23.478" y1="616" x2="536.479" y2="616"/>
<line fill="none" stroke="#0046F9" stroke-width="2" x1="23.478" y1="790" x2="536.479" y2="790"/>
<g>
	<defs>
		<rect id="SVGID_97_" width="564" height="1002"/>
	</defs>
	<clipPath id="SVGID_8_">
		<use xlink:href="#SVGID_97_"  overflow="visible"/>
	</clipPath>
	<path clip-path="url(#SVGID_8_)" fill="#231F20" d="M477.478,513.447h45.298v47.887h-45.298V513.447z M325.191,344.766v-22.002
		c0-21.139,3.02-41.848,12.08-56.946c9.059-15.101,24.59-25.022,50.043-25.022c23.728,0,39.689,9.06,49.181,22.865
		c9.491,14.236,12.943,34.081,12.943,56.083c0,32.356-12.08,70.752-27.18,106.56c-15.53,36.238-33.65,68.594-45.729,88.871H450.3
		v46.16H323.897v-46.16c14.235-22.002,27.179-44.437,38.827-66.869c9.922-18.982,19.412-40.553,26.746-62.555
		s12.943-43.574,13.374-62.986c0-8.629-0.431-18.551-2.588-25.885c-2.156-7.334-6.04-12.942-12.942-12.942
		c-6.472,0-10.354,4.746-12.512,11.647c-2.156,7.334-3.02,16.825-3.02,27.18v22.002H325.191z"/>
	<path clip-path="url(#SVGID_8_)" fill="#0046F9" d="M447.652,758.977c11.916-13.619,22.98-24.116,32.628-31.493
		c11.064-8.512,20.995-14.186,29.507-17.022v-6.526c-11.916-5.107-22.13-11.065-30.358-18.725
		c-16.455-15.037-27.237-25.535-31.776-31.21h-19.577c4.54,9.646,9.363,18.441,14.186,26.386
		c3.973,5.959,8.229,11.633,13.619,17.307H50.169V715h405.995c-7.377,9.078-11.633,15.037-13.903,18.726
		c-5.958,9.646-10.78,18.158-13.617,25.251H447.652z"/>
</g>
</svg>
