<?xml version="1.0" encoding="utf-8"?>
<!-- Generator: Adobe Illustrator 16.0.0, SVG Export Plug-In . SVG Version: 6.00 Build 0)  -->
<!DOCTYPE svg PUBLIC "-//W3C//DTD SVG 1.1//EN" "http://www.w3.org/Graphics/SVG/1.1/DTD/svg11.dtd">
<svg version="1.1" id="Layer_1" xmlns="http://www.w3.org/2000/svg" xmlns:xlink="http://www.w3.org/1999/xlink" x="0px" y="0px"
	 width="1170.09px" height="575.043px" viewBox="0 0 1170.09 575.043" enable-background="new 0 0 1170.09 575.043"
	 xml:space="preserve">
<g>
	<defs>
		<rect id="SVGID_15_" width="1170.088" height="575.043"/>
	</defs>
	<clipPath id="SVGID_2_">
		<use xlink:href="#SVGID_15_"  overflow="visible"/>
	</clipPath>
	<path clip-path="url(#SVGID_2_)" fill="#0046FA" d="M1094.246,58.754h2.005l9.025,39.89h-20.169L1094.246,58.754z
		 M1112.297,129.398h15.376L1109.064,51.4h-27.634l-18.608,77.998h15.377l3.789-16.715h26.52L1112.297,129.398z M1009.004,115.357
		V65.439h6.239c5.126,0,8.709,1.152,10.753,3.453c2.043,2.305,3.064,5.684,3.064,10.141v21.394c0,5.126-1.021,8.897-3.064,11.31
		c-2.044,2.416-5.627,3.621-10.753,3.621H1009.004z M986.941,65.439h7.354v49.807h-7.354v14.152h28.302
		c9.656,0,16.826-2.246,21.507-6.742c4.679-4.494,7.019-11.457,7.019-20.893v-22.73c0-9.434-2.34-16.397-7.019-20.893
		c-4.681-4.494-11.851-6.74-21.507-6.74h-28.302V65.439z M911.617,129.398h50.588v-14.041h-35.881V97.307h33.206v-14.04h-33.206
		V65.439h34.543V51.4h-49.25V129.398z M870.612,51.4v51.032c0,4.606-1.078,8.209-3.23,10.808c-2.157,2.602-5.535,3.9-10.142,3.9
		c-4.605,0-7.984-1.299-10.139-3.9c-2.155-2.599-3.231-6.201-3.231-10.808V51.4h-14.709v51.032c0,8.914,2.358,15.897,7.076,20.948
		c4.716,5.052,11.718,7.577,21.003,7.577c9.286,0,16.286-2.525,21.005-7.577c4.717-5.051,7.075-12.034,7.075-20.948V51.4H870.612z
		 M771.221,116.25c-1.783-0.893-3.232-2.117-4.346-3.678c-1.114-1.56-1.895-3.435-2.341-5.627c-0.445-2.19-0.668-4.586-0.668-7.187
		v-18.72c0-2.451,0.26-4.754,0.78-6.908c0.518-2.154,1.337-4.048,2.451-5.684c1.114-1.633,2.562-2.914,4.346-3.844
		c1.781-0.928,3.937-1.393,6.461-1.393c2.526,0,4.682,0.465,6.464,1.393c1.783,0.93,3.231,2.211,4.347,3.844
		c1.113,1.636,1.931,3.529,2.451,5.684c0.519,2.154,0.779,4.457,0.779,6.908v18.72c0,2.601-0.223,4.996-0.669,7.187
		c-0.444,2.192-1.225,4.067-2.339,5.627c-1.115,1.561-2.562,2.785-4.346,3.678c-1.783,0.891-4.012,1.337-6.688,1.337
		C775.231,117.587,773.004,117.141,771.221,116.25 M770.886,138.089c0,3.045,1.003,5.589,3.009,7.633
		c2.006,2.042,4.531,3.063,7.576,3.063h13.148v-13.371h-6.907c-1.858,0-2.786-1.041-2.786-3.119v-2.006
		c6.834-1.262,12.163-4.53,15.99-9.805c3.824-5.274,5.737-12.406,5.737-21.395V81.708c0-10.103-2.546-17.94-7.632-23.511
		c-5.089-5.572-12.128-8.357-21.117-8.357c-8.987,0-16.026,2.785-21.113,8.357c-5.09,5.57-7.635,13.408-7.635,23.511V99.09
		c0,8.988,1.896,16.12,5.685,21.395c3.789,5.274,9.137,8.543,16.045,9.805V138.089z M711.941,77.919h14.708v-4.011
		c0-3.193-0.613-6.24-1.838-9.137c-1.226-2.898-3.047-5.461-5.46-7.689c-2.415-2.229-5.404-3.992-8.97-5.293
		c-3.566-1.299-7.652-1.949-12.257-1.949c-4.086,0-7.782,0.557-11.088,1.671s-6.128,2.675-8.468,4.681s-4.161,4.364-5.46,7.074
		c-1.301,2.713-1.95,5.666-1.95,8.859v0.668c0,3.863,0.669,7.132,2.007,9.806c1.337,2.675,3.212,4.903,5.627,6.687
		c2.412,1.781,5.254,3.213,8.523,4.289c3.269,1.078,6.87,1.949,10.809,2.619c2.97,0.521,5.422,1.152,7.354,1.894
		c1.931,0.743,3.454,1.579,4.569,2.507c1.113,0.93,1.894,1.969,2.34,3.12c0.445,1.153,0.667,2.358,0.667,3.622
		c0,2.674-1.076,4.977-3.23,6.908c-2.155,1.933-5.46,2.896-9.917,2.896c-5.721,0-9.937-1.393-12.646-4.178
		c-2.712-2.786-4.067-6.52-4.067-11.199V99.09h-14.708v3.343c0,4.086,0.668,7.854,2.005,11.31c1.338,3.455,3.306,6.463,5.906,9.025
		c2.599,2.562,5.85,4.569,9.75,6.018c3.9,1.449,8.412,2.173,13.538,2.173c4.382,0,8.319-0.558,11.811-1.671
		c3.491-1.115,6.464-2.711,8.913-4.793c2.453-2.078,4.328-4.586,5.628-7.521s1.95-6.221,1.95-9.86v-1.338
		c0-6.834-2.154-11.996-6.463-15.488c-4.308-3.49-10.549-5.979-18.719-7.465c-3.271-0.594-5.961-1.227-8.078-1.895
		c-2.117-0.669-3.827-1.43-5.126-2.285c-1.301-0.854-2.211-1.818-2.73-2.896c-0.521-1.076-0.779-2.284-0.779-3.621
		c0-2.6,1.076-4.661,3.229-6.184c2.154-1.522,5.089-2.285,8.805-2.285c4.382,0,7.779,1.152,10.195,3.455
		c2.413,2.303,3.621,5.014,3.621,8.133V77.919z M613.664,43.154h11.364L634.389,28h-14.932L613.664,43.154z M632.606,51.4v51.032
		c0,4.606-1.078,8.209-3.231,10.808c-2.155,2.602-5.535,3.9-10.141,3.9s-7.986-1.299-10.139-3.9
		c-2.156-2.599-3.232-6.201-3.232-10.808V51.4h-14.708v51.032c0,8.914,2.357,15.897,7.075,20.948
		c4.717,5.052,11.718,7.577,21.004,7.577c9.285,0,16.286-2.525,21.004-7.577c4.717-5.051,7.076-12.034,7.076-20.948V51.4H632.606z
		 M532.99,65.439h10.697c3.119,0,5.645,0.65,7.577,1.949c1.931,1.301,2.897,3.51,2.897,6.63v0.669c0,3.12-0.967,5.331-2.897,6.631
		c-1.933,1.299-4.458,1.948-7.577,1.948H532.99V65.439z M532.99,97.307h10.697c3.119,0,5.645,0.669,7.577,2.006
		c1.931,1.338,2.897,3.566,2.897,6.686v0.669c0,3.12-0.967,5.348-2.897,6.687c-1.933,1.336-4.458,2.004-7.577,2.004H532.99V97.307z
		 M510.929,129.398h34.208c3.714,0,7.001-0.52,9.861-1.561c2.857-1.039,5.273-2.469,7.242-4.29c1.967-1.819,3.454-3.974,4.457-6.463
		c1.004-2.488,1.504-5.181,1.504-8.078v-1.337c0-4.457-1.244-8.04-3.732-10.753c-2.489-2.712-5.627-4.587-9.415-5.628v-2.004
		c3.788-1.041,6.926-2.898,9.415-5.572c2.488-2.674,3.732-6.24,3.732-10.697v-1.337c0-2.897-0.5-5.589-1.504-8.078
		c-1.003-2.487-2.49-4.624-4.457-6.407c-1.969-1.783-4.385-3.192-7.242-4.233c-2.86-1.04-6.147-1.56-9.861-1.56h-34.208v14.039
		h7.354v49.918h-7.354V129.398z"/>
	<path clip-path="url(#SVGID_2_)" fill="#231F20" d="M1077.615,365.986c-11.189,0-19.816,2.656-25.884,7.963
		c-6.071,5.311-9.102,12.799-9.102,22.471c0,9.67,3.03,17.164,9.102,22.469c6.067,5.312,14.694,7.965,25.884,7.965
		c11.187,0,19.812-2.652,25.883-7.965c6.067-5.305,9.103-12.799,9.103-22.469c0-9.672-3.035-17.16-9.103-22.471
		C1097.428,368.643,1088.802,365.986,1077.615,365.986 M905.82,345.791l21.901-47.502c3.791-9.102,6.258-15.737,7.395-19.91h0.854
		c-0.76,22-1.138,38.684-1.138,50.061v17.352H905.82z M932.271,424.578h56.887V388.74h25.885v-42.949h-25.885V236.852h-75.09
		l-61.152,124.582v27.307h79.355V424.578z"/>
	<path clip-path="url(#SVGID_2_)" fill="#231F20" d="M189.727,370.959V253.076h25.383c11.063,0,20.825,1.67,29.288,5.004
		c8.458,3.337,15.578,7.729,21.355,13.18c5.774,5.453,10.129,11.677,13.057,18.67c2.929,6.998,4.394,14.156,4.394,21.479
		c0,8.297-1.385,16.07-4.149,23.307c-2.769,7.242-7.241,13.547-13.423,18.916c-6.186,5.369-14.24,9.602-24.162,12.691
		c-9.928,3.092-22.13,4.637-36.609,4.637H189.727z M189.727,208.9l0.244-94.207h14.889c13.34,0,24.566,1.303,33.68,3.904
		c9.111,2.605,16.391,6.064,21.845,10.373c5.448,4.312,9.354,9.316,11.715,15.01c2.356,5.697,3.539,11.635,3.539,17.816
		c0,6.186-1.183,12.123-3.539,17.816c-2.36,5.697-6.267,10.74-11.715,15.133c-5.454,4.393-12.733,7.852-21.845,10.371
		c-9.113,2.525-20.34,3.783-33.68,3.783H189.727z M48.658,424.164h221.121c27.008,0,50.602-3.051,70.778-9.15
		c20.174-6.104,36.976-14.195,50.399-24.285c13.424-10.086,23.51-21.639,30.264-34.658c6.75-13.014,10.129-26.518,10.129-40.514
		c0-20.501-6.266-37.83-18.793-51.984c-12.531-14.156-31.484-24.896-56.867-32.217c15.456-9.275,27.213-20.296,35.268-33.07
		c8.054-12.772,12.08-26.397,12.08-40.881c0-14.48-3.416-27.617-10.25-39.416c-6.834-11.795-17.045-21.883-30.629-30.265
		c-13.588-8.378-30.508-14.846-50.766-19.403c-20.257-4.553-43.893-6.834-70.9-6.834H48.658V424.164z"/>
	<path clip-path="url(#SVGID_2_)" fill="#231F20" d="M1117.492,515.721c-1.452,1.043-2.179,2.502-2.179,4.373
		c0,1.248,0.337,2.25,1.009,3.006c0.672,0.758,1.584,1.436,2.735,2.035c0.456,0.24,1.086,0.504,1.891,0.791
		c0.804,0.289,1.374,0.547,1.71,0.775c0.336,0.227,0.504,0.545,0.504,0.953c0,0.889-0.66,1.332-1.98,1.332
		c-0.6,0-1.309-0.197-2.124-0.594s-1.38-0.709-1.691-0.936c-0.312-0.229-0.564-0.426-0.757-0.594l-2.592,4.355l0.791,0.648
		c0.529,0.408,1.387,0.814,2.575,1.223s2.442,0.613,3.762,0.613c5.832,0,8.748-2.102,8.748-6.301c0-0.889-0.169-1.68-0.504-2.375
		c-0.336-0.697-0.81-1.273-1.422-1.729c-0.612-0.457-1.194-0.816-1.746-1.08s-1.2-0.504-1.944-0.721
		c-0.119-0.023-0.293-0.072-0.521-0.145c-0.229-0.07-0.39-0.125-0.486-0.16c-0.096-0.037-0.239-0.092-0.432-0.162
		c-0.192-0.072-0.33-0.127-0.414-0.162c-0.084-0.037-0.199-0.09-0.342-0.162c-0.145-0.072-0.246-0.139-0.305-0.199
		c-0.061-0.059-0.127-0.131-0.199-0.215s-0.121-0.174-0.145-0.27c-0.023-0.098-0.036-0.193-0.036-0.289
		c0-0.432,0.15-0.727,0.45-0.883c0.3-0.154,0.811-0.232,1.53-0.232c1.296,0,2.663,0.383,4.104,1.15l2.089-4.176l-0.757-0.359
		c-0.505-0.24-1.272-0.48-2.304-0.721c-1.032-0.238-2.076-0.359-3.132-0.359C1120.906,514.154,1118.943,514.676,1117.492,515.721
		 M1101.454,519.59c1.2,0,2.215,0.408,3.042,1.225c0.828,0.816,1.242,1.859,1.242,3.133c0,1.248-0.402,2.279-1.205,3.096
		c-0.806,0.816-1.831,1.223-3.079,1.223c-1.296,0-2.339-0.4-3.131-1.205c-0.793-0.805-1.189-1.842-1.189-3.113
		c0-1.273,0.414-2.316,1.243-3.133C1099.204,519.998,1100.23,519.59,1101.454,519.59 M1101.491,533.703
		c3.19,0,5.825-0.918,7.899-2.754c2.077-1.836,3.115-4.17,3.115-7.002s-1.062-5.172-3.186-7.021
		c-2.125-1.848-4.733-2.771-7.829-2.771c-3.146,0-5.786,0.918-7.921,2.754c-2.137,1.836-3.203,4.182-3.203,7.039
		c0,2.855,1.023,5.195,3.076,7.02S1098.179,533.703,1101.491,533.703 M1087.199,533.162h-6.372v-18.467h6.372V533.162z
		 M1080.323,507.062c0,1.031,0.372,1.92,1.115,2.664c0.744,0.744,1.632,1.115,2.664,1.115s1.92-0.371,2.664-1.115
		s1.116-1.633,1.116-2.664s-0.372-1.92-1.116-2.664s-1.632-1.115-2.664-1.115s-1.92,0.371-2.664,1.115
		C1080.695,505.143,1080.323,506.031,1080.323,507.062 M1069.271,533.162v-9.719c0-0.193,0.047-0.457,0.144-0.793
		c0.096-0.336,0.258-0.744,0.487-1.225c0.227-0.479,0.616-0.887,1.168-1.223c0.553-0.336,1.213-0.504,1.98-0.504
		c1.416,0,2.52,0.336,3.312,1.008l2.664-5.4l-0.504-0.289c-0.312-0.191-0.805-0.383-1.476-0.574
		c-0.673-0.193-1.356-0.289-2.052-0.289c-0.673,0-1.333,0.113-1.98,0.342s-1.177,0.486-1.584,0.773
		c-0.409,0.289-0.793,0.613-1.152,0.973s-0.595,0.611-0.701,0.756c-0.108,0.145-0.188,0.264-0.236,0.361h-0.07v-2.664h-6.372v18.467
		H1069.271z M1047.744,519.123c0.623-0.553,1.463-0.828,2.52-0.828c0.959,0,1.746,0.258,2.357,0.773
		c0.613,0.516,0.99,1.254,1.135,2.215h-7.02C1046.783,520.395,1047.119,519.674,1047.744,519.123 M1059.984,523.947
		c0-3.145-0.919-5.562-2.755-7.254c-1.836-1.693-4.219-2.539-7.146-2.539c-2.785,0-5.173,0.961-7.164,2.881
		c-1.993,1.92-2.988,4.223-2.988,6.912c0,2.688,0.995,4.984,2.988,6.893c1.991,1.908,4.379,2.863,7.164,2.863
		c4.464,0,7.655-1.609,9.576-4.824l-4.608-2.305c-0.769,0.816-1.453,1.361-2.052,1.639c-0.601,0.275-1.417,0.414-2.448,0.414
		c-0.985,0-1.897-0.312-2.736-0.936c-0.841-0.625-1.261-1.584-1.261-2.881h13.394
		C1059.971,524.666,1059.984,524.379,1059.984,523.947 M1025.46,514.695v4.859h2.664v7.092c0,0.889,0.096,1.723,0.288,2.502
		c0.191,0.779,0.51,1.523,0.954,2.232c0.443,0.707,1.098,1.271,1.962,1.691c0.863,0.42,1.895,0.631,3.096,0.631
		c1.752,0,3.312-0.385,4.68-1.152l-1.584-5.148l-0.216,0.145c-0.144,0.096-0.348,0.191-0.612,0.287
		c-0.264,0.096-0.516,0.145-0.756,0.145c-0.961,0-1.439-0.852-1.439-2.557v-5.867h3.888v-4.859h-3.888v-6.877h-6.372v6.877H1025.46z
		 M1022.544,533.162h-6.372v-18.467h6.372V533.162z M1015.668,507.062c0,1.031,0.372,1.92,1.116,2.664
		c0.743,0.744,1.632,1.115,2.664,1.115c1.031,0,1.92-0.371,2.664-1.115c0.743-0.744,1.115-1.633,1.115-2.664
		s-0.372-1.92-1.115-2.664c-0.744-0.744-1.633-1.115-2.664-1.115c-1.032,0-1.921,0.371-2.664,1.115
		C1016.04,505.143,1015.668,506.031,1015.668,507.062 M1004.617,533.162v-9.719c0-0.193,0.048-0.457,0.144-0.793
		c0.095-0.336,0.258-0.744,0.486-1.225c0.228-0.479,0.618-0.887,1.17-1.223s1.212-0.504,1.979-0.504
		c1.416,0,2.521,0.336,3.312,1.008l2.664-5.4l-0.504-0.289c-0.312-0.191-0.805-0.383-1.477-0.574
		c-0.672-0.193-1.355-0.289-2.052-0.289c-0.672,0-1.333,0.113-1.979,0.342c-0.648,0.229-1.177,0.486-1.584,0.773
		c-0.408,0.289-0.793,0.613-1.152,0.973c-0.36,0.359-0.594,0.611-0.702,0.756s-0.186,0.264-0.235,0.361h-0.07v-2.664h-6.372v18.467
		H1004.617z M993.564,520.238l2.16-4.355l-0.611-0.432c-0.433-0.289-1.164-0.576-2.196-0.865c-1.032-0.287-2.16-0.432-3.384-0.432
		c-2.713,0-5.095,0.967-7.146,2.898s-3.078,4.242-3.078,6.93c0,2.664,1.026,4.949,3.078,6.857s4.434,2.863,7.146,2.863
		c1.224,0,2.369-0.156,3.438-0.469s1.752-0.559,2.052-0.738c0.301-0.18,0.534-0.33,0.702-0.449l-2.16-4.428l-0.324,0.215
		c-0.239,0.145-0.617,0.289-1.134,0.432c-0.516,0.145-1.062,0.217-1.638,0.217c-1.2,0-2.231-0.443-3.096-1.332
		c-0.865-0.889-1.296-1.969-1.296-3.24c0-1.248,0.431-2.316,1.296-3.203c0.864-0.889,1.896-1.332,3.096-1.332
		C991.74,519.375,992.771,519.662,993.564,520.238 M955.244,515.721c-1.453,1.043-2.179,2.502-2.179,4.373
		c0,1.248,0.335,2.25,1.009,3.006c0.671,0.758,1.584,1.436,2.735,2.035c0.455,0.24,1.085,0.504,1.891,0.791
		c0.803,0.289,1.372,0.547,1.71,0.775c0.335,0.227,0.504,0.545,0.504,0.953c0,0.889-0.661,1.332-1.98,1.332
		c-0.601,0-1.309-0.197-2.124-0.594c-0.816-0.396-1.381-0.709-1.691-0.936c-0.313-0.229-0.565-0.426-0.756-0.594l-2.593,4.355
		l0.792,0.648c0.527,0.408,1.387,0.814,2.574,1.223c1.188,0.408,2.441,0.613,3.762,0.613c5.832,0,8.748-2.102,8.748-6.301
		c0-0.889-0.169-1.68-0.504-2.375c-0.337-0.697-0.81-1.273-1.422-1.729c-0.612-0.457-1.196-0.816-1.746-1.08
		c-0.553-0.264-1.202-0.504-1.943-0.721c-0.122-0.023-0.296-0.072-0.522-0.145c-0.229-0.07-0.391-0.125-0.486-0.16
		c-0.096-0.037-0.24-0.092-0.432-0.162c-0.193-0.072-0.332-0.127-0.414-0.162c-0.085-0.037-0.198-0.09-0.342-0.162
		c-0.145-0.072-0.247-0.139-0.307-0.199c-0.061-0.059-0.125-0.131-0.197-0.215s-0.121-0.174-0.145-0.27
		c-0.024-0.098-0.036-0.193-0.036-0.289c0-0.432,0.149-0.727,0.45-0.883c0.299-0.154,0.811-0.232,1.53-0.232
		c1.296,0,2.664,0.383,4.104,1.15l2.088-4.176l-0.757-0.359c-0.504-0.24-1.272-0.48-2.304-0.721
		c-1.033-0.238-2.077-0.359-3.132-0.359C958.656,514.154,956.695,514.676,955.244,515.721 M938.018,519.123
		c0.623-0.553,1.463-0.828,2.52-0.828c0.96,0,1.747,0.258,2.358,0.773c0.612,0.516,0.99,1.254,1.135,2.215h-7.021
		C937.057,520.395,937.393,519.674,938.018,519.123 M950.258,523.947c0-3.145-0.918-5.562-2.754-7.254
		c-1.836-1.693-4.219-2.539-7.146-2.539c-2.785,0-5.173,0.961-7.164,2.881c-1.992,1.92-2.988,4.223-2.988,6.912
		c0,2.688,0.996,4.984,2.988,6.893c1.991,1.908,4.379,2.863,7.164,2.863c4.465,0,7.655-1.609,9.576-4.824l-4.607-2.305
		c-0.77,0.816-1.453,1.361-2.053,1.639c-0.601,0.275-1.418,0.414-2.447,0.414c-0.985,0-1.897-0.312-2.736-0.936
		c-0.841-0.625-1.26-1.584-1.26-2.881h13.392C950.245,524.666,950.258,524.379,950.258,523.947 M927.218,502.203h-6.372v30.959
		h6.372V502.203z M906.77,528.266c-1.201,0-2.215-0.406-3.042-1.223c-0.828-0.816-1.241-1.861-1.241-3.133
		c0-1.248,0.4-2.279,1.205-3.096s1.83-1.225,3.078-1.225c1.296,0,2.34,0.402,3.133,1.207c0.791,0.803,1.188,1.842,1.188,3.113
		s-0.414,2.316-1.242,3.133S907.994,528.266,906.77,528.266 M908.678,514.154c-2.448,0-4.464,0.877-6.048,2.629h-0.072v-2.088h-6.3
		v27.828h6.372v-11.125c1.584,1.535,3.6,2.305,6.048,2.305c2.664,0,4.859-0.949,6.588-2.844c1.729-1.896,2.592-4.213,2.592-6.949
		s-0.863-5.045-2.592-6.93S911.342,514.154,908.678,514.154 M891.758,533.162h-6.372v-18.467h6.372V533.162z M884.882,507.062
		c0,1.031,0.372,1.92,1.116,2.664s1.632,1.115,2.664,1.115c1.031,0,1.92-0.371,2.664-1.115s1.115-1.633,1.115-2.664
		s-0.371-1.92-1.115-2.664s-1.633-1.115-2.664-1.115c-1.032,0-1.92,0.371-2.664,1.115S884.882,506.031,884.882,507.062
		 M869.583,514.695v4.859h2.664v7.092c0,0.889,0.095,1.723,0.288,2.502c0.189,0.779,0.509,1.523,0.953,2.232
		c0.444,0.707,1.099,1.271,1.963,1.691c0.863,0.42,1.895,0.631,3.096,0.631c1.751,0,3.312-0.385,4.68-1.152l-1.584-5.148
		l-0.216,0.145c-0.144,0.096-0.348,0.191-0.612,0.287s-0.517,0.145-0.756,0.145c-0.961,0-1.439-0.852-1.439-2.557v-5.867h3.888
		v-4.859h-3.888v-6.877h-6.372v6.877H869.583z M866.847,502.203h-6.372v30.959h6.372V502.203z M842.871,514.695v8.783
		c0,1.824,0.275,3.119,0.828,3.889c0.552,0.768,1.487,1.15,2.808,1.15s2.256-0.383,2.808-1.15c0.553-0.77,0.828-2.064,0.828-3.889
		v-8.783h6.372v10.332c0,3.07-0.798,5.285-2.394,6.641c-1.598,1.357-4.134,2.035-7.614,2.035c-3.479,0-6.019-0.678-7.614-2.035
		c-1.596-1.355-2.394-3.57-2.394-6.641v-10.332H842.871z M846.398,512.031l8.568-4.969l-3.276-4.141l-7.308,6.336L846.398,512.031z
		 M807.771,533.162v-10.799c0-0.84,0.245-1.566,0.738-2.18c0.491-0.611,1.229-0.918,2.213-0.918c1.081,0,1.892,0.33,2.432,0.99
		c0.539,0.66,0.81,1.482,0.81,2.467v10.439h6.372v-11.016c0.047-0.793,0.316-1.471,0.81-2.033c0.491-0.564,1.206-0.848,2.143-0.848
		c1.08,0,1.89,0.33,2.43,0.99s0.81,1.482,0.81,2.467v10.439h6.372v-12.168c0-2.352-0.709-4.08-2.124-5.184
		c-1.416-1.104-3.108-1.656-5.075-1.656c-2.209,0-4.248,1.129-6.12,3.385c-0.602-1.152-1.489-2.004-2.664-2.557
		c-1.177-0.553-2.438-0.828-3.78-0.828c-1.872,0-3.636,0.828-5.292,2.484h-0.072v-1.943h-6.372v18.467H807.771z M774.147,533.162
		v-10.439c0-0.912,0.39-1.74,1.171-2.484c0.779-0.744,1.649-1.115,2.609-1.115c0.984,0,1.782,0.359,2.395,1.08
		c0.611,0.719,0.918,1.559,0.918,2.52v10.439h6.372v-12.168c0-1.225-0.259-2.297-0.774-3.221c-0.516-0.926-1.188-1.639-2.016-2.143
		c-0.828-0.504-1.692-0.877-2.593-1.117c-0.899-0.238-1.806-0.359-2.718-0.359c-1.873,0-3.636,0.828-5.292,2.484h-0.072v-1.943
		h-6.372v18.467H774.147z M753.807,519.59c1.201,0,2.215,0.408,3.043,1.225s1.242,1.859,1.242,3.133
		c0,1.248-0.402,2.279-1.206,3.096s-1.831,1.223-3.079,1.223c-1.295,0-2.339-0.4-3.131-1.205s-1.188-1.842-1.188-3.113
		c0-1.273,0.414-2.316,1.241-3.133C751.558,519.998,752.584,519.59,753.807,519.59 M753.844,533.703
		c3.192,0,5.826-0.918,7.902-2.754s3.113-4.17,3.113-7.002s-1.062-5.172-3.186-7.021c-2.124-1.848-4.734-2.771-7.83-2.771
		c-3.144,0-5.784,0.918-7.92,2.754s-3.204,4.182-3.204,7.039c0,2.855,1.026,5.195,3.078,7.02S750.532,533.703,753.844,533.703
		 M739.3,520.238l2.16-4.355l-0.612-0.432c-0.432-0.289-1.164-0.576-2.195-0.865c-1.032-0.287-2.16-0.432-3.385-0.432
		c-2.713,0-5.094,0.967-7.146,2.898c-2.051,1.932-3.077,4.242-3.077,6.93c0,2.664,1.026,4.949,3.077,6.857
		c2.053,1.908,4.434,2.863,7.146,2.863c1.225,0,2.37-0.156,3.438-0.469c1.068-0.312,1.752-0.559,2.053-0.738
		c0.3-0.18,0.533-0.33,0.702-0.449l-2.16-4.428l-0.325,0.215c-0.238,0.145-0.617,0.289-1.133,0.432
		c-0.516,0.145-1.062,0.217-1.638,0.217c-1.2,0-2.233-0.443-3.097-1.332s-1.296-1.969-1.296-3.24c0-1.248,0.433-2.316,1.296-3.203
		c0.863-0.889,1.896-1.332,3.097-1.332C737.475,519.375,738.508,519.662,739.3,520.238 M702.508,519.59
		c1.2,0,2.215,0.408,3.043,1.225s1.242,1.859,1.242,3.133c0,1.248-0.403,2.279-1.206,3.096c-0.805,0.816-1.831,1.223-3.079,1.223
		c-1.295,0-2.339-0.4-3.131-1.205s-1.189-1.842-1.189-3.113c0-1.273,0.415-2.316,1.243-3.133
		C700.258,519.998,701.285,519.59,702.508,519.59 M702.545,533.703c3.191,0,5.825-0.918,7.902-2.754
		c2.074-1.836,3.113-4.17,3.113-7.002s-1.062-5.172-3.186-7.021c-2.124-1.848-4.734-2.771-7.83-2.771
		c-3.146,0-5.785,0.918-7.92,2.754c-2.137,1.836-3.204,4.182-3.204,7.039c0,2.855,1.026,5.195,3.078,7.02
		S699.232,533.703,702.545,533.703 M677.921,519.59c1.199,0,2.214,0.408,3.042,1.225s1.242,1.859,1.242,3.133
		c0,1.248-0.403,2.279-1.206,3.096c-0.806,0.816-1.831,1.223-3.078,1.223c-1.296,0-2.34-0.4-3.132-1.205s-1.188-1.842-1.188-3.113
		c0-1.273,0.414-2.316,1.242-3.133S676.697,519.59,677.921,519.59 M676.013,533.703c2.448,0,4.464-0.877,6.048-2.629h0.072v2.088
		h6.3v-30.959h-6.372v14.256c-1.584-1.537-3.6-2.305-6.048-2.305c-2.664,0-4.86,0.947-6.588,2.844s-2.592,4.213-2.592,6.949
		c0,2.734,0.864,5.045,2.592,6.93C671.152,532.76,673.349,533.703,676.013,533.703 M656.609,533.162v-9.719
		c0-0.193,0.047-0.457,0.144-0.793c0.096-0.336,0.258-0.744,0.486-1.225c0.228-0.479,0.616-0.887,1.17-1.223
		c0.552-0.336,1.212-0.504,1.979-0.504c1.416,0,2.521,0.336,3.312,1.008l2.664-5.4l-0.504-0.289
		c-0.312-0.191-0.805-0.383-1.477-0.574c-0.672-0.193-1.355-0.289-2.052-0.289c-0.672,0-1.332,0.113-1.98,0.342
		c-0.647,0.229-1.176,0.486-1.584,0.773c-0.407,0.289-0.792,0.613-1.151,0.973c-0.36,0.359-0.595,0.611-0.702,0.756
		c-0.108,0.145-0.187,0.264-0.234,0.361h-0.071v-2.664h-6.372v18.467H656.609z M635.081,519.123c0.624-0.553,1.464-0.828,2.52-0.828
		c0.96,0,1.746,0.258,2.358,0.773s0.99,1.254,1.134,2.215h-7.021C634.121,520.395,634.457,519.674,635.081,519.123 M647.32,523.947
		c0-3.145-0.918-5.562-2.754-7.254c-1.836-1.693-4.218-2.539-7.146-2.539c-2.784,0-5.172,0.961-7.164,2.881
		s-2.988,4.223-2.988,6.912c0,2.688,0.996,4.984,2.988,6.893s4.38,2.863,7.164,2.863c4.464,0,7.656-1.609,9.576-4.824l-4.608-2.305
		c-0.768,0.816-1.452,1.361-2.052,1.639c-0.6,0.275-1.416,0.414-2.448,0.414c-0.984,0-1.896-0.312-2.736-0.936
		c-0.84-0.625-1.26-1.584-1.26-2.881h13.393C647.309,524.666,647.32,524.379,647.32,523.947 M604.626,514.695v10.332
		c0,3.07,0.797,5.285,2.393,6.641c1.597,1.357,4.134,2.035,7.615,2.035c3.479,0,6.017-0.678,7.614-2.035
		c1.595-1.355,2.393-3.57,2.393-6.641v-10.332h-6.372v8.783c0,1.824-0.275,3.119-0.827,3.889c-0.553,0.768-1.488,1.15-2.808,1.15
		c-1.321,0-2.257-0.383-2.808-1.15c-0.555-0.77-0.828-2.064-0.828-3.889v-8.783H604.626z M600.234,520.238l2.159-4.355l-0.611-0.432
		c-0.433-0.289-1.165-0.576-2.196-0.865c-1.033-0.287-2.16-0.432-3.384-0.432c-2.714,0-5.095,0.967-7.147,2.898
		c-2.051,1.932-3.076,4.242-3.076,6.93c0,2.664,1.025,4.949,3.076,6.857c2.053,1.908,4.434,2.863,7.147,2.863
		c1.224,0,2.369-0.156,3.437-0.469c1.068-0.312,1.752-0.559,2.053-0.738c0.3-0.18,0.533-0.33,0.702-0.449l-2.159-4.428l-0.324,0.215
		c-0.241,0.145-0.619,0.289-1.135,0.432c-0.518,0.145-1.062,0.217-1.638,0.217c-1.201,0-2.231-0.443-3.097-1.332
		c-0.863-0.889-1.295-1.969-1.295-3.24c0-1.248,0.432-2.316,1.295-3.203c0.865-0.889,1.896-1.332,3.097-1.332
		C598.409,519.375,599.441,519.662,600.234,520.238 M572.479,519.59c1.198,0,2.213,0.408,3.041,1.225s1.242,1.859,1.242,3.133
		c0,1.248-0.402,2.279-1.207,3.096c-0.804,0.816-1.83,1.223-3.076,1.223c-1.297,0-2.341-0.4-3.133-1.205s-1.188-1.842-1.188-3.113
		c0-1.273,0.414-2.316,1.242-3.133S571.254,519.59,572.479,519.59 M570.57,533.703c2.447,0,4.463-0.877,6.047-2.629h0.072v2.088
		h6.301v-18.467h-6.373v1.764c-1.584-1.537-3.6-2.305-6.047-2.305c-2.664,0-4.86,0.947-6.588,2.844
		c-1.729,1.896-2.593,4.213-2.593,6.949c0,2.734,0.864,5.045,2.593,6.93C565.71,532.76,567.906,533.703,570.57,533.703
		 M537.666,519.123c0.623-0.553,1.464-0.828,2.52-0.828c0.961,0,1.746,0.258,2.358,0.773s0.989,1.254,1.134,2.215h-7.02
		C536.705,520.395,537.041,519.674,537.666,519.123 M549.906,523.947c0-3.145-0.918-5.562-2.754-7.254
		c-1.836-1.693-4.219-2.539-7.146-2.539c-2.784,0-5.172,0.961-7.164,2.881s-2.988,4.223-2.988,6.912
		c0,2.688,0.996,4.984,2.988,6.893s4.38,2.863,7.164,2.863c4.464,0,7.656-1.609,9.576-4.824l-4.608-2.305
		c-0.769,0.816-1.452,1.361-2.052,1.639c-0.6,0.275-1.416,0.414-2.448,0.414c-0.983,0-1.896-0.312-2.735-0.936
		c-0.84-0.625-1.26-1.584-1.26-2.881h13.392C549.895,524.666,549.906,524.379,549.906,523.947 M516.354,519.59
		c1.2,0,2.215,0.408,3.043,1.225c0.827,0.816,1.241,1.859,1.241,3.133c0,1.248-0.401,2.279-1.206,3.096
		c-0.804,0.816-1.83,1.223-3.078,1.223c-1.296,0-2.34-0.4-3.132-1.205s-1.188-1.842-1.188-3.113c0-1.273,0.414-2.316,1.242-3.133
		S515.13,519.59,516.354,519.59 M514.445,533.703c2.449,0,4.465-0.877,6.049-2.629h0.072v2.088h6.299v-30.959h-6.371v14.256
		c-1.584-1.537-3.6-2.305-6.049-2.305c-2.664,0-4.859,0.947-6.588,2.844c-1.728,1.896-2.592,4.213-2.592,6.949
		c0,2.734,0.864,5.045,2.592,6.93C509.586,532.76,511.781,533.703,514.445,533.703 M481.201,515.721
		c-1.453,1.043-2.178,2.502-2.178,4.373c0,1.248,0.334,2.25,1.008,3.006c0.671,0.758,1.584,1.436,2.736,2.035
		c0.454,0.24,1.084,0.504,1.889,0.791c0.804,0.289,1.373,0.547,1.711,0.775c0.335,0.227,0.504,0.545,0.504,0.953
		c0,0.889-0.661,1.332-1.98,1.332c-0.601,0-1.309-0.197-2.123-0.594c-0.818-0.396-1.382-0.709-1.693-0.936
		c-0.312-0.229-0.564-0.426-0.756-0.594l-2.592,4.355l0.793,0.648c0.526,0.408,1.385,0.814,2.573,1.223s2.44,0.613,3.763,0.613
		c5.832,0,8.748-2.102,8.748-6.301c0-0.889-0.17-1.68-0.505-2.375c-0.337-0.697-0.81-1.273-1.422-1.729
		c-0.612-0.457-1.194-0.816-1.746-1.08c-0.553-0.264-1.2-0.504-1.944-0.721c-0.121-0.023-0.295-0.072-0.521-0.145
		c-0.229-0.07-0.391-0.125-0.486-0.16c-0.097-0.037-0.24-0.092-0.432-0.162c-0.193-0.072-0.331-0.127-0.414-0.162
		c-0.085-0.037-0.197-0.09-0.342-0.162s-0.247-0.139-0.307-0.199c-0.061-0.059-0.125-0.131-0.197-0.215s-0.121-0.174-0.145-0.27
		c-0.025-0.098-0.035-0.193-0.035-0.289c0-0.432,0.148-0.727,0.449-0.883c0.299-0.154,0.811-0.232,1.53-0.232
		c1.296,0,2.664,0.383,4.104,1.15l2.088-4.176l-0.756-0.359c-0.504-0.24-1.273-0.48-2.305-0.721
		c-1.033-0.238-2.076-0.359-3.132-0.359C484.613,514.154,482.652,514.676,481.201,515.721 M465.163,519.59
		c1.2,0,2.214,0.408,3.042,1.225s1.242,1.859,1.242,3.133c0,1.248-0.402,2.279-1.207,3.096s-1.83,1.223-3.077,1.223
		c-1.296,0-2.341-0.4-3.132-1.205c-0.793-0.805-1.188-1.842-1.188-3.113c0-1.273,0.414-2.316,1.242-3.133
		S463.939,519.59,465.163,519.59 M465.199,533.703c3.19,0,5.824-0.918,7.902-2.754c2.074-1.836,3.113-4.17,3.113-7.002
		s-1.062-5.172-3.186-7.021c-2.125-1.848-4.734-2.771-7.83-2.771c-3.146,0-5.784,0.918-7.92,2.754
		c-2.137,1.836-3.205,4.182-3.205,7.039c0,2.855,1.027,5.195,3.078,7.02C459.205,532.791,461.887,533.703,465.199,533.703
		 M439.604,514.695v4.859h2.664v7.092c0,0.889,0.096,1.723,0.287,2.502c0.192,0.779,0.51,1.523,0.954,2.232
		c0.444,0.707,1.099,1.271,1.962,1.691c0.864,0.42,1.896,0.631,3.096,0.631c1.752,0,3.312-0.385,4.681-1.152l-1.584-5.148
		l-0.216,0.145c-0.145,0.096-0.349,0.191-0.612,0.287c-0.265,0.096-0.517,0.145-0.756,0.145c-0.96,0-1.44-0.852-1.44-2.557v-5.867
		h3.889v-4.859h-3.889v-6.877h-6.371v6.877H439.604z M423.979,533.162v-10.439c0-0.912,0.391-1.74,1.17-2.484
		c0.78-0.744,1.65-1.115,2.61-1.115c0.983,0,1.782,0.359,2.394,1.08c0.612,0.719,0.918,1.559,0.918,2.52v10.439h6.373v-12.168
		c0-1.225-0.258-2.297-0.774-3.221c-0.517-0.926-1.188-1.639-2.017-2.143s-1.691-0.877-2.592-1.117
		c-0.899-0.238-1.806-0.359-2.718-0.359c-1.872,0-3.636,0.828-5.292,2.484h-0.072v-1.943h-6.371v18.467H423.979z M402.451,519.123
		c0.623-0.553,1.464-0.828,2.52-0.828c0.96,0,1.746,0.258,2.358,0.773s0.989,1.254,1.134,2.215h-7.02
		C401.49,520.395,401.827,519.674,402.451,519.123 M414.691,523.947c0-3.145-0.918-5.562-2.754-7.254
		c-1.836-1.693-4.219-2.539-7.146-2.539c-2.784,0-5.172,0.961-7.164,2.881s-2.988,4.223-2.988,6.912
		c0,2.688,0.996,4.984,2.988,6.893s4.38,2.863,7.164,2.863c4.464,0,7.656-1.609,9.576-4.824l-4.608-2.305
		c-0.769,0.816-1.452,1.361-2.052,1.639c-0.6,0.275-1.416,0.414-2.448,0.414c-0.983,0-1.896-0.312-2.735-0.936
		c-0.84-0.625-1.261-1.584-1.261-2.881h13.392C414.679,524.666,414.691,524.379,414.691,523.947 M366.884,533.162v-10.799
		c0-0.84,0.246-1.566,0.738-2.18c0.491-0.611,1.229-0.918,2.214-0.918c1.08,0,1.891,0.33,2.43,0.99
		c0.54,0.66,0.811,1.482,0.811,2.467v10.439h6.371v-11.016c0.048-0.793,0.318-1.471,0.811-2.033
		c0.491-0.564,1.206-0.848,2.143-0.848c1.08,0,1.89,0.33,2.43,0.99s0.81,1.482,0.81,2.467v10.439h6.372v-12.168
		c0-2.352-0.708-4.08-2.124-5.184c-1.417-1.104-3.108-1.656-5.075-1.656c-2.209,0-4.248,1.129-6.121,3.385
		c-0.6-1.152-1.488-2.004-2.664-2.557s-2.436-0.828-3.779-0.828c-1.872,0-3.637,0.828-5.292,2.484h-0.072v-1.943h-6.372v18.467
		H366.884z M345.68,519.59c1.2,0,2.215,0.408,3.042,1.225c0.828,0.816,1.242,1.859,1.242,3.133c0,1.248-0.401,2.279-1.206,3.096
		s-1.831,1.223-3.078,1.223c-1.296,0-2.34-0.4-3.132-1.205s-1.188-1.842-1.188-3.113c0-1.273,0.414-2.316,1.242-3.133
		S344.456,519.59,345.68,519.59 M345.32,543.062c3.263,0,5.891-0.816,7.884-2.447c1.991-1.633,2.987-3.949,2.987-6.949v-18.971
		h-6.371v1.654h-0.108c-1.584-1.463-3.563-2.195-5.94-2.195c-2.664,0-4.859,0.947-6.588,2.844c-1.728,1.896-2.592,4.213-2.592,6.949
		c0,2.734,0.864,5.045,2.592,6.93c1.729,1.883,3.924,2.826,6.588,2.826c2.903,0,4.92-0.625,6.049-1.873v1.369
		c0,1.463-0.475,2.549-1.422,3.258c-0.949,0.707-1.976,1.061-3.078,1.061c-2.377,0-4.045-0.791-5.004-2.375l-5.221,2.557
		C336.631,541.275,340.04,543.062,345.32,543.062 M321.092,519.59c1.2,0,2.214,0.408,3.042,1.225s1.242,1.859,1.242,3.133
		c0,1.248-0.402,2.279-1.206,3.096c-0.805,0.816-1.831,1.223-3.078,1.223c-1.296,0-2.34-0.4-3.132-1.205s-1.188-1.842-1.188-3.113
		c0-1.273,0.414-2.316,1.242-3.133S319.867,519.59,321.092,519.59 M319.184,533.703c2.448,0,4.465-0.877,6.049-2.629h0.071v2.088
		h6.3v-18.467h-6.371v1.764c-1.584-1.537-3.601-2.305-6.049-2.305c-2.664,0-4.859,0.947-6.588,2.844s-2.592,4.213-2.592,6.949
		c0,2.734,0.863,5.045,2.592,6.93C314.324,532.76,316.52,533.703,319.184,533.703 M300.068,533.162v-9.719
		c0-0.193,0.047-0.457,0.144-0.793s0.258-0.744,0.485-1.225c0.229-0.479,0.619-0.887,1.17-1.223c0.553-0.336,1.213-0.504,1.98-0.504
		c1.416,0,2.52,0.336,3.312,1.008l2.664-5.4l-0.504-0.289c-0.312-0.191-0.805-0.383-1.477-0.574
		c-0.672-0.193-1.355-0.289-2.052-0.289c-0.672,0-1.332,0.113-1.979,0.342c-0.648,0.229-1.177,0.486-1.584,0.773
		c-0.408,0.289-0.793,0.613-1.152,0.973c-0.36,0.359-0.594,0.611-0.702,0.756s-0.187,0.264-0.234,0.361h-0.071v-2.664h-6.373v18.467
		H300.068z M278.611,514.695v4.859h2.664v13.607h6.373v-13.607h4.248v-4.859h-4.248v-3.744c0-1.344,0.131-2.287,0.396-2.826
		c0.265-0.541,0.792-0.811,1.584-0.811c0.696,0,1.332,0.168,1.908,0.504l2.231-4.5l-0.611-0.396
		c-0.385-0.287-1.014-0.57-1.891-0.846c-0.876-0.275-1.794-0.414-2.754-0.414c-2.256,0-4.02,0.828-5.292,2.484
		s-1.92,3.863-1.944,6.623v3.926H278.611z M255.14,519.123c0.624-0.553,1.464-0.828,2.521-0.828c0.96,0,1.746,0.258,2.357,0.773
		c0.612,0.516,0.99,1.254,1.135,2.215h-7.021C254.18,520.395,254.516,519.674,255.14,519.123 M267.38,523.947
		c0-3.145-0.918-5.562-2.754-7.254c-1.836-1.693-4.218-2.539-7.146-2.539c-2.785,0-5.172,0.961-7.164,2.881
		s-2.988,4.223-2.988,6.912c0,2.688,0.996,4.984,2.988,6.893s4.379,2.863,7.164,2.863c4.463,0,7.655-1.609,9.575-4.824l-4.608-2.305
		c-0.768,0.816-1.451,1.361-2.051,1.639c-0.601,0.275-1.416,0.414-2.449,0.414c-0.983,0-1.896-0.312-2.735-0.936
		c-0.84-0.625-1.261-1.584-1.261-2.881h13.393C267.367,524.666,267.38,524.379,267.38,523.947 M233.828,519.59
		c1.199,0,2.214,0.408,3.042,1.225c0.827,0.816,1.241,1.859,1.241,3.133c0,1.248-0.401,2.279-1.205,3.096
		c-0.805,0.816-1.83,1.223-3.078,1.223c-1.297,0-2.34-0.4-3.133-1.205c-0.791-0.805-1.188-1.842-1.188-3.113
		c0-1.273,0.414-2.316,1.242-3.133S232.604,519.59,233.828,519.59 M231.92,533.703c2.447,0,4.464-0.877,6.048-2.629h0.072v2.088h6.3
		v-30.959h-6.372v14.256c-1.584-1.537-3.601-2.305-6.048-2.305c-2.664,0-4.859,0.947-6.588,2.844s-2.592,4.213-2.592,6.949
		c0,2.734,0.863,5.045,2.592,6.93C227.061,532.76,229.256,533.703,231.92,533.703 M196.82,533.162v-10.439
		c0-0.912,0.391-1.74,1.17-2.484s1.65-1.115,2.611-1.115c0.983,0,1.781,0.359,2.394,1.08c0.612,0.719,0.918,1.559,0.918,2.52v10.439
		h6.372v-12.168c0-1.225-0.258-2.297-0.774-3.221c-0.517-0.926-1.188-1.639-2.016-2.143c-0.828-0.504-1.692-0.877-2.593-1.117
		c-0.899-0.238-1.806-0.359-2.717-0.359c-1.873,0-3.637,0.828-5.293,2.484h-0.072v-1.943h-6.371v18.467H196.82z M176.48,528.266
		c1.248,0,2.274-0.406,3.078-1.223c0.805-0.816,1.206-1.848,1.206-3.096c0-1.273-0.413-2.316-1.241-3.133s-1.843-1.225-3.043-1.225
		c-1.224,0-2.25,0.408-3.078,1.225s-1.241,1.859-1.241,3.133c0,1.271,0.396,2.309,1.188,3.113
		C174.141,527.865,175.186,528.266,176.48,528.266 M176.518,514.154c3.096,0,5.705,0.924,7.829,2.771
		c2.124,1.85,3.187,4.189,3.187,7.021s-1.038,5.166-3.114,7.002s-4.71,2.754-7.901,2.754c-3.312,0-5.994-0.912-8.047-2.736
		c-2.052-1.824-3.078-4.164-3.078-7.02c0-2.857,1.068-5.203,3.204-7.039S173.373,514.154,176.518,514.154 M174.934,512.031
		l8.567-4.969l-3.276-4.141l-7.308,6.336L174.934,512.031z M162.225,533.162h-6.371v-18.467h6.371V533.162z M155.35,507.062
		c0,1.031,0.371,1.92,1.115,2.664s1.632,1.115,2.664,1.115s1.92-0.371,2.664-1.115s1.115-1.633,1.115-2.664s-0.371-1.92-1.115-2.664
		s-1.632-1.115-2.664-1.115s-1.92,0.371-2.664,1.115S155.35,506.031,155.35,507.062 M151.173,520.238l2.16-4.355l-0.612-0.432
		c-0.432-0.289-1.164-0.576-2.195-0.865c-1.033-0.287-2.16-0.432-3.385-0.432c-2.712,0-5.094,0.967-7.146,2.898
		s-3.078,4.242-3.078,6.93c0,2.664,1.026,4.949,3.078,6.857s4.434,2.863,7.146,2.863c1.225,0,2.37-0.156,3.438-0.469
		c1.067-0.312,1.752-0.559,2.053-0.738c0.299-0.18,0.533-0.33,0.701-0.449l-2.16-4.428l-0.323,0.215
		c-0.24,0.145-0.619,0.289-1.135,0.432c-0.516,0.145-1.062,0.217-1.639,0.217c-1.199,0-2.231-0.443-3.096-1.332
		c-0.863-0.889-1.295-1.969-1.295-3.24c0-1.248,0.432-2.316,1.295-3.203c0.864-0.889,1.896-1.332,3.096-1.332
		C149.35,519.375,150.382,519.662,151.173,520.238 M133.498,520.238l2.16-4.355l-0.612-0.432c-0.433-0.289-1.165-0.576-2.196-0.865
		c-1.033-0.287-2.16-0.432-3.384-0.432c-2.713,0-5.094,0.967-7.146,2.898c-2.053,1.932-3.078,4.242-3.078,6.93
		c0,2.664,1.025,4.949,3.078,6.857c2.052,1.908,4.433,2.863,7.146,2.863c1.224,0,2.369-0.156,3.438-0.469
		c1.066-0.312,1.75-0.559,2.052-0.738c0.299-0.18,0.532-0.33,0.702-0.449l-2.16-4.428l-0.324,0.215
		c-0.24,0.145-0.619,0.289-1.134,0.432c-0.517,0.145-1.062,0.217-1.638,0.217c-1.201,0-2.232-0.443-3.097-1.332
		s-1.296-1.969-1.296-3.24c0-1.248,0.432-2.316,1.296-3.203c0.864-0.889,1.896-1.332,3.097-1.332
		C131.673,519.375,132.706,519.662,133.498,520.238 M105.346,519.123c0.624-0.553,1.463-0.828,2.52-0.828
		c0.959,0,1.746,0.258,2.359,0.773c0.611,0.516,0.989,1.254,1.133,2.215h-7.02C104.386,520.395,104.721,519.674,105.346,519.123
		 M117.586,523.947c0-3.145-0.918-5.562-2.754-7.254c-1.836-1.693-4.219-2.539-7.146-2.539c-2.785,0-5.172,0.961-7.164,2.881
		s-2.988,4.223-2.988,6.912c0,2.688,0.996,4.984,2.988,6.893s4.379,2.863,7.164,2.863c4.465,0,7.655-1.609,9.576-4.824l-4.607-2.305
		c-0.77,0.816-1.453,1.361-2.053,1.639c-0.6,0.275-1.416,0.414-2.447,0.414c-0.985,0-1.896-0.312-2.736-0.936
		c-0.842-0.625-1.26-1.584-1.26-2.881h13.392C117.572,524.666,117.586,524.379,117.586,523.947 M94.546,502.203h-6.372v30.959h6.372
		V502.203z M73.018,519.123c0.625-0.553,1.465-0.828,2.521-0.828c0.96,0,1.745,0.258,2.358,0.773
		c0.611,0.516,0.989,1.254,1.133,2.215h-7.02C72.059,520.395,72.395,519.674,73.018,519.123 M85.258,523.947
		c0-3.145-0.918-5.562-2.754-7.254c-1.836-1.693-4.218-2.539-7.146-2.539c-2.783,0-5.172,0.961-7.164,2.881
		s-2.987,4.223-2.987,6.912c0,2.688,0.995,4.984,2.987,6.893s4.381,2.863,7.164,2.863c4.465,0,7.656-1.609,9.576-4.824l-4.607-2.305
		c-0.768,0.816-1.452,1.361-2.053,1.639c-0.6,0.275-1.416,0.414-2.447,0.414c-0.984,0-1.896-0.312-2.736-0.936
		c-0.84-0.625-1.26-1.584-1.26-2.881h13.392C85.246,524.666,85.258,524.379,85.258,523.947 M46.559,505.461
		c-1.969,1.691-2.953,3.869-2.953,6.533c0,1.537,0.492,2.971,1.477,4.303s2.376,2.441,4.176,3.33
		c0.432,0.215,1.098,0.533,1.998,0.953s1.548,0.732,1.943,0.936c0.396,0.205,0.853,0.48,1.369,0.828
		c0.516,0.35,0.875,0.697,1.08,1.045c0.203,0.348,0.306,0.727,0.306,1.135c0,1.943-1.429,2.916-4.284,2.916
		c-0.984,0-2.118-0.312-3.402-0.938c-1.283-0.623-2.178-1.121-2.682-1.494c-0.504-0.371-0.9-0.678-1.188-0.918l-3.385,5.689
		l0.469,0.395c0.312,0.266,0.804,0.588,1.476,0.973s1.428,0.773,2.269,1.17c0.84,0.396,1.883,0.727,3.131,0.99
		s2.521,0.396,3.816,0.396c1.512,0,2.916-0.174,4.212-0.523c1.296-0.348,2.478-0.881,3.546-1.602
		c1.068-0.719,1.908-1.715,2.52-2.988c0.613-1.271,0.919-2.76,0.919-4.463c0-1.777-0.679-3.367-2.034-4.77
		c-1.355-1.404-2.994-2.516-4.914-3.33c-1.104-0.48-1.92-0.842-2.447-1.08c-0.529-0.24-1.141-0.559-1.837-0.955
		s-1.188-0.768-1.476-1.115c-0.288-0.348-0.432-0.727-0.432-1.135c0-0.816,0.306-1.463,0.918-1.943
		c0.611-0.48,1.481-0.721,2.609-0.721c0.912,0,1.896,0.191,2.952,0.576s1.776,0.689,2.16,0.918s0.684,0.414,0.899,0.559l2.736-5.4
		l-1.08-0.721c-0.744-0.455-1.884-0.918-3.42-1.385c-1.536-0.469-3.107-0.703-4.716-0.703
		C50.77,502.922,48.525,503.768,46.559,505.461"/>
	<polygon clip-path="url(#SVGID_2_)" fill="none" stroke="#0046FA" stroke-width="1.998" points="0.999,3 0.999,572.041 
		0.999,574.043 3,574.043 1167.087,574.043 1169.088,574.043 1169.088,572.041 1169.088,3 1169.088,0.998 1167.087,0.998 3,0.998 
		0.999,0.998 	"/>
</g>
<rect x="5.001" y="5.002" fill="none" stroke="#0046FA" stroke-width="1.998" width="1160.085" height="565.037"/>
<line fill="none" stroke="#0046FA" stroke-width="2" x1="488.037" y1="171.012" x2="1144.086" y2="171.012"/>
<line fill="none" stroke="#0046FA" stroke-width="2" x1="27.002" y1="471.035" x2="1144.086" y2="471.035"/>
<line fill="none" stroke="#0046FA" stroke-width="2" x1="467.033" y1="26.002" x2="467.033" y2="450.033"/>
<line fill="none" stroke="#0046FA" stroke-width="2" x1="816.061" y1="192.014" x2="816.061" y2="450.033"/>
<path fill="#0046FA" d="M525.16,314.08v17.561l118.389-3.682l-50.98,77.037l0.283,0.283l166.536-82.135v-0.566l-166.536-81.569
	l-0.567,0.282l51.265,77.037L525.16,314.08z M661.391,323.145h74.771L621.74,379.506L661.391,323.145z"/>
</svg>
