<?xml version="1.0" encoding="utf-8"?>
<!-- Generator: Adobe Illustrator 16.0.0, SVG Export Plug-In . SVG Version: 6.00 Build 0)  -->
<!DOCTYPE svg PUBLIC "-//W3C//DTD SVG 1.1//EN" "http://www.w3.org/Graphics/SVG/1.1/DTD/svg11.dtd">
<svg version="1.1" id="Layer_1" xmlns="http://www.w3.org/2000/svg" xmlns:xlink="http://www.w3.org/1999/xlink" x="0px" y="0px"
	 width="564px" height="1002px" viewBox="0 0 564 1002" enable-background="new 0 0 564 1002" xml:space="preserve">
<g>
	<defs>
		<rect id="SVGID_29_" width="564" height="1002"/>
	</defs>
	<clipPath id="SVGID_2_">
		<use xlink:href="#SVGID_29_"  overflow="visible"/>
	</clipPath>
	<path clip-path="url(#SVGID_2_)" fill="#231F20" d="M486.175,755.128c-8.655,0-15.328,2.056-20.021,6.16
		c-4.695,4.107-7.039,9.899-7.039,17.38c0,7.479,2.344,13.275,7.039,17.38c4.692,4.107,11.365,6.16,20.021,6.16
		c8.652,0,15.324-2.053,20.02-6.16c4.692-4.104,7.04-9.9,7.04-17.38c0-7.48-2.348-13.272-7.04-17.38
		C501.499,757.184,494.827,755.128,486.175,755.128 M353.297,739.508l16.94-36.74c2.932-7.04,4.84-12.172,5.72-15.4h0.66
		c-0.588,17.017-0.88,29.92-0.88,38.721v13.42H353.297z M373.757,800.447h44v-27.72h20.021v-33.22h-20.021v-84.26h-58.08
		l-47.3,96.359v21.12h61.38V800.447z"/>
</g>
<line fill="none" stroke="#231F20" stroke-width="2" x1="24.419" y1="844.119" x2="537.418" y2="844.119"/>
<line fill="none" stroke="#231F20" stroke-width="2" x1="280.918" y1="633.967" x2="280.918" y2="823.118"/>
<g>
	<defs>
		<rect id="SVGID_31_" width="564" height="1002"/>
	</defs>
	<clipPath id="SVGID_4_">
		<use xlink:href="#SVGID_31_"  overflow="visible"/>
	</clipPath>
	<polygon clip-path="url(#SVGID_4_)" fill="none" stroke="#231F20" stroke-width="1.998" points="0.999,3 0.999,999 0.999,1001.002 
		3,1001.002 561,1001.002 563.001,1001.002 563.001,999 563.001,3 563.001,0.998 561,0.998 3,0.998 0.999,0.998 	"/>
</g>
<rect x="5.001" y="5.002" fill="none" stroke="#231F20" stroke-width="1.998" width="553.997" height="991.996"/>
<line fill="none" stroke="#231F20" stroke-width="2" x1="23.944" y1="126" x2="536.944" y2="126"/>
<line fill="none" stroke="#231F20" stroke-width="2" x1="23.944" y1="611" x2="536.944" y2="611"/>
<g>
	<defs>
		<rect id="SVGID_33_" width="564" height="1002"/>
	</defs>
	<clipPath id="SVGID_6_">
		<use xlink:href="#SVGID_33_"  overflow="visible"/>
	</clipPath>
	<path clip-path="url(#SVGID_6_)" fill="#FF1419" d="M482.258,78.305c0,1.38-0.391,2.376-1.171,2.988
		c-0.782,0.612-2.149,0.918-4.103,0.918v14.492h34.688V82.211c-2.291,0-3.926-0.306-4.902-0.918
		c-0.976-0.612-1.465-1.764-1.465-3.457V58.07c0-1.719,0.489-2.884,1.465-3.496c0.977-0.611,2.611-0.918,4.902-0.918V39.164h-34.688
		v14.492c1.953,0,3.32,0.307,4.103,0.918c0.78,0.612,1.171,1.621,1.171,3.027v6.29H468.82v-6.29c0-1.406,0.384-2.415,1.152-3.027
		c0.768-0.611,2.142-0.918,4.121-0.918V39.164h-34.727v14.492c2.291,0,3.933,0.307,4.922,0.918c0.989,0.612,1.484,1.777,1.484,3.496
		v19.766c0,1.693-0.495,2.845-1.484,3.457c-0.989,0.612-2.631,0.918-4.922,0.918v14.492h34.727V82.211
		c-1.979,0-3.354-0.306-4.121-0.918c-0.769-0.612-1.152-1.608-1.152-2.988v-7.266h13.438V78.305z M380.593,39.32
		c-3.49,1.146-6.597,2.943-9.317,5.391c-2.721,2.448-4.909,5.593-6.562,9.433c-1.654,3.842-2.481,8.457-2.481,13.848
		s0.814,10.007,2.442,13.848c1.627,3.841,3.841,6.986,6.64,9.433c2.8,2.448,6.081,4.245,9.844,5.391
		c3.764,1.146,7.754,1.719,11.974,1.719c4.687,0,8.735-0.651,12.147-1.953s6.225-3.06,8.438-5.274
		c2.214-2.213,3.842-4.791,4.884-7.734c1.041-2.943,1.562-6.068,1.562-9.375h-13.594c0,1.875-0.228,3.476-0.683,4.805
		c-0.456,1.328-1.081,2.435-1.875,3.32c-0.795,0.885-1.713,1.543-2.754,1.972c-1.042,0.43-2.123,0.645-3.242,0.645
		c-1.667,0-3.101-0.293-4.297-0.879c-1.198-0.586-2.183-1.536-2.949-2.851c-0.769-1.315-1.342-3.034-1.719-5.157
		c-0.378-2.122-0.567-4.759-0.567-7.91c0-3.099,0.176-5.729,0.528-7.891c0.351-2.161,0.872-3.892,1.562-5.195
		c0.69-1.302,1.582-2.246,2.676-2.832c1.095-0.586,2.408-0.879,3.945-0.879c1.12,0,2.162,0.157,3.125,0.469
		c0.963,0.313,1.803,0.834,2.521,1.563c0.716,0.729,1.289,1.679,1.719,2.851c0.429,1.172,0.644,2.631,0.644,4.375h13.672V39.164
		h-12.891v2.813c-0.573-0.417-1.314-0.879-2.226-1.387c-0.912-0.508-1.992-0.99-3.242-1.446c-1.25-0.455-2.637-0.826-4.16-1.113
		c-1.524-0.286-3.158-0.429-4.903-0.429C387.701,37.602,384.081,38.175,380.593,39.32 M306.896,53.656h3.437
		c2.188,0,3.692,0.482,4.513,1.446c0.819,0.963,1.23,2.539,1.23,4.726c0,1.875-0.411,3.34-1.23,4.395
		c-0.82,1.054-2.324,1.582-4.513,1.582h-3.437V53.656z M312.169,96.703V82.211c-1.979,0-3.354-0.306-4.121-0.918
		c-0.769-0.612-1.152-1.608-1.152-2.988v-5.586h0.937c1.225,0,2.267,0.117,3.125,0.351c0.86,0.235,1.557,0.71,2.091,1.426
		c0.533,0.717,0.918,1.719,1.152,3.008c0.234,1.289,0.352,2.975,0.352,5.058v3.008c0,1.719,0.215,3.354,0.645,4.903
		c0.429,1.549,1.191,2.91,2.285,4.082s2.61,2.089,4.551,2.754c1.939,0.664,4.434,0.996,7.48,0.996s5.611-0.32,7.694-0.957
		c2.084-0.639,3.764-1.543,5.039-2.715c1.276-1.172,2.194-2.545,2.754-4.121c0.561-1.576,0.841-3.301,0.841-5.176v-9.922h-4.492
		v9.922c0,0.651-0.156,1.218-0.469,1.699c-0.312,0.482-0.847,0.723-1.602,0.723c-0.703,0-1.225-0.241-1.562-0.723
		c-0.338-0.481-0.509-1.048-0.509-1.699v-2.07c0-1.927-0.175-3.653-0.526-5.176c-0.352-1.524-0.951-2.826-1.797-3.906
		c-0.847-1.081-2.005-1.96-3.477-2.637c-1.472-0.677-3.327-1.094-5.566-1.25v-0.469c4.635-0.208,8.008-1.621,10.116-4.238
		c2.11-2.617,3.164-6.114,3.164-10.488c0-2.396-0.332-4.571-0.996-6.524c-0.663-1.953-1.783-3.633-3.358-5.039
		c-1.576-1.406-3.672-2.487-6.289-3.242c-2.617-0.755-5.84-1.133-9.668-1.133h-41.367v14.492c2.291,0,3.933,0.307,4.922,0.918
		c0.989,0.612,1.484,1.777,1.484,3.496v19.766c0,1.693-0.495,2.845-1.484,3.457c-0.989,0.612-2.631,0.918-4.922,0.918v14.492
		H312.169z M223.59,58.539h0.312l3.906,11.992h-8.32L223.59,58.539z M230.387,78.305c0.416,1.12,0.371,2.05-0.137,2.793
		c-0.508,0.742-1.504,1.113-2.988,1.113h-2.149v14.492h35.509V82.211h-1.603c-0.963,0-1.751-0.091-2.363-0.274
		c-0.612-0.181-1.1-0.462-1.465-0.839c-0.364-0.378-0.671-0.834-0.918-1.368c-0.248-0.533-0.526-1.165-0.84-1.894l-8.007-19.766
		c-0.6-1.432-0.711-2.525-0.332-3.281c0.377-0.755,1.529-1.133,3.457-1.133h0.781V39.164h-40.156v14.492h0.82
		c1.9,0,3.039,0.358,3.418,1.074c0.377,0.717,0.278,1.83-0.293,3.34l-8.009,19.766c-0.599,1.432-1.218,2.519-1.854,3.262
		c-0.639,0.742-1.896,1.113-3.771,1.113h-1.601v14.492h24.336V82.211h-2.227c-1.512,0-2.5-0.371-2.97-1.113
		c-0.469-0.743-0.495-1.673-0.078-2.793l0.548-1.68h12.344L230.387,78.305z M154.893,82.211v-11.25h12.461v-6.914h-12.461V53.656
		h7.031c1.068,0,1.959,0.098,2.676,0.293c0.716,0.195,1.289,0.541,1.719,1.035c0.43,0.495,0.723,1.186,0.878,2.071
		c0.157,0.885,0.235,2.018,0.235,3.398h13.672V39.164h-55.664v14.492c2.291,0,3.932,0.307,4.922,0.918
		c0.989,0.612,1.484,1.777,1.484,3.496v19.766c0,1.693-0.495,2.845-1.484,3.457c-0.99,0.612-2.631,0.918-4.922,0.918v14.492h55.664
		V75.414h-13.672c0,1.381-0.078,2.513-0.235,3.398c-0.155,0.886-0.448,1.582-0.878,2.09c-0.43,0.508-1.003,0.854-1.719,1.035
		c-0.717,0.183-1.607,0.274-2.676,0.274H154.893z M105.609,39.164H92.719v3.633c-1.641-1.068-3.945-2.083-6.914-3.047
		c-2.969-0.963-6.523-1.445-10.664-1.445c-2.995,0-5.84,0.384-8.535,1.152s-5.072,1.901-7.129,3.398
		c-2.057,1.498-3.698,3.34-4.922,5.528c-1.225,2.187-1.836,4.701-1.836,7.539c0,3.828,0.775,6.927,2.324,9.297
		s3.47,4.277,5.762,5.722c2.292,1.446,4.798,2.553,7.52,3.321c2.721,0.768,5.229,1.458,7.52,2.07
		c2.291,0.612,4.212,1.309,5.762,2.09c1.549,0.781,2.324,1.888,2.324,3.32c0,0.912-0.469,1.726-1.406,2.442
		c-0.938,0.716-2.357,1.074-4.258,1.074c-2.838,0-5.391-0.879-7.656-2.637s-3.775-4.16-4.531-7.207H53.188v21.289h12.891v-3.437
		c2.891,1.588,5.723,2.734,8.496,3.437s5.684,1.055,8.73,1.055c3.125,0,6.146-0.326,9.062-0.977c2.916-0.65,5.494-1.679,7.734-3.086
		c2.24-1.406,4.023-3.203,5.352-5.39c1.328-2.188,1.992-4.831,1.992-7.93c0-2.916-0.456-5.416-1.367-7.5
		c-0.912-2.083-2.109-3.848-3.594-5.293c-1.484-1.445-3.177-2.63-5.078-3.555c-1.9-0.924-3.835-1.712-5.801-2.363
		s-3.9-1.198-5.801-1.641c-1.901-0.442-3.594-0.904-5.078-1.386s-2.682-1.055-3.594-1.719c-0.911-0.664-1.367-1.53-1.367-2.598
		c0-1.119,0.508-1.992,1.523-2.617s2.344-0.937,3.984-0.937c1.354,0,2.669,0.228,3.945,0.683c1.275,0.456,2.435,1.101,3.477,1.934
		c1.041,0.833,1.92,1.823,2.637,2.968c0.717,1.147,1.178,2.383,1.387,3.711h12.891V39.164z"/>
	<path clip-path="url(#SVGID_6_)" fill="#231F20" d="M77.984,533.56c14.389,7.104,28.78,13.3,43.172,18.581
		c14.389,5.285,29.008,9.657,43.856,13.115c14.845,3.463,30.057,6.054,45.632,7.788c15.574,1.729,31.738,2.595,48.5,2.595
		c34.975,0,65.715-3.415,92.22-10.246c26.504-6.83,48.681-16.395,66.534-28.69c17.852-12.296,31.287-26.914,40.303-43.855
		c9.019-16.941,13.527-35.428,13.527-55.469c0-29.51-9.385-54.648-28.144-75.415c-18.766-20.766-45.905-37.067-81.428-48.91
		l-32.789-10.93c-11.297-3.826-20.724-7.514-28.28-11.066c-7.562-3.553-13.662-7.105-18.308-10.657
		c-4.645-3.552-7.924-7.194-9.837-10.93c-1.913-3.731-2.869-7.603-2.869-11.612c0-4.552,1.137-9.154,3.416-13.799
		c2.275-4.645,5.645-8.834,10.11-12.569c4.461-3.732,9.973-6.738,16.531-9.017c6.558-2.276,14.208-3.416,22.952-3.416
		c5.098,0,10.745,0.457,16.94,1.366c6.191,0.914,12.523,2.28,18.991,4.099c6.464,1.823,12.932,4.098,19.399,6.831
		c6.465,2.732,12.612,5.922,18.444,9.563l29.51-53.282c-8.018-3.642-17.308-7.331-27.871-11.066
		c-10.565-3.732-22.179-7.058-34.838-9.974c-12.663-2.912-26.188-5.281-40.576-7.104c-14.393-1.819-29.421-2.732-45.086-2.732
		c-31.695,0-59.34,3.825-82.929,11.476c-23.593,7.651-43.13,17.897-58.61,30.74c-15.485,12.842-27.051,27.691-34.703,44.538
		c-7.65,16.852-11.476,34.386-11.476,52.6c0,28.238,8.833,52.599,26.505,73.092c17.666,20.493,43.992,36.751,78.967,48.774
		l48.91,16.668c9.471,3.279,17.168,6.605,23.09,9.973c5.918,3.373,10.562,6.742,13.936,10.11c3.368,3.373,5.644,6.789,6.831,10.247
		c1.183,3.462,1.776,6.831,1.776,10.11c0,10.383-4.876,18.58-14.619,24.592c-9.747,6.011-25.096,9.017-46.041,9.017
		c-18.219,0-37.891-2.459-59.021-7.378c-21.133-4.918-41.353-12.296-60.66-22.132L77.984,533.56z"/>
</g>
<path fill="#FF1419" d="M45.184,725.931v14.514l97.854-3.043L100.9,801.076l0.234,0.234l137.65-67.89v-0.468l-137.65-67.421
	l-0.469,0.234l42.372,63.675L45.184,725.931z M157.786,733.421h61.802l-94.576,46.586L157.786,733.421z"/>
<g>
	<defs>
		<rect id="SVGID_35_" width="564" height="1002"/>
	</defs>
	<clipPath id="SVGID_8_">
		<use xlink:href="#SVGID_35_"  overflow="visible"/>
	</clipPath>
	<path clip-path="url(#SVGID_8_)" fill="#231F20" d="M330.781,947.339v4.62c-0.875,0.7-1.75,1.26-2.38,1.26
		c-1.505,0-2.03-1.015-2.03-2.1c0-1.298,0.115-2.376,2.59-3.186L330.781,947.339z M330.964,953.271
		c0.237,1.418,1.183,2.048,2.723,2.048c1.935,0,3.29-0.735,4.585-1.96c-0.077-0.413-0.229-0.693-0.63-0.98
		c-0.455,0.35-0.806,0.49-1.47,0.49c-0.771,0-0.98-0.63-0.98-2.345l0.07-5.04c0-5.04-3.115-6.056-5.985-6.056
		c-2.555,0-6.493,1.456-6.493,3.767c0,1.001,0.424,1.771,1.811,1.771c1.238,0,2.177-0.77,2.177-1.617
		c0-0.462-0.245-1.05-0.161-1.651c0.052-0.39,0.304-0.798,1.477-0.798c1.471,0,2.695,0.63,2.695,5.074l-2.345,0.735
		c-3.689,1.155-6.265,2.17-6.265,4.935c0,2.415,1.329,3.676,4.375,3.676c1.015,0,3.045-1.12,4.199-2.03L330.964,953.271z
		 M312.757,934.109c0,1.154,0.84,2.31,2.239,2.31c1.575,0,2.485-1.26,2.485-2.17c0-1.05-0.805-2.31-2.275-2.31
		C313.562,931.939,312.757,933.059,312.757,934.109 M317.481,950.699v-6.976c0-1.739,0.14-3.699,0.14-3.699
		c0-0.386-0.314-0.596-0.805-0.596c-0.997,0.386-3.815,0.665-6.23,0.98c-0.069,0.21,0,0.91,0.07,1.12
		c1.908,0.178,2.275,0.455,2.275,2.449v6.721c0,2.904-0.385,2.975-2.521,3.149c-0.21,0.21-0.21,0.98,0,1.19
		c1.471-0.035,2.927-0.07,4.795-0.07c1.869,0,3.29,0.035,4.795,0.07c0.21-0.21,0.21-0.98,0-1.19
		C317.866,953.709,317.481,953.604,317.481,950.699 M302.361,945.578c0-1.249,0.385-1.757,0.84-2.299
		c0.287-0.344,0.596-0.596,1.11-0.596c0.329,0,0.692,0.309,0.99,0.669c0.245,0.294,0.84,0.573,1.628,0.573
		c1.015,0,2.012-1.066,2.012-2.537c0-0.91-1.05-1.96-2.31-1.96c-1.226,0-2.556,1.05-4.165,3.36h-0.141
		c-0.069-1.05-0.245-2.765-0.245-2.765c-0.027-0.309-0.314-0.596-0.805-0.596c-1.662,0.42-3.5,0.928-5.81,1.155
		c-0.07,0.21,0,0.875,0.069,1.085c1.908,0.178,2.275,0.49,2.275,2.485v6.545c0,2.904-0.385,2.975-2.521,3.149
		c-0.21,0.21-0.21,0.98,0,1.19c1.471-0.035,2.927-0.07,4.795-0.07c1.869,0,3.29,0.035,4.796,0.07c0.21-0.21,0.21-0.98,0-1.19
		c-2.136-0.14-2.521-0.245-2.521-3.149V945.578z M292.353,950.454c-1.436,1.47-3.325,1.854-4.655,1.854
		c-2.729,0-4.41-1.574-4.41-5.005c0-0.245,0.034-0.385,0.034-0.56h8.401c0.84,0,1.014-0.595,1.014-1.085
		c0-2.976-1.155-6.23-6.299-6.23c-3.676,0-7.875,3.255-7.875,8.61c0,2.047,0.742,4.172,2.24,5.53c1.315,1.193,3.041,1.75,5.528,1.75
		c2.416,0,4.796-1.226,6.546-3.78C292.877,951.084,292.702,950.454,292.353,950.454 M283.461,945.344
		c0.036-1.225,0.225-2.545,0.701-3.255c0.557-0.833,1.494-1.189,1.891-1.189c0.944,0,2.239,0.909,2.239,3.71
		c0,0.21,0,0.665-0.069,0.734H283.461z M266.942,939.779c-0.49,0.003-1.026,0.14-1.47,0.524v1.016c0,0.175,0.035,0.21,0.175,0.21
		h2.274c-0.08,3.524-0.104,8.015-0.104,9.765c0,1.225,0.301,2.404,1.05,3.045c0.787,0.676,2.079,0.98,2.905,0.98
		c1.935,0,4.06-0.98,4.76-1.96c0-0.42-0.21-0.631-0.63-0.98c-0.455,0.35-1.33,0.49-1.995,0.49c-0.771,0-1.54-0.595-1.54-2.345
		s-0.035-5.495-0.035-8.995h3.535c0.35,0,0.84-0.141,0.84-0.455v-1.085c0-0.141-0.104-0.21-0.279-0.21h-4.096l0.035-1.19
		c0.07-2.331,0.176-3.955,0.176-3.955c0-0.224-0.105-0.308-0.271-0.308c-0.255,0-1.562,0.389-2.11,0.62
		c-0.595,0.248-1.617,0.451-1.854,0.772c-0.245,0.333-0.386,1.277-0.386,4.058L266.942,939.779z M256.862,934.109
		c0,1.154,0.84,2.31,2.24,2.31c1.575,0,2.485-1.26,2.485-2.17c0-1.05-0.806-2.31-2.275-2.31
		C257.668,931.939,256.862,933.059,256.862,934.109 M261.588,950.699v-6.976c0-1.739,0.14-3.699,0.14-3.699
		c0-0.386-0.315-0.596-0.806-0.596c-0.996,0.386-3.814,0.665-6.229,0.98c-0.069,0.21,0,0.91,0.069,1.12
		c1.908,0.178,2.275,0.455,2.275,2.449v6.721c0,2.904-0.385,2.975-2.52,3.149c-0.21,0.21-0.21,0.98,0,1.19
		c1.47-0.035,2.926-0.07,4.795-0.07s3.29,0.035,4.795,0.07c0.21-0.21,0.21-0.98,0-1.19
		C261.973,953.709,261.588,953.604,261.588,950.699 M246.469,945.578c0-1.249,0.385-1.757,0.84-2.299
		c0.287-0.344,0.595-0.596,1.109-0.596c0.328,0,0.692,0.309,0.99,0.669c0.245,0.294,0.84,0.573,1.627,0.573
		c1.016,0,2.014-1.066,2.014-2.537c0-0.91-1.051-1.96-2.311-1.96c-1.225,0-2.555,1.05-4.165,3.36h-0.14
		c-0.07-1.05-0.245-2.765-0.245-2.765c-0.028-0.309-0.315-0.596-0.806-0.596c-1.662,0.42-3.5,0.928-5.81,1.155
		c-0.069,0.21,0,0.875,0.07,1.085c1.907,0.178,2.274,0.49,2.274,2.485v6.545c0,2.904-0.385,2.975-2.52,3.149
		c-0.21,0.21-0.21,0.98,0,1.19c1.47-0.035,2.926-0.07,4.795-0.07s3.29,0.035,4.795,0.07c0.21-0.21,0.21-0.98,0-1.19
		c-2.135-0.14-2.52-0.245-2.52-3.149V945.578z M237.299,951.924c0-0.42-0.07-1.085-0.455-1.085c-1.4,1.295-2.59,1.96-3.605,1.96
		c-2.625,0-4.689-1.89-4.689-6.09c0-3.885,0.875-5.81,2.729-5.81c1.295,0,1.82,1.364,1.925,2.484
		c0.105,0.945,1.051,1.646,2.17,1.646c1.12,0,1.926-0.875,1.926-1.96c0-1.575-1.891-3.641-5.705-3.641
		c-4.131,0-7.771,3.325-7.771,8.505c0,2.262,0.812,4.288,2.17,5.565c1.375,1.292,2.957,1.82,5.46,1.82
		C233.553,955.319,235.969,953.849,237.299,951.924 M211.748,950.454c-1.435,1.47-3.324,1.854-4.654,1.854
		c-2.73,0-4.41-1.574-4.41-5.005c0-0.245,0.035-0.385,0.035-0.56h8.399c0.841,0,1.015-0.595,1.015-1.085
		c0-2.976-1.154-6.23-6.299-6.23c-3.676,0-7.875,3.255-7.875,8.61c0,2.047,0.741,4.172,2.239,5.53c1.316,1.193,3.041,1.75,5.53,1.75
		c2.415,0,4.795-1.226,6.545-3.78C212.273,951.084,212.099,950.454,211.748,950.454 M202.858,945.344
		c0.035-1.225,0.224-2.545,0.7-3.255c0.556-0.833,1.494-1.189,1.89-1.189c0.945,0,2.24,0.909,2.24,3.71c0,0.21,0,0.665-0.07,0.734
		H202.858z M188.789,950.524c0,2.904-0.561,3.22-2.695,3.324c-0.211,0.21-0.211,0.98,0,1.19c1.47-0.035,3.031-0.07,4.97-0.07
		s3.465,0.035,4.97,0.07c0.21-0.21,0.21-0.98,0-1.19c-2.135-0.104-2.695-0.42-2.695-3.324v-15.96c0-2.275,0.105-3.57,0.105-3.57
		c0-0.315-0.245-0.455-0.561-0.455c-1.295,0.42-4.094,0.805-6.58,0.91c-0.104,0.42-0.069,0.805,0.105,1.12
		c2.205,0.175,2.381,0.224,2.381,2.625V950.524z M172.828,952.694v-8.971c0-0.189-0.003-0.382-0.01-0.57
		c1.008-0.91,2.303-1.379,3.125-1.379c1.436,0,3.115,1.75,3.115,5.845c0,2.939-1.051,6.229-4.096,6.229
		C174.578,953.849,173.703,953.639,172.828,952.694 M168.278,944.154v14.665c0,2.904-0.385,2.975-2.521,3.149
		c-0.209,0.21-0.209,0.98,0,1.19c1.471-0.035,2.927-0.07,4.795-0.07c1.869,0,3.291,0.035,4.796,0.07c0.21-0.21,0.21-0.98,0-1.19
		c-2.136-0.14-2.521-0.245-2.521-3.149v-4.096c0.754,0.386,1.506,0.596,2.346,0.596c5.334,0,8.785-3.483,8.785-8.646
		c0-1.95-0.738-4.13-2.101-5.495c-1.228-1.231-2.985-1.75-4.795-1.75c-1.015,0-2.905,1.226-4.13,2.346h-0.196
		c-0.08-0.99-0.188-1.75-0.188-1.75c-0.031-0.428-0.315-0.596-0.806-0.596c-1.295,0.351-3.395,0.84-5.81,1.155
		c-0.07,0.21,0,0.91,0.07,1.12C167.912,941.883,168.278,942.159,168.278,944.154 M157.078,934.109c0,1.154,0.84,2.31,2.24,2.31
		c1.575,0,2.484-1.26,2.484-2.17c0-1.05-0.805-2.31-2.274-2.31C157.883,931.939,157.078,933.059,157.078,934.109 M161.803,950.699
		v-6.976c0-1.739,0.141-3.699,0.141-3.699c0-0.386-0.314-0.596-0.805-0.596c-0.997,0.386-3.815,0.665-6.23,0.98
		c-0.07,0.21,0,0.91,0.07,1.12c1.908,0.178,2.275,0.455,2.275,2.449v6.721c0,2.904-0.386,2.975-2.521,3.149
		c-0.21,0.21-0.21,0.98,0,1.19c1.47-0.035,2.926-0.07,4.795-0.07s3.29,0.035,4.795,0.07c0.21-0.21,0.21-0.98,0-1.19
		C162.188,953.709,161.803,953.604,161.803,950.699 M143.359,939.779c-0.49,0.003-1.025,0.14-1.471,0.524v1.016
		c0,0.175,0.035,0.21,0.176,0.21h2.275c-0.082,3.524-0.105,8.015-0.105,9.765c0,1.225,0.301,2.404,1.05,3.045
		c0.787,0.676,2.079,0.98,2.905,0.98c1.936,0,4.061-0.98,4.76-1.96c0-0.42-0.21-0.631-0.63-0.98c-0.455,0.35-1.33,0.49-1.995,0.49
		c-0.77,0-1.54-0.595-1.54-2.345s-0.034-5.495-0.034-8.995h3.534c0.351,0,0.841-0.141,0.841-0.455v-1.085
		c0-0.141-0.105-0.21-0.281-0.21h-4.094l0.034-1.19c0.07-2.331,0.175-3.955,0.175-3.955c0-0.224-0.104-0.308-0.27-0.308
		c-0.255,0-1.561,0.389-2.109,0.62c-0.596,0.248-1.617,0.451-1.855,0.772c-0.245,0.333-0.385,1.277-0.385,4.058L143.359,939.779z
		 M133.279,950.524c0,2.904-0.561,3.22-2.695,3.324c-0.209,0.21-0.209,0.98,0,1.19c1.471-0.035,3.031-0.07,4.971-0.07
		c1.938,0,3.465,0.035,4.97,0.07c0.21-0.21,0.21-0.98,0-1.19c-2.136-0.104-2.694-0.42-2.694-3.324v-15.96
		c0-2.275,0.104-3.57,0.104-3.57c0-0.315-0.245-0.455-0.56-0.455c-1.295,0.42-4.096,0.805-6.58,0.91
		c-0.105,0.42-0.07,0.805,0.104,1.12c2.205,0.175,2.38,0.224,2.38,2.625V950.524z M126.699,950.314v-6.056
		c0-2.939,0.07-2.52,0.07-3.359c0-0.596-0.141-0.98-0.35-1.19c-0.631,0.035-1.33,0.07-1.996,0.07c-0.969,0-3.254-0.035-4.619-0.07
		c-0.211,0.21-0.211,0.98,0,1.19c1.785,0.175,2.345,0.42,2.345,3.359v6.485c0,0.336,0.011,0.687,0.028,1.04
		c-1.422,0.878-2.6,0.944-3.213,0.944c-1.4,0-2.451-0.157-2.451-2.625v-5.845c0-2.939,0.07-2.52,0.07-3.359
		c0-0.596-0.14-0.98-0.35-1.19c-0.63,0.035-1.354,0.07-1.995,0.07c-1.802,0-3.114-0.035-4.62-0.07c-0.21,0.21-0.21,0.98,0,1.19
		c1.61,0.069,2.346,0.42,2.346,3.359v5.46c0,3.728,1.47,5.601,4.479,5.601c1.271,0,3.815-1.009,5.828-2.136
		c0.077,0.883,0.157,1.54,0.157,1.54c0.027,0.42,0.314,0.596,0.805,0.596c1.295-0.351,3.395-0.841,5.811-1.155
		c0.069-0.21,0-0.91-0.07-1.12C127.067,952.866,126.699,952.309,126.699,950.314 M85.154,950.699v-6.976
		c0-0.168-0.003-0.34-0.007-0.511c1.362-0.827,2.601-1.194,3.192-1.194c1.399,0,2.449,0.631,2.449,2.625v5.846
		c0,2.939-0.56,3.255-1.994,3.359c-0.211,0.21-0.211,0.98,0,1.19c1.469-0.035,2.59-0.07,4.27-0.07s2.766,0.035,4.27,0.07
		c0.211-0.21,0.211-0.98,0-1.19c-1.399-0.104-1.994-0.42-1.994-3.359v-5.46c0-0.857-0.053-1.558-0.127-1.918
		c1.316-0.687,2.818-1.093,3.381-1.093c1.4,0,2.381,0.631,2.381,2.625v5.846c0,2.939-0.561,3.255-1.995,3.359
		c-0.21,0.21-0.21,0.98,0,1.19c1.47-0.035,2.59-0.07,4.271-0.07c1.924,0,3.465,0.035,4.969,0.07c0.211-0.21,0.211-0.98,0-1.19
		c-2.135-0.104-2.694-0.42-2.694-3.359v-5.46c0-3.851-1.399-5.601-4.41-5.601c-1.288,0-4.245,1.391-6.272,2.538
		c-0.534-1.522-1.935-2.538-3.982-2.538c-1.253,0-3.79,1.316-5.785,2.443c-0.084-1.04-0.199-1.848-0.199-1.848
		c-0.031-0.428-0.315-0.596-0.806-0.596c-1.295,0.351-3.396,0.84-5.81,1.155c-0.07,0.21,0,0.91,0.07,1.12
		c1.907,0.179,2.274,0.455,2.274,2.45v6.545c0,2.904-0.386,2.975-2.521,3.149c-0.209,0.21-0.209,0.98,0,1.19
		c1.471-0.035,2.926-0.07,4.795-0.07c1.597,0,2.59,0.035,4.096,0.07c0.21-0.21,0.21-0.98,0-1.19
		C85.504,953.709,85.154,953.604,85.154,950.699 M50.436,947.724c0,4.571,3.626,7.596,8.33,7.596c2.467,0,4.546-0.707,5.984-1.995
		c1.771-1.585,2.381-3.966,2.381-5.915c0-4.578-3.133-7.98-8.33-7.98c-2.902,0-5.068,1.001-6.451,2.59
		C51.023,943.545,50.436,945.655,50.436,947.724 M58.24,940.899c2.381,0,3.99,2.835,3.99,7.63c0,4.204-1.645,5.319-2.905,5.319
		c-2.87,0-3.989-4.305-3.989-6.895C55.336,943.734,55.896,940.899,58.24,940.899 M38.815,939.779c-0.49,0.003-1.024,0.14-1.47,0.524
		v1.016c0,0.175,0.035,0.21,0.175,0.21h2.274c-0.08,3.524-0.104,8.015-0.104,9.765c0,1.225,0.301,2.404,1.05,3.045
		c0.787,0.676,2.079,0.98,2.905,0.98c1.937,0,4.06-0.98,4.76-1.96c0-0.42-0.21-0.631-0.63-0.98c-0.455,0.35-1.33,0.49-1.995,0.49
		c-0.771,0-1.54-0.595-1.54-2.345s-0.035-5.495-0.035-8.995h3.535c0.35,0,0.84-0.141,0.84-0.455v-1.085
		c0-0.141-0.104-0.21-0.279-0.21h-4.096l0.035-1.19c0.07-2.331,0.176-3.955,0.176-3.955c0-0.224-0.105-0.308-0.27-0.308
		c-0.256,0-1.561,0.389-2.111,0.62c-0.595,0.248-1.617,0.451-1.855,0.772c-0.244,0.333-0.385,1.277-0.385,4.058L38.815,939.779z"/>
	<path clip-path="url(#SVGID_8_)" fill="#231F20" d="M512.011,893.179c0.979,0,1.54-0.42,1.54-1.715c0-0.665-0.91-1.68-2.24-1.68
		c-1.54,0-3.57,1.155-4.585,2.064c-0.63-0.35-1.365-0.42-2.94-0.42c-1.509,0-2.972,0.368-4.13,1.12
		c-1.421,0.924-2.38,2.266-2.38,4.061c0,1.715,1.015,3.569,2.695,4.498c-1.086,0.927-2.766,2.774-2.766,3.481
		c0,0.669,0.105,1.085,0.455,1.61c0.322,0.482,0.749,0.756,1.436,0.979c-1.505,0.91-3.045,2.905-3.045,3.5
		c0,1.295,0.4,2.79,1.364,3.465c1.354,0.949,3.679,1.155,5.355,1.155c4.864,0,10.429-2.555,10.429-6.405
		c0-0.749-0.339-2.236-1.749-3.185c-1.354-0.91-6.633-1.155-9.205-1.155c-0.63,0-1.575-0.069-1.575-1.47
		c0-0.56,0.332-1.05,0.508-1.47c0.734,0.35,1.487,0.385,2.572,0.385c1.785,0,3.427-0.448,4.62-1.505
		c1.008-0.894,1.715-2.139,1.715-3.71c0-1.96-0.979-3.255-2.17-4.235c0.28-0.35,1.435-0.979,1.784-0.979
		c0.316,0,0.562,0.21,0.666,0.42C510.506,892.444,511.135,893.179,512.011,893.179 M501.79,907.844c2.688,0,7.875,0.099,7.875,1.96
		c0,1.268-0.563,2.688-1.715,3.339c-1.085,0.613-2.859,0.687-4.2,0.687c-2.31,0-3.885-1.715-3.885-3.5c0-1.19,0-1.995,0.385-2.695
		C500.601,907.774,501.056,907.844,501.79,907.844 M505.814,896.889c0,3.36-0.979,3.78-1.889,3.78c-2.17,0-2.45-2.59-2.45-4.375
		c0-2.59,0.63-3.535,1.995-3.535C505.115,892.759,505.814,894.124,505.814,896.889 M482.085,902.699v-6.976v-0.062
		c1.39-0.956,2.813-1.643,3.431-1.643c1.399,0,2.449,0.631,2.449,2.625v5.846c0,2.939-0.56,3.255-1.994,3.359
		c-0.21,0.21-0.21,0.98,0,1.19c1.47-0.035,2.604-0.07,4.27-0.07c1.939,0,3.465,0.035,4.97,0.07c0.21-0.21,0.21-0.98,0-1.19
		c-2.135-0.104-2.694-0.42-2.694-3.359v-5.46c0-3.851-1.646-5.601-4.655-5.601c-1.411,0-3.899,1.544-5.829,2.866
		c-0.08-1.235-0.226-2.271-0.226-2.271c-0.032-0.428-0.315-0.596-0.806-0.596c-1.295,0.351-3.395,0.84-5.81,1.155
		c-0.07,0.21,0,0.91,0.07,1.12c1.906,0.179,2.274,0.455,2.274,2.45v6.545c0,2.904-0.385,2.975-2.52,3.149
		c-0.21,0.21-0.21,0.98,0,1.19c1.47-0.035,2.926-0.07,4.795-0.07c1.596,0,2.59,0.035,4.095,0.07c0.21-0.21,0.21-0.98,0-1.19
		C482.436,905.709,482.085,905.604,482.085,902.699 M466.23,886.109c0,1.154,0.84,2.31,2.24,2.31c1.574,0,2.484-1.26,2.484-2.17
		c0-1.05-0.805-2.31-2.274-2.31C467.035,883.939,466.23,885.059,466.23,886.109 M470.955,902.699v-6.976
		c0-1.739,0.141-3.699,0.141-3.699c0-0.386-0.315-0.596-0.806-0.596c-0.998,0.386-3.814,0.665-6.229,0.98
		c-0.07,0.21,0,0.91,0.07,1.12c1.907,0.179,2.274,0.455,2.274,2.449v6.721c0,2.904-0.385,2.975-2.521,3.149
		c-0.209,0.21-0.209,0.98,0,1.19c1.471-0.035,2.927-0.07,4.796-0.07c1.868,0,3.29,0.035,4.795,0.07c0.21-0.21,0.21-0.98,0-1.19
		C471.341,905.709,470.955,905.604,470.955,902.699 M455.615,905.289c0.073,0.826,0.15,1.435,0.15,1.435
		c0.027,0.42,0.314,0.596,0.805,0.596c1.295-0.351,3.395-0.841,5.811-1.155c0.069-0.21,0-0.91-0.07-1.12
		c-1.907-0.178-2.275-0.735-2.275-2.729v-15.75c0-2.275,0.105-3.57,0.105-3.57c0-0.315-0.245-0.455-0.561-0.455
		c-1.295,0.42-4.095,0.805-6.58,0.91c-0.104,0.42-0.069,0.875,0.105,1.189c2.205,0.176,2.38,0.21,2.38,2.625v4.564
		c-0.668-0.238-1.508-0.399-2.521-0.399c-4.515,0-8.47,3.955-8.47,8.61c0,2.083,0.749,4.487,2.45,5.81
		c1.26,0.98,2.143,1.471,4.095,1.471c0.945,0,3.535-1.54,4.271-2.03H455.615z M455.507,903.651
		c-0.738,0.592-2.587,1.357-2.996,1.357c-1.75,0-3.115-1.96-3.115-6.055c0-1.866,0.214-3.465,0.875-4.55
		c0.578-0.948,1.53-1.505,2.59-1.505c0.917,0,1.774,0.094,2.625,1.253v8.616C455.485,903.053,455.492,903.35,455.507,903.651
		 M436.48,897.579c0-1.25,0.385-1.757,0.84-2.3c0.287-0.344,0.595-0.596,1.11-0.596c0.329,0,0.692,0.309,0.989,0.669
		c0.245,0.294,0.841,0.574,1.629,0.574c1.015,0,2.012-1.067,2.012-2.538c0-0.91-1.05-1.96-2.311-1.96
		c-1.225,0-2.555,1.05-4.165,3.36h-0.14c-0.07-1.05-0.246-2.765-0.246-2.765c-0.026-0.309-0.314-0.596-0.804-0.596
		c-1.662,0.42-3.5,0.929-5.811,1.155c-0.069,0.21,0,0.875,0.07,1.085c1.908,0.179,2.275,0.49,2.275,2.485v6.545
		c0,2.904-0.386,2.975-2.521,3.149c-0.211,0.21-0.211,0.98,0,1.19c1.471-0.035,2.926-0.07,4.795-0.07s3.29,0.035,4.795,0.07
		c0.21-0.21,0.21-0.98,0-1.19c-2.135-0.14-2.52-0.245-2.52-3.149V897.579z M410.512,899.724c0,4.571,3.626,7.596,8.33,7.596
		c2.467,0,4.546-0.707,5.984-1.995c1.771-1.585,2.38-3.965,2.38-5.915c0-4.578-3.133-7.98-8.33-7.98c-2.901,0-5.067,1.001-6.45,2.59
		C411.1,895.545,410.512,897.655,410.512,899.724 M418.316,892.899c2.38,0,3.99,2.835,3.99,7.63c0,4.204-1.646,5.319-2.905,5.319
		c-2.87,0-3.99-4.305-3.99-6.895C415.411,895.734,415.972,892.899,418.316,892.899 M408.026,903.924c0-0.42-0.07-1.085-0.455-1.085
		c-1.399,1.295-2.59,1.96-3.604,1.96c-2.625,0-4.69-1.89-4.69-6.09c0-3.885,0.875-5.81,2.73-5.81c1.295,0,1.819,1.364,1.925,2.484
		c0.104,0.945,1.05,1.646,2.17,1.646s1.925-0.875,1.925-1.96c0-1.575-1.89-3.641-5.705-3.641c-4.13,0-7.77,3.325-7.77,8.505
		c0,2.262,0.812,4.288,2.17,5.565c1.375,1.292,2.957,1.82,5.46,1.82C404.281,907.319,406.696,905.849,408.026,903.924
		 M392.066,903.924c0-0.42-0.07-1.085-0.455-1.085c-1.4,1.295-2.59,1.96-3.604,1.96c-2.625,0-4.69-1.89-4.69-6.09
		c0-3.885,0.875-5.81,2.73-5.81c1.295,0,1.819,1.364,1.925,2.484c0.104,0.945,1.05,1.646,2.17,1.646s1.925-0.875,1.925-1.96
		c0-1.575-1.89-3.641-5.705-3.641c-4.13,0-7.77,3.325-7.77,8.505c0,2.262,0.812,4.288,2.17,5.565c1.376,1.292,2.958,1.82,5.46,1.82
		C388.321,907.319,390.736,905.849,392.066,903.924 M369.736,899.339v4.62c-0.875,0.7-1.75,1.26-2.38,1.26
		c-1.505,0-2.03-1.015-2.03-2.1c0-1.298,0.116-2.376,2.59-3.186L369.736,899.339z M369.918,905.271
		c0.238,1.418,1.184,2.048,2.724,2.048c1.936,0,3.29-0.735,4.585-1.96c-0.077-0.413-0.228-0.693-0.63-0.98
		c-0.455,0.35-0.806,0.49-1.471,0.49c-0.77,0-0.979-0.63-0.979-2.345l0.07-5.04c0-5.04-3.115-6.056-5.985-6.056
		c-2.555,0-6.492,1.456-6.492,3.767c0,1.001,0.423,1.771,1.81,1.771c1.238,0,2.177-0.77,2.177-1.617c0-0.462-0.245-1.05-0.161-1.651
		c0.053-0.39,0.305-0.798,1.477-0.798c1.471,0,2.695,0.63,2.695,5.074l-2.345,0.735c-3.689,1.155-6.266,2.17-6.266,4.935
		c0,2.415,1.33,3.676,4.375,3.676c1.016,0,3.046-1.12,4.2-2.03L369.918,905.271z M337.572,901.859
		c0.141,1.732,0.297,3.378,0.595,4.689c0.647,0.229,2.898,0.771,4.865,0.771c2.695,0,6.056-1.467,6.056-4.516
		c0-1.186-0.295-2.142-1.071-3.01c-1.013-1.13-2.464-1.995-4.074-2.695c-1.4-0.608-1.89-1.711-1.89-2.729
		c0-0.805,0.665-1.47,1.68-1.47c1.225,0,2.415,1.119,3.29,3.255c0.63,0.104,1.015,0.069,1.365-0.176c0-1.26-0.141-2.59-0.455-3.71
		c-1.12-0.489-1.995-0.84-3.92-0.84c-1.846,0-3.619,0.693-4.726,1.82c-0.805,0.819-1.189,1.785-1.189,2.729
		c0,1.04,0.401,1.877,1.085,2.625c1.085,1.19,2.992,2.427,4.06,2.905c1.4,0.63,1.785,1.891,1.785,2.73
		c0,1.124-1.12,1.715-2.064,1.715c-1.579,0-3.256-1.592-3.99-4.165C338.412,901.684,338.133,901.719,337.572,901.859
		 M325.567,891.779c-0.49,0.003-1.025,0.14-1.47,0.524v1.016c0,0.175,0.035,0.21,0.175,0.21h2.275
		c-0.08,3.524-0.105,8.015-0.105,9.765c0,1.225,0.301,2.404,1.05,3.045c0.788,0.676,2.079,0.98,2.905,0.98
		c1.936,0,4.06-0.98,4.76-1.96c0-0.42-0.21-0.631-0.63-0.98c-0.455,0.35-1.33,0.49-1.995,0.49c-0.77,0-1.54-0.595-1.54-2.345
		s-0.035-5.495-0.035-8.995h3.535c0.351,0,0.84-0.141,0.84-0.455v-1.085c0-0.141-0.104-0.21-0.279-0.21h-4.096l0.035-1.19
		c0.07-2.331,0.175-3.955,0.175-3.955c0-0.224-0.104-0.308-0.269-0.308c-0.256,0-1.561,0.389-2.111,0.62
		c-0.595,0.248-1.617,0.451-1.854,0.772c-0.245,0.333-0.385,1.278-0.385,4.058L325.567,891.779z M309.782,902.699v-6.976v-0.062
		c1.391-0.956,2.814-1.643,3.431-1.643c1.399,0,2.449,0.631,2.449,2.625v5.846c0,2.939-0.56,3.255-1.995,3.359
		c-0.21,0.21-0.21,0.98,0,1.19c1.471-0.035,2.604-0.07,4.271-0.07c1.938,0,3.465,0.035,4.97,0.07c0.21-0.21,0.21-0.98,0-1.19
		c-2.135-0.104-2.694-0.42-2.694-3.359v-5.46c0-3.851-1.646-5.601-4.655-5.601c-1.41,0-3.899,1.544-5.827,2.866
		c-0.081-1.235-0.229-2.271-0.229-2.271c-0.03-0.428-0.314-0.596-0.805-0.596c-1.295,0.351-3.395,0.84-5.81,1.155
		c-0.07,0.21,0,0.91,0.069,1.12c1.908,0.179,2.275,0.455,2.275,2.45v6.545c0,2.904-0.385,2.975-2.52,3.149
		c-0.211,0.21-0.211,0.98,0,1.19c1.47-0.035,2.926-0.07,4.795-0.07c1.596,0,2.59,0.035,4.095,0.07c0.21-0.21,0.21-0.98,0-1.19
		C310.133,905.709,309.782,905.604,309.782,902.699 M299.772,902.454c-1.435,1.47-3.325,1.854-4.655,1.854
		c-2.729,0-4.41-1.574-4.41-5.005c0-0.245,0.035-0.385,0.035-0.56h8.4c0.84,0,1.015-0.595,1.015-1.085c0-2.976-1.155-6.23-6.3-6.23
		c-3.675,0-7.875,3.255-7.875,8.61c0,2.047,0.742,4.172,2.24,5.53c1.315,1.193,3.042,1.75,5.529,1.75
		c2.415,0,4.796-1.226,6.546-3.78C300.298,903.084,300.122,902.454,299.772,902.454 M290.883,897.344
		c0.034-1.225,0.224-2.545,0.699-3.255c0.558-0.833,1.495-1.189,1.891-1.189c0.944,0,2.24,0.909,2.24,3.71
		c0,0.21,0,0.665-0.07,0.734H290.883z M260.992,902.699v-6.976c0-0.168-0.003-0.34-0.007-0.511c1.362-0.826,2.601-1.194,3.192-1.194
		c1.399,0,2.449,0.631,2.449,2.625v5.846c0,2.939-0.56,3.255-1.994,3.359c-0.211,0.21-0.211,0.98,0,1.19
		c1.47-0.035,2.59-0.07,4.27-0.07s2.766,0.035,4.27,0.07c0.211-0.21,0.211-0.98,0-1.19c-1.399-0.104-1.994-0.42-1.994-3.359v-5.46
		c0-0.857-0.053-1.558-0.127-1.918c1.316-0.687,2.818-1.093,3.382-1.093c1.399,0,2.38,0.631,2.38,2.625v5.846
		c0,2.939-0.561,3.255-1.995,3.359c-0.21,0.21-0.21,0.98,0,1.19c1.47-0.035,2.59-0.07,4.271-0.07c1.924,0,3.465,0.035,4.97,0.07
		c0.21-0.21,0.21-0.98,0-1.19c-2.136-0.104-2.695-0.42-2.695-3.359v-5.46c0-3.851-1.399-5.601-4.41-5.601
		c-1.288,0-4.245,1.391-6.272,2.538c-0.534-1.522-1.934-2.538-3.982-2.538c-1.253,0-3.79,1.316-5.785,2.443
		c-0.084-1.039-0.199-1.848-0.199-1.848c-0.031-0.428-0.315-0.596-0.806-0.596c-1.295,0.351-3.396,0.84-5.81,1.155
		c-0.07,0.21,0,0.91,0.07,1.12c1.907,0.179,2.274,0.455,2.274,2.45v6.545c0,2.904-0.385,2.975-2.521,3.149
		c-0.209,0.21-0.209,0.98,0,1.19c1.471-0.035,2.927-0.07,4.795-0.07c1.597,0,2.591,0.035,4.096,0.07c0.21-0.21,0.21-0.98,0-1.19
		C261.342,905.709,260.992,905.604,260.992,902.699 M251.123,893.179c0.979,0,1.539-0.42,1.539-1.715c0-0.665-0.91-1.68-2.24-1.68
		c-1.539,0-3.569,1.155-4.584,2.064c-0.631-0.35-1.365-0.42-2.94-0.42c-1.508,0-2.972,0.368-4.13,1.12
		c-1.422,0.924-2.381,2.266-2.381,4.061c0,1.715,1.016,3.569,2.695,4.498c-1.084,0.927-2.765,2.774-2.765,3.481
		c0,0.669,0.104,1.085,0.455,1.61c0.321,0.482,0.749,0.756,1.435,0.979c-1.505,0.91-3.045,2.905-3.045,3.5
		c0,1.295,0.403,2.79,1.365,3.465c1.355,0.949,3.68,1.155,5.355,1.155c4.865,0,10.43-2.555,10.43-6.405
		c0-0.749-0.339-2.236-1.75-3.185c-1.354-0.91-6.633-1.155-9.205-1.155c-0.63,0-1.575-0.069-1.575-1.47
		c0-0.56,0.333-1.05,0.509-1.47c0.734,0.35,1.486,0.385,2.571,0.385c1.785,0,3.427-0.448,4.62-1.505
		c1.008-0.894,1.715-2.139,1.715-3.71c0-1.96-0.98-3.255-2.17-4.235c0.28-0.35,1.436-0.979,1.785-0.979
		c0.314,0,0.561,0.21,0.665,0.42C249.617,892.444,250.248,893.179,251.123,893.179 M240.902,907.844c2.688,0,7.875,0.099,7.875,1.96
		c0,1.268-0.562,2.688-1.715,3.339c-1.085,0.613-2.859,0.687-4.2,0.687c-2.31,0-3.885-1.715-3.885-3.5c0-1.19,0-1.995,0.385-2.695
		C239.713,907.774,240.168,907.844,240.902,907.844 M244.928,896.889c0,3.36-0.98,3.78-1.891,3.78c-2.17,0-2.449-2.59-2.449-4.375
		c0-2.59,0.629-3.535,1.994-3.535C244.228,892.759,244.928,894.124,244.928,896.889 M227.219,899.339v4.62
		c-0.875,0.7-1.75,1.26-2.381,1.26c-1.504,0-2.029-1.015-2.029-2.1c0-1.298,0.115-2.376,2.59-3.186L227.219,899.339z M227.4,905.271
		c0.238,1.418,1.184,2.048,2.723,2.048c1.936,0,3.291-0.735,4.586-1.96c-0.078-0.413-0.229-0.693-0.631-0.98
		c-0.455,0.35-0.805,0.49-1.47,0.49c-0.771,0-0.979-0.63-0.979-2.345l0.069-5.04c0-5.04-3.114-6.056-5.985-6.056
		c-2.555,0-6.492,1.456-6.492,3.767c0,1.001,0.424,1.771,1.81,1.771c1.239,0,2.177-0.77,2.177-1.617c0-0.462-0.244-1.05-0.16-1.651
		c0.052-0.39,0.304-0.798,1.477-0.798c1.47,0,2.695,0.63,2.695,5.074l-2.346,0.735c-3.688,1.155-6.265,2.17-6.265,4.935
		c0,2.415,1.33,3.676,4.375,3.676c1.015,0,3.045-1.12,4.2-2.03L227.4,905.271z M210.068,897.579c0-1.25,0.385-1.757,0.84-2.3
		c0.287-0.344,0.596-0.596,1.109-0.596c0.328,0,0.693,0.309,0.99,0.669c0.246,0.294,0.841,0.574,1.627,0.574
		c1.016,0,2.014-1.067,2.014-2.538c0-0.91-1.05-1.96-2.311-1.96c-1.225,0-2.555,1.05-4.164,3.36h-0.141
		c-0.07-1.05-0.244-2.765-0.244-2.765c-0.029-0.309-0.315-0.596-0.806-0.596c-1.663,0.42-3.5,0.929-5.81,1.155
		c-0.07,0.21,0,0.875,0.069,1.085c1.907,0.179,2.275,0.49,2.275,2.485v6.545c0,2.904-0.386,2.975-2.521,3.149
		c-0.209,0.21-0.209,0.98,0,1.19c1.471-0.035,2.926-0.07,4.795-0.07s3.291,0.035,4.795,0.07c0.211-0.21,0.211-0.98,0-1.19
		c-2.135-0.14-2.52-0.245-2.52-3.149V897.579z M196.453,902.489v-8.96h3.01c0.631,0,1.226-0.176,1.226-0.596v-0.805
		c0-0.21-0.035-0.35-0.7-0.35h-3.535v-1.785c0-5.215,1.436-5.985,2.205-5.985c0.596,0,0.735,0.525,0.98,1.365
		c0.314,1.12,1.225,1.995,2.484,1.995c1.155,0,1.995-0.735,1.995-2.24c0-0.945-1.085-2.59-4.795-2.59
		c-1.646,0-3.604,0.595-4.935,2.03c-1.295,1.399-2.485,3.149-2.485,6.51v0.7h-0.069c-1.19,0-2.625,0.175-2.625,0.455v0.944
		c0,0.245,0.14,0.351,0.944,0.351h1.75v9.029c0,2.87-0.56,3.186-2.694,3.29c-0.211,0.21-0.211,0.98,0,1.19
		c1.469-0.035,3.045-0.07,4.969-0.07c1.926,0,3.466,0.035,4.971,0.07c0.21-0.21,0.21-0.98,0-1.19
		C197.014,905.744,196.453,905.429,196.453,902.489 M177.764,893.179c0.979,0,1.539-0.42,1.539-1.715c0-0.665-0.909-1.68-2.239-1.68
		c-1.54,0-3.57,1.155-4.585,2.064c-0.63-0.35-1.365-0.42-2.939-0.42c-1.509,0-2.972,0.368-4.131,1.12
		c-1.421,0.924-2.38,2.266-2.38,4.061c0,1.715,1.015,3.569,2.695,4.498c-1.085,0.927-2.765,2.774-2.765,3.481
		c0,0.669,0.104,1.085,0.455,1.61c0.321,0.482,0.748,0.756,1.435,0.979c-1.505,0.91-3.046,2.905-3.046,3.5
		c0,1.295,0.404,2.79,1.365,3.465c1.355,0.949,3.68,1.155,5.355,1.155c4.865,0,10.43-2.555,10.43-6.405
		c0-0.749-0.339-2.236-1.75-3.185c-1.354-0.91-6.632-1.155-9.205-1.155c-0.63,0-1.574-0.069-1.574-1.47
		c0-0.56,0.332-1.05,0.508-1.47c0.734,0.35,1.486,0.385,2.572,0.385c1.785,0,3.426-0.448,4.619-1.505
		c1.008-0.894,1.715-2.139,1.715-3.71c0-1.96-0.979-3.255-2.17-4.235c0.28-0.35,1.436-0.979,1.785-0.979
		c0.315,0,0.561,0.21,0.665,0.42C176.258,892.444,176.889,893.179,177.764,893.179 M167.543,907.844c2.688,0,7.875,0.099,7.875,1.96
		c0,1.268-0.562,2.688-1.715,3.339c-1.085,0.613-2.859,0.687-4.199,0.687c-2.311,0-3.886-1.715-3.886-3.5
		c0-1.19,0-1.995,0.386-2.695C166.354,907.774,166.809,907.844,167.543,907.844 M171.568,896.889c0,3.36-0.98,3.78-1.891,3.78
		c-2.17,0-2.449-2.59-2.449-4.375c0-2.59,0.63-3.535,1.995-3.535C170.868,892.759,171.568,894.124,171.568,896.889 M147.838,902.699
		v-6.976v-0.062c1.391-0.956,2.814-1.643,3.431-1.643c1.399,0,2.45,0.631,2.45,2.625v5.846c0,2.939-0.561,3.255-1.995,3.359
		c-0.21,0.21-0.21,0.98,0,1.19c1.47-0.035,2.604-0.07,4.27-0.07c1.939,0,3.466,0.035,4.97,0.07c0.211-0.21,0.211-0.98,0-1.19
		c-2.135-0.104-2.694-0.42-2.694-3.359v-5.46c0-3.851-1.646-5.601-4.655-5.601c-1.41,0-3.898,1.544-5.826,2.866
		c-0.082-1.235-0.229-2.271-0.229-2.271c-0.031-0.428-0.315-0.596-0.805-0.596c-1.295,0.351-3.396,0.84-5.811,1.155
		c-0.07,0.21,0,0.91,0.07,1.12c1.908,0.179,2.275,0.455,2.275,2.45v6.545c0,2.904-0.386,2.975-2.521,3.149
		c-0.21,0.21-0.21,0.98,0,1.19c1.47-0.035,2.926-0.07,4.795-0.07c1.596,0,2.59,0.035,4.095,0.07c0.21-0.21,0.21-0.98,0-1.19
		C148.188,905.709,147.838,905.604,147.838,902.699 M131.984,886.109c0,1.154,0.84,2.31,2.24,2.31c1.574,0,2.484-1.26,2.484-2.17
		c0-1.05-0.805-2.31-2.274-2.31C132.789,883.939,131.984,885.059,131.984,886.109 M136.709,902.699v-6.976
		c0-1.739,0.141-3.699,0.141-3.699c0-0.386-0.315-0.596-0.805-0.596c-0.998,0.386-3.815,0.665-6.23,0.98
		c-0.07,0.21,0,0.91,0.07,1.12c1.906,0.179,2.274,0.455,2.274,2.449v6.721c0,2.904-0.385,2.975-2.521,3.149
		c-0.209,0.21-0.209,0.98,0,1.19c1.471-0.035,2.927-0.07,4.796-0.07c1.868,0,3.29,0.035,4.795,0.07c0.21-0.21,0.21-0.98,0-1.19
		C137.094,905.709,136.709,905.604,136.709,902.699 M118.264,891.779c-0.489,0.003-1.024,0.14-1.469,0.524v1.016
		c0,0.175,0.035,0.21,0.174,0.21h2.275c-0.08,3.524-0.105,8.015-0.105,9.765c0,1.225,0.302,2.404,1.051,3.045
		c0.788,0.676,2.079,0.98,2.904,0.98c1.937,0,4.061-0.98,4.761-1.96c0-0.42-0.21-0.631-0.63-0.98c-0.455,0.35-1.33,0.49-1.995,0.49
		c-0.771,0-1.54-0.595-1.54-2.345s-0.035-5.495-0.035-8.995h3.535c0.35,0,0.84-0.141,0.84-0.455v-1.085
		c0-0.141-0.105-0.21-0.279-0.21h-4.096l0.035-1.19c0.07-2.331,0.175-3.955,0.175-3.955c0-0.224-0.104-0.308-0.269-0.308
		c-0.256,0-1.562,0.389-2.111,0.62c-0.596,0.248-1.617,0.451-1.855,0.772c-0.244,0.333-0.385,1.278-0.385,4.058L118.264,891.779z
		 M114.869,903.924c0-0.42-0.07-1.085-0.455-1.085c-1.4,1.295-2.59,1.96-3.604,1.96c-2.625,0-4.69-1.89-4.69-6.09
		c0-3.885,0.875-5.81,2.73-5.81c1.295,0,1.82,1.364,1.925,2.484c0.104,0.945,1.05,1.646,2.17,1.646s1.925-0.875,1.925-1.96
		c0-1.575-1.89-3.641-5.705-3.641c-4.13,0-7.77,3.325-7.77,8.505c0,2.262,0.812,4.288,2.17,5.565c1.376,1.292,2.958,1.82,5.46,1.82
		C111.125,907.319,113.539,905.849,114.869,903.924 M97.825,902.454c-1.435,1.47-3.325,1.854-4.655,1.854
		c-2.729,0-4.41-1.574-4.41-5.005c0-0.245,0.035-0.385,0.035-0.56h8.4c0.84,0,1.016-0.595,1.016-1.085
		c0-2.976-1.156-6.23-6.301-6.23c-3.675,0-7.875,3.255-7.875,8.61c0,2.047,0.742,4.172,2.24,5.53c1.316,1.193,3.041,1.75,5.529,1.75
		c2.416,0,4.796-1.226,6.546-3.78C98.351,903.084,98.176,902.454,97.825,902.454 M88.936,897.344
		c0.035-1.225,0.224-2.545,0.699-3.255c0.557-0.833,1.494-1.189,1.891-1.189c0.945,0,2.24,0.909,2.24,3.71
		c0,0.21,0,0.665-0.07,0.734H88.936z M74.865,902.524c0,2.904-0.561,3.22-2.695,3.324c-0.209,0.21-0.209,0.98,0,1.19
		c1.471-0.035,3.031-0.07,4.971-0.07s3.465,0.035,4.97,0.07c0.21-0.21,0.21-0.98,0-1.19c-2.135-0.104-2.694-0.42-2.694-3.324v-15.96
		c0-2.275,0.104-3.57,0.104-3.57c0-0.315-0.245-0.455-0.56-0.455c-1.295,0.42-4.096,0.805-6.58,0.91
		c-0.105,0.42-0.07,0.805,0.104,1.12c2.205,0.175,2.38,0.224,2.38,2.625V902.524z M69.336,902.454
		c-1.436,1.47-3.326,1.854-4.656,1.854c-2.729,0-4.409-1.574-4.409-5.005c0-0.245,0.034-0.385,0.034-0.56h8.4
		c0.84,0,1.016-0.595,1.016-1.085c0-2.976-1.155-6.23-6.301-6.23c-3.674,0-7.875,3.255-7.875,8.61c0,2.047,0.742,4.172,2.24,5.53
		c1.316,1.193,3.041,1.75,5.53,1.75c2.415,0,4.795-1.226,6.545-3.78C69.86,903.084,69.686,902.454,69.336,902.454 M60.445,897.344
		c0.035-1.225,0.225-2.545,0.7-3.255c0.556-0.833,1.493-1.189,1.89-1.189c0.945,0,2.24,0.909,2.24,3.71c0,0.21,0,0.665-0.07,0.734
		H60.445z M51.346,884.884c-1.926-0.28-2.66-0.944-5.916-0.944c-1.588,0-3.65,0.504-5.109,1.68c-1.307,1.05-2.275,2.674-2.275,4.375
		c0,1.341,0.364,3.007,1.155,4.06c1.624,2.167,4.526,3.37,6.021,4.41c1.609,1.12,3.185,2.521,3.185,4.48
		c0,1.722-1.505,2.904-3.64,2.904c-2.346,0-4.76-1.925-5.461-5.109c-0.594-0.21-1.189-0.035-1.75,0.104
		c0,2.625,0.281,4.48,0.666,5.775c1.994,0,2.096,0.7,6.93,0.7c2.143,0,3.843-0.616,5.285-1.908c1.242-1.112,2.38-2.727,2.38-4.882
		c0-1.823-0.788-3.06-1.819-4.2c-1.365-1.508-3.326-2.59-4.691-3.29c-1.389-0.714-3.885-2.521-3.885-4.515
		c0-1.96,1.184-3.15,2.976-3.15c2.976,0,3.955,2.695,4.585,5.005c0.49,0.14,1.365,0.14,1.75-0.175
		C51.73,888.349,51.59,886.914,51.346,884.884"/>
</g>
</svg>
