<?xml version="1.0" encoding="utf-8"?>
<!-- Generator: Adobe Illustrator 16.0.0, SVG Export Plug-In . SVG Version: 6.00 Build 0)  -->
<!DOCTYPE svg PUBLIC "-//W3C//DTD SVG 1.1//EN" "http://www.w3.org/Graphics/SVG/1.1/DTD/svg11.dtd">
<svg version="1.1" id="Layer_1" xmlns="http://www.w3.org/2000/svg" xmlns:xlink="http://www.w3.org/1999/xlink" x="0px" y="0px"
	 width="564px" height="1002px" viewBox="0 0 564 1002" enable-background="new 0 0 564 1002" xml:space="preserve">
<g>
	<defs>
		<rect id="SVGID_129_" width="564" height="1002"/>
	</defs>
	<clipPath id="SVGID_2_">
		<use xlink:href="#SVGID_129_"  overflow="visible"/>
	</clipPath>
	<polygon clip-path="url(#SVGID_2_)" fill="none" stroke="#0046F9" stroke-width="1.998" points="1,3 1,999 1,1001.002 3,1001.002 
		561,1001.002 563.002,1001.002 563.002,999 563.002,3 563.002,0.998 561,0.998 3,0.998 1,0.998 	"/>
</g>
<rect x="5.002" y="5.002" fill="none" stroke="#0046F9" stroke-width="1.998" width="553.996" height="991.996"/>
<g>
	<defs>
		<rect id="SVGID_131_" width="564" height="1002"/>
	</defs>
	<clipPath id="SVGID_4_">
		<use xlink:href="#SVGID_131_"  overflow="visible"/>
	</clipPath>
	<path clip-path="url(#SVGID_4_)" fill="#0046F9" d="M63.49,861.577v22.928l336.545-4.968
		c-20.252,25.221-38.596,58.084-38.596,91.33l0.383,0.764c31.717-43.563,79.102-79.101,129.925-97.826v-1.146
		c-51.588-18.726-96.681-53.499-129.925-97.444l-0.383,0.382c0.766,31.335,16.051,70.313,38.596,90.948L63.49,861.577z"/>
</g>
<polygon fill="#231F20" points="49.866,38.283 225.527,38.283 225.527,117.225 126.673,117.225 126.673,254.481 197.791,254.481 
	197.791,338.401 126.673,338.401 126.673,482.06 225.527,482.06 225.527,561 49.866,561 "/>
<line fill="none" stroke="#0046F9" stroke-width="2" x1="300.641" y1="170.594" x2="537.141" y2="170.594"/>
<line fill="none" stroke="#0046F9" stroke-width="2" x1="279.639" y1="26" x2="279.639" y2="581"/>
<g>
	<defs>
		<rect id="SVGID_133_" width="564" height="1002"/>
	</defs>
	<clipPath id="SVGID_6_">
		<use xlink:href="#SVGID_133_"  overflow="visible"/>
	</clipPath>
	<path clip-path="url(#SVGID_6_)" fill="#0046F9" d="M520.082,95.148h-3.195l1.547-30.076L520.082,95.148z M514.932,122.34
		l1.132-15.449h4.739l1.131,15.449h8.344l-6.797-75.705h-9.99l-6.901,75.705H514.932z M489.491,57.656
		c0.515,0,1.647-0.104,2.368,1.03c0.824,1.235,0.928,4.635,0.928,10.196c0,5.459-0.104,9.271-1.03,10.609
		c-0.515,0.824-1.545,1.133-2.266,1.133V57.656z M502.263,122.34l-5.253-36.668c2.678-3.192,3.914-9.99,3.914-17.201
		c0-14.316-3.296-21.836-11.33-21.836h-8.652v75.705h8.55V89.381l4.429,32.959H502.263z M464.152,46.635v61.183
		c0,2.472-0.309,4.532-1.545,4.532c-1.339,0-1.647-1.648-1.647-4.532V46.635h-8.549v61.183c0,7.726,1.956,15.347,10.196,15.347
		c7.727,0,10.094-6.798,10.094-15.347V46.635H464.152z M432.328,58.068v64.271h8.549V58.068h6.283V46.635h-21.115v11.434H432.328z
		 M411.627,122.34h8.548V46.635h-8.548V122.34z M392.674,57.656c0.515,0,1.648-0.104,2.369,1.03
		c0.824,1.235,0.926,4.635,0.926,10.196c0,5.459-0.102,9.271-1.029,10.609c-0.515,0.824-1.545,1.133-2.266,1.133V57.656z
		 M405.445,122.34l-5.253-36.668c2.679-3.192,3.914-9.99,3.914-17.201c0-14.316-3.296-21.836-11.33-21.836h-8.651v75.705h8.549
		V89.381l4.428,32.959H405.445z M368.881,96.385v11.433c0,1.442-0.103,4.532-1.75,4.532c-1.236,0-1.442-3.09-1.442-4.532V60.746
		c0-1.648,0.104-4.119,1.442-4.119c1.647,0,1.75,3.192,1.75,4.531v11.434h8.344V61.158c0-5.355-1.957-15.347-10.197-15.347
		c-7.725,0-10.094,8.651-10.094,15.347v46.659c0,6.694,2.061,15.347,10.094,15.347c7.828,0,10.197-7.416,10.197-15.347V96.385
		H368.881z M350.65,65.793c0-6.283-0.41-20.188-10.299-19.981c-8.24,0.206-9.579,11.124-9.579,17.716
		c0,5.871,2.369,13.391,4.636,19.467c4.428,10.609,6.798,16.274,6.798,22.66c0,4.841-0.206,7.312-1.751,7.312
		c-2.267,0-2.267-10.608-2.267-12.978l-8.343,1.235c0,6.902-0.206,21.939,10.609,21.939c8.857,0,10.195-10.814,10.195-18.025
		c0-7.621-2.779-14.832-6.487-23.793c-2.987-7.519-5.048-12.875-5.048-17.818c0-4.43,0.207-7.52,1.442-7.52
		c1.648,0,1.648,8.344,1.648,11.021L350.65,65.793z M307.084,122.34h17.098v-11.433h-8.549V90.102h6.18V77.947h-6.18V58.068h8.549
		V46.635h-17.098V122.34z"/>
	<path clip-path="url(#SVGID_6_)" fill="#231F20" d="M498.307,695.337c-1.291,0.928-1.938,2.224-1.938,3.888
		c0,1.109,0.301,2,0.896,2.672c0.599,0.672,1.409,1.275,2.433,1.809c0.405,0.214,0.965,0.447,1.681,0.703
		c0.715,0.257,1.221,0.485,1.52,0.688s0.449,0.486,0.449,0.848c0,0.789-0.587,1.185-1.762,1.185c-0.533,0-1.161-0.177-1.888-0.528
		c-0.725-0.352-1.226-0.629-1.504-0.832c-0.276-0.203-0.501-0.379-0.671-0.528l-2.305,3.872l0.704,0.576
		c0.469,0.363,1.231,0.726,2.288,1.088c1.055,0.362,2.17,0.544,3.344,0.544c5.185,0,7.775-1.867,7.775-5.6
		c0-0.789-0.148-1.493-0.447-2.112s-0.721-1.13-1.265-1.536c-0.543-0.404-1.061-0.725-1.552-0.96
		c-0.491-0.234-1.066-0.447-1.728-0.64c-0.108-0.021-0.262-0.064-0.464-0.128c-0.203-0.064-0.347-0.112-0.433-0.145
		c-0.085-0.031-0.213-0.079-0.384-0.144c-0.172-0.064-0.293-0.112-0.368-0.145c-0.075-0.031-0.175-0.079-0.304-0.144
		c-0.128-0.063-0.219-0.122-0.272-0.176c-0.053-0.053-0.112-0.117-0.177-0.192c-0.062-0.075-0.106-0.154-0.127-0.24
		c-0.021-0.085-0.032-0.171-0.032-0.256c0-0.384,0.133-0.645,0.401-0.783c0.266-0.14,0.719-0.209,1.357-0.209
		c1.153,0,2.37,0.343,3.65,1.024l1.855-3.712l-0.674-0.32c-0.446-0.213-1.13-0.426-2.047-0.64c-0.917-0.213-1.845-0.32-2.785-0.32
		C501.342,693.944,499.598,694.408,498.307,695.337 M482.771,698.776c1.066,0,1.968,0.363,2.704,1.088
		c0.736,0.727,1.104,1.653,1.104,2.784c0,1.109-0.358,2.027-1.071,2.752c-0.715,0.726-1.627,1.088-2.736,1.088
		c-1.152,0-2.08-0.356-2.785-1.071c-0.703-0.715-1.055-1.638-1.055-2.769s0.368-2.058,1.104-2.784
		C480.771,699.14,481.684,698.776,482.771,698.776 M482.803,711.32c2.838,0,5.179-0.815,7.024-2.447
		c1.846-1.633,2.769-3.707,2.769-6.225c0-2.517-0.945-4.597-2.832-6.24c-1.889-1.643-4.208-2.464-6.961-2.464
		c-2.794,0-5.142,0.816-7.039,2.448c-1.899,1.632-2.848,3.717-2.848,6.256s0.911,4.619,2.734,6.24
		C477.476,710.51,479.859,711.32,482.803,711.32 M458.771,694.425v4.319h2.368v6.305c0,0.789,0.085,1.531,0.256,2.224
		c0.17,0.693,0.453,1.355,0.848,1.984c0.394,0.629,0.976,1.131,1.743,1.504c0.77,0.373,1.687,0.56,2.753,0.56
		c1.558,0,2.944-0.342,4.159-1.023l-1.407-4.576l-0.191,0.128c-0.128,0.085-0.311,0.171-0.544,0.256
		c-0.236,0.085-0.459,0.128-0.672,0.128c-0.854,0-1.281-0.757-1.281-2.271v-5.217h3.457v-4.319h-3.457v-6.112h-5.663v6.112H458.771z
		 M443.604,710.841v-9.28c0-0.811,0.346-1.547,1.04-2.208c0.692-0.661,1.466-0.992,2.32-0.992c0.874,0,1.584,0.32,2.128,0.96
		c0.543,0.641,0.815,1.388,0.815,2.24v9.28h5.663v-10.816c0-1.088-0.229-2.043-0.687-2.864c-0.459-0.82-1.057-1.455-1.792-1.903
		c-0.736-0.448-1.504-0.778-2.305-0.992c-0.801-0.213-1.605-0.32-2.416-0.32c-1.664,0-3.231,0.736-4.703,2.208h-0.064v-1.728h-5.664
		v16.416H443.604z M423.188,698.36c0.555-0.491,1.301-0.735,2.24-0.735c0.853,0,1.552,0.229,2.096,0.688
		c0.543,0.459,0.879,1.115,1.008,1.968h-6.24C422.334,699.491,422.633,698.852,423.188,698.36 M434.066,702.648
		c0-2.795-0.814-4.943-2.447-6.448c-1.633-1.504-3.75-2.256-6.352-2.256c-2.475,0-4.598,0.854-6.369,2.561
		c-1.77,1.707-2.655,3.755-2.655,6.144s0.886,4.433,2.655,6.128c1.771,1.696,3.895,2.544,6.369,2.544
		c3.967,0,6.805-1.429,8.512-4.288l-4.096-2.048c-0.684,0.726-1.291,1.211-1.824,1.456s-1.259,0.368-2.176,0.368
		c-0.875,0-1.686-0.277-2.432-0.832c-0.748-0.555-1.12-1.408-1.12-2.56h11.903C434.057,703.289,434.066,703.032,434.066,702.648
		 M390.293,710.841v-9.601c0-0.747,0.218-1.392,0.654-1.936c0.438-0.544,1.094-0.816,1.969-0.816c0.959,0,1.68,0.293,2.16,0.88
		c0.479,0.588,0.721,1.317,0.721,2.192v9.28h5.664v-9.792c0.041-0.704,0.281-1.308,0.72-1.809c0.435-0.501,1.071-0.752,1.903-0.752
		c0.96,0,1.68,0.293,2.16,0.88c0.479,0.588,0.721,1.317,0.721,2.192v9.28h5.664v-10.816c0-2.091-0.631-3.627-1.889-4.607
		c-1.259-0.981-2.763-1.473-4.513-1.473c-1.962,0-3.776,1.003-5.44,3.008c-0.533-1.023-1.322-1.78-2.367-2.271
		s-2.166-0.736-3.36-0.736c-1.664,0-3.232,0.736-4.703,2.208h-0.063v-1.728h-5.664v16.416H390.293z M370.164,698.776
		c1.066,0,1.969,0.363,2.703,1.088c0.736,0.727,1.105,1.653,1.105,2.784c0,1.109-0.358,2.027-1.072,2.752
		c-0.715,0.726-1.627,1.088-2.736,1.088c-1.151,0-2.08-0.356-2.783-1.071c-0.704-0.715-1.057-1.638-1.057-2.769
		s0.368-2.058,1.104-2.784C368.164,699.14,369.076,698.776,370.164,698.776 M369.845,719.641c2.9,0,5.236-0.726,7.007-2.176
		c1.771-1.451,2.657-3.51,2.657-6.176v-16.864h-5.664v1.472h-0.097c-1.407-1.301-3.168-1.952-5.279-1.952
		c-2.368,0-4.32,0.843-5.856,2.528c-1.536,1.685-2.304,3.744-2.304,6.176c0,2.433,0.768,4.486,2.304,6.16
		c1.536,1.675,3.488,2.512,5.856,2.512c2.58,0,4.373-0.555,5.376-1.664v1.217c0,1.301-0.422,2.266-1.265,2.896
		c-0.844,0.629-1.755,0.944-2.735,0.944c-2.112,0-3.595-0.704-4.448-2.112l-4.64,2.272
		C362.121,718.051,365.15,719.641,369.845,719.641 M347.028,698.776c1.066,0,1.968,0.363,2.704,1.088
		c0.736,0.727,1.104,1.653,1.104,2.784c0,1.109-0.357,2.027-1.071,2.752c-0.716,0.726-1.628,1.088-2.736,1.088
		c-1.151,0-2.081-0.356-2.784-1.071c-0.704-0.715-1.056-1.638-1.056-2.769s0.368-2.058,1.104-2.784
		C345.028,699.14,345.94,698.776,347.028,698.776 M345.332,711.32c2.177,0,3.969-0.778,5.377-2.336h0.063v1.856h5.6v-16.416h-5.663
		v1.567c-1.408-1.364-3.2-2.048-5.377-2.048c-2.367,0-4.319,0.843-5.855,2.528c-1.536,1.685-2.304,3.744-2.304,6.176
		c0,2.433,0.768,4.486,2.304,6.16C341.013,710.483,342.965,711.32,345.332,711.32 M327.061,710.841V702.2
		c0-0.17,0.041-0.404,0.128-0.703c0.085-0.3,0.229-0.661,0.431-1.089c0.203-0.427,0.551-0.789,1.041-1.088s1.076-0.447,1.76-0.447
		c1.259,0,2.24,0.299,2.944,0.896l2.368-4.8l-0.449-0.256c-0.276-0.171-0.715-0.341-1.311-0.513
		c-0.598-0.17-1.207-0.256-1.824-0.256c-0.598,0-1.184,0.102-1.76,0.305c-0.576,0.202-1.046,0.432-1.408,0.688
		c-0.363,0.256-0.704,0.544-1.024,0.864c-0.319,0.32-0.527,0.544-0.624,0.672c-0.096,0.128-0.166,0.235-0.207,0.32h-0.064v-2.368
		h-5.664v16.416H327.061z M306.709,694.425v4.319h2.367v12.097h5.664v-12.097h3.776v-4.319h-3.776v-3.328
		c0-1.195,0.117-2.032,0.353-2.512c0.233-0.48,0.704-0.721,1.407-0.721c0.618,0,1.185,0.149,1.696,0.448l1.984-4l-0.544-0.352
		c-0.342-0.256-0.902-0.508-1.681-0.752c-0.778-0.245-1.595-0.368-2.447-0.368c-2.007,0-3.575,0.735-4.704,2.208
		c-1.131,1.472-1.707,3.435-1.729,5.888v3.488H306.709z M282.98,695.337c-1.291,0.928-1.936,2.224-1.936,3.888
		c0,1.109,0.299,2,0.896,2.672s1.408,1.275,2.432,1.809c0.405,0.214,0.966,0.447,1.681,0.703c0.715,0.257,1.221,0.485,1.52,0.688
		s0.447,0.486,0.447,0.848c0,0.789-0.586,1.185-1.759,1.185c-0.533,0-1.163-0.177-1.889-0.528c-0.725-0.352-1.227-0.629-1.505-0.832
		c-0.275-0.203-0.5-0.379-0.671-0.528l-2.304,3.872l0.704,0.576c0.469,0.363,1.231,0.726,2.288,1.088
		c1.056,0.362,2.171,0.544,3.344,0.544c5.184,0,7.775-1.867,7.775-5.6c0-0.789-0.148-1.493-0.447-2.112s-0.721-1.13-1.264-1.536
		c-0.545-0.404-1.062-0.725-1.553-0.96c-0.49-0.234-1.066-0.447-1.728-0.64c-0.107-0.021-0.261-0.064-0.464-0.128
		c-0.203-0.064-0.348-0.112-0.434-0.145c-0.084-0.031-0.213-0.079-0.383-0.144c-0.171-0.064-0.293-0.112-0.368-0.145
		c-0.075-0.031-0.176-0.079-0.304-0.144c-0.128-0.063-0.219-0.122-0.273-0.176c-0.053-0.053-0.11-0.117-0.175-0.192
		c-0.063-0.075-0.106-0.154-0.128-0.24c-0.021-0.085-0.033-0.171-0.033-0.256c0-0.384,0.135-0.645,0.4-0.783
		c0.268-0.14,0.721-0.209,1.361-0.209c1.151,0,2.367,0.343,3.647,1.024l1.856-3.712l-0.672-0.32
		c-0.448-0.213-1.132-0.426-2.049-0.64c-0.917-0.213-1.846-0.32-2.783-0.32C286.016,693.944,284.271,694.408,282.98,695.337
		 M267.444,698.776c1.067,0,1.968,0.363,2.704,1.088c0.736,0.727,1.104,1.653,1.104,2.784c0,1.109-0.356,2.027-1.071,2.752
		c-0.716,0.726-1.628,1.088-2.736,1.088c-1.151,0-2.08-0.356-2.784-1.071c-0.703-0.715-1.057-1.638-1.057-2.769
		s0.369-2.058,1.105-2.784C265.444,699.14,266.356,698.776,267.444,698.776 M267.477,711.32c2.837,0,5.179-0.815,7.023-2.447
		c1.846-1.633,2.769-3.707,2.769-6.225c0-2.517-0.944-4.597-2.833-6.24c-1.887-1.643-4.207-2.464-6.959-2.464
		c-2.795,0-5.141,0.816-7.041,2.448c-1.898,1.632-2.848,3.717-2.848,6.256s0.912,4.619,2.736,6.24S264.533,711.32,267.477,711.32
		 M253.652,683.32h-5.663v27.521h5.663V683.32z M223.158,698.36c0.553-0.491,1.301-0.735,2.239-0.735
		c0.853,0,1.552,0.229,2.097,0.688c0.543,0.459,0.879,1.115,1.008,1.968h-6.24C222.303,699.491,222.602,698.852,223.158,698.36
		 M234.037,702.648c0-2.795-0.815-4.943-2.447-6.448c-1.633-1.504-3.75-2.256-6.354-2.256c-2.474,0-4.597,0.854-6.367,2.561
		c-1.771,1.707-2.656,3.755-2.656,6.144s0.885,4.433,2.656,6.128c1.771,1.696,3.894,2.544,6.367,2.544
		c3.969,0,6.807-1.429,8.514-4.288l-4.098-2.048c-0.682,0.726-1.29,1.211-1.822,1.456c-0.535,0.245-1.26,0.368-2.178,0.368
		c-0.874,0-1.686-0.277-2.431-0.832c-0.747-0.555-1.12-1.408-1.12-2.56h11.904C234.026,703.289,234.037,703.032,234.037,702.648
		 M202.934,698.776c1.066,0,1.968,0.363,2.703,1.088c0.736,0.727,1.105,1.653,1.105,2.784c0,1.109-0.359,2.027-1.072,2.752
		c-0.715,0.726-1.627,1.088-2.736,1.088c-1.152,0-2.08-0.356-2.784-1.071s-1.056-1.638-1.056-2.769s0.367-2.058,1.104-2.784
		C200.934,699.14,201.846,698.776,202.934,698.776 M201.236,711.32c2.178,0,3.969-0.778,5.377-2.336h0.064v1.856h5.6V683.32h-5.664
		v12.672c-1.408-1.364-3.199-2.048-5.377-2.048c-2.367,0-4.318,0.843-5.855,2.528c-1.535,1.685-2.303,3.744-2.303,6.176
		c0,2.433,0.768,4.486,2.303,6.16C196.918,710.483,198.869,711.32,201.236,711.32 M172.693,710.841V702.2
		c0-0.17,0.043-0.404,0.127-0.703c0.086-0.3,0.23-0.661,0.434-1.089c0.203-0.427,0.549-0.789,1.039-1.088
		c0.492-0.299,1.078-0.447,1.76-0.447c1.26,0,2.24,0.299,2.945,0.896l2.367-4.8l-0.447-0.256c-0.277-0.171-0.715-0.341-1.312-0.513
		c-0.598-0.17-1.205-0.256-1.824-0.256c-0.597,0-1.184,0.102-1.76,0.305c-0.576,0.202-1.045,0.432-1.408,0.688
		s-0.703,0.544-1.023,0.864s-0.528,0.544-0.625,0.672c-0.096,0.128-0.164,0.235-0.207,0.32h-0.064v-2.368h-5.664v16.416H172.693z
		 M161.75,710.841h-5.664v-16.416h5.664V710.841z M155.639,687.641c0,0.917,0.33,1.707,0.992,2.368
		c0.66,0.661,1.449,0.992,2.367,0.992s1.707-0.331,2.369-0.992c0.66-0.661,0.991-1.451,0.991-2.368s-0.331-1.707-0.991-2.368
		c-0.662-0.661-1.451-0.992-2.369-0.992s-1.707,0.331-2.367,0.992C155.969,685.934,155.639,686.724,155.639,687.641
		 M140.758,694.425v4.319h2.369v6.305c0,0.789,0.084,1.531,0.256,2.224c0.17,0.693,0.453,1.355,0.848,1.984s0.977,1.131,1.744,1.504
		s1.686,0.56,2.752,0.56c1.557,0,2.943-0.342,4.16-1.023l-1.408-4.576l-0.191,0.128c-0.129,0.085-0.31,0.171-0.545,0.256
		c-0.234,0.085-0.459,0.128-0.672,0.128c-0.854,0-1.279-0.757-1.279-2.271v-5.217h3.455v-4.319h-3.455v-6.112h-5.664v6.112H140.758z
		 M130.615,710.841V702.2c0-0.17,0.043-0.404,0.129-0.703c0.084-0.3,0.229-0.661,0.432-1.089c0.201-0.427,0.549-0.789,1.039-1.088
		s1.078-0.447,1.761-0.447c1.258,0,2.239,0.299,2.944,0.896l2.367-4.8l-0.447-0.256c-0.278-0.171-0.715-0.341-1.312-0.513
		c-0.598-0.17-1.207-0.256-1.824-0.256c-0.598,0-1.184,0.102-1.76,0.305c-0.576,0.202-1.046,0.432-1.408,0.688
		c-0.363,0.256-0.703,0.544-1.023,0.864s-0.529,0.544-0.625,0.672s-0.165,0.235-0.207,0.32h-0.064v-2.368h-5.664v16.416H130.615z
		 M110.486,698.776c1.066,0,1.969,0.363,2.705,1.088c0.736,0.727,1.104,1.653,1.104,2.784c0,1.109-0.357,2.027-1.071,2.752
		c-0.716,0.726-1.627,1.088-2.737,1.088c-1.15,0-2.078-0.356-2.783-1.071c-0.703-0.715-1.056-1.638-1.056-2.769
		s0.368-2.058,1.104-2.784C108.486,699.14,109.398,698.776,110.486,698.776 M108.791,711.32c2.176,0,3.969-0.778,5.377-2.336h0.062
		v1.856h5.602v-16.416h-5.664v1.567c-1.408-1.364-3.201-2.048-5.377-2.048c-2.367,0-4.319,0.843-5.855,2.528
		c-1.537,1.685-2.305,3.744-2.305,6.176c0,2.433,0.768,4.486,2.305,6.16C104.472,710.483,106.424,711.32,108.791,711.32
		 M88.023,706.488c-1.066,0-1.968-0.362-2.705-1.088c-0.734-0.725-1.104-1.652-1.104-2.784c0-1.108,0.357-2.025,1.072-2.752
		c0.715-0.725,1.627-1.088,2.736-1.088c1.152,0,2.08,0.357,2.784,1.072s1.056,1.637,1.056,2.768c0,1.132-0.367,2.06-1.104,2.784
		C90.023,706.126,89.111,706.488,88.023,706.488 M89.719,693.944c-2.176,0-3.967,0.779-5.375,2.336h-0.064v-1.855h-5.6v24.735h5.664
		v-9.888c1.408,1.365,3.199,2.048,5.375,2.048c2.369,0,4.32-0.842,5.857-2.527c1.535-1.686,2.303-3.744,2.303-6.177
		c0-2.432-0.768-4.484-2.303-6.159C94.039,694.781,92.088,693.944,89.719,693.944 M54.199,698.776c1.066,0,1.969,0.363,2.703,1.088
		c0.737,0.727,1.105,1.653,1.105,2.784c0,1.109-0.358,2.027-1.072,2.752c-0.715,0.726-1.627,1.088-2.736,1.088
		c-1.152,0-2.08-0.356-2.783-1.071c-0.705-0.715-1.057-1.638-1.057-2.769s0.368-2.058,1.104-2.784
		C52.199,699.14,53.111,698.776,54.199,698.776 M52.504,711.32c2.176,0,3.968-0.778,5.375-2.336h0.064v1.856h5.6v-16.416h-5.664
		v1.567c-1.407-1.364-3.199-2.048-5.375-2.048c-2.369,0-4.32,0.843-5.856,2.528c-1.536,1.685-2.304,3.744-2.304,6.176
		c0,2.433,0.768,4.486,2.304,6.16C48.184,710.483,50.135,711.32,52.504,711.32"/>
	<path clip-path="url(#SVGID_6_)" fill="#231F20" d="M457.986,645.337c-1.291,0.928-1.936,2.224-1.936,3.888
		c0,1.109,0.299,2,0.896,2.672c0.598,0.672,1.407,1.275,2.433,1.809c0.404,0.214,0.965,0.447,1.68,0.703
		c0.715,0.257,1.221,0.485,1.52,0.688c0.3,0.203,0.448,0.486,0.448,0.848c0,0.789-0.587,1.185-1.761,1.185
		c-0.532,0-1.162-0.176-1.887-0.528c-0.727-0.352-1.229-0.629-1.504-0.832c-0.277-0.203-0.502-0.379-0.674-0.528l-2.303,3.872
		l0.703,0.576c0.469,0.363,1.234,0.726,2.289,1.088c1.056,0.362,2.171,0.544,3.344,0.544c5.184,0,7.776-1.867,7.776-5.6
		c0-0.789-0.149-1.493-0.448-2.112s-0.72-1.13-1.264-1.536c-0.545-0.404-1.062-0.725-1.553-0.96c-0.49-0.234-1.066-0.447-1.729-0.64
		c-0.106-0.021-0.26-0.064-0.463-0.128c-0.203-0.064-0.348-0.112-0.433-0.145c-0.085-0.031-0.213-0.079-0.384-0.144
		c-0.172-0.064-0.293-0.112-0.369-0.144c-0.073-0.032-0.175-0.08-0.303-0.145c-0.128-0.063-0.219-0.122-0.271-0.176
		c-0.054-0.053-0.113-0.117-0.177-0.192s-0.106-0.154-0.128-0.24c-0.021-0.085-0.031-0.171-0.031-0.256
		c0-0.384,0.133-0.645,0.399-0.783s0.72-0.208,1.36-0.208c1.15,0,2.367,0.342,3.647,1.023l1.856-3.712l-0.672-0.32
		c-0.449-0.213-1.131-0.426-2.049-0.64c-0.916-0.213-1.845-0.32-2.783-0.32C461.021,643.944,459.277,644.408,457.986,645.337
		 M441.395,648.36c0.555-0.489,1.301-0.735,2.24-0.735c0.852,0,1.551,0.229,2.096,0.688c0.544,0.459,0.88,1.115,1.008,1.968h-6.24
		C440.541,649.491,440.84,648.852,441.395,648.36 M452.274,652.648c0-2.795-0.815-4.943-2.448-6.448
		c-1.632-1.504-3.749-2.256-6.352-2.256c-2.475,0-4.597,0.854-6.368,2.561c-1.771,1.707-2.656,3.755-2.656,6.144
		c0,2.391,0.886,4.433,2.656,6.128c1.771,1.696,3.894,2.544,6.368,2.544c3.968,0,6.805-1.429,8.512-4.288l-4.096-2.048
		c-0.684,0.727-1.291,1.211-1.824,1.456s-1.259,0.368-2.176,0.368c-0.875,0-1.686-0.277-2.432-0.832
		c-0.747-0.554-1.12-1.408-1.12-2.56h11.903C452.264,653.289,452.274,653.032,452.274,652.648 M418.866,660.841v-9.28
		c0-0.811,0.348-1.547,1.04-2.208c0.693-0.661,1.467-0.992,2.32-0.992c0.875,0,1.584,0.32,2.127,0.96
		c0.545,0.641,0.816,1.388,0.816,2.24v9.28h5.666v-10.816c0-1.088-0.23-2.042-0.689-2.864c-0.459-0.82-1.056-1.455-1.793-1.903
		c-0.735-0.448-1.504-0.778-2.303-0.992c-0.801-0.213-1.605-0.32-2.416-0.32c-1.664,0-3.232,0.736-4.704,2.208h-0.064v-1.728h-5.665
		v16.416H418.866z M399.508,648.776c1.065,0,1.968,0.363,2.704,1.088c0.735,0.727,1.103,1.653,1.103,2.784
		c0,1.11-0.357,2.027-1.071,2.752c-0.715,0.726-1.628,1.088-2.735,1.088c-1.152,0-2.08-0.356-2.784-1.071
		c-0.704-0.714-1.056-1.638-1.056-2.769s0.367-2.058,1.104-2.784C397.508,649.14,398.42,648.776,399.508,648.776 M399.539,661.32
		c2.838,0,5.178-0.815,7.024-2.447c1.845-1.633,2.768-3.707,2.768-6.225c0-2.517-0.944-4.597-2.831-6.24
		c-1.889-1.642-4.209-2.464-6.961-2.464c-2.795,0-5.142,0.816-7.039,2.448c-1.899,1.632-2.85,3.717-2.85,6.256
		s0.913,4.619,2.736,6.24C394.212,660.51,396.596,661.32,399.539,661.32 M385.556,660.841h-5.664v-16.416h5.664V660.841z
		 M379.443,637.641c0,0.917,0.33,1.707,0.992,2.368c0.661,0.661,1.449,0.992,2.367,0.992s1.707-0.331,2.369-0.992
		c0.66-0.661,0.991-1.451,0.991-2.368s-0.331-1.707-0.991-2.368c-0.662-0.661-1.451-0.992-2.369-0.992s-1.706,0.331-2.367,0.992
		C379.773,635.934,379.443,636.724,379.443,637.641 M374.451,649.353l1.92-3.872l-0.544-0.384c-0.384-0.256-1.034-0.512-1.952-0.769
		c-0.918-0.256-1.92-0.384-3.008-0.384c-2.411,0-4.527,0.859-6.352,2.576s-2.736,3.771-2.736,6.16c0,2.368,0.912,4.4,2.736,6.096
		c1.824,1.696,3.94,2.544,6.352,2.544c1.088,0,2.107-0.139,3.057-0.416c0.948-0.276,1.557-0.496,1.823-0.655
		c0.267-0.16,0.476-0.293,0.624-0.4l-1.92-3.936l-0.288,0.191c-0.214,0.128-0.55,0.256-1.008,0.384
		c-0.459,0.128-0.943,0.192-1.456,0.192c-1.066,0-1.983-0.396-2.752-1.184c-0.768-0.789-1.151-1.749-1.151-2.881
		c0-1.108,0.384-2.059,1.151-2.848c0.769-0.789,1.686-1.184,2.752-1.184C372.829,648.585,373.747,648.841,374.451,649.353
		 M348.5,648.776c1.066,0,1.968,0.363,2.703,1.088c0.736,0.727,1.104,1.653,1.104,2.784c0,1.11-0.357,2.027-1.073,2.752
		c-0.715,0.726-1.626,1.088-2.734,1.088c-1.152,0-2.08-0.356-2.784-1.071c-0.704-0.714-1.057-1.638-1.057-2.769
		s0.368-2.058,1.104-2.784C346.5,649.14,347.411,648.776,348.5,648.776 M346.803,661.32c2.177,0,3.969-0.777,5.377-2.336h0.063
		v1.856h5.601v-16.416h-5.664v1.567c-1.408-1.364-3.2-2.048-5.377-2.048c-2.367,0-4.32,0.844-5.855,2.528
		c-1.536,1.685-2.304,3.744-2.304,6.176c0,2.433,0.768,4.485,2.304,6.16C342.482,660.483,344.436,661.32,346.803,661.32
		 M334.549,660.841h-5.664v-16.416h5.664V660.841z M328.436,637.641c0,0.917,0.33,1.707,0.992,2.368
		c0.661,0.661,1.451,0.992,2.368,0.992s1.706-0.331,2.367-0.992s0.992-1.451,0.992-2.368s-0.331-1.707-0.992-2.368
		s-1.45-0.992-2.367-0.992s-1.707,0.331-2.368,0.992C328.766,635.934,328.436,636.724,328.436,637.641 M317.332,660.841V652.2
		c0-0.17,0.043-0.404,0.129-0.703c0.085-0.299,0.229-0.661,0.432-1.089c0.202-0.426,0.549-0.789,1.04-1.088
		c0.49-0.299,1.077-0.447,1.76-0.447c1.258,0,2.24,0.299,2.944,0.896l2.367-4.8l-0.447-0.256c-0.278-0.17-0.715-0.341-1.312-0.513
		c-0.598-0.17-1.207-0.256-1.824-0.256c-0.598,0-1.184,0.102-1.76,0.305c-0.574,0.202-1.046,0.432-1.408,0.688
		s-0.703,0.544-1.023,0.864s-0.529,0.544-0.625,0.672c-0.095,0.128-0.165,0.235-0.207,0.32h-0.064v-2.368h-5.664v16.416H317.332z
		 M297.203,648.776c1.066,0,1.97,0.363,2.705,1.088c0.736,0.727,1.104,1.653,1.104,2.784c0,1.11-0.358,2.027-1.072,2.752
		c-0.715,0.726-1.627,1.088-2.737,1.088c-1.15,0-2.078-0.356-2.783-1.071c-0.703-0.714-1.056-1.638-1.056-2.769
		s0.368-2.058,1.104-2.784C295.203,649.14,296.115,648.776,297.203,648.776 M295.509,661.32c2.176,0,3.968-0.777,5.376-2.336h0.062
		v1.856h5.602v-16.416h-5.664v1.567c-1.408-1.364-3.2-2.048-5.376-2.048c-2.368,0-4.32,0.844-5.856,2.528
		c-1.537,1.685-2.304,3.744-2.304,6.176c0,2.433,0.767,4.485,2.304,6.16C291.188,660.483,293.141,661.32,295.509,661.32
		 M264.756,644.425l8.801,16.416h3.84l8.8-16.416h-6.72l-4,8.928l-4-8.928H264.756z M242.676,648.36
		c0.555-0.489,1.302-0.735,2.24-0.735c0.854,0,1.553,0.229,2.097,0.688s0.88,1.115,1.007,1.968h-6.239
		C241.824,649.491,242.121,648.852,242.676,648.36 M253.557,652.648c0-2.795-0.816-4.943-2.448-6.448
		c-1.632-1.504-3.749-2.256-6.353-2.256c-2.475,0-4.596,0.854-6.367,2.561s-2.656,3.755-2.656,6.144
		c0,2.391,0.885,4.433,2.656,6.128c1.771,1.696,3.893,2.544,6.367,2.544c3.969,0,6.806-1.429,8.513-4.288l-4.097-2.048
		c-0.683,0.727-1.291,1.211-1.823,1.456c-0.534,0.245-1.259,0.368-2.177,0.368c-0.875,0-1.686-0.277-2.432-0.832
		c-0.746-0.554-1.119-1.408-1.119-2.56h11.903C253.545,653.289,253.557,653.032,253.557,652.648 M222.453,648.776
		c1.066,0,1.967,0.363,2.703,1.088c0.736,0.727,1.104,1.653,1.104,2.784c0,1.11-0.358,2.027-1.072,2.752
		c-0.715,0.726-1.627,1.088-2.735,1.088c-1.152,0-2.08-0.356-2.785-1.071c-0.703-0.714-1.056-1.638-1.056-2.769
		s0.368-2.058,1.104-2.784C220.453,649.14,221.364,648.776,222.453,648.776 M220.756,661.32c2.177,0,3.969-0.777,5.377-2.336h0.063
		v1.856h5.601V633.32h-5.664v12.672c-1.408-1.364-3.2-2.048-5.377-2.048c-2.367,0-4.32,0.844-5.855,2.528
		c-1.536,1.685-2.304,3.744-2.304,6.176c0,2.433,0.768,4.485,2.304,6.16C216.436,660.483,218.389,661.32,220.756,661.32
		 M189.301,648.776c1.066,0,1.968,0.363,2.703,1.088c0.736,0.727,1.104,1.653,1.104,2.784c0,1.11-0.356,2.027-1.071,2.752
		c-0.717,0.726-1.627,1.088-2.736,1.088c-1.152,0-2.08-0.356-2.784-1.071c-0.704-0.714-1.056-1.638-1.056-2.769
		s0.367-2.058,1.104-2.784C187.301,649.14,188.213,648.776,189.301,648.776 M187.604,661.32c2.177,0,3.969-0.777,5.377-2.336h0.064
		v1.856h5.6v-16.416h-5.664v1.567c-1.408-1.364-3.2-2.048-5.377-2.048c-2.367,0-4.318,0.844-5.855,2.528
		c-1.535,1.685-2.304,3.744-2.304,6.176c0,2.433,0.769,4.485,2.304,6.16C183.285,660.483,185.236,661.32,187.604,661.32
		 M169.334,660.841V652.2c0-0.17,0.041-0.404,0.127-0.703s0.229-0.661,0.433-1.089c0.202-0.426,0.549-0.789,1.04-1.088
		c0.49-0.299,1.077-0.447,1.76-0.447c1.258,0,2.24,0.299,2.943,0.896l2.369-4.8l-0.448-0.256c-0.278-0.17-0.716-0.341-1.312-0.513
		c-0.599-0.17-1.207-0.256-1.824-0.256c-0.598,0-1.186,0.102-1.76,0.305c-0.576,0.202-1.047,0.432-1.408,0.688
		c-0.363,0.256-0.705,0.544-1.024,0.864s-0.528,0.544-0.624,0.672s-0.166,0.235-0.208,0.32h-0.063v-2.368h-5.664v16.416H169.334z
		 M141.078,644.425v9.184c0,2.731,0.709,4.699,2.127,5.904s3.674,1.808,6.769,1.808c3.093,0,5.349-0.603,6.769-1.808
		c1.418-1.205,2.127-3.173,2.127-5.904v-9.184h-5.664v7.808c0,1.621-0.246,2.773-0.736,3.456c-0.49,0.684-1.322,1.024-2.495,1.024
		c-1.175,0-2.007-0.341-2.496-1.024c-0.491-0.683-0.735-1.835-0.735-3.456v-7.808H141.078z M126.068,644.425v4.319h2.369v6.305
		c0,0.789,0.085,1.531,0.256,2.224c0.171,0.693,0.453,1.355,0.848,1.984s0.977,1.131,1.744,1.504s1.686,0.56,2.752,0.56
		c1.558,0,2.944-0.342,4.16-1.023l-1.408-4.576l-0.191,0.128c-0.129,0.085-0.309,0.171-0.545,0.256
		c-0.234,0.085-0.458,0.128-0.672,0.128c-0.853,0-1.279-0.757-1.279-2.271v-5.217h3.456v-4.319h-3.456v-6.112h-5.664v6.112H126.068z
		 M122.199,660.841h-5.664v-16.416h5.664V660.841z M116.086,637.641c0,0.917,0.33,1.707,0.992,2.368
		c0.661,0.661,1.45,0.992,2.368,0.992c0.917,0,1.706-0.331,2.368-0.992c0.661-0.661,0.992-1.451,0.992-2.368
		s-0.331-1.707-0.992-2.368c-0.662-0.661-1.451-0.992-2.368-0.992c-0.918,0-1.707,0.331-2.368,0.992
		C116.416,635.934,116.086,636.724,116.086,637.641 M104.982,660.841V652.2c0-0.17,0.043-0.404,0.128-0.703s0.229-0.661,0.433-1.089
		c0.203-0.426,0.549-0.789,1.039-1.088c0.492-0.299,1.078-0.447,1.76-0.447c1.26,0,2.24,0.299,2.945,0.896l2.367-4.8l-0.447-0.256
		c-0.277-0.17-0.715-0.341-1.312-0.513c-0.598-0.17-1.205-0.256-1.824-0.256c-0.597,0-1.184,0.102-1.76,0.305
		c-0.576,0.202-1.045,0.432-1.408,0.688s-0.703,0.544-1.023,0.864s-0.529,0.544-0.625,0.672s-0.164,0.235-0.207,0.32h-0.064v-2.368
		h-5.664v16.416H104.982z M93.879,649.353l1.92-3.872l-0.545-0.384c-0.383-0.256-1.035-0.512-1.951-0.769
		c-0.918-0.256-1.92-0.384-3.008-0.384c-2.412,0-4.529,0.859-6.353,2.576s-2.735,3.771-2.735,6.16c0,2.368,0.912,4.4,2.735,6.096
		c1.823,1.696,3.94,2.544,6.353,2.544c1.088,0,2.106-0.139,3.055-0.416c0.949-0.276,1.559-0.496,1.824-0.655
		c0.268-0.16,0.476-0.293,0.625-0.4l-1.92-3.936l-0.289,0.191c-0.213,0.128-0.549,0.256-1.008,0.384s-0.943,0.192-1.455,0.192
		c-1.067,0-1.984-0.396-2.752-1.184c-0.769-0.789-1.152-1.749-1.152-2.881c0-1.108,0.384-2.059,1.152-2.848
		c0.768-0.789,1.685-1.184,2.752-1.184C92.258,648.585,93.174,648.841,93.879,649.353 M67.271,645.337
		c-1.291,0.928-1.936,2.224-1.936,3.888c0,1.109,0.297,2,0.895,2.672s1.409,1.275,2.434,1.809c0.404,0.214,0.965,0.447,1.68,0.703
		c0.714,0.257,1.221,0.485,1.52,0.688s0.448,0.486,0.448,0.848c0,0.789-0.587,1.185-1.761,1.185c-0.533,0-1.162-0.176-1.887-0.528
		c-0.727-0.352-1.229-0.629-1.504-0.832c-0.279-0.203-0.502-0.379-0.674-0.528l-2.303,3.872l0.703,0.576
		c0.47,0.363,1.232,0.726,2.289,1.088c1.055,0.362,2.17,0.544,3.344,0.544c5.184,0,7.775-1.867,7.775-5.6
		c0-0.789-0.149-1.493-0.447-2.112c-0.299-0.619-0.721-1.13-1.264-1.536c-0.545-0.404-1.062-0.725-1.553-0.96
		c-0.49-0.234-1.066-0.447-1.729-0.64c-0.106-0.021-0.262-0.064-0.463-0.128c-0.203-0.064-0.348-0.112-0.432-0.145
		c-0.088-0.031-0.215-0.079-0.385-0.144c-0.172-0.064-0.294-0.112-0.368-0.144c-0.075-0.032-0.176-0.08-0.304-0.145
		c-0.128-0.063-0.219-0.122-0.271-0.176c-0.055-0.053-0.113-0.117-0.178-0.192c-0.062-0.075-0.105-0.154-0.127-0.24
		c-0.021-0.085-0.031-0.171-0.031-0.256c0-0.384,0.133-0.645,0.399-0.783s0.72-0.208,1.36-0.208c1.151,0,2.367,0.342,3.646,1.023
		l1.857-3.712l-0.672-0.32c-0.449-0.213-1.131-0.426-2.049-0.64c-0.918-0.213-1.846-0.32-2.783-0.32
		C70.306,643.944,68.562,644.408,67.271,645.337 M45.527,634.44v26.4h15.104v-5.28h-9.088v-5.312h8.705v-5.28h-8.705v-5.248h9.088
		v-5.28H45.527z"/>
</g>
<line fill="none" stroke="#0046F9" stroke-width="2" x1="24.141" y1="601.42" x2="537.141" y2="601.42"/>
<line fill="none" stroke="#0046F9" stroke-width="2" x1="24.141" y1="750.014" x2="537.141" y2="750.014"/>
<g>
	<defs>
		<rect id="SVGID_135_" width="564" height="1002"/>
	</defs>
	<clipPath id="SVGID_8_">
		<use xlink:href="#SVGID_135_"  overflow="visible"/>
	</clipPath>
	<path clip-path="url(#SVGID_8_)" fill="#231F20" d="M476.604,509.531h48.523v51.296h-48.523V509.531z M371.242,505.834
		c0,4.159,3.697,15.25,15.25,15.25c10.629,0,15.25-11.091,15.25-15.25V404.167c0-4.159-4.621-15.25-15.25-15.25
		s-14.789,8.78-15.25,13.864V505.834z M451.65,491.046c0,7.856-0.923,26.341-9.704,42.515c-8.78,16.638-25.416,30.963-55.454,30.963
		c-30.962,0-46.675-14.325-55.455-30.963c-8.779-16.174-9.703-34.658-9.703-42.515V297.879c0-11.553,0.462-32.349,9.241-49.447
		c8.78-16.637,24.491-30.961,55.917-30.961c31.424,0,47.137,14.324,55.917,30.961c8.78,17.099,9.241,37.895,9.241,49.447v21.258
		h-49.908c0-22.644-0.462-37.432-2.311-46.213c-1.848-8.779-5.545-12.015-12.939-12.015c-6.008,0-10.167,2.772-12.015,8.78
		c-2.312,6.008-3.235,15.25-3.235,28.189v60.538c8.78-5.083,16.174-8.317,24.954-8.317c25.879,0,39.743,13.4,47.138,28.65
		c7.394,15.25,8.316,33.734,8.316,42.979V491.046z"/>
</g>
</svg>
