<?xml version="1.0" encoding="utf-8"?>
<!-- Generator: Adobe Illustrator 16.0.0, SVG Export Plug-In . SVG Version: 6.00 Build 0)  -->
<!DOCTYPE svg PUBLIC "-//W3C//DTD SVG 1.1//EN" "http://www.w3.org/Graphics/SVG/1.1/DTD/svg11.dtd">
<svg version="1.1" id="Layer_1" xmlns="http://www.w3.org/2000/svg" xmlns:xlink="http://www.w3.org/1999/xlink" x="0px" y="0px"
	 width="564px" height="1002px" viewBox="0 0 564 1002" enable-background="new 0 0 564 1002" xml:space="preserve">
<g>
	<defs>
		<rect id="SVGID_91_" width="564" height="1002"/>
	</defs>
	<clipPath id="SVGID_2_">
		<use xlink:href="#SVGID_91_"  overflow="visible"/>
	</clipPath>
	<path clip-path="url(#SVGID_2_)" fill="#231F20" d="M418.286,938.027c-1.372,0.985-2.058,2.362-2.058,4.131
		c0,1.179,0.317,2.125,0.952,2.839s1.496,1.354,2.584,1.921c0.431,0.227,1.025,0.476,1.785,0.748
		c0.759,0.272,1.297,0.516,1.615,0.731c0.317,0.216,0.476,0.516,0.476,0.9c0,0.839-0.624,1.258-1.87,1.258
		c-0.566,0-1.235-0.187-2.006-0.561s-1.304-0.668-1.598-0.884c-0.295-0.215-0.533-0.402-0.714-0.562l-2.448,4.114l0.748,0.612
		c0.498,0.386,1.309,0.771,2.431,1.155c1.122,0.386,2.307,0.578,3.554,0.578c5.508,0,8.262-1.982,8.262-5.95
		c0-0.838-0.159-1.586-0.476-2.243c-0.318-0.657-0.766-1.201-1.344-1.633c-0.578-0.43-1.128-0.77-1.648-1.02
		c-0.522-0.249-1.135-0.476-1.836-0.68c-0.114-0.022-0.278-0.068-0.493-0.137c-0.216-0.067-0.369-0.119-0.459-0.152
		c-0.091-0.034-0.228-0.085-0.408-0.153c-0.182-0.068-0.312-0.119-0.391-0.153c-0.08-0.033-0.188-0.085-0.323-0.152
		c-0.136-0.068-0.233-0.13-0.289-0.188c-0.057-0.056-0.119-0.124-0.188-0.204c-0.067-0.079-0.113-0.164-0.136-0.255
		c-0.022-0.09-0.034-0.181-0.034-0.271c0-0.408,0.142-0.686,0.426-0.833c0.282-0.147,0.765-0.222,1.444-0.222
		c1.225,0,2.517,0.363,3.876,1.088l1.973-3.943l-0.715-0.34c-0.476-0.227-1.201-0.453-2.176-0.681
		c-0.975-0.226-1.961-0.34-2.958-0.34C421.51,936.548,419.657,937.041,418.286,938.027 M400.657,941.24
		c0.589-0.521,1.382-0.782,2.38-0.782c0.906,0,1.648,0.244,2.227,0.731s0.936,1.185,1.071,2.091h-6.63
		C399.75,942.442,400.067,941.762,400.657,941.24 M412.217,945.796c0-2.969-0.867-5.253-2.601-6.851
		c-1.734-1.599-3.984-2.397-6.749-2.397c-2.63,0-4.885,0.907-6.767,2.72c-1.882,1.814-2.821,3.99-2.821,6.528
		c0,2.539,0.939,4.709,2.821,6.511c1.882,1.803,4.137,2.703,6.767,2.703c4.216,0,7.229-1.518,9.044-4.556l-4.353-2.176
		c-0.726,0.771-1.372,1.287-1.938,1.547c-0.567,0.261-1.338,0.391-2.312,0.391c-0.93,0-1.791-0.294-2.584-0.884
		c-0.794-0.589-1.189-1.496-1.189-2.72h12.647C412.205,946.476,412.217,946.204,412.217,945.796 M378.251,937.058v4.591h2.516v6.697
		c0,0.839,0.091,1.627,0.272,2.363c0.181,0.737,0.48,1.44,0.901,2.108c0.419,0.669,1.036,1.201,1.853,1.598
		c0.816,0.396,1.79,0.595,2.924,0.595c1.654,0,3.128-0.362,4.42-1.088l-1.496-4.862l-0.204,0.137
		c-0.136,0.091-0.328,0.182-0.577,0.271c-0.25,0.091-0.488,0.136-0.715,0.136c-0.906,0-1.359-0.804-1.359-2.413v-5.542h3.672v-4.591
		h-3.672v-6.493h-6.019v6.493H378.251z M362.135,954.5v-9.86c0-0.86,0.368-1.643,1.105-2.346c0.735-0.702,1.558-1.054,2.465-1.054
		c0.929,0,1.683,0.34,2.261,1.02c0.578,0.681,0.867,1.475,0.867,2.38v9.86h6.018v-11.492c0-1.156-0.243-2.17-0.73-3.043
		c-0.488-0.872-1.122-1.547-1.904-2.022c-0.782-0.477-1.598-0.827-2.448-1.055c-0.85-0.226-1.706-0.34-2.566-0.34
		c-1.769,0-3.435,0.782-4.998,2.346h-0.068v-1.836h-6.018V954.5H362.135z M340.443,941.24c0.589-0.521,1.383-0.782,2.38-0.782
		c0.907,0,1.648,0.244,2.227,0.731s0.936,1.185,1.071,2.091h-6.63C339.536,942.442,339.854,941.762,340.443,941.24 M352.003,945.796
		c0-2.969-0.867-5.253-2.601-6.851c-1.734-1.599-3.984-2.397-6.749-2.397c-2.629,0-4.886,0.907-6.767,2.72
		c-1.881,1.814-2.821,3.99-2.821,6.528c0,2.539,0.94,4.709,2.821,6.511c1.881,1.803,4.138,2.703,6.767,2.703
		c4.216,0,7.23-1.518,9.044-4.556l-4.353-2.176c-0.725,0.771-1.371,1.287-1.938,1.547c-0.567,0.261-1.337,0.391-2.312,0.391
		c-0.929,0-1.791-0.294-2.584-0.884c-0.793-0.589-1.189-1.496-1.189-2.72h12.647C351.992,946.476,352.003,946.204,352.003,945.796
		 M310.32,937.058v9.759c0,2.901,0.753,4.992,2.261,6.272c1.507,1.281,3.904,1.921,7.19,1.921s5.684-0.64,7.191-1.921
		c1.507-1.28,2.261-3.371,2.261-6.272v-9.759h-6.018v8.296c0,1.724-0.261,2.947-0.782,3.673s-1.406,1.088-2.652,1.088
		s-2.131-0.362-2.651-1.088c-0.522-0.726-0.782-1.949-0.782-3.673v-8.296H310.32z M295.054,937.058v4.591h2.517V954.5h6.018v-12.852
		h4.012v-4.591h-4.012v-3.535c0-1.27,0.124-2.159,0.374-2.67c0.249-0.51,0.748-0.765,1.496-0.765c0.657,0,1.258,0.159,1.802,0.477
		l2.108-4.25l-0.578-0.374c-0.363-0.272-0.958-0.538-1.785-0.8c-0.828-0.26-1.695-0.391-2.601-0.391
		c-2.131,0-3.797,0.782-4.998,2.346c-1.202,1.564-1.814,3.65-1.836,6.256v3.706H295.054z M269.843,938.027
		c-1.372,0.985-2.057,2.362-2.057,4.131c0,1.179,0.317,2.125,0.952,2.839c0.634,0.714,1.496,1.354,2.584,1.921
		c0.43,0.227,1.025,0.476,1.785,0.748c0.76,0.272,1.297,0.516,1.616,0.731c0.317,0.216,0.476,0.516,0.476,0.9
		c0,0.839-0.624,1.258-1.87,1.258c-0.567,0-1.236-0.187-2.006-0.561c-0.771-0.374-1.304-0.668-1.598-0.884
		c-0.294-0.215-0.533-0.402-0.714-0.562l-2.448,4.114l0.748,0.612c0.498,0.386,1.309,0.771,2.431,1.155
		c1.122,0.386,2.306,0.578,3.553,0.578c5.508,0,8.262-1.982,8.262-5.95c0-0.838-0.159-1.586-0.476-2.243
		c-0.318-0.657-0.766-1.201-1.343-1.633c-0.578-0.43-1.128-0.77-1.649-1.02c-0.522-0.249-1.134-0.476-1.836-0.68
		c-0.114-0.022-0.278-0.068-0.493-0.137c-0.216-0.067-0.369-0.119-0.459-0.152c-0.091-0.034-0.227-0.085-0.408-0.153
		c-0.182-0.068-0.312-0.119-0.391-0.153c-0.08-0.033-0.187-0.085-0.323-0.152c-0.136-0.068-0.233-0.13-0.289-0.188
		c-0.057-0.056-0.119-0.124-0.187-0.204c-0.068-0.079-0.114-0.164-0.136-0.255c-0.023-0.09-0.034-0.181-0.034-0.271
		c0-0.408,0.141-0.686,0.425-0.833c0.283-0.147,0.765-0.222,1.445-0.222c1.224,0,2.516,0.363,3.876,1.088l1.972-3.943l-0.714-0.34
		c-0.476-0.227-1.202-0.453-2.176-0.681c-0.975-0.226-1.961-0.34-2.958-0.34C273.066,936.548,271.214,937.041,269.843,938.027
		 M252.588,941.682c1.133,0,2.091,0.387,2.873,1.156c0.782,0.771,1.173,1.757,1.173,2.958c0,1.179-0.38,2.154-1.139,2.924
		c-0.76,0.771-1.729,1.156-2.907,1.156c-1.224,0-2.21-0.379-2.958-1.139s-1.122-1.739-1.122-2.941c0-1.201,0.391-2.187,1.173-2.958
		C250.463,942.068,251.432,941.682,252.588,941.682 M250.786,955.01c2.312,0,4.216-0.827,5.712-2.481h0.068v1.972h5.95v-17.442
		h-6.018v1.666c-1.496-1.449-3.4-2.176-5.712-2.176c-2.516,0-4.59,0.896-6.222,2.687c-1.633,1.791-2.448,3.978-2.448,6.562
		s0.815,4.766,2.448,6.545C246.196,954.121,248.27,955.01,250.786,955.01 M237.934,925.26h-6.018v29.24h6.018V925.26z
		 M205.532,941.24c0.59-0.521,1.383-0.782,2.38-0.782c0.907,0,1.649,0.244,2.227,0.731c0.578,0.487,0.935,1.185,1.071,2.091h-6.63
		C204.626,942.442,204.943,941.762,205.532,941.24 M217.092,945.796c0-2.969-0.867-5.253-2.601-6.851
		c-1.734-1.599-3.983-2.397-6.749-2.397c-2.629,0-4.884,0.907-6.766,2.72c-1.881,1.814-2.822,3.99-2.822,6.528
		c0,2.539,0.941,4.709,2.822,6.511c1.882,1.803,4.137,2.703,6.766,2.703c4.216,0,7.231-1.518,9.044-4.556l-4.353-2.176
		c-0.725,0.771-1.371,1.287-1.938,1.547c-0.566,0.261-1.337,0.391-2.312,0.391c-0.929,0-1.79-0.294-2.583-0.884
		c-0.793-0.589-1.19-1.496-1.19-2.72h12.647C217.081,946.476,217.092,946.204,217.092,945.796 M184.044,941.682
		c1.134,0,2.091,0.387,2.873,1.156c0.782,0.771,1.173,1.757,1.173,2.958c0,1.179-0.379,2.154-1.139,2.924
		c-0.759,0.771-1.728,1.156-2.907,1.156c-1.224,0-2.21-0.379-2.958-1.139s-1.122-1.739-1.122-2.941c0-1.201,0.391-2.187,1.173-2.958
		C181.919,942.068,182.888,941.682,184.044,941.682 M182.242,955.01c2.312,0,4.216-0.827,5.712-2.481h0.068v1.972h5.95v-29.24
		h-6.018v13.464c-1.496-1.449-3.4-2.176-5.712-2.176c-2.516,0-4.59,0.896-6.222,2.687c-1.632,1.791-2.448,3.978-2.448,6.562
		s0.816,4.766,2.448,6.545C177.652,954.121,179.726,955.01,182.242,955.01 M148.821,941.682c1.133,0,2.091,0.387,2.873,1.156
		c0.782,0.771,1.173,1.757,1.173,2.958c0,1.179-0.38,2.154-1.139,2.924c-0.76,0.771-1.729,1.156-2.907,1.156
		c-1.224,0-2.21-0.379-2.958-1.139c-0.748-0.76-1.122-1.739-1.122-2.941c0-1.201,0.391-2.187,1.173-2.958
		C146.696,942.068,147.665,941.682,148.821,941.682 M147.019,955.01c2.312,0,4.216-0.827,5.712-2.481h0.068v1.972h5.95v-17.442
		h-6.018v1.666c-1.496-1.449-3.4-2.176-5.712-2.176c-2.516,0-4.59,0.896-6.222,2.687c-1.632,1.791-2.448,3.978-2.448,6.562
		s0.816,4.766,2.448,6.545C142.429,954.121,144.503,955.01,147.019,955.01 M133.928,942.294l2.04-4.114l-0.578-0.407
		c-0.408-0.272-1.099-0.545-2.074-0.816c-0.974-0.272-2.04-0.408-3.196-0.408c-2.561,0-4.811,0.913-6.749,2.737
		c-1.938,1.825-2.907,4.007-2.907,6.545c0,2.516,0.969,4.675,2.907,6.477c1.938,1.803,4.188,2.703,6.749,2.703
		c1.156,0,2.239-0.147,3.247-0.441c1.009-0.294,1.655-0.527,1.938-0.697c0.284-0.17,0.505-0.312,0.663-0.425l-2.04-4.183
		l-0.306,0.204c-0.226,0.136-0.583,0.272-1.071,0.408c-0.487,0.136-1.003,0.204-1.547,0.204c-1.133,0-2.108-0.419-2.924-1.258
		c-0.816-0.838-1.224-1.858-1.224-3.061c0-1.178,0.408-2.187,1.224-3.025c0.816-0.838,1.791-1.259,2.924-1.259
		C132.206,941.478,133.18,941.75,133.928,942.294 M109.653,954.5v-9.18c0-0.182,0.045-0.431,0.136-0.748
		c0.09-0.317,0.243-0.702,0.459-1.156c0.215-0.453,0.583-0.838,1.105-1.156c0.521-0.316,1.144-0.476,1.87-0.476
		c1.337,0,2.38,0.317,3.128,0.952l2.516-5.101l-0.476-0.271c-0.295-0.182-0.76-0.362-1.394-0.544
		c-0.635-0.182-1.281-0.272-1.938-0.272c-0.635,0-1.258,0.108-1.87,0.323c-0.612,0.216-1.111,0.459-1.496,0.73
		c-0.386,0.272-0.748,0.578-1.088,0.918c-0.34,0.341-0.561,0.578-0.663,0.715c-0.102,0.136-0.176,0.25-0.221,0.34h-0.068v-2.517
		h-6.018V954.5H109.653z M87.961,941.24c0.589-0.521,1.382-0.782,2.38-0.782c0.906,0,1.649,0.244,2.227,0.731
		c0.578,0.487,0.935,1.185,1.071,2.091h-6.63C87.054,942.442,87.371,941.762,87.961,941.24 M99.521,945.796
		c0-2.969-0.867-5.253-2.601-6.851c-1.734-1.599-3.984-2.397-6.749-2.397c-2.63,0-4.885,0.907-6.766,2.72
		c-1.882,1.814-2.822,3.99-2.822,6.528c0,2.539,0.939,4.709,2.822,6.511c1.881,1.803,4.136,2.703,6.766,2.703
		c4.216,0,7.23-1.518,9.044-4.556l-4.352-2.176c-0.726,0.771-1.372,1.287-1.938,1.547c-0.567,0.261-1.338,0.391-2.312,0.391
		c-0.93,0-1.791-0.294-2.584-0.884c-0.794-0.589-1.19-1.496-1.19-2.72h12.648C99.509,946.476,99.521,946.204,99.521,945.796
		 M75.993,942.294l2.04-4.114l-0.578-0.407c-0.408-0.272-1.1-0.545-2.074-0.816c-0.975-0.272-2.04-0.408-3.196-0.408
		c-2.562,0-4.811,0.913-6.749,2.737c-1.938,1.825-2.907,4.007-2.907,6.545c0,2.516,0.969,4.675,2.907,6.477
		c1.938,1.803,4.187,2.703,6.749,2.703c1.156,0,2.238-0.147,3.247-0.441c1.008-0.294,1.654-0.527,1.938-0.697
		c0.283-0.17,0.504-0.312,0.663-0.425l-2.04-4.183l-0.306,0.204c-0.227,0.136-0.584,0.272-1.071,0.408
		c-0.488,0.136-1.003,0.204-1.547,0.204c-1.134,0-2.108-0.419-2.924-1.258c-0.816-0.838-1.224-1.858-1.224-3.061
		c0-1.178,0.408-2.187,1.224-3.025c0.816-0.838,1.79-1.259,2.924-1.259C74.27,941.478,75.245,941.75,75.993,942.294 M48.419,941.682
		c1.133,0,2.091,0.387,2.873,1.156c0.782,0.771,1.173,1.757,1.173,2.958c0,1.179-0.38,2.154-1.139,2.924
		c-0.76,0.771-1.729,1.156-2.907,1.156c-1.224,0-2.21-0.379-2.958-1.139s-1.122-1.739-1.122-2.941c0-1.201,0.391-2.187,1.173-2.958
		C46.294,942.068,47.263,941.682,48.419,941.682 M46.617,955.01c2.312,0,4.216-0.827,5.712-2.481h0.068v1.972h5.95v-17.442h-6.018
		v1.666c-1.496-1.449-3.4-2.176-5.712-2.176c-2.516,0-4.59,0.896-6.222,2.687c-1.632,1.791-2.448,3.978-2.448,6.562
		s0.816,4.766,2.448,6.545C42.027,954.121,44.101,955.01,46.617,955.01"/>
	<path clip-path="url(#SVGID_2_)" fill="#231F20" d="M510.95,904.5v-9.86c0-0.86,0.368-1.643,1.104-2.346
		c0.737-0.702,1.559-1.054,2.465-1.054c0.93,0,1.684,0.34,2.262,1.02c0.578,0.681,0.867,1.475,0.867,2.38v9.86h6.018v-11.492
		c0-1.156-0.244-2.17-0.731-3.043c-0.486-0.872-1.122-1.547-1.903-2.022c-0.782-0.477-1.599-0.827-2.448-1.055
		c-0.85-0.226-1.706-0.34-2.567-0.34c-1.768,0-3.434,0.782-4.998,2.346h-0.067v-1.836h-6.019V904.5H510.95z M490.38,899.876
		c1.179,0,2.148-0.385,2.907-1.156c0.76-0.77,1.139-1.745,1.139-2.924c0-1.201-0.391-2.187-1.173-2.958
		c-0.782-0.77-1.739-1.156-2.873-1.156c-1.156,0-2.125,0.387-2.907,1.156c-0.781,0.771-1.173,1.757-1.173,2.958
		c0,1.202,0.374,2.182,1.122,2.941S489.156,899.876,490.38,899.876 M490.414,886.548c2.924,0,5.389,0.873,7.395,2.618
		c2.007,1.746,3.01,3.956,3.01,6.63c0,2.675-0.98,4.879-2.941,6.613c-1.96,1.733-4.448,2.601-7.463,2.601
		c-3.128,0-5.661-0.86-7.599-2.584c-1.938-1.722-2.907-3.932-2.907-6.63c0-2.697,1.009-4.913,3.025-6.646
		C484.952,887.415,487.445,886.548,490.414,886.548 M488.918,884.542l8.092-4.692l-3.094-3.909l-6.902,5.983L488.918,884.542z
		 M475.557,904.5h-6.018v-17.442h6.018V904.5z M469.062,879.85c0,0.976,0.352,1.814,1.055,2.517
		c0.702,0.703,1.541,1.054,2.516,1.054s1.813-0.351,2.517-1.054c0.701-0.702,1.054-1.541,1.054-2.517
		c0-0.974-0.353-1.812-1.054-2.516c-0.703-0.702-1.542-1.054-2.517-1.054s-1.813,0.352-2.516,1.054
		C469.414,878.037,469.062,878.876,469.062,879.85 M463.759,892.294l2.04-4.114l-0.578-0.407c-0.408-0.272-1.1-0.545-2.074-0.816
		c-0.975-0.272-2.039-0.408-3.195-0.408c-2.562,0-4.812,0.913-6.749,2.737c-1.938,1.825-2.907,4.007-2.907,6.545
		c0,2.516,0.969,4.675,2.907,6.477c1.938,1.803,4.187,2.703,6.749,2.703c1.156,0,2.238-0.147,3.247-0.441
		c1.008-0.294,1.653-0.527,1.938-0.697c0.283-0.17,0.504-0.312,0.663-0.425l-2.04-4.183l-0.306,0.204
		c-0.228,0.136-0.584,0.272-1.071,0.408c-0.488,0.136-1.003,0.204-1.547,0.204c-1.134,0-2.108-0.419-2.924-1.258
		c-0.816-0.838-1.225-1.858-1.225-3.061c0-1.178,0.408-2.187,1.225-3.025c0.815-0.838,1.79-1.259,2.924-1.259
		C462.036,891.478,463.011,891.75,463.759,892.294 M436.185,891.682c1.134,0,2.092,0.387,2.873,1.156
		c0.782,0.771,1.174,1.757,1.174,2.958c0,1.179-0.381,2.154-1.14,2.924c-0.76,0.771-1.729,1.156-2.907,1.156
		c-1.224,0-2.21-0.379-2.958-1.139s-1.121-1.739-1.121-2.941c0-1.201,0.391-2.187,1.173-2.958
		C434.06,892.068,435.029,891.682,436.185,891.682 M434.383,905.01c2.312,0,4.216-0.827,5.712-2.481h0.068v1.972h5.95v-17.442
		h-6.019v1.666c-1.496-1.449-3.399-2.176-5.712-2.176c-2.516,0-4.59,0.896-6.222,2.687c-1.632,1.791-2.448,3.978-2.448,6.562
		s0.816,4.766,2.448,6.545C429.793,904.121,431.867,905.01,434.383,905.01 M398.14,904.5v-10.2c0-0.793,0.232-1.479,0.697-2.057
		c0.464-0.578,1.161-0.867,2.091-0.867c1.021,0,1.785,0.312,2.294,0.935c0.511,0.624,0.767,1.4,0.767,2.329v9.86h6.018v-10.404
		c0.045-0.748,0.3-1.388,0.766-1.921c0.464-0.532,1.139-0.799,2.022-0.799c1.019,0,1.785,0.312,2.295,0.935
		c0.51,0.624,0.765,1.4,0.765,2.329v9.86h6.019v-11.492c0-2.221-0.669-3.853-2.007-4.896c-1.337-1.042-2.936-1.564-4.794-1.564
		c-2.085,0-4.012,1.066-5.779,3.196c-0.567-1.088-1.406-1.893-2.516-2.414c-1.111-0.521-2.302-0.782-3.57-0.782
		c-1.769,0-3.435,0.782-4.998,2.346h-0.068v-1.836h-6.018V904.5H398.14z M379.848,904.5v-9.18c0-0.182,0.045-0.431,0.137-0.748
		c0.09-0.317,0.242-0.702,0.459-1.156c0.215-0.453,0.583-0.838,1.104-1.156c0.521-0.316,1.145-0.476,1.87-0.476
		c1.337,0,2.38,0.317,3.128,0.952l2.516-5.101l-0.476-0.271c-0.295-0.182-0.76-0.362-1.394-0.544
		c-0.636-0.182-1.281-0.272-1.938-0.272c-0.635,0-1.258,0.108-1.87,0.323c-0.612,0.216-1.11,0.459-1.496,0.73
		c-0.386,0.272-0.748,0.578-1.088,0.918c-0.34,0.341-0.561,0.578-0.663,0.715c-0.102,0.136-0.176,0.25-0.221,0.34h-0.068v-2.517
		h-6.018V904.5H379.848z M359.278,891.682c1.133,0,2.091,0.387,2.873,1.156c0.781,0.771,1.173,1.757,1.173,2.958
		c0,1.179-0.38,2.154-1.14,2.924c-0.76,0.771-1.729,1.156-2.906,1.156c-1.225,0-2.21-0.379-2.958-1.139s-1.122-1.739-1.122-2.941
		c0-1.201,0.391-2.187,1.173-2.958C357.153,892.068,358.122,891.682,359.278,891.682 M359.312,905.01
		c3.015,0,5.503-0.867,7.464-2.601c1.96-1.734,2.94-3.938,2.94-6.613c0-2.674-1.003-4.884-3.009-6.63
		c-2.006-1.745-4.471-2.618-7.396-2.618c-2.97,0-5.463,0.867-7.479,2.602c-2.018,1.733-3.026,3.949-3.026,6.646
		c0,2.698,0.97,4.908,2.907,6.63C353.651,904.149,356.184,905.01,359.312,905.01 M334.458,887.058v4.591h2.516V904.5h6.019v-12.852
		h4.012v-4.591h-4.012v-3.535c0-1.27,0.124-2.159,0.374-2.67c0.249-0.51,0.748-0.765,1.496-0.765c0.656,0,1.258,0.159,1.802,0.477
		l2.107-4.25l-0.577-0.374c-0.363-0.272-0.958-0.538-1.785-0.8c-0.828-0.26-1.695-0.391-2.602-0.391
		c-2.131,0-3.797,0.782-4.998,2.346c-1.201,1.564-1.813,3.65-1.836,6.256v3.706H334.458z M318.138,904.5v-9.86
		c0-0.86,0.368-1.643,1.105-2.346c0.737-0.702,1.558-1.054,2.465-1.054c0.929,0,1.683,0.34,2.261,1.02
		c0.578,0.681,0.867,1.475,0.867,2.38v9.86h6.018v-11.492c0-1.156-0.243-2.17-0.73-3.043c-0.487-0.872-1.122-1.547-1.904-2.022
		c-0.782-0.477-1.598-0.827-2.447-1.055c-0.851-0.226-1.706-0.34-2.567-0.34c-1.769,0-3.435,0.782-4.998,2.346h-0.068v-1.836h-6.018
		V904.5H318.138z M306.511,904.5h-6.018v-17.442h6.018V904.5z M300.017,879.85c0,0.976,0.352,1.814,1.055,2.517
		c0.702,0.703,1.541,1.054,2.516,1.054c0.974,0,1.813-0.351,2.516-1.054c0.702-0.702,1.055-1.541,1.055-2.517
		c0-0.974-0.353-1.812-1.055-2.516c-0.702-0.702-1.542-1.054-2.516-1.054c-0.975,0-1.813,0.352-2.516,1.054
		C300.368,878.037,300.017,878.876,300.017,879.85 M274.108,891.24c0.59-0.521,1.383-0.782,2.38-0.782
		c0.906,0,1.649,0.244,2.227,0.731c0.578,0.487,0.935,1.185,1.071,2.091h-6.63C273.202,892.442,273.519,891.762,274.108,891.24
		 M285.669,895.796c0-2.969-0.867-5.253-2.601-6.851c-1.734-1.599-3.984-2.397-6.75-2.397c-2.629,0-4.885,0.907-6.766,2.72
		c-1.882,1.814-2.821,3.99-2.821,6.528c0,2.539,0.939,4.709,2.821,6.511c1.881,1.803,4.137,2.703,6.766,2.703
		c4.216,0,7.23-1.518,9.044-4.556l-4.353-2.176c-0.726,0.771-1.372,1.287-1.938,1.547c-0.567,0.261-1.338,0.391-2.312,0.391
		c-0.93,0-1.791-0.294-2.584-0.884c-0.794-0.589-1.19-1.496-1.19-2.72h12.648C285.657,896.476,285.669,896.204,285.669,895.796
		 M241.283,888.027c-1.372,0.985-2.058,2.362-2.058,4.131c0,1.179,0.317,2.125,0.953,2.839c0.634,0.714,1.496,1.354,2.584,1.921
		c0.43,0.227,1.025,0.476,1.785,0.748c0.759,0.272,1.297,0.516,1.615,0.731c0.317,0.216,0.476,0.516,0.476,0.9
		c0,0.839-0.624,1.258-1.87,1.258c-0.567,0-1.236-0.187-2.006-0.561c-0.771-0.374-1.304-0.668-1.598-0.884
		c-0.295-0.215-0.533-0.402-0.714-0.562l-2.448,4.114l0.748,0.612c0.498,0.386,1.309,0.771,2.431,1.155
		c1.122,0.386,2.306,0.578,3.553,0.578c5.508,0,8.262-1.982,8.262-5.95c0-0.838-0.159-1.586-0.476-2.243
		c-0.318-0.657-0.765-1.201-1.343-1.633c-0.578-0.43-1.128-0.77-1.649-1.02c-0.522-0.249-1.134-0.476-1.836-0.68
		c-0.114-0.022-0.278-0.068-0.493-0.137c-0.217-0.067-0.369-0.119-0.459-0.152c-0.092-0.034-0.227-0.085-0.408-0.153
		c-0.182-0.068-0.312-0.119-0.392-0.153c-0.08-0.033-0.187-0.085-0.322-0.152c-0.136-0.068-0.233-0.13-0.289-0.188
		c-0.057-0.056-0.119-0.124-0.188-0.204c-0.067-0.079-0.114-0.164-0.136-0.255c-0.023-0.09-0.034-0.181-0.034-0.271
		c0-0.408,0.141-0.686,0.425-0.833c0.283-0.147,0.765-0.222,1.444-0.222c1.224,0,2.516,0.363,3.876,1.088l1.972-3.943l-0.714-0.34
		c-0.476-0.227-1.202-0.453-2.176-0.681c-0.975-0.226-1.961-0.34-2.958-0.34C244.507,886.548,242.654,887.041,241.283,888.027
		 M224.776,891.682c1.133,0,2.091,0.387,2.873,1.156c0.783,0.771,1.173,1.757,1.173,2.958c0,1.179-0.38,2.154-1.139,2.924
		c-0.76,0.771-1.729,1.156-2.907,1.156c-1.224,0-2.21-0.379-2.958-1.139s-1.122-1.739-1.122-2.941c0-1.201,0.391-2.187,1.173-2.958
		C222.65,892.068,223.62,891.682,224.776,891.682 M224.81,905.01c3.014,0,5.502-0.867,7.462-2.601
		c1.96-1.734,2.941-3.938,2.941-6.613c0-2.674-1.003-4.884-3.009-6.63c-2.006-1.745-4.471-2.618-7.395-2.618
		c-2.97,0-5.463,0.867-7.48,2.602c-2.018,1.733-3.026,3.949-3.026,6.646c0,2.698,0.968,4.908,2.907,6.63
		C219.148,904.149,221.682,905.01,224.81,905.01 M199.276,887.058v4.591h2.516v6.697c0,0.839,0.09,1.627,0.272,2.363
		c0.181,0.737,0.481,1.44,0.901,2.108c0.419,0.669,1.037,1.201,1.853,1.598c0.816,0.396,1.79,0.595,2.924,0.595
		c1.654,0,3.128-0.362,4.42-1.088l-1.496-4.862l-0.204,0.137c-0.136,0.091-0.329,0.182-0.578,0.271
		c-0.25,0.091-0.488,0.136-0.714,0.136c-0.907,0-1.36-0.804-1.36-2.413v-5.542h3.672v-4.591h-3.672v-6.493h-6.018v6.493H199.276z
		 M183.16,904.5v-9.86c0-0.86,0.368-1.643,1.105-2.346c0.736-0.702,1.558-1.054,2.465-1.054c0.929,0,1.683,0.34,2.261,1.02
		c0.578,0.681,0.867,1.475,0.867,2.38v9.86h6.018v-11.492c0-1.156-0.244-2.17-0.731-3.043c-0.488-0.872-1.123-1.547-1.904-2.022
		c-0.782-0.477-1.598-0.827-2.448-1.055c-0.85-0.226-1.706-0.34-2.567-0.34c-1.768,0-3.434,0.782-4.998,2.346h-0.068v-1.836h-6.018
		V904.5H183.16z M161.468,891.24c0.589-0.521,1.382-0.782,2.38-0.782c0.906,0,1.649,0.244,2.228,0.731
		c0.578,0.487,0.935,1.185,1.071,2.091h-6.63C160.561,892.442,160.878,891.762,161.468,891.24 M173.028,895.796
		c0-2.969-0.867-5.253-2.601-6.851c-1.734-1.599-3.984-2.397-6.749-2.397c-2.63,0-4.885,0.907-6.766,2.72
		c-1.882,1.814-2.822,3.99-2.822,6.528c0,2.539,0.94,4.709,2.822,6.511c1.881,1.803,4.136,2.703,6.766,2.703
		c4.216,0,7.23-1.518,9.044-4.556l-4.352-2.176c-0.726,0.771-1.372,1.287-1.938,1.547c-0.567,0.261-1.338,0.391-2.312,0.391
		c-0.93,0-1.791-0.294-2.584-0.884c-0.794-0.589-1.19-1.496-1.19-2.72h12.648C173.016,896.476,173.028,896.204,173.028,895.796
		 M126.517,904.5v-10.2c0-0.793,0.232-1.479,0.697-2.057c0.464-0.578,1.161-0.867,2.091-0.867c1.02,0,1.785,0.312,2.295,0.935
		c0.51,0.624,0.765,1.4,0.765,2.329v9.86h6.018v-10.404c0.045-0.748,0.3-1.388,0.765-1.921c0.464-0.532,1.139-0.799,2.023-0.799
		c1.02,0,1.785,0.312,2.295,0.935c0.51,0.624,0.765,1.4,0.765,2.329v9.86h6.018v-11.492c0-2.221-0.669-3.853-2.006-4.896
		c-1.338-1.042-2.936-1.564-4.794-1.564c-2.086,0-4.012,1.066-5.78,3.196c-0.567-1.088-1.406-1.893-2.516-2.414
		c-1.111-0.521-2.301-0.782-3.57-0.782c-1.769,0-3.434,0.782-4.998,2.346h-0.068v-1.836h-6.018V904.5H126.517z M105.131,891.682
		c1.133,0,2.091,0.387,2.873,1.156c0.782,0.771,1.173,1.757,1.173,2.958c0,1.179-0.38,2.154-1.139,2.924
		c-0.76,0.771-1.729,1.156-2.907,1.156c-1.224,0-2.21-0.379-2.958-1.139s-1.122-1.739-1.122-2.941c0-1.201,0.391-2.187,1.173-2.958
		C103.006,892.068,103.975,891.682,105.131,891.682 M104.791,913.85c3.082,0,5.564-0.771,7.446-2.312
		c1.881-1.542,2.822-3.729,2.822-6.562v-17.918h-6.018v1.564h-0.102c-1.496-1.382-3.366-2.074-5.61-2.074
		c-2.516,0-4.59,0.896-6.222,2.687c-1.632,1.791-2.448,3.978-2.448,6.562s0.816,4.766,2.448,6.545
		c1.632,1.78,3.706,2.669,6.222,2.669c2.742,0,4.646-0.589,5.712-1.768v1.292c0,1.382-0.448,2.408-1.343,3.077
		c-0.896,0.668-1.865,1.003-2.907,1.003c-2.244,0-3.82-0.748-4.727-2.244l-4.93,2.414C96.585,912.161,99.804,913.85,104.791,913.85
		 M80.549,891.682c1.133,0,2.091,0.387,2.873,1.156c0.782,0.771,1.173,1.757,1.173,2.958c0,1.179-0.38,2.154-1.139,2.924
		c-0.76,0.771-1.729,1.156-2.907,1.156c-1.224,0-2.21-0.379-2.958-1.139s-1.122-1.739-1.122-2.941c0-1.201,0.391-2.187,1.173-2.958
		C78.424,892.068,79.393,891.682,80.549,891.682 M78.747,905.01c2.312,0,4.216-0.827,5.712-2.481h0.068v1.972h5.95v-17.442h-6.018
		v1.666c-1.496-1.449-3.4-2.176-5.712-2.176c-2.516,0-4.59,0.896-6.222,2.687c-1.632,1.791-2.448,3.978-2.448,6.562
		s0.816,4.766,2.448,6.545C74.157,904.121,76.231,905.01,78.747,905.01 M59.333,904.5v-9.18c0-0.182,0.045-0.431,0.136-0.748
		c0.09-0.317,0.243-0.702,0.459-1.156c0.215-0.453,0.583-0.838,1.105-1.156c0.521-0.316,1.144-0.476,1.87-0.476
		c1.337,0,2.38,0.317,3.128,0.952l2.516-5.101l-0.476-0.271c-0.295-0.182-0.76-0.362-1.394-0.544
		c-0.635-0.182-1.281-0.272-1.938-0.272c-0.635,0-1.258,0.108-1.87,0.323c-0.612,0.216-1.111,0.459-1.496,0.73
		c-0.386,0.272-0.748,0.578-1.088,0.918c-0.34,0.341-0.561,0.578-0.663,0.715c-0.102,0.136-0.176,0.25-0.221,0.34h-0.068v-2.517
		h-6.019V904.5H59.333z M37.709,887.058v4.591h2.516V904.5h6.018v-12.852h4.012v-4.591h-4.012v-3.535c0-1.27,0.124-2.159,0.374-2.67
		c0.249-0.51,0.748-0.765,1.496-0.765c0.657,0,1.258,0.159,1.802,0.477l2.107-4.25l-0.578-0.374c-0.363-0.272-0.958-0.538-1.785-0.8
		c-0.828-0.26-1.695-0.391-2.601-0.391c-2.131,0-3.797,0.782-4.998,2.346c-1.202,1.564-1.814,3.65-1.836,6.256v3.706H37.709z"/>
	<path clip-path="url(#SVGID_2_)" fill="#231F20" d="M349.027,838.027c-1.372,0.985-2.058,2.362-2.058,4.131
		c0,1.179,0.317,2.125,0.952,2.839c0.634,0.714,1.496,1.354,2.584,1.921c0.43,0.227,1.025,0.476,1.785,0.748
		c0.759,0.272,1.297,0.516,1.615,0.731c0.316,0.216,0.476,0.516,0.476,0.9c0,0.839-0.624,1.258-1.87,1.258
		c-0.566,0-1.235-0.187-2.006-0.561s-1.304-0.668-1.598-0.884c-0.295-0.215-0.533-0.402-0.714-0.562l-2.448,4.114l0.748,0.612
		c0.498,0.386,1.309,0.771,2.431,1.155c1.122,0.386,2.307,0.578,3.553,0.578c5.509,0,8.263-1.982,8.263-5.95
		c0-0.838-0.159-1.586-0.477-2.243s-0.765-1.201-1.343-1.633c-0.578-0.43-1.128-0.77-1.649-1.02
		c-0.521-0.249-1.134-0.476-1.836-0.68c-0.113-0.022-0.277-0.068-0.492-0.137c-0.217-0.067-0.369-0.119-0.459-0.152
		c-0.092-0.034-0.228-0.085-0.408-0.153c-0.183-0.068-0.312-0.119-0.392-0.153c-0.079-0.033-0.187-0.085-0.322-0.152
		c-0.137-0.068-0.233-0.13-0.289-0.188c-0.058-0.056-0.119-0.124-0.188-0.204c-0.067-0.079-0.114-0.164-0.136-0.255
		c-0.023-0.09-0.034-0.181-0.034-0.271c0-0.408,0.142-0.686,0.425-0.833s0.766-0.222,1.445-0.222c1.224,0,2.516,0.363,3.876,1.088
		l1.972-3.943l-0.714-0.34c-0.476-0.227-1.202-0.453-2.176-0.681c-0.975-0.226-1.961-0.34-2.958-0.34
		C352.251,836.548,350.398,837.041,349.027,838.027 M332.52,841.682c1.134,0,2.092,0.387,2.873,1.156
		c0.782,0.771,1.174,1.757,1.174,2.958c0,1.179-0.381,2.154-1.14,2.924c-0.76,0.771-1.729,1.156-2.907,1.156
		c-1.224,0-2.21-0.379-2.958-1.139c-0.747-0.76-1.121-1.739-1.121-2.941c0-1.201,0.391-2.187,1.173-2.958
		C330.395,842.068,331.364,841.682,332.52,841.682 M332.554,855.01c3.015,0,5.502-0.867,7.463-2.601
		c1.96-1.734,2.941-3.938,2.941-6.613c0-2.674-1.003-4.884-3.009-6.63c-2.006-1.745-4.472-2.618-7.396-2.618
		c-2.97,0-5.463,0.867-7.479,2.602c-2.019,1.733-3.026,3.949-3.026,6.646c0,2.698,0.969,4.908,2.907,6.63
		C326.893,854.149,329.426,855.01,332.554,855.01 M317.866,825.26h-6.019v29.24h6.019V825.26z M285.142,838.027
		c-1.372,0.985-2.057,2.362-2.057,4.131c0,1.179,0.317,2.125,0.952,2.839c0.634,0.714,1.496,1.354,2.584,1.921
		c0.43,0.227,1.025,0.476,1.785,0.748c0.759,0.272,1.297,0.516,1.615,0.731c0.316,0.216,0.476,0.516,0.476,0.9
		c0,0.839-0.624,1.258-1.87,1.258c-0.567,0-1.236-0.187-2.006-0.561c-0.771-0.374-1.304-0.668-1.598-0.884
		c-0.296-0.215-0.533-0.402-0.715-0.562l-2.448,4.114l0.749,0.612c0.498,0.386,1.309,0.771,2.431,1.155
		c1.122,0.386,2.306,0.578,3.553,0.578c5.508,0,8.263-1.982,8.263-5.95c0-0.838-0.159-1.586-0.477-2.243
		c-0.318-0.657-0.765-1.201-1.343-1.633c-0.578-0.43-1.128-0.77-1.649-1.02c-0.521-0.249-1.134-0.476-1.836-0.68
		c-0.114-0.022-0.277-0.068-0.493-0.137c-0.216-0.067-0.368-0.119-0.459-0.152c-0.091-0.034-0.227-0.085-0.407-0.153
		c-0.183-0.068-0.312-0.119-0.392-0.153c-0.08-0.033-0.187-0.085-0.323-0.152c-0.136-0.068-0.232-0.13-0.289-0.188
		c-0.057-0.056-0.118-0.124-0.187-0.204c-0.068-0.079-0.114-0.164-0.136-0.255c-0.023-0.09-0.034-0.181-0.034-0.271
		c0-0.408,0.141-0.686,0.425-0.833c0.283-0.147,0.766-0.222,1.445-0.222c1.224,0,2.516,0.363,3.876,1.088l1.972-3.943l-0.714-0.34
		c-0.476-0.227-1.202-0.453-2.176-0.681c-0.976-0.226-1.961-0.34-2.958-0.34C288.366,836.548,286.513,837.041,285.142,838.027
		 M268.635,841.682c1.133,0,2.091,0.387,2.873,1.156c0.782,0.771,1.173,1.757,1.173,2.958c0,1.179-0.38,2.154-1.139,2.924
		c-0.76,0.771-1.729,1.156-2.907,1.156c-1.224,0-2.21-0.379-2.958-1.139c-0.748-0.76-1.122-1.739-1.122-2.941
		c0-1.201,0.391-2.187,1.173-2.958C266.51,842.068,267.479,841.682,268.635,841.682 M268.669,855.01
		c3.014,0,5.502-0.867,7.463-2.601c1.96-1.734,2.941-3.938,2.941-6.613c0-2.674-1.003-4.884-3.009-6.63
		c-2.007-1.745-4.472-2.618-7.396-2.618c-2.97,0-5.463,0.867-7.479,2.602c-2.019,1.733-3.026,3.949-3.026,6.646
		c0,2.698,0.969,4.908,2.907,6.63C263.008,854.149,265.541,855.01,268.669,855.01 M244.053,841.682c1.133,0,2.091,0.387,2.873,1.156
		c0.782,0.771,1.173,1.757,1.173,2.958c0,1.179-0.38,2.154-1.139,2.924c-0.76,0.771-1.729,1.156-2.907,1.156
		c-1.224,0-2.21-0.379-2.958-1.139c-0.748-0.76-1.122-1.739-1.122-2.941c0-1.201,0.391-2.187,1.173-2.958
		C241.928,842.068,242.897,841.682,244.053,841.682 M242.251,855.01c2.312,0,4.216-0.827,5.712-2.481h0.068v1.972h5.95v-29.24
		h-6.019v13.464c-1.496-1.449-3.4-2.176-5.712-2.176c-2.516,0-4.59,0.896-6.222,2.687c-1.631,1.791-2.448,3.978-2.448,6.562
		s0.816,4.766,2.448,6.545C237.661,854.121,239.735,855.01,242.251,855.01 M220.219,841.682c1.133,0,2.091,0.387,2.873,1.156
		c0.782,0.771,1.173,1.757,1.173,2.958c0,1.179-0.38,2.154-1.139,2.924c-0.76,0.771-1.729,1.156-2.907,1.156
		c-1.224,0-2.21-0.379-2.958-1.139c-0.748-0.76-1.122-1.739-1.122-2.941c0-1.201,0.391-2.187,1.173-2.958
		C218.094,842.068,219.063,841.682,220.219,841.682 M220.253,855.01c3.014,0,5.502-0.867,7.463-2.601
		c1.96-1.734,2.941-3.938,2.941-6.613c0-2.674-1.003-4.884-3.009-6.63c-2.006-1.745-4.471-2.618-7.395-2.618
		c-2.97,0-5.463,0.867-7.48,2.602c-2.018,1.733-3.025,3.949-3.025,6.646c0,2.698,0.969,4.908,2.907,6.63
		C214.592,854.149,217.125,855.01,220.253,855.01 M194.719,837.058v4.591h2.516v6.697c0,0.839,0.091,1.627,0.272,2.363
		c0.181,0.737,0.482,1.44,0.901,2.108c0.419,0.669,1.037,1.201,1.853,1.598c0.816,0.396,1.791,0.595,2.924,0.595
		c1.655,0,3.128-0.362,4.42-1.088l-1.497-4.862l-0.204,0.137c-0.136,0.091-0.329,0.182-0.578,0.271
		c-0.249,0.091-0.487,0.136-0.714,0.136c-0.907,0-1.36-0.804-1.36-2.413v-5.542h3.672v-4.591h-3.672v-6.493h-6.018v6.493H194.719z
		 M169.832,841.24c0.589-0.521,1.382-0.782,2.38-0.782c0.906,0,1.649,0.244,2.227,0.731s0.935,1.185,1.071,2.091h-6.63
		C168.925,842.442,169.242,841.762,169.832,841.24 M181.392,845.796c0-2.969-0.867-5.253-2.601-6.851
		c-1.734-1.599-3.984-2.397-6.749-2.397c-2.63,0-4.885,0.907-6.766,2.72c-1.882,1.814-2.822,3.99-2.822,6.528
		c0,2.539,0.94,4.709,2.822,6.511c1.881,1.803,4.136,2.703,6.766,2.703c4.216,0,7.23-1.518,9.044-4.556l-4.352-2.176
		c-0.726,0.771-1.372,1.287-1.938,1.547c-0.567,0.261-1.338,0.391-2.312,0.391c-0.93,0-1.791-0.294-2.584-0.884
		c-0.794-0.589-1.19-1.496-1.19-2.72h12.648C181.38,846.476,181.392,846.204,181.392,845.796 M148.344,841.682
		c1.133,0,2.091,0.387,2.873,1.156c0.782,0.771,1.173,1.757,1.173,2.958c0,1.179-0.38,2.154-1.139,2.924
		c-0.76,0.771-1.729,1.156-2.907,1.156c-1.224,0-2.21-0.379-2.958-1.139c-0.748-0.76-1.122-1.739-1.122-2.941
		c0-1.201,0.391-2.187,1.173-2.958C146.219,842.068,147.188,841.682,148.344,841.682 M146.542,855.01
		c2.312,0,4.216-0.827,5.712-2.481h0.068v1.972h5.95v-29.24h-6.018v13.464c-1.496-1.449-3.4-2.176-5.712-2.176
		c-2.516,0-4.59,0.896-6.222,2.687c-1.632,1.791-2.448,3.978-2.448,6.562s0.816,4.766,2.448,6.545
		C141.952,854.121,144.026,855.01,146.542,855.01 M113.12,841.682c1.133,0,2.091,0.387,2.873,1.156
		c0.782,0.771,1.173,1.757,1.173,2.958c0,1.179-0.38,2.154-1.139,2.924c-0.76,0.771-1.729,1.156-2.907,1.156
		c-1.224,0-2.21-0.379-2.958-1.139s-1.122-1.739-1.122-2.941c0-1.201,0.391-2.187,1.173-2.958
		C110.995,842.068,111.964,841.682,113.12,841.682 M111.318,855.01c2.312,0,4.216-0.827,5.712-2.481h0.068v1.972h5.95v-17.442
		h-6.018v1.666c-1.496-1.449-3.4-2.176-5.712-2.176c-2.516,0-4.59,0.896-6.222,2.687c-1.632,1.791-2.448,3.978-2.448,6.562
		s0.816,4.766,2.448,6.545C106.728,854.121,108.802,855.01,111.318,855.01 M87.688,837.058v4.591h2.516v6.697
		c0,0.839,0.09,1.627,0.272,2.363c0.181,0.737,0.481,1.44,0.901,2.108c0.419,0.669,1.037,1.201,1.853,1.598
		c0.816,0.396,1.79,0.595,2.924,0.595c1.654,0,3.128-0.362,4.42-1.088l-1.496-4.862l-0.204,0.137
		c-0.136,0.091-0.329,0.182-0.578,0.271c-0.25,0.091-0.488,0.136-0.714,0.136c-0.907,0-1.36-0.804-1.36-2.413v-5.542h3.672v-4.591
		h-3.672v-6.493h-6.018v6.493H87.688z M73.425,838.027c-1.372,0.985-2.057,2.362-2.057,4.131c0,1.179,0.317,2.125,0.952,2.839
		c0.634,0.714,1.496,1.354,2.584,1.921c0.43,0.227,1.025,0.476,1.785,0.748c0.759,0.272,1.297,0.516,1.615,0.731
		c0.317,0.216,0.476,0.516,0.476,0.9c0,0.839-0.624,1.258-1.87,1.258c-0.567,0-1.236-0.187-2.006-0.561
		c-0.771-0.374-1.304-0.668-1.598-0.884c-0.295-0.215-0.534-0.402-0.714-0.562l-2.448,4.114l0.748,0.612
		c0.498,0.386,1.309,0.771,2.431,1.155c1.122,0.386,2.306,0.578,3.553,0.578c5.508,0,8.262-1.982,8.262-5.95
		c0-0.838-0.159-1.586-0.476-2.243c-0.318-0.657-0.765-1.201-1.343-1.633c-0.578-0.43-1.128-0.77-1.649-1.02
		c-0.522-0.249-1.134-0.476-1.836-0.68c-0.114-0.022-0.278-0.068-0.493-0.137c-0.216-0.067-0.369-0.119-0.459-0.152
		c-0.091-0.034-0.227-0.085-0.408-0.153c-0.182-0.068-0.312-0.119-0.391-0.153c-0.08-0.033-0.187-0.085-0.323-0.152
		c-0.136-0.068-0.233-0.13-0.289-0.188c-0.057-0.056-0.119-0.124-0.187-0.204c-0.068-0.079-0.114-0.164-0.136-0.255
		c-0.023-0.09-0.034-0.181-0.034-0.271c0-0.408,0.141-0.686,0.425-0.833c0.283-0.147,0.765-0.222,1.445-0.222
		c1.224,0,2.516,0.363,3.876,1.088l1.972-3.943l-0.714-0.34c-0.476-0.227-1.202-0.453-2.176-0.681
		c-0.975-0.226-1.961-0.34-2.958-0.34C76.649,836.548,74.796,837.041,73.425,838.027 M65.793,854.5h-6.018v-17.442h6.018V854.5z
		 M59.299,829.85c0,0.976,0.351,1.814,1.054,2.517c0.702,0.703,1.541,1.054,2.516,1.054c0.974,0,1.813-0.351,2.516-1.054
		c0.702-0.702,1.054-1.541,1.054-2.517c0-0.974-0.352-1.812-1.054-2.516c-0.703-0.702-1.542-1.054-2.516-1.054
		c-0.975,0-1.814,0.352-2.516,1.054C59.65,828.037,59.299,828.876,59.299,829.85 M39.205,826.45v28.05h16.048v-5.61h-9.656V826.45
		H39.205z"/>
	<path clip-path="url(#SVGID_2_)" fill="#231F20" d="M127.813,516.695V282.453h19.18c15.755,0,26.769,3.543,33.051,10.618
		c6.278,7.08,9.419,17.468,9.419,31.167v146.561c0,15.756-3.141,27.348-9.419,34.765c-6.282,7.423-17.296,11.132-33.051,11.132
		H127.813z M59.997,282.453h22.605v233.899H59.997v43.498h86.996c29.68,0,51.718-6.904,66.103-20.721
		c14.385-13.813,21.578-35.22,21.578-64.22V324.238c0-28.994-7.193-50.4-21.578-64.219c-14.385-13.812-36.423-20.721-66.103-20.721
		H59.997V282.453z"/>
</g>
<line fill="none" stroke="#0046F9" stroke-width="2" x1="282" y1="219" x2="282" y2="595.15"/>
<g>
	<defs>
		<rect id="SVGID_93_" width="564" height="1002"/>
	</defs>
	<clipPath id="SVGID_4_">
		<use xlink:href="#SVGID_93_"  overflow="visible"/>
	</clipPath>
	<polygon clip-path="url(#SVGID_4_)" fill="none" stroke="#0046F9" stroke-width="1.998" points="0.999,3 0.999,999 0.999,1001.002 
		3,1001.002 561,1001.002 563.001,1001.002 563.001,999 563.001,3 563.001,0.998 561,0.998 3,0.998 0.999,0.998 	"/>
</g>
<rect x="5.001" y="5.002" fill="none" stroke="#0046F9" stroke-width="1.998" width="553.998" height="991.996"/>
<g>
	<defs>
		<rect id="SVGID_95_" width="564" height="1002"/>
	</defs>
	<clipPath id="SVGID_6_">
		<use xlink:href="#SVGID_95_"  overflow="visible"/>
	</clipPath>
	<path clip-path="url(#SVGID_6_)" fill="#0046F9" d="M521.322,66.046c0-10.511-0.688-33.771-17.229-33.427
		c-13.785,0.345-16.025,18.609-16.025,29.636c0,9.821,3.964,22.399,7.755,32.565c7.408,17.748,11.371,27.224,11.371,37.906
		c0,8.099-0.345,12.233-2.929,12.233c-3.791,0-3.791-17.747-3.791-21.71l-13.956,2.068c0,11.543-0.345,36.699,17.747,36.699
		c14.818,0,17.058-18.091,17.058-30.152c0-12.75-4.651-24.812-10.854-39.801c-4.997-12.58-8.443-21.539-8.443-29.81
		c0-7.409,0.346-12.578,2.412-12.578c2.757,0,2.757,13.957,2.757,18.437L521.322,66.046z M459.468,136.345
		c0,3.964-1.034,7.582-2.757,7.582c-1.551,0-2.929-2.929-2.929-7.582V58.292c0-4.136,1.033-7.581,2.929-7.581
		s2.757,3.618,2.757,7.581V136.345z M473.769,58.292c0-10.338-3.445-25.673-17.229-25.673c-12.923,0-17.403,12.578-17.403,25.673
		v78.053c0,12.062,3.963,25.673,17.403,25.673c13.095,0,17.229-12.578,17.229-25.673V58.292z M401.921,53.123V160.64h14.302V53.123
		h10.51V33.998h-35.321v19.125H401.921z M366.083,160.64h12.061V33.998h-13.267v59.789l-10.339-59.789h-12.062V160.64h13.269V99.128
		L366.083,160.64z M298.714,160.64h28.603v-19.126h-14.302v-34.805h10.339V86.378h-10.339V53.123h14.302V33.998h-28.603V160.64z
		 M263.049,160.64l4.824-62.374v62.374h13.612V33.998h-15.851l-6.548,59.789l-6.547-59.789h-15.852V160.64h13.267V98.266
		l5.341,62.374H263.049z M205.155,33.998v102.347c0,4.136-0.517,7.582-2.584,7.582c-2.24,0-2.757-2.757-2.757-7.582V33.998h-14.301
		v102.347c0,12.923,3.274,25.673,17.058,25.673c12.922,0,16.885-11.371,16.885-25.673V33.998H205.155z M157.774,117.22v19.125
		c0,2.413-0.173,7.582-2.93,7.582c-2.067,0-2.412-5.169-2.412-7.582V57.604c0-2.758,0.173-6.893,2.412-6.893
		c2.757,0,2.93,5.341,2.93,7.581v19.126h13.956V58.292c0-8.959-3.274-25.673-17.058-25.673c-12.923,0-16.886,14.474-16.886,25.673
		v78.053c0,11.2,3.447,25.673,16.886,25.673c13.095,0,17.058-12.404,17.058-25.673V117.22H157.774z M109.531,136.345
		c0,3.964-1.034,7.582-2.757,7.582c-1.551,0-2.929-2.929-2.929-7.582V58.292c0-4.136,1.034-7.581,2.929-7.581
		s2.757,3.618,2.757,7.581V136.345z M123.832,58.292c0-10.338-3.446-25.673-17.23-25.673c-12.923,0-17.403,12.578-17.403,25.673
		v78.053c0,12.062,3.963,25.673,17.403,25.673c13.095,0,17.23-12.578,17.23-25.673V58.292z M54.051,52.605
		c2.068,0.174,4.652-0.344,5.169,4.137c0.862,7.753,0.517,19.986,0.517,46.004v29.636c0,10.166-3.446,9.649-5.686,9.649V52.605z
		 M53.534,160.64c11.372,0,15.507-4.479,17.747-11.2c2.585-7.58,2.585-27.223,2.585-52.035c0-24.812-0.345-40.662-3.274-50.312
		c-3.101-9.649-7.581-13.095-18.953-13.095H39.75V160.64H53.534z"/>
</g>
<line fill="none" stroke="#0046F9" stroke-width="2" x1="23.478" y1="197" x2="536.479" y2="197"/>
<line fill="none" stroke="#0046F9" stroke-width="2" x1="23.478" y1="616" x2="536.479" y2="616"/>
<line fill="none" stroke="#0046F9" stroke-width="2" x1="23.478" y1="790" x2="536.479" y2="790"/>
<g>
	<defs>
		<rect id="SVGID_97_" width="564" height="1002"/>
	</defs>
	<clipPath id="SVGID_8_">
		<use xlink:href="#SVGID_97_"  overflow="visible"/>
	</clipPath>
	<path clip-path="url(#SVGID_8_)" fill="#231F20" d="M477.478,513.447h45.298v47.887h-45.298V513.447z M325.191,344.766v-22.002
		c0-21.139,3.02-41.848,12.08-56.946c9.059-15.101,24.59-25.022,50.043-25.022c23.728,0,39.689,9.06,49.181,22.865
		c9.491,14.236,12.943,34.081,12.943,56.083c0,32.356-12.08,70.752-27.18,106.56c-15.53,36.238-33.65,68.594-45.729,88.871H450.3
		v46.16H323.897v-46.16c14.235-22.002,27.179-44.437,38.827-66.869c9.922-18.982,19.412-40.553,26.746-62.555
		s12.943-43.574,13.374-62.986c0-8.629-0.431-18.551-2.588-25.885c-2.156-7.334-6.04-12.942-12.942-12.942
		c-6.472,0-10.354,4.746-12.512,11.647c-2.156,7.334-3.02,16.825-3.02,27.18v22.002H325.191z"/>
	<path clip-path="url(#SVGID_8_)" fill="#0046F9" d="M447.652,758.977c11.916-13.619,22.98-24.116,32.628-31.493
		c11.064-8.512,20.995-14.186,29.507-17.022v-6.526c-11.916-5.107-22.13-11.065-30.358-18.725
		c-16.455-15.037-27.237-25.535-31.776-31.21h-19.577c4.54,9.646,9.363,18.441,14.186,26.386
		c3.973,5.959,8.229,11.633,13.619,17.307H50.169V715h405.995c-7.377,9.078-11.633,15.037-13.903,18.726
		c-5.958,9.646-10.78,18.158-13.617,25.251H447.652z"/>
</g>
</svg>
