<?xml version="1.0" encoding="utf-8"?>
<!-- Generator: Adobe Illustrator 16.0.0, SVG Export Plug-In . SVG Version: 6.00 Build 0)  -->
<!DOCTYPE svg PUBLIC "-//W3C//DTD SVG 1.1//EN" "http://www.w3.org/Graphics/SVG/1.1/DTD/svg11.dtd">
<svg version="1.1" id="Layer_1" xmlns="http://www.w3.org/2000/svg" xmlns:xlink="http://www.w3.org/1999/xlink" x="0px" y="0px"
	 width="564px" height="1002px" viewBox="0 0 564 1002" enable-background="new 0 0 564 1002" xml:space="preserve">
<g>
	<defs>
		<rect id="SVGID_153_" width="564" height="1002"/>
	</defs>
	<clipPath id="SVGID_2_">
		<use xlink:href="#SVGID_153_"  overflow="visible"/>
	</clipPath>
	<path clip-path="url(#SVGID_2_)" fill="#0046F9" d="M496.892,47.811c-6.199,0-11.534,0.934-16,2.799
		c-4.467,1.867-7.866,4.468-10.199,7.801c-2.335,3.334-3.5,7.167-3.5,11.5c0,4.6,1.199,8.283,3.6,11.05s5.415,4.851,9.05,6.25
		c3.633,1.399,8.115,2.601,13.45,3.601c3.933,0.733,6.783,1.467,8.55,2.199c1.765,0.734,2.65,1.734,2.65,3
		c0,2.934-3.035,4.4-9.101,4.4c-4.467,0-8.35-0.684-11.649-2.051c-3.3-1.365-6.285-3.615-8.95-6.75l-9.5,14
		c4,3.535,8.333,6.117,13,7.75c4.665,1.634,10.8,2.451,18.4,2.451c5.465,0,10.365-0.801,14.699-2.4
		c4.333-1.6,7.766-3.967,10.301-7.1c2.533-3.134,3.8-6.9,3.8-11.301c0-4.133-0.885-7.6-2.65-10.4
		c-1.767-2.799-4.567-5.115-8.4-6.949c-3.835-1.833-8.95-3.316-15.35-4.45c-3.867-0.733-6.635-1.433-8.3-2.101
		c-1.667-0.666-2.5-1.6-2.5-2.799c0-1.533,0.8-2.767,2.4-3.701c1.6-0.933,3.833-1.399,6.699-1.399c3.934,0,7.416,0.685,10.451,2.05
		c3.033,1.367,5.883,3.584,8.549,6.65l10-12.9c-4.199-4.066-8.584-6.949-13.149-8.65C508.675,48.66,503.225,47.811,496.892,47.811
		 M417.193,99.51v-10.5h26.2V74.811h-26.2V64.109h32.8V48.811h-53.2v66h54.5V99.51H417.193z M364.494,26.91h-10.8
		c-0.2,1.8-0.567,3.117-1.1,3.949c-0.535,0.834-1.3,1.25-2.3,1.25c-0.667,0-1.267-0.149-1.8-0.449
		c-0.534-0.301-1.234-0.783-2.1-1.45c-1.335-1.065-2.65-1.899-3.95-2.5s-2.95-0.899-4.95-0.899c-8.935,0-13.6,5.6-14,16.799h10.8
		c0.2-1.799,0.566-3.115,1.1-3.949c0.533-0.833,1.3-1.25,2.3-1.25c0.733,0,1.383,0.167,1.95,0.5c0.566,0.334,1.25,0.834,2.05,1.5
		c1.4,1.066,2.716,1.9,3.95,2.5c1.233,0.6,2.85,0.9,4.85,0.9c4.4,0,7.783-1.4,10.15-4.201
		C363.01,36.811,364.294,32.577,364.494,26.91 M344.094,63.41c4.066,0,7.083,1.5,9.05,4.5c1.966,3,2.95,7.634,2.95,13.9
		s-0.984,10.899-2.95,13.899c-1.967,3-4.984,4.5-9.05,4.5c-4.067,0-7.1-1.517-9.1-4.55s-3-7.65-3-13.85c0-6.201,1-10.816,3-13.851
		C336.994,64.927,340.027,63.41,344.094,63.41 M344.094,47.811c-6.8,0-12.684,1.334-17.65,4c-4.967,2.666-8.784,6.566-11.45,11.699
		c-2.667,5.135-4,11.234-4,18.301s1.333,13.166,4,18.299c2.666,5.135,6.483,9.035,11.45,11.701c4.966,2.666,10.85,4,17.65,4
		c10.333,0,18.4-2.983,24.2-8.951c5.8-5.965,8.7-14.315,8.7-25.049s-2.9-19.084-8.7-25.051
		C362.494,50.794,354.427,47.811,344.094,47.811 M295.896,95.21l-18.2-4.899c-0.6,3.467-1.784,5.983-3.55,7.549
		c-1.767,1.567-4.317,2.351-7.65,2.351c-8.267,0-12.4-6.133-12.4-18.399c0-6.134,1.083-10.733,3.25-13.801
		c2.166-3.066,5.283-4.6,9.35-4.6c3.2,0,5.633,0.75,7.3,2.25c1.666,1.5,2.866,4.283,3.6,8.35l17.7-7.1
		c-1.467-6.4-4.834-11.184-10.1-14.35c-5.267-3.166-11.634-4.75-19.1-4.75c-6.8,0-12.667,1.35-17.6,4.049
		c-4.934,2.701-8.734,6.601-11.4,11.701c-2.667,5.1-4,11.184-4,18.25c0,10,2.583,17.949,7.75,23.85
		c5.166,5.9,12.316,9.216,21.45,9.949c2.4,0.733,4.066,1.566,5,2.5c0.933,0.934,1.4,2.066,1.4,3.4c0,1.467-0.5,2.616-1.5,3.45
		c-1,0.833-2.334,1.25-4,1.25c-2.934,0-5.367-0.967-7.3-2.899l-4.2,8.799c1.4,1.334,3.116,2.367,5.15,3.101
		c2.033,0.733,4.616,1.101,7.75,1.101c4.6,0,8.3-1,11.1-3s4.2-5.067,4.2-9.201c0-3.666-1.7-6.699-5.1-9.1
		C286.062,112.877,293.095,106.277,295.896,95.21 M213.397,48.811h-20.4v66h20.4V48.811z M139.097,99.91h-7.4v-36.2h7.4
		c4.8,0,8.2,1.45,10.2,4.351c2,2.899,3,7.483,3,13.75s-1,10.85-3,13.75C147.297,98.46,143.897,99.91,139.097,99.91 M141.597,48.811
		h-30.3v66h30.3c10.266,0,18.116-2.851,23.55-8.551c5.433-5.699,8.15-13.85,8.15-24.449c0-10.601-2.717-18.75-8.15-24.451
		C159.713,51.66,151.863,48.811,141.597,48.811 M58.898,99.51v-10.5h26.199V74.811H58.898V64.109h32.8V48.811h-53.2v66h54.5V99.51
		H58.898z"/>
	<path clip-path="url(#SVGID_2_)" fill="#231F20" d="M230.918,654.051c0-0.585,0-1.305-0.18-1.89c-0.225-0.54-0.585-0.99-1.305-0.99
		c-0.585,0-0.945,0.45-1.125,0.99c-0.225,0.54-0.27,1.305-0.27,1.89c0,0.766,0.404,1.575,0.99,2.295
		c0.54,0.721,1.26,1.44,1.98,2.115c0.945,0.945,2.07,2.025,2.835,3.24c0.765,1.26,1.35,2.654,1.35,4.274
		c0,1.575-0.359,3.24-1.259,4.5c-0.945,1.306-2.385,2.25-4.545,2.25c-2.745,0-4.365-1.26-5.265-2.79
		c-0.9-1.529-1.08-3.42-1.08-4.725h4.229c0,0.675,0.045,1.62,0.36,2.34c0.315,0.766,0.81,1.396,1.755,1.396
		c1.305,0,1.575-1.53,1.575-2.971c0-1.484-1.44-2.97-2.835-4.364c-1.08-1.035-2.115-1.98-2.925-3.195
		c-0.81-1.215-1.396-2.565-1.396-4.365c0-1.439,0.271-3.104,1.125-4.41c0.855-1.26,2.25-2.205,4.41-2.25
		c2.655-0.045,4.14,0.945,4.905,2.25c0.765,1.306,0.9,3.016,0.9,4.41H230.918z M213.593,657.336h3.285v-3.465
		c0-0.945-0.18-1.62-0.63-2.16c-0.226-0.225-0.585-0.36-0.99-0.36c-0.855,0-1.215,0.585-1.44,1.261
		c-0.135,0.359-0.18,0.765-0.225,1.26V657.336z M221.108,663.546v2.835c-0.135,2.385-0.855,4.05-2.475,5.355
		c-0.81,0.675-1.935,0.989-3.42,0.989c-2.925,0-4.41-1.62-5.13-3.239c-0.405-0.945-0.676-2.025-0.72-3.24v-12.375
		c0.135-2.385,0.9-4.141,2.52-5.49c0.765-0.675,1.89-0.99,3.375-0.99c2.925,0,4.41,1.62,5.13,3.195
		c0.405,0.945,0.676,1.98,0.72,3.15v7.154h-7.515v5.355c0.045,0.945,0.314,1.62,0.721,2.115c0.225,0.225,0.54,0.359,0.944,0.359
		c0.855,0,1.26-0.54,1.44-1.215c0.135-0.36,0.18-0.765,0.18-1.26v-2.7H221.108z M202.253,653.871c0.045-0.945-0.136-1.62-0.585-2.16
		c-0.226-0.225-0.585-0.36-0.99-0.36c-0.855,0-1.215,0.585-1.395,1.261c-0.135,0.359-0.18,0.765-0.135,1.26v12.375
		c-0.045,0.945,0.18,1.62,0.584,2.115c0.226,0.225,0.54,0.359,0.945,0.359c0.855,0,1.261-0.54,1.439-1.215
		c0.136-0.36,0.181-0.765,0.136-1.26V653.871z M206.528,666.381c-0.135,2.385-0.855,4.05-2.43,5.355
		c-0.81,0.675-1.935,0.989-3.42,0.989c-2.925,0-4.364-1.62-5.085-3.239c-0.404-0.945-0.675-2.025-0.72-3.24v-12.375
		c0.135-2.385,0.855-4.141,2.43-5.49c0.765-0.675,1.89-0.99,3.375-0.99c2.925,0,4.41,1.62,5.13,3.195
		c0.405,0.945,0.675,1.98,0.72,3.15V666.381z M196.358,640.371c0.405-0.315,0.945-0.54,1.485-0.72c0.27-0.091,0.585-0.136,0.9-0.136
		c0.675,0,1.35,0.136,1.98,0.36c0.63,0.27,1.305,0.45,1.98,0.495c0.675,0,1.17-0.18,1.664-0.36c0.271-0.135,0.496-0.225,0.721-0.359
		v3.329c-0.405,0.36-0.945,0.586-1.485,0.721c-0.27,0.09-0.585,0.135-0.9,0.135c-0.675,0-1.35-0.135-1.936-0.405
		c-0.63-0.27-1.305-0.404-2.025-0.45c-0.675,0-1.17,0.181-1.665,0.36c-0.271,0.135-0.495,0.226-0.72,0.36V640.371z M188.304,677.901
		l-0.989,2.925h-2.295l0.9-2.925h-1.395v-3.105h3.78V677.901z M185.289,666.696c0,0.899,0.045,1.979,1.26,1.979
		c1.035,0,1.305-0.495,1.305-1.979v-3.42h4.544v2.385c0,2.745-0.495,4.5-1.484,5.58c-0.99,1.08-2.43,1.484-4.365,1.484
		c-1.62,0-3.105-0.449-4.14-1.574c-1.035-1.125-1.665-2.971-1.665-5.716v-10.755c0-2.745,0.63-4.59,1.665-5.715
		c1.035-1.125,2.52-1.575,4.14-1.575c1.935,0,3.375,0.405,4.365,1.485c0.99,1.08,1.484,2.835,1.484,5.58v1.935h-4.544v-2.97
		c0-1.485-0.27-1.979-1.305-1.979c-1.215,0-1.26,1.079-1.26,1.979V666.696z M173.049,647.751h4.545v24.615h-4.545V647.751z
		 M173.049,639.291h4.545v4.545h-4.545V639.291z M171.069,652.431c-0.405-0.135-0.855-0.18-1.26-0.18
		c-0.72,0-1.575,0.09-2.295,0.765c-0.855,0.721-0.99,1.485-0.99,2.25v17.101h-4.545v-24.615h4.545v2.745
		c0.045-0.315,0.36-1.08,1.08-1.8c0.719-0.676,1.8-1.306,3.465-1.306V652.431z M152.08,666.696c0,0.899,0.045,1.979,1.26,1.979
		c1.035,0,1.305-0.495,1.305-1.979v-3.42h4.545v2.385c0,2.745-0.495,4.5-1.485,5.58c-0.99,1.08-2.431,1.484-4.365,1.484
		c-1.62,0-3.105-0.449-4.141-1.574c-1.034-1.125-1.665-2.971-1.665-5.716v-10.755c0-2.745,0.63-4.59,1.665-5.715
		c1.035-1.125,2.521-1.575,4.141-1.575c1.935,0,3.375,0.405,4.365,1.485c0.99,1.08,1.485,2.835,1.485,5.58v1.935h-4.545v-2.97
		c0-1.485-0.27-1.979-1.305-1.979c-1.215,0-1.26,1.079-1.26,1.979V666.696z M140.92,654.051c0-0.585,0-1.305-0.181-1.89
		c-0.225-0.54-0.584-0.99-1.304-0.99c-0.585,0-0.946,0.45-1.125,0.99c-0.225,0.54-0.27,1.305-0.27,1.89
		c0,0.766,0.405,1.575,0.99,2.295c0.54,0.721,1.26,1.44,1.98,2.115c0.945,0.945,2.07,2.025,2.835,3.24
		c0.765,1.26,1.35,2.654,1.35,4.274c0,1.575-0.36,3.24-1.26,4.5c-0.946,1.306-2.385,2.25-4.545,2.25c-2.745,0-4.365-1.26-5.265-2.79
		c-0.9-1.529-1.08-3.42-1.08-4.725h4.229c0,0.675,0.045,1.62,0.36,2.34c0.314,0.766,0.81,1.396,1.755,1.396
		c1.305,0,1.575-1.53,1.575-2.971c0-1.484-1.44-2.97-2.835-4.364c-1.08-1.035-2.115-1.98-2.925-3.195
		c-0.81-1.215-1.396-2.565-1.396-4.365c0-1.439,0.271-3.104,1.125-4.41c0.855-1.26,2.25-2.205,4.41-2.25
		c2.655-0.045,4.14,0.945,4.905,2.25c0.765,1.306,0.9,3.016,0.9,4.41H140.92z M123.64,672.366h-4.545v-24.615h4.545v2.07
		c0.09-0.045,0.27-0.226,0.54-0.495c0.495-0.495,1.17-1.17,1.979-1.62c0.405-0.226,0.766-0.315,1.171-0.315
		c1.215,0,2.07,0.721,2.61,1.62c0.54,0.945,0.81,2.16,0.81,3.195v20.16h-4.545v-19.485c0-0.945-0.54-1.08-1.08-1.08
		c-0.495,0-0.765,0.271-1.08,0.585c-0.136,0.181-0.271,0.36-0.405,0.585V672.366z M111.58,660.486
		c-2.205,0.944-3.15,3.149-3.15,5.489c0,0.315,0.045,0.855,0.225,1.351c0.18,0.54,0.495,0.944,1.035,0.944
		c1.035,0,1.89-0.63,1.89-1.484V660.486z M111.58,653.601c0-0.404,0-1.034-0.135-1.484c-0.18-0.45-0.54-0.766-1.125-0.766
		c-0.765,0-1.081,0.585-1.214,1.306c-0.046,0.359-0.09,0.765-0.09,1.17v1.17h-4.545v-1.035c0-1.8,0.675-3.42,1.755-4.635
		c1.08-1.215,2.61-1.936,4.365-1.936c1.485,0,2.835,0.585,3.87,1.575s1.665,2.385,1.665,4.005v15.12
		c0,2.205,0.135,3.195,0.315,4.275h-4.456c-0.404-0.495-0.404-1.665-0.404-1.98h-0.315c-0.225,0.405-0.63,0.99-1.26,1.485
		s-1.485,0.854-2.385,0.854c-0.585,0-1.53-0.225-2.25-1.125c-0.765-0.854-1.395-2.385-1.395-4.949c0-2.745,0.81-4.726,1.89-6.075
		c1.08-1.351,2.43-2.205,3.555-2.79s1.98-0.99,2.16-1.485V653.601z M103.075,652.431c-0.405-0.135-0.855-0.18-1.26-0.18
		c-0.72,0-1.575,0.09-2.294,0.765c-0.855,0.721-0.99,1.485-0.99,2.25v17.101h-4.545v-24.615h4.545v2.745
		c0.045-0.315,0.36-1.08,1.08-1.8c0.72-0.676,1.799-1.306,3.465-1.306V652.431z M88.449,641.676v6.075h3.105v4.095h-3.105v12.24
		c0,0.765,0,1.755,0.181,2.565c0.18,0.81,0.54,1.484,1.26,1.484c0.36,0,0.81-0.045,1.125-0.09c0.18-0.045,0.36-0.045,0.54-0.09
		v4.455c-0.225,0.045-0.449,0.135-0.675,0.18c-0.45,0.09-1.035,0.135-1.755,0.135c-2.655,0-3.915-1.35-4.545-3.06
		c-0.631-1.71-0.675-3.78-0.675-5.22v-12.601H81.61v-4.095h2.295v-6.075H88.449z M69.056,654.051c0-0.585,0-1.305-0.18-1.89
		c-0.226-0.54-0.585-0.99-1.305-0.99c-0.585,0-0.945,0.45-1.125,0.99c-0.225,0.54-0.27,1.305-0.27,1.89
		c0,0.766,0.405,1.575,0.99,2.295c0.54,0.721,1.26,1.44,1.98,2.115c0.944,0.945,2.069,2.025,2.835,3.24
		c0.765,1.26,1.35,2.654,1.35,4.274c0,1.575-0.36,3.24-1.26,4.5c-0.945,1.306-2.385,2.25-4.545,2.25c-2.745,0-4.365-1.26-5.265-2.79
		c-0.9-1.529-1.08-3.42-1.08-4.725h4.23c0,0.675,0.045,1.62,0.36,2.34c0.314,0.766,0.81,1.396,1.754,1.396
		c1.305,0,1.575-1.53,1.575-2.971c0-1.484-1.44-2.97-2.835-4.364c-1.08-1.035-2.115-1.98-2.925-3.195
		c-0.81-1.215-1.395-2.565-1.395-4.365c0-1.439,0.27-3.104,1.125-4.41c0.855-1.26,2.25-2.205,4.411-2.25
		c2.654-0.045,4.14,0.945,4.904,2.25c0.765,1.306,0.9,3.016,0.9,4.41H69.056z M54.701,660.486c-2.205,0.944-3.15,3.149-3.15,5.489
		c0,0.315,0.045,0.855,0.225,1.351c0.18,0.54,0.496,0.944,1.035,0.944c1.035,0,1.89-0.63,1.89-1.484V660.486z M54.701,653.601
		c0-0.404,0-1.034-0.135-1.484c-0.18-0.45-0.54-0.766-1.125-0.766c-0.765,0-1.08,0.585-1.215,1.306
		c-0.045,0.359-0.09,0.765-0.09,1.17v1.17h-4.545v-1.035c0-1.8,0.675-3.42,1.755-4.635s2.61-1.936,4.365-1.936
		c1.485,0,2.835,0.585,3.87,1.575c1.034,0.99,1.665,2.385,1.665,4.005v15.12c0,2.205,0.135,3.195,0.315,4.275h-4.455
		c-0.406-0.495-0.406-1.665-0.406-1.98h-0.315c-0.225,0.405-0.63,0.99-1.26,1.485s-1.485,0.854-2.385,0.854
		c-0.585,0-1.53-0.225-2.25-1.125c-0.765-0.854-1.395-2.385-1.395-4.949c0-2.745,0.81-4.726,1.89-6.075
		c1.08-1.351,2.43-2.205,3.555-2.79s1.98-0.99,2.16-1.485V653.601z M39.671,653.151c0-0.721-0.675-1.485-1.35-1.485
		c-0.674,0-1.214,0.63-1.214,1.485v13.814c0,0.855,0.54,1.485,1.214,1.485c0.675,0,1.35-0.63,1.35-1.485V653.151z M44.216,672.366
		h-4.545v-1.62c-0.765,0.72-1.439,1.26-2.295,1.665c-0.45,0.225-0.9,0.314-1.305,0.314c-1.26,0-2.115-0.72-2.655-1.665
		c-0.585-0.899-0.855-2.114-0.855-3.149v-15.705c0-1.035,0.27-2.25,0.855-3.195c0.54-0.899,1.395-1.62,2.655-1.62
		c0.855,0,1.754,0.495,2.43,0.99c0.405,0.315,0.765,0.63,1.17,0.99v-10.08h4.545V672.366z"/>
	<path clip-path="url(#SVGID_2_)" fill="#231F20" d="M520.671,602.871c0.045-0.945-0.135-1.62-0.585-2.16
		c-0.225-0.225-0.585-0.359-0.99-0.359c-0.855,0-1.215,0.584-1.395,1.26c-0.135,0.359-0.179,0.765-0.135,1.26v12.375
		c-0.044,0.945,0.18,1.62,0.584,2.115c0.226,0.225,0.54,0.359,0.945,0.359c0.855,0,1.261-0.54,1.44-1.215
		c0.135-0.36,0.18-0.765,0.135-1.26V602.871z M524.946,615.381c-0.135,2.385-0.855,4.05-2.43,5.355
		c-0.81,0.675-1.935,0.989-3.42,0.989c-2.925,0-4.364-1.62-5.085-3.239c-0.404-0.945-0.675-2.025-0.72-3.24v-12.375
		c0.135-2.385,0.855-4.141,2.43-5.49c0.765-0.675,1.89-0.99,3.375-0.99c2.926,0,4.41,1.62,5.13,3.195
		c0.405,0.945,0.675,1.98,0.72,3.15V615.381z M505.596,609.486c-2.205,0.944-3.15,3.149-3.15,5.489c0,0.315,0.045,0.855,0.225,1.351
		c0.18,0.54,0.495,0.944,1.035,0.944c1.035,0,1.89-0.63,1.89-1.484V609.486z M505.596,602.601c0-0.404,0-1.034-0.135-1.485
		c-0.18-0.449-0.54-0.764-1.125-0.764c-0.765,0-1.08,0.584-1.215,1.305c-0.046,0.359-0.09,0.765-0.09,1.17v1.17h-4.545v-1.035
		c0-1.8,0.675-3.42,1.755-4.635c1.08-1.215,2.61-1.936,4.366-1.936c1.484,0,2.834,0.586,3.869,1.575
		c1.035,0.99,1.665,2.386,1.665,4.005v15.12c0,2.205,0.135,3.195,0.315,4.275h-4.455c-0.405-0.495-0.405-1.665-0.405-1.98h-0.315
		c-0.225,0.405-0.63,0.99-1.259,1.485c-0.631,0.495-1.485,0.854-2.386,0.854c-0.585,0-1.529-0.225-2.25-1.125
		c-0.765-0.854-1.395-2.385-1.395-4.949c0-2.745,0.81-4.726,1.89-6.075c1.08-1.351,2.43-2.205,3.555-2.79s1.98-0.99,2.16-1.485
		V602.601z M500.061,589.371c0.405-0.315,0.945-0.54,1.485-0.721c0.27-0.09,0.585-0.135,0.9-0.135c0.675,0,1.35,0.135,1.98,0.36
		c0.63,0.271,1.306,0.45,1.98,0.495c0.675,0,1.169-0.18,1.665-0.36c0.27-0.135,0.495-0.225,0.72-0.36v3.33
		c-0.405,0.36-0.945,0.586-1.485,0.721c-0.27,0.09-0.585,0.135-0.9,0.135c-0.674,0-1.35-0.135-1.935-0.405
		c-0.63-0.27-1.305-0.405-2.025-0.45c-0.674,0-1.17,0.181-1.665,0.36c-0.27,0.136-0.495,0.226-0.72,0.36V589.371z M491.961,626.901
		l-0.99,2.925h-2.295l0.899-2.925h-1.395v-3.105h3.78V626.901z M488.946,615.696c0,0.899,0.045,1.979,1.26,1.979
		c1.035,0,1.305-0.495,1.305-1.979v-3.42h4.545v2.385c0,2.745-0.495,4.5-1.485,5.58c-0.99,1.08-2.43,1.484-4.365,1.484
		c-1.62,0-3.105-0.449-4.14-1.574s-1.666-2.971-1.666-5.716v-10.755c0-2.745,0.63-4.59,1.666-5.715s2.52-1.575,4.14-1.575
		c1.935,0,3.375,0.405,4.365,1.485c0.99,1.08,1.485,2.835,1.485,5.58v1.935h-4.545v-2.97c0-1.485-0.27-1.979-1.305-1.979
		c-1.215,0-1.26,1.08-1.26,1.979V615.696z M477.111,609.486c-2.205,0.944-3.15,3.149-3.15,5.489c0,0.315,0.045,0.855,0.225,1.351
		c0.179,0.54,0.495,0.944,1.035,0.944c1.035,0,1.89-0.63,1.89-1.484V609.486z M477.111,602.601c0-0.404,0-1.034-0.135-1.485
		c-0.18-0.449-0.54-0.764-1.125-0.764c-0.765,0-1.08,0.584-1.215,1.305c-0.045,0.359-0.09,0.765-0.09,1.17v1.17h-4.545v-1.035
		c0-1.8,0.675-3.42,1.755-4.635s2.609-1.936,4.365-1.936c1.485,0,2.835,0.586,3.87,1.575c1.035,0.99,1.665,2.386,1.665,4.005v15.12
		c0,2.205,0.135,3.195,0.315,4.275h-4.455c-0.405-0.495-0.405-1.665-0.405-1.98h-0.315c-0.225,0.405-0.63,0.99-1.26,1.485
		c-0.63,0.495-1.485,0.854-2.386,0.854c-0.584,0-1.529-0.225-2.25-1.125c-0.765-0.854-1.395-2.385-1.395-4.949
		c0-2.745,0.81-4.726,1.891-6.075c1.079-1.351,2.429-2.205,3.554-2.79c1.125-0.585,1.98-0.99,2.16-1.485V602.601z M468.606,601.431
		c-0.405-0.135-0.854-0.18-1.26-0.18c-0.72,0-1.574,0.09-2.295,0.765c-0.855,0.721-0.989,1.485-0.989,2.25v17.101h-4.545v-24.615
		h4.545v2.745c0.044-0.315,0.359-1.08,1.079-1.801c0.72-0.674,1.8-1.305,3.465-1.305V601.431z M452.001,609.486
		c-2.205,0.944-3.15,3.149-3.15,5.489c0,0.315,0.045,0.855,0.224,1.351c0.181,0.54,0.496,0.944,1.036,0.944
		c1.036,0,1.89-0.63,1.89-1.484V609.486z M452.001,602.601c0-0.404,0-1.034-0.136-1.485c-0.179-0.449-0.54-0.764-1.125-0.764
		c-0.765,0-1.08,0.584-1.215,1.305c-0.044,0.359-0.09,0.765-0.09,1.17v1.17h-4.545v-1.035c0-1.8,0.675-3.42,1.756-4.635
		c1.079-1.215,2.609-1.936,4.364-1.936c1.485,0,2.835,0.586,3.87,1.575c1.035,0.99,1.665,2.386,1.665,4.005v15.12
		c0,2.205,0.135,3.195,0.315,4.275h-4.455c-0.405-0.495-0.405-1.665-0.405-1.98h-0.315c-0.225,0.405-0.63,0.99-1.26,1.485
		s-1.485,0.854-2.385,0.854c-0.585,0-1.53-0.225-2.25-1.125c-0.765-0.854-1.395-2.385-1.395-4.949c0-2.745,0.81-4.726,1.89-6.075
		c1.079-1.351,2.43-2.205,3.555-2.79s1.98-0.99,2.16-1.485V602.601z M434.856,615.966c0,0.72,0.674,1.485,1.351,1.485
		c0.674,0,1.214-0.63,1.214-1.485v-13.814c0-0.855-0.54-1.485-1.214-1.485c-0.676,0-1.351,0.63-1.351,1.485V615.966z
		 M430.311,596.751h4.545v1.62c0.765-0.721,1.439-1.26,2.339-1.665c0.405-0.226,0.855-0.315,1.261-0.315
		c1.259,0,2.114,0.721,2.699,1.62c0.54,0.945,0.81,2.16,0.81,3.195v15.705c0,1.035-0.27,2.25-0.81,3.149
		c-0.585,0.945-1.44,1.665-2.699,1.665c-0.856,0-1.756-0.495-2.431-0.989c-0.405-0.315-0.765-0.631-1.17-0.99v10.08h-4.545V596.751z
		 M419.602,621.366h-4.275v-19.485c0-0.945-0.72-1.08-1.215-1.08c-0.495,0-0.9,0.27-1.214,0.585c-0.181,0.181-0.36,0.36-0.496,0.585
		v19.396h-4.545v-24.615h4.545v2.069c0.089-0.045,0.27-0.225,0.54-0.494c0.496-0.495,1.259-1.17,2.07-1.62
		c0.405-0.226,0.765-0.315,1.17-0.315c1.62,0,2.565,1.305,3.06,2.745c0.181-0.135,0.406-0.36,0.721-0.675
		c0.585-0.63,1.351-1.215,2.205-1.71c0.405-0.226,0.81-0.36,1.215-0.36c1.215,0,2.069,0.721,2.609,1.62
		c0.54,0.945,0.811,2.16,0.811,3.195v20.16h-4.275v-19.485c0-0.945-0.72-1.08-1.214-1.08c-0.496,0-0.9,0.27-1.216,0.585
		c-0.18,0.181-0.36,0.36-0.495,0.585V621.366z M400.477,602.871c0.045-0.945-0.135-1.62-0.585-2.16
		c-0.225-0.225-0.585-0.359-0.99-0.359c-0.855,0-1.214,0.584-1.395,1.26c-0.135,0.359-0.18,0.765-0.135,1.26v12.375
		c-0.045,0.945,0.18,1.62,0.585,2.115c0.225,0.225,0.54,0.359,0.945,0.359c0.855,0,1.26-0.54,1.44-1.215
		c0.135-0.36,0.181-0.765,0.135-1.26V602.871z M404.752,615.381c-0.135,2.385-0.854,4.05-2.43,5.355
		c-0.81,0.675-1.935,0.989-3.42,0.989c-2.925,0-4.365-1.62-5.085-3.239c-0.404-0.945-0.675-2.025-0.72-3.24v-12.375
		c0.135-2.385,0.854-4.141,2.43-5.49c0.766-0.675,1.891-0.99,3.375-0.99c2.925,0,4.411,1.62,5.129,3.195
		c0.406,0.945,0.676,1.98,0.721,3.15V615.381z M383.512,615.696c0,0.899,0.045,1.979,1.261,1.979c1.034,0,1.304-0.495,1.304-1.979
		v-3.42h4.545v2.385c0,2.745-0.495,4.5-1.485,5.58c-0.989,1.08-2.43,1.484-4.364,1.484c-1.621,0-3.105-0.449-4.141-1.574
		s-1.665-2.971-1.665-5.716v-10.755c0-2.745,0.63-4.59,1.665-5.715s2.52-1.575,4.141-1.575c1.935,0,3.375,0.405,4.364,1.485
		c0.99,1.08,1.485,2.835,1.485,5.58v1.935h-4.545v-2.97c0-1.485-0.27-1.979-1.304-1.979c-1.216,0-1.261,1.08-1.261,1.979V615.696z
		 M361.778,606.336h3.286v-3.465c0-0.945-0.181-1.62-0.63-2.16c-0.225-0.225-0.585-0.359-0.991-0.359
		c-0.854,0-1.214,0.584-1.439,1.26c-0.136,0.359-0.18,0.765-0.225,1.26V606.336z M369.293,612.546v2.835
		c-0.136,2.385-0.854,4.05-2.475,5.355c-0.81,0.675-1.935,0.989-3.42,0.989c-2.925,0-4.41-1.62-5.13-3.239
		c-0.405-0.945-0.675-2.025-0.72-3.24v-12.375c0.135-2.385,0.9-4.141,2.52-5.49c0.765-0.675,1.89-0.99,3.375-0.99
		c2.925,0,4.411,1.62,5.13,3.195c0.405,0.945,0.675,1.98,0.72,3.15v7.154h-7.515v5.355c0.045,0.945,0.315,1.62,0.72,2.115
		c0.225,0.225,0.54,0.359,0.944,0.359c0.855,0,1.261-0.54,1.44-1.215c0.135-0.36,0.181-0.765,0.181-1.26v-2.7H369.293z
		 M344.004,603.051c0-0.585,0-1.305-0.181-1.89c-0.225-0.54-0.584-0.99-1.304-0.99c-0.585,0-0.946,0.45-1.125,0.99
		c-0.225,0.54-0.27,1.305-0.27,1.89c0,0.766,0.405,1.575,0.99,2.295c0.54,0.721,1.26,1.44,1.98,2.115
		c0.945,0.945,2.07,2.025,2.835,3.24c0.765,1.26,1.35,2.654,1.35,4.274c0,1.575-0.36,3.24-1.26,4.5
		c-0.946,1.306-2.385,2.25-4.545,2.25c-2.744,0-4.365-1.26-5.265-2.79c-0.9-1.529-1.08-3.42-1.08-4.725h4.229
		c0,0.675,0.045,1.62,0.36,2.34c0.314,0.766,0.81,1.396,1.755,1.396c1.305,0,1.575-1.53,1.575-2.971c0-1.484-1.44-2.97-2.835-4.364
		c-1.08-1.035-2.115-1.98-2.925-3.195s-1.395-2.565-1.395-4.365c0-1.439,0.27-3.105,1.125-4.41c0.855-1.26,2.25-2.205,4.41-2.25
		c2.655-0.045,4.14,0.945,4.905,2.25c0.765,1.305,0.9,3.016,0.9,4.41H344.004z M329.198,596.751h4.545v24.615h-4.545V596.751z
		 M329.198,588.291h4.545v4.545h-4.545V588.291z M321.683,609.486c-2.205,0.944-3.15,3.149-3.15,5.489
		c0,0.315,0.045,0.855,0.225,1.351c0.181,0.54,0.495,0.944,1.035,0.944c1.035,0,1.89-0.63,1.89-1.484V609.486z M321.683,602.601
		c0-0.404,0-1.034-0.135-1.485c-0.181-0.449-0.54-0.764-1.125-0.764c-0.766,0-1.08,0.584-1.215,1.305
		c-0.045,0.359-0.091,0.765-0.091,1.17v1.17h-4.544v-1.035c0-1.8,0.675-3.42,1.755-4.635c1.079-1.215,2.61-1.936,4.364-1.936
		c1.485,0,2.835,0.586,3.871,1.575c1.034,0.99,1.665,2.386,1.665,4.005v15.12c0,2.205,0.135,3.195,0.315,4.275h-4.455
		c-0.405-0.495-0.405-1.665-0.405-1.98h-0.316c-0.224,0.405-0.629,0.99-1.259,1.485s-1.485,0.854-2.385,0.854
		c-0.585,0-1.53-0.225-2.25-1.125c-0.765-0.854-1.395-2.385-1.395-4.949c0-2.745,0.81-4.726,1.89-6.075
		c1.08-1.351,2.43-2.205,3.555-2.79c1.125-0.585,1.98-0.99,2.161-1.485V602.601z M304.448,621.366h-4.545v-24.615h4.545v2.069
		c0.09-0.045,0.27-0.225,0.54-0.494c0.495-0.495,1.169-1.17,1.98-1.62c0.405-0.226,0.765-0.315,1.17-0.315
		c1.215,0,2.07,0.721,2.61,1.62c0.54,0.945,0.81,2.16,0.81,3.195v20.16h-4.545v-19.485c0-0.945-0.54-1.08-1.08-1.08
		c-0.495,0-0.765,0.27-1.08,0.585c-0.135,0.181-0.27,0.36-0.405,0.585V621.366z M291.758,596.751h4.545v24.615h-4.545V596.751z
		 M291.758,588.291h4.545v4.545h-4.545V588.291z M280.913,622.491c-0.945,0.54-1.665,1.215-1.665,2.16c0,0.944,0.855,1.71,2.97,1.71
		c0.765,0,1.62-0.136,2.295-0.405c0.676-0.271,1.17-0.675,1.17-1.26c0-0.405-0.045-0.721-0.36-1.035
		c-0.36-0.315-0.945-0.54-2.07-0.72L280.913,622.491z M283.028,602.826c0-0.855-0.18-1.396-0.54-1.891
		c-0.18-0.225-0.45-0.359-0.855-0.359c-0.72,0-1.08,0.585-1.215,1.125c-0.09,0.314-0.135,0.72-0.09,1.125v6.75
		c-0.045,0.854,0.09,1.395,0.495,1.845c0.18,0.225,0.45,0.36,0.81,0.36c0.765,0,1.08-0.54,1.26-1.08
		c0.089-0.315,0.135-0.721,0.135-1.125V602.826z M287.482,609.486c-0.135,2.295-0.944,3.915-2.52,5.13
		c-0.81,0.63-1.935,0.944-3.33,0.944h-0.405c-0.135,0-0.315,0-0.45-0.045c-0.405,0.36-0.63,0.721-0.63,1.125
		c0,0.54,0.45,0.855,1.125,1.035c0.675,0.226,1.485,0.36,2.34,0.495c1.44,0.18,2.97,0.54,4.23,1.396
		c1.215,0.854,2.07,2.159,2.07,4.319c0,2.385-1.035,4.005-2.475,4.95c-1.485,0.945-3.466,1.35-5.311,1.35
		c-2.16-0.045-4.005-0.359-5.265-1.08c-1.305-0.72-2.025-1.89-2.025-3.689c0-0.855,0.45-1.575,1.125-2.205s1.575-1.125,2.43-1.53
		c-1.486-0.404-2.745-1.35-2.745-3.285c0-0.72,0.405-1.439,0.945-2.114c0.54-0.676,1.215-1.215,1.89-1.575
		c-1.305-0.855-1.935-2.205-2.25-3.33c-0.18-0.675-0.314-1.35-0.359-2.025v-6.705c0.18-2.294,0.899-3.96,2.475-5.265
		c0.765-0.675,1.89-0.99,3.285-0.99c2.295,0,3.69,1.035,4.545,2.25c0.315-0.314,0.855-0.854,1.575-1.35
		c0.675-0.495,1.439-0.9,2.16-0.9v4.051c-1.215,0-2.115,0.225-2.655,0.539c0.045,0.226,0.09,0.45,0.135,0.586
		c0,0.18,0,0.359,0.045,0.494c0.044,0.136,0.044,0.315,0.044,0.45V609.486z M268.223,596.751h4.545v24.615h-4.545V596.751z
		 M268.223,588.291h4.545v4.545h-4.545V588.291z M266.244,601.431c-0.405-0.135-0.855-0.18-1.26-0.18
		c-0.72,0-1.575,0.09-2.294,0.765c-0.855,0.721-0.991,1.485-0.991,2.25v17.101h-4.545v-24.615h4.545v2.745
		c0.045-0.315,0.36-1.08,1.08-1.801c0.72-0.674,1.8-1.305,3.465-1.305V601.431z M249.774,602.871c0.045-0.945-0.135-1.62-0.584-2.16
		c-0.226-0.225-0.585-0.359-0.991-0.359c-0.855,0-1.215,0.584-1.395,1.26c-0.135,0.359-0.18,0.765-0.135,1.26v12.375
		c-0.045,0.945,0.18,1.62,0.585,2.115c0.226,0.225,0.54,0.359,0.945,0.359c0.855,0,1.26-0.54,1.44-1.215
		c0.135-0.36,0.18-0.765,0.135-1.26V602.871z M254.049,615.381c-0.135,2.385-0.855,4.05-2.43,5.355
		c-0.81,0.675-1.936,0.989-3.42,0.989c-2.925,0-4.365-1.62-5.085-3.239c-0.405-0.945-0.674-2.025-0.72-3.24v-12.375
		c0.135-2.385,0.855-4.141,2.429-5.49c0.766-0.675,1.891-0.99,3.375-0.99c2.925,0,4.41,1.62,5.13,3.195
		c0.405,0.945,0.675,1.98,0.72,3.15V615.381z M228.894,603.051c0-0.585,0-1.305-0.18-1.89c-0.225-0.54-0.585-0.99-1.305-0.99
		c-0.585,0-0.945,0.45-1.125,0.99c-0.224,0.54-0.27,1.305-0.27,1.89c0,0.766,0.405,1.575,0.99,2.295
		c0.54,0.721,1.26,1.44,1.98,2.115c0.945,0.945,2.07,2.025,2.835,3.24c0.765,1.26,1.35,2.654,1.35,4.274c0,1.575-0.36,3.24-1.26,4.5
		c-0.945,1.306-2.385,2.25-4.545,2.25c-2.745,0-4.365-1.26-5.265-2.79c-0.9-1.529-1.08-3.42-1.08-4.725h4.23
		c0,0.675,0.045,1.62,0.359,2.34c0.315,0.766,0.811,1.396,1.755,1.396c1.305,0,1.576-1.53,1.576-2.971
		c0-1.484-1.44-2.97-2.835-4.364c-1.081-1.035-2.116-1.98-2.926-3.195c-0.81-1.215-1.396-2.565-1.396-4.365
		c0-1.439,0.271-3.105,1.125-4.41c0.855-1.26,2.25-2.205,4.41-2.25c2.655-0.045,4.14,0.945,4.905,2.25
		c0.765,1.305,0.9,3.016,0.9,4.41H228.894z M214.719,602.871c0.045-0.945-0.135-1.62-0.585-2.16
		c-0.225-0.225-0.585-0.359-0.99-0.359c-0.855,0-1.215,0.584-1.395,1.26c-0.135,0.359-0.18,0.765-0.135,1.26v12.375
		c-0.045,0.945,0.18,1.62,0.585,2.115c0.225,0.225,0.54,0.359,0.945,0.359c0.855,0,1.26-0.54,1.44-1.215
		c0.135-0.36,0.18-0.765,0.135-1.26V602.871z M218.994,615.381c-0.136,2.385-0.855,4.05-2.43,5.355
		c-0.811,0.675-1.936,0.989-3.42,0.989c-2.925,0-4.365-1.62-5.085-3.239c-0.405-0.945-0.675-2.025-0.72-3.24v-12.375
		c0.135-2.385,0.855-4.141,2.43-5.49c0.764-0.675,1.89-0.99,3.375-0.99c2.925,0,4.41,1.62,5.13,3.195
		c0.405,0.945,0.675,1.98,0.72,3.15V615.381z M199.6,602.151c0-0.721-0.675-1.485-1.35-1.485c-0.675,0-1.215,0.63-1.215,1.485
		v13.814c0,0.855,0.54,1.485,1.215,1.485c0.675,0,1.35-0.63,1.35-1.485V602.151z M204.145,621.366H199.6v-1.62
		c-0.765,0.72-1.44,1.26-2.295,1.665c-0.449,0.225-0.9,0.314-1.305,0.314c-1.261,0-2.115-0.72-2.655-1.665
		c-0.585-0.899-0.855-2.114-0.855-3.149v-15.705c0-1.035,0.271-2.25,0.855-3.195c0.54-0.899,1.395-1.62,2.655-1.62
		c0.855,0,1.755,0.495,2.43,0.99c0.405,0.314,0.765,0.63,1.17,0.99v-10.08h4.545V621.366z M178.27,602.871
		c0.044-0.945-0.135-1.62-0.585-2.16c-0.225-0.225-0.585-0.359-0.99-0.359c-0.855,0-1.215,0.584-1.395,1.26
		c-0.135,0.359-0.18,0.765-0.135,1.26v12.375c-0.045,0.945,0.18,1.62,0.585,2.115c0.225,0.225,0.54,0.359,0.945,0.359
		c0.855,0,1.26-0.54,1.44-1.215c0.135-0.36,0.18-0.765,0.135-1.26V602.871z M182.545,615.381c-0.136,2.385-0.855,4.05-2.43,5.355
		c-0.81,0.675-1.935,0.989-3.42,0.989c-2.925,0-4.365-1.62-5.085-3.239c-0.405-0.945-0.675-2.025-0.72-3.24v-12.375
		c0.135-2.385,0.855-4.141,2.43-5.49c0.765-0.675,1.89-0.99,3.375-0.99c2.925,0,4.411,1.62,5.13,3.195
		c0.405,0.945,0.675,1.98,0.72,3.15V615.381z M163.195,609.486c-2.206,0.944-3.15,3.149-3.15,5.489c0,0.315,0.045,0.855,0.225,1.351
		c0.179,0.54,0.495,0.944,1.035,0.944c1.035,0,1.89-0.63,1.89-1.484V609.486z M163.195,602.601c0-0.404,0-1.034-0.135-1.485
		c-0.18-0.449-0.54-0.764-1.125-0.764c-0.765,0-1.08,0.584-1.215,1.305c-0.045,0.359-0.09,0.765-0.09,1.17v1.17h-4.545v-1.035
		c0-1.8,0.675-3.42,1.755-4.635s2.609-1.936,4.365-1.936c1.485,0,2.835,0.586,3.87,1.575c1.035,0.99,1.665,2.386,1.665,4.005v15.12
		c0,2.205,0.136,3.195,0.315,4.275H163.6c-0.405-0.495-0.405-1.665-0.405-1.98h-0.315c-0.225,0.405-0.63,0.99-1.26,1.485
		c-0.631,0.495-1.485,0.854-2.386,0.854c-0.584,0-1.529-0.225-2.25-1.125c-0.765-0.854-1.395-2.385-1.395-4.949
		c0-2.745,0.81-4.726,1.89-6.075c1.08-1.351,2.429-2.205,3.555-2.79c1.125-0.585,1.98-0.99,2.16-1.485V602.601z M157.659,589.371
		c0.405-0.315,0.946-0.54,1.486-0.721c0.27-0.09,0.585-0.135,0.9-0.135c0.675,0,1.35,0.135,1.979,0.36
		c0.63,0.271,1.306,0.45,1.98,0.495c0.675,0,1.17-0.18,1.665-0.36c0.27-0.135,0.495-0.225,0.72-0.36v3.33
		c-0.405,0.36-0.945,0.586-1.485,0.721c-0.27,0.09-0.585,0.135-0.9,0.135c-0.675,0-1.35-0.135-1.935-0.405
		c-0.63-0.27-1.305-0.405-2.025-0.45c-0.675,0-1.17,0.181-1.665,0.36c-0.27,0.136-0.495,0.226-0.721,0.36V589.371z M149.561,626.901
		l-0.99,2.925h-2.295l0.9-2.925h-1.395v-3.105h3.78V626.901z M146.546,615.696c0,0.899,0.045,1.979,1.26,1.979
		c1.035,0,1.305-0.495,1.305-1.979v-3.42h4.545v2.385c0,2.745-0.495,4.5-1.485,5.58s-2.43,1.484-4.365,1.484
		c-1.62,0-3.105-0.449-4.14-1.574c-1.035-1.125-1.665-2.971-1.665-5.716v-10.755c0-2.745,0.63-4.59,1.665-5.715
		c1.035-1.125,2.52-1.575,4.14-1.575c1.935,0,3.375,0.405,4.365,1.485s1.485,2.835,1.485,5.58v1.935h-4.545v-2.97
		c0-1.485-0.27-1.979-1.305-1.979c-1.215,0-1.26,1.08-1.26,1.979V615.696z M134.711,609.486c-2.205,0.944-3.15,3.149-3.15,5.489
		c0,0.315,0.045,0.855,0.225,1.351c0.18,0.54,0.495,0.944,1.035,0.944c1.036,0,1.89-0.63,1.89-1.484V609.486z M134.711,602.601
		c0-0.404,0-1.034-0.136-1.485c-0.179-0.449-0.539-0.764-1.125-0.764c-0.765,0-1.08,0.584-1.215,1.305
		c-0.045,0.359-0.089,0.765-0.089,1.17v1.17h-4.545v-1.035c0-1.8,0.675-3.42,1.755-4.635c1.08-1.215,2.609-1.936,4.364-1.936
		c1.485,0,2.835,0.586,3.87,1.575c1.035,0.99,1.665,2.386,1.665,4.005v15.12c0,2.205,0.135,3.195,0.315,4.275h-4.456
		c-0.404-0.495-0.404-1.665-0.404-1.98h-0.314c-0.226,0.405-0.631,0.99-1.261,1.485s-1.485,0.854-2.385,0.854
		c-0.585,0-1.53-0.225-2.25-1.125c-0.765-0.854-1.395-2.385-1.395-4.949c0-2.745,0.81-4.726,1.89-6.075
		c1.079-1.351,2.43-2.205,3.555-2.79s1.98-0.99,2.16-1.485V602.601z M114.596,617.676l6.255-16.785h-5.265v-4.14h10.08v3.69
		l-6.255,16.784h6.255v4.141h-11.07V617.676z M107.981,596.751h4.544v24.615h-4.544V596.751z M107.981,588.291h4.544v4.545h-4.544
		V588.291z M99.836,588.291h4.545v33.075h-4.545V588.291z M92.321,609.486c-2.206,0.944-3.15,3.149-3.15,5.489
		c0,0.315,0.045,0.855,0.226,1.351c0.179,0.54,0.495,0.944,1.034,0.944c1.035,0,1.89-0.63,1.89-1.484V609.486z M92.321,602.601
		c0-0.404,0-1.034-0.135-1.485c-0.18-0.449-0.54-0.764-1.125-0.764c-0.765,0-1.08,0.584-1.215,1.305
		c-0.045,0.359-0.09,0.765-0.09,1.17v1.17h-4.545v-1.035c0-1.8,0.675-3.42,1.755-4.635s2.609-1.936,4.365-1.936
		c1.485,0,2.835,0.586,3.87,1.575c1.035,0.99,1.665,2.386,1.665,4.005v15.12c0,2.205,0.136,3.195,0.315,4.275h-4.455
		c-0.405-0.495-0.405-1.665-0.405-1.98h-0.315c-0.225,0.405-0.63,0.99-1.26,1.485c-0.631,0.495-1.485,0.854-2.385,0.854
		c-0.585,0-1.53-0.225-2.25-1.125c-0.765-0.854-1.395-2.385-1.395-4.949c0-2.745,0.81-4.726,1.891-6.075
		c1.08-1.351,2.43-2.205,3.555-2.79s1.98-0.99,2.16-1.485V602.601z M77.291,596.751h4.545v24.615h-4.545v-2.07
		c-0.09,0.045-0.27,0.225-0.495,0.45c-0.54,0.54-1.17,1.17-1.98,1.62c-0.405,0.225-0.81,0.359-1.215,0.359
		c-1.215,0-2.07-0.72-2.61-1.665c-0.54-0.899-0.81-2.114-0.81-3.149v-20.16h4.545v19.485c0,0.944,0.54,1.08,1.08,1.08
		c0.495,0,0.765-0.271,1.08-0.586c0.136-0.135,0.27-0.359,0.405-0.585V596.751z M63.296,603.051c0-0.585,0-1.305-0.181-1.89
		c-0.224-0.54-0.584-0.99-1.304-0.99c-0.585,0-0.946,0.45-1.125,0.99c-0.225,0.54-0.27,1.305-0.27,1.89
		c0,0.766,0.405,1.575,0.99,2.295c0.54,0.721,1.26,1.44,1.98,2.115c0.945,0.945,2.07,2.025,2.835,3.24
		c0.765,1.26,1.35,2.654,1.35,4.274c0,1.575-0.36,3.24-1.26,4.5c-0.946,1.306-2.385,2.25-4.545,2.25c-2.744,0-4.365-1.26-5.265-2.79
		c-0.9-1.529-1.08-3.42-1.08-4.725h4.229c0,0.675,0.045,1.62,0.36,2.34c0.314,0.766,0.81,1.396,1.755,1.396
		c1.305,0,1.575-1.53,1.575-2.971c0-1.484-1.44-2.97-2.835-4.364c-1.08-1.035-2.115-1.98-2.925-3.195
		c-0.81-1.215-1.395-2.565-1.395-4.365c0-1.439,0.27-3.105,1.125-4.41c0.855-1.26,2.25-2.205,4.41-2.25
		c2.655-0.045,4.14,0.945,4.905,2.25s0.9,3.016,0.9,4.41H63.296z M48.491,596.751h4.545v24.615h-4.545V596.751z M48.491,588.291
		h4.545v4.545h-4.545V588.291z M41.561,588.291h4.725l-5.04,33.075h-4.86l-5.04-33.075h4.725l2.43,18.18l0.18,1.396h0.27l0.18-1.396
		L41.561,588.291z"/>
	<path clip-path="url(#SVGID_2_)" fill="#231F20" d="M147.313,907.167v-40.605h44.977v-24.956h-44.977v-37.504h25.379
		c3.853,0,7.072,0.352,9.657,1.057c2.584,0.705,4.654,1.952,6.205,3.736c1.551,1.787,2.608,4.279,3.171,7.473
		c0.564,3.197,0.847,7.285,0.847,12.267h49.348v-76.842H41.004v52.31c8.27,0,14.192,1.104,17.765,3.312
		c3.571,2.21,5.358,6.415,5.358,12.619v71.343c0,6.111-1.787,10.271-5.358,12.479c-3.573,2.209-9.495,3.312-17.765,3.312v52.31
		H241.92v-76.842h-49.348c0,4.982-0.282,9.071-0.847,12.267c-0.563,3.196-1.62,5.71-3.171,7.543
		c-1.551,1.833-3.621,3.08-6.205,3.736c-2.585,0.659-5.804,0.986-9.657,0.986H147.313z"/>
	<path clip-path="url(#SVGID_2_)" fill="#231F20" d="M488.093,467.698c-2.267-5.285-5.37-9.819-9.294-13.603
		c-3.932-3.776-8.544-6.801-13.829-9.068c-5.292-2.268-10.811-3.401-16.55-3.401c-6.05,0-11.64,1.134-16.776,3.401
		c-5.144,2.268-9.678,5.292-13.603,9.068c-3.932,3.783-7.028,8.317-9.295,13.603c-2.267,5.292-3.401,10.96-3.401,17.003
		c0,6.05,1.134,11.719,3.401,17.003c2.267,5.292,5.363,9.827,9.295,13.603c3.925,3.783,8.459,6.802,13.603,9.068
		c5.136,2.268,10.726,3.401,16.776,3.401c5.739,0,11.258-1.134,16.55-3.401c5.285-2.267,9.897-5.285,13.829-9.068
		c3.925-3.775,7.028-8.311,9.294-13.603c2.269-5.284,3.401-10.953,3.401-17.003C491.494,478.658,490.361,472.99,488.093,467.698
		 M184.529,385.402c14.205,0,25.916,3.252,35.14,9.749c9.217,6.503,13.829,16.854,13.829,31.06c0,13.305-4.307,24.03-12.922,32.192
		c-8.615,8.161-20.935,12.242-36.954,12.242c-18.746,0-32.802-5.285-42.168-15.87c-9.373-10.577-14.056-23.124-14.056-37.635
		v-16.322H67.547v19.044c0,14.509,2.72,28.269,8.161,41.261c5.441,13.001,13.22,24.485,23.351,34.46
		c10.124,9.976,22.445,17.839,36.954,23.578c14.509,5.738,30.677,8.615,48.516,8.615c17.528,0,33.1-2.572,46.702-7.708
		c13.603-5.137,25.009-12.165,34.233-21.084c9.217-8.913,16.168-19.419,20.858-31.514c4.683-12.086,7.027-25.235,7.027-39.447
		v-5.441c0-14.509-2.571-27.127-7.708-37.859c-5.144-10.727-11.866-19.725-20.177-26.979c-8.317-7.254-17.91-12.617-28.792-16.096
		c-10.882-3.472-21.92-5.214-33.099-5.214h-10.882v-8.162l84.336-24.485v-99.752H70.267v57.131h157.79v8.161l-78.895,21.766v94.311
		H184.529z"/>
</g>
<line fill="none" stroke="#0046F9" stroke-width="2" x1="279.443" y1="722" x2="279.443" y2="976"/>
<g>
	<defs>
		<rect id="SVGID_155_" width="564" height="1002"/>
	</defs>
	<clipPath id="SVGID_4_">
		<use xlink:href="#SVGID_155_"  overflow="visible"/>
	</clipPath>
	<polygon clip-path="url(#SVGID_4_)" fill="none" stroke="#0046F9" stroke-width="1.998" points="0.999,3 0.999,999 0.999,1001.002 
		3,1001.002 561,1001.002 563.001,1001.002 563.001,999 563.001,3 563.001,0.998 561,0.998 3,0.998 0.999,0.998 	"/>
</g>
<rect x="5.001" y="5.002" fill="none" stroke="#0046F9" stroke-width="1.998" width="553.997" height="991.996"/>
<polygon fill="#0046F9" points="318.531,843.163 318.887,864.182 412.22,864.182 412.22,949.676 412.22,950.39 519.089,853.494 
	519.089,853.137 412.22,757.312 412.22,757.667 412.22,843.163 "/>
<line fill="none" stroke="#0046F9" stroke-width="2" x1="23.944" y1="164" x2="536.944" y2="164"/>
<line fill="none" stroke="#0046F9" stroke-width="2" x1="23.944" y1="561" x2="536.944" y2="561"/>
<line fill="none" stroke="#0046F9" stroke-width="2" x1="23.944" y1="702" x2="536.944" y2="702"/>
</svg>
