<?xml version="1.0" encoding="utf-8"?>
<!-- Generator: Adobe Illustrator 16.0.0, SVG Export Plug-In . SVG Version: 6.00 Build 0)  -->
<!DOCTYPE svg PUBLIC "-//W3C//DTD SVG 1.1//EN" "http://www.w3.org/Graphics/SVG/1.1/DTD/svg11.dtd">
<svg version="1.1" id="Layer_1" xmlns="http://www.w3.org/2000/svg" xmlns:xlink="http://www.w3.org/1999/xlink" x="0px" y="0px"
	 width="564px" height="1002px" viewBox="0 0 564 1002" enable-background="new 0 0 564 1002" xml:space="preserve">
<g>
	<defs>
		<rect id="SVGID_149_" width="564" height="1002"/>
	</defs>
	<clipPath id="SVGID_2_">
		<use xlink:href="#SVGID_149_"  overflow="visible"/>
	</clipPath>
	<path clip-path="url(#SVGID_2_)" fill="#FF1419" d="M509.292,78.979h14.52v-3.96c0-3.152-0.605-6.16-1.814-9.02
		c-1.211-2.86-3.009-5.39-5.391-7.59c-2.384-2.2-5.335-3.941-8.855-5.225c-3.52-1.282-7.554-1.925-12.1-1.925
		c-4.034,0-7.683,0.55-10.945,1.65c-3.264,1.1-6.05,2.64-8.36,4.62c-2.31,1.98-4.108,4.309-5.39,6.985
		c-1.284,2.678-1.925,5.593-1.925,8.745v0.66c0,3.814,0.66,7.04,1.98,9.68c1.32,2.64,3.171,4.84,5.555,6.6
		c2.382,1.76,5.187,3.173,8.415,4.235c3.226,1.064,6.782,1.925,10.67,2.585c2.932,0.514,5.352,1.138,7.26,1.87
		c1.906,0.734,3.41,1.559,4.51,2.475c1.1,0.918,1.87,1.944,2.31,3.08c0.439,1.138,0.66,2.329,0.66,3.575
		c0,2.64-1.064,4.914-3.19,6.82c-2.128,1.908-5.39,2.86-9.79,2.86c-5.648,0-9.809-1.375-12.485-4.125
		c-2.678-2.75-4.015-6.435-4.015-11.055v-2.64h-14.52v3.3c0,4.034,0.659,7.755,1.98,11.165c1.32,3.41,3.261,6.38,5.83,8.91
		c2.566,2.53,5.775,4.51,9.625,5.94c3.85,1.43,8.305,2.145,13.365,2.145c4.326,0,8.212-0.55,11.66-1.65
		c3.446-1.1,6.38-2.676,8.8-4.73c2.42-2.052,4.271-4.527,5.555-7.425c1.282-2.896,1.925-6.141,1.925-9.735v-1.32
		c0-6.746-2.128-11.842-6.379-15.29c-4.254-3.446-10.414-5.902-18.48-7.37c-3.228-0.586-5.885-1.21-7.975-1.87
		c-2.09-0.66-3.778-1.411-5.06-2.255c-1.284-0.842-2.183-1.796-2.695-2.86c-0.514-1.062-0.77-2.255-0.77-3.575
		c0-2.566,1.062-4.601,3.19-6.105c2.125-1.502,5.022-2.255,8.69-2.255c4.326,0,7.681,1.138,10.065,3.41
		c2.382,2.274,3.575,4.95,3.575,8.03V78.979z M400.281,129.799h49.94v-13.86h-35.42v-17.82h32.781v-13.86h-32.781v-17.6h34.101
		v-13.86h-48.62V129.799z M351.606,28.379c-1.358-0.66-2.769-0.99-4.235-0.99c-1.834,0-3.52,0.368-5.06,1.1
		c-1.54,0.734-3.008,1.98-4.4,3.74l-6.16,7.92l8.47,6.71l3.3-4.18c0.586-0.806,1.191-1.447,1.815-1.925
		c0.622-0.476,1.447-0.715,2.475-0.715c1.026,0,1.832,0.275,2.42,0.825c0.586,0.55,1.172,1.155,1.76,1.815
		c1.246,1.468,2.547,2.53,3.905,3.19c1.355,0.66,2.767,0.99,4.234,0.99c1.907,0,3.63-0.385,5.17-1.155
		c1.54-0.77,2.971-1.997,4.29-3.685l6.161-7.92l-8.47-6.71l-3.3,4.18c-0.588,0.808-1.192,1.449-1.815,1.925
		c-0.624,0.479-1.449,0.715-2.475,0.715c-1.028,0-1.834-0.275-2.42-0.825c-0.588-0.55-1.174-1.155-1.76-1.815
		C354.263,30.104,352.962,29.04,351.606,28.379 M347.151,116.875c-1.76-0.842-3.19-2.035-4.29-3.575s-1.87-3.372-2.311-5.5
		c-0.439-2.126-0.659-4.472-0.659-7.04v-18.92c0-2.42,0.256-4.692,0.77-6.82c0.511-2.126,1.32-3.96,2.42-5.5s2.53-2.767,4.29-3.685
		c1.759-0.916,3.885-1.375,6.38-1.375c2.492,0,4.62,0.459,6.379,1.375c1.761,0.918,3.19,2.145,4.291,3.685
		c1.1,1.54,1.905,3.374,2.419,5.5c0.513,2.128,0.771,4.4,0.771,6.82v18.92c0,2.568-0.22,4.914-0.66,7.04
		c-0.44,2.128-1.21,3.96-2.31,5.5c-1.1,1.54-2.53,2.733-4.29,3.575c-1.761,0.844-3.96,1.265-6.6,1.265
		S348.912,117.718,347.151,116.875 M325.372,99.879c0,10.268,2.511,18.078,7.535,23.43c5.021,5.354,11.971,8.03,20.845,8.03
		c8.872,0,15.821-2.676,20.844-8.03c5.022-5.352,7.535-13.162,7.535-23.43v-17.16c0-9.972-2.513-17.71-7.535-23.21
		c-5.023-5.5-11.972-8.25-20.844-8.25c-8.874,0-15.824,2.75-20.845,8.25c-5.024,5.5-7.535,13.238-7.535,23.21V99.879z
		 M276.256,116.875c-1.798-0.842-3.245-2.035-4.345-3.575c-1.1-1.54-1.908-3.355-2.42-5.445c-0.514-2.09-0.77-4.381-0.77-6.875
		v-19.36c0-2.271,0.275-4.455,0.825-6.545c0.55-2.09,1.411-3.922,2.584-5.5c1.172-1.576,2.641-2.822,4.4-3.74
		c1.76-0.916,3.85-1.375,6.27-1.375c2.641,0,4.841,0.459,6.601,1.375c1.76,0.918,3.152,2.109,4.18,3.575
		c1.026,1.468,1.759,3.118,2.2,4.95c0.44,1.834,0.66,3.668,0.66,5.5v1.98h14.52v-1.98c0-4.4-0.605-8.36-1.815-11.88
		s-3.008-6.526-5.39-9.02c-2.383-2.492-5.334-4.4-8.855-5.72c-3.521-1.32-7.554-1.98-12.101-1.98c-4.399,0-8.359,0.715-11.879,2.145
		c-3.52,1.43-6.528,3.484-9.02,6.16c-2.494,2.678-4.4,5.978-5.72,9.9c-1.32,3.924-1.98,8.343-1.98,13.255v17.16
		c0,9.46,2.162,16.83,6.49,22.11c4.326,5.28,10.302,8.322,17.93,9.13l-1.87,8.8v1.32h10.67c0.22-1.028,0.952-1.54,2.2-1.54
		c0.732,0,1.282,0.237,1.65,0.715c0.366,0.476,0.55,1.045,0.55,1.705c0,0.88-0.35,1.576-1.045,2.09
		c-0.698,0.512-1.595,0.77-2.695,0.77c-1.98,0-3.814-0.514-5.5-1.54l-2.86,7.48c1.246,0.66,2.566,1.191,3.96,1.595
		c1.392,0.402,3.152,0.604,5.28,0.604c3.446,0,6.325-0.973,8.634-2.915c2.311-1.944,3.466-4.639,3.466-8.085
		c0-2.64-0.753-4.914-2.255-6.82c-1.504-1.908-3.795-2.86-6.875-2.86c-1.394,0-2.494,0.237-3.301,0.715
		c-0.808,0.476-1.394,1.045-1.759,1.705h-1.321l0.771-3.63c7.992-0.66,14.097-3.427,18.314-8.305
		c4.217-4.876,6.326-11.605,6.326-20.185v-1.98h-14.52v1.98c0,1.98-0.185,3.905-0.55,5.775c-0.368,1.87-1.045,3.52-2.035,4.95
		s-2.385,2.568-4.18,3.41c-1.798,0.844-4.089,1.265-6.875,1.265C280.233,118.14,278.052,117.718,276.256,116.875 M185.671,66.659
		h18.48v49.28h-18.48v13.86h51.48v-13.86h-18.48v-49.28h18.48v-13.86h-51.48V66.659z M133.421,115.939v-49.28h6.16
		c5.06,0,8.597,1.138,10.615,3.41c2.016,2.274,3.025,5.61,3.025,10.01v21.12c0,5.06-1.009,8.783-3.025,11.165
		c-2.018,2.384-5.555,3.575-10.615,3.575H133.421z M111.642,66.659h7.26v49.17h-7.26v13.97h27.94c9.532,0,16.61-2.217,21.23-6.655
		c4.62-4.436,6.93-11.311,6.93-20.625V80.08c0-9.312-2.31-16.187-6.93-20.625c-4.62-4.436-11.698-6.655-21.23-6.655h-27.94V66.659z
		 M44.432,129.799h49.94v-13.86h-35.42v-17.82h32.78v-13.86h-32.78v-17.6h34.1v-13.86H44.432V129.799z"/>
	<path clip-path="url(#SVGID_2_)" fill="#231F20" d="M230.814,265.868c0-0.585,0-1.305-0.18-1.89c-0.226-0.54-0.585-0.99-1.305-0.99
		c-0.585,0-0.945,0.45-1.125,0.99c-0.225,0.54-0.27,1.305-0.27,1.89c0,0.765,0.405,1.575,0.99,2.295c0.54,0.72,1.26,1.44,1.98,2.115
		c0.945,0.945,2.07,2.025,2.834,3.24c0.766,1.26,1.351,2.655,1.351,4.275c0,1.575-0.36,3.24-1.26,4.5
		c-0.945,1.305-2.385,2.25-4.545,2.25c-2.745,0-4.365-1.26-5.265-2.79c-0.9-1.53-1.08-3.42-1.08-4.725h4.23
		c0,0.675,0.045,1.62,0.36,2.34c0.315,0.765,0.81,1.395,1.755,1.395c1.305,0,1.575-1.53,1.575-2.97c0-1.485-1.44-2.97-2.835-4.365
		c-1.08-1.035-2.115-1.98-2.925-3.195s-1.395-2.565-1.395-4.365c0-1.44,0.27-3.105,1.125-4.41c0.855-1.26,2.25-2.205,4.41-2.25
		c2.656-0.045,4.141,0.945,4.906,2.25c0.764,1.305,0.899,3.015,0.899,4.41H230.814z M213.489,269.153h3.285v-3.465
		c0-0.945-0.18-1.62-0.629-2.16c-0.226-0.225-0.586-0.36-0.991-0.36c-0.855,0-1.215,0.585-1.44,1.26
		c-0.135,0.36-0.18,0.765-0.226,1.26V269.153z M221.005,275.363v2.835c-0.135,2.385-0.855,4.05-2.475,5.355
		c-0.81,0.675-1.935,0.99-3.42,0.99c-2.925,0-4.411-1.62-5.13-3.24c-0.405-0.945-0.675-2.025-0.72-3.24v-12.375
		c0.136-2.385,0.899-4.14,2.52-5.49c0.765-0.675,1.89-0.99,3.375-0.99c2.925,0,4.41,1.62,5.13,3.195
		c0.405,0.945,0.675,1.98,0.72,3.15v7.155h-7.516v5.355c0.045,0.945,0.315,1.62,0.721,2.115c0.225,0.225,0.54,0.36,0.945,0.36
		c0.855,0,1.26-0.54,1.44-1.215c0.135-0.36,0.18-0.765,0.18-1.26v-2.7H221.005z M202.15,265.688c0.045-0.945-0.135-1.62-0.585-2.16
		c-0.225-0.225-0.584-0.36-0.99-0.36c-0.855,0-1.215,0.585-1.395,1.26c-0.135,0.36-0.18,0.765-0.135,1.26v12.375
		c-0.045,0.945,0.18,1.62,0.585,2.115c0.226,0.225,0.54,0.36,0.945,0.36c0.855,0,1.26-0.54,1.44-1.215
		c0.135-0.36,0.18-0.765,0.135-1.26V265.688z M206.425,278.198c-0.135,2.385-0.855,4.05-2.43,5.355
		c-0.81,0.675-1.935,0.99-3.42,0.99c-2.925,0-4.365-1.62-5.085-3.24c-0.404-0.945-0.675-2.025-0.719-3.24v-12.375
		c0.135-2.385,0.855-4.14,2.429-5.49c0.766-0.675,1.891-0.99,3.375-0.99c2.925,0,4.41,1.62,5.13,3.195
		c0.405,0.945,0.675,1.98,0.72,3.15V278.198z M196.255,252.188c0.404-0.315,0.944-0.54,1.484-0.72c0.271-0.09,0.585-0.135,0.9-0.135
		c0.675,0,1.35,0.135,1.98,0.36c0.63,0.27,1.305,0.45,1.98,0.495c0.675,0,1.17-0.18,1.665-0.36c0.27-0.135,0.495-0.225,0.72-0.36
		v3.33c-0.405,0.36-0.944,0.585-1.484,0.72c-0.27,0.09-0.585,0.135-0.9,0.135c-0.675,0-1.35-0.135-1.935-0.405
		c-0.63-0.27-1.305-0.405-2.025-0.45c-0.675,0-1.17,0.18-1.665,0.36c-0.27,0.135-0.495,0.225-0.72,0.36V252.188z M188.201,289.718
		l-0.99,2.925h-2.295l0.9-2.925h-1.395v-3.105h3.78V289.718z M185.186,278.513c0,0.9,0.046,1.98,1.26,1.98
		c1.036,0,1.305-0.495,1.305-1.98v-3.42h4.545v2.385c0,2.745-0.495,4.5-1.485,5.58c-0.99,1.08-2.43,1.485-4.365,1.485
		c-1.621,0-3.105-0.45-4.14-1.575c-1.034-1.125-1.665-2.97-1.665-5.715v-10.755c0-2.745,0.631-4.59,1.665-5.715
		c1.035-1.125,2.52-1.575,4.14-1.575c1.935,0,3.375,0.405,4.365,1.485c0.99,1.08,1.485,2.835,1.485,5.58v1.935h-4.545v-2.97
		c0-1.485-0.27-1.98-1.305-1.98c-1.214,0-1.26,1.08-1.26,1.98V278.513z M172.946,259.568h4.545v24.615h-4.545V259.568z
		 M172.946,251.108h4.545v4.545h-4.545V251.108z M170.966,264.248c-0.405-0.135-0.855-0.18-1.26-0.18
		c-0.72,0-1.575,0.09-2.295,0.765c-0.854,0.72-0.989,1.485-0.989,2.25v17.1h-4.545v-24.615h4.545v2.745
		c0.045-0.315,0.36-1.08,1.08-1.8c0.72-0.675,1.8-1.305,3.465-1.305V264.248z M151.977,278.513c0,0.9,0.046,1.98,1.26,1.98
		c1.036,0,1.305-0.495,1.305-1.98v-3.42h4.545v2.385c0,2.745-0.495,4.5-1.485,5.58c-0.99,1.08-2.43,1.485-4.365,1.485
		c-1.62,0-3.105-0.45-4.14-1.575c-1.034-1.125-1.665-2.97-1.665-5.715v-10.755c0-2.745,0.631-4.59,1.665-5.715
		c1.035-1.125,2.52-1.575,4.14-1.575c1.935,0,3.375,0.405,4.365,1.485c0.99,1.08,1.485,2.835,1.485,5.58v1.935h-4.545v-2.97
		c0-1.485-0.27-1.98-1.305-1.98c-1.214,0-1.26,1.08-1.26,1.98V278.513z M140.816,265.868c0-0.585,0-1.305-0.18-1.89
		c-0.225-0.54-0.585-0.99-1.305-0.99c-0.585,0-0.945,0.45-1.125,0.99c-0.225,0.54-0.27,1.305-0.27,1.89
		c0,0.765,0.404,1.575,0.989,2.295c0.54,0.72,1.261,1.44,1.98,2.115c0.945,0.945,2.07,2.025,2.834,3.24
		c0.766,1.26,1.351,2.655,1.351,4.275c0,1.575-0.36,3.24-1.26,4.5c-0.945,1.305-2.385,2.25-4.545,2.25
		c-2.745,0-4.365-1.26-5.264-2.79c-0.901-1.53-1.081-3.42-1.081-4.725h4.23c0,0.675,0.045,1.62,0.359,2.34
		c0.315,0.765,0.811,1.395,1.755,1.395c1.305,0,1.575-1.53,1.575-2.97c0-1.485-1.44-2.97-2.835-4.365
		c-1.08-1.035-2.115-1.98-2.925-3.195c-0.81-1.215-1.395-2.565-1.395-4.365c0-1.44,0.27-3.105,1.125-4.41
		c0.855-1.26,2.25-2.205,4.409-2.25c2.656-0.045,4.141,0.945,4.906,2.25c0.764,1.305,0.899,3.015,0.899,4.41H140.816z
		 M123.537,284.183h-4.545v-24.615h4.545v2.07c0.09-0.045,0.27-0.225,0.54-0.495c0.495-0.495,1.17-1.17,1.98-1.62
		c0.405-0.225,0.765-0.315,1.17-0.315c1.215,0,2.07,0.72,2.61,1.62c0.54,0.945,0.811,2.16,0.811,3.195v20.16h-4.546v-19.485
		c0-0.945-0.539-1.08-1.079-1.08c-0.496,0-0.766,0.27-1.081,0.585c-0.135,0.18-0.27,0.36-0.405,0.585V284.183z M111.477,272.303
		c-2.204,0.945-3.15,3.15-3.15,5.49c0,0.315,0.045,0.855,0.225,1.35c0.18,0.54,0.495,0.945,1.035,0.945
		c1.035,0,1.89-0.63,1.89-1.485V272.303z M111.477,265.418c0-0.405,0-1.035-0.135-1.485c-0.18-0.45-0.54-0.765-1.125-0.765
		c-0.766,0-1.08,0.585-1.215,1.305c-0.045,0.36-0.09,0.765-0.09,1.17v1.17h-4.545v-1.035c0-1.8,0.675-3.42,1.755-4.635
		c1.08-1.215,2.61-1.935,4.365-1.935c1.485,0,2.835,0.585,3.87,1.575c1.035,0.99,1.666,2.385,1.666,4.005v15.12
		c0,2.205,0.134,3.195,0.314,4.275h-4.455c-0.405-0.495-0.405-1.665-0.405-1.98h-0.315c-0.224,0.405-0.63,0.99-1.26,1.485
		s-1.485,0.855-2.385,0.855c-0.585,0-1.53-0.225-2.25-1.125c-0.765-0.855-1.395-2.385-1.395-4.95c0-2.745,0.81-4.725,1.89-6.075
		s2.43-2.205,3.555-2.79c1.125-0.585,1.98-0.99,2.16-1.485V265.418z M102.972,264.248c-0.405-0.135-0.855-0.18-1.26-0.18
		c-0.721,0-1.575,0.09-2.295,0.765c-0.854,0.72-0.99,1.485-0.99,2.25v17.1h-4.545v-24.615h4.545v2.745
		c0.045-0.315,0.36-1.08,1.08-1.8c0.72-0.675,1.8-1.305,3.465-1.305V264.248z M88.347,253.493v6.075h3.104v4.095h-3.104v12.24
		c0,0.765,0,1.755,0.18,2.565c0.181,0.81,0.54,1.485,1.26,1.485c0.361,0,0.81-0.045,1.125-0.09c0.18-0.045,0.361-0.045,0.54-0.09
		v4.455c-0.225,0.045-0.449,0.135-0.675,0.18c-0.45,0.09-1.035,0.135-1.754,0.135c-2.656,0-3.916-1.35-4.546-3.06
		s-0.675-3.78-0.675-5.22v-12.6h-2.295v-4.095h2.295v-6.075H88.347z M68.953,265.868c0-0.585,0-1.305-0.18-1.89
		c-0.225-0.54-0.584-0.99-1.305-0.99c-0.585,0-0.945,0.45-1.125,0.99c-0.226,0.54-0.27,1.305-0.27,1.89
		c0,0.765,0.405,1.575,0.991,2.295c0.54,0.72,1.259,1.44,1.979,2.115c0.945,0.945,2.07,2.025,2.835,3.24
		c0.765,1.26,1.35,2.655,1.35,4.275c0,1.575-0.361,3.24-1.26,4.5c-0.945,1.305-2.385,2.25-4.545,2.25
		c-2.745,0-4.365-1.26-5.266-2.79c-0.899-1.53-1.08-3.42-1.08-4.725h4.23c0,0.675,0.045,1.62,0.36,2.34
		c0.314,0.765,0.81,1.395,1.755,1.395c1.305,0,1.575-1.53,1.575-2.97c0-1.485-1.44-2.97-2.835-4.365
		c-1.08-1.035-2.115-1.98-2.925-3.195s-1.395-2.565-1.395-4.365c0-1.44,0.27-3.105,1.125-4.41c0.855-1.26,2.25-2.205,4.41-2.25
		c2.655-0.045,4.14,0.945,4.905,2.25c0.765,1.305,0.9,3.015,0.9,4.41H68.953z M54.598,272.303c-2.205,0.945-3.15,3.15-3.15,5.49
		c0,0.315,0.045,0.855,0.225,1.35c0.18,0.54,0.495,0.945,1.035,0.945c1.035,0,1.89-0.63,1.89-1.485V272.303z M54.598,265.418
		c0-0.405,0-1.035-0.135-1.485c-0.18-0.45-0.54-0.765-1.125-0.765c-0.765,0-1.08,0.585-1.215,1.305
		c-0.045,0.36-0.09,0.765-0.09,1.17v1.17h-4.545v-1.035c0-1.8,0.675-3.42,1.755-4.635c1.08-1.215,2.61-1.935,4.365-1.935
		c1.485,0,2.834,0.585,3.87,1.575c1.035,0.99,1.665,2.385,1.665,4.005v15.12c0,2.205,0.135,3.195,0.315,4.275h-4.455
		c-0.405-0.495-0.405-1.665-0.405-1.98h-0.315c-0.225,0.405-0.63,0.99-1.26,1.485c-0.63,0.495-1.485,0.855-2.385,0.855
		c-0.585,0-1.53-0.225-2.25-1.125c-0.765-0.855-1.395-2.385-1.395-4.95c0-2.745,0.81-4.725,1.89-6.075s2.431-2.205,3.556-2.79
		s1.979-0.99,2.159-1.485V265.418z M39.568,264.968c0-0.72-0.675-1.485-1.35-1.485s-1.215,0.63-1.215,1.485v13.815
		c0,0.854,0.54,1.485,1.215,1.485s1.35-0.63,1.35-1.485V264.968z M44.113,284.183h-4.545v-1.62c-0.765,0.72-1.44,1.26-2.295,1.665
		c-0.45,0.225-0.9,0.315-1.305,0.315c-1.26,0-2.115-0.72-2.654-1.665c-0.585-0.9-0.855-2.115-0.855-3.15v-15.705
		c0-1.035,0.27-2.25,0.855-3.195c0.54-0.9,1.395-1.62,2.654-1.62c0.855,0,1.755,0.495,2.43,0.99c0.405,0.315,0.765,0.63,1.17,0.99
		v-10.08h4.545V284.183z"/>
	<path clip-path="url(#SVGID_2_)" fill="#231F20" d="M520.568,214.688c0.045-0.945-0.135-1.62-0.585-2.16
		c-0.225-0.225-0.584-0.36-0.99-0.36c-0.855,0-1.215,0.585-1.395,1.26c-0.135,0.36-0.18,0.765-0.135,1.26v12.375
		c-0.045,0.945,0.18,1.62,0.585,2.115c0.225,0.225,0.54,0.36,0.945,0.36c0.855,0,1.26-0.54,1.44-1.215
		c0.135-0.36,0.18-0.765,0.135-1.26V214.688z M524.843,227.198c-0.135,2.385-0.855,4.05-2.43,5.355
		c-0.81,0.675-1.935,0.99-3.42,0.99c-2.925,0-4.365-1.62-5.085-3.24c-0.404-0.945-0.675-2.025-0.719-3.24v-12.375
		c0.134-2.385,0.854-4.14,2.429-5.49c0.766-0.675,1.891-0.99,3.375-0.99c2.925,0,4.41,1.62,5.13,3.195
		c0.405,0.945,0.675,1.98,0.72,3.15V227.198z M505.493,221.303c-2.205,0.945-3.15,3.15-3.15,5.49c0,0.315,0.045,0.855,0.225,1.35
		c0.18,0.54,0.496,0.945,1.035,0.945c1.035,0,1.89-0.63,1.89-1.485V221.303z M505.493,214.418c0-0.405,0-1.035-0.135-1.485
		c-0.18-0.45-0.54-0.765-1.125-0.765c-0.765,0-1.08,0.585-1.215,1.305c-0.045,0.36-0.09,0.765-0.09,1.17v1.17h-4.545v-1.035
		c0-1.8,0.675-3.42,1.755-4.635c1.08-1.215,2.61-1.935,4.365-1.935c1.485,0,2.835,0.585,3.87,1.575
		c1.034,0.99,1.665,2.385,1.665,4.005v15.12c0,2.205,0.135,3.195,0.315,4.275h-4.455c-0.405-0.495-0.405-1.665-0.405-1.98h-0.315
		c-0.225,0.405-0.63,0.99-1.26,1.485c-0.63,0.495-1.485,0.855-2.385,0.855c-0.584,0-1.53-0.225-2.25-1.125
		c-0.765-0.855-1.395-2.385-1.395-4.95c0-2.745,0.81-4.725,1.89-6.075c1.081-1.35,2.431-2.205,3.556-2.79s1.98-0.99,2.16-1.485
		V214.418z M499.958,201.188c0.405-0.315,0.944-0.54,1.484-0.72c0.271-0.09,0.585-0.135,0.9-0.135c0.675,0,1.35,0.135,1.98,0.36
		c0.63,0.27,1.305,0.45,1.98,0.495c0.675,0,1.17-0.18,1.665-0.36c0.27-0.135,0.495-0.225,0.721-0.36v3.33
		c-0.406,0.36-0.946,0.585-1.486,0.72c-0.27,0.09-0.585,0.135-0.899,0.135c-0.675,0-1.35-0.135-1.936-0.405
		c-0.63-0.27-1.304-0.405-2.024-0.45c-0.675,0-1.17,0.18-1.665,0.36c-0.271,0.135-0.495,0.225-0.72,0.36V201.188z M491.858,238.718
		l-0.991,2.925h-2.294l0.9-2.925h-1.396v-3.105h3.781V238.718z M488.843,227.513c0,0.9,0.045,1.98,1.26,1.98
		c1.035,0,1.305-0.495,1.305-1.98v-3.42h4.545v2.385c0,2.745-0.495,4.5-1.485,5.58c-0.99,1.08-2.43,1.485-4.365,1.485
		c-1.62,0-3.104-0.45-4.14-1.575s-1.665-2.97-1.665-5.715v-10.755c0-2.745,0.63-4.59,1.665-5.715s2.52-1.575,4.14-1.575
		c1.935,0,3.375,0.405,4.365,1.485s1.485,2.835,1.485,5.58v1.935h-4.545v-2.97c0-1.485-0.27-1.98-1.305-1.98
		c-1.215,0-1.26,1.08-1.26,1.98V227.513z M477.008,221.303c-2.205,0.945-3.15,3.15-3.15,5.49c0,0.315,0.045,0.855,0.225,1.35
		c0.18,0.54,0.494,0.945,1.034,0.945c1.036,0,1.891-0.63,1.891-1.485V221.303z M477.008,214.418c0-0.405,0-1.035-0.135-1.485
		c-0.181-0.45-0.54-0.765-1.125-0.765c-0.766,0-1.08,0.585-1.215,1.305c-0.045,0.36-0.09,0.765-0.09,1.17v1.17h-4.544v-1.035
		c0-1.8,0.675-3.42,1.755-4.635c1.08-1.215,2.61-1.935,4.365-1.935c1.485,0,2.835,0.585,3.87,1.575
		c1.035,0.99,1.665,2.385,1.665,4.005v15.12c0,2.205,0.136,3.195,0.314,4.275h-4.455c-0.405-0.495-0.405-1.665-0.405-1.98h-0.315
		c-0.225,0.405-0.629,0.99-1.26,1.485c-0.63,0.495-1.484,0.855-2.385,0.855c-0.585,0-1.53-0.225-2.25-1.125
		c-0.765-0.855-1.395-2.385-1.395-4.95c0-2.745,0.81-4.725,1.89-6.075s2.43-2.205,3.555-2.79s1.979-0.99,2.16-1.485V214.418z
		 M468.504,213.248c-0.405-0.135-0.855-0.18-1.261-0.18c-0.719,0-1.574,0.09-2.294,0.765c-0.855,0.72-0.99,1.485-0.99,2.25v17.1
		h-4.545v-24.615h4.545v2.745c0.045-0.315,0.359-1.08,1.079-1.8c0.721-0.675,1.801-1.305,3.466-1.305V213.248z M451.898,221.303
		c-2.206,0.945-3.15,3.15-3.15,5.49c0,0.315,0.045,0.855,0.225,1.35c0.18,0.54,0.495,0.945,1.035,0.945
		c1.035,0,1.89-0.63,1.89-1.485V221.303z M451.898,214.418c0-0.405,0-1.035-0.135-1.485c-0.18-0.45-0.54-0.765-1.125-0.765
		c-0.765,0-1.08,0.585-1.215,1.305c-0.045,0.36-0.09,0.765-0.09,1.17v1.17h-4.545v-1.035c0-1.8,0.675-3.42,1.755-4.635
		c1.08-1.215,2.61-1.935,4.364-1.935c1.485,0,2.835,0.585,3.87,1.575c1.036,0.99,1.665,2.385,1.665,4.005v15.12
		c0,2.205,0.135,3.195,0.315,4.275h-4.455c-0.405-0.495-0.405-1.665-0.405-1.98h-0.315c-0.225,0.405-0.63,0.99-1.26,1.485
		c-0.63,0.495-1.485,0.855-2.384,0.855c-0.586,0-1.531-0.225-2.25-1.125c-0.766-0.855-1.396-2.385-1.396-4.95
		c0-2.745,0.81-4.725,1.89-6.075s2.43-2.205,3.555-2.79c1.125-0.585,1.98-0.99,2.161-1.485V214.418z M434.754,227.783
		c0,0.72,0.674,1.485,1.351,1.485c0.673,0,1.214-0.63,1.214-1.485v-13.815c0-0.855-0.541-1.485-1.214-1.485
		c-0.677,0-1.351,0.63-1.351,1.485V227.783z M430.208,208.568h4.546v1.62c0.764-0.72,1.439-1.26,2.339-1.665
		c0.405-0.225,0.856-0.315,1.262-0.315c1.258,0,2.113,0.72,2.698,1.62c0.54,0.945,0.81,2.16,0.81,3.195v15.705
		c0,1.035-0.27,2.25-0.81,3.15c-0.585,0.945-1.44,1.665-2.698,1.665c-0.856,0-1.756-0.495-2.431-0.99
		c-0.406-0.315-0.765-0.63-1.17-0.99v10.08h-4.546V208.568z M419.499,233.183h-4.275v-19.485c0-0.945-0.72-1.08-1.215-1.08
		s-0.9,0.27-1.215,0.585c-0.181,0.18-0.36,0.36-0.495,0.585v19.395h-4.545v-24.615h4.545v2.07c0.09-0.045,0.27-0.225,0.54-0.495
		c0.495-0.495,1.26-1.17,2.07-1.62c0.406-0.225,0.765-0.315,1.169-0.315c1.621,0,2.565,1.305,3.061,2.745
		c0.18-0.135,0.405-0.36,0.72-0.675c0.585-0.63,1.351-1.215,2.206-1.71c0.404-0.225,0.81-0.36,1.214-0.36
		c1.214,0,2.07,0.72,2.61,1.62c0.54,0.945,0.81,2.16,0.81,3.195v20.16h-4.275v-19.485c0-0.945-0.72-1.08-1.215-1.08
		c-0.495,0-0.9,0.27-1.216,0.585c-0.179,0.18-0.359,0.36-0.494,0.585V233.183z M400.374,214.688c0.045-0.945-0.135-1.62-0.585-2.16
		c-0.225-0.225-0.585-0.36-0.99-0.36c-0.855,0-1.215,0.585-1.395,1.26c-0.135,0.36-0.18,0.765-0.135,1.26v12.375
		c-0.045,0.945,0.18,1.62,0.586,2.115c0.224,0.225,0.539,0.36,0.944,0.36c0.854,0,1.26-0.54,1.44-1.215
		c0.135-0.36,0.18-0.765,0.135-1.26V214.688z M404.648,227.198c-0.135,2.385-0.854,4.05-2.43,5.355
		c-0.81,0.675-1.936,0.99-3.42,0.99c-2.925,0-4.365-1.62-5.085-3.24c-0.405-0.945-0.676-2.025-0.721-3.24v-12.375
		c0.136-2.385,0.855-4.14,2.431-5.49c0.766-0.675,1.891-0.99,3.375-0.99c2.925,0,4.41,1.62,5.13,3.195
		c0.405,0.945,0.676,1.98,0.72,3.15V227.198z M383.409,227.513c0,0.9,0.045,1.98,1.26,1.98c1.035,0,1.305-0.495,1.305-1.98v-3.42
		h4.545v2.385c0,2.745-0.495,4.5-1.485,5.58c-0.989,1.08-2.429,1.485-4.364,1.485c-1.62,0-3.104-0.45-4.14-1.575
		s-1.665-2.97-1.665-5.715v-10.755c0-2.745,0.629-4.59,1.665-5.715s2.52-1.575,4.14-1.575c1.936,0,3.375,0.405,4.364,1.485
		c0.991,1.08,1.485,2.835,1.485,5.58v1.935h-4.545v-2.97c0-1.485-0.27-1.98-1.305-1.98c-1.215,0-1.26,1.08-1.26,1.98V227.513z
		 M361.675,218.153h3.285v-3.465c0-0.945-0.18-1.62-0.63-2.16c-0.224-0.225-0.585-0.36-0.99-0.36c-0.855,0-1.215,0.585-1.44,1.26
		c-0.135,0.36-0.18,0.765-0.225,1.26V218.153z M369.19,224.363v2.835c-0.135,2.385-0.855,4.05-2.475,5.355
		c-0.81,0.675-1.935,0.99-3.42,0.99c-2.925,0-4.41-1.62-5.13-3.24c-0.405-0.945-0.676-2.025-0.72-3.24v-12.375
		c0.135-2.385,0.9-4.14,2.52-5.49c0.765-0.675,1.891-0.99,3.375-0.99c2.925,0,4.41,1.62,5.13,3.195
		c0.405,0.945,0.676,1.98,0.72,3.15v7.155h-7.515v5.355c0.045,0.945,0.314,1.62,0.721,2.115c0.224,0.225,0.539,0.36,0.944,0.36
		c0.855,0,1.26-0.54,1.44-1.215c0.135-0.36,0.18-0.765,0.18-1.26v-2.7H369.19z M343.9,214.868c0-0.585,0-1.305-0.18-1.89
		c-0.225-0.54-0.585-0.99-1.305-0.99c-0.586,0-0.945,0.45-1.125,0.99c-0.225,0.54-0.27,1.305-0.27,1.89
		c0,0.765,0.404,1.575,0.989,2.295c0.54,0.72,1.261,1.44,1.98,2.115c0.945,0.945,2.07,2.025,2.834,3.24
		c0.766,1.26,1.351,2.655,1.351,4.275c0,1.575-0.36,3.24-1.26,4.5c-0.945,1.305-2.385,2.25-4.546,2.25
		c-2.744,0-4.364-1.26-5.264-2.79c-0.901-1.53-1.081-3.42-1.081-4.725h4.23c0,0.675,0.045,1.62,0.359,2.34
		c0.315,0.765,0.811,1.395,1.755,1.395c1.306,0,1.575-1.53,1.575-2.97c0-1.485-1.439-2.97-2.835-4.365
		c-1.08-1.035-2.115-1.98-2.925-3.195c-0.81-1.215-1.395-2.565-1.395-4.365c0-1.44,0.27-3.105,1.125-4.41
		c0.855-1.26,2.25-2.205,4.409-2.25c2.656-0.045,4.141,0.945,4.906,2.25c0.764,1.305,0.899,3.015,0.899,4.41H343.9z
		 M329.095,208.568h4.545v24.615h-4.545V208.568z M329.095,200.108h4.545v4.545h-4.545V200.108z M321.58,221.303
		c-2.205,0.945-3.15,3.15-3.15,5.49c0,0.315,0.045,0.855,0.225,1.35c0.18,0.54,0.495,0.945,1.035,0.945
		c1.035,0,1.89-0.63,1.89-1.485V221.303z M321.58,214.418c0-0.405,0-1.035-0.135-1.485c-0.18-0.45-0.54-0.765-1.125-0.765
		c-0.765,0-1.081,0.585-1.214,1.305c-0.046,0.36-0.091,0.765-0.091,1.17v1.17h-4.545v-1.035c0-1.8,0.676-3.42,1.755-4.635
		c1.08-1.215,2.61-1.935,4.365-1.935c1.485,0,2.835,0.585,3.87,1.575c1.034,0.99,1.665,2.385,1.665,4.005v15.12
		c0,2.205,0.135,3.195,0.315,4.275h-4.456c-0.405-0.495-0.405-1.665-0.405-1.98h-0.315c-0.225,0.405-0.63,0.99-1.26,1.485
		s-1.485,0.855-2.385,0.855c-0.585,0-1.53-0.225-2.25-1.125c-0.764-0.855-1.395-2.385-1.395-4.95c0-2.745,0.81-4.725,1.89-6.075
		s2.43-2.205,3.555-2.79s1.98-0.99,2.16-1.485V214.418z M304.345,233.183H299.8v-24.615h4.545v2.07
		c0.09-0.045,0.27-0.225,0.54-0.495c0.495-0.495,1.17-1.17,1.98-1.62c0.405-0.225,0.765-0.315,1.17-0.315
		c1.215,0,2.071,0.72,2.611,1.62c0.539,0.945,0.809,2.16,0.809,3.195v20.16h-4.545v-19.485c0-0.945-0.54-1.08-1.08-1.08
		c-0.495,0-0.765,0.27-1.08,0.585c-0.135,0.18-0.27,0.36-0.405,0.585V233.183z M291.655,208.568h4.544v24.615h-4.544V208.568z
		 M291.655,200.108h4.544v4.545h-4.544V200.108z M280.81,234.308c-0.945,0.54-1.665,1.215-1.665,2.16c0,0.945,0.855,1.71,2.97,1.71
		c0.765,0,1.62-0.135,2.294-0.405c0.676-0.27,1.17-0.675,1.17-1.26c0-0.405-0.045-0.72-0.36-1.035c-0.36-0.315-0.945-0.54-2.07-0.72
		L280.81,234.308z M282.925,214.643c0-0.855-0.18-1.395-0.54-1.89c-0.18-0.225-0.45-0.36-0.855-0.36
		c-0.72,0-1.081,0.585-1.215,1.125c-0.09,0.315-0.135,0.72-0.09,1.125v6.75c-0.045,0.855,0.09,1.395,0.495,1.845
		c0.18,0.225,0.45,0.36,0.81,0.36c0.765,0,1.08-0.54,1.26-1.08c0.09-0.315,0.135-0.72,0.135-1.125V214.643z M287.38,221.303
		c-0.135,2.295-0.945,3.915-2.52,5.13c-0.81,0.63-1.935,0.945-3.33,0.945h-0.405c-0.136,0-0.315,0-0.45-0.045
		c-0.405,0.36-0.63,0.72-0.63,1.125c0,0.54,0.45,0.855,1.125,1.035c0.675,0.225,1.485,0.36,2.34,0.495
		c1.439,0.18,2.97,0.54,4.229,1.395c1.215,0.855,2.07,2.16,2.07,4.32c0,2.385-1.035,4.005-2.475,4.95
		c-1.485,0.945-3.465,1.35-5.311,1.35c-2.16-0.045-4.005-0.36-5.265-1.08c-1.305-0.72-2.025-1.89-2.025-3.69
		c0-0.855,0.45-1.575,1.125-2.205c0.675-0.63,1.575-1.125,2.43-1.53c-1.485-0.405-2.745-1.35-2.745-3.285
		c0-0.72,0.404-1.44,0.944-2.115c0.541-0.675,1.215-1.215,1.891-1.575c-1.305-0.855-1.935-2.205-2.25-3.33
		c-0.181-0.675-0.315-1.35-0.36-2.025v-6.705c0.18-2.295,0.9-3.96,2.475-5.265c0.765-0.675,1.89-0.99,3.285-0.99
		c2.295,0,3.69,1.035,4.545,2.25c0.315-0.315,0.855-0.855,1.575-1.35c0.675-0.495,1.44-0.9,2.16-0.9v4.05
		c-1.215,0-2.115,0.225-2.655,0.54c0.044,0.225,0.09,0.45,0.135,0.585c0,0.18,0,0.36,0.045,0.495s0.045,0.315,0.045,0.45V221.303z
		 M268.12,208.568h4.545v24.615h-4.545V208.568z M268.12,200.108h4.545v4.545h-4.545V200.108z M266.141,213.248
		c-0.405-0.135-0.855-0.18-1.26-0.18c-0.721,0-1.575,0.09-2.295,0.765c-0.854,0.72-0.99,1.485-0.99,2.25v17.1h-4.545v-24.615h4.545
		v2.745c0.045-0.315,0.36-1.08,1.08-1.8c0.721-0.675,1.8-1.305,3.465-1.305V213.248z M249.671,214.688
		c0.045-0.945-0.136-1.62-0.585-2.16c-0.226-0.225-0.585-0.36-0.99-0.36c-0.855,0-1.215,0.585-1.395,1.26
		c-0.135,0.36-0.179,0.765-0.135,1.26v12.375c-0.044,0.945,0.18,1.62,0.584,2.115c0.226,0.225,0.54,0.36,0.945,0.36
		c0.855,0,1.261-0.54,1.439-1.215c0.136-0.36,0.181-0.765,0.136-1.26V214.688z M253.946,227.198c-0.135,2.385-0.855,4.05-2.43,5.355
		c-0.81,0.675-1.935,0.99-3.42,0.99c-2.925,0-4.364-1.62-5.085-3.24c-0.404-0.945-0.675-2.025-0.72-3.24v-12.375
		c0.135-2.385,0.855-4.14,2.43-5.49c0.765-0.675,1.89-0.99,3.375-0.99c2.926,0,4.41,1.62,5.13,3.195
		c0.405,0.945,0.675,1.98,0.72,3.15V227.198z M228.791,214.868c0-0.585,0-1.305-0.181-1.89c-0.225-0.54-0.584-0.99-1.305-0.99
		c-0.585,0-0.945,0.45-1.125,0.99c-0.225,0.54-0.271,1.305-0.271,1.89c0,0.765,0.406,1.575,0.99,2.295
		c0.54,0.72,1.26,1.44,1.98,2.115c0.944,0.945,2.07,2.025,2.835,3.24c0.766,1.26,1.35,2.655,1.35,4.275c0,1.575-0.36,3.24-1.26,4.5
		c-0.945,1.305-2.385,2.25-4.545,2.25c-2.745,0-4.364-1.26-5.265-2.79c-0.9-1.53-1.08-3.42-1.08-4.725h4.23
		c0,0.675,0.044,1.62,0.359,2.34c0.315,0.765,0.81,1.395,1.755,1.395c1.305,0,1.575-1.53,1.575-2.97c0-1.485-1.439-2.97-2.835-4.365
		c-1.08-1.035-2.115-1.98-2.926-3.195c-0.81-1.215-1.395-2.565-1.395-4.365c0-1.44,0.27-3.105,1.125-4.41
		c0.854-1.26,2.25-2.205,4.41-2.25c2.655-0.045,4.141,0.945,4.905,2.25c0.765,1.305,0.901,3.015,0.901,4.41H228.791z
		 M214.615,214.688c0.045-0.945-0.134-1.62-0.584-2.16c-0.225-0.225-0.585-0.36-0.99-0.36c-0.855,0-1.216,0.585-1.395,1.26
		c-0.136,0.36-0.181,0.765-0.136,1.26v12.375c-0.045,0.945,0.18,1.62,0.585,2.115c0.225,0.225,0.54,0.36,0.945,0.36
		c0.855,0,1.26-0.54,1.44-1.215c0.134-0.36,0.179-0.765,0.134-1.26V214.688z M218.891,227.198c-0.135,2.385-0.855,4.05-2.43,5.355
		c-0.811,0.675-1.935,0.99-3.42,0.99c-2.926,0-4.365-1.62-5.085-3.24c-0.405-0.945-0.675-2.025-0.72-3.24v-12.375
		c0.135-2.385,0.855-4.14,2.431-5.49c0.765-0.675,1.89-0.99,3.375-0.99c2.925,0,4.41,1.62,5.13,3.195
		c0.404,0.945,0.675,1.98,0.72,3.15V227.198z M199.497,213.968c0-0.72-0.675-1.485-1.349-1.485c-0.676,0-1.216,0.63-1.216,1.485
		v13.815c0,0.854,0.54,1.485,1.216,1.485c0.674,0,1.349-0.63,1.349-1.485V213.968z M204.042,233.183h-4.545v-1.62
		c-0.765,0.72-1.44,1.26-2.295,1.665c-0.449,0.225-0.899,0.315-1.304,0.315c-1.261,0-2.116-0.72-2.656-1.665
		c-0.584-0.9-0.854-2.115-0.854-3.15v-15.705c0-1.035,0.27-2.25,0.854-3.195c0.54-0.9,1.396-1.62,2.656-1.62
		c0.854,0,1.754,0.495,2.429,0.99c0.405,0.315,0.765,0.63,1.17,0.99v-10.08h4.545V233.183z M178.167,214.688
		c0.045-0.945-0.136-1.62-0.585-2.16c-0.226-0.225-0.585-0.36-0.99-0.36c-0.855,0-1.215,0.585-1.395,1.26
		c-0.134,0.36-0.18,0.765-0.134,1.26v12.375c-0.046,0.945,0.179,1.62,0.585,2.115c0.224,0.225,0.54,0.36,0.944,0.36
		c0.855,0,1.26-0.54,1.439-1.215c0.136-0.36,0.181-0.765,0.136-1.26V214.688z M182.442,227.198c-0.135,2.385-0.855,4.05-2.43,5.355
		c-0.811,0.675-1.935,0.99-3.42,0.99c-2.925,0-4.365-1.62-5.085-3.24c-0.405-0.945-0.675-2.025-0.72-3.24v-12.375
		c0.135-2.385,0.855-4.14,2.43-5.49c0.765-0.675,1.89-0.99,3.375-0.99c2.925,0,4.41,1.62,5.13,3.195
		c0.405,0.945,0.676,1.98,0.72,3.15V227.198z M163.092,221.303c-2.205,0.945-3.15,3.15-3.15,5.49c0,0.315,0.045,0.855,0.225,1.35
		c0.18,0.54,0.495,0.945,1.034,0.945c1.036,0,1.891-0.63,1.891-1.485V221.303z M163.092,214.418c0-0.405,0-1.035-0.135-1.485
		c-0.181-0.45-0.54-0.765-1.125-0.765c-0.766,0-1.08,0.585-1.215,1.305c-0.045,0.36-0.09,0.765-0.09,1.17v1.17h-4.544v-1.035
		c0-1.8,0.675-3.42,1.755-4.635c1.08-1.215,2.61-1.935,4.365-1.935c1.485,0,2.836,0.585,3.87,1.575
		c1.035,0.99,1.665,2.385,1.665,4.005v15.12c0,2.205,0.136,3.195,0.314,4.275h-4.455c-0.405-0.495-0.405-1.665-0.405-1.98h-0.315
		c-0.225,0.405-0.629,0.99-1.26,1.485c-0.63,0.495-1.485,0.855-2.385,0.855c-0.585,0-1.53-0.225-2.25-1.125
		c-0.765-0.855-1.395-2.385-1.395-4.95c0-2.745,0.81-4.725,1.89-6.075s2.43-2.205,3.555-2.79s1.98-0.99,2.16-1.485V214.418z
		 M157.557,201.188c0.405-0.315,0.945-0.54,1.485-0.72c0.271-0.09,0.585-0.135,0.9-0.135c0.675,0,1.35,0.135,1.98,0.36
		c0.63,0.27,1.305,0.45,1.98,0.495c0.675,0,1.17-0.18,1.665-0.36c0.271-0.135,0.496-0.225,0.72-0.36v3.33
		c-0.405,0.36-0.945,0.585-1.485,0.72c-0.271,0.09-0.585,0.135-0.9,0.135c-0.675,0-1.35-0.135-1.935-0.405
		c-0.63-0.27-1.305-0.405-2.025-0.45c-0.675,0-1.169,0.18-1.666,0.36c-0.27,0.135-0.495,0.225-0.72,0.36V201.188z M149.458,238.718
		l-0.99,2.925h-2.295l0.9-2.925h-1.395v-3.105h3.78V238.718z M146.442,227.513c0,0.9,0.045,1.98,1.26,1.98
		c1.035,0,1.305-0.495,1.305-1.98v-3.42h4.545v2.385c0,2.745-0.495,4.5-1.485,5.58c-0.99,1.08-2.43,1.485-4.365,1.485
		c-1.62,0-3.105-0.45-4.139-1.575c-1.036-1.125-1.666-2.97-1.666-5.715v-10.755c0-2.745,0.63-4.59,1.666-5.715
		c1.034-1.125,2.52-1.575,4.139-1.575c1.935,0,3.375,0.405,4.365,1.485c0.99,1.08,1.485,2.835,1.485,5.58v1.935h-4.545v-2.97
		c0-1.485-0.27-1.98-1.305-1.98c-1.215,0-1.26,1.08-1.26,1.98V227.513z M134.608,221.303c-2.205,0.945-3.15,3.15-3.15,5.49
		c0,0.315,0.045,0.855,0.225,1.35c0.18,0.54,0.495,0.945,1.035,0.945c1.035,0,1.89-0.63,1.89-1.485V221.303z M134.608,214.418
		c0-0.405,0-1.035-0.135-1.485c-0.18-0.45-0.54-0.765-1.125-0.765c-0.765,0-1.08,0.585-1.215,1.305
		c-0.045,0.36-0.09,0.765-0.09,1.17v1.17h-4.545v-1.035c0-1.8,0.675-3.42,1.755-4.635c1.08-1.215,2.61-1.935,4.364-1.935
		c1.486,0,2.835,0.585,3.871,1.575c1.035,0.99,1.665,2.385,1.665,4.005v15.12c0,2.205,0.135,3.195,0.315,4.275h-4.455
		c-0.405-0.495-0.405-1.665-0.405-1.98h-0.315c-0.225,0.405-0.63,0.99-1.26,1.485s-1.485,0.855-2.385,0.855
		c-0.584,0-1.531-0.225-2.25-1.125c-0.765-0.855-1.395-2.385-1.395-4.95c0-2.745,0.811-4.725,1.89-6.075
		c1.08-1.35,2.43-2.205,3.555-2.79s1.98-0.99,2.16-1.485V214.418z M114.493,229.493l6.255-16.785h-5.266v-4.14h10.081v3.69
		l-6.256,16.785h6.256v4.14h-11.071V229.493z M107.878,208.568h4.545v24.615h-4.545V208.568z M107.878,200.108h4.545v4.545h-4.545
		V200.108z M99.732,200.108h4.545v33.075h-4.545V200.108z M92.218,221.303c-2.205,0.945-3.15,3.15-3.15,5.49
		c0,0.315,0.045,0.855,0.225,1.35c0.18,0.54,0.495,0.945,1.035,0.945c1.035,0,1.89-0.63,1.89-1.485V221.303z M92.218,214.418
		c0-0.405,0-1.035-0.135-1.485c-0.18-0.45-0.54-0.765-1.125-0.765c-0.766,0-1.08,0.585-1.215,1.305
		c-0.045,0.36-0.09,0.765-0.09,1.17v1.17h-4.545v-1.035c0-1.8,0.675-3.42,1.755-4.635c1.08-1.215,2.61-1.935,4.366-1.935
		c1.484,0,2.835,0.585,3.869,1.575c1.035,0.99,1.665,2.385,1.665,4.005v15.12c0,2.205,0.135,3.195,0.315,4.275h-4.455
		c-0.405-0.495-0.405-1.665-0.405-1.98h-0.315c-0.225,0.405-0.63,0.99-1.26,1.485s-1.485,0.855-2.385,0.855
		c-0.585,0-1.529-0.225-2.25-1.125c-0.765-0.855-1.395-2.385-1.395-4.95c0-2.745,0.81-4.725,1.89-6.075s2.43-2.205,3.555-2.79
		s1.98-0.99,2.16-1.485V214.418z M77.188,208.568h4.544v24.615h-4.544v-2.07c-0.091,0.045-0.271,0.225-0.496,0.45
		c-0.54,0.54-1.17,1.17-1.979,1.62c-0.405,0.225-0.81,0.36-1.215,0.36c-1.215,0-2.07-0.72-2.61-1.665
		c-0.54-0.9-0.81-2.115-0.81-3.15v-20.16h4.545v19.485c0,0.945,0.54,1.08,1.08,1.08c0.495,0,0.765-0.27,1.08-0.585
		c0.135-0.135,0.27-0.36,0.406-0.585V208.568z M63.192,214.868c0-0.585,0-1.305-0.18-1.89c-0.225-0.54-0.585-0.99-1.305-0.99
		c-0.585,0-0.945,0.45-1.125,0.99c-0.225,0.54-0.27,1.305-0.27,1.89c0,0.765,0.404,1.575,0.989,2.295
		c0.54,0.72,1.261,1.44,1.98,2.115c0.945,0.945,2.07,2.025,2.834,3.24c0.766,1.26,1.351,2.655,1.351,4.275
		c0,1.575-0.36,3.24-1.26,4.5c-0.945,1.305-2.385,2.25-4.545,2.25c-2.745,0-4.365-1.26-5.265-2.79c-0.9-1.53-1.08-3.42-1.08-4.725
		h4.23c0,0.675,0.045,1.62,0.359,2.34c0.315,0.765,0.811,1.395,1.755,1.395c1.305,0,1.575-1.53,1.575-2.97
		c0-1.485-1.44-2.97-2.835-4.365c-1.08-1.035-2.115-1.98-2.925-3.195c-0.81-1.215-1.395-2.565-1.395-4.365
		c0-1.44,0.27-3.105,1.125-4.41c0.855-1.26,2.25-2.205,4.409-2.25c2.655-0.045,4.141,0.945,4.905,2.25
		c0.765,1.305,0.9,3.015,0.9,4.41H63.192z M48.388,208.568h4.545v24.615h-4.545V208.568z M48.388,200.108h4.545v4.545h-4.545
		V200.108z M41.458,200.108h4.725l-5.04,33.075h-4.86l-5.04-33.075h4.725l2.43,18.18l0.18,1.395h0.27l0.18-1.395L41.458,200.108z"/>
	<path clip-path="url(#SVGID_2_)" fill="#FF1419" d="M305.083,412.894v15.284l145.454-3.311
		c-13.501,16.812-25.728,38.719-25.728,60.881l0.254,0.51c21.143-29.04,52.73-52.73,86.611-65.212v-0.765
		c-34.39-12.482-64.449-35.663-86.611-64.957l-0.254,0.255c0.509,20.888,10.699,46.871,25.728,60.627L305.083,412.894z"/>
	<path clip-path="url(#SVGID_2_)" fill="#231F20" d="M206.887,449.278c-8.655,0-15.328,2.056-20.02,6.16
		c-4.695,4.108-7.04,9.9-7.04,17.38s2.345,13.276,7.04,17.38c4.692,4.108,11.365,6.16,20.02,6.16c8.653,0,15.325-2.052,20.02-6.16
		c4.692-4.104,7.04-9.9,7.04-17.38s-2.347-13.272-7.04-17.38C222.212,451.334,215.54,449.278,206.887,449.278 M108.77,347.198
		c-17.6,0-31.79,3.19-42.57,9.57c-10.78,6.38-16.978,17.198-18.59,32.45l43.56,13.64c-0.44-6.6,0.622-11.254,3.19-13.97
		c2.564-2.712,5.902-4.07,10.01-4.07c2.932,0,5.39,1.066,7.37,3.19c1.98,2.128,2.97,4.95,2.97,8.47c0,7.92-4.18,11.88-12.54,11.88
		h-7.04v29.04h9.68c8.505,0,12.76,3.448,12.76,10.34c0,3.668-1.21,6.49-3.63,8.47s-5.318,2.97-8.69,2.97c-4.696,0-8.36-1.21-11-3.63
		c-2.64-2.42-3.816-7.222-3.52-14.41l-45.1,18.7c3.664,13.348,10.484,22.846,20.46,28.49c9.973,5.648,23.832,8.47,41.58,8.47
		c11,0,20.972-1.726,29.92-5.17c8.944-3.444,15.984-8.36,21.12-14.74c5.132-6.38,7.7-13.822,7.7-22.33
		c0-12.904-3.448-21.484-10.34-25.74c-6.896-4.252-13.42-6.38-19.58-6.38v-0.88c2.344,0,5.682-0.914,10.01-2.75
		c4.324-1.832,8.284-5.094,11.88-9.79c3.592-4.692,5.39-11.072,5.39-19.14c0-13.784-4.806-24.344-14.41-31.68
		C139.752,350.866,126.222,347.198,108.77,347.198"/>
</g>
<polygon fill="#231F20" points="81.449,934.063 463.533,934.063 463.533,806.304 447.023,806.304 377.642,915.163 288.4,915.163 
	288.4,774.723 324.527,774.723 356.108,854.153 371.661,854.153 371.661,677.108 356.108,677.108 324.527,756.062 288.4,756.062 
	288.4,613.708 369.268,613.708 435.78,711.561 452.049,711.561 452.049,595.046 81.449,595.046 81.449,613.708 123.318,613.708 
	123.318,915.163 81.449,915.163 "/>
<line fill="none" stroke="#231F20" stroke-width="2" x1="273.342" y1="338" x2="273.342" y2="512"/>
<g>
	<defs>
		<rect id="SVGID_151_" width="564" height="1002"/>
	</defs>
	<clipPath id="SVGID_4_">
		<use xlink:href="#SVGID_151_"  overflow="visible"/>
	</clipPath>
	<polygon clip-path="url(#SVGID_4_)" fill="none" stroke="#231F20" stroke-width="1.998" points="0.999,3 0.999,999 0.999,1001.002 
		3,1001.002 561,1001.002 563.001,1001.002 563.001,999 563.001,3 563.001,0.998 561,0.998 3,0.998 0.999,0.998 	"/>
</g>
<rect x="5.001" y="5.002" fill="none" stroke="#231F20" stroke-width="1.998" width="553.997" height="991.996"/>
<line fill="none" stroke="#231F20" stroke-width="2" x1="23.103" y1="172" x2="536.104" y2="172"/>
<line fill="none" stroke="#231F20" stroke-width="2" x1="23.103" y1="529" x2="536.104" y2="529"/>
<line fill="none" stroke="#231F20" stroke-width="2" x1="17.841" y1="318" x2="530.841" y2="318"/>
</svg>
