<?xml version="1.0" encoding="UTF-8" standalone="no"?>
<!DOCTYPE svg PUBLIC "-//W3C//DTD SVG 1.1//EN"
 "http://www.w3.org/Graphics/SVG/1.1/DTD/svg11.dtd">
<!-- Generated by graphviz version 2.43.0 (0)
 -->
<!-- Title: G Pages: 1 -->
<svg width="3731pt" height="825pt"
 viewBox="0.00 0.00 3731.20 824.70" xmlns="http://www.w3.org/2000/svg" xmlns:xlink="http://www.w3.org/1999/xlink">
<g id="graph0" class="graph" transform="scale(1 1) rotate(0) translate(21.6 803.1)">
<title>G</title>
<polygon fill="#111111" stroke="transparent" points="-21.6,21.6 -21.6,-803.1 3709.6,-803.1 3709.6,21.6 -21.6,21.6"/>
<!-- apiRequests.js -->
<g id="node1" class="node">
<title>apiRequests.js</title>
<path fill="none" stroke="#cfffac" d="M1162.83,-453.5C1162.83,-453.5 1073.17,-453.5 1073.17,-453.5 1069.33,-453.5 1065.5,-449.67 1065.5,-445.83 1065.5,-445.83 1065.5,-438.17 1065.5,-438.17 1065.5,-434.33 1069.33,-430.5 1073.17,-430.5 1073.17,-430.5 1162.83,-430.5 1162.83,-430.5 1166.67,-430.5 1170.5,-434.33 1170.5,-438.17 1170.5,-438.17 1170.5,-445.83 1170.5,-445.83 1170.5,-449.67 1166.67,-453.5 1162.83,-453.5"/>
<text text-anchor="middle" x="1118" y="-438.3" font-family="Arial" font-size="14.00" fill="#cfffac">apiRequests.js</text>
</g>
<!-- common/Title.jsx -->
<g id="node2" class="node">
<title>common/Title.jsx</title>
<path fill="none" stroke="#cfffac" d="M3206.83,-123.5C3206.83,-123.5 3103.17,-123.5 3103.17,-123.5 3099.33,-123.5 3095.5,-119.67 3095.5,-115.83 3095.5,-115.83 3095.5,-108.17 3095.5,-108.17 3095.5,-104.33 3099.33,-100.5 3103.17,-100.5 3103.17,-100.5 3206.83,-100.5 3206.83,-100.5 3210.67,-100.5 3214.5,-104.33 3214.5,-108.17 3214.5,-108.17 3214.5,-115.83 3214.5,-115.83 3214.5,-119.67 3210.67,-123.5 3206.83,-123.5"/>
<text text-anchor="middle" x="3155" y="-108.3" font-family="Arial" font-size="14.00" fill="#cfffac">common/Title.jsx</text>
</g>
<!-- externalDeps.js -->
<g id="node3" class="node">
<title>externalDeps.js</title>
<path fill="none" stroke="#cfffac" d="M102.33,-111.5C102.33,-111.5 7.67,-111.5 7.67,-111.5 3.83,-111.5 0,-107.67 0,-103.83 0,-103.83 0,-96.17 0,-96.17 0,-92.33 3.83,-88.5 7.67,-88.5 7.67,-88.5 102.33,-88.5 102.33,-88.5 106.17,-88.5 110,-92.33 110,-96.17 110,-96.17 110,-103.83 110,-103.83 110,-107.67 106.17,-111.5 102.33,-111.5"/>
<text text-anchor="middle" x="55" y="-96.3" font-family="Arial" font-size="14.00" fill="#cfffac">externalDeps.js</text>
</g>
<!-- pages/edition/EditionRouter.jsx -->
<g id="node4" class="node">
<title>pages/edition/EditionRouter.jsx</title>
<path fill="none" stroke="#c6c5fe" d="M2305.83,-185.5C2305.83,-185.5 2119.17,-185.5 2119.17,-185.5 2115.33,-185.5 2111.5,-181.67 2111.5,-177.83 2111.5,-177.83 2111.5,-170.17 2111.5,-170.17 2111.5,-166.33 2115.33,-162.5 2119.17,-162.5 2119.17,-162.5 2305.83,-162.5 2305.83,-162.5 2309.67,-162.5 2313.5,-166.33 2313.5,-170.17 2313.5,-170.17 2313.5,-177.83 2313.5,-177.83 2313.5,-181.67 2309.67,-185.5 2305.83,-185.5"/>
<text text-anchor="middle" x="2212.5" y="-170.3" font-family="Arial" font-size="14.00" fill="#c6c5fe">pages/edition/EditionRouter.jsx</text>
</g>
<!-- pages/edition/acronym/editionAcrn.js -->
<g id="node5" class="node">
<title>pages/edition/acronym/editionAcrn.js</title>
<path fill="none" stroke="#c6c5fe" d="M2615.33,-164.5C2615.33,-164.5 2392.67,-164.5 2392.67,-164.5 2388.83,-164.5 2385,-160.67 2385,-156.83 2385,-156.83 2385,-149.17 2385,-149.17 2385,-145.33 2388.83,-141.5 2392.67,-141.5 2392.67,-141.5 2615.33,-141.5 2615.33,-141.5 2619.17,-141.5 2623,-145.33 2623,-149.17 2623,-149.17 2623,-156.83 2623,-156.83 2623,-160.67 2619.17,-164.5 2615.33,-164.5"/>
<text text-anchor="middle" x="2504" y="-149.3" font-family="Arial" font-size="14.00" fill="#c6c5fe">pages/edition/acronym/editionAcrn.js</text>
</g>
<!-- pages/edition/EditionRouter.jsx&#45;&gt;pages/edition/acronym/editionAcrn.js -->
<g id="edge1" class="edge">
<title>pages/edition/EditionRouter.jsx&#45;&gt;pages/edition/acronym/editionAcrn.js</title>
<path fill="none" stroke="#757575" d="M2313.53,-166.74C2333.27,-165.31 2354.23,-163.79 2374.75,-162.3"/>
<polygon fill="#757575" stroke="#757575" points="2375.05,-165.79 2384.77,-161.58 2374.55,-158.81 2375.05,-165.79"/>
</g>
<!-- pages/edition/index/editionIndex.jsx -->
<g id="node6" class="node">
<title>pages/edition/index/editionIndex.jsx</title>
<path fill="none" stroke="#c6c5fe" d="M2611.33,-205.5C2611.33,-205.5 2396.67,-205.5 2396.67,-205.5 2392.83,-205.5 2389,-201.67 2389,-197.83 2389,-197.83 2389,-190.17 2389,-190.17 2389,-186.33 2392.83,-182.5 2396.67,-182.5 2396.67,-182.5 2611.33,-182.5 2611.33,-182.5 2615.17,-182.5 2619,-186.33 2619,-190.17 2619,-190.17 2619,-197.83 2619,-197.83 2619,-201.67 2615.17,-205.5 2611.33,-205.5"/>
<text text-anchor="middle" x="2504" y="-190.3" font-family="Arial" font-size="14.00" fill="#c6c5fe">pages/edition/index/editionIndex.jsx</text>
</g>
<!-- pages/edition/EditionRouter.jsx&#45;&gt;pages/edition/index/editionIndex.jsx -->
<g id="edge2" class="edge">
<title>pages/edition/EditionRouter.jsx&#45;&gt;pages/edition/index/editionIndex.jsx</title>
<path fill="none" stroke="#757575" d="M2313.53,-180.91C2334.49,-182.36 2356.82,-183.9 2378.54,-185.4"/>
<polygon fill="#757575" stroke="#757575" points="2378.59,-188.91 2388.8,-186.11 2379.07,-181.93 2378.59,-188.91"/>
</g>
<!-- pages/edition/acronym/LdodEditionAcrn.jsx -->
<g id="node7" class="node">
<title>pages/edition/acronym/LdodEditionAcrn.jsx</title>
<path fill="none" stroke="#c6c5fe" d="M2927.33,-164.5C2927.33,-164.5 2666.67,-164.5 2666.67,-164.5 2662.83,-164.5 2659,-160.67 2659,-156.83 2659,-156.83 2659,-149.17 2659,-149.17 2659,-145.33 2662.83,-141.5 2666.67,-141.5 2666.67,-141.5 2927.33,-141.5 2927.33,-141.5 2931.17,-141.5 2935,-145.33 2935,-149.17 2935,-149.17 2935,-156.83 2935,-156.83 2935,-160.67 2931.17,-164.5 2927.33,-164.5"/>
<text text-anchor="middle" x="2797" y="-149.3" font-family="Arial" font-size="14.00" fill="#c6c5fe">pages/edition/acronym/LdodEditionAcrn.jsx</text>
</g>
<!-- pages/edition/acronym/editionAcrn.js&#45;&gt;pages/edition/acronym/LdodEditionAcrn.jsx -->
<g id="edge7" class="edge">
<title>pages/edition/acronym/editionAcrn.js&#45;&gt;pages/edition/acronym/LdodEditionAcrn.jsx</title>
<path fill="none" stroke="#757575" d="M2623.36,-153C2631.64,-153 2640.04,-153 2648.45,-153"/>
<polygon fill="#757575" stroke="#757575" points="2648.7,-156.5 2658.7,-153 2648.7,-149.5 2648.7,-156.5"/>
</g>
<!-- pages/edition/index/LdodEdition.jsx -->
<g id="node12" class="node">
<title>pages/edition/index/LdodEdition.jsx</title>
<path fill="none" stroke="#c6c5fe" d="M2903.33,-205.5C2903.33,-205.5 2690.67,-205.5 2690.67,-205.5 2686.83,-205.5 2683,-201.67 2683,-197.83 2683,-197.83 2683,-190.17 2683,-190.17 2683,-186.33 2686.83,-182.5 2690.67,-182.5 2690.67,-182.5 2903.33,-182.5 2903.33,-182.5 2907.17,-182.5 2911,-186.33 2911,-190.17 2911,-190.17 2911,-197.83 2911,-197.83 2911,-201.67 2907.17,-205.5 2903.33,-205.5"/>
<text text-anchor="middle" x="2797" y="-190.3" font-family="Arial" font-size="14.00" fill="#c6c5fe">pages/edition/index/LdodEdition.jsx</text>
</g>
<!-- pages/edition/index/editionIndex.jsx&#45;&gt;pages/edition/index/LdodEdition.jsx -->
<g id="edge10" class="edge">
<title>pages/edition/index/editionIndex.jsx&#45;&gt;pages/edition/index/LdodEdition.jsx</title>
<path fill="none" stroke="#757575" d="M2619.18,-194C2636.61,-194 2654.68,-194 2672.31,-194"/>
<polygon fill="#757575" stroke="#757575" points="2672.63,-197.5 2682.63,-194 2672.63,-190.5 2672.63,-197.5"/>
</g>
<!-- pages/edition/acronym/LdodEditionAcrn.jsx&#45;&gt;common/Title.jsx -->
<g id="edge3" class="edge">
<title>pages/edition/acronym/LdodEditionAcrn.jsx&#45;&gt;common/Title.jsx</title>
<path fill="none" stroke="#757575" d="M2891.35,-141.46C2917.15,-138.33 2945.15,-134.98 2971,-132 3008.69,-127.65 3050.78,-123.04 3085.08,-119.34"/>
<polygon fill="#757575" stroke="#757575" points="3085.9,-122.77 3095.47,-118.22 3085.15,-115.81 3085.9,-122.77"/>
</g>
<!-- pages/edition/acronym/components/ExpertEditionTable.jsx -->
<g id="node8" class="node">
<title>pages/edition/acronym/components/ExpertEditionTable.jsx</title>
<path fill="none" stroke="#c6c5fe" d="M3331.33,-164.5C3331.33,-164.5 2978.67,-164.5 2978.67,-164.5 2974.83,-164.5 2971,-160.67 2971,-156.83 2971,-156.83 2971,-149.17 2971,-149.17 2971,-145.33 2974.83,-141.5 2978.67,-141.5 2978.67,-141.5 3331.33,-141.5 3331.33,-141.5 3335.17,-141.5 3339,-145.33 3339,-149.17 3339,-149.17 3339,-156.83 3339,-156.83 3339,-160.67 3335.17,-164.5 3331.33,-164.5"/>
<text text-anchor="middle" x="3155" y="-149.3" font-family="Arial" font-size="14.00" fill="#c6c5fe">pages/edition/acronym/components/ExpertEditionTable.jsx</text>
</g>
<!-- pages/edition/acronym/LdodEditionAcrn.jsx&#45;&gt;pages/edition/acronym/components/ExpertEditionTable.jsx -->
<g id="edge4" class="edge">
<title>pages/edition/acronym/LdodEditionAcrn.jsx&#45;&gt;pages/edition/acronym/components/ExpertEditionTable.jsx</title>
<path fill="none" stroke="#757575" d="M2935.13,-153C2943.58,-153 2952.15,-153 2960.78,-153"/>
<polygon fill="#757575" stroke="#757575" points="2960.92,-156.5 2970.92,-153 2960.92,-149.5 2960.92,-156.5"/>
</g>
<!-- pages/edition/resources/constants.js -->
<g id="node9" class="node">
<title>pages/edition/resources/constants.js</title>
<path fill="none" stroke="#cfffac" d="M3264.83,-205.5C3264.83,-205.5 3045.17,-205.5 3045.17,-205.5 3041.33,-205.5 3037.5,-201.67 3037.5,-197.83 3037.5,-197.83 3037.5,-190.17 3037.5,-190.17 3037.5,-186.33 3041.33,-182.5 3045.17,-182.5 3045.17,-182.5 3264.83,-182.5 3264.83,-182.5 3268.67,-182.5 3272.5,-186.33 3272.5,-190.17 3272.5,-190.17 3272.5,-197.83 3272.5,-197.83 3272.5,-201.67 3268.67,-205.5 3264.83,-205.5"/>
<text text-anchor="middle" x="3155" y="-190.3" font-family="Arial" font-size="14.00" fill="#cfffac">pages/edition/resources/constants.js</text>
</g>
<!-- pages/edition/acronym/LdodEditionAcrn.jsx&#45;&gt;pages/edition/resources/constants.js -->
<g id="edge5" class="edge">
<title>pages/edition/acronym/LdodEditionAcrn.jsx&#45;&gt;pages/edition/resources/constants.js</title>
<path fill="none" stroke="#757575" d="M2897.71,-164.54C2921.71,-167.32 2947.27,-170.27 2971,-173 2994.35,-175.69 3019.38,-178.57 3043.19,-181.3"/>
<polygon fill="#757575" stroke="#757575" points="3042.98,-184.8 3053.32,-182.46 3043.78,-177.84 3042.98,-184.8"/>
</g>
<!-- pages/edition/acronym/components/tableData.jsx -->
<g id="node10" class="node">
<title>pages/edition/acronym/components/tableData.jsx</title>
<path fill="none" stroke="#cfffac" d="M3680.33,-164.5C3680.33,-164.5 3382.67,-164.5 3382.67,-164.5 3378.83,-164.5 3375,-160.67 3375,-156.83 3375,-156.83 3375,-149.17 3375,-149.17 3375,-145.33 3378.83,-141.5 3382.67,-141.5 3382.67,-141.5 3680.33,-141.5 3680.33,-141.5 3684.17,-141.5 3688,-145.33 3688,-149.17 3688,-149.17 3688,-156.83 3688,-156.83 3688,-160.67 3684.17,-164.5 3680.33,-164.5"/>
<text text-anchor="middle" x="3531.5" y="-149.3" font-family="Arial" font-size="14.00" fill="#cfffac">pages/edition/acronym/components/tableData.jsx</text>
</g>
<!-- pages/edition/acronym/components/ExpertEditionTable.jsx&#45;&gt;pages/edition/acronym/components/tableData.jsx -->
<g id="edge6" class="edge">
<title>pages/edition/acronym/components/ExpertEditionTable.jsx&#45;&gt;pages/edition/acronym/components/tableData.jsx</title>
<path fill="none" stroke="#757575" d="M3339.14,-153C3347.74,-153 3356.35,-153 3364.9,-153"/>
<polygon fill="#757575" stroke="#757575" points="3364.9,-156.5 3374.9,-153 3364.9,-149.5 3364.9,-156.5"/>
</g>
<!-- pages/edition/edition.jsx -->
<g id="node11" class="node">
<title>pages/edition/edition.jsx</title>
<path fill="none" stroke="#c6c5fe" d="M1963.33,-56.5C1963.33,-56.5 1817.67,-56.5 1817.67,-56.5 1813.83,-56.5 1810,-52.67 1810,-48.83 1810,-48.83 1810,-41.17 1810,-41.17 1810,-37.33 1813.83,-33.5 1817.67,-33.5 1817.67,-33.5 1963.33,-33.5 1963.33,-33.5 1967.17,-33.5 1971,-37.33 1971,-41.17 1971,-41.17 1971,-48.83 1971,-48.83 1971,-52.67 1967.17,-56.5 1963.33,-56.5"/>
<text text-anchor="middle" x="1890.5" y="-41.3" font-family="Arial" font-size="14.00" fill="#c6c5fe">pages/edition/edition.jsx</text>
</g>
<!-- pages/edition/edition.jsx&#45;&gt;pages/edition/EditionRouter.jsx -->
<g id="edge8" class="edge">
<title>pages/edition/edition.jsx&#45;&gt;pages/edition/EditionRouter.jsx</title>
<path fill="none" stroke="#757575" d="M1971.09,-55.47C1993.79,-59.81 2018.25,-65.8 2040,-74 2096.31,-95.22 2155.58,-134.01 2187.58,-156.53"/>
<polygon fill="#757575" stroke="#757575" points="2185.68,-159.47 2195.86,-162.42 2189.74,-153.77 2185.68,-159.47"/>
</g>
<!-- pages/edition/index/LdodEdition.jsx&#45;&gt;pages/edition/resources/constants.js -->
<g id="edge9" class="edge">
<title>pages/edition/index/LdodEdition.jsx&#45;&gt;pages/edition/resources/constants.js</title>
<path fill="none" stroke="#757575" d="M2911.13,-194C2948.14,-194 2989.47,-194 3027.41,-194"/>
<polygon fill="#757575" stroke="#757575" points="3027.49,-197.5 3037.49,-194 3027.49,-190.5 3027.49,-197.5"/>
</g>
<!-- pages/fragment/LdodFragment.jsx -->
<g id="node13" class="node">
<title>pages/fragment/LdodFragment.jsx</title>
<path fill="none" stroke="#c6c5fe" d="M849.33,-309.5C849.33,-309.5 640.67,-309.5 640.67,-309.5 636.83,-309.5 633,-305.67 633,-301.83 633,-301.83 633,-294.17 633,-294.17 633,-290.33 636.83,-286.5 640.67,-286.5 640.67,-286.5 849.33,-286.5 849.33,-286.5 853.17,-286.5 857,-290.33 857,-294.17 857,-294.17 857,-301.83 857,-301.83 857,-305.67 853.17,-309.5 849.33,-309.5"/>
<text text-anchor="middle" x="745" y="-294.3" font-family="Arial" font-size="14.00" fill="#c6c5fe">pages/fragment/LdodFragment.jsx</text>
</g>
<!-- pages/fragment/LdodFragment.jsx&#45;&gt;apiRequests.js -->
<g id="edge11" class="edge">
<title>pages/fragment/LdodFragment.jsx&#45;&gt;apiRequests.js</title>
<path fill="none" stroke="#757575" d="M758.95,-309.65C787.89,-334.93 861,-394.62 934,-421 972.73,-435 1018.81,-440.23 1055.04,-441.97"/>
<polygon fill="#757575" stroke="#757575" points="1055.33,-445.48 1065.46,-442.39 1055.61,-438.49 1055.33,-445.48"/>
</g>
<!-- pages/fragment/components/EditorialInter.jsx -->
<g id="node14" class="node">
<title>pages/fragment/components/EditorialInter.jsx</title>
<path fill="none" stroke="#c6c5fe" d="M1254.33,-330.5C1254.33,-330.5 981.67,-330.5 981.67,-330.5 977.83,-330.5 974,-326.67 974,-322.83 974,-322.83 974,-315.17 974,-315.17 974,-311.33 977.83,-307.5 981.67,-307.5 981.67,-307.5 1254.33,-307.5 1254.33,-307.5 1258.17,-307.5 1262,-311.33 1262,-315.17 1262,-315.17 1262,-322.83 1262,-322.83 1262,-326.67 1258.17,-330.5 1254.33,-330.5"/>
<text text-anchor="middle" x="1118" y="-315.3" font-family="Arial" font-size="14.00" fill="#c6c5fe">pages/fragment/components/EditorialInter.jsx</text>
</g>
<!-- pages/fragment/LdodFragment.jsx&#45;&gt;pages/fragment/components/EditorialInter.jsx -->
<g id="edge12" class="edge">
<title>pages/fragment/LdodFragment.jsx&#45;&gt;pages/fragment/components/EditorialInter.jsx</title>
<path fill="none" stroke="#757575" d="M857.06,-304.29C890.62,-306.19 928.08,-308.31 963.88,-310.33"/>
<polygon fill="#757575" stroke="#757575" points="963.75,-313.83 973.93,-310.9 964.15,-306.84 963.75,-313.83"/>
</g>
<!-- pages/fragment/components/LineByLineTranscriptions.jsx -->
<g id="node15" class="node">
<title>pages/fragment/components/LineByLineTranscriptions.jsx</title>
<path fill="none" stroke="#c6c5fe" d="M1292.83,-371.5C1292.83,-371.5 943.17,-371.5 943.17,-371.5 939.33,-371.5 935.5,-367.67 935.5,-363.83 935.5,-363.83 935.5,-356.17 935.5,-356.17 935.5,-352.33 939.33,-348.5 943.17,-348.5 943.17,-348.5 1292.83,-348.5 1292.83,-348.5 1296.67,-348.5 1300.5,-352.33 1300.5,-356.17 1300.5,-356.17 1300.5,-363.83 1300.5,-363.83 1300.5,-367.67 1296.67,-371.5 1292.83,-371.5"/>
<text text-anchor="middle" x="1118" y="-356.3" font-family="Arial" font-size="14.00" fill="#c6c5fe">pages/fragment/components/LineByLineTranscriptions.jsx</text>
</g>
<!-- pages/fragment/LdodFragment.jsx&#45;&gt;pages/fragment/components/LineByLineTranscriptions.jsx -->
<g id="edge13" class="edge">
<title>pages/fragment/LdodFragment.jsx&#45;&gt;pages/fragment/components/LineByLineTranscriptions.jsx</title>
<path fill="none" stroke="#757575" d="M792.49,-309.5C830.39,-318.55 885.39,-330.93 934,-339 952.4,-342.05 971.92,-344.81 991.09,-347.24"/>
<polygon fill="#757575" stroke="#757575" points="990.72,-350.72 1001.07,-348.48 991.58,-343.77 990.72,-350.72"/>
</g>
<!-- pages/fragment/components/SideBySideTranscriptions.jsx -->
<g id="node16" class="node">
<title>pages/fragment/components/SideBySideTranscriptions.jsx</title>
<path fill="none" stroke="#c6c5fe" d="M1294.33,-289.5C1294.33,-289.5 941.67,-289.5 941.67,-289.5 937.83,-289.5 934,-285.67 934,-281.83 934,-281.83 934,-274.17 934,-274.17 934,-270.33 937.83,-266.5 941.67,-266.5 941.67,-266.5 1294.33,-266.5 1294.33,-266.5 1298.17,-266.5 1302,-270.33 1302,-274.17 1302,-274.17 1302,-281.83 1302,-281.83 1302,-285.67 1298.17,-289.5 1294.33,-289.5"/>
<text text-anchor="middle" x="1118" y="-274.3" font-family="Arial" font-size="14.00" fill="#c6c5fe">pages/fragment/components/SideBySideTranscriptions.jsx</text>
</g>
<!-- pages/fragment/LdodFragment.jsx&#45;&gt;pages/fragment/components/SideBySideTranscriptions.jsx -->
<g id="edge14" class="edge">
<title>pages/fragment/LdodFragment.jsx&#45;&gt;pages/fragment/components/SideBySideTranscriptions.jsx</title>
<path fill="none" stroke="#757575" d="M857.06,-292.01C878.17,-290.88 900.82,-289.65 923.62,-288.42"/>
<polygon fill="#757575" stroke="#757575" points="923.96,-291.91 933.75,-287.88 923.58,-284.92 923.96,-291.91"/>
</g>
<!-- pages/fragment/components/SourceInter.jsx -->
<g id="node17" class="node">
<title>pages/fragment/components/SourceInter.jsx</title>
<path fill="none" stroke="#c6c5fe" d="M1251.33,-412.5C1251.33,-412.5 984.67,-412.5 984.67,-412.5 980.83,-412.5 977,-408.67 977,-404.83 977,-404.83 977,-397.17 977,-397.17 977,-393.33 980.83,-389.5 984.67,-389.5 984.67,-389.5 1251.33,-389.5 1251.33,-389.5 1255.17,-389.5 1259,-393.33 1259,-397.17 1259,-397.17 1259,-404.83 1259,-404.83 1259,-408.67 1255.17,-412.5 1251.33,-412.5"/>
<text text-anchor="middle" x="1118" y="-397.3" font-family="Arial" font-size="14.00" fill="#c6c5fe">pages/fragment/components/SourceInter.jsx</text>
</g>
<!-- pages/fragment/LdodFragment.jsx&#45;&gt;pages/fragment/components/SourceInter.jsx -->
<g id="edge15" class="edge">
<title>pages/fragment/LdodFragment.jsx&#45;&gt;pages/fragment/components/SourceInter.jsx</title>
<path fill="none" stroke="#757575" d="M766.96,-309.62C800.91,-327.88 870.56,-362.93 934,-380 944.87,-382.92 956.21,-385.44 967.68,-387.61"/>
<polygon fill="#757575" stroke="#757575" points="967.33,-391.1 977.79,-389.42 968.56,-384.21 967.33,-391.1"/>
</g>
<!-- pages/fragment/components/TextNavigation.jsx -->
<g id="node18" class="node">
<title>pages/fragment/components/TextNavigation.jsx</title>
<path fill="none" stroke="#c6c5fe" d="M1261.33,-494.5C1261.33,-494.5 974.67,-494.5 974.67,-494.5 970.83,-494.5 967,-490.67 967,-486.83 967,-486.83 967,-479.17 967,-479.17 967,-475.33 970.83,-471.5 974.67,-471.5 974.67,-471.5 1261.33,-471.5 1261.33,-471.5 1265.17,-471.5 1269,-475.33 1269,-479.17 1269,-479.17 1269,-486.83 1269,-486.83 1269,-490.67 1265.17,-494.5 1261.33,-494.5"/>
<text text-anchor="middle" x="1118" y="-479.3" font-family="Arial" font-size="14.00" fill="#c6c5fe">pages/fragment/components/TextNavigation.jsx</text>
</g>
<!-- pages/fragment/LdodFragment.jsx&#45;&gt;pages/fragment/components/TextNavigation.jsx -->
<g id="edge16" class="edge">
<title>pages/fragment/LdodFragment.jsx&#45;&gt;pages/fragment/components/TextNavigation.jsx</title>
<path fill="none" stroke="#757575" d="M755.01,-309.74C779.68,-340.91 851.98,-425.79 934,-462 941.38,-465.26 949.09,-468.08 956.98,-470.52"/>
<polygon fill="#757575" stroke="#757575" points="956.12,-473.91 966.7,-473.31 958.05,-467.18 956.12,-473.91"/>
</g>
<!-- pages/fragment/constants.js -->
<g id="node19" class="node">
<title>pages/fragment/constants.js</title>
<path fill="none" stroke="#cfffac" d="M1203.33,-248.5C1203.33,-248.5 1032.67,-248.5 1032.67,-248.5 1028.83,-248.5 1025,-244.67 1025,-240.83 1025,-240.83 1025,-233.17 1025,-233.17 1025,-229.33 1028.83,-225.5 1032.67,-225.5 1032.67,-225.5 1203.33,-225.5 1203.33,-225.5 1207.17,-225.5 1211,-229.33 1211,-233.17 1211,-233.17 1211,-240.83 1211,-240.83 1211,-244.67 1207.17,-248.5 1203.33,-248.5"/>
<text text-anchor="middle" x="1118" y="-233.3" font-family="Arial" font-size="14.00" fill="#cfffac">pages/fragment/constants.js</text>
</g>
<!-- pages/fragment/LdodFragment.jsx&#45;&gt;pages/fragment/constants.js -->
<g id="edge17" class="edge">
<title>pages/fragment/LdodFragment.jsx&#45;&gt;pages/fragment/constants.js</title>
<path fill="none" stroke="#757575" d="M792.48,-286.43C830.37,-277.34 885.37,-264.94 934,-257 960.01,-252.75 988.25,-249.17 1014.59,-246.26"/>
<polygon fill="#757575" stroke="#757575" points="1015.02,-249.73 1024.58,-245.18 1014.26,-242.77 1015.02,-249.73"/>
</g>
<!-- pages/fragment/utils.js -->
<g id="node20" class="node">
<title>pages/fragment/utils.js</title>
<path fill="none" stroke="#cfffac" d="M1589.83,-151.5C1589.83,-151.5 1453.17,-151.5 1453.17,-151.5 1449.33,-151.5 1445.5,-147.67 1445.5,-143.83 1445.5,-143.83 1445.5,-136.17 1445.5,-136.17 1445.5,-132.33 1449.33,-128.5 1453.17,-128.5 1453.17,-128.5 1589.83,-128.5 1589.83,-128.5 1593.67,-128.5 1597.5,-132.33 1597.5,-136.17 1597.5,-136.17 1597.5,-143.83 1597.5,-143.83 1597.5,-147.67 1593.67,-151.5 1589.83,-151.5"/>
<text text-anchor="middle" x="1521.5" y="-136.3" font-family="Arial" font-size="14.00" fill="#cfffac">pages/fragment/utils.js</text>
</g>
<!-- pages/fragment/LdodFragment.jsx&#45;&gt;pages/fragment/utils.js -->
<g id="edge18" class="edge">
<title>pages/fragment/LdodFragment.jsx&#45;&gt;pages/fragment/utils.js</title>
<path fill="none" stroke="#757575" d="M766.96,-286.39C800.92,-268.16 870.58,-233.13 934,-216 1092.97,-173.06 1140.83,-206.75 1302,-173 1318.38,-169.57 1321.63,-165.46 1338,-162 1369.42,-155.36 1404.33,-150.54 1435.14,-147.14"/>
<polygon fill="#757575" stroke="#757575" points="1435.85,-150.58 1445.42,-146.04 1435.11,-143.62 1435.85,-150.58"/>
</g>
<!-- pages/fragments/constants.js -->
<g id="node21" class="node">
<title>pages/fragments/constants.js</title>
<path fill="none" stroke="#cfffac" d="M1206.83,-130.5C1206.83,-130.5 1029.17,-130.5 1029.17,-130.5 1025.33,-130.5 1021.5,-126.67 1021.5,-122.83 1021.5,-122.83 1021.5,-115.17 1021.5,-115.17 1021.5,-111.33 1025.33,-107.5 1029.17,-107.5 1029.17,-107.5 1206.83,-107.5 1206.83,-107.5 1210.67,-107.5 1214.5,-111.33 1214.5,-115.17 1214.5,-115.17 1214.5,-122.83 1214.5,-122.83 1214.5,-126.67 1210.67,-130.5 1206.83,-130.5"/>
<text text-anchor="middle" x="1118" y="-115.3" font-family="Arial" font-size="14.00" fill="#cfffac">pages/fragments/constants.js</text>
</g>
<!-- pages/fragment/LdodFragment.jsx&#45;&gt;pages/fragments/constants.js -->
<g id="edge19" class="edge">
<title>pages/fragment/LdodFragment.jsx&#45;&gt;pages/fragments/constants.js</title>
<path fill="none" stroke="#757575" d="M762.43,-286.28C794.3,-263.93 867.27,-214.63 934,-183 977.27,-162.48 1028.98,-145 1066.37,-133.52"/>
<polygon fill="#757575" stroke="#757575" points="1067.48,-136.84 1076.03,-130.59 1065.45,-130.14 1067.48,-136.84"/>
</g>
<!-- pages/fragment/components/Checkboxes.jsx -->
<g id="node22" class="node">
<title>pages/fragment/components/Checkboxes.jsx</title>
<path fill="none" stroke="#cfffac" d="M1657.33,-352.5C1657.33,-352.5 1385.67,-352.5 1385.67,-352.5 1381.83,-352.5 1378,-348.67 1378,-344.83 1378,-344.83 1378,-337.17 1378,-337.17 1378,-333.33 1381.83,-329.5 1385.67,-329.5 1385.67,-329.5 1657.33,-329.5 1657.33,-329.5 1661.17,-329.5 1665,-333.33 1665,-337.17 1665,-337.17 1665,-344.83 1665,-344.83 1665,-348.67 1661.17,-352.5 1657.33,-352.5"/>
<text text-anchor="middle" x="1521.5" y="-337.3" font-family="Arial" font-size="14.00" fill="#cfffac">pages/fragment/components/Checkboxes.jsx</text>
</g>
<!-- pages/fragment/components/EditorialInter.jsx&#45;&gt;pages/fragment/components/Checkboxes.jsx -->
<g id="edge20" class="edge">
<title>pages/fragment/components/EditorialInter.jsx&#45;&gt;pages/fragment/components/Checkboxes.jsx</title>
<path fill="none" stroke="#757575" d="M1262.25,-326.85C1296.48,-328.72 1333.15,-330.73 1367.79,-332.63"/>
<polygon fill="#757575" stroke="#757575" points="1367.8,-336.14 1377.98,-333.19 1368.19,-329.15 1367.8,-336.14"/>
</g>
<!-- pages/fragment/components/EditorialInterTranscription.jsx -->
<g id="node23" class="node">
<title>pages/fragment/components/EditorialInterTranscription.jsx</title>
<path fill="none" stroke="#cfffac" d="M1697.33,-231.5C1697.33,-231.5 1345.67,-231.5 1345.67,-231.5 1341.83,-231.5 1338,-227.67 1338,-223.83 1338,-223.83 1338,-216.17 1338,-216.17 1338,-212.33 1341.83,-208.5 1345.67,-208.5 1345.67,-208.5 1697.33,-208.5 1697.33,-208.5 1701.17,-208.5 1705,-212.33 1705,-216.17 1705,-216.17 1705,-223.83 1705,-223.83 1705,-227.67 1701.17,-231.5 1697.33,-231.5"/>
<text text-anchor="middle" x="1521.5" y="-216.3" font-family="Arial" font-size="14.00" fill="#cfffac">pages/fragment/components/EditorialInterTranscription.jsx</text>
</g>
<!-- pages/fragment/components/EditorialInter.jsx&#45;&gt;pages/fragment/components/EditorialInterTranscription.jsx -->
<g id="edge21" class="edge">
<title>pages/fragment/components/EditorialInter.jsx&#45;&gt;pages/fragment/components/EditorialInterTranscription.jsx</title>
<path fill="none" stroke="#757575" d="M1262.25,-315.42C1276.31,-311.35 1289.84,-305.7 1302,-298 1327.63,-281.76 1312.33,-256.17 1338,-240 1340.03,-238.72 1342.09,-237.5 1344.19,-236.34"/>
<polygon fill="#757575" stroke="#757575" points="1346.26,-239.22 1353.6,-231.59 1343.1,-232.97 1346.26,-239.22"/>
</g>
<!-- pages/fragment/components/Title.jsx -->
<g id="node24" class="node">
<title>pages/fragment/components/Title.jsx</title>
<path fill="none" stroke="#cfffac" d="M1633.33,-393.5C1633.33,-393.5 1409.67,-393.5 1409.67,-393.5 1405.83,-393.5 1402,-389.67 1402,-385.83 1402,-385.83 1402,-378.17 1402,-378.17 1402,-374.33 1405.83,-370.5 1409.67,-370.5 1409.67,-370.5 1633.33,-370.5 1633.33,-370.5 1637.17,-370.5 1641,-374.33 1641,-378.17 1641,-378.17 1641,-385.83 1641,-385.83 1641,-389.67 1637.17,-393.5 1633.33,-393.5"/>
<text text-anchor="middle" x="1521.5" y="-378.3" font-family="Arial" font-size="14.00" fill="#cfffac">pages/fragment/components/Title.jsx</text>
</g>
<!-- pages/fragment/components/EditorialInter.jsx&#45;&gt;pages/fragment/components/Title.jsx -->
<g id="edge22" class="edge">
<title>pages/fragment/components/EditorialInter.jsx&#45;&gt;pages/fragment/components/Title.jsx</title>
<path fill="none" stroke="#757575" d="M1262.21,-328.48C1275.83,-331.22 1289.3,-334.67 1302,-339 1319.75,-345.05 1320.27,-354.9 1338,-361 1355.13,-366.9 1373.64,-371.21 1392.07,-374.35"/>
<polygon fill="#757575" stroke="#757575" points="1391.57,-377.82 1402,-375.94 1392.67,-370.9 1391.57,-377.82"/>
</g>
<!-- pages/fragments/components/expertEdition.jsx -->
<g id="node25" class="node">
<title>pages/fragments/components/expertEdition.jsx</title>
<path fill="none" stroke="#c6c5fe" d="M2032.33,-106.5C2032.33,-106.5 1748.67,-106.5 1748.67,-106.5 1744.83,-106.5 1741,-102.67 1741,-98.83 1741,-98.83 1741,-91.17 1741,-91.17 1741,-87.33 1744.83,-83.5 1748.67,-83.5 1748.67,-83.5 2032.33,-83.5 2032.33,-83.5 2036.17,-83.5 2040,-87.33 2040,-91.17 2040,-91.17 2040,-98.83 2040,-98.83 2040,-102.67 2036.17,-106.5 2032.33,-106.5"/>
<text text-anchor="middle" x="1890.5" y="-91.3" font-family="Arial" font-size="14.00" fill="#c6c5fe">pages/fragments/components/expertEdition.jsx</text>
</g>
<!-- pages/fragment/components/EditorialInter.jsx&#45;&gt;pages/fragments/components/expertEdition.jsx -->
<g id="edge23" class="edge">
<title>pages/fragment/components/EditorialInter.jsx&#45;&gt;pages/fragments/components/expertEdition.jsx</title>
<path fill="none" stroke="#757575" d="M1262.22,-318.16C1424.57,-315.91 1671.2,-308.01 1705,-281 1749.16,-245.7 1703.49,-201.3 1741,-159 1762.67,-134.56 1795.32,-119.12 1824.49,-109.54"/>
<polygon fill="#757575" stroke="#757575" points="1825.71,-112.82 1834.22,-106.51 1823.64,-106.14 1825.71,-112.82"/>
</g>
<!-- pages/fragment/components/LineByLineTranscriptions.jsx&#45;&gt;pages/fragment/components/Checkboxes.jsx -->
<g id="edge24" class="edge">
<title>pages/fragment/components/LineByLineTranscriptions.jsx&#45;&gt;pages/fragment/components/Checkboxes.jsx</title>
<path fill="none" stroke="#757575" d="M1300.66,-351.4C1323.08,-350.34 1345.82,-349.27 1367.75,-348.23"/>
<polygon fill="#757575" stroke="#757575" points="1367.94,-351.72 1377.76,-347.75 1367.61,-344.73 1367.94,-351.72"/>
</g>
<!-- pages/fragment/components/LineByLineTranscriptions.jsx&#45;&gt;pages/fragment/components/Title.jsx -->
<g id="edge25" class="edge">
<title>pages/fragment/components/LineByLineTranscriptions.jsx&#45;&gt;pages/fragment/components/Title.jsx</title>
<path fill="none" stroke="#757575" d="M1300.66,-369.95C1331.4,-371.64 1362.75,-373.36 1391.77,-374.95"/>
<polygon fill="#757575" stroke="#757575" points="1391.76,-378.45 1401.94,-375.5 1392.15,-371.46 1391.76,-378.45"/>
</g>
<!-- pages/fragment/components/VariationsTable.jsx -->
<g id="node26" class="node">
<title>pages/fragment/components/VariationsTable.jsx</title>
<path fill="none" stroke="#cfffac" d="M1666.33,-272.5C1666.33,-272.5 1376.67,-272.5 1376.67,-272.5 1372.83,-272.5 1369,-268.67 1369,-264.83 1369,-264.83 1369,-257.17 1369,-257.17 1369,-253.33 1372.83,-249.5 1376.67,-249.5 1376.67,-249.5 1666.33,-249.5 1666.33,-249.5 1670.17,-249.5 1674,-253.33 1674,-257.17 1674,-257.17 1674,-264.83 1674,-264.83 1674,-268.67 1670.17,-272.5 1666.33,-272.5"/>
<text text-anchor="middle" x="1521.5" y="-257.3" font-family="Arial" font-size="14.00" fill="#cfffac">pages/fragment/components/VariationsTable.jsx</text>
</g>
<!-- pages/fragment/components/LineByLineTranscriptions.jsx&#45;&gt;pages/fragment/components/VariationsTable.jsx -->
<g id="edge26" class="edge">
<title>pages/fragment/components/LineByLineTranscriptions.jsx&#45;&gt;pages/fragment/components/VariationsTable.jsx</title>
<path fill="none" stroke="#757575" d="M1263.89,-348.45C1276.91,-345.89 1289.78,-342.78 1302,-339 1319.28,-333.65 1321.33,-327.03 1338,-320 1380.63,-302.02 1430.74,-286.18 1467.66,-275.45"/>
<polygon fill="#757575" stroke="#757575" points="1469.06,-278.69 1477.7,-272.56 1467.13,-271.96 1469.06,-278.69"/>
</g>
<!-- pages/fragment/components/SideBySideTranscriptions.jsx&#45;&gt;pages/fragment/utils.js -->
<g id="edge31" class="edge">
<title>pages/fragment/components/SideBySideTranscriptions.jsx&#45;&gt;pages/fragment/utils.js</title>
<path fill="none" stroke="#757575" d="M1287.57,-266.38C1292.6,-263.62 1297.43,-260.5 1302,-257 1336.52,-230.53 1303.85,-192.93 1338,-166 1365.1,-144.63 1401.75,-136.65 1435.1,-134.57"/>
<polygon fill="#757575" stroke="#757575" points="1435.5,-138.05 1445.33,-134.11 1435.19,-131.06 1435.5,-138.05"/>
</g>
<!-- pages/fragment/components/SideBySideTranscriptions.jsx&#45;&gt;pages/fragment/components/Checkboxes.jsx -->
<g id="edge27" class="edge">
<title>pages/fragment/components/SideBySideTranscriptions.jsx&#45;&gt;pages/fragment/components/Checkboxes.jsx</title>
<path fill="none" stroke="#757575" d="M1238.3,-289.55C1259.56,-292.03 1281.46,-294.86 1302,-298 1355.18,-306.12 1415.11,-318.12 1458.74,-327.38"/>
<polygon fill="#757575" stroke="#757575" points="1458.11,-330.83 1468.62,-329.49 1459.58,-323.98 1458.11,-330.83"/>
</g>
<!-- pages/fragment/components/SideBySideTranscriptions.jsx&#45;&gt;pages/fragment/components/EditorialInterTranscription.jsx -->
<g id="edge28" class="edge">
<title>pages/fragment/components/SideBySideTranscriptions.jsx&#45;&gt;pages/fragment/components/EditorialInterTranscription.jsx</title>
<path fill="none" stroke="#757575" d="M1260.29,-266.5C1274.51,-263.94 1288.62,-260.81 1302,-257 1319.02,-252.15 1320.97,-244.81 1338,-240 1346.67,-237.55 1355.66,-235.4 1364.78,-233.51"/>
<polygon fill="#757575" stroke="#757575" points="1365.58,-236.92 1374.72,-231.56 1364.23,-230.05 1365.58,-236.92"/>
</g>
<!-- pages/fragment/components/SideBySideTranscriptions.jsx&#45;&gt;pages/fragment/components/Title.jsx -->
<g id="edge29" class="edge">
<title>pages/fragment/components/SideBySideTranscriptions.jsx&#45;&gt;pages/fragment/components/Title.jsx</title>
<path fill="none" stroke="#757575" d="M1286.94,-289.54C1292.15,-292.04 1297.19,-294.85 1302,-298 1328.97,-315.68 1311.08,-343.24 1338,-361 1354.1,-371.62 1372.77,-378.39 1391.9,-382.54"/>
<polygon fill="#757575" stroke="#757575" points="1391.46,-386.02 1401.94,-384.48 1392.79,-379.15 1391.46,-386.02"/>
</g>
<!-- pages/fragment/components/SideBySideTranscriptions.jsx&#45;&gt;pages/fragment/components/VariationsTable.jsx -->
<g id="edge30" class="edge">
<title>pages/fragment/components/SideBySideTranscriptions.jsx&#45;&gt;pages/fragment/components/VariationsTable.jsx</title>
<path fill="none" stroke="#757575" d="M1302.13,-270.25C1321.06,-269.44 1340.2,-268.63 1358.88,-267.84"/>
<polygon fill="#757575" stroke="#757575" points="1359.05,-271.34 1368.9,-267.42 1358.76,-264.35 1359.05,-271.34"/>
</g>
<!-- pages/fragments/components/sourceInter.jsx -->
<g id="node27" class="node">
<title>pages/fragments/components/sourceInter.jsx</title>
<path fill="none" stroke="#cfffac" d="M2026.33,-191.5C2026.33,-191.5 1754.67,-191.5 1754.67,-191.5 1750.83,-191.5 1747,-187.67 1747,-183.83 1747,-183.83 1747,-176.17 1747,-176.17 1747,-172.33 1750.83,-168.5 1754.67,-168.5 1754.67,-168.5 2026.33,-168.5 2026.33,-168.5 2030.17,-168.5 2034,-172.33 2034,-176.17 2034,-176.17 2034,-183.83 2034,-183.83 2034,-187.67 2030.17,-191.5 2026.33,-191.5"/>
<text text-anchor="middle" x="1890.5" y="-176.3" font-family="Arial" font-size="14.00" fill="#cfffac">pages/fragments/components/sourceInter.jsx</text>
</g>
<!-- pages/fragment/components/SideBySideTranscriptions.jsx&#45;&gt;pages/fragments/components/sourceInter.jsx -->
<g id="edge32" class="edge">
<title>pages/fragment/components/SideBySideTranscriptions.jsx&#45;&gt;pages/fragments/components/sourceInter.jsx</title>
<path fill="none" stroke="#757575" d="M1284.17,-266.49C1290.35,-263.74 1296.33,-260.59 1302,-257 1327.63,-240.76 1311.74,-214.2 1338,-199 1403.31,-161.18 1597.13,-162.72 1736.54,-169.49"/>
<polygon fill="#757575" stroke="#757575" points="1736.74,-173 1746.9,-170.01 1737.09,-166.01 1736.74,-173"/>
</g>
<!-- pages/fragment/components/SourceInter.jsx&#45;&gt;pages/fragment/components/Checkboxes.jsx -->
<g id="edge33" class="edge">
<title>pages/fragment/components/SourceInter.jsx&#45;&gt;pages/fragment/components/Checkboxes.jsx</title>
<path fill="none" stroke="#757575" d="M1259.01,-390.38C1273.68,-387.66 1288.25,-384.25 1302,-380 1319.28,-374.65 1320.7,-366.3 1338,-361 1347.7,-358.03 1357.81,-355.48 1368.07,-353.31"/>
<polygon fill="#757575" stroke="#757575" points="1368.84,-356.73 1377.96,-351.34 1367.47,-349.86 1368.84,-356.73"/>
</g>
<!-- pages/fragment/components/SourceInter.jsx&#45;&gt;pages/fragment/components/Title.jsx -->
<g id="edge35" class="edge">
<title>pages/fragment/components/SourceInter.jsx&#45;&gt;pages/fragment/components/Title.jsx</title>
<path fill="none" stroke="#757575" d="M1259.14,-394.37C1302.29,-392.33 1349.55,-390.09 1391.88,-388.09"/>
<polygon fill="#757575" stroke="#757575" points="1392.14,-391.58 1401.96,-387.61 1391.81,-384.59 1392.14,-391.58"/>
</g>
<!-- pages/fragment/components/SourceInter.jsx&#45;&gt;pages/fragments/components/sourceInter.jsx -->
<g id="edge36" class="edge">
<title>pages/fragment/components/SourceInter.jsx&#45;&gt;pages/fragments/components/sourceInter.jsx</title>
<path fill="none" stroke="#757575" d="M1259.18,-410.44C1421.64,-419.97 1671.5,-429.69 1705,-402 1770.57,-347.8 1681.93,-275.23 1741,-214 1748.24,-206.5 1756.76,-200.5 1766.01,-195.72"/>
<polygon fill="#757575" stroke="#757575" points="1767.49,-198.9 1775.08,-191.51 1764.54,-192.55 1767.49,-198.9"/>
</g>
<!-- pages/fragment/components/SourceInterTranscription.jsx -->
<g id="node28" class="node">
<title>pages/fragment/components/SourceInterTranscription.jsx</title>
<path fill="none" stroke="#c6c5fe" d="M1694.33,-473.5C1694.33,-473.5 1348.67,-473.5 1348.67,-473.5 1344.83,-473.5 1341,-469.67 1341,-465.83 1341,-465.83 1341,-458.17 1341,-458.17 1341,-454.33 1344.83,-450.5 1348.67,-450.5 1348.67,-450.5 1694.33,-450.5 1694.33,-450.5 1698.17,-450.5 1702,-454.33 1702,-458.17 1702,-458.17 1702,-465.83 1702,-465.83 1702,-469.67 1698.17,-473.5 1694.33,-473.5"/>
<text text-anchor="middle" x="1521.5" y="-458.3" font-family="Arial" font-size="14.00" fill="#c6c5fe">pages/fragment/components/SourceInterTranscription.jsx</text>
</g>
<!-- pages/fragment/components/SourceInter.jsx&#45;&gt;pages/fragment/components/SourceInterTranscription.jsx -->
<g id="edge34" class="edge">
<title>pages/fragment/components/SourceInter.jsx&#45;&gt;pages/fragment/components/SourceInterTranscription.jsx</title>
<path fill="none" stroke="#757575" d="M1259.13,-412.14C1273.71,-414.54 1288.23,-417.46 1302,-421 1318.79,-425.32 1321.29,-431.41 1338,-436 1357.01,-441.22 1377.43,-445.44 1397.5,-448.83"/>
<polygon fill="#757575" stroke="#757575" points="1397.19,-452.32 1407.62,-450.47 1398.32,-445.41 1397.19,-452.32"/>
</g>
<!-- pages/fragment/components/TextNavigationTable.jsx -->
<g id="node30" class="node">
<title>pages/fragment/components/TextNavigationTable.jsx</title>
<path fill="none" stroke="#cfffac" d="M1680.83,-514.5C1680.83,-514.5 1362.17,-514.5 1362.17,-514.5 1358.33,-514.5 1354.5,-510.67 1354.5,-506.83 1354.5,-506.83 1354.5,-499.17 1354.5,-499.17 1354.5,-495.33 1358.33,-491.5 1362.17,-491.5 1362.17,-491.5 1680.83,-491.5 1680.83,-491.5 1684.67,-491.5 1688.5,-495.33 1688.5,-499.17 1688.5,-499.17 1688.5,-506.83 1688.5,-506.83 1688.5,-510.67 1684.67,-514.5 1680.83,-514.5"/>
<text text-anchor="middle" x="1521.5" y="-499.3" font-family="Arial" font-size="14.00" fill="#cfffac">pages/fragment/components/TextNavigationTable.jsx</text>
</g>
<!-- pages/fragment/components/TextNavigation.jsx&#45;&gt;pages/fragment/components/TextNavigationTable.jsx -->
<g id="edge38" class="edge">
<title>pages/fragment/components/TextNavigation.jsx&#45;&gt;pages/fragment/components/TextNavigationTable.jsx</title>
<path fill="none" stroke="#757575" d="M1269.07,-490.48C1293.55,-491.69 1319.09,-492.97 1344.12,-494.21"/>
<polygon fill="#757575" stroke="#757575" points="1344.27,-497.73 1354.44,-494.73 1344.62,-490.73 1344.27,-497.73"/>
</g>
<!-- utils.js -->
<g id="node36" class="node">
<title>utils.js</title>
<path fill="none" stroke="#c6c5fe" d="M2231.83,-77.5C2231.83,-77.5 2193.17,-77.5 2193.17,-77.5 2189.33,-77.5 2185.5,-73.67 2185.5,-69.83 2185.5,-69.83 2185.5,-62.17 2185.5,-62.17 2185.5,-58.33 2189.33,-54.5 2193.17,-54.5 2193.17,-54.5 2231.83,-54.5 2231.83,-54.5 2235.67,-54.5 2239.5,-58.33 2239.5,-62.17 2239.5,-62.17 2239.5,-69.83 2239.5,-69.83 2239.5,-73.67 2235.67,-77.5 2231.83,-77.5"/>
<text text-anchor="middle" x="2212.5" y="-62.3" font-family="Arial" font-size="14.00" fill="#c6c5fe">utils.js</text>
</g>
<!-- pages/fragments/components/expertEdition.jsx&#45;&gt;utils.js -->
<g id="edge46" class="edge">
<title>pages/fragments/components/expertEdition.jsx&#45;&gt;utils.js</title>
<path fill="none" stroke="#757575" d="M2018.43,-83.5C2074.9,-78.38 2137.1,-72.74 2175.24,-69.29"/>
<polygon fill="#757575" stroke="#757575" points="2175.69,-72.76 2185.34,-68.37 2175.06,-65.79 2175.69,-72.76"/>
</g>
<!-- pages/fragment/components/Viewer.jsx -->
<g id="node29" class="node">
<title>pages/fragment/components/Viewer.jsx</title>
<path fill="none" stroke="#c6c5fe" d="M2009.83,-246.5C2009.83,-246.5 1771.17,-246.5 1771.17,-246.5 1767.33,-246.5 1763.5,-242.67 1763.5,-238.83 1763.5,-238.83 1763.5,-231.17 1763.5,-231.17 1763.5,-227.33 1767.33,-223.5 1771.17,-223.5 1771.17,-223.5 2009.83,-223.5 2009.83,-223.5 2013.67,-223.5 2017.5,-227.33 2017.5,-231.17 2017.5,-231.17 2017.5,-238.83 2017.5,-238.83 2017.5,-242.67 2013.67,-246.5 2009.83,-246.5"/>
<text text-anchor="middle" x="1890.5" y="-231.3" font-family="Arial" font-size="14.00" fill="#c6c5fe">pages/fragment/components/Viewer.jsx</text>
</g>
<!-- pages/fragment/components/SourceInterTranscription.jsx&#45;&gt;pages/fragment/components/Viewer.jsx -->
<g id="edge37" class="edge">
<title>pages/fragment/components/SourceInterTranscription.jsx&#45;&gt;pages/fragment/components/Viewer.jsx</title>
<path fill="none" stroke="#757575" d="M1668.84,-450.45C1681.43,-446.7 1693.67,-441.97 1705,-436 1787.43,-392.58 1852.1,-297.24 1877.65,-255.38"/>
<polygon fill="#757575" stroke="#757575" points="1880.76,-257 1882.9,-246.62 1874.75,-253.4 1880.76,-257"/>
</g>
<!-- pages/fragment/components/Viewer.jsx&#45;&gt;pages/edition/EditionRouter.jsx -->
<g id="edge39" class="edge">
<title>pages/fragment/components/Viewer.jsx&#45;&gt;pages/edition/EditionRouter.jsx</title>
<path fill="none" stroke="#757575" d="M1952.07,-223.45C2005.82,-213.21 2084.39,-198.23 2140.97,-187.45"/>
<polygon fill="#757575" stroke="#757575" points="2141.74,-190.86 2150.91,-185.55 2140.43,-183.98 2141.74,-190.86"/>
</g>
<!-- pages/fragment/components/navImages.js -->
<g id="node31" class="node">
<title>pages/fragment/components/navImages.js</title>
<path fill="none" stroke="#cfffac" d="M2341.33,-246.5C2341.33,-246.5 2083.67,-246.5 2083.67,-246.5 2079.83,-246.5 2076,-242.67 2076,-238.83 2076,-238.83 2076,-231.17 2076,-231.17 2076,-227.33 2079.83,-223.5 2083.67,-223.5 2083.67,-223.5 2341.33,-223.5 2341.33,-223.5 2345.17,-223.5 2349,-227.33 2349,-231.17 2349,-231.17 2349,-238.83 2349,-238.83 2349,-242.67 2345.17,-246.5 2341.33,-246.5"/>
<text text-anchor="middle" x="2212.5" y="-231.3" font-family="Arial" font-size="14.00" fill="#cfffac">pages/fragment/components/navImages.js</text>
</g>
<!-- pages/fragment/components/Viewer.jsx&#45;&gt;pages/fragment/components/navImages.js -->
<g id="edge40" class="edge">
<title>pages/fragment/components/Viewer.jsx&#45;&gt;pages/fragment/components/navImages.js</title>
<path fill="none" stroke="#757575" d="M2017.51,-235C2033.37,-235 2049.7,-235 2065.83,-235"/>
<polygon fill="#757575" stroke="#757575" points="2065.84,-238.5 2075.84,-235 2065.84,-231.5 2065.84,-238.5"/>
</g>
<!-- pages/fragment/fragment.js -->
<g id="node32" class="node">
<title>pages/fragment/fragment.js</title>
<path fill="none" stroke="#c6c5fe" d="M501.33,-170.5C501.33,-170.5 334.67,-170.5 334.67,-170.5 330.83,-170.5 327,-166.67 327,-162.83 327,-162.83 327,-155.17 327,-155.17 327,-151.33 330.83,-147.5 334.67,-147.5 334.67,-147.5 501.33,-147.5 501.33,-147.5 505.17,-147.5 509,-151.33 509,-155.17 509,-155.17 509,-162.83 509,-162.83 509,-166.67 505.17,-170.5 501.33,-170.5"/>
<text text-anchor="middle" x="418" y="-155.3" font-family="Arial" font-size="14.00" fill="#c6c5fe">pages/fragment/fragment.js</text>
</g>
<!-- pages/fragment/fragment.js&#45;&gt;pages/fragment/LdodFragment.jsx -->
<g id="edge41" class="edge">
<title>pages/fragment/fragment.js&#45;&gt;pages/fragment/LdodFragment.jsx</title>
<path fill="none" stroke="#757575" d="M446.15,-170.61C504.34,-195.5 641.13,-254 707.12,-282.22"/>
<polygon fill="#757575" stroke="#757575" points="706.13,-285.61 716.7,-286.32 708.88,-279.17 706.13,-285.61"/>
</g>
<!-- pages/fragment/fragment.js&#45;&gt;pages/fragment/utils.js -->
<g id="edge42" class="edge">
<title>pages/fragment/fragment.js&#45;&gt;pages/fragment/utils.js</title>
<path fill="none" stroke="#757575" d="M509.14,-157.45C717.82,-153.85 1231.82,-144.98 1435.44,-141.47"/>
<polygon fill="#757575" stroke="#757575" points="1435.55,-144.97 1445.49,-141.29 1435.43,-137.97 1435.55,-144.97"/>
</g>
<!-- pages/fragments/LdodFragments.jsx -->
<g id="node33" class="node">
<title>pages/fragments/LdodFragments.jsx</title>
<path fill="none" stroke="#c6c5fe" d="M855.83,-129.5C855.83,-129.5 634.17,-129.5 634.17,-129.5 630.33,-129.5 626.5,-125.67 626.5,-121.83 626.5,-121.83 626.5,-114.17 626.5,-114.17 626.5,-110.33 630.33,-106.5 634.17,-106.5 634.17,-106.5 855.83,-106.5 855.83,-106.5 859.67,-106.5 863.5,-110.33 863.5,-114.17 863.5,-114.17 863.5,-121.83 863.5,-121.83 863.5,-125.67 859.67,-129.5 855.83,-129.5"/>
<text text-anchor="middle" x="745" y="-114.3" font-family="Arial" font-size="14.00" fill="#c6c5fe">pages/fragments/LdodFragments.jsx</text>
</g>
<!-- pages/fragments/LdodFragments.jsx&#45;&gt;pages/fragments/constants.js -->
<g id="edge44" class="edge">
<title>pages/fragments/LdodFragments.jsx&#45;&gt;pages/fragments/constants.js</title>
<path fill="none" stroke="#757575" d="M863.64,-118.32C911,-118.44 965.19,-118.59 1011.28,-118.72"/>
<polygon fill="#757575" stroke="#757575" points="1011.28,-122.21 1021.29,-118.74 1011.29,-115.21 1011.28,-122.21"/>
</g>
<!-- pages/fragments/components/FragsTable.jsx -->
<g id="node34" class="node">
<title>pages/fragments/components/FragsTable.jsx</title>
<path fill="none" stroke="#c6c5fe" d="M1253.83,-89.5C1253.83,-89.5 982.17,-89.5 982.17,-89.5 978.33,-89.5 974.5,-85.67 974.5,-81.83 974.5,-81.83 974.5,-74.17 974.5,-74.17 974.5,-70.33 978.33,-66.5 982.17,-66.5 982.17,-66.5 1253.83,-66.5 1253.83,-66.5 1257.67,-66.5 1261.5,-70.33 1261.5,-74.17 1261.5,-74.17 1261.5,-81.83 1261.5,-81.83 1261.5,-85.67 1257.67,-89.5 1253.83,-89.5"/>
<text text-anchor="middle" x="1118" y="-74.3" font-family="Arial" font-size="14.00" fill="#c6c5fe">pages/fragments/components/FragsTable.jsx</text>
</g>
<!-- pages/fragments/LdodFragments.jsx&#45;&gt;pages/fragments/components/FragsTable.jsx -->
<g id="edge43" class="edge">
<title>pages/fragments/LdodFragments.jsx&#45;&gt;pages/fragments/components/FragsTable.jsx</title>
<path fill="none" stroke="#757575" d="M852.81,-106.48C898.98,-101.51 953.12,-95.67 1000.34,-90.58"/>
<polygon fill="#757575" stroke="#757575" points="1000.73,-94.06 1010.3,-89.5 999.98,-87.1 1000.73,-94.06"/>
</g>
<!-- pages/fragments/components/tableData.jsx -->
<g id="node35" class="node">
<title>pages/fragments/components/tableData.jsx</title>
<path fill="none" stroke="#c6c5fe" d="M1652.83,-106.5C1652.83,-106.5 1390.17,-106.5 1390.17,-106.5 1386.33,-106.5 1382.5,-102.67 1382.5,-98.83 1382.5,-98.83 1382.5,-91.17 1382.5,-91.17 1382.5,-87.33 1386.33,-83.5 1390.17,-83.5 1390.17,-83.5 1652.83,-83.5 1652.83,-83.5 1656.67,-83.5 1660.5,-87.33 1660.5,-91.17 1660.5,-91.17 1660.5,-98.83 1660.5,-98.83 1660.5,-102.67 1656.67,-106.5 1652.83,-106.5"/>
<text text-anchor="middle" x="1521.5" y="-91.3" font-family="Arial" font-size="14.00" fill="#c6c5fe">pages/fragments/components/tableData.jsx</text>
</g>
<!-- pages/fragments/components/FragsTable.jsx&#45;&gt;pages/fragments/components/tableData.jsx -->
<g id="edge45" class="edge">
<title>pages/fragments/components/FragsTable.jsx&#45;&gt;pages/fragments/components/tableData.jsx</title>
<path fill="none" stroke="#757575" d="M1261.68,-84.04C1297.53,-85.56 1336.08,-87.19 1372.2,-88.72"/>
<polygon fill="#757575" stroke="#757575" points="1372.18,-92.22 1382.32,-89.15 1372.47,-85.23 1372.18,-92.22"/>
</g>
<!-- pages/fragments/components/tableData.jsx&#45;&gt;pages/fragments/components/expertEdition.jsx -->
<g id="edge47" class="edge">
<title>pages/fragments/components/tableData.jsx&#45;&gt;pages/fragments/components/expertEdition.jsx</title>
<path fill="none" stroke="#757575" d="M1660.72,-95C1683.56,-95 1707.39,-95 1730.68,-95"/>
<polygon fill="#757575" stroke="#757575" points="1730.98,-98.5 1740.98,-95 1730.98,-91.5 1730.98,-98.5"/>
</g>
<!-- pages/fragments/components/tableData.jsx&#45;&gt;pages/fragments/components/sourceInter.jsx -->
<g id="edge48" class="edge">
<title>pages/fragments/components/tableData.jsx&#45;&gt;pages/fragments/components/sourceInter.jsx</title>
<path fill="none" stroke="#757575" d="M1636.02,-106.55C1659,-109.84 1682.88,-113.94 1705,-119 1756.47,-130.78 1813.97,-150.96 1850.89,-164.86"/>
<polygon fill="#757575" stroke="#757575" points="1849.68,-168.15 1860.27,-168.43 1852.17,-161.6 1849.68,-168.15"/>
</g>
<!-- textReferences.js -->
<g id="node52" class="node">
<title>textReferences.js</title>
<path fill="none" stroke="#cfffac" d="M2556.83,-66.5C2556.83,-66.5 2451.17,-66.5 2451.17,-66.5 2447.33,-66.5 2443.5,-62.67 2443.5,-58.83 2443.5,-58.83 2443.5,-51.17 2443.5,-51.17 2443.5,-47.33 2447.33,-43.5 2451.17,-43.5 2451.17,-43.5 2556.83,-43.5 2556.83,-43.5 2560.67,-43.5 2564.5,-47.33 2564.5,-51.17 2564.5,-51.17 2564.5,-58.83 2564.5,-58.83 2564.5,-62.67 2560.67,-66.5 2556.83,-66.5"/>
<text text-anchor="middle" x="2504" y="-51.3" font-family="Arial" font-size="14.00" fill="#cfffac">textReferences.js</text>
</g>
<!-- utils.js&#45;&gt;textReferences.js -->
<g id="edge68" class="edge">
<title>utils.js&#45;&gt;textReferences.js</title>
<path fill="none" stroke="#757575" d="M2239.7,-65C2283.01,-63.36 2370.94,-60.02 2433.24,-57.65"/>
<polygon fill="#757575" stroke="#757575" points="2433.54,-61.14 2443.4,-57.26 2433.27,-54.15 2433.54,-61.14"/>
</g>
<!-- pages/fragments/fragments.jsx -->
<g id="node37" class="node">
<title>pages/fragments/fragments.jsx</title>
<path fill="none" stroke="#c6c5fe" d="M511.83,-129.5C511.83,-129.5 324.17,-129.5 324.17,-129.5 320.33,-129.5 316.5,-125.67 316.5,-121.83 316.5,-121.83 316.5,-114.17 316.5,-114.17 316.5,-110.33 320.33,-106.5 324.17,-106.5 324.17,-106.5 511.83,-106.5 511.83,-106.5 515.67,-106.5 519.5,-110.33 519.5,-114.17 519.5,-114.17 519.5,-121.83 519.5,-121.83 519.5,-125.67 515.67,-129.5 511.83,-129.5"/>
<text text-anchor="middle" x="418" y="-114.3" font-family="Arial" font-size="14.00" fill="#c6c5fe">pages/fragments/fragments.jsx</text>
</g>
<!-- pages/fragments/fragments.jsx&#45;&gt;pages/fragments/LdodFragments.jsx -->
<g id="edge49" class="edge">
<title>pages/fragments/fragments.jsx&#45;&gt;pages/fragments/LdodFragments.jsx</title>
<path fill="none" stroke="#757575" d="M519.61,-118C550.05,-118 583.91,-118 615.9,-118"/>
<polygon fill="#757575" stroke="#757575" points="616.22,-121.5 626.22,-118 616.22,-114.5 616.22,-121.5"/>
</g>
<!-- pages/management/LdodManageFragments.jsx -->
<g id="node38" class="node">
<title>pages/management/LdodManageFragments.jsx</title>
<path fill="none" stroke="#c6c5fe" d="M890.33,-678.5C890.33,-678.5 599.67,-678.5 599.67,-678.5 595.83,-678.5 592,-674.67 592,-670.83 592,-670.83 592,-663.17 592,-663.17 592,-659.33 595.83,-655.5 599.67,-655.5 599.67,-655.5 890.33,-655.5 890.33,-655.5 894.17,-655.5 898,-659.33 898,-663.17 898,-663.17 898,-670.83 898,-670.83 898,-674.67 894.17,-678.5 890.33,-678.5"/>
<text text-anchor="middle" x="745" y="-663.3" font-family="Arial" font-size="14.00" fill="#c6c5fe">pages/management/LdodManageFragments.jsx</text>
</g>
<!-- pages/management/components/FragsTable.jsx -->
<g id="node39" class="node">
<title>pages/management/components/FragsTable.jsx</title>
<path fill="none" stroke="#c6c5fe" d="M1263.33,-740.5C1263.33,-740.5 972.67,-740.5 972.67,-740.5 968.83,-740.5 965,-736.67 965,-732.83 965,-732.83 965,-725.17 965,-725.17 965,-721.33 968.83,-717.5 972.67,-717.5 972.67,-717.5 1263.33,-717.5 1263.33,-717.5 1267.17,-717.5 1271,-721.33 1271,-725.17 1271,-725.17 1271,-732.83 1271,-732.83 1271,-736.67 1267.17,-740.5 1263.33,-740.5"/>
<text text-anchor="middle" x="1118" y="-725.3" font-family="Arial" font-size="14.00" fill="#c6c5fe">pages/management/components/FragsTable.jsx</text>
</g>
<!-- pages/management/LdodManageFragments.jsx&#45;&gt;pages/management/components/FragsTable.jsx -->
<g id="edge50" class="edge">
<title>pages/management/LdodManageFragments.jsx&#45;&gt;pages/management/components/FragsTable.jsx</title>
<path fill="none" stroke="#757575" d="M790.93,-678.51C828.85,-687.87 884.68,-700.82 934,-709 950.21,-711.69 967.29,-714.1 984.23,-716.25"/>
<polygon fill="#757575" stroke="#757575" points="983.84,-719.72 994.19,-717.48 984.69,-712.78 983.84,-719.72"/>
</g>
<!-- pages/management/components/Title.jsx -->
<g id="node40" class="node">
<title>pages/management/components/Title.jsx</title>
<path fill="none" stroke="#cfffac" d="M1242.83,-699.5C1242.83,-699.5 993.17,-699.5 993.17,-699.5 989.33,-699.5 985.5,-695.67 985.5,-691.83 985.5,-691.83 985.5,-684.17 985.5,-684.17 985.5,-680.33 989.33,-676.5 993.17,-676.5 993.17,-676.5 1242.83,-676.5 1242.83,-676.5 1246.67,-676.5 1250.5,-680.33 1250.5,-684.17 1250.5,-684.17 1250.5,-691.83 1250.5,-691.83 1250.5,-695.67 1246.67,-699.5 1242.83,-699.5"/>
<text text-anchor="middle" x="1118" y="-684.3" font-family="Arial" font-size="14.00" fill="#cfffac">pages/management/components/Title.jsx</text>
</g>
<!-- pages/management/LdodManageFragments.jsx&#45;&gt;pages/management/components/Title.jsx -->
<g id="edge51" class="edge">
<title>pages/management/LdodManageFragments.jsx&#45;&gt;pages/management/components/Title.jsx</title>
<path fill="none" stroke="#757575" d="M898.24,-675.62C923.64,-677.05 949.89,-678.54 975.02,-679.96"/>
<polygon fill="#757575" stroke="#757575" points="975.16,-683.48 985.34,-680.55 975.56,-676.49 975.16,-683.48"/>
</g>
<!-- pages/management/components/exportButtons.jsx -->
<g id="node41" class="node">
<title>pages/management/components/exportButtons.jsx</title>
<path fill="none" stroke="#cfffac" d="M1271.83,-658.5C1271.83,-658.5 964.17,-658.5 964.17,-658.5 960.33,-658.5 956.5,-654.67 956.5,-650.83 956.5,-650.83 956.5,-643.17 956.5,-643.17 956.5,-639.33 960.33,-635.5 964.17,-635.5 964.17,-635.5 1271.83,-635.5 1271.83,-635.5 1275.67,-635.5 1279.5,-639.33 1279.5,-643.17 1279.5,-643.17 1279.5,-650.83 1279.5,-650.83 1279.5,-654.67 1275.67,-658.5 1271.83,-658.5"/>
<text text-anchor="middle" x="1118" y="-643.3" font-family="Arial" font-size="14.00" fill="#cfffac">pages/management/components/exportButtons.jsx</text>
</g>
<!-- pages/management/LdodManageFragments.jsx&#45;&gt;pages/management/components/exportButtons.jsx -->
<g id="edge52" class="edge">
<title>pages/management/LdodManageFragments.jsx&#45;&gt;pages/management/components/exportButtons.jsx</title>
<path fill="none" stroke="#757575" d="M898.24,-658.79C914.14,-657.94 930.37,-657.06 946.46,-656.19"/>
<polygon fill="#757575" stroke="#757575" points="946.65,-659.69 956.45,-655.66 946.27,-652.7 946.65,-659.69"/>
</g>
<!-- pages/management/components/uploadButtons.jsx -->
<g id="node42" class="node">
<title>pages/management/components/uploadButtons.jsx</title>
<path fill="none" stroke="#cfffac" d="M1273.33,-617.5C1273.33,-617.5 962.67,-617.5 962.67,-617.5 958.83,-617.5 955,-613.67 955,-609.83 955,-609.83 955,-602.17 955,-602.17 955,-598.33 958.83,-594.5 962.67,-594.5 962.67,-594.5 1273.33,-594.5 1273.33,-594.5 1277.17,-594.5 1281,-598.33 1281,-602.17 1281,-602.17 1281,-609.83 1281,-609.83 1281,-613.67 1277.17,-617.5 1273.33,-617.5"/>
<text text-anchor="middle" x="1118" y="-602.3" font-family="Arial" font-size="14.00" fill="#cfffac">pages/management/components/uploadButtons.jsx</text>
</g>
<!-- pages/management/LdodManageFragments.jsx&#45;&gt;pages/management/components/uploadButtons.jsx -->
<g id="edge53" class="edge">
<title>pages/management/LdodManageFragments.jsx&#45;&gt;pages/management/components/uploadButtons.jsx</title>
<path fill="none" stroke="#757575" d="M794.06,-655.45C831.9,-646.68 886.08,-634.83 934,-627 952.54,-623.97 972.22,-621.22 991.52,-618.79"/>
<polygon fill="#757575" stroke="#757575" points="992.08,-622.25 1001.58,-617.55 991.22,-615.3 992.08,-622.25"/>
</g>
<!-- pages/management/constants.js -->
<g id="node43" class="node">
<title>pages/management/constants.js</title>
<path fill="none" stroke="#cfffac" d="M1216.33,-781.5C1216.33,-781.5 1019.67,-781.5 1019.67,-781.5 1015.83,-781.5 1012,-777.67 1012,-773.83 1012,-773.83 1012,-766.17 1012,-766.17 1012,-762.33 1015.83,-758.5 1019.67,-758.5 1019.67,-758.5 1216.33,-758.5 1216.33,-758.5 1220.17,-758.5 1224,-762.33 1224,-766.17 1224,-766.17 1224,-773.83 1224,-773.83 1224,-777.67 1220.17,-781.5 1216.33,-781.5"/>
<text text-anchor="middle" x="1118" y="-766.3" font-family="Arial" font-size="14.00" fill="#cfffac">pages/management/constants.js</text>
</g>
<!-- pages/management/LdodManageFragments.jsx&#45;&gt;pages/management/constants.js -->
<g id="edge54" class="edge">
<title>pages/management/LdodManageFragments.jsx&#45;&gt;pages/management/constants.js</title>
<path fill="none" stroke="#757575" d="M766.38,-678.51C800.08,-696.97 870.08,-732.84 934,-750 955.64,-755.81 979.16,-759.94 1001.9,-762.87"/>
<polygon fill="#757575" stroke="#757575" points="1001.59,-766.36 1011.94,-764.1 1002.44,-759.41 1001.59,-766.36"/>
</g>
<!-- pages/management/components/tableData.jsx -->
<g id="node44" class="node">
<title>pages/management/components/tableData.jsx</title>
<path fill="none" stroke="#cfffac" d="M1662.33,-740.5C1662.33,-740.5 1380.67,-740.5 1380.67,-740.5 1376.83,-740.5 1373,-736.67 1373,-732.83 1373,-732.83 1373,-725.17 1373,-725.17 1373,-721.33 1376.83,-717.5 1380.67,-717.5 1380.67,-717.5 1662.33,-717.5 1662.33,-717.5 1666.17,-717.5 1670,-721.33 1670,-725.17 1670,-725.17 1670,-732.83 1670,-732.83 1670,-736.67 1666.17,-740.5 1662.33,-740.5"/>
<text text-anchor="middle" x="1521.5" y="-725.3" font-family="Arial" font-size="14.00" fill="#cfffac">pages/management/components/tableData.jsx</text>
</g>
<!-- pages/management/components/FragsTable.jsx&#45;&gt;pages/management/components/tableData.jsx -->
<g id="edge55" class="edge">
<title>pages/management/components/FragsTable.jsx&#45;&gt;pages/management/components/tableData.jsx</title>
<path fill="none" stroke="#757575" d="M1271.08,-729C1300.99,-729 1332.43,-729 1362.53,-729"/>
<polygon fill="#757575" stroke="#757575" points="1362.69,-732.5 1372.69,-729 1362.69,-725.5 1362.69,-732.5"/>
</g>
<!-- pages/management/manageFragments.jsx -->
<g id="node45" class="node">
<title>pages/management/manageFragments.jsx</title>
<path fill="none" stroke="#c6c5fe" d="M548.33,-536.5C548.33,-536.5 287.67,-536.5 287.67,-536.5 283.83,-536.5 280,-532.67 280,-528.83 280,-528.83 280,-521.17 280,-521.17 280,-517.33 283.83,-513.5 287.67,-513.5 287.67,-513.5 548.33,-513.5 548.33,-513.5 552.17,-513.5 556,-517.33 556,-521.17 556,-521.17 556,-528.83 556,-528.83 556,-532.67 552.17,-536.5 548.33,-536.5"/>
<text text-anchor="middle" x="418" y="-521.3" font-family="Arial" font-size="14.00" fill="#c6c5fe">pages/management/manageFragments.jsx</text>
</g>
<!-- pages/management/manageFragments.jsx&#45;&gt;pages/management/LdodManageFragments.jsx -->
<g id="edge56" class="edge">
<title>pages/management/manageFragments.jsx&#45;&gt;pages/management/LdodManageFragments.jsx</title>
<path fill="none" stroke="#757575" d="M445.32,-536.5C503.37,-561.86 642.42,-622.62 708.27,-651.39"/>
<polygon fill="#757575" stroke="#757575" points="706.87,-654.6 717.43,-655.39 709.67,-648.18 706.87,-654.6"/>
</g>
<!-- pages/sources/LdodSources.jsx -->
<g id="node46" class="node">
<title>pages/sources/LdodSources.jsx</title>
<path fill="none" stroke="#c6c5fe" d="M841.33,-535.5C841.33,-535.5 648.67,-535.5 648.67,-535.5 644.83,-535.5 641,-531.67 641,-527.83 641,-527.83 641,-520.17 641,-520.17 641,-516.33 644.83,-512.5 648.67,-512.5 648.67,-512.5 841.33,-512.5 841.33,-512.5 845.17,-512.5 849,-516.33 849,-520.17 849,-520.17 849,-527.83 849,-527.83 849,-531.67 845.17,-535.5 841.33,-535.5"/>
<text text-anchor="middle" x="745" y="-520.3" font-family="Arial" font-size="14.00" fill="#c6c5fe">pages/sources/LdodSources.jsx</text>
</g>
<!-- pages/sources/components/SourcesTable.jsx -->
<g id="node47" class="node">
<title>pages/sources/components/SourcesTable.jsx</title>
<path fill="none" stroke="#c6c5fe" d="M1254.33,-535.5C1254.33,-535.5 981.67,-535.5 981.67,-535.5 977.83,-535.5 974,-531.67 974,-527.83 974,-527.83 974,-520.17 974,-520.17 974,-516.33 977.83,-512.5 981.67,-512.5 981.67,-512.5 1254.33,-512.5 1254.33,-512.5 1258.17,-512.5 1262,-516.33 1262,-520.17 1262,-520.17 1262,-527.83 1262,-527.83 1262,-531.67 1258.17,-535.5 1254.33,-535.5"/>
<text text-anchor="middle" x="1118" y="-520.3" font-family="Arial" font-size="14.00" fill="#c6c5fe">pages/sources/components/SourcesTable.jsx</text>
</g>
<!-- pages/sources/LdodSources.jsx&#45;&gt;pages/sources/components/SourcesTable.jsx -->
<g id="edge57" class="edge">
<title>pages/sources/LdodSources.jsx&#45;&gt;pages/sources/components/SourcesTable.jsx</title>
<path fill="none" stroke="#757575" d="M849.34,-524C884.67,-524 924.98,-524 963.41,-524"/>
<polygon fill="#757575" stroke="#757575" points="963.66,-527.5 973.66,-524 963.66,-520.5 963.66,-527.5"/>
</g>
<!-- pages/sources/constants.js -->
<g id="node48" class="node">
<title>pages/sources/constants.js</title>
<path fill="none" stroke="#cfffac" d="M1199.83,-576.5C1199.83,-576.5 1036.17,-576.5 1036.17,-576.5 1032.33,-576.5 1028.5,-572.67 1028.5,-568.83 1028.5,-568.83 1028.5,-561.17 1028.5,-561.17 1028.5,-557.33 1032.33,-553.5 1036.17,-553.5 1036.17,-553.5 1199.83,-553.5 1199.83,-553.5 1203.67,-553.5 1207.5,-557.33 1207.5,-561.17 1207.5,-561.17 1207.5,-568.83 1207.5,-568.83 1207.5,-572.67 1203.67,-576.5 1199.83,-576.5"/>
<text text-anchor="middle" x="1118" y="-561.3" font-family="Arial" font-size="14.00" fill="#cfffac">pages/sources/constants.js</text>
</g>
<!-- pages/sources/LdodSources.jsx&#45;&gt;pages/sources/constants.js -->
<g id="edge58" class="edge">
<title>pages/sources/LdodSources.jsx&#45;&gt;pages/sources/constants.js</title>
<path fill="none" stroke="#757575" d="M848.94,-535.54C876.56,-538.63 906.42,-541.95 934,-545 961.18,-548 990.64,-551.23 1017.81,-554.2"/>
<polygon fill="#757575" stroke="#757575" points="1017.78,-557.72 1028.1,-555.33 1018.54,-550.76 1017.78,-557.72"/>
</g>
<!-- pages/sources/components/tableData.jsx -->
<g id="node49" class="node">
<title>pages/sources/components/tableData.jsx</title>
<path fill="none" stroke="#cfffac" d="M1645.83,-555.5C1645.83,-555.5 1397.17,-555.5 1397.17,-555.5 1393.33,-555.5 1389.5,-551.67 1389.5,-547.83 1389.5,-547.83 1389.5,-540.17 1389.5,-540.17 1389.5,-536.33 1393.33,-532.5 1397.17,-532.5 1397.17,-532.5 1645.83,-532.5 1645.83,-532.5 1649.67,-532.5 1653.5,-536.33 1653.5,-540.17 1653.5,-540.17 1653.5,-547.83 1653.5,-547.83 1653.5,-551.67 1649.67,-555.5 1645.83,-555.5"/>
<text text-anchor="middle" x="1521.5" y="-540.3" font-family="Arial" font-size="14.00" fill="#cfffac">pages/sources/components/tableData.jsx</text>
</g>
<!-- pages/sources/components/SourcesTable.jsx&#45;&gt;pages/sources/components/tableData.jsx -->
<g id="edge59" class="edge">
<title>pages/sources/components/SourcesTable.jsx&#45;&gt;pages/sources/components/tableData.jsx</title>
<path fill="none" stroke="#757575" d="M1262.25,-531.14C1300.29,-533.03 1341.34,-535.08 1379.27,-536.96"/>
<polygon fill="#757575" stroke="#757575" points="1379.19,-540.47 1389.36,-537.47 1379.54,-533.47 1379.19,-540.47"/>
</g>
<!-- pages/sources/sources.jsx -->
<g id="node50" class="node">
<title>pages/sources/sources.jsx</title>
<path fill="none" stroke="#c6c5fe" d="M498.33,-373.5C498.33,-373.5 337.67,-373.5 337.67,-373.5 333.83,-373.5 330,-369.67 330,-365.83 330,-365.83 330,-358.17 330,-358.17 330,-354.33 333.83,-350.5 337.67,-350.5 337.67,-350.5 498.33,-350.5 498.33,-350.5 502.17,-350.5 506,-354.33 506,-358.17 506,-358.17 506,-365.83 506,-365.83 506,-369.67 502.17,-373.5 498.33,-373.5"/>
<text text-anchor="middle" x="418" y="-358.3" font-family="Arial" font-size="14.00" fill="#c6c5fe">pages/sources/sources.jsx</text>
</g>
<!-- pages/sources/sources.jsx&#45;&gt;pages/sources/LdodSources.jsx -->
<g id="edge60" class="edge">
<title>pages/sources/sources.jsx&#45;&gt;pages/sources/LdodSources.jsx</title>
<path fill="none" stroke="#757575" d="M442.11,-373.52C499.06,-401.91 646.24,-475.27 711.74,-507.92"/>
<polygon fill="#757575" stroke="#757575" points="710.28,-511.1 720.79,-512.43 713.4,-504.84 710.28,-511.1"/>
</g>
<!-- text.js -->
<g id="node51" class="node">
<title>text.js</title>
<path fill="none" stroke="#c6c5fe" d="M74.33,-70.5C74.33,-70.5 35.67,-70.5 35.67,-70.5 31.83,-70.5 28,-66.67 28,-62.83 28,-62.83 28,-55.17 28,-55.17 28,-51.33 31.83,-47.5 35.67,-47.5 35.67,-47.5 74.33,-47.5 74.33,-47.5 78.17,-47.5 82,-51.33 82,-55.17 82,-55.17 82,-62.83 82,-62.83 82,-66.67 78.17,-70.5 74.33,-70.5"/>
<text text-anchor="middle" x="55" y="-55.3" font-family="Arial" font-size="14.00" fill="#c6c5fe">text.js</text>
</g>
<!-- text.js&#45;&gt;textReferences.js -->
<g id="edge61" class="edge">
<title>text.js&#45;&gt;textReferences.js</title>
<path fill="none" stroke="#757575" d="M82.03,-51.77C141.1,-36.01 289.99,0 417,0 417,0 417,0 1891.5,0 2088.61,0 2320.02,-28.7 2433.34,-44.63"/>
<polygon fill="#757575" stroke="#757575" points="2432.88,-48.1 2443.27,-46.04 2433.86,-41.17 2432.88,-48.1"/>
</g>
<!-- textRouter.jsx -->
<g id="node53" class="node">
<title>textRouter.jsx</title>
<path fill="none" stroke="#c6c5fe" d="M236.33,-149.5C236.33,-149.5 153.67,-149.5 153.67,-149.5 149.83,-149.5 146,-145.67 146,-141.83 146,-141.83 146,-134.17 146,-134.17 146,-130.33 149.83,-126.5 153.67,-126.5 153.67,-126.5 236.33,-126.5 236.33,-126.5 240.17,-126.5 244,-130.33 244,-134.17 244,-134.17 244,-141.83 244,-141.83 244,-145.67 240.17,-149.5 236.33,-149.5"/>
<text text-anchor="middle" x="195" y="-134.3" font-family="Arial" font-size="14.00" fill="#c6c5fe">textRouter.jsx</text>
</g>
<!-- text.js&#45;&gt;textRouter.jsx -->
<g id="edge62" class="edge">
<title>text.js&#45;&gt;textRouter.jsx</title>
<path fill="none" stroke="#757575" d="M82.13,-67.15C91.18,-70.37 101.24,-74.4 110,-79 132.3,-90.71 155.59,-107.48 171.97,-120.15"/>
<polygon fill="#757575" stroke="#757575" points="169.84,-122.92 179.87,-126.35 174.16,-117.42 169.84,-122.92"/>
</g>
<!-- textRouter.jsx&#45;&gt;pages/edition/edition.jsx -->
<g id="edge63" class="edge">
<title>textRouter.jsx&#45;&gt;pages/edition/edition.jsx</title>
<path fill="none" stroke="#757575" d="M215.28,-126.32C231.85,-116.85 256.68,-103.97 280,-97 479.19,-37.5 536.12,-38 744,-38 744,-38 744,-38 1119,-38 1365.42,-38 1656.14,-41.62 1799.83,-43.66"/>
<polygon fill="#757575" stroke="#757575" points="1799.87,-47.16 1809.92,-43.8 1799.97,-40.16 1799.87,-47.16"/>
</g>
<!-- textRouter.jsx&#45;&gt;pages/fragment/fragment.js -->
<g id="edge64" class="edge">
<title>textRouter.jsx&#45;&gt;pages/fragment/fragment.js</title>
<path fill="none" stroke="#757575" d="M244.23,-142.58C265.53,-144.61 291.42,-147.07 316.6,-149.46"/>
<polygon fill="#757575" stroke="#757575" points="316.29,-152.95 326.58,-150.41 316.96,-145.98 316.29,-152.95"/>
</g>
<!-- textRouter.jsx&#45;&gt;pages/fragments/fragments.jsx -->
<g id="edge65" class="edge">
<title>textRouter.jsx&#45;&gt;pages/fragments/fragments.jsx</title>
<path fill="none" stroke="#757575" d="M244.23,-133.64C262.62,-131.97 284.43,-130 306.25,-128.02"/>
<polygon fill="#757575" stroke="#757575" points="306.63,-131.5 316.27,-127.12 305.99,-124.53 306.63,-131.5"/>
</g>
<!-- textRouter.jsx&#45;&gt;pages/management/manageFragments.jsx -->
<g id="edge66" class="edge">
<title>textRouter.jsx&#45;&gt;pages/management/manageFragments.jsx</title>
<path fill="none" stroke="#757575" d="M198.16,-149.7C205.27,-186.26 230.42,-300.73 280,-382 311.42,-433.51 364.15,-481.6 394.2,-506.75"/>
<polygon fill="#757575" stroke="#757575" points="392.1,-509.56 402.04,-513.22 396.55,-504.16 392.1,-509.56"/>
</g>
<!-- textRouter.jsx&#45;&gt;pages/sources/sources.jsx -->
<g id="edge67" class="edge">
<title>textRouter.jsx&#45;&gt;pages/sources/sources.jsx</title>
<path fill="none" stroke="#757575" d="M207.57,-149.73C243.6,-186.24 354,-298.14 398.31,-343.05"/>
<polygon fill="#757575" stroke="#757575" points="396.03,-345.73 405.54,-350.39 401.01,-340.81 396.03,-345.73"/>
</g>
</g>
</svg>
